<svg xmlns="http://www.w3.org/2000/svg" viewBox="0 0 327.96268 279.40289">
  <g transform="translate(-481.94648,-117.3777)">
    <path
      fill="currentColor"
      stroke="none"
      d="m 538.64744,117.66446 0.22852,2.38086 c 0.18182,1.8923 1.5228,4.78778 6.53711,14.11328 8.20178,15.2535 9.30566,17.41505 9.03515,17.68555 -0.3826,0.38262 -6.32834,-1.38631 -16.40234,-4.88086 -26.07798,-9.04614 -29.27771,-9.88685 -29.58008,-7.76758 -0.25508,1.78788 1.60865,6.3628 7.64258,18.75976 5.53431,11.3705 8.18555,17.01582 8.18555,17.42969 0,0.51417 -3.28267,-0.12621 -17.50195,-3.41211 -15.5632,-3.59647 -20.61515,-4.59847 -23.20508,-4.60547 l -1.38282,-0.004 0.19727,3.01562 c 0.25515,3.90648 1.37888,6.09843 13.23633,25.79688 l 8.78515,14.5957 c 0.82804,0.48627 1.54506,1.57728 1.72852,3.27148 0.003,0.0322 0.006,0.0635 0.01,0.0957 1.41353,0.45041 2.17962,1.2808 2.38867,2.12109 0.37612,0.43155 0.70732,1.02736 0.95117,1.80469 0.60273,1.92133 1.08271,3.87654 1.52734,5.83984 0.48904,1.1576 0.86782,2.36246 1.25,3.5586 0.63864,1.93764 1.22787,3.90604 2.05078,5.77539 0.78633,1.82876 1.8638,3.49056 2.93555,5.1582 0.0548,0.0924 0.10943,0.18486 0.16406,0.27734 0.0931,0.11133 0.18627,0.22269 0.2793,0.33399 1.22756,1.50239 2.72992,2.73747 4.07227,4.12891 1.10881,1.14931 1.22871,1.34665 2.25586,2.59179 2.0661,2.59187 3.84486,5.39104 5.59375,8.20117 0.65645,1.0295 1.29792,2.06846 1.92968,3.11328 2.00214,1.88509 3.24498,3.10541 3.34961,3.23438 12.25491,15.10443 19.74133,24.48913 23.80469,29.79688 1.39003,1.26191 2.75202,2.55208 4.07617,3.88867 1.48963,1.57717 3.09028,3.03993 4.64453,4.55078 1.16605,1.19264 2.34487,2.37107 3.5293,3.54492 0.95082,0.68733 1.92274,1.34593 2.88672,2.01563 1.01646,0.70614 1.58519,1.496 1.80078,2.23046 0.13302,0.12645 0.2646,0.2531 0.39648,0.38086 2.14137,2.07097 4.28462,4.14949 6.59375,6.03516 2.00254,1.67268 3.96315,3.39555 6.04297,4.97461 2.23402,1.79274 4.47117,3.58865 6.8125,5.24023 2.18728,1.53354 4.38318,3.05097 6.59375,4.55078 1.32172,0.91885 2.65332,1.82437 4.06446,2.60157 0.78131,0.47149 1.58721,0.89599 2.39257,1.32226 0.79936,0.21254 1.8362,0.60678 3.21485,1.15625 2.4474,0.97541 8.01949,2.86594 12.38281,4.20117 10.1878,3.11759 12.12392,4.06597 16.99805,8.33204 6.62519,5.79868 26.83441,27.30353 42.3789,45.0957 l 4.28321,4.9043 h 0.002 c 0.97475,0.52089 1.96172,1.01878 2.98242,1.43945 h 0.002 l 1.17382,-0.004 c 4.44356,-0.0203 8.39486,-0.86543 31.54688,-6.86914 2.697,-0.75699 5.38944,-1.53322 8.07031,-2.34961 7.70859,-2.51111 15.39968,-5.0717 23.08203,-7.66211 9.12994,-3.06627 18.1994,-6.31081 27.2461,-9.61328 6.72652,-2.48309 13.63066,-4.41971 20.30859,-7.03515 2.4683,-0.97613 4.90446,-2.02798 7.3457,-3.06836 -1.34334,-2.36234 -3.19104,-5.31136 -5.58789,-8.95508 -9.98326,-15.17686 -15.71502,-22.90085 -21.26367,-28.6582 -5.21042,-5.40646 -7.03475,-6.73017 -38.39453,-27.82813 -26.96775,-18.14313 -35.47454,-24.0328 -38.58984,-26.72461 -4.73843,-4.0942 -14.05964,-13.64433 -19.11915,-19.58789 -9.23892,-10.85322 -34.08996,-43.60631 -54.7207,-72.11914 -5.69935,-7.87682 -9.76968,-13.27637 -13.23828,-17.32422 -0.89366,0.61652 -2.40767,0.51261 -3.96289,-0.93359 -1.26395,-1.17536 -2.57604,-2.29544 -3.85156,-3.45703 -0.61666,-0.14265 -1.23158,-0.29473 -1.84375,-0.45704 -3.74541,-1.03776 -7.44739,-2.27621 -10.78711,-4.31054 -0.19468,-0.11733 -0.38745,-0.2371 -0.58008,-0.35742 -2.50925,-1.07199 -4.96643,-2.25666 -7.34766,-3.60157 -1.56856,-0.88592 -2.21146,-2.03711 -2.18164,-3.00195 -4.30213,-4.20302 -6.76456,-6.20112 -11.6914,-9.49023 -11.28373,-7.5329 -25.61186,-13.99707 -32.78516,-14.78907 -1.20797,-0.13337 -2.82236,-0.33914 -3.58594,-0.45898 z" />
  </g>
</svg>
