<svg xmlns="http://www.w3.org/2000/svg" xml:space="preserve" width="257.082" height="399.121"><path d="M147.58 195.339c1.509.042 1.882-.566 1.645-1.522-.448-.678-1.63-.943-1.798-1.372l1.67-1.223 3.63-3.345-.94-1.45-4.153 2.735c-.753.674-1.576 1.065-2.176 2.351-2.74-1.072-4.147-2.55-4.977-4.204-.158-.593-.227-1.204.028-1.88.47-.748.965-1.477 1.762-1.98 1.908-4.106 4.414-8.072 5.02-12.485-.113-2.604-1.646-3.552-2.665-5.1-1.16-1.762 1.575-3.674 2.494-5.415 3.633-5.866 11.89-10.214 18.174-5.684 6.603 4.253 7.779 13.88 4.792 20.642-2.392 6.803-6.425 12.679-9.234 19.3-.227.536-.117 1.428-.332 1.97-.63 3.378-1.326 6.512-4.493 6.136-.692 1.568.088 2.75-1.123 3.785-1.13.967-2.17 1.961-3.865 2.759-1.642 1.044-3.445 1.659-5.26 2.24-.277-.071-2.134-5.705-4.735-10.01-1.715-2.839-5.026-3.334-4.145-4.507.735-.979 4.886-3.017 10.68-1.741m-.42 11.71c.81.073 2.02-.693 3.345-1.577 2.498-1.668 4.286-2.92 3.837-4.341-.118-.374-.778-.634-.813-.53-.048.14-.1.348-.335.8-.22-.257-.285-.633-.524-.573-.668.165-1.737.8-3.308 1.192-2.097.522-4.734.771-5.557 1.851-.586.77.077 1.51 1.097 2.389.493.426-.48 1.361.525 1.78zm11.466-12.33c3.221-1.943 3.004-11.488-1.226-4.925-1.476 1.621-2.23 5.818 1.226 4.925m-3.379-10.908c2.4-1.994.555-6.006 1.032-6.253 1.575-.814 1.27-1.004 1.369-1.993.013-1.206-1.69-3.901-2.1-5.225-.588-1.899-.557-2.973-.836-4.46-1.478 1.275-2.941 3.059-3.139 5.024-.274 2.722 1.727 5.858 3.837 6.624-.61.788-1.984 2.072-2.266 3.487-.358 1.79-.14 3.485 2.103 2.796M95.52 185.83c-1.014-2.92-.48-7.852-.125-2.172q.076 1.085.125 2.172m-3.643-37.046c1.223-.7-4.949-7.473-1.337-1.916.445.639.9 1.272 1.337 1.916m-.67 15.548c-1.536-3.948-3.303-13.28-1.474-14.443 1.71 4.573 2.185 9.619 1.475 14.443m52.157-26.574c-.418-3.283 5.09-4.563 1.41-1.733-.489.582-.179 2.14-1.41 1.733m-1.022-4.894c1.094-2.08.22-8.026 3.489-6.998.02 2.603-1.165 5.601-3.49 6.998m-29.788 8.682c.407-.736 3.516-2.249 3.504-2.004.563.53 1.43 2.276 1.577 2.932-.243.315-1.336.612-1.86.606-1.091.023-2.408-1.2-3.221-1.534m17.049-1.258 7.288 2.587-2.446 3.597c-.391.386-.871.55-1.429.52-.208-.449-.45-.89-.172-1.42l-2.967-1.666-.984.003 1.47-2.152zm-17.757 12.43c-2.934-1.804-3.242-6.085-.535-8.337 2.257 2.121 5.53 6.245 8.364 4.297 1.328 3.265 9.318 1.035 3.041 3.942-3.25 2.752-7.608 2.997-10.87.098m8.33-8.055c-.32-2.992-2.19-12.103-.704-12.054 2.677 3.788 6.097 8.209 9.435 11.43 2.959-.565-1.839 1.556-2.796 2.091-1.785 1.26-4.087 1.533-4.163-1.235-.44-2.75-.285-2.681-1.772-.232m9.44-7.652c-3.48-2.752-5.939-6.769-9.852-8.885 1.15-3.608-1.849-6.764-.83-9.34-6.164-6.738-1.299-18.49 7.356-20.154 7.842-2.203 18.607.724 20.748 9.521 1.812 6.643-1.414 16.239-7.65 18.73-.12-.21-.055-.447-.434-.62l1.663-2.78-3.123-1.667c-3.546-1.585-13.378-3.401-7.889 2.903 2.893 4.019 7.815 2.593 9.078 1.683.762-.55.943 1.862 1.694 2.2.967 2.986-1.774 1.681-3.206 2.927-.282.245-.47.946-.46 1.456.004.283.466.668.195 1.496-.245.4-.663.386-1.18.408-.256.01-.688.064-1.038.034-.385-.032-.75.518-.708.928.044.441.491.806.599.82l2.173.284c-.47 2.382 2.975 1.617 2.789 1.804-.111.11-1.4.931-2.481 1.265-2.755-.104-5.312-1.306-7.444-3.013m-34.35 41.923-1.7-6.634c1.378 1.384 5.394 1.744 6.369 1.198.387-.217-.754-1.28-1.58-2.634-4.925-7.1-3.805-16.142-4.71-24.313.184-3.108-1.506-14.88-5.183-9.45.763 3.104.492 7.751-2.845 3.36-.84-5.229-5.172-8.308-9.46-11.389-2.803-3.218-5.647-6.407-8.481-9.608.39 7.189 6.245 12.104 11.003 16.799 2.971 1.374 8.838 3.545 5.023 7.042-6.826 1.254-10.077-6.686-15.063-9.91-5.912-3.385-3.721-9.854-7.9-13.233-2.233-2.182-4.821-7.355.592-5.111 1.64-4.183 3.567 3.57 5.988.276 8.133-3.235 17.107 1.644 21.298 8.771 1.871 2.218 3.633 6.87 4.217 1.59 4.525-1.767 13.79 2.838 12.26 8.525-.319.24-.65.548-1.096.894-.473.366-1.455.242-1.557.56-2.627 8.207-.562 15.28.469 18.648 2.039 4.442 4.939 8.587 7.474 12.75-2.677 3.564-4.875 7.475-8.093 10.555-2.17 1.714-4.524 3.163-6.83 4.681zm-38.362-65.546c-2.384-2.241-4.437-3.382-1.307-6.945 3.183-5.355 9.894-13.64 16.078-15.564 5.868.242-.285 12.262 4.797 8.413 8.5.599 1.486 14.62-4.983 12.323-4.713-1.346-8.232.306-10.871 3.437-1.947-.783-3.08.422-3.714-1.664" style="display:inline;fill:#f09999;fill-opacity:.82575;fill-rule:evenodd;stroke:none;stroke-width:0;stroke-linecap:round;stroke-linejoin:round;stroke-dasharray:none;stroke-opacity:1"/><path d="M64.084 264.043c-1.661-.065-5.66 2.81-7.23 7.22.877 1.076 3.657-.363 4.626-1.07 3.775-4.269 3.896-6.1 2.604-6.15m1.434 9.744c-2.895-.184-14.01 5.862-5.848 5.531l1.904-.318 1.916-1.379c3.033-2.735 3.16-3.762 2.028-3.834m7.324 3.57c-1.052-.034-4.82 4.957-3.865 6.657 4.803.172 6.055-5.144 4-6.616a.24.24 0 0 0-.135-.04m10.049 5.663c-1.37.04-8.794 7.528-7.713 9.931l1.67-.015.242-.829c2.715-2.812 7.038-8.299 5.937-9.054a.23.23 0 0 0-.136-.033m6.746 2.834c-.85.023-1.492.506-1.764 1.468-.392 1.388-.227 3.53.488 5.768.43 1.341 1.098 2.7 1.72 4.05l4.126 8.985c.138-2.678 1.393-15.59.627-16.672-1.793-2.407-3.781-3.64-5.197-3.6m4.57 20.271c-.014.273-.014.441-.002.479v.003h.002v.002h.004l.002-.002c.015-.016.04-.113.076-.304zm-10.717-15.28c-1.33-.071-6.724 3.387-5.531 6.212 1.82 2.05 4.919.995 4.84-.36-.037-.636-1.08-.762-.9-1.238.413-1.097 2.201-4.247 1.8-4.55a.4.4 0 0 0-.209-.063m-2.1 11.702c-.359.002-.665.046-.859.174-.472.31.168 1.563.442 2.203.352.822.6 1.562 2.445 1.904 1.519-.07 1.848-.225 2.447-.615.483-.314.793-.418 1.059-.723.332-.381.705-.95.562-1.23-.504-.989-2.413-1.453-4.123-1.563-.626-.04-1.373-.154-1.972-.15m12.907 3.713c.081 3.341.002 5.032-1.623 7.586-.402.631-2.86 2.142-3.108 2.793-.36.95-.798 4.822-.386 5.615l.011.016h.002l.002.001.002.002h.002l.002.002h.008l.002-.002h.002c.163-.088.501-2.316.834-2.123 2.91 1.69 2.26 3.46 2.25 4.387 5.462.714 8.485-8.17 6.045-10.068-2.781-2.163-2.919-6.16-4.045-8.21m-6.572 2.826c-.38.298-1.614 1.198-1.71 3.113.75.556 1.592.484 2.42.549.886-.463 1.388-1.041 1.864-1.627.65-.82-1.13-1.781-2.574-2.035m35.857 28.475c-2.274.139-3.662.757-.26 2.052l.963.31c9.343-1.499 3.088-2.595-.703-2.362m-2.33 8.808c-1.716.063-2.49.624 1.006 2.065 7.329-.893 1.854-2.17-1.006-2.065m-2.229 7.397c-2.508.07-3.852.845 2.204 2.613 6.173-1.627 1.022-2.703-2.204-2.613m-.76 7.787c-.45.02-.42.14.932.445 1.13-.016 1.508-.077 1.475-.148-.092-.142-1.754-.327-2.406-.297m.313 5.302a2.2 2.2 0 0 0-.605.084c.644.066.922.044.972.006l.004-.006h.002v-.002h.002v-.009l-.002-.002-.004-.006c-.033-.03-.175-.063-.369-.065m-.67 4.524c-2.427-.043-6.412 2.504-6.277 5.264.383 1.546 3.387.995 5.092.36.97-.36 2.29-.856 2.742-.358 1.38.548 2.13 1.52 3.23.777 2.829-1.91-.847-5.973-4.787-6.043m-1.09 7.568c-.643-.002-1.452.309-2.154.463-.477.354-.146.036-1.273.906-.417.322-1.08.39-1.502.631-.282.16-.407.343-.557.485-.31.293-.492.515-.756.732-.21.172-.425.429-.713.75-.11.123-.226.223-.341.383-.04.054-.14.087-.157.168 4.564-.964 6.116-1.201 8.889-1.272 4.5 1.532 6.571 2.69 6.725 2.25.345-.989-5.1-4.705-7.711-5.357-.14-.035-.285-.138-.45-.139m1.274 6.078a7 7 0 0 0-1.647.217c-.235.062-.462.111-.505.112-.043 0-.19-.03-.327-.067-.578-.159-1.478-.05-2.562.313-1.795.598-3.67 1.732-4.893 2.96-.94.944-1.326 1.769-1.066 2.278.1.195.432.473.781.656.33.173 1.076.436 1.317.465.078.01.457-.008.843-.037.386-.03.978-.054 1.313-.055.708-.001.955.04 1.222.211a.7.7 0 0 0 .235.11c.04 0 .155-.088.297-.227.818-.804 1.539-1.153 2.386-1.154.568 0 .944.114 1.73.527 1.023.536 1.201.603 1.61.603.355 0 .564-.06 1.037-.298l.409-.205.498.064c.273.035.716.078.982.098.627.047 1.879.021 2.281-.047.988-.168 1.586-.472 1.803-.916.235-.48-.011-1.308-.639-2.149-1.166-1.561-3.287-2.859-5.382-3.295a8 8 0 0 0-1.723-.164" style="display:inline;fill:#ececec;fill-opacity:.82575;fill-rule:evenodd;stroke:none;stroke-width:0;stroke-linecap:round;stroke-linejoin:round;stroke-dasharray:none;stroke-opacity:1"/><path d="M74.514 87.98c-10.183 1.143-23.14 15.233-20.819 20.133 3.522-7.473 15.894-21.677 20.34-16.826-.135-1.063.001-2.151.479-3.307zm-.479 3.307c.155 1.218.665 2.4 1.418 3.606-.251-1.7-.744-2.871-1.418-3.606zm1.418 3.606c.17 1.143.228 2.524.162 4.171 6.158-1.37 7.854 10.152.854 12.23h-.002c-.277-.207-1.071-.312-.772.36.896-.012.968-.21.778-.357 8.095 4.574-20.305-2.5-10.787 3.838 11.657-5.218 20.931 3.432 25.857 11.402 1.486-7.975 22.194 6.721 11.615 9.824-4.027 12.14 1.636 21.621 8.336 30.647-3.973 5.17-6.322 10.751-12.078 13.752l-4.744 2.785c-.246-12.227-8.417-23.744-6.098-36.504 7.411 5.515-1.338 27.17 10.055 25.838-8.572-11.4-3.239-24.395-7.463-37.053-3.616-1.17-.596 6.985-1.84 7.92 5.192 2.108 3.972 13.247.705 3.178.012-.552-3.775-2.618-2.346-3.508q.251.006.489.035c-.53-.373-1.237-1.038-2.176-2.074-4.569-5.807 5.073 12.394-2.05 2.863a26 26 0 0 1-1.948-.68c5.428 3.915 8.218 14.563 2.828 3.62-1.042-3.074-5.316-2.839-6.998-4.899a4.8 4.8 0 0 1 1.404.037c-8.897-4.474-18.169-13.564-16.953-19.091-5.556-4.469-8.181-17.786-7.82-7.34 1.506 3.25-2.863-3.42-3.063-3.373l-.002.002c-.04.073.536 1.146 2.286 4.132 3.847 7.078 8.275 13.721 13.681 19.284 5.6 2.304 13.422 10.657.115.119 4.782 4.894 10.328 8.941 16.909 11.697 2.37 13.418 8.05 27.186 8.29 40.887-8.774 6.71 3.95 18.854 12.006 17.107 8.144-.048 8.554 2.003 13.782-.418 9.572-1.505 15.508-11.48 27.142-10.963 10.524.684-13.037-3.595-4.08-11.449 2.78-7.074 8.03-11.617 2.047-16.738 2.834-10.804 16.004-19.924 24.55-9.838 10.653 11.31-1.178 27.132-6.376 38.564-.994 10.861-9.747 15.797-15.584 17.522l-1.914-.297s-4.375-15.375-8.5-14.25-7.75 4.5-7.75 4.5c7.863 12.917-9.381 16.73-15.273 16.094-5.913 2.124-8.352-2.144-15.606-.37-4.028-.98-21.682-10.149-10.246-2.142-14.08 4.724-29.219-.647-43.648 2.918-14.644.436-34.623 14.486-26.801 30.662 5.308 12.968 13.662 23.813 28.342 26.043 11.323 5.655 21.845 13.724 30.123 23.281 9.31 7.459 8.7 27.13 19.408 29.428.123-.145.391-.418.844-.844 2.529-1.255 2.85-4.468 4.943-6.2 1.123 1.228-4.53 6.27-5.672 7.068.766.154 1.59.22 2.479.187 13.26-9.284-1.564-25.364 4.11-36.732-4.494-12.522-22.695-8.188-26.722-21.584-2.812-6.356-11.91-15.056.824-12.594 1.525-.494 12.38.346 6.838-.613 10.994.652 6.205-2.153 5.362-3.223 9.642 6.104 6.622-2.578 6.576-4.402 7.134 5.86 4.844 9.826-1.004 9.377 13.006 4.483 12.402 23.297 13.824 35.093 1.74 13.647-4.693 26.866 4.16 39.754 2.389 11.153 1.63 22.919-.742 33.8-2.948 10.878-14.714 32.903 6.793 29.792 7.331 2.203 16.618-5.829 12.658-3.852 5.609-4.43-6.076-13.068-3.425-21.398-.356-12.928 6.986-24.32 12.175-35.691 13.424-8.885 10.666-25.082 13.246-38.745 3.912-.977 14.787 10.078 23.422 10.11 5.638 4.243 14.949 3.528 6.375-2.674-9.729-.055-17.402-7.95-8.875-14.373 14.682 7.731-4.344-11.56-11.127-9.139-.875-.923-1.536-1.86-2.01-2.787.732 4.417-7.46-2.228-4.673-1.11l1.861-1.075 1.328-1.592q.365.705.635 1.3c-1.516-8.4 11-14.48 13.488-1.445 4.36 10.166 16.65 10.152 25.875 15.541-.579-.702-1.11-1.547-1.584-2.56-11.845-4.375-25.527-8.904-26.465-23.77-2.72-6.195-5.691-14.924 1.29-7.453-.927-6.602-11.766-11.093-4.567.309 4.988 9.442 3.492 9.68-4.715 9.56-1.32 4.993-2.335 2.84-2.676-.902-.361 8.983-4.188 14.536-10.74 6.137-8.61-4.37-25.063-20.477-6.887-23.764 6.214-.976 10.067 5.515 11.344 2.037 9.178 5.696.204 23.435 6.242 15.104-.432-5.913.752-14.987 4.875-7.352 1.704-5.762-12.972-9.249-7.384-13.248 8.614 4.088 18.541 6.281 23.728 12.814 4.155-.545 22.874 5.889 14.16-2.14 6.179-12.022 15.84-11.469 21.834-3.867-.9-1.87-2.931-5.05-.996-6.57 5.838-1.532 6.588 12.898 3.34 10.284.5.996.95 2.058 1.34 3.184 6.02 6.308 7.599 13.053 15.99 6.527 5.059.395 15.288 8.504 7.73-1.427-7.365-9.785-25.882-2.669-22.427-19.479-13.658-11.893-29.296 2.44-44.193 1.3-8.753-9.297-19.392-20.25-20.713-32.85-1.548 2.817-5.27 1.52-4.31.118 1.818-1.042 4.473-1.575 4.921-3.998.078 1.019.02 1.868-.135 2.57 6.765-14.984 17.301-29.414 16.881-46.468-.62-14.651-14.275-21.976-24.57-29.602-4.823-10.384 6.985-25.422-5.377-34.591-13.137-12.709-32.701 1.618-31.467 17.902 3.403 4.926 4.899 13.965-5.12 11.232 3.577 6.66-6.445-3.616-7.755-5.074-10.027-2.471-23.347-9.996-16.588-20.303-2.882-3.546-5.75-6.335-7.418-9.005zm81.414 115.91q-.252.557-.496 1.115l.02.193c.2-.364.364-.797.476-1.308zm61.797 44.054a22 22 0 0 0-2.344-3.714q.103.213.184.402c.847 1.798 1.57 2.838 2.16 3.312zm-38.338 2.293c-1.369.18-1.156 1.118 2.139 3.58a15.6 15.6 0 0 0-2.139-3.58zm2.139 3.58q.212.496.394 1.02c.831.796 1.935 1.793 3.102 2.834a20.5 20.5 0 0 1-2.107-2.854 53 53 0 0 1-1.39-1zm3.496 3.854a21 21 0 0 0 3.78 3.35c-1.162-1.032-2.51-2.217-3.78-3.35zm3.78 3.35c1.767 1.571 3.1 2.79 3.06 2.931-.063.127-1.572-.88-5.533-3.795-3.813-3.578-15.463-16.589-13.848-13.246 9.596 12.17 22.358 22.008 37.21 26.639 8.71 1.11 19.21 17.093 10.849 20.344-1.336-13.138-12.265-5.136-19.97-7.961a20 20 0 0 1 1.632 1.615c4.588 10.026 13.749-8.913 16.765 5.684-1.917 20.953 14.822-12.537.492-15.207-6.115-11.298-20.71-10.068-30.658-17.004zm11.769 24.912a23 23 0 0 0-3.645-2.608c1.074 1.304 2.311 2.119 3.645 2.608zm-42.403-27.91q.019.247.041.486.012-.281.018-.567zm-.605 11.207c.146.808.422 1.64.85 2.476-.1-.603-.367-1.413-.85-2.476zm-65.625-17.414a18 18 0 0 0-4.027-.866c1.459.492 2.82.773 4.027.866zm1.537 69.584-.115-.024q-.08.092-.082.12v.005h.002v.002l.002.002h.004q.038 0 .19-.105zM67.48 136.05l-.116-.12-.068-.027zm11.755 6.267c.93.468 1.856.885 2.766 1.243-.863-.623-1.792-1.074-2.766-1.243zm8.94 1.133c.565.398.928.464 1.152.295a4.5 4.5 0 0 0-1.152-.295zm45.129-46.201c16.15.514 19.971 21.277 7.261 29.861 2.65 6.565-2.94 3.061-2.912 5.784 1.216 2.977-2.679 2.885-2.754 2.892.008.005.974.044 3.975.498-.934.573-1.29.932-1.285 1.156q0 .04.015.075c.418.931 8.559-.998.07 3.34-9.656.505-14.318-11.643-20.626-13.19 7.348 1.466-6.67-15.908 2.039-7.336-8.865-8.896-.85-23.199 10.892-22.969l1.723-.095a20 20 0 0 1 1.602-.016zm-80.787 8.674c-.11.008-.176.128-.047.465.681-.027.271-.481.047-.465zm31.37.484-.001.002h-.002a.1.1 0 0 0-.02.024l.01.015.002.002.002.002h.008l.002-.002.002-.002.002-.002.004-.01.002-.017-.002-.006v-.004h-.002l-.002-.002h-.002zm-31.904.49c-.328.043-.727 1.474-.445 4.885 1.135-2.962.842-4.935.445-4.885zm82.014-4.197c-4.75 4.318 5.372 2.02 0 0zm6.438-.562c-1.076 1.099-1.639 1.611-1.4 2.01.735 1.23 5.934-.246 1.4-2.01zm-87.895 7.558c-.167.023.112 1.598 1.252 4.198-.578-2.95-1.1-4.218-1.252-4.198zm81.645-1.465c-4.342 4.564 6.54 3.009 0 0zm6.875-.437c-4.398 4.494 6.002 2.336 0 0zm-6.063 6.156c-4.397 4.494 6.003 2.336 0 0zm6.5-1c-4.397 4.494 6.003 2.336 0 0zm-9.133 8.533c-1.138-.079-2.515-.062-4.252.077l.703.107c-1.336 2.75 8 8.118 10.62 2.32-2.387-1.178-3.655-2.267-7.07-2.504zm-63.26.838c1.382 7.873 21.22 22.637 12.592 11.9-5.488-2.658-8.604-7.617-12.591-11.9zm76.426 2.162c4.85 3.647-7.74 16.339-2.924 4.8-1.731-1.938 1.462-4.129 2.924-4.8zm-43.101 2.17c6.121 4.594 6.465 2.562 0 0zm16.834 2.942c.824 5.369 8.724 11.99 9.93 13.379 2.894-1.324-13.78-14.845-2.542-5.993 3.89 4.688 14.769 4.643 10.735 6.72-.895.46-.724 1.022-2.967 2.099 4.52-.234-3.607 5.228-2.447-1.033-3.481-.693-9.596 7.474-10.903.177-5.08 8.171 13.95 2.279 1.235 8.895-6.796 6-19.547-3.817-10.94-10.537 2.034 2.112 3.577 3.497 4.739 4.299 7.17 4.948-.225-12.346 3.16-18.006zm25.681 3.43c7.62 3.077-4.335 2.71 2.48 6.337-6.005-2.934-7.902 3.885-3.589-4.754zm5.666 6.61h.002c4.989.77-5.111 3.231 2.778 2.745 10.853.187-12.24 6.364 2.855 4.281 15.144-.315-10.285 3.628-10.416 11.223-6.535 17.841-9.27 22.169-7.05 31.162-.516 3.622-.918-3.195-2.465 3.695-4.455 6.214-23.862 13.867-23.633 8.85-14.226 5.002.523-5.239-2.477-4.584-5.134 3.606-16.69 6.425-6.885-1.82 4.912-5.257 19.2-24.085 17.09-23.094-5.914 10.687-18.364 19.49-22.4 29.361-8.015-1.744 6.632-9.682-5.188-6.558 9.71-12.071 14.856-19.336 25.08-29.922 9.147-9.754 18.875-19.623 31.22-25.159zm-20.213 3.391.32.373zm16.958 1.541c-7.352 1.92-22.02 21.683-8.917 7.93 2.925-2.69 6.45-4.773 8.917-7.93zm-16.698 5.323c-1.13 4.451-13.909 10.829-4.377 3.547l2.424-1.809zm5.74 16.127c-4.554 4.14-5.945 23.557-2.548 9.097.618-3.08 2.41-5.938 2.548-9.097zm-46.996.62c3.702 3.049 3.31 18.25 1.592 4.786-.624-1.557-1.528-3.066-1.592-4.785zm64.692 1.157c-6.149 6.383 7.689 14.806.512 2.893-.17-.954-.27-1.433-.512-2.893zm-11.496 2.756c-1.101 6.825 4.817-4.84 1.935 3.826-4.486 3.374-5.356 15.496-4.916 4.92 6.414-8.092-2.866.908 2.98-8.746zm26.357.941c-6.021 3.75-6.133 11.432-.531 2.43q-.07.054-.098.055h-.002l-.006-.002-.002-.002h-.002l-.002-.002-.002-.002v-.002l-.002-.002v-.002c-.065-.202 1.413-2.49.647-2.471zm-25.898 2.281c-.532.61-.678.879-.649.938v.002l.002.002.002.002h.002v.002h.002l.002.002c.104.041.695-.52.639-.947zm12.463 5.047c-4.462 5.104 1.184 6.421 0 0zm-55.829 2.92c3.458 2.475-4.701 3.006 0 0zm36.645.313.395.955zm.535.984-.006.002-.002.002c-.12.118.106 2.513.865 5.166-.425-3.682-.738-5.11-.851-5.17zm-41.98 3.803c1.339 6.61-4.804 4.39 0 0zm-12.723.22a.5.5 0 0 0-.217.057c.56 1.5.822-.06.217-.056zm70.074.155c-5.585 2.823-7.578 6.24-4.232 3.75q.141-.106.297-.227c.942-.73 2.244-1.868 3.935-3.523zm15.555.514c-2.084 2.603-7.095 14.535-3.217 3.433 1.076-1.138 2.027-2.405 3.217-3.433zm-7.936.39c-6.892 7.107.586 9.83 0 0zm-19.414.955c4.164 6.017-6.675 7.204 0 0zm-33.713 10.813c-9.442 4.723 11.852 3.277 4.663 5.709-2.76-1.529-16.256-2.766-4.663-5.71zm46.498 1.463c-2.943 2.346-13.276 2.292-6.376 4.62-5.65 3.93 8.68-3.815 6.376-4.62zm3.48 1.345c-6.683 5.063 2.556 2.599.003 0zM88.28 214.81c4.913 2.17-3.039 5.655 0 0zm-29.335 3.197c6.445.002 16.451 2.414 4.489.723-5.876-1.07-26.718 1.618-10.668-.336l1.818-.127 1.89-.094c.702-.117 1.55-.166 2.471-.166zm34.36.21c5.535.19 20.822 3.453 15.963 9.616.71-4.21-4.51-6.513-5.827-3.912-.839-6.596-8.668.294-10.136-5.703zm30.195.218c9.24.434-5.456.877 1.74 3.705-3.208.056-4.785-2.794-8.504-2.256 2.264-.445 4.56-.745 6.764-1.45zm-38.484.129c12.228.9 7.016 4.234 0 0zm-26.934.62c9.533-.29 23.673 5.322 23.518 7.997 3.426 3.398 5.225 4.544 4.877 1.31 5.632.655 10.913 7.764 5.937 10.71 4.383 7.93 1.756 11.872-5.352 5.146-3.153-3.928-20.54-15.048-7.808-4.82 6.096 2.63 23.706 20.481 6.902 12.886-3.807-1.203-19.562-11.827-16.847-8.514 4.952 3.74 27.667 14.692 8.845 10.942-5.551-1.059-26.681-11.22-10.754-2.565-5.257.801-20.595-12.676-19.707-8.002 5.594 3.192 11.223 7.105.914 3.247-7.688-2.217-7.62 2.382-15.78-3.288-10.212 4.584 23.385 7.399 15.3 7.461-.218.783 21.126 1.756 6.947-.76-8.054-1.503 4.808-1.008 4.68-.73q-.01.012-.053.024c4.672 4.183 27.083 4.848 10.276 6.376-7.098 1.437 2.222 7.901-6.364 1.288.13-.195.09-.905-.299-.315.127.377.232.411.297.318-3.091 10.82-.048-14.44-3.066-.292-3.205 3.469-7.845 8.28-14.092 9.886 9.14-1.084-10.507 8.988-7.289 3.725-8.796-1.198-18.088-10.361-15.441-15.192-12.898-9.547-5.959-27.417 7.634-32.033 8.362-3.531 17.676-4.94 26.725-4.804zm-11.629 48.305c-.715.085-1.608.239-2.701.473.932-.087 1.832-.25 2.701-.473zm27.2-47.537c5.614 2.042 4.804 5.129 0 0zm76.913.033c5.947 3.935.928 6.318 0 0zm-73.039.28c4.712 3.822 16.133 1.918 16.395 4.46-4.943 5.472-12.39-.441-16.395-4.46zm9.32.173c4.86.069 8.71 2.825 1.262 2.442.951.304-7.108-2.024-3.375-2.29a12 12 0 0 1 2.114-.152zm66.788.247c6.619-.147 9.271 15.195 9.14 15.402h-.002l-.002-.002-.002-.002a1 1 0 0 1-.06-.193c-3.643-6.066-4.744-4.103-6.703-3.307-4.965-1.435 10.19 8.668 15.3 8.16 4.804 7.53-17.235-7.449-5.757.95 4.09 3.333-21.764-5.66-8.057 1.757-5.375 4.684-12.564 3.326-19.047-.877 1.822-5.95-21.688-18.166-9.795-15.69 3.99 4.316-1.958-6.007 3.893-.613 1.998 1.802 11.258 8.123 4.467 6.516 4.746 3.544 13.526 5.89 3.91-.33-3.77-2.938 6.026 1.787 6.277 1.59.05-.084-.984-.729-3.973-2.406-4.607-1.853-7.017-5.044-5.072-5.012-2.925-7.203 12.446 3.505 7.254-4.072 4.723-3.485 15.007 12 8.992-.07zm-41.715.029c6.648 2.293 4.97 15.196 13.172 21.043-6.838-4.033-10.786-11.897-13.172-21.041zm.05 1.129c2.143 7.21.32 8.36-.001.002zm31.796.156c1.377 3.663-7.9.134 0 0zm-10.692 1.397c6.211-.248-.302 3.736-2.777.408l1.36-.3a21 21 0 0 1 1.417-.108zm-6.885.236c7.685 1.002-6.008 3.062-4.619 2.18-7.622-3.705 2.917-1.296 4.62-2.18zm-29.296.603c1.608 3.412-.92 4.051-2.864 4.016 2.568 3.026-.443 4.038-.36-.014-.81-.049-1.455-.205-1.528-.287l-.002-.002-.002-.006v-.002l-.002-.002v-.002h.002v-.004l.004-.006.002-.002h.002a.3.3 0 0 1 .128-.023c1.367-1.412 2.738-2.93 4.62-3.666zm-3.223 4.002q.175.01.36.014a9 9 0 0 0-.344-.383q-.012.191-.016.37zm12.562-3.793c3.663 4.481 3.813 21.604 3.832 6.051.45 6.442 4.264 14.915 2.034 3.389-2.604-16.807 6.303 16.712 8.048 12.9-2.378-4.825-8.191-22.591-1.42-8.572 5.725 15.128 17.971 26.36 30.217 36.33-11.187.728-21.124-17.417-25.047-19.473 3.266 8.054 19.03 22.337 21.122 20.389 7.642 4.321 25.49 7.71 26.214 13.535-10.785 3.993 5.63 22.48-8.79 12.563-7.532-7.065-23.514-23.26-30.922-15.66-5.232 7.624-16.168-13.111-20.93-18.721-11.061-7.002-15.532-16.479-13.606-30.315-.966-6.615 3.838-17.321 1.834-3.904-2.671 6.3 1.782 14.523 1.008 2.647 2.015-20.73 2.402 9.826 7.059 18.242 2.343 6.265 7.924 15.824 2.902 4.263-2.39-5.651-7.064-24.525-4.937-22.101 3.023 6.328-1.861-9.993.773-8.268.425-.85-.447-2.613.61-3.295zm12.123.735c10.959 2.241 23.025 23.82 10.405 24.51.7-7.545-11.866-17.025-9.582-20.846 1.785 1.668 2.47 2.301 2.535 2.3l.002-.001v-.008c-.056-.24-4.155-4.684-3.36-5.956zm44.522 5.347c4.15 5.157 3.485 14.777 0 0zm-74.826 1.223c1.266 7.071 7.152 4.117 0 0zm-47.147 1.207c5.43 2.908 23.3 12.037 21.565 9.701-6.913-3.721-13.84-7.937-21.565-9.7zm-25.177 4.768c-1.265 5.29 2.626 13.223 3.984 15.72a154 154 0 0 0-2.814-4.455c-1.707-3.396-2.496-7.701-1.17-11.265zm79.962 1c3.008 6.022-3.115 12.552 0 0zm108.627 1.607c16.652.945-6.38 2.776-7.377 9.774-5.552 3.7-.023 10.461-9.056 6.498-9.776-3.213-20.684-6.256-27.74-14.182 5.602 3.707 23.864 2.538 19.152 5.607 9.2 1.404 16.107-7.012 25.021-7.697zm-69.365 1.557c6.164 3.12 12.412 7.691 2.102 3.418-3.943 6.075-3.03-1.126-2.102-3.418zm77.545 1.039c3.776.076.124 2.292-3.437.41l1.343-.293a17 17 0 0 1 2.094-.117zm-55.877 2.53c2.35 7.225 7.098 3.122.002 0zm-123.492.153c8.875 2.422 3.888 5.014 0 0zm11.355 2.16c11.748 1.599 1.241 3.596 0 0zm110.575 1.12c4.41 1.007 11.968 11.188 3.65 2.48-.064 1.076-3.252-1.981-3.65-2.48zm-22.756 1.845c.696 8.33-.154 8.293-5.076 1.653-1.251-3.494 4.965 3.139 5.076-1.653zm37.847.645c-.289 0-.499.19-.462.717 3.2 1.28 1.408-.72.462-.717zm-109.28 1.29-.007.003-.002.002-.002.002v.002h.002v.002h.002l.002.002a.1.1 0 0 0 .034.004l.002-.002v-.006h-.002v-.004h-.002v-.002h-.002l-.006-.002h-.02zm166.312 3.98c8.094.4 23.79 13.7 10.767 6.154-5.78-.4-13.638 4.895-14.375-5.662l1.38-.164v-.002c.634-.272 1.39-.368 2.228-.327zm-142.766.77q-.228.014-.26.048l-.002.002-.002.006.002.006.002.006.006.006c.137.125 1.738.36 4.684.37-2.411-.373-3.87-.469-4.43-.442zm-56.039.76c1.126 5.884 18.224 9.132 4.918 3.075-1.545-1.164-3.043-2.458-4.918-3.074zm73.072 2.03c3.974 2.953 16.742 14.322 6.088 8.283 2.257 11.008-4.13-10.78-3.539.988-.395-3.307-1.936-6.446-2.549-9.271zm-35.931.805c5.97 8.924-19.529 18.927-6.995 6.004 2.427-3.234 4.423-4.474 6.995-6.004zm-5.832.396c.421 4.826-7.034 9.286-1.604 1.912zm-5.817 6.043c-.528 4.738-12.527 7.394-2.78 1.692l1.206-.961zm13.551.508c-1.89 5.605-21.7 11.193-7.959 5.135 2.905-1.322 5.015-3.88 7.959-5.135zm4.428.988c3.2 4.202-3.782 8.44-.8 1.424zm84.51.168-.045.14zm-86.352.076c.35 7.13-3.247 8.317 0 0zm38.312.227c8.556 6.657 16.892 23.651 26.368 23.125-8.543-10.532 9.99-9.858 8.011-.303 13.196-11.297-4.956 20.182 4.676 5.35 6.878-.96-6.306 18.663-5.363 19.56 6.829-11.683 7.525 2.275 2.185 8.668.986 3.705-3.595 6.487-1.111 1.137-.905.78-1.942 1.347-3.11 1.596 6.666.174-12.36 6.469-5.83 1.166-15.783 5.403 12.155-13.023-3.705-3.649-4.961 4.016-3.117 5.205.45 5.912-.545.275-1.13.724-1.762 1.397-7.08.75-19.437-13.624-13.467-3.418-4.25-.948 14.31 5.693 1.95 2.111-5.198 3.171-11.405-8.17-6.944-5.586-5.029-4.65-3.947-18.072-.285-14.83-.276-5.052-3.948-28.832.86-12.383 2.142-7.489-7.986-22.243-5-28.662 2.644 6.288 7.15 16.807 3.413 3.776l-.77-2.787zm31.657 59.133a20 20 0 0 0-2.164.088 6.6 6.6 0 0 0 2.164-.088zm3.109-1.596a10 10 0 0 0 1.111-1.137 4 4 0 0 0-.111-.355l-.812 1.1q-.1.203-.188.392zm-88.832-56.52c-3.857 8.288-8.934 7.616 0 0zm-8.926 1.202c5.474 4.17-5.878 2.898 0 0zm20.97.191c5.187 10.522-21.342 9.093-6.685 3.397 2.883-.173 4.29-2.332 6.686-3.397zm7.731 1.691c-2.897 5.212-6.11 4.255 0 0zm117.57.778c1.83 4.787 16.936 16.744 6.77 6.375-2.144-2.222-4.248-4.577-6.77-6.375zm10.542.539c6.455.099 17.743 8.455 5.646 3.918-.827-.901-10.241-2.21-7.463-3.66.533-.19 1.149-.268 1.817-.258zm-128.989 1.516c7.17 6.65-10.982 14.109-3.289 2.709.823-1.05 1.738-2.651 3.29-2.71zm4.114 1.34c-.382 6.776-4.34 7.32 0 0zm-11.692 2.083c-4.237 2.644-8.74 1.212 0 0zm1.49 1.643c-.154 4.763-5.014 6.508 0 0zm-4.42.23c5.509 3.205-6.686 4.123 0 0zm19.325.487c2.588 1.64-.361 11.184-.352 3.648-.524 5.981-10.802 12.186-6.148 3.569 3.053-1.805 4.049-5.098 6.5-7.217zm25.031 1.275c1.972 2.123.573 21.637.236 8.049.466-2.691-.928-5.397-.236-8.049zm-17.476 1.652c14.296 2.532-.46 21.388 9.582 28.82 3.08 8.336-4.904 13.25-8.924 10.942.812.11 2.27-1.966.199-3.336-.731 1.828-.75 2.777-.494 3.149-1.733-1.216-2.569-3.942-1.094-8.54 8.75-5.7 3.157-12.723-.105-19.982-1.544-3.435-2.567-6.923-1.3-10.35l2.136-.7zm-11.213.178c-3.865 5.649-6.444 3.738 0 0zm-3.846.154c-2.111 2.211-12.058 2.524-2.742.528zm67.006.96c6.142 1.157 10.188 7.214 0 0zM83.81 289.78c2.995 1.903-4.762 8.626 1.396 4.752-4.385 10.509-15.14.18-1.396-4.752zm67.043 1.948c4.205 1.504-2.568 9.007-.075 1.527-4.309 5.04-2.587-1.325.075-1.527zm-69.624 9.959c16.87-.01-1.55 13.315-1.718.341zm54.06.642c-4.365 2.278-9.604 9.237-3.774 4.3 1.113-1.5 3.147-2.42 3.773-4.3zm-19.013 1.031c-5.125 8.29 15.38 8.89 7.205 7.018-4.225-.467-4.608-4.695-7.205-7.018zm31.961.99c2.766 5.794-2.835 9.904 0 0zm25.528.17c9.27 3.33-4.733 1.505 0 .002zm-86.174 3.727c1.629-.064 6.759 2.152 1.103 5.36-5.576.162-3.51-3.155-1.379-5.317q.112-.037.276-.043zm47.99 3.945c-4.587 3.189-16.789 13.644-5.252 5.993 1.982-1.7 3.91-3.86 5.252-5.993zm-23.728 3.223c-.21 6.106 5.78 6.911.744.467zm-1.342 12.111c1.898 1.37 3.077 2.034 3.205 2.032h.006l.002-.002.002-.002v-.006l-.002-.002c-.037-.1-1.018-.784-3.213-2.02zm27.297 1.116-1.557.218zm-10.942.834c-.516-.014-1.434.566-1.87 2.14 2.535-1.126 2.534-2.123 1.87-2.14zm7.406 3.052c1.632.247 3.303.524 4.702.975-1.102 6.47-2.19 1.26-4.702-.975zm-8.593 1.006c.403 2.42-15.334 3.041-3.737.64l1.608-.349zm2.793 1.082c10.046 1.406 1.908 3.338 0 0zm-1.686 1.795c9.716-.015-5.113 8.937-7.385 1.453 1.478-1.124 3.355-1.167 5.104-1.322a23 23 0 0 1 2.281-.13zm-12.613 3.207c7.959.226.216 3.25 0 0zm17.308.387c-6.965 4.602-13.443 2.192 0 0zm2.24.545v.002c.306 5.31-8.923 1.668 0-.002zm-6.945 2.986c9.975 1.344 1.169 2.31 0 0zm-10.53 1.672c6.448-.408 18.424 1.612 6.009 4.187-2.596-.438-3.973-2.835-6.01-4.187zm-1.276 2.164c5.654 3.486-3.007 3.456 0 0zm2.925 4.979c5.908-.24 10.48 5.254 1.458 4.39-1.55-.968-3.602-1.947-4.036-3.9a8.8 8.8 0 0 1 2.578-.49zm-2.255.574v.002l.002.002v.002l.002.006.002.002.002.002.002.002c.02.017.065.021.082.017h.002l.002-.002v-.002h.002v-.002h-.002v-.002h-.002l-.002-.002a.4.4 0 0 0-.092-.025zm9.496 4.084c-4.105 2.691-9.224 2.668 0 0zm-6.914 3.607v.002c15.269 1.22-10.166 3.22 0-.002zm-3.366 3.572c3.54 1.66-5.982.542 0 0zm8.54.737c5.08 2.36-4.426 1.333 0 0zm-4.717 1.008h.002c5.796 3.517-9.251 1.275-.002 0zm-6.116 1.246c1.489 3.85-.906.925 0 0zm5.29 3.35c6.827.178 9.642 11.086.9 6.77-11.745 4.806-9.295-5.434-.9-6.77zm.41 13.54c7.432.064 13.885 9.901 2.181 8.344-3.547 2.018-4.116-3.205-7.394 1.049-3.915.271 2.353-1.09-3.881-.522-8.616-1.96 2.982-9.755 6.775-8.554a8 8 0 0 1 2.319-.317zm-4.434 11.008c1.325-.013 2.653.023 3.97.018v.002c6.206.553-7.332 1.11-7.923.256 1.307-.201 2.628-.263 3.953-.276z" style="display:inline;fill:#000;stroke:#000;stroke-width:1.261;stroke-dasharray:none;stroke-opacity:1"/></svg>