<?xml version="1.0" encoding="UTF-8" standalone="no"?>
<svg
   xml:space="preserve"
   width="257.082"
   height="399.121"
   version="1.1"
   id="svg2"
   sodipodi:docname="offhand.svg"
   inkscape:version="1.4.4 (dcaf3e7, 2026-05-05)"
   xmlns:inkscape="http://www.inkscape.org/namespaces/inkscape"
   xmlns:sodipodi="http://sodipodi.sourceforge.net/DTD/sodipodi-0.dtd"
   xmlns="http://www.w3.org/2000/svg"
   xmlns:svg="http://www.w3.org/2000/svg"><defs
     id="defs2" /><sodipodi:namedview
     id="namedview2"
     pagecolor="#ffffff"
     bordercolor="#000000"
     borderopacity="0.25"
     inkscape:showpageshadow="2"
     inkscape:pageopacity="0.0"
     inkscape:pagecheckerboard="0"
     inkscape:deskcolor="#d1d1d1"
     inkscape:zoom="2.8284271"
     inkscape:cx="109.9551"
     inkscape:cy="111.19254"
     inkscape:window-width="1920"
     inkscape:window-height="1009"
     inkscape:window-x="2552"
     inkscape:window-y="143"
     inkscape:window-maximized="1"
     inkscape:current-layer="svg2" /><path
     id="path1"
     style="display:inline;fill:#000000;fill-opacity:1;fill-rule:evenodd;stroke:#000000;stroke-width:0.341;stroke-linecap:round;stroke-linejoin:round;stroke-dasharray:none;stroke-opacity:1"
     d="m 80.783203,156.66406 c -3.595476,1.05783 0.47409,4.66254 2.309002,5.40773 1.576747,1.55367 6.484008,3.33678 4.414969,5.91351 -2.966209,0.65592 -5.148863,-2.41291 -6.586434,-4.58599 -0.861075,-1.17377 -2.130507,-5.94337 -3.425939,-2.81978 -0.94319,3.26041 2.185308,4.39169 4.164032,6.0118 1.927238,1.39904 4.162971,2.69688 5.157573,4.97704 -2.108578,2.74935 -4.861877,-0.88751 -6.407523,-2.45632 -0.547759,-1.95317 -3.870195,-2.9203 -2.617695,0.10045 0.432807,4.02382 1.852581,8.01967 4.639587,11.02184 1.70403,2.45818 2.804107,5.84806 5.984039,6.76214 2.775084,1.44795 5.338336,3.29609 7.935616,4.99821 0.938869,-0.68362 2.324921,1.17656 3.643346,0.35308 1.375754,2.13889 3.878334,2.92007 6.275504,3.16375 2.27073,0.72581 4.46415,-0.16536 6.58905,-0.86449 2.70558,0.80828 5.37495,0.90896 8.07189,-0.11256 3.17849,-0.13289 6.03709,-1.51543 8.07559,-3.93872 1.53436,-1.79495 5.34352,1.76882 4.91136,-1.85965 -0.7826,-2.84767 -3.18548,-4.87085 -4.20195,-7.63914 -1.61419,-2.93199 -2.89399,-6.03263 -3.79741,-9.25668 -0.66473,-2.64197 -4.96311,-1.10897 -2.75971,1.15004 1.22937,2.25249 2.65727,4.42617 3.13106,7.0012 0.84756,2.6286 2.46887,4.97032 4.35321,6.86506 0.84146,3.73387 -3.92788,1.79925 -4.2042,-0.65559 -1.22038,-2.34099 -3.08139,-4.32158 -3.93939,-6.8735 -1.28828,-2.11092 -1.30802,-5.66133 -3.57131,-6.73162 -1.81349,1.73989 0.74764,4.87519 1.41129,6.90627 1.69213,3.41969 3.80858,6.60299 5.90518,9.78282 -1.43817,1.72906 -3.35457,-1.94824 -4.6385,-2.84525 -2.47153,-3.21371 -3.79675,-7.12005 -5.37061,-10.80618 -0.46767,-2.0061 -0.27619,-3.57135 1.86556,-4.16951 -2.80902,-0.50924 -4.85509,2.33343 -3.02225,4.7737 1.17725,2.59758 1.47029,5.55425 2.17392,8.32266 0.22,2.41105 1.68788,4.45204 2.00037,6.80681 -1.16898,2.96833 -2.74642,-0.96905 -2.61334,-2.55155 -0.70265,-4.99891 -2.50954,-9.80909 -2.73633,-14.88863 0.28916,-3.12456 -3.94048,0.40261 -5.81169,-0.51165 -2.02022,-0.59627 -3.22078,-2.56511 -5.01246,-3.63911 -1.55867,-1.22692 -3.117331,-2.45384 -4.675996,-3.68076 2.384916,2.5198 -3.063404,3.96449 -3.5133,1.08025 -1.685162,-1.04772 0.462848,-3.40499 0.340319,-3.62213 -3.515814,-2.01436 -6.302688,-5.49388 -10.507622,-6.12979 -1.293273,-0.34459 -2.613124,-0.58136 -3.938808,-0.75976 z m 33.080077,15.84571 c 0.51279,-0.40436 -0.40748,-1.05252 0,0 z m 5.17578,-1.375 c 1.16093,-0.0526 5.32578,-2.30004 2.17642,-0.9017 -0.72552,0.3004 -1.46251,0.57374 -2.17642,0.9017 z M 78.429688,158.1875 c -0.747562,-0.96122 -1.486834,-0.77009 0,0 z m 4.382812,-0.61328 c 3.454282,0.41733 6.181015,3.0527 7.851562,5.95312 -3.2277,0.49145 -5.807836,-2.00014 -7.878906,-4.11718 -0.201118,-0.59446 -0.138715,-1.24237 0.02734,-1.83594 z m -6.013672,5.88672 c -0.742099,1.40272 1.413444,2.2154 0.321214,0.41959 z m 19.132813,0.42968 c 0.574736,0.85752 2.911655,2.0826 1.021203,0.42871 -0.294478,-0.2272 -0.643618,-0.40615 -1.021203,-0.42871 z m -3.708985,3.47461 c 2.568037,1.06286 5.206255,4.09991 3.71185,6.97205 -2.996882,1.13978 -4.681244,-2.89118 -4.518881,-5.31042 0.04773,-0.6258 0.287617,-1.27506 0.807031,-1.66163 z m 9.125004,2.41602 c 1.27866,1.36157 5.97493,3.47416 3.70681,5.12146 -1.76949,-0.76563 -5.679126,-2.78104 -3.70681,-5.12146 z m -22.960941,0.56836 c 2.852551,0.9492 6.008585,2.76644 6.593116,5.97953 -1.518756,2.99397 -5.034728,-0.15639 -5.823134,-2.21499 -0.581359,-1.15431 -0.938462,-2.46621 -0.769982,-3.76454 z m 11.568359,2.22656 c 3.264724,0.11473 4.844975,6.90195 0.959238,6.67388 -2.494192,-0.77015 -3.922861,-4.59349 -1.856234,-6.4725 0.273149,-0.18958 0.576799,-0.19336 0.896996,-0.20138 z m 9.146484,0.34766 c 1.406268,1.35874 6.273988,3.73978 3.592198,5.45084 -1.94816,-0.76994 -4.870399,-2.91462 -3.827985,-5.2375 0.0786,-0.0711 0.157191,-0.14223 0.235787,-0.21334 z m 16.857418,1.52148 c -0.25048,0.94329 0.41524,0.3351 0,0 z m -11.8867,4.82933 c 2.46858,-2.79843 7.1255,-1.44642 8.78944,1.54997 2.36771,3.65608 0.30214,9.36273 -4.08227,10.22473 -3.67351,0.58245 -6.44895,-3.24884 -6.58476,-6.59337 -0.14668,-1.88607 0.44233,-3.89035 1.87759,-5.18133 z m -0.10939,0.19388 0.0287,-0.0103 z m -0.10932,0.10649 0.0308,-0.0191 z m 4.19103,11.37592 c 3.36927,0.76402 6.15437,-4.54389 3.22832,-6.66685 -0.84151,-0.5623 -3.57149,-0.12119 -1.22565,-0.45487 2.75162,0.47821 2.87833,4.42235 1.20584,6.12269 -0.81261,0.93898 -2.11174,0.75104 -3.20851,0.99903 z m 8.97105,-13.96053 c 0.0967,0.47842 0.16628,0.82297 0,0 z m -20.068354,1.17579 c 1.63031,1.15785 6.503894,3.05351 3.906754,5.31479 -2.434767,0.48117 -4.830029,-2.17145 -4.525862,-4.54989 -0.105829,-0.51228 0.338709,-0.57161 0.619108,-0.7649 z m -10.06821,0.60148 c 3.270209,0.0228 4.679478,6.83127 0.41533,5.6425 -2.136581,-0.73173 -3.670432,-4.41502 -1.0264,-5.49997 l 0.302778,-0.0831 z m 6.648638,4.34203 c 1.448256,1.32268 5.952945,2.90478 3.703027,5.30265 -2.380591,0.11053 -5.814318,-3.03232 -3.703027,-5.30265 z m 15.650846,3.06128 c -1.79201,2.18788 2.7104,0.96564 0.79488,-0.0419 -0.30476,-0.31076 -0.54167,-0.0681 -0.79488,0.0419 z m -0.0336,0.0476 c 2.35792,-1.27221 0.23584,3.80468 -0.35347,0.98782 -0.0395,-0.35577 0.0644,-0.75827 0.35347,-0.98782 z m 0.0977,0.0354 c -1.62368,2.8454 3.57606,-0.0573 0,0 z m 1.12293,1.58509 0.0232,-0.0112 z m 11.95712,1.74528 c 2.28803,2.4995 -4.30766,2.18449 -0.33124,0.11147 z m 8.83007,2.01954 c -2.14518,1.41769 0.0507,1.54452 0,0 z" /><path
     id="path88"
     style="display:inline;fill:#f2a5a5;fill-opacity:0.547046;fill-rule:evenodd;stroke:#000000;stroke-width:0.0338125;stroke-dasharray:none;stroke-opacity:0.00628931"
     d="m 83.474609,158.00586 c -0.455644,2.46771 2.419035,3.7625 4.262996,4.65693 1.118394,0.9337 3.045822,0.50529 1.396495,-0.90146 -1.427404,-1.77168 -3.270649,-3.55699 -5.659491,-3.75547 z m -3.943359,1.84766 c 1.394121,3.45725 3.844823,7.03853 7.606508,8.07221 2.777569,-1.20196 -1.525095,-3.41534 -2.679349,-4.55746 -1.508143,-1.33681 -2.993761,-2.81267 -4.927159,-3.51475 z m -1.285156,4.58789 c -1.729259,1.43182 1.812625,3.06955 2.591585,4.46616 1.378562,1.33697 2.726546,3.02354 4.599473,3.59738 2.018078,-1.95943 -1.578766,-4.16353 -3.220837,-5.2221 -1.531824,-0.75187 -2.108778,-2.69072 -3.970221,-2.84144 z m 43.072266,6.0957 c -3.16991,0.92452 0.0485,4.52208 0.58204,6.32159 1.47289,4.3095 4.08925,8.13233 6.81257,11.73519 1.90669,0.71552 0.19989,-3.17033 -0.31283,-3.96684 -2.18575,-4.59393 -4.7136,-9.0612 -6.22241,-13.94346 l -0.45978,-0.10773 z m -19.46289,0.0469 c -1.68336,1.63949 2.82287,4.05713 3.6755,3.95188 0.27115,-2.05472 -2.47239,-2.8177 -3.6755,-3.95188 z m -22.255861,0.61719 c -1.962874,1.59652 1.32843,4.98337 3.177761,5.91398 2.827943,1.39815 1.790141,-3.23998 0.135029,-3.95588 -0.948597,-0.83996 -1.978546,-1.86281 -3.31279,-1.9581 z m 37.919921,1.1543 c -2.58062,2.32769 0.50653,5.95868 1.34375,8.51953 1.44974,3.47083 3.69753,6.73593 6.91494,8.76134 -0.37026,-2.172 -2.8301,-4.4562 -3.8924,-6.72602 -1.45673,-2.47145 -2.80725,-5.07933 -3.58845,-7.83088 -0.25482,-0.82279 0.0778,-2.2721 -0.77784,-2.72397 z m -18.220702,1.34765 c -0.771384,2.14023 2.375872,3.54756 3.796862,4.62126 1.0569,-2.20075 -2.09643,-3.97941 -3.796862,-4.62126 z m 14.910152,2.04688 c 0.46341,4.79873 1.91326,9.40765 2.81375,14.12547 0.15998,1.0599 0.87992,3.74787 1.9888,1.66186 -0.26087,-2.53442 -1.79881,-4.77578 -2.04986,-7.3576 -0.72956,-2.69332 -0.93502,-5.60058 -2.20582,-8.10555 -0.0274,-0.30768 -0.32187,-0.34129 -0.54687,-0.32418 z m -16.644527,3.05664 c -2.307291,1.53068 1.454224,4.66718 3.191407,4.75585 2.40031,-1.93989 -1.782154,-3.89759 -3.191407,-4.75585 z m -3.435547,4.95508 c -2.341315,1.24947 1.210462,4.71351 3.160585,4.33577 1.856645,-1.77092 -2.141861,-3.24061 -3.160585,-4.33577 z m 27.433594,6.38672 c -2.22857,1.7064 2.41401,0.71012 0,0 z" /><path
     style="fill:#000000;fill-opacity:0.9;fill-rule:evenodd;stroke:#000000;stroke-width:0.00753511;stroke-dasharray:none;stroke-opacity:1"
     d="m 112.74317,187.44165 c 0.63089,-2.51782 -2.09589,-4.50393 -4.41399,-3.82822 -1.54295,0.92073 -3.69755,1.54624 -4.43664,-0.75093 -0.79282,-1.87726 0.0769,-4.73381 2.36391,-4.92829 4.14797,-1.31929 8.03528,3.25645 7.30502,7.22929 -0.11675,0.80371 -0.34862,1.60518 -0.8183,2.27815 z m -5.74751,-5.15134 c 1.60956,-2.63314 -3.15116,-1.65624 -1.50094,0.004 0.46356,0.10938 1.13214,0.48325 1.50094,-0.004 z"
     id="path115" /></svg>
