<?xml version="1.0" encoding="UTF-8" standalone="no"?>
<svg
   xml:space="preserve"
   width="257.082"
   height="399.121"
   version="1.1"
   id="svg2"
   sodipodi:docname="offhand.svg"
   inkscape:version="1.4.4 (dcaf3e7, 2026-05-05)"
   xmlns:inkscape="http://www.inkscape.org/namespaces/inkscape"
   xmlns:sodipodi="http://sodipodi.sourceforge.net/DTD/sodipodi-0.dtd"
   xmlns="http://www.w3.org/2000/svg"
   xmlns:svg="http://www.w3.org/2000/svg"><defs
     id="defs2" /><sodipodi:namedview
     id="namedview2"
     pagecolor="#ffffff"
     bordercolor="#000000"
     borderopacity="0.25"
     inkscape:showpageshadow="2"
     inkscape:pageopacity="0.0"
     inkscape:pagecheckerboard="0"
     inkscape:deskcolor="#d1d1d1"
     inkscape:zoom="4.1541287"
     inkscape:cx="102.78931"
     inkscape:cy="201.60666"
     inkscape:window-width="1116"
     inkscape:window-height="1059"
     inkscape:window-x="3279"
     inkscape:window-y="237"
     inkscape:window-maximized="0"
     inkscape:current-layer="svg2" /><path
     d="m 73.477,183.335 c -3.87,0.459 -3.638,5.355 -3.444,8.287 0.332,3.62 2.368,6.884 2.32,10.57 3.618,1.693 3.366,6.846 6.877,8.696 3.144,2.006 5.788,2.137 8.38,4.732 1.127,0.086 2.177968,0.53527 4.195968,1.71027 4.126591,0.52512 17.247032,5.99773 20.107032,5.08473 -0.22,-2.13 1.002,2.174 0.327,-0.351 -1.889,-2.6 4.238,-1.525 2.67,0.642 1.106,1.655 4.527,2.2 4.766,0.894 3.012,0.29 6.3,-0.846 9.066,0.828 -1.125,-0.273 -5.71,-0.066 -4.424,0.885 2.12,-0.136 4.996,1.736 5.572,-0.484 2.478,1.18 6.502,2.71 7.694,-0.855 1.142,-1.053 4.55,-4.27 0.962,-3.705 -4.151,-1.034 4.282,-0.8 2.44,-2.168 -3.438,0.04 -6.972,-0.073 -10.226,1.2 1.264,-1.33 4.458,-1.793 6.541,-2.47 1.408,-0.325 4.025,-1.063 1.074,-0.799 -1.753,0.333 -6.91,0.554 -3.542,-1.822 1.033,-0.723 5.397,-3.426 2.07,-2.66 -4.056,-0.369 -6.261,-3.09 -4.124,-5.355 -0.335,-1.82 -1.532,-1.418 -2.086,-4.116 -1.738,-2.728 -1.226,1.569 -0.374,-0.1 -1.625,-1.36 -0.358,0.074 -0.814,-2.372 -2.34,-0.24 -0.022,-0.872 -2.82,-0.316 -1.902,3.683 -6.519,2.855 -9.856,3.723 -0.541,0.127 -3.973,-0.684 -7.805,-1.042 -1.213,-0.113 -2.297,-0.771 -3.56,-0.576 -1.843,0.284 -3.988,-0.34 -5.71,-0.262 -1.476,0.067 -2.993,-1.046 -3.882,-0.42 -2.079,-2.802 -2.638,-3.747 -6.237,-8.408 -2.46,-1.333 -4.509,-3.832 -7.234,-5.182 -3.154,-0.913 -5.515,-3.73 -8.924,-3.788 m -1.171,2.615 c 3.613,0.863 4.995,4.767 7.238,7.312 1.058,2.192 -3.2,-0.554 -3.541,-1.458 -1.083,-1.803 -3.603,-5.064 -4.23,-5.724 z m 3.943,0.568 c 1.839,0.202 5.122,3.443 4.557,4.163 -1.548,-1.296 -3.918,-2.069 -4.557,-4.163 m -4.787,3.582 c 2.893,1.095 6.922,3.986 6.418,7.261 -2.76,-0.134 -3.513,-3.832 -5.74,-5.212 -0.45,-0.554 -1.013,-1.291 -0.678,-2.05 m 0.574,5.149 c 2.08,0.83 5.692,4.232 3.838,5.77 -1.978,-1.184 -4.268,-3.21 -3.838,-5.77 m 13.63255,1.01929 c 3.686476,-0.0393 5.946216,6.64604 0.932253,2.99688 -1.102398,-0.56978 -3.473796,-2.53582 -0.932253,-2.99688 m -1.811337,3.40947 c 5.552756,0.97058 1.175065,6.94468 -1.501175,2.2267 -0.265852,-0.85663 0.124064,-2.07214 1.501175,-2.2267 M 124.418,202.046 c 3.92,-0.627 9.167,2.364 9.872,6.112 0.948,3.58 -1.876,7.855 -4.795,10.212 -0.706,-2.768 0.291,-5.68 -0.416,-8.47 -0.143,-3.26 -5.51,-5.237 -4.93,-7.833 l 0.269,-0.022 m -44.722252,1.49019 c 3.183131,-0.0537 6.199662,5.67153 1.183927,3.16453 -0.8011,-0.75315 -2.676241,-2.26993 -1.183927,-3.16453 M 118.42,205.146 c 3.393,-0.3 5.218,5.731 3.121,6.706 -1.61,-1.947 -5.407,-2.868 -4.957,-5.918 0.295,-0.715 1.164,-0.848 1.836,-0.788 m 5.295,0.147 c 1.104,2.938 0.673,6.362 -0.49,9.208 -0.646,1.48 -4.074,4.359 -3.979,3.97 2.173,-2.718 5.083,-5.784 4.223,-9.57 -0.083,-1.203 -0.119,-2.443 0.246,-3.608 m -10.363,0.146 c 0.517,2.317 0.836,6.794 -0.015,7.828 -0.5,-2.555 -0.28,-5.264 0.015,-7.828 m -3.594,0.362 c 2.639,-0.592 2.244,5.217 0.306,1.611 -0.255,-0.42 -1.002,-1.253 -0.306,-1.611 m 15.85,0.693 c 1.668,0.277 2.495,5.825 0.869,2.37 -0.36,-0.756 -0.893,-1.498 -0.87,-2.371 m -18.075,1.596 c 3.375,0.691 3.796,6.027 4.525,7.92 -2.273,0.959 -1.986,5.246 -4.627,2.653 0.402,-1.486 2.284,-4.406 -0.582,-4.533 -0.295,-1.91 -1.547,-4.835 0.685,-6.041 m 8.697,0.252 c 3.39,0.934 4.856,5.724 2.984,8.556 -3.047,3.11 -3.239,-3.151 -4.076,-4.982 -0.284,-1.262 -0.194,-2.882 1.092,-3.574 m -11.607,1.37 c -0.03,2.856 0.385,6.39 -1.236,8.751 -1.41,-2.633 1.062,-5.897 1.236,-8.75 m 21.688,1.172 c 2.568,1.421 0.44,7.931 -1.798,4.635 -0.2,-1.675 0.313,-3.67 1.798,-4.635 m -2.856,7.372 c 1.07,-0.016 4.968,0.76 1.77,0.915 -3.422,-0.388 -0.776,2.636 -0.708,2.869 -2.846,1.083 -2.246,-3.273 -5.285,-2.16 -1.114,0.282 -5.002,0.167 -1.988,-0.292 2.079,-0.397 4.194,-0.664 6.21,-1.332 m -7.543,4.132 c 2.538,0.043 8.11,0.214 8.7,0.524 -2.906,-0.048 -5.808,-0.243 -8.7,-0.524 m 15.7,0.938 c 1.238,-0.255 6.329,0.57 2.88,1.293 -0.855,1.415 -6.466,-1.409 -2.881,-1.293"
     style="display:inline;fill:#000000;fill-opacity:1;fill-rule:evenodd;stroke:#000000;stroke-width:1.061;stroke-linecap:round;stroke-linejoin:round;stroke-dasharray:none;stroke-opacity:1"
     id="path1"
     sodipodi:nodetypes="ccccccccccccccccccccccccccccccccccccccccccccccccccccccccccccccccccccccccccccccccccccccccccccccccccccccccccccc" /><path
     d="m 72.32,186.002 c -0.138158,-0.005 -0.276487,-2e-4 -0.414,0.014 2.453,2.71 3.673,6.883 7.442,8.168 2.021,0.336 -1.86,-3.198 -2.098,-4.047 -1.183,-1.638 -2.879,-4.046 -4.93,-4.135 m 4.112,0.428 c -0.445,1.365 2.21,2.784 3.31,3.675 0.49,0.313 0.938,0.722 1.508,0.885 -0.312,-1.655 -2.881,-3.786 -4.818,-4.56 m -4.803,4.08 c -0.07467,6.7e-4 -0.149,0.004 -0.223,0.011 1.318,2.525 3.54,4.818 5.633,6.79 1.096,0.614 1.406,-1.06 0.768,-1.65 -1.237,-2.199 -3.868,-5.172 -6.178,-5.151 m 1.02,5.172 c -1.875,0.527 1.274,4.387 2.787,5.017 l 0.437,0.256 c 1.69,-1.403 -1.495,-4.536 -3.225,-5.273 m 31.548,5.337 c -0.0964,0.0137 -0.19164,0.0344 -0.285,0.062 -0.879,0.224 -1.414,0.554 -1.414,0.873 0,0.426 0.781,0.987 1.709,1.227 0.213,0.055 0.329,0.075 0.36,0.06 h 10e-4 v -0.002 h 0.002 l 0.002,-0.002 v -0.002 l 0.002,-0.002 v -0.004 c -0.0292,-0.0523 -0.063,-0.10179 -0.101,-0.148 -0.1408,-0.18681 -0.2459,-0.39802 -0.31,-0.623 -0.055,-0.178 -0.06,-0.226 -0.06,-0.559 0,-0.371 0.007,-0.411 0.132,-0.834 0.004,-0.012 0.005,-0.022 0.004,-0.03 v -0.001 l -0.002,-0.002 v -0.004 h -0.002 v -0.002 l -0.002,-0.002 h -0.002 l -0.002,-0.002 c -0.0104,-0.003 -0.0212,-0.004 -0.032,-0.004 z m -9.812,0.841 c -0.41,-0.009 -0.746,0.268 -0.813,1.024 0.672,1.778 1.995,3.61 3.768,4.469 0.467,0.01 0.96,0.007 1.389,-0.21 0.8,-1.479 -1.838,-2.818 -2.665,-4.019 -0.318,-0.627 -1.08,-1.25 -1.68,-1.264 m 30.506,0.006 c -0.25333,0.008 -0.508,0.031 -0.764,0.069 -1.012,2.098 3.602,4.055 4.416,6.367 0.95,2.546 0.705,5.287 0.695,7.98 0.009,-0.0325 0.0236,-0.0633 0.043,-0.091 l 0.002,-0.002 h 0.002 l 0.002,-0.002 h 0.008 v 0.002 h 0.002 l 0.002,0.002 v 0.002 c 0.025,0.03 0.025,0.178 0,0.209 l -0.002,0.002 h -0.002 v 0.002 h -0.008 l -0.002,-0.002 h -0.002 l -0.002,-0.002 -0.002,-0.002 c -0.0176,-0.027 -0.0308,-0.0568 -0.039,-0.088 -0.002,0.618 -0.046,1.245 0.002,1.853 0.075,0.29 0.425,0.296 0.653,0.227 2.649,-2.402 3.604,-6.368 2.822,-9.813 -0.566,-3.76 -4.021,-6.84 -7.826,-6.713 m 4.35,14.446 -0.003,-0.03 -0.004,0.014 z m -19.43,-12.313 c -0.0235,-0.002 -0.0472,-1.1e-4 -0.07,0.006 h -0.003 l -0.002,0.002 -0.002,0.002 -0.002,0.002 -0.002,0.002 -0.002,0.002 -0.002,0.006 c -0.002,0.0156 -0.002,0.0314 0,0.047 0.006,0.064 0.019,0.074 0.184,0.135 0.665,0.243 1.204,0.394 1.6,0.449 0.117,0.016 0.302,0.027 0.412,0.025 0.0613,0.004 0.12283,-6.6e-4 0.183,-0.013 l 0.006,-0.004 0.008,-0.008 c 0.003,-0.009 0.006,-0.022 0.008,-0.038 0.02,-0.17 -0.476,-0.37 -1.22,-0.492 -0.34,-0.056 -0.936,-0.123 -1.096,-0.123 m 8.71,1.162 c -0.62,-0.026 -1.249,0.159 -1.835,0.621 -0.792,3.074 3.305,4.133 4.884,6.082 0.594,0.78 0.74,-1.297 0.819,-1.566 0.434,-2.28 -1.654,-5.044 -3.868,-5.137 m 5.247,0.537 c -0.325,0.03 -0.477,2.594 -0.27,3.408 0.783,3.617 -2.009,6.492 -4.008,9.131 0.44,0.017 0.922,-0.71 1.324,-0.963 3.222,-2.332 3.803,-6.625 3.381,-10.302 -0.16,-0.936 -0.305,-1.285 -0.427,-1.274 m -31.248,0.012 c -0.605,-0.02 -1.256,0.787 -0.778,1.723 1.39,2.12 3.146,4.482 5.848,4.882 0.422,-0.02 0.845,-0.007 1.267,-0.027 1.97,0.285 2.49,-1.559 1.72,-3.017 -0.327,-1.936 -1.81,-0.644 -2.858,-0.116 -1.849,0.788 -3.771,-0.66 -4.418,-2.365 -0.074,-0.76 -0.419,-1.068 -0.781,-1.08 m 20.902,0.184 c -0.473,2.078 -0.474,4.924 -0.106,7.238 0.033,0.052 0.01,0.185 0.047,0.23 l 0.008,0.008 c 0.016,0.0113 0.0403,0.009 0.073,-0.006 0.703,-2.335 0.376,-5.031 -0.022,-7.47 z m -3.322,0.1 c -0.948,-0.013 0.017,2.331 1.074,2.75 1.183,0.325 0.372,-1.983 -0.09,-2.311 -0.445,-0.307 -0.766,-0.437 -0.984,-0.44 m 15.836,0.88 c -0.312,0.043 0.441,2.21 1.046,2.86 1.03,0.476 -0.148,-1.576 -0.232,-1.9 -0.448,-0.712 -0.702,-0.976 -0.814,-0.96 m -18.332,1.588 c -0.10637,-0.002 -0.21279,-2.4e-4 -0.319,0.006 -1.623,1.375 -1.021,5.12 0.14,6.195 3.552,0.467 -2.476,4.729 1.712,4.998 l 0.377,0.11 c -0.536,-2.142 3.572,-3.04 2.478,-4.563 -1.436,-2.105 -1.202,-6.65 -4.388,-6.746 z m 8.767,0.008 c -0.519,0.023 -0.972,0.401 -1.238,1.328 -0.198,2.728 0.867,5.845 2.203,8.025 2.816,-0.083 3.024,-3.766 2.344,-5.822 -0.22,-1.333 -1.983,-3.59 -3.309,-3.531 m -26.234,0.094 c -0.247,0.012 -0.443,0.268 -0.498,0.918 0.87,1.648 1.35,3.626 3.076,4.7 1.3,1.292 3.036,1.857 4.842,1.948 1.308,0.768 2.252,-0.109 2.75,-1.303 1.09,-2.079 -1.382,-0.637 -2.291,-0.414 -2.809,0.658 -5.48,-1.497 -6.502,-3.98 -0.047,-0.745 -0.834,-1.898 -1.377,-1.87 m 14.44,2.072 c -0.358,2.53 -2.117,5.162 -1.354,7.836 0.713,0.374 0.933,-0.951 0.984,-1.408 0.211,-2.03 0.826,-4.67 0.37,-6.428 m 21.698,0.662 c -1.31,0.067 -2.96,4.546 -0.847,5.137 1.92,0.247 2.18,-2.386 1.838,-3.721 -0.22,-1.045 -0.59,-1.437 -0.99,-1.416 m 3.274,6.842 c 0.089,-0.02 0.185,0.184 -0.076,0.13 0.012,-0.087 0.044,-0.123 0.076,-0.13 m -5.106,0.25 c -2.366,-0.152 -4.68,1.023 -7.068,1.187 -0.713,0.119 -1.02,0.212 -1.064,0.281 l -0.004,0.01 v 0.016 l 0.004,0.006 c 0.134,0.18 2.344,0.16 2.957,-0.019 2.223,-0.712 2.705,1.333 3.795,2.236 0.217,0.116 2.89,-0.068 1.238,-0.494 -4.204,-2.367 4.487,-2.492 1.16,-3.068 -0.33429,-0.0804 -0.67488,-0.13193 -1.018,-0.154 z"
     style="fill:#f7ccc4;fill-opacity:0.827451;fill-rule:evenodd;stroke:#000000;stroke-width:0.0725625;stroke-linecap:round;stroke-linejoin:round;stroke-dasharray:none;stroke-opacity:1"
     id="path2"
     sodipodi:nodetypes="ccccccccccccccccccccscccccccccccscccccccccccccccccccccccccccccccccccccccccccccccccccccccccccccccccccccccccccccccccccccccccccccccccccccccccccccccccccccccccccccccccccccccccccccccc" /></svg>
