<?xml version="1.0" encoding="UTF-8" standalone="no"?>
<svg
   xml:space="preserve"
   width="257.082"
   height="399.121"
   version="1.1"
   id="svg2"
   sodipodi:docname="unique_offhand.svg"
   inkscape:version="1.4.4 (dcaf3e7, 2026-05-05)"
   xmlns:inkscape="http://www.inkscape.org/namespaces/inkscape"
   xmlns:sodipodi="http://sodipodi.sourceforge.net/DTD/sodipodi-0.dtd"
   xmlns:xlink="http://www.w3.org/1999/xlink"
   xmlns="http://www.w3.org/2000/svg"
   xmlns:svg="http://www.w3.org/2000/svg"><defs
     id="defs2"><linearGradient
       id="swatch19"
       inkscape:swatch="solid"><stop
         style="stop-color:#efa142;stop-opacity:1;"
         offset="0"
         id="stop19" /></linearGradient><linearGradient
       inkscape:collect="always"
       xlink:href="#swatch19"
       id="linearGradient19"
       x1="23.340448"
       y1="154.08803"
       x2="100.43788"
       y2="154.08803"
       gradientUnits="userSpaceOnUse" /></defs><sodipodi:namedview
     id="namedview2"
     pagecolor="#ffffff"
     bordercolor="#000000"
     borderopacity="0.25"
     inkscape:showpageshadow="2"
     inkscape:pageopacity="0.0"
     inkscape:pagecheckerboard="0"
     inkscape:deskcolor="#d1d1d1"
     inkscape:zoom="2.8284271"
     inkscape:cx="79.19596"
     inkscape:cy="199.22734"
     inkscape:window-width="1920"
     inkscape:window-height="1009"
     inkscape:window-x="2552"
     inkscape:window-y="143"
     inkscape:window-maximized="1"
     inkscape:current-layer="svg2" /><path
     id="path1"
     style="display:inline;fill:#000000;fill-opacity:1;fill-rule:evenodd;stroke:#000000;stroke-width:0.741;stroke-linecap:round;stroke-linejoin:round;stroke-dasharray:none;stroke-opacity:1"
     d="m 77.08532,154.27757 c -3.868105,1.12282 0.510039,4.94897 2.484084,5.73994 1.696304,1.64912 6.975661,3.54177 4.749736,6.27679 -3.191123,0.69622 -5.539278,-2.56114 -7.085854,-4.86771 -0.926366,-1.24588 -2.292054,-6.30849 -3.685712,-2.99301 -1.014708,3.4607 2.35101,4.66148 4.479771,6.38112 2.073372,1.48498 4.478631,2.86255 5.548649,5.28279 -2.268462,2.91825 -5.230531,-0.94203 -6.893377,-2.60722 -0.589293,-2.07316 -4.163654,-3.0997 -2.816183,0.10662 0.465625,4.27102 1.993054,8.51234 4.991386,11.69894 1.833239,2.60919 3.01673,6.20732 6.437782,7.17755 2.985507,1.5369 5.743119,3.49858 8.537339,5.30526 1.010059,-0.72561 2.501209,1.24884 3.919604,0.37477 1.480072,2.27029 4.172415,3.09946 6.751345,3.35811 2.44291,0.7704 4.80265,-0.17552 7.08867,-0.9176 2.91073,0.85794 5.78251,0.9648 8.68395,-0.11947 3.4195,-0.14106 6.49485,-1.60853 8.68792,-4.18069 1.65071,-1.90521 5.7487,1.87749 5.28377,-1.97389 -0.84194,-3.02261 -3.42702,-5.17008 -4.52057,-8.10843 -1.73658,-3.11211 -3.11342,-6.40323 -4.08535,-9.82534 -0.71513,-2.80427 -5.33944,-1.17709 -2.96896,1.22069 1.32258,2.39087 2.85876,4.69808 3.36847,7.4313 0.91183,2.79008 2.65607,5.27566 4.6833,7.2868 0.90526,3.96325 -4.22572,1.90978 -4.52299,-0.69587 -1.31292,-2.4848 -3.31504,-4.58706 -4.2381,-7.29575 -1.38596,-2.2406 -1.4072,-6.00912 -3.8421,-7.14516 -1.951,1.84678 0.80433,5.17468 1.5183,7.33054 1.82044,3.62977 4.09737,7.00862 6.35294,10.3838 -1.54722,1.83528 -3.60893,-2.06793 -4.99021,-3.02004 -2.65894,-3.41114 -4.08465,-7.55745 -5.77784,-11.47003 -0.50314,-2.12934 -0.29714,-3.79074 2.00701,-4.42565 -3.02201,-0.54052 -5.22323,2.47678 -3.25141,5.06696 1.26652,2.75715 1.58178,5.89546 2.33876,8.83394 0.23668,2.55916 1.81586,4.72554 2.15205,7.22496 -1.25762,3.15069 -2.95467,-1.02858 -2.8115,-2.70829 -0.75593,-5.30601 -2.69983,-10.41169 -2.94381,-15.80327 0.31108,-3.31651 -4.23927,0.42734 -6.25237,-0.54309 -2.1734,-0.6329 -3.465,-2.72269 -5.39253,-3.86266 -1.676858,-1.3023 -3.353706,-2.60459 -5.030557,-3.90688 2.565753,2.6746 -3.295689,4.20804 -3.779698,1.14661 -1.81294,-1.11208 0.497944,-3.61417 0.366124,-3.84465 -3.782403,-2.1381 -6.780593,-5.83138 -11.304368,-6.50635 -1.391336,-0.36576 -2.811266,-0.61708 -4.237471,-0.80644 z m 35.58839,16.81915 c 0.55167,-0.4292 -0.43838,-1.11718 0,0 z m 5.56824,-1.45947 c 1.24896,-0.0558 5.72961,-2.44133 2.34145,-0.95709 -0.78054,0.31885 -1.57341,0.60899 -2.34145,0.95709 z M 74.553349,155.8946 c -0.804246,-1.02027 -1.599574,-0.8174 0,0 z m 4.715141,-0.65095 c 3.743058,0 6.649694,3.24023 8.446911,6.31883 -3.472442,0.52164 -6.248218,-2.12301 -8.476328,-4.37011 -0.216368,-0.63098 -0.631739,-1.94872 0.02941,-1.94872 z m -6.469662,6.24835 c -0.798369,1.48889 1.520619,2.3515 0.34557,0.44537 z m 20.583569,0.45608 c 0.618316,0.9102 3.132433,2.21054 1.098636,0.45504 -0.316807,-0.24115 -0.692421,-0.4311 -1.098636,-0.45504 z m -3.990221,3.68806 c 2.76276,1.12815 5.601022,4.35178 3.993303,7.40036 -3.224122,1.2098 -5.036202,-3.06879 -4.861527,-5.63665 0.05135,-0.66425 0.309425,-1.35339 0.868224,-1.76371 z m 9.816912,2.56444 c 1.375612,1.44522 6.427982,3.68759 3.987882,5.43609 -1.90366,-0.81267 -6.10975,-2.95189 -3.987882,-5.43609 z m -24.701966,0.60328 c 3.068847,1.00751 6.464189,2.93639 7.093042,6.34686 -1.633916,3.1779 -5.416489,-0.16599 -6.264676,-2.35106 -0.625441,-1.22522 -1.009621,-2.61771 -0.828366,-3.9958 z m 12.445536,2.36334 c 3.512273,0.12178 5.212348,7.32595 1.031972,7.08387 -2.683315,-0.81746 -4.220314,-4.87568 -1.996983,-6.87012 0.29386,-0.20122 0.620535,-0.20524 0.965011,-0.21375 z m 9.840021,0.36902 c 1.512899,1.44221 6.749721,3.96952 3.864581,5.7857 -2.095883,-0.81724 -5.239702,-3.09368 -4.118247,-5.55926 0.08456,-0.0755 0.16911,-0.15096 0.253666,-0.22644 z m 18.135641,1.61495 c -0.26947,1.00123 0.44673,0.35568 0,0 z m -12.78802,5.126 c 2.65577,-2.97034 7.6658,-1.53527 9.45591,1.64519 2.54724,3.88068 0.32505,9.9379 -4.39181,10.85286 -3.95206,0.61823 -6.93795,-3.44843 -7.08406,-6.99842 -0.157797,-2.00193 0.47587,-4.12934 2.01996,-5.49963 z m -0.11768,0.20579 0.0309,-0.0109 z m -0.11761,0.11303 0.0331,-0.0203 z m 4.50882,12.07477 c 3.62474,0.81096 6.62103,-4.82303 3.47311,-7.07641 -0.90532,-0.59684 -3.8423,-0.12863 -1.31859,-0.48281 2.96026,0.50759 3.09658,4.69402 1.29727,6.49882 -0.87422,0.99666 -2.27186,0.79718 -3.45179,1.0604 z m 9.65128,-14.81815 c 0.10403,0.50781 0.17889,0.87352 0,0 z m -21.590046,1.24802 c 1.75393,1.22898 6.997056,3.24109 4.202986,5.64129 -2.619384,0.51073 -5.196268,-2.30485 -4.869038,-4.8294 -0.113853,-0.54375 0.364392,-0.60673 0.666052,-0.81189 z m -10.831637,0.63843 c 3.518174,0.0242 5.034302,7.25093 0.446823,5.98913 -2.298589,-0.77668 -3.948745,-4.68624 -1.104228,-5.83785 l 0.325737,-0.0882 z m 7.152775,4.60877 c 1.55807,1.40393 6.40433,3.08323 3.983811,5.6284 -2.561101,0.11732 -6.255192,-3.2186 -3.983811,-5.6284 z m 16.837578,3.24934 c -1.92789,2.32229 2.91592,1.02496 0.85515,-0.0445 -0.32786,-0.32985 -0.58274,-0.0723 -0.85515,0.0445 z m -0.0362,0.0505 c 2.53671,-1.35036 0.25373,4.03841 -0.38027,1.04851 -0.0425,-0.37763 0.0693,-0.80485 0.38027,-1.04851 z m 0.10511,0.0376 c -1.74679,3.0202 3.84722,-0.0608 0,0 z m 1.20808,1.68246 0.025,-0.0119 z m 12.86377,1.8525 c 2.46152,2.65305 -4.63429,2.31869 -0.35635,0.11832 z m 9.49962,2.14361 c -2.30784,1.50478 0.0545,1.6394 0,0 z"
     sodipodi:nodetypes="ccccccccccccccccccccccccccccccccccccccccccccccccccsccssccccccccccccccccccccccccccccccccccccccccccccccccccccccccccccccccccccccccc" /><path
     sodipodi:type="spiral"
     style="fill:none;fill-rule:evenodd;stroke:url(#linearGradient19);stroke-width:2;stroke-dasharray:none;stroke-opacity:1"
     id="path12"
     sodipodi:cx="65.5"
     sodipodi:cy="158"
     sodipodi:expansion="1"
     sodipodi:revolution="3.1305246"
     sodipodi:radius="49.269852"
     sodipodi:argument="-19.608744"
     sodipodi:t0="0"
     d="m 65.5,158 c 1.717239,-1.6295 3.043758,1.51087 2.708335,2.85416 -0.908974,3.64026 -5.614417,4.10592 -8.416663,2.56251 -5.01256,-2.7608 -5.428969,-9.59968 -2.416677,-13.97916 4.420659,-6.42707 13.639606,-6.7929 19.541661,-2.27085 7.86651,6.02718 8.174341,17.69902 2.125019,25.10416 -7.612453,9.31862 -21.767732,9.56487 -30.666658,1.97919 -10.777792,-9.18727 -10.960655,-25.84169 -1.833362,-36.22916 10.756198,-12.24126 29.918924,-12.35974 41.791656,-1.68753 13.707539,12.32149 13.761049,33.99834 1.541705,47.35415 C 75.990624,198.8632 51.795729,198.85136 36.958361,185.08335 20.313077,169.63773 20.390519,142.922 35.708314,126.6042 c 17.005656,-18.11585 46.24426,-17.97264 64.041653,-1.10422 9.657993,9.15387 15.063013,22.21485 14.928483,35.49982"
     transform="matrix(0.97720743,0,0,0.99117661,10.144573,4.1192397)" /><path
     id="path88"
     style="display:inline;fill:#f2a5a5;fill-opacity:0.547046;fill-rule:evenodd;stroke:#000000;stroke-width:0.0338125;stroke-dasharray:none;stroke-opacity:0.00628931"
     d="m 79.969707,155.79218 c -0.489436,2.61336 2.598439,3.98457 4.579154,4.93179 1.201338,0.98881 3.27171,0.53511 1.500064,-0.95467 -1.533265,-1.87625 -3.513212,-3.76693 -6.079218,-3.97712 z m -4.235812,1.95671 c 1.497514,3.66131 4.129968,7.45396 8.170632,8.54865 2.983563,-1.2729 -1.638201,-3.61692 -2.878058,-4.82645 -1.619992,-1.41571 -3.215788,-2.97868 -5.292574,-3.7222 z m -1.380467,4.85868 c -1.857507,1.51633 1.947055,3.25072 2.783786,4.72976 1.4808,1.41589 2.928755,3.202 4.940585,3.80971 2.167745,-2.07508 -1.695853,-4.40927 -3.459705,-5.53032 -1.645429,-0.79625 -2.265172,-2.84953 -4.264666,-3.00915 z m 46.266652,6.45548 c -3.405,0.97909 0.0521,4.78899 0.6252,6.69471 1.58213,4.56386 4.39252,8.61232 7.31781,12.42783 2.0481,0.75776 0.21472,-3.35745 -0.33603,-4.20097 -2.34785,-4.86508 -5.06317,-9.59602 -6.68388,-14.76644 l -0.49388,-0.11409 z m -20.906326,0.0497 c -1.808204,1.73626 3.032226,4.29659 3.948086,4.18513 0.29126,-2.17599 -2.65575,-2.98401 -3.948086,-4.18513 z m -23.90643,0.65362 c -2.108447,1.69075 1.426951,5.2775 3.413434,6.26304 3.037673,1.48067 1.922904,-3.43121 0.145044,-4.18937 -1.018948,-0.88953 -2.125282,-1.97276 -3.558478,-2.07367 z m 40.732186,1.22243 c -2.77201,2.46508 0.5441,6.31038 1.44341,9.02238 1.55726,3.67568 3.97175,7.1335 7.42777,9.27845 -0.39772,-2.30019 -3.03999,-4.71921 -4.18107,-7.123 -1.56477,-2.61733 -3.01544,-5.37913 -3.85458,-8.29308 -0.27372,-0.87136 0.0836,-2.40621 -0.83553,-2.88475 z m -19.572007,1.42719 c -0.828593,2.26655 2.552074,3.75695 4.078447,4.89402 1.13529,-2.33064 -2.251906,-4.21428 -4.078447,-4.89402 z m 16.015937,2.16769 c 0.49778,5.08197 2.05515,9.96292 3.02243,14.9592 0.17184,1.12246 0.94518,3.96908 2.13629,1.75994 -0.28021,-2.684 -1.93221,-5.05765 -2.20188,-7.79186 -0.78367,-2.85229 -1.00436,-5.93114 -2.36941,-8.58396 -0.0294,-0.32584 -0.34574,-0.36144 -0.58743,-0.34332 z m -17.878939,3.23706 c -2.478408,1.62102 1.562074,4.94264 3.428092,5.03655 2.578327,-2.05439 -1.914325,-4.12764 -3.428092,-5.03655 z m -3.690339,5.24754 c -2.514955,1.32321 1.300234,4.99171 3.394984,4.59168 1.99434,-1.87545 -2.300708,-3.43188 -3.394984,-4.59168 z m 29.468158,6.76368 c -2.39385,1.80711 2.59304,0.75203 0,0 z"
     sodipodi:nodetypes="cccccccccccccccccccccccccccccccccccccccccccccccccc" /><path
     style="fill:#000000;fill-opacity:0.9;fill-rule:evenodd;stroke:#000000;stroke-width:0.00753511;stroke-dasharray:none;stroke-opacity:1"
     d="m 111.40892,186.96534 c 0.67768,-2.66642 -2.25133,-4.76976 -4.74134,-4.05417 -1.65738,0.97508 -3.97178,1.63751 -4.76568,-0.79525 -0.85162,-1.98806 0.0826,-5.01321 2.53922,-5.21917 4.4556,-1.39716 8.63121,3.44865 7.84679,7.65598 -0.12541,0.85115 -0.37448,1.69992 -0.87899,2.41261 z m -6.17376,-5.45538 c 1.72893,-2.78856 -3.38486,-1.754 -1.61226,0.004 0.49794,0.11583 1.21611,0.51177 1.61226,-0.004 z"
     id="path115"
     sodipodi:nodetypes="ccccccccc" /><path
     id="path5"
     style="fill:#39af6e;fill-opacity:0.823851;fill-rule:evenodd;stroke:#000000;stroke-width:0.0654958;stroke-dasharray:none"
     d="m 92.910018,162.47726 c -0.166402,0.0161 -0.305714,0.19038 -0.482533,0.53571 -0.550516,1.0752 -0.567003,1.696 -0.05455,2.02704 0.132701,0.0857 0.270256,0.31006 0.333578,0.54192 0.131975,0.48321 0.612295,0.95484 1.105633,1.08385 v -0.002 c 0.492725,0.12893 0.608673,0.1305 1.187454,0.008 0.693266,-0.1464 1.266284,-0.69109 1.179062,-1.12108 -0.03247,-0.16005 -0.187305,-0.46414 -0.344068,-0.6743 -0.3171,-0.42511 -0.354783,-0.63931 -0.142662,-0.81287 0.07833,-0.0641 0.142662,-0.1787 0.142662,-0.25442 0,-0.11035 -0.08972,-0.12471 -0.451064,-0.0765 -0.405031,0.0541 -0.510097,0.0244 -1.021714,-0.27924 -0.313314,-0.18595 -0.721358,-0.48284 -0.906326,-0.65982 -0.232238,-0.22219 -0.398647,-0.3307 -0.545474,-0.31646 z m -3.342074,3.92789 c -0.202448,-0.0127 -0.332597,0.0906 -0.421693,0.30406 -0.216392,0.51856 -0.260139,1.04506 -0.151054,1.83054 0.284557,2.049 1.358295,3.77643 2.614077,4.2092 0.367203,0.12655 0.91988,0.13849 1.22312,0.0248 0.290503,-0.10888 0.532885,-0.81686 0.532885,-1.55544 10e-7,-1.47397 -1.244629,-3.35067 -2.939263,-4.43052 -0.381353,-0.24301 -0.655624,-0.36996 -0.858072,-0.38266 z m -2.668625,5.29098 c -0.65933,-0.004 -0.827859,0.12429 -1.237804,0.94527 -0.277812,0.55635 -0.292519,0.63802 -0.255954,1.46236 0.03406,0.76778 0.08072,0.9586 0.388125,1.5968 0.382926,0.79497 1.103395,1.59105 1.739222,1.92155 0.68473,0.35591 1.48301,0.21365 1.963705,-0.34957 0.836367,-0.97995 0.463747,-3.2618 -0.751075,-4.59392 -0.624734,-0.68506 -1.17755,-0.97931 -1.846219,-0.98249 z m -3.138571,6.55891 c -0.135199,-0.003 -0.270484,0.0108 -0.402811,0.0455 -1.047674,0.27468 -1.619457,1.20894 -1.388859,2.26903 0.271514,1.24818 1.189456,2.36035 2.253225,2.73444 0.493334,0.17351 1.12122,0.16756 1.514738,-0.0165 0.470863,-0.22029 0.698626,-0.7135 0.698626,-1.51408 0,-1.77946 -1.367986,-3.48874 -2.674919,-3.51835 z"
     sodipodi:nodetypes="ssssccssssscssssssssssscsssssscscsssss" /><path
     sodipodi:type="spiral"
     style="fill:none;fill-rule:evenodd;stroke:#000000;stroke-width:2;stroke-dasharray:none;stroke-opacity:1"
     id="path12-2"
     sodipodi:cx="65.5"
     sodipodi:cy="158"
     sodipodi:expansion="1"
     sodipodi:revolution="3.1293724"
     sodipodi:radius="49.251686"
     sodipodi:argument="-19.608744"
     sodipodi:t0="0"
     d="m 65.5,158 c 1.717238,-1.6295 3.043756,1.51087 2.708333,2.85416 -0.908973,3.64025 -5.614413,4.10592 -8.416657,2.56251 -5.012557,-2.7608 -5.428966,-9.59968 -2.416676,-13.97916 4.420656,-6.42706 13.639597,-6.79289 19.541648,-2.27084 7.866506,6.02717 8.174336,17.699 2.125019,25.10414 -7.612449,9.31861 -21.767719,9.56486 -30.66664,1.97919 -10.777785,-9.18726 -10.960648,-25.84168 -1.833361,-36.22913 10.756193,-12.24126 29.918906,-12.35974 41.791631,-1.68754 13.707533,12.32149 13.761033,33.99832 1.541704,47.35413 -13.884383,15.17572 -38.079264,15.16387 -52.916622,1.39587 C 20.313105,169.63772 20.390547,142.92201 35.708333,126.60422 52.713978,108.48838 81.952564,108.63159 99.749945,125.5 c 9.569015,9.06954 14.968545,21.97893 14.930795,35.1427"
     transform="matrix(1.046216,0,0,1.0164492,5.4363841,-0.72107292)" /></svg>
