<?xml version="1.0" encoding="UTF-8" standalone="no"?>
<svg
   xml:space="preserve"
   width="257.082"
   height="399.121"
   version="1.1"
   id="svg2"
   sodipodi:docname="unique_offhand.svg"
   inkscape:version="1.4.4 (dcaf3e7, 2026-05-05)"
   xmlns:inkscape="http://www.inkscape.org/namespaces/inkscape"
   xmlns:sodipodi="http://sodipodi.sourceforge.net/DTD/sodipodi-0.dtd"
   xmlns="http://www.w3.org/2000/svg"
   xmlns:svg="http://www.w3.org/2000/svg"><sodipodi:namedview
     id="namedview1"
     pagecolor="#ffffff"
     bordercolor="#000000"
     borderopacity="0.25"
     inkscape:showpageshadow="2"
     inkscape:pageopacity="0.0"
     inkscape:pagecheckerboard="0"
     inkscape:deskcolor="#d1d1d1"
     inkscape:zoom="16.616515"
     inkscape:cx="94.664858"
     inkscape:cy="208.07613"
     inkscape:window-width="1116"
     inkscape:window-height="1059"
     inkscape:window-x="3097"
     inkscape:window-y="215"
     inkscape:window-maximized="0"
     inkscape:current-layer="svg2" /><defs
     id="defs2"><linearGradient
       id="linearGradient2"
       inkscape:swatch="gradient"><stop
         style="stop-color:#000000;stop-opacity:1;"
         offset="0"
         id="stop2" /><stop
         style="stop-color:#000000;stop-opacity:0;"
         offset="1"
         id="stop3" /></linearGradient></defs><path
     id="path1"
     style="display:inline;fill:#000000;fill-opacity:1;fill-rule:evenodd;stroke:#000000;stroke-width:0.361;stroke-linecap:round;stroke-linejoin:round;stroke-dasharray:none;stroke-opacity:1"
     d="m 73.476562,183.33594 c -4.079148,0.68265 -3.687256,5.83853 -3.362062,8.95992 0.498182,3.35438 2.284869,6.44952 2.239016,9.89555 3.784494,1.86197 3.449236,7.39951 7.460691,9.05245 2.866919,1.60584 6.654278,2.54448 8.569389,5.13506 2.930641,-0.0743 15.539054,2.78426 16.923714,5.958 2.01104,0.22167 5.626,1.31784 6.6368,-0.53441 1.30208,2.82219 -1.35998,-2.48411 1.51146,-1.20559 2.52903,0.31271 0.873,3.52156 3.77581,3.58091 3.09663,-0.1903 6.46596,-1.2165 9.90585,-0.42351 4.17152,1.39514 -3.33082,-0.38977 -2.81812,1.55796 2.09723,0.3052 4.7433,0.95891 6.05393,-0.26034 2.88075,1.82858 6.62339,1.43091 8.03209,-1.85891 1.15459,-0.72905 2.88292,-3.62583 0.1425,-2.92372 -3.85692,-0.91872 5.17388,-1.17113 1.79379,-2.1619 -2.93488,-0.22874 -7.5721,0.50284 -9.32203,0.95366 2.5771,-1.75709 5.95717,-1.74949 8.69606,-3.0286 -1.58664,-0.36136 -5.96749,1.34938 -5.76946,-1.04826 0.93025,-1.29177 4.18461,-2.22898 3.86558,-3.56949 -1.78833,0.58146 -3.93135,-1.53442 -3.99587,1.29816 -1.09742,1.87372 -2.54996,5.4033 -4.57486,5.4504 -0.20444,-3.50449 0.68348,-7.35327 -1.11217,-10.54977 -0.96058,-1.75555 -5.27029,-3.76681 -3.62044,-5.72518 2.29922,-0.49341 6.06607,1.62747 6.79418,1.88742 0.25027,-1.13583 -2.66088,-3.75851 -0.98366,-1.79803 -1.54444,0.86163 0.0987,-3.13545 -2.12781,-2.89501 -2.3895,0.28342 -3.66502,3.48919 -6.58155,3.24515 -2.49632,0.15835 -4.97016,1.0628 -7.44906,0.34638 -2.91288,-0.34652 -5.81098,-0.96039 -8.69507,-1.27856 -2.51541,-0.93352 -0.21817,2.03091 -1.25997,1.78542 -1.56945,0.0141 -1.60491,-1.73225 -1.59773,-1.83442 -2.826248,-0.6071 -6.682399,0.37745 -8.081651,-2.4728 -1.936271,-2.34623 -3.347296,-5.30679 -5.796307,-7.11786 -2.855178,-2.2691 -5.650811,-4.62302 -9.109695,-5.90475 -1.907799,-1.11218 -3.842663,-2.49279 -6.143345,-2.51533 z m 58.062498,20.79297 c 2.32224,1.70661 -0.42746,5.61673 2.81446,6.79492 0.54555,-2.58588 -0.67945,-5.28779 -2.81446,-6.79492 z M 72.306641,185.95117 c 3.501247,0.72927 4.803923,4.54039 7.032138,6.90477 1.714308,2.88273 -3.303594,-0.0959 -3.682393,-1.51321 -0.596716,-1.57619 -4.15644,-4.64732 -3.349745,-5.39156 z m 4.125,0.47852 c 1.746353,0.58417 5.123751,3.37472 4.411201,4.39755 -1.474781,-1.1808 -4.625104,-2.5188 -4.411201,-4.39755 z m -4.96875,3.67187 c 2.941174,1.10637 5.724197,3.29134 6.671207,6.36204 -0.950063,2.63922 -3.608197,-1.76962 -4.619942,-2.83522 -0.659056,-1.20117 -2.538047,-1.91308 -2.051265,-3.52682 z m 0.572265,5.14649 c 1.948245,0.57063 5.940882,4.51367 3.474074,5.54529 -1.85366,-1.1812 -3.876722,-3.12453 -3.474074,-5.54529 z m 12.369701,2.0323 c 4.185084,0.37264 3.695528,6.6542 -0.02352,2.27215 -0.764861,-0.57403 -1.555833,-2.0756 0.02352,-2.27215 z m -1.50061,3.28514 c 3.451224,0.002 2.52067,5.88626 -0.516461,3.24818 -1.103649,-0.80842 -1.136024,-3.00269 0.516461,-3.24818 z m 11.478565,1.29389 c 0.981874,0.75464 2.404963,1.69825 3.352367,2.83572 0.611808,0.73455 1.025244,1.54994 0.993383,2.44748 -2.426929,0.85487 -4.119178,-2.08275 -5.024607,-3.92406 -0.351357,-0.4624 0.186,-1.73793 0.678857,-1.35914 z m -14.927382,2.42254 c 2.643047,-0.33313 4.895524,5.48359 0.981278,3.04856 -0.716199,-0.70145 -2.179323,-2.16566 -0.981278,-3.04856 z m 30.32973,-0.28387 c 1.19478,-0.28452 3.68613,1.18764 1.02317,0.50052 -0.0149,-0.0266 -1.45522,-0.36787 -1.02317,-0.50052 z m 8.375,1.13476 c 3.31031,-0.23031 5.38757,4.32876 3.66848,6.9043 -1.66468,-1.89465 -5.05509,-2.74219 -5.28082,-5.63725 -0.1505,-0.90159 0.88959,-1.30946 1.61234,-1.26705 z m 5.55468,0.16016 c 1.16632,3.34413 0.76429,7.4015 -1.24613,10.33008 -0.87326,1.07831 -2.08548,2.21832 -3.22271,2.84735 2.18121,-2.73568 5.13812,-5.88022 4.19454,-9.69147 -0.0738,-1.16028 -0.0629,-2.36464 0.2743,-3.48596 z m -10.36328,0.14648 c 0.42789,2.55857 0.94619,5.53141 0.009,7.92183 -0.51313,-2.62127 -0.25743,-5.28792 -0.009,-7.92183 z m -20.890622,0.27149 c 1.2181,1.19977 2.040301,4.11712 4.561696,3.6379 1.819035,-1.32962 4.304616,-1.44817 3.865576,1.59267 -1.562517,3.03309 -6.257253,0.79275 -7.720004,-1.51709 -0.655678,-0.9788 -2.797974,-2.96062 -0.707268,-3.71348 z m 17.693362,0.0469 c 2.39236,0.0969 1.6738,5.15731 -0.0988,1.81827 -0.18945,-0.54713 -1.25331,-1.84893 0.0988,-1.81827 z m 15.45312,0.73633 c 1.7012,0.12941 2.36601,5.57204 0.7602,2.21058 -0.29179,-0.72177 -0.79643,-1.39159 -0.7602,-2.21058 z m -18.07617,1.5957 c 3.36933,0.8635 3.29624,4.92349 4.62274,7.45504 -0.5355,1.45238 -2.57688,3.19709 -3.01918,4.11528 -3.93078,-0.16819 1.58105,-5.02731 -2.28711,-5.53124 -0.42278,-1.86873 -1.47991,-4.82149 0.68355,-6.03908 z m 8.69922,0.25 c 3.56067,0.97847 5.07428,6.28013 2.5856,8.97307 -2.80634,1.57377 -2.95476,-3.27902 -3.57196,-5.13518 -0.45241,-1.27052 -0.34568,-3.12601 0.98636,-3.83789 z m -26.095704,0.22266 c 1.987236,1.86667 2.751738,5.82445 6.323363,5.93939 1.594581,0.17011 5.572741,-1.99085 3.390716,1.13955 -2.253967,1.64519 -5.781492,-0.22308 -7.728,-1.90257 -0.925259,-1.18237 -3.157468,-3.88598 -1.986079,-5.17637 z m 14.488284,1.14844 c 0.0589,2.89701 0.40581,6.40949 -1.15747,8.82537 -1.57515,-2.67984 0.99908,-5.92289 1.15744,-8.82537 z m 21.6875,1.17187 c 2.67319,1.13031 0.45222,7.84944 -1.80111,4.60942 -0.29075,-1.65016 0.37761,-3.64528 1.80111,-4.60942 z m 3.32617,7.35938 c -0.0646,0.0509 -0.007,0.0163 0,0 z m -6.1836,0.0137 c 1.36531,-0.10981 4.51905,0.84244 1.42875,1.04769 -2.79876,-0.006 -0.13726,2.43796 -0.36421,2.73561 -2.45775,1.17948 -2.75662,-3.43736 -5.28523,-2.15994 -1.05714,0.37368 -4.94607,0.0471 -1.63816,-0.35734 1.97381,-0.31802 3.92877,-0.7634 5.85885,-1.26602 z m 6.02149,0.004 c -0.0138,0.0105 0.0108,0.0111 0,0 z m -13.56445,4.12695 c 2.89803,0.12486 5.83894,0.0145 8.70117,0.52344 -2.90627,-0.048 -5.80864,-0.2424 -8.70117,-0.52344 z m 16.32226,0.89062 c 1.34874,-0.14588 5.1644,0.69535 2.04517,1.55724 -1.35805,0.93199 -6.3635,-1.79506 -2.04517,-1.55724 z M 86.709064,194.3584 c 2.398189,-0.007 3.341457,5.67675 0.495628,2.74834 -0.547966,-0.69439 -2.04869,-2.22074 -0.495628,-2.74834 z"
     sodipodi:nodetypes="ccccccccccccccccccccccccccccccccccccccsccsccccccccccccccccssccsccccccccccccccccccccccccccccccccccccccccccccccccccccccccccccccccccccc" /><path
     sodipodi:type="spiral"
     style="fill:none;fill-rule:evenodd;stroke:#be7a30;stroke-opacity:1"
     id="path10"
     sodipodi:cx="96.530472"
     sodipodi:cy="129.50972"
     sodipodi:expansion="1"
     sodipodi:revolution="3"
     sodipodi:radius="43.115879"
     sodipodi:argument="-18.335951"
     sodipodi:t0="0"
     d="m 96.530472,129.50972 c 1.882849,1.06212 -0.502782,3.06205 -1.765309,3.12942 -3.421371,0.18255 -5.089474,-3.80008 -4.493528,-6.66004 1.066007,-5.11579 6.924167,-7.31291 11.554765,-5.85764 6.79559,2.13568 9.58669,10.08502 7.22175,16.4495 -3.15211,8.48284 -13.258178,11.88099 -21.344224,8.58585 -10.175463,-4.14659 -14.185706,-16.43702 -9.949965,-26.23895 5.13005,-11.87144 19.619035,-16.49642 31.133679,-11.31407 13.5696,6.10722 18.8109,22.80302 12.67818,36.0284 -7.08047,15.26923 -25.988317,21.12789 -40.923131,14.0423 -16.969884,-8.05111 -23.446634,-29.17454 -15.406402,-45.81786 9.019925,-18.671289 32.361439,-25.766658 50.712583,-16.770514 20.37325,9.987424 28.08764,35.548844 18.13462,55.607314"
     transform="translate(-25.304962,52.291617)" /></svg>
