<?xml version="1.0" encoding="UTF-8" standalone="no"?>
<svg
   xml:space="preserve"
   width="257.082"
   height="399.121"
   version="1.1"
   id="svg2"
   sodipodi:docname="weapon_unique.svg"
   inkscape:version="1.4.4 (dcaf3e7, 2026-05-05)"
   xmlns:inkscape="http://www.inkscape.org/namespaces/inkscape"
   xmlns:sodipodi="http://sodipodi.sourceforge.net/DTD/sodipodi-0.dtd"
   xmlns="http://www.w3.org/2000/svg"
   xmlns:svg="http://www.w3.org/2000/svg"><sodipodi:namedview
     id="namedview1"
     pagecolor="#ffffff"
     bordercolor="#000000"
     borderopacity="0.25"
     inkscape:showpageshadow="2"
     inkscape:pageopacity="0.0"
     inkscape:pagecheckerboard="0"
     inkscape:deskcolor="#d1d1d1"
     inkscape:zoom="4.1541286"
     inkscape:cx="108.80742"
     inkscape:cy="100.2617"
     inkscape:window-width="1036"
     inkscape:window-height="1059"
     inkscape:window-x="3414"
     inkscape:window-y="151"
     inkscape:window-maximized="0"
     inkscape:current-layer="svg2" /><defs
     id="defs2" /><path
     id="path1"
     style="display:inline;fill:#000000"
     d="M 119.57812 73.396484 C 119.31201 73.395771 119.04534 73.404453 118.77734 73.423828 C 113.09834 73.763828 107.5003 74.901094 101.9043 75.871094 C 93.008297 77.763094 84.207656 80.554891 76.222656 84.962891 C 74.435656 86.236891 72.353984 87.462594 72.708984 89.933594 C 73.385984 93.903594 74.015031 97.891547 74.957031 101.81055 C 76.655031 103.68055 78.428828 105.75072 80.923828 106.51172 C 83.456828 105.82172 85.983938 104.86378 87.835938 102.92578 C 92.162937 99.235781 97.260641 95.202531 103.30664 95.769531 C 106.40664 95.993531 109.07781 98.070937 112.25781 97.835938 C 115.93781 97.970938 119.15623 95.974375 121.99023 93.859375 C 125.02923 91.804375 128.37291 89.839531 132.12891 89.644531 C 135.02291 88.272531 137.35997 84.551422 135.54297 81.482422 C 133.50597 77.522422 128.99916 75.311266 124.66016 75.197266 C 123.23653 73.916266 121.44093 73.401475 119.57812 73.396484 z M 106.45508 75.923828 A 1.82 1.82 0 0 1 107.61328 76.384766 C 108.98228 78.274766 108.07613 81.189609 107.07812 83.099609 C 106.40112 82.641609 103.59264 80.400781 102.05664 82.425781 C 102.94564 84.087781 106.09572 85.37425 106.26172 88.03125 C 107.08672 90.60825 105.94787 94.360922 102.67188 94.044922 C 99.793875 93.366922 97.380547 91.089422 96.060547 88.482422 C 94.207547 86.177422 98.695937 85.895813 98.335938 83.757812 C 96.419938 84.973812 94.276891 82.503922 96.212891 80.419922 C 98.877891 77.867922 102.44322 75.988547 106.19922 75.935547 L 106.19922 75.933594 A 1.82 1.82 0 0 1 106.45508 75.923828 z M 115.60938 76.400391 C 115.67437 76.3976 115.74219 76.398438 115.8125 76.402344 C 117.0325 76.328344 117.21486 77.703219 116.13086 78.074219 C 114.1178 79.664906 113.5945 76.486907 115.60938 76.400391 z M 128.12305 76.433594 C 128.47442 76.453344 128.81008 76.538484 129.08008 76.771484 C 128.50808 79.047484 124.86742 79.263609 122.85742 78.724609 C 121.20642 76.482609 125.60308 76.526328 127.08008 76.486328 C 127.40558 76.458328 127.77167 76.413844 128.12305 76.433594 z M 93.808594 79.169922 C 94.818594 79.512922 93.187828 82.368359 92.673828 83.443359 C 92.65168 83.466219 92.631926 83.477006 92.617188 83.478516 C 92.616171 83.47852 92.612309 83.478614 92.611328 83.478516 C 92.610384 83.478315 92.606378 83.478818 92.605469 83.478516 L 92.603516 83.476562 C 92.602677 83.476059 92.598459 83.475212 92.597656 83.474609 C 92.596888 83.473908 92.594484 83.469549 92.59375 83.46875 C 92.431514 83.260822 93.191375 80.444562 93.59375 79.453125 L 93.808594 79.169922 z M 115.83789 79.695312 C 116.33789 79.731313 116.83842 80.162172 116.73242 80.701172 C 115.57242 84.490172 112.43489 80.308312 115.83789 79.695312 z M 125.70117 79.826172 C 126.10394 79.820126 126.47334 79.877359 126.73828 80.013672 C 128.52328 80.347672 130.75844 79.614063 132.27344 80.664062 C 130.77544 82.320063 126.74777 82.289797 124.25977 81.841797 C 121.57445 81.039047 123.95585 79.852372 125.70117 79.826172 z M 87.25 82.322266 C 88.119 82.271266 87.070312 84.279609 87.070312 84.849609 C 85.582312 87.162609 88.855656 87.727266 89.097656 89.947266 C 89.225656 92.580266 91.063672 94.780016 93.513672 95.666016 C 94.471672 97.447016 90.167156 97.0465 89.160156 96.0625 C 86.746156 93.6955 85.529953 90.370625 84.751953 87.140625 C 83.403953 84.643625 85.505 83.779266 87.25 82.322266 z M 132.58984 82.902344 L 132.5918 82.902344 C 133.1868 82.939344 133.80467 83.122578 134.26367 83.517578 C 134.36367 85.936578 130.10352 85.594828 128.22852 85.673828 C 126.82152 85.342828 122.41408 86.817422 123.33008 84.357422 C 126.21908 82.994422 129.48384 83.158344 132.58984 82.902344 z M 114.73242 84.191406 C 114.92286 84.181193 115.13039 84.206641 115.35352 84.279297 C 116.96452 84.398297 116.0672 86.041359 115.1582 86.443359 C 112.63883 87.828109 112.89152 84.290135 114.73242 84.191406 z M 90.599609 85.304688 C 91.170609 85.828687 91.146172 86.676672 91.201172 87.388672 C 91.114172 90.444672 89.881609 86.274687 90.599609 85.304688 z M 92.841797 86.498047 C 93.373797 88.046047 94.481109 89.611453 94.287109 91.314453 C 93.517109 91.432453 92.354797 87.846047 92.841797 86.498047 z M 128.68945 86.949219 C 131.67045 86.973219 131.56333 88.719578 128.86133 89.142578 C 126.48133 89.278578 124.15231 90.445766 121.82031 90.259766 C 121.58331 87.211766 126.33145 86.936219 128.68945 86.949219 z M 78.134766 87.617188 C 79.531766 88.751188 79.587656 90.945047 79.847656 92.623047 C 79.919656 93.667047 80.058266 98.229187 79.322266 96.367188 C 79.158266 93.427188 77.571766 90.590187 78.134766 87.617188 z M 114.29883 88.279297 C 115.03553 88.286932 115.62477 89.200781 114.86914 89.707031 C 113.2526 91.759448 111.81125 88.558652 114.14844 88.289062 C 114.19786 88.281336 114.25034 88.278794 114.29883 88.279297 z M 80.849609 91.660156 L 80.921875 91.666016 C 81.411875 94.567016 81.788219 97.754031 82.949219 100.58203 C 83.955219 102.40303 82.729297 101.30503 82.154297 100.20703 C 80.256297 97.726031 80.912609 94.538156 80.849609 91.660156 z M 82.486328 92.126953 C 84.397328 93.970953 84.927125 96.753531 86.453125 98.894531 C 88.941125 101.80753 83.855516 101.37058 83.353516 99.017578 C 82.728516 96.811578 82.054328 94.435953 82.486328 92.126953 z M 117.71094 93.697266 C 118.77543 93.667425 119.60011 95.410234 118.57227 96.025391 C 116.24827 97.691391 114.79142 93.751078 117.60742 93.705078 C 117.6422 93.700328 117.6766 93.698228 117.71094 93.697266 z " /><path
     id="path2"
     style="fill:#be7a30;fill-opacity:0.484277;fill-rule:evenodd;stroke-width:0.340436"
     d="M 106.05469 76.285156 C 105.76426 76.289624 105.41587 76.30974 104.99219 76.34375 C 102.47656 76.545681 99.198058 78.054653 97.097656 79.974609 C 95.039475 81.855972 95.208289 83.748047 97.433594 83.748047 C 98.795881 83.748047 98.680915 84.804377 97.195312 85.9375 C 95.737168 87.049682 95.711878 87.615496 97.035156 89.613281 C 98.153081 91.301041 99.780107 92.689264 101.5332 93.451172 C 103.20418 94.177396 103.79178 94.069543 105.05859 92.802734 C 106.06842 91.792905 106.2168 91.42705 106.2168 89.931641 C 106.2168 87.519779 105.77 86.578146 103.55859 84.322266 C 101.67853 82.404395 101.64052 82.328493 102.30078 81.832031 C 102.67526 81.55045 103.36393 81.392609 103.83203 81.480469 C 104.30013 81.568331 105.2437 81.750023 105.92773 81.882812 C 107.00366 82.091684 107.22623 82.020015 107.58398 81.351562 C 108.16097 80.27348 108.15033 77.459441 107.56641 76.755859 C 107.27482 76.404529 106.92597 76.271753 106.05469 76.285156 z M 127.40234 76.535156 C 126.72673 76.526644 125.92727 76.552943 125.29688 76.617188 C 123.75014 76.774817 122.74179 77.152114 122.58984 77.630859 C 122.55041 77.755112 122.59656 78.045655 122.69336 78.277344 C 122.84742 78.646049 122.93429 78.706615 123.39062 78.765625 C 123.67739 78.802707 124.04739 78.857306 124.21289 78.884766 C 124.74248 78.97264 126.17816 78.815827 126.90234 78.591797 C 127.80974 78.311088 128.43701 77.868984 128.76953 77.277344 L 129.03711 76.804688 L 128.76758 76.660156 C 128.62944 76.58623 128.07796 76.543668 127.40234 76.535156 z M 125.44727 79.955078 C 124.3126 79.98093 123.25 80.455677 123.25 81.001953 C 123.25 81.284444 123.33708 81.3719 123.83008 81.583984 C 124.14916 81.721248 124.89517 81.884743 125.48633 81.945312 C 127.01788 82.102231 127.33297 82.10247 128.64258 81.957031 C 130.97582 81.697913 132.62261 80.813807 131.58594 80.376953 C 131.40389 80.300238 130.22654 80.193545 128.96875 80.140625 C 127.71097 80.087701 126.34583 80.012586 125.93555 79.972656 C 125.77336 79.956874 125.60936 79.951385 125.44727 79.955078 z M 132.50781 82.990234 C 132.31012 82.978674 132.10779 82.980054 131.91016 82.996094 C 131.54976 83.025344 130.41833 83.105531 129.39648 83.175781 C 128.37462 83.246033 127.09398 83.381492 126.54883 83.476562 C 125.31408 83.691886 123.68166 84.20116 123.43555 84.447266 C 123.15003 84.73279 123.21113 85.167938 123.57617 85.455078 C 123.8953 85.706107 123.96473 85.709565 127.15625 85.640625 C 130.96626 85.558326 131.61558 85.512135 132.56055 85.251953 C 133.35443 85.033369 134.0182 84.493452 134.15234 83.958984 C 134.22172 83.682563 134.18457 83.576116 133.95117 83.398438 C 133.65731 83.174717 133.10089 83.024916 132.50781 82.990234 z M 128.84961 87.050781 C 128.4833 87.036461 128.06229 87.039282 127.58594 87.060547 C 124.557 87.195769 122.73594 87.870035 122.09766 89.091797 C 121.91746 89.436726 121.86866 90.054209 122.01172 90.197266 C 122.17452 90.360072 123.91949 90.096257 125.89844 89.609375 C 126.52733 89.454649 127.61155 89.240416 128.30664 89.132812 C 130.22359 88.836057 131.03675 88.34605 130.73047 87.673828 C 130.55943 87.298443 129.94854 87.093741 128.84961 87.050781 z " /><path
     sodipodi:type="spiral"
     style="fill:none;fill-rule:evenodd;stroke:#be7a30;stroke-opacity:1"
     id="path10"
     sodipodi:cx="96.530472"
     sodipodi:cy="129.50972"
     sodipodi:expansion="1"
     sodipodi:revolution="3"
     sodipodi:radius="43.115879"
     sodipodi:argument="-18.335951"
     sodipodi:t0="0"
     d="m 96.530472,129.50972 c 1.882849,1.06212 -0.502782,3.06205 -1.765309,3.12942 -3.421371,0.18255 -5.089474,-3.80008 -4.493528,-6.66004 1.066007,-5.11579 6.924167,-7.31291 11.554765,-5.85764 6.79559,2.13568 9.58669,10.08502 7.22175,16.4495 -3.15211,8.48284 -13.258178,11.88099 -21.344224,8.58585 -10.175463,-4.14659 -14.185706,-16.43702 -9.949965,-26.23895 5.13005,-11.87144 19.619035,-16.49642 31.133679,-11.31407 13.5696,6.10722 18.8109,22.80302 12.67818,36.0284 -7.08047,15.26923 -25.988317,21.12789 -40.923131,14.0423 -16.969884,-8.05111 -23.446634,-29.17454 -15.406402,-45.81786 9.019925,-18.671289 32.361439,-25.766658 50.712583,-16.770514 20.37325,9.987424 28.08764,35.548844 18.13462,55.607314"
     transform="translate(23.10954,-45.737631)" /></svg>
