<?xml version="1.0" encoding="UTF-8" standalone="no"?>
<svg
   xml:space="preserve"
   width="257.082"
   height="399.121"
   version="1.1"
   id="svg2"
   sodipodi:docname="weapon.svg"
   inkscape:version="1.4.4 (dcaf3e7, 2026-05-05)"
   xmlns:inkscape="http://www.inkscape.org/namespaces/inkscape"
   xmlns:sodipodi="http://sodipodi.sourceforge.net/DTD/sodipodi-0.dtd"
   xmlns="http://www.w3.org/2000/svg"
   xmlns:svg="http://www.w3.org/2000/svg"><defs
     id="defs2" /><sodipodi:namedview
     id="namedview2"
     pagecolor="#ffffff"
     bordercolor="#000000"
     borderopacity="0.25"
     inkscape:showpageshadow="2"
     inkscape:pageopacity="0.0"
     inkscape:pagecheckerboard="0"
     inkscape:deskcolor="#d1d1d1"
     inkscape:zoom="4.1541286"
     inkscape:cx="80.642665"
     inkscape:cy="49.228134"
     inkscape:window-width="1920"
     inkscape:window-height="1009"
     inkscape:window-x="2552"
     inkscape:window-y="143"
     inkscape:window-maximized="1"
     inkscape:current-layer="svg2" /><path
     d="m 104.85115,27.454834 c -4.46779,0.06609 -8.710757,2.410736 -11.880793,5.593456 -2.302885,2.599055 0.247418,5.679508 2.526511,4.162977 0.428223,2.666401 -4.911472,3.018098 -2.707317,5.892771 1.57015,3.251314 4.440429,6.091067 7.863839,6.936634 3.89682,0.394099 5.25166,-4.286445 4.27032,-7.500344 -0.19746,-3.31367 -3.9444,-4.91875 -5.001877,-6.991508 1.827087,-2.525472 5.168407,0.269384 5.973697,0.840577 1.18714,-2.382052 2.26483,-6.017485 0.6364,-8.374593 a 2.1649021,2.2698081 0 0 0 -1.68078,-0.561218 m 11.43354,0.583666 c -2.67639,-0.155894 -2.09354,4.133045 0.37826,2.085231 1.28943,-0.462692 1.07294,-2.177521 -0.37826,-2.085231 m 13.40336,0.106011 c -1.7569,0.04988 -6.98598,-0.0062 -5.0221,2.78987 2.39091,0.672212 6.72191,0.402829 7.4023,-2.435679 -0.64233,-0.581171 -1.60583,-0.424029 -2.3802,-0.354191 m -39.833011,3.69904 c -0.528142,1.364379 -1.576096,5.497425 -1.094346,4.976119 0.611406,-1.340686 2.552681,-4.90129 1.351279,-5.329062 z m 26.460571,0.303057 c -4.04789,0.764502 -0.3164,5.98007 1.06342,1.254629 0.12609,-0.672212 -0.46867,-1.209732 -1.06342,-1.254629 m 12.96563,0.395346 c -1.68077,-0.906677 -6.87892,1.047604 -2.9476,2.279786 2.9595,0.558721 7.75083,0.598629 9.53271,-1.466647 -1.80211,-1.309504 -4.46066,-0.396593 -6.58392,-0.813139 m -46.972431,2.879662 c -2.075688,1.817094 -4.574842,2.89463 -2.971387,6.008756 0.925437,4.028286 2.373066,8.176297 5.244536,11.128295 1.197831,1.227195 6.316278,1.726052 5.17673,-0.495118 -2.914291,-1.104973 -5.100602,-3.847449 -5.252858,-7.131188 -0.287862,-2.768665 -4.181117,-3.473304 -2.411131,-6.357956 0,-0.710874 1.247792,-3.216392 0.21411,-3.152789 m 53.932231,0.723345 c -3.69461,0.319272 -7.57716,0.114735 -11.01364,1.8146 -1.08959,3.067982 4.15256,1.22844 5.8262,1.641246 2.23032,-0.09852 7.29763,0.328 7.17868,-2.68885 -0.54599,-0.492623 -1.28229,-0.720851 -1.99005,-0.766996 m -20.50471,1.71857 c -2.83103,-0.966539 -3.53878,4.603221 -0.23196,2.697579 1.08126,-0.501353 2.14825,-2.549168 0.23196,-2.697579 m -29.445055,1.277079 c -0.854066,1.209733 0.613786,6.411584 0.717273,2.600302 -0.06542,-0.88797 -0.03807,-1.946797 -0.717273,-2.600302 m 2.666875,1.489094 c -0.57929,1.681153 0.805296,6.154671 1.721216,6.007508 0.230764,-2.123891 -1.088399,-4.076925 -1.721216,-6.007508 m 42.64262,0.562463 c -2.80485,-0.01623 -8.45262,0.326752 -8.17071,4.128057 2.77392,0.23197 5.54309,-1.222204 8.37413,-1.391815 3.21404,-0.527544 3.3425,-2.70631 -0.20342,-2.736242 M 71.466457,42.02526 c -0.669692,3.707769 1.218055,7.245927 1.413134,10.91254 0.875477,2.322187 0.711325,-3.368546 0.62568,-4.670568 -0.309272,-2.092712 -0.377073,-4.827706 -2.038814,-6.241972 m 42.841273,0.838084 c -2.78345,0.334235 -1.06818,4.3276 0.85526,1.767207 0.95874,-0.67346 0.0964,-1.925595 -0.85645,-1.767207 M 74.697157,47.06623 c 0.07493,3.589289 -0.705377,7.565196 1.552306,10.659368 0.683967,1.369367 2.141112,2.738735 0.944469,0.46768 -1.381018,-3.526932 -1.829462,-7.501592 -2.41232,-11.119565 z m 1.946034,0.58117 c -0.513867,2.879663 0.28905,5.842887 1.032491,8.594094 0.597132,2.934536 6.646963,3.479539 3.687471,-0.153401 -1.815187,-2.670142 -2.446816,-6.140952 -4.719962,-8.440693 m 41.776669,1.970493 c -3.34966,0.05737 -1.61536,4.97113 1.14906,2.893382 1.26207,-0.791939 0.17486,-3.082949 -1.14906,-2.893382"
     style="display:inline;fill:#f09999;fill-opacity:0.623529;fill-rule:evenodd;stroke:none;stroke-width:0;stroke-linecap:round;stroke-linejoin:round"
     id="path2" /><path
     d="m 120.8293,24.202119 c -0.31654,-8.89e-4 -0.63433,0.01295 -0.95312,0.03711 -6.75521,0.42403 -13.41383,1.841048 -20.070307,3.050781 -10.581856,2.359603 -21.050621,5.842421 -30.548831,11.339844 -2.125649,1.588867 -4.601962,3.117517 -4.179687,6.199218 0.805297,4.951173 1.555265,9.924932 2.675781,14.8125 2.019782,2.332166 4.125932,4.912251 7.09375,5.861329 3.013021,-0.860532 6.021643,-2.053733 8.224609,-4.470703 5.146993,-4.601974 11.208631,-9.632914 18.400385,-8.925782 3.68747,0.279362 6.86581,2.869252 10.64844,2.576172 4.37739,0.168363 8.20511,-2.319315 11.57617,-4.957031 3.61491,-2.562887 7.59277,-5.014618 12.06055,-5.257813 3.44244,-1.711086 6.22189,-6.352193 4.06055,-10.179687 -2.42302,-4.938702 -7.78405,-7.695717 -12.94532,-7.837891 -1.69341,-1.597595 -3.82714,-2.241823 -6.04297,-2.248047 z m -15.61132,3.154297 c 0.50912,0.01562 0.99668,0.218946 1.37695,0.574219 1.62843,2.357108 0.55237,5.990995 -0.63477,8.373047 -0.80529,-0.571193 -4.14752,-3.365316 -5.974597,-0.839844 1.057467,2.072758 4.804487,3.678518 5.001947,6.992188 0.31875,4.20778 -0.55959,8.174425 -4.26953,7.5 -3.423407,-0.845567 -6.295085,-3.686186 -7.865235,-6.9375 -2.204155,-2.874673 3.135258,-3.226177 2.707028,-5.892578 -2.279089,1.51653 -4.828272,-1.563055 -2.525387,-4.16211 3.170037,-3.18272 7.413064,-5.52766 11.880854,-5.59375 v -0.002 c 0.10053,-0.01131 0.20169,-0.01523 0.30274,-0.01172 z m 10.88867,0.59375 c 0.0773,-0.0035 0.15855,-0.0029 0.24219,0.002 1.4512,-0.09229 1.66638,1.623246 0.37695,2.085938 -2.39456,1.98382 -3.01585,-1.979992 -0.61914,-2.087891 z m 14.88476,0.04102 c 0.41797,0.02463 0.81946,0.131289 1.14063,0.421875 -0.68039,2.838508 -5.01143,3.107759 -7.40234,2.435547 -1.96388,-2.79607 3.26458,-2.741136 5.02148,-2.791016 0.38719,-0.03492 0.82227,-0.09104 1.24023,-0.06641 z m -40.816399,3.414062 c 1.201402,0.427772 -0.740156,3.987439 -1.351562,5.328125 -0.03199,0.03462 -0.05707,0.04918 -0.07617,0.04492 -0.0011,-3.77e-4 -0.0048,-0.0014 -0.0059,-0.002 -0.235302,-0.148081 0.690854,-3.761744 1.177735,-5.019531 z m 26.205079,0.654297 c 0.59475,0.0449 1.18859,0.583648 1.0625,1.25586 -1.37982,4.725441 -5.11039,-0.491358 -1.0625,-1.25586 z m 11.73242,0.164063 c 0.47909,-0.0075 0.91728,0.06242 1.23242,0.232422 h 0.002 c 2.12326,0.416546 4.78188,-0.497004 6.58399,0.8125 -1.78188,2.065276 -6.57371,2.025517 -9.53321,1.466796 -3.19419,-1.001147 -0.36123,-2.479043 1.71485,-2.511718 z m -45.73828,3.111328 c 1.033682,-0.0636 -0.214844,2.44147 -0.214844,3.152344 -1.769986,2.884652 2.124247,3.59071 2.412109,6.359375 0.152257,3.283739 2.337663,6.025886 5.251954,7.130859 1.139548,2.22117 -3.977951,1.721336 -5.175782,0.494141 -2.87147,-2.951998 -4.320656,-7.098667 -5.246093,-11.126953 -1.603455,-3.114127 0.896968,-4.192672 2.972656,-6.009766 z m 53.93164,0.724609 h 0.002 c 0.70776,0.04615 1.44425,0.273002 1.99024,0.765625 0.11895,3.01685 -4.94937,2.590933 -7.17969,2.689453 -1.67364,-0.412806 -6.91576,1.427357 -5.82617,-1.640625 3.43648,-1.699865 7.31906,-1.495181 11.01367,-1.814453 z m -21.24219,1.607418 c 0.22653,-0.01274 0.47287,0.01876 0.73828,0.109375 1.91629,0.148411 0.84884,2.197866 -0.23242,2.699219 -2.99681,1.726988 -2.69562,-2.685464 -0.50586,-2.808594 z m -28.707028,1.386719 c 0.679203,0.653505 0.65333,1.713592 0.71875,2.601562 -0.103487,3.811282 -1.572816,-1.391829 -0.71875,-2.601562 z m 2.667969,1.490234 c 0.632816,1.930583 1.951467,3.883922 1.720703,6.007813 -0.91592,0.147163 -2.299994,-4.32666 -1.720703,-6.007813 z m 42.642579,0.5625 c 3.54592,0.02993 3.41716,2.208784 0.20312,2.736328 -2.83104,0.169611 -5.60108,1.622595 -8.375,1.390625 -0.28191,-3.801305 5.36703,-4.143183 8.17188,-4.126953 z m -60.13672,0.833985 c 1.661741,1.414266 1.72979,4.149475 2.039062,6.242187 0.08564,1.302022 0.248524,6.992109 -0.626953,4.669922 C 72.74751,49.185897 70.860788,45.64817 71.53048,41.940401 Z m 43.01758,0.824218 c 0.87635,0.0095 1.57655,1.149882 0.67773,1.78125 -1.92298,2.55978 -3.6361,-1.431671 -0.85547,-1.767578 0.0589,-0.0097 0.11994,-0.0143 0.17774,-0.01367 z m -39.787111,4.216797 0.08398,0.0078 c 0.582858,3.617973 1.031091,7.592208 2.412109,11.11914 1.196643,2.271055 -0.259392,0.90257 -0.943359,-0.466797 -2.257683,-3.094172 -1.477804,-7.070867 -1.552734,-10.660156 z m 1.945312,0.580078 c 2.273146,2.299741 2.905516,5.771265 4.720703,8.441407 2.959492,3.63294 -3.090368,3.088833 -3.6875,0.154297 -0.743441,-2.751208 -1.54707,-5.716041 -1.033203,-8.595704 z m 41.900389,1.960938 c 1.26622,-0.03722 2.24802,2.137106 1.02539,2.904297 -2.76442,2.077748 -4.4981,-2.837162 -1.14844,-2.894531 0.0414,-0.0059 0.0822,-0.0086 0.12305,-0.0098 z"
     style="display:inline;fill:#000000;stroke-width:0.805575"
     id="path1"
     sodipodi:nodetypes="scccccccccccccsccccccccccccccccccscccssccccccccccccccccccccccccccccccsccsccccccccccccccsccssccccccccccccccc" /></svg>
