<?xml version="1.0" encoding="UTF-8" standalone="no"?>
<svg
   xml:space="preserve"
   width="257.082"
   height="399.121"
   version="1.1"
   id="svg2"
   sodipodi:docname="weapon_unique.svg"
   inkscape:version="1.4.4 (dcaf3e7, 2026-05-05)"
   xmlns:inkscape="http://www.inkscape.org/namespaces/inkscape"
   xmlns:sodipodi="http://sodipodi.sourceforge.net/DTD/sodipodi-0.dtd"
   xmlns="http://www.w3.org/2000/svg"
   xmlns:svg="http://www.w3.org/2000/svg"><defs
     id="defs2" /><sodipodi:namedview
     id="namedview2"
     pagecolor="#ffffff"
     bordercolor="#000000"
     borderopacity="0.25"
     inkscape:showpageshadow="2"
     inkscape:pageopacity="0.0"
     inkscape:pagecheckerboard="0"
     inkscape:deskcolor="#d1d1d1"
     inkscape:zoom="2.0770643"
     inkscape:cx="122.76943"
     inkscape:cy="104.23365"
     inkscape:window-width="1920"
     inkscape:window-height="1009"
     inkscape:window-x="2552"
     inkscape:window-y="143"
     inkscape:window-maximized="1"
     inkscape:current-layer="svg2"
     showguides="true"><sodipodi:guide
       position="-34.182861,394.78796"
       orientation="0,-1"
       id="guide3"
       inkscape:locked="false" /></sodipodi:namedview><path
     id="path1"
     style="display:inline;fill:#000000;stroke-width:0.906;stroke-dasharray:none"
     d="M 120.76562 24.287109 C 120.44908 24.28622 120.13129 24.300055 119.8125 24.324219 C 113.05729 24.748249 106.39867 26.165267 99.742188 27.375 C 89.160334 29.734603 78.691569 33.217421 69.193359 38.714844 C 67.06771 40.303711 64.591397 41.832361 65.013672 44.914062 C 65.818969 49.865235 66.568937 54.838994 67.689453 59.726562 C 69.709235 62.058728 71.815385 64.638813 74.783203 65.587891 C 77.796224 64.727359 80.804846 63.534158 83.007812 61.117188 C 88.154805 56.515214 94.216443 51.484274 101.4082 52.191406 C 105.09567 52.470768 108.27401 55.060658 112.05664 54.767578 C 116.43403 54.935941 120.26175 52.448263 123.63281 49.810547 C 127.24772 47.24766 131.22558 44.795929 135.69336 44.552734 C 139.1358 42.841648 141.91525 38.200541 139.75391 34.373047 C 137.33089 29.434345 131.96986 26.67733 126.80859 26.535156 C 125.11518 24.937561 122.98145 24.293333 120.76562 24.287109 z M 105.1543 27.441406 A 2.1649021 2.2698081 0 0 1 106.53125 28.015625 C 108.15968 30.372733 107.08362 34.00662 105.89648 36.388672 C 105.09119 35.817479 101.74896 33.023356 99.921875 35.548828 C 100.97935 37.621586 104.72637 39.227346 104.92383 42.541016 C 105.90517 45.754915 104.55112 50.435115 100.6543 50.041016 C 97.230887 49.195449 94.359212 46.35483 92.789062 43.103516 C 90.584907 40.228843 95.924317 39.877339 95.496094 37.210938 C 93.217001 38.727468 90.667818 35.647883 92.970703 33.048828 C 96.140739 29.866108 100.38377 27.521168 104.85156 27.455078 L 104.85156 27.453125 A 2.1649021 2.2698081 0 0 1 105.1543 27.441406 z M 116.04297 28.035156 C 116.12028 28.031676 116.20152 28.032238 116.28516 28.037109 C 117.73636 27.944819 117.95154 29.660355 116.66211 30.123047 C 114.26755 32.106867 113.64626 28.143055 116.04297 28.035156 z M 130.92773 28.076172 C 131.3457 28.100803 131.74719 28.207461 132.06836 28.498047 C 131.38797 31.336555 127.05693 31.605806 124.66602 30.933594 C 122.70214 28.137524 127.9306 28.192458 129.6875 28.142578 C 130.07469 28.107659 130.50977 28.051541 130.92773 28.076172 z M 90.111328 31.490234 C 91.31273 31.918006 89.371172 35.477673 88.759766 36.818359 C 88.727774 36.852977 88.702694 36.867539 88.683594 36.863281 C 88.682513 36.862904 88.678773 36.861831 88.677734 36.861328 C 88.442432 36.713247 89.368588 33.099584 89.855469 31.841797 L 90.111328 31.490234 z M 116.31641 32.144531 C 116.91116 32.189428 117.505 32.728179 117.37891 33.400391 C 115.99909 38.125832 112.26852 32.909033 116.31641 32.144531 z M 128.04883 32.308594 C 128.52792 32.301053 128.96611 32.371014 129.28125 32.541016 L 129.2832 32.541016 C 131.40646 32.957562 134.06508 32.044012 135.86719 33.353516 C 134.08531 35.418792 129.29348 35.379033 126.33398 34.820312 C 123.13979 33.819165 125.97275 32.341269 128.04883 32.308594 z M 82.310547 35.419922 C 83.344229 35.356319 82.095703 37.861392 82.095703 38.572266 C 80.325717 41.456918 84.21995 42.162976 84.507812 44.931641 C 84.660069 48.21538 86.845475 50.957527 89.759766 52.0625 C 90.899314 54.28367 85.781815 53.783836 84.583984 52.556641 C 81.712514 49.604643 80.263328 45.457974 79.337891 41.429688 C 77.734436 38.315561 80.234859 37.237016 82.310547 35.419922 z M 136.24219 36.144531 L 136.24414 36.144531 C 136.9519 36.190676 137.68839 36.417533 138.23438 36.910156 C 138.35333 39.927006 133.28501 39.501089 131.05469 39.599609 C 129.38105 39.186803 124.13893 41.026966 125.22852 37.958984 C 128.665 36.259119 132.54758 36.463803 136.24219 36.144531 z M 115 37.751953 C 115.22653 37.739216 115.47287 37.770715 115.73828 37.861328 C 117.65457 38.009739 116.58712 40.059194 115.50586 40.560547 C 112.50905 42.287535 112.81024 37.875083 115 37.751953 z M 86.292969 39.138672 C 86.972172 39.792177 86.946299 40.852264 87.011719 41.740234 C 86.908232 45.551516 85.438903 40.348405 86.292969 39.138672 z M 88.960938 40.628906 C 89.593754 42.559489 90.912405 44.512828 90.681641 46.636719 C 89.765721 46.783882 88.381647 42.310059 88.960938 40.628906 z M 131.60352 41.191406 C 135.14944 41.221338 135.02068 43.40019 131.80664 43.927734 C 128.9756 44.097345 126.20556 45.550329 123.43164 45.318359 C 123.14973 41.517054 128.79867 41.175176 131.60352 41.191406 z M 71.466797 42.025391 C 73.128538 43.439657 73.196587 46.174866 73.505859 48.267578 C 73.591504 49.5696 73.754383 55.259687 72.878906 52.9375 C 72.683827 49.270887 70.797105 45.73316 71.466797 42.025391 z M 114.48438 42.849609 C 115.36073 42.859132 116.06093 43.999491 115.16211 44.630859 C 113.23913 47.190639 111.52601 43.199188 114.30664 42.863281 C 114.36555 42.853605 114.42658 42.848981 114.48438 42.849609 z M 74.697266 47.066406 L 74.78125 47.074219 C 75.364108 50.692192 75.812341 54.666427 77.193359 58.193359 C 78.390002 60.464414 76.933967 59.095929 76.25 57.726562 C 73.992317 54.63239 74.772196 50.655695 74.697266 47.066406 z M 76.642578 47.646484 C 78.915724 49.946225 79.548094 53.417749 81.363281 56.087891 C 84.322773 59.720831 78.272913 59.176724 77.675781 56.242188 C 76.93234 53.49098 76.128711 50.526147 76.642578 47.646484 z M 118.54297 49.607422 C 119.80919 49.570205 120.79099 51.744528 119.56836 52.511719 C 116.80394 54.589467 115.07026 49.674557 118.41992 49.617188 C 118.46129 49.611264 118.50212 49.608622 118.54297 49.607422 z " /><path
     sodipodi:type="spiral"
     style="fill:none;fill-rule:evenodd;stroke:#000000;stroke-width:1.4;stroke-dasharray:none"
     id="path2"
     sodipodi:cx="127.10247"
     sodipodi:cy="45.256184"
     sodipodi:expansion="1"
     sodipodi:revolution="3.1305246"
     sodipodi:radius="39.187088"
     sodipodi:argument="-20.127819"
     sodipodi:t0="0"
     d="m 127.10247,45.256184 c 0.54298,-1.802868 2.69812,-0.157551 2.99649,0.902462 0.80856,2.872568 -2.25724,5.050724 -4.80141,5.090508 -4.55093,0.07116 -7.53683,-4.487403 -7.18453,-8.700357 0.51701,-6.18268 6.73918,-10.072732 12.5993,-9.278553 7.81061,1.058514 12.62842,8.997519 11.37258,16.498251 -1.58035,9.438907 -11.2587,15.194049 -20.3972,13.466599 -11.06796,-2.092174 -17.76539,-13.521412 -15.56062,-24.296147 2.59823,-12.697652 15.78508,-20.340288 28.19509,-17.654644 14.32785,3.100683 22.91758,18.049397 19.74867,32.094042 -3.60072,15.958417 -20.31416,25.496537 -35.99299,21.842689 C 100.48857,71.121968 90.001136,52.641782 94.141135,35.329098 98.737319,16.108737 118.98573,4.6713026 137.93202,9.2983634 c 10.28145,2.5109356 19.16743,9.3981256 24.31622,18.6256826"
     transform="rotate(-176.50083,128.54585,40.658132)" /><path
     sodipodi:type="spiral"
     style="fill:none;fill-rule:evenodd;stroke:#ca8134;stroke-opacity:1;stroke-width:1.4;stroke-dasharray:none"
     id="path3"
     sodipodi:cx="127.58392"
     sodipodi:cy="44.774734"
     sodipodi:expansion="1"
     sodipodi:revolution="3.1305246"
     sodipodi:radius="36.195213"
     sodipodi:argument="-20.169014"
     sodipodi:t0="0"
     d="m 127.58392,44.774734 c 0.43252,-1.684463 2.48401,-0.248031 2.79969,0.718871 0.85547,2.620244 -1.89101,4.747014 -4.23743,4.880507 -4.19719,0.238787 -7.12619,-3.854587 -6.96132,-7.755988 0.24195,-5.725464 5.83622,-9.552153 11.27454,-9.042144 7.24843,0.679762 11.99662,7.823149 11.12297,14.793106 -1.09941,8.770979 -9.81232,14.450369 -18.31167,13.20378 -10.29384,-1.509786 -16.90944,-11.802699 -15.2846,-21.830223 1.91482,-11.81709 13.79383,-19.371848 25.34879,-17.365417 13.34065,2.316504 21.83647,15.785447 19.44623,28.867341 C 150.06517,66.109046 135.0037,75.547233 120.39522,72.77162 104.00672,69.657802 93.625233,53.001963 96.787349,36.867162 100.2979,18.954474 118.54944,7.6290031 136.21037,11.178471 c 9.58393,1.926166 18.0465,7.944119 23.14916,16.264081"
     transform="rotate(-176.50083,128.54585,40.658132)" /></svg>
