<svg xmlns="http://www.w3.org/2000/svg" xml:space="preserve" width="257.082" height="399.121"><path d="M118.777 73.424c-5.679.34-11.276 1.477-16.872 2.447-8.896 1.892-17.697 4.684-25.682 9.092-1.787 1.274-3.869 2.5-3.514 4.971.677 3.97 1.307 7.958 2.249 11.877 1.698 1.87 3.47 3.94 5.965 4.701 2.533-.69 5.061-1.648 6.913-3.586 4.327-3.69 9.424-7.723 15.47-7.156 3.1.224 5.772 2.3 8.952 2.065 3.68.135 6.898-1.86 9.732-3.975 3.039-2.055 6.383-4.02 10.139-4.215 2.894-1.372 5.23-5.094 3.413-8.163-2.037-3.96-6.543-6.171-10.882-6.285-1.627-1.464-3.739-1.928-5.883-1.773" style="display:inline;fill:#000;stroke-width:.6614"/><path d="M106.2 75.935c-3.756.053-7.323 1.933-9.988 4.485-1.936 2.084.208 4.554 2.124 3.338.36 2.138-4.129 2.42-2.276 4.725 1.32 2.607 3.733 4.884 6.611 5.562 3.276.316 4.415-3.437 3.59-6.014-.166-2.657-3.316-3.944-4.205-5.606 1.536-2.025 4.345.216 5.022.674.998-1.91 1.904-4.825.535-6.715a1.82 1.82 0 0 0-1.413-.45m9.612.468c-2.25-.125-1.76 3.314.318 1.672 1.084-.371.902-1.746-.318-1.672m11.268.085c-1.477.04-5.873-.005-4.222 2.237 2.01.539 5.651.323 6.223-1.953-.54-.466-1.35-.34-2.001-.284m-33.487 2.966c-.444 1.094-1.325 4.408-.92 3.99.514-1.075 2.146-3.93 1.136-4.273zm22.245.243c-3.403.613-.266 4.795.894 1.006.106-.539-.394-.97-.894-1.006m10.9.317c-1.413-.727-5.783.84-2.478 1.828 2.488.448 6.516.48 8.014-1.176-1.515-1.05-3.75-.318-5.535-.652M87.25 82.322c-1.745 1.457-3.846 2.321-2.498 4.818.778 3.23 1.995 6.556 4.409 8.923 1.007.984 5.31 1.384 4.352-.397-2.45-.886-4.288-3.085-4.416-5.718-.242-2.22-3.515-2.785-2.027-5.098 0-.57 1.049-2.579.18-2.528m45.34.58c-3.106.256-6.37.092-9.259 1.455-.916 2.46 3.491.985 4.898 1.316 1.875-.079 6.135.263 6.035-2.156-.459-.395-1.078-.578-1.673-.615m-17.238 1.378c-2.38-.775-2.975 3.691-.195 2.163.909-.402 1.806-2.044.195-2.163m-24.754 1.024c-.718.97.516 5.141.603 2.085-.055-.712-.032-1.561-.603-2.085m2.242 1.194c-.487 1.348.677 4.935 1.447 4.817.194-1.703-.915-3.269-1.447-4.817m35.849.451c-2.358-.013-7.106.262-6.869 3.31 2.332.186 4.66-.98 7.04-1.116 2.702-.423 2.81-2.17-.171-2.194m-50.556.669c-.563 2.973 1.024 5.81 1.188 8.75.736 1.862.598-2.701.526-3.745-.26-1.678-.317-3.871-1.714-5.005m36.016.672c-2.34.268-.898 3.47.719 1.417.806-.54.081-1.544-.72-1.417M80.85 91.66c.063 2.878-.593 6.066 1.305 8.547.575 1.098 1.8 2.196.794.375-1.161-2.828-1.538-6.015-2.028-8.916zm1.636.466c-.432 2.309.243 4.685.868 6.891.502 2.353 5.588 2.79 3.1-.123-1.526-2.141-2.057-4.924-3.968-6.768m35.121 1.58c-2.816.046-1.358 3.986.966 2.32 1.061-.635.147-2.472-.966-2.32" style="display:inline;fill:#f7ccc4;fill-opacity:.82745099;fill-rule:evenodd;stroke-width:0;stroke-linecap:round;stroke-linejoin:round;stroke:none"/></svg>