<?xml version="1.0" encoding="UTF-8" standalone="no"?>
<!-- Created with Inkscape (http://www.inkscape.org/) -->

<svg
   version="1.1"
   id="svg1"
   width="609"
   height="873"
   viewBox="0 0 609 873"
   xmlns="http://www.w3.org/2000/svg"
   xmlns:svg="http://www.w3.org/2000/svg">
  <defs
     id="defs1" />
  <g
     id="layer2"
     style="display:inline">
    <path
       id="path75"
       style="display:inline;fill:#000000;stroke-width:1.07435"
       d="m 535.11328,216.49609 c -0.88866,-0.0239 -1.73819,0.30783 -3.05859,0.98047 -1.65037,0.84075 -3.46152,0.57739 -3.97461,0.9375 -7.18158,5.04039 -8.99413,8.30003 -30.5957,21.2461 -9.14552,5.48099 -13.98302,8.16528 -15.1211,8.38476 -0.72588,0.13998 -15.51758,6.89258 -15.51758,6.89258 l -7.60351,1.95703 c -4.83521,2.34663 -12.48242,4.68359 -12.48242,4.68359 -0.59267,-0.58089 -28.53116,0.2406 -26.36915,14.39649 0.44739,2.92957 0.58058,4.07429 -0.0176,4.45117 -0.0821,0.75346 -0.17359,1.50557 -0.25,2.25977 -0.14119,1.34461 -0.16567,2.69861 -0.2793,4.04492 -0.0364,0.41106 -0.0953,0.81839 -0.16406,1.22461 1.53101,0.73118 1.9681,1.26509 1.00586,1.28711 -0.35248,0.32428 -0.68722,0.64431 -1.00586,0.96093 0.189,0.55282 0.22453,1.27614 -0.004,2.14258 -0.12781,0.49611 -0.0516,0.21489 -0.23047,0.83985 -0.33377,1.16637 -0.93372,1.85966 -1.5664,2.14648 l 0.86718,27.64063 v 0.002 c 0.31763,1.50352 0.63174,3.00739 0.89844,4.52148 0.7127,3.56797 1.36382,7.14589 2.14063,10.70118 0.62389,3.07228 1.17198,6.18068 2.28711,9.12304 1.19233,3.14609 1.00363,5.61229 0.0645,7.21875 0.24053,0.97057 0.36464,2.08681 0.33789,3.34961 -0.0824,3.88858 0.0785,7.76784 0.44531,11.63867 0.36223,5.3317 1.25375,10.5791 2.30078,15.81055 0.92684,4.82193 1.93766,9.62688 2.90235,14.44141 0.95605,4.74158 2.04109,9.45755 2.99609,14.19922 1.09648,6.19232 1.98157,12.41811 2.91211,18.63671 0.95522,6.94397 2.15203,13.85036 3.40234,20.7461 0.57437,3.35089 1.1255,6.70336 1.69141,10.05469 1.5737,3.79097 3.06143,7.61563 4.60352,11.41992 1.38613,3.39687 3.15649,6.62061 5.13476,9.70508 l 0.2168,0.0937 0.3164,0.80273 c 0.002,0.004 0.004,0.008 0.006,0.0117 0.54112,0.98981 0.90591,1.93523 1.11524,2.82031 v 0.004 l 1.50781,3.8125 c 8.75765,22.15085 21.44703,47.59501 31.32422,62.81054 l 2.18945,3.375 c 0.004,0.005 0.006,0.0107 0.01,0.0156 0.53466,0.73717 1.05927,1.48151 1.55859,2.24219 0.12322,0.14357 0.27908,0.34301 0.4668,0.59375 -0.0842,-0.0861 -0.17126,-0.17695 -0.25977,-0.27344 0.28832,0.4479 0.5691,0.9006 0.83789,1.36133 l 0.12305,-0.12305 c 1.58026,2.21777 4.36124,6.30438 8.16406,11.43945 4.11921,5.56243 9.99887,13.22734 13.0625,17.03321 3.06374,3.80588 5.56641,7.63933 5.56641,8.51757 1.50593,9.03391 1.02197,1.06756 1.90039,0.20508 0.31431,-0.30869 0.57227,0.26496 0.57227,1.27539 0,1.01041 0.48278,1.54522 1.07226,1.1875 0.63664,-0.38635 0.78145,0.0906 0.35742,1.17579 -0.43487,1.11292 -0.28495,1.56579 0.38672,1.1582 0.60639,-0.36799 2.48801,0.7506 4.18164,2.48633 4.39525,4.50471 7.05623,4.10017 10.74805,-1.63477 1.69613,-2.63483 3.28437,-4.7909 3.53125,-4.79102 0.24687,0 0.16921,0.44712 -0.17383,0.99219 -0.34304,0.54505 -0.056,1.33563 0.63672,1.75586 0.87593,0.53158 1.09356,-0.0808 0.71875,-2.00586 -0.32807,-1.6851 -0.0712,-2.6828 0.65625,-2.55273 0.65702,0.11747 1.1258,-0.64035 1.03906,-1.68555 -0.0719,-0.87076 4e-5,-1.28369 0.30469,-1.28515 h 0.002 c 0.20873,5.7e-4 0.5252,0.195 0.97461,0.56054 0.22786,-0.7128 31.84708,-48.40136 38.76563,-69.77148 1.51647,-4.68414 3.5533,-10.91225 4.52539,-13.83985 10.30786,-31.0435 16.76188,-67.89839 18.45508,-105.39257 0.37015,-8.19726 1.37344,-20.14336 2.23046,-26.54688 1.155,-8.62975 1.5586,-23.96839 1.5586,-59.26953 v -47.625 l -2.66016,-3.10352 c -1.46258,-1.70666 -7.92668,-6.52506 -14.36523,-10.70703 -14.77367,-9.59574 -34.00005,-24.53272 -45.31641,-35.20703 -2.98156,-2.8124 -6.92703,-5.87708 -8.76758,-6.81055 -1.47261,-0.74685 -2.4004,-1.12646 -3.28906,-1.15039 z m 8.86328,379.42383 v 0.002 0.002 0.002 h 0.002 0.002 v -0.002 -0.002 l -0.002,-0.002 z M 532.5918,219.02148 c 0.45277,0 0.7081,1.79649 0.5664,3.99219 -0.14171,2.1957 -0.33515,5.26494 -0.43164,6.82031 -0.14138,2.27015 -0.60697,2.71846 -2.34765,2.27149 -1.48308,-0.3808 -2.16797,-0.0325 -2.16797,1.10156 0,4.20772 4.8641,2.72649 5.75195,-1.75195 0.27127,-1.36872 0.52068,-0.70885 0.60742,1.61133 0.0812,2.16114 -0.417,4.26972 -1.10547,4.6875 -0.77553,0.47063 -0.95589,0.29272 -0.47656,-0.46875 0.42544,-0.67599 0.2886,-1.22852 -0.30273,-1.22852 -0.59132,0 -1.38116,0.83668 -1.75391,1.86133 -1.00679,2.76685 -10.06595,8.96465 -10.98047,7.51172 -0.4532,-0.71989 -0.25558,-0.88863 0.50391,-0.42774 0.68847,0.41778 1.25,0.21377 1.25,-0.45507 0,-0.66885 -0.60813,-1.00789 -1.35352,-0.75196 -0.74539,0.25591 -1.22002,1.21393 -1.05664,2.12696 0.18757,1.04848 -2.16126,3.12445 -6.37304,5.63671 -5.88626,3.51101 -6.78705,3.77217 -7.66797,2.22657 -0.79981,-1.40341 -1.28391,-1.48783 -2.4375,-0.42969 -0.79168,0.72613 -1.2155,1.88478 -0.94532,2.57617 0.75634,1.93518 -4.83445,5.1351 -9.77343,5.59375 -0.48247,0.0448 -0.57718,0.554 -0.21289,1.13281 0.3798,0.60347 -0.0565,0.78153 -1.02149,0.41797 -0.92775,-0.34959 -1.68359,-0.077 -1.68359,0.60742 0,0.6827 -0.48768,0.94586 -1.08399,0.58399 -0.59632,-0.36188 -1.08398,-0.12339 -1.08398,0.53125 0,0.65463 -0.48768,0.89507 -1.08399,0.5332 -0.59631,-0.36188 -1.08398,-0.12339 -1.08398,0.53125 0,0.65457 -0.44184,0.92297 -0.98437,0.59375 -1.57003,-0.95276 -4.49949,0.57067 -3.67969,1.91406 0.40916,0.67055 -0.0809,0.56141 -1.08985,-0.24218 -1.00885,-0.80359 -1.83593,-2.30243 -1.83593,-3.33008 0,-1.02765 -0.68503,-2.42577 -1.52149,-3.10742 -1.95526,-1.59333 -2.72459,0.22546 -2.01953,4.76953 l 0.50586,3.25781 -10.94922,3.61328 c -6.02274,1.98826 -10.95312,4.02873 -10.95312,4.5332 0,0.50448 -0.97535,0.61386 -2.16797,0.24219 -1.24391,-0.38767 -2.16797,-0.19287 -2.16797,0.45899 h 0.002 c 0,0.62497 -0.36527,1.08159 -0.8125,1.01367 -2.78597,-0.4231 -5.29031,-1.27757 -6.18164,-2.10938 -1.52666,-1.42475 -3.01262,-1.16532 -2.11328,0.36914 0.23666,0.40385 0.32187,0.6554 0.27148,0.72266 l -0.002,0.002 -0.004,0.002 h -0.002 c -0.0602,0.0334 -0.21788,-0.0577 -0.46875,-0.28321 -0.54286,-0.48793 -1.00152,-1.44579 -1.01562,-2.1289 -0.0144,-0.6831 -0.86204,-1.17598 -1.88477,-1.09571 -1.02272,0.0803 -1.59262,-0.27941 -1.26562,-0.79882 0.55045,-0.87459 -1.03521,-1.40144 -3.13672,-1.04297 -0.49157,0.0839 -0.62147,-0.27863 -0.28907,-0.80664 0.55739,-0.88567 8.89757,-3.35352 11.33594,-3.35352 0.58298,0 1.37813,1.4318 1.76953,3.18164 1.0572,4.72636 2.59411,4.90276 1.95508,0.22461 -0.53158,-3.89138 -0.40026,-4.09039 3.42188,-5.24219 3.25055,-0.9796 4.0795,-0.92253 4.56445,0.31836 0.79581,2.03623 2.32722,1.93756 2.13867,-0.13867 -0.10484,-1.15362 2.81663,-2.77002 9.60742,-5.31641 5.36681,-2.01244 10.5937,-4.13639 11.61524,-4.71679 1.50422,-0.85471 1.74222,-0.70336 1.2539,0.79297 -0.4674,1.43221 -0.15262,1.33846 1.39649,-0.42188 1.09905,-1.24889 3.1084,-2.83024 4.4668,-3.51367 1.35839,-0.68342 2.21578,-1.64779 1.90429,-2.14258 -0.74246,-1.17974 2.53548,-2.3971 4.02344,-1.49414 0.68001,0.41265 0.83482,0.19498 0.37891,-0.5293 -0.67979,-1.08002 -0.0714,-1.4055 2.16406,-1.1582 0.35237,0.039 1.28904,-0.79723 2.08008,-1.85937 1.29898,-1.74439 1.40426,-1.62261 1.08789,1.25976 -0.19255,1.75506 -0.69902,4.26853 -1.12305,5.58594 -0.44604,1.38549 -0.31486,2.39648 0.30859,2.39648 1.75955,0 3.80038,-3.04507 3.15235,-4.70312 -0.41015,-1.04951 0.0154,-1.42391 1.33789,-1.17383 1.52732,0.28884 1.82988,-0.17617 1.43555,-2.20117 -0.28211,-1.44918 -1.27034,-2.58037 -2.26954,-2.5957 -0.97404,-0.015 0.88422,-1.68779 4.13086,-3.71876 3.63089,-2.27126 6.17223,-3.26796 6.60157,-2.58593 0.98381,1.56299 3.01955,-1.15994 2.63086,-3.51953 -0.16913,-1.02745 0.14553,-1.59383 0.69921,-1.25782 0.55372,0.33601 0.72586,1.05651 0.38282,1.60157 -0.34337,0.54506 -0.30138,0.99023 0.0859,0.99023 2.0152,0 19.40055,-13.73676 18.50196,-14.61914 -0.29599,-0.29058 -4.20378,2.38838 -8.68164,5.95312 -4.47787,3.56479 -8.4153,6.04744 -8.75,5.51563 -0.3348,-0.53182 1.23118,-2.30639 3.47851,-3.94141 2.24734,-1.63501 6.22931,-4.77926 8.84766,-6.98828 2.61824,-2.20903 5.12732,-4.01758 5.58008,-4.01758 z m 4.83593,5.86719 8.44336,7.88672 c 5.83149,5.44651 8.0952,8.22746 7.31836,8.99023 -0.61864,0.60741 -1.125,1.92367 -1.125,2.92579 0,2.1546 2.98867,2.0255 4.38282,-0.18946 0.75732,-1.20322 1.94573,-0.56307 5.73437,3.08789 4.11639,3.96679 4.76334,5.18366 4.66797,8.77735 -0.0615,2.29504 -0.12002,4.15701 -0.13086,4.13476 -0.01,-0.0222 -0.64721,-0.74164 -1.41602,-1.59765 -1.65244,-1.83961 -3.95515,-2.10618 -2.83593,-0.32813 0.49429,0.78536 0.29707,0.93915 -0.54883,0.42578 -0.72793,-0.44186 -1.04813,-1.07716 -0.70899,-1.41015 0.74387,-0.73038 -2.56957,-4.50196 -3.95507,-4.50196 -0.53906,0 -0.62335,0.59818 -0.1875,1.33008 0.43585,0.7319 -0.26938,0.41815 -1.56446,-0.69726 -2.43815,-2.09983 -3.16765,-3.38234 -1.26953,-2.23047 2.36226,1.43357 0.90401,-0.89449 -1.89844,-3.03125 -1.63985,-1.25034 -5.02315,-4.10668 -7.51953,-6.34766 -2.49648,-2.24098 -4.93485,-4.16155 -5.41992,-4.26758 -0.48518,-0.10603 -0.81221,-1.15122 -0.72656,-2.32226 0.0855,-1.17104 -0.31752,-2.41928 -0.89453,-2.77344 -0.57702,-0.35416 -0.89058,-2.26714 -0.69727,-4.25195 z m -4.05664,25.60547 c 3.08711,-0.0558 4.02124,3.58241 0.0723,5.59766 -0.55368,0.28251 -1.1362,0.51374 -1.63867,0.88672 -1.29175,0.95809 -2.61501,1.88901 -4.08594,2.55664 -1.53621,0.73387 -3.08509,1.44093 -4.64063,2.13281 -1.53976,0.64394 -3.08114,1.29905 -4.69921,1.72461 -1.15825,0.3378 -2.34126,0.60151 -3.54688,0.65625 -0.20603,0.12686 -0.56465,0.21407 -0.99414,0.22265 -2.75041,0.0548 -10.63287,4.88058 -9.89258,6.05664 0.43151,0.68568 0.26162,0.8904 -0.40429,0.48633 -1.57361,-0.95497 -4.746,0.34704 -3.94532,1.61914 0.35454,0.56333 -0.0132,0.90005 -0.81836,0.7461 -2.1477,-0.41062 -6.3457,1.17673 -6.3457,2.40039 0,0.58062 -0.44183,0.78624 -0.98437,0.45703 -0.30037,-0.18229 -0.68225,-0.26316 -1.08985,-0.26563 -0.27625,0.89516 -1.11045,1.81283 -2.64258,2.47071 -1.11458,0.47859 -2.18236,1.05083 -3.25976,1.60547 -0.88614,0.45281 -1.79641,0.86525 -2.66797,1.3457 -1.74764,0.9634 -3.21137,0.91468 -4.12891,0.33984 -1.11913,0.25784 -2.3377,0.97684 -2.77734,1.65625 -0.46393,0.71711 -0.85243,0.88584 -0.86328,0.375 -0.009,-0.51083 -0.74812,-0.33242 -1.64258,0.39649 -0.89447,0.72891 -1.62695,0.96935 -1.62695,0.5332 0,-0.43615 -0.70186,-0.22121 -1.56055,0.47852 -0.41201,0.33574 -0.83449,0.88145 -1.19141,1.5 3.31431,2.74885 0.36268,6.49401 -3.99218,3.9414 -1.09001,-0.63891 -2.11143,-1.37589 -3.1211,-2.13281 -3.27487,-2.45509 -2.23355,-5.55205 0.33399,-5.56445 0.38774,-0.002 0.81006,0.0669 1.25781,0.21875 0.32486,-0.84217 1.09719,-1.70522 2.41992,-2.38867 0.8246,-0.42611 0.42401,-0.22578 1.20508,-0.59961 1.22289,-0.5886 2.46198,-1.15354 3.71484,-1.67383 0.7875,-0.32703 1.51042,-0.4856 2.15235,-0.50977 1.17967,-0.0444 2.0828,0.36113 2.59375,0.98633 1.05142,-0.50745 2.17878,-1.0314 3.35351,-1.55469 0.34506,-0.30433 0.76423,-0.59318 1.26367,-0.85742 0.9087,-0.48077 1.83585,-0.93216 2.75586,-1.39062 1.09629,-0.5642 2.18239,-1.15017 3.31641,-1.63672 0.78362,-0.33621 1.50425,-0.49929 2.14453,-0.52735 0.17035,-0.007 0.33562,-0.005 0.49414,0.006 5.67365,-2.65228 11.89393,-5.79966 16.0293,-8.15234 2.41732,-1.37528 4.43812,-2.5035 6.10742,-3.39844 -0.0382,-1.40004 1.32481,-2.77839 4.08984,-2.69336 0.91145,0.028 1.81097,-0.1563 2.67579,-0.43164 1.43485,-0.37091 2.79697,-0.95862 4.16015,-1.5293 1.47156,-0.6573 2.9364,-1.32855 4.39063,-2.02343 1.15221,-0.51303 2.1721,-1.26237 3.17968,-2.00977 0.73188,-0.57304 1.58462,-0.93863 2.40235,-1.36328 0.90809,-0.47158 1.73485,-0.68049 2.44726,-0.69336 z m 37.35938,4.96875 7.74414,5.71484 c 4.25886,3.1423 11.03545,7.42379 15.06055,9.51563 3.99365,2.0755 7.26746,4.00372 7.31836,4.30859 10e-5,10e-4 0,0.005 0,0.006 0,0.28143 -0.79016,1.69541 -1.75586,3.14258 -1.25604,1.88229 -2.60837,2.56844 -4.75,2.4082 -2.63103,-0.19684 -2.93565,-0.5849 -2.51563,-3.20117 0.26996,-1.68241 -0.0223,-2.97656 -0.67187,-2.97656 -0.63209,0 -1.14844,0.47893 -1.14844,1.06445 0,1.76321 -1.51205,1.2304 -6.2832,-2.21484 -3.85011,-2.78016 -4.37176,-3.59012 -3.42774,-5.32227 1.29866,-2.38258 0.2053,-2.74672 -1.55273,-0.51758 -1.00463,1.27434 -1.97708,0.86524 -5.875,-2.47656 -4.31437,-3.69882 -4.57361,-4.21082 -3.40625,-6.72656 z m -58.83203,18.52344 0.002,0.002 c 0.64856,5.3e-4 0.93027,0.24762 0.83399,0.74219 -0.13379,0.68671 0.36593,1.12685 1.11132,0.98047 0.74539,-0.14638 1.35547,0.24126 1.35547,0.86133 0,0.62008 0.48768,0.83257 1.08399,0.4707 0.59631,-0.36187 1.08398,0.26844 1.08398,1.40234 0,1.13391 0.82709,2.7179 1.83594,3.52149 0.84225,0.67077 1.27226,0.97622 1.36523,0.91797 10e-4,-9.1e-4 0.005,-0.005 0.006,-0.006 0.0536,-0.0717 -0.11007,-0.38702 -0.45312,-0.94532 -0.62765,-1.02256 -0.51851,-1.25144 0.34961,-0.72461 0.69757,0.42368 0.97637,1.23789 0.61718,1.8086 -0.3592,0.57071 -0.0193,1.78801 0.75586,2.70508 1.20314,1.42352 0.78027,2.23255 -2.88867,5.53515 -2.36367,2.12759 -4.17642,4.23101 -4.02734,4.67383 0.14907,0.44285 -0.30764,0.68544 -1.01758,0.53906 -2.59716,-0.53548 -1.96336,3.02577 1.36719,8.08985 0.96958,0.20387 2.00475,1.03208 2.76367,2.65234 0.37039,0.79078 0.73735,1.57923 1.07031,2.38672 0.91041,2.20792 0.43755,3.85307 -0.55273,4.58008 0.17493,0.5005 0.37705,0.99068 0.63086,1.46484 0.4893,1.04313 0.99062,2.0783 1.60742,3.05469 0.0273,0.0525 0.0547,0.10506 0.084,0.15625 -0.007,-0.45027 -0.1067,-0.96279 -0.32226,-1.51953 -1.73396,-4.47817 -1.12883,-6.56981 0.87695,-3.03321 0.89023,1.56957 1.40611,3.69711 1.6582,7.15235 1.50953,1.95939 1.30545,3.82131 0.17969,4.57422 0.007,0.47803 0.0115,0.97405 0.0137,1.48828 v 0.002 c 0.0139,3.26804 -0.048,5.62366 -0.21289,7.26758 2.207,2.03323 0.77997,5.16796 -3.41992,4.15625 -1.49127,-0.35923 -2.9904,-0.69206 -4.47656,-1.07227 -1.60724,-0.42827 -3.21424,-0.87278 -4.79883,-1.38086 -1.12198,-0.41242 -2.25774,-0.78032 -3.38281,-1.18359 -0.23291,-0.0835 -0.4518,-0.17322 -0.65625,-0.26953 -0.892,-0.0507 -1.9277,-0.28318 -3.07227,-0.67578 0.0434,0.0642 0.0858,0.12888 0.12891,0.19336 0.55314,0.20599 0.72907,0.62475 0.58984,0.94922 0.77308,1.39983 1.20656,2.93821 1.5918,4.48828 0.2942,1.33424 0.68021,2.6485 1.17578,3.92187 0.60722,1.1153 1.16932,2.25281 1.74414,3.38477 0.37436,0.70961 0.66407,1.45554 0.94531,2.20508 0.88648,2.36257 0.24459,4.04553 -0.88476,4.66601 0.21845,0.17572 0.45629,0.34664 0.71289,0.51172 1.72722,1.11124 2.38186,2.00153 2.01172,2.62695 1.76637,1.7529 0.30467,4.6652 -3.74219,4.2461 -1.76981,-0.18329 -3.53801,-0.39371 -5.29688,-0.66407 -1.79376,-0.30587 -3.59566,-0.55861 -5.39648,-0.81835 -1.83122,-0.2882 -3.63581,-0.68516 -5.4375,-1.11524 -1.48486,-0.38889 -2.89164,-1.01032 -4.28906,-1.63476 -0.94794,-0.49782 -0.50685,-0.26259 -1.32422,-0.70313 -0.84069,-0.4531 -1.45472,-0.97586 -1.86914,-1.51562 -1.00915,-0.69729 -1.96459,-1.47637 -2.9336,-2.22461 -0.79522,-0.66743 -1.57621,-1.35159 -2.34375,-2.05079 -0.002,0.70025 -0.17938,1.50954 -0.58789,2.39844 -0.49584,1.07896 -1.09071,2.10949 -1.625,3.16992 -1.04476,2.07362 -2.53678,2.81498 -3.71679,2.60743 -0.63393,0.98621 -0.92234,1.47944 -0.84961,1.57812 l 0.002,0.002 0.002,0.002 c 0.10702,0.0746 0.63556,-0.2974 1.60157,-0.99414 0.30424,-0.21945 0.4835,-0.30625 0.54296,-0.2793 l 0.002,0.002 0.002,0.002 0.002,0.002 0.002,0.002 0.002,0.002 0.002,0.002 v 0.002 h 0.002 v 0.002 0.002 c 0.0614,0.17268 -0.7382,1.1907 -2.20313,2.75 -2.08709,2.22151 -5.74757,5.05519 -8.13281,6.29492 -2.38525,1.23975 -5.92137,2.42649 -7.85938,2.63867 l -3.52343,0.38672 v -10.52148 c 0,-5.78709 -0.44771,-13.1271 -0.9961,-16.3086 -0.54828,-3.18152 -1.29803,-12.13054 -1.66601,-19.88867 -0.0451,-0.94998 -0.0846,-1.83595 -0.1211,-2.66406 -0.1481,-0.52441 -0.22735,-1.13829 -0.21289,-1.83985 0.0145,-0.7054 0.0293,-1.41041 0.0586,-2.11523 -0.0469,-1.52092 -0.0647,-2.74007 -0.0488,-3.71484 -0.36786,-0.65988 -0.59961,-1.54826 -0.59961,-2.66602 v -3.7832 -0.63867 c 0,-1.98158 0.72804,-3.24436 1.6543,-3.78711 -1.5e-4,-0.0197 0,-0.0388 0,-0.0586 v -1.79492 c 0,-2.72863 1.3777,-4.09375 2.75585,-4.09375 1.37818,0 2.75782,1.36512 2.75782,4.09375 v 1.79492 c 0,1.98222 -0.72788,3.24488 -1.6543,3.78711 1.5e-4,0.0197 0,0.0387 0,0.0586 v 0.1289 c 0.63086,0.67123 1.07875,1.77397 1.10156,3.3086 0.0198,1.33296 0.0161,2.65869 -0.13281,3.98437 -0.1559,1.08296 -0.24989,2.17165 -0.30859,3.26367 -0.0385,0.78154 -0.0563,1.56347 -0.0723,2.34571 -0.0552,2.69616 -1.42863,4.03162 -2.79101,4.03515 0.0804,2.4876 0.4495,3.28656 1.22851,3.28516 1.21052,-0.002 1.37001,1.87057 0.83594,9.84375 -0.41981,6.267 -0.29973,9.07378 0.33008,7.71875 0.73097,-1.57275 1.03308,-0.32045 1.15625,4.79101 0.46577,19.33623 0.22884,18.07353 3.22851,17.37305 1.49077,-0.34813 3.1986,-0.92031 3.79492,-1.26953 1.18535,-0.69417 1.88536,-0.86573 4.33789,-1.06641 0.89446,-0.0732 1.50455,-0.7292 1.35547,-1.45898 -0.35247,-1.72549 -3.26254,-3.95094 -4.32421,-3.30664 -0.45374,0.27539 -0.82618,-0.0348 -0.82618,-0.68945 0,-0.65463 -0.53839,-0.86467 -1.19726,-0.46485 -0.83159,0.50451 -1.07953,-0.9108 -0.8125,-4.62695 0.21164,-2.94503 0.0215,-5.13591 -0.41992,-4.86719 -0.44138,0.26871 -0.53575,-2.28975 -0.2129,-5.6875 0.323,-3.39774 0.19179,-11.74934 -0.29101,-18.55664 -0.37304,-5.26027 -0.54028,-8.32685 -0.44727,-10.0625 -0.9028,-1.62021 0.36858,-3.81641 3.8125,-3.81641 H 466.5 c -0.0776,-3.19577 3.4127,-2.29864 8.32617,0.73828 0.0919,-0.0708 0.18351,-0.14649 0.27149,-0.22265 -0.0189,-0.0561 -0.0407,-0.11533 -0.0625,-0.18164 -0.0707,-0.10635 -0.13737,-0.21622 -0.20118,-0.32617 -0.0773,0.003 -0.15741,-0.0417 -0.25781,-0.15821 -0.12672,0.0441 -0.25294,0.0866 -0.375,0.13867 -0.21968,-0.31346 -0.54524,-0.57546 -0.6582,-0.93945 -0.0679,-0.21876 0.54051,-1.34159 0.56641,-1.39258 0.35111,-0.69901 0.70358,-1.39764 1.08007,-2.08398 -2.45836,-6.16773 -2.5872,-12.48065 1.48633,-17.93164 1.47214,-0.65858 2.42565,-1.60056 2.11524,-2.09375 -0.31039,-0.49319 0.0693,-0.66336 0.8457,-0.37695 1.59334,0.5878 9.91862,-2.65167 20.38476,-7.9336 6.16876,-3.11278 10.21496,-4.71198 11.87696,-4.71484 z m 45.40234,0.0918 c 0.89554,-0.0359 1.85244,0.72422 3.25195,2.47852 1.3894,1.74163 2.86318,2.96377 3.27344,2.71484 1.14514,-0.69497 8.90684,5.33407 8.00586,6.21875 -0.43563,0.42777 -0.30726,0.66129 0.28906,0.51954 1.90765,-0.45346 4.89266,1.32888 4.16407,2.48632 -0.41113,0.65321 -0.18214,0.8002 0.55078,0.35547 0.76534,-0.46447 1.67517,0.32702 2.33594,2.03321 1.65449,4.27301 1.3006,6.61225 -1.0918,7.22656 -2.44802,0.62859 -1.89141,3.94922 0.66211,3.94922 1.80248,0 1.96062,2.51007 0.34375,5.47656 -0.64228,1.1783 -0.88145,2.87362 -0.53125,3.76953 0.56715,1.45121 0.928,1.44211 3.29883,-0.084 3.47161,-2.23354 3.49337,-2.22636 5.38281,1.36132 1.30202,2.47196 1.5671,7.13814 1.35742,23.88868 -0.14333,11.44966 -0.64197,21.19335 -1.10742,21.65039 -1.00311,0.98493 -3.00034,-1.80656 -2.20117,-3.07617 0.95041,-1.50996 -0.79122,-7.16963 -2.12891,-6.91797 -0.74235,0.13965 -1.19304,-0.87245 -1.07617,-2.42188 0.0678,-0.89872 0.0627,-1.39465 -0.0117,-1.47656 l -0.002,-0.002 -0.002,-0.002 h -0.002 l -0.002,-0.002 -0.002,-0.002 h -0.002 c -0.003,-0.001 -0.009,-0.003 -0.0117,-0.004 h -0.002 -0.002 -0.004 l -0.002,0.002 c -0.0696,0.0263 -0.17857,0.28198 -0.32032,0.76758 -0.32223,1.10386 -1.21044,1.6985 -2.05859,1.37891 -1.03621,-0.39041 -1.71144,0.6414 -2.21484,3.38086 -1.01969,5.54963 -2.35277,7.66992 -4.81641,7.66992 -1.17159,0 -2.12891,0.48512 -2.12891,1.07617 0,0.6047 -2.13261,0.9523 -4.875,0.79688 -2.82955,-0.16036 -4.8789,-0.79747 -4.8789,-1.51954 -0.0124,-2.8848 1.28949,-4.27626 3.59375,-3.84375 0.67763,0.12718 1.16286,0.19875 1.51172,-0.002 -0.71696,-0.40537 -1.17554,-1.22164 -1.13672,-2.2832 -0.77132,-0.93185 -0.84768,-2.61444 0.49414,-4.54492 0.43368,-0.62393 0.85173,-1.26625 1.35937,-1.83399 0.0516,-0.0577 0.10435,-0.11326 0.15625,-0.16797 -3.9e-4,-0.27544 -1.5e-4,-0.55951 -0.002,-0.85156 -0.0175,-8.74727 -0.27855,-10.20406 -1.91602,-10.625 -1.04354,-0.26825 -1.89648,-0.0522 -1.89648,0.47852 0,0.53071 -0.73248,0.96484 -1.62695,0.96484 -0.89446,0 -1.62696,0.50688 -1.62696,1.12695 0,0.62009 -0.44683,0.85636 -0.99218,0.52539 -0.54536,-0.33095 -1.21105,7.8e-4 -1.47852,0.73633 -1.5026,4.13243 -4.04562,-6.21463 -2.87695,-11.70508 0.40505,-1.90294 0.32012,-3.45898 -0.18946,-3.45898 -1.75381,0 0.36731,-10.1188 2.95118,-14.08203 3.27353,-5.01837 3.24988,-8.37528 0.01,-12.18555 -1.41835,-1.6551 -2.67859,-3.48674 -2.80078,-4.07226 -0.12208,-0.58552 -0.50353,-1.3049 -0.84766,-1.59766 -0.0808,-0.0687 -0.14058,-0.0968 -0.17187,-0.0898 h -0.002 l -0.002,0.002 h -0.002 l -0.002,0.002 h -0.002 l -0.002,0.002 c -0.0608,0.0703 0.096,0.46217 0.44141,1.04688 0.55045,0.9316 0.46668,1.24057 -0.22266,0.82227 -1.77636,-1.07795 -0.22069,-6.39668 2.51563,-8.60547 2.44162,-1.97089 2.45982,-2.11983 0.66601,-5.10157 -1.62023,-2.69323 -1.64947,-3.19345 -0.23242,-4.05468 0.29843,-0.18139 0.59016,-0.28103 0.88867,-0.29297 z m -125.92773,1.36719 h 0.002 0.002 0.002 0.002 0.002 0.002 0.002 0.002 0.002 0.002 c 0.002,-2.6e-4 0.008,0 0.01,0 0.3013,0 2.44554,1.47745 4.76758,3.28321 3.2306,2.51236 4.24963,4.07516 4.33203,6.65429 0.0519,1.62132 0.0953,2.42543 0.21875,2.48828 h 0.002 l 0.002,0.002 h 0.002 0.002 c 0.11944,-0.005 0.31532,-0.61764 0.65429,-1.78125 1.10687,-3.79925 2.31675,20.16675 1.50977,29.90625 -0.4069,4.91118 -1.20592,8.206 -2.11914,8.73633 -1.98919,1.15494 -1.85032,3.56604 0.25,4.35742 2.36985,0.89293 2.40266,0.87829 2.92383,-1.2168 0.0298,-0.12008 0.0594,-0.18731 0.082,-0.20703 l 0.002,-0.002 0.002,-0.002 h 0.0117 l 0.0117,-0.002 h 0.0117 0.0117 0.004 0.0117 l 0.0117,0.002 h 0.0117 l 0.0117,0.002 c 0.14069,0.13187 0.0989,2.65914 -0.12305,6.33007 -0.2654,4.3914 10e-4,14.18913 0.5918,21.77149 1.10404,14.17777 0.50837,18.68359 -2.47461,18.68359 -1.05244,0 -1.6543,0.99477 -1.6543,2.73633 0,2.2282 0.45233,2.67057 2.43946,2.39258 1.91643,-0.2681 2.39668,-0.96846 2.23632,-3.26758 -0.11221,-1.60957 0.25307,-2.92578 0.8125,-2.92578 0.55956,0 1.01563,2.23551 1.01563,4.96875 0,2.73326 0.46922,7.88424 1.03906,11.44531 0.56986,3.56108 1.36251,9.34822 1.76172,12.86133 0.53832,4.73669 0.95061,5.83671 1.59766,4.25781 1.12563,-2.74611 1.15006,-0.42869 0.0566,6.07617 -0.46232,2.75604 -0.52583,4.82089 -0.13867,4.58594 0.38719,-0.23497 1.32787,3.21357 2.08984,7.66602 0.95713,5.59326 1.6862,7.6328 2.36523,6.5957 0.64607,-0.9868 0.76486,-0.37669 0.34375,1.7832 -0.35235,1.80702 -0.11601,5.1459 0.52344,7.41993 0.75905,2.7004 0.78995,4.49624 0.0977,5.17773 -1.69297,1.66235 -1.23163,3.80518 0.83594,3.88672 1.62238,0.064 1.58272,0.20786 -0.27149,0.99023 -2.13511,0.90076 -2.12946,0.91461 0.0859,0.98828 1.8054,0.0599 2.51277,1.17229 3.55078,5.58789 0.81361,3.46048 0.91291,5.88389 0.26953,6.51563 -1.38052,1.35553 -0.20587,4.12013 1.35938,3.19922 0.68284,-0.40178 0.50969,0.16922 -0.38477,1.26953 -1.47537,1.81483 -1.44985,1.93612 0.27148,1.30273 1.04354,-0.38401 1.89648,-0.48562 1.89649,-0.22461 0,0.26102 1.17595,3.54621 2.61523,7.30079 2.30869,6.02252 2.44721,7.1521 1.16016,9.58789 -1.10512,2.09164 -1.14858,2.93414 -0.17773,3.48047 0.70472,0.39654 0.92052,0.3307 0.47851,-0.14844 -0.44216,-0.47914 -0.245,-1.53235 0.4375,-2.33985 0.9837,-1.16381 2.33503,1.02387 6.51367,10.54883 8.06268,18.37842 13.82754,29.08719 25.45508,47.27149 3.78755,5.92338 6.88671,11.29634 6.88672,11.93945 0,0.64311 0.93299,1.6591 2.07226,2.25781 1.13941,0.59872 3.19944,2.89065 4.57813,5.09375 1.37868,2.2031 3.2908,4.72328 4.25195,5.60156 0.96105,0.87828 4.27474,4.54293 7.36133,8.14258 l 5.61133,6.54297 -1.0293,7.14258 c -0.56661,3.92795 -1.23567,7.34574 -1.48828,7.59375 -0.43188,0.42404 -11.30049,-12.22647 -14.84961,-17.2832 -0.89446,-1.27442 -3.8217,-5.3641 -6.50195,-9.08985 -12.75003,-17.72373 -27.61404,-42.90569 -26.4336,-44.78125 0.40837,-0.64876 0.27061,-0.8925 -0.30859,-0.54101 -1.451,0.87974 -10.03725,-17.59971 -18.90234,-40.6836 l -4.2793,-11.09375 2.44922,-2.64843 c 1.34875,-1.45691 1.84499,-2.30454 1.09961,-1.88282 -0.83865,0.47447 -1.35548,0.13246 -1.35547,-0.89453 0,-0.91283 -0.51896,-1.6582 -1.15039,-1.6582 -0.63156,0 -0.84867,0.47197 -0.48438,1.05078 0.37048,0.58861 -0.0349,0.79172 -0.91796,0.45898 -1.79435,-0.6761 -4.84673,-10.92668 -8.9668,-30.11718 -2.34351,-10.91607 -2.57217,-13.32499 -1.3457,-14.08789 1.17821,-0.73296 1.11563,-0.92257 -0.31055,-0.93555 -1.38387,-0.0126 -1.9772,-1.53049 -2.60938,-6.67188 -1.16542,-9.47714 -1.1991,-9.6771 -1.86523,-11.44336 -0.69811,-1.85102 -1.65828,-8.23423 -2.4375,-16.2246 -0.30044,-3.08003 -1.02489,-10.39091 -1.61328,-16.2461 -2.6718,-26.58816 -4.3802,-50.68153 -3.68164,-51.89648 0.23611,-0.41076 0.33761,-0.6567 0.30859,-0.73047 l -0.0117,-0.002 v -0.002 h -0.002 v -0.002 -0.002 -0.002 h -0.0156 l -0.002,-0.002 -0.002,-0.002 -0.006,-0.002 h -0.0117 c -0.002,-9.7e-4 -0.009,-0.003 -0.0117,-0.004 -0.0801,-0.011 -0.30139,0.15056 -0.6582,0.48437 -0.62591,0.58552 -1.37144,2.02232 -1.65821,3.19336 -0.29468,1.20256 -0.57798,0.39154 -0.64843,-1.86328 -0.1416,-4.49304 0.80384,-4.97289 3.66992,-1.86328 2.48618,2.69746 3.79493,2.71139 3.79492,0.0312 0,-1.1535 -1.46498,-3.15838 -3.25391,-4.45703 -2.62767,-1.90756 -3.27677,-3.19218 -3.38085,-6.68555 -0.0634,-2.13805 -0.10612,-3.18749 -0.24024,-3.28125 l -0.006,-0.002 h -0.002 -0.0117 v -0.002 h -0.002 l -0.004,-0.002 h -0.01 -0.002 c -10e-4,3e-5 -0.0107,3e-5 -0.0117,0 -0.001,5e-5 -0.01,-1.6e-4 -0.0117,0 -0.12836,0.0311 -0.33587,0.78053 -0.69336,2.15625 -0.45643,1.75655 -0.56419,-3.47093 -0.23828,-11.61523 0.35269,-8.816 0.19261,-14.56457 -0.39648,-14.20703 -0.55945,0.33957 -0.82437,-1.43653 -0.60938,-4.08789 0.20588,-2.53883 0.61386,-4.62521 0.91407,-4.68946 z m 97.2207,24.5918 h 0.002 c 0.59949,0.004 1.44031,0.17161 2.54883,0.47851 1.66761,0.46173 3.27411,0.88467 3.57227,0.94141 3.10819,0.59113 4.80636,8.43287 2.02343,9.34375 -0.79147,0.25903 -0.55935,1.0602 0.65039,2.24805 1.45435,1.428 1.59591,2.1798 0.62696,3.32617 -0.97383,1.1522 -0.84076,1.70834 0.60351,2.50195 1.62468,0.89277 1.75473,2.06699 1.02539,9.40039 -0.45851,4.60941 -0.8846,9.18513 -0.94531,10.16797 -0.0611,0.98283 -0.61681,1.70025 -1.23437,1.59571 -0.61756,-0.10454 -1.13065,0.52993 -1.14258,1.4082 -0.0114,0.87828 -0.49906,1.83615 -1.08399,2.1289 -0.58796,0.29434 -1.28211,-1.60882 -1.55078,-4.25781 l -0.48633,-4.79101 -0.77929,5.85547 c -0.13718,1.02991 -0.25124,1.55157 -0.33789,1.57617 h -0.002 -0.002 -0.002 -0.002 v -0.002 h -0.002 -0.002 -0.002 c -0.21458,-0.11965 -0.26172,-3.5552 -0.1211,-10.09179 0.16999,-7.90451 -0.054,-12.9343 -0.49805,-11.17774 -0.70289,2.78101 -0.7509,-2.7303 -0.10742,-12.4375 0.0653,-0.9852 1.09449,-2.09512 2.28711,-2.46679 3.64975,-1.13745 2.46811,-2.81379 -1.47265,-2.08789 -2.85958,0.52677 -3.79898,0.27613 -4.36328,-1.16797 -0.67855,-1.7363 -0.52036,-2.50171 0.79687,-2.49219 z m -16.66016,5.2168 c -0.12765,0.0133 -0.16117,0.23134 -0.11718,0.60547 0.15033,-0.15734 0.3182,-0.28766 0.5,-0.39063 -0.14157,-0.13919 -0.26732,-0.21484 -0.3711,-0.21484 -0.003,0 -0.009,-6e-5 -0.0117,0 z m -47.125,11.72461 c 0.93705,0.70705 1.71546,0.62075 2.13868,0 z m 72.53516,33.48632 c 0.93967,0.0344 2.04775,0.62502 3.07227,1.98828 1.41186,1.87883 2.76351,3.8025 4.06445,5.75977 1.2297,1.82064 2.15989,3.81211 3.16211,5.75977 0.75452,1.42238 1.66463,2.75387 2.5957,4.06445 1.07618,1.56045 2.25177,3.04613 3.33984,4.59766 1.52292,2.48669 1.21207,4.30836 -0.12695,6.73242 -1.13172,1.61409 -2.35033,3.17078 -3.58203,4.71093 -1.02491,1.35319 -1.97019,2.76196 -2.94531,4.1504 -1.02408,1.57136 -2.08401,3.11994 -3.13672,4.67187 -0.83776,1.29137 -1.75886,2.51934 -2.69727,3.73828 -0.56322,0.90514 -1.34559,1.65793 -1.9082,2.56055 -1.88496,3.0241 -4.57443,2.72948 -5.36133,0.90234 -0.61183,-0.35622 -1.22845,-0.93645 -1.79297,-1.77734 -0.41781,-0.62238 -0.86136,-1.2299 -1.21875,-1.89063 -0.87439,-1.67088 -1.67002,-3.38051 -2.58007,-5.0332 -1.41556,-2.83106 -2.92657,-5.611 -4.5,-8.35742 -1.34673,-2.44173 -2.59222,-4.95181 -3.5254,-7.58399 -0.59244,-2.36737 -1.02351,-4.97089 0.8379,-6.91796 0.79032,-0.8126 1.50087,-1.68442 2.25195,-2.53516 1.06895,-1.1289 2.02737,-2.35251 2.97461,-3.58398 1.23016,-1.49427 2.44369,-3.00086 3.70508,-4.46876 1.40065,-1.60158 2.70014,-3.28854 4.03125,-4.94726 0.42554,-0.53028 0.86249,-0.93895 1.29492,-1.24024 0.36447,-0.83379 1.12433,-1.33445 2.04492,-1.30078 z m 0.0293,7.15821 c -1.059,1.33516 -2.12623,2.66493 -3.24414,3.95117 -1.22707,1.42902 -2.40846,2.89713 -3.60547,4.35156 -1.00796,1.33507 -2.06904,2.62543 -3.20899,3.84961 -0.75876,0.88568 -1.50628,1.7676 -2.31836,2.60547 -0.0437,0.0564 -0.16413,0.12009 -0.17382,0.17383 v 0.002 l -0.002,0.002 v 0.002 0.002 l 0.002,0.002 v 0.002 0.002 0.002 0.002 l 0.002,0.002 v 0.002 0.002 l 0.002,0.002 c 0.003,0.004 0.007,0.007 0.01,0.01 0.0869,0.0819 0.22143,-0.28826 0.29883,-0.19726 0.10443,0.1227 0.32773,1.41596 0.39843,1.66211 0.85916,2.17419 1.8857,4.2777 3.01953,6.32031 1.61215,2.81179 3.15425,5.66051 4.60547,8.55859 0.89571,1.62244 1.67625,3.30224 2.53516,4.94336 0.0865,0.1466 0.17813,0.29133 0.27148,0.4336 0.26016,-0.33921 0.51578,-0.6818 0.75782,-1.03516 0.87184,-1.13182 1.72963,-2.27044 2.5039,-3.47266 1.07153,-1.5773 2.14427,-3.15278 3.18946,-4.74804 1.04425,-1.47789 2.04671,-2.98634 3.15039,-4.42188 1.06036,-1.32259 2.08437,-2.67413 3.10937,-4.02343 0.12256,-0.18985 0.17126,-0.44812 0.35742,-0.57618 h 0.002 0.002 0.002 v -0.002 h 0.002 0.002 0.002 v -0.002 -0.002 l 0.002,-0.002 h 0.002 0.002 c 5.3e-4,2e-5 0.003,3e-5 0.004,0 h 0.002 c 10e-6,1e-5 0.005,0.002 0.006,0.002 h 0.002 0.002 0.002 0.002 0.002 0.002 0.002 0.002 0.002 0.002 0.002 0.002 0.002 0.002 0.002 0.002 0.002 0.002 0.002 0.002 0.002 0.002 0.002 0.002 0.002 0.002 0.002 0.002 0.002 l 0.002,0.002 0.002,0.002 h 0.002 c 0.0444,0.0411 0.0523,0.23595 0.13281,0.25586 h 0.002 v 0.002 h 0.002 0.008 0.002 0.002 l 0.002,-0.002 h 0.004 0.004 l 0.004,-0.002 0.004,-0.002 0.004,-0.002 v -0.002 h 0.004 v -0.002 c 0.0138,-0.0269 0.0113,-0.0887 0.004,-0.11914 -0.0366,-0.12862 -0.11041,-0.2436 -0.16601,-0.36523 -1.07426,-1.54373 -2.2542,-3.01152 -3.31641,-4.56445 -1.08277,-1.52438 -2.13208,-3.07916 -3.0039,-4.73633 -0.90725,-1.76586 -1.74373,-3.57226 -2.85157,-5.22657 -0.81691,-1.22944 -1.65814,-2.44152 -2.51562,-3.64257 z m -79.00196,21.39648 h 0.002 0.002 0.002 0.002 0.002 0.002 0.002 0.002 0.002 0.002 0.002 0.002 0.002 0.004 c 0.51963,-0.03 2.65027,1.03231 6.07617,3.26367 0.28864,-0.87921 1.01614,-1.45245 1.95313,-1.49218 0.94203,-0.04 2.09679,0.46012 3.23242,1.73242 0.98967,1.10878 1.95333,2.23892 2.89258,3.39062 0.99316,1.23582 1.80384,2.60055 2.7539,3.86719 1.1127,1.53145 2.2042,3.07765 3.3086,4.61523 0.0182,0.0271 0.0366,0.0549 0.0547,0.082 0.14553,-0.60389 0.56378,-1.16387 1.24023,-1.55469 0.0211,-0.22363 0.0643,-0.45744 0.13086,-0.69922 0.0254,-0.51381 0.23306,-0.99427 0.60351,-1.37891 0.096,-0.16125 0.20181,-0.32515 0.31836,-0.49023 0.45251,-0.64091 0.21793,-0.31043 0.70313,-0.99024 1.0898,-1.52691 2.30079,-2.13313 3.29492,-2.08593 0.57863,0.0275 1.08458,0.27691 1.45117,0.69336 0.15782,0.008 0.31916,0.0213 0.48633,0.041 0.18943,0.0222 0.37893,0.0441 0.56836,0.0664 1.18893,0.12662 2.39473,0.0455 3.58594,0.16211 1.4404,0.10449 2.88266,0.24308 4.28515,0.60547 1.29707,0.3319 2.58977,0.68104 3.88282,1.02734 1.56836,0.38849 3.10545,0.88442 4.65625,1.33594 1.46441,0.47837 2.93054,0.94661 4.42187,1.33594 2.52793,0.65991 3.44818,2.19394 3.14063,3.46679 0.13954,0.61628 0.16937,1.34834 0.0488,2.18945 -0.18982,1.32541 -0.57647,2.60914 -0.90429,3.9043 -0.27609,1.08683 -0.41542,2.19951 -0.51172,3.31446 -0.0291,1.19396 -0.24155,2.36881 -0.4043,3.54882 -0.0944,1.19153 -0.25253,2.36936 -0.45703,3.54688 -0.0907,0.73998 -0.31408,1.45438 -0.5,2.17383 -0.25261,0.9775 -0.64044,1.72702 -1.09766,2.26562 1.12549,1.90529 1.89554,2.19867 3.83399,1.75586 0.28149,-0.67502 0.80467,-1.38473 1.62109,-2.06641 0.60643,-0.50634 1.21281,-1.0119 1.84766,-1.48242 -0.66062,0.24269 -1.34573,0.63244 -1.82617,1.07032 -0.62131,0.56621 -0.95178,0.83113 -1.03125,0.79296 -5.3e-4,-3.5e-4 -0.003,-0.003 -0.004,-0.004 h -0.002 c -4.3e-4,-4.7e-4 -0.003,-0.003 -0.004,-0.004 v -0.002 l -0.002,-0.002 v -0.002 -0.002 c -0.0241,-0.077 0.099,-0.3439 0.35742,-0.79297 0.42642,-0.74077 2.33757,-1.98539 4.24414,-2.76758 0.42505,-0.17438 0.91282,-0.43207 1.43555,-0.75 0.25186,-0.21036 0.50249,-0.42167 0.75195,-0.63476 1.08025,-1.02518 2.23975,-1.96404 3.22852,-3.08203 0.73346,-0.82935 1.47826,-1.32942 2.16992,-1.56641 l 3.01953,-3.375 -0.15625,4.32422 c 0.41046,0.75284 0.44344,1.81974 -0.10938,2.99219 l -0.23046,6.36523 c -0.273,7.52484 -0.79094,17.51303 -1.15039,22.19727 -0.35943,4.68414 -0.63236,11.41167 -0.60743,14.94921 0.14323,20.24865 -3.32702,35.75359 -8.74218,39.07422 -2.6074,1.59891 -2.72576,3.26121 -0.36915,5.18164 3.24438,2.64385 6.87555,9.3325 11.92774,21.97071 6.10122,15.26239 6.99902,18.1749 5.82617,18.88672 -0.50147,0.3043 -1.19165,-0.0476 -1.53515,-0.78321 -0.10204,-0.21837 -0.17466,-0.3314 -0.21876,-0.34961 l -0.002,-0.002 h -0.004 -0.002 -0.002 l -0.002,-0.002 h -0.002 l -0.006,0.002 h -0.0137 l -0.002,0.002 h -0.002 -0.002 l -0.002,0.002 -0.002,0.002 -0.0117,0.002 v 0.002 c -0.0525,0.0845 0.0159,0.56073 0.21289,1.3457 0.65226,2.59794 -0.99291,6.13516 -7.45313,16.02344 h -0.0117 c -2.39087,3.65949 -4.72249,6.65234 -5.18164,6.65234 -2.37516,0 -28.44921,-39.67327 -28.44922,-43.28711 0,-0.78353 -0.48767,-1.42383 -1.08398,-1.42383 -0.59632,0 -0.78325,-0.2977 -0.41406,-0.66015 0.36916,-0.36247 -0.0427,-1.35907 -0.91406,-2.21485 -0.87105,-0.85578 -1.30561,-1.99489 -0.9668,-2.5332 0.33882,-0.53832 0.13886,-0.98047 -0.44336,-0.98047 -1.12053,0 -5.21305,-9.50325 -4.72852,-10.98047 0.15655,-0.47727 -0.61513,-2.1545 -1.71484,-3.72656 -1.83989,-2.6301 -6.65226,-13.01627 -7.22656,-15.5957 -0.13499,-0.60653 -0.84185,-2.53837 -1.57227,-4.29493 -3.09345,-7.43867 -8.66228,-27.2331 -8.08008,-28.72265 0.34783,-0.89003 0.10614,-1.61914 -0.53515,-1.61914 -0.64098,0 -0.88125,-0.72559 -0.53516,-1.61133 0.34618,-0.88573 0.0776,-2.26244 -0.5957,-3.05859 -0.67329,-0.79661 -0.91908,-2.22719 -0.54688,-3.17969 0.37231,-0.95249 0.2209,-1.73047 -0.33593,-1.73047 -0.55641,0 -0.81915,-1.558 -0.58204,-3.46094 0.33318,-2.67306 0.1674,-3.097 -0.72851,-1.86328 -0.87776,1.20893 -0.99427,0.75609 -0.48242,-1.86328 0.46035,-2.35587 0.26035,-3.45899 -0.62891,-3.45899 -0.87983,0 -1.07936,-1.01828 -0.60937,-3.11914 0.38361,-1.71492 0.17332,-5.89925 -0.4668,-9.29882 -0.63999,-3.39958 -1.43309,-10.02008 -1.76367,-14.71289 -0.33068,-4.69298 -1.06811,-10.87944 -1.63867,-13.7461 -0.57421,-2.86666 -0.82523,-5.41981 -0.56446,-5.67578 1.05959,-1.0404 5.15276,10.18879 5.52149,15.14844 0.91594,12.3209 10.20352,59.16118 12.60351,63.56445 0.8408,1.54249 0.61685,1.90625 -1.16797,1.90625 -1.44762,0 -2.20704,0.69783 -2.20703,2.0293 0,1.5015 0.56294,1.88619 2.1582,1.47656 1.18602,-0.30452 1.90589,-0.95008 1.60157,-1.43359 -0.30435,-0.48352 0.43307,-0.8059 1.63867,-0.7168 2.50917,0.18559 2.54416,0.26856 1.18945,2.75391 -0.78106,1.43311 -0.54254,1.87202 1.08203,1.99218 1.14643,0.0849 2.5973,-0.78848 3.22461,-1.93945 0.62732,-1.15097 1.51622,-1.8641 1.97461,-1.58594 1.37651,0.83527 1.44647,11.32623 0.082,12.9375 -1.85149,2.19047 -0.48052,7.85255 5.01563,20.69336 7.43319,17.36641 24.34818,46.19972 32.31055,55.08008 2.2443,2.50304 5.0254,3.20599 5.02539,1.26953 0,-0.62008 -0.54143,-0.80229 -1.19727,-0.4043 -0.84981,0.51576 -0.87814,0.14055 -0.0859,-1.30664 1.66078,-3.04694 1.98426,-27.2728 0.3711,-27.80078 -1.66794,-0.54593 -4.72807,6.40123 -5.52149,12.53711 l -0.61718,4.78711 -5.51563,-8.51367 c -13.81643,-21.33851 -25.33278,-46.29461 -24.51953,-53.13477 0.39392,-3.31264 0.65707,-3.63564 1.7539,-2.16211 1.15207,1.54699 1.43468,1.55959 2.66211,0.10743 1.65179,-1.95427 -0.17248,-6.24002 -2.3164,-5.44141 -1.00515,0.37446 -1.36704,-2.27804 -1.44727,-10.64844 -0.0688,-7.20565 0.2777,-10.91475 0.98047,-10.48828 0.60781,0.36886 0.75303,0.12813 0.32813,-0.54687 -0.69669,-1.10688 -4.07093,-0.0276 -6.07813,1.94336 -0.29815,0.29276 -2.10113,0.53391 -4.00195,0.5371 l -3.45508,0.006 -2.71094,-10.65039 c -3.54426,-13.92258 -6.32797,-31.15 -5.46484,-33.82031 0.45851,-1.41863 0.28375,-1.87492 -0.5332,-1.3789 -0.87234,0.52942 -1.05501,-1.01806 -0.64063,-5.45313 0.40409,-4.32483 0.26733,-5.55275 -0.44922,-4.06641 -0.92234,1.91316 -1.0313,1.82573 -1.09961,-0.86132 -0.0419,-1.64474 0.37631,-2.71668 0.92969,-2.38086 0.55339,0.33583 1.32714,-0.38967 1.72266,-1.61328 0.39574,-1.22369 0.55311,-2.32375 0.34961,-2.44336 -0.20352,-0.11962 -2.19743,-1.03343 -4.4336,-2.03125 -2.23618,-0.99782 -4.0664,-2.55845 -4.0664,-3.4668 0,-1.27126 0.45726,-1.41097 1.98632,-0.60742 1.09265,0.57415 2.61542,1.78897 3.38477,2.69922 1.19333,1.41187 2.45107,1.93228 3.00781,1.42773 -0.46528,-0.55006 -0.93554,-1.0968 -1.40625,-1.64258 -0.68156,-0.79026 -1.09316,-1.56992 -1.28711,-2.28515 -0.57805,-0.45442 -1.21103,-0.92328 -1.875,-1.38282 -3.50335,-2.42472 -4.78486,-3.70036 -4.23047,-3.73242 z m 127.91797,9.53906 c 0.001,0 0.004,3e-5 0.006,0 h 0.002 l 0.002,0.002 h 0.002 0.002 0.002 c 10e-4,5.4e-4 0.009,0.003 0.0117,0.004 l 0.004,0.004 c 1.24011,1.21766 -5.03574,55.77593 -6.72461,58.45898 -0.30477,0.4842 -1.24622,0.87891 -2.09179,0.87891 -3.65127,0 -4.94353,4.67481 -4.74805,17.18555 0.16599,10.61902 -0.63902,16.66306 -3.10352,23.26953 -0.79473,2.13053 -1.02801,2.97732 -1.18945,4.32031 -0.0746,0.62008 -0.59985,0.8475 -1.16601,0.50391 -0.5662,-0.34358 -1.30116,1.18451 -1.63282,3.39648 -1.28641,8.57743 -10.53164,31.76134 -16.03711,40.21094 l -2.08593,3.19922 0.65625,-3.84375 c 0.46404,-2.71707 0.18724,-4.22716 -0.94336,-5.14844 -2.89244,-2.35712 -3.86329,-0.11429 -3.86329,8.92578 0,6.26865 -0.43932,9.21517 -1.50781,10.08594 -1.23707,1.00805 -1.74695,0.26059 -2.82031,-4.13281 -0.72046,-2.94879 -1.77954,-5.64502 -2.35156,-5.99219 -0.60174,-0.36511 -0.39154,-1.14883 0.49804,-1.85938 0.84579,-0.67572 3.85589,-7.45661 6.6875,-15.06836 2.83162,-7.61175 6.84106,-16.60474 8.91016,-19.98632 l 3.76172,-6.14844 -2.52344,-5.03125 c -2.34209,-4.66945 -2.51666,-6.28649 -2.45703,-22.59375 0.11883,-32.57096 0.54432,-53.745 1.14063,-56.68945 0.77065,-3.80513 2.47027,-3.72873 3.97265,0.17968 1.22319,3.18191 5.62345,5.06656 6.94141,2.97266 0.41276,-0.65579 0.0815,-0.77886 -0.83789,-0.31055 -0.46222,0.23556 -0.73038,0.34524 -0.79883,0.31836 h -0.002 l -0.002,-0.002 -0.002,-0.002 -0.002,-0.002 -0.002,-0.002 -0.002,-0.002 v -0.002 c -0.0309,-0.0752 0.27111,-0.38453 0.91406,-0.94336 2.78337,-2.41919 2.92627,-4.19594 0.95313,-11.77343 -1.14297,-4.38905 -1.07731,-5.29887 0.49414,-7.00391 2.44325,-2.65085 2.27349,-3.38867 -0.77344,-3.38867 -1.41771,0 -3.18342,-0.71735 -3.92578,-1.59571 -1.15077,-1.36146 -0.8511,-1.59765 2.03516,-1.59765 1.86201,0 3.38476,0.48926 3.38476,1.08594 0,0.62535 1.14774,0.80076 2.70899,0.41601 2.13772,-0.52682 3.39387,0.0535 5.96289,2.75391 2.86756,3.01423 4.24643,6.46139 2.82812,6.0625 0.34818,0.59362 0.67862,1.1988 0.99805,1.80859 0.19569,-0.0225 0.46427,0.0399 0.81445,0.17188 1.0378,0.39113 1.42017,1.45513 1.05664,2.93945 -0.0338,0.13815 -0.0638,0.26663 -0.0898,0.38672 0.36218,0.71315 0.35339,0.68926 0.51172,1.02344 0.0807,-0.0629 0.16877,-0.13853 0.26562,-0.22657 0.69139,-0.62851 1.48257,-2.30575 1.75977,-3.72656 0.72515,-3.71782 3.87145,-13.31991 4.39648,-13.49219 z m -86.81836,14.16407 c -0.0221,0.0168 -0.0455,0.0324 -0.0684,0.0488 0.0295,0.0472 0.0596,0.0942 0.0899,0.14063 -0.007,-0.0637 -0.0138,-0.12659 -0.0215,-0.18945 z m 33.40039,3.375 h 0.002 0.002 0.002 c 8.8e-4,6e-5 0.004,-3e-5 0.006,0 0.44479,-0.0311 1.98382,1.49909 3.49219,3.48437 2.62648,3.46371 2.81712,4.43829 2.62695,13.83985 -0.24676,12.20296 -0.19685,12.67266 1.13672,10.64648 0.85641,-1.30121 1.05427,-1.17053 1.06836,0.70898 0.009,1.26863 -0.59033,2.50529 -1.33203,2.74805 -0.93144,0.30477 -1.24645,2.47559 -1.01758,7.00977 0.24568,4.86856 -0.0373,6.57 -1.0918,6.58203 -0.9927,0.0114 -1.05378,0.25295 -0.20117,0.79883 1.72096,1.1018 1.33813,7.8653 -0.4082,7.21093 -1.60819,-0.6026 -1.83468,1.13925 -0.27148,2.08789 0.62418,0.37881 1.08398,6.01515 1.08398,13.28711 0,12.09102 -0.11937,12.77235 -2.85352,15.96289 -1.83555,2.14187 -3.67631,3.22982 -5.15039,3.04297 -1.26158,-0.15992 -2.94553,0.10628 -3.74023,0.5918 -1.13804,0.69535 -1.11263,0.23629 0.11914,-2.16211 3.1701,-6.17284 3.41415,-8.27179 4.0625,-35.24023 0.11601,-4.82591 0.64408,-8.51019 1.17578,-8.1875 0.5318,0.32269 0.9668,0.1201 0.9668,-0.45118 0,-0.57128 -0.45791,-1.1974 -1.01758,-1.39257 -1.51658,-0.52889 -2.11246,-6.53132 -0.80859,-8.14844 0.62331,-0.77307 1.22187,-4.12756 1.32812,-7.45313 0.28905,-9.01146 0.26046,-8.94043 2.75781,-6.48828 3.38531,3.324 3.64167,1.76575 0.4668,-2.82812 -1.54065,-2.22913 -2.54608,-4.70638 -2.23437,-5.50391 0.32949,-0.84315 0.0859,-1.15655 -0.58399,-0.75 -0.7713,0.4678 -1.01334,-0.92774 -0.73242,-4.21875 0.23093,-2.70539 0.73599,-5.03271 1.12109,-5.16992 0.008,-0.003 0.0163,-0.005 0.0254,-0.008 z m 51.15235,50.77539 c 0.46285,-0.0124 0.5664,0.75344 0.5664,2.61328 0,1.82826 -0.53913,3.32422 -1.19922,3.32422 -0.65971,0 -0.93387,0.68231 -0.60742,1.51757 0.32646,0.83534 -0.89555,6.94419 -2.71484,13.57422 -1.81929,6.63005 -3.93258,14.45131 -4.69727,17.37891 -1.66024,6.3566 -8.86826,24.92495 -10.36132,26.69141 -0.57994,0.68613 -2.28985,4.72053 -3.80079,8.96679 -3.01246,8.46626 -9.90116,22.51413 -11.54492,23.54493 -0.57127,0.3582 -0.98758,0.96048 -0.92578,1.33984 0.23571,1.43775 -3.9616,8.39788 -4.51367,7.48437 -1.23448,-2.04252 -2.0451,-7.8789 -1.09375,-7.8789 0.54892,0 2.32639,-2.39467 3.94922,-5.32227 1.62273,-2.92759 3.63446,-5.32422 4.46875,-5.32422 0.84253,0 2.01579,-1.82324 2.64062,-4.10156 0.61854,-2.25589 2.34646,-5.39446 3.83789,-6.97461 1.49143,-1.58016 2.71094,-3.81685 2.71094,-4.9707 0,-1.15384 2.13175,-7.47472 4.73828,-14.04883 2.60654,-6.57411 5.10528,-13.15143 5.55078,-14.61523 0.4455,-1.4638 1.41998,-3.3815 2.16602,-4.25977 1.55746,-1.83339 2.89648,-6.76358 2.89648,-10.64453 -10e-4,-1.46379 1.17694,-7.0466 2.6211,-12.4043 1.44416,-5.3577 2.62695,-10.68606 2.62695,-11.84375 0,-1.15769 0.73054,-2.70274 1.625,-3.43164 0.47664,-0.38842 0.8181,-0.60877 1.06055,-0.61523 z m -12.54688,66.61914 c 0.007,-5.6e-4 0.0117,0 0.0176,0 1.27263,0 -0.0909,7.90369 -1.66797,9.66797 -0.82844,0.92682 -2.31318,4.04085 -3.29883,6.91992 -0.98565,2.87906 -2.69185,6.379 -3.79101,7.77539 -1.09917,1.39638 -1.99805,3.61755 -1.99805,4.9375 0,2.90687 -8.77323,19.60041 -17.75195,33.77539 -3.61603,5.70881 -6.99359,10.38086 -7.50195,10.38086 -0.50861,0 -0.55663,-2.75632 -0.10743,-6.12305 0.44875,-3.36674 0.83292,-6.92296 0.85352,-7.90429 0.0201,-0.98168 0.39282,-1.57002 0.83008,-1.30469 1.21387,0.73664 8.55245,-9.4347 16.20312,-22.46094 3.7829,-6.44071 7.26068,-11.87198 7.72656,-12.06836 0.46599,-0.1964 0.56951,-0.79458 0.23243,-1.33008 -0.33708,-0.53552 -0.0964,-0.97461 0.53515,-0.97461 0.63144,0 1.05167,-0.35773 0.9336,-0.79687 -0.34466,-1.28096 1.37182,-5.58985 2.22656,-5.58985 0.42925,0 0.86054,-1.03407 0.95703,-2.29882 0.097,-1.26473 0.56582,-2.5823 1.04297,-2.92774 0.47705,-0.34544 1.00632,-1.34634 1.17578,-2.22461 0.54723,-2.83677 2.61496,-7.3823 3.38281,-7.45312 z m -79.79101,37.51172 c 0.9876,-0.0528 0.87437,2.46021 -1.23047,0.90429 l 0.48047,-0.48047 c 0.29174,-0.2912 0.54502,-0.41286 0.75,-0.42382 z m -28.23633,1.86328 c 0.36944,0.56196 0.74879,1.13837 1.11719,1.69531 -0.0145,-0.0289 -0.0285,-0.0571 -0.043,-0.0859 -0.25714,-0.41592 -0.51478,-0.83092 -0.77344,-1.24609 -0.0957,-0.11547 -0.20425,-0.24705 -0.30078,-0.36328 z" />
  </g>
  <path
     d="m 136.60019,432.40412 c -2.98988,0.0758 -6.55953,1.08382 -10.40039,2.99804 -3.75981,1.87383 -8.0572,4.60373 -9.54883,6.06836 -2.55122,2.50538 -2.7036,3.28361 -2.5625,13.15821 0.17584,12.3069 0.71283,12.94345 10.33789,12.25 4.44778,-0.32044 6.17587,-0.0462 6.60156,1.04297 0.45938,1.17547 0.89001,1.0893 2.11524,-0.41993 1.36901,-1.68641 1.48753,-1.31093 1.09375,3.42774 -0.2433,2.92759 -0.79017,6.52057 -1.2168,7.98437 -0.5974,2.04998 -0.50999,2.29445 0.38477,1.06446 0.96088,-1.3209 1.16591,-1.17197 1.17968,0.86132 0.0108,1.57878 -0.42862,2.18928 -1.22656,1.70508 -0.86835,-0.52697 -1.03435,0.0594 -0.55078,1.95118 0.65031,2.54419 -3.73276,14.64453 -5.30469,14.64453 -0.34089,0 -0.29608,-0.51382 0.0996,-1.14258 0.39576,-0.62874 -0.2883,-0.52454 -1.51953,0.23047 -2.37973,1.45927 -1.05391,3.31289 1.64258,2.29687 0.79947,-0.30123 1.45312,-0.0594 1.45312,0.53711 0,1.80146 -5.40536,0.63484 -7.0039,-1.51172 -0.82029,-1.10151 -1.84547,-1.65649 -2.27735,-1.23242 -0.4319,0.42407 -0.13482,1.54187 0.66016,2.48242 2.98214,3.52823 -0.21304,22.71141 -6.65234,39.92774 -4.58694,12.26379 -8.85882,22.78687 -20.660157,50.90429 -3.53423,8.42051 -6.24394,15.48857 -6.02344,15.70508 0.68977,0.67729 20.096087,-43.01656 28.197267,-63.48437 6.06687,-15.32813 6.91946,-18.06308 8.27148,-26.53125 1.24747,-7.81334 2.56188,-9.85345 4.29492,-6.67383 1.7719,3.25091 -0.63603,18.40435 -4.41211,27.77539 -1.74598,4.33298 -2.91253,8.54841 -2.59179,9.36914 0.32075,0.82073 0.13639,1.2223 -0.41016,0.89063 -1.28873,-0.78207 -2.61322,3.2877 -1.5957,4.90429 0.46665,0.74139 0.30995,0.95564 -0.39258,0.5293 -1.42087,-0.86224 -2.8712,3.05394 -1.77539,4.79492 0.45738,0.72667 0.3103,0.95403 -0.35742,0.54883 -1.28838,-0.78185 -2.78126,2.16713 -1.84766,3.65039 0.33528,0.53268 0.10889,0.96875 -0.5039,0.96875 -0.61279,0 -0.80265,0.79715 -0.42188,1.77148 0.50269,1.28628 0.29851,1.53312 -0.74414,0.90039 -0.89881,-0.54544 -1.17433,-0.45644 -0.73828,0.23633 0.88897,1.41234 -1.31945,7.73828 -2.70117,7.73828 -0.57317,0 -0.74159,0.47894 -0.37305,1.06446 0.36854,0.58552 0.10348,1.06445 -0.5918,1.06445 -0.69712,0 -0.97517,0.74133 -0.61914,1.65234 0.39254,1.00449 0.19568,1.3792 -0.5,0.95703 -0.62935,-0.38193 -1.02959,-0.0465 -0.89258,0.74415 0.38918,2.24567 -1.31023,7.29296 -2.45507,7.29296 -0.56686,0 -0.72987,0.47894 -0.36133,1.06446 0.36855,0.58552 0.12373,1.06445 -0.54297,1.06445 -0.66671,0 -0.95697,0.4024 -0.64844,0.89258 0.67739,1.0762 -11.108707,29.16188 -12.642577,30.12695 -0.5939,0.37367 -0.69715,1.2859 -0.23047,2.02735 0.52185,0.82908 0.41007,1.08248 -0.28906,0.6582 -1.49704,-0.90847 -4.78678,7.20968 -3.87109,9.55273 0.47309,1.21055 0.29051,1.55275 -0.55274,1.04102 -0.82062,-0.49799 -1.03122,-0.19077 -0.60937,0.88867 0.35513,0.90868 0.11991,1.6543 -0.52149,1.6543 -0.64224,0 -0.85589,0.79585 -0.4746,1.77148 0.46235,1.18308 0.27632,1.51685 -0.5625,1.00781 -0.79615,-0.48313 -1.03738,-0.20827 -0.66211,0.75196 0.32561,0.8332 -0.0865,2.18151 -0.91407,2.99414 -0.8276,0.81261 -1.28021,2.13908 -1.00586,2.94726 0.29951,0.88226 0.015,1.17615 -0.71289,0.73438 -0.77187,-0.4684 -0.97747,-0.13777 -0.5664,0.91406 0.35604,0.91103 0.0779,1.6543 -0.61914,1.6543 -0.69527,0 -0.96425,0.47893 -0.59571,1.06445 0.36855,0.58552 0.10348,1.06445 -0.59179,1.06445 -0.69712,0 -0.97517,0.74134 -0.61914,1.65235 0.35513,0.9087 0.21449,1.39011 -0.3125,1.07031 -1.15599,-0.7015 -2.52873,2.39224 -1.66797,3.75977 0.33528,0.53269 0.0632,0.96875 -0.60352,0.96875 -0.66666,0 -0.94885,0.41551 -0.6289,0.92382 0.74448,1.18282 -7.99139,22.49805 -9.22071,22.49805 -0.50728,0 -0.61319,0.79717 -0.23242,1.77149 0.49732,1.27255 0.29738,1.53027 -0.71484,0.91601 -0.94723,-0.57481 -1.24307,-0.37107 -0.90235,0.62305 0.27877,0.8134 -0.19135,1.98379 -1.04492,2.60156 -0.85357,0.61775 -1.62941,2.41467 -1.72266,3.99219 -0.0932,1.57752 -0.4818,2.86872 -0.86523,2.86914 -0.38344,4.2e-4 -0.98862,0.74561 -1.34375,1.6543 -0.35512,0.90869 -0.19869,1.37918 0.3457,1.04882 0.54439,-0.33036 0.21912,1.32261 -0.7207,3.67188 -0.93983,2.34927 -2.15036,4.27148 -2.69141,4.27148 -0.54105,0 -0.68299,0.47894 -0.31445,1.06446 0.36854,0.58552 0.16943,1.06445 -0.44336,1.06445 -0.61279,0 -0.8046,0.79715 -0.42383,1.77148 0.41999,1.07465 0.2573,1.50625 -0.41601,1.09766 -1.48523,-0.90132 -3.72006,4.08951 -2.83985,6.3418 0.43825,1.12142 0.26881,1.52446 -0.45703,1.08398 -1.47625,-0.89586 -2.61284,1.93417 -1.70703,4.25195 0.41327,1.05748 0.25403,1.50415 -0.39648,1.10938 -1.48812,-0.90306 -4.81741,6.22661 -3.94727,8.45312 0.46875,1.19942 0.28483,1.538 -0.55664,1.02735 -0.82062,-0.49799 -1.03123,-0.19077 -0.60937,0.88867 0.37526,0.96022 0.0662,1.6543 -0.73633,1.6543 -0.75953,0 -1.09495,0.27856 -0.7461,0.62109 0.98361,0.96581 -1.44052,6.90459 -2.54492,6.23438 -0.53823,-0.32661 -1.05237,0.0344 -1.14062,0.80078 -0.0883,0.76646 -0.26124,2.11001 -0.38282,2.98828 -0.12158,0.87828 -0.2926,2.22378 -0.38085,2.99023 -0.0883,0.76647 -0.64302,1.10186 -1.23243,0.74414 -0.6146,-0.37297 -0.79603,0.0526 -0.42578,1 0.36503,0.93402 0.0723,1.6543 -0.67187,1.6543 -0.7992,0 -1.034,0.71855 -0.59961,1.83008 0.39346,1.00686 0.38105,1.50225 -0.0273,1.10156 -1.07524,-1.05577 -4.97664,1.23868 -4.20117,2.4707 0.35918,0.57065 0.25131,0.96866 -0.24024,0.88477 -2.1087,-0.35968 -3.68786,0.1709 -3.13281,1.05273 0.82535,1.31128 -2.22002,2.32224 -4.53711,1.50586 -1.0436,-0.36768 -1.53953,-0.27921 -1.10156,0.19532 0.43797,0.47454 0.0874,1.38783 -0.7793,2.03125 -2.04402,1.51752 -8.18726,37.64091 -8.96094,52.68945 -0.4636703,9.0186 -0.3039603,10.90407 0.86719,10.19336 0.79031,-0.47961 -0.15984,1.08195 -2.1132803,3.46875 -3.0140301,3.68269 -3.3693701,4.67622 -2.3359401,6.57226 1.2502801,2.29388 3.3105501,3.04255 3.3105501,1.20313 0,-0.56709 4.8032503,-4.63958 5.6208303,-4.33153 1.81027,0.6821 -1.68342,3.92297 8.16823,-8.0298 29.49761,-35.78876 31.31832,-38.21007 33.32227,-44.30859 1.55484,-4.73178 6.07813,-15.43382 18.12695,-42.90235 3.85249,-8.78279 8.11643,-18.60191 9.47656,-21.82226 1.36013,-3.22036 4.67136,-10.88526 7.35938,-17.03321 2.68802,-6.14795 6.248401,-14.53222 7.910151,-18.63086 6.225986,-15.35621 11.132806,-26.70751 13.679686,-31.64257 1.44547,-2.80088 4.76959,-10.47888 7.38672,-17.06446 2.61711,-6.5855 7.04869,-16.74318 9.84961,-22.57226 2.80057,-5.82907 6.55497,-14.21334 8.34179,-18.63086 1.78683,-4.41751 4.19041,-10.3551 5.34375,-13.19531 4.07029,-10.02342 7.46734,-15.50452 14.4668,-23.35352 5.79573,-6.49918 7.06324,-8.58271 7.01758,-11.53125 l -0.0566,-3.59961 -1.70313,3.72656 c -0.93745,2.04932 -4.45157,6.10444 -7.80664,9.01172 l -6.09961,5.28516 6.0918,-6.34961 c 5.90313,-6.15391 6.09719,-6.54121 6.20312,-12.52734 0.0729,-4.12215 0.77521,-7.13269 2.11329,-9.04883 1.10283,-1.57933 3.34759,-5.62741 4.99023,-8.99414 3.16203,-6.48088 4.28827,-7.28203 5.94727,-4.23828 2.95296,5.41784 2.63519,14.55283 -0.46485,13.38476 -0.93703,-0.35311 -1.57031,0.0471 -1.57031,0.99024 0,0.86949 -1.01477,2.2436 -2.25586,3.05273 -1.73808,1.13316 -2.16098,2.32369 -1.8457,5.18555 l 0.4082,3.71484 1.27734,-2.92578 c 0.70305,-1.61017 1.79021,-2.92773 2.41407,-2.92774 0.62385,0 1.68989,-1.19831 2.36914,-2.6621 0.67924,-1.4638 1.9466,-2.66211 2.81836,-2.66211 1.35236,0 1.36863,0.26398 0.0976,1.80078 -0.59267,0.71743 -0.84347,1.13007 -0.75781,1.22851 0.0614,0.0587 0.26598,-0.012 0.61328,-0.21679 0.87776,-0.51767 1.1402,-0.28095 0.76172,0.6875 -0.92483,2.36646 2.27946,4.1289 7.50391,4.1289 6.02175,0 7.79106,-0.92227 13.59375,-7.10351 4.54557,-4.8421 4.59699,-4.98262 2.64257,-7.10157 -1.56989,-1.70207 -2.03118,-4.08208 -2.16796,-11.21484 -0.0955,-4.98083 -0.58319,-9.44597 -1.08399,-9.92187 -0.50078,-0.47594 -2.37513,-1.02342 -4.16406,-1.21485 -2.63903,-0.2824 -3.68884,-1.24123 -5.57031,-5.09179 -1.27541,-2.61021 -2.05347,-5.42831 -1.72852,-6.25977 0.33098,-0.84694 -0.55608,-2.37719 -2.01758,-3.48047 -1.61724,-1.22083 -2.02444,-1.97945 -1.07226,-1.99414 0.84479,-0.013 1.21776,-0.33616 0.82812,-0.71875 -0.33797,-0.33184 0.13577,-1.81742 1.07227,-3.48437 -0.61637,-0.93201 -1.20194,-1.88175 -1.66993,-2.89063 -0.0639,0.0663 -0.12578,0.13277 -0.18359,0.20117 -1.08739,1.28651 -1.57624,1.35262 -2.23828,0.30078 -0.43957,-0.69836 -0.24078,-1.28745 1.70313,-2.54297 -0.17418,-0.78567 -0.30646,-1.58938 -0.67383,-2.31054 -0.72714,-1.26828 -1.36819,-2.57103 -1.89453,-3.93555 -0.73802,-1.03224 -1.49581,-2.04986 -2.24024,-3.07812 -0.67078,1.61367 -0.91512,1.11347 -1.97461,-2.81055 -1.12765,-1.58238 -2.30507,-3.12847 -3.44531,-4.70117 -0.33805,-0.46681 -0.68059,-0.92968 -1.02344,-1.39258 -1.6492,0.25278 -1.95724,-0.21608 -1.87109,-2.57031 -0.34029,-0.50299 -0.61191,-0.99275 -0.82031,-1.4668 -0.0445,-0.0538 -0.0885,-0.10811 -0.13282,-0.16211 0.4075,1.19731 -0.95116,1.463 -3.84375,0.64844 -3.84112,-1.08169 -5.51671,0.74876 -2.60156,2.84179 1.82415,1.30971 1.68387,1.4336 -1.61133,1.4336 -4.44593,0 -6.90994,-2.67849 -5.09179,-5.53711 0.9145,-1.43786 0.88453,-2.44204 -0.125,-4.0293 -1.84052,-2.89382 -1.69156,-3.54582 0.66992,-2.93945 0.87886,0.22566 1.70404,0.24714 2.42773,0.10351 -0.34486,-0.15075 -0.70148,-0.33004 -1.06836,-0.54101 -1.81283,-1.04249 -3.48947,-2.27868 -5.01562,-3.70508 -1.30446,-1.28343 -2.54793,-2.63242 -3.86914,-3.89844 -1.05433,-1.01632 -2.19874,-1.93723 -3.39063,-2.78711 -0.86856,-0.6515 -1.72499,-1.31425 -2.59961,-1.95507 -0.66315,1.324 -1.22955,1.47687 -2.11914,0.75195 -1.2482,-1.01717 -2.88781,-1.58793 -4.82031,-1.71875 -0.4026,-0.0273 -0.81702,-0.0362 -1.24414,-0.0254 z m 9.58984,106.66992 c 0.34281,-0.0162 0.61704,0.10397 0.78516,0.37109 0.35284,0.56057 -0.71588,2.14092 -2.375,3.51172 -1.65911,1.37078 -3.21533,2.97308 -3.45899,3.5586 -0.24367,0.58552 -3.2334,6.81361 -6.64453,13.83984 -6.96904,14.3548 -14.47426,31.18578 -37.968747,85.16602 -14.00347,32.17391 -19.34921,44.38555 -23.77148,54.29296 -1.72368,3.86163 -12.93407,29.52162 -20.23242,46.31055 -3.94525,9.07555 -8.15586,17.57908 -9.35742,18.89649 -1.20152,1.31742 -2.58248,2.39453 -3.06836,2.39453 -1.23318,0 4.69514,-11.96561 6.68164,-13.48633 0.89357,-0.68403 1.27798,-1.58318 0.85547,-1.99805 -0.42252,-0.41486 0.0438,-2.25138 1.0371,-4.08008 0.9933,-1.82868 1.70659,-3.6839 1.58399,-4.12304 -0.1226,-0.43914 0.29429,-0.79883 0.92578,-0.79883 0.63151,0 0.84511,-0.47893 0.47656,-1.06445 -0.36854,-0.58552 -0.12568,-1.06446 0.54102,-1.06446 0.6667,0 0.91151,-0.47893 0.54297,-1.06445 -0.36854,-0.58552 -0.23329,-1.06445 0.29883,-1.06445 0.53212,0 0.96679,-0.65593 0.96679,-1.45704 0,-2.97181 9.37525,-22.94595 10.46094,-22.2871 0.68008,0.4127 0.83393,-0.035 0.39648,-1.1543 -0.39266,-1.00474 -0.27307,-1.55738 0.26563,-1.23047 1.33929,0.81275 4.85165,-8.51495 3.82226,-10.15039 -0.52958,-0.84137 -0.37762,-1.03835 0.42579,-0.55078 0.69111,0.41939 1.31614,0.13662 1.39257,-0.63281 0.0761,-0.76645 0.25662,-2.52451 0.40039,-3.90625 0.14379,-1.38174 0.85261,-2.87225 1.57813,-3.3125 0.72551,-0.4403 1.23842,-0.98559 1.13867,-1.2129 -0.57627,-1.31367 1.49254,-6.14425 2.39649,-5.5957 0.67726,0.41101 0.81092,-0.29224 0.35546,-1.87109 -0.56411,-1.95595 -0.46929,-2.16686 0.41602,-0.93164 0.92626,1.29242 1.12254,1.08958 1.03125,-1.06446 -0.0976,-2.30267 2.07643,-7.95788 10.35352,-26.90625 0.96501,-2.20918 2.71956,-4.96354 3.89843,-6.12109 2.20325,-2.16336 2.98591,-4.87033 1.07227,-3.70898 -0.61374,0.37245 -0.7961,-0.0516 -0.42774,-0.99414 0.35381,-0.90533 1.07457,-1.38427 1.60157,-1.06446 0.52699,0.3198 0.71304,-0.0455 0.41406,-0.81054 -0.29897,-0.76501 5.736237,-15.75938 13.412107,-33.32227 17.36115,-39.72333 19.4261,-44.23643 21.17383,-46.26953 0.7721,-0.89818 2.05695,-3.31006 2.85547,-5.35938 1.7635,-4.52587 9.80236,-17.03499 12.17578,-18.94726 0.57807,-0.46577 1.13148,-0.71551 1.57226,-0.73633 z M 71.182223,645.23223 c -0.4455,0.0297 -1.63186,2.00108 -2.77344,4.64844 -3.51731,8.15625 -3.84369,8.8943 -8.42187,19.06055 -9.27361,20.59283 -21.33935,48.50666 -26.28516,60.8125 -2.85296,7.09853 -6.93187,16.3087 -9.06445,20.46679 -2.13259,4.15809 -3.87891,8.05221 -3.87891,8.65235 0,0.60014 0.26353,1.08984 0.58594,1.08984 0.81363,0 10.19096,-19.63651 16.60742,-34.77929 16.9181,-39.92656 19.87364,-46.77886 22.77344,-52.80469 1.75496,-3.64682 3.93258,-8.78704 4.83984,-11.42188 0.90725,-2.63483 2.70229,-7.10566 3.99024,-9.93554 1.28793,-2.82988 2.06341,-5.41932 1.72265,-5.75391 -0.0266,-0.0262 -0.058,-0.0378 -0.0957,-0.0352 z m -40.85937,114.71485 0.75585,4.38867 c 0.41535,2.41392 0.27986,5.41211 -0.30078,6.66211 -0.58063,1.24999 -1.60165,4.53122 -2.26953,7.29101 -0.66789,2.7598 -3.40723,9.80948 -6.08789,15.66602 -2.97749,6.50503 -4.60431,11.38645 -4.17969,12.54687 0.38229,1.04476 0.27303,1.5239 -0.24218,1.0625 -0.51522,-0.46139 -1.79232,0.73693 -2.83789,2.66211 l -1.90039,3.49805 -0.0449,-3.93945 c -0.0251,-2.16688 0.42478,-6.2388 1,-9.04883 0.57521,-2.81003 2.08674,-11.84225 3.35937,-20.07031 l 2.31445,-14.95899 5.2168,-2.88086 z m 15.91406,7.39453 0.73242,4.56054 c 1.2288,7.64983 1.07705,9.64803 -0.68945,8.98243 -1.68918,-0.63647 -2.00338,-0.29253 -12.98633,14.21093 -3.76884,4.97691 -8.37971,10.46082 -10.24805,12.1875 l -3.39648,3.14063 3.39843,-8.19727 c 1.86985,-4.5079 3.85802,-8.19531 4.41602,-8.19531 0.558,0 0.74399,-0.42895 0.41406,-0.95312 -0.32992,-0.52417 0.0694,-1.20696 0.88867,-1.51563 0.81921,-0.30867 2.25382,-2.76667 3.18946,-5.46289 1.17607,-3.38911 1.30073,-4.68272 0.40234,-4.19336 -0.0391,0.0212 -0.0697,0.0308 -0.0879,0.0312 h -0.002 -0.004 l -0.002,-0.002 h -0.002 -0.002 -0.002 l -0.002,-0.002 -0.002,-0.002 v -0.002 l -0.002,-0.002 -0.004,-0.002 v -0.002 -0.002 c -0.0155,-0.26777 2.65015,-3.17202 6.40039,-6.94532 z"
     style="display:none;fill:#000000;stroke-width:1.07435"
     id="path1-5" />
</svg>
