<?xml version="1.0" encoding="UTF-8" standalone="no"?>
<!-- Created with Inkscape (http://www.inkscape.org/) -->

<svg
   version="1.1"
   id="svg1"
   width="257.08218"
   height="399.12088"
   viewBox="0 0 257.08218 399.12088"
   xml:space="preserve"
   sodipodi:docname="unique_offhand.svg"
   inkscape:version="1.4.4 (dcaf3e7, 2026-05-05)"
   xmlns:inkscape="http://www.inkscape.org/namespaces/inkscape"
   xmlns:sodipodi="http://sodipodi.sourceforge.net/DTD/sodipodi-0.dtd"
   xmlns="http://www.w3.org/2000/svg"
   xmlns:svg="http://www.w3.org/2000/svg"><sodipodi:namedview
     id="namedview1"
     pagecolor="#ffffff"
     bordercolor="#000000"
     borderopacity="0.25"
     inkscape:showpageshadow="2"
     inkscape:pageopacity="0.0"
     inkscape:pagecheckerboard="0"
     inkscape:deskcolor="#d1d1d1"
     inkscape:zoom="2.077065"
     inkscape:cx="128.54677"
     inkscape:cy="199.56044"
     inkscape:window-width="1920"
     inkscape:window-height="1009"
     inkscape:window-x="2552"
     inkscape:window-y="143"
     inkscape:window-maximized="1"
     inkscape:current-layer="svg1" /><defs
     id="defs1" /><path
     id="path1"
     style="display:inline;fill:#000000;stroke-width:1.14717"
     d="m 58.361332,185.12109 -0.72071,0.56641 c 0.81541,0.3679 0.8075,0.61424 -0.06445,2.07031 -0.38896,0.64951 -0.71139,1.38432 -0.71679,1.63281 -0.0155,0.78154 -1.4823,4.16787 -2.4629,5.95704 -0.09972,0.0873 -0.2075,0.18814 -0.32421,0.30273 -0.19696,0.19336 -0.39102,0.36396 -0.56446,0.5 -0.08116,-0.50004 -0.13948,-1.61138 -0.13867,-2.89258 0.004,-4.35532 -0.22904,-6.86519 -0.63672,-6.8457 -0.12698,0.006 -0.31791,0.1677 -0.62304,0.55664 l -0.06641,-0.66602 -0.36914,0.90039 c -0.07963,0.19366 -0.16785,0.45409 -0.25391,0.73829 -0.2466,0.36932 -0.53521,0.81507 -0.87109,1.34961 0.01121,-0.12889 0.0034,-0.21106 -0.02735,-0.23829 l -0.002,-0.002 -0.002,-0.002 h -0.002 c -0.002,-0.001 -0.0068,-0.003 -0.0098,-0.004 h -0.002 -0.002 l -0.002,-0.002 h -0.002 -0.002 -0.002 -0.0019 -0.002 -0.002 -0.002 v 0.002 h -0.002 c -0.19063,0.0382 -0.80516,0.95938 -2.28321,3.28516 -1.38308,2.17636 -2.51562,4.03252 -2.51562,4.125 v 0.002 0.002 l 0.002,0.002 v 0.002 l 0.002,0.002 h 0.002 l 0.002,0.002 h 0.002 l 0.002,-0.002 c 0.02199,-0.007 0.07703,-0.0616 0.14453,-0.13672 -1.01854,1.24836 -1.96301,2.23181 -2.71289,2.60352 -0.49394,0.24483 -0.91912,0.55848 -1.10547,0.79492 -0.54076,-0.2998 -1.01885,-0.53123 -1.10742,-0.53125 -7.7e-4,0 -0.0029,-7e-5 -0.0039,0 h -0.002 l -0.002,0.002 h -0.0039 l -0.002,0.002 c -0.05968,0.0388 -0.11245,0.31738 -0.14257,0.7168 -0.18524,0.27308 -0.27344,0.8856 -0.27344,1.85546 0,0.40124 -0.02814,0.81546 -0.08203,1.23243 -0.17057,0.47336 -0.20276,0.75902 -0.13868,0.83007 -0.0511,0.24789 -0.11121,0.49413 -0.17773,0.73633 -0.06644,0.0153 -0.14699,0.0518 -0.24219,0.11133 -0.17186,0.10759 -0.30678,0.5549 -0.30078,0.99414 l 0.0059,0.41016 c -0.17975,0.40382 -0.37892,0.77619 -0.59375,1.09961 -0.15902,-0.53689 -1.14179,0.39439 -1.42969,1.45703 -0.16507,0.60935 -0.57087,1.50841 -0.90234,1.99804 -0.52753,0.77936 -1.08127,1.75449 -1.29102,2.23438 -0.66441,0.71087 -1.36881,1.34498 -1.95312,1.70508 l -1.38672,0.85351 c -6.2e-4,-1.2e-4 -0.0013,1.2e-4 -0.002,0 -0.07305,-0.014 -0.14842,-0.0288 -0.22266,-0.041 l -1.17187,-0.19336 0.09765,2.09961 c 0.0857,1.84253 -0.01359,2.33776 -0.80859,4.05859 -0.40887,0.88436 -0.63069,1.53166 -0.57031,1.62891 l 0.002,0.002 0.002,0.002 0.002,0.002 0.0019,0.002 0.002,0.002 h 0.002 0.002 l 0.002,0.002 h 0.0019 0.002 c 9.1e-4,0 0.0049,7e-5 0.0059,0 0.0145,-0.002 0.03474,-0.0131 0.05664,-0.0312 0.1073,-0.0902 0.19232,-0.14599 0.26367,-0.16407 -0.463,0.92192 -1.07279,1.98209 -1.86914,3.28321 -5.85652,9.56862 -9.81745,20.03895 -11.75391,31.07812 -0.16612,0.94711 -0.2825,2.89263 -0.35156,5.25586 l -0.03516,0.14453 c -0.93814,3.86591 -0.98931,4.51338 -0.72656,9.37305 0.14487,2.67959 0.35341,5.37701 0.46289,5.99414 0.11419,0.64373 0.19857,0.98014 0.25,1.02344 l 0.002,0.002 h 0.002 0.0019 0.002 0.002 0.002 0.002 0.002 l 0.002,-0.002 0.0019,-0.002 c 0.0849,-0.11294 0.0346,-1.47939 -0.16211,-3.93359 -0.22668,-2.82751 -0.20536,-5.34597 0.12696,-9.37891 -0.06317,5.54034 0.07764,11.83614 0.38281,13.34571 0.26529,1.31234 0.51921,2.45473 0.76172,3.41992 l -0.002,0.002 -0.002,0.002 c -0.0308,0.0312 -0.05354,0.13768 -0.06055,0.31054 -0.009,0.22973 0.02629,0.38473 0.08399,0.41211 0.02,0.007 0.04601,-5e-5 0.07031,-0.0234 0.02791,-0.0283 0.04904,-0.0698 0.0625,-0.11915 0.56872,2.13621 1.05887,3.23406 1.42578,3.15821 0.3283,-0.0679 0.44909,-0.3634 0.40235,-0.97656 -0.26113,-3.42242 -0.08791,-12.2261 0.29687,-15.0586 1.25044,-9.20562 4.37454,-19.53547 8.26172,-27.31836 1.59236,-3.1882 5.84832,-10.01758 6.24219,-10.01758 0.14148,0 0.7429,-0.34058 1.33789,-0.75586 0.36098,-0.25193 0.60086,-0.40876 0.74805,-0.47656 -0.34215,1.10081 -0.6587,2.07013 -0.77539,2.36914 -0.14452,0.37014 -0.22898,0.71219 -0.19532,0.78516 h 0.002 v 0.002 0.002 0.0117 l 0.0039,0.0117 0.002,0.002 h 0.002 0.002 0.002 0.002 c 0.01313,-0.004 0.0359,-0.0269 0.06445,-0.0645 -2.6054,7.68639 -5.05057,17.86864 -5.87305,24.70117 -0.03749,0.31148 -0.07289,0.63952 -0.10547,0.98243 -0.01227,-0.006 -0.02559,-0.01 -0.03906,-0.01 h -0.002 -0.002 l -0.002,0.002 h -0.002 c -0.29741,0.0869 -0.59624,3.79732 -0.35156,4.44922 0.03537,0.0942 0.08259,0.0926 0.13281,0.0137 -0.0193,0.59357 -0.03543,1.19838 -0.04492,1.8086 -0.0295,-0.0271 -0.05966,-0.041 -0.0918,-0.041 -0.42559,0 -0.17481,5.98024 0.375,9.44141 0.04047,0.43701 0.08599,0.84889 0.13477,1.23047 0.38827,3.0462 1.13075,6.50684 2.01172,9.67773 0.0036,0.0132 0.012,0.067 0.01562,0.0801 0.18193,0.65679 0.35451,1.20241 0.4707,1.50391 0.67832,2.22657 1.399,4.29054 2.11329,5.74023 0.83449,1.69367 1.72263,1.97265 1.45312,0.45703 -0.0938,-0.52772 -0.42754,-2.3775 -0.74219,-4.11133 -2.81234,-15.49701 -0.0753,-35.70587 6.97461,-51.49609 1.32308,-2.96338 1.65065,-3.45182 3.26758,-4.85547 1.44099,-1.25091 1.87823,-1.83668 2.20117,-2.95508 0.35984,-1.24617 1.76655,-3.82031 2.08789,-3.82031 0.03154,0 0.04982,0.0255 0.05664,0.0703 -0.11492,0.40543 -0.28025,0.84258 -0.49218,1.3086 -0.07628,0.16773 -0.15226,0.35703 -0.22852,0.5664 -0.02552,0.0414 -0.05042,0.0825 -0.07617,0.1211 -0.02814,0.0422 -0.11283,0.66288 -0.14453,0.73437 -0.45653,1.50034 -0.8418,3.4775 -1.10157,5.57617 -0.47395,2.36386 -0.8299,3.27186 -1.34765,6.82813 -0.95255,6.54285 -1.09023,12.58427 -0.76563,18.34961 -0.0011,9.7e-4 -0.003,9.5e-4 -0.0039,0.002 -0.08041,0.0815 -0.05538,0.63375 0.05468,1.22852 1.4e-4,7.1e-4 -1.3e-4,10e-4 0,0.002 0.58864,8.10275 2.3147,15.52609 5.48047,22.11914 1.18665,2.47129 1.73344,3.32031 2.13477,3.32031 0.26887,0 0.49346,-0.043 0.5332,-0.0996 l 0.002,-0.002 v -0.002 -0.002 -0.002 h 0.002 v -0.0117 l 0.002,-0.0117 c 1.2e-4,-0.001 0,-0.0107 0,-0.0117 0,-0.065 -0.4525,-1.8161 -1.00586,-3.89258 -1.70014,-6.37984 -2.232,-10.95976 -2.25586,-19.46094 -0.0123,-4.39139 0.12634,-8.51683 0.3418,-10.18555 0.92752,-7.18387 2.71991,-14.78862 4.36133,-18.51172 0.57029,-1.29355 0.85547,-2.41577 0.85547,-3.36523 0,-2.2226 0.97276,-4.5136 2.46093,-5.79297 0.69825,-0.60025 1.26954,-1.27529 1.26954,-1.5 0,-0.2247 -0.27828,-0.81233 -0.61915,-1.30469 -1.13411,-1.63802 -0.93238,-5.45732 0.20704,-3.91992 0.24068,0.32476 0.50439,0.92414 0.58593,1.33008 0.0815,0.40594 0.25587,0.93611 0.38672,1.17969 0.23782,0.44264 0.39033,0.45699 1.73633,0.15234 0.0501,-0.0113 0.10101,-0.0209 0.15039,-0.0273 0.0587,-0.16698 0.12192,-0.33768 0.19141,-0.51172 0.031,-0.0777 0.06275,-0.15472 0.09375,-0.23242 0.008,-0.0231 0.01583,-0.0453 0.02343,-0.0684 -0.33387,-0.0699 -0.59124,-0.0203 -0.91796,0.13281 -0.66352,0.31094 -0.71695,0.2696 -0.88868,-0.67188 -0.19967,-1.09468 -1.94469,-3.40234 -2.57226,-3.40234 -0.05093,0 -0.09995,0.006 -0.14649,0.0156 0.01116,-0.26955 -0.05204,-0.42372 -0.18945,-0.50977 -0.1846,-0.11556 -0.25256,-0.29482 -0.15039,-0.39844 0.26072,-0.26408 1.57288,0.65731 2.10156,1.47461 0.24287,0.37543 0.55807,1.13378 0.69922,1.68555 0.23859,0.93261 0.80469,1.28977 0.80469,0.50781 0,-0.19041 0.19773,-0.39999 0.43945,-0.4668 0.14006,-0.0387 0.22861,-0.0565 0.26172,-0.0508 h 0.0039 0.002 l 0.002,0.002 h 0.002 l 0.002,0.008 0.0039,0.002 v 0.006 h 0.002 v 0.004 0.002 0.0117 c -5.8e-4,0.002 -0.0029,0.007 -0.0039,0.01 -0.0203,0.032 -0.0989,0.0954 -0.22851,0.1875 -0.29739,0.21127 -0.18803,0.31724 0.43945,0.42578 0.43341,0.075 1.02677,0.23391 1.36328,0.36523 0.0402,-0.11622 0.0835,-0.23382 0.12891,-0.35351 -0.16054,-0.2177 -0.24565,-0.3414 -0.25586,-0.37696 v -0.002 -0.002 -0.002 -0.002 h 0.002 0.0039 l 0.0019,0.002 c 0.0278,0.009 0.11954,0.0848 0.27149,0.22266 0.01,0.009 0.01989,0.0166 0.02929,0.0254 0.0104,-0.0267 0.02055,-0.0532 0.03125,-0.0801 0.031,-0.0777 0.06275,-0.15472 0.09375,-0.23242 0.22087,-0.66851 0.42618,-1.34069 0.62695,-2.01563 0.25178,-0.82314 0.57761,-1.62181 1.06055,-2.33984 0.29732,-0.44789 0.62586,-0.87306 0.99219,-1.26367 -0.10802,-0.11847 -0.21629,-0.2235 -0.31445,-0.30274 -0.18286,-0.14765 -0.35564,-0.3363 -0.51368,-0.55273 0.02471,-0.12281 0.02059,-0.23194 -0.02734,-0.29688 -0.20978,-0.28435 -0.31955,-0.84814 -0.24414,-1.2539 l -0.5332,-0.99024 c -0.03149,0.0605 -0.05976,0.1242 -0.08594,0.18946 -0.0272,-0.30657 -0.0132,-0.59336 0.05078,-0.83985 l -1.63477,-4.2832 c 0.28221,-0.45381 0.44566,-1.19826 0.31446,-1.84766 -0.03693,-0.18274 -0.06884,-0.33194 -0.09961,-0.44726 0.08606,-0.23784 0.13672,-0.44586 0.13672,-0.58985 0,-0.71222 -0.54748,-0.88907 -1.08008,-0.3496 -0.22115,0.224 -0.36303,0.22943 -0.5,0.0215 l 0.44141,1.1543 c -0.07532,0.006 -0.14363,-0.009 -0.19922,-0.0449 -0.34237,-0.22418 -0.6629,-0.27372 -0.89063,-0.15235 -0.07207,-0.089 -0.11523,-0.2804 -0.11523,-0.54297 0,-0.47173 0.14501,-0.74281 0.33789,-0.75586 0.006,-4.2e-4 0.01323,-1.1e-4 0.01953,0 0.12126,0.002 0.25917,0.10488 0.39062,0.32032 0.0051,0.008 0.01054,0.0137 0.01563,0.0215 l -2.59375,-6.78711 c 0.06479,-0.0864 0.13964,-0.15355 0.2207,-0.18555 0.23683,-0.0934 0.43164,-0.36657 0.43164,-0.60742 l -0.75976,-1.09961 c -0.32944,0.28118 -0.33736,0.43618 -0.04297,0.82422 0.13556,0.17859 0.21168,0.28555 0.2207,0.32031 v 0.006 0.01 0.004 0.0117 l -0.002,0.01 h -0.002 -0.002 -0.002 c -0.0322,-0.006 -0.14406,-0.0904 -0.33984,-0.24805 -0.05153,-0.0415 -0.09551,-0.0819 -0.13477,-0.12304 l -0.18945,-0.4961 c 8e-5,-6.2e-4 -9e-5,-10e-4 0,-0.002 0.01054,-0.074 0.03637,-0.15049 0.07617,-0.23242 0.07733,-0.0234 0.13677,-0.0371 0.17773,-0.0371 0.31226,-1e-5 0.46289,-0.27019 0.46289,-0.83008 0,-0.45703 0.11653,-0.95823 0.25782,-1.11328 0.11639,-0.1277 0.08933,-0.34054 -0.01758,-0.56445 0.13769,-0.50177 0.22266,-0.89873 0.19336,-0.97657 -5.4e-4,-10e-4 -0.0014,-0.003 -0.002,-0.004 l -0.002,-0.01 h -0.002 v -0.0117 l -0.002,-0.004 h -0.002 -0.002 -0.002 -0.0039 -0.002 -0.002 -0.002 l -0.002,0.002 c -0.06131,0.0357 -0.20669,0.29855 -0.375,0.67578 -0.15461,-0.19654 -0.34762,-0.36919 -0.53125,-0.45898 0.3839,-0.77539 0.41058,-1.06986 0.15039,-1.31641 -0.11232,-0.10647 -0.18373,-0.16571 -0.2168,-0.17774 0.18962,-0.39715 0.37889,-0.7397 0.54297,-0.97265 1.18802,-1.68668 1.10202,-2.86671 -0.23828,-3.29688 z m 1.5039,2.85547 c -0.0263,0.005 -0.05949,0.031 -0.10156,0.0742 -0.15789,0.16239 -0.37774,0.69452 -0.48828,1.18164 -0.0879,0.38749 -0.10294,0.608 -0.05078,0.65625 l 0.002,0.002 h 0.002 0.002 v 0.002 h 0.002 l 0.002,0.002 h 0.002 0.002 c 0.0282,0.006 0.0701,-0.0179 0.12305,-0.0723 0.15788,-0.16237 0.37774,-0.69255 0.48828,-1.17969 0.0848,-0.37364 0.04136,-0.66306 0.03906,-0.66406 l -0.002,-0.002 h -0.002 -0.002 -0.002 -0.002 -0.002 c -8.5e-4,0 -0.0049,2e-5 -0.0059,0 h -0.002 -0.0019 z m -7.50976,0.32422 h 0.002 0.002 0.002 0.002 c 0.003,9.5e-4 0.0068,0.003 0.0098,0.004 h 0.002 c 0.0231,0.0149 0.05138,0.0612 0.08008,0.13476 0.083,0.21311 0.07381,0.46831 -0.02149,0.56641 -0.0254,0.0261 -0.05156,0.0315 -0.07226,0.0215 -0.0549,-0.0323 -0.08898,-0.18642 -0.08008,-0.41015 0.007,-0.17196 0.02839,-0.2756 0.05859,-0.30664 h 0.002 l 0.002,-0.002 0.002,-0.002 0.002,-0.002 0.002,-0.002 h 0.002 0.002 z m 5.66992,1.125 c 0.011,0.0367 0.0424,0.0998 0.0918,0.18945 0.11572,0.21013 0.006,0.70457 -0.24414,1.09766 -0.02398,0.0377 -0.04739,0.0761 -0.07032,0.11523 -0.09439,0.0232 -0.1731,0.0931 -0.22265,0.22461 -0.27674,0.73453 -0.44354,1.07522 -0.54492,1.08399 0.03285,-0.11627 0.06641,-0.23357 0.09961,-0.35156 0.21323,-0.75787 0.5524,-1.64529 0.89062,-2.35938 z m -5.875,0.0684 c 0.0349,-0.001 0.0732,0.0116 0.11328,0.0371 0.16052,0.10199 0.2178,0.30781 0.12695,0.45898 -0.01707,0.0284 -0.03445,0.0563 -0.05078,0.0801 l -0.02929,-0.5 -0.31055,0.5293 c -0.01809,-0.0727 -0.02734,-0.17173 -0.02734,-0.29492 0,-0.18984 0.0731,-0.30692 0.17773,-0.31055 z m -0.95898,0.5918 c 0.11818,-0.007 0.20703,0.17493 0.20703,0.45703 0,0.71285 -0.15903,0.78606 -0.38672,0.17578 -0.0521,-0.13969 -0.05695,-0.29064 -0.02149,-0.41211 l 0.1836,-0.2168 c 0.0057,-0.001 0.01202,-0.004 0.01758,-0.004 z m -0.76953,1.95117 h 0.002 c 0.12293,-0.006 0.08794,0.25761 -0.14649,0.77344 -0.1363,-0.20008 -0.29125,-0.11628 -0.47851,0.22265 -0.47762,0.86447 -1.63218,2.27697 -2.34571,2.96289 l 0.10352,-0.12304 c 0.33534,-0.40478 1.10469,-1.51353 1.71094,-2.46485 0.58431,-0.91689 0.9977,-1.36315 1.1543,-1.37109 z m 6.60742,0.12109 0.59765,1.56446 c -0.02773,0.0589 -0.07156,0.17142 -0.0957,0.2207 -0.11383,0.23238 -0.18969,0.41099 -0.23047,0.55273 -0.14666,0.0692 -0.30509,0.14662 -0.4707,0.23243 -0.03477,-0.1828 -0.14475,-0.26343 -0.27344,-0.18164 -0.15589,0.0992 -0.22672,0.008 -0.1582,-0.20313 0.06114,-0.18869 0.33419,-1.13597 0.63086,-2.18555 z m -6.36914,2.19141 0.17187,1.2832 0.08399,0.62891 -0.002,0.13476 -0.21679,-1.71875 c -0.01402,-0.11089 -0.02886,-0.21716 -0.04297,-0.31835 -1.1e-4,-7.9e-4 1.1e-4,-0.001 0,-0.002 z m -3.51758,0.33984 c -0.33687,0.48294 -0.62233,0.77548 -0.93946,1.1836 0.11688,-0.15214 0.22529,-0.28947 0.36329,-0.48243 0.19052,-0.26639 0.38952,-0.50456 0.57617,-0.70117 z m 10.21289,0.25586 c 0.03326,0.037 0.07557,0.0713 0.12695,0.10547 0.25005,0.16616 0.27418,0.31999 0.07227,0.46875 -0.16547,0.12178 -0.90801,0.65978 -1.65039,1.19531 -0.18796,0.13559 -0.36629,0.26896 -0.5293,0.39454 0.07982,-0.92559 0.43803,-1.29444 1.66016,-1.98633 0.12253,-0.0694 0.22842,-0.12927 0.32031,-0.17774 z m -7.74024,0.082 0.002,0.002 h 0.0019 0.002 0.002 0.002 0.002 l 0.002,0.002 0.002,0.004 0.002,0.002 v 0.002 l 0.002,0.002 v 0.002 c 0.0021,0.041 -0.06717,0.15417 -0.20899,0.33398 -0.16777,0.21275 -0.31525,0.3605 -0.41797,0.43555 0.14267,-0.21849 0.2771,-0.4343 0.40039,-0.64453 0.01188,-0.0203 0.02301,-0.0394 0.03516,-0.0586 0.0055,-0.003 0.0119,-0.008 0.01758,-0.0117 0.0762,-0.0471 0.12795,-0.0704 0.15429,-0.0703 z m 6.42188,0.043 c 0.02851,-3.7e-4 0.07073,0.007 0.125,0.0215 -0.04307,0.0246 -0.08574,0.0511 -0.12891,0.0762 -0.0023,-0.008 -0.0051,-0.0158 -0.0098,-0.0215 -0.0152,-0.0157 -0.0254,-0.0305 -0.0293,-0.041 v -0.002 -0.002 l -0.0039,-0.002 v -0.002 h -0.002 c -8e-5,-9e-4 -4e-5,-0.005 0,-0.006 v -0.002 l 0.0059,-0.002 v -0.002 l 0.0039,-0.002 v -0.002 l 0.002,-0.002 h 0.002 l 0.0039,-0.002 h 0.0039 v -0.002 l 0.0039,-0.002 c 0.0062,-0.002 0.01394,-0.004 0.02344,-0.004 z m -6.41797,0.71094 c -0.14885,0.41872 -0.3497,0.93146 -0.58203,1.47266 -0.01479,0.0345 -0.02856,0.0678 -0.04297,0.10156 -0.87454,1.45325 -2.50534,3.27232 -3.50586,3.91015 -0.08659,-0.0314 -0.18401,-0.0623 -0.29297,-0.0937 -0.09019,-0.0261 -0.17891,-0.0537 -0.26172,-0.082 0.34328,-0.43194 0.77566,-1.00276 1.09766,-1.45507 0.17104,-0.24027 0.30384,-0.43445 0.40039,-0.59766 0.29691,-0.29921 0.61466,-0.64936 0.93555,-1.0293 -0.04909,0.16604 -0.16411,0.4236 -0.33203,0.73242 l -0.61328,1.125 0.75781,-0.88281 c 0.41628,-0.48713 1.37037,-1.73157 2.11914,-2.76172 z m 7.95703,0.17383 c -0.01099,0.0371 -0.02156,0.076 -0.0332,0.11523 -0.02487,0.0837 -0.04915,0.16562 -0.07422,0.2461 -0.1493,0.0569 -0.24628,0.0829 -0.28516,0.0762 -0.0012,-3e-4 -0.0028,-0.002 -0.0039,-0.002 h -0.002 -0.002 l -0.002,-0.002 -0.002,-0.002 v -0.002 h -0.002 v -0.002 l -0.002,-0.002 v -0.002 -0.002 c 4e-5,-0.001 5e-5,-0.003 0,-0.004 10e-4,-0.036 0.0621,-0.11638 0.18164,-0.24024 0.07369,-0.0764 0.1517,-0.13701 0.22656,-0.17773 z m -9.04297,0.55078 c -0.0643,0.11958 -0.152,0.24296 -0.25781,0.35547 0.08754,-0.11785 0.17307,-0.2367 0.25781,-0.35547 z m 8.05274,0.19531 c 0.0072,-0.001 0.01315,-0.001 0.01758,0 l 0.002,0.002 h 0.002 l 0.002,0.002 0.002,0.002 0.002,0.002 v 0.002 c 1.3e-4,9.6e-4 2e-5,0.005 0,0.006 -0.009,0.0617 -0.21186,0.28062 -0.62109,0.65234 -0.33294,0.30243 -0.53796,0.53999 -0.63086,0.69727 -0.0036,-0.11959 -0.0059,-0.25674 -0.0059,-0.41211 0,-0.0598 9.2e-4,-0.11774 0.002,-0.17383 0.70523,-0.50182 1.12099,-0.76349 1.22852,-0.7793 z m -5.4961,0.0645 h 0.002 0.002 0.002 0.002 l 0.002,0.002 0.002,0.002 h 0.002 c 0.0182,0.0128 0.03789,0.0583 0.05859,0.13867 h 0.002 c 0.074,0.28875 0.06848,0.68971 -0.01172,0.89063 -0.0143,0.0357 -0.03007,0.0591 -0.04296,0.0684 l -0.002,0.002 h -0.002 -0.002 l -0.002,0.002 h -0.002 -0.002 -0.002 -0.002 v -0.002 h -0.002 -0.002 -0.002 v -0.002 h -0.0019 c -9.9e-4,-8.5e-4 -0.0049,-0.005 -0.0059,-0.006 -0.0402,-0.0511 -0.0664,-0.26654 -0.0625,-0.58789 0.004,-0.29075 0.0276,-0.46733 0.0625,-0.50196 l 0.002,-0.002 0.002,-0.002 h 0.002 0.0019 z m 8.97852,0.35938 c -0.13636,2e-5 -0.41073,0.20049 -0.61133,0.44531 -0.29679,0.36241 -0.28325,0.44536 0.07813,0.44531 0.24421,0 0.52048,-0.20046 0.61328,-0.44531 0.09263,-0.24482 0.0561,-0.44529 -0.08008,-0.44531 z m -2.95117,0.084 c 0.0027,-1.3e-4 0.0056,-2.6e-4 0.0078,0 l 0.002,0.002 h 0.002 0.002 l 0.002,0.002 h 0.002 v 0.002 l 0.002,0.002 0.002,0.002 v 0.004 0.002 c -2e-5,0.001 0,0.003 0,0.004 0,0.009 0.0019,0.0194 0.0039,0.0332 -0.34664,0.89848 -0.66832,1.39435 -0.83203,1.22851 -0.093,-0.0942 -0.34625,-0.0236 -0.5625,0.15821 -0.24099,0.20261 -0.34201,0.14473 -0.37696,-0.35938 0.14146,0.008 0.49493,-0.17763 1.01172,-0.5957 0.35263,-0.28526 0.6516,-0.48024 0.73438,-0.48438 z m -12.16211,0.006 c -0.1758,-2.2e-4 -0.68155,0.25722 -1.21875,0.62696 -0.51803,0.35656 -0.86471,0.65705 -0.86524,0.74218 v 0.002 0.002 l 0.002,0.002 v 0.002 0.002 l 0.002,0.002 v 0.002 l 0.002,0.002 0.002,0.002 h 0.002 l 0.002,0.002 0.002,0.002 0.002,0.002 c 0.006,0.001 0.01388,0 0.02148,0 0.4494,-0.002 2.27703,-1.19922 2.10157,-1.37695 -0.0108,-0.0109 -0.02959,-0.0156 -0.05469,-0.0156 z m 5.24804,0.31836 0.0078,0.0566 c 0.0998,0.80529 0.23192,1.88559 0.29492,2.40039 0.0924,0.75463 -0.008,0.97618 -0.52148,1.14258 -0.18771,0.0609 -0.29296,0.11135 -0.30079,0.16016 -1.6e-4,0.002 -2.2e-4,0.008 0,0.01 1e-4,5e-4 0.0015,0.005 0.002,0.006 0.0293,0.0805 0.32925,0.16367 0.96289,0.29102 0.15427,0.031 0.30438,0.0595 0.44531,0.084 0.03497,0.0466 0.06424,0.0714 0.08594,0.0742 10e-4,2e-5 0.0058,-5e-5 0.0078,0 h 0.002 l 0.002,-0.002 h 0.002 0.002 l 0.002,-0.002 0.002,-0.002 c 0.009,-0.009 0.0163,-0.0235 0.02148,-0.0469 0.23747,0.0391 0.4414,0.0655 0.58594,0.0781 0.0029,0.009 0.0068,0.0187 0.0098,0.0274 0.3113,0.9077 0.32999,1.21407 0.07226,1.20507 -0.13095,-0.005 -0.29639,-0.0271 -0.48242,-0.0625 0.41808,-0.70072 -0.28934,-0.75652 -2.54297,-1.03124 -0.14093,-0.0172 -0.27291,-0.0329 -0.39648,-0.0469 -0.0034,-0.003 -0.0067,-0.006 -0.0098,-0.01 -0.13255,-0.14686 -0.20437,-0.23712 -0.21094,-0.26953 v -0.002 -0.01 h 0.002 v -0.0117 -0.002 h 0.002 v -0.0117 h 0.002 0.002 0.002 c 0.0292,-3e-4 0.11293,0.0398 0.24805,0.11914 0.30214,0.17742 0.36143,0.11342 0.22656,-0.24804 -0.10505,-0.28157 -0.0496,-0.45847 0.13086,-0.41797 0.17195,0.0386 0.37735,-0.11427 0.45703,-0.33984 0.0969,-0.27443 0.0131,-0.34015 -0.25195,-0.19922 -0.0681,0.0362 -0.11191,0.0531 -0.13282,0.0527 -4.7e-4,-5e-5 -0.0049,-5e-5 -0.0059,0 h -0.002 v -0.002 h -0.002 l -0.002,-0.0117 v -0.002 h -0.002 v -0.0117 -0.0117 -0.002 -0.0117 -0.004 c 0.0108,-0.0327 0.0817,-0.1093 0.20703,-0.2168 0.25065,-0.21503 0.39604,-0.57522 0.32227,-0.80078 -0.0808,-0.24699 -0.008,-0.32998 0.18555,-0.20703 0.0894,0.0568 0.1526,0.0712 0.18359,0.0449 l 0.002,-0.004 c 0.0322,-0.0393 0.02255,-0.1404 -0.03515,-0.29493 -0.094,-0.25201 -0.0312,-0.45703 0.13867,-0.45703 0.16988,0 0.23901,-0.18694 0.15429,-0.41406 -0.07995,-0.21417 -0.02304,-0.46765 0.125,-0.58594 z m 2.89258,0.8711 h 0.002 0.0039 0.0039 l 0.0039,0.002 h 0.0039 l 0.0059,0.002 c 0.0324,0.0273 0.0981,0.16417 0.20117,0.40039 0.15491,0.35497 0.6152,1.18017 1.02149,1.83203 l 0.73828,1.18555 -0.21485,0.0371 c -0.3002,-0.43561 -0.74201,-1.24631 -0.98632,-1.80859 -0.20811,-0.47894 -0.31832,-0.72788 -0.35743,-0.75977 l -0.002,-0.0117 h -0.002 -0.002 v -0.0117 h -0.002 -0.002 v 0.0117 h -0.002 v 0.0117 h -0.002 v 0.002 0.004 c -0.0111,0.0447 0.02601,0.25401 0.09571,0.61328 0.0946,0.48713 0.34711,1.24172 0.56054,1.67774 0.07081,0.14466 0.12615,0.2639 0.16602,0.36328 l -0.36719,0.0625 c -0.2596,0.0444 -0.5513,0.15917 -0.86719,0.33594 -0.29672,-0.22386 -0.52797,-0.56675 -0.54101,-0.90821 -0.005,-0.1314 -0.13326,-0.159 -0.28516,-0.0625 -0.15191,0.0966 -0.39725,-0.26142 -0.54687,-0.79492 -0.05855,-0.20874 -0.11546,-0.37153 -0.16407,-0.47461 -0.16174,-0.54145 -0.27929,-1.09633 -0.27929,-1.35547 0,-0.0765 0.009,-0.12107 0.02734,-0.13672 l 0.002,-0.002 0.002,-0.002 h 0.002 l 0.002,-0.002 h 0.002 0.002 0.0039 c 7.5e-4,0 0.0068,-5e-5 0.0078,0 l 0.0039,0.002 0.0039,0.002 c 0.0706,0.0246 0.20524,0.27394 0.35352,0.69531 0.2226,0.63255 0.55357,1.30079 0.73632,1.48438 0.1009,0.10136 0.17121,0.15466 0.20508,0.1582 h 0.0039 0.0039 l 0.0039,-0.002 h 0.0039 0.0019 l 0.0039,-0.002 h 0.0039 v -0.002 l 0.002,-0.002 0.002,-0.002 v -0.002 h 0.0039 v -0.002 l 0.0039,-0.002 v -0.002 c 0.008,-0.0394 -0.01526,-0.13721 -0.07226,-0.28906 -0.10578,-0.2816 -0.008,-0.54893 0.23828,-0.64453 0.27097,-0.1053 0.37979,-0.4606 0.30468,-1.00195 -0.05059,-0.36418 -0.07213,-0.55771 -0.05273,-0.59375 l 0.0039,-0.002 v -0.002 h 0.0039 z m -4.72851,1.11328 c 0.0458,-0.005 0.10094,0.0112 0.16015,0.0488 0.15789,0.10037 0.28711,0.2408 0.28711,0.3125 0,0.0715 -0.12922,0.1289 -0.28711,0.1289 -0.15788,0 -0.28711,-0.14056 -0.28711,-0.3125 0,-0.0162 0.0017,-0.0308 0.0039,-0.0449 0.02564,-0.0266 0.05663,-0.0687 0.0957,-0.12695 0.0084,-0.003 0.01813,-0.005 0.02735,-0.006 z m -4.27539,0.0351 -0.58594,0.71094 c 0.01105,-0.0367 0.0249,-0.0759 0.04102,-0.11914 0.05902,-0.15824 0.27217,-0.38187 0.54492,-0.5918 z m 1.05859,0.49805 c -0.05877,0.0778 -0.13073,0.16276 -0.21094,0.25391 -0.213,0.24205 -0.43326,0.45226 -0.56445,0.54297 -0.03395,-0.0206 -0.06263,-0.0403 -0.08398,-0.0586 0.04453,-0.0845 0.13439,-0.21189 0.2539,-0.35742 0.15855,-0.11363 0.36936,-0.24598 0.60547,-0.38086 z m 2.75586,0.0293 h 0.002 0.002 v 0.002 h 0.002 v 0.002 0.002 0.002 c -0.003,0.008 -0.01274,0.0226 -0.02734,0.041 -0.11705,0.14744 -0.058,0.47978 0.13281,0.73828 0.10974,0.14877 0.16972,0.25105 0.17383,0.28515 v 0.002 0.002 0.002 0.002 h -0.002 v 0.002 h -0.002 -0.002 c -6.5e-4,2e-5 -0.0029,9e-5 -0.0039,0 -0.0132,-0.003 -0.03882,-0.0198 -0.07422,-0.0508 -0.14173,-0.12406 -0.64837,0.14104 -1.12695,0.58984 -0.31651,0.29683 -0.53069,0.46723 -0.58203,0.47266 l -0.002,-0.002 h -0.002 -0.002 v -0.002 h -0.002 v -0.002 l -0.002,-0.002 v -0.002 -0.002 c 0.003,-0.0182 0.02481,-0.0567 0.06641,-0.11328 0.18992,-0.25851 0.28203,-0.53614 0.20508,-0.61524 -0.077,-0.0791 0.21487,-0.46437 0.64843,-0.85742 0.32517,-0.2948 0.55192,-0.48155 0.59571,-0.49414 z m 11.78125,0.1543 c 0.27945,0.004 0.21708,0.38768 -0.24023,0.97656 -0.13041,0.16792 -0.25085,0.35381 -0.34766,0.52929 -0.33284,0.082 -0.71485,0.18967 -1.11133,0.31836 -1.49232,0.48437 -2.09449,0.83174 -2.27148,1.31055 -0.10616,0.28713 -0.41119,0.74286 -0.73828,1.11719 l -0.02735,0.002 -1.41601,0.0918 0.98242,-0.87305 h 0.002 c 0.71793,-0.1643 0.98411,-0.43427 0.83399,-0.94531 0.12665,-0.20034 0.19673,-0.37207 0.1875,-0.48242 -0.028,-0.33418 0.45574,-0.65183 1.57226,-1.03125 0.8863,-0.30118 1.82717,-0.67641 2.0918,-0.83399 0.21077,-0.1255 0.37307,-0.18131 0.48242,-0.17968 z m -12.03125,0.36328 c -0.0353,0.009 -0.14847,0.0991 -0.34766,0.25976 -0.27199,0.21936 -0.49699,0.4481 -0.5039,0.51367 v 0.002 c 0,0.243 0.2363,0.0875 0.61133,-0.4043 0.1618,-0.21218 0.2482,-0.33164 0.25195,-0.36328 v -0.002 -0.002 -0.002 h -0.002 v -0.002 h -0.002 -0.002 -0.002 -0.002 z m -5.02539,0.82422 c 0.10368,0.0756 0.2082,0.15442 0.30664,0.23437 -0.25391,0.82534 -0.80596,1.88393 -1.36719,2.54102 -0.03031,0.0355 -0.06033,0.0712 -0.08984,0.10742 -0.10538,0.0341 -0.19709,0.1126 -0.24414,0.22265 -0.0142,0.0333 -0.02521,0.0539 -0.03321,0.0625 l -0.002,0.002 -0.002,0.002 h -0.002 -0.002 -0.002 l -0.002,-0.002 v -0.002 c -0.0124,-0.0406 0.02085,-0.26079 0.09765,-0.5957 0.04459,-0.19456 0.08522,-0.4537 0.11914,-0.73437 0.15074,0.0617 0.48334,-0.42655 1.05664,-1.52735 0.05792,-0.1112 0.1127,-0.21618 0.16602,-0.31054 z m 1.75195,0.5039 c 7.6e-4,-4e-5 0.0068,-4e-5 0.0078,0 h 0.002 l 0.0039,0.002 0.002,0.002 c 0.03457,0.0169 0.07967,0.10689 0.13281,0.27539 -0.02434,0.1298 0.0048,0.24346 0.08984,0.32617 0.05773,0.23724 0.1225,0.54729 0.19141,0.93359 0.03726,0.20889 0.0712,0.45027 0.10352,0.71289 -0.03215,-0.10829 -0.07295,-0.268 -0.125,-0.47851 l -0.21485,-0.88672 -0.01562,1.0332 c -0.009,0.56833 0.0886,1.69789 0.21875,2.50977 0.30696,1.91403 -0.08381,4.69808 -0.91602,6.65234 -0.004,-2.6e-4 -0.0075,-4.8e-4 -0.01172,0 -0.10355,0.0118 -0.30045,0.22374 -0.48047,0.52735 -0.16792,0.28324 -0.25788,0.4399 -0.25976,0.48046 v 0.002 0.002 0.002 0.002 h 0.002 v 0.002 h 0.002 0.002 v 0.002 h 0.0019 c 0.0353,-0.007 0.16397,-0.12781 0.39258,-0.34961 0.01928,-0.0187 0.03841,-0.0379 0.05664,-0.0566 -0.51112,0.92691 -1.47926,2.19426 -2.41016,3.13868 -0.31541,0.31999 -0.58781,0.60161 -0.81836,0.84765 -0.06478,-0.003 -0.13322,-0.004 -0.20312,-0.004 -1.38065,0 -1.46471,-0.28212 -0.29102,-0.98438 0.47699,-0.28541 1.31773,-1.08313 1.86914,-1.77148 2.38403,-2.97601 3.30647,-6.43291 2.77344,-10.39649 -0.20453,-1.52081 -0.22331,-2.4302 -0.12695,-2.51953 l 0.0039,-0.002 h 0.0039 l 0.0039,-0.002 h 0.0039 z m 13.60157,0.74024 c 0.02608,0 0.05202,0.004 0.07617,0.01 -0.07641,0.0557 -0.15433,0.1326 -0.23243,0.22656 -0.05155,-0.13374 0.01021,-0.23632 0.15626,-0.23632 z m -1.24415,0.30859 c 0.13138,-0.005 0.37346,0.0718 0.63477,0.24219 0.07323,0.0478 0.11821,0.10123 0.13477,0.16211 -0.07641,0.13799 -0.15118,0.29078 -0.22461,0.45703 -0.10646,0.11582 -0.25044,0.24996 -0.43555,0.41015 -0.1694,0.1466 -0.34271,0.28484 -0.50391,0.40235 l 0.01953,-0.25196 -0.50195,0.0332 c 0.06756,-0.0705 0.10545,-0.14394 0.0957,-0.20508 -0.10778,-0.67526 0.09051,-0.89998 0.67774,-0.76758 0.25946,0.0585 0.39944,0.0783 0.43164,0.0527 h 0.002 l 0.002,-0.002 v -0.002 h 0.002 v -0.002 l 0.002,-0.002 v -0.002 -0.002 c -0.001,-0.034 -0.0787,-0.10373 -0.22461,-0.21094 -0.26797,-0.19689 -0.26023,-0.30728 -0.11133,-0.3125 z m -10.37695,0.0879 c 0.09882,0.10107 0.1543,0.21637 0.1543,0.3418 0,0.0398 0.0064,0.0818 0.01953,0.12304 -0.0014,0.003 -0.0044,0.009 -0.0059,0.0117 -7.5e-4,10e-4 -0.0012,0.003 -0.002,0.004 l -0.0039,0.002 h -0.02539 v 0.002 h -0.002 -0.002 l -0.002,0.002 h -0.0019 l -0.002,-0.002 h -0.002 -0.002 l -0.002,-0.002 -0.002,-0.002 c -0.03188,-0.0345 -0.0742,-0.19927 -0.11914,-0.48047 z m 4.39063,0.70117 0.46484,0.0801 c -1.23553,1.21928 -2.58478,2.95405 -3.78711,4.92969 -0.69864,1.14801 -1.36523,2.18216 -1.73242,2.70117 -0.0095,-0.23138 -0.0066,-0.56767 0.0059,-0.96875 0.24452,-0.37574 0.72762,-1.1328 1.25781,-1.97266 0.72764,-1.15261 2.13859,-2.97796 3.13477,-4.05664 0.24958,-0.27025 0.46874,-0.50553 0.65625,-0.71289 z m -4.58203,0.81836 h 0.002 l 0.002,0.002 h 0.002 0.002 l 0.0019,0.002 0.002,0.002 c 0.0185,0.0236 0.03101,0.10878 0.03321,0.25391 0.007,0.40806 -0.0936,1.3436 -0.22266,2.07812 -0.07483,0.426 -0.13012,0.69016 -0.16992,0.80274 3.4e-4,-0.41759 -0.0131,-0.81149 -0.04102,-1.1875 0.04011,-0.41853 0.10421,-0.87852 0.17969,-1.24805 0.0877,-0.42958 0.15527,-0.66554 0.19922,-0.69922 l 0.002,-0.002 0.002,-0.002 h 0.002 0.002 z m 14.51367,0.74609 c 0.11637,0.0362 0.16238,0.28485 0.12695,0.6543 -0.10656,-0.0667 -0.15037,-0.28497 -0.12695,-0.6543 z m -4.08789,0.54297 -0.19141,1.1287 c -0.17856,1.0451 -0.67425,2.12565 -1.11914,2.58594 l -0.07813,-0.68164 -0.9121,0.77929 c -0.0125,0.0107 -0.02469,0.0208 -0.03711,0.0312 -0.0021,-0.0224 -0.0035,-0.046 -0.0039,-0.0684 -0.003,-0.17118 -0.01873,-0.27712 -0.04883,-0.30468 h -0.002 l -0.002,-0.002 h -0.002 l -0.002,-0.002 h -0.002 -0.002 -0.002 c -8.2e-4,2e-5 -0.0049,-9e-5 -0.0059,0 h -0.002 c -0.0632,0.0179 -0.17606,0.23372 -0.35938,0.66797 -0.0045,0.0106 -0.0092,0.0225 -0.01367,0.0332 -0.60846,0.37071 -0.98537,0.29597 -0.54492,-0.27344 0.13811,-0.17822 0.40046,-0.72516 0.58398,-1.21484 0.15609,-0.41654 0.23834,-0.63818 0.27149,-0.67187 h 0.002 l 0.002,-0.002 h 0.002 v -0.002 h 0.002 0.002 0.002 v 0.002 l 0.002,0.002 v 0.002 c 0.0132,0.0383 -0.0118,0.23934 -0.0586,0.5957 -0.13015,0.9908 0.10418,1.02957 0.89649,0.14844 0.79918,-0.88876 1.13048,-1.57578 1.26367,-2.69727 z m 3.88476,1.34571 c 0.24171,0 0.43946,0.1257 0.43946,0.27929 0,0.37424 -0.45734,0.64141 -0.69141,0.4043 -0.32996,-0.33421 -0.20114,-0.68359 0.25195,-0.68359 z m -3.05273,0.44336 0.59765,0.74218 0.59571,0.74219 -0.17774,-0.89062 c -0.0667,-0.33368 -0.10147,-0.53137 -0.07812,-0.57813 l 0.0019,-0.002 0.002,-0.002 v -0.002 l 0.002,-0.002 h 0.002 v -0.002 h 0.002 0.002 0.002 0.002 c 4.4e-4,6e-5 0.0049,4e-5 0.0059,0 0.0642,0.0248 0.23844,0.30901 0.57617,0.88476 0.29321,0.49982 0.45539,0.87679 0.48633,1.12891 -0.01469,-0.0294 -0.02969,-0.0583 -0.04492,-0.0879 -0.27523,-0.5342 -0.4256,-0.79898 -0.48633,-0.82422 l -0.0039,-0.002 h -0.002 c -7.4e-4,5e-5 -0.0049,-1.5e-4 -0.0059,0 l -0.002,0.002 h -0.002 l -0.002,0.002 v 0.002 l -0.002,0.002 -0.0019,0.002 c -0.022,0.0416 -0.006,0.20246 0.03711,0.4668 0.04615,0.28321 0.03105,0.5682 -0.03125,0.76562 -0.0758,-0.0222 -0.16072,-0.0532 -0.25196,-0.0918 -0.02868,-0.10149 -0.0878,-0.20998 -0.17382,-0.30469 -0.24908,-0.27429 -0.37478,-0.29315 -0.57422,-0.0469 -0.34448,-0.13929 -0.67252,-0.22135 -0.96289,-0.24804 -0.0091,-0.13139 -0.0021,-0.29822 0.02148,-0.50977 0.03891,0.0126 0.07926,0.0266 0.11914,0.0391 0.6297,0.19644 0.68475,0.14675 0.52539,-0.48242 z m -8.03711,0.7832 h 0.002 c 10e-4,-3e-5 0.003,-7e-5 0.0039,0 h 0.0039 0.0039 v 0.002 h 0.002 0.0039 l 0.0039,0.002 h 0.002 v 0.002 l 0.0039,0.002 c 0.0366,0.0648 -0.15302,0.46752 -0.61133,1.21289 -0.86571,1.40799 -1.47595,2.70675 -1.83203,3.89844 -0.21923,0.32876 -0.37545,1.14929 -0.49414,2.53516 l -0.14454,1.6914 c -0.0081,-0.0608 -0.01692,-0.12612 -0.02734,-0.19531 l 0.0098,-1.99609 c 0.007,-1.3017 0.10278,-2.32781 0.21875,-2.41602 l 0.002,-0.002 h 0.002 l 0.002,-0.002 h 0.002 0.002 0.002 l 0.002,-0.002 h 0.0019 0.002 0.002 0.002 l 0.002,0.002 h 0.002 0.002 l 0.002,0.002 c 0.12898,0.082 0.25179,0.008 0.27149,-0.16407 0.0197,-0.17196 0.05061,-0.45084 0.07031,-0.61914 0.0197,-0.1683 0.16633,-0.39977 0.32422,-0.51562 0.15788,-0.11587 0.32242,-0.39013 0.36719,-0.60938 0.0447,-0.21926 0.5308,-1.1181 1.07812,-1.99804 0.04578,-0.0736 0.09037,-0.14393 0.13281,-0.21289 0.31208,-0.40174 0.51103,-0.60888 0.57813,-0.61719 z m -3.86719,0.19336 h 0.002 l 0.002,0.002 h 0.002 0.002 0.002 v 0.002 h 0.002 c 0.0085,0.007 0.01768,0.021 0.02734,0.043 -0.01219,0.0541 -0.02475,0.0886 -0.03515,0.10157 h -0.002 v 0.002 h -0.002 -0.0019 v 0.002 h -0.002 v -0.002 h -0.002 -0.002 l -0.002,-0.002 -0.002,-0.002 -0.002,-0.002 c -0.008,-0.0138 -0.0166,-0.041 -0.02344,-0.082 0.0085,-0.0309 0.01916,-0.0503 0.0293,-0.0586 l 0.002,-0.002 h 0.002 0.002 z m -6.56445,0.32031 c -0.03886,0.39538 -0.17632,1.0605 -0.41016,1.96289 -0.15082,0.0491 -0.24302,-0.26116 -0.15625,-0.86914 0.09985,-0.69969 0.2875,-1.06321 0.56641,-1.09375 z m 6.21875,1.78125 h 0.0019 c 4e-5,4e-5 0.0065,10e-4 0.0098,0.002 0.0247,0.01 0.05639,0.0558 0.08789,0.13672 0.083,0.21313 0.07186,0.46831 -0.02344,0.56641 -0.0194,0.0199 -0.03799,0.0268 -0.05469,0.0254 -0.0631,-0.0114 -0.10555,-0.17091 -0.0957,-0.41406 0.007,-0.17733 0.02875,-0.28126 0.06055,-0.3086 h 0.002 l 0.002,-0.002 0.002,-0.002 c 9.5e-4,-3.9e-4 0.0057,-0.003 0.0078,-0.004 z m 10.23633,0.14649 -0.0059,0.6875 c -2e-5,0.003 4e-5,0.007 0,0.01 -0.10166,0.49573 -0.19376,1.00516 -0.27344,1.49024 -0.07516,0.30114 -0.16276,0.61375 -0.25391,0.91406 l -0.52343,1.72461 -0.18555,-0.8418 c 0.1437,-0.50006 0.36126,-1.24628 0.58594,-2.01562 0.17833,-0.61069 0.32828,-1.26347 0.42773,-1.82227 1e-4,-5.7e-4 -10e-5,-0.001 0,-0.002 z m 5.67773,0.30273 h 0.002 0.002 0.002 0.002 c 0.001,5e-5 0.0029,0 0.0039,0 0.0352,-8.4e-4 0.073,0.0116 0.11328,0.0371 0.1638,0.10252 0.22171,0.31094 0.12891,0.46289 -0.25116,0.41163 -0.42578,0.33576 -0.42578,-0.18555 0,-0.18282 0.0682,-0.29994 0.16796,-0.3125 h 0.002 z m -21.4043,0.85547 c 0.004,-6.9e-4 0.0078,2.9e-4 0.01172,0 0.0743,-0.005 0.12164,0.0627 0.11914,0.22851 -0.0039,0.23493 -0.26666,0.74928 -0.58789,1.1543 0.0568,-0.35124 0.13092,-0.75101 0.2207,-1.16601 0.0045,-0.0209 0.0092,-0.0417 0.01368,-0.0625 0.08431,-0.0883 0.16204,-0.14399 0.22265,-0.1543 z m -1.74023,0.0801 c 6.7e-4,-1.5e-4 0.0049,7e-5 0.0059,0 h 0.002 0.002 c 0.0179,0.004 0.04955,0.0228 0.08985,0.0605 0.05744,0.0535 0.14436,0.0746 0.24219,0.0645 -0.01229,0.0868 -0.02415,0.17371 -0.03516,0.26172 -0.10205,-0.0303 -0.18862,-0.0915 -0.24219,-0.1875 -0.0513,-0.0919 -0.07486,-0.15568 -0.07226,-0.1836 v -0.002 -0.002 -0.002 l 0.002,-0.002 v -0.002 l 0.002,-0.002 0.002,-0.002 h 0.002 z m 15.76367,0.4707 c 0.01101,-5.6e-4 0.02059,0.005 0.0293,0.0137 l 0.0019,0.002 0.002,0.002 c 0.03804,0.0552 0.03621,0.32688 0.0039,0.70703 -7e-5,7.8e-4 7e-5,10e-4 0,0.002 l -0.30078,1.1543 c -0.18944,0.73071 -0.49006,1.90832 -0.66992,2.61719 -0.31862,1.25585 -1.72529,3.33297 -2.67383,4.07226 -0.01205,-1.3e-4 -0.02312,0 -0.03516,0 -0.62334,0 -1.13849,-0.0794 -1.16211,-0.17383 v -0.002 -0.002 -0.002 c 0.0199,-0.11359 0.66497,-0.77992 1.44922,-1.49415 1.35367,-1.23277 2.6543,-3.68025 2.6543,-4.99609 0,-0.54079 0.5108,-1.8908 0.70117,-1.90039 z m 8.22266,0.27539 c 0.0446,-0.002 0.07614,0.009 0.08984,0.0273 0.0322,0.0536 -0.0467,0.18528 -0.22461,0.40235 -0.40422,0.49336 -0.8789,0.59214 -0.8789,0.18164 0,-0.0806 0.06402,-0.17793 0.16406,-0.26563 0.06708,0.0514 0.14704,0.0781 0.23633,0.0781 0.22827,0 0.36903,-0.14507 0.37109,-0.36914 0.10639,-0.0338 0.18638,-0.0521 0.24219,-0.0547 z m -25.03711,0.33789 -1.05078,1.03906 c -0.55017,0.54508 -0.95503,1.04676 -0.93555,1.15039 v 0.0117 0.002 l 0.002,0.0117 v 0.0117 l 0.002,0.002 0.0039,0.002 h 0.002 v 0.002 0.002 c 0.04357,0.0726 -0.12334,0.32334 -0.38868,0.58398 -0.53294,-0.078 -0.71796,0.0376 -0.86328,0.44531 -0.14714,0.002 -0.31683,-0.0209 -0.52734,-0.0684 0.02458,-0.12214 0.04156,-0.22817 0.05078,-0.3164 0.50112,0.20173 0.6897,0.12278 0.61914,-0.24024 -0.0414,-0.21298 0.15237,-0.32929 0.45898,-0.27539 0.0067,0.001 0.0149,9.1e-4 0.02149,0.002 l -0.07813,0.10156 0.08985,-0.0996 h 0.0019 c 0.27021,0.0392 0.41846,-0.0398 0.33203,-0.1836 -0.0301,-0.0501 0.0044,-0.1455 0.08594,-0.26953 3.3e-4,-5e-4 -3.4e-4,-0.001 0,-0.002 l 0.60351,-0.65625 c 6.6e-4,-5.9e-4 0.0013,-10e-4 0.002,-0.002 0.11023,-0.0992 0.2285,-0.19864 0.35547,-0.29883 z m 19.5,0.36328 h 0.0019 0.002 0.002 0.002 0.002 0.002 0.002 l 0.002,0.002 h 0.002 l 0.002,0.002 h 0.002 v 0.002 l 0.002,0.002 c 0.0307,0.0454 0.007,0.24559 -0.07422,0.61133 -0.13744,0.62234 -0.25113,0.96755 -0.32227,1.00782 l -0.0019,0.002 h -0.002 -0.002 l -0.002,0.002 h -0.002 -0.002 -0.002 -0.002 l -0.002,-0.002 h -0.002 -0.002 l -0.002,-0.002 -0.002,-0.002 h -0.002 l -0.002,-0.002 -0.002,-0.002 c -0.0319,-0.0396 -0.05083,-0.18446 -0.04883,-0.4336 0.003,-0.31285 0.13721,-0.76882 0.30078,-1.01367 0.0678,-0.10149 0.12077,-0.16166 0.15235,-0.17383 z m -18.25,0.1875 c -0.01121,0.25641 -0.0135,0.49599 -0.0059,0.70703 0.01199,0.33118 0.01194,0.61694 -0.002,0.86328 -0.07672,-0.39604 -0.23409,-0.71516 -0.44921,-0.88867 -0.20438,-0.16487 -0.31921,-0.25411 -0.35157,-0.25976 h -0.002 -0.0019 -0.002 v 0.0117 h -0.002 v 0.0117 h -0.002 v 0.0117 0.01 c 0.006,0.0331 0.0872,0.14773 0.23633,0.34375 0.20979,0.27574 0.32674,0.932 0.26171,1.47461 l -0.04492,0.37891 c -0.0293,0.0249 -0.06032,0.0471 -0.09375,0.0664 l -0.02343,-0.55469 c -0.0253,-0.59933 -0.18211,-1.17599 -0.34766,-1.28125 -0.20606,-0.13097 -0.195,-0.32056 0.0332,-0.60351 0.18346,-0.22733 0.44,-0.34647 0.57032,-0.26367 0.05905,0.0375 0.13992,0.0256 0.22656,-0.0273 z m 0.47851,0.39649 c -5.4e-4,0.008 -0.0014,0.0173 -0.002,0.0254 l -0.0078,0.01 z m 23.5918,0.85156 h 0.002 0.002 0.002 0.002 l 0.002,0.002 0.002,0.002 c 0.036,0.0194 0.12191,0.11918 0.25391,0.28906 0.21998,0.28311 0.48494,0.42657 0.58984,0.32031 0.10498,-0.10627 0.1914,-0.0441 0.1914,0.13672 0,0.70335 -0.51807,0.6008 -0.84179,-0.16602 -0.14756,-0.34957 -0.21936,-0.53282 -0.21094,-0.57422 l 0.002,-0.002 v -0.002 -0.002 l 0.002,-0.002 h 0.002 z m -25.35742,0.19726 c 0.14334,-0.007 0.25755,0.0518 0.33789,0.17969 -0.0034,-0.002 -0.0064,-0.004 -0.0098,-0.006 -0.0604,-0.0378 -0.11728,-0.0535 -0.16406,-0.0488 -0.078,0.008 -0.12891,0.0716 -0.12891,0.17969 0,0.17286 0.13182,0.31446 0.29297,0.31446 0.04765,0 0.09294,-0.005 0.13282,-0.0137 0.0064,0.0662 0.0098,0.13785 0.0098,0.21485 0,0.24985 -0.02709,0.43687 -0.08398,0.57226 -0.24693,0.007 -0.55385,-0.0448 -0.9336,-0.14258 -0.27106,-0.0698 -0.51309,-0.13387 -0.72851,-0.18945 0.05989,-0.0816 0.14309,-0.18061 0.24414,-0.29492 0.41328,-0.46755 0.7698,-0.70718 1.03125,-0.7207 z m -0.11133,0.17579 -0.002,0.0117 v 0.0117 c -0.0353,0.009 -0.15042,0.0971 -0.34961,0.25782 -0.26767,0.21589 -0.48844,0.44213 -0.50196,0.51172 -1.1e-4,9.9e-4 0,0.005 0,0.006 0,0.24298 0.23631,0.0875 0.61133,-0.40429 0.15675,-0.20555 0.24332,-0.32731 0.25196,-0.36328 v -0.002 -0.002 -0.002 h -0.002 v -0.0117 h -0.002 -0.002 -0.002 v 0.004 h -0.002 z m 27.25977,0.14648 h 0.002 c 0.003,-7e-5 0.0058,0 0.0078,0 h 0.002 l 0.002,0.002 h 0.0019 0.002 0.002 c 4.7e-4,2.5e-4 0.0028,10e-4 0.0039,0.002 l 0.002,0.002 0.0019,0.002 0.002,0.002 c 2.9e-4,4.3e-4 0.0031,0.003 0.0039,0.004 v 0.002 c 0.0294,0.065 -0.0452,0.30141 -0.19141,0.57812 -0.17249,0.32646 -0.38034,0.59375 -0.46094,0.59375 -6e-4,-6e-5 -0.0038,-6e-5 -0.0059,0 h -0.002 v -0.002 h -0.002 l -0.002,-0.002 h -0.002 l -0.002,-0.002 -0.002,-0.002 -0.002,-0.002 -0.002,-0.002 c -0.0332,-0.0605 0.04089,-0.30084 0.18945,-0.58203 0.16709,-0.31625 0.36559,-0.57777 0.45118,-0.59375 z m -14.95899,0.38867 c 0.27691,-0.0244 0.1425,0.67949 -0.30469,1.32617 -0.25086,0.36277 -0.58408,0.66016 -0.74023,0.66016 -0.32103,0 0.44656,-1.64363 0.90039,-1.92773 0.0567,-0.0355 0.10497,-0.0551 0.14453,-0.0586 z m -3.97851,0.041 h 0.002 0.002 v 0.01 h 0.002 0.002 0.002 0.002 0.002 0.0019 0.002 l 0.002,0.0117 0.002,0.002 c 0.18581,0.12951 0.61621,2.81243 0.49805,3.09179 -0.02923,-0.0165 -0.05035,-0.0342 -0.06055,-0.0508 -0.0727,-0.11818 -0.81128,-0.41849 -1.64063,-0.66797 -0.0369,-0.0111 -0.07208,-0.0228 -0.10742,-0.0332 0.03115,-0.11518 0.07225,-0.2388 0.12305,-0.37109 0.03172,0.0115 0.06339,0.024 0.0957,0.0351 0.67417,0.2324 1.26577,0.39095 1.33008,0.35742 l 0.002,-0.002 c 0.0483,-0.0402 -0.0639,-0.95679 -0.25,-2.03906 -0.01645,-0.0957 -0.0324,-0.19335 -0.04687,-0.29102 0.01315,-0.009 0.02507,-0.0148 0.03516,-0.0176 z m -2.30665,0.47851 c 0.22564,-2.2e-4 0.30743,0.1994 0.04297,0.52735 -0.2547,0.31558 -0.30859,0.49686 -0.30859,1.02929 0,0.0247 -0.0051,0.0513 -0.01562,0.0781 -0.16626,0.0182 -0.2686,0.0858 -0.34376,0.20117 -0.16843,0.2578 -0.29148,0.25218 -0.48632,-0.0508 0.04229,-0.11404 0.16425,-0.19727 0.30664,-0.19727 0.23773,0 0.237,-0.10475 0,-0.39843 -0.2441,-0.30249 -0.1956,-0.51565 0.20312,-0.88672 0.22464,-0.20911 0.44722,-0.30259 0.60156,-0.30274 z m 0.01172,0.10743 -0.002,0.002 -0.0019,0.002 c -0.0383,0.0127 -0.14887,0.10031 -0.3418,0.25586 -0.27457,0.2214 -0.43033,0.52008 -0.34375,0.66406 0.0865,0.14397 0.23604,0.26172 0.33203,0.26172 0.096,0 0.09023,-0.0884 -0.01367,-0.19531 -0.10388,-0.10684 -0.028,-0.40556 0.16797,-0.66406 0.12911,-0.17026 0.20368,-0.27431 0.21484,-0.31055 v -0.002 -0.002 -0.004 -0.004 -0.002 h -0.002 v -0.002 h -0.002 -0.002 -0.002 -0.002 z m -9.79101,0.50781 c 0.19546,0.0341 0.37536,0.0611 0.50586,0.0762 -0.01972,0.08 -0.04173,0.16408 -0.06446,0.25391 -0.21154,0.83608 -0.69825,2.29821 -1.08007,3.25 -0.47392,1.18136 -0.68771,1.83488 -0.64649,1.91797 v 0.002 h 0.002 l 0.002,0.002 v 0.002 h 0.002 l 0.0039,0.002 h 0.002 0.002 0.002 0.0039 l 0.002,-0.002 0.0039,-0.002 c 0.0763,-0.0355 0.30797,-0.40982 0.68555,-1.14453 0.12703,-0.24718 0.25193,-0.4646 0.36914,-0.65039 -0.10911,0.2732 -0.22722,0.56123 -0.35352,0.86523 -0.41421,0.9967 -0.77798,1.93652 -0.97265,2.50196 -0.9675,1.34458 -1.96862,2.91717 -3.01758,4.73633 -5.6631,9.82112 -9.34856,19.85087 -11.35742,30.90624 -0.72083,3.96706 -0.78142,4.88864 -0.76172,11.85743 10e-6,0.004 -10e-6,0.009 0,0.0137 l -0.15625,3.28516 -0.04102,-5.9043 c -0.0626,-9.14436 0.70733,-13.60158 4.29883,-24.875 0.61435,-1.92835 1.23491,-3.447 1.40235,-3.45703 h 0.0039 0.002 0.002 l 0.0039,0.002 0.002,0.002 c 0.14261,0.0907 0.18943,-0.0236 0.10351,-0.2539 -0.15158,-0.40626 1.45521,-4.45618 1.77539,-4.52735 h 0.0039 0.002 c 0.003,3.2e-4 0.0068,9.2e-4 0.0098,0.002 h 0.002 0.002 0.002 l 0.0039,0.002 h 0.0039 c 9.5e-4,7.7e-4 0.0068,0.005 0.0078,0.006 0.0602,0.0806 -0.0835,0.53895 -0.32812,1.02539 -0.24847,0.49415 -0.4462,1.00296 -0.4375,1.13281 0.0172,0.27629 3.10712,-5.84754 3.1289,-6.20117 0.008,-0.13133 -0.13608,-0.14507 -0.31835,-0.0293 -0.0841,0.0534 -0.14183,0.0797 -0.17188,0.0742 h -0.0039 l -0.0039,-0.004 h -0.0039 l -0.002,-0.002 -0.0039,-0.002 h -0.0039 l -0.002,-0.002 -0.002,-0.002 -0.0039,-0.002 -0.002,-0.002 -0.0019,-0.002 v -0.002 -0.002 c -0.007,-0.0311 0.01521,-0.0958 0.07031,-0.1875 0.11425,-0.18994 0.31967,-0.27285 0.45703,-0.18555 0.35502,0.22565 2.37931,-3.60736 2.12695,-4.02734 -0.0574,-0.0955 -0.08076,-0.16029 -0.07226,-0.18946 l 0.002,-0.002 v -0.002 l 0.0019,-0.002 0.002,-0.002 0.002,-0.002 0.0039,-0.004 0.0019,-0.002 h 0.002 l 0.0039,-0.002 h 0.0039 0.0019 c 0.0358,-0.005 0.11228,0.0282 0.22461,0.0996 0.11704,0.0743 0.20529,0.0989 0.24609,0.082 0.0363,-0.0354 0.02198,-0.14287 -0.04492,-0.32227 -0.0989,-0.265 -0.0367,-0.57211 0.13867,-0.68359 0.0774,-0.0492 0.13052,-0.0718 0.15821,-0.0664 h 0.0039 0.0039 v 0.002 h 0.0039 0.0039 0.0039 l 0.002,0.002 0.0059,0.002 0.002,0.004 v 0.002 l 0.002,0.002 0.002,0.002 0.002,0.002 c 0.009,0.0351 -0.02325,0.11693 -0.09375,0.23437 -0.0681,0.11321 -0.09905,0.1906 -0.09375,0.22657 v 0.002 l 0.0019,0.002 0.002,0.002 v 0.002 0.002 l 0.002,0.002 0.002,0.002 0.002,0.002 0.0019,0.002 h 0.002 l 0.002,0.002 h 0.002 0.002 c 0.0297,0.005 0.0902,-0.0186 0.17774,-0.0742 0.18448,-0.11751 0.2682,-0.32797 0.18359,-0.46875 -0.08066,-0.13423 0.3171,-0.98592 0.89649,-1.92774 -0.0051,0.0253 -0.01164,0.0505 -0.01758,0.0742 -0.0692,0.27563 -0.10462,0.42928 -0.09961,0.46289 v 0.002 0.002 l 0.002,0.002 h 0.002 0.002 0.0019 c 0.0243,-0.0225 0.0906,-0.15797 0.20117,-0.39453 0.26381,-0.56432 0.53341,-1.17613 0.79688,-1.80664 0.06406,-0.14656 0.12581,-0.29508 0.18359,-0.44336 0.79758,-1.95181 1.52071,-4.00298 1.86719,-5.27734 z m 13.74805,0.0957 c 0.06577,0.30204 0.15532,0.5934 0.27148,0.875 0.01,0.0241 0.01949,0.0483 0.0293,0.0723 -0.03517,0.48116 -0.0929,0.80492 -0.16211,0.8457 l -0.002,0.0117 h -0.002 l -0.0019,0.002 h -0.002 c -0.001,-4e-5 -0.0029,-5e-5 -0.0039,0 h -0.002 -0.002 -0.002 -0.002 -0.002 -0.002 l -0.002,-0.002 h -0.002 -0.002 c -0.11494,-0.0719 -0.164,-0.85427 -0.10937,-1.80469 z m -0.9629,0.002 c 0.01965,0.0987 0.03974,0.18952 0.0625,0.27344 -0.0036,0.0132 -0.0061,0.0241 -0.0098,0.0293 h -0.002 l -0.002,0.008 v 0.0117 h -0.002 -0.002 -0.002 -0.002 v -0.0117 l -0.002,-0.008 -0.002,-0.002 c -0.01472,-0.0283 -0.02757,-0.13219 -0.03711,-0.30079 z m -6.77539,0.7793 c 0.03793,-8.5e-4 0.11281,0.056 0.22852,0.16406 0.13752,0.12844 0.2283,0.35832 0.24609,0.58789 -0.09808,0.18073 -0.11396,0.30898 -0.04882,0.39649 -0.03362,0.11093 -0.06763,0.18209 -0.09376,0.20508 l -0.002,0.002 h -0.002 l -0.002,0.002 -0.002,0.002 h -0.002 -0.002 -0.002 -0.002 -0.002 -0.002 l -0.002,-0.002 -0.0019,-0.002 h -0.002 l -0.002,-0.002 c -0.0114,-0.0138 -0.02274,-0.0464 -0.02734,-0.0937 -0.0187,-0.19068 -0.11838,-0.59165 -0.22266,-0.89063 -0.069,-0.19772 -0.09679,-0.31607 -0.07812,-0.35547 7.2e-4,-0.001 0.0031,-0.003 0.0039,-0.004 l 0.002,-0.002 0.002,-0.002 h 0.002 l 0.002,-0.002 h 0.002 l 0.002,-0.002 c 0.0022,-5.6e-4 0.0053,-0.002 0.0078,-0.002 z m 17.90821,0.54688 c 0.11909,0.1694 0.09082,0.44258 -0.08203,0.91015 -0.02366,0.064 -0.04575,0.13011 -0.06641,0.19727 0.01649,-0.38731 0.06459,-0.76562 0.14844,-1.10742 z m -1.66602,0.13672 c -0.0014,0.40782 -0.01161,0.71832 -0.03125,0.92578 -0.0059,-0.093 -0.0098,-0.20577 -0.0098,-0.33594 0,-0.29589 0.01546,-0.50114 0.04101,-0.58984 z m -19.8457,0.4121 c 0.05067,-1.2e-4 0.07617,0.0368 0.07617,0.11329 0,0.24746 -0.47267,0.91015 -1.05078,1.47265 -0.21677,0.21091 -0.43339,0.43366 -0.65235,0.66797 0.02825,-0.23512 0.09102,-0.55678 0.18165,-0.91992 0.16172,-0.11182 0.39605,-0.33853 0.65429,-0.64453 0.37667,-0.44635 0.66151,-0.68913 0.79102,-0.68946 z m 17.42383,0.11719 c 0.0737,-0.004 0.17955,0.0486 0.33203,0.14649 0.04162,0.0267 0.07981,0.052 0.11328,0.0762 -0.09957,0.31634 -0.18711,0.6127 -0.25391,0.86523 -0.29847,0.25698 -0.3457,0.10937 -0.3457,-0.55078 0,-0.36733 0.0315,-0.53034 0.1543,-0.53711 z m -10.9668,0.4668 h 0.0039 c 9.4e-4,-1e-4 0.0049,-2e-5 0.0059,0 4.4e-4,7e-5 0.0058,5e-5 0.0078,0 l 0.0019,0.002 h 0.002 l 0.002,0.004 0.002,0.002 c 0.003,0.004 0.009,0.0121 0.01172,0.0195 0.05407,0.15432 -0.12922,1.23785 -0.38867,2.47852 -0.01193,0.0416 -0.02271,0.0849 -0.03516,0.1289 -0.21833,0.77236 -0.4042,1.60468 -0.45508,2.01758 -0.04527,0.17976 -0.09089,0.35247 -0.13476,0.51563 -0.04547,-0.0385 -0.10677,-0.12006 -0.19141,-0.24219 -0.0796,-0.11492 -0.14338,-0.17952 -0.17969,-0.1875 h -0.0039 -0.0039 l -0.0019,0.002 h -0.0039 -0.002 l -0.0039,0.004 h -0.002 l -0.0039,0.002 -0.002,0.006 c -0.0393,0.0443 -0.02514,0.24912 0.03906,0.63672 0.04784,0.28902 0.05049,0.61236 0.01563,0.87891 -2.6e-4,0.002 2.6e-4,0.004 0,0.006 l -0.07813,0.21679 0.06055,-0.10156 c -0.02582,0.13709 -0.06418,0.25146 -0.11133,0.32813 -0.17879,0.2906 -0.27263,-0.14181 -0.29101,-1.3418 -0.0029,-0.1872 -0.0052,-0.35712 -0.0098,-0.50781 -3e-5,-8.9e-4 3e-5,-10e-4 0,-0.002 0.13184,-0.07 0.47654,-1.06463 1.02148,-2.96093 0.31055,-1.08073 0.61571,-1.8664 0.72852,-1.9043 z m 10.36133,0.18164 c 8.1e-4,-1.2e-4 0.0049,4e-5 0.0059,0 h 0.002 0.002 0.002 l 0.002,0.002 0.002,0.002 h 0.002 v 0.002 l 0.002,0.002 v 0.002 c 0.005,0.0264 -0.01872,0.0958 -0.07422,0.19531 -0.10758,0.193 0.0329,0.48883 0.3125,0.65625 0.2131,0.12759 0.30397,0.22503 0.26563,0.27539 -0.0191,0.0208 -0.06481,0.0356 -0.13282,0.0371 -0.20666,0.005 -0.29974,0.13482 -0.20703,0.28906 0.0927,0.15422 -0.0939,0.42532 -0.41406,0.60156 -0.02598,0.0143 -0.05024,0.0285 -0.07422,0.041 -0.08961,-0.07 -0.18825,-0.16785 -0.29883,-0.29492 -0.08546,-0.0982 -0.24691,-0.18787 -0.45117,-0.25977 0.39084,-0.32272 0.78243,-0.7987 0.77539,-1.05664 -0.004,-0.13532 0.0896,-0.33512 0.20703,-0.44336 0.033,-0.0304 0.05667,-0.0472 0.07227,-0.0508 z m -0.15625,1.05273 c -0.0604,0.006 -0.1483,0.0651 -0.27344,0.17188 -0.20393,0.17406 -0.37251,0.34323 -0.38281,0.38476 v 0.002 0.002 0.002 0.002 l 0.0019,0.002 0.002,0.002 c 0.0282,0.0297 0.18813,0.0527 0.37891,0.0527 0.21052,0 0.38281,-0.17476 0.38281,-0.38867 0,-0.16347 -0.03169,-0.24024 -0.10937,-0.23243 z m -7.51172,0.0762 c 0.0016,-6.1e-4 0.0045,3.1e-4 0.0059,0 h 0.0039 0.002 0.0019 0.002 l 0.0039,0.002 v 0.006 h 0.0039 v 0.002 c 0.015,0.0969 -0.60434,1.04903 -1.73243,2.64844 -0.33696,0.47776 -0.6449,0.92387 -0.93164,1.35742 -0.01354,-0.0688 0.01227,-0.20555 0.06055,-0.40039 0.06881,-0.2779 0.12858,-0.54144 0.17969,-0.79102 0.84979,-1.06448 1.85317,-2.27532 2.2539,-2.69335 0.07491,-0.0782 0.12256,-0.1218 0.14649,-0.13086 z m 10.875,0.10351 h 0.002 c 10e-4,4e-5 0.0029,4e-5 0.0039,0 h 0.002 c 0.0703,0.009 0.26691,0.27542 0.65625,0.83594 0.41364,0.59551 0.71525,1.11104 0.69531,1.18555 v 0.002 0.002 h -0.002 v 0.002 h -0.0019 v 0.002 c -0.0442,0.0256 -0.11436,0.0395 -0.20313,0.043 -0.3437,-0.5434 -0.61417,-0.80299 -0.61719,-0.58008 -0.002,0.16087 -0.01125,0.25963 -0.03515,0.28906 l -0.002,0.002 h -0.002 -0.002 v 0.004 l -0.002,0.008 h -0.0039 -0.002 -0.0039 -0.0039 l -0.002,-0.008 c -0.0409,-0.0114 -0.11441,-0.10826 -0.23047,-0.29297 -0.07949,-0.12649 -0.13903,-0.21004 -0.18164,-0.25 0.06684,-0.13034 0.06856,-0.39573 -0.0059,-0.72851 -0.0627,-0.28015 -0.09486,-0.45212 -0.07226,-0.50196 2.5e-4,-4.6e-4 0.0031,-0.003 0.0039,-0.004 v -0.002 -0.002 l 0.002,-0.002 0.002,-0.002 h 0.002 0.002 z m -15.44531,1.08203 h 0.0039 0.002 0.0059 0.002 c 0.0084,0.21243 0.02872,0.34658 0.05469,0.38282 v 0.002 l 0.002,0.002 v 0.002 h 0.002 0.002 l 0.002,0.002 h 0.002 l 0.002,0.002 h 0.002 0.0019 l 0.002,-0.002 h 0.002 0.002 l 0.002,-0.002 0.002,-0.002 c 0.0141,-0.0146 0.03107,-0.0531 0.04687,-0.11523 5.4e-4,-0.002 0.0014,-0.004 0.002,-0.006 0.03667,0.25207 0.02888,0.66324 -0.03125,1.14648 -0.01018,0.0819 -0.01968,0.159 -0.02734,0.23047 -0.01179,-0.10017 -0.02614,-0.16129 -0.04102,-0.18359 l -0.002,-0.006 -0.002,-0.002 h -0.002 v -0.004 h -0.002 -0.002 -0.002 -0.002 -0.002 l -0.002,0.004 c -0.0833,0.0679 -0.2145,1.12579 -0.39453,3.19532 -0.14355,1.64998 -0.30927,2.67273 -0.85547,4.41015 -0.72334,1.82694 -1.56059,4.16175 -2.69141,7.40235 -0.41203,1.18077 -0.80178,2.35555 -1.16992,3.52343 -0.02049,0.0562 -0.03922,0.11741 -0.05664,0.18164 -1.44552,4.61164 -2.4287,9.09849 -3.19141,13.53711 -0.0799,0.34212 -0.15247,0.57969 -0.24805,1.11524 -0.19032,1.06648 -0.27774,1.82055 -0.35351,2.48633 -0.06208,0.4721 -0.18403,0.9572 -0.23828,1.42773 l -0.32813,-0.56055 -0.43359,-0.73828 0.22851,0.73828 c 0.125,0.40595 0.16304,2.26548 0.08399,4.13282 -0.03194,0.7558 0.03243,1.41473 0.01172,2.2207 -0.13675,2.89761 -0.12347,5.77031 0.04297,8.62305 0.03463,1.11518 -0.04433,2.79994 0.01758,3.59765 0.11865,1.52922 0.16194,2.72612 0.09765,2.65821 -0.1103,-0.11607 -0.32791,-1.28074 -0.56055,-2.83203 -0.32405,-3.38041 -0.42819,-7.02023 -0.33398,-11.21094 0.0611,-2.71873 0.04967,-4.5502 -0.01953,-4.66016 v -0.002 l -0.0019,-0.002 -0.002,-0.002 h -0.002 -0.002 l -0.002,0.002 -0.002,0.002 c -0.0126,0.0205 -0.02942,0.0917 -0.04492,0.21094 -0.11718,0.89774 -0.22619,2.60776 -0.24219,3.80078 -0.01633,1.22329 -0.11296,1.9421 -0.26562,1.99414 0.02635,-5.83479 1.07451,-14.12054 2.58984,-20.04883 0.39431,-1.54257 0.72116,-2.93724 0.72656,-3.09961 0.002,-0.0476 0.0162,-0.081 0.0332,-0.0957 1.9e-4,-1.1e-4 0.0027,-0.005 0.0039,-0.008 6.3e-4,-0.001 0.0014,-0.003 0.002,-0.004 v -0.004 l 0.0039,-0.006 h 0.0039 0.0039 c 0.0438,-0.008 0.11708,0.0522 0.19336,0.17578 0.15364,0.24882 0.37033,0.009 0.66797,-0.73828 0.54324,-1.3635 1.14553,-4.48911 0.93359,-4.84179 -0.16649,-0.27704 2.82181,-9.8815 3.48438,-11.19922 0.06555,-0.13042 0.12119,-0.26014 0.16602,-0.37891 0.35997,-0.4205 0.64243,-0.26229 0.47265,0.58984 -0.0894,0.44889 -0.24169,1.08371 -0.33789,1.41016 -0.0197,0.0669 -0.02884,0.11197 -0.02734,0.13086 v 0.008 l 0.0039,0.002 v 0.002 h 0.0039 v 0.002 h 0.0039 0.0039 0.0039 l 0.0039,-0.002 h 0.0039 c 0.046,-0.0374 0.18874,-0.30198 0.38672,-0.73047 0.30256,-0.65476 0.72431,-2.68386 0.93945,-4.52539 0.20448,-1.75022 0.48591,-3.19827 0.64258,-3.33008 0.003,-0.003 0.01113,-0.009 0.01563,-0.0117 z m 15.41211,0.24805 c -0.0084,0.0557 -0.01287,0.13593 -0.01368,0.24023 -6.3e-4,0.0854 -0.01186,0.1721 -0.02929,0.25196 -0.16766,-0.0703 -0.2793,-0.14636 -0.2793,-0.21289 0,-0.15238 0.13267,-0.27735 0.29688,-0.27735 0.0084,0 0.01756,-4e-4 0.02539,-0.002 z m -3.38672,0.77344 c 0.02088,0.0132 0.03932,0.0255 0.05664,0.0391 0.05383,0.042 0.11444,0.08 0.17773,0.11133 -0.02882,0.29325 -0.0936,0.71213 -0.20703,1.33594 -0.13998,0.11652 -0.31687,0.74534 -0.59766,2.05468 -0.23588,1.09985 -0.46384,1.85107 -0.57226,1.92578 l -0.002,0.004 -0.002,0.002 -0.0039,0.004 h -0.002 -0.0039 c -9.4e-4,6e-5 -0.0049,5e-5 -0.0059,0 h -0.002 -0.002 -0.002 l -0.002,-0.004 -0.0039,-0.002 -0.0039,-0.004 h -0.002 l -0.002,-0.0117 c -0.01,-0.0131 -0.01834,-0.0391 -0.02344,-0.0762 -0.0505,-0.36536 -0.20255,-0.66406 -0.33789,-0.66406 -0.13532,0 -0.30471,-0.23148 -0.37696,-0.51562 -0.0044,-0.0156 -0.0097,-0.0299 -0.01367,-0.0371 l -0.002,-0.0117 -0.002,-0.002 -0.002,-0.0117 h -0.002 v -0.008 h -0.0039 -0.002 v 0.008 h -0.002 l -0.002,0.0117 c -0.04494,0.0614 -0.08873,0.63897 -0.11524,1.50391 0.002,-1.62665 0.0928,-2.6177 0.23047,-2.6875 h 0.002 l 0.002,-0.002 c 0.0123,-8.3e-4 0.02791,0.004 0.04101,0.0176 0.14966,0.15506 0.31715,0.74901 0.37305,1.32031 0.0209,0.213 0.05605,0.34979 0.09375,0.38476 l 0.0039,0.002 h 0.002 0.0019 0.002 c 9e-4,6e-5 0.0068,1e-5 0.0078,0 h 0.002 0.002 l 0.0059,-0.002 h 0.002 c 0.11505,-0.0479 0.31808,-0.783 0.70508,-2.46093 0.22271,-0.96564 0.43587,-1.76193 0.58985,-2.22461 z m 5.36914,1.05859 c 4.4e-4,0.009 0.0015,0.0178 0,0.0234 l -0.002,0.002 v 0.002 0.002 0.002 0.002 l -0.002,0.002 h -0.002 -0.0039 -0.002 -0.002 l -0.002,-0.002 h -0.002 c -0.006,-0.002 -0.01165,-0.006 -0.01953,-0.0117 0.01298,-0.007 0.02451,-0.0149 0.03711,-0.0215 z m -28.93555,0.0977 -0.47656,0.59375 c -0.26241,0.32647 -0.6074,0.86105 -0.76563,1.1875 l -0.28711,0.59375 0.47657,-0.59375 c 0.26242,-0.32645 0.60739,-0.86103 0.76562,-1.1875 z m 28.51758,0.32031 c 0.42802,-0.0172 0.75976,0.0175 0.75976,0.12891 0,0.0607 -0.51866,0.69171 -1.15234,1.40234 -1.07538,1.20596 -1.86326,2.8785 -2.16211,4.50391 0.08909,-1.63298 0.67485,-3.52152 1.44922,-4.62305 0.44333,-0.63066 0.52297,-0.91583 0.25586,-0.92383 -0.0266,-8.2e-4 -0.04489,-0.007 -0.05469,-0.0156 h -0.04492 l -0.002,-0.002 v -0.0117 l -0.002,-0.006 -0.002,-0.01 v -0.004 -0.002 c 3e-5,-0.001 6e-5,-0.0107 0,-0.0117 l -0.0039,-0.002 v -0.002 c 0.0066,-0.065 0.19612,-0.20948 0.50782,-0.38671 0.1553,-0.0166 0.30849,-0.0294 0.45117,-0.0352 z m -8.06836,0.31641 0.0918,1.11328 c 0.002,0.0248 0.0045,0.0489 0.0059,0.0742 -0.78388,0.43195 -2.51218,2.6982 -2.91602,3.91406 -0.43728,1.31654 -1.13191,2.25442 -3.10156,4.18554 -1.03384,1.01356 -1.66406,2.06946 -2.79492,4.67969 -5.26826,12.16008 -8.47549,28.87846 -7.97657,41.58399 0.0949,2.41656 0.11823,4.33716 0.05078,4.26758 -0.03006,-0.0309 -0.06151,-0.10453 -0.09375,-0.2168 -0.79805,-7.61829 -0.49138,-15.7282 0.91602,-23.55078 0.70983,-3.94522 2.69321,-12.4908 3.33984,-14.39453 0.70287,-2.06932 0.73221,-2.56048 0.14454,-2.33204 -0.24172,0.0939 -0.43946,0.0127 -0.43946,-0.18164 0,-0.36635 1.69457,-4.78925 1.92383,-5.02148 v -0.002 h 0.002 v -0.002 l 0.002,-0.002 v -0.002 h 0.002 v -0.01 h 0.0039 0.002 0.002 0.0059 0.002 v 0.002 h 0.0039 l 0.002,0.002 0.0039,0.002 c 0.0438,0.0753 0.02151,0.62393 -0.05859,1.32813 -0.0524,0.46065 -0.07765,0.76253 -0.03125,0.83203 v 0.002 h 0.002 v 0.002 0.002 h 0.002 v 0.002 0.002 l 0.0039,0.002 h 0.002 l 0.0039,0.002 0.0039,0.002 h 0.0039 0.0039 0.0039 0.0039 0.0039 0.002 c 5.4e-4,-5e-5 0.0068,-4e-5 0.0078,0 0.14154,-0.0399 0.57008,-0.90221 1.58594,-3.0039 1.4399,-2.97899 2.09437,-3.97001 3.69336,-5.59766 1.25776,-1.28028 2.23951,-2.62004 2.78125,-3.79883 0.46033,-1.00166 1.27822,-2.28639 1.81836,-2.85351 z m 5.10156,0.13476 h 0.0039 0.002 0.0039 0.0039 0.002 0.0059 v 0.0117 l 0.0039,0.004 v 0.004 0.002 l 0.002,0.004 v 0.006 c 0.0138,0.1383 -0.6318,1.38985 -1.9336,3.72266 -0.0086,0.0153 -0.01691,0.0297 -0.02539,0.0449 0.01303,-0.20039 0.07786,-0.662 0.17578,-1.24609 0.04517,-0.0689 0.09093,-0.14043 0.13867,-0.21485 0.98011,-1.5276 1.51822,-2.30293 1.61719,-2.33789 z m -15.9375,0.0254 h 0.0039 0.0039 0.002 0.0019 l 0.002,0.002 h 0.002 v 0.006 h 0.002 l 0.0039,0.002 v 0.002 l 0.0039,0.002 c 0.0153,0.0449 -0.0316,0.22614 -0.11914,0.55078 -0.11006,0.4081 -0.4241,1.07437 -0.69922,1.48243 -0.08768,0.13005 -0.20714,0.37467 -0.34375,0.69531 -0.21622,0.27146 -0.49442,0.67894 -0.76758,1.13086 -0.49074,0.81189 -1.08396,1.47657 -1.31835,1.47656 -0.2344,0 -0.62668,0.29345 -0.8711,0.65234 -0.24442,0.35891 -0.69281,0.79015 -0.99805,0.95899 -0.95343,0.52743 -4.8889,6.91009 -6.92382,11.23047 -3.16429,6.71813 -5.09385,12.41743 -6.69727,19.78125 -1.1214,5.15018 -1.3983,7.57385 -1.58594,13.875 l -0.10547,5.90429 -0.5,-1.96874 c -0.12682,-0.49968 -0.21976,-0.96363 -0.27734,-1.38282 0.01178,-0.458 0.02028,-1.03701 0.02539,-1.74414 l 0.17188,-0.80859 0.1582,1.32812 c 0.087,0.73069 0.16137,-1.39391 0.16797,-4.72265 0.0039,-2.30718 0.06988,-4.36644 0.21875,-6.34375 0.53609,-3.6084 1.40178,-7.32653 2.68555,-11.72461 2.4657,-8.44721 6.88248,-18.0836 9.96484,-21.74219 0.44878,-0.53269 1.01871,-1.36799 1.26758,-1.85547 0.24887,-0.48749 0.64807,-0.88476 0.88672,-0.88476 0.23864,0 0.72003,-0.33412 1.07031,-0.74219 0.35029,-0.40807 0.80048,-0.74219 1,-0.74219 0.19951,0 0.65862,-0.50118 1.01953,-1.11328 0.3609,-0.6121 0.90481,-1.38058 1.20898,-1.70703 0.30418,-0.32645 0.75144,-0.8591 0.99414,-1.18555 0.19311,-0.25973 0.30017,-0.40224 0.3418,-0.41211 z m -11.72461,2.65235 c -0.02105,0.008 -0.05873,0.0464 -0.11328,0.11328 -0.60889,0.74782 -3.08322,5.3099 -3.07422,5.66797 0.006,0.24452 0.50959,-0.62688 2.75586,-4.77735 0.29419,-0.54354 0.45432,-0.90726 0.45117,-0.99023 -1.3e-4,-0.001 2.3e-4,-0.003 0,-0.004 v -0.002 -0.002 l -0.002,-0.002 -0.002,-0.002 h -0.002 v -0.002 h -0.0019 -0.002 -0.002 -0.002 -0.002 c -0.0013,3.1e-4 -0.0025,-5.7e-4 -0.0039,0 z m 23.98047,1.60156 h 0.002 0.002 0.0019 c 0.0409,0.008 0.14957,0.13962 0.33789,0.39844 0.34361,0.47224 0.39543,0.81968 0.19727,1.32812 -0.11711,0.30046 -0.1839,0.47077 -0.22266,0.5 h -0.0019 l -0.002,0.002 h -0.002 l -0.002,0.002 h -0.002 -0.002 -0.002 l -0.002,-0.002 h -0.002 l -0.002,-0.002 -0.002,-0.002 v -0.002 c -0.0275,-0.0426 -0.03477,-0.23789 -0.04297,-0.59375 -0.01,-0.43324 -0.0989,-1.03263 -0.19727,-1.33007 -0.0498,-0.15054 -0.0724,-0.25002 -0.0664,-0.28711 v -0.002 l 0.002,-0.002 0.002,-0.002 v -0.002 h 0.002 v -0.002 h 0.002 z m -0.39062,0.63476 c -0.032,2.17241 -0.27175,3.96386 -0.88282,6.66211 -1.18546,5.23452 -2.01068,9.44314 -2.125,10.83399 -0.85339,10.37909 -0.77539,16.92858 0.27149,23.77929 -0.41838,-2.52052 -0.82309,-5.18531 -1.04102,-7.48828 l -0.41992,-4.45312 0.12695,4.24414 c 0.05263,1.73671 0.03868,3.20145 -0.02734,3.80273 -0.04735,-0.28074 -0.09181,-0.55444 -0.13086,-0.81445 -0.57878,-3.85353 -0.80971,-12.36714 -0.45703,-16.85742 0.29029,-3.69616 1.11977,-8.99001 1.98828,-13.19531 0.21735,-0.53802 0.34087,-0.61543 0.41602,-0.29883 0.0274,0.11543 0.06029,0.18169 0.09179,0.19531 h 0.0039 0.0039 0.0039 0.0039 v 0.002 h 0.0039 0.0059 l 0.0039,-0.002 h 0.002 l 0.0039,-0.002 h 0.0039 l 0.0039,-0.002 h 0.0039 c 0.0717,-0.0398 0.15722,-0.32531 0.2539,-0.86523 0.25247,-1.40985 0.72032,-1.96493 0.76172,-0.90234 0.003,0.0665 0.0135,0.10785 0.0293,0.125 l 0.002,0.002 0.0039,0.002 0.002,0.002 0.002,0.002 h 0.002 0.002 0.002 0.0039 l 0.0039,0.002 h 0.0019 0.002 0.002 v -0.002 h 0.002 c 0.0936,-0.0269 0.29468,-0.48245 0.52734,-1.22852 0.30896,-0.99078 0.48112,-2.09334 0.53907,-3.54297 z m 4.35351,2.12696 c -0.01083,0.79593 -0.19994,1.71666 -0.42773,2.07422 -1.41876,2.22691 -3.90982,12.8285 -4.76367,20.27148 -0.32691,2.84961 -0.45285,8.9922 -0.32618,14.04297 -0.38621,-6.90673 -0.12014,-14.57759 0.84375,-20.36719 0.13998,-0.84074 0.09921,-1.09911 -0.14648,-0.94531 -0.37121,0.23239 -0.47083,-1.52234 -0.1543,-2.71875 0.24583,-0.92913 0.69209,-0.83376 0.70899,0.15039 9e-4,0.0526 0.008,0.0887 0.01757,0.10547 l 0.002,0.0117 0.0039,0.002 0.002,0.006 0.0039,0.002 h 0.002 0.0039 0.002 0.0039 0.0039 0.002 l 0.0039,-0.002 h 0.002 0.0059 c 0.10544,-0.0707 0.38155,-0.89168 0.69727,-2.11523 1.0017,-3.8821 2.69443,-8.9997 3.20117,-9.67774 0.12009,-0.1607 0.22993,-0.47283 0.30859,-0.83984 z m -29.98437,6.58203 c -5.9e-4,0.007 -0.0014,0.0141 -0.002,0.0215 -0.01252,0.15639 -0.12509,0.35526 -0.27148,0.50391 -0.0019,-0.02 -0.002,-0.0405 -0.002,-0.0625 0,-0.24399 0.12335,-0.44668 0.27539,-0.46289 z m 26.19336,0.99219 h 0.002 0.002 l 0.002,0.002 h 0.002 0.002 0.002 0.002 0.002 c 0.0244,0.0127 0.05534,0.059 0.08594,0.13672 0.0847,0.21424 0.07386,0.47171 -0.02344,0.57031 -0.0974,0.0986 -0.1671,-0.0778 -0.1543,-0.39062 0.007,-0.16713 0.0294,-0.27184 0.0586,-0.30665 9.9e-4,-0.001 0.0029,-0.003 0.0039,-0.004 l 0.002,-0.002 h 0.0019 v -0.002 h 0.002 c 8e-4,-3.1e-4 0.0056,-0.003 0.0078,-0.004 z m -2.42578,3.54882 h 0.002 c 0.002,-2.4e-4 0.0078,-3.4e-4 0.0098,0 -0.0277,0.15914 -0.05361,0.31795 -0.08007,0.47461 -0.003,-0.0473 -0.0042,-0.10089 -0.002,-0.1582 0.007,-0.17178 0.03045,-0.27933 0.06055,-0.31055 l 0.002,-0.002 0.002,-0.002 h 0.002 0.002 z m -15.21094,1.17969 h 0.0019 c 4e-5,0 0.0065,0.001 0.0098,0.002 0.0247,0.01 0.05639,0.0557 0.08789,0.13672 0.083,0.21312 0.07186,0.46831 -0.02344,0.56641 -0.0209,0.0215 -0.04089,0.0286 -0.05859,0.0254 -0.0609,-0.017 -0.10124,-0.17578 -0.0918,-0.41406 0.007,-0.1718 0.03035,-0.27748 0.06055,-0.3086 0.002,-0.001 0.0078,-0.005 0.0098,-0.006 h 0.002 z m 14.92968,0.29492 h 0.002 l 0.002,0.002 h 0.002 c 0.01134,0.003 0.02334,0.0148 0.03711,0.0332 -0.03179,0.20313 -0.06207,0.40344 -0.09179,0.60351 -0.02215,-0.0728 -0.03284,-0.18425 -0.02735,-0.32226 0.007,-0.17179 0.03035,-0.27747 0.06055,-0.30859 l 0.002,-0.002 0.002,-0.002 h 0.002 0.002 l 0.002,-0.002 h 0.002 0.002 z m -29.98828,3.80078 -0.002,0.002 h -0.002 -0.002 c -0.0719,0.0354 -0.2159,0.3538 -0.375,0.86523 -0.2285,0.73452 -0.40573,1.40268 -0.39453,1.48438 0.002,0.0164 0.009,0.0343 0.01367,0.043 h 0.002 l 0.002,0.002 v 0.002 h 0.0019 0.002 l 0.002,0.002 h 0.002 0.002 0.0019 c 0.15692,-0.0354 0.79164,-1.80677 0.78711,-2.27539 -7.1e-4,-0.0663 -0.009,-0.10514 -0.02344,-0.11914 l -0.002,-0.002 h -0.0019 l -0.002,-0.002 h -0.002 l -0.002,-0.002 h -0.002 -0.002 -0.0019 z m 29.43164,0.36719 h 0.002 0.0019 c 0.003,-1.1e-4 0.0058,-1.4e-4 0.0078,0 h 0.002 0.002 0.002 c 2.5e-4,1.4e-4 0.0026,0.003 0.0039,0.004 h 0.002 c 0.0136,0.0109 0.02998,0.0345 0.04492,0.0684 -0.02614,0.27734 -0.04954,0.55476 -0.07226,0.83398 -0.03895,-0.0337 -0.06836,-0.19613 -0.06836,-0.45117 0,-0.26006 0.02816,-0.42196 0.06836,-0.45117 l 0.002,-0.002 z m -0.25781,3.57031 h 0.002 0.002 v 0.002 h 0.002 l 0.002,0.002 h 0.002 c 0.0153,0.0183 0.03328,0.0859 0.05078,0.20508 h -0.002 c 0.0054,0.0364 0.01108,0.0743 0.01562,0.11328 -0.01965,0.48135 -0.03601,0.97439 -0.04883,1.48047 -0.004,0.009 -0.0082,0.0152 -0.01172,0.0195 l -0.002,0.002 -0.0019,0.002 h -0.002 -0.002 -0.002 -0.002 v -0.002 h -0.002 l -0.002,-0.002 -0.002,-0.002 -0.002,-0.002 c -0.036,-0.0618 -0.06009,-0.40652 -0.05859,-0.94726 10e-4,-0.50386 0.02444,-0.81308 0.05664,-0.86524 l 0.002,-0.002 h 0.002 l 0.002,-0.002 h 0.002 z m -15.8125,0.5625 -0.002,0.002 h -0.0019 c -0.0418,0.0233 -0.07227,0.18671 -0.07227,0.45312 0,0.24102 0.02329,0.39849 0.05859,0.44336 9.5e-4,0.001 0.0049,0.005 0.0059,0.006 l 0.002,0.002 0.002,0.002 h 0.002 l 0.002,0.002 h 0.0019 0.002 c 0.001,8e-5 0.0049,9e-5 0.0059,0 h 0.0019 0.002 0.002 0.002 0.002 v -0.002 c 0.0155,-0.0104 0.03533,-0.0396 0.05273,-0.084 0.0797,-0.20298 0.0797,-0.53532 0,-0.73828 -0.0174,-0.0444 -0.03528,-0.0716 -0.05078,-0.082 -0.002,-0.001 -0.0078,-0.003 -0.0098,-0.004 -0.001,-9e-5 -0.0048,-8e-5 -0.0059,0 z m -14.91015,1.14844 c -0.0275,0.009 -0.0652,0.064 -0.11133,0.16992 -0.1551,0.35617 -0.35165,1.49218 -0.43555,2.52344 -0.0716,0.88003 -0.10073,1.31377 -0.07422,1.37109 l 0.002,0.002 v 0.002 l 0.002,0.002 h 0.0019 v 0.002 h 0.002 l 0.002,-0.002 h 0.002 l 0.002,-0.002 c 0.0317,-0.0385 0.09611,-0.27782 0.19532,-0.6875 0.36195,-1.49411 0.5615,-3.21788 0.43554,-3.37109 l -0.0039,-0.004 -0.002,-0.002 -0.002,-0.002 h -0.002 -0.002 l -0.0019,-0.002 h -0.002 c -7.6e-4,3e-5 -0.0049,-1e-4 -0.0059,0 z m -0.875,4.96485 -0.002,0.002 h -0.0019 v 0.002 l -0.002,0.002 -0.002,0.002 c -0.0368,0.0436 -0.0625,0.26962 -0.0625,0.63281 0,0.36317 0.0258,0.59302 0.0625,0.63672 l 0.002,0.002 h 0.002 v 0.002 h 0.0019 0.002 0.002 v 0.002 h 0.0019 0.002 v -0.002 h 0.002 0.0019 l 0.002,-0.002 h 0.002 l 0.002,-0.002 c 0.0145,-0.0148 0.03078,-0.0547 0.04688,-0.11719 0.0737,-0.28564 0.0737,-0.75341 0,-1.03906 -0.015,-0.058 -0.02947,-0.0946 -0.04297,-0.11133 l -0.0059,-0.006 -0.002,-0.002 h -0.002 l -0.0019,-0.002 h -0.002 -0.002 -0.0019 z m 14.64062,0.57812 -0.002,0.002 h -0.002 c -9.3e-4,7.2e-4 -0.0049,0.005 -0.0058,0.006 -0.03351,0.041 -0.05901,0.21691 -0.0625,0.5 -0.004,0.32137 0.02024,0.53481 0.06054,0.58594 9.8e-4,10e-4 0.0049,0.005 0.0059,0.006 l 0.0019,0.002 v 0.002 h 0.002 0.002 0.002 0.002 v 0.002 h 0.0019 0.002 0.002 0.002 l 0.002,-0.002 h 0.002 0.0019 0.002 v -0.002 c 0.0133,-0.009 0.02867,-0.0327 0.04297,-0.0684 0.0806,-0.20093 0.08602,-0.60186 0.01172,-0.89062 -0.0209,-0.0812 -0.04215,-0.12631 -0.06055,-0.13867 l -0.002,-0.002 h -0.002 -0.002 l -0.002,-0.002 h -0.0019 -0.002 z m -14.94531,1.68164 -0.002,0.002 h -0.002 l -0.0019,0.002 h -0.002 -0.002 c -0.041,0.0294 -0.07031,0.19366 -0.07031,0.45508 0,0.26142 0.02736,0.42376 0.06836,0.45312 l 0.0019,0.002 0.002,0.002 h 0.002 0.0019 0.002 c 0.002,-4e-5 0.0048,8e-5 0.0059,0 3e-5,-3e-5 0.0068,-9.6e-4 0.0098,-0.002 0.0158,-0.0105 0.03493,-0.0393 0.05273,-0.084 0.0812,-0.20403 0.0812,-0.53816 0,-0.74219 -0.0178,-0.0446 -0.03498,-0.0715 -0.05078,-0.082 -0.002,-10e-4 -0.0078,-0.003 -0.0098,-0.004 h -0.002 -0.002 v -0.002 z m 31.89258,1.28906 h 0.002 0.002 0.002 0.002 0.002 l 0.002,0.002 h 0.002 l 0.002,0.002 c 0.0159,0.017 0.03268,0.0731 0.05078,0.16992 h 0.002 c 0.0091,0.0491 0.01692,0.10027 0.02343,0.1543 0.02018,0.16747 0.02748,0.35377 0.02344,0.5293 -0.0044,0.19121 -0.02226,0.37056 -0.05469,0.49804 -0.0137,0.0537 -0.02881,0.0885 -0.04101,0.10157 l -0.002,0.002 h -0.002 l -0.002,0.0117 h -0.002 -0.002 -0.002 -0.002 l -0.002,-0.0117 h -0.002 v -0.002 l -0.002,-0.002 c -0.0388,-0.0474 -0.06666,-0.32801 -0.06446,-0.76758 0.002,-0.39959 0.02705,-0.64268 0.06055,-0.68359 l 0.002,-0.002 z m 0.27929,4.01954 h 0.002 0.002 l 0.002,0.002 h 0.002 0.002 l 0.002,0.002 c 0.01502,0.0131 0.03381,0.0487 0.05078,0.10742 0.01825,0.19996 0.03682,0.39986 0.05664,0.59766 -0.0072,0.12474 -0.0264,0.23774 -0.05859,0.31836 -0.0138,0.0352 -0.03037,0.0607 -0.04297,0.0703 l -0.002,0.002 -0.002,0.002 h -0.002 -0.002 -0.002 -0.002 -0.002 -0.002 l -0.002,-0.002 h -0.002 v -0.002 h -0.002 -0.002 l -0.002,-0.004 c -0.0412,-0.0442 -0.06895,-0.26057 -0.06445,-0.58789 0.004,-0.29685 0.02885,-0.47421 0.06445,-0.50195 l 0.002,-0.002 h 0.002 0.002 0.002 z m 0.5625,8.14257 c 0.02357,0.0154 0.05182,0.0604 0.08008,0.13282 0.05885,0.15109 0.07129,0.32289 0.03906,0.44531 -0.03958,-0.18909 -0.07971,-0.38261 -0.11914,-0.57813 z m -31.31445,1.53516 c 0.01061,0.30721 0.01755,0.61075 0.0293,0.87891 h -0.002 -0.002 -0.002 v -0.002 h -0.002 l -0.0019,-0.002 c -0.0385,-0.0348 -0.06641,-0.19551 -0.0664,-0.44922 0,-0.21493 0.01772,-0.36435 0.04687,-0.42578 z m 32.85742,2.25391 h 0.002 0.002 0.002 0.002 0.002 0.0019 l 0.002,0.002 h 0.002 0.002 0.002 v 0.002 h 0.002 0.002 l 0.002,0.004 0.002,0.0117 h 0.002 v 0.0117 h 0.002 c 4e-4,7.5e-4 0.0039,0.0107 0.0039,0.0117 v 0.004 0.002 0.0117 c 0.011,0.0142 0.01953,0.0407 0.01953,0.0762 0,0.16238 -0.12625,0.49472 -0.2793,0.73829 -0.05717,0.0909 -0.10984,0.15637 -0.15429,0.19531 -0.02268,-0.0977 -0.04872,-0.20617 -0.07813,-0.32422 0.04947,-0.16029 0.13497,-0.35075 0.23242,-0.50586 0.0909,-0.14452 0.17179,-0.22739 0.22266,-0.23633 z m -33.42578,0.83007 c -0.002,5.3e-4 -0.0078,0.003 -0.0098,0.004 l -0.002,0.002 -0.0019,0.002 h -0.002 c -0.0308,0.0312 -0.05345,0.13768 -0.06055,0.31054 -0.009,0.22484 0.02448,0.38 0.08008,0.41211 0.0209,0.01 0.04842,0.005 0.07422,-0.0215 0.0975,-0.0986 0.10628,-0.35608 0.02148,-0.57031 -0.0336,-0.0851 -0.06394,-0.12949 -0.08984,-0.13672 h -0.002 -0.0019 -0.002 -0.002 v -0.002 z m 33.71289,0.0566 h 0.002 0.002 0.0019 c 9.5e-4,-2e-5 0.0049,-9e-5 0.0059,0 h 0.002 0.002 v 0.002 h 0.002 0.002 l 0.002,0.002 h 0.002 l 0.002,0.002 0.002,0.0117 h 0.002 l 0.002,0.002 c 0.0129,0.0138 0.02344,0.0439 0.02344,0.082 0,0.16237 -0.12624,0.49471 -0.2793,0.73828 -0.10043,0.15975 -0.18933,0.24169 -0.23828,0.23437 l -0.0019,-0.004 h -0.002 -0.002 -0.002 -0.002 l -0.002,-0.0117 h -0.002 l -0.0039,-0.002 -0.002,-0.002 c -0.0125,-0.0136 -0.02148,-0.042 -0.02148,-0.0801 0,-0.16237 0.1243,-0.49472 0.27734,-0.73828 0.0927,-0.14745 0.17592,-0.23009 0.22656,-0.23633 z m 0.20899,1.13672 h 0.002 0.002 c 0.003,-1.3e-4 0.0058,0 0.0098,0 0.0697,0 0.12695,0.13253 0.12695,0.29493 0,0.16237 -0.13748,0.29492 -0.30469,0.29492 -0.16719,0 -0.22253,-0.13254 -0.125,-0.29492 0.0915,-0.15225 0.21632,-0.27974 0.28907,-0.29493 z m 0.63085,0.41602 0.002,0.002 0.002,0.002 0.002,0.002 c 0.01176,0.0159 0.01591,0.0489 0.01172,0.0996 -0.0052,-0.0333 -0.01128,-0.0684 -0.01758,-0.10547 z m -0.18554,0.11523 c 0.05517,0.15263 0.10073,0.26778 0.13672,0.3418 -0.01195,0.0511 -0.02625,0.10577 -0.04102,0.16602 -0.14711,0.60251 -0.10819,0.75883 0.14844,0.5957 0.21328,-0.13555 0.32315,-0.0665 0.2832,0.17773 -0.0359,0.21927 0.089,0.78473 0.27735,1.25586 0.65778,1.64504 0.13159,1.47402 -0.64258,-0.20898 -0.71401,-1.55226 -0.74226,-1.73803 -0.32422,-2.16797 0.06174,-0.0635 0.11651,-0.11737 0.16211,-0.16016 z m -19.41602,1.16602 h 0.002 0.0019 0.002 0.002 0.002 0.002 l 0.0019,0.002 0.002,0.002 h 0.002 c 0.0172,0.0151 0.03734,0.0604 0.05664,0.13672 h 0.0019 c 0.0725,0.28726 0.06689,0.68685 -0.01171,0.88672 -0.0135,0.0344 -0.02687,0.0548 -0.03907,0.0645 v 0.002 h -0.002 l -0.0019,0.002 c -9.5e-4,8.7e-4 -0.0029,0.003 -0.0039,0.004 h -0.002 -0.002 -0.0019 -0.002 -0.002 -0.002 l -0.002,-0.002 -0.0019,-0.002 h -0.002 c -0.0429,-0.0372 -0.07286,-0.25493 -0.06836,-0.58984 0.003,-0.28163 0.02775,-0.45536 0.06055,-0.4961 l 0.002,-0.004 h 0.002 l 0.002,-0.002 h 0.002 v -0.002 z m -12.94531,1.05078 h 0.002 0.002 0.002 0.002 0.002 c 9.6e-4,-5e-5 0.0049,0 0.0059,0 v 0.002 c 0.0239,0.0126 0.05388,0.0594 0.08398,0.13672 0.083,0.21312 0.07186,0.46831 -0.02344,0.56641 -0.0223,0.023 -0.04585,0.0287 -0.06445,0.0234 -0.0586,-0.0226 -0.09534,-0.17865 -0.08594,-0.41211 0.007,-0.17195 0.0284,-0.2756 0.05859,-0.30664 l 0.002,-0.002 0.002,-0.002 h 0.0019 l 0.002,-0.002 0.002,-0.002 h 0.002 0.002 0.0019 z m 13.20117,0.5918 h 0.002 0.002 0.002 c 0.002,4e-5 0.0068,-9e-5 0.0098,0 h 0.0019 l 0.002,0.004 c 0.0239,0.0126 0.05389,0.0575 0.08399,0.13477 0.083,0.21312 0.07186,0.4683 -0.02344,0.56641 -0.0239,0.0245 -0.04876,0.0289 -0.06836,0.0215 -0.0565,-0.027 -0.09123,-0.1816 -0.08203,-0.41016 0.007,-0.1713 0.03045,-0.27894 0.06055,-0.31054 h 0.002 0.002 v -0.002 l 0.002,-0.002 h 0.0019 0.002 z m 1.46485,1.50781 c 0.001,-8e-5 0.0049,-9e-5 0.0059,0 l 0.002,0.002 0.002,0.002 0.002,0.002 h 0.002 0.0019 c 0.0155,0.0104 0.03534,0.0396 0.05273,0.084 0.07971,0.20298 0.07971,0.53339 0,0.73633 -0.0174,0.0444 -0.03528,0.0716 -0.05078,0.082 -0.002,10e-4 -0.0078,0.005 -0.0098,0.006 -10e-4,8e-5 -0.0049,7e-5 -0.0059,0 -0.002,-4.7e-4 -0.0078,-0.003 -0.0098,-0.004 l -0.002,-0.002 -0.002,-0.002 v -0.002 h -0.002 c -0.0369,-0.04 -0.0625,-0.19985 -0.0625,-0.44727 0,-0.24736 0.02355,-0.40726 0.06055,-0.44726 l 0.002,-0.002 0.002,-0.002 h 0.002 c 0.002,-0.001 0.0078,-0.005 0.0098,-0.006 z m 0.26562,2.0293 h 0.002 0.002 0.002 l 0.002,0.002 c 0.0247,0.0101 0.05639,0.0558 0.08789,0.13672 0.083,0.21312 0.07187,0.4683 -0.02343,0.5664 -0.0183,0.0188 -0.03869,0.0274 -0.05469,0.0274 h -0.002 -0.002 c -0.0609,-0.017 -0.10124,-0.17774 -0.09179,-0.41602 0.007,-0.1718 0.03044,-0.27747 0.06054,-0.30859 0.002,-0.001 0.0078,-0.005 0.0098,-0.006 h 0.002 0.002 0.002 z m -0.73828,0.29882 c 0.03209,0.14792 0.06462,0.29302 0.0957,0.4336 -0.01062,0.0182 -0.02226,0.0353 -0.0332,0.0527 -0.0957,0.15213 -0.18033,0.23507 -0.23047,0.23633 h -0.002 l -0.002,-0.002 h -0.0019 -0.002 -0.002 -0.002 -0.002 l -0.0019,-0.002 -0.002,-0.002 h -0.002 l -0.002,-0.002 -0.002,-0.002 h -0.002 c -0.0125,-0.0136 -0.02148,-0.042 -0.02148,-0.0801 0,-0.13986 0.09148,-0.40612 0.21484,-0.63282 z m 0.24805,1.11133 c 0.16948,0.74123 0.31832,1.3513 0.4414,1.8125 -0.05972,-0.12681 -0.11989,-0.26817 -0.17968,-0.42187 -0.27275,-0.70107 -0.35594,-1.13627 -0.26172,-1.39063 z m 0.8164,0.40039 c 7e-4,1e-5 0.0049,-7e-5 0.0059,0 h 0.002 0.002 0.002 l 0.002,0.002 0.002,0.002 0.0019,0.002 0.002,0.002 0.002,0.002 c 0.0359,0.0535 0.0156,0.28334 -0.0625,0.70117 -0.1353,0.72377 -0.09629,0.94677 0.14257,0.79492 0.19694,-0.12517 0.33204,-0.0231 0.33204,0.25 0,0.53828 -0.19981,0.58498 -0.4668,0.24219 -0.03697,-0.32063 -0.11634,-0.82902 -0.24414,-1.54297 -0.0061,-0.0342 -0.01151,-0.0693 -0.01758,-0.10351 0.03998,-0.0303 0.09172,-0.0988 0.1582,-0.20313 0.0602,-0.0944 0.10756,-0.14359 0.13672,-0.14844 z" /></svg>
