<svg xmlns="http://www.w3.org/2000/svg" xml:space="preserve" width="578.37" height="230mm" viewBox="0 0 153.03 230"><path d="M65.9 89.9c-.72.8.96.25 0 0m-5.88.3c-.11.06.2.02 0 0m.07.03c5.12 1.9 8.52-1.26 12.32 3.55 1.07-4.31-9-3.2-12.32-3.55M73 92.66c-1.39 2.96 2.33-.3 0 0m-12.18-1.74q-.02 0 0 0m-.82-.7c-3.55-1.35-3.63 3.58-.65.8.38.05.93.9 1.48.25-1.18-.96 1.14.97-.83-1.04m-.53.95c1.38.4-.5-.64 0 0m3.46-.38c-1.03.65-.77.48 0 0m-6 .11c-.86.98 1 .62 0 0m1.32.47c-.42 1.12 2.38.81 0 0m.8.71c-1.8-.12.95 1.14 0 0m2.8-.66c-.46.09-.3 1.32 0 0m4.76.09c-1.25.6 1.31.72 0 0m-6.92.36c-.46.09.24.52 0 0m7.98.07H68zm-2.63.01c-.42 1.12 2.38.82 0 0m.8.72c-2.46-.27 1.13 1.73 0 0m3.34-.72c-.43 1.12 2.38.82 0 0m.8.72c-1.8-.13.95 1.14 0 0M61.86 92c-1.1.63 1.02.4 0 0m4.5.34c.02.65-.07.02 0 0m-9.24.03c-.42 1.09.63.45 0 0m13.5.08c-.47.09.24.52 0 0m-14.58.25c-.18.25.63.62 0 0m-.57.2c-.38 1.5-.86 1.27.58.91l.02-.35zm-2.97.2c-3.94-.44-12 4.36-11.66 5.3 3.32-2.68 9.91-3.43 11.66-5.3m4.27.02c-.42 1.11 2.38.81 0 0m.8.71c-1.8-.13.95 1.14 0 0m9.75-.59c-2.28 1.79.92 1.23 0 0m.81.11c-.56.26.6.45 0 0m-7.46.2c-4.62 1.03.97.92 0 0m-5.93.04c-.54.43-.4.32 0 0m3.48.02c-.47.1.23.53 0 0m6.37.25c-1.1 1.22 1.85 1.14 0 0m-8 .02c-.47.06-.96 1.85 0 0m-3.35.16c-.61.37-.15 1.34 0 0m7.73 0c-.41.08-1.26 1.82 0 0m11.65.09c.71.87 2.16.12 0 0m-.57.09c-.8.27.51.7 0 0m-2.87.06c-.43 1.12 2.38.81 0 0m.8.71c-1.8-.12.95 1.15 0 0m-14.64-.55c-1.32 1.37.2.2 0 0m8.17.04c-1.06.6.92.44 0 0m12.6.11c-.36 2.67 8.34 2.68 2.5 1.43-.79-.53-1.53-1.21-2.5-1.43m-13.74.01c-2.58.93.99 1.01 0 0m10.17.05c.78 2.8 1.6.46 0 0m-20.53.1c-.52.44-.02.62 0 0m18.61.03c-.47.09.24.52 0 0m-16.17.13c-.67.37.14.49 0 0m-2.35.22c-1.02.66 2.17.37 0 0m12.38.07c-1.16.69.5.47 0 0m-.23.46c-5.26-.36-3.3 2.28 0 0m-4.56-.45c-1 .58.57.54 0 0m9.05.04c-.47.31.32.56 0 0m-12.58.19c-.89.28.55 3.8 0 0m-.25.98q0 0 0 0m4.3-.93c-2.83 1.2.88 1.05 0 0m.64.19c-.68.36.14.48 0 0m-5.86.03c-1.63-.12.43 1.97 0 0m-.3.8c-.9-1.28-2.97 1.85.05.39zm13.54-.74c-.57.28.4.6 0 0m-.56.33c-.62.63 1.01.85 0 0m-21.04.13c-.4.9.63.35 0 0m27.75.03c-3.78 1.73.23 1.74 0 0m-2.64.17c-.93.7 1.14.42 0 0m-5.02.09.25.02zm-15.28 0c-2.57 2.62 3.6-.9.44.25zm13.31.02c-.53 1.48 2.57.96 0 0m-1.57.1.33.01zm-9.53 0c.15.62-1.01.27 0 0m3.54.04c-.91.5.35.35 0 0m-.1.3c-2.86 1.83 6.07 0 0 0m19.17-.24c-.35.77.69.34 0 0m-9.44.05c-.67.25.48.47 0 0m1.2.03c-2.14.5 1.1 1.14 0 0m3.25.02c-1.15 1.13 2.26.86 0 0m.82.05c-.17.26.64.63 0 0m-2.22.22c-.5.85 1.09.27 0 0m-15.17.08c-.62.45.6.5 0 0m-2.28.02c-.6.8.99.33 0 0m-5.04 0-.36.1zm30.75.03c-.72 1.44 1.2.42 0 0m-.86.05c-.26.5.68.44 0 0m-29.04.03c-.35.28.22.51 0 0m-3.22.03c-2.27.93 1.23 1.12 0 0m-1.48.19c-1.31 2.2 2.36 1.72 0 0m32.78.12h.4zm-.8.02c-.58.27.4.6 0 0m-7.36.09c-3.65.23-1.11 1.52 0 0m1.62 0c-.42 1.12 2.38.82 0 0m.8.72c-1.8-.13.95 1.14 0 0m9.15-.7c-.04.43 1.4.67 0 0m-18.08.07c-6.54.87 5.02.91 0 0m-12.84.03c-2.37.53.32 3.97 0 0m8.7.1c-1.06.4-1.13.43 0 0m-3.39.01c-.43.16-1.08 2.04 0 0m17.1.27c-.47.1.24.53 0 0m-5.72 0c0 .92 2.81 1.02 0 0m7.63.1c-5.42.78 5.68.47 0 0m-14.7.06.25.02zm22.51.17c-2.11.96.86 2.78 0 0m-38.28.09c-2.28.94-.37 1.3 0 0m19.65.18c-4.7.35 1.05.86 0 0m.6.07c-.77 1.13 1.04.43 0 0m-2.66.03c-.85.5.62.46 0 0m22.61.04c.77 3.33 8.44 4.03 5.57 5.73 8.86 4.2-1.9-4.26-5.57-5.73m9.1 6.94c2.13 1.75 2.28.7 0 0M39.2 99.1c-.2.19.2.7 0 0m3.53 0-.34.25zm6.78.14c-.24.51.4.43 0 0m9.12.02c-1.05 1.33 2.52.3 0 0m-20.22.08c-2.54.24-9.1 6.54-6.34 4.77 1.8-1.62 5.52-2.65 6.34-4.77m-3.81 1.95.44-.3zm11.78-1.94c-.68.96 1.24.44 0 0m4.7.06c-1.42 2.24 2.1.74 0 0m14.16.04c-4.7-.1 1.72.88 0 0m3.26.03c-.35.27.22.51 0 0m1.86.03c-.53 1.49 2.68 1.52 0 0m-29.44.01c-3.46 1.63 2.38.42 0 0m12.44.01c-.86.57-1.48.97 0 0m13.77.09c.38.72 3.35.95 0 0m-23.48.17c-.15 3.32 3.98 2.01 0 0m-1.7.03c-.54.42-.4.32 0 0m37.54.08c-.21.86 1.5.06 0 0m-34.1.04c-1.64 2.02 2.15.63 0 0m26.41.07c-.46.09.24.53 0 0m9.29.02c-.08.47 1.34.58 0 0m-32.26 0c-.22.27-2.93 3.17 0 0m1.35.04c-1.82 1.37.26 2.19 0 0m20.5.12c.94-.54.31 1.23 0 0m-1.3.02c-.52.2.16.73 0 0m-22.87 0c-2.32 1.5 1.67.93 0 0m-8.24 0c-.15.65.51.05 0 0m46.5.05c.28.44-1.1 1 0 0m-.6.07c.68.62-.2.8 0 0m-5.36.11c-.5 1.98 4.81 2.02 0 0m-8.9.1c-.02 1.5 2.33 1.6 0 0m-28.58.28c-1.07.57 1.06.77 0 0m6.2.02c-.54.42-.4.32 0 0m-7.76.03c-.08.57.7-.12 0 0m45.17.04c.42.13-.41.48 0 0m-46.12.03c-.27-.01.08.57 0 0m7.29.24c-.47.09.23.52 0 0m25.5.47c-1.06.43-1.54.63 0 0m12.09.05.38.06zm-35.2.15c-.52 1.48 2.68 1.51 0 0m-4 .23c-1.14.78.8.8 0 0m-5.88.17c-1.46.93-1.87 1.19 0 0m11.33.1c-.47.08.23.52 0 0m11.55 0c-3.82.96-1.8 2.4-2.05 2.78-.86.65 3.18 6.65 5.85 5.48 5.73-.05-5.61-6.51-1.3-5.14.18-.32-1.05-3.8-2.5-3.11m-1.64 4.84c-.12-.62-.42.62 0 0m-.78-1.55c.04-.86-.47.53 0 0m.3-.4.07-.1zm-10.55-2.72c.94-.54.3 1.23 0 0m17.3.02c-1.2 1.95 2.6 1.39 0 0m-11.53.05c-4.56.9.88.69 0 0m4.42.02c-1.52 1.21-.26.74 0 0m-12.02.01c-3.44 1.45.98 1.9 0 0m-13.76.03c.78.13-.07.59 0 0m37.82 0c-.08.57.71-.12 0 0m-1.57.02c-2 .2 1.4.35 0 0m14.37.21c-.6 1.12 2.07 1.02 0 0m-3.34.12c-.47.09.23.52 0 0m-23.22.06c-1.37 1.86 1.43.83 0 0m-9.04 0c-1.41.77.8.87 0 0m-11.39.08c-.76.66 1.12.65 0 0m17.46.01c-.4.58.1.43 0 0m16.85 0c-2.3.58 4.74.25 0 0m-22.18.1c-.63.08.38.6 0 0m10.9.15c.52.05-.14.65 0 0m-8.07.08c-.98.5 1.31.22 0 0m-12.73.08c-.16.49 1.06 1.56 0 0m29.26.08.24.02zm-28.4.04c-.7 1.48 2.27 1.91 0 0m18.8.02c-.27.5.43.4 0 0m-22.77 0c-.7.33-.36.17 0 0m49.12 0c-.4.15.07 1.26 0 0m-11.41.02c-.74 2.36 2.63.69 0 0m13.48.04c-.46.1.24.53 0 0m-52.73.05c-.29.95.94.2 0 0m42.13.03c-.33.25.29.5 0 0m-29.55.05c-.42 1.12 2.38.81 0 0m.8.71c-1.8-.12.95 1.14 0 0m2.74-.71c-.42 1.12 2.38.81 0 0m.8.71c-1.8-.12.95 1.14 0 0m10.18-.6c.58.16-.35.36 0 0m-3.27 0c-.41.42.5.51 0 0m13.58 0c-.68.5.97.68 0 0m-15.9.08c-2.4 1.53 3.6.92 0 0m21.84.06c-.7.29.44.66 0 0m-44.18.05c-3.13 1.47.53 1.5 0 0m23.95.05c-.3.56.46.69 0 0m-13.02.02c-1.94.4.85.64 0 0m28.16.02.25.02zm12.14.04c-.47.58.47 1.2 0 0m-36.38.06c-.46.1.24.53 0 0m3.54 0c-.46.1.24.53 0 0m23.84 0c-4.17 1.9.9 2.4 0 0m-34.77.09c-.28.93.94.22 0 0m36.26 0c-.02 1.03 4.05 2.07.44.53zm-4.9.09c-.43.4 1.02 1.32 0 0m-7.36.01c-1.23 1.07.39.35 0 0m-28.9.02c-.27.5.43.4 0 0m17.82 0c-.27.5.43.4 0 0m14.19.1c-3.52.31 6.07 4.51 1.31 2.87-6.55-2.63 4.96 3.8-.46 2.85 1.25 1.59.58.9 1.66.61 2.18 1.38 6.03 4.75 2.92.24-.48-3.38-2.7-5.54-5.43-6.56m1.87 2.7.24-.06zm-24.2-2.55c-.7.35-.43.21 0 0m-4.4.1c-.48.76.73.07 0 0m-5.8.04c-.98.52.72.33 0 0m21.53.05c-.45.6.4.86 0 0m-19.01.01c.64 1.4.93.38 0 0m.71.13c-.1.36.92 1.19 0 0m33.73.04c-.02.45 2.18 2.4.6.65zm-23.9.05c-.3.56.46.7 0 0m-6.12.09c1.25 1.44.75 1.3 0 0m-3.18 0c-1.11 1.75 2.3.88 0 0m45.31.01c.17 1.07 1.9.11 0 0m-54.59.06c-4.18 2.32 2.14 1.41 0 0m21.5.06c-1.4.73.2.55 0 0m-13.93.02c-1.4.78-.16 1.14 0 0m48.37.04c-.7.4.94.82 0 0m-35.52.07c-.71.4-.5.28 0 0m-16.61.08c-.06.41.95 1.11 0 0m18.92.03c.93 1.73 1.26.48 0 0m-.23.01c-1.03.51.59.79 0 0m-8.6.11c-.46.1.24.53 0 0m35.47.01c-.55.26.43.6 0 0m-33.37.08c-.42 1.12 2.38.81 0 0m.8.71c-1.8-.12.95 1.14 0 0m-5.31-.54c-.35.28.21.52 0 0m-5.58.09c-1.04.02.74.58 0 0m52.9.01c-1.38 4.07 5.6 2.21 0 0m-53.87 0c-1.58.97 1.2.93 0 0m23.86.02c-1.08.59.47.73 0 0m-25.08.01c-.55.26.43.6 0 0m23 0c-.34.3.22.51 0 0m15.58.09.25.02zm-49 .04c-7.88 1.6-.93 12.82-4.27 18.58-1.76 6.25 1.37 12.96-2.06 18.94-2.22 3-.8 9.53.8 2.85-.87-.52-.16.43-.95-.7 2.93-4.44 3.16-17 3.46-17.37-1.08-4.68 2.22-12.22-.56-18.45-1.07-5.46 12.14-2.2 3.58-3.85m-4.76 22.46.04-.32zm28.9-22.4c-.46.1.24.53 0 0m-15 .02.24.02zm40.4 0 .25.02zm-32.1.05c-.35.27.22.5 0 0m8.57 0c-.35.27.22.5 0 0m-.73 0c-.88 1.32.38 1.37 0 0m25.6.06c-.4.34.63.65 0 0m11.07.11c-2.4 1.26 1.45.63 0 0m-17.68.03c.94.43-.08.69 0 0m7.39.01c-.47.16-1.3-.1 1.18.43zm-16.57.03c-1.08.58.47.73 0 0m-14.75.07c-.42 1.12 2.38.82 0 0m.8.72c-1.8-.13.95 1.14 0 0m29.04-.72c1.69 1.86 1.8.02 0 0m20.01.02c2.94 1.61.16 2.84 2.39 1.04l-.99-.53zm.86 1.95c.76-1.27-2.52.77 0 0m-10.99-1.91c-.87 2.9.72.82 0 0m-49.48.05c-.75.88-.68.8 0 0m42.44.04c-.71.82 2.08 1 0 0m-22.95.21c-.33.33.34.64 0 0m-.7.07c-.64.22.43.6 0 0m-7.59.07c-.46.09.24.53 0 0m37.9.08c-.34.29.22.5 0 0m.88.18c-.27-.04.06.58 0 0m-33.28.02c-.98 1.09.87 1.65 0 0m3.65.05c-.95 1.05 1.93 1.8 0 0m-24.92.03c.74 1.77 2.67.34 0 0m17.58.02c-.42 1.11 2.38.8 0 0m.8.7c-1.8-.12.95 1.15 0 0m-16.7-.67c-.7.8 1.2.39 0 0m48.98.16c-.34-.39.83 1.02 0 0m-7.97.07c1.18 1.04-1.17 2.3 0 0m-.21.75c.82.56.15-.6 0 0m11.08-.72c-3.32 2.98-.06 2.65 1.47.61-.53-.65-1.83.86-1.47-.61m-6.83 0c-.5.2.2.7 0 0m-22.6.12h.4zm4.97.06c-.37.55 1.86 1.1 0 0m-10.08.01c-.46.1.24.53 0 0m43.5.01c1.08.07 1.71.1 0 0m-57.05.08c-.42 1.12 2.38.81 0 0m.8.72c-1.8-.13.95 1.14 0 0m46.77-.62c-.53.1.4.55 0 0m-26.8.12.34.01zm25 .11c-.53 1.07 1.55.23 0 0m-52.42.02c-1.2 1.5 1.58 2.27 0 0m11.55.04c-.45.27.31.56 0 0m34.72.05c-.78.48.38.82 0 0m-15.74.01c-.38.46.54.35 0 0m-36.04.01c-.23.46 1.17 1.07 0 0m13.6.04c-.46.09.24.52 0 0m14.56.02c-.04 1.08 1.68.49 0 0m18.89 0c3.14.74-.44 1.21 0 0m25.08.03c-.7 1.23 1.38.92 0 0m-52.56.02c-.86.49.81.25 0 0m7.72.03h.4zm2.36 0c-.47.32.32.56 0 0m-22.83.13.24.02zm-.45.02c-.64.23.44.6 0 0m25.13.05c-3.3.28 2.15 1 0 0m-22.45.05c-1.28.52.37.87 0 0m8.13.03c-.42 1.11 2.38.8 0 0m.8.7c-1.8-.12.95 1.15 0 0m34.46-.7c.13 1.07 1.38.49 0 0m21.69.01c-3.99 2.29 6.52 1.66 0 0m-22.02.07c-.43.38.6.63 0 0m22.67.07c2.67 1.39-2.24 2.05 0 0m-19.4.09c-.53.1.4.55 0 0m-14.6.06c.78.26-.8.87 0 0m-8.26.06c-.97.9 1.28.9 0 0m13.44.01c-.66.26.49.47 0 0m15.56.03c-.35.26.24.5 0 0m-42.9.09c-.46.09.24.53 0 0m-8.53.09c-.53 1.48 2.68 1.52 0 0m-7.65.02c.77 1.17.8.24 0 0m64.23.02c-.53.1.4.55 0 0m-65.06.1c-.67.5.98.66 0 0m3.2.02c-1.84.73 1.72 1.16 0 0m26.76 0h.34zm1.6.03c-.66.96 2.17.45 0 0m29.17.09.17.12zm-8.9.03c-.55.3.13.93 0 0m-53.36.1c-2.98 2.72.49 11.6 2.2 3.56.71-2.34-.2-2.83-2.2-3.56m11.46.08c-.47.1.23.53 0 0m57.07.11c-.43 2.04-2.95.2.12 2.14 2.79 3.45 1.47-2.14-.12-2.14m-54.08.04c-.66.25.49.47 0 0m-4.1.03c.93-.54.3 1.23 0 0m-2 0c-.48.33.32.55 0 0m-.45.04c-.35.27.24.49 0 0m26.6.09.24.02zm-.59.01c-.12.31 1 .68 0 0m-7.37.1c-3.33 1.13.62 1.35 0 0m-17.35.01.24.03zm23.94 0 .25.03zm-25.95.12c.16 1.86 3.13-.51 0 0m-1.4 0c-.9.32.92.68 0 0m53.21 0c-.78 1.1 1.64.9 0 0m17.28.01.24.03zm-41.55.1c.12.83 2.62.81 0 0m36.3 0c-3.58.75 2.5 1.35 0 0m-9.58.11c-4.35 2.44 1.78 2.58 0 0m-22.54.04c-2.63.66 4.04.53 0 0m-35.4.08c-1.43 1.4 1.94.62 0 0m50.47.06c.75.94.6.74 0 0m-12.4.01c.27 2.27 5.08 2.45 0 0m-19.74 0c1.24 1.45.75 1.32 0 0m5.17.07c-2 .62 1.02.96 0 0m-2.17.14-.22.36zm49.58.04c-.62.2.67.41 0 0m-14.65.03c-.33.34.17.75 0 0m-51.6.13c-.38 1.16 1.72.4 0 0m-.4.03c-.43.04-.8 1.51 0 0m57.06 0c-1.76.52 1.34 1.43 0 0m-32.58.02c-3.73-.06.75.93 0 0m-8.97.04c-.47.1.23.53 0 0m11.51.09c1.68 1.28 3.03.24 0 0m-23.88 0c.67 1.32 1.4 1.34 0 0m28.63.03.25.02zm37.46.02c-.4.6.58.26 0 0m-49.17 0c-.64.45 1.08.96 0 0m12.34.03c-.33.45.78.6 0 0m4.55.03c-1.35.77.27 1.05 0 0m-45.58.06c1 .12 1.22 2.71 0 0m.13.36.39.3zm59.47-.22c-.9.51.88.83 0 0m5.08 0c.03.4 1.25 1.16 0 0m-59.2.11c-.62.2.67.41 0 0m3.09.03c-.35.28.22.52 0 0m25.64 0c-.72.36.77.68 0 0m-21 .04c-.46.09.24.53 0 0m53.56.04c.27.7 1.57 2.1.8.8zm6.28 0 .25.03zm-65.09.04c-.82.9-.12 1.01 0 0m64.06 0c-.36.38 1.24 1.06 0 0m-57.6 0c-.42 1.13 2.39.82 0 0m.8.72c-1.79-.12.96 1.14 0 0m4.25-.64c-.4.59-.28.41 0 0m11 .02.24.02zm11.55 0c-1.79 2.08 4.24 2.24 0 0m-8.89.09c-1.98 1.19 3.4 1.64 0 0m3.19.03.24.03zm1.12.1c-1.89.4 2.5 1.5 0 0m17.09.03c-.09.59 1.32 1.8 0 0m-15.64.11c-.3.44 1.17 1.1 0 0m-23.02.04c-.47.1.24.53 0 0m38.18.12c1.4 2.43 4.53 7.79 2.9 2.12-1.54-1.03-1.48-.6-2.9-2.12m1 .7c1.03 1.6.5-.7 0 0m-2.13-.68c.19.4 1.48 1.18 0 0m-48.59.09c-.54.42-.4.32 0 0m62.67 0c-.2-.3.79 1.6 0 0m-42.7.06c-.34.78.49.53 0 0m47 .04c2.04 3.46 2.3 1.26 0 0m-37.53.01c1.08.65-.86.1 0 0m-11.47.02c-.45.65-.29.42 0 0m16.45.1c-.43.38.6.63 0 0m9.87.06c-.37.36 1.23 1.06 0 0m-41.11 0c-.45.28.31.57 0 0m54.7.08c-.14.5.63.39 0 0m-43.06.07c-.53 1.49 2.68 1.52 0 0m24.25.06.17.12zm-38.85.1c-3.64 3.32 1.74.27 0 0m61.59.01c-.15 2.21 1.88.5 0 0m-30.7.05c-.79.67 1.22.6 0 0m-19.39.1.17.11zm28.2.03c-.75.15-.38.08 0 0m11.94.1c-.13.38.9 1.16 0 0m-35.6.05c-.46.09.24.52 0 0m-13.61.07c-.7.29.44.66 0 0m5.08.01c-.42 1.12 2.38.82 0 0m.33.68c-.44 1.08 1.69.1 0 0m59.15-.65c-.61.38.66.46 0 0m-33.65 0c-.36.29.25.48 0 0m-18.4.06c.93-.54.3 1.24 0 0m-1.6.04c-.19 2.95.38.01 0 0m-11.56.03c-.57.47.56.53 0 0m21.4 0c-7.2.16-2.45 9.73 2.62 4.87-5.1-.35-.75-1.7 1.07-3.48a5.7 5.7 0 0 0-3.7-1.38m-3.6 2.07c.25-1.17-.73.61 0 0m37.36-2.06c-.56.25.43.6 0 0m-57.74 0c-.7.35-.43.22 0 0m29.84.08h.33zm-20.05.04c-.42 1.12 2.38.82 0 0m.8.72c-1.8-.13.95 1.14 0 0m21.02-.63.25.02zm16.76.04c-.68 2.76 5.85 12.15-.23 7.3-1.48 3.08 5.6 6.33-.42 3.63-3.4-1.5 1.82 7.63-2.58 1.9.31 2.37-2.45-10.65-1.9-3.1 2.63 5.52-2.87 1.45-1.18 1.5-2.5-1.73-2.34-3-3.77-4.08-1.22 2.17 7.38 8.65 3.35 8-2.44-4.77-2.7-2.9-3.04-4.83-2.73-2.78-.25 2.94-.7 2.23 3.72 4.11 1.58 2.06 5.13 7.35.14 2.35-.7 2.12-1.34 3.54-5.38 1.7 2.97-6.09-2.61-5.6-.5-5.54-14.03-4.94-5.61.5 1.42 3.63-4.76-3.57-1.29 1.34-.23 1.56-2.89 3.2-4.52 4.5-1.83-4.74-2.42-8.83-7.14-11.18-.72-5.43-3.01-8.67-8.6-6.47 2.71 1.36-3.7-1.24-1.75 3.42 4.03-.25-2.47 7.26.63 10.8 1.68 3.73 2.68 6.34-.42 1.2-.9-1.82-4.78-9.61-1.14-14.3 2.35-4.46-4.67-1.59-4-5.49 2.9 1.74-3.76 5.77-1.72 5.55l.76-.6c-2.69 1.37 5.58 2.03.73 2.78 7.06 4.3-4.33 2.33-3.86 3.26-.15 5.05 2.53 6.99.68 12.61.2.68.83 5.38-1.96.9-2.52-2.84-.72-10.83-4.12-4.15-.95 2.42.77 5.25-.3 7.49.86-.33-2.22 13.36.2 5.2.2-.33 1.64-8.28 2.82-7.32-1.86 4.45 3.4 4.78-.45 9.43-1.37 4.43.68 5.22 1.68.87-1.52.47 2.37-5.61 2.13.42.45 1.88-1.66 8.9 2.14 5.52-2 3.47-5.86 5.67-5.66 6.93-1.92.63 4.57-1.51 1.13.13-.75 1.3-.63 6.13 2.56 1.93-.17-3.13 1.13-8.44 1.53-2.45-.99-.35-.6 3.33 1.46.25 5 2.37 3.08 8.71 2.06 5.57-4.16-9.43-6.1 8.09-3.8 4.16.29-1.48 3.69-.13 2.5-1.58 1.54.14 6.58 5.7 3.33 2.73 1.46 1.59 1.6 1.13 2.67 3.27 1.24 2.63-7.82-7.32-4.88-.73 2.62 2.13 7.33 6.98 3.71 5.31-1.33-6.16-7.58-1.96-6.3-1.76-.92 2.96-5.2-2.55-1.63 1.08-2.58 1.66 9.11-1.32 4.8 2.84-2.47.97-1.73 1.27-3.94 1.47-.6 2.71 3.61 1.76 3.19 3.2-.51 3.29-5.43-2.2-7.99.62-4.4 1.58 8.43-.78 4.6 3.16 2.47.74 7.92 6 2.13 3.42-1.8-1.54-1.12 2.36 1.71 2.32-3.15-1.28-.93 4.33-2.99 4.34.88 1.27-2.05 1.24-1.1 3.32-2.24-1.72-7.38-1.46-10.37 1.17 2.54-3.29 10.63-7.85 2.3-3.29-2.74 1.8 1.75-6.75-1.33-1.76-1.6 3.85-5.01 8.1-1.88 1.5 2.88-3.8 5.31-6.95 5.4-9.23-2.74 4.47 1.95-6.46-2.15.98-1.66 3.1-1.6 5.55-1.9 1.55-.72 4.79-3.47 5.4-4.37 11.11.92 3.03-6.1 8.86-4.75 8.23 2.46-1.46 4.05-3.99 6.23-5.66-1.5 2.6 8.39-4.07 4.24-.85-1.58 3.84 6.22 3.78 2.43 5.67-3.79-.57-3.45 2.1-3.71-1.93-1.97.93-4.05 4.57-5.58 2.17 4.92-4.32-1.85-.1-2.56 3.5-.54-5.4-2.37 9.1-3.3.72-1.09-2.64-1.5 5.5-3.02.32-1.58-.05-.28.35-3.14.24-.32 4.3 6.4 1.14 7.26 4.73-.68 2.34-7.8 1.42-1.5 1.7 4.4-.47 7.02-1.6 10.14-1.12 5.33-.03 13.2-1.6 15.79-2.08 2.11-2.17-2.18-.4.18-2.95-1.3-1.08 4.88-2.05 1.66-5.17-2.64-4.18 4.72-8.34 3-9.2.88-2.08.38-4.5 2.66-1.96 1.02-1.33-.17-6.52.01-2.27-2.43-3.85 3.93-3.2 1.47-7.52 1.47-5.59-.43 7.68 1.7 1.39 3.9 1.07-2.1-5.41 2.91-4.05 1.33-2.04.95-8.32.71-2.43-1.05-1.3-2.01-3.5-.72-4.64 4.3 4.84-1.76-8.57 1.5-3.4-.12-2 .44 2.68.77-1.95.83-.49 1.6-4.32 2.17-3.45 2.36 1.25 1.63 6.9 4.14 3.49.07 2.99 1.38 9.9.81 3.11 2.34-.52-.18 6.4 2.01 1.5-.09-1.26-2.33-5.43 1.91-3.77 2 1.27 2.53 9.66 2.44 3.1.83-3.07-8.32-7.38-1.51-4.46 4.75 2.7 1.72 13.7 4.2 12.46-.54 4.59.62 5.36 1.26.44.26-6.58 1 .7.7.95 3.5-1.42 2.17 5.83 1.6 4.39.08 3.16-1.1-1.7-.86 1.88-1.6-6.63.65 6.12 5.18 6.82 3.79 3.77.43 4.16 3.68 5.18 1.3 1.23-1.2.97-.66.18-2.36 1.28 5.36 3.2-.75 2.46-5.39-1.16-2.6 4.2.14 2.88.99-3.55 1.08 1.32 2.97.48 2.72.56 10.15.2 4.3-.21-.58-.7-1.22.5-.92-1.23-4.17 1.46.84-5.5 4.15-3.22 1.95-4.7 1.56 4.55 5.07-.22 3.94-3.88 4.02-4.16.99-8.92-4.49-4.76 2.34-.36 1.56-.99-2.12-1.75-1.14-7.57 2.4-3.84-1.09-3.56-6.69-1.1-8.1-.65-1.09-4.79 1.11-4.71 4.6-6.86-1.62 7.75 1.77-3.6 5.3 1.1-.28-1.23-.78-4.9.68-1.54 1.5-4.37-.74 4.7 1.31.4 2.99 5.56 2.54 2 3.5-2.88-3.4 4.95-.34-5.15 2.2-.11 1.25 3.01.45-3.44 1.82.75.34-2.53 1.43 1.33 3.01-2.4 5.27-4.8 9.25 9.32 9.93 1.88 4.23 2.57 8.34 7.26 2.71 3.7-6.31-2.74 5.6 3.27 6.34 5.48.98 4.02 3.17 6.13 2.7 4.59-1.47-4.43-3.91-7.86-4.04-8.09 2.65.11 4.53 5.3 6.01 6.83-.85-.1-.66-.24-.35 1.16.54-.58-.22 10.12-.3 3.7-.12 2.23-1.94-6.26-1.45-.83.99 4.3 5.56 6.43 2.28 4.51 1.25 3.96 9.61 1.63 13.02 2.35-3.78-4.49 2.25 1.73-.72-2.55 2.62 2.72 2.29-4.35 3.3-.82-.7.34 2.28-4.44-.1-7.99 3.6 7.97-7.84 1.1-3.67-.37 1.08-.19-1.08-6.86-3.4-9.52-1.86.06.72-3.2 3.88-3.64-1.71-2.75-6.77-8.8-2.61-2.06 3.83 5.58-9.96 1.37-2.55-.4-2.61-1.43-7.47.09-7.01-4.99-2.03 1.26-5.62-5.37-4-7.92 1.87-1.4-5.05-5.83-3.55-9.83.4 2.67.13 6.75-.38 1.49-.43-3.36-.59-6.53-4.5-2.6-.99-2.92 6.74-5.04 3.83-9.31-.25-.92-1.27-2.3-1.14-.24 1.62 6.54-3.11-2.78-3.14 3.15-.06-.28-.56.12-1.74-2.77-.76 1.26-1.1-1.28-1.4 1.52-4.01 2.33 5.37 8.26-.26 5.53-1.28 9.58-1.46-3.34-2.3-7.18-4.73-9.74.99 11.06-2.4 3.36-1.85-4.54-1.56-1.78-1.5.52-.6-3.47-4.87-5.3-4.05.1 1.16 4.57-3.88-1.4-1.77-3.66-3.42-1.34 2.7-1.5-2.65-3.1-2.67-.36 1.91 6.6-1.5 4.35-2.32 4.14 5.29 12.66 3.03 14.4.56-2.93-5.3-10.4-2.52-3.22 1.36 6.78-6.5-9.22-7.34.18-.69.06-5.27.1-5.2-.3 2.1-4.24 4.32-5.07 2.46-7.6 4.05-1.2-6 .87-1.56.93 4.19 4.6-6.1 2.53-7.51 2.3-.7-3.41-9.63.07-3.18-4.1 3.6-1.72 6.79-7.64 10.35-11.74 4.54-4.16 3.1-3.93-1.13-.23.82-2.71 2.2-5.38 3.75-4.14 3.95-6.23-6.84 2.6-1.13-2.75 2.72-4.55 5.29.78 4.87-.56-1.3-8.52-12.97 3.94-12.07 2.83 2.18-2.61-3.51-6.7.18-7.68 4.73.13 1.78-8.9 6.8-4.94-.44 3.8.38-3.16 2.46.82 1.43-3.79-5.24-3.42-1.48-6.8-2.56-3.24-1.26 7.01-5.74 3.3-.27 4.81-6.95 6.07-10.61 4.3.6-1 4.16.47 3.46-1.75 1.37 2.64-.86-3.25 1.13-.07-.07-3.7 1.17-4.47.17-5-.92-2.14-4.48-7.15-5.64-7.81zm6.32 13.9c.58.32.24-1.15 0 0m50.88 77.3.04.1zM120 193.2c1.43 1.7.57-.43 0 0m-18.62 2.69c.88 2.15 1.25 2.52 0 0m.82 1.75c1.28 4.65 2.14-3.36 1.17 1.37l-.57-.5zm1.43-.3c.8-.76-1.44-1.17 0 0m-.32-.73c-1.49-3-.9-.14 0 0m-4.81-2.15c-1.89-2.04.44 2.9 0 0m-.79.07c-.15-.57-.27.21 0 0m.06-.09c.1-.12-.39-.36 0 0m-4.06.35c-2.23 2.78.94 1.83 0 0m.14 16.63c0 .1.23-.53 0 0m-65.46-26.9c-2.88-3.44.08 2.29 0 0m-.76.4c-3.4-2.1 2.1-6.18-3.28-1.63 4.48.55-5.33 7.88.73 3.26a26 26 0 0 1 2.55-1.64m7.86-70.36c-.47.1.23.53 0 0m36.27.02c-.54.1.4.55 0 0m-7.41 0c-.67 1.77 3.14 1.03 0 0m-9.02.07c.95.07 2.08.14 0 0m-11.74.02c-.26-.03.07.57 0 0m55.9.05c.18.59 2.61 1.6 1.28.76zm-33.3.08c-.52 1.7 3.68.72 0 0m-8.98.02.25.02zm-20.25.03c-.46.1.24.53 0 0m22.68.06c-3.56 1.9 3.4 1.34 0 0m-.84.01c-.35.36.58.17 0 0m35.1 0c-5.7.15 1.52 4.54 1.77.73.36-.73-1.86-.1-1.77-.73m4.46.03c-1.48.59 3.09.25 0 0m-41.3 0c-.93.52.96.7 0 0m27.56.04c-.37.37 1.23 1.05 0 0m-34.94.06c.59.16-.35.37 0 0m44.23.13h.06zm-25.82.03h.33zm-28.62.01c-.08 1.78 1.64 4 0 0m-7.2.01c-.3.7 1.09.14 0 0m.37.27c-1.08.45 1.81 1.34 0 0m13.62-.25c-.34.27.22.51 0 0m-17.67.02c-1.1.35.58.6 0 0m43.93.1c-.35.28.26.48 0 0m-2.5.02c-2.38 1.63 3.93.13 0 0m15.95.13c-.46 1.13 1.47 1.55 0 0m-9.7.03c.06.37 1.67 1.23 0 0m-22.06.03c-.74.48.71.65 0 0m-15.46.01c-.19 1.16 1.1.26 0 0m49.59.12c-1.9 3.31 3.5 1.06 0 0m-15.49.01c-.43.43.21.74 0 0m-41.72 0c-3.45 2.1.05 2.38 0 0m2.59 0c-.47.1.23.53 0 0m30.81.1c-1.28 1.11 3.98.37 0 0m-1.33.02.24.02zm3.4.03c.57.87 1.9.5 0 0m-33.98.06c.7-.12.52.87 0 0m-4.22.07c-2.5 2.42.81.9 0 0m58.73.02c-2.1 1.14 1.69 1.01 0 0m-15.26.12c-1.47 1.5 3.3 1.81 0 0m-13.16 0c-.35.26.24.5 0 0m-6.5.05c.53.27-.49.32 0 0m45.39.01c-.43.45.6.6 0 0m-49.16 0c1.96.59-.5 1.22 0 0m51.81.02c-.46.1.24.52 0 0m-78.77.05c-.43.6.55.25 0 0m20.05.02c-.54.65.55 1.04 0 0m56.74.01-.15.14zm-27.5.07c-.66.25.49.47 0 0m-12.36.1c3.72.67 3.4.17 0 0m7.64.04c1.6 3.4 5.36.7 0 0m-23.8 0c.2.38 1.32 1.27 0 0m-9.6.04c-1.4 1.14 1.07.84 0 0m6.16.18c.23 1.07 1.61.15 0 0m3.34 0c-.46.09.24.52 0 0m-4.6 0c-.52.7.98.81 0 0m17.62 0 .24.03zm1.13.11c-.21.77 1.62.85 0 0m31.12.02.24.03zm6.42.02c1.04.95-.23-.33 0 0m-3.2.04c-.33.53.69.7 0 0m4.47 0c-1.09 1.63 1.74.42 0 0m-32.98.02c-.68.28.5.82 0 0m-2.19 0c-.31.68 1 .55 0 0m35.74.03c-.36.46.53.36 0 0m-42.76.04c-.97.18.5.53 0 0m45.88.02c-1.32.76 3.25 1.37 0 0m-11.85.05c-.88 1.23 1.91.92 0 0m12.8.05c-.22.63 1.63 1.34 0 0m2.25 0c-.4 1.36 1.66 1 0 0m-77.74.03c-1.75 1.9 1.14 1.03 0 0m34.54.05c.85 1.49 3.17 1.07 0 0m-27.06.03c-1 1 1.89.83 0 0m6.83 0 .24.03zm-12.32.01c-.54 1.06.85.4 0 0m22.87 0c.34.63-.51 1.35 0 0m-15.96.02c-.42 1.12 2.38.82 0 0m.8.72c-1.8-.13.95 1.14 0 0m34.03-.7c.07-.12.02.69 0 0m-41.28.01c-.58 1.38 2.07 1 0 0m61.4.06c-1.53 1.22 1.74 1.26 0 0m-38.28.04c.28.66-1.5 1.8 0 0m-12.64.08c-.25-.03.08.55 0 0m16.68.02h.4zm16.13 0 .25.02zm13.6 0c-.54.11.39.56 0 0m6.93 0c-.53.11.4.56 0 0m5.65.02c.17 1.58 2.59 1.5 0 0m-43.07.07c-.5.13-1.7 1.63 0 0m15.9 0c-.92.73 2.08 1.3 0 0m-46.25.04c-1.28 1.72 1.14 1.11 0 0m17.14.01c-1.1 1 .87.58 0 0m54.74.11c-.24.82 1.55.18 0 0m-60.04.02c-.46.09.24.53 0 0m23.9.05c-2.28.44 1.95.57 0 0m33.93.04c-.57.58.8.27 0 0m-40.26.01c-.41.12-.4 1.27 0 0m29.27 0 .16.12zm9.08.04c.37.49 2.11.95 0 0m-16.04.03c-.67.34.73.88 0 0m-24.57.01c.42.14-.4.48 0 0m5.01.05c-1.9.26 3.58.62 0 0m-11.94.04c-.97.82-.03.74 0 0m-16.79.01c-.35.28.26.48 0 0m59.82.02c-.43.28.35.6 0 0m13.04.04c-1.58.03.73.47 0 0m-42.13.05c-.26.06.36.06 0 0m-.06.03c-3.06 2.32-2.8 1.73-4.83 4.9-.61.94-2.84-2.58-1.34 2.61 1.68 2.9 4.9 12.45 4.31 5.81-1.16-3.03-1.87-3.8-3.58-5.77 2.56-.12 3.14 4 2.96-1.65 5.93 2.99 1.02-5.53 5.7-4.33a3.7 3.7 0 0 1-3.22-1.57m-4.86 8.43c.8 1.12.3-.43 0 0m2.12 1.11q0 0 0 0m-3.51-5.3c.98.83.38-.06 0 0m43.27-4.25c-4.1 2.51 2.91.82 2.79 3.13 2.63 2.2-1.1-4.18-2.79-3.13m-61.58.06c-.26-.03.07.56 0 0m57.69 0c-.26-.03.07.56 0 0m-24.38.01c-.06.53 1.55 1.31 0 0m6.03.03c-.27 3.67 2.65 3.14 0 0m5.77.04c3.44 2.8-.8 2.15 0 0m-.82 0c.47.43.56 2.45 0 0m10.56.02c-1.07.95 2.04 1.08 0 0m-8.12.05c-.33.5 1.5 1.11 0 0m-38.92.06c-.5.6.09.64 0 0m59.85 0c-.21 2.22 2.57.3 0 0m-19.65.06c-.18.51 1.3.91 0 0m-54.2.04c-.53.93-.65 1.14 0 0m66.21.02-.35.17zm10.14 0c-.3.52 1.18 1.45 0 0m-21.25.06c1.17 1.74.97.2 0 0m-7.89.05c-.37.37 1.23 1.06 0 0m-49.49.02c-.39.16-.19 1.21 0 0m73.78 0c-.33.82 1.51.93 0 0m5.44 0c-1.07.6 1.54.87 0 0m-65.47.01c-.93.62-1.04.7 0 0m32.1.13c-1.3.83 1.15.69 0 0m28.4.07c1.07 1.28 2.06.4 0 0m-30.67 0c.26 1.56 2.77.7 0 0m-44.92.03c-.54 1.04.72.61 0 0m37.23.08c-.18.25.64.63 0 0m21 .07c-.28.75.8.62 0 0m22.3.17c-.17 2.4 2.74 1.35 0 0m-13.24 0c-1.37 1.97 3.85 1.44 0 0m-48.63.02.25.02zm54.62.06c.81.44-.55.06 0 0m-16.64.02c.17.66 2.96 1.75 0 0m-53.17.11c-.52.54.13.63 0 0m37.7.14c-.32.25.27.52 0 0m2.74.02c.27.56 1.86 1.53 0 0m35.58 0c.64 2.46 3.93 2.74 0 0m1.65 1.48c-.05.75.66-.1 0 0m-42.56-1.38c-.77.6 1 .84 0 0m20.77.05.17.12zm-36.35.02c-.53.1.4.55 0 0m-22.94 0c-1.4.87-.09 1.1 0 0m78.07.04c-.33.34.16.74 0 0m-30.22.2c-.54.43-.41.32 0 0m-47.35.03c-.4.52.06.47 0 0m84.8 0c3.06 1.59 10.31 6.63 7.43 9.02-2.32.37-4.6-5.85-2.02-.42 1.18 2.07 4.78 8.02 2.6 2.31 4.98 1.66.7-8.14-8-10.91m-26.07.02c-.19.51 1.57 1.9 0 0m-16.69.05c.03.55 1.75 1.35 0 0m33.06 0c-.15.47 1.2 1.2 0 0m6.9.02c-.15.46 1.07 1.3 0 0m-22.74 0c-.19.25.64.65 0 0m-39.13.08c0 .14.08.02 0 0m8.68.06c-.02.44.81.44 0 0m11.86.16c.4.59 2.3 1.55 0 0m-26.9.02c-3.35 2.1-1.31 2.08 0 0m38.18.04c-1 1.11 1.52 1.33 0 0m-19.94 0c0 .05-.13-.04 0 0m1.08 0c.93.84-.86.58 0 0m12.77.02c.07 1.46 3.08 1.27 0 0m-41.7.04c-3.37.55-1.6 2.6 0 0m37.33 0c-.08.57.71-.11 0 0m42.18.05c-.5.5 1.17.73 0 0m-46.76.02c-.6 1 1.5.25 0 0m-1.4.03c.79 0 .47 0 0 0m47.43.03c-.34.58.89-.12 0 0m-42.7.05c-.15.3 1.92.7 0 0m-30.16.02c.5.67-.85.62 0 0m34.57 0c.2.54.77.24 0 0m38.82.13c-.02.67 2.1 1.77 0 0m-40.78.02c.26.63 2.01 1.72 0 0m.57.03c-.67.53 1.12.9 0 0m16.33.01c-.08.57.7-.12 0 0m4.99.02c-1.47 1.15-.06 1 0 0m-65.8 0c-1 1.32 1.02.57 0 0m37.64 0c-.78.23.79.7 0 0m24.28.07c-.22.26.51.85 0 0m22.5.13c-.2.37 1.11.7 0 0m-32.4 0c1.33.73 1.79.98 0 0m-1.96.04c-.36.69.76.56 0 0m-10.23 0c-4.26.53.63 1.55 0 0m-5.8.02c2.16 1.21-1.23 1.05 0 0m-7.66.03c-1 1.06 1.5 1.38 0 0m6.46 0c.53.26-.48.34 0 0m24.03.02c1.37 2.1-1.32 2.11 0 0m-13.17.01.16.12zm16.58 0c1.16 1.54 1.36.1 0 0m17 .02c-.53.1.4.55 0 0m-44.15.03c1.24 1.49-1.07 1.2 0 0m-32.2.02c-2.62 2.59-.06 4.64 0 0m72.18.02-.41.07zm-4.11.02c-.4.43.46.54 0 0m-7.17.02c-.46.09.24.52 0 0m-45.5.07c-.44.52.7.18 0 0m-9.8.03c-.77.23-.73 1.24 0 0m33.33.14c-.43.43.6.6 0 0m-29.47.02c.67.63-.22.8 0 0m66.03.03c-.08.54 1.54.8 0 0m-16.86 0c-.53 1.64 1.77 2.9 0 0m-11.61.03c.17.54 2.93 1.38 0 0m41.36.03c.52.27-.49.32 0 0m-38.71.02c-.64.09.37.6 0 0m17 .07.33.24zm18.5.09c.55.88.73 1.19 0 0m-28.77.04c2.63 2.06-.15 3.38 0 0m15.43 0c-.44.27.38.59 0 0m-67.5.02c-.45.2-1.67 1.62 0 0m71.75.02c.08.6 1.72 1.3 0 0m-12.92.01c-1.06 1.29 1.25.53 0 0m-63.35.09c.08-.12-.06.64 0 0m80.7.03c-.36 2.7 4.46 7.27-.48 2.73-1.24-.83 2.09 3.35-.86 1.05-4.32-2.15-2.89-.2-.12 1.79-.88-2.12 3.96 5.02 5.85 7.1 2.48 2.9 2.27 6.57 5.27 4.84-.69 3.06 3.8 10.7 6.14 10.9-2.01-2.5-2.53-5.31-.66-1.28 1.36-2.18-.61-5.29 1.67-2.96.35-5.07-1.58-3.1-2.5-3.26-.68-2.43-2.26-4.63-2.5-2.17-1.45-2.4-4.36-7.77-4.38-2.78-.42-3.98-5.7-7.91-2.34-5.84 1.77.81-.68-1.7-1.31-3.14.64-1.63 5.54 4.83 2.59-.76-1.52-2.45-3.57-5.18-6.36-6.22m-.2 6.92c-.4-1.55-.88.4 0 0m-1.1-1.2-.16-.15zm-29.89-5.71c-.27.33.62 1.2 0 0m-6.01 0c-.66 1.6 2.46 1.37 0 0m-27.27 0c1.18.63-.65 1 0 0m50.35.01c-3.45 2.28 2.64 2.01 0 0m-33.4.04c.21.83-.82.02 0 0m16.94.01c-.5.76 1 .87 0 0m-10.04.02c-.37.55 1.86 1.09 0 0m-29.83.03c.71 1.16-1.54.9 0 0m-5.55.02c-1.73 1.41.31.12 0 0m34.97.02c-.53.1.4.56 0 0m34.23.02c-.1.45 1.15 1.14 0 0m1.24 0c-.49 1.46 2.52 1.4 0 0m-27.71.05c3.05 2.59.82.15 0 0m-8.3.11c-.4.5 1.87 1.13 0 0m21.3.01c-.38.76.94.03 0 0m-27.06.02c.65.14-.31.75 0 0m11.29.13c1.09 1.24.33.4 0 0m-6.7.05c-.65.88 1.2 1.03 1 .72l-.49-.57zm45.14.03c-.35.28.2.52 0 0m-50.53.06c.58.16-.36.36 0 0m30.35 0c-.22.47.64.38 0 0m8.2.01.17.12zm-70.36.01c-.54.43-.4.32 0 0m30.01.02c.7.2-.1.9 0 0m-33.71.07c.55.27-.16.9 0 0m22.7.02c6.37 1.59-5.26 1.47 0 0m4.96.02c-.2.26.52.84 0 0m-12.4.1c-.26-.03.07.58 0 0m45.5.08c.9.53-.82.5 0 0m-29.78.05c.63-.12.87 1.57 0 0m-2.72.02c-.17.26.63.62 0 0m36 .03c-.93.48.72 1 0 0m-10.92.03c.06.78 1.33 2.4 0 0m2.16.07c2.16 2.24-.6 1.41 0 0m-39.07 0c.47.32-.28.6 0 0m52.9.05c1 .52-.45.17 0 0m-16.88.14c1.65 2.37 2.2.98 0 0m-24.76.02c-.48.54.08.68 0 0m63.05.05c-.35 1.43 2.13 1.87 0 0m-45.62.03c1.1.7-.17.83 0 0m35.02 0c1.67 2.68 1.34.15 0 0m-33.66.03c-.57.05.83.43 0 0m30.82.05c.77 1.18.78.23 0 0m-.73 0c.06 2.8 2.3 1.38 0 0m-70.87.07c-.7.34-.43.2 0 0m74.17.03c-1.05.25.62.8 0 0m-14.4.02c-.26-.03.08.57 0 0m-31.92.07c.97.5-.4.2 0 0m6.2.09c-.53.1.4.55 0 0m-34.94.03c-.35.27.21.51 0 0m76.95 0c.87 2.62 1.95 1.57 0 0m8 .07c-1.63.83-.24.93 0 0m-37.04.05c-.02.66 1.78 1.58 0 0m-52.43.03c.42.13-.4.48 0 0m82.48.1c-.02.59 1.78.7 0 0m-41.5.07c-.07.6 1.67 1.02 0 0m1.61.03c-.53.1.4.55 0 0m49.3.05c-.18.38 1.03.72 0 0m-58.35 0c.68.47-.66.03 0 0m-4.96.07c-.22.58.85.38 0 0m57.07.03c3.27.93.05 1.46 0 0m-82.56.06c-3.16 1.65-4.79 7.3 0 0m4.21.05c-1.95 1.82 1.49.99 0 0m26.76 0c1.8 1.17-.98 1.04 0 0m16.96.06c.28 1.1 1.9.7 0 0m-44.79.01c-1.1.36-1.04.34 0 0m62.87.02c-1.18.4-.27.79 0 0m8.62.02c-.22.25.51.84 0 0m-76.19.01c-.73.78.68.16 0 0m62.1.1c-1.06 1.47 1.53.64 0 0m-35.5.1c-.1.44 1.34.59 0 0m19.89.03c0 .51 1.47 1.27 0 0m-42.22.06c-1.05.43.66.6 0 0m22.98.1c-.29-.3.79.96 0 0m12.96 0c-.11.54 1.54.8 0 0m24.01.03c-.93.47.54 1.3 0 0m.57.16c.87.9.42-.54 0 0m-.51.77c.22 1.25.23.24 0 0m10.41-.8c-2.09 1.6.98 1.7 0 0m3.95.12c.47.24-.34.54 0 0m3.03 0c.97.5-.41.2 0 0m-56.13.03c-.49.49 1.18.73 0 0m10.75 0c-.82.88.87.5 0 0m-.72.04c-2.62.43 1.51 1.35 0 0m-26.54.05c-1.21.93.98.67 0 0m9.77.03c.43.24.36 1.65 0 0m-15.28.02c-1.16 1.1 1.54.74 0 0m14.89.03c.31.06.13.85 0 0m15.56 0c-.13.98 1.4.64 0 0m3.08.01c.1.33 1.67.5 0 0m-6.39 0c-.01.42 1.25 1.15 0 0m-7.46.03c.64.08-.4.59 0 0m26.86.1c-.12.37.9 1.15 0 0m-29.5.02c-1.07 1.77-2.2 1.67 0 0m-18.4.02c-.34.27.23.51 0 0m10.8.01c.38 1.3 1.02.13 0 0m-5.61.03c-.68.83-1.09 1.33 0 0m6.6.08c-1.37 2.05.54 2.26 0 0M49 126c-.34 1.9 2.16 1.38 0 0m-9.87 0c2.8.8-1.4.83 0 0m1.87.04c.5.05-.15.65 0 0m7.28.13c-1.56 1.2 2.4 3.34 0 0m-3.33 0c.63.19-.66.42 0 0m1.57.13c-.5.99 1.94.83 0 0m-20.42 0c-2.76 2.34 2.04 3 0 0m81.43.01c2.71 2-1.32 1.3 0 0m6.29.03c-2.7 1.88 1.1 1.26 0 0m-55.98 0c-.44.29.33.63 0 0m53.6 0c-.33.5 1.19 1.47 0 0m-16.38.02c-.69.24.46.86 0 0m4.2.04.16.12zm9.65 0c-.27.44.55.63 0 0m-2.83.06c.36.24-.2.52 0 0m-65.44.05c.52.26-.5.31 0 0m16.76.03c-.28.35.88 1.03 0 0m4.06.05c-.58.64.98.7 0 0m20.49.05c-1.51 2.03 1.74 3.3 0 0m-36.78 0c.88.74-1.07.8 0 0m-22.7.03c-.58.58.1.49 0 0m-2.97 0c.5.06-.15.66 0 0m40.87.04c-3.34.81 2.03 1.6 0 0m-21.26 0c.46.27-.3.57 0 0m.91.01c.68.46-.58.56 0 0m74.3.03c.36 1.24.8.41 0 0m-70.55.22c.63.57-.06 1.47 0 0m0 .3.1-.1zm39.77-.29c-1.34 2.32.07 3.94 0 0m-1.09.03c-.48.68.58.07 0 0m15.2.03c.08.53 1.42 1.56 0 0m2.47.13c.1.62 1.63 1.96 0 0m-38.92.04c-.37.36 1.23 1.07 0 0m-26.55.01c-.46.25.34.54 0 0m22.64.01c-.44.28.34.64 0 0m52.66.1c-.64.24.48.7 0 0m-47.99.04c.13.76 1.5.35 0 0m20.75.03c-.34.6.67.44 0 0m-1.42.01c-.9 2.48 1.74 1.65 0 0m-23.3.02c.99 1.05 3.45.88 0 0m-33.58.05c-.33.34.17.74 0 0m.68.02c-.9.27.41.67 0 0m41.44.03c.32.45 2.55 1.27 0 0m6.65.12c2.05 1.1-.94 1.03 0 0m23 .04c-1.9 1.32 1.9.73 0 0m13.84.07c-.68.24.47.86 0 0m-72.4.04c.67.3-.92.9 0 0m73.26 0c.81 1.48.9.59 0 0m-26.6.06c-.23.36.06 1.51 0 0m-34.24.06c.15.99 1.02 1.1 0 0m-25.74.01c-.47.11-.3 1.3 0 0m90.8 0c-.13.36.96.9 0 0m-10.2.06c.35.32-.15.74 0 0m-15.73.01c-1.4 1.05.63.48 0 0m-47.02.01c.41.14-.41.48 0 0m.58.03c.59.16-.34.37 0 0m17.99.06c-.37.97 1.6.4 0 0m9.03.01c.36.26-.2.53 0 0m-11.28.08c-.58.21.26.72 0 0m-19.42.04c.37.74-1.51 1.08 0 0m72.56.06c.04.57 1.74 1.34 0 0m-10.13.06c-.76.25.58.71 0 0m3.7.01c1.09 2.08.4 3.08 0 0m-6.86.08c-.7.4.94.82 0 0m16.71.05c-.34.29.22.53 0 0m-78.19.03c.42.14-.41.48 0 0m60.2.01c.02.56 1.84 1.36 0 0m-75.09.04c-.61.71-1.4 1.63 0 0m62.6.01c-.53.61.62.43 0 0m11.9.13c-.27.36.88 1.01 0 0m-58.35.12c.66.14-.5.77 0 0m68.5.02c1.2 2.11-.5 1.24 0 0m-44.57.01c1.13.42-1.02.81 0 0m17.79.03c-.22.02.18.43 0 0m24.22.04c.53.27-.48.31 0 0m-11.48 0c-.31.36.29 2 0 0m-57.66.03c.1 1.02.17 1.76 0 0m28.48.01c-.35.77 2.53 1.69 0 0m-32.77.1c.42.87-.66 1.51 0 0m66.25.09c.1.5 1.2 1.79 0 0m-11.65 0c.04-.17 0 .66 0 0m-34.86.01c-1.3 1.33 2.06.86 0 0m50.1.07c1.61 2 1.61.89 0 0m-9.98.03c-.25.52.4.44 0 0m5 .04c-4.6 3.17 2.83 2.55 0 0m-75.89.18c.77 1.55-1.3.24 0 0m37.96.01c1.8 1.44-1 1.39 0 0m40.38 0c-.56.84.95.4 0 0m-68.06.03c.77 1.5-1.08 1.96 0 0m77.46.03c.1.37.09.06 0 0m-52.19.05c-.95.3 1.73.13 0 0m24.27.01c-.65.06.3.65 0 0m7.59 0c2.23 3.35-2.7 2.02 0 0m-42.95.02c1.75.33-.1 3.26 0 0m.26.42c.28.25.07-.51 0 0m-16.05-.39c.86.88-1.16.6 0 0m.8.06c.59.84-1.34 1.28 0 0m84.52.04c-.46.38.32.74 0 0m-5.2 0c-.11.5 1.48 1.6 0 0m-49.37.06c3.96 1.61-.16 3.9-.65.34 2.28.71-.95 0 .65-.34m-16 .05c.9.53-.33 1.54 0 0m-9.76.03zc.55 1.22-.74 1.94 0 0m-11.65.01c-.8.98 1.2.48 0 0m66.66.13c.77.07.39.04 0 0m24.89.01c-.13.37.72 1.33 0 0m-18.46 0c.81.27.67 1.42 0 0m3.53.03c-.57-.68 1.11 1.42 0 0m-5.64.07c-.6.75.7.38 0 0m-41.88.03c-.18.34.73 1.06 0 0m48.5.01c-.97 1.35 3.78.3 0 0m-34.3 0c.6 1.67 1.22.2 0 0m2.06.02c1.16 1.06-1.05.6 0 0m-25.37.02c.53 1.26-1.72 1.12 0 0m5.86.02c2.31 3.54-2.95 3.37 0 0m-11.67.02c-.24.52.4.43 0 0m19 .03c.3.42 1.8 1.07 0 0m-14.29.03c1.06.77-.9.77 0 0m1.78 0c.85.52-1.36.71 0 0m64.11.04c1.17.7-.24.81 0 0m-13.03.1c-.61.53-.45.39 0 0m-6.86.1c-.44.46.84.1 0 0m-42.95.03c1.07 1.33-1.66 1.1 0 0m67.44.01c-.54.23.27.69 0 0m-89.5.06c.04.96.75.3 0 0m2.04.06c-.55 1.08.88.35 0 0m68.92.01c-.4.54.07.47 0 0m-64.57.05c.42.14-.41.48 0 0m3.6.04c1.65 1.94-1.64 1.96 0 0m68.6.01c-.35.62.75.94 0 0m-73.35.01c-.7.4-.48.28 0 0m-1.54.07c-.42 0-.84 1.54 0 0m14.53.09c1.43 2.55-.95 1.89 0 0m50.36.02c-.27.5.42.4 0 0m-57.78.02c.42.13-.4.47 0 0m59.6.01c-.56.58.67.5 0 0m10.36.01c0 .5 1.47 1.26 0 0m-79.49.01c-2.17 2.85-.17 5.31.49 1.28-.93.44.16-1-.49-1.28m5.91.03c.48.67-1.08 1.13 0 0m13.5.04c1.35.54-.2 1.18 0 0m3.98.04c.45 0 .91 1.13 0 0m43.45 0c-.69 2 .74.4 0 0m-48.67.03c.59 1.19-.93 1.06 0 0m-8.2 0c.79.4-.34 1.18 0 0m9.06.02c1.01 1.15-1.42.98 0 0m-6.62.03c-.3.23.05.93 0 0m74.07.06c.42.53 2.14 1.99 0 0m-46.62.06c4.67 1.23-1.49 6.14-.83 1.65 2.51-1.28.78.67.83-1.65m-30.76.03c.44.27-.38.59 0 0m57.1.05c-.44.87.85.31 0 0m-58.54.02c-.06 2.9-1.39 1.46 0 0m24.58.02 1.64.44zm-27.23.02c.75.7-.78.2 0 0m-8.52 0c.48.25-.33.55 0 0m45.35.01c-.45.18 1 .5 0 0m-39.47.05c-2.83 1.31.91 1.39 0 0m68.72 0c-2.77 1.29.66 1.5 0 0m9.71.04c-.03 2.2 3 .83 0 0m-45.93.06c-.04.63 1.81 1.44 0 0m38.85.08c.07.47 1.6 1.12 0 0m-69.93.05c-.4.13-1.4 1.35 0 0m82.84.05c.05.52 1.59 1.4 0 0m-6.82.02c-1.05 1.44 2.62 1.58 0 0M70.2 132c.66.03.43.9 0 0m48.78.01c2.32 3.43 7.53 3.37 1.6.67l-.8-.38zm-29.05.02c-1 1.2.79.42 0 0m-68.58.08c-.49.67.59.07 0 0m73.67.03c-.22.25.52.85 0 0m-74.9.03c-1.2 1.42 2.27 2.9 0 0m98.32.04c.27.46 1.73 1.42 0 0m-20.48.17c-.62.1.43.57 0 0m-34.55.04c-.05.41 1.3.91 0 0m24.92.04c-.6.78.75.34 0 0m27.1.02c-.83 1.43.63 1.08 0 0m-55.35.01c.53.27-.48.32 0 0m-4.16.1c-.43.27.38.57 0 0m-18.03.1c4.23 3.31-1.43 3.13 0 0m64.03.06c.39 3.4 5.33 2.18 0 0m-7.51.09c-.73 1.14 1.1.57 0 0m-41.86.04c-1.5 3.74 3.73 1.91 0 0m-33.44.01c.56.1-.06.7 0 0m34.4.06c.2.4 1.48 1.17 0 0m39.63.02c-1.75 1.55-.88 2.6 0 0m4.86.1c-.09.56.7-.13 0 0m-42.17.09.25.02zm61.67.03c-.82.43 1.3.3 0 0m-91.6.01c-.35.27.24.49 0 0m7.7 0c1.4.8-2.01 5.11 0 0m-9.25.05c-.5.66.57.09 0 0m-3.38.01c-.41.46.56.34 0 0m46.76.02c-.17.27.63.62 0 0m-35.63.06c.4.17-.1.67 0 0m82.48 0c-.95 1.62.92.8 0 0m.31.66c-.3.2.62.3 0 0m.18.18c.29.69.26-.05 0 0m.2.25c-1.46.06 2.15 3.84-.26 2.6 2.34 1.25 1.91 3.88 4.7 4.55-.7-2.69-3.15-4.68-4.44-7.15m1.56 2.44c.28.72.63.24 0 0m-1.84-1.7c-.02-.9-1.24.82 0 0m-16.36-1.72c-3.47 2.79 1.42 1.21 0 0m6.76 0c-.23.5.37.26 0 0m-33.44.03c1.13.52.92 1.92 0 0m-47.2.03c-.48.67.58.06 0 0m63.71.01c-2.6 1.85 2.18.63 0 0m-32.72 0c.37.52 2.28 1.06 0 0m-31.34.04c-.4 1.8.55.87 0 0m55.5.05c.32 1.5-1.03.98 0 0m20.35 0c-.33.26.26.53 0 0m-43.38.07c.25.6 1.98 1.3 0 0m22.3.06c.64.8-.18 1.78 0 0m-46.08 0c.41.14-.41.48 0 0m-3.07.02c1.5 3.46-.39 6.59.42 9.67-.12 4.92-3.88-6.9-.42-9.67m-.36 10.21c.3.76.37-.3 0 0m.63-1.7c.33-1.47-.7.5 0 0m.27-5.12c.54-1.17-.45-.55 0 0m80.93-3.36c-.14.36.77 1.21 0 0m-5.14.08c-.36.85 1.09.6 0 0m-46.02.07c.73.47-.53.65 0 0m39 .04c-.75.9 1.52.73 0 0m-69.23.1c-.39.54.06.47 0 0m47 .09c1.1.84-.66 2.55 0 0m.12.33c.21-.43-.48-.13 0 0m42.1-.15c-.88.7 1.6.57 0 0m-41.5 0c.4.18-.1.69 0 0m42.33.01c.33 1.2 2.88.63 0 0m-29.72.04c-3.4 2.55-.36 3.44 0 0m30.88.02c-.7.4.94.83 0 0m-70.08.01c1.33 1.04-.47.52 0 0m9.17 0c2.47 2.91-.18 1.14 0 0m9.5.01c.44.42-.24.71 0 0m15.44.1c-.29.26.22 1.34 0 0m3.54 0c-.26-.03.08.56 0 0m-32.14 0c-.67.5.98.67 0 0m1.78.1c.73.54.17.89 0 0m-4.09.06c.3.53 2.93 1.11 0 0m32.61.02c-.72.98.13.58 0 0m13.1.07c-3.2.17.93.75 0 0m6.79.07c-.35.27.24.49 0 0m-26.98 0c.07-.12.01.69 0 0m-1.72.07zc-.52 3.19-1.46 1.09 0 0m-7.92.05c.4 0 .35 1.1 0 0m47.33.2c.28 1.27.83 0 0 0m-96.82.02c-.45 1.05 1.32.34 0 0m32.8.02c.01.96 1.44.7 0 0m46.1.07c-.09.46 1.34.58 0 0m9.58.06c2.03 2.68-.5 2.37 0 0m9.83.07c-.25.7.5.48 0 0m.99.08c-.72.41.63 3.33-.4 2.15 1.3 1.04.39 3.51 1.53 6.22 2.67 6.17-.52-5.28-.81-6.91 1.43 1.13.61.26.54-.04l-.53-1.09zm-2.64.02c-.35.51 1.6 1.93 0 0m-4.95.02c-1 1.13 1.52 1.32 0 0m-92.22.08c-1.04.95.88.64 0 0m32.02.14c-1 2.8 3.16-.18 0 0m52.93.1c-.76 1.13 3.79.42 0 0m-17.61.08c-3.98 3.07.36 4.05 0 0m-22.82.03c.58.86-.2 1.35 0 0m34.47 0c-1.02.21.55.46 0 0m-78.2.04c-.37.2.25 1.2 0 0m59.02 0c2.57.5 1.65 3.9.19.97.17 1.1-3.68-1.15-.2-.96m-.36.96c.7.73.86-1.1 0 0m23.16-.93c-1.3.4 2.55.26 0 0m-67.42.03c-.05.48-1.5 1.7 0 0m24.38 0c2.46 1.03-2.45.95 0 0m38.54.04c-.8.75.89.55 0 0m-63.52.07c.7.98-.85.24 0 0m87.44.02c-.4.34.63.65 0 0m-7.82.01-.42.04c.62.73 2.03-.17.42-.04m10.08.06c-.4 3.78 4.24 3.32 0 0m-84.09.1c.3.15.21 1.1 0 0m-6.26.05c.41.13-.42.47 0 0m22.22.05c2.16 1.62-1.07 1.1 0 0m61.8.04c-.08.56.7-.13 0 0m-91.72 0c-.18.29.18 1.3 0 0m4.87 0c.76.7-.78.21 0 0m32.9.09c.32.08.12.83 0 0m-40.97.06c1.16 5.52-3.54 3.25 0 0m-1.1 1.91.06-.2zm44.17-1.8c.05.75.64.7 0 0m-33.67.03c.42.13-.41.48 0 0m81.38.07c-1.18 2.15 1.5 3.51 0 0m-88.9.01c-2.49 4.2 3.5 3.14 0 0m72.33.06c-1.1 1.23 1.32.92 0 0m-77.79.1c-.52.2-.02 1.82 0 0m52.3.06c.66.47-.59.14 0 0m50.55 0c.12.55 2.59 1.1 0 0m-24.34.01.25.03zm-64.15.1c.68.96-1.02.28 0 0m24.74 0c5.48 1.66-.32 1.8 0 0m-23.97.04c-1.12 1.87-.24-.1-.48 1.4-.24-.68 4.38.64-.09 1.16-.58-.36-.9-2.03.57-2.56m-2.88.04c.46.24-.3.57 0 0m-1.01.01c1.1.97-.65 3.46.37 1.78 4.7 3.1-3.6 1.7-.37-1.78m55.13.09c-.3.28.07.6 0 0m-14.47.03c1.46 1.03-.28.92 0 0m40.69.02c.22-.14 2.34 2.97 0 0m-7.96.07c-.14 1.26 2.05.28 0 0m-66.22.07c.42.02.59 1.14 0 0m40.27.04c-.43 1.6-1.96 2.14 0 0m-15.68.05c.47.25-.3.57 0 0m27.68 0c.77 1.42-2 2.62 0 0m-33.1 0c1.47.5-.8.76 0 0m33.74.03c.7.6-.94.8 0 0m-.01.24c-.68.03 0 .67 0 0m6.18-.15c-.56.26.43.61 0 0m-14.4 0c.1.78-.92.9 0 0m-26.74.04c3.64 1.72-1.36 2.17 0 0m.45 1.08.25.01zm64.71-1.03c-.21.26.52.84 0 0m-95.73.03c.35.97-.93.2 0 0m75.4.06c.79.09.48.05 0 0m-2.13.04.25.02zm-40.34 0c.47.3-.27.59 0 0m38.2.01c-.36.62.57.29 0 0m4.37.05c-1.09.46.76.87 0 0m14.36.18c-.27.45 1.01 1.34 0 0m-13.42 0c-.3 1.01 1.82.67 0 0m-1.73.03c-.96.38.46.73 0 0m21.45.04c.45 1.87 2.65 1.38 0 0m-59.76 0c.5.59-.07.67 0 0m1.58.04c2.06 2.22 2.8 8.68-.1 2.6 1.06.8-.63-2.27.1-2.6m35.75.03c-.72.77 1.23.3 0 0m-.62.07c-3.19.45.9 1.16 0 0m-23.23.05c.71.43-.32 1.48 0 0m13.15.02c-1.16 2.11 2.14.09-.7 3.62-2.63 2.93-.18-3.22.7-3.62m17.04.01c-.64.44 1.08.96 0 0m3.12.08c-.43.45.6.6 0 0m-42.38 0c1.22 1.26-.43 3.03-.37.69l.13-.49zm-39.28.15c-.93.7.73.26 0 0m2.62.01c-.48.6-.28.35 0 0m72.28.07c2.55 1.82 2.1.39 0 0m-6.73.03c-.58.53-.37.33 0 0m-43.2.05c.99 1.05.7 5.13 0 0m57.67.03c.42 0 .47.98 0 0M70.7 139c.43.5.33 2.5 0 0m-39.66.02c-.47 1.05-.44.98 0 0m3.53.07-.38.4zm26.91.08c.45.14.52 1.28 0 0m-13.32.05c-.64 1.89-1.33.62 0 0m7.76 0c2.63.81-1.04.73 0 0m31.17.02c-1.12 2.52-.8 2.26-.75.33.56-.47.26 1.24.75-.33m-26.29.03c2.43 1.43-.4 1.74 0 0m-21.8.08c.44.08.4 1.36 0 0m-11.9.03c-.38.46.54.34 0 0m70.48.07c-1.13.5.8.91 0 0m-20.2.04c-.18.68-2.97 1.46 0 0m-1.79.03c1.3.95-.62.86 0 0m-55.53.1c.12 1.42 1.31.5 0 0m61.97 0c.93.96-.7 2.09 0 0m-23.44.04c.78.64-1.02.96 0 0m3.68.01c.58.27-.39.6 0 0m42.3.01c.62 2.18 3.99.78 0 0m-17.84.1c-.66.3.5.52 0 0m-7.88.09c3.88 2.1-.51 5.2 0 0m-8.31 0c.56.76-.8.23 0 0m25.67.05c-2.06.82 1.18.84 0 0m-39.26 0c.56.5-.24.55 0 0m2.83 0c.63.2-.65.42 0 0m-23.19.06c2.15 3.69-2.64 1.75 0 0m46.06.07c.6.42-.2 1.19 0 0m-30.72.03c.34.33-.17.72 0 0m-.46.03c.41.14-.42.47 0 0m-6.75.1c.74.18-.34.88 0 0m17.17.05c.41.2.78 1.8 0 0m46.7.1c-.44.26.38.58 0 0m14.1.05c-.46.1.24.53 0 0m-82.6.13c1.1.86-1.03.74 0 0m59.72.1c.83.01.37 0 0 0m-54.37.03c.66.06-.38.71 0 0m55.51 0c-2.64-1.04-11.63 5.4-5.32 3.21 2.3-2.16 10.01-1.37 5.32-3.2m-4.92.02c-.62.2.67.4 0 0m32.57.01c.74-.64-2.28 4.21.35 3.72 2.23-1.97 5.13-2.59-.35-3.72m.3 4.5c2.95 4.92 1.68 2.35 0 0m-.07-4.09c.26.12-.07-.1 0 0m-46.32-.31c1.22.69-.75 1 0 0m40.2 0c-.11.36.93 1.2 0 0m-39.66.02c.43.16-.04.68 0 0m-23.14 0c3.31 1.16-.14 1.43 0 0m5.57.05c.42.14-.41.48 0 0m11.06.04c2.41 2.86-3.1 2.83 0 0m-.73 1.22c-.14.56.13.12 0 0m-27.26-1.17c.85 2.62-1.03 1.54 0 0m6 0c.85.73-2.48.65 0 0m50.05.03c-.26.6.75.55 0 0m-75.4.05c-.72 1.1 1.22.58 0 0m96.18.02c-1.93 1.24 6 9.2 1.35 2.67-1.78-1 .42-1.39-1.35-2.67m-58.9.04c.41.14.15 1.43 0 0m-20.8 0c1.02.44-.85 1.02 0 0m3.77.11c1.58 1.86-1.94.8 0 0m25.98.1c-.09.3-1.38 1.03 0 0m-40.2.02c.28 1.98-1.67 1.28 0 0m26.1.03c.34.27-.22.52 0 0m-9.81.01c1.43.78-.35 2.86 0 0m-28.53.03c1.9.31-2.1 3.46.12 1.16.36-1.41-.75 1.35-.12-1.16m26.2 0c-.56.14.3.56 0 0m59.66.01c.48 3.91 6.45 8.28 1.47 2.64-1.43-1.1 1.38-1.38 1.45-.69 1.5 1.5-1.17-1.83-2.92-1.95m15.2.04c1.36 2.1.98.38 0 0m-86.45 0c.44.17-.03.68 0 0m-9.8.05-.04.23zm83.86.03.66.28zm-53.19.05c.9 1-1.09.69 0 0m-2.98 0c.29 1.28-.24 4.11-.5 4.32-.53 3.55-1.3 2.95-1.54 6.02 0-.17.8 1.39.13.31-1.41.16-2.19 1.93-6.01 1.17 1.33 4.93-2.35-.7-4.74-1.9 2.06 1.75 9.39.43 3.43-.1-5.25-1.46 10.67-1.16 4.17-5.32 1.85-3.13 3.3.4 1.26.02 2.73 2.12-4.84 7.8.34 3.34 2.27-3.42 2.82-5.68 3.46-7.85m19.99.03c.56.25-.39.64 0 0m-42 0c1.37.52-1.04.9 0 0m-1.8.03c.4.13-.42.48 0 0m21.55 0c.52.19-.16.72 0 0m60.13.17c.84.6-.71.5 0 0m15.1.09c.52.08.87 1.07 0 0m-13.7.01c.99.83.18 1.9 0 0m14.43.09c.46.25-.3.57 0 0m-14.8 0c.99.5-.45.18 0 0m-66.9.01c.7.72-1.56 1.4 0 0m48.8.01c.64 1.25-1.57 1 0 0m-24.83.03c.28.48-1.04 1.48 0 0m-28.73.07c-.23.73-1.01.2 0 0m1.66.12c1.1 1.28-1.72.43 0 0m8.71.03c.82.14-.54.44 0 0m58.31 0c-.33.25.29.5 0 0m-71.97.07c1.43.27-1.01.59 0 0m79.64.03c.62.34-.4.5 0 0m-78.45.02c3.03 2.53 2.27 9.41-.07 4.6-4.23-2.9-.7-3.69.87-1.94-.11-.49-1.84-2.13-.8-2.66m1.04 3.14c.02.16.05 0 0 0m17.16-3.13c2.37 1.3.12 2.4 0 0m29.5 0c.52.19-.2.7 0 0m-50.61.02c.99 1.03-1.3 1.3 0 0m10.17.01c3.15 2.32-1 2.11-.34 1.05-.02-.17-.02-.99.34-1.05m-7.23.02c-.18.26.63.63 0 0m79.8.1c-2.14 2 2.04 2.58 0 0m-29.64.02c-1.5 1.15.87.83 0 0m-.16.02c-.54.42-.4.32 0 0m-19.87.03c1.3.4-.7.64 0 0m-24.72.16c1.27 1.7-2.56.57 0 0m-13.77.07c.63.5-.36 1.36 0 0m48.93.1c.23 1.3-1.04 2.01 0 0m7.02.06c.3.99-1.11 1.57 0 0m7.71 0c.08-.16-.05.82 0 0m-25.85.07c.3.45-1.01 1.36 0 0m-18.78.01c1.65 1.17-.48 1.88 0 0m25.9.03c.28 2.38-1.29 2.23 0 0m-34.69.02c.36.28-.2.51 0 0m3.58.04c-.57.51-.29.26 0 0m39.33.03c.98 1.06-1.69 3.83 0 0m-44.44 0c-.52.28.27.8 0 0m-21.34 0c-.46.08-.3 1.34 0 0m42.13.05c1.33 2.9-2.56.98 0 0m5.79.01c.14.43-1.08 1.33 0 0m47.34.05c.52.27-.49.31 0 0m-7.73.01c-.25.3.72.87 0 0m-2.42.08c-.44.29.35.6 0 0m-80.38.08c.5.05-.15.65 0 0m8.21 0c.54.54-.52 1.34 0 0m95.79.03c.36.26-.21.52 0 0m-24 .04c4.16 3.36-1.07 4.78-2.19 3.67 4.85-.26 10.57 9.2 6.28 1.21a23 23 0 0 0-4.1-4.88m-79.63.1c.4.19-.1.68 0 0m20.76 0c4.85 1.9-3.64 2.18 0 0m70.81.03c.8.97.06 1.35 0 0m-96.84.03c-1.56 1.33.62.72 0 0m44.9.02c2.25 2.15-.2 2.93 0 0m58.2.02c-.04.41 1.3.9 0 0m-90.93.07c.2.51-.48.65 0 0m75.97.02c-.1.6 1.66.87 0 0m-61.59.04c-.62.42.56.24 0 0m23.29.01c1.35 1.16-.54 1.58 0 0m17.5.05c.3.27-.26.8 0 0m10.92.03c-1.1.75.8.78 0 0m-68.54.08c.79 1.32-.04 3.07 0 0m54.31 0c.43.29-.23.83 0 0m-7.9.16c.17.3-2.62 1.64 0 0m19.65 0c-.27.41.93 1.15 0 0m-30.06.03c.5.05-.15.65 0 0m8.84.03c.39.35-1.23 1.07 0 0m-23.88 0c1.11 1.61-2.07 1.38 0 0m64.66 0c.42.2-.09.7 0 0m-61.37.05c.65.14-.31.74 0 0m-20.3.01c.4.42-.46.55 0 0m69.8.04c-.42.17.04.7 0 0m-33.86.03c-.02 2.97-1.75.5 0 0m52.1 0c-.55.26.44.6 0 0m-82 .04c-.36.85.7.47 0 0m84.26.05c-.34.86 1.19 1.23 0 0m-7.3.07c.38.6-.36 2.6 0 0m-18.43.01c-3.4-.44-1.98 4.45-.82.56 1.47.55 3.74-.47.82-.56m-63.3 0c.54.27-.16.9 0 0m58.56.01c-2.06 1 .27.85 0 0m-13.17.04c.21.56-.7.6 0 0m-2.73.02c1.2 2.32-.6 1.25 0 0m-34.8 0c1.33 1.87-1.49 1.11 0 0m-17.4.02c.4.2-.14.65 0 0m50.43.05-.14.2c-.08-.02.16-.32.14-.2m34.46 0c.07.96 1.63-.08 0 0m-26.36.01c.06 2.46-.37 2.33 0 0m-50.76 0c3.17 4.06-2.31 1.45 0 0m-1.6.01c1 2.69-.3 2.98 0 0m97.1.01c-.16-.22.68 1.07 0 0m-23.7 0c.46 1.31 1.98.73 0 0m12.48.02c.63.46-.28.52 0 0m-13.02.02c-.37.37 1.23 1.06 0 0m-18.59.05c.3.27-.25.8 0 0m-49.63 0c.77 1.15-.85.5 0 0m51.35.02c.73.28-.5.91 0 0m24.6.1c.26.45 1.71 1.4 0 0m-46.5.05c.94.28.35 1.12 0 0m17.75.01c.81 1.45-2.36 1.07 0 0m.15.23c-.41-.28-.07.28 0 0m-9.5-.21c.73.76-.36 1.17 0 0m-.02.56.16-.2zm-49.24-.53zc.27 1.2-.97 2.05 0 0m85.16.04.16.12zm-88.93 0c-.48.07-.34 1.29 0 0m2.5.01c-.53.42-.4.32 0 0m21.4 0c2.78.98.4 2.67 0 0m.61 1.24c.22.43.22-.42 0 0m57.8-1.22c-.07.33.95.9 0 0m22.86 0c-.63 5.6 1 6.7 1.3 11.52.89-2.05-2.56-10.47 1.43-6.27-1.03-.09-.43-2.9-2.73-5.24m1.97 3.21c.25 1.72.66.23 0 0m-1.23 5.58c.06-2.37-.58-.3 0 0m-.26-1.4-.02-.1zm-82.44-7.37c2.11 2.5-.36 2.03 0 0m.14 1.05c.5-.27-.81-.64 0 0m18.26-1.01c.42.24.35 1.64 0 0m-27.42.02c1.4.83-1.06.6 0 0m17.59.07c-.35.28.22.51 0 0m28.74 0c.37.26-.24.5 0 0m-22.6.1c.45.46-.19 1.01 0 0m-18.52.03c-.36.27.24.49 0 0m-1.56.08c.3.49-.86 1.75 0 0m46.25.1c.58 1.45-.68 2.28 0 0m22.4 0c.3.42 1.82 1.07 0 0m-88.92.03c-.8.15.22.8 0 0m58.73 0c.67.63-.22.8 0 0m44.24.03c-.36-.5.81 1.2 0 0m-91.14.07c.86 1.07-.93.55 0 0m8.89.04c.63.58-1.36 1.06 0 0m-19.33.1c-1.18 1.3 1.03.67 0 0m27.01.01c.54.6-.62.43 0 0m59.79.07c.58.34.92 2.17 0 0m-57.47.06c.12 1.16-2.19 1.12 0 0m24.15.06c.4.14-.42.48 0 0m40.7.06c.38.73 2.45 2.08 0 0m-59.74 0 .25.03zm58.91.01c-1.7.7 1.92 1.34 0 0m-21.27.06c-.42.02-.83 1.54 0 0m-26.53 0c1.17.93-1.1.31 0 0m51.4 0c.47.21.35 1.68 0 0m-55.6 0c1.08 1.46-.98 2.79 0 0m31.16.04c-.38.46.54.34 0 0m-33.3.02c.7.4 1.42 3.27 0 0m-25.4 0c.32.05.14.85 0 0m65.16.03c-2.94.65 2.48.3 0 0m-61.22.04c.82.38 1.02 2.7 0 0m28.66.05c.81.1-.48.82 0 0m36.13 0 .4.02zm-9.33.01h.34zm-45.06.01c3.73 3.98-5.86 1.7-1 1.75-2.34-3.16 1.5-.2 1-1.75m0 .53c-.1.6.43-.08 0 0m-2.18 1.16-.11.08zm69.15-1.67c-.64.45 1.1.95 0 0m-19.8 0c-1.16.74 1.1.72 0 0m-71.58.01c-.86.57-.1.53 0 0m103.71.07c-.2.31.71.83 0 0m-106.88.05c-.6.8-1.11 1.45 0 0m103.73 0c.24.71.61.4 0 0m-46.36.01c.22 1.05-1.34.41 0 0m45.42.04c-.24.56 1.73 2.14 0 0m-88.73.02c3.27 3.11.42 4.85 0 0m59.54.03c-2.3 2.09.72 1.19 0 0m25.31.01c-.24.5 1.29 2 0 0m-29 0c-1.53 1.11 1.21.91 0 0m30.82.04c-.07 2.7 1.7.52 0 0m-63.44 0c1.2 1.56-.8 2.18 0 0m3.45.03c-.27.13.32 1.06 0 0m49.6.03-.01.01c2.4 3 1.16-.2.01 0m-42.99.06c.46.26-.3.56 0 0m24.6.34c-.46.34.28.58 0 0m-26.47.08c.98.58-.63.7 0 0m44.76 0c-.54 1.06 2.54.91 0 0m-21 .02c-1.54 2.32.27 2.06 0 0m-46.77.09c-.05.53.64.6 0 0m5.7.07c-2.25 1.07 1.05.86 0 0m10.64.03c.37.26-.24.5 0 0m8.3.02c.41.46.04 2.08 0 0m44.8.03c1.16 2.9 2.58 2.96 0 0m-62.08 0c.74 1.15-1.06 1.36 0 0m45.27.05c-2.74.66 2.07.94 0 0m.42.51c.8.96 4.77.45 0 0m-.38.2c-1-.26-1.2.74 0 0m-.47.18c-.79.1.18.67 0 0m-.4.08c-3-2.27-1.41 5.38 0 0m-29.45-.95c.49.64-.78.45 0 0m-27.67.03c2.17 1.7-.9 1.74 0 0m-14.58.04c-.39.43.47.53 0 0m76.05 0c-.42.4.61.62 0 0m-1.15.06c.18.85 1.9.65 0 0m-5.17.03c-.42.48.41.14 0 0m9.53.04c-.24.3.72.86 0 0m-31.6.03c.55 3.06-1.58.94 0 0m44.72 0c-.53.1.4.55 0 0m-95.63.03c-.28.17.02.97 0 0m80.48.05c-2.28 1.41 2.51 1.57 0 0m-79.65.01c-.68.04-1.92 2.38 0 0m56.1.07c1.56 2.48.2 4.3 0 0m-39.99.02c.37.32-.25.64 0 0m86.43.1c-1.8 1.57.12 1.24.69 1.54-.64-.42.34-1.5-.69-1.54m-84.97.04c1.96 2.85.15 1.35 0 0m-20.64.02c.12.83-1.1-.08 0 0m18.53.04c1.32 1.37-.67.88 0 0m32.02.16c.45.26-.31.57 0 0m3.56.07c.39.68-1.29.56 0 0m1.06.06c.46.25-.3.57 0 0m-21.4.08c.66.88-1.38.38 0 0m51.86.01c-1.27 1.56 2.71.76 0 0m-53.53 0c.62.47-.7.87 0 0m-12.15.09c.5.48-.25.7 0 0m58.96 0c-1.35.63.5.83 0 0m9.24.01c-.12.47 1.11 1.1 0 0m23.05.02c.07.78.05.5 0 0m-14.92.02c-.8 1.46 2.38 1.66 0 0m-91.45 0c-.74.22.46.89 0 0m86.22.01c1.77 1.5-1.22 1.18 0 0m-91.55.04c.41.13-.42.48 0 0m93.69 0c-.33.26.26.53 0 0m-62.1 0c.7.22-.5.84 0 0m1.64 0c.69.22-.5.84 0 0m-6.76.03c2.24 2.27-1.86.78 0 0m76.94 0c-.26-.03.07.58 0 0m-67.2.07c-.3.57.46.26 0 0m52.9.1c.57 1.57 1.15.2 0 0m-58.16.02c-.32.49-2.9.92 0 0m59.07.04c.45.73 2.68 2.15 0 0m-48.57 0c-.14 1-1.07.28 0 0m67.07.1c-.22 1.27 1.16.27 0 0m-34.44.12c-2.01.51.7.58 0 0m-24.19 0c.41.18-.08.7 0 0m-47.18.01c-3.26 1.86 1.17.9 0 0m-1.94 0c-1.24.8.65.39 0 0m102.05.02c-.67 2.2 3.7.75 0 0m-4.4.04c.26 1.37 1.24.19 0 0m-20.02 0c-.74.63.31.72 0 0m19.63 0c-.47.1.23.53 0 0m-46.97.01c.8.37-.39 1.21 0 0m61.5.02c1.08 2.27 1.75 1.17 0 0m-58.79.02c.76.47-.45 1.45 0 0m30.59 0c.41.7 2.05.42 0 0m-78.85.03c-.44.74.98.06 0 0m47.96 0c.42.13-.41.49 0 0m27.35.04c-.42.33.62.66 0 0m11.99.06c.2.37 1.33 1.26 0 0m-43.37.05c.82.42-.23.18-.27 1.2 1.58-1.59-1.14 1.56-.08-1zm30.73 0c-.51.44.6.42 0 0m33.2.04c-.22.26.5.84 0 0m-18.44 0c-.16.33.97.9 0 0m-17.36 0 .25.02zm-33.46.03c.73.66-.05 1.51 0 0m27.16.02c-2.77 2.81 1.42 1.47 0 0m-42.63.02c.41.13-.41.48 0 0m46.68 0c-1.16.8.48.43 0 0m-62.47.02c.51 1.2-.5-.78.15.7.12.94-.37 2.2-1.02 2.14-1.47 1.91-.52-2.43.87-2.84m75.43.03c-.05.52 1.55 1.31 0 0m-6.98.08c-.33.26.3.48 0 0m33.77.06c-1.18.62.55 1.02 0 0m-91.86.07c.8 1.14 1.3 3.05 0 0m67.13.1c1 2.44 2.06 1.3 0 0m-83.72.09c-.5.62.68 1.1 0 0m34.62.02c.5.26.42 1.82 0 0m52.97 0c.12 1.84 2.83.8 0 0m14.58 0c-.45.7.77 1.19 0 0m-47.21.03c.5.19.54 1.71 0 0m-6.12.02c.26 1.05-1.64.37 0 0m44.98.04c.02.75.52.31 0 0m-18.1.03c-.54.51 0 .53 0 0m-56.99.01c1.03.34-1 .48 0 0m-19.68 0c-.07-.1 0 .7 0 0m33.84.02c1 .5-.44.18 0 0m-2.05.03c.06 2.27-.75.96 0 0m77.15.04c1.4 6.36 3.66 10.68 5.31 16.42.48 4.59 1.74 7.31 1.26 1.46-2.29-5.93-4.32-12-6.57-17.88m-114.91.1c.64 6.15 2.24 8.86 1.57 3.95.65-1.48-.58-2.57-1.57-3.95m1.82 6.28-.03.28zm10.74-6.26c-.25.29.06 1.23 0 0m31.65.06c.43.37-.32 2.3 0 0m-21.93.02c1.66 1.85 1.13 2.7 0 0m-7.79.01c-.05 1.75-2.4 2.8 0 0m-.3.67.07-.03zm98.68-.66c-.2.44 1.16 1 0 0m-88.19 0c.46 1.08-.19.89 0 0m49.39.03c-2.11 2.68 6.05 2.61.53.1zm13.78 0c-.46.1.24.53 0 0m11.84.01c-.51.65.9.43 0 0m1.02 0c.55 3.44 4.72 2 0 0m-48.3.02c.44.16-.05.66 0 0m35.7.03c.04.75.93.51 0 0m11.04.01c-.58.06.83.44 0 0m-64.1.04c-.5.31.52.27 0 0m-29.8.04c-.61.57.13 1.5 0 0m40.76.06c.42.14-.4.48 0 0m-31.02.02c1.3 1.48-2.22 1.1 0 0m98.32.03c-.22 1.73 2.04 1.72 0 0m-8.69 0c-1.07.57.04.78 0 0m-5.69.02c-1.17 1.19 2.59 1.32 0 0m-22.38.01c-.12.43.57.51 0 0m-73.4.04c-.6.78.75.34 0 0m36.66.12c.97.5-.4.2 0 0m-23.71.06c6.02 3.88-1.24 1.57 0 0m-.07.52c.12-.23-.49-.7 0 0m24.11-.52c.54.25.39 1.94 0 0m31.38.03c-.61.2.67.4 0 0m37.77.09c-.26-.04.07.57 0 0m-59.2.1c.42.13-.4.47 0 0m51.46.07c.68.24-.46.66 0 0m-26.76 0c.77.25-.57.72 0 0m2.44.02c-1.5.76 4.27 1.81.64.3l-.1-.16zm-71.03.07c-1.25 1.57 1.65.67 0 0m77.8 0 .17.12zm-39.12.01c.26.39-.9 1.08 0 0m27.14.02c-3.22 1.6 1.68.49 0 0m28.18.05c-.01.56.64.58 0 0m11.83.06c-.22.25.52.85 0 0m-77.16.01c-.44.41.23.72 0 0m-22.21.02c-.3.28.07.62 0 0m37.36.02c1.17.14-.71.6 0 0m45.9.01c-.3.37.83 1.19 0 0m-24.99 0c-1.1.85-1.75 1.35 0 0m-37.16.04c-.68.4.35 1.01 0 0m70.06 0c.07 3 1.95.87 0 0m-24.77.07c1.44.92 1.9 1.21 0 0m27.6.03c-.7.84.43 1.3.43.18zm-33.34.05c-.43.02-1.55.93 0 0m-22.04.01c.7.83-.2 1.97 0 0m38.85 0c.08.53 1.7.43 0 0m8.04.02c1.03.61-.8 4.09 0 0m.17.5v-.06zm-95.51-.46c-.23.52.4.45 0 0m106.6.04c-.27-.03.07.58 0 0M31.5 152c1.25.64-1.05 1.05 0 0m36.56.05c.52.85-.29 1.54 0 0m-.85.18c.33.27-.62 1.03 0 0m54.05 0c-.25-.03.08.56 0 0m-94.83.02c-.54.43-.4.32 0 0m101.32.08c.05 3.82.83 3.82 0 0m-18.4.04c-.47.13.23.53 0 0m-66.3.17c.35.96-.95-.02 0 0m83.97 0c-.16.44 1.1 1.77 0 0m-5.92.01c.3 1 .7.18 0 0m-71.25.01c-.3.57.46.25 0 0m36.55.06c-.83.5.57.32 0 0m-16.27.08c1 .52-1 .88 0 0m-5.39.03c2.02 2.36-2.85 2.5 0 0m66.34.03c-.22.25.52.85 0 0m-104.6.01c-2.15 2.67-.18 1.19 0 0m95.78 0c-.23 1.12.53 1.13 0 0m-9.77.03c.18.68.61.36 0 0m16.05.06c-.17 2.32 2.7 1.34 0 0m1.7 0c-.26-.02.08.58 0 0m-58.26.1c2.1 2.34-1.7.82 0 0m41.15.02c-.17.37.8 1.3 0 0m10.24.01c-.03 1.4.62 1.1 0 0M60.7 153c.6.11.09 1.22 0 0m25.7.07c-3.24 1.2.62 1.04 0 0m-63.7 0q-.86 1.47 0 0m-4.41.03c-.78.46.47 1.04 0 0m67.57.02-.33.19zm31.53.02c-.47.1.23.53 0 0m-7.66 0c-.23.25.51.87 0 0m-83.02.01c-.54.43-.4.32 0 0m3.36.06c.37 3.18-3.64 4.96 0 0m58.9.15c-.48 1.13.97.37 0 0m-21.4.02c.33.9-.9.09 0 0m2.7.03c-2.2 2-1.71-.19 0 0m-46.42.07c.41.14-.42.48 0 0m26.45.03c.52.27-.5.31 0 0m-18.27.06c.8.52.05 1.72 0 0m80.64.01c-.03 1.63 1.47.35 0 0m-80.93.17c1.44 2.15-1.43 1.83 0 0m71.59.04c.36.14.66 1.99 0 0m-18.9 0c-1.13.67.3.73 0 0m5.25 0c-2.96.77.86 1.42 0 0m-54.2.11c.1.7-1.06.72 0 0m16.03.03c.7 2.34-1.32 2 0 0m79.2.01c.95 4.6 2.38 1.97 0 0m-104.54.09c-.42 1.26.77.53 0 0m44.25.04c.3.65-.65.06 0 0m-4.02.02c.76.7-.78.2 0 0m.38.03c.41.13-.42.48 0 0m4.35.04c4.44 3.76-1.02.73 0 0m-51.27.02c-1.48 1.65.57 1.03 0 0m89.29.06h.01c.74 3.2-.36 3.23-.01 0m2.93 0 .09.17zm-91.33 0c-.65 1.07 1 .52 0 0m2.24 0c-.48.14-.39 1.75 0 0m64.9.05c-.57 1.01 1.37.5 0 0m-65.53 0c-.7.2.4.77 0 0m62.59 0c-.54.43-.41.33 0 0m-34.14.04c1.21 3.06-1.22.54 0 0m18.83.01c-.44.83-3.1-.29 0 0m-42.5.02c-.16-1.2.31 2.85 0 0m3.79.06c1.14 2.08-3.95 1.64 0 0m4.76.1c1.51 3.15-.41 1.44 0 0m79.4.04c.48.3-.26.6 0 0m-10.63.02c1.13.73.56 2.45 0 0m-44.01.07c.3.38-.42 2.03 0 0m60.01 0c-.26-.02.07.58 0 0m-28.31.03c-.15.73 1.83 1.65 0 0m-74.07.04c0 .05.01 0 0 0m48.42.1c-.13 1.34-.94.89 0 0m-.3.7c-.16.23.15.1 0 0m47.33-.7c-.28.4.95 1.8 0 0m16.44.03c.21 2.49.9.68 0 0m-.8 0c-.64 1.36.47 1.35 0 0m-104.44.01c-.41 1.09.64.45 0 0m41.1.04c.04.83-2.1 2.28 0 0m-46.76.02c-.18.22.2 1 0 0m75.23 0c-2.8 2.56 2.57 1.96 0 0m-30.9.04c.29.38-.8 1.24 0 0m64.29.02c-.3.18.03.96 0 0m-65.28 0c-.2 1.9-1.1.17 0 0m-39 .07c-.56.83-1.01 1.52 0 0m109.04.05c-.33.55.47.24 0 0m-44.36.04c-.26 1.2.97.27 0 0m-1.26 0c-.72.31-.43.2 0 0m-3.95.06c-1.06.21.38.78 0 0m15.66.07c1.12 2.26 2.18 2 0 0m-29.88.01c1.02 1.07-1.38 1 0 0m-19.8.14c4.85 3.36-2.15 3.06 0 0m43.7.18c-.08.57.71-.12 0 0m19.07.03.11.39zm-64.43.02c.38.64-.53.9 0 0m45.74.07c.1 1.7.77.56 0 0m-32.7.03c.97.5-.41.2 0 0m-24.59 0c.33.74-.48 1.17 0 0m50 0c-2.49 1.03.33 1.02 0 0m16.63.01c3.68 2.37 5.36 15.1 2.08 5.32.03-1.76-3.7-3.93-2.08-5.32m-11.03.05c-.7.4.94.82 0 0m-59.78.03c.77.83-1.07.88 0 0m51.66.03c-.36.26.24.48 0 0m-13.27.02c.46 2.32-.78 1.7 0 0m-.47 0c.37.15-.18 1.13 0 0m-3.63.01c.41.14-.42.48 0 0m62.05.03c-.27-.03.07.56 0 0m.52 0c-.19.23.2 1.01 0 0m-3.25.05c-.31 2.2-.87.5 0 0m-105.09.07c-1.15 1.5 1.59.54 0 0m10.1.03c.94.6-.87.27 0 0m81.9.05c.73.35-.5.8 0 0m-82.4.02c-.7 2.06-.97.66 0 0m3.23 0c.52.19-.16.73 0 0m-6.14 0c-1.64 1.26.64 1.34 0 0m70.46.18c-.13.35.96.89 0 0m-34.98.02c.54.1-.37.56 0 0m60.59.1c1.99 1.25-1.96.69 0 0m4.67 0c.39 1.9 1.8.47 0 0m-46.24.03-.11.08zm14.07 0c.76 2.47 1.62.32 0 0m1.31.01c-.13 3.32 4.26 5.85 1.03 1.03l-.59-.77zm33 .12c-3.18.6-2.25 8.8-.89 4.18 4 6.61 2.39-.4.88-4.18m-31.63 0c-.23.97 1.25 1.3 0 0m-67.66.03c.45.26-.3.56 0 0m57.97.01c1.4.93 1.96.1 0 0m-63.3.04c-.26-.02.08.56 0 0m10.73 0c.7.68-.27 1.5 0 0m-12.89.02c-2.26 1.72 1.43 2.23 0 0m40.17 0c1.08.73-.78.5 0 0m24.34.02c-4.01 3.14 1.03 3.07.63.28zm39.29.02c-.08.56.7-.12 0 0m-57.52.03c.43.95-.95-.04 0 0m-28.83.04c.53.26-.49.31 0 0m45.85 0c-.2.3.7.9 0 0m23.05.03c.91 1.1-1.15.62 0 0m-28.15.02c-1.08.59.47.74 0 0m-62.17.07c-.4 1.43.31.3 0 0m72.53.03h.34zm-24.9.04c.39.35-1.23 1.07 0 0m62.59.03c.41.13-.41.48 0 0m-8.02 0c1.52.62-.92.53 0 0m-8.8.03c.52.27-.49.31 0 0m-21.76.02c-.47.1.23.53 0 0m-29.32.05c.4.35-1.23 1.07 0 0m8.15 0c.45 2.54-.63 3.25 0 0m57.74.03c-.06.62 1.06 2.72 0 0m-96.76.1c.47.25-.3.58 0 0m10.51.03c.67.1 1.22 3.15 0 0m78.83 0c3.38 2.43-.15 3.82 0 0m-94.46 0c-.51.36-1.1 3.21 0 0m66.02.01c-.09.46 1.34.59 0 0m-72.03.05c-.85 7.14-1.05 14.28-2.5 21.41-.23 3.67-3.46 11.83 0 8.51-.03-3.96.36.6.8-4.02-.56-3.8.53-9.27 2.63-14.92 1.2-3.04 5.45-5.38 5.75-8.75-2.64.11-4.22 4.45-6.51 7.03-2.1-2.9 2.93-6.65.66-7.3-1.93 3.66-.53-1.07-.83-1.96m5.76 2.5c.37.18.22-.46 0 0m-6.67 15.4c.6 1.75.87-.49 0 0m.65.76c-.12 1.13 1.06-.38 0 0m-2.18 10.6c.09.22.13-.65 0 0m90.3-29.26c-.53.1.4.55 0 0m-86.83.03c-.2.16.2.73 0 0m103.58 0c.46.26-.3.58 0 0m-85.09.09c2.08 1.16-.74.5 0 0m-4.6 0c.51.19-.2.7 0 0m88.06.06c.46.36-.32.74 0 0m-89.16.02c1.4.53-2.4 4.37.09 1.72-1.95 4.55-3.81 3.8-1.52-.64.96-.88.58-.59 1.43-1.08m28.24.04c.32.53-1.09 1.67 0 0m1.66.06c.93.85-.33 2.33 0 0m32.45 0c-.62 1.47 2.56 1.42 0 0m-10.5.05c1.24 1.63 1.57.33 0 0m-7.05 0c1.34.28-.9.8 0 0m48.24.1c-.68 3.4 1.83.98 0 0m-16.36.1c.82.44-.54.07 0 0m-41.48.01c1.1.39-1.47.5 0 0m47.48.03c.63.17-.28.8 0 0m-32.85.02c-1.02.74 1.71.1 0 0M130 158c-.63 2.02-1.56.5 0 0m-41.26.1c-.45.34.3.57 0 0m24.93.02c.16.96-1.01.98 0 0m-7.99.05c.37 1.9-.85 1.04 0 0m-69.84.05c.62.2-.34.36 0 0m87.78.1c.7.98-.84.24 0 0m-102.36 0c-.25-.02.08.57 0 0m42.26.02c.39.07.27 1.4 0 0m16.6.01c-1.53 1.9 2.9-.13 0 0m-19.44.05c.4.17-.1.68 0 0m7.52.03c-.98 2.04-2.29 1.48 0 0zm63.04 0c-.85 2.75 2.08 1.44 0 0m.08 1.53c-.58-.26 1.1 2.23 0 0m-15.96-1.43c.5.85-.95.3 0 0m-77.17.03c.41.02.6 1.15 0 0m5.74.03c1.16.32.8 1.78 0 0m-8.44.01c.62.67 1.17 3.09 0 0m53.32.04c-.38 1.09.73.54 0 0m22.19.03c.81.44-.55.06 0 0m-4.95.02c1.18 2.9-.46 1.42 0 0m-6.8.07c-1.65 2.84 3.31 1.6 0 0m-63.1.04c.82.44-.53.06 0 0m-2.32.07c.85 1.17-.88 2.43 0 0m50.1 0c-1.02 1.14 1.92.47 0 0m9.34.04c-.36.45.9 1.58 0 0m-72 .1c-.25.38.95 1.45 0 0m39.32 0c1.29.41-.71.66 0 0m1.72.16c.37.2-.23 1.21 0 0m-20.7.04c.63.17-.28.8 0 0m53.72.03c.2.9 1.42-.13 0 0m-73.1.02c-.26.38.95 1.45 0 0m102.97.02c-.21.18.2.72 0 0m-93.59.07c-.26-.03.07.57 0 0m3.87.01c1.22 3.09-.75 1.27 0 0m45.86 0c-.17.4 1.09.69 0 0m-36.97.1c.2.8-.97.25 0 0m70.75.07c1.43.45-.78.97 0 0m-47.07.04c.63.83-1.42 1.65 0 0m-25.02.02c.61.07 1.69 2.89 0 0m58.17.04c.8 1.9 1.2.34 0 0m3.14.1c-.25.31.72.87 0 0m-59.47.03c.53.6-.62.43 0 0m61 .02c.9 3.07.51 3.24 0 0m-13 .08c.5.33-.02.65 0 0m-30.31 0c.42.41-.5.51 0 0m31.05.01c-.15.48.98 1.51 0 0m-7.72.11c-1.1 1.18 2.11.83 0 0m-49.03.03c2 .95-.14 1.26 0 0m60.88.03c-.13.56.72-.1 0 0m-62.95 0c1.52 1.66.5 1.41 0 0m-10.03.02c-.45 2.69-2.2 1.83 0 0m16.67.01c2.23.95-1.87 2.98 0 0m55.32.04c.3 1.49 1.23 1.91.55.23zm-18.98.06c5.37.4-2.53 4.04-.7.13zm48.96 0c-.35.33.1.84 0 0m-.7.07c-.26 0 .09.55 0 0m-10.32 0c1.75.55-.6.85 0 0m-31.11.07c-.9.65-.08.53 0 0m3.2.08c-3.68.6.98.94 0 0m-61.42.01c-1.52 1.95 1.6.93 0 0m4.05.03c1 .35-1 .47 0 0m68.96.07c-.12.39.76 1.2 0 0m-63.4.02c1.32.97-.46.53 0 0m7.1.13c.24.41-.45.46 0 0m52.87.03c-.08.56.71-.13 0 0m23.73.01c-.21.52.36.27 0 0m-40.81.03c-.73.38-.55.28 0 0m36.3.02c.44.98-.98-.01 0 0m-11.81.09c.97.5-.41.19 0 0m-8.87.01c-1.95 1.9.93 1.64.55.53.38-.67-.56-.26-.55-.53m3.44.03c-.02.56 1.6 2.03 0 0m9.43.09c.58.88-.25 1.84 0 0m-64.89.03c.3.26-.25.8 0 0m88.83 0c-.26.44 1.28 1.23 0 0m-13.1.03c.47 1.31-1.62.17 0 0m-74.34.06c1.82 1.76-1.68 1.02 0 0m-22.33.01c-.62.78.74.34 0 0m77.3.01c-.61.4.63.62 0 0m-14.9 0c-.56.53-.28.27 0 0m-39 .02c.57.1 1.7 1.97 0 0m66.16.06c.96 1.22-.97.33 0 0m-15.48 0c-.04 1.18 1.36.43 0 0m14.38.03c.47.38-.32.74 0 0m24.65.04c-.48.33.54.26 0 0m-6.25.08c-.25.2.4.72 0 0m4.11.09c-.15.43 1.33 1.37 0 0m-90.03.02c.9 1.15-3.15.82 0 0m-8.72 0c2.78 2.78 3.77 8.42-.5 2.64-1.3-.76-.53-2.33.5-2.63m81.66.12c.38 1.33.17.57 0 0m17.9 0c.14.66.64.4 0 0m-20.7.02c.35.27-.22.52 0 0m-4.08.01c.97.49-.41.2 0 0m-45.76.13c.49.34-.34.71 0 0m-16.59.12c.46.25-.34.54 0 0m68.47.02c.3 0 .12 3.83 0 0m-47.49.01c.41.02.6 1.15 0 0m61.76.09c-.1.42.91 1.24 0 0m-10.17.04c1 4.05.29 2.34-.44 4.33.71 7.02-1.25-3.27.44-4.33m-20.05.03c-.12.38.76 1.2 0 0m2.85.02c-.53.51.36.41 0 0m14.37.03c.94 1.65-.77 2.59 0 0m1.05.08c-1.1.24.96.51 0 0m-14.6 0c-.2.27.51.85 0 0m29.83.04c.78 1.92 1.57 1.01 0 0m-11.52 0c1 1.78-1.68 1.34 0 0m-10.09.02c1.5 2.07-2.14 5.85.08 1.06-1.28 1.56-3.26 2.15-.08-1.06m-48.22 0c.47.24-.34.56 0 0m4.23.05c.25 1.02-1.64.71 0 0m2.8.1c2.5 3.97 1.82 4.43 0 0m57.12.02c-.33.83.65.28 0 0m6.52.03c-.17.27.64.63 0 0m-68.49.04c-.07.43-1.32 1.4 0 0m42.93.07c.64.39.96 2.41 0 0m11.46.01c-.2.22.19 1.02 0 0m-48.91.09c.44.27.84 1.7 0 0m28.97.02c-.09.46 1.43 1.23 0 0m-18.84.02c.8 1.73-2.7.6 0 0m-48.11 0c1.82 1.92-.56 2.45 0 0m5.74 0c.92.36.56 1.58 0 0m37.07.1c.53 3.36 1.6-1 .35 2.15-2.2 5.53-2.21 1.64-.64-1.98zm-33.37.04c.7 2.36-1.9.58 0 0m61.56 0c-.2.26.51.84 0 0m-3.19.03c-.1.53 1.55.8 0 0m-75.06.01c-.4.43.47.54 0 0m110.13.02c-.57.06.83.43 0 0m-3.42 0c.26.46 1.72 1.42 0 0m-84.38.02c3.75 2.05 2.5 3.58 0 0m17.6.03c-1.1 2.34-7.5 7.48-2.65 2.65.87-.89 1.64-1.9 2.65-2.65m29.74.02c-1.7 1.23 1.27 2.9 0 0m-.42 1.81c.06-.7-.34.29 0 0m10.23-1.8c1.3.46-.33.54 0 0m-80.77.03c-1.19 3.15-3.3 1.44 0 0m14 0c1.57 1.65-.17 1.15 0 0m-13.28.06c-.36.47.53.36 0 0m103.2.02c-.16.48 1.07 2.16 0 0m-95.92.05c.36.26-.2.52 0 0m80.89.04c.83.98 1.78 2.46 1.44 3.69 1.12-.05-.68 7.44-.77 1.93-.4.56-.28-2.44-.67-5.62m19.65.01c.78 1.42.95-.04 0 0m-101.11.08c1.11 1.09-.23.88 0 0m98.4.02c.31 2.88 1.7.5 0 0m-109.29.1c-.33.32.18.74 0 0m8.14.01c-.37.17-.23 1.18 0 0m65.47.07c-.2.27.51.84 0 0m37.44.04c-.02.57 1.7 2.24 0 0m-94.4 0c.93.24.8 1.35 0 0m65.6.04c1.3 1.4-1.71 1.13 0 0m31.5 0c-.86.8 1.85 1.86 0 0m.53 1.03c-2.02-1.22 2.61 4.21 0 0m-95.97-.98c2.18 1.41-1.16 1.02 0 0m7.37 0c1.6 1.94.7 3.57 0 0m20.51.06c.97.73.16.74 0 0m-16.5.18c.75.6-.3.74 0 0m30 .02c-.1.76-1.24.63 0 0m19.9.03c-.28.19.03.97 0 0m-22.67.03c-1.25.75 1.5 1.45-.72.6.52-.33-.35.12.72-.6m-46.88 0c.42.14-.4.5 0 0m99.4.04c-.28.65 2.08 2.86 0 0m-34.65 0c.32.29-.66 1.06 0 0m40.23.08c-.58.05.83.43 0 0m-95.89 0c1.9.95.14 1.16 0 0m92.97.06c.1.97 1.5.88 0 0m-110.08.03c-.4.55.08.45 0 0m103.06 0c1.77 3.1-1.48 1.1 0 0m-87.36.08c.52.26-.49.31 0 0m15.65.07c.35.27-.21.52 0 0m22.93.07c.12.02-.06.05 0 0m-34.45.08c1.32 1.59-1.08.81 0 0m73.66.06c.33.39-.48 1.68 0 0m-88.3.02c.6.04.07.85 0 0m90.33.02c.52 1.09-.34 1.87 0 0m-76.86.03c.83.77-.25 1.59 0 0m-8.67 0c1.34.68-1.02.31 0 0m88.07.03c.33.24-.4 1.15 0 0m-28.24.03.24.02zm8.64.12c.06.5 1.53 1.74 0 0m7.47.04c.4-.01.36 1.1 0 0m-8.06.04c-1.04 1.13 1.9.54 0 0m-55.64 0c.41.02.6 1.16 0 0m32.13.01c1.92 1.9 2.3 1.38-1.69 1.46l.65-.97zm52.53.04c-.1.36.93 1.2 0 0m-105.9.01c-1.65 2.46 1.28 1.2 0 0m112.33.04.33.24zm-40.38.05c-.27-.03.06.58 0 0m37.23.01c.6 1.66 1.21.2 0 0m-29.43.1c.44.07.4 1.36 0 0m22.72.02c.53.27-.49.31 0 0m-22.15 0c.77.74-.32.36 0 0m30.42.02c-.22.25.52.85 0 0m-95.3.08c1.8 2.85.09 1.16 0 0m31.05.15c1.22 1.4-2.08 1.53 0 0m24.52 0c-.01.85 1.22.82 0 0m17.29.02c.52.51-.56.84 0 0m-73.44.01c1.1 1.2 1.33 3.13-.54 1.91-.54-1.6.95 0-.27-1.58.11-.69 1.34.52.81-.33m.12.31.05.04zm.53.7c-.24-1.54-.8.26 0 0m5.94-1c.52.18-.2.7 0 0m70.36 0c.5.06-.15.66 0 0m-43.62.07c1.14 2.1-.72 2.19 0 0m59.5.09c-.21.92 1.28.62 0 0m-90.53.05c-.3 1.2-1.8 1.57 0 0m83.53.04c1.76 1.56 2.04 9.06-.16 3.27-1.54 2.34.9-.88-.82-2.06.11-1.7 2.59 4.4.94-.52zm-26.45.03c5.93 4.3.1 7.74-1.72 4.53-.74-.84.65-3.63 1.72-4.53m-1.86 3.84c-.3 1.07.75-.53 0 0m-45.73-3.79.23 1.63-.03.67c-.67-.14.3-2.1-.2-2.3m-25.1.12c-.29.15.3 1.03 0 0m95 .04c.86 2.54-.96.93 0 0m-4.67.06c1.26 1.1-1.27.9 0 0m8.28 0c.98.5-.4.2 0 0m-17.16.05c.36 1.44-.53 1.8 0 0m-54.82 0c5.74 1.9 2.24 3.02 0 0m60.64.17zc.81 2.6-1.55 1.87 0 0m-69.56.02c1.1.67.32 2.48.42.95zm.42.95.08.14zm-2.05-.9c1.14.98-.96 1.19 0 0m83.95.04c.78.83 1.7 1.03.87 1.62.03-.34-.48-.4-.87-1.62m-90.26.01c1.1.71-.18.84 0 0m69.31.04c.9 1.42-.37.85 0 0m-72.18.02c-.13.51 1.4 1.09 0 0m40.7.1c.82.44-.58.06 0 0m-8.6.01c1.19 2.59-2.5 1.93 0 0m46.2.04c.03.99-1.39-.02 0 0m-81.48 0c-.94 1.05.6.7 0 0m105.36.27c-1.35 2.88 2.8 1 0 0m-86.66.07c.82.43-.54.06 0 0m25.62 0c1 1.2-1.48.5 0 0m58.06.01c-1.31 1.22 1.66 3.73 0 0m-89.15.06c2.06 2.6-1.56 1.34 0 0m-10.42.03c-.07-.12 0 .68 0 0m67.12.03c-.2.7.52.18 0 0m-75.7.04c-.92.42.4.63 0 0m35.99.03c1.8 1.26-1.57 1.66 0 0m-.1 1 .15-.01zm65.2-.85c.39 0 .36 1.09 0 0m-64.38 0c1.51.65-1.29.85 0 0m50.15.04c.42.12-.4.48 0 0m-54.8.05c.78.15-.19.7 0 0m74.86.15c.35 4.3 3.67 3.67 0 0m-14.48 0c1.3.4-.7.66 0 0m-83.09.08c-.44.45.84.1 0 0m20.84.04c.92 2.01-.63 1.06 0 0m-23.54 0c-1.46.95.59.68 0 0m83.31.03c.75.7-.79.2 0 0m15.09.03c.11.7 1.83 2.68 0 0m-70.78.02c.1 1.16-4.37.22 0 0m15.85.06c.84 1.62-1.12.8 0 0m62.77 0c-1.14.63 2.05.27 0 0m-98.88.03c.65 1.83-2.67.81 0 0m72.75.03c-.26 1.53-1.25.16 0 0m1.27.08c1.76 6.31-1.61 7-.28.65zm.39 4.09.01-.38zm21.71-4.01c-1.05 1.54 2.84 1.79 0 0m-85.4 0c1.1 3.4-1.85 1.33 0 0m65.02.06c-.98 2.58-1.32.42 0 0m-40.6 0c.52.27 1.57 2.95 0 0m60.38 0c-.05-.07.36.62 0 0m-95.16.02c.6.33.28.64 0 0m20.73 0c-.44 1.66-2.13.92 0 0m16.72.15c1.97 2.64-.06 1.96 0 0m-45.97.02c-.2.24.64.65 0 0m86.7 0c.33.28-.65 1.05 0 0m-91.41.01c-.48.31.31.56 0 0m6.34.07c1.94 1.34 1.46 3.75 0 0m.85 1.5c.42.81-.05-.6 0 0m76.64-1.47c-.06.7-2.16 1.91 0 0m27.82.07c-.65.3.26 1.08 0 0m-100.76.06c.46.21 1.64 2.04 0 0m2.96 0c.58.16-.34.37 0 0m30.96 0c.1 1.1-1.57.12 0 0m-12.76.13c2.44 2.11-2.66.94 0 0m59.67 0c1.05 1.38-.66 2.84 0 0m-37.65.01c.15.35-.77 1.22 0 0m41.5 0c1.38.95-.7.35 0 0m-95.14.05c-.34.3.22.51 0 0m-1.84.04c-2.85 2.04.82 1.64 0 0m75.98.01c-2.48 1.3 1.47 1.24 0 0m31.23.03c-.19.25.65.63 0 0m-89.47.02c.51.05-.15.65 0 0m3.19.04c.97.5-.41.2 0 0m-1.45.04c.97 1.66-2.37 3.43 0 0m-.3 1 .02.03zm27.1-.92c.26.32-.76 1.25 0 0m-9.75.02c1.33 1.66.17 3.3 0 0m-15 0c.6.08.66 1.94 0 0m14.28.06c1.12 2.59-3.59 1.21 0 0m43.44.03c3.62 2.74-1.51 1.29 0 0m-38.88.03c.7.6-.48 1.62 0 0m12.37 0c.46.17-.26.55 0 0m60.8.04c-.27-.03.07.57 0 0m-7.46.01c.22 2.08 2.83.64 0 0m6.11.01c-.22.25.52.86 0 0m1.43.33c-1.33.86 1.47 1.25 0 0m-4.55.05c-.14.36.77 1.2 0 0m-95.99.18c2.35.96 1.6 2.4 0 0m98.8 0c.3 1 .69.17 0 0m-83.06.02c.97.49-.4.2 0 0m21.21.03c.68.83-.2 1.07 0 0m-43.38.03c2.02 2.69-.49 4.29 0 0m46.6.02c.51.06-.14.65 0 0m-2.53 0c.31.63-.48.91 0 0m41.17.04c1.16 1.3-.24 2.95 0 0m-69.78 0c.3.77-.52.88 0 0m-4.55.07c.59 1.7-.21 12.36-1 4.15.04-1.4.32-2.9 1-4.15m63.64 0c1.38.95-.71.34 0 0m-45.9.07c-.9.37 1.02.74 0 0m-32.28 0c-1.31.41.72 1.58 0 0m102.08.06c.48.78-.59 1.48 0 0m-65.65.02c-.22.72-2.6 2.2 0 0m55.25 0c0 .8-1.67 2.39 0 0m-54.58.06c.42.13-.4.48 0 0m11.28.03c.53.26-.49.3 0 0m-49.47 0c-2.52.52-.23 1.43 0 0m30.34.01c.64.94-.64 1.82 0 0m-3.1.03c.51.05-.15.64 0 0m70.2.02c1.35 1.02.73 2.49 0 0m-84.52.03c.44.27-.34.6 0 0m38.47.01c1.22 1.38-1.13 1.21 0 0m-55.3.12c-1.5 3.32 1.04 2.87 0 0m98.73.01c.8 3.33-.36 1.21 0 0m-81.56.02c.46.33.42 1.8 0 0m24.28.02c.66.06-.38.72 0 0m-14.57.04c.66.23-.37.79 0 0m49.51.04c-.41.48.42.13 0 0m-51.74.04c.36.75-.75.28 0 0m62.35.09c1.22 1.8-4.37 7.68-4 7.52-.14-2.94-.3-.71 1.34-4.98.71-1 1.43-2.14 2.66-2.54m10.42 0c1.12 2.48-1.77 2.85 0 0m-19.94.05c.1.77.35.15 0 0m25.7.01c-.31-.78 1.3 2.8 0 0m-58.78.01c.58.27-.39.6 0 0m62.17 0c1.51 1.44 1.77 3.71 2.61 6.5 1.93 3.35 2.05 6-.24 1.53-.38-1.24-3.42-5.9-1.14-2.55-.11-1.75-2.14-3.67-1.23-5.48m-5.12.04c.85 1.93-.75 3.75 0 0m-70.4.02c.93.3-.87.9 0 0m82.25.03c-.31.3.65 1.05 0 0m-1.87.02c-.37 1.37 1.95.3 0 0m-69.64 0c.27.46-1.2.89 0 0m72.34 0c-1.13.78 1.7.73 0 0m-18.66.05c.4.17-.11.67 0 0m-76.16.05c-.26-.02.08.57 0 0m-3.1.04c.67.36 0 .81 0 0m72.37.04c1.18 1.23-2.4 1.19 0 0m26.97 0c.28.44 1.6 1.5 0 0m-113.4.04c-.42 1.2.97.53 0 0m110.5.03c-.79 1.7 2.26.6 0 0m-71.26.06c-2.08 1.83-1.1-.24 0 0m-42.9.07c.51.19-.2.7 0 0m44.85.04c1.62 3.52-2.5.43.12.3.1.05-.05.07-.12-.3m-.49.24c-1.22.64 1.47 1.05 0 0m-18.32-.2c.47.12.36 1.33 0 0m30.06.01c.47 1.43-1.27.3 0 0m-39.01.02c2.77.88-2.74.37 0 0m-3.82.02c.32.05.14.85 0 0m-5.4.02c-3.96 2.59 1.67 1.86 0 0m4.73 0c1.1.7-.17.83 0 0m37.58.04c4.36-.05.72 2.82 0 0m.2.58c.68.09.05-.74 0 0m-44.3-.57c-.43.03-.81 1.52 0 0m40.27 0c.58.14.65 2.34 0 0m-3.47.11c.58 1.81-2.45 1.2 0 0m-24.2.2c.5.31 0 .75 0 0m89.68.02c-.68.5.5.66 0 0m.52.03c-.35.27.22.51 0 0m-76.2 0c.46.26-.3.57 0 0m74.34.01c.04 2.32-.67.84 0 0m10.66.24c-.2.23.2.67 0 0m-13.64 0c1.67 1.78 4.23 6.03.98 1.96l-.78-1.36zm-86.91.02c.73.1.01.55 0 0m88.03.11c1.06 1.02.8 2.2 0 0m-22.88.05c5.12 1.82-.95 7.6 1.09.86-.21-.78-2.59 1.5-1.1-.86m14.66.03c.68 1.38-2.07 1.02 0 0m-93.56.03c-.42.32.51 1.87 0 0m39.45.02c.41.21-.11.68 0 0m-25.24.02c1.09.81.01.83 0 0m46.57.1c.29 1.57.1 4.69 0 .89-1 2.69-.59-1.29 0-.9m-.01.25.02.64zm-16.08-.21c.68.2-.51.83 0 0m-23.4.05c1.97.75.07 1.51 0 0m62.37.04c-.35.26.24.48 0 0m18.75.02c.45.28.85 1.7 0 0m-94.84 0c.49.23.36 1.67 0 0m82.2.01c.72.68.06 1.56 0 0m-87.24.03c-1.71.7 1.2.78 0 0m10.82 0c3.37 2.62 2.68 4.03 0 0m-10.27.03c-.6.2.68.4 0 0m109.02.01c.67 2.46 1.39 1.56 0 0m-106.8.08c-2.16 1.33 1 2.84 0 0m48.82 0c.38.08.29 1.42 0 0m-16.26.02c.24.5-1.06 1.64 0 0m47.53 0c1.47.7-.7.74 0 0m30.06.02c.32 2.54.5 2.52 0 0m.33 1.9c.17 3.27 3.62 11.24 1.45 3.8-.49-1.26-1.08-2.49-1.45-3.8m-89.83-1.87c.55.02.4 1.57 0 0m22.4 0c.97 1.04-1.26 1.36 0 0m-23.3.1c2.54 2.7-.41 3.5 0 0m27.65.02c.84 3.06-.6 1.3 0 0m-20.5.22c.32.06.14.84 0 0m64.7.02c1.46 2.44-1.02 1.12 0 0m15.96.05c.06 2.39 2.38 1.57 0 0m-81.38.03c1.23 1.9-.48.79 0 0m30.76.06c.71.46-.58.65 0 0m-9.97 0c.39.5-1.7 1.8 0 0m36.7.02c.4.17-.1.67 0 0m-27.94.02c.44.08.4 1.36 0 0m32.48.01c-.42 3.09-1.31 1.2 0 0m-2.87.02c1.76 2.87-.58 4.99 0 0m-78.98.05c1.11 2.18-1.05 1.3 0 0m91.3.03c.81.44-.55.06 0 0m-103.39.02c-1.24.7 1 .49 0 0m-1.15 0c-.42.79.7.6 0 0m40.88.04c.16 1.4-2.65.22 0 0m-.66.65c.7.04-.26-.51 0 0m75.21-.65c-.17.26.64.63 0 0m-73.86.32c.85 1.44-2.42 1.34 0 0m8.27 0c.81.44-.55.07 0 0m59.02.02c.69.22-.51.84 0 0m-45.07.02c1.2 1.5-.96 3.35 0 0m.27 1.27-.14-1.04zm-17.12-1.26c2.44 3.35-1.48 1.44 0 0m44.24.03c.88.18.25 1.29 0 0m-9.2.12c-.13.35.94.88 0 0m30.73.03c-.51 1.06 1.55.49 0 0m-1.2 0c-.36.27.23.5 0 0m-110.79.08c-1.69 2.48 1.65.93 0 0m1.16.03c-.42.58.12.4 0 0m53 .04c.4.53-.59 1.84 0 0m60.68.02c.21 2.5 2.4.63 0 0m-111.23.05c-.54.42-.4.32 0 0m83.95.1c.79 2.43-.79 1.71 0 0m-76.38.02zl1 1.4.28.26-.62-.87zm-1.36 0c1.16 1.55 1 .27 0 0m2.03 0c.64.42-.4.18 0 0m17.05.1.67.66.41.53zm72.5 0c3.6 1.65 3.03 7.23.43 1.93.21-.46-1.04-1.41-.43-1.93m-96.96.09c-.66.6.71.2 0 0m105.68.01c-.6.6.93.64 0 0m-99.49.02c1.41 1.7 2.12 2.14 0 0m3.9 0c3.66 1.79 2.99 3.98 0 0m11.47 0c.3.41-.92 1.2 0 0m78.52.03c.64 1.4-.52.82 0 0m8.74.02c.08 1.42 2.66 2.04 0 0m-53.21.04c.59.11-.03.87 0 0m-27.12.02c.95.65-.75.28 0 0m58.62.05c-.2 1.08 1.01 1.71 0 0m-55.25.1c-.07-.47.33 1.57 0 0m74.68.07c.2.38 1.32 1.26 0 0m-70.17.02c.35.27-.22.5 0 0m11.26.08c1.01 3.46-2.43 3.28 0 0m-.4 1.1h.07zm1.65-.96c.61.1 1.46 1.97 0 0m-3.8.05c.84.43-.57.05 0 0m-36.21.04c1.86 1.37.04 1.09 0 0m46.5.04c.5.05-.15.64 0 0m50.46.07c-.42.21.3.47 0 0m-107.02.06c-.85.52.65.44 0 0m95.19 0c.73.75-.83.83 0 0m-93.85 0c-2.8 2.29.38 2.98 0 0m96.77.02c.35.28-.2.53 0 0m3.62.02c1.6 2.95-.95 1.69 0 0m-90.06.08c.73.48-.53.65 0 0m70.36.08c.43.7-.73.14 0 0m5.97.02c1.6 2.62-.88 1.3 0 0m-60.77.02c.31.04.14.85 0 0m-10.34.02c1.65.84 1.14 2.68 0 0m95.12.01-.17.29zm-111.48.04c-4.43 1.37 1.2 1.82 0 0m1.95.05c-.72-.24.05 2.27.36.44zm27.43 0c1.33 1.28-.83 1 0 0m-37.02.12c.62.2-.34.36 0 0m41.86.01c5.05 3.84-4.01 2.9 0 0m-35.42.01c-.61.2.67.4 0 0m8.85.03c-.36.36 1.23 1.05 0 0m97.54 0c-.45.28.3.58 0 0m2.74 0c-.81 1.25 2 .96 0 0m-111.91.06c-.26-.02.08.57 0 0m-.4.03c-.55.42-.41.32 0 0m110.35.03c.21.37 1.33 1.26 0 0m-11.3.02c.66 1.37-.75 1.14 0 0m9.82 0c.45.26-.31.56 0 0m-8.8.17c0 3.07-1.71 1.59 0 0m-90.24.03c-.34.73.83 1.08 0 0m45.13.07c.79 1.52-1.8.79 0 0m61.48.15c.07.7 1.25 2.03 0 0m-104.96.01c2.06.54-.48 1.29 0 0m11.01.07c.37.26-.24.5 0 0m41.32.08c.2.52-1.19 1.64 0 0m49.95 0c-.13.38.9 1.17 0 0m-47.29.01c.47.31-.28.59 0 0m-36.63.04c.82.78-.67 1.8 0 0m1.78.02c4.11 2.3-1.85 2.15 0 0m-.37.94c.3.6.2-.5 0 0m-16.28-.94c.46.15 1.64 1.83 0 0m71.51.04c1.17 1.07-1.15.8 0 0m-32.51.1c.4.71-.54.96 0 0m55.24 0 .12.5zm-74.85.02c.85 3.03-.33.32-.23 1.95-.17 1.23-.8.31.23-1.95m-.27 2.14.04-.2zm77.75-2.01c-.26-.03.07.57 0 0m1.12.03c-.71.7.66 1.29 0 0m-87.49.06c2.09.6-1.48 1.27 0 0m-22.3 0c-3.3 1.52 2.87.79 0 0m29.91 0c.88.64-.63 1.06 0 0m80.06.01c.6 1.03 1.44.04 0 0m-25.35.09c.33 1.22-.9.2 0 0m15.85.07c.89 1.75 1.14.43 0 0m-82.03 0c1.63.37-.45.81 0 0m31.89.13c.64 1.27-1.31.3 0 0m-12.15.09c.42.13-.41.48 0 0m-12.11.1c1.2 1.02-.98.39 0 0m-28.66.03c-.39.89.58.43 0 0m51.07.14c.55.57-.27 1.43 0 0m-14.11.05c.28.35-.88 1.02 0 0m68.4.05c3.9 1.64-.12 2.5 0 0m-99.51.1c-.15 1.92.38 1.2 0 0m47.72.03c.5 2.84-2.08 1.3 0 0m47.19.02c.44 0 .9 1.13 0 0m12.03 0c-.04.5 1.47.84 0 0m-13.04 0c.94 1.94-1.35 1.65 0 0m-72.32.05c2.39.02-4.24 7.65 0 0m13.96.08c1.1.95-1.44 3.22 0 0m.12.72v-.21zm-36.56-.72c-.49.67.59.08 0 0m21.42.04c.62.2-.34.35 0 0m-26.39 0c-2.86 2.93-4.6 12.78-3.3 13.32 1.53-5.16.71-8.5 3.3-13.32m113.7.05c-.58.45.5.72 0 0m-27.92.01c1.1 1.18-1.06.48 0 0m31.07 0c.8 1.06.54.12 0 0m-104.17.1c.51.66-.67.68 0 0m4.64 0c.4 0 .36 1.1 0 0m2.2.06c.45-.1.78 1.15 0 0m95.52.04c.14.64.9.66 0 0m-86.68 0c.51.43.05.67 0 0m-25.73.03c-.37.37 1.23 1.06 0 0m1.7.07c-.26-.03.07.57 0 0m109.64.06c.24 1.05.72.13 0 0m-2.43.07c-.43.44.6.6 0 0m-92.09.08c.47.45-.3.97 0 0m46.6.04c.46.8-.87.02 0 0m-23.64.02c.94.6-.88.28 0 0m-19.22 0c.4.23.25 1.74 0 0m6.66.01c-.07 0 .02.05 0 0m-.87.04c.45.26-.3.57 0 0m-19.42.14c-.56 1.44 2.1.78 0 0m105.34.04c-.86 2.36 5.44 2.53 0 0m1.17 0c-.55.74 1.42.17 0 0m-116.23 0c-.26-.02.08.58 0 0m4.51.01c-3.16 2.65 2.06 2.5 0 0m14.44.23c-.07-.46.32 1.58 0 0m15.26 0c.4.02.62 1.1 0 0m24.76.13c.4.01.6 1.15 0 0m-46.38.04c.95.48 2.32 4.87 0 0m-14.09.02c-.42.63.13.37 0 0m43.74.01c2.2.8-.66.83 0 0m-17.55.04c.42.14-.41.49 0 0m-23.5.02c-2.36 1.62-1.6 2.95 0 0m13.18 0c1.07.6-.02.84 0 0m-11.28.03c-.8.7.81.5 0 0m63.25.07c.4.61-.78.85 0 0m-64.13.17c-2.71 3.38-1.94 3.7 0 0m109.71.02c.38 1.56 3.81.38 0 0m-104.53.05c-3.93.25 3.47 1.63 0 0m12.79.16c.23 1.52-.97.49 0 0m12.5.08c.74 1.78-1.37 2.8 0 0m-.1.92.08.05zm-18.63-.9c3.78 1.8-2.25.44 0 0m29.67.21c1.02 1.24-1.3.73 0 0m2.42.04c.98.5-.4.2 0 0m-48.94.07c-1.22 2.42.06.67 0 0m27.72.09c.4 0 .6 1.15 0 0m20.16.01c3.22 2.2-.82 1.73 0 0m10.45 0c.52.27-.49.31 0 0m-52.98 0c-.26-.02.08.56 0 0m8.52.1c2.73 1.23-.55 1.33 0 0m35.23.07c.47.3-.27.58 0 0m-7.47.03c.86 1.8 1.04.5 0 0m-15.95.04c1.36 1.05.84 1.73 0 0m.36.43c.06.04 0-.12 0 0m31.8-.4c1.66 1.41-1.22.7 0 0m57.12.02c-.3.57.49.3 0 0m-67.02.01c-.65.42.63.19 0 0m1.9.02c3.07 2.06-.97 1.12 0 0m-30.6.04c2.55 3.3-2.14-.97.52 1.5l-.91-1.2c.57-.44-.74.57.4-.3m30.68.17c-1.61-2.44 2.5 3.84 0 0m-6.19 0c.68.44.1 1.05 0 0m76.53.04c.27.89 1.6.7 0 0m-2.5.02c1.98 2.97 4.33 2.23.42.35zm-117.1 0c-.24.52.41.44 0 0m34.16.04c.3.26-.26.82 0 0m85.15.11c.13 1.33 1.92 1.59 0 0m-72.68.07c2.92 1.07-2.03.54 0 0m-41.62.12c-2.7.85 2.05 2.59 0 0m8.08.08c3.84 1.1-1.55 1.32 0 0m31.5.03c1.65.93-.67.3 0 0m-24.3.01c.48.71-.7.58 0 0m14.71.05c.6.1-.02.86 0 0m17.33 0c.46.26-.3.57 0 0m-22.98.07c.98 1.4-1.1 1.06 0 0m29.93.01c.95 3.17-1.8 1.76 0 0m-7.22.2c2.16 2.56 1 1.74 0 0m66.38.16c-.26-.04.07.57 0 0m-46.1.04c-.2 3.48-2.26 2.28 0 0m-47.61.02c.17.8-.76.04 0 0m-21.25.01c-.66.6.7.2 0 0m44.04.12c2.1.75-.96.76 0 0m-32.56.06c1.89 1.7-1.22 1.08 0 0m2.4.1c-.34 2.5 1.82 1.45 0 0m2.6.04c.51.14.57 1.62 0 0m.32.02c.46.23.67 1.67 0 0m-18.09.12c-.54.93-.65 1.13 0 0m14.85.1c-.1.36.95 1.03 0 0m36.57.03c2.68 1.57-.73 1.28 0 0m-32.16.04c.64.74-.69.56 0 0m2.83.03c.41.14-.41.48 0 0m36.23.04c.5.24-.1.73 0 0m-25.64.03c-.4.04-.2 1.16 0 0m85.83.06c-.8.2.57.9 0 0m-104.94.03c1.98 1.34-.4 1.45 0 0m27.1.03c.05.66.52.41 0 0m75.01.1c-.68.5.98.67 0 0m-66.87.05c2.84 2.23-1.15 1.6 0 0m-24.6.02c.43.43-.24 2.6 0 0m19.9.02c4.59 3.68 2.43 6.16.03.6l-.13-.45zm2.56.18c1.5 2.21-.19.8 0 0m68.4.03c.88 1.9 2.7.54 0 0m-78.61 0c.46 2.65.76.3 0 0m-34.68.2-.33.19zm114.7.02c.41.91 1.01-.04 0 0m-89.47.09.13.28zm30.94.06c1.84 1.39-1.04.96 0 0m-16.95.05-.03.23zm18.56.1c.37.27-.24.5 0 0m-6.46.08c.42.48.03.99 0 0m-8.4 0c-.25.46.53.68 0 0m-33.64.16c.43 1.27 2.68 1.22 0 0m-8.81.04c-.95 1.32.82 1.97 0 0m49.86.04c.21.23-.96.37 0 0m-1.73.01c4 .83-.02 1.73 0 0m-50.18.12c-.4.2-.66 1.96 0 0m-.87.08c-.33.78.5.52 0 0m-.41.03c-.48.67.58.07 0 0m121.3.01c-.64.66 1.02.73 0 0m-92.86.02c.55 2.64 1.19 2.44 0 0m.7 1.9c-.06.22.58.37 0 0m.04.13c-1.25-.69.22.42 0 0m-17.48-2.03c.97 1.63 3.05 1.87.52.27zm73.13.19c.47.25-.33.54 0 0m-40.83 0c2.78 2.38.24 8.58-.06 1.41.14-.32-.45-1.14.06-1.4m43.25.02c.52.18-.2.7 0 0m-30.95.01c.53.35.6 2.2 0 0m-53.81 0c-2.76 1.62.63 1.13 0 0m6.12.05c-.53.1.4.55 0 0m4.1.03c.2.37 1.33 1.26 0 0m76.26.05c.3.26-.26.83 0 0m33.65.01c1.58.43.37.58 0 0m-102.14 0c.58 2.09-2.06.75 0 0m-5 .04c.87.5.23 1.6 0 0m67.83.06c.41.13-.4.5 0 0m.83.1c1.03 2.45-1.31 1.67 0 0m37.22.03c-1.37.98 1.18.89 0 0m-93.63 0c-.37.76.95.03 0 0m22.81 0c.47.2 2.1 2.58 0 0m2.3.02c1.33.75-.25.97 0 0m65.72.02c-1.87.62 2.28.59 0 0m-121.09.05c-.3.24.05.91 0 0m17.61.03c.49.12.9 2.1 0 0m-15.1.01c-.88.84-.67.64 0 0m48.68.07c3.62 1.02 4.88 7.77 1.37 1.99-.38-.54-1.73-1.3-1.37-2m-37.33 0c-.4.58.1.42 0 0m32.84.1c-.18.77.78.2 0 0m46.22.06c1.98 3.15-1.1 2.05 0 0m-.78.05c.44.99-.98 0 0 0m-28.65.02c.91 1.17-1.14.48 0 0m-58.47.12c.12.68-2.3 2.1-.25.81.27 2.14 1.9-.2.25-.8m88.85.03c1.16 1.55-.58 3.25 0 0m-84.84.01c-.61.37.65.48 0 0m10.05.07c.54.26-.48.33 0 0m-17.27.05c-1.22 2.54 1.63 1.29 0 0m62.21.06c.51 1.1-.5.9 0 0m-10.23.21c1.61.88.21 1.05 0 0m-35.7.07c5.41 5.6-4.32 1.78 0 0m-.95.92c-.17 1.28.53-.01 0 0m-7.67-.88c-2.6 2.48-.57 3.56.45 2.48.12-1.07 2.15 1.59.24-.37-.02-.6-.08-1.82-.69-2.1m9.99.1c.94 2-.37 1.37 0 0m76.64.01c.24.41-.45.47 0 0m-7.4.02c.51.05-.15.64 0 0m-79.55.02c.37.26-.24.5 0 0m49.53.06c.53.27-.49.31 0 0m31.73.01c.11.63-1.71 2.12 0 0m-37.68.13c.52 2.76 1.66 1.12 0 0m-6.85.04c-.5.26-1.73 2.06 0 0m9.29 0c4 .82 2.6 4.9 0 0m.45.9.06.03zm.38.16c.8 0-1-.88 0 0m-16.81-.92c-.31.23.05.91 0 0m-21.09.05c.6.63.39.4 0 0m73.52.07c.96 1.68-1.42 3.53 0 0m-74.16.2c.42.55 2.27 1.89 0 0m106.63.12c-.06.72 2.08 1.12 0 0m-113.55 0c.35.49 1.83 1.7 0 0m112.03.2c-.36.8.54.56 0 0m-83.42.17c-.32.26.42 1.15 0 0m-20.5.04c-.11.4.9 1.13 0 0m-11.28.03c-2.77 1.4-.47 2.74 0 0m50.37.05c.4.02.59 1.14 0 0m-28.91.02c-.26-.01.08.57 0 0m-21.15.09c-.92.55.36.65 0 0m52.75.08c-.02-.23.2.89 0 0m-39.84.02c.47.12.43 1.46 0 0m72.52.01c.77.45-.75.28 0 0m-77 .03c.39.02.61 1.1 0 0m4.2.05c.27.4-.47.42 0 0m73.72.15c-1.24.27 1.25 1.3 0 0m-35.9.07c.53.27-.48.31 0 0m65.81.03h.34zm-84.83.05c.01.1.1-.06 0 0m22.55 0c1.04.85-.94.9 0 0m10.68.05c.58.17-.35.36 0 0m-48.1 0c2.17 3.33-1.55 5.34 0 0m3.05 0c2.8 2.96 1.16 8.75.09 1.86l-.2-1.07zm36.21.01c2.6 2.39-1.53 1.48 0 0m-64.6.03c-.2.05.22 0 0 0m.06.01c-5.12 1.18 2.5 5.92-1.26 9.62 2.45 2.32-.73 5.57 2.5 1.3.91-1.83 3.02-6.05.96-4.06 2.47-3.63-.08-2.55.78-3.24-2.2 4.5-3.95.66-2.86-.43.02-.7 1.3-2.9-.12-3.19m.12 3.2c-.33.37.05 1.87 0 0m61.04-3.15c.42.13-.4.48 0 0m1.81 0c.46.22 1.36 1.74 0 0m-48.7.02c.54.26-.48.33 0 0m3 .03c3.76 3.9 2.29 5.92 0 0m1.5 2.84c.88 1.59 0-.93 0 0m2.45-2.7c.48.33-.22 1.03 0 0m106.23.02c-1.48.47 1.03.72 0 0m-111.82.02c.37.25-.23.5 0 0m43.24.02c.52.5-.45 1.04 0 0m8.5 0c3.94 3.2-2.86.86 0 0m-45.47.01c.41.02.59 1.15 0 0m-3.44 0c2.03 1.34-2.1.73 0 0m-9.37.07c-1.87 1.21.8.85 0 0m74.24.01c1.75.52-.96 1.2 0 0m-72.7.09c-.2.24.63.64 0 0m-7.7 0c-.54.43-.4.33 0 0m59.43.01c.5-.03.95 1.74 0 0m7.05 0c.5.29-.3.58 0 0m7.7.04c.45.26-.3.57 0 0m-56.72.02c.62-.02 1.18 2.13 0 0m69.67.01c.45.08.38 1.37 0 0m-16.6.02c.53.27-.49.32 0 0m-23.72.02c1.6 3.03-2.07 1.75 0 0m-33.26.02c.52.4.01.64 0 0m43 .04c2.41 2.55-.15 3.45 0 0m6.02.25c2.1 1.1 2.19 7.27.25 1.56.14-.28-.89-1.27-.25-1.56m16.37.1c.62 1.27-.27 2.15 0 0m-71.63.08c-.3.3.64 1.03 0 0m-11.2.13c1.94.82-1.25 1.83 0 0m71.41.07c.77.35-.52.46 0 0m-6.78 0c.36.26-.24.5 0 0m36.73 0c.36.27-.2.53 0 0m-28.3.13c.37.26-.23.5 0 0m10.21.01c.78.45-.75.28 0 0m3.96.02c.11.96.72.33 0 0m-9.9.05c.82.24.14 1.12 0 0m-65.2.04c-.38.37 1.23 1.06 0 0m63.19.15c2.34 3.56-3.93 1.27 0 0m31.5.03c1.67 1.91-1.52 1.18 0 0m-30.34.04c.32.06.13.84 0 0m3.05.04c4.05.23-4.33 4.62-.75.17zm6.2.02c.96.65-.75.29 0 0m-12.33.02c.7.48.21.94 0 0m2.83.16c.53.3 1.08 2.3 0 0m-5.37.03c2.45 2.31 1.15 5.58-.4.78l.07-.57zm1.07 3.13c.13.39.21-.29 0 0m-58.1-3.12c-.01.8 2.23 1.91 0 0m38.9 0c1.33.82-2.53 2.8 0 0m-.11.96.2-.38zm17.31-.93c1.73.83-.98.3 0 0m6.96.1c.44 0 .52 1.03 0 0m-52.55.05c1.6 2.26-.63.87 0 0m-2.14.02c1.05.9-.61 1.64 0 0m52.45.06c-.2.43 1.23 1.36 0 0m-17.75.05c.53.06.34.78 0 0m20.62.1c.46.25-.3.56 0 0m-60.42 0c1.61 1.57-.02 1.68 0 0m85.77 0c.82.45-.54.07 0 0m-17.96.04c2.89 3.35-1.56 1.55 0 0m-37.39.07c-.07-.11 0 .69 0 0m-22.11.02c.31.76-.64 1.12 0 0m-7.26.01c4.51 3.59-.34 6.05 0 0m1.61 3.26c.95-1.35-1.53-.53 0 0m10.97-3.25c.94.57.33 1 0 0m60.96.04.28.9zm.94.08c-1.42 1.51-.08 1.77 0 0m-.7 1.1c-1.1-.77-.06.98 0 0m-.5-.08c-1.37-2.42-.71-.13 0 0m36.52-.97c.1.6 1.83 1.53 0 0m-100.53.03c1.38 2.8-1.78.83 0 0m34.1.02c.4 0 .35 1.09 0 0m9.69.17c-.37.38.37.75 0 0m-54.9.06c-1.16.46-.23.73 0 0m94.37.03c1.33.6-.8.9 0 0m-106.93.01-.03.23zm126.07.03c-2.67 1.4 4.42 4.14 0 0m-111.4.05c-.04.93 1.4 1.1 0 0m4.95.02c1.23 2.38-.28 2.99 0 0m61.37.01c-.5.61 1.07.41 0 0m23.43 0c.35.27-.21.53 0 0m-53.34.05c.98.58-.63.69 0 0m-.36.05c.32 3.05-.97.62 0 0m7.55.03c2.53 1.27-1.4 2.53 0 0m19.31 0c.46.27-.3.57 0 0m-54.04.02-.03.23zm1.2.06c.63.5-.08 1.04 0 0m-2.96.02c.44.16-.03.69 0 0m-2.9.25c.47.3 1.24 2.17 0 0m55.97.1c-.4.43.46.53 0 0m13.52.01c.06 0-.15.03 0 0m12.91.05c-.44.29.32.55 0 0m30.45.08c-1.2.65 1.42.74 0 0m-107.44.08c.41.13-.41.47 0 0m-9.4.3c-.46.1.24.53 0 0m-8.7.01c-1.83 3.07 1.73 1.6 0 0m20.07.1c.47 1.1 1.15.32 0 0m16.62.04c-.43 6.24 3.7 11.64 8.2 15.58 5.1.53-6-5.4-6.18-8.56-.3-.3-1.83-2.38-2.02-7.02m9.82 15.67c2.84 2.25-1.87 9.9 2.12 3.84.78-1.6-1.4-2.69-2.12-3.84m.04 6.39c-.6-.25-.28.88 0 0m-.34.16c.73-.49-4.5 1.18 0 0m.12-.22.25-.18zm.17-6.2c-.28-.58-.13.36 0 0m-46.79-15.79c-.43.23-1.5 1.77 0 0m17.06.04c.46.25-.37.59 0 0m-.47.08c.58 1.03-1.28.63 0 0m-6.37.04c.82.44-.54.06 0 0m109.32.05c-.92.03.67.6 0 0m-113.55.11c.5.21 1.46 2.1 0 0m112.76.02c.26.64 2.4 1.25 0 0m-105.73.09zc1.1 3.2-.84 1.39 0 0m52.34.18c.58.52-.3 1.37 0 0m10.63.03c.54.27-.15.9 0 0m25.9.07c4.13.39-.53.55 0 0m-100.32 0c-.64.09.4.6 0 0m-4.67.03c-2 1.82.46 1.4 0 0m101.37.04c-.37.37 1.23 1.05 0 0m-22.78.13c.47.24-.33.55 0 0m-61.66.2c2.16 1.26-.47.64 0 0m-.37 0c1.32.98-.46.54 0 0m39.5.01c.32.07.12.83 0 0m-51.1.04c-.44.64.83.82 0 0m-.5.04c-.66.19.2.7 0 0m8.39.03c-.25-.03.08.55 0 0m-13.88.04c-.39.52.08.46 0 0m103.66 0c-.05.41 1.3.91 0 0m-53.75.08c1 1.76-1.24.55 0 0m56.32.19c2.68.94-1.22.62 0 0m-102.37.04c-2.66 1.71-.7 2.35 0 0m119.31.09c-.72.53.68.74 0 0m-52.49.08c-.46.09.24.52 0 0m-45.04.06c-.74.28.78.43 0 0m98.5.07c.04.72 1.8 1.97 0 0m-3.8.05c.36.25-.24.49 0 0m-114.76.07c-.34 1.31 1.25-.3 0 0m104.44.02c.5.3-.3.56 0 0m-63.25.02c-.83 2.25 1.27.81 0 0m18.24.09c1.59.97-.93 1.25 0 0m49.52 0c1.78 1-.06.9 0 0m-47.14.04c.22.83-.8.02 0 0m-18.75.06c.63.3-.73.3 0 0m-48.48.22c-.66.6.7.2 0 0m18.65.04c1.14.6-.77.55 0 0m106.79.05c-.28 2.99-.42 5.4 2.66 5.61-.48-2.26-1.5-3.82-2.66-5.61m-4.41 0c.68.25-.46.66 0 0m-.41.12c.51.44.02.63 0 0m-77.78.09c-.26-.01.08.57 0 0m67.1.08c2.23.49-1.8.59 0 0m-104.03.08c-.29.47.5.32 0 0m.1.3c-5.31.48 1.96 2.81 0 0m8.41-.25c6.08 2.53-1.53 1.7 0 0m55.86.04c-1.52.61.46 1.12 0 0m-63.43 0c-.24.32.73.86 0 0m4.67.2c1.32.8-.07.98 0 0m-11.84.03c-.42.06-1.25 1.81 0 0m43.18.18c-.23.42.45.46 0 0m77.97.02c.53-.1 1.19 1.45 0 0m-108.7 0c.56.06 1.16 1.68 0 0m99.04 0c.6.47-.24.55 0 0m.38.13c1.32 1 .14.91 0 0m-115 0c.3 4.12-2.08-.1 0 0m-.59.68c-.58.32.53 1.84 0 0m69.4-.47c.4.54-.53.67 0 0m-3.31.07c.45.27-.31.57 0 0m6.64.04c-1.14 3.38 1.94 1.23 0 0m-22.22.04c-.14.35.96.9 0 0m74.15 0c.44.72-.65.62 0 0m-121.62.08c-.42.07-1.25 1.8 0 0m68.47.03c-.26-.03.08.57 0 0m-2.94.06c.14.5-1.48 1.78 0 0m48.59.23c.6 1.25-.91.4 0 0m8.42.03c.35.28-.2.52 0 0m-53.54.02c-.37.72.52 1.21 0 0m-48.23.03c.45.33.36 1.94 0 0m45.58.01c.43.41-.49.51 0 0m61.34.02c-.06.38.3.02 0 0m-80.47.17c-.2.17.2.73 0 0m-3.62 0c-.18.53 1.16 2.33 0 0m-32.38.03c-1.9.9 3.24.7 0 0m117.69.02c-.55.14.27.59 0 0m-62.16 0c.53.27-.49.32 0 0m-47.88.04c.33.08.13.82 0 0m49.71.04c-.2.15.2.74 0 0m42.53.05c.52.27-.5.32 0 0m-104.93.1c-1.16 1.18 1.65 1.17 0 0m11.42 0c.53.63-.51 1.21 0 0m94.9.06c.43.77-.4.82 0 0m-46 .09c.3.27-.25.8 0 0m-50.43.06c2.22 2.22.53 1.74 0 0m35.2.04c.48.38.57 2.24 0 0m-51.92.06c-.54.43-.4.32 0 0m120.56.05c1.58.68.26 1.1 0 0m-51.18.09c-.51.45-.04.64 0 0m-48.67.02c.3 1.31-.9.13 0 0m93.95.06c.61.09 2.27 2.11 0 0m-93.15.01c.06.44-1.24 1.82 0 0m48.64.01c-.53.93.36 1.76 0 0m48.22.04c.41.17 1.11 1.57 0 0m-113.72.29c-2.28 1.38-.38 2.87 0 0m10.22.02c1.36.67.76 2 .64 1.9.77 4.19-.47-1.29-.64-1.9m.33.62c.63 1.87.62-.43 0 0m32.05-.59c-.06 2.46.75 1.14 0 0m75.98.02c3.5.77-1.05.96 0 0m-4.1.1c1.25 1.52-.18 1.06 0 0m-113.24.04c-6 3.16 3.03 1.78 0 0m45 .13c.5.04-.15.65 0 0m18.45.03c-.19 1.25.17-.36 0 0m-63.81.02c.78.27-.8.87 0 0m105.98.02c-.28.13.32 1.05 0 0m1.56 0c.56.36-.17 1.35 0 0m-93.33.04c.62.2-.33.35 0 0m91.36 0c-.19.24.64.64 0 0m-102.4 0 .34.01zm42.86.1c.3.27-.26.78 0 0m71.54 0c1.76 1.14.67 3.23 0 0m.43 1.02c.54.28-.2-.55 0 0m-79.57-1c.62.2-.33.35 0 0m71.8.05c.33.34-.18.72 0 0m6.35.02c.84.4-.54.11 0 0m-11.56.05c.37 2.35 1.27.58 0 0m16.72.02q0 0 0 0m-62.03.11c1.03 1.45.09 1.56 0 0m-14.3.19c.33.33-.16.73 0 0m-6.25 0c-.58.06.83.44 0 0m.45.09c.55 2.07 3.08 3.06 0 0m-26.61.06c.4.76-.54 1.32 0 0m44.51.1c.38.24-.23.5 0 0m13.58.2c-.15.89 1.63 1.12 0 0m-25.15.04c.84 1.22-1.2.67 0 0m-42.42.03c-.33.26.28.5 0 0m5.06.05c.76 1.11.11 1.64 0 0m35.3.03c.59.2.67 1.94 0 0m-41.3.03c-.56.25.42.6 0 0m9.15 0c.84.4-.88.76 0 0m96.4.05c.53.27-.49.31 0 0m10.52.02c.65.08-.4.58 0 0m3.17.02c-.53.1.4.55 0 0m-15.64.03c-.09.56.7-.13 0 0m-61.72.04c.4.02.6 1.16 0 0m21.6.2c.03-.26.28 1.35 0 0m-65.52 0c-3.46 2.87 1.89 1.02 0 0m64.83.05c1.36.72-.86 2.89 0 0m.2.23c-.79.38.72.6 0 0m-68.52-.15c-1.6 1.39.87.62 0 0m119.2.16c3.6.4-3.05.04 0 0m-110.18.04c2.72 1.49.22.87 0 0m57.45.17c1.5.66-.67 1.34 0 0m59.09.04c-.43.28.37.58 0 0m-77.34.02c.44.08.39 1.36 0 0m-3.81.15c-.21.3.7.92 0 0m76.33.02c.8.27-.52.7 0 0m-118.74.03c-3.56 1.44 2.38.48 0 0m11.39.02c.36.26-.24.5 0 0m108.42.13c1.23.63-.53.94 0 0m-59.61.02c1.13 4.26-4.8 3.74 0 0m50.66.04c.43.41-.49.51 0 0m-63.31.08c2.08 2.32-.52 1.2 0 0m-37.39.04c.53.27-.49.31 0 0m-8.62 0c-.27 0 .08.56 0 0m60.79.05c1.3.06-.24 2.69 0 0m49.2.02c-.82 2.09-.56.78 0 0m-99.36 0c.46.27-.3.57 0 0m6.66.07c-.51.28.31.76 0 0m-12.97.07c-.43.29.35.61 0 0m-8.27 0c-.43 1.51 2.09.97 0 0m46.93.03c1.44 2.5-.75 1.12 0 0m78.01.05c.77 1.36 1.99 1.13 0 0m-61.48.1c.53.26-.49.3 0 0m64.25.03c.05.65.52.44 0 0m-4.09.03c-.36.37 1.23 1.05 0 0m-116.6.03c-.75.14-.42.08 0 0m38.32.04c-.13.39.76 1.2 0 0m-32.88.04c.29.16.2 1.1 0 0m35.61.01c.5.27.09 1.05 0 0m18.52.02c1.1 1.43-.45 1.61 0 0m54.34.1c1.14.48-1.46.63 0 0m-55.53.07c2.09 3.08 5.08 6.8 1.75 3.74-.36 1.28-2.23-3.16-1.75-3.74m.9 2.88c1.3 2.64.95-.55 0 0m-58.59-2.76c.39.43 2.38.6 0 0m38.75.1c.97.5-.41.18 0 0m77.25.01c-.5.79 1.1.86 0 0m-3.9.12c.81.44-.55.06 0 0m2.22.02c1.08.38-.99.78 0 0m.76.01c.52.27-.5.32 0 0m-74.33.04c2.2 1.26-.78 1.16 0 0m-51.36.1c.08-.2.1 1.52 0 0m48.66.05c-.15.43 1.09 1.8 0 0m-41.5.01c.92 2.13 5.34.4 0 0m108.85.01c.83 1.38 1.02 3.55 0 0m-96.67.01c1.19 5.5-3 4.89-3.08.96 3.93 4.53 1.01 1.35 3.08-.96m-.5 1.25c.24.28.48-.8 0 0m-4.62-1.21c.58.23 1.53 2.73 0 0m107.75.06c.71 1.02-1.05.57 0 0m3.6.12c1.7 1.17-1.32 1.22 0 0m-10.16.02c.35.59-.94.85 0 0m-116.07.1c.56.3-.12.94 0 0m68.1.08c.53.27-.48.31 0 0m-69.5.1c-.96.44-.09 1.39 0 0m22.68.12c1.46.6-.7.64 0 0m.46.55-.12-.22zm32.76-.52c.53.26-.48.33 0 0m1.85.02c2.1 2.93-.77 2.93 0 0m67.3.02c.53.47.02.61 0 0m-105.33.05c.81.45-.54.06 0 0m32.12.02c.02.94.7.44 0 0m77.23.1c-.31.75.47.38 0 0m-4.57.05c.39.08.29 1.42 0 0m-7.13.02c.62.2-.34.36 0 0m13.23.12c-.23 1.67 5.37 3.3 0 0m-4.6.02c.37.47-.57.74 0 0m-49.86 0 .2.42zm-22.88.03c3.71 2.04-1.22.92 0 0m-35.17.2c.42.41-.5.51 0 0m110.23.04c.82 1.6-.27.97 0 0m-118.37.02c-1 1.92 1.99.95 0 0m65 .01c-.43 1 1.04.19 0 0m-7.04.05c.65.43-.04.9 0 0m-63.53.08c-.7.35-.42.21 0 0m114.66 0c.98.49-.4.2 0 0m-63.8 0c.83.44-.58.07 0 0m25.23.02c-3.44 2.57 1.23 1.35 0 0m-57.27.02c.54.25-.14 1.5 0 0m32.96.15c.51.14.56 1.61 0 0m-.41.03c1.56.83-.91.4 0 0m17.89 0c1.32 1.8.77 2.45 0 0m-9.44.07c.41 0 .6 1.15 0 0m12.28 0c-.41.37.84.73 0 0m.2.42c.33 1.9.56-.06 0 0m-68.25-.38c-1.26.72.5.79 0 0m122.33.13c-.63.7 1.36.98 0 0m-65.26.1c1.06.75-.82 1.12 0 0m-48.92 0c.52.26-.49.31 0 0m-1.44.02c2.87.43 5.16 5.45 2.13 1.71-.29-.5-2.23-.96-2.13-1.71m54.61.01c.6.13.74 1.96 0 0m-62.86.07c-.6.08-.28 2.13 0 0m61.26.02c.52.27-.49.32 0 0m2.1.02c1.29.35-.09.7 0 0m-66.6.02c-1.83 1.57 1.68.95 0 0m63.02.12c.32.07.13.84 0 0m56.61.26c.5.3-.3.57 0 0m-62.66.01c.02-.17.18.86 0 0m-52.96.19c-2.46 1.3.57 1.07 0 0m113.74.02c.87.33-.92.55 0 0m-1.76.02c1.12 1.45-.02.6 0 0m-64.7.06c.5.2-.08.72 0 0m22.08.03c.37 1.77 1.3.3 0 0m-71.65.05c-.54.42-.4.32 0 0m-4.32.29c-2.26 2.2.39 1.78 0 0m55.22 0c.89.87-.72.5 0 0m-.52.06c1.28 1.39-.78 1.33 0 0m-40.06.01c.6.07.93 1.45 0 0m-.61.12c.53.25-.48.33 0 0m50.07 0c.54.25-.48.33 0 0m-53 .01c2.23 1.32.33 1.16 0 0m65.39.3c.1.72.85.43 0 0m46.05.14c.87.47.12.96 0 0m-3.66.03c.42.13-.4.48 0 0m-62.25.03c.41.42-.46.54 0 0m-43.08.06c3.23 1.01-2.35 1.38 0 0m.03.73.1-.01zm116-.5c.52.42.04.64 0 0m-70.78.03c.37.26-.24.5 0 0m-1.1.02c1.92.68-.53.42 0 0m-.57.03c.54.06 1.35 2.03 0 0m-54.45.04c-.47.3.31.55 0 0m71.67.04c1.35 1.75-.3 1.3 0 0m-73.57.02c.82.14-.54.44 0 0m123.3.05c.52.2-.12.69 0 0m-1.64 0c.62.2-.33.36 0 0m-111.52.01c-.6.62 1.36 1.04 0 0m115.93.02c5.01 2.9 1.02 2.75 1.1 1.89-1.24-.22.35.06-1.1-1.9m8.52.04c-.36-.05-.1.82 0 0m-115.5.02c.7 1.03-.96.54 0 0m-10.24.2.2.06zm55.48.03c.37.1.22 1.27 0 0m-.9.12c.46.26-.3.57 0 0m-7.1.03c.51.18-.17.72 0 0m-40.01 0c.75.55.09.83 0 0m-11.65.02c.54.26-.47.33 0 0m69.45.07c.97.3.77 1.5 0 0m55.02.03c.5.57-.08.64 0 0m-2.17.18c-.21.27.52.84 0 0m-123.8.12c-2.5 1.45-1.85.29 0 0m52.63.03c.63.19-.65.42 0 0m-54.3.06c-.41.48.41.13 0 0m56.27.06c.48.3-.27.6 0 0m-3.22.19c.86 1.07.52.08 0 0m-57.82.06c.29.36-.88 1.01 0 0m62.02.2c1.1.38.66 1.87 0 0m58.62.22c2.7 2.94.47 6.38-.1.8zm1.33 3.08c.1-.65-.72.16 0 0m-54.45-3.08c.46.25-.3.58 0 0m-62.31.08c.78.38-.35 1.17 0 0m53.08.05c-.77.59 1.2.42 0 0m1.49.1c.54.07.76 1.62 0 0m65.33.16c.96.49-.4.2 0 0m-56.9.05c1.04.54.43.8 0 0m-65.07.2c.39.91-1.53.54 0 0m66.59.12c.35.28-.21.53 0 0m-7.56.08c.94.6-.87.28 0 0m67.11.02c.36.28-.25 1.76 0 0m-60.55.26c.63.18-.65.41 0 0m2.52.11c.47.32-.28.6 0 0m53.22.06c.45.26-.33.62 0 0m-60.27.06c.68.14-.25.74 0 0m5.72.1c2 1.22-4.45 3.39-1.01.69l-.1-.34zm-1.45 1.28c.17-.51-.37.06 0 0m4.93-.78c.41.02.6 1.14 0 0m47.01.43c1.23.86-1.35.87 0 0m-57.03.04c.4.19-.1.7 0 0m-1.81.02c.43.13-.4.5 0 0m10.85.01c1.33 1.13-.36 4.1 0 0m.53 1.5c.22-.68-.41-.03 0 0m-73.6-1.46c.55.06-.02.72 0 0m77.5.05c.9 2.84-1.66.55 0 0m-16.73.05-.34.2zm4.12 0c1.6.76-2.69.73 0 0m65.26.2c-.31 2.4-2.3.9 0 0m-119.63.02c3.18 7.97-9.25-.95 0 0m51.84.02c.42.12-.4.48 0 0m19.04.05c-1.84 1.66 1 1.39 0 0m-22.52.07c.53.2-.15.74 0 0m7.69.1c.35.28-.22.51 0 0m4.8 0c.47.25-.34.55 0 0m54.4.1c3.49 1.34-3.53 1.42 0 0m-55.18.11c-1.45 1.95-2.98.51 0 0m-8.08.08c.51.47-1.17.76 0 0m-58.8.05c-2.37 1.13.52 2.57 0 0m78.31.09c-.98.79 1.27.32 0 0m-16.68 0c.53.27-.49.32 0 0m6.29.17c.51.43.06.67 0 0m-67.09.06c-.92.55.37.66 0 0m61.26.04c.58.16-.35.35 0 0m-10.37.03c-.4.36.28 1 0 0m-40.69.02c4.7 2.04-3.25 1.37 0 0m49.56.19c.22 1.04-2.43.9 0 0m17.26.1c-.7.93 1.04.56 0 0m-7.1.31c1.32.73-.83.76 0 0m-10.56.1c.58.17-.36.37 0 0m16.1.1c-2.47 2.36 1.57 1.72 0 0m-15.14.05c.68.98-1.5.26 0 0m-54.12.14.25.02zm-5.06 0c-.45.33.29.58 0 0m72.66 0c-.54.49.05.57 0 0m-59.58 0c.55-.01 1.17 1.44 0 0m-10.17.05c-.84.19.6.76 0 0m9.16.09c.47.3-.28.58 0 0m.44.1c3.22 2.34.28 1.17 0 0m-1.42 0c.29.52-1.31 1.28 0 0m-6.98.14.24.03zm56.97 0c.8.64-5.39 1.15-.94.2zm-60.02.04c.64.07-.4.58 0 0m60 .02c-.2.1.09 0 0 0m-3.1.05c.7.63-.83.87 0 0m-49.5.02c4.1 1.58.1 2.5 0 0m47.68.04c.54.29-.4.64 0 0m-49.43.08c2.71 4.6-4.14 4.17-1.22 1.84 1.01-.5-1.3-1.56 1.22-1.84m46.79.14.25.02zm14.05.04c.36.27-.2.52 0 0m.38 0c.46.26-.3.57 0 0m5.07.04c-.44.16-1.07 2.04 0 0m-62.7.02c.52.1.13.68 0 0m56.33.06c-.34.3.22.52 0 0m5.09.11c-1.74 2.42 1.2 1.22 0 0m-2.01.2c-.67.13.36.72 0 0m-62.62 0c0 1.13 1.12.43 0 0m41.96.05c-.6.2.68.4 0 0m10.18.02c.27.32-.12.72 0 0m-47.11 0c.84 2.2-.75.51.89 2.93-1.95.93-2.15-2.35-.9-2.93m36.34.12c-.28.78 1.45.54 0 0m-2.61.01c.02.2 1.24.09 0 0m25.19.03c-.58.77.72.36 0 0m-21.9.19.25.02zm-.95 0c-.5.61.6.45 0 0m-54.14.07c-.71.07-2.82 2.21 0 0m3.85.1c.3.34-.5.15 0 0m75.63.06c-2.13.96 1.73.54 0 0m-60.12 0c.42.42-.49.51 0 0m-17.02.04c-.65.28.44.68 0 0m53.69.04c-1.44.98 1.45.64 0 0m12.37.03c-.6.55.94.84 0 0m-60.33.05c.14.33 1.62.49 0 0m59.69.01c-.56.29.36.62 0 0m-1.38 0c-.4.54.08.46 0 0m-1.72.05c.93.63-.77.73 0 0m11.3.12c-.45.91.87.44 0 0m.54 0c-.67.96.9.45 0 0m-54.8.08c-.97 1.83-.04 4.01 0 0m-2.15.2c.44.01.9 1.13 0 0m47.8.04c-.22.25.51.85 0 0m-17 .01c-2.53 1.02 1.15.94 0 0m21.87.1c-1.32.41 1.18.4 0 0m-56.74 0c1.5 1.69 1.56 4.55.04 1.1zm.46 1.77c.33-.44-.63-1.68 0 0m54.03-1.74c-.46.22-.01 1 0 0m-57.83.04c-1.31.55.8.6 0 0m44.93.02c-3.36 1.08 1.45 0 0 0m-6.1.21c-2.36 1.5-1.56 1.67 0 0m24.83.07c-.5.43.56.45 0 0m-7.78.04.25.02zm-15.57.03c1.48 1.26-2.75 1.12 2.13 1.26-1.35-.83-.73-.48-2.13-1.26m-34.95.07q0 0 0 0c1.86 2.56.74.29 0 0m-16.4 0c-.91.42.86.94 0 0m10.3 0c-.25-.03.08.57 0 0m44.66.04c-.93-.22-.04.62 0 0m11.53 0c-.26.48.61.72 0 0m-10.42.04c-1.06.64.25.7 0 0m14.12.05c.32.98.99.16 0 0m-67.62 0c.68.31-.91.9 0 0m5.05 0c.4.55.3.43 0 0m48.85.1c-1.06.36.82.52 0 0m-44.09.11c.98 2.17 1.36 12.08-.52 5.11-.45-1.66-1.34-3.87.52-5.1m60.73.08c-1.12 2.3 7.55.5 0 0m-56.7.06c.85 1.07.53.09 0 0m42.2 0c.56.52-.14.67 0 0m9.74.15c-.3.61.64.47 0 0m5.29.1c.42.12-.4.5 0 0m-68.16.17c3.55 3.21-4.9 1.38 0 0m3.14.02c.47.31-.28.6 0 0m-7.22.03c.59.33-.28.87 0 0m70.54.24c-.48.42.47.56 0 0m-10.24.09c.93.83-.85.28 0 0m-13.4.05c-1.48 1.42 3.74.23 0 0m19.8.09c-.3.3.66 1.03 0 0m-67.63.07c.55.06.15 1.25 0 0m15.75.03c.42 3.4-.05.26 0 0m54 0c-.48.33.54.26 0 0m-50.81.02c.29.33-.63 1.2 0 0m54.4 0c-1.08.55.9.94 0 0m-2.4.04c-.6.65.1.4 0 0m3.18.22c-.47.1.24.53 0 0m-75.93.05c1.59 4.37-2.36 12.34-1.8 3.47.38-1.16.58-2.84 1.8-3.47m9.39.15c1.9 2.41-2.1 3.31 0 0m.02.97c.69 1.47.69-.97 0 0m68.86-.85c-1.97.7 1.68.63 0 0m-1.7.07.24.02zm-2.7.1c1.17.08 1.03.07 0 0m-60.97 0c-.36.79.8.24 0 0m3.26.24c2.34 1.6-1.75 2.26 0 0m55.17.2c-1 .03.27.4 0 0m-54.99.2c-.24.31.73.86 0 0m-3.06.13c-.26-.04.07.57 0 0m-8.99.2c1.73 1.51-.33 3.03 0 0m7.64.1c.8.96-.29.82 0 0m-5.7.06c3.45 5.54-3.55 6.63-.49 2.98-.67-1.01-.36-2.13.5-2.98m-.57 5.28c.25.35.89-.58 0 0m.98-3.46c-.69 2.02.3 4.16 0 0m6.37-1.68c-.26-.03.07.57 0 0m4.54.17c.52.98-1.42.33 0 0m-22.6.09c-.44 2.38.5.88 0 0m8.33.05c-1.38 2.82-1.13 1.37 0 0m11.62.18c.35 3.42-.61 3.95 0 0m-15.15.1c-.27.5.43.4 0 0m-.1.62c-.2.17.2.72 0 0m-12.19.29c-.68.28.5.82 0 0m26.1.09c-.42.41.5.5 0 0m-18.53.06c-.38.47.54.35 0 0m14.19.36c2.5 2.1.75 2.4 0 0m-10.76.1c-.23.34.06 1.5 0 0m-7.82.02c.53.06.33.78 0 0m12.5.1c.81.45-.55.07 0 0m-3.62.05c-.19.23.19 1.02 0 0m11.3.41c.52.18-.2.7 0 0m-21.44.13c.67.6-.21.8 0 0m13.86.06c1.73.78-.25.92 0 0m6.26.05c-.22 2.24-1.82 1.38 0 0m-8 .02c5.42 3.05-2.34 1.57 0 0m-2.9.41c-.33.27.07.89 0 0m12.49.13c1.39.2.05.76 0 0m-6.17.06c-1.41 1.83-2.62.12 0 0m12.33.4c.03-.27.1.85 0 0m-.83.23c.55.56-1.12.92 0 0m-5.05.23c-.49.95-6.42 1.32-1.08.12zm-10.23.02c.58.84-.04 1.19 0 0m-13.44.04h.33zm16.38.02c1.43 1.53-2.08 1.2 0 0m-15.67.04c-2.96.16 2.01 1.7 0 0m8.58.24c4.32 1.46-4.7.95 0 0m19.3.15c-.05 1.74-1.56-.66 0 0m-4.04.04c.81 1.03-2.19.85 0 0m-10.88.4c5.9 1.1-.01 2.71 0 0m-10.02.1.38.05zm-1.22.07c-.67.37.15.48 0 0m5.8.02q0 0 0 0m.01 0c.48.26 3.47.06 0 0m-5.5.06.24.02zm1.76.11c-1 .61 1.2.73 0 0m17.85.07c.34.9-3.04.56 0 0m-20.76 0c-.7.35-.42.21 0 0m18.2.12c.56.25-.43.6 0 0m8.23.13c-.64.38.1.5 0 0m-27.34.14c.6 2.25 4.23.8 0 0m13.41.2h.4zm-4.36 0c3.9.9-.22.84 0 0m19.32.14c-.16.51.6.16 0 0m-4.86.24c-6.45 2.42 5.04 1.17 0 0m-19.93.24c-2.97.97.72 1.42 0 0m17.58.14h-.33zm-10.79.48c-1.01.24.62.8 0 0m-2.2.28.25.02zm5.05 0c-.56-.03.05.2 0 0M3.48 229c0 .02.07-.01 0 0m8.27.44c-1.24.43 1.53.46 0 0" style="display:inline;fill-opacity:1;stroke:#020100;stroke-width:.14;stroke-dasharray:none;stroke-opacity:.8704918;fill:#000;stroke-linecap:round;stroke-linejoin:round"/></svg>