<svg xmlns="http://www.w3.org/2000/svg" xml:space="preserve" width="578.37" height="230mm" viewBox="0 0 153.03 230"><path d="M120.87 61.72c-1 2.54-3.08 11.97-3.21 10.26 1.01-3.7-1.04-9.8-1.64-2.5-.27 2.28-2 10.38-2.08 3.82-1.22-3.22-1.35 9.12-3.1 11.52-3.8 4.15-1.67 14-7.5 15.14-3.26-.34-5.76-5.18-7.17-5.5.1 4.65-2.56-6.39-2.59-.44.5 3.26-2.84-6.6-2-.43 1.5 4.79-2.45.55-.26 4.92-.53 4.86 8.74 4.21 2.9 8.28-2.34 1.06-4.87 7.17-.38 3.92 6.2-.69 11.97 2.72 18 3.87 1.26 1.3 6.3 8.39 7.92 3.5-1.76-1.32-.19-2.02-2.8-3.27 2.7 1.67 11.4 5.13 11.73.7 4.61-.82-1.19-2.66 1.65-4.14-2.32-.89-2.2-2.65-2.06-3.03-3.6-.64-10.9-.77-12.2-3.17 5.64-3.46 5.82-12.09 8.66-17.9.05-4.18 2.56-7.64 2.97-12.16-5.24 5.49 3.86-9.53-1.78-4.16-.9 2.15-4.76 5.85-2.09 1.38 2.36-2.44 1.7-13.23-.6-5.1-1.25 3.1-4.38 9.3-2.22 2.8.64-2.7 1-5.7-.15-8.31zm-.16 1.11c2.1 3.7-2.04 12.52-1.68 13.25 2.45-3.04 4.89-10.87 6.08-11.58.12 5.96-2.68 11.62-6.47 15.81 3.1-2.5 6.91-9.56 9.16-9.86-.1 4.24-6.75 10.46-7.34 11.1 2.45-1.99 9.56-9.61 5.83-2.2-1.93 2.89-9.97 7.01-2.89 3.06 6.19-3.27-.87 5.58-4.36 5 3.18-3.07 8.54-.77 3.04 1.98 2.37 1.92-.79 4.63-1.33 8.09-1 3.43-3.34 7.05-5.72 8.12 2.97 1.9 2.67 3.27 8.08 2.06.61.96 2.85.7 4.15 1.52-2.73.42 5.45 2.23.96 3-4.12-1.28 6.55 3.78-.23 2.51-4.8-2.24 4.1 3.8-1.92 1.52-1.7 2.74-6.25-1.38-9.56-1.95-5.6-1.1 4.64 6.47.5 4.53-2.16-.32-4.91-6.57-9.75-6.08-3.07-1.4-10.42-1.43-11.02-3.86 2.4-.96-3.74-1.4.46-2.63a10 10 0 0 0 4.72-1.12c-.88 1.3-2.3 1.34.96 2.15-5.33 1.02 5.06-.97-.33.91 4.3.55.77-1.37 4.14-1.8.96 1-1.96 1.66.85.45-5.16-1.18-2.06-4.47-.08-8.65 1.3-6.04 4.35-11.2 5.35-17.33.42-1.1 1.29-7.26 1.56-6.55.67 3.32-1.73 9.98.6 3.34 1.35-2.8 1.81-11.85 3.1-10.63.25 3.5-2.3 13.44.6 5.13 1.02-3.04 1.8-6.16 2.54-9.29zm-41.78.22c-1.41 5.42-7.4 13.81-10.12 14.43 2.65-2.51 4.06-12.45 2.65-11.59-1.37 6.36-4.62 12.5-9.8 16.16 2.4-2.04 4.13-11 2.68-10.2-1.26 5.69-4.16 11.15-9.08 13.98-3.45 3.75-7.3 9.21-12.84 8.2-5.18-1.3-9.13-6.06-13.36-9.64-4.86-3.85-11.44-4.84-15.24-10.08-1.9-2.19-6.54-11.64-3.79-3.28.17 3.3 9.04 9.2 2.04 5.3-2.36-1.66-10.34-9.23-5.44-2.25 1.9 2.05 7.44 5.9 1.74 2.9-2.14-1.96-8.52-4.8-3.18-.14 2.73 1.85 5.13 3.84.49 1.94-5.7-.61 8.23 5.15.57 3.4 4.23 3.66 4.93 4.58 9.24 8.8a50 50 0 0 1 12.6 8.76c-2.31 2.3-3.4 6.53 1.13 3.14 3.22-.7-2.09 9.7 2.8 3.8 5.25-1.73 11.5 10.35 3.15 12.55-1.75.3-.53 5.08-.12 2.25 1.02 6.19 1.86-3.78 2.87.76.11-3.5 2.14-4.13 4.5-5.95-.67-1.04 1.56-4.82 3.02-.76-1.02 2.94-7.55 7.68-4.12 8.23-.26 5.23 2.65-5.33 1.53.93 1.83-1.2 3.63-10.36 5.97-3.47 2.93 1.25 6.93 4.09 9.22 2.6-.84-3.95 4.74 2.71 3.42-2.7 2.34.78 3.1.43 2.77-2.53 5.75 1.52-1.35-4.18 2.35-5.26-3.39-2.62-12.88-3.57-12.78-7.23 5.1.5 9.26-3.87 13.84-6.7 3.19-3.88 9.56-7.71 11.15-12.27 3.68-.7 4.9-5.55.2-3.18 2.21-1.24 10.02-8.09 2.95-4.77-8.25 3.17 6.6-5.74 4.07-7.22-2.22 1.83-7.44 5.85-8.7 5.13 2.48-1.16 8.12-9.3 5.71-8.76-2.04 2.81-8.02 8.7-8.94 7.91 2.97-3.57 5.4-8.27 4.85-13.2zm-.5 2.08c-.13 5.62-3.84 11.24-8.07 14.07-2.28 1.41-6.29 5.16-1.3 1.57 2.14-1.54 5.8-4.23 4.68-3.01 3.25-1.11 7.22-7.25 8.77-7.3-2.14 3.6-8.15 9.4-9.25 9.79 3.34-1.3 9.9-5.9 10.87-5.7-3.95 5.04-9.8 7.75-15.59 9.56 4.82-.76 12.83-5.38 15.22-4.41-2.83 3.66-10.78 5.47-12.2 6.22 2.54-1.16 13.95-2.63 6.95.35-6.74 3.5-12.6 1.42-7.18 2.35 4.3 0 3.54-.65 5.12-.71 6 .2-4.66 4.83-7.12 2.85-5.46-.03 4.72.2 4.97.84.16 5.29-10.3.42-11.9.53 1.99 1.42 12.56 2.7 6.16 5.3-4.67-.68-3.13-2.07-1 1.24-1.79 4.25-8.7-1.9-8.2-2.58 1.02 2.56 7.94 5.7 2.04 6.61-2.16-1.68-5.92-6.9-1.9-1.82 4.43 4.19-3.27 2.55-1.86 1.5 2.63 2.77-2.02 3.74-3.8 3.34-4.18-2.9.22 4.14 1.3 3.83 3.08 2.03 10.6 1.64 11.08 4.6-3.36.69-4.84-.13-.76 2.03 3.4 4.5-6.04.78-5.4-.5-3.73-2.49 1.8 1.42 3.73 4.08-2.97-1.73-3.09-2.6-.5.48-1.56 3.84-10.05-10.63-4.76-2.76 3.71 1.86 2.15 8.8-.88 3.7-1.33-2-2-4.03-2.6-3.51 1.06-.21 4.57 10.32.7 3.94-1.64-2.57 3.82 6.15-.85 1.3-2.1-3.97-1.9-4.78-1.7-2.86-.56-2.38 2.01 5.77-.83 3.04-2.1.14-1.62-6.27-2.76-2-2.35-.6-.98-5.78-4.27-2.31 1.51-1.93 3.64-3.21 1.53-4.36-.63 2.3-4.65-4.85-4.74 1.03-2.64 3.16-6.97 7.54-3.42 1.99 4.13-4.6-3.11-11.1-5.73-12.95 1.04-3.35 1.32-1.24 1.9-3.12 2.63-3.3 2.01-5.02 3.1-1.8 5.05-2.54-.95 1.4-1.71 2.44 4.5.2-3.74.68 1.93 1.26-5.59 1.83 4.84 1.1 3.71-2.41-.54-5.22 5.07-3.8 8.45-8.14 3.77-4.54 9.28-7.56 11.47-12.68.62-.69 3.77-11.73 2.19-3.73-1.65 5.12-6.52 10.94-.45 4.98 4.38-3.28 6.96-10.03 8.13-14.39a19.4 19.4 0 0 1-7.91 15.47c5.49-4.03 11.5-8.28 13.93-15.3l.38-.97zm5.2 2.95-.3.35zm-74 .8c1.46 3.34 8.44 11.75 2.39 4.94a12 12 0 0 1-2.38-4.94Zm1.2 1.85.3.36zm-5.4.63c3.86 4.3 10.8 8.39 13.71 8.7 2.9.52 6.5 7.2 6.6 4.76 3.32 1.19-1.1-1.25.39-1.15-1.27-1.35 3.63 3.19 1.64.32 2.04 2.06 6.05 4.55 4.1 4.34.8 1.36 5.13 3.77.9 3.05-.45-2.83-1.55-2.55-4.17-4.86-3.6-2.63 5.32 8.92 3.56 5.88 4.04 2.05-5.6 10.14-5.58 3.58 1.93-3.08-3.09 3.55-2.54-1.38.73-4.33 4.15-3.32.04-.71-3.6 2.12-4.33-2.07-1.4-3.16-3 1.97-8.08.4-7.18-1.2-3.3-1.97 3.38-1.96-2.67-2.04-3.75-.68-1.48-1.85-.55-2.29-2.62-.26-7.38-3.23-1.62-2.37 4.4.91-10.72-4.89-3-3 2.44.86 7.13 1.77 2.35-.2-2.75-.8-9.42-7.56-3.27-3.22 3.01 1.78 12.75 6.08 5.74 1.8-2.6-1.82-5.84-3.63-7.06-6.85Zm75.29.98-.2.21zm-7.15 1.38-.64.84zm-.84 1c-2.69 3.06-1.53 1.16 0 0zm46.36.53c-.47.07-.4 1.27 0 0zm2.62.73-.24.44zm-106.83.06.3.36zm-3.74.73.9.58zm4.12.14c.32.45-.69.18 0 0zm51.78.06c-1.18 1.84-1.86 2.17 0 0zm53.77 0c-1.74 1.72.52 0 0 0zm-104.87.18c.53.1-.28.43 0 0zm100.2.09c-2.1 3 .77.43 0 0zm-100.52.06c1.01.6.1.88 0 0zm58.98.12-.37.31zm5.1.1-.18.21zm33.03.1c.17 1.65-.54 1.02 0 0zm5.37.02-.3.36zm-39.88.12-.88.5zm45.94.3-.66.7zm-54.2.02-.33.27zm-51.74.09.3.36zm58.69 0c.25.36-.4.29 0 0zm40.85 0c-1.43 1.89-.86 1.92 0 0zm-39.34.14c-1.3.49-.12.49 0 0zm-8.25.14c-.93.08.8.1 0 0zm-4.66.38-.46.65zm47.17.05.01.32zm-28.87.14c-1-.34-.59 1.76 0 0zm-17.16.09c-1.87.7-1.26 1.3 0 0zm-47.8.05.34.44zm55.42.1c-1.79.62-2.68 2 0 0zm-1.17.06c-1.3-.11.37.48 0 0zm49.79.01-.74.66zm-52.24.04c-2.36 1.99-6 4-1.4.93l.69-.48zm48.54.13-.48.68zm-35.66 0c-1.53.4.43.28 0 0zm-18.66.08-.65.67zm-47 .2c.39.06-.3.13 0 0zm94.7.16.03.31zm-48.5.35c.24.37-.4.28 0 0zm-43.98.05c.52.11-.3.41 0 0zm-8.8.1-.35-.16zm60.86 0c-2.09.27-.36 1.25 0 0zm-51.12.06c2.56 1.57 2.99 2.49.35.47zm92.25.1.02.33zm-41.03.1c-.71.01-.03.43 0 0zm8.7 0c-.72.01-.04.43 0 0zm-64.05.01c.37.8.64-.23 0 0zm44.48.38-.29.36zm15.14.1c-1.28 1.33-1.3.07 0 0zm-56.87.04c-.41.25.89.23 0 0zm-5.18.01c-.46.07.46.24 0 0zm50.64.03-.35.28zm-50.35.11c3.48 1.18 2.1.24 0 0zm3.46.09c-.15.62 1.19 1.26 0 0zm1.87.02c.05.46.66.06 0 0zm104.26.17-.47.35zm-11.98 0 .01.33zm-88.72.23c.72.21.09.56 0 0zm95.95.17-.4.33zm-56.4 0c-2.95.96 1.18.63 0 0zm-39.06.3c1.32.9.45 1.11 0 0zm40.1.06c-.99 1.16 1.08 1.62 0 0zm-42.31 0 .2.24zm2.94.03c1.38.69-.17.75 0 0zm34.95.01c.36.5-.59.2 0 0zm52.76.28c-.78.95-.8 2.6 0 0zm2.69.08c-.27.49.46.5 0 0zm-103.43.01c.8.12-.95.07 0 0zm7.36.01c-.82 1.22 1.69.77 0 0zm7.04.03c.81.16.74 1.73 0 0zm33.1 0c-.23.95-.69.37 0 0zm-35.32.08c.56.23-.4.4 0 0zm-3.1 0c0 .57.5.03 0 0zm-7.25.02c-.75.1.75.1 0 0zm50.03 0c-.6.5-3.32 3.2-1.27.21-2.08 3.11.9.4 1.27-.2zm-46.7.26c-.93.08.78.11 0 0zm-1.02 0c-.7.02.42.15 0 0zm2.12.13c-1.13.08 1 .1 0 0zm3.47.13c-.21.31.88.25 0 0zm-1.28 0c-.37.3 1.5.22 0 0zm38.67.12-.28.4zm-34.38.02c.3.15-.4.05 0 0zm93.1 0c-2.07 1.5-1.6 1.68 0 0zm-52.62.02c-.06.55.6.33 0 0zm16.81.23c.54.32-.54.41 0 0zm-61.36.02c-.53.15.59.13 0 0zm.53 0c-.7.07.53.12 0 0zm94.95.25.05.64zm-44.53.01c-1.57.25-4.22 1.62-1.14.48zm-6.27.04c-.44.12-.26 1.14 0 0zm-42.76 0c-.1.49.62-.03 0 0zm-2.17.01c2.34 1.22 1.98.3 0 0zm48.35.1c-3.08-.2-11.64-.24-3.66.12.62-.12 3.97.37 3.66-.13zm-10.67.1c-.85 1-.2.24 0 0zm-39.73.02c-.46.06.46.23 0 0zm1.8.12c-.1.68.7-.1 0 0zm47.75.01c-.9-.02-.1.48 0 0zm-42.99.18c.5.12-.27.66 0 0zm50.76.09c.64.15-.72.06 0 0zm-12.14.04c-2.5.58-.4.69 0 0zm-43.35.09c-.47.13.5.07 0 0zm54.9 0c.44.09-.45.09 0 0zm-.51.13c.44.13-.5.07 0 0zm-45.48.13c1.31 2.5 2.57 2.3 0 0zm-15.38 0c-.75.1.74.1 0 0zm1 0c-.74.1.76.1 0 0zm59.35 0c.5.1-.5.1 0 0zm-17.7.12-.26.4zm.51 0c-2.21 2.97-.72.34 0 0zm16.69.02c.44.09-.45.09 0 0zm-51.74.07c.05.4.7-.12 0 0zm4.64.05c.1 1.37 1.57.05 0 0zm32.83 0c-2.73.52-1.65 3.19 0 0zm5.87.01c-.46.06.46.23 0 0zm7.79 0c.51.07-.47.13 0 0zm42.98 0c-1.6.77-.13 1.08 0 0zm-48.4.03c-2.9-.12.49.73 0 0zm43.36.1c-.7 2.33-.29 1.26 0 0zm-88.4 0c-.46.07.48.23 0 0zm49.84 0c.64.16-.72.06 0 0zm-16.63.12c.15.9-.78.86 0 0zm15.92.02c.8.11-.95.06 0 0zm-4.54.13c-.47.06.46.23 0 0zm3.04 0c-.75.1.75.1 0 0zM22.82 86c-.94.18-.4.84 0 0zm46.45.01c-.75.1.76.1 0 0zm-45.54 0c-.85.16 1.95.33 0 0zm45 .13c-.52.15.6.14 0 0zm1.34 0c-.7.07.54.13 0 0zm-11.56.04c-.18.7-1.03.02 0 0zm9.6.1c-1.27-.3.12.97 0 0zm1.16 0c-.45.08.45.08 0 0zm46.77.03c-.38.55.5.3 0 0zm-55.4.22c-.41.29.24.36 0 0zm-37.38.01c-.46.02.3.22 0 0zm43.78.13c-2.9.13-3.61 1 0 0zm5.46 0c-.45 0 .2.21 0 0zm-16.4.02c.53.55-.76.25 0 0zm-27.11.03c.56.57-.08.92 0 0zm-4.95 0-.53.5zm-4.84.15c-2.01.09-1.53.83 0 0zm9.33.05.3.36zm26.14 0c.25.37-.4.3 0 0zm.75 0c-.53 1.12-1.82.97 0 0zm-30.06.15c-.52.15.59.14 0 0zm31.47.12c-.66.22.3.52 0 0zm1.26.1c-2.42.75-.33.73 0 0zm6.6.05-.52.56zm-40.75 0c-.41.1.36.12 0 0zm1.51 0c-.61 0 .3.34 0 0zm-8.46 0c-.7.01.43.15 0 0zm98.62 0-.63.45zm-60.2.06c.09.76-1.46.75 0 0zm13.42.07c-.52.15.6.14 0 0zm40.84.14c.3.96-.8 1.17 0 0zm6.38.01c-.97.6-.54 2.12 0 0zm8.3.1-.38.55zm-60.29.15c-.7.11-.02.4 0 0zm47.73.12c-.4.28.25.36 0 0zm-82.06.2c2.1 1.82.66 2.08 0 0zm44.6 0c-2.67.44-2.88-.05 0 0zm-10.62.08c-.5.1.5.1 0 0zm-9.83 0c-1.32.56.25 2.16 0 0zm13.82.29c-6.68.24-1.48.15 0 0zm-34.77.03c2.4 1.35 7 6.87 2.15 2.33-.7-.79-1.63-1.38-2.15-2.33zm22.55.06c-.41.29.24.36 0 0zm-26.57 0c-.62.23-.24.73 0 0zm80.34.05c.52.1-.29.4 0 0zm2.48.22-.29.35zm-47.82 0c-1.4.73.14 1.1 0 0zm51 0 .36-.21zm-85.3 0c1.15.92 2.85 3.95.8 1.18zm85.91 0c-1.11.48-.01.53 0 0zM20 88.94c-.52.15.59.14 0 0zm-1.63.13c-.72.12-.03.4 0 0zm37.15 0c-.75.1.75.1 0 0zm-31.31.05c-.69-.03.16.44 0 0zm-5.18.1c-2.17.26-1.5.8 0 0zm33.9.03c.6.08-.34.3 0 0zm56.37.01c.17 1.58-.84.46 0 0zm-48.64.07c-.82.2.3.3 0 0zm51.73 0c-2.38 1.11.56.2 0 0zm-56.54 0-.47.57zm57.09 0c-.66.32-.34.88 0 0zm-95.47.01c-.51.04.43.16 0 0zm37.66.13c-.97.36.43.3 0 0zm67.7 0c-1.44-.34-.33.62 0 0zm-105.93 0c-.58.12.51.1 0 0zm40.87.07c-4.4.35 2.27 1.48 0 0zm-4.87.05c.24.37-.4.27 0 0zm68.9.02c-2.24.21-3.12.87 0 0zm-98 0c-3.77 1.88-1.94 1.58 0 0zm37.2.12c-.88-.05.36.61 0 0zm53.72 0c.03.43.76.02 0 0zm-97.85 0c-.52.16.59.15 0 0zm35.8.05c-.3 1.02-.63.3 0 0zm68.99.12-1.26.32zm-4.17.04.34.44zm-85.05.07c1.85-.07-.84.67 0 0zm31 .03c3.7 1.44 3.25-.04 0 0zm55.27.1c-.45.08.44.08 0 0zm-4.24.1c-1.85.76-.12.82 0 0zm-1.85.01-.36.53zm-49.31.02c-.97.1.97.09 0 0zm56.4 0c-.74.1.76.1 0 0zm-93.59.13-.18.21zm6.4.12c.68.12-.39.5 0 0zm79.22 0c-1.09.26 1.08.71 0 0zm-77.28.01c1.25.37-.48.22 0 0zm-2.43.12c.37.37-.72.54 0 0zm25.36 0c.08.47.57.05 0 0zm-28.87.13c-.37.87.5 1.04 0 0zm31.72.01c-.07.69.68-.1 0 0zm-2.34.18c.67.66 1.1.1 0 0zm53.73.08c-2.27 1.46-.22 1.52 0 0zm-47.11.03c.03.27 1.46.2 0 0zm-35.02 0c-1.06 1.13 1.18 2.38 0 0zm81.48.06c-1.39.19-.08.73 0 0zm3 .05c-.5.02 1.15.62 0 0zm-58.15.01.23.22zm-27.95.04-.12.32zm37.75.1c-.44.12.5.07 0 0zm-36.17.05c.45 1.22-.23 1.15 0 0zm-8.25.06c-1.33 2.12-2.8-.2 0 0zm38.05.04c.56.52 1.23.04 0 0zm-23.93.05c3.68 3.02-3.32 3.12-.2 1.56 2.48.18-2.73-1.08.51-.54v-.45zm23.07.05c.07.49.66.05 0 0zm-38.3 0c-.36.57-2.1.09 0 0zm12.32.04c1.3.82.68 1.73 0 0zm-4.43 0c-.91 1.43.02.93 0 0zm86.51.08c-.67.21-.15.59 0 0zm-58.23 0c-.7.14-.02.42 0 0zm-22.51.01c.37.48-1.01.26 0 0zm30.34.01c-1.14.07 1 .1 0 0zm1.03.13c-.97.1.97.09 0 0zm-15 .04c.12.63-.74.3 0 0zm1.88.14c-.69-.03.16.44 0 0zm39.86.03c1.68 2.53 2.19 8.86 2.05 2.18 1.99-3.23.25 8.72 1.07 5.1.09-3.14 3.3-6.8 2.28-1.48-2.31 2.97.76 3.6-3.48 2.9-2.04 1.1.9-1.2-1.3-3.07-.42-1.84-.7-3.73-.62-5.63zm-40.54.01c-2.71 1.66.83 1.35 0 0zm-17.14.05c.5.1-.5.1 0 0zm76.05.13-.2.21zm1.02.12c-1 .35-.02.48 0 0zm-75.79 0 .21.24zm78.48.01c-.45 0 .2.21 0 0zm-80.24.05.19.33zm84.47.07.34.44zm-3.85.02c-.53.15.59.13 0 0zm-65.62.04c.7.28-.82.72 0 0zm2.06.07c.41.32-.41.33 0 0zm13.24.02c.29.15-.4.04 0 0zm-36.3.03-.37.94zm-6.67.1c.29.15-.4.05 0 0zm43.37 0c.3.15-.4.05 0 0zm45.52 0 .15.55zm-45.12.14c.31.2-.46.01 0 0zm-30.17.03c.68.49-.64.72 0 0zm-1.24.1c.8.39-.45.8 0 0zm31.83 0c.5.07-.45.13 0 0zm-26.97.04c.16.47-.63-.01 0 0zm27.47.1c.5.09-.5.1 0 0zm-27.08.1c.17.43-.77.78 0 0zm27.59.03c.45.08-.45.08 0 0zm-28.87.02c.12.7-.5.49 0 0zm2.29.1c.4.4-.57.22 0 0zm8.1 0-.19.22zm18.95 0c.38.07-.31.14 0 0zm54.63 0c-.5.1.5.1 0 0zm-74.08.01c.39.53-.68.74 0 0zm-9.44.05c.28.3-.34.48 0 0zm29.3.1c2.48.33 1.8.73 0 0zm-25.8.23c1.4.56-1.83.45 0 0zm-3.85 0 .29.23zm76.75.06c-.08.48.6-.05 0 0zm-78.91 0c.3.61-.49.17 0 0zm4.22.11c-2.82 1.16-1.7-.02 0 0zm-2.97 0c.53.1-.27.43 0 0zm.8.1-.35.26zm73.75 0c-.62.76.63.57 0 0zm2 .01c-.52.15.6.14 0 0zm-43.97.01c2.52-.29 1.35 1.13 0 0zm-41.4.04-.5.96zm17.9.04c.67.17-.56.5 0 0zm-5.8.04c-.43.79-1.32.1 0 0zm.62 0c1.47.53-1.47.38 0 0zm1.88 0c-1.1 2.62-6.03.26-.63.6 1.28-.23-2.1-.34.63-.6zm5.52.05c.16.47-.62-.02 0 0zm-11.94.07c.23.37-.4.27 0 0zm2.82.02c.5.1-.5.1 0 0zm10 0c-.44.09.46.09 0 0zm-13.92.05.19.32zm7.89 0 .19.32zm3.44.03c.04.85-.95.94 0 0zm6.25.05c.17.67.7.23 0 0zm-17.81 0c.3.21-.46.02 0 0zm2.78.03c.52.11-.29.41 0 0zm11.38.1c-.5.1.5.1 0 0zm64.93 0c-.99.33.55.62 0 0zm-70.03.08c2.84-.12-1.35.39 0 0zm-8.04.06c.49.1-.51.1 0 0zm.7.13c.3.21-.47.02 0 0zm14.77.03c-.49.55 1.24.13 0 0zm8.01 0c2.31 2 2.25 1.01 0 0zm52.19.03-.45.4zm-76.88.04c4.03-1.34 2.49 4.45-.03 2.67 3.6-1.07-1.65-2.37.03-2.67zm3.66.04c.56.27-.23.49 0 0zm79.77.01.34.44zm-73.53.1c.36.55-1.03 0 0 0zm1.21.13c.41.32-.4.32 0 0zm-7.14.05c1.42.22-.78 1.8 0 0zm13.09.09c-.87.24.4.25 0 0zm-9.26 0c.27.87-1.71 1.09 0 0zm2.97.01c.38.06-.3.13 0 0zm-11.79.02c1.33.64-2.45.47 0 0zm9.7.14c-.25 1.7-2.28 1.23 0 0zm1.38 0c.77.63-1.4.25 0 0zm26.98.02v.4zm42.57 0 .43.62zm-79.74.05c1.95 2.3-3.75.49 0 0zm75.95.02c.2 1.32.33.51 0 0zm-76.21 0-.3.36zm6.25.01c1.17-.53.26.69 0 0zm15.89.03.46.45zm-23.8.15c2.39 2.95-4.88 2.84 0 0zm11.22 0c1.28.55-1.13.94 0 0zm27 .1c-.45.01.31.2 0 0zM41.03 96c-1.35 1.69-2.81 1.48 0 0zm-1.5.1c.64.56-2.36 1.44 0 0zm-1.8.07c.21.97-.96-.13 0 0zm12.33.08c-.46.06.47.23 0 0zm-14.08 0c-.51.04.43.15 0 0zm13.7.05c.08.67.56.31 0 0zm-20.76.02-.27.85zm4.88.04c-.57.67.13 1.02 0 0zm57.11 0c3.8 4.12 1.67 5.84 0 0zm23.7.05c-.27.42.53.1 0 0zm-50.45 0c2.2 1.28 2.27.63 0 0zm-23.06.02c.14 1.47-1.4.38 0 0zm17.53.07.43.51zm-15.78.16c1.7-.5-.94 1.57 0 0zm10.66.1.3.36zm-22.42 0-.3.37zm83.45.02c-.42.1.35.12 0 0zm-76.43.12.2.24zm60.82.08c.77 4.11-5.66 4.03-.59.78zm11.79.05c-.22.44.54.2 0 0zm-60.7.05c.57.91-.35.13 0 0zm-8.23.08c.24.37-.4.27 0 0zm24.32.02c-.51.03.43.15 0 0zm27.57.03.03.31zm-27.38.07.9.54zm-18.84.02c-.88.08 1.3.36 0 0zm-7.23 0c.38.07-.3.14 0 0zm.76 0c.84.08-.86.27 0 0zm1 .13c.24.36-.4.27 0 0zm15.45.01c-.44 0 .21.2 0 0zm-1.2.01.5.66zm42.03.01c-.07.98-.74-.1 0 0zm-2.77.02-.04.24zm15.38 0c-1.18-.35-.55.88 0 0zm-63.44.1c-.47.01.3.2 0 0zm65.93.05.34.44zm-65.65.06c0 .58.5.03 0 0zm-11.16.08c.1.6.66.03 0 0zm71.64.05-.29.36zm-68.34 0c.71-.03-.58.32 0 0zm-6.79 0c.6.38-1.06.56 0 0zm22.1.13.22.54zm-8.04.02c-.46.07.46.24 0 0zm48.21.01-.16.54zm2.51.02c-.15.68-.82.24 0 0zm20 0 .33.44zm-57.35.11.69.64zm-4.7.04c-.1.48.62-.04 0 0zm-20.94 0c-3 1.8 1.8 3.36-2.79 2.13-1.83-2.37 2.21-.9 2.8-2.12zm3.68.09c.29.15-.4.05 0 0zm-7.58.1c.34.42-.24.85 0 0zm24.94.2c-.1.49.62-.03 0 0zm-16.87.03c-.03.82-.95-.16 0 0zm16.64.08.24.58zm-19.97.02c1.7.33-.93.83 0 0zm64.8.01c1.41.71-1.84.6 0 0zm10.8.05.35.44zm-11.69.02c.41.32-.41.32 0 0zm-69.11.01c.16.82-.85.06 0 0zm16.18.03.1.37zm66.96.02.39.6zm-16.78.08-.48.68zm-61.6.03c2.92.3-1.28 2.82 0 0zm21.25.11c-.52.04.42.16 0 0zm42.66.01c-2.4 1.78 5.1-.3 1.25.97 7.32-.5-1.54 5.21-4.16 1.55 2.8.82 3.23 1.43 1.28-.42 1.85-.7 1.8.07.28-1.34-.05.37 1.35-1.31 1.35-.76zm9.47.05c-.02 1.09.89.36 0 0zm-67.34.08c.89 1.28-1.72.11 0 0zm53.23.14-.14.57zm-64.5.01c1.28.15-.98.35 0 0zm75.9.14c.1.64-.87.44 0 0zm-74.86.09c.41.32-.42.32 0 0zm.3 0c.25.37-.4.27 0 0zm19.68.06c-.1.48.6-.05 0 0zm-21.12.1c1.5-.33.07 1.1 0 0zm65.16.02.03.31zm-61.74.1c.34.26-.66.06 0 0zm68.59 0c.44.09-.45.09 0 0zm.67 0c.38.06-.31.13 0 0zm8.35 0 .34.44zm-48.75 0 .7.64zm-8.86.01.32.63zm1.1.05c-.08.51.52.27 0 0zm-14.14.03c2.02.43-1.39 1.56 0 0zm60.72.04c.49.1-.51.1 0 0zm-44.75.12c.8 2.93.81.14 0 0zm-25.05.03c2.23.56-.94 1.23 0 0zm6.38 0c-.96.83.67-.02 0 0zm-8.97.08c-1.75 1.88-1.3.93 0 0zm84.78.02c-.38.5.24.47 0 0zm-40.07.14c-1.1 3.2-1.02 13.73-2.86 5.55-1.34-5.32-.7 5.37-.29 7.41-1.02 4.79-1.22 9.66.33 14.4-4.46 3.34-11.33 5.82-10.96 13.47 4.93-4.46 11.67.99 16.29 5 6 3.45-5.89 7.78-.18 11.08 1.16-.31.6-5.14 1.4-1.8-.67-3.77 6.54-9.53 2.27-2.8-4.21 4.45.66 8.07 1.92 1.89.13.46-.4-3.78 2.27-4.07.96-.95 7.46 8.97 10.7 5.83-1.97-2.57 5.75 3.8 3.1-.92 4.23 3.15.92-3 2.28-2.08 1-.8-2.87-3.27.26-2.3-4.17-3.28-9.76-4.87-12.96-9.29 5.67.07 10.66-5.05 17.1-7.18 2.62.07-1.7-2.39 2.57-2.16 5.71-.94-5.49-1.54 1.03-2.6 3.16-.57 4.7-2.24.21-1.47-8.41.14 2.43-1.16 2.93-4.37-2.25 1.5-14.13 3.75-6.63.66 2.33-.96 5.5-6.23 1.02-2.5-1.98 1.62-12.79 5.38-6.44.63 2.65-2.07 2.52-6.23-.24-1.96-3.24 3.3-11.66 8.62-14.45 2.98-1.93-4.77-2.8-9.61-3.54-13.65-3.3 4.13 1.33-8.59-2.95-1.68-2.23 5.12 1.17-11.6-1.89-3.1-.83 3.4-2.4 6.01-1.5.93.03-1.98 0-4.06-.8-5.9zm-44.5.01c3.2 1.88-3.92 1.38 0 0zm71.58 0c-1.43.1 1.59.07 0 0zm-65.66 0c.38.07-.3.14 0 0zm-4.91.07c1.37.01-.56.38 0 0zm28.76.07c1.67 2.35 3.07 2.97 0 0zm-19.77.05c.39.4-.43.59 0 0zm77.62.02.34.43zm-22.57.18c-.4.28.25.36 0 0zm-53.17 0c.05 3.22-3.75.6 0 0zm-8.29.02c2.5.23-.3.55 0 0zm9.55 0c-.55.82-1.47-.38 0 0zm72.04.03c-.09.49.6-.04 0 0zm-9.27.08-.29.35zm-4.78 0c.19 1.8 2.95-.04 0 0zm12.02.13c.3.8 1.8 1.42 0 0zm-66.57.03.19.15zm49.81.02c-1.25 2.08 5.32 2.76.77 1.86-2.03.3-2.45-.74-.77-1.86zm-2.21.02c1.76.87.65 1.32-.02.28zm2.84.06c.44.36-.58.3 0 0zm8.27 0c.4.23-.21.42 0 0zm-4.26.01c-.64.01.95.37 0 0zm-5.24 0c-1.48 1.52.13.37 0 0zm-64.22 0c.38.07-.3.14 0 0zm5.9.08c.85.3-.17.48 0 0zm67.41.05c.47-.04-.1 1.82 0 0zm-66.03 0c.13.73-1.32.22 0 0zm-.68.01c.3.22-.46.02 0 0zm19.17.05c.33.88 1.03.62 0 0zm-6.56 0c-.8.63 1.57.55 0 0zm-18.9.08c.38.07-.31.14 0 0zm74.08.04c-.08 1.2-1.55 1.4 0 0zm-50.22.08.56 1.14zm-22.34 0c2.46.35-3.41 6.02-1.67 1.28-1.34-1.43 1.2-.96 1.67-1.27zm92.77.02c-.62.64.84.28 0 0zm-84.27.04c3.3.1-.32 1.7 0 0zm-11.54.01c-1.44 1.74-2.7.04 0 0zm73.8.02c-1.46 2.85-.7.35 0 0zm-39.97.05c-.44.17.73.29 0 0zm-24.97.05c.15.48-.63-.02 0 0zm-8.42.08c.7.06-.72.32 0 0zm25.42.13.24.55zm-16.62 0c.14.47-1 .05 0 0zm-9.2.04c-.32.91-1.6.66 0 0zm44.02.07c1.62 3.2-.17 8.5-.02 10.87.87-2.72 4.52-14.1 3.46-5.11-.52 2.63-3.26 8.43-.12 2.91.88-4.35 4.47-2.97 1.72.84-4.74 6.5 4.34-4.31 1.54 2.4-1.8 1.83-6.67 5.72-3.48.48-2.36 1.83-4.53 4.56-.75.94-2.58 2.45-.7 2.22-.73 3.16 1.05.37 1.68 3.73-1.82 2.26 1.52 2.6 5.21 1.27 3.29 3.11 4.02 1.57-2.4 1.26 2.31 2.4-2.92.63 3.7 2.77.1-.5-2.08-2.29 5.07-.36-.49-1.62-.83-.71-4.47-5.58-.47-8.45 2.75-3.52 5.53-.04 1.2 1.74-3.95 1.23 6.01-2.1 1.57 1.62-4.85 1.06 5.37-.97.29 1.72 1.05-1.32 3.56 1.74.83 1.36 6.17 2.67-6.61-.62-.05 1.11 6.39 2.48-2.37 4.94-4.42 6.47-2.16-2.6-5.96-1.1-1.73-2.83.45-.3-3.72 1.36-1.64-1-1.56 1.15.9-3.7-2.1-.57-.64-2.63 4.03 0 .6-3.4.67-2.1.93-3.63-.8-1.02 1.9-4.29-.38-.1.35-3.2-1.26 3.04.06.35-1.62 1.4.03-1.82 2.34-5.1.62-3.66-.2-3.37-.88-8.52-.67-9.36 1.3 3.07 1.22 10.26 2.02 2.92.33-2.33.55-4.68 1.01-6.99zm51.87.02c-.62.48.62.48 0 0zm-29.37.02c.45.09-.45.09 0 0zm6.23.01c0 .51-1.1.39 0 0zm-50.61.03c.42 1.13 1.25.05 0 0zm.3.07.3.36zm-16.98.02c.27.58.9.29 0 0zm6.05 0c.3.15-.4.05 0 0zm55.82.12c.4.32-.42.32 0 0zm-56.5.01c1.13-.22.36.88 0 0zm63 .04c-.2 1.43-.96.77 0 0zm4.44 0 .35.44zm3.44 0 .34.44zm1.04 0 .34.44zm2.4 0 .34.44zm-20.69.01c.78.01-.31.45 0 0zm-58 .07c-1.11.36 1.08.03 0 0zm.97.04c.52.12-.3.42 0 0zm1.8.03c2.17.54-.85.5 0 0zm16.9.07c-.42.12.36.86 0 0zm45.7.04c-.53 3.14-1.2 2.85-2.6 1.94-4.2.1 2.16-1.33 2.6-1.94zm-73.83 0c-1.67.67.15.78 0 0zm6.1.02c-.82 3.21-3.25 4.99 0 0zm66.04.07c.41.25-.89.23 0 0zm-55.64 0 .28.22zm-3.8.01c.8.12-.97.06 0 0zm59.75.27c.3.15-.4.05 0 0zm-59.62 0c.84.06-.86.26 0 0zm61.68.04c.16.48-.63-.02 0 0zm-47.72 0 .23.45zm-18.63.1c-.74.09.75.09 0 0zm5.15.12c.8.12-.94.07 0 0zm61.68.06c-.45 1.57-1.6.07 0 0zm-67.34.06c-.92.16-.3.74 0 0zm.7.02c-.7.01.43.15 0 0zm72.61.07.34.44zm4.82 0 .34.44zm-73.89.05c1.76 1.22-1.7.92-2.42 1.26-3.46-1.93 2.4 1.4.36 2.15 1.8 2.05-.8-4.41 1.92-1.4.2-1.13 3.06-1.05.14-2.01zm-13 .04.04.31zm74.61 0c.4.5-.48.35 0 0zm1.92.03c.25.79-.91.22 0 0zm-3.37.07c-.46.07.46.24 0 0zm2 0c.37.06-.32.13 0 0zm-64.3.13c.37.07-.31.14 0 0zm-2.07.01c-2.48 1.33 1.26 1.23 0 0zm-3.55.11c.24.37-.4.28 0 0zm3.21.02c-.7.06.54.13 0 0zm1.11.11c.54.2-.22.45 0 0zm.96 0c-.11.64-.88.2 0 0zm64.32 0 .28.24zm-2.58.07c-.98.64.7.52 0 0zm3.89 0c.56.73-.64 1.57 0 0zm.31.08-.32.32zm8.7.02.35.44zm-72.84.06c1.47 0-.03.67 0 0zm78.59.08c-.29.41.52.12 0 0zm-81.97.04c.52.4-.31.38 0 0zm68.22.05c.39.48-.39.5 0 0zm18.15.07c-.77.45.57.53 0 0zm-23.96.06c-2.42 2.35-2.65 1.29 0 0zm2.13.01-.17.22zm-64.09.13c-.17.42.66.52 0 0zm40.76.18.02.32zm-44.69.02c-1.74 3.35-2.19 1.6 0 0zm4.67 0c1.08.76.36.78 0 0zm66.74 0c.07 1.4-1.02.66 0 0zm5.89.03.34.44zm-77.75.03-.38.55zm72.33 0c.8.36-.65.14 0 0zm-4.82.14c.4.4-.57.23 0 0zm6.81 0c-1.1.47 1.11.47 0 0zm-2.22.13c2.31.03-1.84 2.67 0 0zm7.71.07.34.43zm-78.89.06-.28.36zm70.19.05c.15.5-.81-.16 0 0zm-66.04.23c-.61 1.12 1 .2 0 0zm77.84.02.34.44zm-9.08.06c.87.7-2.09.33 0 0zm-52.69.01c3.22 3.14 1.88 2.72 0 0zm47 .03-.36.51zm3 .01c1.02.3-1.76 1.12 0 0zm9.7.26.35.44zm-10.7.15c.38.06-.3.13 0 0zm3.32.2c1.09.94-1.14-.04 0 0zm4.63.02.35.43zm-78.55.05c.26.55-.34.66 0 0zm14.2.11c.01.58.49.03 0 0zm52.7 0c-1.27 1.53.5.65 0 0zm6.39.08-.35.16zm-66.39.06.42.49zm62.65 0c-1 .18 1.21.16 0 0zm-5.36.2c.2.99-1.33.16 0 0zm22.73.06c.4.32-.42.32 0 0zm-65.04 0c.01.58.5.03 0 0zm26.45.05-.3.61zm19.47.1c-.45 0 .2.2 0 0zm15.23.02.34.44zm-13.3.11c-.45.09.45.09 0 0zm17.51.04c2.53.1-1.48 1.13 0 0zm-15.19.08c-.78.48.79.48 0 0zm-1.31 0c.87.4-1.86.16 0 0zm13.66.14.34.44zm-20.37.05c.7-.08-.13.5 0 0zm-.25.07c.22.44-.54.2 0 0zm13.51 0c-.14.4.7.45 0 0zm-9.76.01-.2.22zm-51.08.03c-.4 2.32 2.42 5.1 0 0zm60.22 0c-1.34.33.05.41 0 0zm-77.07.01.02.33zm75.52.23c-.68.02.03.53 0 0zm.76.01c-.68.04.48.15 0 0zm-11.87.13c-.08.44-.8.03 0 0zm9.2 0c-3.38.23.05.86 0 0zm11.17 0c-.43.48.67.44 0 0zm-50.74.01c-.8.64.86.87 0 0zm32.18.09c-.9 1.14-1.95.35 0 0zm11.7.02c-.4.27.24.37 0 0zm7.57.07.34.44zm-22.36.01c3.43 0-3.37 3.27 0 0zm-47 .05c-.88 2.95.18 1.73 0 0zm55.11.03c-2.23.26.58.21 0 0zm4.98.05c-.56.36.8.11 0 0zm-57.04.05.29.36zm2.93.14.3.36zm-13.98 0c.01.57.49.03 0 0zm62.11 0-.17.22zm7.47.01c-.5.07.45.13 0 0zm-43.98.02c-.74.52.74.62 0 0zm43.6 0c-1.3-.1-1.5 1.05 0 0zm8.37.18c-1.02.45.82.5 0 0zm-60.6.03c1.3.4-.39.67 0 0zm-8.48.03c-.52.53.22.61 0 0zm55.38.01c-1.58.53.9-.09 0 0zm-6.14.02c-1.75 2.01-3.24.67 0 0zm-26.34.02c.57.83 0 1.46 0 0zm25.1 0-.18.29zm17.08.08c-.98.43 1.6.32 0 0zm-62.95.05c.5 1.13 1.1-.35 0 0zm51.96.03c-.7-.12-.06.4 0 0zm-60 .09.46.45zm7.66.1.3.35zm-1.85.39c-.71 1.78 1.12.7 0 0zm64.54 0c.66 1.7 1.35 2.65 0 0zm.48.02c-.45 0 .21.2 0 0zm-60.2.02c-.28.43.53.1 0 0zm48.33.04.34.44zm-7.33.23c1.02.98-2.4.52 0 0zm-35.18.1c.7 0 .18.52 0 0zm45.6.03.34.44zm7.23 0 .34.44zm-1.04.37.35.44zm-16.81.06c-.61 1.4-.15.44 0 0zm19.71.06c-.24.37.4.27 0 0zm-72.95.04.03.32zm.8.15c.53.91 1.15.25 0 0zm79.57.06.34.44zm-49.26.15.17 1.23zm-22.79.04c-.48 1.93.3 1.25 0 0zm58.98.17.34.44zm-48.08.07c.09.48.69 0 0 0zm-12.25 0 .21.64zm66.43.17.23.32zm-73.09.01c-.07 1.28.52.5 0 0zm18.72.07.31.53zm-11.41 0c-.3.9 1.6 1.46 0 0zm33.35 0-.29.6zm37.68.05.34.44zm4.05.08.3.23zm-48.49.3-.15.44zm-14.67.16c-.09.48.6-.05 0 0zm12.82.05v.57zm40.86.03.31.36zm3.01.39c-.65.66 1.35.14 0 0zm-2.55.04.48.35zm-37.63.1-.29.35zm41.05 0c-.1.68.68.61 0 0zm6.28.16.21.16zm-7.58.03c.31 1.32 1.33.87 0 0zm-68.52.25.03.31zm69.47.13c-.22.58.41.97 0 0zm-68.97 0 .3.84zm-1.22.11c-.54.5.42.38 0 0zm8.1.01-.32.46zm23.41.1-.29.35zm-11.8 0c-.24.31.9.26 0 0zm-11.23.04.67.88zm-5.43 0 .13.72zm21.75 0c.35 2.93.12 4.58 0 0zm-20.11.02c-.9.45 1.03.34 0 0zm-2.85.38c-.58.22.38.48 0 0zm25.12.03c-1.41 1.97.95 2.48 0 0zm-20.98.26c-.03.5.64.12 0 0zm2.59.07.3.36zm2.54.03.39.3zm59.28.1c.78.85-.7.5 0 0zm-67.48 0c-.4.27.24.37 0 0zm25.65.04c-.96.77.05 2.12 0 0zm-24.28.02c-.08.48.61-.05 0 0zm31.11 0c-1.1-.25-.12.63 0 0zm-26.91.04.47 1.02zm-1.82.03c.23.75.75.38 0 0zm.44.54c-1.76-.7 1.35 1.37 0 0zm9.91-.53.3.25zm-12.13.12c1.25 1.2 2.3-.05 0 0zm64.77.02c1.97 1.77-1.17 3.2 0 0zm-66.4.03.08.45zm-1.73.01c.87.9-.32 1.63 0 0zm1.26.28c-1 2.18-.9 4.27 0 0zm25.17.06c-1.34 2.42-.92 1.58 0 0zm-19.86.07c.98 2.41 1.5.66.87 1.12zm-6.83.06-.21.34zm69.23.27c.78.9-.31.68 0 0zm-42.75.2c-.3.44.77.03 0 0zm-13.52.07c.54.19-.22.44 0 0zm58.38.16c.66.27-.02.51 0 0zm-78.1.1c.24.48-.34.43 0 0zm6.45.02c.38.06-.3.13 0 0zm25.04.03.03.31zm-.93.02-.08.38zm-24.52.06c.4.4-.56.24 0 0zm71.77.14c.35 1.22-1.66.77 0 0zm-78.23 0c.1.84-.6-.05 0 0zm37.31.04-.37.32zm-16.33.14.58.43zm56.63.14c.1.49-.62-.04 0 0zm-57.35.04.6.7zm-4.31.04.22.54zm20.86.04-.38.32zm5.28.09c.43.67-.27.65 0 0zm-42.8.05c0 .55-.62.2 0 0zm20.5.06.64.62zm-11.67.02-.15.22zm13.57.06.58.42zm13.32.08-.29.5zm-20.85 0c-.43 1.86.76 1.89 0 0zm22.14.04-.33.28zm-37.41.03c-.71 1.58-.6-.12 0 0zm7.25.01c.43.38-1 .18 0 0zm23.93.11c.5 2.45-.16 3.9 0 0zm3.7.2c-.47.2-.48 1.59 0 0zm44.08 0c1.35.37-.46.39 0 0zm-69.56.02c-.24.69.73.2 0 0zm67.03.04c-.13.47.63-.01 0 0zm1.14.08c-.78.48.78.48 0 0zm-45.19.13c-.99.64.7.86 0 0zm46.1 0c3.08.09 1.5 3.3 0 0zm-36.24.02-.96.32zm-43.69.29c.39.2-.35.34 0 0zm40.3.1c.3.22-.47.02 0 0zm-26.72.19.6.86zm30.7.13c.16.78-.6.31 0 0zm-24.28 0c.58 1.3 1.09 1 0 0zm-20.8.12c.64.34-.53.34 0 0zm7.1.08c-.16 1.42-.67.53 0 0zm8.53.01c.3.78.78.5 0 0zm-3.2.03.02.32zm69.48.02c.71-.07-.15.48 0 0zm-62.42 0c1.43 1.84.85 2.2 0 0zm-18.02.24c-.64.38.48.5 0 0zm6.13.02c.7-.08-.13.5 0 0zm73.94.02c-.15.51.86-.14 0 0zm-58.17.19c.97.61.03.69 0 0zm15.39.01c-1.97.22-1.57 2.17 0 0zm6.98 0c-.46.07.47.24 0 0zm44.15.12c-.62.43.5.45 0 0zm-47.51.02c-.51.04.43.15 0 0zm-26.82.03.02.31zm-15.53.03c-.64 2.19-1.12 1.58 0 0zm5.8.19c.56.42-.73.21 0 0zm2.26.04c1.97 1.95-1.01 1.75 0 0zm28.7.06c-.87.74.2 1.15 0 0zm26.8.02c.38 1.48-2.17 1.09 0 0zm-21.78.03c-.5.07.44.13 0 0zm-42.72.12c-.34 1.8-1.08.22 0 0zm22.83.05.35.44zm-16.4.01c1.33.15-.97.34 0 0zm18.8.07.3.35zm14.6 0c-1.67-.15-1.52 1.13 0 0zm-24.98.04.03.32zm-7.22.09c.4.28-.24.37 0 0zm8.75.05c-.07 1.9.58 1.55 0 0zm20.41.04c.14 1.16-1.42 1.3 0 0zm-33.86.1v.4zm5.13.05c.15 1.36-1.07 1.28 0 0zm-5.6.03c.56.24-.08.57 0 0zm5.82.04.03.32zm26.98.02c.5.45-.7.2 0 0zm-28.2 0c-.93 2.1-2.94 1.93 0 0zm-27.34.07c-.29 2.76 1.83 9.42-1.46 4.09-.47 2.84 2.59 11.26 1.14 10.15-4.01-7.12.1 4.8.69 7.64.65 4.5.55 10.66 4.69 15.5 4.2 6.49-7.2 8.18-5.6 15.38-1.3 3.97.2 8.26 2.88 2.58 4.74-4.89 11.37.43 16.09 2.9 3.4 1.84-.57 10.52 5.9 10.04 2.13-1.99-2.5-3.13.6-4.51-3.34-.47-.67-9.84 1.36-3.44 3.06 2.88 7.76 5.22 9 3.74 1.3 1.15 3.82 2.4 2.61-.12 5.37.73-1.69-3.03 2.44-3.77-2.98-1.5-2.5-2.05-2.08-3.46-3.72-1.12-13.2-3.96-11.96-7.6 4.72-3.12 6.61-9.15 8.35-14.18.33-2.12 5.94-7.67 3.12-7.99-8.04 3.83 5.82-6.5 1.22-6.16-2 2.86-9.54 6.77-3.92 1.23 2.1-2.68 3.8-11.3.26-4.06-1.7 2.97-8.56 10.33-4.22 3.34 1.95-2.96 2.65-12.91.25-4.77-1.06 3.47-5.25 9.53-6.36 10.04 2.12-2.5 2.61-13.36.58-5.04-.95 3.8-6.43 11.75-5.94 6.38-2.32 7.06-5.54-5.3-5.87-7.58.2-3.96-3.31-.05-1.68-4.32.3-7.31-3.25 1.84-3.23-.08 1.65-3.66-.72-12.91-2-4.15-1.34 3.84.24-7.83-2.51-9.26-.89 2.87-.27 14.1-1.26 5.66a22 22 0 0 0-3.1-8.18zm106.42.02c-.81.35.63.55 0 0zm-62.56.05c.2 1.28 1.6 1.18 0 0zm22.63.07c.94.2 0 .43 0 0zm17.38.08c.33 4.5-13.74 7.55-4.69 5.81 2.33-.3 10.94-3.72 11.17-4.05-1.52 2.78-9.47 4.06-5.14 4.44 2.8.52 13.02-3.89 6.19-.18-3.37.82-7.87 2.37-2.01 1.86 3.55-.74 6.8.48 1.42 1.58-3.55-.43-7.56.14-1.93.67 9.05 2.97-11.13.3-3.52 1.44.37-.1 7.54 1.92 1.81 2.3-2.36.03-9.51-3.27-5-.93 3.35-.27 5.02 3.66.52 1.77-3.68-1.53-6.87-2.78-1.57-.28 6.13 3.43-4.26 1.5-5.65-1.27-4.6-2.83 3.84 2.13 4.66 3.85-.78.98-5.54 4.45-7.22-.71-2.03-2.87 2.33 3.2-.86-.62-.29-.63 6.06 6.66.38 4.82-5.72-2.64.84 5.77 4.09 5.73 2.44 2.3 8.25 3.08 5.56 3.86 4.06 2.9-.69 1.2-1.39.7 3.07 1.42 4.94 6.26.3 2.74-3.96-3.8 4.29 5.25-1.63 1.39-2.87-2.93-4.37-5.78-2.8-2.79-3.66-5.05 5.17 7-.6 2.12-2.04-2.71-3.67-4.2-.74-.48 2.3 5.1-7.13-8-2.53-.67-2.52-1.82-4.35-7.21-6.47-3.02 1.61-1.03-2.63-4.41-1.95-.42-4.16 2.54-3.52 6.59-4 3.18-.66-2.98 2.33.38 2.46-4.54-2.09-4.83-8.03-8.12-12.7-10.27-3.26.88.5-4.41-3.43-1.58.29-3.7 2.86-1.87 4.36-3.8-2.33 2.77 2.65-1.27 1.5 1.9 1.54-.45-.42 2.6 2.89.88-3.23 2.25 2.24 1.5.88 2.42 3.73 1.15 2.65-2.47.81-.32-1.65-1.02 3.35-.81.66-2.41 2.47-.22-3.63-.95-.15-2.25 5.43-1.04 5.4-4.56 9.94-5.37 2.98-2.22 5.27.42 9.75-2.5 2.57-1.14 4.62-3.04 6.63-5zm-1.59 1.65.79-.1zm-27.75-1.64c1.88 1.19-1.55 2.6 0 0zm9.38.05c-1.6.09 1.6.09 0 0zm-42.66.05c.3.61-.48.16 0 0zm7.27.07c.42.32-.4.32 0 0zm27.46.01c.07.85-.59.58 0 0zm6.51 0c-1.17.1 1.18.1 0 0zm3.15.05c-3.62.2-3.46.42 0 0zm-6.39.16c3.6-.9-1.14 2.44-.24.14zm-38.92.07c.29.7-.58.52 0 0zm7.33.09c-.03 1.11-.45.5 0 0zm-6.8.02c.26 1.26-.87 1.11 0 0zm40.56.14c-.57.7 1.46.2 0 0zm-5.88.05c-.06.95-.84 1.12 0 0zm1 .34c.23.37-.4.27 0 0zm-15.85.02c1.45 2.46.93 2.36 0 0zm14.37.02c.36.47-.58.23 0 0zm-54.8.06c.95 2.77 2.21 13.79 1.32 5.72-.83-3.23-.81-6.4.45-1.28 1.53 4.8 2.07 10.85 1.14 15.51-1.53-5.86-1.38-11.7-2.42-16.32q-.26-1.81-.5-3.63zm61.59.35c.6.54-.77.6 0 0zm2.35.1c-1.14.07 1 .1 0 0zm-8.74.05c1.89-.42-.28 3.7 0 0zm1.46.07c.37 1.2-1.37.85 0 0zm4.12.01c.38.06-.3.13 0 0zm-40.76.04v.4zm44.74.1c2.19.27-.57.21 0 0zm-10.35.02c2.57 3.67.6 5.1 0 0zm4.07.02c-.55.8.74.34 0 0zm1.63.12c-.27-.22-2.24 2.75 0 0zm5.66.1c.5.07-.44.13 0 0zm-61.62.05a33 33 0 0 1 .6 18.13c.52 5.28 1.25-7.15 2.28-9.1 1.88-7.95 1.93 5.2.74 7.51-1.95 3.41-1.99 8-2.76 7.57-.26-1.86-.35 4.4.98-1.05.69-1.31 2.64-12.34 5.48-10.58 1.14 4.47-3.99 8.69-3.95 11.68-1.41.66 6.76-13.26 5.55-4.54-1.75 1.85-7.47 9.95-2.74 3.71 1.22-2.9 5.36-3.86 3.95-1.04 1.62 2.3-4.52 3.13.9 2.59 1.51 1.68-.37 3.42 1.94 3.47-1.69 1.12.92 1.4-1.85 1.8 2.2 1.28-3.2.18.1 1.67-1.6 2.6-.72 3.63-3.49 3.22-1.8-3.97 1.1 2.21-3.5.64.24-2.4-2.96 1.96-.77-1.8-.51-3.69-1.44-1.76-1.77-4.2 1.37-1.18-1.42-1.1-1.47-1.35-1.17 1.02.48-3.86-1.03-1.38.5-1.03-.11-7.84-.17-3.57-.22-.8-.87-6.53-.03-2.68.94-5.3.33-11.89.83-17.7zm1.92 28.74c2.4-1.18-.08-.96 0 0zm33.42-28.68.3.36zm6.27 0c.24.37-.4.28 0 0zm20.52.02c.5.1-.51.1 0 0zm-3.42.02c2.41 1.7 7.22 1.64 1.23.26zm3.91.11c.3.15-.4.05 0 0zm-9.65.07c.18.4-.87-.09 0 0zm5.72.07c-.75.1.78.08 0 0zm-34.6.2c.41 1.47-1.05.4 0 0zm36.22.06c.45.09-.45.1 0 0zm-4.53.12c.15.77 1.56.39 0 0zm5.03.02c.5.1-.5.1 0 0zm.5.13c.3.15-.4.04 0 0zm-39.4.11-.18 1.12zm39.8.02c.3.15-.39.05 0 0zm-4.55.13c.3.15-.39.05 0 0zm4.96 0c.3.21-.46.02 0 0zm19.99.14c-.52.14.59.13 0 0zm-19.61 0c.37.06-.31.13 0 0zm-3.2 0c.5.1-.51.1 0 0zm-2.93.11c-.27.58.85.72 0 0zm6.66.02c.3.21-.46.02 0 0zm-7.68.13c.26.6.62-.04 0 0zm4.04.27c-.46.06.47.23 0 0zm-6.02 0c.71.4-.74.4 0 0zm-1 .16-.23.61zm7.51.02 1.05.44zm-3.61.16c-.31.45.39.57 0 0zm2.8.04c.22 1.75.52.07 0 0zm-4.17.17c-1 .09.26.72 0 0zm-60.56.01c3.67 4.87 2.9 12.86 3.61 18.62-1.23.28-.53-7.97-2-11.93-1.3-7.8 1.21 9.43-.19 1.39-.45-2.7-1.02-5.37-1.42-8.08zm64.11.24c.38.06-.3.13 0 0zm-2.7.11c-.77.48.8.48 0 0zm7.38.02c-.46.06.47.23 0 0zm13.07.11c4.5-1-2.11.74 0 0zm-19 .04c-1.36.92 1.36.7 0 0zm-4.92.02c.97 2.3-.63.98 0 0zm18.64.21c.74.08-.79.37 0 0zm-6.78.02c-.46.06.47.23 0 0zm22.62 0c-.53.04.43.14 0 0zm-18.34.11c.07.95-1.2.19 0 0zm-10.39.11c1.99.56 1.99 1.94 0 0zm17.74.04c-.45 0 .2.2 0 0zm4.55 0c.5.1-.5.1 0 0zm-6.97.13c.96.1-.97.1 0 0zm4.03 0c-.46.02.31.22 0 0zm-25.96.06c.66 1.16-.81 2.05 0 0zm15.78.06c.82.2-.3.3 0 0zm-10.23 0c2.17.9-2.44.27 1.2 2.03 2.47 1.79-2.39-1.22.73-.85-.45-.64-1.14-1.2-1.93-1.18zm4.3 0 .3.24zm17.02.02c-.46.06.47.23 0 0zm3.65 0c.75.1-.77.08 0 0zm-15.24.12c.87.24-.4.24 0 0zm5.93.01c-.46.07.48.23 0 0zm-8.92 0c.38.06-.31.13 0 0zm13.5.06c-2.32.25 2.33-.08-.9.4 2.5-.1 4.5-.37.9-.4zm-6.4.07c.3.15-.4.05 0 0zm-7.05.12c-.24.44-1.4.01 0 0zm-.9.28-.2.21zm-1.02.12c.12.52-1.05.58 0 0zm-5.22 0c-.95.2 0 .43 0 0zm6.93.01c-.62 1.23-2.25.43 0 0zm5.35 0c-.5.1.5.1 0 0zm-16.37.1c-.66 1.53-1.47 1.6 0 0zm4.74.04c.3.2-.46.01 0 0zm3.83.11-.36.51zm14.27.02c-1.39.09 1.43.07 0 0zm3.14 0c-.45.09.44.09 0 0zm-4.86.13c-1.17.1 1.21.08 0 0zm5.45 0c-.45 0 .21.2 0 0zm-16.9 0c.37.06-.32.14 0 0zm-3.23.12c-.94.58.72.43 0 0zm-55.14.04.03.32zm68.55.01c2.67.53 4.08.25 0 0zm-21.22.08c.41.32-.41.32 0 0zm1.65.04-.48.36zm27.4.11c-2.51.2 3.26-.02 0 0zm-3.64.13c-1.77.08 1.68.08 0 0zm1.62 0c-1.77.08 1.63.09 0 0zm-24.26.13c.28.3 6 1.05 2.03 2.25-1.4-2.08-7.96-.74-2.03-2.25zm.94 0c2.12.07-.04.87 0 0zm-59.63.03.12.68zm56.94 0c.07.6-.9.12 0 0zm5.5.22c-.25.37.4.28 0 0zm5.45.02c-.45 0 .2.2 0 0zm5.38.12c-.54.2.22.44 0 0zm4.39 0c-.4.27.24.37 0 0zm3.66.03c2.71 0 .6 0 0 0zm3.35.11c-1.97.08 1.84.09 0 0zm-27.1 0c-.67.07.54.14 0 0zm3.29.12c-.5.96 1.15.45 0 0zm30.09.02c-.96.1.96.09 0 0zm-3.84.02c-2.75.16 5 .17 0 0zm-24.52.01c-.73.41.58.63 0 0zm-2.18.12c-.75.5.88.71 0 0zm-.91.12c-.66.06.53.12 0 0zm21.34.13c-.45.09.45.09 0 0zm-22.76.13c.31.21-.46.02 0 0zm10.5.03c.65 1.9 2.72-.36 0 0zm12.99 0c-2.07.57 6.64.52.74.03zm-24.05.09c.8.35-.66.14 0 0zm24.23.01c.96.1-.98.1 0 0zm-4.46 0c-.45 0 .2.21 0 0zm-20.77.05c.39.73-1.02.18 0 0zm1.48.07c.24.37-.4.28 0 0zm6.78 0c-1.44.82-.08.57 0 0zm-2.17 0 .2.24zm6.23.05c2.02-.01-.43.51 0 0zm-10.05.1c.5.12-.73.05 0 0zm-2.88.03.18.34zm1.33.1c.23 1-1.76-.06 0 0zm2.27 0c.5.1-.51.1 0 0zm-54.95.1v.48zm82.14.04c.75.1-.75.1 0 0zm-12.23 0c-.45.08.45.08 0 0zm-16.41 0c1.96-.4-.69.62 0 0zm18.7.13c-.52.15.59.14 0 0zm5.66 0c-.52.15.59.14 0 0zm5.38 0c.51.13-.72.05 0 0zm-13.98.03c.69.68 1.07.1 0 0zm-19.13 0c-.07.8-1.8.21 0 0zm-2.3.03c1.41.57-.71 3.55 2.11 3.4-2.8.07-3.95-1.2-2.08-2.74-1.3-.43-1.22 2.72-2.61 1.94-5.79 5.2-.64-3.28 2.59-2.6zm7.2.07c.33.37-1.35.4 0 0zm-1 0c.79.12-.95.07 0 0zm24.68 0c-.75.1.76.09 0 0zm-3.2 0c-.95 1.09 6.01 1.59.84.43l-1.05-.22.32-.16zm-17.5.02-.56.32zm10.76.01c.37.65 2.38.56 0 0zm8.79.02c-.11.48.61-.04 0 0zm-24.49.01-.78.35zm26.54.08c-.47.02.3.21 0 0zm-13.6.05.83.59zm-10.5 0c2.25-.03-.79.45 0 0zm10 0c1.35 1.35 1.37.63 0 0zm2.52.13c.78 1.48 2.73-.13 0 0zm3.7.08c-.47.07.46.23 0 0zm-14.58.03c-.25 1-1.6-.1 0 0zm-6.7.03c1.12.1-.7.31 0 0zm4.24.06c-1.09 1.22-1.11-.11 0 0zm-1.6.02c-.3.65-1 .08 0 0zm-3.97.02c.8.2.02.92 0 0zm22.17.1c-.52.16.59.14 0 0zm-21.5.12c.4.28-.24.37 0 0zm2.45 0c.62.98-1.98.37 0 0zm31.62.02c-.5.1.5.1 0 0zm-16.84 0c1.23 1.14 2.66.22 0 0zm-16.38.01c-.04.52-1.27-.1 0 0zm22.96.02c3.42 1.92-.35.1 1.19.16zm-18.12.05c.8.85-1.41.79 0 0zm-10.75.04-.29.35zm43.7 0c.87.2-.18.36 0 0zm-3.36.01c-.96.1.97.09 0 0zm-30.17.05c.55.2-.46.29 0 0zm-5.76.07c.55.26-.43.5 0 0zm17.27 0c-.23.53.38.44 0 0zm3.04.01c.95.7 2.15-.04 0 0zm-23.3.02c-.65.39.8.5 0 0zm28.9.01c1.42.64 1.88.25 0 0zm-75.15.03v.81zm49.74.06c.25.37-.4.29 0 0zm.67 0c.22.45-.54.2 0 0zm14.59.06.22.32zm-19.67.08c-1.94 1.46-2.88 3.28 0 0zm9.28.04c1.59.73-2.43.9 0 0zm23.76.1c-.53.15.59.14 0 0zm-1.49 0c-.5.1.51.1 0 0zm1 .14c-.45.06.47.23 0 0zm2.54 0c-.75.1.78.08 0 0zm-28.44.05c-.12 1.39-2.16.67 0 0zm13.23.06c-.4.3.25.37 0 0zm16.62.02c.8.12-.95.07 0 0zm-3.54 0c-.45 0 .2.2 0 0zm-27.59.01c.86.1-2.49.36 0 0zm1.66.02c.53.1-.28.42 0 0zm20.56 0c2.88 1.48 3.92.78 0 0zm-23.26.1c.1.84-.5.6 0 0zm10.24.13c.26.6.61-.03 0 0zm23.32 0c.38.07-.31.14 0 0zm-29.48.01c.24.62-.56.3 0 0zm-1.27.11c.41.32-.41.33 0 0zm2.55.07c-.58 1.62-.8.04 0 0zm25.67.08c-.52.15.6.14 0 0zm.53.14c-.46.06.47.23 0 0zm-3.84.13c.3.21-.46.02 0 0zm-24.67.03c.6 1.1-.99.13 0 0zm-1.99.05c1.07.04-.25.88 0 0zm10.2.07.4.3zm6.1.03.4.55zm-15.08.08c-.09.65-.87-.1 0 0zm8.31 0c-.37.3 1.5.21 0 0zm-60.47.03.03.32zm7.48 0 .02.33zm-13.04 0c.89 1.88.5 3.21 0 0zm50.67.23-.29.23zm39.26.01c-.46.07.47.23 0 0zm-5.4.01c1.99.19-.34.28 0 0zm-19.37.02.66.23zm9.31.04.56.7zm-2.12.18.18.26zm-14.92 0c.56.23-.4.4 0 0zm15.69.33c1.42 2.21.83-.05 0 0zm-72.19 0c1.24 2 3.41 12.03 1.12 6.28-.19-2.1-1.3-4.16-1.12-6.28zm85.74.08c.38.06-.3.14 0 0zm-16.95.12.28.4zm1.78 0c1.12 1.76.78.67 0 0zm-19.94.05.03.31zm3.79 0c3.45-.4-.6 1.01 0 0zm17.64 0c.15.88.71.49 0 0zm-19.44.1c-.45.08.45.09 0 0zm16.9.05c1.1 1.86 1.5 1.37 0 0zm-12.65.08c2.23.2-2.02.72 0 0zm-.76.04c-.14.74-1.07-.04 0 0zm-51.57.06v.56zm77.14.02c.95.21 0 .43 0 0zm-11.6 0 .6.66zm-17.8.04-.44.44zm15.97.02c-.1.48.62-.04 0 0zm-18.15.07c-.54.2.22.44 0 0zm-47 .05c.03 2.83.34 1.81 0 0zm4.12.08c.4.28-.24.37 0 0zm61.54.06c-.1.48.61-.03 0 0zm-11.93.29c-.12.87-1.5-.54 0 0zm14.28.05c-.23.44.54.2 0 0zm-16.73.02c2.7.22-1.16.59 0 0zm-6.76.03c.1 1.06-1.8 1.5 0 0zm19.52.01c-.1.48.62-.04 0 0zm-.7.02c2.04 2.85 2.66 2.36 0 0zm-62.52.02c.1 2.48.46.51 0 0zm51.64.03c.55 1.21-1.6.6 0 0zm3.48 0 .24.21zm-55.27.05c-1.29 2.29.14.75 0 0zm65.98.02c.42.9.99.61 0 0zm1.93.08c.2.6.75.15 0 0zm-38.72.11c.38 4.7-5.2 12.78-6.43 12.87 4.16-3.84-6.99 5.62-1.15-.18-3.98 2.5 6.7-6.23 7.1-11.35zm23.85.01c.73.21-.57.42 0 0zm.82 0c1.8-.12-.38.74 0 0zm-1.37.02c.46.13-.5.07 0 0zm-8.08.05c-.49.72.23.44 0 0zm19.95.06c.17 1.84 1.54 1.22 0 0zm-14.43 0 .2.25zm.57.07c.61.07-.36.3 0 0zm28.22.07c.05.47.67.05 0 0zm-80.98.06-.03.36zm55.64.03c1.78 1.04-.46.53 0 0zm11.12.04c.53.16-.2.48 0 0zm-61.31.05.02.31zm72.9.1 1.1.74zm-26.74 0c-.47.06.46.23 0 0zm-15.4.06c-1.69 4.78-3.58 9.04-9.16 12.77 3.34-1.8 10.2-6.63 10.98-6.67-1.08 3.24-7.05 7.26-6.54 7.06-9.46 4.7 11.45-5.94 4.2.85-1.94 1.6-9.78 3.25-3.3 2.01 2.97-2.26 4.33 1.3.4 2.42-3.64.83-8.8.92-3.33.8 2.49-1.34 6.65 1.39 1.48 2.47-3.9 1.13-10.6-1.7-7.46-2-3.19.76-.25-1.48-2.36-.05-.35.76-2.57 1.34.67.5.56 2.18 3.79.92 3.64 1.78 1.9.17 3.5.41.52-.14 3.89-.5 6.73 1.27 5.01 3.6.37 1.12-2.53.96-1.38 3.43-2.95-.06-4.63-1.96-1.46.86-.4 1.62-3.23 4.61-6.1 2.44.25 1.57 1.21 1.9 3.12 4.23.22 1.37 6.84 2.62 8.87 3.88 7.06 1.65-.68 1.14-3.57-.86 2.2 1.96 7.65 2.56 7.66 5.31-2.67-.7-12.16-6.58-5.41-2.16 2.55 1.34 9.6 6.09 3.38 4.23-2.61-1.76-7.12-6.1-1.77-2.3 5.95 3.1-8.16-5.57-1.18.26 2.53 1.17 5.47 6.02.74 2.6-2.9-1.93-5.3-5.52-.58-1.53-1.22-2.11-4.83-4.92-1.3-1.14-2.66-1.96-4.92-2.3-1.21.36 3.23 2.7 2.33 4.3-.57 1.05-2.3-2.26-1.83-2.36-1.08-2-4.42-4.3 1.67 3.54 1.55 2.92-1.5 0-5.33-3.5-7.6-5.89-1.56 4.15-.1 3.2-1.85.86-3.58 2.18 1.82 8.47-.85 7.48-1.5-3.72-.42-7.69-4.27-9.43 2.59.29 5.87 2.89 2.56.29-1.33-2.1.98.08-1.2-3.27-1.37 1.19 2.04 3.9-2.2 2.79-4.74-1.85-9.05-3.98-13.45-2.78 1.57-4.43-3.33 4.12-2.04-1.41-.88-1.56 1.56-5.67 2.94-6.8-1.92 3.09 3.88-1.94 2.11 2.28 1.72-.27-1.7-.3-2 2.04 2.2-1.2 2.03-4.23 3.84-5.57.9-.68 3.95.88 4.73-.31-1.92 3.45 4.16-5.08.21-.17 2.12-3.49 5.12-11.24 6.91-12.21-1.72 3.62 3.62-2.5.83 1.57.65-3.21 6.56-1.25 4.16-1.5 1.68-4.53 9.18-7.63 11.6-13.13.37-.6.65-1.28 1.1-1.82zm32.7.06.26.4zm13.83.01c-.47.01.25.2 0 0zm-81.85.12c-1.26.83.37.73 0 0zm73.99 0c-1.1-.42.68 1.25 0 0zm7.41.01c.1.48.7 0 0 0zm-82.2.03.03.32zm47.84.17-.78.45zm29.98.1.29.21zm-23.83.02c1.98 0-.17.92 0 0zm-9.04.07-.3.35zm6.9 0c-1.73.58 1.97.08 0 0zm-51.74.17.12 1.08-.13-1.08zm1.1 0 .03.32zm53.8.1c.25.36-.4.28 0 0zm3.8 0c.14 1.02 1.17.7 0 0zm-53.96.04.02.32zm42.59 0c-.16 1.6-5.37 5.42-2.47 1.94-2.5 3.23.56-.02 1.62-1.25zm-1.12.09-.61.5zm11 .04.18.43zm-2 0c.52.12-.3.4 0 0zm-3.57.02c-.22 1.43 2.67-.46 0 0zm-6.86 0c1.9-.38-1.1 2.95 0 0zm30.63.12c1.16.98 1.22.39 0 0zm-16.83.04c-.83.26.46.53 0 0zm8.47.1c-.82.38.88.65 0 0zm5.46 0c1.46 1.82.96 1.64 0 0zm-28.1.08c-.3 1.89-1.7 1.75 0 0zM19 138c.1 2.81-.1 4.79 0 0zm1.89 0 .03.32zm49.43.24c-.04 1 1.1-.05 0 0zm-52.87.02.03.32zm51.68.1-.28.23zm6.37 0c.4.61 1.02.22 0 0zm7.7.06c-.12 1.59 2.66 1.02 0 0zm-21.3.06-.27.4zm-38.12 0c-.85 2.68-.59 1.1 0 0zm46.1.02c-.46.07.46.24 0 0zm-53.45.17c.73 2.8.47 3.88 0 0zm58.66.2c-.56.29.56.14 0 0zm.66.15c-.45.09.45.09 0 0zm-14.75.07c-.81 3.14-1.59.28 0 0zm-43.43.02v.49zm24.54.03c1.08 3.21-6.01 14.01-2.12 5.87.8-1.92 1.44-3.9 2.12-5.87zm31.76.01c-1.86.13 2.37 0 0 0zm-3.21.05c-1.05-.15.6.83 0 0zm4.94.05.62.53zm-2.76.1c-1.2 1.78 1.2.3 0 0zm-11.85.32-.3.36zm12.29.14c.88 1.7 2.35.61 0 0zm2.2.31c-1.14.66.81 1.26 0 0zm-57.82 0v.41zm8.96.21-.43.69zm-6.13.06v.4zm39.03.05v.57zm-38.83.07.03.32zm28.97.22c-1.32 1.37-.92 1.6 0 0zm-31.9.1v.5zm67.7.16.3.36zm-65.08.18.02.33zm39.24.13.1.35zm-42.15.1c-.4.28.25.36 0 0zm68.9.41c1.09.34.77 2.03 0 0zm-66.09.16.03.32zm.2 0 .03.32zm-.97.09c.55 2.47.26 1.27 0 0zm-2.46.04.03.32zm2.85 0c-.2 1.39.42.63 0 0zm5.5.09-.17.26zm-9.52 0 .17.51zm.2.72c1.25 2.33-.51.5 0 0zm8.8.08-.35.51zm62.02.05c2.7 1.51 1.25 2.18 0 0zm.33.22.33.38zm-68.24.03-.13.59zm60.74.02.26.34zm-.29 0c-1.47-.04-.4.87 0 0zm-32.2.07-.2.23zm-30.16.54c1.1 3.27 1.97 1.97 1.23 6.41-2.02-3.36.7-1.36-1.01-4.3-.34-.68-.25-1.41-.22-2.11zm4.16.01c-.57.13.94.53 0 0zm25.53.1-1.04 1.04zm-19.05.2-.65.63zm-5.12 0-.1.34zm-2.67.08c-1.66 4.73 1.4 4.53 0 0zm59.2.06v.4zm-4.68.1.39.32zm14.15.12c1.76.58-.35.86 0 0zm-64.28.06c-1.09 1.15-.64 1.8 0 0zm54.62.23c-.57 2.2 2.63 4.41 0 0zm-56.7.26c-.53.6.28.79 0 0zm23.23 0c-.85 1.18-1.84 1.03 0 0zm-18.73.03c.16.47-.62-.02 0 0zm-6.9 0c.4 2.33-.7 1.87 0 0zm59.78.36c-.22.48.57.29 0 0zm5.03.28c1.06 1.13.01 1.1 0 0zm-66.29 0 .03.32zm110.42.1c-4.03 4.84-9.63 6.83-15.15 8.63-5.96.7-10.04 5.16-14.45 8.92-5.58 2.81-11.7 4.3-16.75 8.38-5.77 2.7-8.14 8.47-11.88 12.2-2.53 1.05-5.75 4.34-.74 2.08 4.98-2.51-7.04 5.85-.29 2.85 2.12-.64 4.61-4.82 1.96-.55-3.81 6.1 2.14.56 3.26-.74-2.03 5.15.81 2 2.59-.06 2.3.76 7.8-6.58 11.48-8.69 4.54-2.88 13.57.92 12.33 7.56-2.86 5.48 4.44 5.84 1.72.21-1.38-2.61 1.46-10.66 2.09-3.72-1.9 2.72 1.07 9.87 1.25 6.37 4.33 1.67-3.3-10.52 2.25-5.66 5.08 1.88 8.53-.49 12.9-1.13-.44-2.03 3.04-2.47-.72-3.79 2.04-2.32-6.94-2.15-8.48-4.77-2.45-1.77-7.46-3.9-1.85-4.56 5.06-4.21 10.37-8.22 15.74-11.11 2.01.74 5.1-1.9 1.14-1.48 2.68.83 6.88-2.66 1.9-1.8 2.48.17 8.21-4.2 2.46-2.27-6.07 1.84 9.7-6 .74-2.55-2.64 1.14-7.87 3.12-2.83.24 2.48-1.6 4.98-6.29.7-2.2-2.19 1.8-8.02 4.77-3.05.75.72-.9 1.55-1.87 1.68-3.12zm-51.82.01c.16.54.76-.1 0 0zm3.66.15c-.74.35.7.99 0 0zm3.82.12c-.46.06.46.23 0 0zm-42.58.15c-2.39 1.52-2.17 3.37 0 0zm-19.65.11c-1.54 1.56-.9 3.51 0 0zm3.22.26-.2.22zm-9.05.13.18.56zm.68.04.1.35zm5.53.01c-2.66 2.96.31 1.95 0 0zm-3.86.01c.07 2.14-.63 3.13 0 0zm73.46.12c2.75.29 3.02 1.93 0 0zm-67.44.1-.58.62zm-4.87.16.03.31zm-.51.1c-.63.8.82.3 0 0zm4.24.01c-.22.48.57.29 0 0zm104.06.08c-1.35 2.54-8.17 6.66-1.63 3.77 2-1.2 7.38-4.54 2.93-.93-3.4 1.34-5.38 3.57-.54 1.85 2.45-.96 6.34-2.08 1.97.03-4.6 1.52-4.98 2.3.1 1.17 5.62.04-9.72 2.64-2.21 2 7.08-.03-3.2 1.03-2.43 1.56 7.2 1.27-6.03.39-.55 1.89-3.46 1.32-6.08 2.07-7.9 4.79-3.87 1.28-6.76 7.31-11.84 6.4 1.44 2.96 7.55 6 11.15 7.67-.05-1.49 5.95 1.13 1.56.58 3.77.55 3.93 4.09-.16 1.34-3.3-1.88 6.01 4.01.1 2.24-2.44-1.23-7.73-5-2.28-1.32 4.48 4.31-1.64 1.79-2.74-.4-2.88-1.53 5.8 5.03.95 3.85-2.73-1.62-3.94-4.8-1.75-.58-1.72-1.38-4.25-5.65-1.6-1.35.38-.27 2.14 4.04-1.28.77-1.42-1.58-3.2-4.12-.77-.73 1.52 1.85-1.58 1.22-1.79-1.54-.5 4.96-6.22-7.5-4.42-.06.8 3.15-1.75 7.24-1.22 1.8-3.72-4.73-11.33-7-15.49-1.74-2.9 2.65-8.53 8.22-9.1 6.97-3.65 5.76-1.17-1.5-1.13-3.06-.5 3.46-8.04 10.1-3.2 3.18 1.85-3 2.22-5.02-.35-1.16-1.58 2.25-6.05 3.87-1.9 1.05 1.83-2.35 4.63-6.05.2-2.13-3.09 1.68 5.7-5.46 4.37-4.83 1.3-3.35.08.27 2.61-3.33 3.26-4.63 7.62-2.7 10.55-6.64-3.55 5 3.07-.32.33.81 4.53-5.18-5.62 2.75-.92-1.77 1.42-.85 6.11-2.66 3.38-.2.99 3.02 3.83-4.21 1.33 1.85-.1 5.53 7.4-1.71 2.64 1.32-3.36 1.47 2.84-4.84-.44-1.97-.82-1.6 6.91-6.06 9.19-9.63 4.06-2.74 8.83-4.6 13.62-6.47 1.31-.26 7.68-2.44 2.95-1.22a47 47 0 0 0 7.7-5.83zm-57.51 40.03c.5.5.74-1.35 0 0zm-53.36-39.98c.9 1.22-.2.9 0 0zm24.16.02-.39.33zm12.9.1c.56.14-.56.28 0 0zm-24.9.05c.16.48-.62-.01 0 0zm60.7.02c.53 1.62.8.4 0 0zm-66.23.1.1.35zm21.64.23-.46.34zm38.66.14c-.46.07.46.24 0 0zm3.88.06c.16.85.84.63 0 0zm-.74.06.4.39zm-66.32.13-.27.4zm.44.16c-.35.7.58.34 0 0zm60.67.02c.17.63 1.63.4 0 0zm8.7.02.8 1.08zm.56.24.9.74zm-55.93.08c.1.86-1.11 2.01 0 0zm52.13.01c-.31.35.64.46 0 0zm1.67.14.3.36zm-68.14 0c-1.96 2.15 1.01.4 0 0zm17.92 0c-1.6 2.15-3.07 2.29 0 0zm-21.51.04c.53.1-.28.42 0 0zm4.54.09c-.23.5.38.46 0 0zm1.96.07-.4.72zm14.08.06-.3.36zm-12.98 0c-.7.13.38.5 0 0zm18.29 0-.29.24zm-17.34.22c-1 .4.11 1.2 0 0zm60.82.05.55.52zm7.12.03.4.31zm-51.08 0-.5.39zm-20.6.1c-.4.28.24.37 0 0zm24.92 0c-1.16.22.56.36 0 0zm-9.7.01c-.07.64-.67.52 0 0zm-17.41.04.02.31zm4.73.12c-2.1.09-1.85 1.2 0 0zm13.63.1-.2.22zm-6.57.13-.3.36zm-6.4.04c-1.6.3-.07 1.1 0 0zm61.9.1.28.4zm-54.62.01c.37.06-.31.13 0 0zm4.04 0c-1.56 2.37-.87.97 0 0zm96.6.01c.47.2-.09.57 0 0zm-95.44.18c.32.46-.27.31 0 0zm-6.8.08c-.44 0 .21.2 0 0zM19 150.6c-.8 2.74-1.65.18 0 0zm6.43 0 .32.58zm68.94 0c.47.82 1.13.29 0 0zm33.06.14c-.69-.02.16.44 0 0zm-35.16.06.76.82zm-67.31.02c-1.58.16 1.32.26 0 0zm19.94.01c.3.21-.46.02 0 0zm44.74.12c.23.8 1.32.8 0 0zm-8.23.02c-.86 2.12-1.81 1.72 0 0zm-59.95.12-.18.23zm59.24.13c.33.43-.87.28 0 0zm-3.5.01-.94.62zm12.35.09c.57 1.64.53.17 0 0zm-64.09.02c.74 3.12 3.28.19-.28.67l-.08-.16zm12.87 0-.29.37zm-2.42 0-.3.36zm59.8.01.45.38zm-72 .02c-.62.64.84.28 0 0zm63.34.09c1.48 2.06.68 1.75 0 0zm5.21.1c1.55 1.8 3.48 4.65 1.5 1.53l-.8-.77zm-74.45.05c.4.27-.24.37 0 0zm63.17 0-.46.64zm-40.77 0c-1.2 1.37.46.95 0 0zm-13.84.02c-.52.15.59.14 0 0zm16.21 0c-1.4.2-.32.57 0 0zm-25.44.01c.76.58.19.94 0 0zm70.86.1c.96 2.22 1.47 1.52 0 0zm-64.88 0c-.15 1.94 1.65.06 0 0zm13.86.04c-1.88 1.75-.8 1.46 0 0zm12.78.12c.5.07-.45.12 0 0zm-31.33 0c.56 2.26-.84 1.86 0 0zm16.47.1-.3.36zm3.62.1c-3.94 2.99 2.51-.2-1.62 1.57.5-.58 1.08-1.05 1.62-1.58zm3.5.06c-1.92.48-1.52.94 0 0zm-20.27.01c-.85.87 1.33.83 0 0zm-4 .15.1.35zm7.32.05c-.72 1.3 1.36.87 0 0zm-6.38.09c.3.54-.33.6 0 0zm4.28.08c-.75.41.6.55 0 0zm24.67.02c.44.09-.45.08 0 0zm31.95.06c.23 1.14-1.02.37 0 0zm-58.79.02c-.13.83-1.02.34 0 0zm26.4.05c.37.06-.31.13 0 0zm45.63 0 .9.9zm-73.11.13c-.57 1.24.9 5.16-.88 1.53-.7-.88.5-1.1.88-1.53zm20.5 0c-.52.15.6.14 0 0zm6.5 0c.5.15-.71.04 0 0zm86.55.03c.66.34-.87.19 0 0zm-9.13.04c-1.38.04.92.62 0 0zm-103.27.05c.15 3.15-2.15 1.34 0 0zm.79 0c-.4.27.24.37 0 0zm2.47 0c.08.47.57.05 0 0zm51 .03c-.06 1.58-.7.73 0 0zm14.42.04c1.38 1.68 1.97 3.1 0 0zm-52.88.02c-1.36 1-1.16 1.6 0 0zm-19.1.04.34.39zm115.22 0c.72.3-.43.18 0 0zm-13.28.02c.3.21-.46.02 0 0zm-92.02.05c-.66.5.4.35 0 0zm52.26 0c.48.42-.62.7 0 0zm-52.62.07c-.54.2.22.44 0 0zm90.73.01-.3.49zm-73.26 0c-.5.1.51.1 0 0zm-25.74.03.1.35zm76.02 0c.88.36.68.9 0 0zm-15.93 0c.37.55-.37.82 0 0zm-54.84.04c.05.4.7-.12 0 0zm56.19.05c1.47.22-.73 1.42 0 0zm-56.74.01c-.76.3-.12.55 0 0zm15.47.04c-1.9.57-1.91 1.69 0 0zm85.44.1c-.45.08.45.08 0 0zm-89.65.12c-2.64 1.32-2.36 2.94-.26.14.26 1.37.48.77.26-.14zm89.25 0c-1.34.33-1.96.77 0 0zm6.76 0c-.46.07.46.24 0 0zm-91.02.03c-.55.2-.05.6 0 0zm35.37 0c-.07 1.7-1.14 1.58 0 0zm6.36 0 .1.49zm9.56.08c1.43 2.04.85.4 0 0zm-66.38.01c.03.64.77.52 0 0zm14.66.01c-2.78 0-2.94 1.87-5.22 2.7 2.36-3.55-4.75 3.3.43.68 1.32-1.96 2.8-2.27 4.8-3.38zm-12.88.01c-.46.06.46.23 0 0zm9.86.13c-.78.11-.16.64 0 0zm-8.84 0c-.75.1.75.1 0 0zm94.7 0c-.43.1.34.12 0 0zm-91.38.14c1 .1-1.15.07 0 0zm90.9 0c-.5.1.5.1 0 0zm-97.11.02.1.36zm7.9.06-.65.67zm8.74.05c-.45.09.44.09 0 0zm80.97 0c-.47.07.46.23 0 0zm-1 0c-.45.09.44.09 0 0zm-42.73.03.1.35zm-50.42.1c-.52.04.42.16 0 0zm92.64 0c-.45.1.45.1 0 0zm-79.97.02c-2.17.25.55.21 0 0zm-6.54.02c-1.01.53.47 2.38 0 0zm-8.41 0c-1.8 1.56 5.66 1.25.68.22zm53.31.14c.34 1.25-.92 1.72 0 0zm-3.6 0c.18 1.56-1.34 2.43 0 0zm-35.89.07c-.87.25.4.25 0 0zm-3.22 0c1.52.39-.43.29 0 0zm2.62.02c-4.49 1.03 2.9 1.85-1.34.76.16-.18.41.21 1.34-.76zm76.06.03-1.2.66zm-35.35 0-.12.33zm-56.16.09c-.4.27.24.37 0 0zm-1.85.01c-.5 3.05.52 4.46.02 6.6.23-1.8-2.37-6.04-.3-3.64-.02-1-1.1-2.4.28-2.96zm6.26.13c.12.56.89-.03 0 0zm94.73 0c-.53.16.59.14 0 0zm-100.7.12c.24.36-.41.3 0 0zm4.23 0c.58.32-.57.32 0 0zm87.6.02c.29.15-.4.05 0 0zm-74.54.13c-.53.04.43.15 0 0zm38.92.04c.5.29-.38.54 0 0zm-47.16.08-.28.67zm95.71.01c1 .11-1.16.07 0 0zm-102.3.02c-.68.58.53.62 0 0zm50.1.02c.05.68-.63.23 0 0zm21.13.02c.17.83.8.61 0 0zm-56.55.06c-.6.46.32.45 0 0zm73.7.01-.19.22zm-92.28.04c.77 1.52-1.03 1.05 0 0zm11.67.03-.51 1.02zm15.58.07c.5.13-.72.05 0 0zm70.92.13c-.7.12-.01.4 0 0zm-40.53.02c.01 1.44-.78 1.05 0 0zm-48.95.03c-2.31-1.2.62 1.63 0 0zm82.66.01c1.2.14-1.21.6 0 0zm-84.47.08c-.9.12.21.75 0 0zm5.92.11c-.36.42.22.5 0 0zm85.83.01c-2.15.21 1.23.15 0 0zm3.06 0c-4.39.55 1.69.11 0 0zm-10.97.06c-2.53 2.22-3.08.6 0 0zm-69.04.1c1.96.26 1.93-.26 0 0zm-17.28.1c-.45.5.3.48 0 0zm84.8.04-.36.32zm-86.7.24c0 1.19-.91-.06 0 0zm88.34 0c.5.12-.73.05 0 0zm-80.26.11c-.35.34.43.5 0 0zm91.36.04c1.64-.04.33 0 0 0zm-6.06.04.34.44zm-88.27.06c-.45.79.9.49 0 0zm-6.1.05-.03.24zm.3.03c-.05 1.62-.74.7 0 0zm56.88.03c.3.65-.45 1.2 0 0zm-.75.02c.12 1.65-.62 1.29 0 0zm-50.81.02c-.68.04.48.15 0 0zm95.07.01c2.15.26 2.1-.24 0 0zm-99.2.14c-1.78.03.44 1.55 0 0zm5.52.11c.38.06-.3.13 0 0zm.4 0c.38.06-.3.13 0 0zm5.1.14c-.75.1.75.09 0 0zm73.68.07c-1 1.04-1.73.24 0 0zm-1.26.08c-.22.8-1.9.65 0 0zm-85.23.14.01.32zm4.37.15c-1.52-.31-.85 1.03 0 0zm95.61.02c.82.48 2.64-.16 0 0zm-8.75.03.34.44zm3.78 0 .34.44zm6.86.02c-.41.4.56.23 0 0zm-86.82.01c-.24.3.9.25 0 0zm-12.26.12c-.24.37.4.28 0 0zm81.29 0c.41.32-.41.33 0 0zm-81.98.1c-1.03.45.04.78 0 0zm97.32.07c2.72 0 .6 0 0 0zm-15.06.04-.27.48zm-72.66.07c-.18 1.05 1.13.3 0 0zm-10.59 0c.33.55-.9 1.22 0 0zm96.92 0c-.45.1.45.1 0 0zm-82.42.07c-1.9.25 1.58.39 0 0zm68.02.05c.4.4-.56.23 0 0zm-73.45.01c-.7 0-.18.52 0 0zm87.33 0c-.7.06.49.16 0 0zm-88.24.07c-1.07-.11.13.59 0 0zm-2.18 0c.31.52-3.17-.04 0 0zm3.84.06c.07.5.67.05 0 0zm-7.53 0c3.49-.8-1.13 4.77 2.48 1.53 1.68-2.94.73 3.3-3.1 1.93-3.75 1.63-1.74-3.69.62-3.46zm4.27 0c.87.2-.18.36 0 0zm84.25.05.34.43zm-8.95.08.29.36zm14.64.01c-1.13.08 1 .1 0 0zm-12.98.06c-.5.66-2.18.8 0 0zm19.36.06c.4.27-.24.37 0 0zm-5.66.02c-.5.07.47.13 0 0zm-75.82.13c-.5.1.5.1 0 0zm1.82 0c-.5.1.5.1 0 0zm-8.5.02-.7.18zm7.44.11c.36.67 1.01.05 0 0zm-5.52 0c-.45 0 .2.21 0 0zm-5.76.02c.13.71 1.2.19 0 0zm70.96.03c1.57.02-1.38 1.44 0 0zm-81.07.07c-.75.54-.74 1.7 0 0zm.46 0c-2.3 1.36-.62 2.35 0 0zm3.21 0c1.35.32-.9.18 0 0zm-2.01.07c-1.9.9-3.05 2.3-.25 1.48 3.45-.96-2.43.6.77-.58-3.66-1.19-1 .52-.52-.9zm11.61.07.78.6zm84.81.07c-.22.49.86-.09 0 0zm-17.57.06c-1.02 2.53-3.67 3.21 0 0zm-81.62.13c.27.47-.44.52 0 0zm81.26.13-.36.54zm-78.98.02c-.03.42-.77 0 0 0zm80.31 0c.3.15-.4.04 0 0zm-71.9.26c-.53.15.58.14 0 0zm77.36.04.34.44zm3.1 0 .34.44zm-89.98.09-.35.36zm10.45 0c-.46.07.47.24 0 0zm74.9.14c-.58.33.51.66 0 0zm-70.18.12c1.83 1.23 2.17.51 0 0zm-2.42.02c.5.99 2.89.85 0 0zm-2.34 0c-1.63.3 1.59 1.5 0 0zm82.32 0 .34.44zm-87.26.01c.05.58-.59.29 0 0zm.97.1c-.42-.01-.58 1.48 0 0zm87.15.03c.75.65 3.14.19 0 0zm-81.14.03c-.11.48.61-.04 0 0zm2.53 0c-.11.48.61-.04 0 0zm-2.14.21.43.36zm-3.63.19c-.1.48.62-.04 0 0zm-4.11.07-.13.17zm-.32 0-.49.69zm-4.37.07c-2.37 1.11 2.1.46 0 0zm82.34.02.34.44zm-74.64.04c-.07.58.6.22 0 0zm6.18.02c-.46.07.47.23 0 0zm3.9.06 1.3.67zm-7.63.07c-.45.09.45.09 0 0zm3.1.06c.26.55 1.35.11 0 0zm1.08.14c1.1 1.56 2.1 1 0 0zm3.45.09c.66.7 2.58.77 0 0zm65.25.25.34.44zm-70.1.02c.15.61 1.68.7 0 0zm-15.07.04c.86.43-.68 1.1 0 0zm21.64.12c.93.85 1.95.47 0 0zm-17.98.02c.8.27-1.07.3 0 0zm21.34.05c.01.56.5.03 0 0zm-8.95 0c.92 2.94 2.57 2.15 0 0zm.62.05c.7 1.04 1.77.64 0 0zm73.66.07.34.44zm1.38 0 .34.44zm-80.78.01-.29.23zm10.41.02c1.36 1.07 1.85.43 0 0zm-18.7.04c3.72.58-1.33 1.34 0 0zm3.18.07-.3.35zm-.67 0c.7.76-1.78-.16 0 0zm-3.4 0c.14 1.88-2.03 1.48-.36.27zm8.01.15c-.45.09.45.09 0 0zm-10.09.05c1.56 1.78-1.95 2.75 0 0zm3.58.07c-.4.27.24.36 0 0zm8.29 0 .43.36zm-1.7.13c-.86.24.4.25 0 0zm3.23 0c.01.58.5.03 0 0zm-2.24.01c.03.43.76.01 0 0zm4.24.16c.3.83 2.02.86 0 0zm71.82.02.34.44zm3.44 0 .34.44zm-76.9.13.32.51zm69.68.24.34.44zm-78.66.03c-.44 2.14-1.01.6 0 0zm8.31.08c.97 1.99-1.67 1.18 1.87 1.94.77-2.9-.52 1.24-1.76-1.8 1.93 1.57 1.44.44-.1-.14zm65.13.43-.35.29zm-78.86.1c.41.25-.89.23 0 0zm89.58.1.34.43zm-72.85.23c-.27 2.11 1.49-.09 0 0zm-.03.06.3.36zm.88 0c.28.82.92.53 0 0zm60.14.2c.68.73-2.15 1.05 0 0zm-78.04.01c-.64 2.66-3.26 1.12 0 0zm13.94.06c.71.01.03.43 0 0zm8.29.01c.26.74.88.3 0 0zm-23.32.06c.3.64-1.05.56 0 0zm83.26.07c-.57.75 1.22.16 0 0zm4.98.03.34.43zm-67.76 0 .96.7zm60.16.05-.54.54zm-79.38.35c.44.33-.17.5 0 0zm12.62 0 .67.62zm64.07.16-.01.32zm15.02.05.66.35zm-74.49.02c1.35 2.33 5.36 3.9 1.27 1.08l-.76-.63zm-1.02 0c.9 3.03 2.64 1.88-.72-.12.3-.03 1.18.73.72.12zm76.98.01c-.5.1.5.1 0 0zm-84.6.13c.43.51 1.04.03 0 0zm67.86 0c.25.67-.91.44 0 0zm-.58.01c-.45.72-1.1-.11 0 0zm1.17.11-.5.67zm-2.79.1c2.2.8-2.68 2.27.55.32-.96 2.2-4.39 1.77-2.3.39-1.12 1.53 2.1-1.04 1.75-.72zm-59.87.06c-.5.23 2.06.24 0 0zm5.93 0 .38.29zm-6.26.07c.47 2.07 1.28.61 0 0zm-.96.1c1.12 1.4 2.73 1.88 0 0zm72.2.07c-.63.15.82.32 0 0zm-9.69.06-.05.43zm-57.71.1c.84.19 1.38 1.94 0 0zm58.16.16c.03 1.01-1.14.37 0 0zm-.78.17c-.46 1-1.79 1.01 0 0zm12.75.04.34.44zm-16.4.08c-.69 1.03-2.2.63 0 0zm5.76.1-.44.43zm-4.7.1-.18.21zm-56.2.2c.16.73 1.67.27 0 0zm58.86.03c-.65 1.06-1 .14 0 0zm-76.46.03c-2.5.55-2.48 3.08-2.12 3.12.96.13.23-.23.34-.77.06-.3.64-.63.66-1.14.02-.77 1.01-.51 1.12-1.21zm84.55 0c.09.44.8.04 0 0zm-86.57.07c-.25.44 1 .13 0 0zm10.7 3.85c2.08-.41-4.37-.68-.37-1.93-2.68-.3-3.87 3.5.37 1.93zm62.55-3.39c1.42.56-.81.31 0 0zm9.66.03.34.44zm-63.48.02c.32.63.96.17 0 0zm-17.2.07c-2.06 1.27-.1.92 0 0zm75.76.06-.12.32zm-5.74.02c.56.65-.97.1 0 0zm15.48.06.3.36zm-12.57.15c.38.06-.3.13 0 0zm-2.19 0c.45.08-.44.08 0 0zm-1.22.14c-2.49 2.1-2.4.93 0 0zm2.67.05c.75.55-1.1 1.17 0 0zm2.37.05c.96.63-.6.65 0 0zm-74.16 0c.39.8-1.8.61 0 0zm69.75.14c-.54.45.72.5 0 0zm-67.86.01c.3.22-.46.02 0 0zm-.8.02c-.43 1 .36.38 0 0zm77.81.31.34.44zm-71.17.07c-.52.04.42.16 0 0zm65.64.2-.04.42zm-3.61.05c-2.2 1.04.03 1.06 0 0zm-68.45.01c-.75.06.08.43 0 0zm7.01.14c-1.6.58.7.85 0 0zm7 0c-.2 1.48 2.96-.03 0 0zm56.46.03c-.6 1.03-1.4.35 0 0zm-56.44.11 1 .47-1.01-.46zm55.56.02c.37.27-.36.27 0 0zm8 .1.34.44zm-10.7.13-.26.62zm4.94.03c-.35 2-1.73.27 0 0zm8.86.21.34.44zm-80.18.16-.19.22zm6.86 0c-.87.28.33.43 0 0zm-.66.13c-.57.28.55.14 0 0zm67.43.41c-1.21.66 1.05.25 0 0zm-56.14.04c2.74.81-.44 1.45 0 0zm-21.17.17-.27.7zm4.2.06c-2.3.76 1.17.24 0 0zm71.9.02c-.56 1.55-1.59.62 0 0zm-78 .1c-.61.9.12 1.04 0 0zm73.74 0c-3.28 1.76.3 1.43 0 0zm.74 0c-.49.43 1.23.32 0 0zm3.77 0c.41.31-.41.32 0 0zm-9.5 0c1.3.69-2.96 1.44 0 0zm-59.15.27c-.47.07.47.24 0 0zm64.6.13c-.96.4.42.83 0 0zm1.5.07c1.12-.56-.08.82 0 0zm-8.31.06c-2.21 1.95-8.84 5.98-3.34 1.85 1.22-1.04 2.1-1.1 3.34-1.85zm-59.25.14c.04.41.76.03 0 0zm4.1 0c-.97.1.97.1 0 0zm-6.9 0c-.44 0 .22.21 0 0zm18.44 0c2.85 1.28 2.42 2.61 0 0zm55.67.04c1.98.7-1.93.7 0 0zm-2.57.05c.44.9-1.27.24 0 0zm-8.41.06c-2.13 1.75-2.6 1.2 0 0zm-56.47.1c-1.15-.01 1.3.64 0 0zm-1.03 0c-3.22.3 2.4.85 0 0zm80.43.04.4.3zm-17.56.12c-.71.12-1.25 1.68 0 0zm6.92.1c-2.46.87-3.44 2.86 0 0zm-81.48.08c.45.63-.95.6 0 0zm23.32.13c.41.89.98.6 0 0zm1 .08c-.6.25 1.16.4 0 0zm50.8 0 .35.44zm17.6.07c1.97.22-.4.78 0 0zm-92 .04c-1.07.87.83.37 0 0zm68.83.17-.16.44zm-69.42.05c.4 1.53-1.32-.06 0 0zm2.16.06c-.5 2.72-3.9 6.6-.98 1.62l.5-.85zm20.23.04c-.45.66.33.48 0 0zm70.95.03c1.43-.07-.35.79 0 0zm-15.11.08c-.3.92-1.27-.01 0 0zm-5.78.06-.47.72zm-2.51.02c-.22 1.06.34.66 0 0zm-3.53.03c.4.4-.56.23 0 0zm-50.8.01c.03.41.76.03 0 0zm61.34 0c-.12.58-.87-.05 0 0zm-59.13.04c-1.12.94 2.97 1.58 0 0zm56.49.04.34.44zm18.97.2c2.08-.34-.17 1.59 0 0zm-23.7.1c-3.14 2.12-2.27 9.98.9 3.64 3.45-3.39-.63-1.06-.9-3.63zm-4.17.01c.14.61-1.12.17 0 0zm15.55.01c-.75-.1-.16.54 0 0zm-79.71.03c.36.27-.37.27 0 0zm72.03.01.34.44zm2.53.08c-.4.27.24.37 0 0zm15.73 0 .4.49zm-11.98 0c-.22.5.97.23 0 0zm-2.34.09c-1.54-.01.68.67 0 0zm-12.44.04-.29.36zm30.1.05c1.34 1.12.1 1.19 0 0zm-1.56.01c.15.47-.62-.02 0 0zm-23.75 0-.58.85zm-65.33.07c.23.37-.4.28 0 0zm85.67.02c-.7.75 1.01.1 0 0zm5.27.04c.72-.06-.15.49 0 0zm-94.18.01.02.32zm76.88.04c-2.17-.36.33 1.03 0 0zm-6.65.03c0 .57.49.03 0 0zm1.13.01c-.46.07.46.24 0 0zm3.9 0c-1.58.54.9-.08 0 0zm-76.76.12c.68.28-.35.22 0 0zm64.86.04c-.25.57-.92.32 0 0zm31.26.02c2.99.72-1.33.5 0 0zm-5.14.07c-.38.48.37.31 0 0zm-90 0c-1.44 2.94-3.75 3.91 0 0zm18.6.14c-.23 1.54 1.08 2.1 0 0zm58.13.01c-.67.07.53.13 0 0zm-7.44.04.04.55zm6.73.08c-.22.44.54.2 0 0zm-61.46.02c-.45 0 .2.2 0 0zm53.9.25c.4.31-.42.32 0 0zm11.75 0c-.93.41 1.1.6 0 0zm-4.31 0c-.3.62.84-.05 0 0zm-61.51.01c2.37 1.5 1.4.16 0 0zm8.58.02c1.09 1.33 1.13.6 0 0zm-22.16.1-.29.35zm70.16.02c.09 1.5-4.04 4.6-.66.98zm-48.3.02c-1.15-.07-.13.52 0 0zm-24.08.09-.29.36zm97.63 0 .2.24zm-10.82.02c-.52.04.42.15 0 0zm-73.72.16c2.26 1.24 2.8-.05 0 0zm57.63.07-.64.5zm-47.07.03c-.45 0 .2.21 0 0zm48.19.04-.12.32zm-53.29.01.48.67zm69 .09c-1.33.5.03.75 0 0zm-60.06.11c-.4.96 1.01.74 0 0zm47.42.02c-.45 0 .2.2 0 0zm-3.92.12c.22.44-.55.2 0 0zM31 175.7c-.28.42.53.1 0 0zm.6.02c.23.55 1.22.14 0 0zm46.52.08c-1.35 1.95-2.2.55 0 0zm-30.89 0c-.5.1.5.1 0 0zm37.44.03c3.1-.15-3.35 4.05 0 0zm-52.37 0c.75.74 1.71-.06 0 0zm7.17.01c-1.95.75 1.04.47 0 0zm-23.71.08c-.45 2.86-2.45 4.72 0 0zm68.62 0-.54 1.3zm-5.99 0-.28.35zm-34.17.14c.75.95 1.42.52 0 0zm4.9.07-.2.27zm41.47.07c-.46.07.47.23 0 0zm-.75.12.29.23zm1.16.01c-.46.02.3.22 0 0zm-41.65.12c.29.15-.4.05 0 0zm52.72.05.6.67zm-11.07.09c-.45 0 .2.2 0 0zm-48.06.03c.36.93 1.3 1.58-1.42.62-3.37.47 6.57 2.7 1.42-.62zm-28.42.06v.57zm26.33.02c-.22.45.54.2 0 0zm1.54.04.39.3zm69.2.02c-.1.48.62-.04 0 0zm4.8.08c.14.47-1 .05 0 0zm-25.6.01c-.46.07.47.23 0 0zm19.67.25c-.15.5.76.73 0 0zm-70.12.02c-.92.07.8.1 0 0zm-1 0c-.46.13.51.07 0 0zm5.5.02c1.69 1.87 2.83 1.33 0 0zm2.78.01c3.33 2.21 3.63 1.51 0 0zm65.63.08.3.36zm-64.1.02.59.31zm58.54 0c-.5.1.5.1 0 0zm-65.84.06c1.17.76-1.88.67 0 0zm-26.04.06-.28.5zm68.98.02c0 1.96-2.2 1.64 0 0zm-40.2.03c-.83.43 1.37.97 0 0zm63.1.1c-.5.1.5.1 0 0zm-63.12.04c.71-.07-.15.48 0 0zm33.1.07c-.88.2.72.32 0 0zm-33.44.3c.2.92.95.66 0 0zm-29.05.04c1.01.05-1.2 1.62 0 0zm30.67.12c-.9 1.8 1.8-.02 0 0zm61.48.09c-.8.04-.08.43 0 0zm-5.91 0c-.45.09.45.09 0 0zm-59.5.07c-2.2.93 1.69 2.1 0 0zm69.97.05.4.51zm-74.2.01c.62.98-.54 1.8 0 0zm3.68.14c.78.73.08 1.03 0 0zm43.01.25c.13.54-.84.6 0 0zm-43.4.13c1.1 2.13 1.05 1.17 0 0zm7.82 0c.94.21 0 .43 0 0zm-6.73.1.54.55zm3.66.07.39.3zm56.03.02-1.02.17zm4.44.01c.75 2.86.75.35 0 0zm-28.92.07-.48.57zm22.32.01c-1.38.09 1.39.09 0 0zm16.82.03c2.42 1.63 3.74 1.43 0 0zm-9.7 0c-.38.28.56.17 0 0zm-31.5.09-.37.54zm34.24 0c.13.61.7.18 0 0zm-66.73.1.8.8zm62.87.01c-1.54 1.9 1.33.27 0 0zm-21.37.15-.29.36zm-35.53 0c.04.46.66.07 0 0zm1.41.14c.57.04.08.46 0 0zm24.14 0-.19.22zm3.6.13c-.23.37.4.27 0 0zm-24.6.3.21.4zm-16.1.02c1.23 3.48-2.8 4.58 0 0zm8.52.06c.77.77 1.95 2.34 0 0zm60.61.1c-.32.33.39.96 0 0zm-51.51.05c.25.36-.4.29 0 0zm51 0c-.25.37.4.27 0 0zm9.91.05c1.99-.1-.13 1.12 0 0zm-71.63.15.44.55zm31.63.07-.85.94zm-32.19.18.36.3zm64.52.09.26.46zm5.9.19.46.57zm-69.36.05c1.95 2.15.6.73 0 0zm-.86.15.28.4zm31.84.01-.58 1.02zm41.52.05c.71-.09-.12.5 0 0zm-7.86.13c.68 1.97 1.92 1.7 0 0zm-3.32.09c.32.48-.79.59 0 0zm-57.33.08.42.37zm-2.52.04.3.35zm.3 0 .3.35zm.72.04c1.18.89 2.73 2.81 0 0zm-11.3.14.03.31zm76.24.02.47.59zm-61.9.1.38.3zm59.76.15.35.61zm-3.94.14c.15 1-.83 2.85 0 0zm-67.96 0c.63.58-.5.25 0 0zm-2.3.12.03.31zm-.08.52c-.44.36.11.78 0 0zm37.9.05-.85 1.04zm-35.58.19c2.07.95 2.14 1.77.08 1.15l-.16-.68Zm15.99 0c.5-.04.27 1.1 0 0zm-14.4.32c.16.47-.62-.02 0 0zm11.48.03c.35 1.06.53-.27 0 0zm-13.6.1c.74.53-.3.78 0 0zm-2.2 0v.4zm.5.01c-.1.48.73.17 0 0zm66.14.22c-.52.04.43.15 0 0zm3.7.04c.46.5-.73.14 0 0zm-69.56.23c-.2.49.57.28 0 0zm1.33.14c.45.92-.45 1.05 0 0zm68.35.07v.5zm-67.1.05c-.53.15.58.14 0 0zm-.8.05c.48.34-.49.36 0 0zm36.2.07-.28.51zm1.9.05c-.54 1.83-.45.82 0 0zm-40.28.35c.73 1.22.37 1.65 0 0zm2.11 0 .16.57zm.27.01c.57.23-.2.67 0 0zm-2.2.1c1.53 2.21-.05 2.05 0 0zm1.7.13c.6 1-.6.64 0 0zm.16.2.1.34zm63.92.08c2.62 3.77-2.03 3.04 0 0zm4.37.14c.85.93-.29.84 0 0zm-68.95 0c-.23.37.4.27 0 0zm68.64 0c.4.23-.22.41 0 0zm-.6.01c.7.23-.4.7 0 0zm-66.94.12c1.15.96-.15.92 0 0zm39.43 0c-.47.75.08.85 0 0zm27.18 0c.6.3-.28.5 0 0zm.7.07c1.09.84.27 1.83 0 0zm1.3.07c.88.44-.63.56 0 0zm-38.23.32c.01.74-1.37-.06 0 0zm-29.68.13c.7-.07-.15.48 0 0zm66.56 0-.08.46zm-67.5.2.23.55zm66.98.14c.4.43-.28 1.14 0 0zm1.7 0c1.18 2.02.48 3.42 0 0zm-67.65.33c1.65.35 1.02 2.46 0 0zm66.63.22.26.82zm.25 0c1.13.86.38 2.01 0 0zm-67.61.03.01.32zm67.04 0c.33 1.97-.16 3.33 0 0zm-4.33.27c.7.75-.06.9 0 0zm-62.9.08c.25.36-.4.29 0 0zm.37.02c1.57 2.12-.62 1.17 0 0zm62.92.28c.98.86-.72 2.12.15.53zm1.14.09c1.71.42.34 3.2 0 0zm-63.43.08c1.9.43-.36 1.43 0 0zm33.86.26c-1.3 1.62-1.65 2.65 0 0zm28.04.07.21.24zm1.16.07c.8.66-.9.27 0 0zm3.93.06.3.36zm.71.08c1.3 1.82-.97.97 0 0zm-4.22.6c.94.56-1.96.98 0 0zm-1.31.44c1.09.15-.35 3.4 0 0zm1.2.6c.82.43-.18.46 0 0z" style="fill:#000;stroke:#000;stroke-width:.268274;stroke-dasharray:none;stroke-opacity:1"/></svg>