<?xml version="1.0" encoding="UTF-8" standalone="no"?>
<!-- Created with Inkscape (http://www.inkscape.org/) -->

<svg
   width="153.02699mm"
   height="230mm"
   viewBox="0 0 153.02699 230.00001"
   version="1.1"
   id="svg1"
   xml:space="preserve"
   sodipodi:docname="bird — kopia.svg"
   inkscape:version="1.4.4 (dcaf3e7, 2026-05-05)"
   inkscape:export-filename="boss_shadow.svg"
   inkscape:export-xdpi="96"
   inkscape:export-ydpi="96"
   xmlns:inkscape="http://www.inkscape.org/namespaces/inkscape"
   xmlns:sodipodi="http://sodipodi.sourceforge.net/DTD/sodipodi-0.dtd"
   xmlns="http://www.w3.org/2000/svg"
   xmlns:svg="http://www.w3.org/2000/svg"><sodipodi:namedview
     id="namedview1"
     pagecolor="#ffffff"
     bordercolor="#000000"
     borderopacity="0.25"
     inkscape:showpageshadow="2"
     inkscape:pageopacity="0.0"
     inkscape:pagecheckerboard="0"
     inkscape:deskcolor="#d1d1d1"
     inkscape:document-units="mm"
     inkscape:zoom="0.33716632"
     inkscape:cx="361.83923"
     inkscape:cy="514.58283"
     inkscape:window-width="1920"
     inkscape:window-height="1009"
     inkscape:window-x="2552"
     inkscape:window-y="143"
     inkscape:window-maximized="1"
     inkscape:current-layer="svg1" /><defs
     id="defs1" /><path
     style="fill:#000000"
     d="m 106.8879,229.09123 c 4.71428,-0.67113 1.61809,-5.19774 0.44527,-7.49226 -1.11206,-2.51882 -1.13245,-1.64257 0.61101,-1.05182 2.5787,-3.32191 -3.27175,-6.34099 -1.14345,-9.959 -1.37648,-3.25597 -2.39847,-5.71851 -3.60003,-9.12945 0.53237,-3.64394 -1.74651,-6.671 -2.69173,-9.62407 1.15986,-3.57012 -5.369704,-4.62872 -3.927572,-7.02658 -0.07814,-0.46959 0.542579,-1.41768 1.39494,0.88818 -0.167108,-2.23223 -2.223229,-5.12599 1.20713,-2.81407 1.794592,1.0004 2.041242,5.79846 4.732922,5.44065 1.12843,1.52985 5.31667,-0.62138 4.24374,3.15204 -0.0727,1.76183 1.19439,4.09281 1.03802,6.48439 -1.35414,1.79797 -3.13902,0.0274 -2.51476,2.37785 -0.0915,1.35467 2.41853,6.09156 1.43665,1.85046 1.32189,-2.19437 3.2049,-0.49338 3.34949,2.31919 0.0233,2.18548 1.65917,7.40803 2.07713,7.51061 -0.24154,-3.07731 1.10021,3.15999 1.37231,2.30316 1.16161,3.44524 -0.007,-2.87033 0.17969,-3.82545 -0.91955,-3.0888 0.76577,-2.01032 -1.2006,-5.24241 -0.34944,-2.19026 -2.64907,-6.50643 0.92295,-6.4566 0.95141,2.27895 1.4727,-2.92473 0.47122,-3.67257 -1.18972,-0.17048 -2.77627,2.87751 -4.0929,0.093 0.52334,-2.92725 -2.53998,-4.2187 -1.16816,-6.57212 2.16347,-2.05001 5.37496,-4.26764 4.92801,-8.10251 0.8881,-3.02418 -0.13059,-6.6244 1.5392,-9.68419 1.57256,-3.93694 0.44015,-8.29045 -0.55607,-12.46488 0.68522,-3.94729 -0.83406,-7.1222 -2.07528,-10.59837 1.28836,-4.22008 -2.72844,-5.54194 -5.73471,-6.54944 -2.91376,0.70239 -3.99883,-3.18003 -2.57805,-4.63904 1.68546,-1.53287 -0.83135,-6.89098 0.51897,-1.72982 -0.62576,3.16356 -1.17427,0.10024 -0.90559,0.39099 -1.02046,-0.0445 0.5964,-3.0712 -0.2792,-2.35746 0.8442,2.66247 -1.96614,7.0137 -2.72296,2.58003 0.75184,-2.72679 -2.0082,-2.53449 -1.51216,-6.04902 -0.63309,-2.50283 -1.641518,-4.69392 0.86153,-1.65123 1.20212,-0.53274 0.26536,2.98633 3.64636,2.14788 0.87217,1.43946 1.35391,3.66097 0.4644,0.18162 -2.74869,-0.76864 -5.39319,-3.46954 -6.446036,-6.64402 -2.067585,-1.56643 -3.078494,-4.61782 -5.72301,-5.21494 0.291243,-4.1207 -1.830205,-1.51832 -2.97442,-0.12792 -3.620241,2.3034 0.62034,-6.88841 -3.212711,-4.14882 0.773846,2.84082 -3.154493,5.47907 -2.828591,1.6651 0.01704,-5.04864 -3.029269,-1.43032 -2.463148,1.09085 -2.010356,1.22464 -0.448052,-6.48159 -2.91216,-2.49675 0.780629,2.89924 -2.896458,4.6435 -1.45526,0.77031 -1.85408,-4.5794 -1.68626,5.78304 -3.942995,0.78539 -3.566132,-3.54594 -5.952909,1.76298 -8.509995,2.19726 -1.292759,0.54723 -2.238041,-5.04985 -3.12765,-1.04519 1.042295,3.70976 -2.170861,1.53098 -3.45736,1.9136 1.037392,3.31471 -2.147014,4.09843 -4.02057,3.59382 0.175777,3.49731 -5.587642,4.4624 -4.60378,9.19769 -0.834992,2.14043 -1.918543,8.22533 -1.3055,8.49481 0.665671,-1.87919 1.106256,-1.21328 1.51171,-2.73723 1.560685,1.94452 0.520009,5.80977 -1.85425,6.03683 -2.363148,-0.53726 -3.652338,3.66243 -6.37015,3.75999 -0.273556,3.86534 -0.830134,8.15275 -3.703181,10.96079 -0.154873,3.97418 -2.522639,6.39715 -3.045259,9.57192 -1.916339,3.17618 -1.421823,7.3728 -0.669704,11.03768 0.0818,2.81506 1.939517,5.85553 4.164914,6.95317 3.89389,1.69821 0.681807,4.42081 0.67074,7.91694 -1.823753,0.45873 -2.784717,-2.38286 -3.846655,-0.0851 0.612963,1.78169 0.285394,5.91773 1.454955,2.55638 3.681771,0.81499 -0.728398,6.49777 -0.106662,7.93758 -1.120673,3.24392 -0.434728,4.40964 -1.088368,8.05902 -0.35382,2.68384 1.563276,-5.402 1.18824,-1.70766 0.905717,-4.0392 2.672619,-5.77707 2.864882,-9.58647 0.201754,-2.51473 1.825651,-3.18476 2.844618,-1.87132 -0.35071,4.26324 1.623643,-0.40137 2.035791,-1.96921 -1.102923,-1.46933 -5.026091,-1.93026 -2.580461,-4.62748 0.940846,-1.66298 -1.041336,-5.09567 1.808916,-5.62922 2.211206,-1.86563 4.093405,-4.06647 4.322184,-7.45293 1.418027,-0.16667 4.677911,-0.003 3.901831,-3.52583 1.011403,-3.53959 0.02928,-6.73346 2.891209,-9.94565 1.589822,-1.55564 4.656615,-3.98508 2.420099,-7.12014 2.573713,-2.67993 -1.63826,-5.14246 0.807881,-7.45626 0.101391,1.46821 2.070344,-5.7012 2.08852,-0.48426 0.522093,4.46492 0.147017,-0.007 0.51028,1.46389 0.17475,0.97261 -0.444376,3.67977 0.62655,0.77273 2.108916,1.83476 2.411591,5.68532 4.744488,6.94998 2.493608,1.63481 1.932552,-2.99275 0.821392,-2.49936 0.10185,-0.55781 -0.382474,-2.16214 -0.72058,-2.19214 -1.871752,-0.85312 1.327805,1.04311 0.16999,3.08386 0.0646,0.84993 0.752674,0.7961 0.3809,0.21513 0.867181,2.29335 0.289868,-2.31679 0.83447,1.27993 -0.629377,1.69811 -3.66335,-2.26299 -2.56507,-1.4965 -0.602899,-1.29775 0.473874,-3.92457 -2.6867,-4.07401 -1.482207,-1.98095 -1.955458,-5.87946 -1.70921,-3.11226 -0.849075,-2.71068 -1.658607,-5.63591 -1.739887,-8.51376 0.345674,0.36323 1.281796,3.07778 0.242877,-0.24157 -0.243324,-1.90522 -3.903416,-5.20215 -0.75288,-6.19841 1.119211,-0.86359 1.029129,-5.45242 2.149366,-3.64258 0.556284,1.15824 0.76079,5.43869 0.211904,4.76511 1.061538,0.68677 0.589641,4.1899 2.21914,5.87371 1.327482,0.45345 2.430037,2.12757 1.78912,2.11657 1.966324,0.46008 -0.0088,-6.095 0.25887,-4.60624 -1.754029,-2.43437 -2.065157,-8.1262 -1.464876,-11.90775 0.708452,-1.76409 0.461113,-3.53735 1.328826,-4.23618 0.686904,2.71225 -0.101853,5.55342 -0.07705,9.16388 0.112825,1.15766 1.149721,4.2237 0.46529,3.25378 0.295638,2.69249 3.87008,2.95654 3.46761,4.02915 0.144975,0.52201 0.610256,4.69998 -1.690286,2.15852 -1.219326,-2.63561 -0.177667,0.72976 0.282586,1.1737 0.891918,0.26859 -0.873217,0.53441 -0.263371,1.84013 -0.532369,3.07101 -1.722581,1.67617 -0.853769,3.63144 1.019931,-0.0967 -0.560455,2.64898 -0.34856,1.9422 0.498283,0.32559 0.958425,4.3159 1.45921,4.93918 0.27639,-0.45666 0.897895,-2.13982 0.77939,0.89097 0.493097,0.0119 0.473301,2.76113 1.03427,0.31198 1.475836,1.09614 0.10971,2.62771 1.48736,0.87674 0.671105,1.01853 0.18708,3.07246 0.03338,3.37131 -0.06514,2.42078 -0.22277,0.16517 -0.702196,-0.40025 -1.216997,-0.90258 2.054859,-0.54886 -1.002673,-1.0653 -0.352803,3.66738 -3.985728,0.13048 -4.341611,3.39048 -0.702047,3.46791 -5.083105,2.75789 -5.95676,7.04971 -0.652918,2.13419 -2.623444,7.0244 -0.51864,2.48695 -0.07833,-2.60131 2.328732,-4.27263 1.669088,-4.25961 1.379969,-2.22848 3.280161,-3.52846 5.579617,-1.72803 -0.929263,1.04606 1.841804,0.92187 1.971798,4.24539 0.429286,1.8929 -1.288983,4.74201 -2.014943,4.86828 -0.920117,-0.36218 -0.665499,0.019 -1.27591,-0.5215 0.06641,-0.89476 -0.254314,-2.93441 0.42056,-3.26051 0.80918,-1.93307 -2.7539,4.36315 0.38887,4.153 1.108537,1.28341 0.01769,2.25813 1.600744,-0.58978 -0.621098,-0.0394 1.524555,-3.6146 2.164476,-0.88051 -0.08385,2.58838 -0.236376,3.13668 -0.445807,4.06078 -1.999281,2.4509 -3.991012,10.11643 -3.591685,8.76398 2.448805,2.91829 -2.676936,4.00043 -1.794138,2.54217 0.795259,-0.43015 -1.758806,-0.95897 -1.86029,1.30665 -3.374871,0.9469 -0.88057,-6.39333 -1.90328,-4.21039 -0.607255,-3.12368 -3.32036,-5.21083 -5.08035,-4.24294 -1.751475,-0.73738 -1.851242,3.63879 -1.7386,0.56767 -0.602721,2.51733 -1.500016,6.95335 -2.30402,4.51326 -1.361366,-2.35014 2.091539,-5.99671 2.33837,-6.68649 -1.911012,1.18725 1.281309,-3.22083 0.96545,-1.48435 1.960235,-0.39555 3.491891,-4.70332 4.731299,-4.13316 -0.948069,2.42705 -1.973673,2.85504 -2.378789,3.47241 -2.470353,3.0424 2.777008,-0.6066 0.69129,2.40615 0.890619,-1.41912 1.851753,-2.66087 3.02585,-0.15346 0.679824,2.75269 3.470954,4.16602 3.56785,1.67614 -1.156718,-0.6497 2.79454,-5.12558 2.28451,-5.05768 -1.076933,-1.90878 -2.643313,6.10179 -1.943894,0.61816 1.113099,-1.78073 0.07788,-0.73389 -1.645546,-1.73942 -0.547839,0.0949 0.726851,1.14437 -1.20125,1.17115 -0.730776,-0.77887 -0.902958,-0.88074 -1.99986,0.22587 1.464508,-2.02499 -1.471435,-0.953 -0.32801,-3.70685 -1.358955,1.53824 -4.07111,4.62457 -6.318864,5.84731 -1.066313,3.36632 -2.740461,6.04938 -2.401206,9.61673 -0.33641,3.82416 -0.01684,7.64798 -0.42376,11.60165 0.707283,4.29774 -5.135481,5.08647 -3.70391,9.44789 2.718952,2.85657 -1.361977,3.95022 -2.21513,6.49574 -1.625111,1.72183 -5.164893,5.35431 -2.62512,8.01743 2.537857,1.08909 4.232629,-0.9918 5.78156,1.38656 2.73265,1.32085 4.617019,-2.69924 5.961188,0.49813 3.862617,0.735 6.555147,-2.20937 6.635332,-4.91532 3.049259,2.04561 3.808308,-3.56773 6.94362,-2.58956 2.686192,-2.25726 -0.721803,-5.68947 -1.32797,-7.86455 0.375864,-2.51207 -2.750321,-5.06851 -0.810574,-6.97845 0.70469,-2.49826 -0.839056,-2.20474 0.339564,-4.51047 1.088295,0.87181 0.792789,1.16704 0.54495,-0.4378 -1.304894,0.51197 -1.443548,-2.70399 -0.75675,-1.74809 0.100244,-0.0931 0.657829,-1.30283 0.88937,0.11949 0.859098,-3.94577 1.811359,0.007 0.98473,2.05536 -1.060556,2.6379 -0.134061,8.28494 -1.21521,3.94139 -0.824703,-2.89034 0.896564,7.39766 0.741363,1.15274 -0.02765,-3.52039 1.197041,-7.00904 0.944827,-10.68763 0.807029,-2.33205 -0.75493,-5.5164 0.59289,-5.12252 0.843939,-4.35412 0.860025,6.55372 1.36919,0.11853 1.074725,-0.37679 0.749242,6.97391 1.13116,5.54746 0.350439,-2.62666 1.01432,-5.84103 1.311217,-2.15714 0.277346,2.43322 -0.297218,7.5124 0.311923,8.57025 0.298192,-2.01244 0.777352,-6.56515 1.355361,-3.77132 -0.136548,-3.65422 0.934844,-2.94842 1.337073,-0.0774 -0.01765,2.42908 0.312418,2.69527 0.7262,2.75123 0.04905,3.23926 0.193634,2.52738 0.525806,3.32079 0.0808,2.8967 0.424813,2.77322 0.59333,0.14343 1.119446,3.2023 0.626916,7.16481 1.23918,10.15996 0.660274,-4.15333 0.862286,-6.94556 0.892301,-11.41362 0.33278,-3.33333 0.558612,1.86907 0.834169,-2.15294 -1.921969,-0.33091 -0.465002,7.79137 -1.38816,9.14454 -0.9238,5.84445 -0.154983,-1.34789 -0.94159,-3.36005 -0.175333,-3.56524 -0.649135,-3.07642 -1.03649,-1.97721 -0.03938,-2.58168 -0.572766,-5.6875 -1.225796,-4.79397 -0.12842,-2.60779 -0.153542,-3.44852 -0.587484,-3.78633 -1.066107,-3.85153 -1.040276,4.7715 -1.36654,-0.23523 -0.719183,2.29059 -1.155255,6.98016 -1.17139,1.98787 0.10817,-2.71891 0.226617,-6.78488 -0.601237,-7.88882 -0.894684,6.38109 -0.160658,-2.68679 -0.541159,-3.53198 -0.67204,4.41229 0.486727,-9.506 -0.667281,-2.94975 -0.985275,0.64936 1.200402,-8.18919 0.228407,-5.7936 0.258919,-3.29481 -0.12,-5.79258 0.37262,-7.21089 0.411196,-2.69505 0.103796,-0.52654 0.64292,-1.30396 0.31821,1.73747 0.262052,4.27813 0.716449,3.32934 -0.14817,1.48797 -0.472877,6.69227 0.05622,2.09351 0.266245,1.97015 1.144861,7.35017 0.44196,2.28699 -0.660755,-5.26294 1.357173,0.13213 1.42168,2.15152 -0.608928,-3.12803 0.512176,-1.90256 1.24308,-0.17885 -1.690881,-4.09425 1.832406,0.96847 0.06132,2.39732 0.748048,2.23466 -1.297829,3.22832 -0.89337,0.22 -1.603032,-4.34721 1.098055,2.50872 -0.85668,1.74888 -1.075672,0.55474 -0.163802,4.433 0.57688,2.42203 2.152652,0.42644 0.388722,3.88116 0.83773,5.71909 0.386826,-0.004 0.456426,7.1493 1.065931,2.00739 0.189196,0.75706 0.545435,-2.44992 0.796079,-3.0341 -0.782424,-2.42047 0.523443,-4.7363 1.560779,-3.88027 2.276576,-2.0375 -1.223814,-2.07822 -1.427634,-3.72548 0.778978,-0.15501 0.426388,0.54895 0.356335,-1.32947 -0.131545,-1.95204 -0.798635,-2.03422 0.91514,-3.28668 0.122828,0.59955 1.944245,-2.81217 0.820728,0.92312 0.74304,-1.41489 2.385217,-7.29047 1.894182,-1.74813 -0.0611,5.98248 0.143209,-1.3287 0.5844,-3.28262 0.563202,0.26577 0.60147,3.89771 0.52854,-0.27971 0.244544,-1.96392 0.356474,-3.84669 1.5342,-4.57979 0.77238,-0.98133 -1.753256,0.99921 -0.34453,-1.62582 -0.617355,-2.98322 4.885401,-4.85882 3.88647,-5.02341 1.812219,-0.89688 0.441047,-1.44984 1.83573,-3.19968 1.013446,1.76318 2.046707,3.92515 2.1338,4.87805 0.211199,3.25134 -0.680948,-2.36972 -0.76923,-0.10692 0.754785,2.32553 -0.874607,-1.09454 -0.8123,0.23438 0.61112,2.10468 2.19767,4.75542 0.31589,2.78181 -2.604181,-0.73102 -1.323302,-4.14479 -2.57339,-0.63957 -1.954201,2.14071 -1.139989,-1.65793 -1.75626,1.90156 -1.337946,2.48966 8.71e-4,4.10981 -1.642094,1.00463 -1.223243,2.26139 -0.999073,2.89741 -0.0209,0.16554 0.409471,2.12625 0.671113,0.93089 -0.05674,3.80944 0.519171,-3.71487 -0.69616,0.56982 -0.240696,1.68565 -0.0317,1.79263 0.561621,4.56415 -0.0383,3.55286 -0.03484,2.38039 0.336102,8.7784 -0.02114,8.3378 0.03866,-1.86474 -0.8422,-5.09799 -0.759778,-1.0851 0.0091,5.07786 -0.407571,2.62297 -0.03867,7.59832 -0.249559,4.3407 -1.479798,-5.18651 -1.47217,0.63853 -0.890636,2.97965 0.167538,7.82439 -0.76452,9.43227 -0.997727,-4.77481 -0.315939,-0.74916 0.07249,1.79557 1.008201,-3.43534 -0.09349,-7.90638 0.793663,-10.79515 0.227973,-3.45798 0.885918,0.47882 1.095917,1.28065 0.449374,-2.38696 0.254952,-7.78062 0.96493,-2.43964 0.478737,2.21794 0.231046,-6.39824 0.91911,-4.55716 0.609425,-2.08042 1.316755,2.71735 1.70635,2.98544 0.757235,4.25355 0.0569,8.45738 1.920815,12.56476 2.339479,1.82023 2.227767,6.06679 2.284845,9.20969 1.912691,2.41733 -3.354734,5.93879 0.006,8.3646 3.014141,0.0257 2.731522,2.98465 3.712971,5.07838 2.784085,2.66687 4.708502,-1.95325 6.472014,1.07342 3.292732,0.48427 3.994342,-2.1463 6.753792,0.0847 l 1.0329,-0.0577 z m -6.3017,-0.18632 c 0.58572,-2.09496 -1.253851,1.75305 -2.118054,-0.97535 0.469685,-1.244 -0.688721,1.39572 -0.869073,-1.23704 -0.06414,-4.04083 0.503369,-4.74499 1.653465,-7.35671 1.191552,-1.40575 2.634842,1.73657 2.525052,2.29737 1.30879,2.15999 1.03175,3.03781 1.19308,6.32475 -0.34887,-0.49882 -0.90761,1.07378 -0.73886,-1.46079 -0.35679,0.8518 0.37721,3.07011 -1.64561,2.40777 z m 4.4108,-0.23551 c -0.29173,-2.46244 -0.97944,-4.98258 -0.24424,-1.02224 0.19539,0.78067 -1.1284,1.01666 -1.28987,-0.65822 -0.97928,-0.70723 0.8608,-3.21714 0.60652,-4.24748 1.08475,-3.11542 3.44334,2.07281 2.91288,1.19287 -1.4541,-2.83851 2.94195,0.66547 2.48653,2.68604 -0.2862,0.75421 -0.0238,0.59269 -0.92134,1.29631 -1.04156,-0.25806 -1.15682,-5.92374 -0.92433,-1.44779 0.60572,1.52542 0.003,2.45988 -0.79521,1.64416 0.51782,1.26162 -1.8189,0.69262 -1.83094,0.55635 z m -9.284022,-0.0798 c -2.745713,0.56229 -1.705849,-3.57155 -2.40521,-0.5394 -1.066359,-0.49728 -1.578811,-1.9374 -0.773516,-3.92255 1.862845,-1.36912 0.775514,-0.77429 2.923226,-1.8395 1.73559,1.27528 2.084663,4.7988 1.56056,5.09292 -1.166463,2.40879 -0.896942,-2.53807 -1.05692,0.6679 l -0.17833,0.62615 -0.0704,-0.0855 z m -43.67178,-0.62209 c 0.113723,-3.30664 -0.195403,-1.8658 -0.362533,-0.25357 -1.156299,-1.89398 0.411299,-6.37652 2.66428,-6.78632 0.774836,1.98291 2.003942,1.72712 0.795643,-0.3806 0.550351,-0.23825 -2.798521,-0.10397 -2.655138,1.57757 -0.670968,0.37968 -0.549343,-1.53882 0.557728,-2.99843 -0.236875,-2.70629 2.685957,-5.78966 3.79089,-2.32761 0.625998,0.85432 0.0034,0.83266 0.18402,4.24253 0.07569,0.64217 -1.021206,-1.55238 -0.08887,0.86808 0.549379,1.14844 1.219727,2.33279 1.25572,4.24941 -0.846946,-1.20875 0.176194,-0.40532 -0.94869,0.64858 -0.7177,-0.93099 -0.376172,-2.84628 -0.63064,0.20418 -1.84055,2.10462 -1.283759,-0.57414 -2.18734,0.58789 -0.289502,0.14507 -1.056689,1.03041 -2.37507,0.36829 z m -3.87873,-0.20087 c 0.646688,-0.75998 -2.60003,0.84436 -1.79446,-1.02784 -0.146069,0.25665 -1.876984,0.89016 -0.91437,-1.66017 0.214908,-1.58351 -0.744285,3.24832 -0.1754,-0.41922 0.668402,-2.5793 1.685347,-7.68059 4.446843,-6.4834 1.413225,0.51911 -0.129967,3.30154 0.673787,3.17411 0.538139,-1.55697 1.405795,2.16209 0.94836,2.85502 3.29e-4,-2.25171 -0.613234,4.55465 -0.93417,0.98388 0.190384,2.91078 -1.753757,2.56241 -1.76551,1.17674 -0.113183,-0.37709 0.210642,2.01797 -0.48508,1.40088 z m 0.35424,-4.11339 c 0.577196,-3.56103 -0.544495,-1.51405 -0.55127,-1.05367 0.779629,-1.3287 0.07547,2.09878 0.55127,1.05367 z m -7.39749,2.93293 c -1.224017,-0.90213 0.14629,-1.94509 -1.06028,-0.63297 -0.910157,-3.76321 2.121785,-6.10509 4.09525,-7.43028 1.840149,0.81346 0.878792,0.53996 1.855377,3.11603 -1.645143,0.36415 -0.634457,4.97996 -1.354713,3.64598 -1.083231,1.73723 -2.168319,1.22302 -1.645524,-0.40175 -0.208883,1.07185 -0.242281,2.42847 -1.89011,1.70299 z m 2.38783,-2.28285 c 0.766284,-1.35574 0.26561,-2.09366 -0.21756,-0.91155 0.204437,-4.12213 -0.936969,0.59716 0.21756,0.91155 z m 47.93327,-0.006 c -1.016925,-1.90748 -0.630289,-2.25365 0.487856,-5.35955 0.117771,1.15002 1.833305,-1.0243 1.810524,-0.0587 -0.336908,0.42968 -0.77486,4.52976 -1.64333,5.06373 -1.125777,-1.7636 0.863679,1.83469 -0.65505,0.35454 z m 11.894552,-0.42746 c -0.38033,-0.32831 -0.44498,-2.80677 -0.60651,-3.1957 -0.76908,-2.59201 -0.64177,-2.62081 -0.45755,-3.73219 2.67314,-0.95779 3.78448,3.90516 4.91464,5.22776 -1.00962,0.6343 0.3209,-1.1912 -1.55049,-0.64326 -0.93904,-0.72737 -2.02056,0.91136 -2.30009,2.34339 z m -42.867662,-0.38249 c -0.429698,-2.07659 -0.158705,-0.0392 -0.52364,0.21033 -1.236593,-1.98425 -0.362155,-1.6791 -1.377765,-0.47614 -0.988549,-0.28387 0.594383,-2.87546 -0.986135,-4.06659 -0.278511,-2.14639 2.083957,1.47069 1.456091,2.3232 2.059371,-0.19847 -3.450937,-5.6179 -1.297321,-4.80273 1.520039,-0.32975 1.057229,-0.98561 2.28394,0.36407 0.854184,2.72214 -0.526506,1.42214 1.7015,4.0087 0.272246,1.52145 -0.101563,2.76496 -1.25667,2.43916 z m 36.0529,-0.097 c -0.724111,-1.66687 -2.534643,-2.53738 -2.31422,-1.17671 -2.969608,2.65437 0.982327,-4.15467 -0.09291,-3.26825 1.597057,-5.03598 4.422902,1.63066 2.506548,1.68974 0.294956,0.45429 1.680403,3.4498 -0.09942,2.75522 z m -38.86173,-0.76358 c -1.154169,-1.888 -0.241618,-5.84412 0.411029,-1.04209 -0.137066,-0.70291 -0.10459,1.65878 -0.411029,1.04209 z m 32.23103,-0.717 c -0.46838,-1.31874 -0.478373,-2.62469 -0.63506,-2.74905 0.270031,-1.84414 0.387547,-4.15854 0.96641,-1.05608 1.434463,-1.23547 -1.220508,2.25578 0.04638,1.58963 0.981491,-3.26977 1.550594,-0.59266 0.98856,1.13986 -1.04287,-3.68404 -0.0035,3.48469 -1.21089,-0.18157 0.07933,0.54763 0.73539,2.94643 -0.1554,1.25721 z m -0.70432,0.65325 c -2.493475,-4.05153 2.302252,0.62002 0,0 z m -0.59286,-0.16092 c -1.246509,-1.35831 0.147818,-5.07684 0.38673,-4.32646 0.602309,0.92262 -0.0256,3.23617 -0.38673,4.32646 z m -26.13712,-0.20204 c 0.143566,-0.93976 -0.404505,-2.81132 -0.56879,-1.12289 -1.048653,-1.87853 0.116666,-1.7206 -0.94911,-1.71277 -0.488822,-2.00999 -0.357592,-1.87664 0.19481,-2.03015 0.139354,-2.37508 1.415476,1.93532 0.43851,-1.62427 0.822469,2.33086 2.330772,4.43634 1.26066,6.26015 l -0.276149,0.2761 -0.100251,-0.0464 z m 34.93807,-0.5145 c -0.451074,0.3686 0.434245,-4.42276 0.20996,-3.00323 -0.238456,-2.4094 -0.298023,-3.56338 1.715413,-4.15077 1.793729,-0.23748 2.033849,2.77022 2.176859,3.58977 1.07599,0.64374 1.42339,4.31859 0.71079,3.28626 -0.44647,0.20415 -0.83043,-3.73145 -0.84133,-1.9247 -1.90765,-1.53804 -3.355541,-1.06016 -3.317291,1.35098 0.0048,0.3538 -0.298519,1.54833 -0.654401,0.85169 z m -46.05266,-0.5295 c -0.267706,-1.15421 -2.365674,-5.06782 -3.22249,-3.4282 -2.405526,0.82934 1.647657,-2.03183 1.90533,-3.83158 -0.553418,-2.07334 3.12196,-1.75735 3.075552,-0.7226 1.286937,1.88228 -1.347373,7.08078 -1.110852,4.36163 0.657043,2.6989 -0.173428,1.9868 -0.188566,3.46457 l -0.04101,0.15319 -0.41801,0.003 z m 13.57462,-0.35493 c -0.649955,-1.27908 1.403884,-2.74456 0.09152,-2.90772 0.449114,-2.81068 0.706637,-2.95142 1.378166,0.10302 0.281479,1.15243 0.310167,3.01478 -1.46969,2.8047 z m -1.11603,-0.18244 c 0.64596,-3.22041 -0.372552,1.94712 -1.06942,-2.11846 0.259116,-1.08751 -1.144366,-2.91489 0.49009,-2.00359 0.712697,-3.25515 0.888673,5.05414 0.80427,0.34355 0.156732,-1.61088 0.0807,-2.40027 0.27995,-2.89959 0.823251,0.16066 0.920115,3.56155 0.36852,3.85679 0.153682,-0.52078 0.312137,2.92955 -0.87341,2.8213 z m 43.767142,-0.2613 c -1.20978,0.51585 0.56907,-4.18142 -0.38625,-1.3471 -1.0952,-0.49949 -1.91278,0.057 -3.12854,-2.44911 1.28937,0.52646 0.21715,0.46931 1.40078,-0.90801 -0.77601,0.53748 -2.60108,-0.0665 -1.2095,-0.53082 0.14956,-2.52203 -0.7719,1.85089 -1.1795,-1.28254 -0.16751,0.44728 0.0303,3.72199 -1.2518,1.44651 0.74515,-1.09691 1.25244,-3.60373 0.49821,-1.67199 -1.88978,-2.75635 -1.64781,-1.95382 -2.864754,-5.02481 -1.388461,-2.88581 -0.468212,-5.43337 -0.570418,-6.32308 -1.855827,-0.39288 -0.43375,-3.46791 -0.34552,-5.45715 1.988212,1.23814 0.802981,0.54944 2.260602,2.98759 -0.5049,3.89002 -0.3454,-2.37946 -0.63303,1.38653 0.63007,1.40742 0.71827,8.80977 4.59933,9.98496 1.74814,1.20961 2.40305,4.95364 3.67215,6.97653 -0.19476,0.33285 0.50746,2.99191 -0.86176,2.21249 z m -61.427272,-0.0256 c -0.305177,-2.49056 0.174184,-2.13782 -0.487687,-1.14442 -1.924261,-2.14584 0.246924,-2.51542 1.576987,-3.96719 1.888184,0.29623 -2.432927,0.40434 0.08751,-0.98166 1.312297,-2.44557 1.661684,-1.91904 3.045201,-3.34907 0.962311,0.50997 -0.32868,0.45811 -0.06442,1.48579 -1.399085,-0.26279 0.175993,1.98269 -1.62794,3.44593 -1.463022,1.47478 0.01456,-2.34475 -1.05605,0.53737 -1.145632,2.4641 -0.399489,0.38967 -0.95597,3.50639 -4.471478,-2.41369 1.993332,0.9166 -0.51763,0.46686 z m 6.53414,-1.39849 c -0.347392,-2.40357 1.813636,-2.64307 0.01125,0.1201 l -0.0112,-0.12007 z m 39.2577,-0.22711 c -1.464781,-3.3439 2.281197,-6.95923 -0.217115,-10.97049 -1.694833,-2.84124 -0.879545,-2.52049 -0.462285,-2.38996 -1.157024,-0.19983 -4.233164,-3.84262 -1.827083,-6.07936 1.269739,0.93524 0.282218,1.51539 1.717235,1.99324 2.08404,2.6516 -0.607239,-0.0719 0.87255,2.33384 -1.50711,1.62205 2.013353,-3.58421 1.303428,0.87198 0.05593,2.34332 2.763375,3.53669 2.429499,6.88012 0.891574,2.963 -2.040109,-1.97299 0.04725,2.0295 -1.85154,1.05128 -0.143145,4.57704 -2.74532,4.90837 -1.894419,-2.26564 0.718115,1.33554 -1.11816,0.42276 z m -48.63685,-0.42447 c 1.57112,-1.95864 2.912344,-2.87779 4.15233,-4.81092 -0.911418,1.69015 -2.585339,3.95098 -3.49102,4.76436 -0.0918,-0.79504 -0.985487,1.16904 -0.66131,0.0466 z m 58.224202,-0.79741 c -0.45861,-1.92898 1.45344,-1.04544 0.45614,-0.47115 0.0467,0.0268 -0.22839,0.83861 -0.45614,0.47115 z m -11.192442,-0.38426 c -0.895464,-1.84299 -0.212733,-4.6376 -0.87977,-1.78328 -0.54506,-3.02262 2.28292,-6.64556 -0.8657,-9.76905 -2.761337,1.00431 -3.548797,-6.61649 -2.91658,-6.54851 0.221666,1.34962 1.906298,0.88236 1.70102,1.52826 1.201808,1.67271 2.302074,4.8572 3.23043,6.02881 -0.334001,-2.54317 0.72071,2.58152 0.20035,-0.32968 0.919069,1.28068 2.170498,6.02352 1.20847,6.85733 -0.246873,-2.08968 0.339252,3.40298 -1.38651,2.77789 0.579213,0.33946 0.480207,2.19227 -0.29171,1.23823 z m -30.63463,-0.54762 c -1.117788,-1.26005 1.422789,-1.59649 0.48346,-2.74151 -0.229448,3.44419 -1.332513,-2.30494 -1.271566,0.39874 1.994024,0.4682 -2.93867,3.98974 -2.245804,-0.12224 0.06138,0.2939 -0.670172,2.65202 -1.35888,-0.53491 -0.685417,-1.97564 0.558133,-3.02894 -0.45507,-3.09423 -0.978041,-2.21388 0.870198,-5.8236 0.497176,-8.98491 0.495584,-2.08834 -0.449865,-7.45628 2.022124,-4.50672 -0.515453,-1.02392 0.142441,-1.4128 -0.65928,-0.98707 0.379999,-2.90668 -0.326744,-4.48166 2.07913,-4.98062 0.933195,3.15374 2.326115,0.36961 1.161215,4.38353 -0.522549,-0.64774 -2.160261,0.0334 -0.999351,0.59589 0.718114,-0.1828 1.13525,1.38088 -0.207784,3.19635 -0.04249,2.33342 -0.793192,8.50678 0.99885,12.00069 -0.56859,-1.24595 3.166237,4.17604 1.01691,1.57375 1.687067,1.56661 -0.230233,3.90069 -0.437089,3.93896 l -0.03015,0.15312 -0.59365,-0.28927 z m 35.65538,-0.23828 c 1.050701,-2.93872 0.784164,-6.50788 -0.37193,-9.5789 0.0054,0.68623 -2.553809,-4.19607 -0.593584,-2.03731 0.527653,0.10434 1.407742,0.0849 3.237671,-0.93155 -0.02627,-1.60131 -1.147982,0.47064 0.214979,-1.63513 0.64369,1.32484 0.965396,6.29913 2.304566,9.03859 -0.994431,-1.5944 0.73275,1.36598 0.20592,0.74269 3.14703,0.76028 0.93013,5.61618 -0.1686,1.74952 -1.98715,1.98503 -2.242716,0.39867 -2.735647,1.05183 -0.383105,-0.82203 -0.438535,3.43197 -2.093375,1.60026 z m -32.55342,-0.35712 c -0.581606,-0.48356 -0.541237,-1.06822 -1.33624,-3.16091 0.550524,-3.03684 -0.402509,1.29288 -1.65914,-2.23895 0.51824,-2.54758 0.229041,-1.81954 -0.16779,-0.68022 -0.966428,-1.30224 -0.88507,-5.82375 -0.274171,-8.53938 0.141916,-2.30488 0.742788,-6.20682 1.291991,-2.54493 0.422364,-2.77129 -1.087457,-2.73166 0.18403,-4.17833 -1.090387,-1.32331 3.837272,0.86423 1.09689,-0.60999 0.855386,-0.12116 -1.979949,-2.28501 0.422012,-1.05629 -0.734191,-1.25034 0.179879,-1.50951 -0.06977,-0.62389 0.82983,-0.646 0.830129,-0.10224 1.408193,0.48137 -1.752097,2.84697 0.499507,-0.99737 0.61706,-0.11945 -0.181796,-0.99704 1.672157,-1.02086 1.54805,0.0884 -0.702333,-1.53057 0.386196,3.07369 0.09075,0.51939 1.712444,1.72511 -2.260269,6.53734 -1.30609,4.32295 -1.915263,0.37196 -1.191603,1.67582 -2.40058,2.99216 0.198829,1.19155 -1.610086,7.74809 1.206,9.64305 0.901869,-0.10982 1.373023,3.89501 -0.42068,5.75711 l -0.23034,-0.0526 z m -8.72375,-1.26974 c 0.100606,-3.32668 1.324285,-0.42277 1.231887,0.37549 -0.662588,-0.86165 -1.620776,1.14609 -1.231887,-0.37549 z m 60.485242,-1.78743 c -0.97731,-2.10315 -1.59737,-5.13705 -1.45686,-2.03205 0.14305,-3.05034 -1.58483,-2.41802 -0.74754,-4.56881 -1.03552,-3.13932 -0.21,-0.90871 -0.12412,0.82695 -0.43228,-2.06083 -1.68675,-6.39429 0.31792,-2.89482 -0.0621,-4.71598 0.51079,1.12678 2.28807,3.29372 -1.84129,-0.98124 0.91805,3.29297 -0.25826,3.01636 0.33412,1.51422 0.36656,3.01639 0.28952,3.21641 l -0.30889,-0.85784 z m -68.506572,0.49053 c -0.8144,-2.03716 0.534873,-5.50504 -0.38337,-2.33714 -0.416375,2.46316 -0.427273,-4.60281 1.158507,-2.95819 3.36626,-3.74453 3.802514,-9.6285 2.234733,-14.22703 0.656471,-1.13178 0.474068,-3.72234 1.56374,-3.68146 0.07099,0.68007 0.820454,5.38886 1.0951,4.66164 -0.921598,2.91551 0.183389,3.78217 -0.364824,7.8103 -0.09288,2.30835 -1.842854,6.74541 -1.118226,2.2456 0.429162,3.32289 -3.5768,5.59169 -1.368109,6.64947 -1.714167,2.58444 -1.950494,-3.91418 -1.613031,0.91054 1.37861,0.77795 -1.888035,0.12767 -0.934896,1.13533 l -0.269574,-0.20901 z m 6.93379,-0.58892 c -1.322383,-0.7164 -3.052282,-1.77782 -0.96992,-1.77129 -1.034439,-0.32538 2.822801,2.33334 0.96966,1.77134 z m 0.59104,-0.30173 c -0.678624,-1.91774 -2.987991,-3.67352 -3.93114,-1.99322 -0.950059,1.7646 -1.05794,-2.33687 0.55739,-2.8209 1.203277,-2.76489 1.815607,-6.84496 1.38696,-10.07998 0.847001,-0.37682 1.013974,5.82063 0.58282,1.21478 0.630361,-1.84441 1.576405,0.64282 1.88497,-1.1992 1.127399,-0.85475 1.331063,0.49678 1.366001,1.63706 -1.601414,0.99584 0.08791,0.86562 -1.010389,4.42258 0.259101,4.17552 -0.822642,4.80372 0.328427,8.04803 0.100907,0.67181 -0.682972,0.97825 -1.165039,0.77085 z m 35.65572,-0.48716 c -0.03717,-1.1257 -0.729263,-4.24524 -0.15811,-2.77313 -0.131298,-1.23527 -1.206713,0.59384 -0.81867,-2.41945 -0.752083,-2.51356 0.637697,0.50255 0.660797,-0.42115 0.521061,3.15375 0.853575,0.19997 0.966003,3.30947 0.292365,2.58284 -0.512367,1.1538 -0.51439,0.70172 -0.127979,0.26101 0.422855,2.32664 -0.13563,1.60254 z m 16.997782,-0.0302 c 0.47338,-2.20266 -1.21749,-0.0809 -1.42511,-2.07222 -1.70297,-3.85878 1.06969,2.07508 -0.96236,0.69128 -0.5589,-1.29467 -1.14605,-3.30086 -0.51681,-0.61064 -2.03333,-2.19813 -2.0832,-5.61008 -2.66113,-7.73051 1.61239,0.12701 -0.0736,-0.27476 0.38776,-0.89353 0.1804,-0.96573 1.68003,1.52159 0.11755,-0.9661 0.72206,-1.61588 2.84882,5.33512 1.21255,0.30764 -0.80183,-0.72482 -2.616904,-2.17903 -2.26761,-3.6038 -0.132202,-2.57948 1.06372,-0.17192 -0.0543,-3.27887 0.0683,-1.1838 2.3242,0.97447 2.31881,3.30454 1.20866,2.01968 -0.2138,3.85128 1.24591,5.74384 1.24438,1.65551 1.55563,8.88691 0.33476,3.87414 -1.67405,-1.32085 -1.50666,-3.35167 -1.81294,-2.12833 -2.404858,-4.52812 2.59668,5.68434 0.72979,1.67628 0.93259,-0.84831 2.84028,6.32658 1.89878,0.88505 1.67875,1.89792 1.73611,2.03141 1.64794,4.74131 l -0.1924,0.0607 z m -70.128192,-1.43396 c 0.58488,-3.58216 -0.05293,-4.87496 1.64401,-8.33699 0.791834,-1.63154 -1.993836,3.26733 -0.307736,0.16842 0.525731,-2.79444 1.292728,-4.18666 1.208636,-1.67447 -0.08603,-1.21429 -0.399411,-3.81784 0.58225,-3.64207 0.393982,0.004 -0.467154,1.44663 0.65807,0.62842 0.345565,2.23987 0.03618,1.63027 -0.87847,1.52042 0.616248,0.46919 0.229665,1.07128 -0.06586,3.75015 0.07163,2.5856 -0.46281,-2.45169 -0.802926,1.6158 0.846226,-1.47485 0.202328,1.96396 -0.41867,1.99776 -0.05313,-2.18625 -0.59303,4.60093 -0.51359,0.98489 -0.278118,-0.18925 -0.847302,3.57778 -1.10641,2.9877 z m 26.73177,-1.34296 c -0.560586,-1.58266 -0.868267,-3.0754 -0.831999,-5.37348 0.171104,-2.81541 0.58037,-1.55611 0.688293,-0.84327 0.103967,-2.57695 1.387821,-1.82837 0.410925,1.59146 0.723138,-1.8671 0.268645,2.98416 -0.302569,2.24059 -0.211734,0.20268 0.467015,3.98723 0.03535,2.3847 z m -8.21382,-2.89171 c 0.01803,-1.00857 -0.526806,-2.2175 0.52613,-5.14636 0.161857,1.6003 -0.273866,4.64722 -0.52613,5.14636 z m 4.05224,-1.86656 c -0.212587,-3.27574 0.737629,-4.73556 0.31255,-1.0989 l -0.183574,1.09092 -0.146336,0.23845 0.0171,-0.23048 z m 36.52192,-0.50053 c -0.681201,-2.8421 1.497903,1.50277 0,0 z m -1.09371,-0.23973 c -0.50063,-1.26858 -0.934483,-2.24664 -2.58773,-2.3161 -1.272312,-0.18526 -1.544123,-3.36827 -0.246666,-1.39081 0.01946,-3.60547 -0.331099,-2.86125 -0.262004,-0.89561 -2.461657,-1.58281 -1.096026,-8.30678 1.35038,-8.48727 3.73771,-2.15876 5.314331,5.15077 5.29054,6.51152 0.45702,-1.39923 0.409142,3.0308 -0.79437,3.01032 0.932494,2.27008 -0.549876,2.60032 -1.32348,2.16417 0.257759,-0.53996 -0.437613,1.09006 -1.1745,1.32046 0.345365,0.52666 -0.324449,0.76288 -0.25217,0.0833 z m 0.70587,-2.2654 c 0.349358,-1.66471 1.689168,0.72768 0.449557,-1.87687 -0.313251,0.009 -1.0631,1.38508 -0.449557,1.87687 z m -1.62417,-1.46477 c 0.81057,0.64302 0.787678,-2.41941 2.53816,-1.08292 1.286269,0.004 1.011639,-0.50854 1.224061,-2.49406 -1.81388,2.38758 -2.050222,0.9654 -2.607961,2.02405 -1.960792,-0.49141 -3.750279,1.05992 -1.340124,1.67822 l 0.185994,-0.12554 z m 18.769732,3.14356 c -1.15671,-0.13971 -1.51452,-2.36583 -0.49929,-3.42545 0.17585,0.20516 1.55018,1.47434 0.76225,0.72898 0.60683,1.47464 0.18691,0.94334 0.12043,3.55948 l -0.3833,-0.86312 z m -16.094482,0.60741 c -0.151504,-2.62744 1.133574,1.00634 0,0 z m -56.89773,-1.08604 c 1.162992,-5.52829 0.973526,-0.65657 0,0 z m 58.30106,-0.62155 c -0.813151,-3.49895 1.303057,0.16881 0,0 z m -48.25784,-1.02794 c 0.117033,-2.4171 1.151883,-5.36487 0.740278,-0.99939 -0.282555,0.47013 -0.936558,3.47459 -0.740278,0.99939 z m 58.051932,0.83107 c -0.73281,-1.39698 1.37189,-1.83593 -0.5443,-2.10481 0.97764,-0.6919 5.0942,-1.98884 2.60628,-0.16433 3.17014,-0.74911 -1.66433,1.90341 -2.06147,2.26885 z m -19.302742,-0.74644 c -0.443328,-3.02618 1.518362,1.8914 0,0 z m 22.634662,-0.60767 c -0.52663,0.35285 1.43666,-2.07909 -0.81977,-2.48909 1.27281,0.72182 -0.14521,-3.61146 -0.99305,-3.72925 -0.23062,-3.10528 1.66548,0.0555 1.641,2.18942 0.51765,-0.52373 -1.36348,-2.74697 -0.0764,-4.40885 1.05413,0.94477 -0.10393,2.63956 0.73347,2.33294 0.10115,1.30953 0.49082,2.08422 0.0652,2.22168 -0.64121,2.11679 2.09426,-1.92322 0.41315,2.06265 0.0717,-0.43198 1.73158,-2.77263 2.42509,-2.49006 -1.22252,1.32345 3.29548,-2.14332 0.50951,0.44038 -2.65356,1.87433 1.13051,-0.48957 0.70579,0.26383 1.29964,0.43916 -0.0575,0.88641 -1.86218,1.65332 -2.4602,-0.29052 0.96314,2.35802 -2.089,0.83658 -0.206,1.20518 -0.64771,1.62609 -0.65286,1.11645 z m -22.356802,-0.61884 c -0.897049,-1.91377 -1.900369,1.19727 -2.35546,-2.39205 0.434594,-1.08316 -1.942346,-2.65375 -0.140026,-3.70201 1.00313,0.22334 0.194233,3.19902 0.946946,-0.24562 -0.458899,1.75159 -1.485962,-5.92682 -3.65295,-7.7901 0.01038,0.13703 -0.596004,-4.18881 -0.22112,-4.29958 0.06088,-2.35658 2.771292,6.86977 2.46025,4.84387 1.462968,0.75537 2.674162,2.54277 3.70669,4.20717 0.351904,2.38788 -1.498442,4.3638 -1.643707,2.18856 0.510553,5.69135 0.937063,-0.91139 2.408967,-1.82343 1.1026,0.0765 -1.825038,-0.69627 0.38911,-2.63205 0.788214,-3.58096 6.700698,1.85676 4.7531,-0.45877 0.159841,-2.06918 -0.724568,0.84121 -1.33707,-3.00465 1.459469,2.22275 -0.532342,3.26296 -1.66184,1.69166 -0.111051,-0.30213 0.03384,-7.0961 0.28669,-5.92863 0.149039,1.80834 -0.108769,-1.95469 1.35426,0.79853 1.596507,1.18149 3.859029,7.33238 2.042011,5.19012 1.160923,1.38872 3.642776,4.11741 2.627359,1.47989 3.532242,1.02832 1.948264,5.20429 1.83611,8.04536 -1.706591,1.34954 -1.683645,-1.82015 -1.08817,-2.58296 -0.486586,2.68056 -2.067936,1.70016 -1.6528,-0.90848 0.261375,-1.54822 -0.754473,-1.93381 -0.59097,-0.52404 -1.984343,-2.72903 -1.009678,-1.3954 -3.247747,-2.48732 -0.0332,1.28087 -0.531277,-1.46215 -1.189903,0.24053 -2.621425,2.9306 -0.428963,-2.96904 -1.80394,0.92148 0.237722,1.72947 -0.644777,2.71945 -0.75599,2.45966 0.264048,2.61364 -0.926543,1.61552 -0.13197,2.68814 0.09261,-1.23915 -0.42938,3.00263 0.20494,2.96689 -0.412458,-0.54618 -1.535199,2.46645 -1.54277,1.05783 z m 8.38533,-9.85446 c -0.282062,-1.56372 -2.680569,-2.48766 0,0 z m 16.503062,9.0885 c 0.58517,-1.32793 2.74016,-0.51513 0,0 z m -69.355812,-0.42106 c -1.079061,-0.81592 -3.971046,-2.00408 -3.02753,-2.59561 1.389002,-1.67647 -4.217141,2.73255 -1.27532,-0.56815 -0.212442,-2.8334 0.692521,0.38247 0.70458,-3.76188 -0.688658,-1.58126 1.718301,-3.44031 1.19089,-1.69444 1.500463,-0.19835 -0.734182,4.233 0.35103,2.50389 0.309276,1.65261 -0.774393,1.71093 -0.73511,1.60981 -2.162419,1.06602 1.443201,0.0996 0.49459,1.34084 3.86678,0.48095 1.766668,2.17601 2.29612,3.16496 z m -2.82399,-6.72374 c 1.039115,-3.39387 -1.437103,0.85109 0,0 z m 12.79035,5.73837 c -0.120327,-3.52776 -1.330465,1.23364 -1.29106,-1.32369 -0.296448,2.29574 -0.274595,-2.92645 -1.383915,-3.5323 0.07525,-3.35937 1.045209,-8.72509 4.654632,-8.84977 1.557307,0.4206 4.311058,3.6774 2.901093,6.59685 -1.695909,0.59233 -1.65292,1.4034 -2.056988,1.56649 1.350176,2.59439 -2.561222,3.101 -1.062092,3.2188 0.184238,1.11317 -2.399641,1.31378 -1.76192,2.32323 z m -0.22263,-2.87255 c -0.318038,-4.14642 -1.647557,0.30058 -0.60507,-0.66836 0.145032,-1.30823 0.176841,1.27186 0.60507,0.66836 z m 2.21781,-1.66221 c 1.848541,-3.22376 -3.892081,-1.15479 -1.815526,-1.1367 0.04876,1.69017 0.588839,0.48763 1.815526,1.1367 z m -3.52539,-0.27191 c 1.787229,-1.09443 -1.485423,-3.15105 -0.52438,-1.18768 1.068228,1.68045 -0.878801,0.37351 0.52452,1.18775 z m -11.68812,4.95497 c -2.043133,-4.03432 1.275062,0.444 0,0 z m 12.51231,-0.26949 c -0.606034,-2.77901 1.422259,0.66175 0,0 z m -14.98575,-1.87072 c -1.566783,-0.0507 -3.209491,-2.5735 -0.741925,-1.16733 -1.125626,0.14239 -0.563544,-3.35751 0.368875,-0.29045 -0.40154,-2.69815 3.737624,3.07776 0.37305,1.45778 z m 36.33782,-1.96118 c -0.14969,-2.01339 -0.582905,-3.00449 -0.02518,-5.58613 -0.351148,-0.77963 0.746841,-2.50491 1.010678,-0.5135 0.17037,0.85467 -0.221363,3.17509 -0.0063,3.43815 0.184002,0.26917 -0.519103,2.07369 -0.35305,2.23163 -0.422575,-0.81431 0.0888,0.41203 -0.472742,2.34768 -0.130625,-0.62966 -0.05904,-1.28524 -0.153368,-1.91783 z m -5.01169,0.96704 c 0.479759,-1.16291 -1.635179,-5.99321 -0.31377,-3.72547 0.476167,-3.64198 0.813541,4.0517 0.31377,3.72547 z m 16.28979,-1.51687 c -0.151538,-1.41237 -0.392042,1.46285 -0.79931,-1.55388 -1.775301,-3.81976 1.964296,1.76863 0.79931,1.55388 z m -3.41634,-1.02795 c -0.273437,-1.04729 -0.390371,-2.79824 0.22824,-0.52224 0.21837,0.31858 -0.09318,2.26028 -0.22824,0.52224 z m -40.29492,-0.28637 c 0.302114,-1.75371 0.04761,1.02891 0.56981,-1.54503 0.148601,-0.0879 -0.04868,2.80636 -0.56981,1.54503 z m 23.53456,-0.53771 c 1.755918,-3.12715 -0.900788,1.82882 -0.03842,-2.31662 1.515309,-0.99899 -1.489518,-1.22189 1.10303,-3.26605 2.909705,-1.55968 -0.846693,-0.34324 -0.547013,-0.22338 0.422901,-1.26305 1.079904,-3.2665 2.295886,-4.68403 1.11429,-0.68087 -0.497723,0.46911 0.659897,0.16146 -0.125602,2.28526 -1.631845,5.81346 -0.42316,3.60779 0.569503,1.83566 -0.254002,1.77221 0.83354,0.31113 -0.409549,1.3035 0.583706,2.56675 -1.72234,3.7017 -0.382137,-1.31599 -0.953158,3.00944 -2.16142,2.708 z m 17.96887,-2.80937 c -0.749167,1.06027 -1.283177,-4.62245 0.71254,-0.67419 0.734635,1.93067 2.583273,5.6747 -0.71254,0.67419 z m 25.532412,2.11311 c -1.91749,-5.45256 0.96485,-2.75629 -1.2e-4,4e-5 z m -67.276532,-1.14674 c 0.318372,-3.13726 1.719193,-0.94634 0,0 z m 65.485022,-0.34727 c -1.40055,-2.03756 -0.6739,-1.58835 0.72046,-1.8072 0.8938,2.14292 -2.40639,0.99556 0.17323,1.6723 1.01947,0.17109 -1.06543,0.6105 -0.89369,0.1349 z m -18.306552,-0.44453 c -0.829235,-1.45577 -0.108576,-1.55196 -1.58992,-1.6493 -2.375609,-0.50366 -2.921454,-2.58739 -2.78459,-3.97638 -1.048936,-0.61294 -1.321959,-3.26721 -1.69931,-4.94767 0.142336,-3.72899 2.509319,-7.63911 6.58538,-6.04537 1.111601,0.82245 -2.041013,6.98571 2.05945,7.94134 1.353916,2.28734 -0.271197,5.53393 -0.34775,6.90045 -0.662824,-0.0151 -1.81064,0.93373 -1.96815,2.30599 -0.200175,0.0818 -0.324643,-0.72576 -0.25511,-0.52906 z m 1.13337,-1.953 c -0.356436,-1.03967 1.41939,0.23645 0.22741,-1.52799 -0.43774,0.14924 -1.15315,2.00256 -0.22741,1.52799 z m -2.66816,-1.11158 c 1.706726,-0.88601 0.885157,-0.0408 2.04436,-0.91121 0.57576,-0.92553 2.161977,-0.71515 2.12725,-1.413 -0.107447,2.2179 0.423678,-4.41148 -0.664543,-0.34702 -1.458475,1.3488 -0.419284,-0.59863 -1.985267,1.44925 -1.722643,-1.29346 -3.475804,0.23289 -1.52166,1.22198 z m -1.25999,-0.44157 c -0.26255,-3.13675 -0.319258,-3.31089 -0.643068,-2.12266 0.905835,2.32455 -1.48259,-0.96067 -0.119133,1.85772 0.165857,0.15968 0.559868,0.70008 0.762201,0.26494 z m 18.849662,3.85271 c -1.39234,-0.92009 -0.62507,-3.04315 -0.33574,-2.24253 1.57101,0.28694 1.20279,0.61683 1.48815,1.25265 -1.0373,0.27839 -2.18417,0.70438 -0.25114,0.7574 1.45797,-1.33965 -0.32904,1.01198 -0.90127,0.23248 z m 4.565,-0.89406 c 0.54682,0.10997 1.88191,-0.0631 2.08402,-1.52378 0.0497,1.0426 -1.00101,2.38757 -2.08402,1.52378 z m -6.7867,-0.12004 c -2.11789,-2.43581 0.33952,-2.28375 -0.3122,-2.2506 1.10042,0.40828 1.56958,0.39197 1.1651,1.22276 -1.10955,0.37857 -2.51167,-0.67383 -0.41641,0.94562 0.82022,-1.0636 1.14981,0.55022 -0.43649,0.0822 z m 6.95152,-0.1708 c -0.443,-1.02982 -0.39664,-1.17625 0.41161,-2.30531 0.42553,-0.48536 2.02539,1.63779 0.15801,1.99679 0.32687,0.31755 -0.39511,0.50778 -0.56962,0.30852 z m -67.548722,-0.50784 c 1.508496,-1.41233 -1.875914,0.0864 -1.13596,-1.31478 -0.712217,-1.21183 1.412844,-1.64551 0.44652,0.0599 1.225585,-1.38848 1.029649,-1.74395 1.509536,-0.0293 0.03187,-0.0842 0.198366,2.28234 -0.820096,1.28419 z m 35.34746,-0.30774 c -1.397625,-0.66662 -2.304102,-0.86807 -1.749141,-1.93857 -1.155823,1.40463 0.841882,2.28695 -1.098923,1.34535 -0.733029,1.46818 -0.545819,-2.94245 0.524444,-1.39496 0.370515,-0.62717 4.374701,0.59398 1.106649,0.84824 1.264896,-0.1657 1.359651,0.66045 1.216971,1.13994 z m 19.18403,-0.40404 c -2.040239,-1.78024 -0.673685,-4.37412 -1.353433,-3.64121 -1.342861,-2.08511 1.722408,-4.52953 1.806329,-0.55791 1.548552,2.90635 0.130112,1.62118 -0.702026,0.42974 0.584495,1.62315 -0.290569,1.1209 -0.5649,0.65273 -0.125888,0.16377 1.96877,4.63204 0.81403,3.11665 z m 9.268512,-0.22842 c -1.61133,-0.90113 -1.22473,-0.80746 -0.51655,-1.85038 0.15894,1.60522 3.17208,2.02766 0.51655,1.85038 z m 6.13588,0.0866 c -2.39642,-2.31457 0.7894,-4.63211 1.31974,-2.18157 0.97772,-0.69674 0.0256,3.04722 -1.31974,2.18157 z m 0.3403,-0.18821 c 2.03541,-1.33848 0.4493,-0.96263 -0.17557,-0.71973 1.23066,-1.84589 -1.2119,0.3675 0.17561,0.71975 z m -4.86995,0.12694 c -1.96249,-1.64763 -1.9196,-1.74823 -1.00479,-2.90926 1.04589,-1.60024 1.78483,-6.45279 2.8239,-6.86837 -0.28875,2.62376 0.17608,-2.21339 0.54957,-1.82744 1.92279,-1.41952 0.73269,-0.2816 1.97595,-1.6485 1.11874,1.04969 0.55451,4.60376 1.28748,3.43472 -0.35958,3.27061 -1.25796,1.63194 -2.32111,5.54623 -1.31636,0.45635 -0.45573,4.95858 -3.311,4.27262 z m -64.081222,0.0291 c 1.491215,-0.64212 0.664316,-0.22236 -0.03872,-0.98265 -0.318061,-0.15165 0.579384,-2.29706 1.38891,-0.83084 -0.0687,0.01 0.321388,2.33133 -1.35019,1.81349 z m -3.81341,-0.0631 c -1.923474,-1.77956 0.212469,-2.20302 0.888229,-1.38239 -0.324178,1.39752 -2.401038,0.64351 0.01074,1.20689 -0.205714,0.25775 -0.608698,0.36682 -0.898971,0.1755 z m 33.73949,-0.27921 c -1.539433,0.40754 -1.160852,-1.04214 -0.680331,-1.70245 -0.530649,0.30089 3.715865,1.16753 0.680331,1.70245 z m 27.338082,-0.93331 c -1.247515,-4.69643 1.82235,1.90583 -0.16681,-1.03955 -0.462615,0.70427 2.04388,2.05368 0.16681,1.03955 z m 2.12537,0.0671 c -1.47311,-1.44752 -1.85475,-0.78085 -1.93123,-3.42771 0.48682,0.53298 0.85501,-1.91664 1.42184,0.28995 0.10114,0.92297 1.80581,2.28635 2.82987,2.10826 0.035,0.6142 -1.87362,1.50708 -2.32048,1.0295 z m -57.545582,0.005 c 0.432131,-0.10418 2.025944,-1.79384 0.05844,-0.52283 0.914948,-1.13082 -1.245432,0.0816 -0.48315,-1.09507 0.98434,-1.57953 1.533144,0.76659 1.135012,-1.47528 -0.132224,-2.40868 1.552107,4.1689 -0.710302,3.09318 z m -7.62102,-0.0858 c -1.28808,-2.15041 0.445974,-2.32677 0.825805,-0.73153 -0.416827,0.37022 -1.996336,-0.33485 -0.391465,0.50282 1.086504,0.15203 0.233267,0.6533 -0.43434,0.22871 z m 24.51456,0.0209 c -2.451743,-1.05871 2.175949,-3.05057 0.34384,-0.3983 l -0.29204,0.46451 -0.0515,-0.0663 z m 12.59489,-0.21155 c 0.294229,-1.56774 -1.148931,-3.43138 0.09279,-3.49133 -0.320533,-0.90841 0.838495,-3.54648 0.111854,-0.97769 0.435266,2.62034 -0.607292,1.09171 1.186732,1.25512 -0.858141,1.57165 -0.190127,1.50924 -0.862937,2.99993 -0.211783,-0.11228 -0.421121,0.76186 -0.528439,0.21397 z m -14.35638,-1.45422 c -1.986844,-2.01677 1.1518,-3.58483 1.8986,-4.57023 0.348324,0.14398 -0.118748,0.33909 0.68921,0.0918 1.478711,2.05711 -1.119369,4.78178 -2.07889,5.29265 l -0.50882,-0.81427 z m 49.909422,0.63195 c 0.33435,-1.43203 2.11974,-5.34189 1.64058,-2.96425 0.51504,-2.51615 -0.0132,0.78963 0.58153,-1.7129 0.19476,1.74036 -1.75089,4.20441 -2.22211,4.67715 z m -69.762722,-0.0842 c 0.677468,-0.73906 1.610114,-1.18201 1.79945,-2.10853 0.875339,-1.48468 0.26331,2.90083 1.26217,0.29394 -0.107268,1.5295 -1.927574,1.99663 -3.06162,1.81459 z m 64.200672,-0.11223 c -1.07808,-0.56488 -4.727967,-4.46923 -1.35231,-5.30303 -0.46282,-0.52475 1.85588,-4.87668 2.2617,-7.47305 -0.12249,1.04832 0.81848,-0.38144 0.42774,1.98417 -0.22473,-2.63041 0.59898,-3.9496 1.55401,-4.64464 2.90586,0.10768 3.65605,2.55031 2.96673,5.344 -2.4452,1.11741 -1.43602,1.87976 -2.98549,5.1702 -1.77012,2.78534 0.38759,2.34507 -2.2179,4.94886 l -0.65448,-0.0265 z m -60.863962,-0.0658 c -1.577013,-0.42038 3.034236,-1.53909 4e-5,-8e-5 z m -4.52027,-0.19894 c -1.695329,-2.49931 -2.832261,-7.43809 -3.523075,-7.22641 -2.765305,-0.51303 0.512735,-8.45874 0.802035,-4.74039 1.965776,0.93355 1.395835,4.90067 1.90562,2.18641 1.243893,2.97833 1.986872,3.49428 2.22253,5.89915 2.320785,1.04979 1.148827,3.71083 -1.40818,3.88132 z m -0.61168,0.12882 c -2.074557,-2.58036 -2.253675,-5.45452 -3.726993,-5.45022 -0.592303,-2.86464 -1.261961,-5.47479 0.787583,-1.50143 -0.625892,1.68256 1.273234,0.16381 1.95598,3.90776 -0.0426,0.72813 1.572227,3.13453 0.98343,3.04389 z m 74.877282,-0.18517 c 1.67575,-0.74086 1.77201,-2.11469 0.31434,-1.02882 -1.0431,5.3e-4 -1.38628,-0.67964 -0.3179,0.83989 -1.98901,-0.10778 0.0358,-4.58136 -0.57542,-2.44074 1.62473,-1.36351 4.08981,1.44683 0.57898,2.62967 z m -77.421422,-0.3791 c -0.925293,-2.27842 0.40728,-2.46552 1.073887,-0.96445 -0.933568,-0.10461 0.515492,1.62165 -1.073887,0.96445 z m 10.50029,-0.0512 c 0.09748,-0.55344 -0.649601,-1.89071 0.38533,-2.16157 0.595655,0.0528 1.164643,2.28289 -0.38533,2.16157 z m 51.99437,-0.82213 c -1.75797,-1.66713 -2.295095,-2.05053 -0.34384,-0.12784 -3.083247,-0.96738 -2.970094,-7.89759 -0.910316,-3.65246 -1.744937,0.42707 2.044885,0.64261 1.444286,1.69161 -1.800583,-1.41052 0.33104,0.83806 1.14089,0.29511 1.957672,-0.40644 -0.50175,2.96323 -1.33102,1.79358 z m -54.97318,-0.3999 c -2.098574,-1.56752 0.388725,-0.52423 1.51038,-3.03164 0.650463,-4.20652 1.49255,1.33468 1.555421,-0.43878 0.357657,2.12177 -1.439751,3.73514 -3.065801,3.47042 z m 50.11013,-0.72158 c -1.733306,-2.669 -3.782874,-0.84376 -4.116446,-3.89935 -1.596446,-3.57775 1.170225,-2.18909 0.511196,-4.53214 1.187063,-2.74285 1.179866,1.25475 0.37516,0.69359 1.415829,-1.44324 0.848739,3.8812 0.50204,1.97634 -0.351327,2.85286 0.377589,-0.30296 1.92453,2.61272 1.890578,0.96218 2.35131,1.59872 2.56206,1.07628 -0.257823,2.64522 -0.271731,-0.50269 -1.11125,2.38718 -0.249367,0.22095 -0.60974,-0.0403 -0.64729,-0.31462 z m -34.27393,-0.0167 c 0.0015,-0.91404 -2.719893,-0.0134 -1.452568,-1.91032 0.224874,0.14134 1.69432,0.79058 1.863908,0.59071 0.123555,0.0444 -0.235429,2.22745 -0.41134,1.31961 z m -4.07387,0.1005 c 0.434173,-1.0535 3.500466,-5.38626 1.88819,-0.8911 0.133109,-0.42386 -1.216102,1.10317 -1.88819,0.8911 z M 47.172128,180.82 c -0.368896,-0.58362 -0.180858,-2.07166 0.91724,-1.49903 -0.499967,2.71111 0.414876,-0.86873 -0.63693,1.02205 0.01902,-1.46821 -0.267918,2.10066 -0.28031,0.47698 z m -11.6866,0.23258 c -3.097807,-2.62175 1.534246,-1.50214 -0.1854,-0.89542 0.253882,0.91361 -1.616499,-0.84531 -0.09257,0.60118 1.167725,-1.42977 1.284127,0.63715 0.27797,0.29424 z m 28.06901,0.1442 c 0.136691,-1.70246 1.972913,-2.4293 0.356392,-0.31785 l -0.356352,0.31782 z m -21.67426,-0.68737 c -1.696849,-1.02602 -2.061007,-6.10572 -3.85728,-8.25212 -1.164945,0.96597 -2.181695,-4.99525 -0.10857,-5.77704 1.699012,-1.34186 0.770726,1.62146 2.361774,-0.38287 2.10161,1.69608 0.74769,3.72316 1.485886,3.49404 1.292567,2.63671 1.754764,5.30306 2.64392,5.40376 2.091986,1.41703 0.0057,3.76303 0.03901,3.67868 -0.966811,2.68908 -3.38775,-0.21606 -1.479761,1.89574 -0.275931,0.1939 -0.888456,0.35982 -1.08498,-0.0602 z m 57.80929,-0.18183 c -0.09754,-1.93278 1.371272,-1.17018 -0.84424,-0.7893 -2.860816,-0.92534 -2.91357,-5.16189 -0.88197,-6.22912 1.238925,-3.75315 2.946272,-5.93288 2.830422,-8.25388 -2.00353,0.89116 2.45985,-5.00015 2.23854,-2.17183 -1.3868,-0.18995 3.97388,0.7824 3.94982,2.57915 -0.71767,1.49662 1.33223,2.86434 -1.39956,3.74072 0.0526,0.88773 -0.43619,0.5947 -1.0808,1.30884 0.47483,-0.83971 -3.01294,8.83466 -2.45304,7.21477 -0.51595,-3.60696 0.51932,2.992 -1.48978,2.70842 l -0.46272,0.0686 -0.406372,-0.17637 z m 4.376552,-11.90373 c 1.32222,-0.52371 2.49957,-1.18934 0.86261,-1.17876 0.21809,-1.54747 -1.54818,2.58914 -0.86261,1.17876 z m 10.33723,11.81799 c 1.20982,-1.3944 0.89369,-3.41711 0.37541,-0.80899 -0.55791,-0.072 -1.89867,0.31558 -1.43346,-1.76816 0.60364,-0.52008 2.17277,-1.60201 2.12313,0.80838 0.22285,0.54468 -0.65025,2.08537 -1.06508,1.76877 z m -1.00032,-0.24284 c -1.00493,-2.33023 0.0945,-4.02884 -0.19207,-0.46262 -0.66279,-0.73495 2.68038,1.70958 0.19207,0.46262 z m -54.292332,-0.6622 c 0.417055,-2.77053 0.806555,1.03345 0,0 z m 16.21122,-0.0455 c -0.163408,-1.91307 -0.903626,0.88963 -0.83893,-1.13422 0.333208,-1.80654 1.626912,-0.90631 1.39647,0.79728 0.510476,-0.41298 -0.502887,1.13193 -0.55754,0.33694 z m 0.91046,-0.4547 c 1.253137,-0.63929 -1.957196,-0.54425 0.327678,-2.32824 1.381713,-0.004 1.015617,3.06335 -0.327678,2.32824 z m -27.70469,0.10452 c 0.738306,-0.1491 1.701654,-1.46127 1.76487,-2.91679 0.794689,-2.12957 -1.020361,-4.35333 1.06106,-4.06329 2.304853,-1.03974 0.991884,2.79914 0.58814,4.02995 -1.294919,-2.50615 1.042469,2.86557 -1.335521,2.75386 0.315981,-1.39846 -0.461544,-2.85179 -0.241375,-0.0767 -0.64153,-0.68428 -1.104894,0.8198 -1.837174,0.27301 z m 25.1608,-0.40335 c 0.87413,-3.98817 0.552931,-0.60483 0.525127,0.32346 l -0.150032,-0.0154 -0.374755,-0.3081 z m 19.87616,-0.21293 c -1.598955,-1.59047 -2.176236,-1.40753 -2.04331,-4.52391 0.934025,1.21856 0.57437,2.68255 3.484947,2.61731 1.729202,-0.29234 -1.036104,1.05359 0.607403,0.84426 0.178506,0.84249 -0.450153,1.81598 -2.04904,1.06234 z m -46.16449,0.23884 c -1.001553,-0.65706 -0.889317,-1.51492 1.03021,-2.25173 1.056781,-0.39829 1.941908,-4.98125 1.759137,-0.88191 -0.257006,1.11676 -0.476942,2.76725 -2.789247,3.13389 z m 30.40862,-1.09922 c 0.918179,-0.19524 -1.863581,-1.99025 0.7387,-2.15028 0.443221,-1.44766 0.883079,2.92692 -0.7387,2.15028 z m -5.42838,-0.18507 c -1.178188,-3.74432 2.279307,-0.83211 0.62218,-0.0496 0.639533,-0.22614 -0.526833,0.81987 -0.62218,0.0496 z m 30.547612,-0.47994 c 0.23653,-1.19258 0.45507,-2.68797 0.82177,-2.694 -0.43379,-1.0897 1.69791,-1.70426 0.86797,-1.10608 -0.17888,1.66849 -1.51387,2.95546 -1.73902,4.00157 l 0.0496,-0.20186 z m -27.641242,0.0694 c -2.703139,-0.13161 -3.655926,-6.7197 -1.56613,-2.14849 0.683142,0.54009 -3.525964,-5.37696 -0.52641,-2.77311 1.034912,1.34019 1.270453,1.58221 3.19782,0.50494 2.037276,-0.002 2.663795,-4.27599 3.73113,-6.32957 2.405971,1.26472 -0.363713,0.52402 0.94136,2.07075 1.057105,-1.0978 0.441814,3.00875 -0.03742,0.94405 -0.117194,-0.71593 -1.350826,1.58703 -0.620766,-1.56557 -0.247377,2.50764 -0.917064,4.07945 -2.147427,6.99487 -1.324821,0.86008 -0.174353,-1.59013 -1.5913,-0.10493 -0.659288,1.4369 1.347951,-0.20719 0.400686,1.94384 -0.946699,-0.42832 -0.980343,0.87313 -1.781539,0.46322 z m 0.57823,-0.45403 c 1.921264,-0.57756 -1.733648,-0.81882 -0.927524,-0.13011 -1.802574,-2.31923 -0.156466,0.70546 0.927524,0.13011 z m 37.240712,0.0556 c -1.42699,-2.36949 -0.6296,-2.92987 0.37932,-2.92328 0.83606,-3.11372 3.10817,4.48801 -0.37932,2.92328 z m 0.90474,-0.1941 c -0.59058,-0.3037 -2.65339,-3.38766 -1.06764,-0.13755 -0.3875,-0.76387 0.9195,0.75745 1.06764,0.13755 z m 0.34393,-0.14803 c 0.7641,-3.82661 0.54907,-1.27699 -0.21261,-0.35838 0.12044,0.0311 -0.0918,1.05104 0.21261,0.35838 z m -66.535492,0.44246 c 1.634016,-2.73721 1.54532,-0.6919 0,0 z m -1.06638,-0.0133 c -2.388009,-2.53894 -0.653604,-0.62187 -1.08053,-1.7183 -0.541078,-4.25901 -0.129189,2.52062 -0.88984,-1.64354 -1.176399,-3.33511 -2.314027,-4.38479 -3.316644,-6.20773 -1.161374,-1.17734 1.31112,-2.52276 -0.432616,-1.67408 -0.73813,-4.16591 3.17121,-1.5541 3.650669,-3.2418 2.020818,1.92333 0.38225,2.36944 1.762322,2.36345 -0.186931,1.69636 1.499241,5.99871 2.737024,6.34586 1.614109,3.57946 -0.464285,3.19419 -1.948419,5.8036 l -0.289205,0.0856 -0.192931,-0.11273 z m 47.33209,-0.52659 c 0.02717,-1.51891 -3.962238,-1.61287 -2.425908,-4.82978 2.009675,-1.70182 0.600079,-0.67619 2.168802,-3.85722 1.257588,-2.81508 1.099113,-4.53846 1.714836,-5.63475 1.918634,-2.69651 0.813485,0.0526 3.92541,-1.08592 1.257842,2.03236 0.155147,2.07246 0.760122,3.29112 0.0723,2.47725 -1.228378,1.38634 -1.590664,2.90342 -1.355475,1.67104 1.491714,-1.43896 -0.34105,1.47697 -1.580965,2.94838 -1.259258,4.38566 -2.334498,6.91825 0.194846,-1.08338 1.275942,-3.79977 0.13828,-1.39992 -0.75523,-3.48422 0.523834,1.21497 -1.21126,2.36301 l -0.433509,0.0368 -0.370291,-0.18219 z m -14.82315,-0.67599 c 0.06891,-0.87932 -1.740688,-0.86708 0.04952,-2.5366 1.463683,-0.10679 1.238166,2.68211 -0.04952,2.5366 z m -8.06394,-0.34457 c -1.833859,-4.14672 2.934016,-1.45853 0.46604,-0.21794 -0.281121,-0.19138 0.737665,1.04356 -0.46604,0.21794 z m -2.28129,-0.19504 c -0.623521,-3.31019 -1.272889,-7.31991 -2.672726,-7.93488 -1.183975,-1.26053 -1.215033,-1.74424 -1.830664,-0.79073 -1.334923,0.0811 0.88379,-3.27163 1.753378,-3.73966 1.31884,2.02377 3.370078,3.13292 3.466362,6.42907 -0.339998,1.08435 -0.830045,3.99022 -0.51294,5.72512 l -0.063,0.81279 -0.14118,-0.50202 z m 14.04136,0 c 0.02409,-1.27477 0.31346,-2.18876 0.66024,-1.86821 1.352666,-2.86078 0.513039,1.9684 -0.66024,1.86821 z m -14.59302,-0.16734 c -0.78407,-2.11004 1.248871,-0.1927 0,0 z m -23.79858,-0.0104 c -0.711131,-0.66043 -1.865492,-2.644 -1.92397,-3.6472 0.739713,-0.90366 0.914171,-0.069 1.35549,1.73637 -0.274611,-2.75801 1.256189,2.37214 0.56848,1.91083 z m 70.593232,-0.46961 c -1.93209,-1.86703 -1.19863,-4.75645 -3.30046,-6.26937 -0.27075,-2.65204 -2.89148,-2.76617 -3.05464,-5.58135 -2.58022,0.10873 -2.63819,-3.76744 -5.25097,-2.78436 -0.93299,-3.00676 -3.68604,0.22841 -3.01748,-1.22189 -1.476617,-1.93211 -4.567879,2.41131 -2.791058,-0.88161 2.449748,-1.45863 -1.94665,0.71577 1.124946,-1.33585 1.327922,-1.60979 4.214552,-0.94216 4.555162,-1.5298 1.67493,2.17844 -4.925033,0.88287 -3.829342,1.48444 2.479902,-1.00569 7.079252,2.08464 4.423122,-1.17017 3.571,-0.17625 7.03737,4.07391 8.3504,7.31643 0.13865,1.76868 0.49664,2.79847 0.19794,0.1555 1.7968,3.3338 3.09369,8.48963 2.92296,11.41641 0.0578,-1.82767 -0.17293,1.27054 -0.33058,0.40162 z m -81.046492,-0.29488 c 0.157865,0.41225 -0.775527,-2.83099 0.46791,-2.13744 0.237541,-0.29765 0.04692,3.37519 -0.46791,2.13744 z m 33.66117,-0.0354 c 0.107967,-3.60868 0.894249,-1.28967 0,0 z m 29.48188,-0.40894 c -0.533029,-0.69058 1.055908,-5.00127 1.360565,-4.71527 0.817436,-1.43312 -0.391842,0.70409 1.013415,-0.76568 -0.786774,1.2441 0.04248,1.31837 -1.18721,3.82885 -0.798492,1.21882 -0.694724,1.32396 -1.18677,1.6521 z m 14.273412,-0.65878 c -1.40507,-2.77055 -0.20502,-2.90222 1.41408,-3.42183 1.49296,0.97082 0.63709,4.73956 -1.41408,3.42183 z m 0.91181,-0.0255 c 2.20876,0.14334 -0.28894,-4.67208 0.76301,-2.63426 1.04152,3.62994 -2.9584,1.08059 -2.22965,0.95254 0.57227,0.51482 -0.49592,1.35523 1.46664,1.68172 z m -32.519122,0.15665 c 1.868731,-0.57256 -0.44963,-1.11076 -0.275188,-0.74475 0.100337,-4.87415 3.616382,0.66655 0.275188,0.74475 z m -5.4329,-0.17572 c -0.736233,-2.71893 -2.020811,0.56003 -2.32208,-2.5903 -1.374725,-2.05551 2.334611,-2.6518 1.68679,-0.61005 1.51286,-1.29483 1.623363,0.05 3.53876,-1.41328 1.731558,0.81425 -0.44089,-1.35531 -1.94553,0.5119 -0.609146,-2.52534 2.217717,-0.49949 2.555796,-1.89377 1.415451,0.50789 -0.10559,2.06469 1.400374,-0.0165 0.394025,2.75515 -1.849686,1.8599 -1.5755,2.7638 -0.290738,-0.96606 0.183482,3.65072 -1.991867,2.36982 -0.455679,0.18407 -0.648582,1.35546 -1.346743,0.87838 z m -3.89711,-0.2432 c -1.711197,-4.20409 2.742797,-1.58971 0.38572,0.0657 0.277858,0.21845 -0.700909,-0.0168 -0.38572,-0.0657 z m -2.88136,-0.12119 c -0.681417,-3.38159 0.867561,-0.32457 0,0 z m 16.59585,-0.97636 c 0.530083,-2.43814 -0.4121,1.2514 -0.37783,-0.56165 -0.144585,-3.25479 4.921814,-1.04645 4.001271,0.56473 0.989143,0.32746 -4.093725,1.20111 -3.623441,-0.003 z m 5.38936,0.23622 c -0.850487,0.19576 -1.948408,-0.95521 -3.206923,-3.56654 0.747212,-1.3264 3.425034,1.2571 3.659793,1.81241 0.201713,0.35271 0.48247,2.97107 -0.45287,1.75413 z m -39.66383,0.18227 c -0.127324,-2.20358 1.039521,-1.81847 -0.87836,-1.24691 -0.522286,-0.78606 -2.527953,-3.47864 -1.692877,-3.70041 -1.516309,-2.04064 0.0039,-1.23606 0.827261,-1.28366 0.06529,2.95162 4.959135,1.51369 3.035516,4.17996 -1.772655,-1.59004 1.436212,2.17861 0.14794,1.30096 0.40732,1.33083 -1.462125,-0.19463 -1.43948,0.75006 z m 40.73888,-0.41369 c -0.886384,-2.32741 2.825036,-2.15757 0,0 z m 25.146712,-0.28582 c 0.10473,-0.77142 -0.41775,-0.37151 -0.80732,-1.45102 0.23792,-2.48992 1.99732,-2.87356 1.50157,0.57644 0.14088,-2.09979 -0.55659,2.14416 -0.69425,0.87458 z m -81.320882,-0.2485 c -1.080056,-3.78969 1.980084,-2.10667 1.756456,-1.33916 -0.0263,0.89572 -0.08377,-0.94615 -0.602176,0.65707 -0.901201,0.30661 -2.111147,-1.12356 -0.85248,0.54391 0.277944,0.46245 0.191803,0.76269 -0.3018,0.13818 z m 17.31609,-1.05338 c 0.376719,-2.97037 -0.266864,-5.03507 -1.48255,-9.58163 -0.520983,-2.82405 -4.759478,-3.71033 -5.503338,-4.94399 1.421388,-2.15631 4.048145,-1.97068 5.898508,0.0294 3.014335,2.91255 3.399716,8.31523 2.979178,12.52724 -0.442606,0.58312 -0.70967,1.2578 -1.354448,2.51235 0.321514,-3.24802 -0.192565,0.72617 -0.22625,-0.25989 -0.08558,2.22321 -0.525185,0.26959 -0.3111,-0.28347 z m 39.91958,0.17117 c -0.587525,-1.86736 -1.56801,1.31106 -1.39769,-1.84751 1.52016,-1.34323 4.896711,-6.03772 4.11027,-3.08762 -0.875287,1.49887 -1.52268,5.21741 -2.71258,4.93513 z m -24.83092,-0.31021 c -1.330586,-2.51001 1.048786,0.082 0.22938,0.42131 l -0.22943,-0.42128 z m 2.93595,-0.002 c -0.886552,-3.3563 2.51065,-0.64043 1.19704,-0.30606 0.265492,-0.85542 -1.888732,-0.13031 -0.85846,0.60607 l -0.33878,-0.30053 z m 39.716682,-0.25198 c -1.71143,-3.07465 -0.28127,-2.51009 0.0941,-3.69078 2.08441,-1.49905 3.02124,5.06036 -0.0941,3.69078 z m 0.90136,-0.0756 c 1.62256,-0.78064 -1.85718,-0.43042 -1.64662,-1.6038 -0.028,0.6876 0.82185,2.13389 1.64662,1.6038 z m 0.82162,-0.76805 c 0.56858,-2.27042 -1.4907,-3.46456 0.10297,-1.01108 -0.36869,0.1533 -0.71006,1.78068 -0.10297,1.01108 z m -21.371482,0.44677 c -0.723899,-1.31151 -1.969264,-3.95817 0.31169,-1.76953 0.138466,0.0828 0.09272,3.10726 -0.31169,1.76953 z m -4.39354,-0.10105 c -0.749469,-1.50917 1.494528,-1.27413 0,0 z m -14.13015,-0.35467 c -0.1247,-3.07949 -1.490169,0.70063 -0.62687,-2.47299 1.723912,1.20897 1.997646,1.02037 1.12549,2.16642 -0.10522,0.31698 -0.0901,1.24707 -0.49862,0.30657 z m 43.347602,0.0487 c 0.95111,-0.705 -1.32909,-3.10441 0.0206,-3.32232 -2.10373,-1.36357 -0.44363,-6.12511 -2.55321,-8.36797 0.21033,1.00638 1.01616,-2.10251 0.30851,-1.29495 -0.91183,1.19702 -0.82285,-3.59755 -0.0159,-0.79181 -2.0539,-2.27271 2.5073,-2.9442 3.2325,-1.07638 0.5758,3.06476 0.21996,3.04972 -0.18413,2.58267 -0.2142,-0.0802 0.0694,5.97338 0.0517,1.83065 -0.16549,3.53432 1.39023,2.24345 1.03134,5.86278 -0.37272,-2.4446 1.08559,6.09191 0.15973,3.0686 0.8776,-2.46937 -1.29762,0.97168 -2.05116,1.50873 z m -0.31551,-11.59908 c 0.8832,-0.29909 -0.88396,-2.91571 -0.43421,-0.90823 0.0709,-0.98012 0.48918,2.01706 0.43421,0.90823 z m -40.952082,11.22662 c -2.381276,-1.40522 1.641687,-2.28868 1.36423,-0.18198 0.154055,-0.008 -0.936038,1.24701 -1.36423,0.18198 z m -37.80893,-0.13159 c -1.833084,-3.22307 2.121183,-3.68633 1.18113,-1.25741 -2.068804,0.87911 0.453062,1.25534 -1.18113,1.25741 z m 29.83169,-0.72653 c -2.161848,-1.65182 1.203406,-0.60231 0.02564,0.14505 l -0.0256,-0.14499 z m -16.32435,-0.11292 c -2.701461,-2.29751 2.554479,-4.68021 1.18832,-0.2344 l -0.562544,0.41378 -0.625776,-0.17926 z m 0.30914,-0.0757 c 2.232959,-0.0358 -2.842882,-2.29978 -0.10986,0.0497 0.150431,0.11415 0.112452,0.0161 0.10986,-0.0497 z m 20.27081,-0.23416 c -0.413477,-1.13806 -1.388754,-3.34843 -1.49638,-2.25225 -0.684711,-0.68184 0.795877,-2.85215 0.43279,-2.97049 -0.349804,-2.09775 1.908003,0.81131 0.76693,0.68745 -1.04333,-0.0849 1.573878,1.18454 0.59885,1.47452 1.982559,1.20801 0.258401,3.39806 -0.30219,3.06077 z m 11.93256,0.0373 c 0.240643,0.0266 -2.163723,-1.34118 0.39727,-3.08762 2.479053,-1.52218 1.392806,-2.53892 2.78129,-2.64767 0.931325,1.45936 0.42073,3.18867 -0.18887,1.50709 0.343435,1.81175 -0.320896,0.92215 -2.19477,3.18598 0.03401,0.26938 -0.932072,1.74655 -0.79492,1.04222 z m -30.5094,-0.10568 c -0.315631,-0.89221 -3.603834,-8.53423 -1.616217,-3.19403 -0.932519,-0.67464 -3.460584,-5.6769 -6.707413,-4.95442 2.576563,-1.19473 -2.490987,-0.46802 -0.10019,-0.0276 0.483647,1.54809 -2.021301,1.89802 -2.5523,1.11931 -1.858612,-0.7009 -1.033098,2.56456 -1.53302,1.81681 -2.628474,1.9446 0.177043,-2.70522 -0.18238,-2.44688 -2.299377,1.71725 4.053407,-6.78023 1.15836,-1.20112 -2.574429,3.22182 1.641724,-0.51954 1.01891,-2.45231 -0.555814,-2.59326 2.813473,-2.15547 1.891913,-1.52173 1.164462,-4.4875 5.143007,-2.82833 1.479097,0.36388 -0.158338,2.47836 -1.919218,-0.16587 -0.246327,1.61033 0.411695,-0.49462 0.475246,-1.94374 1.198767,-2.98618 1.649904,-2.33275 3.467648,0.41069 2.113733,0.12685 -0.79141,1.33495 -4.986178,3.1374 -0.412003,3.47057 2.725222,1.73166 3.562615,3.51632 4.527461,7.25078 0.0883,2.35594 0.09475,0.18787 -0.03839,3.02575 z m -10.48766,-8.39527 c 0.336039,-0.44341 2.305093,-5.45154 0.19854,-1.41378 -1.009327,0.94139 -0.432589,1.05042 -0.19854,1.41378 z m 49.35218,7.45346 c -0.374769,-2.5196 -1.504865,-6.67014 -4.269137,-5.5206 -0.399334,0.42167 -1.532497,0.1829 -0.938293,-1.0889 -1.324238,3.82447 -3.296249,0.0384 -4.189787,1.29609 -0.598853,4.2651 -0.507825,-2.91609 -3.203743,-3.01667 -2.213118,-3.8401 -0.02798,-0.65846 -0.34508,-1.55275 1.580283,-0.10933 -2.747353,-2.00529 -1.61221,1.43357 -0.668809,-4.62121 -0.201139,-5.36469 -1.763692,-8.49855 0.137656,0.86778 -0.531001,-2.89274 -1.392788,-4.41407 0.237572,1.09245 0.208767,-2.48602 -1.18402,-0.34928 -2.865752,-2.47278 2.125827,-5.87794 1.60202,-3.95869 0.924768,-0.95942 4.176853,-5.33211 5.411479,-8.71544 0.629317,-2.29547 2.261087,-6.57031 2.085716,-6.54367 0.115684,-2.44936 1.471625,-7.46559 3.359295,-4.13059 -0.680383,2.56508 -1.293869,1.7935 -2.02533,5.88984 -0.550373,1.0851 -0.529268,4.54751 -0.33481,4.92953 -0.13785,0.21987 -0.881963,3.23562 0.05998,2.98785 2.590117,0.70747 0.438193,4.53252 -0.285839,1.04598 2.155048,1.05789 -2.072271,6.12096 -0.781611,3.51941 -1.551565,1.83285 -3.82735,5.17243 -4.43086,4.22236 0.159189,-2.66064 -0.09185,1.04497 -1.004817,-0.19768 0.413857,-2.86739 2.41316,-1.08039 1.166847,-2.35715 1.709667,-2.46749 5.908137,-4.8402 3.68511,-5.89542 -0.111992,0.0858 0.06883,1.53674 -1.33843,2.98589 -0.420824,-2.1991 2.824362,-6.81697 2.02907,-7.20378 -1.190368,2.48677 -2.605469,7.21585 -3.23934,8.47813 -1.03508,0.95037 -3.442882,2.04329 -1.94897,5.52745 0.266575,-1.17586 6.013459,-2.62215 6.81338,-5.92926 0.176934,-4.51061 2.567537,-1.95939 4.17005,-5.01493 -0.578438,2.55873 0.567438,-3.05535 0.29944,0.42565 1.574853,-0.76004 2.002742,-5.87218 3.32956,-2.52106 0.367879,2.51684 -0.729441,-0.24243 0.01199,1.81556 -1.711165,-0.12211 -2.096295,2.72566 -2.210228,3.28858 -1.287626,0.23442 0.293296,1.45104 0.527295,0.75315 0.07159,0.0358 -0.521298,-4.69206 1.544313,-1.73641 1.937679,0.24461 2.682941,5.54595 3.411362,5.08526 -1.768694,-2.09663 -2.133629,-5.34094 -0.64736,-4.1272 0.937802,-0.45053 -0.06255,5.19586 0.631961,0.81181 0.758085,1.54618 2.207719,3.14676 3.363399,3.78494 0.717901,2.51431 -0.500626,-0.11384 0.904394,0.0602 1.442453,-0.74383 2.544547,1.88672 1.599476,-1.05785 0.471842,-2.80888 0.281084,-1.64982 0.793688,-2.99768 0.665704,2.97658 3.100014,7.20277 4.668324,7.04246 2.04867,-0.24824 1.1245,1.64629 -0.45071,1.87074 0.0261,-1.74142 -0.66719,1.90762 -1.98477,-0.24452 1.21876,1.38844 -0.5469,3.92018 -0.52432,2.32678 1.32959,2.26475 -1.617882,2.73207 -1.20313,2.69812 -0.963694,0.96997 -1.240643,-1.46583 -1.029392,-2.86828 -0.488237,-0.84347 -3.1742,-7.25499 -1.60052,-2.93038 1.300556,2.58582 0.684265,2.32814 1.21427,4.22129 1.248972,2.43681 -2.170574,4.48569 -0.37635,0.79853 1.023922,-0.25281 -1.473587,-0.81804 -0.560397,0.18796 -0.519313,5.34718 -0.461412,1.61814 -1.3219,-1.79157 -1.560361,-3.2492 -4.379864,-7.78991 -4.716323,-7.02136 -1.310481,-0.95266 -3.677166,-3.31852 -4.80201,-0.77083 -0.946668,-0.71619 1.4285,-2.20146 0.368913,-1.75961 -0.400188,-2.80145 0.132894,-0.38812 -1.055363,1.07429 -0.01396,-2.51402 -1.073822,0.54846 -0.14133,2.13469 -0.426543,-3.79857 1.272342,0.44881 0.97407,1.60172 0.681027,3.65421 -0.388722,-1.26272 1.12242,2.03199 1.192119,1.03783 0.670641,6.6198 0.69663,3.18388 0.509542,-1.54478 0.290088,-2.34315 1.01478,-1.51291 0.41574,1.47644 0.698437,0.68421 0.62579,0.1753 0.250196,1.96222 -1.360528,6.49281 -0.21521,2.98638 0.319536,2.82802 0.253997,-2.21976 0.53693,1.39189 -0.331146,3.14211 -0.399489,-1.00818 -1.071158,3.06206 0.0221,4.09733 -1.391112,1.2934 -0.790312,0.91248 0.559583,-0.25631 1.386722,-4.92111 0.19475,-0.94758 -1.770628,-1.74856 -2.884453,1.73246 -4.239478,2.49845 -1.1766,0.99623 -4.057748,-0.5524 -2.012085,0.95993 1.050057,0.27041 2.42693,-0.92026 3.394477,-2.08677 1.302674,-1.44271 0.629795,-0.44382 1.9903,-1.56994 -0.737986,1.67761 -2.46503,5.68098 -2.259264,3.61692 -0.659124,-0.40839 -0.534015,-1.25418 -1.09745,1.43548 1.331872,-1.39556 1.642346,0.36556 2.094814,-2.32295 1.339162,-1.97165 1.070241,0.0839 1.625646,-1.2205 0.682689,5.14273 0.882143,-1.93151 2.39865,-3.64727 -0.735122,-2.12069 1.164026,-6.2648 1.5797,-1.80291 0.446871,-4.6142 1.286883,6.4795 1.56874,0.67988 0.353188,-2.61149 4.735123,0.76935 1.90815,2.78893 -2.424491,1.32238 0.14478,6.00846 -3.411221,5.90684 -0.39917,2.42695 -1.935574,3.83333 -2.227979,6.23949 -0.240861,-0.22831 -0.571822,-0.4606 -0.54016,-0.84272 z m -9.11978,-8.60094 c -2.315503,-1.64594 4.187843,-0.33874 4.8936,-3.78495 0.351989,-0.54888 1.62549,-2.94333 1.74695,-1.71988 -0.236058,0.80814 0.599879,-4.03688 -0.49737,-2.39317 0.151316,1.88989 -4.806858,5.62917 -2.29523,4.51651 -0.302025,0.88308 -2.298392,0.5569 -4.01978,1.20001 0.187662,-0.61503 -1.69709,1.35254 -1.430039,-1.02638 -3.062106,-2.08405 -0.668484,-0.88958 -0.43287,-1.34169 1.299009,-1.06394 0.872825,1.2746 3.219759,-0.87225 2.021108,-0.92317 4.073901,-6.3398 4.08257,-4.49828 0.924743,1.34783 -0.294679,-3.94306 -2.202039,-0.50038 -0.863241,1.95043 -7.259446,5.90307 -6.178088,3.60501 -2.351449,-1.80469 1.977789,-3.06705 3.661952,-4.56575 1.85766,-3.0058 0.819753,-1.22047 2.830036,-4.47632 0.5264,1.11347 -0.342392,-2.23819 0.393537,-0.68073 -0.485635,-3.37428 -0.415606,-0.21636 -1.798245,0.95539 -1.614213,2.14175 -5.157339,5.66253 -7.07424,5.35076 0.704883,-0.70306 -0.713041,-4.22961 -0.06406,-0.71549 -1.266148,1.61418 2.420444,3.45142 1.821778,6.61385 2.138153,0.87809 1.395411,3.47102 3.341782,4.33374 z m -1.99272,-4.86768 c -3.073164,0.18909 2.704526,-3.41063 0.27644,-0.12894 l -0.162345,0.20853 -0.114045,-0.0799 z m 1.19702,-0.57048 c -1.197065,-0.12934 2.957471,-2.66812 0.46989,-0.0998 l -0.332869,0.17056 -0.136961,-0.0708 z m 0.80842,-0.0593 c 1.22212,-1.9237 4.600255,-5.74945 1.93973,-1.15481 -0.504001,0.38377 -1.171815,1.02819 -1.93973,1.15481 z m 3.14815,-2.81392 c 0.197547,-1.49222 1.216967,-3.5292 0.3442,-0.8212 0.665558,-2.61033 0.553789,0.9497 -0.3442,0.8212 z m -7.58661,-1.06051 c 0.654552,-0.85522 2.913225,-2.3786 2.10313,-1.17703 -0.265965,1.31223 -0.871243,1.2242 -2.10313,1.17703 z m 2.81499,-1.19501 c 0.470071,-1.93054 2.247902,-1.41538 0.01884,0.1131 l -0.09655,0.008 0.07766,-0.12113 z m 1.20093,-0.88395 c 1.245706,-2.86561 3.56284,-2.35918 0,0 z m -7.32927,-2.24715 c 0.142197,-1.05537 -0.341391,-2.9578 -0.52341,-0.48356 0.321053,-0.005 0.754825,1.52739 0.52341,0.48356 z m 3.85197,23.05838 c -0.789341,0.089 -3.319183,-0.93444 -1.772003,-2.91259 -0.347694,0.81226 1.999786,-1.22705 2.720703,1.03445 -1.437279,-2.72396 3.050185,-1.8782 0.328899,-1.42825 1.445195,3.13616 -1.062145,2.82924 -0.413789,2.37673 0.02051,0.32758 -0.472282,1.24753 -0.86381,0.92966 z m -3.34467,-0.18541 c -1.117216,-0.75832 -0.621,-0.17511 -1.44585,-1.69236 0.202372,2.01903 -1.238395,-1.93349 -0.91254,-0.12433 -1.111038,-3.27039 0.66445,-2.37977 0.918744,-0.73331 -0.387764,1.26181 0.523459,-0.93085 1.025916,-0.4328 1.458026,-0.73926 2.247036,3.66173 0.41373,2.9828 z m -19.56952,-0.22982 c 0.666736,-1.16211 -0.764855,-0.39699 0.99765,-2.15587 0.08293,1.67835 -0.650509,1.64766 -0.99765,2.15587 z m 53.120352,-0.19466 c 1.20918,-0.49184 2.07227,-0.59433 -0.0407,-0.87809 -0.69148,-2.31756 -1.05114,-1.20699 -0.44058,-2.45131 1.73531,-2.81084 4.66018,4.08257 0.48128,3.3294 z m 1.81336,-1.02891 c -0.63546,-2.99578 -0.33432,-2.65426 -0.21897,-0.27974 -0.50697,-0.20731 0.25247,0.96367 0.21897,0.27974 z m -17.667212,0.8606 c -0.601299,-3.337 1.261927,-3.20883 1.62091,-1.27621 -1.189487,2.2169 -0.762085,-1.19721 -1.62063,1.27611 z m -52.11663,-0.006 c 0.948851,-2.29725 2.387887,-0.0524 0.775315,-0.0615 -0.283222,0.0541 -0.601544,0.053 -0.775315,0.0615 z m 39.90245,-0.1762 c 1.055982,-1.61466 -0.671348,-0.15144 -0.199286,-2.11966 0.70245,0.17285 1.764845,-2.72596 2.242202,0.0274 -0.360971,0.38559 -0.7548,2.04244 -2.042916,2.0923 z m -41.82833,-0.15338 c -1.099082,-2.63284 0.71517,-3.80749 1.44481,-3.00633 1.333267,2.38156 -3.410311,3.29872 0.01047,2.47209 0.234355,-0.35857 0.809715,-3.29332 0.252594,0.0985 -0.324199,0.55276 -1.150137,0.90993 -1.707874,0.43572 z m 2.0737,-0.29457 c -0.141024,-1.04662 1.908859,-1.5434 0.05897,0.0719 l -0.05904,-0.072 z m 7.66931,-0.28266 c -1.105922,-3.14977 -0.614586,-0.42968 0.33265,-0.29055 1.860482,-0.50806 1.071992,0.88609 -0.33265,0.29055 z m 1.61026,-0.34566 c -0.617136,-2.20577 -0.313026,-3.06358 -0.568923,-0.81275 -0.423057,2.25926 -2.395289,-1.71474 -0.499703,-2.00939 1.195581,-0.23066 1.543095,3.30723 1.068626,2.82214 z m 5.43197,-0.0481 c -0.535366,-2.51737 -0.254718,-3.54983 0.19172,-4.11966 -0.424586,0.87155 1.312721,3.71549 0.55718,3.37572 -0.171733,-0.2341 -0.212154,1.17953 -0.7489,0.74394 z m 2.00171,-0.11988 c -1.545036,0.0358 1.194779,-3.29524 -0.52836,-1.43254 -2.014356,0.35259 -0.115157,-3.86286 -0.9753,-3.55292 -0.176439,-2.2144 -2.728456,-6.0707 -3.69126,-5.80342 1.252942,0.58123 2.308171,5.33658 0.17924,1.69586 -0.68035,-2.86994 -1.719404,-0.26975 -2.562364,-2.18417 0.678148,-1.67696 -1.750854,-1.03284 -1.572106,-1.57486 -1.583542,-1.4941 -3.860817,-0.13335 -2.87512,-2.19231 -0.189568,2.147 -2.041213,3.92707 -3.31495,4.47032 -1.097841,1.12957 2.519908,-4.07705 0.79525,-5.32773 0.253527,-2.77794 4.531408,-2.10119 5.61502,-5.2291 2.477021,1.01572 1.383045,1.83311 1.553154,4.27445 -1.655616,0.48894 0.06815,-0.42537 -1.44591,-0.7801 -0.04579,1.12909 -1.317553,2.15666 -0.538244,-0.36222 -0.595863,-1.81878 -3.19722,1.28289 -2.34012,1.31361 1.494105,-4.89489 1.918857,2.48766 4.236604,2.1103 0.823299,-1.13623 -1.199362,-0.24803 0.855866,-1.96314 1.788458,2.11597 3.835986,5.30799 6.688647,4.84461 0.436068,3.52274 1.236101,6.9615 1.750383,9.38946 -1.183846,1.81375 -0.03758,-2.31883 -0.871055,0.68942 0.173871,0.31926 -0.355836,1.95931 -0.959375,1.61448 z m 57.297872,-0.65964 c -0.96725,-1.34241 -0.79276,-5.60309 -0.79557,-1.67719 -1.87863,-1.6197 -1.84475,-6.72588 -2.40545,-4.40996 0.33409,1.9718 -1.54911,-2.24553 -0.96612,-1.62018 -1.36506,-0.36179 -0.40181,-0.56999 -1.2656,0.28761 -0.98974,-1.21533 -3.60885,-1.48771 -1.13041,-2.96697 0.46437,-2.42307 -0.34003,1.86239 -0.31381,-1.68625 -1.34885,-1.82932 0.83315,-4.01616 -1.22527,-1.48983 -0.35175,-2.00648 1.9916,-2.24291 3.0422,-0.4639 -0.46485,-0.48333 -0.30463,-3.21128 1.61491,-1.70128 1.79827,0.65552 -3.69356,0.51237 -0.66101,0.29643 1.82897,2.22095 0.97797,1.46164 3.2579,3.09006 -0.97912,1.99037 -1.21055,5.98 0.62528,8.43612 0.10365,0.55144 0.6961,4.91934 0.22295,3.90534 z m -31.545502,-0.13362 c 1.505302,-1.74013 -1.427889,0.46823 -0.376789,-1.96244 0.643241,-0.41728 -0.280904,0.86738 1.306274,0.027 0.315092,0.0824 -0.125046,1.29388 -0.929515,1.93538 z m 22.867272,-0.0549 c 0.10597,-0.46455 2.33156,-1.30712 0.64089,0.0561 l -0.64088,-0.056 z m -11.516852,-0.13891 c -0.402628,-0.69772 3.031456,-0.0281 0,0 z m -53.57554,-0.13091 c -1.902389,-2.98884 1.423213,-4.21843 1.98574,-2.05933 -0.50658,2.41995 -0.15478,-0.88369 -0.695049,1.38234 -1.488536,0.50928 -2.664189,-2.15296 -0.95516,0.61523 0.920734,-0.51511 2.08203,0.32431 -0.335531,0.0618 z m 35.83467,-0.10503 c -1.279542,0.0651 -0.962394,-2.50312 -0.66346,-2.56867 0.628574,-0.88131 1.879616,0.46172 2.729689,-0.87588 2.599566,0.70192 0.0093,4.76144 -0.124652,2.1241 0.777639,1.41819 -0.884856,1.72376 -1.941577,1.32045 z m -1.5667,-0.11831 c -2.145912,0.0967 -1.846608,-2.22616 -2.52579,-1.4647 -0.936661,-3.91482 0.296538,-0.21524 0.54662,-0.90673 0.859998,-1.17711 -0.01749,0.565 1.227355,-0.69646 2.026557,1.08258 0.287999,1.55253 1.081725,2.6225 0.372637,0.005 -0.224697,0.80586 -0.32991,0.44539 z m 29.675472,-1.0953 c 0.56248,-5.51958 3.53491,1.0483 2.74407,0.20599 0.53423,-3.41404 -1.11336,2.72547 -2.23979,0.13047 -0.77895,-2.17981 0.43946,2.31752 -0.50428,-0.33646 z m -10.242582,0.39666 c -0.501188,1.40882 -1.675745,-2.61911 1.09796,-2.1612 -0.03489,0.42241 0.353217,2.76534 -0.65471,2.59864 -0.258698,0.2502 -0.901477,-0.15675 -0.44325,-0.43744 z m -47.13862,-0.11804 c 0.725533,-1.60472 -1.234264,1.84563 -1.86101,-1.27281 1.697725,-1.38662 1.719768,-0.35873 2.12046,1.57255 l -0.1242,-0.0617 -0.13539,-0.23809 z m 39.78576,-0.21269 c -1.719328,-0.92331 1.169076,-1.65398 0.596786,-0.10739 -0.164085,-0.97523 -0.453045,1.1153 -0.596786,0.10739 z m -6.89516,0.007 c -0.736072,-4.05363 1.879355,0.78799 0,0 z m -35.92664,-0.0313 c -1.88267,0.69356 -1.684687,-4.03017 0.66301,-1.72595 -0.01543,0.94611 -0.617357,-1.12856 -0.142056,1.27647 -0.182954,-0.0907 -0.712452,1.00668 -0.520954,0.44948 z m 57.858462,-0.19581 c -2.992623,-2.10656 2.1879,-5.67572 2.28225,-1.41719 -0.92103,4.59505 -0.11123,-4.05807 -0.27245,-0.41738 -0.48908,0.66341 -0.98909,2.28603 -2.0098,1.83457 z m -54.429562,-0.26843 c -0.01407,-2.12801 -4.704876,-0.83428 -2.07633,-2.28294 1.002491,-0.0297 4.770385,2.78264 2.07633,2.28294 z m 48.37962,-0.43113 c -1.332487,-1.8365 1.813807,-3.73833 2.06749,-2.0736 -1.985496,-1.7248 1.147966,1.65537 -0.79859,0.84235 -0.873777,0.62236 -1.217688,0.98452 -1.2689,1.23125 z m -41.38695,-0.92466 c -0.714174,-0.41405 -1.197813,-5.19676 -0.74611,-3.80102 1.507859,-0.0248 1.576716,3.97855 0.74611,3.80102 z m 45.82552,0.0429 c -1.931711,-1.43952 -2.322463,0.45071 -1.85252,-1.17072 0.902728,-3.25726 4.408702,1.72898 1.26884,-1.13028 0.902534,0.27966 1.459492,1.70004 0.58368,2.301 z m -24.53395,-0.4016 c -1.735018,-0.98846 -0.237174,-2.00489 0.11373,-2.37275 1.469589,0.18573 0.840067,-0.22473 1.77046,-0.16197 0.154056,1.6817 0.424301,0.61657 1.3445,1.2786 0.960796,0.57322 -1.125887,1.25268 -3.22869,1.25612 z m -1.53483,-0.14328 c -1.146387,0.51386 -1.749153,-1.61276 -1.02318,-1.89113 1.479603,-0.93759 1.020977,1.99637 1.50446,0.8904 0.574789,0.29821 -0.2363,1.08871 -0.48128,1.00073 z m 21.6823,-1.21919 c -0.245031,-3.5226 2.564752,-4.4195 4.713849,-6.8557 1.345913,-0.48676 4.385553,-1.41308 2.903313,0.0612 -2.68216,0.66461 3.00501,1.44963 -0.40439,2.47288 -2.32377,-0.77184 -6.361886,5.76974 -4.863614,1.6292 0.154897,2.09238 -2.486985,3.70615 -1.825198,0.70901 -0.231178,0.0826 0.0062,2.95423 -0.52396,1.98342 z m -25.49783,-0.3653 c -0.300463,-0.51352 -0.496129,-2.71455 -2.15894,-3.48658 -0.382856,-2.90227 -1.99239,-8.40951 1.98022,-10.44782 1.265235,-0.82839 0.370877,3.1863 1.32567,0.0759 0.769228,0.33814 1.898345,1.04271 1.380675,2.06773 1.443726,-0.7081 0.897788,3.52054 1.220025,3.54022 0.386235,4.29862 -2.321604,-2.50815 -0.68563,1.11201 0.615936,3.27132 1.760496,-2.95096 1.601705,1.26765 0.418863,-0.0628 -1.017211,1.67258 0.09421,3.92683 0.981616,-2.25859 -0.355762,4.55629 -1.01941,-0.0251 -0.254033,-1.65259 1.143516,1.20292 0.115019,-1.8263 0.535853,0.49144 0.208118,-2.80395 -0.612969,0.10292 -1.804913,-0.0236 0.17887,0.98794 -0.929422,2.7866 -0.67407,-2.59015 -1.602369,2.75583 -1.635008,0.20487 -0.009,2.68895 -0.331858,-1.20799 -0.5643,0.24961 l 0.0748,0.93627 -0.18743,-0.48483 z m 0.0892,-2.88589 c -0.400737,-1.37592 1.860445,1.5787 -0.09817,-1.27267 -0.863462,-0.82597 0.109122,2.68884 0.09817,1.27267 z m -0.954,-1.27502 c 1.704265,-1.6419 -2.901342,-2.88388 -0.83434,-0.36767 -0.187917,-1.02807 1.065891,1.37691 0.83434,0.36767 z m 3.41109,-0.82548 c 1.253069,-3.52777 -4.00461,-0.85195 -2.043532,-0.27848 0.07842,0.3241 2.308095,0.16958 2.043532,0.27848 z m -15.04352,4.85894 c -0.76481,-2.3325 0.535644,-3.39993 0.39921,-3.58756 1.324998,0.0868 0.633549,3.80071 -0.39921,3.58756 z m 7.40821,-0.66201 c -0.874207,-0.88871 -1.728066,-3.48787 -0.73334,-1.64606 0.163297,-0.19191 1.547694,0.15108 0.51022,1.199 -0.125879,0.066 1.005715,0.87069 0.22312,0.44706 z m 40.022222,-2.93103 c -1.39793,0.48429 -1.19844,-1.71517 -0.97452,-2.30665 -1.09865,-1.74857 3.68026,-1.26869 3.0804,0.32982 -3.56263,0.0171 1.90112,0.81962 -1.11602,1.96749 l -0.3957,0.14547 -0.59414,-0.13595 z M 57.061018,153.5157 c 0.196395,-1.16891 -0.664203,-0.40547 -0.94723,-1.62054 0.270588,-0.33119 -1.227502,-3.72273 0.16334,-1.71968 -0.712345,-1.3422 0.06149,-4.39304 -0.74902,-0.96287 -0.77041,-3.24449 1.511496,5.2336 -1.443256,2.49032 0.5432,-2.46985 -1.106548,-2.0162 -2.032484,-4.05086 -1.509607,-0.74919 -0.492983,-0.41951 -1.19931,0.41069 -4.162723,-1.7091 3.214128,-3.2981 2.965634,-6.31708 1.509804,-1.87811 0.754599,-7.15851 2.189446,-3.977 0.279994,-0.23549 -0.33664,-1.89358 -0.99278,-2.85146 -1.749369,1.4411 1.243519,-0.0864 -0.200335,1.40135 -1.182393,1.1332 -0.02088,4.33421 -0.917915,2.52093 -1.580667,-2.69279 0.881587,-4.45587 -0.708709,-5.04848 0.743101,-4.53562 1.700603,-0.38395 2.552517,0.39543 1.310182,-0.17481 -0.249239,2.13803 0.804622,2.21251 -0.732097,1.58415 1.101985,-4.03275 0.5668,0.1215 0.591069,1.68552 -1.522191,5.54322 0.55232,2.74658 0.94301,0.99375 -0.405748,3.07656 1.009407,2.26732 0.08048,3.08793 -3.371359,6.87029 -1.431487,9.52239 0.522213,0.56857 0.252396,2.70817 -0.18156,2.45895 z m 36.86644,-1.17439 c -1.050234,-4.2451 1.070924,0.55109 -2.7e-4,-5e-5 z m 19.496722,0.23011 c -0.13374,-0.56195 0.56783,-1.65874 1.23993,-1.16736 0.7387,0.94056 -0.99386,1.14655 -1.23993,1.16736 z m -59.614202,-0.36516 c -1.730818,-1.70697 1.338064,-0.0667 0,0 z m 61.018282,-0.77036 c -1.07504,-3.56028 0.34546,-0.0362 -1.31423,-0.40562 -0.27359,1.13957 -1.32678,-1.26353 -2.30996,-2.96989 0.37454,-0.46632 -4.58919,0.15897 -3.57713,-1.52499 -0.71439,0.4182 0.0616,1.01446 -2.38722,2.57871 -1.3278,1.24593 -0.33991,2.10549 -2.14707,1.03206 -1.37347,-0.0314 1.08853,-4.78811 1.51924,-2.97027 0.71465,-1.29145 5.08892,-5.21956 2.94392,-3.92652 0.9412,1.15935 -1.0661,0.46044 -0.70366,0.94888 -1.73779,-2.11258 1.56069,-4.1819 3.20414,-1.95588 1.56938,1.66346 5.05686,0.82357 3.43864,4.13582 -0.45781,2.02692 2.57375,3.87483 1.33333,5.0577 z m -57.251882,0.11285 c -1.148574,-1.71188 1.693713,-2.06743 0.0557,-2.29311 0.551952,-1.16401 -1.327961,1.55267 -0.44417,-0.54149 -0.870958,0.23038 1.487977,-3.7814 1.07626,-1.53597 0.08311,-1.30143 1.356758,-1.16074 1.03054,-0.0932 0.690308,0.10383 0.106922,1.53754 0.22343,1.39954 0.644297,-0.30757 -2.128314,1.71321 -1.11349,2.07055 0.06788,0.2128 -0.908038,0.99996 -0.82827,0.99369 z m -4.81108,-0.25629 c -0.282282,-0.10899 -2.81798,-2.8552 -0.13628,-0.72984 -2.718113,-1.38046 -0.767539,-3.63155 0.581722,-0.7911 0.10559,0.9175 0.536923,-0.23457 -0.373452,1.83177 l -0.0719,-0.31078 z m 43.13191,-0.87366 c -0.148786,-0.1585 -2.471636,0.82901 -3.43799,-1.73206 -2.831155,-0.64691 -1.691383,-3.97829 -1.94448,-3.77711 -1.848978,-0.0546 -3.866059,-6.00095 -2.47252,-3.82686 -0.26262,-0.13697 0.361337,-1.49433 0.86484,-0.11751 1.699142,-0.9429 0.709334,4.62333 3.10496,3.40916 1.652392,1.27689 0.525044,-0.4918 3.04811,1.74159 -1.636984,0.0526 1.688567,1.28564 0.605278,2.03135 -1.880716,-0.15659 -1.70574,0.59744 0.160972,0.3213 0.97777,0.3141 1.471859,3.70027 0.07083,1.95014 z m 15.963712,-0.18802 c -3.15434,-1.86987 1.5562,-0.14052 0,0 z m -64.248162,-1.20755 c 0.634268,-0.44183 -0.738391,-0.97253 0.80735,-0.0926 l -0.73296,0.149 -0.0744,-0.0564 z m 41.8835,-2.40851 c -0.181726,-0.52181 -2.246349,-1.67675 -1.70768,-2.97716 0.245452,-1.27028 2.850515,1.75966 2.48682,3.04021 0.687371,0.48554 -1.189289,-0.0451 -0.77914,-0.0631 z m -31.40113,-0.6456 c 0.841565,-1.52246 -1.384604,1.06439 0.63482,-1.63317 -0.24186,1.58086 0.880951,0.46125 -0.63482,1.63317 z m -8.56379,-0.36623 c -1.08859,-1.37736 2.629886,-1.82264 2.20426,-3.30709 2.660022,-0.97908 -0.0949,4.3553 -1.359251,2.63989 0.641294,0.49546 -0.974565,0.48054 -0.845009,0.6672 z m -0.40686,-0.93152 c -0.437988,-1.5409 2.036588,-2.21767 2.10289,-4.48617 0.70096,2.73879 -0.475982,3.28645 -2.10289,4.48617 z m 56.466232,-0.21092 c 0.0715,-0.66563 -3.99703,-0.48399 -3.118,-2.1776 2.88693,1.97683 -0.78323,-2.87802 0.35028,-0.59523 0.0738,1.47087 -3.381923,-2.40342 -2.52082,-4.61347 0.79777,1.15256 -0.674388,-3.84498 0.63275,-3.87844 0.71781,1.19409 2.07248,7.72821 5.49721,8.19638 -0.71487,-0.27455 0.44705,2.13876 -2.06153,0.54218 0.38928,0.49516 3.02399,1.96041 1.21964,2.52627 z m -12.168492,-0.0814 c -2.622229,-0.26361 -3.391377,-2.07724 -3.37312,-3.33648 1.099635,0.075 4.175172,3.34065 3.37309,3.33644 z m -29.33553,-0.4761 c -2.483574,-3.69749 1.786759,0.79643 0,0 z m 1.22492,-0.11686 c -0.336494,0.7218 -2.373871,-2.49305 -2.814479,-4.14401 0.06801,3.00541 -1.265809,-8.02738 -0.903161,-2.76465 -1.113721,-2.08592 1.685449,-6.59375 1.235759,-1.86199 -0.04425,2.19157 0.02402,1.48221 1.167511,4.58725 0.886719,0.99393 2.485518,4.231 1.31437,4.1834 z m 4.46636,-0.0346 c -1.609883,-2.23785 1.112799,-2.52293 0.16702,-1.0589 0.447869,-1.94298 0.964184,2.6071 -0.16702,1.0589 z m 7.58822,-0.55543 c 0.905866,-2.18933 2.220079,-0.64742 0,0 z m 10.44462,-0.29867 c -2.896614,-2.99502 1.857283,-0.12942 0,0 z m -34.73852,-0.64126 c -0.392834,-1.71229 -1.565304,-2.20044 -1.30674,-0.50732 -0.437247,-0.7338 -0.689621,-2.89224 -1.54507,-4.45547 0.63515,-2.83062 1.603597,-0.97342 2.065839,-0.38644 -2.674895,-0.82687 1.548522,1.48374 0.287461,-1.99518 0.119709,-0.022 -2.276398,-0.73318 -1.96264,0.72757 -0.755787,-3.023 -0.423991,2.11498 -0.8927,-1.78465 0.732591,0.43265 -0.15945,-6.00266 2.37174,-7.26276 -0.01873,-1.54857 3.622662,-2.32702 1.797324,-0.56819 -0.996436,2.4439 0.475799,0.85237 0.328886,4.02285 -0.421177,-2.92339 -0.313684,-5.56388 2.25737,-5.40208 2.320974,-0.37248 1.766863,-5.12577 2.78823,-5.84581 0.370928,0.29922 1.838048,2.0148 1.47465,0.96626 2.036814,-2.61408 1.648204,3.83404 0.77476,0.57729 -0.690122,1.90042 -1.227892,4.58234 -1.4433,7.06569 -0.510519,0.30125 -1.072545,1.91505 -1.192977,-0.16703 -2.012766,-1.70517 0.537785,3.09317 1.377467,0.59554 1.296553,0.19068 -1.633223,4.60509 -2.37074,3.21484 -1.068957,1.31435 1.443559,0.92525 0.83292,0.57166 -0.218767,2.85047 1.133811,-1.09373 0.43847,1.28381 -0.189169,1.10022 -1.052985,-0.48346 -1.389,0.87741 -1.354786,1.79505 -1.367251,-0.51965 -2.674504,-0.3907 -0.202059,-2.80755 -1.185416,-4.02119 -1.07392,-3.0483 0.603252,1.46532 -0.581814,0.69094 -1.092946,2.92682 -0.443203,-2.46054 0.0078,-0.075 -0.70491,0.17036 1.641332,1.63161 0.828888,4.85148 0.79704,5.0844 1.253192,0.0827 -0.666958,2.27381 0.09422,3.18317 0.390911,0.0621 -0.135963,1.12561 -0.03693,0.54626 z m -1.51989,-2.95635 c -0.436913,-2.67292 -1.587634,-1.13832 -0.450268,-0.35595 -0.28037,-1.42618 0.269066,0.40129 0.450268,0.35595 z m 5.18729,-6.17315 c -0.640158,-1.64252 1.532945,-0.37951 -0.320183,-1.41776 -0.50774,-0.6149 0.18906,1.64132 0.320183,1.41776 z m -1.1498,-0.27285 c -1.068398,-1.39433 1.156016,0.51702 0.756821,-2.37845 1.412784,-1.28226 2.345438,1.1451 2.014269,-2.18024 -1.311778,-1.0953 -1.273442,2.68115 -3.05206,2.54828 -0.594435,-0.12738 -0.50154,1.58197 0.28097,2.01041 z m 40.72082,7.74316 c 0.403739,-3.9098 0.959242,2.52911 0,0 z m 1.53243,0.49345 c 0.109837,-2.65464 2.113352,-0.27383 0,0 z m -0.71266,-0.14371 c 0.569736,-2.39358 -1.013726,-0.86486 -2.307496,-1.86617 -1.26677,-2.3697 1.238737,-1.87154 -1.963894,-2.62748 -1.847034,0.88943 -3.754899,-3.26779 -2.008302,-3.1303 3.300806,3.95011 3.142316,-6.77194 2.279722,-0.63089 -0.409593,2.15035 -0.657625,-0.14214 -0.905165,1.41068 -0.386316,-1.98199 -1.194933,-0.0258 -2.028155,-1.92313 0.363294,-2.74525 -0.786614,-1.43634 -1.01387,-3.33493 -0.443823,3.03595 -1.477155,-3.24748 -1.02151,0.3894 0.192613,1.22466 -1.442179,1.38137 -0.51099,-0.16587 -0.654737,0.3997 -0.459527,-3.55778 -0.488035,0.0796 -0.853232,2.57715 2.647873,1.24551 0.102765,3.42698 -1.730211,3.46374 0.998353,-1.84713 -1.3672,-0.38249 -1.705804,-1.21765 0.334858,1.87145 -2.03435,1.11105 -1.026624,-0.76182 -1.805275,2.06964 -0.869419,-0.45052 -1.704718,1.58698 0.104912,-0.43019 -1.162091,-0.49323 -0.148215,1.99485 0.133312,-0.16051 -0.14447,-2.19744 -1.016077,-2.15507 1.151976,-6.01653 2.34236,-8.67967 -1.375561,0.7994 1.031424,-2.04171 1.89803,-0.3156 2.623126,-1.43394 4.517726,4.20458 2.98265,2.12552 1.343735,2.03512 -1.545004,5.82005 0.51311,4.47377 0.681767,-2.26811 3.622561,-1.46095 0.7956,-1.69198 0.825699,-2.34288 -0.737075,0.93442 -0.89753,0.36283 -1.074103,2.48811 1.803664,-3.74195 -0.74877,-5.09295 -0.39007,-1.69461 2.060399,-3.44764 2.94831,-2.34732 -0.91646,0.26997 1.02804,-5.30579 1.923376,-1.67072 -0.162202,3.47252 -1.55483,0.11685 0.688964,3.43438 -0.890267,-0.10183 -1.610451,1.51525 -2.593221,1.3018 -1.844992,-0.17362 -1.544154,-0.90711 -1.180829,1.06461 -1.828444,3.59149 2.388855,0.60231 2.324283,-1.37278 2.10433,-0.47844 4.792055,1.27088 6.114667,1.45929 1.350852,2.87889 -0.563202,0.62911 1.025464,3.63332 0.777448,3.19934 1.151378,7.95048 -0.231484,10.12384 -0.386426,1.42737 -1.643494,4.5273 -1.64487,1.05165 -0.903776,-0.19021 0.582243,3.50741 -0.81765,2.92475 z m 0.26258,-3.51068 c 0.634745,-2.58503 1.098551,0.0898 0.99981,-0.26009 0.340897,-1.01176 0.101163,-3.60589 -1.20081,-0.30593 -0.310251,-0.007 0.308927,1.17319 0.201,0.56602 z m 2.31066,-2.17691 c 0.475972,-1.64055 -1.052449,1.65243 0.07366,-1.46572 1.395236,-1.52155 -1.522656,-0.50209 -1.450096,-0.41344 0.134037,-4.83616 0.01022,3.37317 -2.714581,-1.10549 -3.224473,-0.10759 -0.657627,3.88713 0.518185,2.48263 1.180823,-1.5067 -0.03433,0.98109 1.008646,-0.98475 2.288007,-1.47425 0.810593,2.20594 2.56419,1.48677 z m -16.16696,-3.94702 c -0.01201,-3.7008 -0.86853,-0.016 0,0 z m 2.32127,-0.65742 c 3.293833,-2.78192 -3.536707,-1.394 -1.55144,-3.73509 -1.175219,0.9355 0.680273,3.86482 0.2524,2.71103 0.429275,0.21749 0.877481,1.30154 1.29904,1.02406 z m -3.38426,-1.40078 c 2.384062,-0.75311 -0.93908,-4.16539 -0.41289,-1.20687 0.38374,-0.59252 -0.01109,1.66969 0.41289,1.20687 z m 13.10421,11.35905 c -0.37999,-2.66372 1.234007,0.22479 0,0 z m -26.19745,-0.24535 c -1.293828,-1.50907 -0.282618,-2.57831 -0.02636,-0.64038 -1.205564,-1.04493 1.121718,1.47921 0.02636,0.64038 z m 0.74912,-0.41163 c -1.971859,-2.69145 0.766374,-2.08254 0.81185,-1.64393 -0.319859,-1.88602 0.701206,0.37052 1.398965,-1.41855 0.897105,-2.87341 1.316099,-0.18229 1.651135,-3.60197 0.01873,-2.60105 0.946122,3.421 0.90609,-1.52009 0.08092,-3.62569 1.869396,3.61576 0.19846,2.60611 -0.728223,0.91859 0.842392,2.55748 -0.89251,3.36042 -0.557958,-2.70977 -1.206029,-1.18983 -0.9607,-0.0167 -1.096874,1.74481 -0.351157,-0.59118 -0.965188,2.08395 -1.486367,-1.00809 -1.006305,0.57282 -2.148102,0.15075 z m -21.54678,-1.2608 c -0.205203,-2.83329 1.60882,-4.57759 1.54563,-1.96805 -0.985816,2.997 -0.13874,-1.5034 -1.14139,2.09669 0.301163,-3.08768 -0.584045,3.08738 -0.40424,-0.12864 z m 19.231,0.81182 c -0.742666,-0.092 -0.698318,-3.19641 0.03064,-0.6654 -0.370133,-2.24979 1.585882,1.77285 -0.03064,0.6654 z m -0.82385,-0.65604 c -0.134589,-0.22984 -1.598447,-2.48639 -1.428733,-3.77411 0.816187,-0.25918 0.238335,-0.88126 1.016217,1.50481 -0.86445,-1.7625 1.254998,4.1851 0.412216,2.26928 z m 37.271362,0.26291 c -1.46373,-1.46423 -0.48928,-0.82842 0.13465,-1.67304 1.02034,-1.77959 0.6803,2.0202 0.16715,1.20563 0.0589,-0.20296 -0.37986,1.03051 -0.3018,0.46741 z m -36.667282,-1.14114 c -0.738742,-1.83988 -0.416523,-5.77668 -0.06034,-2.93609 -0.103398,-2.37106 1.089293,3.25836 0.06034,2.93609 z m -4.33843,-2.00378 c -0.259418,-2.30231 0.181724,-0.95819 0.55227,1.47825 -8.7e-4,1.33401 -0.774189,-0.11665 -0.55238,-1.47825 z m 8.16537,1.51372 c -0.74152,-4.24004 0.848087,-0.25743 0,0 z m -1.94391,0.0181 c -0.686236,-0.82825 0.389979,-2.07345 -0.4255,-1.06539 -1.297476,-2.15357 0.455656,-2.62107 -1.95835,-3.09524 -1.290636,-0.3602 -1.379011,-3.0729 -1.315429,-5.01207 -0.0733,-2.33453 -0.03117,-1.7572 -0.249901,-1.58678 -0.903918,-4.14008 -0.159846,-8.13887 2.97408,-11.07941 2.748265,-2.05938 5.526056,1.12943 5.65748,0.97516 2.722384,2.90755 2.051272,6.11927 2.182282,8.34997 -0.129347,1.76789 -1.161344,-0.60848 0.199438,2.26271 0.262008,3.13106 -3.539826,4.22614 -3.64204,5.99384 0.348889,0.68877 0.362392,1.19839 -0.834625,1.90235 -1.422889,-0.2827 -1.248529,3.76282 -1.342575,0.55416 -0.86751,1.58395 -0.452714,1.32903 -0.95822,0.27131 -0.253766,-0.1345 0.133663,2.20404 -0.28664,1.52939 z m 0.36148,-3.42163 c -0.545438,-2.28443 2.233563,1.76435 0.24409,-1.62412 -1.18753,-1.13643 -0.927467,2.04029 -0.24409,1.62412 z m -1.93421,-1.09909 c 0.06109,-1.27754 1.326956,-1.27549 2.0494,-1.95967 0.766654,-0.0364 1.432865,0.51233 1.72464,0.0344 1.058356,0.49469 1.128096,1.67531 1.06806,-0.24941 1.24041,-2.08709 0.473502,1.70036 0.740241,-2.31778 -1.197434,-0.91647 -3.380169,3.97225 -4.088561,1.57483 0.04657,-0.41616 -0.399823,2.09116 -2.61409,-0.18421 -1.654576,-0.39179 0.77344,2.15027 0.86257,2.53124 -0.169244,0.2134 0.02318,0.52155 0.25774,0.57062 z m 6.89068,-4.2435 c 0.729759,-0.647 1.558417,-3.58646 0.23091,-1.25414 -0.571497,2.48352 -2.16916,-5.05428 -1.08407,-0.40135 0.436235,0.36109 -0.08083,1.84649 0.85316,1.65549 z m -6.19001,7.47143 c -1.582605,-3.01514 -0.209472,-2.98111 0,0 z m 21.36295,-0.44646 c -1.157497,-1.44054 0.293223,-1.46994 0.59079,0.27914 l -0.179755,0.0471 -0.411355,-0.32624 z m -7.42247,-0.30259 c -1.875372,-2.03921 2.018353,-0.0933 0,0 z m -16.06328,0.024 c -0.917919,-2.79519 0.514054,-1.96214 0.19555,-0.48031 0.11234,0.0504 0.02283,0.97106 -0.19555,0.48031 z m 17.0312,-0.046 c -0.01396,-2.20458 1.601113,0.34098 0,0 z m -9.92176,-0.25694 c -0.30989,-4.2919 0.726051,-1.13855 0,0 z m 11.3057,-0.57374 c 1.874998,-3.36105 0.313857,1.45307 0,0 z m -8.33383,-0.52638 c -0.152459,-1.76431 0.817522,-5.52141 0.90635,-3.42105 0.381356,0.87734 -0.876834,4.85715 -0.90635,3.42105 z m 6.67106,0.39862 c -0.206193,-3.17938 1.085508,-0.0717 0,0 z m -17.86182,-0.39621 c -0.61039,-2.28269 0.222704,-3.95688 0.30425,-3.44443 0.195532,0.8053 0.385473,4.74206 -0.30425,3.44443 z m -3.97484,-1.24506 c 0.167941,-3.19559 0.239159,-2.98563 1.40066,-6.55755 -1.469351,3.10245 0.220396,-1.87195 0.34681,-0.94887 1.145301,-3.62722 2.720092,-2.12218 1.09732,-0.71732 -0.221588,0.66976 -0.447094,3.37069 -1.04158,2.97969 -0.891185,2.33761 0.301321,5.27868 -1.36412,4.71662 0.851001,-0.11224 -0.997702,1.53867 -0.43866,0.52769 z m 14.59391,0.46214 c -0.10718,-3.17876 -0.106773,-2.25499 0.12924,-3.75204 0.403298,-0.85358 0.835002,-0.0298 1.18292,-1.11011 -0.05567,1.18622 -0.795624,3.23096 -1.246035,4.99044 l -0.06589,-0.1283 z m -15.13956,-0.47088 c -0.646335,-2.072 -1.616399,0.55854 -1.21142,-2.45361 0.311234,3.31724 0.139064,-0.82705 0.92452,-1.14765 -0.02481,-2.19773 -0.648751,-5.27458 1.29423,-6.78412 1.677056,-2.28775 0.733186,-4.76978 0.79607,-1.80663 -1.381712,-0.53859 0.112852,-8.2937 1.37588,-2.94687 1.352243,2.34461 -1.630977,-0.38045 0.03977,1.78741 1.318757,-0.64251 0.813016,-1.43438 1.86242,-1.29046 -0.359952,3.41762 -0.827879,-0.67822 -1.243272,2.98282 -2.000193,2.97879 -2.658771,5.28739 -3.140558,7.48422 0.16083,-3.36172 -0.42332,3.97463 -0.50901,4.08477 0.322201,1.04565 0.01157,0.20343 -0.18863,0.0901 z m 2.22122,-0.0178 c -0.398671,-2.53359 0.815161,-4.76774 0.160806,-0.61996 0.0035,-0.0813 -0.02687,1.31316 -0.160806,0.61996 z m 14.49709,-0.80061 c 1.125067,-3.84055 -0.197605,3.09393 4e-5,0 z m 0.16773,-1.51561 c 0.01416,-2.42397 -0.02891,-8.03145 1.098566,-3.3192 0.590799,1.02768 -0.242658,3.38508 -1.098566,3.3192 z m -0.23476,-2.09109 c -1.24993,-1.91637 -0.963076,-2.65423 -0.839277,-4.62216 0.254259,-0.3499 -0.294096,-3.27519 1.021882,-0.49554 1.433485,-0.58991 1.703014,2.66262 0.869705,1.65129 -0.409421,0.43713 -1.009301,-2.61142 -0.795331,0.0786 -0.358137,0.5362 -0.162561,3.20026 -0.256979,3.38783 z m 1.5377,-1.37525 c -1.314855,-3.92911 1.387093,0.73871 0,0 z m 0.29219,-1.74512 c -0.238684,-3.38549 -1.851807,-2.88798 -2.438876,-5.78368 0.137138,2.69933 -1.992079,-1.08177 0.334136,-0.60111 0.397519,0.20472 2.20001,1.78992 2.95475,2.52838 1.068279,1.27232 0.187066,2.1398 -0.537853,3.13761 -0.268948,-2.0942 0.09888,1.77444 -0.312157,0.7188 z m -24.64557,-0.57938 c -0.476826,-1.88765 0.403074,-3.12744 1.703279,-1.51848 -0.841521,0.45236 -1.352527,1.66618 -1.703099,1.51881 z m 1.17058,-0.24405 c 0.359151,-2.90482 4.270419,-1.99358 0.79099,-0.4946 l -0.73942,0.66763 -0.0515,-0.17299 z m 35.45674,-1.05062 c -1.263489,-1.56697 1.601014,-0.43027 0,0 z m -27.46616,-0.4425 c 2.250149,-3.50431 0.06108,1.33314 0,0 z m 33.27817,-0.39503 c -0.418316,-0.35292 -2.937063,-2.27435 -1.00427,-0.39617 -2.08299,-0.75686 -1.265477,-1.57295 -2.58312,-2.86466 0.07089,-1.07408 1.940851,0.33643 3.302196,1.3628 -0.520536,0.32418 1.001231,2.13021 0.285194,1.89803 z m -10.09314,-1.85442 c -1.96551,0.81419 -2.485421,-1.48274 0.06139,-2.76591 -1.517201,2.04472 -0.284959,-5.36139 1.56173,-4.14121 0.54159,0.86691 0.287255,6.64477 -0.78472,5.75961 -0.418361,-0.14404 0.05451,2.36025 -0.8384,1.14751 z m -6.4855,0.10038 c -1.409923,-2.82226 3.28725,-2.91297 0,0 z m -0.91262,-0.14444 c -0.628456,-1.67201 -0.784448,-1.4611 -1.56094,-1.61511 1.734313,-1.50477 -0.294995,-3.86817 2.12427,-5.83121 1.30969,0.95865 0.684416,7.18254 -0.24658,4.58616 -0.640065,-1.02691 0.441114,1.93018 0.08943,2.62583 0.19625,0.30528 -0.290498,0.52033 -0.40618,0.23433 z m 4.09289,-0.50456 c -1.752187,-1.45362 -2.456161,0.0915 -1.449147,-2.90011 -0.774283,-2.26109 1.309391,-5.82231 1.683387,-3.24792 0.264185,1.46087 1.365075,6.025 -0.23424,6.14803 z m 5.04891,-0.65957 c -0.573594,-2.29735 1.468482,0.11417 0,0 z m -3.74067,-0.51997 c -0.848101,-1.45793 -0.507332,-1.19085 0.765843,-1.17576 0.773835,-0.0375 -0.541855,1.92849 -0.765843,1.17576 z m -8.8026,-0.33985 c -1.472083,-0.63202 -0.638096,-2.98681 0.451433,-4.83944 1.263887,0.99959 0.303521,1.701 0.528542,4.68774 -0.596895,-0.31666 -1.421144,-2.20785 -0.649565,0.004 0.338964,0.2984 -0.278833,0.41703 -0.33041,0.14797 z m 5.20739,-0.50498 c -1.650043,-0.85661 1.269367,-1.81271 0.31691,-0.15684 -0.115294,0.0697 -0.212653,0.61175 -0.31691,0.15684 z m -3.73038,-0.0596 c 0.07419,-1.9984 1.569301,-0.0571 0,0 z m 1.18673,82.03131 c 0.702743,-1.75963 -0.965657,0.23228 0.09277,-2.45713 0.224122,3.52017 0.475825,-3.84401 -0.431,0.22906 -3.26e-4,0.66824 -0.11316,1.74191 0.338226,2.22807 z M 59.850758,176.4558 c 0.117989,-2.82964 -0.867095,-2.32584 -0.922433,-0.24842 1.466704,-2.80714 -0.0815,0.99431 0.922433,0.24842 z m 1.86071,-0.1516 c 3.27199,-0.71043 0.560445,-3.32318 -1.23459,-3.15264 0.882418,-1.4323 3.537876,-4.09159 0.3923,-1.17366 -1.032894,2.79526 -0.521094,-0.72886 -1.33061,1.14641 -0.222324,-2.82514 -1.099679,-0.60621 -0.83033,1.00537 0.933231,-0.78255 2.752508,-0.40022 2.18133,0.61459 -0.477136,0.5193 1.290807,0.29026 0.80988,1.20678 -0.199856,0.006 -0.120244,0.84693 0.01202,0.35315 z m 2.13998,-23.78235 c 2.642741,0.0605 -1.47711,-3.01605 1.01812,-5.03041 -0.824717,-3.9019 0.490648,1.7834 -1.834127,-1.21793 -1.508338,-1.7568 -2.871934,-4.2097 -2.641413,-6.5065 -0.921902,-4.13708 -0.410928,1.03048 -0.61201,1.46592 0.386028,-1.85798 -0.350983,3.30339 0.41535,0.13867 0.863704,2.06331 0.608008,4.28958 2.271316,5.94879 2.478203,0.89511 0.930957,1.58752 1.562914,3.61355 -2.376689,0.0934 -4.245922,-5.7202 -4.26724,-5.56846 -0.883647,-0.91285 1.06272,2.97151 1.16162,4.11016 0.529773,-0.37488 1.000388,1.63063 0.94689,0.78417 0.139309,1.05773 1.550494,2.31525 1.97858,2.26204 z m -0.19945,-0.44048 c -1.751566,-1.80612 1.916497,-0.49406 -3e-5,-6e-5 z m 0.006,-4.20571 c -2.00931,-1.14858 0.775013,-1.67095 0.41237,0.10258 l -0.41229,-0.10247 z m 39.543272,-14.82328 c -0.14283,-2.17755 -0.291,-1.22497 -1.74302,-3.2512 0.7375,1.50318 0.9176,1.72079 1.74302,3.2512 z"
     id="path1" /></svg>
