<?xml version="1.0" encoding="UTF-8" standalone="no"?>
<!-- Created with Inkscape (http://www.inkscape.org/) -->

<svg
   width="153.02699mm"
   height="230mm"
   viewBox="0 0 153.02699 230.00001"
   version="1.1"
   id="svg1"
   xml:space="preserve"
   sodipodi:docname="bird — kopia.svg"
   inkscape:version="1.4.4 (dcaf3e7, 2026-05-05)"
   inkscape:export-filename="boss_shadow.svg"
   inkscape:export-xdpi="96"
   inkscape:export-ydpi="96"
   xmlns:inkscape="http://www.inkscape.org/namespaces/inkscape"
   xmlns:sodipodi="http://sodipodi.sourceforge.net/DTD/sodipodi-0.dtd"
   xmlns="http://www.w3.org/2000/svg"
   xmlns:svg="http://www.w3.org/2000/svg"><sodipodi:namedview
     id="namedview1"
     pagecolor="#ffffff"
     bordercolor="#000000"
     borderopacity="0.25"
     inkscape:showpageshadow="2"
     inkscape:pageopacity="0.0"
     inkscape:pagecheckerboard="0"
     inkscape:deskcolor="#d1d1d1"
     inkscape:document-units="mm"
     inkscape:zoom="0.33716632"
     inkscape:cx="-373.70281"
     inkscape:cy="345.5268"
     inkscape:window-width="1920"
     inkscape:window-height="1009"
     inkscape:window-x="2552"
     inkscape:window-y="143"
     inkscape:window-maximized="1"
     inkscape:current-layer="svg1" /><defs
     id="defs1" /><path
     style="fill:#000000"
     d="m 115.23265,228.03055 c -4.15398,-3.63068 -3.59765,-9.94401 -2.08154,-14.1106 0.13889,-3.15133 2.25107,-10.13761 3.53018,-9.47746 -5.00352,4.85062 2.81292,0.1832 3.10047,4.71982 1.41166,-1.79735 2.69586,-4.98681 3.90244,-6.89543 -0.0269,-1.43709 -1.75807,-5.01354 -2.53212,-2.56657 -3.51265,-0.0395 -2.66132,1.86871 -4.07368,2.13581 -2.66224,0.65333 -6.85877,3.05568 -2.03036,0.0304 2.99702,1.59832 0.66724,-4.92842 2.52037,-1.9238 2.58387,-1.08061 1.23043,-3.33303 5.84762,-3.59598 2.31175,-2.35083 -0.7601,-2.25664 1.14585,-3.32036 -3.4767,-0.064 -6.39825,2.44958 -9.43697,3.6882 4.97816,1.18567 -2.53759,-0.74016 -3.16753,2.95528 1.06429,1.86349 -2.16467,-0.44535 -3.03169,2.00958 4.97428,0.83499 -2.25463,-0.97254 -2.17892,2.124 -2.98426,2.80411 -2.30335,3.90192 -4.09417,5.60291 -1.28978,4.08652 1.43821,12.63789 2.01685,4.44033 2.20695,-1.93578 1.82466,-4.48808 1.38662,-5.168 1.33923,2.568 3.07358,-2.76814 5.03656,-3.50539 -2.18711,-3.13285 2.53545,-0.27195 0.63829,-0.25339 -2.9073,2.59111 -5.19287,5.91312 -7.02618,9.77282 0.28844,3.04997 -1.02343,5.70042 -2.35508,1.22387 -1.56491,-5.94838 1.95297,-9.99011 5.32798,-14.08475 4.60615,-2.37001 7.30957,-6.53191 12.37069,-7.9192 3.5067,-1.44878 5.483,-6.99735 4.83189,-11.36387 2.99827,-1.78339 2.9216,-7.07577 8.063,-6.37376 4.4164,-4.82273 5.58374,2.09161 6.06255,4.05478 6.07522,1.06854 -3.3461,10.71678 -1.62974,9.07083 2.72565,-2.22916 4.47916,-10.5267 1.02594,-8.01857 -2.98833,-0.59715 -1.5013,6.90156 -3.90787,9.34871 -0.87772,3.18253 -6.16035,7.75336 -1.36288,5.91964 -1.36255,1.39419 -0.33716,1.14647 -1.89911,2.7611 3.33724,0.54856 -3.36317,0.79097 -0.94086,4.06231 -2.23187,3.41173 2.50505,3.19861 3.05226,3.30372 0.45047,2.34492 -2.75884,-1.8619 -1.83987,1.06026 -3.82731,-1.7148 -0.84168,-6.08332 -0.83608,-8.73646 1.64121,-4.11078 -1.60141,1.5733 -4.59757,0.88519 -2.33025,3.09642 -4.21394,6.3552 -6.18681,9.54316 -1.84317,4.56823 -2.45215,9.36277 -4.08716,14.15449 -0.8562,0.93083 1.0735,4.78241 -0.56337,4.44635 z m 0.38904,-0.45041 c -1.51702,-3.98363 4.71875,-12.2458 -3.14854,-9.90486 -0.11105,3.05251 -0.25791,8.92245 3.14854,9.90486 z m 1.67687,-9.97631 c -0.40384,-3.9652 4.62149,-8.35994 0.0595,-10.64688 -4.22223,-0.44871 -4.18401,8.79654 -4.2736,9.54856 1.54615,1.53496 3.34766,-0.65262 4.21407,1.09832 z m 7.66539,-16.13544 c -0.18558,-3.73841 8.03318,-1.2423 4.35136,-6.82512 -2.62124,-1.35359 1.45465,0.34594 0.0383,-1.19583 2.65841,5.92447 2.52878,-3.28399 3.30209,-5.7461 0.31198,-5.27885 9.45063,-7.9757 3.63329,-12.85504 -3.00941,1.27567 -9.20092,2.16874 -5.82576,6.37656 -1.48443,3.48715 -1.543,8.96388 -5.06888,11.89936 1.37895,3.80014 -10.19483,5.92322 -2.80426,5.53308 2.20565,0.18461 0.0339,4.76534 2.3739,2.81309 z m 9.00806,-10.28643 c 2.0478,-1.89256 3.61281,-12.5156 -0.0271,-6.11762 -1.41194,1.17886 -3.53967,13.11744 0.0271,6.11762 z m -11.44828,1.76437 c 1.11924,0.34785 3.78864,-1.11991 3.92253,-2.04971 2.5041,-1.85107 4.49131,-9.09148 0.56182,-8.24655 1.60011,-1.90668 -4.07122,-0.4527 -1.747,2.76733 1.25122,3.22569 -3.81311,5.90983 -2.73735,7.52893 z m 6.51313,-10.87134 c 0.62859,-2.05732 0.0491,-7.22242 -1.91,-1.89276 -0.21041,0.4958 1.60981,3.34826 1.91,1.89276 z m -1.19663,42.29927 c 1.28693,-4.68585 3.11818,-9.2385 3.15669,-13.72353 0.43421,-2.26026 0.0815,-2.90116 0.68285,-0.2964 4.36516,-2.79176 -2.28594,0.99968 -0.39802,4.31069 -3.3908,3.06177 3.40903,2.21983 -1.20279,2.9187 -0.7426,2.65429 -3.23255,9.43272 1.09713,4.43833 2.5866,-3.2576 3.22098,-4.5466 3.95825,-9.34306 -0.005,-2.60365 2.84591,-4.01118 -0.92276,-6.21247 0.40321,0.11801 1.73439,-5.23301 -0.0228,-7.07954 -1.74755,-1.7541 0.76263,-1.02894 0.43033,-2.2232 1.61508,4.8913 2.38979,-11.4416 1.8306,-3.48295 1.12412,3.95998 -3.0982,5.30577 -1.10341,8.69255 -1.07552,4.26169 2.93878,7.60884 -0.33933,11.65203 0.12252,4.33592 -2.90001,9.12275 -7.16679,10.34885 z m -95.839931,-1.37258 c -5.69077,-1.18006 8.01697,-4.32773 0.63802,-1.78049 -5.6699,2.18299 6.89364,2.46228 5.06967,-0.42677 3.75381,-1.93239 8.15697,-1.41578 6.99523,0.93275 5.79423,1.72212 11.44967,-2.18098 16.48512,-1.15978 2.20167,0.90387 14.6787,0.68892 9.60478,-3.43308 4.33394,-3.59604 10.88171,-2.56416 15.29798,-5.71465 0.14283,-4.49236 0.72014,3.97165 -3.63389,1.92102 -2.71807,2.00493 -11.45843,1.03496 -10.82871,4.84209 3.76774,2.68581 -6.39371,3.15533 -8.44774,3.22236 -4.49215,-2.88315 -9.91025,2.21938 -15.34822,0.71153 -3.38335,0.54629 -4.77526,-0.74228 -3.82494,-2.11772 -6.35996,-1.38496 -5.87153,4.61331 -12.0073,3.00274 z m 2.50043,-3.38142 c 3.03552,-3.78499 9.46969,-4.62851 13.00443,-7.21874 2.33417,-4.00367 7.35403,1.04799 10.11719,-3.35921 6.90782,-1.00713 1.45767,-11.5935 8.11413,-12.77377 3.24632,0.70727 4.12654,7.88913 6.78239,2.66581 2.36808,-6.29441 -1.10048,7.60605 -3.24146,0.84753 -1.64114,-3.14733 -7.38103,-4.17392 -6.90344,1.50454 0.43753,5.65601 -5.41473,10.86428 -10.57094,9.91644 -4.06468,-1.51203 -4.68107,4.84885 -9.34111,3.47648 -2.3,2.21455 -6.18078,3.00286 -7.96119,4.94092 z m 22.50925,-2.74226 c -1.71619,-0.396 9.44803,-2.43475 2.61876,-0.0261 l -1.32084,0.17677 -1.29791,-0.15065 z m -29.78347,-4.1263 c -4.92138,-1.88709 -7.61401,-6.77897 -9.61399,-10.62774 0.40588,-2.25254 -0.41483,-9.01313 -1.62724,-4.12592 -1.81924,-3.6228 1.23179,2.32473 0.53396,-2.76076 0.0462,-3.61358 -4.77442,-0.66774 -1.32307,0.48821 -5.06382,-4.49272 -3.74708,5.64706 -4.42956,8.72865 -0.25301,3.00644 4.96047,9.82441 -1.2304096,5.23385 -2.09177,-1.83613 -6.44919,-9.95112 -2.47892,-3.8892 0.97173,3.02625 8.0298996,8.0624 4.0588796,1.91755 0.49212,-3.88966 -1.3863696,-6.93543 -2.2198796,-7.57621 -0.4042,-2.05519 -0.5316,-1.11075 1.4364096,0.60494 0.7147,-2.75932 0.98019,-8.16845 4.59598,-8.51725 0.27211,-4.78746 0.19064,-2.10419 2.78052,-4.85325 -3.72228,3.76261 0.47695,4.16573 0.99052,2.02048 -1.21698,2.32198 -0.28154,1.89592 -2.54555,4.09479 2.31335,3.21254 1.33668,10.12963 3.44417,9.54885 2.18569,-1.74758 3.90713,-1.02666 4.67299,-2.3581 -2.72738,-3.83047 0.51679,-8.18172 -3.11163,-9.8389 0.6459,-0.7196 -1.02814,-2.82021 1.64854,0.52131 2.02051,1.1154 0.94854,-7.99023 2.08163,-5.12115 2.26935,-3.29359 -2.81378,-2.05101 -0.65361,-3.96008 -3.97225,-4.20786 3.59327,1.9998 2.25635,1.86497 -0.361,0.28463 -2.18824,4.56049 -0.0357,2.70722 -3.03829,0.94132 -1.82661,5.26632 -0.57724,3.42774 1.9099,-1.78861 -2.7451,2.03593 -1.9881,2.58403 -1.37742,5.72964 1.5281,9.90496 2.13456,15.31534 -0.3286,1.24366 4.22101,5.08034 1.20042,4.57063 z m 0.74645,-0.30213 c -3.71025,-2.9112 -1.30866,-9.8438 -5.5971,-10.45672 -6.59548,1.20612 -0.34065,6.23921 1.98364,9.07828 1.13521,0.5316 2.33443,1.33003 3.61346,1.37844 z m 66.72806,-0.7204 c -0.31458,-3.58911 6.456161,-7.27084 3.97823,-1.28246 -0.95019,1.22268 -2.75095,0.84473 -3.97823,1.28246 z m 0.95019,-0.32554 c 5.120801,0.59669 3.02251,-7.55048 0.35872,-2.12154 0.28511,0.46015 -2.34479,3.14909 -0.35872,2.12154 z m -19.46075,-1.31231 c 1.56574,-3.74662 -1.25322,-3.72164 -3.3544,-2.19164 2.24658,-3.05433 4.5639,-0.34121 4.34972,1.31244 2.97406,-1.42486 1.74539,0.96837 -0.99532,0.8792 z m -13.81844,-0.34693 c 2.09841,-1.32318 2.76268,-3.90219 1.15598,-3.19827 4.08963,-3.53675 1.2993,3.57098 -1.15598,3.19827 z m 24.0337,-0.84445 c 5.23554,-0.99167 7.38268,-7.36452 13.31065,-6.96439 4.281171,-1.35626 3.831801,-6.57561 6.216761,-10.01735 1.75243,-5.54305 -9.426521,5.29229 -2.79348,-0.4689 5.52907,-5.40723 2.44692,5.10232 -0.11246,6.72366 0.19098,5.94377 -9.184281,3.11789 -11.443361,8.18044 -0.49778,2.10006 -4.75088,1.91589 -5.17811,2.54654 z m -47.51507,-3.17924 c 2.06333,-4.3053 0.80706,-8.40625 1.62253,-12.48778 -0.62195,-2.83815 -4.47082,-8.54368 -6.01293,-3.25906 -0.73194,-0.42294 3.40561,-4.88491 0.43653,-2.2444 -0.007,-0.44079 -1.94288,-1.43534 -3.57369,-0.66033 1.73256,-0.58733 -5.19076,-4.73795 -2.75497,-0.45888 -4.07036,-2.2244 0.44747,0.28027 -0.68946,-3.29286 1.37512,-1.14374 0.69771,-8.4483 5.64993,-4.8656 1.55359,0.10454 -5.77604,1.87344 -2.46049,3.09882 -3.38572,1.40367 0.73243,5.15311 3.59758,4.05975 3.21709,2.16105 4.21297,3.697 4.90153,1.12639 1.38271,-0.12458 3.6708,-2.31516 0.69076,0.0315 -2.49166,2.94576 1.31247,5.75033 0.55695,9.38332 1.74346,-2.17896 2.32937,-0.5853 1.89698,-0.0923 -4.03481,0.0818 -1.18858,4.77544 -3.08932,8.04006 -0.35119,3.69724 6.99619,-5.41107 5.31053,-7.44916 -0.96476,-4.51579 1.39894,3.24983 1.10827,-2.30146 -1.48211,-4.9242 -1.17207,-10.50234 -6.13367,-9.26814 -0.64319,-2.9132 6.72502,2.38039 2.44332,-2.28987 -2.05556,-1.50932 -6.96514,-1.7349 -7.15013,-2.64693 2.97924,0.26456 6.76329,2.80042 4.76785,-2.20524 -3.40789,-4.2804 2.09674,2.30593 1.22024,4.10972 4.69487,2.60025 4.47195,9.51154 4.91627,14.51408 -1.45073,2.71451 -3.31417,8.76285 -7.25461,9.15839 z m -8.58968,-20.75212 c -2.99197,-2.50776 4.0759,-9.53907 -1.18172,-5.1654 1.54956,3.82574 -2.59209,3.69286 1.18172,5.1654 z m 54.9077,18.58177 c 2.21997,-4.90334 6.1283,-1.90619 1.22782,-1.09389 -0.0954,-0.55745 -1.57018,1.92482 -1.22782,1.09389 z M 6.2013994,202.83393 c -3.47673,-4.48094 1.6128,-10.76634 1.8825,-15.43783 2.2425696,-1.02087 0.91182,-6.06314 5.3643196,-6.01428 1.68218,-3.37048 2.87071,-7.83936 7.95226,-7.06469 1.18435,-1.25443 2.93652,-7.75378 7.39726,-3.82658 4.05921,-0.10438 9.93466,-3.27336 9.07476,-8.27317 -4.16869,-4.85962 1.5527,-10.5256 3.33232,-15.42381 3.17906,-0.75333 6.89774,-1.37544 7.09451,-6.22808 -4.06189,-2.12857 1.28465,-10.75231 -4.40181,-13.96824 -2.11592,-2.69622 -2.40228,-12.3186 2.82475,-9.42684 0.6992,6.36563 6.52957,13.07833 12.30987,13.68094 3.49606,-0.91596 7.99743,-2.50949 8.63586,-7.26307 2.47621,4.48693 4.36736,2.80075 5.20162,-1.63851 1.08461,-3.84385 3.80282,-5.96012 3.43496,-0.33416 -0.83809,6.67618 6.55902,3.22161 7.87558,-0.40366 3.23421,-2.54397 -0.56273,-15.83993 5.31736,-8.72743 3.24469,4.85385 0.0626,8.535 0.73042,13.31616 3.29061,0.0171 3.76848,1.88186 3.05951,4.91415 2.49778,3.03474 -2.3452,-1.06924 0.1619,-3.1695 -1.61114,-1.73558 -5.58968,-0.83072 -3.7198,-5.42798 0.85733,-2.54869 -3.55747,2.77321 -0.30887,-1.44841 5.54329,-1.35174 -4.55566,-16.42951 -3.18182,-6.2491 -0.086,6.12476 -3.65151,11.29981 -9.35629,11.82571 -3.4554,-2.03218 2.22149,1.42435 -0.42684,-1.81763 -0.30516,-3.49757 -1.10447,-9.31032 -3.02322,-2.8192 -1.30735,2.31094 -2.48327,5.91666 -1.00131,4.83195 -3.58008,1.26385 -1.3588,2.84258 -3.27911,-1.15947 -3.10941,-4.45031 -1.9559,5.30642 -3.54103,3.74475 -1.10992,-1.2298 -10.37421,4.99405 -2.97001,3.25871 3.27055,3.07383 7.2021,-3.78338 9.71256,-0.66383 -3.02199,-3.66781 -3.70015,4.45269 -4.78573,1.782 -2.42537,0.1302 -10.23035,4.50634 -4.4634,0.0289 -0.88825,2.14284 -0.77579,1.44285 1.55732,0.52535 -4.52191,-3.63781 -11.57654,0.61391 -14.59851,4.62024 -3.80787,4.78089 -2.79197,11.53035 -2.24642,16.33942 0.53337,2.74588 0.13223,8.05901 5.09982,6.60233 1.43619,2.33613 -2.39284,-1.23695 -0.031,1.77762 1.3128,4.16116 -0.82142,4.29053 -0.78827,1.56542 1.91965,1.03859 -2.67369,-6.46492 -2.43772,-0.38907 -1.53001,4.53841 1.84291,8.38776 2.23475,13.10651 -1.74329,-4.34605 -2.66918,-9.00156 -3.43891,-12.48368 -2.56889,-0.003 -2.62129,5.51987 -5.15962,2.65152 -5.08227,0.59346 -3.92563,8.5831 -6.97459,8.80846 -2.43919,-3.86837 -0.6925,-1.39734 0.63535,-0.53357 0.93056,-3.96968 4.12931,-8.80209 8.54001,-9.34152 -1.88044,4.18579 1.87494,-2.02755 1.89196,-3.38222 2.70568,4.94381 2.2049,-1.99123 0.947,-1.26824 -1.47331,-0.95015 -1.00526,-3.54958 -1.02318,-2.95821 1.34174,-2.36798 0.40691,-5.31174 -1.00792,-3.07462 0.91813,-3.4332 1.32203,-7.10355 0.5954,-11.14302 -1.65126,2.46433 -7.11241,0.0829 -6.33121,5.63631 -3.85544,2.60963 -5.17123,8.97238 -2.09971,12.57731 0.81846,-4.80641 1.43199,-3.00272 3.41746,-0.0509 -0.1978,-1.15477 -3.98798,-3.36935 -3.13974,0.50087 -1.73156,4.82084 -6.17574,7.0898 -10.70959,7.26319 -4.16845,-4.74305 -4.11655,4.88996 -8.4427,4.21473 -5.60027,-0.95363 -3.52974,8.25359 -9.16008,8.07463 -3.3466496,5.48684 2.64889,2.12162 5.74943,2.30265 1.8656,0.91313 -5.31046,0.45344 -5.37327,1.3544 -5.0579396,0.22361 -2.7593496,7.66911 -5.6340096,11.2518 -1.25545,2.20578 2.66547,4.607 1.02485,4.85445 z M 48.873659,139.67091 c -2.65066,-0.81536 4.0874,-2.06019 0.2319,-4.22023 2.51191,-0.11055 7.3696,-1.36145 7.47958,-3.55595 -3.33759,-4.42449 -9.93118,-7.44459 -10.17795,-14.27071 -3.34473,-3.3593 -5.10991,6.34473 -2.07975,8.92668 2.5366,2.6959 4.25369,8.46315 3.03758,9.3359 -1.74665,1.43254 -0.39905,4.72719 1.50864,3.78431 z m 8.87592,-6.70678 c 5.50173,-1.7328 -2.40452,-3.21815 -0.96421,0.25803 l 0.96417,-0.25803 z m 30.51787,69.90733 c 2.18419,-1.28346 4.70631,-9.97424 5.65277,-9.12964 0.7943,1.51046 -0.75189,5.55547 -0.89935,2.01536 -1.69005,2.11831 -2.11387,5.71725 -4.75342,7.11428 z m -5.18134,-1.29178 c 3.12099,-2.36997 1.37882,-5.37662 -0.9883,-1.58415 -1.37827,0.62157 -0.20285,-3.94349 -2.23611,-1.10044 1.73992,-3.7647 -1.62908,0.51841 0.61451,-3.22032 -0.11323,-0.32981 2.36676,5.51301 4.4474,1.02192 3.86646,-4.14943 -0.0396,4.77103 -1.8375,4.88299 z m 12.5653,-3.27328 c 2.38727,0.0152 3.05593,-5.26236 2.04913,-7.53214 -1.79421,-0.70081 -2.65339,-0.37688 -1.25083,-1.94927 3.06503,-2.24457 1.08165,-1.82118 0.7861,1.31005 1.4705,1.94518 2.921341,3.43145 0.55302,3.79267 1.19077,1.84682 0.14911,4.43525 -2.13742,4.37869 z m -20.47186,-1.2635 c 0.70152,-3.68378 -1.42899,-3.59311 -1.80013,-3.65613 -0.86608,-0.0929 -2.58455,2.08661 -0.42497,-1.11878 3.25357,-3.68086 3.60931,4.31332 2.2251,4.77491 z m -19.56992,-3.20318 c -1.28527,-0.58009 -4.71473,-2.62055 -3.33177,-3.5929 1.30017,4.01393 1.78898,0.11116 3.80672,3.45564 -0.10209,-3.15663 1.03453,0.92327 -0.47495,0.13726 z m 15.16788,-0.20308 c -1.24017,-1.65009 -2.2445,-8.37746 -1.10604,-7.1737 -0.28923,2.37231 0.70348,6.05929 1.10604,7.1737 z m -8.19796,-1.34 c -0.82194,-2.99448 0.94979,-2.16834 0.84501,-6.47092 0.74391,-4.0978 1.9009,4.83328 2.11987,-1.02785 -0.23581,-5.52637 4.7688,-8.87325 5.39004,-1.93404 1.78552,5.09338 1.19988,-7.16122 3.45968,-8.13813 0.74555,-1.75388 1.06922,2.23672 -0.74316,1.8339 2.20601,0.99803 6.11372,-1.93176 5.68019,3.34503 0.30055,4.37151 -5.04406,6.14766 -6.68636,1.79505 -0.39089,6.01812 -2.53275,0.64916 -3.67764,0.0298 -0.12903,1.21913 -3.49347,-3.75266 -0.62506,0.83905 0.28589,2.85023 -1.688,-0.9427 -0.30672,2.58542 1.33013,2.17241 -3.19857,-5.14171 -2.30404,0.18958 -0.31655,5.60128 -2.43765,-3.55955 -2.37169,2.50533 0.11391,0.49731 -0.86275,5.7282 -0.78012,4.44775 z m 14.98678,-9.05449 c -0.14591,-1.48638 0.67318,-3.76557 -0.7892,-2.68943 3.25831,-4.26941 -0.60996,0.0642 -1.49771,-1.88224 2.5378,2.69651 -5.20534,0.48354 -1.38028,3.821 1.42252,0.51476 2.57912,0.48575 3.66719,0.75067 z m -21.70883,8.18286 c 0.77854,-5.85206 -5.59303,-7.28684 -3.54896,-2.52827 -2.10466,-6.65008 4.86188,-1.75301 3.85987,2.13854 l -0.24147,0.69417 -0.0694,-0.30447 z m -23.1485,-0.9575 c -2.02958,0.22702 -4.69167,-2.08764 -1.15928,-0.54202 -0.16855,-2.322 1.9962,1.23452 1.15928,0.54202 z m 79.563101,-0.005 c 0.0105,-1.33632 1.21005,0.0519 1.56865,-2.291 1.65621,2.64962 3.10134,-11.97359 2.46756,-3.92844 -1.14878,2.45941 -1.48055,5.50339 -4.03621,6.21944 z m -18.026891,-1.71112 c 2.59405,-4.67776 -3.11544,2.0346 -0.0867,-3.11843 -0.0245,-2.90037 -4.2444,2.93885 -6.77911,2.87322 -1.00198,-3.13315 3.2493,1.03618 2.65975,-2.57707 -2.46059,1.71223 -0.0286,-3.83972 -2.85155,-0.67534 -1.84337,3.39326 2.4292,-6.51688 -0.60036,-2.05565 2.24033,-3.69303 1.99869,2.97064 3.60953,-1.76138 2.72489,3.36037 7.81146,4.05784 11.858711,2.5406 3.89562,-2.94156 -2.187361,1.83427 2.10951,-0.85908 3.17091,-2.7785 0.2874,-6.27951 -1.76393,-2.10307 -1.58188,0.54295 -0.40058,-3.07162 -3.421601,-0.1161 0.2081,1.55532 -5.61434,-0.40428 -2.84685,-2.00297 -2.03549,-1.71187 -4.40777,0.6655 -4.36887,-1.18878 2.95524,-3.4937 7.52239,4.30155 12.137311,0.68766 2.17313,-0.20583 5.92676,-5.18733 2.42133,-5.6211 -0.99608,2.20951 -3.58161,3.16477 -2.61151,0.83267 -2.02986,1.16781 -5.101591,2.72032 -5.130751,-0.15393 -1.81283,-0.77157 -4.26633,1.51502 -2.15553,-1.46111 3.757321,3.00962 15.992021,-0.47524 11.199761,-4.98629 -1.48857,2.64495 -3.45017,2.12408 -3.12971,0.99075 -1.63637,0.58026 -4.33747,3.25606 -4.782891,-0.35082 2.955101,-1.1674 4.629211,1.58783 8.142451,-1.7636 4.27517,-2.80661 0.26647,-1.52328 -1.05335,-3.66612 -3.3831,4.77288 -2.78713,0.5349 -0.7683,-0.45171 5.27823,-0.74825 11.42385,2.83197 15.43309,7.7565 1.151,2.61061 1.91684,5.27552 4.29327,2.74355 -1.01678,0.47368 -0.27522,1.29805 0.97477,3.29845 1.78114,-2.54491 -1.20292,2.68205 -1.04042,-1.88982 -4.88872,1.44306 -5.46367,-10.14838 -10.64815,-8.15666 -1.66852,2.00063 -2.5283,12.18752 -3.02867,6.92982 1.13504,3.96024 1.21866,-6.93157 3.26656,-8.14869 -1.33467,1.79377 -2.18509,-0.33685 -3.58218,-0.32895 1.41518,2.89089 -4.85568,0.0315 -2.04576,3.61514 -0.8829,-4.04876 1.08032,0.17686 1.54814,-0.287 1.35135,5.04845 0.78453,2.93356 -0.65519,0.0685 -2.98727,2.68558 -2.49889,5.51127 -3.23127,9.02953 -2.90956,2.66912 -1.27249,8.75239 -7.551131,8.97677 -0.99284,2.11181 -3.75768,-1.66242 -5.51975,3.38075 z m 16.343091,-0.5357 c -0.29586,-3.386 2.18385,-6.67336 2.50146,-9.89444 3.64287,-4.5134 2.89076,7.54012 2.54729,0.40354 -3.41095,-3.32939 -3.57916,6.19774 -4.85675,8.51834 -0.005,1.58412 2.0449,-0.83751 0.30307,1.13864 l -0.49469,-0.16607 z m -50.505141,-2.13028 c -0.21363,-2.57198 -4.46719,-4.81033 -3.41231,-6.58848 0.39691,3.52266 3.89693,3.78787 3.41231,6.58848 z m -42.06291,0.47289 c 1.86923,-2.97978 -3.53149,1.1008 0.24635,-1.99626 1.56732,-1.29807 -2.6786,-0.60175 -0.12383,-2.09152 0.85665,1.7868 1.64542,-6.38761 5.4267,-2.73446 -2.73738,-1.51034 -4.67847,2.22421 -2.63596,1.4855 -2.72404,0.79932 -0.9851,3.6459 -2.91326,5.33674 z m 25.53527,-6.08298 c -1.25614,-2.02058 1.31342,1.14574 0.51389,-2.58169 0.3787,-3.11589 -2.58182,-6.66178 -2.97691,-1.39292 1.98597,3.64393 0.61345,3.55528 -0.18139,-0.1208 2.02102,-8.96708 4.61744,3.4136 2.64441,4.09541 z m 12.71784,-2.2163 c -1.00233,-2.04987 -3.67223,-4.62931 -3.46336,-0.3918 -0.97569,-5.02196 3.91589,-2.56364 3.46336,0.3918 z m 71.027841,-4.97771 c -1.00779,-1.05249 0.87694,-2.16942 0.35434,-2.86361 2.89253,-3.94402 -7.21783,-4.87763 -8.10077,-9.94319 -1.81417,-2.64406 -0.71049,-3.66555 -0.15978,-2.53658 2.0962,-2.36549 1.73175,-6.61008 2.46085,-9.65816 -3.51938,2.28007 3.13555,-4.33696 1.59245,-7.10459 0.61047,-3.73053 -4.13298,-11.04906 -4.10329,-3.14625 0.51438,4.05877 -6.94752,10.99953 -7.26191,9.16803 1.40918,-0.9694 -3.12601,-3.437 -2.72545,-0.13748 -5.40739,-0.17695 2.70119,0.81124 0.28387,-3.14872 2.6543,-7.70903 -6.79735,0.15636 -5.95518,1.10056 0.4524,2.67049 3.52647,1.04762 2.62163,2.35805 -3.77143,0.32383 -4.09774,-6.03077 -1.13962,-4.76917 2.37194,-2.93072 -4.76736,-2.17596 -3.55705,-5.01997 1.03457,3.54134 3.24738,-4.97238 2.68551,-7.87384 -0.88768,-7.33842 -3.37306,3.96608 -7.184731,3.6013 2.997921,4.74799 -4.18687,-4.37088 0.46264,-0.54486 3.572431,-0.65964 6.112021,-10.86567 7.052791,-2.7647 1.19623,4.04447 -4.22286,8.9312 1.10119,10.8318 0.80897,2.53856 5.66599,-4.45749 4.31761,1.84879 -0.1906,4.93183 6.16294,4.71564 7.47416,-0.44971 1.92664,-2.29601 1.32262,-12.4833 5.3021,-6.20262 2.04138,6.15447 -0.74184,12.28015 -1.80165,18.31102 -0.56472,3.43054 -3.18928,6.57761 1.3595,9.21755 3.4319,4.16212 9.49618,2.66695 4.92079,9.72635 z M 74.884689,173.1022 c 0.18005,-5.56828 7.95414,-1.65354 6.49087,-7.89932 -3.12219,-2.18097 1.83309,-6.68456 0.85015,-1.43643 -2.33977,-2.98437 0.77826,4.49918 -1.83432,6.00822 -0.78336,5.15047 -3.11836,-1.86215 -5.50677,3.32781 z m -14.8634,-2.32814 c -1.90835,-0.23143 -1.24796,-3.50015 -2.48993,-3.89965 -0.75207,5.1176 -3.46375,1.07857 -3.28266,-1.692 -1.17394,-2.56294 0.0547,-5.50594 1.17806,-0.56398 0.82934,2.6727 0.15698,5.11608 1.88502,1.68629 -0.64971,-2.42719 1.59059,0.84522 2.87923,-1.41593 -0.32016,2.64739 2.99372,-2.05351 2.62812,1.46284 1.52609,6.07561 -1.99454,2.52133 -2.79784,4.42243 z m 24.20938,-0.442 c -1.57511,-2.51427 0.36822,-4.03171 0.52437,-0.81194 1.72529,-0.075 0.52894,1.06751 -0.52437,0.81194 z m -19.0184,-1.2664 c -3.37799,-3.30794 1.80821,-8.83243 2.48603,-7.7663 -0.074,1.73006 0.38056,8.99873 -2.48603,7.7663 z m 4.9735,-3.12735 c -2.091,-0.65009 -3.30516,-7.82247 1.39948,-5.63605 2.33278,-2.50274 1.27174,-4.53898 3.67547,-4.65002 2.46562,-2.3154 -2.47155,-6.22253 0.45876,-5.37873 0.93566,-3.0159 -0.15137,-2.1168 0.78583,-4.1293 0.22761,1.72909 1.53498,6.13507 0.29218,3.58489 -3.19605,2.90576 3.69728,8.12774 -0.72826,10.19147 -0.95098,-3.84471 -2.19929,-3.82453 -1.52541,-1.2155 1.07661,3.37767 -1.5491,9.06308 -3.9943,4.009 -1.76975,2.37027 1.53115,3.61694 -0.36375,3.22424 z m 2.08069,-1.55954 c 1.49889,-3.1833 -0.58166,-6.52698 -0.81547,-2.44672 0.44652,-0.18167 -0.0464,3.63074 0.81547,2.44672 z m 3.98956,-5.52239 c 2.11528,-0.0179 -0.51659,-5.87785 -0.33303,-0.18274 l 0.2042,0.51341 z m 8.52503,6.18614 c 1.12494,-3.96798 4.81961,0.8042 1.75003,-0.69938 -0.64755,-0.97006 -1.90246,1.90642 -1.75003,0.69938 z m -42.28281,-0.14925 c -1.02919,-1.32793 1.16219,0.2982 1.81908,-2.57763 0.73827,-4.58235 4.44407,2.53517 1.04292,0.15301 2.18339,2.62242 -1.51896,0.0102 -0.94277,0.43163 -1.20064,-0.17096 -0.5929,2.97969 -1.91923,1.99299 z m 50.07063,-1.40975 c -2.07401,-2.30245 3.84342,-4.60546 3.53444,-8.55526 0.95001,-6.26169 2.12729,5.46363 -1.29256,7.41542 -0.70855,1.10929 1.77621,0.31077 -1.64629,1.3296 l -0.59564,-0.18974 z m 2.30991,-1.67284 c 4.03841,-4.59509 -3.86028,-2.08281 0,0 z m 8.492621,0.0199 c -3.988951,0.25857 -2.29056,-5.67877 -1.27166,-8.89082 3.79701,-1.78236 4.86071,4.59526 1.83642,0.36154 -4.063551,0.80341 -0.59116,3.16008 -2.29062,3.73454 -0.95634,2.29216 2.36718,3.46246 1.72586,4.79474 z m 2.60595,-0.78026 c 2.30431,-2.52828 -1.21696,-0.081 0.52609,-2.02629 -4.32554,-3.11522 4.95045,1.97395 -0.52609,2.02629 z m -17.230641,-0.38591 c -1.68262,-2.0203 1.69057,-5.19441 1.1926,-1.90203 2.20406,0.005 0.56292,1.42225 -1.1926,1.90203 z m -31.73559,-0.27936 c -1.24556,-6.46213 5.80802,2.82239 1.07724,-1.53058 0.2038,0.52893 -0.90087,2.25191 -1.07724,1.53058 z m 72.147251,-0.3903 c -1.56704,-3.07801 0.0515,-8.60122 2.88264,-3.88705 1.20775,3.30484 -1.54245,2.51165 -2.88264,3.88705 z m 0.60286,-0.64677 c 2.65958,-2.93475 -2.74189,-0.73129 0,0 z m 1.92368,-0.66546 c 2.52789,-4.68484 -5.88215,-5.33922 -1.75354,-0.94982 0.90499,-0.0898 1.14992,1.04519 1.75354,0.94982 z m -40.632681,-0.0693 c 1.71276,-2.96611 -2.64155,-3.12181 -0.18225,-7.83933 -1.17681,-5.07317 4.01408,-9.35858 3.85923,-13.05865 -0.54984,-3.28594 5.21922,6.70182 0.25079,2.51898 -1.53261,1.277 -4.8154,9.38254 -2.60245,9.4625 -1.59817,-0.90877 1.44294,2.13666 -0.52827,1.30755 3.20161,1.54116 0.43145,5.68679 -0.79705,7.60895 z m -37.91757,-0.56847 c -3.00781,-0.79964 -6.15346,-5.13016 0.0492,-3.11401 2.73051,2.01111 4.35531,0.17547 1.54971,3.10809 0.66167,-0.98383 -1.38992,0.59867 -1.59893,0.006 z m 9.57475,-0.48025 c -4.0592,-4.62762 8.79452,-6.51662 6.42979,-2.6461 -0.45957,1.32827 -5.53658,2.0676 -6.45903,2.18238 l 0.47377,0.58771 -0.44455,-0.124 z m 22.73704,-0.76472 c 0.1705,-1.8805 2.04311,-7.15892 -2.04793,-5.44897 4.9114,-1.80162 -2.35429,-8.74982 -1.54017,-2.1291 -0.75057,2.81842 2.581,3.89983 -1.07823,1.99454 -2.12823,-4.92549 3.16732,-6.35711 3.9657,-4.59795 4.47116,-3.40332 -3.86636,-10.38155 3.80026,-11.7198 7.20594,0.32554 -1.11517,9.83424 -0.5002,10.61812 8e-4,-3.07755 6.20543,-9.66669 -0.10787,-7.50528 -2.17655,3.22212 -2.04279,8.09309 -2.56829,11.40448 1.7746,1.78105 1.37559,-1.25967 1.65423,-1.50756 2.64519,3.16158 -1.29484,7.07361 -0.16087,7.30726 -1.23773,1.46316 0.45021,1.78382 -1.41663,1.58426 z m 2.06775,-18.86588 c 4.96112,-3.05396 -4.44117,-1.27609 -1.19862,-0.22532 0.77611,-1.30614 -0.31212,2.3266 1.19862,0.22532 z m 24.694811,18.41733 c 2.0308,-2.70197 1.61066,-3.78584 2.83494,-1.55115 2.66616,-1.06935 1.60867,1.91148 -2.15781,0.71853 -0.36626,-0.82503 -0.73965,2.12548 -0.67713,0.83262 z m -39.709221,-3.96415 c -4.1442,-3.09987 2.2643,-10.62337 -1.30525,-4.24203 0.91685,2.61435 1.61948,4.09248 3.29073,0.78744 -1.29541,0.53795 -0.0904,4.29793 -1.98548,3.45459 z m 24.59337,-1.406 c -0.0594,-2.73696 4.228941,-11.39336 3.747611,-7.45457 -2.343371,0.35858 -3.352361,8.06934 -3.747611,7.45457 z m -64.80188,-1.83947 c 2.8116,-3.84679 -2.41592,-5.80345 -2.88482,-3.09786 3.12559,-6.01964 5.07171,2.92261 2.88482,3.09786 z m 61.83581,0.0543 c -0.15901,-2.46916 4.05208,-9.92302 1.27597,-3.25785 -0.5371,0.67453 -0.49041,3.25618 -1.27597,3.25785 z m -17.48851,-5.47347 c -0.86407,-3.0767 -4.95657,-3.91106 0.39348,-2.31675 -0.36654,-0.0884 -0.8974,0.62143 -0.39352,2.31679 z m -46.90215,-6.11742 c -4.61609,-1.63471 -0.25611,-11.17148 -6.35466,-13.01755 -3.89151,-4.0026 4.27557,-7.7419 5.02804,-2.60661 -2.08147,-5.34821 -8.95004,0.64192 -3.54511,2.77387 3.88369,1.80376 1.58248,10.91348 3.73057,10.84564 2.37023,-0.86855 2.21256,-4.96339 2.2425,-4.20882 2.88625,4.27366 0.13677,-4.94372 0.49264,-6.85769 -2.80666,-0.0853 -4.71636,-3.29445 -1.23637,-0.94258 2.67374,1.26274 1.45434,5.92332 2.37852,8.49613 -0.93649,2.52209 -5.54107,2.51458 -2.20517,5.19981 0.20299,-3.65286 0.99003,1.10858 -0.53096,0.3178 z m 43.3042,-1.04681 c -5.16202,-2.86428 -1.3293,-0.70519 -0.4049,-1.68828 2.15919,1.58176 -0.15914,-3.62521 1.55591,0.20077 -0.7198,0.0762 -0.83147,2.19475 -1.15101,1.48751 z m 48.004631,-8.96369 c -0.62856,-2.55442 -3.0639,-10.347 1.97285,-7.87118 1.2455,3.64641 0.57862,6.14107 -0.12275,2.98707 2.52361,-2.63205 -4.13795,-5.26439 -2.86644,-0.36092 1.3853,1.27135 0.70456,4.34419 1.01634,5.24503 z m -60.768951,-2.16546 c -0.92097,-5.71411 -3.78137,-11.00898 -7.28999,-15.1567 2.48666,-2.18339 3.31244,-1.67656 0.25086,0.28286 2.68628,2.86024 5.92682,8.39158 6.41213,11.17727 -0.23921,5.33309 1.56109,1.93962 2.59829,1.57875 2.24513,-0.92581 -0.24026,-6.7255 -2.38628,-8.07131 -0.85721,0.28923 0.65073,-5.4535 -3.123,-5.57897 4.57675,0.16877 2.0629,7.20458 5.88032,8.45512 0.43973,3.04951 1.43009,5.66806 -1.55431,6.43985 -0.003,0.27126 -0.2484,1.37344 -0.78802,0.87313 z m 47.815991,-6.77451 c 3.98491,-3.47885 -2.18761,-2.84311 -1.57472,-2.92325 -3.4101,-4.59164 -0.3815,0.009 2.32111,-0.39237 3.34771,3.76974 2.82477,-4.15587 -1.61153,-3.34026 -2.61095,-0.17976 -11.630161,-8.47463 -5.26901,-3.37652 2.59668,3.54823 11.40622,2.304 8.99141,8.25891 -2.35934,-0.2793 -1.28997,1.44486 -2.85726,1.77349 z m -2.15593,-0.89552 c -0.55671,-4.25388 -6.884541,-7.20635 -9.358611,-8.05253 3.18685,0.59017 8.612551,3.48795 9.397261,7.10673 0.22971,-0.64198 0.0929,2.61543 -0.0387,0.9458 z M 95.039179,110.8216 c -0.64246,-2.68679 -7.03714,-3.76464 -3.65106,-5.74475 -2.56236,1.71005 2.63156,2.67022 -0.33984,2.28818 1.43831,2.1809 5.54719,-1.84753 5.5673,0.62057 -4.81107,-2.01869 1.01695,1.88885 -2.44515,0.58935 -0.1388,-1.01853 1.48274,3.2135 0.86875,2.24665 z m 2.976,-5.78196 c -3.49839,-0.10483 2.467671,-1.25916 -1.79906,-3.34027 -3.03278,-3.22726 -5.05504,7.3607 -3.2452,1.05514 1.17934,-6.0486 7.260201,3.16598 5.04425,2.28514 z"
     id="path1" /></svg>
