<svg xmlns="http://www.w3.org/2000/svg" xml:space="preserve" width="578.37" height="230mm" viewBox="0 0 153.03 230"><path d="M79.94 59.49c-1.899 3.501-3.763 6.887-6.593 7.276-1.71-3.749 4.775-8.003-1.287-2.867-.573 2.19-3.924-5.166-7.177-1.744 10.453 1.121 11.896 16.07 6.577 23.325-3.096 2.1-7.226 12.517-1.242 5.42 1.346-4.7 3.656-4.872 2.54.215-1.62 3.352-3.962 5.244-7.158 7.224-3.231-.52 3.44-7.678-2.098-3.954-3.144-.89-5.138-12.72-7.325-10.974-3.264 7.354 6.219 15.457 5.072 20.037-3.044 5.743-4.948 14.345-.38 19.84 5.557 5.553-3.438-5.432-1.855-8.367-2.612-8.367 9.521-13.214 10.075-3.253 1.901 5.15-.637 8.704-2.947 12.886 8.436.174 12.15 12.008 10.053 19.198-7.02 6.146-9.252-6.051-9.708-11.397-.184-6.68-14.812 2.072-5.696 1.926 3.838 2.833.595 12.686 5.58 9.697-1.735 1.852-1.525 10.517-.058 10.44-.197-5.395 1.515 3.664 4.29 2.388.089 2.65 5.242 4.96.692 7.68.206-4.854-5.89-1.631-2.46 1.226 4.694-.667-5.691 1.298.492 3.067 2.381 3.296-.672 7.278 1.712 1.303 3.176-1.451-.256 14.99-.909 5.808.59 7.337 2.673-.545 2.558-3.631 2.801-2.698 1.214-7.797-1.442-4.818-1.715-3.18 3.925-2.048 2.21-6.548.433-5.303 8.061-10.009 6.084-4.291-.328-3.243 1.188-5.548 1.669-5.071 1.101-3.085.847-5.56-1.61-5.16-.5-5.76 3.784.903 2.456-3.94.469-4.987 15.595-13.583 4.116-13.864-4.211 2.207-13.938 2.353-12.034-4.217 4.985-3.63-5.268.256-1.887-5.495 1.073-7.723-11.297-15.425-2.841-21.196 6.564-5.916 9.865-14.293 11.211-22.833-.486-4.544 6.51-5.822 3.877-.395 2.02-6.556 10.233-3.617 10.313 2.039-3.157-4.468 3.487-10.445 3.768-11.802-3.505 4.007-4.668-2.075-5.242 3.477-4.005 4.698-5.274-.546-2.636-3.532-4.078 2.405-3.856-3.925-3.234 2.186-6.156 7.167-5.658-6.638-1.467-6.85-2.954-.645-3.567 6.01-4.913 3.85.248 3.893-2.77 8.965-3.788 2.52-.38-2.647 3.498-4.393 2.642-6.829m.86 1.02c.132 2.98 1.367 1.33 0 0m5.76.87c.222 2.221.713 2.435 0 0m-3.79 4.12c-1.11 1.786 1.07.398 0 0m7.9-1.47c3.719-6.078.28-2.776-.01.01m1.63-3.22c1.492.12 1.052-1.559 0 0m1.14-.26c.232 4.81 1.908 4.98 0 0m5.95 3.97c1.917 1.995.862-1.22 0 0m1.1.32c4.538 5.323-4.787 7.107-3.955 10.446 2.67-3.598 9.916-2.004 5.668-6.128.734-2.425 3.575.823.393-2.527l-.986-.979-1.13-.812m3.94 3.9c2.904 3.007 2.608 2.095 0-.01m2.18 2.06.1.15zm.1.15c1.822 5.32 9.405 12.95 12.263 13.32A87.8 87.8 0 0 1 106.7 70.95m12.11 13.47c2.056 2.158 2.335 1.06 0 0m-6.87-3.72c-.03 1.265-.053 2.269-.009.41l.009-.4m-.04 1.71.02.11zm.02.1c.253 1.028.81 3.273 0 .01m.4 1.62c1.934 5.494-3.693 16.093-6.072 15.349.066-3.36-11.197-5.391-8.85-11.633-1.26-6.745-9.004-4.444-4.114-.756 5.174-3.428-4.657 11.506 1.178 5.208 5.095 2.964 6.503 5.475 12.32 8.704 5.116 1.733 3.43-8.59 6.127-1.33.695 4.22 6.586 2.718 1.46 1.188-4.746-2.226-1.27-15.853 1.138-6.368 3.253 3.246 7.458 11.843 2.429 10.415 1.812 3.146-4.875 5.555-5.402 9.655-2.234-.514-6.003-12.585-2.939-4.488 1.533 5.673-3.563 9.488-3.661 1.518-2.136-6.082-7.26-13.493-14.658-12.409-.42-5.07-3.124 4.019.252 5.042.417 4.164 3.603 7.434 5.192 8.137.409 3.018-.284 13.312-2.672 8.318-3.606 1.417-13.176 8.419-4.443 3.617 7.72-5.093-5.209 7.339 1.646 1.902 2.804-1.914 5.902-1.732 5.547-7.028-.616-4.721 4.193-6.858 5.134-1.649 2.616-3.962 4.914-.533 5.258 1.487 2.215-4.336 13.364-3.562 7.643.699-6.338 1.713 4.51.389-1.088 2.717 2.434-2.178 15.694.067 16.915 7.891 1.228 2.262 4.883 10.368 4.248 9.16-.628-4.686-2.818-16.897-4.297-16.322 1.52 2.591 3.714 14.532 1.127 6.792.55 2.039-3.36-6.217-6.484-6.974-6.406-2.733-3.89-16.875 2.472-10.461.482 4.464 7.775 6.414 8.616 6.832-.287-2.717-3.472-14.312-1.884-5.942 1.207 4.107-7.636-.582-5.319-2.957-3.424-4.628-13.264 7.54-11.838-.145 4.688-3.285 8.51-8.578 2.767-13.118-.655-2.261.539-10.654-1.651-3.988-3.485 4.147-4.342-7.46-6.097-9.063m7.92 8.81c.358-1.1.367-1.13 0 0m.27-.83c1.6-2.546-.459-4.316 0 0m3.48 9c4.88 1.222 5.796-.444 0 0m4.43.65c5.664 6.467 5.358 2.708 0-.01m4.08 3.6c1.898 4.326 1.092 3.622 0-.01m-2.4 7.64c-.395 2.05 1.391-.122-.01 0m6.36 7.13c.06 2.828 1.285 6.417.55.99zm.57 4.3c-1.573 5.483 4.56 12.68-1.367 17 .149 2.858 1.036 9.878-2.085 4.514-5.504 3.935-6.133-6.306-.483-2.16-.133-1.404-2.948-6.53-4.316-1.817-3.218 2.042-.385 8.86-4.258 12.355-2.256 4.135-7.808 17.697-11.223 7.05 2.518-2.588 5.594 4.997 2.635-1.191-2.214-6.937 4.483-12.976 7.817-18.627 1.323-4.8 10.096-3.507 2.67-7.694-.486 8.392-7.617-2.468-1.098-3.752-4.458-3.376-13.68-6.136-16.166-1.523-2.228-.788 2.742-3.995-1.158-3.733 5.877-6.211-5.54 2.615-4.382.005-2.77 2.29-3.56 5.011-.192 5.773-1.32 4.04-5.473-2.304-3.718 3.247 1.342 2.474-2.593 4.302-1.665.733-2.966 7.358-1.024-2.655-4.164-2.996 1.291 4.4-1.43 8.624 2.42 12.557.145 3.528-7.074-1.794-3.956 2.005 2.77 1.025 2.176 3.028 4.34 1.212.232 5.079 4.203 8.35 6.8 10.685-3.31 3.09 1.074 7.716 1.297 1.453 2.184-1.5 4.201 5.372.211 3.303-.38 1.373 2.857 7.21-.239 3.481-.677 3.772 7.47 5.237 2.568 1.518-2.234-6.66 4.074-7.266 6.976-2.174 1.173 3.422 3.188 4.54 5.8 2.742-1.958 3.714 6.377 3.096 5.585 8.48 3.062 4.03-4.965 10.127.87 9.133-.194 5.636-7.066.453-3.236 5.125 8.95-3.8 6.155 10.864 11.045 15.563 4.5 1.934.03-8.968-.854-11.812-4.136-5.674 3.922-9.182 2.61-13.51-8.2 1.108-8.647-6.352-8.405-12.074-3.547-.336.982-6.624 1.353-.75 2.238-2.083-2.03-8.48 3.097-4.832 3.141 2.311 1.59-1.987 1.897-1.379 1.065-2.861-4.028 2.04-2.546-2.912.923-1.944 6.312 1.168 3.543-2.118.016 1.455.206-2.147-2.23-2.39 4.239-1.454 5.613-11.435 3.154-11.297 3.816-3.556 2.81-11.082 1.406-17.137l-.18-1.029zm1.14 17.7-.2.7zM135.93 154c-.618 3.087.732 3.722 0 0m-.5 5.73c-2.277.375 1.21 4.202 0 0m-.56 2.23-.275.503zm-1.67 2.86c-2.55 1.836-2.231 3.103-.015.218zm-2.43 2.04c4.2-1.91-2.81-2.222 0 0m-1.39 1.7-.372.593.372-.603m-1.1.14c-.987.441-1.211.541 0 0m-5.8 19.33c1.657-1.903.6-2.8 0 0m-2.3-17.3c-2.401-1.174-2.475-.05 0 0m-3.09-1.14c-3.29-3.264-4.59-.926 0 0m-4.4-5.3c-1.782-2.61.827 3.306.01 0m-2.93 6c1.696 3.454 4.498 1.855 0-.01m2.42 2.5c.943 3.289-1.088 8.68-4.274 6.446-.925 4.917 1.353 9.611-3.557 12.18-2.698 3.923-7.985-6.314-8.155-7.004-4.527-5.718 4.303-15.93 9.586-8.915 3.282 1.003-5.385-7.65-8.172-2.457-5.845 2.448.096 17.568-7.655 12.104-2.714-6.097-.065-12.064-4.42-17.972-2.26-5.676-1.605-12.06-.074-17.744-2.764-.059 1.657-4.898 2.115-1.248 5.182-2.122-5.295-4.244 1.395-6.24 4.283 2.486.813-1.467 4.213-2.48-5.2-4.383-9.394 5.944-9.25 9.883-.9 5.968.303 13.183-.635 18.476-3.713-2.04 1.986 11.29-3.893 11.617-.568 2.77.125 11.471.055 4.107 1.397-4.426 3.97-5.493 4.055-6.794.293-6.145 3.939-4.023 3.756.53l1.48 10.611c6.172-1.24 6.988 9.362 10.109 13.33 1.289 4.36-.061-6.51-2.585-7.315-5.011-2.906-.757-9.905 2.403-3.938 1.98 2.247 5.73 12.267 5.811 9.983-3.747-4.161-.31-8.57 4.14-6.7 1.987 4.725 2.825 10.427 5.108 14.68-2.835-.324-9.255 2.992-8.848 2.404.698-3.34.105-9.842-.609-2.736.358 4.76-7.937 9.757-5.293 1.694.48-7.963.09 1.423-2.923 2.052-1.444-6.12 1.624-15.18-5.768-18.352.15 3.144 5.816 15.584 3.24 5.885 1.071-3.459 3.06 6.918.895 9.08-.92 2.696-2.4 11.909 1.374 4.706 1.138 2.818 3.341 3.958.33 5.5-.45 4.622-2.487-5.554-1.631 1.922-.567-.944 5.898 9.375 6.09 1.904 3.224-2.008 8.864 3.8 7.973-2.997 6.287-8.963 9.18 9.546 6.656 10.39 4.496.039 5.068-2.698 2.218-2.29-3.914-6.667 5.214-7.02 6.451-6.915 1.286-5.362-5.493-6.327-5.536-10.826-6.256 1.041-5.272-9.555-8.767-13.638-2.964-3.043.403-17.376 2.453-8.232-.213 3.55 3.038 15.141 1.324 5.848-2.365-3.597 3.629-4.63 1.099-4.843-4.248-2.133-2.324-14.12.62-6.034 2.346 4.564 2.204 14.4 4.504 16.205-.783-7.214-4.8-14.191-5.73-21.656-.42-1.453-.933-2.89-1.678-4.211m8.11 25.94c.821 5.403 3.148 5.534 0 0m1.48 5.17c-4.713-4.382-5.803-2.012-1.621 1.792 1.925 2.185 4.674 7.397 2.508 1.347-.294-1.046-.657-2.075-.887-3.139m1.93 6.95c.954 4.068 1.44 4.253 0 0m1.05 3.96.092.68zm.02.68c-3.04.732.392 2.73 0 0m-7.93-13.74c-2.346-3.404-2.498-3.61-.084-.073l.104.153Zm.86-4.23c.252-.623-.88-.105 0 0m-.26-.3c-1.604-4.74-5.531-4.432 0 .01m7 24.45c1.144 3.986 2.8 4.212.243.26zm1.77 4.44c-1.133 3.478-3.31-4.42-3.394 2.042-2.052 4.212 5.224.18 3.394-2.042m-4.03 3.7c-3.168-2.074-3.854.877 0 .01m-8.17-.52c-3.019-.317-4.54.888 0 0m-3.55.04c-2.392-.723-3.05-6.863-4.15-1.39-2.58 2.553-8.474-1.685-2.725 1.339 2.352.822 4.592-.373 6.875.051m-10.23-2.3c-.367-3.48-1.486.186 0 0m7.46-1.75c.403-1.139-.9-3.209 0 0m-14.04-5.5c-.51-4.736-2.302-3.054 0 0m.08-.25c1.676-1.783-1.874-1.173 0 0m.81-3.05c.06-1.097.07-1.285 0 0m.05-11.68-.082-.429zm-4.74-12.53c-.65-4.772-2.725-5.091 0 0m9.42 13.5.1-1.675zm5.83-2.88-.034-.215zm-12.35-13.73c-.592-2.333-1.015-.134 0 0m-8.8-40.81c.105-.971.2-1.948.01 0m.22-4.42c-.127-.639-.477.397 0 0m-.25 0c-1.295.702-.394 3.338 0 0m9.78-3.64c.958.722.772.582 0 0m-1.95 2.74c.874 2.776 1.062.349 0 0m-2.16 2.92c1.01.635 2.66-1.262 0 0m-2.9 1.6c-.616.812-2.109 2.8 0-.01m-1.3 13.3.083.103zm.07.14c1.052 6.058 10.757 11.517 6.762 17.046 2.636-3.415 4.24-9.61 6.058-12.163-2.429 2.803-7.812 9.738-9.138 1.797-.548-2.472-2.504-4.462-3.682-6.68m12.73 4.39c.809-4.064-.802-5.668 0 0m.05-3.6c3.977-2.792-5.371-9.544-3.323-8.27.753 2.898 2.574 5.38 3.323 8.28m-3.45-9.9c.943-2.46-.313-4.86 0 0m5 7c2.432 2.323 2.08-.513-.01 0m-.8 9.44.72.14zm.72.14c5.597 4.105 2.828-5.117 0 0m1.95-1.84c1.334-.823-.867-.54 0 0m5.2 10.57c.403 1.533.628 2.388 0 0m-3.26 14.85c1.012.025-.618-.889 0 0m3.17-3.12c1.833-1.086-.804-.927 0 0m-2.01-22.6c-.203-1.2-1.481-3.478-.453-.98zm-11.1-35.55c-1.481-2.653-1.97-.364-.01 0m4.27 3.83c.904-.95.477-1.928 0 0m2.47-3.94c1.117-.736.231-1.817 0 0m3.56-5.83c1.904-4.264 1.155-3.57 0 0m1.25-3.12c1.589-1.231-.102-.756 0 0m.53-.79c.674-.867.791-1.017 0 0m5.08.75 1.339-.778-1.339.788m-.5 4c.259-.433-1.557-.517.01.01m.07-.01c.754.427.999-.43 0 0m.03.03c-1.158-.035 1.863.868 0 0m13.77 5.78c2.724 3.42 2.609 1.977 0 0m4.94 5.99c1.127 2.398 1.964 1.52 0 0m.3.43c-1.179 2.268 1.13 3.203-.01 0m-3.64 2.77c2.495 4.82 3.229-2.401 0 0m1.02 1.33.028.081zm-.06-.02c-.68-2.7-1.7-.009 0 .01m6.08 1.7.643 1.085-.643-1.075m-1.9 3.13c2.798-2.354 1.569-3.296-.67-1.385-2.29-.27.208 1.203.67 1.385m4.21-5.9c.204-.787-.35.05 0 0m-3.54-22.61c-1.665 2.611.676 3.912 0 0m-7.27-6.27-.36.382zm-30.03.17c-.074 1.012-.134 1.838 0 0m22.6-8.24-.664-.644zm-18.37-7.71c1.235 3.625 2.078 3.574 0 0M92.1 87.7c-1.164.648-.528 1.547 0 0m-.92 1.04c-3.087-2.73-9.105 4.79-8.737-3.118-.47-3.156 1.943-12.325-.391-4.628-2.16 6.388 3.682 13.557-2.773 18.879-3.711 7.193-9.388.726-2.564-2.699 2.22-1.6 3.326-4.153 1.255-3.723.64-2.801 3.216-9.44.852-2.76-1.182 3.706-11.335 14.168-2.74 13.322 6.173-3.916 8.714-11.606 15.098-15.273m-15.11 14.01c2.55-.782.226-1.046 0 0m8.78-13.34c1.893.378.11-1.41 0 0m13.77.08c.335.597.87-.448 0 0m.5.03c3.461.373.87-5.664 0 0m1.9-2.28c.449-1.122.35-.877 0 0m4.74 10.83c.403 1.442.712-.402 0-.01m1.33-24.98-.406-.2zm-.49-.3c-1.19-1.727-2.843-.383 0 .01m-1.75-.73c-.799-.597-.656.413-.01 0m-10.4 5.4-.1.82zm-.1.82c-1.151 5.77 6.42-2.54.01 0M78.13 129.6c2.67 1.998.579-1.45 0 0M82.1 145l-.139.98.139-.99m-8.06 20.03c.25 2.043 1.766-.787 0 0m.6.68c-3.058 1.306 3.845.897-.01 0m.88 1.13c-1.787 1.298 1.229 1.603 0-.01m-8.05-1.05.04-.26zm1.08-4.52c0-.955 0-2.068 0 0m2.4.43c.56-2.08.027-2.243-.01 0m-6.26-16.05-.27-.879zm-1.34-.01c-.266 1.19-.678 3.031 0 0m-.36 1.61c-1.073 2.97.217 2.296 0 0m-.28 2.35-.05.878zm-.05.88c.507-5.691-5.202-12.747-7.469-15.438-2.145 2.404-10.335 9.03-3.114 4.288 8.442-3.828 13.437 14.88 1.964 10.296-1.591 3.586 6.03 6.39 5.769 1.294 7.054.686-4.427 13.707 2.222 8.69.799 4.498-1.277 15.108-5.37 13.085.101-2.8 2.49-11.655.004-4.618 1.503 8.603-11.8 8.71-10.36-.08-1.703-9.407-11.627-3.601-13.137 2.607-2.253-6.425 4.768-13.89 10.292-15.496-3.79 3.57 3.73-.32-.847 3.733-3.026 3.498 4.493-1.604 5.257 2.48-1.627-4.551 10.498-4.147 4.119-6.45-5.71 5.64-7.21-7.593-11.103-.009-6.213 5.827-11.086 14.04-9.724 22.85.536 6.844 1.666 14.597-3.793 19.884-1.92 3.089-3.49 12.002-1.562 12.263 2.954-1.005-4.684 5.26-6.507 6.105-2.308 2.806-2.787 6.059-.15 1.472 2.984-4.248 9.215.353 5.979 4.394-.877-7.54 10.008-10.17 9.464-1.17 1.385 5.074-9.327 8.23-.573 7.637 3.088.511 10.582-.48 3.282.083-7.441-2.608 1.71-11.114 2.648-10.381-6.193 3.937-2.598-4.687-3.864-3.082-1.09 6.398-3.494-.84-6.09-2.057-1.912-6.46 10.4-9.562 7.56-1.304 3.956-1.525 7.978-.78 5.76 4.296-.2 3.662 3.226 8.702-.837 11.207 3.261-2.333 9.412-5.797 2.855-7.965-2.681 3.645-.084-8.361 1.4-7.366 4.8 1.093 2.341 14.21 8.547 6.857 4.39-6.399-.512-14.032-1.803-20.659-2.41-.016 5.074 14.674-1.949 10.378-3.62-6.128-7.124-13.691-4.025-20.828 2.3-4.369 1.922-14.075 8.353-10.973.592-2.447 1.932 5.1 2.626-.555 1.237-5.462 1.566 2.226 3.81-1.013 2.248-4.49-1.037 11.093 1.762 3.27 1.435 2.2 1.258 9.095 1.298 2.29.167-1.294-.65-7.412-1.834-3.345.27-7.916-1.796-15.75-.752-23.671a68 68 0 0 0-.108-3.009m2.52 34.16c-.062 2.227-.093 3.322 0 0m-.07 2.51c-.44 6.554 5.696-10.414 2.06-2.87-.427-5.345-.222 3.882-2.06 2.87m3.8-4.25c.751 5.395 1.216 1.922 0 0m.81 3.13c1.31 7.155 4.798 16.655 5.29 22.242.65-1.136.441-7.814-.7-3.072.346-6.715-2.716-12.89-4.59-19.17m5.6 17.04c.74-4.551.094-3.7-.01 0m.37-3.3c1.359-3.575.216-12.384-.046-3.59.016 1.197.064 2.393.046 3.59M62.41 178.3c-.242-2.633-.528-3.156 0 0m-4.43.01c-.568 2.412.386 1.45 0 0m-.13 1.99c-3.21 4.25-9.98 12.674-6.445 15.92.007-1.779 1.665-8.55 2.035-3.14 2.147-2.943-.012-8.661 4.495-8.14.148-1.551-.285-3.089-.085-4.64m-.32 5.41c-1.142 3.82 1.25 5.207 0 0m-.27 3.77c-1.093 2.781-2.007 11.147-.26 3.718.105-1.238.181-2.478.26-3.718m-3.82 3.6c-.265 2.853.146 4.187 0 0m-1.86 4.87c1.03 2.426 1.58 3.458 0 0m-4.8-7.67c-.647 2.693.024 3.952-.01 0m10.86 21.35c.654 4.446 1.569 3.625 0 0m.91 4.41c-1.26.752.673.823 0 0m-.27.64c-2.656.16-2.257 2.35 0 0m-7.58 4.18c-1.417.246-1.07 1.867 0 0m-4.97-5.62c1.018 2.693 1.537 2.05 0 0m-.9 1.63c-.21 2.498.911 2.022.01 0m-2.38 10.16-.402.292.402-.302m-4.94-14.73c-3.408 3.63 1.373 2.306 0 0m-.14.02c-1.11.4-.694 2.745 0 0m3.87 6.16.01.03zm-11.7 9.44v.02zm-.96-.08c-4.25-.603-2.83-7.72-7.095-2.537-5.149 1.957 6.383 1.81 7.095 2.537m-9.19-1.26c-3.308-.537-3.185-8.53-2.516-1.886.548.922 1.456 1.653 2.516 1.886m2.49-12.65c4.02-2.81 3.788-4.82 0 0m9.35-24.7c.97-5.958-1.155-.471-.266.436l.264-.344.032-.042m15.61-33.57c1.594 2.235.208-2.178 0 0m6.69 2.24c-.04 1.079-.064 1.725 0 0M53.5 159c-1.364 2.524-6.41 8.114-.462 3.763 2.008-2.365 3.804-7.954.658-3.926zm.6-.52.591-.864-.601.864m-1.36 5.35c-2.74 1.823-.814 1.562 0 0m-3.48-.04c-.602-.853-.886-1.256 0 0m-.6-.85-.13-.18zm-.13-.18-.652-.988zm-7.44-3.2c-.537-2.527 2.097-2.666 0 0m16.66 4.71c1.409-2.78 1.651-3.116 0 0m2.72-16.5c.143-1.155.123-.995 0-.01m.08-1.44c.598-3.292-1.513-.875 0 0m-1.14-3.84c-.576-2.204-.666-.341 0 0m-11.6-.3c-3.277 2.791-3.215 9.61-.82 2.21l.39-1.04.43-1.18m-2.84 5.67c-.09 1.603-.111 1.99 0 0m10.69-13.44c1.259-.629.506-1.22 0 0m10.94-4.21c6.58-1.719 1.483-7.227 0 0m-.21 1.77c.152 1.491 3.625 1.05 0 0m1.3 1.02c4.63.115-1.147 7.81 3.523 3.635 7.048 1.457.128-2.258 1.422-5.454-1.504.89-2.996 2.636-4.935 1.819m-2.51-8.44c-2.935.63-.308 1.17 0 0m-1.13.73c-.568-.877-.34 1.017 0 0m-.3.25c-.844.664 1.216 1.774.01 0m-4.13-21.74c-.444-2.727-1.495-1.928-.01 0m-2.94-23.16c.213-1.462-.307-2.95 0 0m-.05-2.13c-4.133-5.37 7.731-15.334-1.442-13.575-4.984-2.54-5.694 4.32-3.974 6.018-2.337 2.708-3.324 11.178-5.007 9.65 4.97 1.526 4.428-9.274 5.382-12.509.184-5.628 3.841-2.085 4.208-.088.717 4.67-6.096 10.548-5.63 16.734-.969 7.337-3.007-5.12-4.5 2.188 1.126 6.753-5.523.648-7.52-1.284-3.788 3.344 2.95 16.467-2.717 14.497-3.01-4.34-2.446 5.107-6.492 4.434 4.389 3.398-.604 7.207-3.991 3.56 2.955 3.845 6.078 5.934 8.086 1.555 2.393 2.278 1.184 5.629 2.483 2.325 2.605 1.293 6.586 12.48 9.622 7.118-2.176-5.23 5.905-7.272 4.503-1.005 5.566 2.072 4.845 8.005 8.465 9.384-4.101-7.637-11.75-14.316-11.09-23.725-2.315-5.372-3.545 8.694-3.424 11.083.694 9.678-2.395-7.862-2.672-.057-.868 2.514-7.624-7.173-7.96-6.075 2.929-3.57 2.64-2.197-1.17-2.758-2.835-.648 5.142-8.265 1.83-2.26 5.846 1.63 9.238-10.759 6.603-10.484-3.756 9.672-3.219-12.352 2.035-2.404 1.498 1.817 1.908 4.94 1.837 8.085-1.396-5.723 7.52-15.369 6.037-4.084-.787 4.229 7.654 16.43 6.485 6.462-2.523-8.419-5.393-15.225-1.505-22.39.115-.773 1.128-.972 1.518-.395m-3 6.88c-.408 1.232-.542 3.717-.124 1.028zM44.98 99.2c-.194 3.732 1.83-.453 0 0m-8.31 4.8c-1.929 2.02-.67 1.829 0-.01m-3.05-.3c-2.419 1.676-.49.903 0 0M59 128.06c.89.86 1.49-1.82 0 0m.96-.34c2.605-3.668-4.185-7.258-.399-1.405zm-5.8-4.63-.663-1.137zm-9.4-1.99c-1.538 5.13 2.597 2.926 0 0m.09 3.24c-1.496 4.223.824 9.132.337 2.287-.1-.764-.227-1.525-.337-2.287m-.33 7.25c-2.107 3.544-2.153 3.618 0 .01m-1.79 3.01c-2.99-3.383-3.623-16.077-7.99-13.118-4.87-5.64-11.274-9.927-16.498-3.402.18-5.555 3.684-10.125 8.207-13.14-8.15 3.489-7.271 13.764-11.659 20.17 3.528-4.2-.303 4.165 2.168-1.084-.152-3.049 7.279-11.369 7.292-4.956 1.648-2.13 4.242-2.438 2.268.948 5.051-3.738 9.122 5.946 12.252 4.615-2.037 5.637 3.643 7.782-.37 13.202-.294 3.894-3.823 8.131-2.8 1.713 1.097-3.115-2.43-11.584-1.125-3.674-.277 4.521-2.952-5.828-5.978-6.426-4.492-5.841-10.84-.586-15.172.11 1.774-5.858-4.387 6.397-1.735 8.959-3.532.767-3.088 2.791-2.208 4.158-2.491 1.887.377 1.768-1.91.462 1.077 4.852-3.453 12.23 3.101 15.653-4.118-.045 3.549 5.254 3.166 6.76 6.353-1.387 4.047 14.164-3.367 12.03-3.35 3.995 6.037 5.806 2.738 10.58 1.155-6.521 4.748-2.633 1.995 1.632-.621 5.676-6.65 16.948-3.545 5.166 1.837-9.196-4.75 13.838.155 7.005 4.41-4.008 1.68-18.78 10.065-15.214 4.267-4.218-5.93-10.056-1.232-15.858.848-3.535 2.295-6.535 4.342-5.836-.47-4.292 1.139-4.94 2.336-1.876 1.049-.2-2.703-4.11.813-3.613-.562 2.64 5.872-5.23 4.15-4.103-4.333 4.431 3.6-7.505-.299-2.043-4.745 6.434-3.923-5.038 1.08-2.99 1.208-4.638 5.197-7.793 7.087-12.486.896-1.11 1.83-2.191 2.673-3.344m-6.4 11.82c-1.288 3.334 1.295.581 0 0m.13 1.46c-1.249 3.328-1.931 8.949.203 2.604.062-.873-.048-1.747-.203-2.604m-2.02 6.66c-2.099.455-.054.979 0 0m-1.47-4.11-.05.86zm-2.75.64c-3.195 1.927 1.085 1.249-.01 0m3.03 3.6-.13-.34.13.35m-4.59 6.1c-2.605 2.027.42 1.33 0 0m-2.08 2.9c-3.477 1.184-.415 3.48.01-.01m-2.77 2.53c-1.051.997-1.977 1.876 0 0m-3.66 7.43c-1.366 1.883-.545 1.758 0 0m-7.93 18c1.25-2.562.594-5.133 0 0m.24-.27.146-.295zm1.42-4.53c-.02 4.114 1.547-.65.01 0m2.09-19.64c-2.248-2.366-1.207-.46 0 0m-2.37-1.66c-1.966-2.58-2.378-1.032 0 0m-2.9-3.16c-.288-3.235-1.973-.757 0 0m-2.2-3.97-.294-.63zM6.92 147.4l.078-1.201zm.82-4.78.285-.83zm.02.32h.06zm1.56-4.31c1.745-2.649-.383-2.33 0 0m4.61-11.6c1.02-2.277 1.203-2.559 0 0m19.96 4.15c.396-4.088-5.9-6.48-1.26-1.533l.585.724zm-2.7-4.7-5.77-5.6c-.154 3.262 3.929 3.78 5.76 5.6m-5.77-5.6c1.015-.817-1.024-.168 0 0m13.6 13.8c.24-1.349-.618-4.556-.23-1.346zm-1.07-6.35c-.042-1.338-1.792-3.622-.575-1.018zm-13.69-9.25c-2.284 1.964-1.67 3.82 0 0m20.21 5.71c-.502-5.244-2.72-2.075 0 0m-5.56-8.1c-.936-1.455-3.047-.742 0-.01m-1.87-1.35c-1.55-1.846-2.691-1.107 0 0m-1.34-1.8c.747.67 1.65 1.468 0 .01m-6.87-1.38-.127-.102zm-4.47-3.38c-.451.832-1.021 1.881 0 0m9.26-11.02c.194-1.966-.937-1.454 0 0M33.19 96c-.437-4.611 4.987-.7 2.442-4.484-9.272.906 1.788-20.556 2.943-10.284.724-1.58 4.447-8.28 8.355-10.328.798-6.92-4.323 6.494-8.295 4.976-7.283 4.163-7.758 14.273-7.275 20.446-1.462 1.816 1.411-.04 1.83-.326m-2.55.82c-.138-5.009-1.093-.917-.22 1.214zm9.01-21.65c5.199-1.228-.076-4.185 0 0m8.11-6.76c1.534.489 1.947.62 0 0m-2.75 4.94c-4.446 2.127-1.064 3.723 0 0m3.3 10.55c2.134-1.214-1.147-3.27-.01 0m12.3-19.55c1.787-1.057 5.35-3 1.24-.7l-1.25.7m.27 26.03c.348 1.267 1.696 1.848 0 0m5.3 4.37c.11 1.344.648-1.033 0 0m9.57-32.88c-.604 2.348.461 1.964 0 0M62.58 65c-1.342 3.11 4.39 2.572 0 0m1.6 2.28c-.128.981.781-.654 0 0m.32-.1c3.515-.045 2.413-2.066.01 0m2.8-.82 1.317-.52zm-.77.31c-2.612.875-2.132 1.161 0 0m-2.23 1-.029.077zm-.02.1c-.623 1.786 1.166 3.075 0 0m-.02-.09c-.422-.384-.886.816 0 0m-.54.12c-2.899.116-6.546 3.047-1.402.625zm13.11-2.55c2.144 1.214-2.197 1.555 0 0m11.04.98c4.488.819-1.947 2.528 0 0m5.88 1.17c2.377.748-1.354 2.19 0 0m-12.12.12c4.219 2.726-5.184 4.164 0 0m-6.34.86c6.772-2.088 5.068 14.146 1.97 4.604-.203-1.512-3.44-3.059-1.96-4.604m-5.95 2.87c-2.108 1.184 4.86 1.768.01 0m1.71 1.6c-.817 4.496 2.372 3.268 0-.01m.14 3.13c-2.242-.176-.022 1.14 0 0m-.88.42c-.726-1.099-1.844 1.914 0 0m-.33-.24c2.39-1.516-1.49-.727 0 0m.46-.92c.666-2.941-5.041-2.89-.235-1.466.357.382.12.997.235 1.466m-2-3.7c-2.69-.046-.785 3.318 0 0m-12.82.46c.662 2.841-3.463 1.354 0 0m20.63 1.36c3.57 2.801-1.633 3.367-.358 7.401-2.188.034-2.048-6.553.358-7.401m21.31.06c2.767.187-1.155 1.895 0 0M55.1 75.38c-1.751 3.233-.92 10.832-4.496 11.292.864-3.887.696-8.908 4.506-11.292m23 1.97c2.39 4.17-3.69 10.752-1.65 3.164.439-1.112 1.123-2.101 1.66-3.164m-8.11.85c.357 1.339.565 2.108 0 .01m.35 1.31c-.056 5.951 5.412-.371 0 0m13.73.26c-4.63 3.395 4.542 3.997 0 0m2.28.96c-2.154 5.027 7.869 3.962 1.554.442zm-17.67 1.4c-1.807 2.334-13.655 3.464-7.152 5.088 1.98-2.089 11.17.085 7.152-5.098m-23.34.2c-4.677-.247-5.632 9.24-1.74 2.318.453-.653 2.264-1.245 1.74-2.318m29.82.72c1.168 4.418-3.868 6.805-1.175 1.344.228-.6.655-.985 1.175-1.334m10.24 1.11c-1.648 1.779 2.302 2.602 0 0m29.02.33c.302 3.069 4.382 5.612.882 1.173zm-37.69.86c.074 2.99-1.607 3.537 0 0m-.98 0c1.73 4.927-4.412 6.958 0 0m-18.59.75c3.213 5.114-3.275 5.503 0 0m-14.46.63c-1.329 2.279 2.37 2.083 0 0m60.97.94c-3.583 5.497 7.051.582 7.213 3.733 2.458-7.14-6.184.592-7.213-3.723m-40.19.26c-2.587 3.527 4.745.813 0 0m-11.13.79c-2.09 4.532 6.665 12.915 2.805 14.27-3.416-3.613-6.409-9.77-2.805-14.27m17.73.06c1.12 2.88-1.97 4.31 0 0m18.8.4c.638 1.97-2.629 1.017.01 0m-30.26.6c1.774 3.04-2.318 2.764 0 0m27.27.97c2.657 1.36-2.239 2.134 0 0m-2.54.17c3.275.278-.655 2.038 0 0m11.77.3c2.295.927.671 2.977 0-.01m-34.8.11c2.457 5.478-2.875 4.288.01.01m-6.68.59c1.046 1.329-.298 4.606-.203 1.303zm4.36.02c3.273 5.565-.913 7.014 0 0m50.6.02c-3.594 3.38 1.513 4.366 0 0m10.08 3.08c3.97 2.495-4.116 2.695 0 0m-84.59.8c-.626 2.314 2.66 2.268 0-.01m25.93.27c3.853 1.031-.338 4.09 0-.01m2.33 1c1.631 2.464.09 2.4 0 0m-14.15 1.03c-3.097 5.506 9.75 13.712 4.014 15.55-2.425-3.034-4.877-6.738-2.21-1.002 3.862 8.429 8.294-.77 3.405-4.72-2.195-2.986-4.819-5.976-5.209-9.828m56.36.18c2.111.806-1.641 2.401 0 0m-18.03.3c-1.833 5.989-9.587 9.162-13.136 10.397-.38 8.194 7.813 12.283 12.758 5.03 3.177-2.034 3.774-8.356-1.115-4.065-1.589 5.04-12.74 6.087-6.023-.371 3.135-2.979 8.783-5.776 7.516-10.991m-9.06 20.19c-.34.27.972.584 0 0m.2.32c2.14 2.687 3.943 7.443 7.434 3.039 2.667-.772 8.936-7.675 5.766-7.557-2.576 4.119-8.815 9.988-13.2 4.518m31.21-20.5c2.868 1.823-2.84 1.91 0 0m-15.76 1c3.648 4.678 13.349 9.3 12.425 14.714-5.022-.784-10.43-5.633-12.976-9.048 4.697-1.147 3.736-3.012.551-5.676m1.53 5.14c1.759 3.718 2.274 3.93 0 0m2.6-3.84c4.405.588 3.607 7.191.034 2.514-.173-.517-1.254-2.172-.034-2.514m-6 .34c3.902 1.453-1.38 2.71 0 0m-27.68.78c4.154 1.629-2.104 4.41.01 0m5.55.08c-1.458 1.916 1.845 2.852 0 0m-15.7.22c3.105 1.18 1.593 4.21-.01 0m29.92 2.45c-.077 3.474-4.38 1.622-.1.03zm-37.39 1.34c1.903 1.799-3.093 1.342 0 0m34.24 1c.531 2.047-2.667 1.14 0-.01m-3.1 1.33c2.185 3.39-5.856.987 0 0m-31.67.25c5.648 1.228-3.651 10.844-1.146 2.834.044-.822-.192-2.682 1.146-2.834m8.03.51c3.46.54-1.128 1.562 0 0m34.17.28c.392 3.745-2.569 2.965 0 0m-2.1 2.85c-1.057 5.08-7.962 3.38-1.375.628l1.365-.628m-3.38 2.75c-2.018 1.347.695.952 0 0m19.6-.02c2.059 1.519-1.38 3.04 0 0m19.11.17c4.178 6.089-7.875 5.609-2.355.727l1.15-.502zm-41.55.07c1.228 3.629-5.367-.082 0 0m-25.63.13c3.237.463-1.32 1.64 0 0m80.17.1c4.102 1.893-3.833 2.245 0 .01m-67.26.29c-6.815 2.584 4.557 3.995 0 0m-5.29.94c-4.285 2.428 4.974 3.686 0 0m1.82 3.15c-.869 2.46 3.142.2-.01 0m71.24 2.1c-1.6 2.058 2.283 2.25 0 0m-115.2.36c-3.533 3.246.8 4.999-.01 0m86.65 3.93c4.384 4.24-8.353 3.93 0 0m9 .73c6.459 2.001-5.232 6.623-1.839.241l.78-.21zm-90.87.65c7.477-.32 1.28 7.082.64 1.63 2.94.589-.941-.657-.64-1.63m1.74 1.74.79.592zm-4.2-.97c5.845 3.235-5.576 2.475 0 0m97.4.1c10.671 3.687-7.002 5.835 0 .01m-10.57.53c8.296 4.374-2.644 16.854-3.35 18.987-.758 3.642-.68 10.873-5.452 5.019-4.158-4.846 4.117.24.13-4.372-2.228-3.691 1.322-6.404-2.734-7.757 2.212-5.254 8.1-5.4 9.34-11.167l.902-.484zm-5.56 7.58c-.67 1.069-1.644 3.345-.442.933zm-1.16 2.23-.231.425zm-.23.43c-2.131 3.287-1.226 3.667 0 0m.34 12.11c.886 1.03 3.48.36 0 0m-84.34-21.92c5.295 1.028-4.875 3.218.727 3.744-2.885 1.435-4.36-4.479-.727-3.754m71.88.52c3.146.653-.396 2.824 0 0m-5.56.66c.588 3.211 6.835-.514 2.903 4.375-1.965 3.773-7.467 2.641-3.372-1.176-.27-1.02-1.662-3.105.479-3.199m-20.76.17c6.031 2.386-.587 11.938-1.247 3.097-.057-1.096-.005-2.616 1.247-3.097m-34 .26c7.637 4.844-5.41 3.563 0 0m-7.45.76c4.066-.693 7.36 8.942 10.036 2.926 2.832 2.24 1.538 6.61 3.304 9.538-1.846 3.19-8.954-8.716-4.392-1.596 3.97 4.727-3.1 14.084-5.546 5.453-2.45-4.102-9.954-12.832-3.402-16.321m6.62 7.48c.655-2.838-1.134-2.172 0 0m4.2-.53c-.748-.627-2.04.335 0 0m-1.32-.37c.25-1.999-1.578.278 0 0m-.46-.76c.753.002-.736-.616 0 0m.22-.06c1.326 3.08 2.895-1.296 0 0m85.77-5.66c10.818 1.245 2.303 13.436-.453 18.777-1.323 5.543-5.227 9.52-9.081 3.446-1.44-5.849 5.025-10.804 5.202-17.255.838-2.073 2.276-3.982 4.332-4.968m3.76 1.67c-.39-1.67-1.918 1.275 0 0m-39.78-1.3c4.383 3.688-6.412 4.143-.603.203l.413-.132.19-.061m-1.74 1.47c-1.838 3.474 1.315.995 0-.01m-65.05-1.31c6.607 4.069-6.519 5.264 0 0m1.34 1.65c-2.113 2.13-1.636 2.92 0 0m86.95-1.34c2.061 1.43-2.475.447 0 0m23.72.63c-1.012.96 1.042 3.295.356 1.036zm-98.47.64c4.78.581 1.19 3.713 0 0m13.25.6c.63 3.604-3.755 2.806 0 0m-23.75.13c4.438 2.752-4.069 3.503 0-.01m-.7 1.15c2.6-.363.272-1.079-.01 0m78.44 1.65c5.243 2.83-1.17 5.755 0 0m-78.89.24c5.167 4.069 11.838 15.083 5.469 19.975-5.285-3.264-8.89-12.055-8.809-18.292.587-1.235 2.077-1.702 3.34-1.683m40.46.11c2.92-.087.06 2.015.01 0m9.76.07c4.885 1.61-1.33 5.127-.01 0m15.16.57c1.445 3.631-4.465 7.556-.721 11.085-3.256.407-6.619-.682-4.54 4.611-1.533 3.204-5.3-3.496-7.176-5.384-1.49-6.291 9.763 2.159 8.8-6.22.848-1.614 1.846-3.385 3.637-4.092m-11.92 9.63c.132.974.706.167 0 0m4.5 4.74c1.093-.251 1.212-.279 0 0m4.13-4.2c2.803-1.864-.77-1.485 0 0m41.66-10.14c-4.54 2.7 3.467 2.16 0 0m-30.22 1.3c1.93 1.071-2.001 1.325 0 0m-24.7.49c3.936.62-2.107 5.189.01 0m45.84.52c1.698 4.001-5.722 9.404-2.334 2.652.523-1.06 1.234-2.115 2.334-2.652m-12.4 1.8c3.354 2.396-4.473 2.45 0 0m-87.89 1.76c5.23 4.384 8.377 14.153 11 17.855-2.896 2.623-3.463.306-3.45-.01-5.517-1.183-10.818-13.038-7.55-17.845m8.47 17.53c.563-.548.346-.337 0 0m32.62-17.16c-2.3.035-.722 3.042 0 0m-1.2 1.55c-9.055-1.222 7.005 10.457 1.912 1.842l-.82-1.11-1.082-.742m-27.53-1.22c5.007 4.64-1.835 6.014 0 0m43.7 2.37c4.288 2.02-2.842 4.112 0 0m52.4.63c-.833 4.265-3.698 5.307-.904.697.16-.397.59-.48.904-.697m15.03.08c6.677 1.658-4.896 7.249-1.677.53l.499-.324zm-2.12 1.92c1.344 4.776 4.502-.043 0 0m-1.9-1.68c5.258 5.345-2.07 18.318-6.94 17.387-2.818-6.588 3.343-12.578 6.94-17.387m-68.07.06c2.333.6-1.6 2.098 0 0m73.48 1.31c-1.77 1.778.517 3.232.01 0m-87.2.4c-1.854 2.326 2.334 2.85 0 0m29.38.26c5.243 2.524-4.884 4.94 0 0m-68.58.59c2.473 2.882 8.705 16.03 2.461 6.837-1.462-1.914-3.233-4.264-2.461-6.837m59.39.16c4.545 2.097-1.934 4.157 0 0m4.2.3c-2.584.958 5.412.297 0 0m-1.68 1.7c2.61 2.138-2.68 3.065 0 0m.98.16c5.601 2.088-.42 5.372 0 0m34.52 1.03c2.344 1.877 9.85 7.274 2.479 6.177-2.233-1.067-4.211-3.781-2.489-6.177m-79.57.18c4.651 4.553-9.059 7.997-2.554 1.493.692-.709 1.537-1.36 2.554-1.493m106.09.3c2.562 3.395 1.237 5.192 0 0m-103.8 2c.85 2.427-1.87 2.611 0-.01m17.38.08c8.325 2.102-4.891 3.107 0 0m84.9 1.24c-.617 4.62-5.035 5.812-.98.912zm-33.16 2.94c-1.595 1.92-11.482 3.467-4.42 4.356 1.9-.878 3.686-2.349 4.42-4.366m-9.08.67c-3.448 3.012 3.479 4.307 0 0m-65.72.42c4.129.638-2.948 1.494 0 0m17.36 1.41c10.74 2.305 3.334 15.101-1.847 19.357-3.536 1.603-4.021-7.576-3.326-1.017-.288 6.936-1.22 18.311-6.866 21.526-2.033 7.535-4.554-7.21 1.393-7.449 6.648-7.39-2.925-20.298 6.887-25.457 6.08-2.614-6.372 3.833-1.097-2.509.954-1.984 2.358-4.387 4.856-4.451m-1.86 5.97c2.063-2.837-3.576-3.292-.01 0m.84-.3c3.818-.595 2.832-1.396 0-.01m3.13-.9 1.454-.574zm.4-.1c-4.064 1.385-4.053 2.042.01 0m-3.36 1.46c-1.836 2.143 2.646 3 0-.01m-.44.09c1.34-.271-.262-.297 0 0m-4.95 4.1c.213 3.906.981 6.31.164.935zm2.55 8.33c1.503 3.445 1.05-1.554 0 0m83.14-17.03c4.776.21-.203 3.295 0 0m-100.94.04c7.818 1.69-3.658 4.016 0 0m77.19.22c-4.085 1.538 2.633 2.722 0 0m-11.19 1.94c3.081 2.324 3.7 8.717.387 2.664-.41-.812-.6-1.766-.387-2.664m37.92 1.41c4.5 3.86-3.922 2.052 0 0m2.39.14c2.604 5.277-1.903 4.25 0 0m-105.15.26c1.84 2.792-3.787 2.414 0 0m84.47 1.13c-.238 2.064 3.213 1.409 0 0m-86.55 2c.383 4.722 1.899 8.981 4.602 11.65-1.799.52-8.616-3.309-7.119-3.504 1.12-2.624.481-5.91 2.517-8.146m69.35.78c3.779 3.506-.915 5.076 0 0m-4.33.14c1.615 2.835-.387 2.67 0 0m-64.57 0c-2.73 1.089 1.238 3.061 0 0m16.9.64c-3.103 2.73 4.022 2.579 0 0m5.27.52c-7.137 1.68 4.946 3.915 0 .01m6.11.2c4.555 6.447-3.536 14.53-.813 21.873 1.395 3.552 7.18 14.643 2.403 13.588.498-5.997-3.956 3.526-6.41-2.143-3.234-6.988-1.256-15.048-.255-22.336 1.806-3.628-.014-9.913 5.075-10.982m81.22 1.37c-.465 4.257 3.704 9.878 7.306 4.767-2.85 1.96 2.742 2.532-2.68 4.312-5.556 5.881-7.452-6.926-4.81-8.288l.103-.42.091-.371m-.4 3.42c-.776 2.272.673.746 0 0m-27.65-3.21c-.881 4.627 4.142 3.305 0 0m1.67 2.84c3.815-.593 2.83-1.4 0-.01m3.13-.9 1.454-.574zm.4-.1c-4.07 1.38-4.007 2.03.01 0m-3.37 1.46c-1.8 2.166 2.632 2.98 0-.01m-.43.09c1.341-.274-.273-.296 0 0m-.58-.25c-3.286 1.615-5.834 2.854-.256.538l.297-.267zm-63.79-2.6c-1.733 2.813 3.792 3.083 0-.01m-24.37.66c3.73 1.112 4.93 5.357-.066 2.949-2.095-.408-1.768-2.641.066-2.949m3.93 4.36c3.028 1.147-.585 3.7.01 0m90.28.43c-2.852 1.173-11.303 5.573-3.476 3.257 1.3-.59 4.673-1.06 3.476-3.257m-28.3.25c-1.793 4.692.865 5 0 0m-39.2 1.04c3.783 1.14-1.76 12.51 1.596 6.956-1.82 3.867.428 13.213-3.272 13.976-2.357-2.483-8.537-2.89-4.282-8.241 3.94-5.62-.26-10.894 5.957-12.69zm.39 11.57v-1.437zm93.76-10.33c1.43 1.625-2.868.282 0 0m-29.54 1.96c-3.12 2.893 3.323 2.229 0 0m26.73.76c2.29 2.214-.36 5.604 2.593 6.164 2.108 3.208 3.283 17.425-.524 8.273.029-4.297-5.673-11.688-2.069-14.437m.2 4.5c-.692 2.076 1.704.11-.01 0m-114.52-4.5c-.184 4.17-2.137 3.122 0 .01m63.3 2.16c-3.297 4.807 1.167 7.088.01 0m25.65 1.35c2.133 1.191-1.113 2.804-.01 0M34.9 203.28c5.205 1.64-.382 4.877 0 0m-2.29.94c-.528 3.59-8.117 17.088-6.935 7.625 1.133-3.344 3.92-5.932 6.935-7.625m6.7 2.29c4.263 3.141-2.545 3.79-.01 0m16.4 2.15c3.333 6.867-6.293 15.25-5.817 4.037 1.278-4.115 2.666 4.335 3.537-1.779 2.058 2.634.724-1.872 2.28-2.258m-1.26 3.17c-1.139 1.647 1.939.9 0 0m-1.83 2.5c.367 2.481.982 2.18 0 0m58.47-5.32c4.534.142 5.418 12.714 2.016 6.001-5.477-1.867-4.939 5.753-7.13 5.784-5.082-.818-6.6-3.345-2.318-7.293 6.726 3.109.5-1.459 7.432-4.492m-4.2 6.1c-.62 2.627 1.127 4.22 0 0m7.23-2.3c.346-2.24-.85.169 0-.01m2.79-.56c3.275.492 7.558 8.866 1.508 6.962-2.475 8.067-4.548-6.304-1.508-6.962m-16.27 3.09c3.21 4.52-6.245 11.053-3.16 2.631.672-1.219 1.745-2.349 3.17-2.631m-70.58 4.3c-1.966 2.49 1.663 3.27 0 0m-8.6.15c-1.175 3.46 2.935 3.555 0-.01" style="fill:#000;fill-rule:evenodd;stroke:#000;stroke-width:.899999;stroke-linecap:round;stroke-linejoin:round;stroke-dasharray:none;stroke-opacity:1"/></svg>