<svg xmlns="http://www.w3.org/2000/svg" xml:space="preserve" width="578.37" height="230mm" viewBox="0 0 153.03 230"><path d="M79.94 59.49c-1.3.09-1.94 8.2-4.23 4.27q-.06.32-.17.7c1.16 4.45-2.74-.48-.98 3.14l-.18.05-.39-.24c-3.58-2.1 1-7.55 1.76-5.55-.06-3.37-3.14 1.9-4.49 3.29-1.74-4.65-4.37-4.2-7.18-2.77 2.13-.56 4.44-.07 6.63 2.06 4.6 5.46 4.93 15.69.75 21.04-1.4 2.02-3.65 5.36-5.13 7.05.23-.12.45.38.17 1.97 2.15-1.6 4.93-3.06 4.29-5.94 2.08 1.24 1.48-6.75 2.3.38-.96 1.71-.71 8.7-3.55 4.4-.43 2.7-1.96 5.82-5.21 5.42-.6-1.75.44-2.93 1.85-4.02a2.5 2.5 0 0 1-.03-2.02c-.67.73-1.15 1.06-1.28.7-1.33.21-1.66.03-1.57 1.73q-.69-1.78-1.6-3.37.13.6.22 1.46c-1.2-1.44-1.29-2.66-1.04-2.87-1.84-3.1-3.8-5.97-4.19-9.72q-.03.59-.1 1.3c-1.42 7.15-.29 14.92 6.03 18.95.84 2.64-1.62 4.1-3 2.91 1.47 5.16-3.83 10.62-.73 15.68 1.36 3.02 2.05 4.84 4.24 6.71l.45-.47-.04-.13c-3.84-5.62-7.41-15.24-.99-20.23 6.12-1.65 8.13 9.55 5.98 9.66 5.12.3-1.64 5.36-1.63 8.58-.83.35-1.36.68-1.71.96 2.14-1.04 4.12-.09 4.78 1.34l.55-.16c4.09 1.4 6.02 11.5 6.31 10.79-.61 3.63 1.32 9.56-4.35 9.05-4 .99-5.42-5.6-3-4.09-1.8-1.8-3.2-5.88-3.08-9.46l-.12-.12.12.07q.03-.91.2-1.77l-.17.04c-2.69-1.08-6.61.59-9.95 3.44 5.26-2.66 7.66 6.41 6.86 11.95.32-1.1.71-1.64 1.07-.87-1.24-4.84 5.48 1.5.65 1.84q-.22-.52-.38-.96.18.77.33 2.13c.75 5.09-.69 4.63.76 5.2 1 5.72.36 3.3.26-.86.88-1.6 3.07 8.8 2.25 2.85 2.21 2.6 2.54-.4 2.88 4.52l.03.38c.38-1.95.96-2.83.62.83 2.87-3.15.97 4.46-.45 4.3-.46-.69-.53-2-.43-3.3-.62 1.81-2.2 2.23-2.4-.43-.14 1.57-.78 3-1.03 4.26.55-.85 4.7-1.14 2.08 1.03l-.42.1-.03.01c-1.12-.3-1.6-.6-1.67-.88-.22 1.48.24 2.69 2.94 3.54-.37.82-.42 3.03-.34 5.25.05-4.4 2.45-9.6 2.17-1.74.06 1.02-1.37 10.88-1.5 5.03a5 5 0 0 1-.6-1.99c.26 3.57.99 6.32 2.07 1.47-.87-3.25 1.27-7.17 2.66-9.47-1.59-.74-3.04-3.74-2.44-.16-4.7-1.16-.38-2.63 1.6-2.69-2.48-3.7 1.64-11.82 2.67-8.08 1.35-4.09 4.02-6.84 2.69-.3.19 3.68.35-9.97 1.81-4 .3-2.08.47-4.38.76-6.66-.33.82-1.17 1.42-2.12 1.24.3-.7-1.15-6.02 2.11-2.79q.12.27.15.56c.67-4.42 2.03-8.62 6.19-10.85 1.91-1.23 2.96-3.57 3.83-4.33-3.22-1.5-7.77-1.26-10.98-.46-.27.38-.9.5-1.72.45.4.53.47 1.27-.73 1.57-.43-.9-.57-1.46-.54-1.78-3.52-.86-8.06-4-2.32-5.98.05-5.46-4.57 2.97-3.32-2.35-1.26-5.73-2.18-15.65-7.36-17.29.57-6.35 8.81-7.54 10.5-14.58 3.4-5.95 4.47-12.83 6.57-19.2 3.9-.92 3.18 1.83 1.9 5.09 1.8-4.2 5.04-6.66 9.6-2.53 1.04 1.04.93 3 .75 4.7q.1-.4.35-1c-.04-4.67-2.32-8.29 3.66-9.84.33-1.1.63-1.77.92-2.11-.99-.06-2.04.51-3.25 2.1-1.16.18-1.73-.7-2.05-1.86-.33 2.53-1.4 5.32-3 5.69-4.89.5.09-3.84-.43-6.42-1.36 2.53-3.04 1.39-3.76-.82q.04.64.06 1.42c.27 1.64.89 4.17-1.1 5.01-2.14-.17-2.99-1.58-3.1-3.26q-.18.16-.53.28c-1.66-1.6-.14-1.63.54-1.16.24-3.3 2.79-6.93 3.79-4.12a8 8 0 0 1 0-.83c-3.74-4.04-3.73 8.14-5.1 2.14q0 .83-.16 2.04c-2.2 1.49-.32 5.1-1.92 5.65-4.16-2.78-.24-10.56 1.42-9.87-.32-.75-.6-1.04-.86-1.02m.86 1.02q.24.55.51 1.45l.15.73c.01-1.35-.26-2-.66-2.18m5.76.87q.06.99.34 1.83a7 7 0 0 0-.34-1.83m-3.79 4.12q-.04.45 0 .88c.45-.33.32-.66 0-.88m7.9-1.47q.3-.58.6-1.45.61-1.2 1.03-1.77a9 9 0 0 0-1.95 2.53q.24.31.31.7m1.63-3.22q.7-.54 1.14-.26c-.18-.6-.49-.68-1.14.26m1.14-.26c.26.86.26 2.75.65 4.2.26-1.96.07-3.78-.65-4.2m5.95 3.97q.56.03 1.1.32c-.3-.6-.68-.83-1.1-.32m1.1.32c.83 1.67 1.16 6.25.67 6.5-3.3-1.34-8.57 4.91-3.46 4.13 1.6-3.06 4.04-3.99 6.45-3.56q-.4-.3-1.25-1.08c-1.85-3.2-.24-3.22 1.53-2.1-1.38-1.54-2.62-3.2-3.95-3.89m3.94 3.9c.68.76 1.4 1.5 2.18 2.06a8 8 0 0 0-2.18-2.07m2.18 2.06.1.15zm.1.15c.48.74.69 1.5.4 2.15 2.53 1.6 4.58 4.53 4.84 7.6.19-.56.6-.97 1.3-1.14.42 2.04 3.5 3.72 5.57 4.86a82 82 0 0 1-12.1-13.47m12.11 13.47q.86.77 1.74 1.5c.58-.22-.36-.74-1.74-1.5m-6.87-3.72a4 4 0 0 0-.04 1.71q.12-.86.04-1.7m-.04 1.71v.03l.02.08zm.02.1q.13.77.4 1.62a9 9 0 0 0-.4-1.61m.4 1.62c.87 5.34-1.45 13.75-4.45 13.42.08.68.8 3.15-.81 2.67a2.5 2.5 0 0 0-.85-1.75c.35.96.61 2.76-.45 1.23-.07-.9-.06-1.4 0-1.62-1.63-1.31-4.2-2.14-3.8-3.63-4.54-.07-7.35-5.02-3.34-4.95-2.51-1.85-5.12-10.96-6.6-5.11l-.42-1.2c.34 1.25.78 3.28.5 4.52 1.59-1.79 3.04-3.14 3.04.5-2.45 1.7-4.33 10.67-2.12 4.66 1.86-1.77 4.06.87 5.5 3.36 1.12-5.38 1.19 3 2.91-.1 1.62 5.77 10.71 7.73 9.66.48q-.15-.5-.2-1.03.12.54.2 1.03c.74 2.5 3.1 4.74 5.13 6.68-.42-.6-.35-1.25.51-1.9-7.35 1.04-4.54-19.71-1.76-7.61 2.78 3.71 7.08 8.95 4.3 8.53 1.5.34 2.93 1.93 1.18 3.08-1.4-.33-2.72-.84-3.56-1.45 1.4 1.37 2.5 2.57 2.5 3.56-6.24-1.67-4.1 10.6-8.51 6.62-.1-3.58-5.44-13.15-2.05-5.24 2.73 2.46-.46 11.65.13 4.94-2.12 2.66-.82 6.3-1.96.91-2.26-6.7-6.44-16.02-14.78-15.7-2.52 2.13 1.04-5.17-1.72-1.17-.65.32-1.88 2.26-.64 3.96.19-2.8 2.43 6.18 3.96 7.98.32.93.44 1.76.47 2.38q.08-.55.27-1.43c5.02-2.2-.15 6.42 2.6 5.38.2 3.43-4.21 12.32-1.93 4.36.85-.87-6.43 2.36-8.23 5.02-7.35 1.3 3.71.55 4.9-3.4 2.33-.38-1.58 5.78-3.65 4.89.07 5.01 5.33-7.17 6.75-1.43 2.08-3.23 1.64-13.5 5-11.75.93.88 1.24 1.62 2.38 4.43.34-5.8 6.25-1.8 3.91 1.94 3.52-4.24 9.71-6.9 10.53-1.35a23 23 0 0 0-4.65 2.03c3.4-1.26 7.23 1.6.78 1.23-3 .44 6.56 1.11 7.82-.98 5.12 2.13 9.91 6.55 10.76 12.27.33-2.63 2.53 3.61 3.53 7.23-.32-6.83-3.28-13.3-3.88-19.81q-.27.45-.7.88c-.1 4.24 3.84 7.93 2.51 12.21-1.15-.97-1.32-6.93-1.26-2.47-2.34-5.56-4.98-8.96-10.31-10.68 3.72-3.62-5.03-10.58 2.9-8.74.94-.91 3.25-2.9 2.7-.56-2.8-.75 3.74 2.9 4.57 6.83 1.01-1.4 3.5-.17 4.87 1.85q-.1-1.15-.13-2.3c-1.26-2.63-1.7-6.16-2.6-9.29.44 2.11.48 4.42 1.1 6.4q.18.25.24.71-.15-.35-.25-.7c-.83-1.1-3.37.33-4.4-1.11l-.05.04c-2.88-.99-1.25-1.2-.28-.88a6 6 0 0 1-.07-1.48c-5.13-3.85-7.65-1.42-11.43 2.15-8.19-.24 8.04-10.87 4.89-9.15-2.14-1.43-1.22-2.85.51-3.4-4-1.1-4.74-4.73-3.75-8.18-.16-.01-.38-.68-.7-2.52.65-5.8-1.1 9.63-4.13 2.16-.14-1.89-2.13-5.5-3.09-8.45m7.92 8.81c.12 0 .2-.34.27-.83q-.16.42-.27.83m.27-.83q.33-.88.78-1.7c-.5-3.65-.54-.04-.78 1.7m3.48 9q.62.17 1.34.26 1.78-.05 3.09.39a5 5 0 0 0-4.43-.65m4.43.65q.61.45 1.01 1.19a6.4 6.4 0 0 1 3.07 2.4 7 7 0 0 0-4.08-3.6m4.08 3.6c.52.96.9 2.04 1.23 3.18a9 9 0 0 0-1.23-3.19m-2.4 7.64q.1.52.33.84c.48-.4.15-.68-.34-.84m6.36 7.13a58 58 0 0 0 .57 4.3c.7-1.44.3-3.03-.57-4.3m.57 4.3q-.27.58-.8 1.11c.29 4.21.07-2.58.7 2.56.42 3.92 3.42 11.03.47 10.3-.79.75-1.29 1.96-2.27 2.49q.26.95.36 1.52c.4 1.9 1.08 5.65.1 6.7q-1-2.06-2.08-4.12c-.05.44-.41.89-1.2 1.29-.23.31-.56.58-1.02.73l-.37-.22q-.48.15-1.07.26c-2.88-4.96 1.24-4.78 2.97-3.38a80 80 0 0 0-2.46-4.3q-.04.9-.77 2.29c-.63.8-1.84.92-2.7.44l.32.57c2.92 7.17-6.02 12.97-6.4 20.01-.44.58-1.24 1.08-2 .83l-.2-.09c1.63.85-.58 2.31-2.85 1.99-5.4-1.55-1.11-9.2.88-2.46q1.12.12 1.71.36c-7.98-3.74 2.4-15.9 2.12-17.45.24 1.13 2.31-7.23 5.27-5.09l.04-.12c-1.06-2.3 1.65-3.72 3.34-3.2a42 42 0 0 0-2.7-3.59c.42 2-.64 4.26-3.22 3.36 3.56-.28-4.23-5.97.98-5.76a26 26 0 0 0-6.46-4.6c-1.55-.95-4.33-1-6.52-1.13q0 .15-.2.46l-.2-.15c.8.82 1.64 2.1.04 2.7-4.81-.2-2.1-2.47-.52-3.07-2.52-.21-3.7-.76.08-3.63q.2-.2.4-.38c-2.27 1.36-4.3 2.81-5.44 3.58-1.96-4.09.05 1.69-1.47.9a5 5 0 0 1 .06-1.32 47 47 0 0 1-2.85 4.75c1.36-.58 3.89.2 1.22 2.9-.34.28-1.92.11-1.1-.6q-.76-.7-.83-1.22-.87 1.3-1.66 2.56c1.23-.47 3.01 2.04-.63 3.76a7 7 0 0 1-.18-2.38 15 15 0 0 0-1.41 3.36c-.4-.18-.37-.63-.54-.95.28-2.96-.7-4.95-2.33-6.24q.33.75.7 2.09c1.65 4.22.57 2.5-.01 3.54-3.1-1.46.97 4.74 0 4.38q.28.22.58.51c.84.49 2.73 5.22.38 4.07a3.8 3.8 0 0 1-2.78-1.24c.04.53-.4 1.11-1.58 1.68 1.91.01 3.64 1.02 4.08 3a4.6 4.6 0 0 1 1.87-2.4c-.06 4.66 1.42 8.92 6.84 10.2.9 1.44-.66 2.93-2.09 2.95q.66.76 1.37 2.43.47.88.87 1.96c-.6-3.72 1.45-7.95 3.37-1.86 1.28 4.2-3.16-2.99-1.98 2.18-.47.13 2.2 5.04.7 3.2q-.75-.43-1.21-1.14c.99 2.59 2.22 4.83 5 3.97-2.49-2.33-4.74-4.27-1.67-5.74-2.15-4.3 1.39-3.34 3.95-.93-.08-.84.39-.1.66.67a6 6 0 0 1 1.6 3.08c.83-.98 4.42-.48.56.97.74.26 2.5 1.03 2.23 1.25l.85.33c-1.6-2.32 4.95-2.5 1.26.46l.3.1c.84-.02 1.37-.04 1.41 0q.05.05-.73.25c3.4 1.23 6.32 2.67 5.27 7.59 1.82 3.08-.33 5.53-1.87 7.74 2.17-1.25 6.27.92.67 2.84l-1.48.9a5 5 0 0 1-.3-1.77c-.48 1.37-.13 2.68 2.27 4.06 4.63-8.36 5.67 8.16 7.78 11.5 1.05.85 4.18 8.95 3.34 2.45 2.26-6.54-9.08-17.75.17-20.48 2.63-4.22-1.86-7.13-4.85-4.14-3.74-3.64-4.38-8.4-2.17-12.27-.58.48-1.72.97-2.69.52l1.1-.59q-.36.1-.84.17c-1.83-6.52 4.13-2.26 1.7-.55.7-.28 1.03-.28 1.1-.15q.45-.68 1.04-1.32l-.06.01c-4.65-6.76 2.39-4.85 2.84-2.42a11 11 0 0 0 1.39-2.35c-.3.2-.83.4-1.7.58a10 10 0 0 0 1.88-1.01l.06-.18c-.42-.86-3.79-1.32-1.95.9-4.96-4.52.94-4.64 2.55-3.03q.25-1.3.35-2.66c-.32.47-.78.84-1.37.98 3.85-4.4-3.35.3-1.18-3.76 1.34-.88 2.23-.8 2.7-.29.11-3.32.18-6.7 1.65-9.74.17-.47.27-.94.4-1.41q-.2.53-.6 1.22c.4.1-.52 1.29-.58.53-3.16-3.32 1.87-5.35 1.38-2.46 1.33-5.82-.16-11.76-1.14-17.7m1.14 17.7-.2.7q.14-.38.2-.7M135.93 154a63 63 0 0 1-.15 3.07c.69-.98.77-2.4.15-3.07m-.5 5.73a14 14 0 0 1-.6 2.13l.04.1c1.16-.88 1.12-1.66.56-2.23m-.56 2.23-.1.08-.18.43q.34-.26.28-.51m-1.67 2.86-.2.26q-.47.3-.9.62c.35.3.21.76-1.2 1.27l-.13-.11-.35.37c2.28-.63 2.94-1.55 2.78-2.41m-2.43 2.04q.6-.61 1.34-1.16c-.68-.6-3.26-.53-1.34 1.16m-1.39 1.7-.37.59c.29-.24.44-.48.37-.6m-1.1.14q-.36.15-.85.38.54-.15.85-.38m-5.8 19.33c.22-.64.63-1.3 1.1-1.97-.61.36-1.07.99-1.1 1.97m-2.3-17.3-.67-.24-.47.01.16-.12-1.26-.46q.32.48 1.16 1.07zm-3.09-1.14c-1-.42-1.96-.91-2.78-1.56a3 3 0 0 0 0-.66c-.36.42-.2 1.12 1.27 2.13.97.17 1.4.17 1.51.09m-4.4-5.3q-.3-.36-.65-.67c.03.31.14.85.36 1.7.62.38.54-.34.3-1.03m-2.93 6c.85.79 1.72 1.63 2.42 2.5-.22-1.26-.78-2.3-1.85-2.71q-.3.12-.57.2m2.42 2.5c.76 4.4-2.61 11.64-2.55 5.4-1.4 1.34-2.02 1.26-2.37.52q.07.4.12.8c.88 3.13.8 6.18-.22 8.6.5.07 1.1.93.1 1.99a4 4 0 0 1-.5-1.18 7.6 7.6 0 0 1-2.84 2.94c.59.58 1.5 2.03.08 1.07q-.3-.6-.4-.9-.62.33-1.34.55c-1.78-3.8-7.45-3.95-4.5-7.9-.66-2.04-.31 3.39-2.01-.87-4.01-8.5 8.16-14.8 11.1-6.62-.35-1.94-.7-4.55-3.21-4.57-8.58-4.27-9.3 5.98-8.91 12.4.09 1.14-.86 2.26-2.07 1.89-6.04-1.37-4.18-8.29-3.17-9.7-.24-4.86-8.84-15.12-4.1-16.36a14.8 14.8 0 0 1-.28-10.56q.21-.75.56-1.4l-.12.14-.92 1.04c-.67-3.1 3.26-4.7 2.06-2.53a6 6 0 0 1 2.9-1.6c-.98-.15-1.92-.52-2.82-.92-2.09-3.6 2.97-3.38 4.98-1.99-1.07-2.04-.56-4.43 1.95-2.74q-.36-.34-.95-.95c-4.17-5.27-5.95 4.28-7.87 5.81-.24-.79-.48-1.14-.7-1.22 1.03 1.18-.24 5.85-.22 4.42-.95 6.7.14 13.5-.42 20.24-2.1-7.33-1.38 6.16-1.46 9.16-.19 4.4-3.04-2.76-2.68 3.43-.56 1.64-.13 4.55 0 7.01-.06-4.17-.02-9.15 1.71-7.63 1.23 3.93 1.24-10.06 2.13-1.76.17-3.86 2.12-11 3.79-3.24a89 89 0 0 0 1.72 12.33c.54-1.12 2.1-.91 3.35.41-.84-2.99 2.03 1.77.65.86q.62.95.94 2.35c2.68 3.73 5.53 7.98 5.67 12.52.12-4.29-.53-8.38-4.33-11.62-4.7-4.8 2.42-8.27 3.34-1.63 3.07 1.11 4.4 7.63 6.7 11.89-.6-3.33-1.91-6.52-2.85-8.9 2.91.46 5.4-.83 5.86-2.23 2.2 5.71 3.08 11.98 6.4 16.98-3.66-1.6-7.74 1-9.72 2.98l-.35-.25-.17-.12c1.26-2.58 1.32-5.46.86-8.24-1.15 4.83-1.71 11.4-6.26 11.76-.16-2.87.24-5.9.43-8.88a11 11 0 0 1-1.28 3.92l-.8 1.48-.9 1.12c-1.09-3.63-.81-3.44-1.26-3.77 1.93-6.35.32-13.03-5.18-16.25q1.44 5.03 3.76 9.8.67 1.11.9 2.26c-.44-3.42-3.01-12 .66-4.93.42 1.41.5 5.22-.58 5.4.58 3.87-1.73 8.06-1.8 11.62.47-1.44 1.67-2.19 1.8-.85.33-2.91 2.28-5.16 1.38-.18.63-1.12 3.57-1.75 1.7 2.18-1.13-4.3-.5 4.75-1.82-.05.1.54 1.15 4.37-.24 1.85a4.1 4.1 0 0 1-1.07-2.89 11 11 0 0 1-.46 1.93c.85.36 1.8 1.31.41 1.92q-.48-.45-.76-.8l-.08.24q.46.72 1.25 1.36c2.26.97 3.46 2.92 4.57 4.72-1.56-5.45 6.74-5.63 8.1-2.16 0-3.34 1.59-7.04 4.22-8.13 4.63 2.63 5.88 11.76 2.22 13.73 1.8-.12 3.6-.29 5.5-.07-.38-2.7-1.07-5.27-.53-.73-6.68-3.65 3-12.15 3.8-7.34a2.7 2.7 0 0 1 1.66.52c-1.07-2.28-1.98-4.45-.71-5.61-.04-2.93-5.13-.53-4.85-4.5 2.6-1.15-2.17-2.33-2.27-3.12-2.56 5.66-1.15-5.61-4.88-6.85-2.54-5.6-4.66-13.09-1.67-18.52 4.97 4.25.03 6.66 3.34 12.74q.46 1.38 1.16 2.64c-1.7-4.12-1.96-10 .14-10.14q.81.78 1.07 1.06c-.95-1.02-5.7-6.38-3.98-8.89 3.05-6.4 3.96 7.1 5.25 9.42 1.64 3.6 2.28 9.2.66 7.62 1.26 3.03 1.28 2.63 2.21.73q.2.22.38.48l-.51-1.77c-3.21-6.4-3.42-13.47-6.25-19.97.37-1.48-.3-2.89-1.35-4.2m8.11 25.94q.75 2.57 1.48 5.17c.43-1.8-.38-3.7-1.48-5.17m1.48 5.17q-.1.44-.3.86c-1.27-3.24-3.2-4.6-3.39-2.32-.66-.84-2.51-3.86-1.24-.69 2.42 3.03 5.32 5.8 6.86 9.1q-.95-3.5-1.93-6.95m1.93 6.95 1.05 3.96c-.1-1.42-.48-2.73-1.05-3.96m1.05 3.96.02.68.14-.05zm.02.68a3 3 0 0 0-1.04.57q0 .42-.14 1.02l.67-.21.46-.35q.05-.53.05-1.03m-7.93-13.74a25 25 0 0 1-2.28-3.3 8 8 0 0 0 2.3 3.38zm.86-4.23-.13-.31-.13.02zm-.26-.3q-.6-.74-1.58-2.76c-3.28-4.28-.12 2.82 1.58 2.77m7 24.45c.71 1.52 1.5 3.08 1.77 4.44.05-1.44-.46-3.49-1.77-4.44m1.77 4.44c-.05 1.85-1.01 2.69-2.37-1.07-.18-1.6.04 3.47-1.66 4.78l.33.11c3.44-.33 4.1-1.86 3.7-3.82m-4.03 3.7q-1.36-.44-2.67-.59v.1c1.21.96 2.07.97 2.67.5m-8.17-.52c-1.18.07-2.35.13-3.55.04q.89.38 2.08.33a3 3 0 0 0 1.47-.37m-3.55.04c-1.57-.66-2.46-2.2-2.77-4.05a6 6 0 0 1-1.38 2.66c-1.76-.54-.79-.94-1.49 1.26-2.77.17-3.32-2.12-4.6-2.18 1.5 2.2 3.2 3.66 7.36 1.76q1.47.45 2.88.55m-10.23-2.3q-.38-.57-.76-1.18.17.56.47 1.2zm7.46-1.75q.16-.9-.13-1.6 0 .83.13 1.6m-14.04-5.5a5.7 5.7 0 0 1-.87-3.36 3.7 3.7 0 0 0 .77 3.67zm.08-.25q.19-.55.35-1.12c-.76-.32-1.45-.17-.35 1.12m.81-3.05q.08-.56.05-.91-.06.45-.05.91m.05-11.68-.08-.47.05.47zm-4.74-12.53q-.62-2.17-1.1-4.38c-.37.75-.27 2.12.7 4.15zm9.42 13.5q.11-.87.09-1.74zm5.83-2.88.03-.1-.07-.12zm-12.35-13.73q-.3-.49-.65-.86l.12.41q.33.32.53.45m-8.8-40.81c.06-.38.06-.75.12-1.13q-.1.8-.11 1.13m.22-4.42a1 1 0 0 0-.2-.17l-.05.18a.3.3 0 0 1 .25-.01m-.25 0c-.8.35-1.24 3.46 0 0m9.78-3.64q.47.42.65.49a8 8 0 0 0-.65-.49m-1.95 2.74q.3.59.77 1.1c-.02-.41-.32-.78-.77-1.1m-2.16 2.92q.4.06.83.07.29-.11.52-.22-.67 0-1.35.15m-2.9 1.6q-.59.57-1.02 1.35.74-.83 1.02-1.36m-1.3 13.3.07.14v-.16zm.07.14c.02 5.97 13.21 12.86 5.9 15.86 1.4 6.91 3.51-5.85 4.7-7.98.7-.68 1.8-.72 2.93-.55-.34-.29-.58-.97-.63-2.25l-.17-.7a9 9 0 0 1-2.58 3.84l-.99.89-.94.38a20.7 20.7 0 0 1-8.22-9.49m12.73 4.39c.38-1.24.33-2.42.05-3.6a10 10 0 0 0-.05 3.6m.05-3.6c.27-1.37.82-2.52 1.54-2.9a9.8 9.8 0 0 1-4.99-7l-.12.37c.46 3.47 2.82 6.46 3.57 9.54m-3.45-9.9c.37-1.2.42-2.23.23-3.08-.33.94-.39 2-.23 3.08m5 7a8 8 0 0 0 1.85.67c-.68-.8-1.32-.95-1.86-.67m-.8 9.44q.32.27.72.14zm.72.14c2.6.57 4.87 1.78 1.95-1.84-.4.65-1.22 1.64-1.95 1.84m1.95-1.84c.33-.54.36-.84-.21-.26zm5.2 10.57c.1.6.22 1.15.4 1.52a10 10 0 0 0-.4-1.52m-3.26 14.85.32-.18c-.28-.28-.5-.36-.32.18m3.17-3.12q.2-.39.4-.82c-.3-.04-.54.2-.4.82m-2.01-22.6q-.44-1.2-.88-2.38c.14.87.42 1.7.88 2.38m-11.1-35.55c-.56-1.28-1.02-1.4-1.55-.93q.84.38 1.54.93m4.27 3.83.8-1.38c-.37.15-.7.57-.8 1.38m2.47-3.94.71-1.08c-.47.2-.8.57-.71 1.08m3.56-5.83q.78-1.53 1.25-3.12a9 9 0 0 0-1.25 3.12m1.25-3.12q.25-.4.53-.79-.2.21-.42.41zm.53-.79q.33-.34.56-.72-.3.36-.56.72m5.08.75 1.36-.79a5 5 0 0 0-1.36.8m-.5 4h.01l.06-.01a2 2 0 0 0-.46-.34q-.01.04.4.36m.07-.01.03.03.8.05c0-.26-.36-.25-.83-.08m.03.03-.09-.01q.19.16.48.37zm13.77 5.78a32 32 0 0 1 2.24 2.4 3.2 3.2 0 0 0-1.78-2.37zm4.94 5.99.1.13c.06-.08.13-.01.2.3l.94 1.49c.07-1.09-.49-1.7-1.24-1.92m.3.43-.2-.3c-.26.34-.4 3.08.39 3.28-.03-1.62-.1-2.54-.2-2.98m-3.64 2.77.14.26q.43.37.88 1.07.57.11 1.5 0c-.55-2.8-2.17-2.24-2.52-1.33m1.02 1.33-.06-.02.14.14zm-.06-.02a5 5 0 0 1-.82-1.05l-.18-.14c-.12.48.11 1 1 1.2m6.08 1.7.7 1.33c.06-.48-.24-.94-.7-1.32m-1.9 3.13a8 8 0 0 0 1.38-.51c1.22-1.74-.64-5.1.18-.65-2.53-.3-4.87-.79-1.56 1.16m4.21-5.9-.07-.27.01.3zm-3.54-22.61c-.36.48-.53 1.28-.42 2.47v.06c.5-.83.6-1.7.42-2.53m-7.27-6.27c-.44.43-.58.62.02 0zm-30.03.17a3 3 0 0 0-.08 1.1c.05-.03.12-.44.08-1.1m22.6-8.24-.67-.65q.24.35.67.65m-18.37-7.71-.03.12c2.42 5.7 1.78 2.9.03-.12M92.1 87.7l-.92 1.04c.51-.08.8-.48.92-1.04m-.92 1.04q-.33.05-.79-.1c-.1-2.6-2.57-.44-4.67.48.07.3-.07.82-.66 1.57a2 2 0 0 1-.21-1.28c-1 .23-1.8-.11-2-1.84-.81-2.89-.47-7.77.95-11.56-.94 2.32-2 4.77-1.83 6.27-2.83 3.92 3.1 10.9.66 11.9-.3-3.03-.45 5.32-3.81 5.55-.5.94-1.13 1.7-1.78 2.29.72-.03 1 1-1.27 1.5q.12-.46.3-.77c-2.82 1.75-5.44.3-1.2-3.93 3.58-2.03 7.62-9.45 2.66-4.07.81-2.77 4.61-13.53 1.47-4.96-.72 4.98-10.14 12.62-5.6 15.5 7.86-2.62 9.7-11 15.64-14.8.57-.1 1.34-.87 2.14-1.75m-15.11 14.01q.5-.3.97-.73c-.3.01-.68.22-.97.73m8.78-13.34q.41-.09.87-.3c-.12-.46-.73-.36-.87.3m13.77.08.28.18.22-.15zm.5.03q.53.06 1.2.22c.3-1.19.54-1.99.7-2.5a6.4 6.4 0 0 1-1.9 2.28m1.9-2.28c.22-.42.31-.72.3-.75-.03.02-.13.24-.3.75m4.74 10.83q.24.18.45.39c-.17-.44-.36-.71-.45-.4m1.33-24.98-.49-.3.45.38zm-.49-.3c-1.64-1.32-1.66-.97-1.75-.73q.9.26 1.75.74m-1.75-.73-.71-.16c.56.42.65.31.7.16m-10.4 5.4q-.15.57-.1.82zm-.1.82c-.23 2.17-.24 3.43 2.87.6.5-2.37-2.62.63-2.86-.6m-16.22 51.32q.68.16 1.27.2c-.41-.55-1.2-.87-1.27-.2M82.1 145l-.14.99q.2-.47.14-1m-8.06 20.03q.24.38.6.68c.6-.5.17-.7-.6-.68m.6.68q-.3.25-.9.6c.51.03 1.33.17 1.78.53l.26-.44q-.67-.25-1.15-.69m.88 1.13-.65 1.04q.37.19.75.15c.34-.55.22-.93-.1-1.2m-5.39 9.04zm-2.66-10.09.04-.26a.3.3 0 0 0-.04.26m1.08-4.52q.05-.57 0-1.17-.05.66 0 1.17m2.4.43q.27-.79.25-1.83-.17.84-.26 1.83m-6.26-16.05a5 5 0 0 0-.27-.88zm-1.34-.01q-.2.7-.36 1.61.24-.73.36-1.61m-.36 1.61q-.16.52-.37.93c-.02.15.05.84.09 1.42.06-.79.16-1.6.28-2.35m-.28 2.35-.05.88c.08-.02.08-.42.05-.88m-.05.88c-.04 0-.12-.11-.24-.43 1.12-6.33-5.94-11.42-6.74-15.63a23 23 0 0 0-3 3.44c-1.76.7-3.47 2.41-4.85 4.32 3.27-3.49 8.44-4.86 11.08-.66-.96-2.1 2.38 2.33.52.97a11 11 0 0 1 .62 1.83l.14.38c.35-.24 1.04.4.38 1.63q.03.33.02.63c.32-1 1.24-.64.02 1.65q-.12-.47-.12-.84c-.94 4.21-7.92 4.1-5.67.03-3.05 4.65 4.05 9.62 4.99 3.12 4.34.99 1.57 6.44-.84 11.03 1.77-2.47 4.59-4.51 2.37 1.2-.5 3.06 3.76 3.63-.86 7.24-2.22-1-1.38 4.12-3.83 3.95-.23-2.65.03-8.07 2.56-9.15-1.28.38-1.62-.1-1.44-.92-.47.96-.86 1.83-1.06 2.53-.1 3.61-.19 9.6-5.17 6.88-7 6.36-1.53-8.36-8.25-9.58-7.56-3.69-6.9 4.22-10.46 7.23-1.77-7.2 4.66-12.89 9.9-16.72 3.33-2.26.26.7-1.07 3.22 2.2-3.7 5.46-.55-.55 1.74.02.68.5 1.13 1.8 1.1 2.13-2.74 3.61-.97 4.98 1.08-1.52-3.47 5-6.15 5.67-3.82.28-1.85.89-5.17-2.69-2.8-1.48 1.15-2.5 1.36-3.25 1.07-.03.34-.22.6-.72.5a7 7 0 0 1-.03-1.01c-1.07-1.09-1.56-3.27-2.66-3.98-5.09 5.83-12.99 10.9-12.55 19.83-.9 4.26-.27 9.07-.22 13.68.57-.8 1.21 1.82-.18 4.04-.36 3.2-1.38 6.18-3.87 8.63-4.2 3.95-.84 8.9-2.36 12.82 2.09-2.15 3.72-3.71.64.2-.94.92-2.36 3.45-3.8 3.1q0-.03.04-.05l-.46.24a10.8 10.8 0 0 0-4.66 6.69c2.05-5 10.89-9.19 8.4.36l-.06.58a17 17 0 0 1 4.95-8.25c4.3 1.48 6.58 11.09 1.28 13.67-.86-1.06-1.73-.89-1.8.7 3.55.29 6.92.19 10.45.96.75-.5 1.37-1.04 2.08-1.56-1.6.96-5 .63-6.38.91.89-4.1-2.36 1.3-1.05-4.66-.08-4.92 6.32-5.29 6.61-5.09-1.24-3.61-8.16 4-4.56-2.43a5 5 0 0 1-.08-1.71q-.03-.51.04-.9-.33.4-.76.71c-.18 1.13.4 3.97-1.31 4.06-.12-5.37-9.06-4.54-3.28-9.2 3.31-7.4 8.13-1.03 6.08 3.31l.14-.02c2.32-2.89 7.88-2.86 5.6 2.74-.25 3.07 3.83 12.46-.24 10.33.16.74-.02 1.27-.42 1.66 2.4-1.8 4.75-3.64 7.11-5.35q-.24 0-.55-.04c-1.23-.42-3.09-1.1-3.84-2.99a7 7 0 0 1-.16.9c.04.06-.12 1.37-.44.82-1.84-2.94-.45-4.32.27-3.5q-.03-1.05.33-2.41l.56.78-.2-.46c-3.4-6.96 5.98-1.12 4.7 3.21.2.92.63 2.1.47 2.87a41 41 0 0 1 5.35-3.18c-.25-2.78.72-6.47 1.6-6.05-1.49-5.18-4.07-10.16-4.34-15.4-.33 1.32-.85 2.66-.62 4.07 1.89 3.7 3.98 7.35 0 10.26-2-6.45-6.59-8.99-6.05-15.44a18 18 0 0 1-.11-2.18q-.14.4-.36.68c-.01-4.93.47-4.72.6-3.34.75-4.33 2.98-7.2 2.94-11.83 1.68-.18 2.18.08 2.21.08 0-.03-.6-.45-.71-2.33 1.59-2.63 2.97 3.04 5.14-.7a5.7 5.7 0 0 1 1.63 2.81c.35-3.9 1.28-7.52 2.59-2.14.83-2.26 1.26-1.72 1.53-.33-.02-2.55.77-4.3 1.06.49-.35.96.41 2.1-.39 2.93q-.21-.44-.36-.96c.26 2.75.4 5.2 1.3-.32 1.43-.92 1.51 3.06 1.44 6.63l.08-.64c.33-1.87-.2-13-1.74-6.85-.37-4.3.19-12.16-1.1-14.51-.88 2.07.73-7.3.33-10.07-.09-.55-.11-1.29-.09-2.1m2.52 34.16a8 8 0 0 0-.07 2.51zm-.07 2.51c-.08 2.84-.04 4.18 1.07-.31.86-1.2 1.93-4.54 2.73-3.94-.98-4.74-1.86 5.24-1.94-.39-.29 2.93-1.55 5.8-1.86 4.64m3.8-4.25v.02a43 43 0 0 0 .8 3.03c-.2-1.93-.47-2.81-.8-3.05m.81 3.13c.41 8 4.65 10.99 4.32 18.58.05 3.08.74 7.37 1.21 1.84q-.1-1.52.06-3.38-.29 1.2-1 2.13c.31-6.9-2.69-12.77-4.59-19.17m5.6 17.04c.26-1 .35-2.13.37-3.3a67 67 0 0 0-.38 3.3m.37-3.3c.5-3.79 1.17-7.58.62-9.16-1 2.57-.57 6.04-.62 9.16m-13.25-21.44a27 27 0 0 0-.3-2.46c0 .8.1 1.67.3 2.46m-4.43.01q-.09 1.02-.13 1.99a4 4 0 0 0 .13-1.99m-.13 1.99c-1.34 4.28-8.85 7.96-7.04 13.9-.1 1.22.25 2.49.77 3.75-.7-4.54 1.77-11.54 1.86-4.87q.18-1.2.55-2.42c1.67-2.05 1.7.65.2-3 .15-2.92 2.37-3.23 3.34-1.95a12 12 0 0 1 .38-2.31c-.1-.66-.12-1.81-.06-3.1m-.32 5.41c-.1 1.1-.19 2.42-.27 3.77 1-1.67.85-3 .27-3.77m-.27 3.77-.14.22c-.72 3.08-.66 8.82-2.06 6.04 1.55 4.3 1.88-1.2 2.2-6.26m-3.82 3.6a16 16 0 0 0-.13 3.15c.21-.87.34-1.72.13-2.58zm-1.86 4.87a4.5 4.5 0 0 0 1.17 2.67l-.06-.32q-.61-1.17-1.11-2.35m-4.8-7.67q-.23 1.22-.25 2.66a7 7 0 0 0 .24-2.66m10.86 21.35q.64 2.17.91 4.41.15-.5.08-1.03c-.23-2.2-.6-3.2-.99-3.38m.91 4.41a3 3 0 0 1-.27.64l.32-.13zm-.27.64q-1.14.46-2.23 1c.97.3 1.79-.22 2.23-1m-7.58 4.18-1.14.82c.73-.02 1.05-.34 1.14-.82m-4.97-5.62c1.6 3.64 1.77 2.59 0 0m-.9 1.63a5 5 0 0 0 .34 1.78c.1-.9-.08-1.48-.33-1.78m-2.38 10.16-.4.29q.24-.13.4-.3m-4.94-14.73a4.3 4.3 0 0 0-.91 2.04q.02.27.08.6c1.57-1.66 1.33-2.62.83-2.64m-.14.02c-.29.08-.61.45-.73 1.13q.45-.53.73-1.13m3.87 6.16.01.03zm-11.7 9.44v.02zm-.96-.08c-3.24-.53-4.05-2.85-3.58-5.55-.77 3.08-3.9 3.2-3.83 2.63-.12.95-.93 1.67-1.78 1.66q1.34.44 3.42.13c2.01.62 3.92.94 5.77 1.13m-9.19-1.26c-2.5-.76-3.18-3.16-2.63-5.72-.79 1.9-.58 3.92 1.63 5.34q.48.38 1 .38m2.49-12.65c1.73-.94 2.66-2.05 3.12-3.25-1.13 1.18-2.4 2.53-3.12 3.25m9.35-24.7q.21-1.98.18-4.04c-.26.35-.5 1.36-.55 3.35L30.7 190q.32-.35.56-.73m15.61-33.57q.33.34.75.5c.06-.72-.66-1.82-.75-.5m6.69 2.24c-.09.56-.14.98-.04 1.07q.16-.66.04-1.07M53.5 159a7 7 0 0 1-.98 2.02c-.68.67-2.2 3.35-3.26 2.77.58.76 1.17 1.3 1.82 1.28-2.46-1.96 2.14-2.77 1.66-1.24q.36-.5.73-1.27c.54-2 4.03-8.52 1.4-5.11.72-.5 1.25.12-.96 1.99q.02-.56.18-.96l-.06.08c-.3.38-.45.5-.53.44m.6-.52.76-1.03c-.27.18-.58.53-.77 1.03m-1.36 5.35c-.6.87-1.14 1.23-1.66 1.24l.33.24c.82-.63 1.22-1.12 1.33-1.48m-3.48-.04q-.3-.4-.6-.85.25.68.6.85m-.6-.85-.04-.08-.09-.1zm-.13-.18-.66-1q.21.49.66 1m-7.44-3.2c-.02-.48.2-1.1.55-1.73a9 9 0 0 0-.79 1.83zm16.66 4.71q.55-1.1 1.2-2.32a7 7 0 0 0-1.2 2.32m2.72-16.5q.08-.39.1-.81-.11.31-.1.8m.08-1.44a7 7 0 0 0-.38-1.63c-.22.16-.3.7.32 1.73zm-1.14-3.84a8 8 0 0 0-.52-.97q.15.34.48.94zm-11.6-.3a10.7 10.7 0 0 0-2.84 5.67 19 19 0 0 1 2.84-5.68m-2.84 5.67a3 3 0 0 0-.08 1.43 8 8 0 0 1 .08-1.43m10.69-13.44.81-.73q-.41.2-.85.52zm10.94-4.21c3.34-.85 4.05-2.83 3.36-4.3-1.9.67-2.95 2.3-3.36 4.3m-.21 1.77v.05q.65.71 1.3.97-.6-.57-1.3-1.02m1.3 1.02a8 8 0 0 1 1.92 2.72c-1.57 5.13.52.76 3.11.5 7.7 2.73-3.67-1.59.72-5.17-.7-.63-3.12 3.02-5.74 1.95m-2.51-8.44q-.56.27-1.13.73c.4.15.44-.2 1.13-.73m-1.13.73q-.14-.05-.33-.17c-.01.03 0 .2.04.42zm-.3.25-.18.18a3 3 0 0 0 .26.76c.04-.03-.03-.55-.07-.94m4.77-10.52zm-8.9-11.22a7 7 0 0 0-.83-1.81c.1.86.41 1.46.82 1.81m-2.94-23.16a9 9 0 0 0-.05-2.13q-.06 1.11.05 2.13m-.05-2.13q.03-.72.16-1.5c-1.53-4.18.46-9.68 3.8-12.68-2.56 1.4-5.03 2.24-6.86-.57-2.78-1.41-1.99 5.06-4.63 5.06 1.99.43 3.93.3 1.45 2.04-2.23 1.92-.7 13.42-5.24 8.77.35 1.57 2.29 1.83 3.27 2.31.94-5.19 3.28-12.13 3.43-12.14-1.44-3.6 2.46-9.45 2.8-2.61-1.12 2.55 4.19-1.9 1.54 2.54-4.06 5.68-6.08 11.89-6.72 18.53-2.26-2.1-2.37-2.53-1.43-2.9q0-.68.1-1.48-.38.35-.98.82c-5.75 1.53 2.85 3.1-2.34 4.4-4.12 5.66-5.87-10.75-7.78-.72-1.72.87 2.02 8.74.07 12.48l.05 1.27c-1.18-.98-2.92-2.52-3.72-4.4.05 2.44-1.1 6.28-3.92 6.14q-.75.15-1.45.37c2.89-.45 3.66 7.4-.56 5.75-.11-.27-1.7-3.55-3.33-1.23 1.24-1.42 2.81 1.71 4.35 3.26.28-1.95 2.34.87.12.12 1.07 1.01 2.12 1.17 3.03-1.62a16 16 0 0 0 3.42 3.5c-.27-.53-.17-.88.42-.5-4.15-3.94 4.89-.4 1.34 1.8l.43.31c.64.06 2.1.71 1.44 1.03 1.92 1.41 3.68 2.9 4.69 4.88.3-.46.76-.59 1.17-.45.12-4.41 1.19-9.2 4.03-7.31.9 2.99.34 3.7 1.4 5.61 1.12-1.29 2.14.24 3.27 2.35.4-.43 3.23 1.4 2.03 2.69q-.86-.8-1.33-1.35c1.32 2.53 2.83 5.23 4.84 4.97a8 8 0 0 1-1.34-.45c-1.48-4.73-4.27-8.08-7.31-11.3-1.79-1.78-3.55-10.43-3.33-14.1a10 10 0 0 1-1.38-1.7c.14 5.9-4.11 11.62-1.39 17.6l-.6.6c-2.61-2.8-1.64-12.45-2.32-4.69-1.64 7.95-3.4-7.12-9.19-4.27a41 41 0 0 0 3.4-4.1q-.44.4-1.05.83c-.96.16-2-.56-2.77.59.05-.98.38-1.77.85-2.38l-1.49 1c.26-4.2 6.05-7.55 2.55-1.96 1.47-.94 3.23-.8 3.05.3 2.3-3.39 4.24-6.93 5-9.1-.63-5.7-1.93-1.39-2.77 2.11-2.82-2.7-.4-15.27 2.86-6.44.17 5.93 2.95-1.83 2.17 3.42-.79 2.73-.98 4.9 1.05 5.2-1.67-4.22 1-8.73 4.31-11.25.87 6.53 1.13 14.34 7.23 18.65 2-6.46-3.56-12.24-3.3-18.71l-.07.33c-.5-3.26.76-5.69.48-2.84l.05-.18c-.22-3.33 2.44-9.4 2.95-6.7m-3 6.88q-.37 1.27-.41 2.5.32-1.61.41-2.5m-8.65 13.83q.25.64.65 1.28a11 11 0 0 0-.1-1.25q-.3 0-.55-.03m-8.31 4.8q-.56.82-1.15 1.62c.74-.67 1.08-1.22 1.15-1.63m-3.05-.3q-.59.37-1.06.96.47-.32.9-.71zM59 128.06c.67.14.92-.02.96-.34q-.5.28-.96.34m.96-.34q.48-.27 1-.78c-.38-2.8-4.45-8.1-1.97-2.27.16.99 1.04 2.38.97 3.05m-5.8-4.63-.7-1.34c-.14.15 0 .56.7 1.34m-9.4-1.99c-.03 1.15 0 2.27.09 3.24 1.33-1.66.73-2.97-.09-3.24m.09 3.24q-.18.23-.4.44.07 1.15-.15 2.5c.45 1.33.53 2.91.22 4.31.64-1.5.95-3.14.66-5.05a13 13 0 0 1-.33-2.2m-.33 7.25a16 16 0 0 1-1.79 3.01 5 5 0 0 0 1.79-3m-1.79 3.01q-.2.16-.42.27c-.83-2.31.19-2.59-1.84-3.11 1.17-4.34-5-13.67-5.3-11.76 2.5 6.9-4.4-3.75-7.36-4.1-5.29-4.6-5.35.76-9.71 3.3.89-5.84 2.88-11.83 8.57-13.98q.54-.55 1.01-.78c-6.87 2.42-8.75 8.88-10.21 15.57a63 63 0 0 0-2.68 5.1c1.43-2.18 3.43-2.44.63 1.44 2.59-2.87 2.5-8.4 6.01-8.46 2.53-4.23 3.33-1.42 2.82.98 2.28-2 5.26-3.4 2.24.12q-.64.68-.92 1.26c5.13-2.67 9.11.63 11.37 5.36-.13-2.18 1.28-3.84 2.17.15-.1.74.4 2.4-.8 2.7q-.2-.15-.37-.34.53 1.64.8 3.3c.21-1.89 1.12-2.68 1.83 1.35.09.9-.47 1.95-1.43 2.08q-.08-.19-.13-.38 0 1.57-.27 2.92c.02 1.15-3.9 9.65-3.25 5.09.8-3.84 0-7.9-1.6-11.5l-.04.31c.7 2.22.93 4.59.62 6.9-.49-1.58-4.59-9.89-2.56-4.7-2.71-4.01-10.57-11.52-12.71-5-3.77-2.47-7.19 6.4-5.35-1.38l.07-.28c-1.32 3-2.5 6.07-3.67 9.14 1.34-.2 3.06 1.63-.33 4q-.45-.88-.6-1.55-.6 1.53-1.22 3.05c1.16-.83 4.36 1.9-.29 1.27.65.2 1.5 2.84.28 1.29q-.29-.78-.34-1.3h-.02.02l-.02-.32a27 27 0 0 0-.67 3.37c.63-.63 2.2.98.26 2.69a8 8 0 0 1-.4-1.28c-.28 3.48.11 7.01 1.29 10.24.23-.4 1.45-.04.57.65.42-.12 3.4.3.71.95q-.69-.48-.98-.83.53 1.31 1.25 2.53c-.2-1.95 3.6.5.94 1.44q.45.63.95 1.21c.37-.9 3.61.2.71.79l.03.03c.79.1 1.98 1.15 1.21 1.13l.37.32q.37.13.7.3c-1.2-1.74 4.3-1.37 1.08.21 2.17-.93 1.6 1.25.22.83 3.38 3.88-.06 12.82-5.83 9.52-1.64 3.93 1.04 6.9 3.14 6.1.3 1.81.17 3.59-.17 5.35.26-.59.54-1.09.77-1.33-.81-3.33 4.39-4.5 1.87-.53-.6 3.72-2.96 13.1-3.64 11.89-.8 1.29-.54 3.44-1.65 4.45-.18-2.72 1.47-9.73 2-11.28q-.15.21-.24.27c-1.32 4.4-3.1 8.76-2.08 13.32 2.73-5.78 5.93-12 6.62-18.7 3.63-4.54 5.1 5.46 6.78-1.22-.18-4.39-5.7-5.8-4.14-9.92l-.01.03c.24-.67.58-1.26.76-1.51-.25-2.83.91-4.7 2.5-6.32a1.2 1.2 0 0 1-.89-.12c.83-.81.45-5.76 2.18-1.6q0 .3-.13.6l.88-.77h-.01l.04-.03.81-.72c.34-1-3.08-1.52.15-3.42.2-2.19 1.01.39.9 2.41q.74-.74 1.34-1.6-.37.22-.96.34c-1.79-4.57 1.43-3.2 1.7-1.64q.4-.87.59-1.9c1.27-1.7 2.96-2.66 4.4-3.71q-.2-.07-.4-.47c.15 1.04-2.15 1.61-3.11 1.45 2.22-.33 2.63-2.56 2.78-4.84a9 9 0 0 1-1.03 2.13 4.4 4.4 0 0 1-3.54 2.15c-.54-1.18.03-2.52.93-3.58.3-.6.68-.87.94-.92 1.2-.98 2.51-1.41 2.75-.64.15-2.84.23-5.4 3.36-4.01-.07-4.98 3.73-8.17 6.4-11.82m-6.4 11.82q0 .7.13 1.46l.22-1.3zm.13 1.46c-.43 2.21-1.23 5.35-2.02 6.66 1.6-1.32 2.66-2.97 2.08-6.3zm-2.02 6.66q-.37.31-.78.6c.24.09.51-.15.78-.6m-1.47-4.11-.05.86q.15-.56.05-.86m-2.75.64q-.5.4-.94.92-.15.28-.27.65c1.8-.83 1.73-1.66 1.2-1.57m3.03 3.6a1 1 0 0 0-.13-.34q.06.2.13.35m-4.59 6.1q-.31.69-.74 1.3c.65-.35.83-.84.74-1.3m-2.08 2.9q-.5.5-1.05 1c-.07.21-.3.45-.8.72l-.04.03c1.34.71 1.82-.4 1.9-1.76m-2.77 2.53q-.6.54-1.17 1.11a1.8 1.8 0 0 0 1.17-1.11m-3.66 7.43.01.07q-.5.76-.76 1.41c.68-1.1.9-1.55.88-1.6q-.03-.01-.13.12m-7.93 18q.53-1.72.89-3.47c-.72 1.6-1.36 3.85-.89 3.47m.24-.27.15-.24v-.06h-.01q-.05 0-.14.3m1.42-4.53q.15.6.61 1.32c.03-1.48-.24-1.71-.6-1.32m2.09-19.64q-.54-.61-1.3-1.04.25.4 1.06.94.12.06.24.1m-2.37-1.66q-.63-.54-1.2-1.13h-.16l.12-.03-.71-.79c-.12.31.08.85.97 1.7q.7.26.98.25m-2.9-3.16q-.5-.69-.94-1.44c.04.36.2.86.58 1.55zm-2.2-3.97-.3-.77c-.08.15-.03.4.3.77M6.92 147.4l.15-1.41c-.2.2-.3.65-.15 1.41m.82-4.78.03-.13.34-.81c-.23.16-.38.46-.37.94m.02.32q0 0 0 0h.06zm1.56-4.31.94-2.45c-.73.12-1.35.85-.94 2.45m4.61-11.6q.42-.95.87-1.9a7 7 0 0 0-.87 1.9m19.96 4.15c.12-2.07-1.13-3.52-2.7-4.7a27 27 0 0 1 2.7 4.7m-2.7-4.7a21 21 0 0 0-5.77-5.6c-.64 2.33 3.05 3.58 5.76 5.6m-5.77-5.6q.07-.21.16-.42-.23.11-.45.25zm13.6 13.8q0-1.47-.27-3.04c-.1.9-.04 2.04.27 3.04m-1.07-6.35q-.42-1.3-1-2.51c.05.86.34 1.8 1 2.51m-13.69-9.25a7 7 0 0 0-1.94 2.37c1 .16 1.67-1.04 1.94-2.37m3.43-14.63zm16.78 20.34a8 8 0 0 0-.87-3.23c-.4.61-.52 1.84.17 3.86q.4-.31.7-.63m-5.56-8.1-1.44-1.04c-.47-.04-.5.22 1.04 1.15q.25-.05.4-.12m-1.87-1.35q-.9-.63-1.76-1.3c.24.47.8 1.1 1.57 1.41zm-1.34-1.8q.39.38.94.84-.59-.62-.94-.83m-6.87-1.38-.12-.12-.01.07zm-4.47-3.38q-.3.34-.57 1.05.3-.65.57-1.05m9.26-11.02c-.01-.81-.16-1.46-.42-1.76q.06.92.42 1.76m-.42-1.76a5 5 0 0 1 1.03-3.21c1.98 2.25 1.42 2.07 2.66-.98-8.13 2.21-4.21-12.5.93-14.58 2.28-.88-.03 6.93 1.1 5.16-.36-2.97 1.43-4.85 3.43-6.62l-.6.2c.5-2.64 2.58-3.1 3.27-2.62 1.38-1.43 2.38-3.05 2.15-5.3q.28.21.6.36a7 7 0 0 1-.7-.46c-1.12 2.52-2.99 4.13-5.04 5.6.5.63.28 1.76-2.13 2.78q-.19-.66-.24-1.16c-2.72 1.86-5.39 3.93-6.8 7.8-.46 2.32-2.22 7.65-2.52 11.13.98-1.76 3.77-.23.38 2.5l-.07.22c.2.3.47.5.85.52.76-1.5 1.34-1.76 1.7-1.34m-2.55.82c-.35-.56-.41-1.53-.31-2.72-.32.57-.44 1.48-.1 2.81.02.94.02 1.34.05 1.37.04-.04.12-.66.36-1.46m9.01-21.65q1.2-.81 2.37-1.63c-.66-.84-2.6-.79-2.37 1.63m8.11-6.76q.79.44 1.35.43-.71-.15-1.35-.43m-2.75 4.94c-.82.84-1.76 1.62-2.67 2.42 2.88-1 3.23-2.03 2.67-2.42m3.3 10.55c1.2-1.13.98-1.6.28-1.94a29 29 0 0 0-.29 1.94m12.3-19.55c1.15-.63 2.32-1.38 3.47-1.96a8.6 8.6 0 0 0-3.48 1.96m.27 26.03.82 1.4c-.26-1.2-.63-1.57-.82-1.4m5.27 2.35zm.03 2.02q.09.18.2.38l.12-.62zm9.57-32.88q.02.64-.13 1.74l.09.16q.27-1.38.04-1.9M62.58 65c-.51 0-.59.9.87 2.52l.73-.24c-.37-1.57-1.16-2.28-1.6-2.28m1.6 2.28.06.31.1-.04q.06-.2.16-.37zm.32-.1c.89-.27 1.63-.45 2.03-.51l.78-.31c-1.6-.34-2.42.12-2.8.82m2.8-.82q.07 0 .13.02l1.25-.58zm-.77.31-2.19.88-.04.12c2.6-.84 2.94-1.1 2.23-1m-2.23 1-.04.01.02.08zm-.02.1c-.4 1.66.78 3.66.02.15zm-.02-.09-.02-.09-.52.21.04.05zm-.54.12-.27-.28c-1.67.57-3.5 1.35-4.4 2.17zm13.11-2.55c.6.02 1.3 1.26-.5 1.31-.1-1 .18-1.32.5-1.31m11.04.98c1.05-.01 3.1 1.49.05 1.67-.87-1.25-.6-1.67-.05-1.67m5.88 1.17c.5.01 1.47 1.03.1 1.26-.52-.95-.38-1.26-.1-1.26m-12.12.12c1.2.05 2.36 1.5-.81 3.07-1.07-2.28-.12-3.1.81-3.07m-6.34.86c.47 0 1.28.25 2.58.82 3.27 2.7 3.5 6.55 1.03 7.96.2-3.17-5.83-8.8-3.6-8.78m-5.95 2.87q-.4 0-.9.3c.84.04 1.88.58 2.61 1.3-.32-.91-.89-1.62-1.7-1.6m1.71 1.6c.38 1.06.43 2.4.14 3.13 1.3-.88.85-2.17-.14-3.14m.14 3.13q-.34.23-.88.42c.41.22.7.01.88-.42m-.88.42q-.15-.07-.33-.24-.28.31-.7.53.58-.12 1.03-.29m-.33-.24q.36-.42.46-.92-.29.3-.8.53.17.24.34.39m.46-.92c1.46-1.5-1.84-3.72-3.14-1.77 1.92-1.83 3.49.13 3.14 1.77m-2-3.7c-.77-.04-1.38.32-1.45 1.33a6 6 0 0 1 1.45-1.33m-12.82.46c.44.02.3 1.28-1.23 1.75.5-1.32.97-1.76 1.23-1.75m20.63 1.36c.66-.04 1.37.82 1.88 3.17-3.9-3.24-1.3 3.24-2.13 5.22-2.86-2.24-1.45-8.27.25-8.39m21.31.06c.56-.03 1.7.6.3.98-.76-.7-.63-.96-.3-.98M55.1 75.38q.26 0 .51.16c-3.13 3.57-1.15 10.24-5.1 12.74 0-3.65 2.07-13.05 4.6-12.9m23 1.97c.32 0 .64.65.34 2.39q-.28-.32-.45-.62c.18.45.33 1.17.44 2.25-.19 1.3-.45 3.17-2.05 3.47-1.01-2.47.48-7.63 1.47-6.01-.35-.85-.06-1.49.26-1.48m-.25 1.48zm-7.86-.63c.06.59.18 1 .35 1.31a6 6 0 0 0-.35-1.3m.35 1.31c.26 1.22.58 2.76 1.38 2.74 2.73-4-.25-.73-1.38-2.74m13.73.26c-.92-.06-1.8.85-.2 3.24 2.35-1.85 1.24-3.17.2-3.24m2.28.96c-.8.02-1 .73.48 2.63l1.02 1 1.38.71c2.9-1.53-1.23-4.39-2.88-4.34m-17.67 1.4c-3.04 2.6-7 3.49-10.28 2.57.9 1.52 1.96 2.43 2.42 3.8 1.07-4.62 12.12-.06 7.86-6.38m-23.34.2c-.28-.02-.8.07-1.65.3-.92 1.76-5.1 3.75-2.37 5.68.01-2.44 5.55-5.88 4.02-5.98m29.82.72c.37 0 .4.84-.52 3.1-.54.84-.28 2.13-1.02 2.81-1.45-2.3.78-5.89 1.54-5.9m10.24 1.11c-.37 0-.74.78.16 1.88.44-1.34.14-1.88-.16-1.88m29.02.33c-.3-.01.08 1.12 2.27 4.11-.34-2.21-1.88-4.1-2.27-4.11m-37.69.86c.23 0-.8 5.01-.61 1.72.36-1.27.54-1.72.61-1.72m-.98 0c.36 0 .5.9-.17 3.19.05-.17-.98 3.3-1.06 1.57-.57-2.45.63-4.76 1.23-4.76m-18.59.75c.41 0 .82.87.68 2.87.09.3-.65 2.37-1.03 1.15-.78-2.45-.2-4.04.35-4.02m-14.46.63c-.41 0-.66.62.44 1.98.63-1.27 0-1.98-.44-1.98m60.97.94c-3.94 3.16 3.75 4.53 5.03 1.42 1.07.74.56 3.48 2.45 2.76-.47-1.14 1.46-5.45-2.18-2.77.94-3.4-4.24 2.81-5.3-1.4m-40.19.26c-.72.03-1.1.63.4 2.18 2.4-1.08.65-2.23-.4-2.18m-11.13.79c-1.1 5.93 4.6 10.1 4.36 15.68-4.62-3.53-8.21-11.39-4.36-15.68m17.73.06c.25 0 .38.85-.26 2.95-.51-1.73-.04-2.95.26-2.95m18.8.4c.52 0 .64.78-1.17 1.7.15-1.22.78-1.7 1.18-1.7m-30.26.6c.3 0 .49.6-.05 2.4-1.2-.9-.43-2.4.05-2.4m27.27.97c.62 0 1.53 1.65-.37 1.36-.13-1.02.1-1.36.37-1.36m-2.54.17c.7.02 2.32.93.64 1.22-1.15-.93-1.06-1.24-.64-1.22m11.77.3c.42-.03 2.62 2.4.62 1.37-.67-1.01-.77-1.37-.62-1.38m-34.8.11c.44-.01.8.94.35 3.44l-.34 1.07c-1.43-2.4-.64-4.49 0-4.5m-6.68.59c.3-.04.52 6.86-.18.97.06-.69.12-.96.18-.97m4.36.02c.18.02.38.54.46 1.85-.05.41 1.83 4.67.9 3.34-2.3-1.41-1.87-5.23-1.36-5.19m50.6.02c-.38 0-.87.78-1.1 3.1 2.01-.8 1.73-3.1 1.1-3.1m10.08 3.08c1 .05 2 1.06-.32 2.48-1.42-1.82-.55-2.52.32-2.48m-84.59.8c-.32 0-.27 1.37.84 1.95-.31-1.46-.64-1.96-.84-1.96m25.93.27c.68-.05 2.98 2.27.65 1.99-.94-1.46-.96-1.97-.65-2m2.33 1c.15-.01.56.7.8 2.25-.84-1.44-.95-2.23-.8-2.25m-14.15 1.03c-.15.01-.13 1.02.08 3.6-.4 4.08 8.5 8.87 5.04 12.85-2.94-1.32-6.97-11.3-4.1-3.66 1.16 2.5 2.75 4.9 5.18 6.32 1.8-1.53 1.06-9.7.02-8.29-3.49-.83-5.73-10.87-6.22-10.82m56.36.18c.46 0 1.21.88.06 1.4-.52-1.04-.35-1.4-.06-1.4m-18.03.3c-1.99 5.65-11.66 11.66-13.27 9.31a29 29 0 0 0 4.21 10.88c4.04-.74 11.29-6.15 12.34-10.15-4.52-2.74-11.71 11.99-13.48 3.96 2.97-4.4 12.37-8.89 10.2-14m-9.06 20.19-.07.01.27.31zm.2.32a46 46 0 0 0 3.89 5.21c3.11-2.97 11.64-4.9 10.35-11.35-2.45 3.89-8.51 12.4-14.24 6.14m31.21-20.5c.82-.03 1.77 1.55-.68 1.8-.14-1.32.25-1.78.68-1.8m-15.76 1c3.45 3.7 5.78 6.24 10.37 8.31 2.05 3.39-1.36 2.71 2.27 4.04.75.68 1.4 4.24-.63 2.18-3.75.15-6.72-2.7-8.77-6.04.06.77-.35 1.36-1.37.44-3.99-1.65-2.17-5.37-.34-3.79a22 22 0 0 1-1.53-5.15m1.53 5.14a26 26 0 0 0 1.71 3.35c-.03-.42-.2-.88-.47-1.2a5 5 0 0 0-1.24-2.15m2.6-3.84c.47.02 1.26.55 2.42 1.93.16.8 2.12 1.29 1.54 2.4-3.65 1-5.5-4.4-3.96-4.33m-6 .34c.65-.02 1.67.56 1.08 1.82-2.03-1.17-1.73-1.8-1.08-1.82m-27.68.78c.78 0 2.37 1.84.44 2.48l-.23-.19c-.83-1.7-.64-2.29-.2-2.29m5.55.08c-.33 0-.75 1.54.19 2.05.16-1.53 0-2.05-.19-2.05m-15.7.22c.52.02 3.33 2.74 1.35 2.22-1.36-1.68-1.6-2.23-1.36-2.22m29.92 2.45c.74-.02.57 1.18-2.43 2.7.75-1.93 1.86-2.69 2.43-2.7m-37.39 1.34c.58.02.98.61-.66 1.47-.5-1.07.15-1.5.66-1.47m34.24 1c.47.01.46 1.08-1.18 1.65.38-1.25.88-1.67 1.18-1.66m-3.1 1.33c1.26.05 1.34 2.03-2.54 2.08.9-1.6 1.89-2.1 2.54-2.08m-31.67.25c.47-.02 1.12.23 2 .83.49 2.64-2 4.23-2.95 6.27.24-2-1.08-7.01.95-7.1m8.03.51c.79 0 2.1.54.65 1.18-1.56-.85-1.26-1.18-.65-1.18m34.17.28c.33.88 0 2.43-1.06 2.6 1.26-5.1.39.07 1.06-2.6m-2.1 2.85c.52 0 .33.78-1.58 2.72a5.6 5.6 0 0 1-2.36 1.17l.08-.21q-.45.2-1.36.3c-.27-2.1 1.41-1.87 1.84-1.23 1.03-1.62 2.73-2.76 3.37-2.75m-3.38 2.75q-.28.44-.48.93c.62-.27.68-.64.48-.93m19.6-.02c.38 0 .87.67.27 1.9-.87-1.3-.62-1.9-.27-1.9m19.11.17c.79.04 1.14.57.32 1.86-.86 1.4 1.58 4-2.32 3-4.83-1.8 0-4.94 2-4.86m-41.55.07c.73.02.94.5-.9 1.85-2.98-.65-.32-1.89.9-1.85m-25.63.13c.72 0 2.02.64.42 1.14-1.15-.84-.92-1.14-.42-1.14m80.17.1c1.12-.06 2.4 1.91-.97 1.76-.02-1.27.46-1.72.97-1.75m-67.26.29c-1.63-.05-4.1 3.83 1 2.41.14-1.77-.37-2.4-1-2.41m-5.29.94c-1.2.06-2.45 1.66.9 2.68.71-2.06-.08-2.73-.9-2.68m1.82 3.15c-.48 0-.62.35.59 1.41 1.94-.38.2-1.4-.6-1.41m71.24 2.1c-.35.01-.67.78.24 1.8.36-1.3.05-1.81-.24-1.8m-115.2.36c-.5 0-1.3 1.06-1.27 3.63 1.96-2.2 1.82-3.61 1.26-3.63m86.65 3.93c1.45 0 2.33 1.42-1.97 3.7-1.02-2.6.7-3.7 1.97-3.7m9 .73a3.2 3.2 0 0 1 1.82.6v.01c.65.54.77 1.43-.31 2.67.23-1.82.34-2.55.32-2.67l-.02-.01c-.15.14-1.22 4.3-3.2 3.4-3.06-2.78-.71-4.11 1.39-4m-90.87.65c.32-.02 1.2.22 2.94.85 1.03.34 3.3 2.79.38 2.1l-.78-.61c.25.37.36.91.16 1.65-4.14-1.6-2.34-2.76-.96-2.25-1.25-.94-2.28-1.7-1.74-1.74m1.74 1.74.8.6q-.32-.44-.8-.6m-4.2-.97c1.28-.03 2.52.8.36 2.87-3.32-1.72-1.81-2.85-.36-2.87m97.4.1c2.15 0 5.42 3.84.32 3.55-1.94.13-.73.6-1.73-.84-.2-2 .5-2.7 1.41-2.7m-10.57.53c3.51-.07 4.88 7.21 1.39 10.13-3.38 3.42-3.4 13.94-4.66 7.48.08 1.4.1 5.12-1.74 5.32 1.72 1.25 1.94 3.98-1.86 3.18-3.51-.59-4.07-9.43-1.1-3.5q.71-.3 1.36-.26c-3.6-2.58-3.36-5.68-1.97-8.97q-.43.35-1.03.44c-6.59-1.43 5.79-11.2 4.05-6.24 1-1.86 1.86-3.72 2.16-5.53 1.26-1.43 2.41-2.03 3.4-2.05m-5.56 7.58c-.4.75-.75 1.48-1.16 2.23q.87-1.4 1.16-2.23m-1.16 2.23c-.07.1-.1.19-.18.3l-.05.13zm-.23.43c-.57 1.05-1.2 2.12-1.63 3.14.9-.7 1.27-2.1 1.63-3.14m.34 12.11q.27.2.57.38.6.26 1.03.2a3 3 0 0 0-1.6-.58m-84.34-21.92c1.63.03 3.06 1.13-.16 2.67-4.82-1.3 4.66 1.96-.95 1.02-2.37-2.7-.53-3.73 1.11-3.7m71.88.52c.62 0 2.45 1.62.38 1.32-.7-1-.66-1.32-.38-1.32m-5.56.66c.89 0 1.7.88.16 2.36 2.62-2.05 6.5-2.5 3.25 1.33-2.03.71-2.66 2.98-4.31 4.13-1.67-1.79-.91-3.64.51-5l-.2.16c-1.25-2.07-.3-2.97.6-2.98m-20.76.17c.64-.02 1.43.9 2.13 3.4 1.24 1.4.85 3.73-1.16 4.2-3.18-2.23-2.48-7.56-.97-7.6m-34 .26c1.44 0 2.8 2.5 1.64 3.97-.06-5.33-2.5 2.81-3.03-3 .41-.69.9-.97 1.39-.97m-7.45.76c2.46-.09 5.6 2.3 6.44 5.32q.1-.34.27-.72 1.09.27 2.2.94c-1.31-3.2 3.2-3.98 3.34.63-.3.5-.86.7-1.43.78 2.84 2.54 4.44 6.18.25 6.76.42-2.7-3.33-3.96-4.45-6.23v.08c2.8 4.94 6.91 9.71-.74 13.15-3.24-4.62-5.75-9.82-8.98-16.47.07-2.96 1.43-4.18 3.1-4.24m6.62 7.48q.12-1.12-.18-2.16c-.23.83-.12 1.53.18 2.16m4.2-.53-.22-.19-.27.16a9 9 0 0 1-.83-.34q.15.22.35.45.46-.02.97-.08m-1.32-.37a6 6 0 0 1-.46-.76c-.32.12-.33.38.46.76m-.46-.76q.1-.04.22-.06l-.35-.22zm.22-.06q.7.45 1.34 1c1.28-.82-.48-1.17-1.34-1m85.77-5.66q1.9.48 3.1 1.22c1.57-1.8 2.24.22.66.45 4.5 3.49.2 10.02-3.5 14.4-2.3 2.82-.84 10.62-5.62 10.09.28-2.93-8.67-2.74-3.9-8.1 4.14-5.2 3.4-15.86 9.26-18.06m3.76 1.67a7 7 0 0 0-.66-.45q-.15.16-.31.4.57.12.97.05m-39.78-1.3c1.5.04 2.7 2.2-1.68 4.32q-.15-.63-.19-1.16c-.17.05-.37-.15-.59-.79.32-.58.56-.85.72-.9.3-1.06 1.05-1.48 1.74-1.46m-1.74 1.47q-.2.66-.13 1.69c.43-.13.62-1.88.13-1.7m-65.05-1.31c.9-.02 1.72.55 1.34 1.65 1.3-.8.35 3.64-2.44 2.29-1.73-2.66-.22-3.93 1.1-3.94m1.34 1.65c-.34.22-.85.8-1.53 1.98a5 5 0 0 0 1.53-1.98m86.95-1.34c.82.04 1.14 1.44-.92.57.31-.43.64-.58.92-.57m23.72.63c-.23.03-.34 1.58.4 2.22-.07-1.68-.26-2.23-.4-2.22m-98.47.64c.99 0 5.24 2.92.78 1.5-1.06-1.1-1.14-1.5-.78-1.5m13.25.6c.58 0 .72 1.16-1.33 2.78.07-1.98.85-2.78 1.33-2.78m-23.75.13c.3 0 .53.25.32.55 1.12.13 1.9 2.32-1.41 1.56q.16-.61.38-.96l-.15.04c.06-.9.51-1.2.86-1.2m-.7 1.15c.57-.2.88-.4 1.02-.6-.34-.04-.72.11-1.03.6m78.44 1.65c.95-.05 2.93 1.82 1.34 3.87-2.18-2.77-2.03-3.83-1.34-3.87m-78.89.24c4.43 0 5.24 9.93 8.36 13.36 1.85 4.96-2.83 6.3-4 7.48l-.3-.3c-2.46-6.17-8.35-12.1-7.78-18.76 1.48-1.26 2.7-1.78 3.72-1.78m40.46.11c.6-.02 2.11.56 1.11 1.1-1.51-.78-1.52-1.08-1.1-1.1m9.76.07c.9-.02 3.27 2.46.69 2.78-1.24-2.06-1.17-2.76-.7-2.78m15.16.57c.65 0 1.03.9.86 3.36-2.2-2.09-2.26 2.56-3.44 5.5 1.44-.39 4.12 1.3.42 3.35a5 5 0 0 1-1.13-2.04c-.6.78-1.43 1.13-2.64.64.73 1.85.64 2.91-.62 3.36 1.42.1 3.11 1.72-.4 3.16-1.12-1.69-1-2.6-.47-2.96q-.46.06-1.03.07c-3.7-.52-3.82-4.3-3.47-4.81-4.15-7.12 4.88 3.52 7.08-3 .72-2.18 3.4-6.63 4.84-6.63m-11.92 9.63.36.6c-.1-.61-.25-.75-.36-.6m4.5 4.74q.5-.05.87-.2-.51-.04-.87.2m4.13-4.2q.41-.54.71-1.31c-.52.14-.88.55-.71 1.31m41.66-10.14c-.54.02-1.12.53-1.27 1.98 3.32-.04 2.38-2.03 1.27-1.98m-30.22 1.3c.57-.02 1.18.6-.26 1.4-.6-.99-.18-1.38.26-1.4m-24.7.49c1.1-.02 2.99 2.02-.25 1.68l.28.68-.4-.35c-.51-1.5-.16-2 .38-2.01m45.84.52c.47-.02.5.9-.5 3.38a10 10 0 0 1-2.46 3.66c-1.21-2.47 1.93-7.01 2.96-7.04m-12.4 1.8c.94 0 1.76 1.02-.83 2.23-.7-1.61.1-2.23.83-2.23m-87.89 1.76c4.36 3.93 6.71 9.54 9.29 15.22.17.8-.03 1.44-.44 1.94 3.2-2.88 5.08 1.76-1.58 1.97q.6-.98 1.2-1.6c-.83.67-2.07 1-3.08 1.05-1.6-6.05-10.29-12.19-5.39-18.58m8.47 17.53q.21-.17.38-.37-.19.17-.38.37m32.62-17.16c-1.37.29-1.55.85-1.2 1.55.45-.32.86-.8 1.2-1.55m-1.2 1.55c-1.68 1.2-3.83-.13-3.73.77.47 2.27 6.04 2.06 4.9 5.02 4.63-1.05-.2-3.91-1.16-5.8m-27.53-1.22c.42-.01 1.02.68 1.6 2.6l.24 1.11-.27.84c-2.47-1.51-2.41-4.52-1.57-4.55m43.7 2.37c.96.02 2.57 1.98.02 2.73-.94-2.06-.6-2.74-.02-2.73m52.4.63c.36 0 .24.76-1.14 2.6-.08-.77-1.1 3.4-1.02 2.14-.37-2.65 1.56-4.74 2.16-4.74m15.03.08c1.93.06 3.96 1.83.33 4.48l-1.4-.3a8 8 0 0 1-.61-.97c-.43-.43-.55-.96-.44-1.3-.16-1.37.96-1.95 2.12-1.91m-2.12 1.92q.06.56.44 1.29c.4.39 1.05.7 2.04.68-1.3-2.55-2.28-2.59-2.48-1.97m-1.9-1.68c5.76 4.24-1.8 12.91-4.27 17.88-.14 1.23-1.25.58-1.95.7-4.72-5.46 2.79-14.54 6.22-18.58m-68.07.06c.46 0 1.24.65.2 1.19-.68-.87-.52-1.19-.2-1.19m73.48 1.31c-.21.01-.65.8-.49 2.06.7-1.46.69-2.06.5-2.06m-87.2.4c-.5 0-1.03.95-.08 1.17-.38.11-.05 1.65.52.97.27-1.65-.07-2.15-.44-2.14m29.38.26c1.34-.02 3.02 1.83-.52 3.36-1.17-2.46-.4-3.35.52-3.36m-68.58.59c2.1 3.98 5.37 7.5 5.95 12.13-1.8-3.67-8.1-10.28-5.95-12.13m59.39.16c.86-.03 2.95 2.98.08 2.34-.6-1.74-.46-2.33-.08-2.34m4.2.3c-.94.04-1.4.33 1.4.77.93-.58-.47-.8-1.4-.77m-1.68 1.7c.6 0 1.41 2.01-.37 2.2-.2-1.66.06-2.2.37-2.2m.98.16c1 .06 4.05 3.04 1.24 3.14-1.73-2.4-1.77-3.17-1.24-3.14m34.52 1.03c1.05-.05 3.5 4.82 5.48 3.91 2.72 1.37-.35 3.16-2.05 2.75-1.94-2.54-2.35.98-3.94-4.16-.08-1.82.12-2.48.5-2.5m-79.57.18c.87-.03 1.29.87.45 3.34a4.2 4.2 0 0 1-4.47 2.56c-1.44-1.97 2.23-5.85 4.02-5.9m106.09.3zc.03.01.11.27.22.87.27.7.8 1.68 1.73 2.32l-.08.1-1.4-.62q-.14-1.19-.25-1.8a3 3 0 0 1-.22-.87m-103.8 2c.3-.02.41 1.44-.48 2.48l-.06-.43-.02-.17c.15-1.37.39-1.88.56-1.89m17.38.08c1.38-.09 3.21.64 1.38 2.43-3.68-1.46-2.76-2.35-1.38-2.43m84.9 1.24c.22 0 .02.76-1.05 2.76q-.95 1.45-2.15 2.7c.09-1.89 2.7-5.48 3.2-5.46m-33.16 2.94c-.18 0-.72.43-1.76 1.52-1.3 1.1-8.71-.09-4.66 3.17 3.07.63 7.07-4.71 6.42-4.7m-9.08.67q-.32-.01-.8 1.19c-1.2.18.62 3.01 1.47 2.18-.09-2.16-.3-3.37-.67-3.37m-65.72.42c.92-.03 2.19.67-.38 1.05-.6-.76-.17-1.04.38-1.05m17.36 1.41c4.3-.1 8.6 7 4.15 10.7-2.05 2.54-3.27 6.15-6.33 9.23q-.3-.17-.56-.38-.14.16-.56.2a4 4 0 0 1-.4-1.1 10 10 0 0 1-1.78-3.18c.75 6.3-.52 16.93-2.06 16.56-1.87 1.64-2.12 11.95-4.78 6.99.58 1.84.94 3.9-1.7 4.03-.27-4.83-1.8-2.6.37-7.31 5.32-5.23 7.24-12.47 4.98-19.6-1.2-3.26 1.48-8.42 2.43-5.82q.04-1.15.22-2.28l4.58-1.84q-.23-.06-.42-.23a19 19 0 0 0-4.16 2.06c.33-1.87 1-3.66 2.04-5.15 1.11-2.01 2.55-2.84 3.98-2.88m-1.86 5.97.84-.3-.12-.33c-.6-1.44-1.04-2.16-1.33-2.4-.78-.7-.44 2.16.6 3.03m.84-.3.12.31 3.01-1.22c-.62.12-1.74.42-3.13.9m3.13-.9c.11-.03.34-.1.4-.1.55-.2.96-.38 1.07-.5zm.4-.1c-1.03.4-2.55.92-3.4 1.34q0 .06.04.12l.17-.1c2.99-1.01 3.7-1.4 3.2-1.36m-3.36 1.46q-.23.1-.44.09c-.36.24-.4.42.2.5 1.05 3.55.99 1.66.24-.6m-.44.09q.16-.1.4-.21l-.01-.03-.54.22zm-4.95 4.1c-.04 1.8.22 3.58.76 5.15q-.15-1.36-.44-2.38a9 9 0 0 0-.32-2.77m2.55 8.33q.43.51.95.9c.55-.54-1.06-1.88-.95-.9m83.14-17.03c1.16.03 3.5 1.04 1.78 1.72h-.81c-2-1.3-1.76-1.74-.97-1.72m-100.94.04c1.82.03 4.58 1.46.92 3.06-3.18-2.26-2.33-3.08-.92-3.06m77.19.22c-.82 0-1.93.74-.45 1.95 1.68-1.36 1.17-1.95.45-1.95m-11.19 1.94c1 .02 6.52 11.6.34 2.62-.56-1.92-.59-2.63-.34-2.62m37.92 1.41c1.06.02 2.09.66-.15 1.56 2.9-.44 1.9 1.77.15.56-2.13-1.55-1.05-2.14 0-2.12m2.39.14c.43 0 .9 1.16.45 4.18-1.47-2.34-1-4.17-.45-4.18m-105.15.26c.6.02.97 1.06-.9 2.24-.18-1.65.43-2.26.9-2.24m84.47 1.13c-.47 0-.4.7 1.56 1.86-.31-1.29-1.14-1.85-1.56-1.86m-86.55 2c.35 0 .78.41 1.33 1.4-.84 4.14-2.34 6.46 2.74 7.77.9.9.74 2.36.38 3.45-3.03-.2-4.58-5.85-7.55-3.4q-.27.38-.6.58.3-.35.6-.58c1.6-2.3 1.66-9.23 3.1-9.22m69.35.78c.5.03 1.28 1.1 1.4 3.76-2.24-2.14-2.05-3.8-1.4-3.76m-4.33.14c.21-.03 1.36 3.7.33 2.11-.35-1.56-.4-2.1-.33-2.11m-64.57 0c-.47-.01-1.6 1.22-.47 1.8.81-1.32.76-1.78.47-1.8m16.9.64c-.84-.01-1.52.82.45 2.54 1.38-1.67.39-2.53-.45-2.54m5.27.52c-1.7 0-4.33 2.18.35 2.31l.41.1c.79-1.8.14-2.4-.76-2.4m6.11.2c1.2 0 2.22 1.06 2.25 3.86-3.65 4.62-2.97 14.12-2.12 21.22.21 3.02 4.31 7.1 3.46 6.58.9 1.45.1 6.12-2.33 5-.25-3.53 1.92-2.55-.81-4.08.43 3.94-4.02 4.4-4.22 1.17-4.67-1.74-2.01-12.9-1.88-18.13-.22-3.46.69-10.43 2.72-8.5-2.25-3.2.65-7.11 2.93-7.12m81.22 1.37c.15 0 .35.6.62 2.25 1.3 4.7 1.07 7.72 5.36 2.72 4.22-1.54-3.4 3.02 1.53 1.44 1.5.52-6.68 4.55-7.24 5.22.85-2.91-5.09-14.83-.66-8.2.02-1.35.12-3.42.4-3.43m-.4 3.42c0 .62 0 1.08.03 1.12.02-.02.04-.31.06-1zm-27.65-3.21c-.48.02-.1 2.37.82 3.14l.85-.3-.12-.33c-.6-1.44-1.04-2.16-1.33-2.4q-.12-.12-.22-.11m1.67 2.84.11.31 3.02-1.22c-.63.12-1.75.42-3.13.9m3.13-.9c.11-.03.33-.1.4-.1.54-.2.95-.38 1.07-.5zm.4-.1c-1.03.4-2.55.92-3.4 1.34l.03.12.18-.1c2.99-1.01 3.7-1.4 3.2-1.36m-3.37 1.46q-.23.1-.43.09c-.37.24-.4.42.2.5 1.05 3.55.98 1.66.23-.6m-.43.09q.15-.1.4-.21l-.02-.03-.53.22zm-.58-.25a18 18 0 0 0-4.19 2.09l4.62-1.86q-.23-.06-.43-.23m-63.79-2.6c-.62 0-1 1.18.94 2.54.2-1.86-.45-2.56-.94-2.55m-24.37.66c1.21.02 2.6.94 2.6 3.6l-.65.03-1.12-.45c-3.97-1.3-2.6-3.2-.83-3.18m3.93 4.36c.47-.03 1.72 1.15.83 1.96h-.02c-1.1-1.42-1.11-1.94-.8-1.96m90.28.43c-.47 2.3-12.49 2.55-5.78 4.7 1.62-1.81 7.84-2.55 5.78-4.7m-28.3.25c-.82 1.34-1.04 3.33-.08 4.66-1.2-4.24 1.5-1.63.08-4.66m-39.2 1.04c.59-.01 1.22.4 1.88 1.5-1.23 2.74-1.47 5.65-1.5 8.6.25-2.98 1.83-5.92.97-.54l-.25 1.6-.42 1.58a4 4 0 0 1-.3-1.17c.04 3.48.2 7-.72 10.36l-.43-.06-.2-.03c-.66-6.2-10.59-.33-5.67-6.93 2.76-3.42 2.58-12.96 3.2-13.89-.41 5.36 1.14-.99 3.44-1.02m.39 11.57v-1.46q-.07.76 0 1.46m93.76-10.33c.72 0 .85 1.04-1.19.86.42-.64.86-.86 1.19-.86m-29.54 1.96c-.55 0-.98.6-.32 2.37 2.3-.88 1.16-2.36.32-2.37m26.73.76c.8 0 1.44.85.8 3.22a7 7 0 0 1-.06 2.01q.15.21.3.48c.7-4.79 3.36 5.84 3.3 7.75.09.28 1.03 8-.12 5-1.72-3.03-4.7-10.88-3.94-9.34-.56-1.19-1.4-5.96-.09-4.62l-.1-.42c-3.16-1.7-1.41-4.08-.09-4.08m.2 4.5c.28 1.1.45 1.11.54.73q-.32-.5-.55-.73m-114.52-4.5c.15 0 .1.58-.41 2.14l-.71 1.23c-.08-1.46.84-3.36 1.12-3.36m63.3 2.16c-.05 1.36-.33 2.39-1.17 2.68-1.43-3.9 1.4 7.95 1.15-.1.04-.63.04-1.54.03-2.58m25.65 1.35c.4-.01 1.33 2.02-.01 1.46-.23-1.08-.16-1.45 0-1.46M34.9 203.28c.67.01 1.68.7 2.28 2.67-3.52-1.06-3.32-2.7-2.28-2.67m-2.29.94c.62.03.63.76-.73 2.69-.79 3.59-4.84 4.99-5.37 9.15l-.7-.35c1.01.61 1.97 1.37.53 1.32l-.53-1.31-.03-.02.03.01c-.96-2.37-1.63-4.52 2.2-6.1-1.77-1.54 3.13-5.45 4.6-5.39m6.7 2.29c.88 0 2.5 4.05-.41 2.22-.16-1.66.07-2.23.4-2.22m16.4 2.15c.28-.01.5.7.51 2.72-.98 1.84.62 5.19-1.92 6.08-.44-.15-.8-.56-1.08-1.12.34 1.62.22 3.06-1.05 3.44.09-2.48-5.36-7.29-.86-7.98-1.07-2.18.34-.08 1.3 2.53-.35-2.36.22-4.8 1.84-2.5.16-1.25.8-3.14 1.26-3.17m-1.26 3.17c-.11.85 0 1.4.52.85a9 9 0 0 0-.52-.85m-1.83 2.5c.11.73.31 1.44.6 2.01q-.23-1-.6-2.01m58.47-5.32c1 .02 2.01.9 2.8 3.05-.1-2.16 2.59-.09.23.74l.09.3c1.19 3.15 1.68 7.57-.72 2.25-2.58-2.32-6 .87-6.02 3.68q-.24-.5-.39-1.02-.1.3-.23.6c.58.74 1.38 3.8-.76 2.93-.3-5-8.21 1.29-4.25-4.57-.05-5 3.8-4.4 5.05-1.86.35-3.13 2.28-6.16 4.2-6.1m-4.2 6.1q-.18 1.52.2 2.9c.33-1.08.2-2.09-.2-2.9m7.23-2.3q-.11-.4-.24-.75.02.33.12.78.06 0 .12-.04m2.79-.56c.7.04 1.68.8 2.99 2.6 2.03 1.97 3.88 6.24-.52 3.73-1.48.62-2.12 2.23-2.5 3.66-1.62-2.73-2.27-10.13.03-9.99m-16.27 3.09c.87-.01 1.17 1.1-.25 4.07-.59.8-.92 4.03-2.34 3.46-3.36-2.83.81-7.51 2.6-7.53m-70.58 4.3c-.39.03-.9 1.15-.15 2.58l.2-.3c.5-1.66.26-2.3-.05-2.28m-8.6.15c-.42 0-.56.87.72 3.09.7-1.79-.21-3.08-.72-3.1" style="fill:#000;fill-rule:evenodd;stroke:#000;stroke-width:.899999;stroke-linecap:round;stroke-linejoin:round;stroke-dasharray:none;stroke-opacity:1"/></svg>