<svg xmlns="http://www.w3.org/2000/svg" xml:space="preserve" width="578.37" height="230mm" viewBox="0 0 153.03 230"><path d="M102.851 228.255c-4.274-4.595-8.864-8.963-9.523-14.208-3.115-6.71 2.512-16.382-.822-24.095-4.474-5.528 1.332-12.214-.804-18.366 1.861-7.019-2.073-12.399-6.534-15.637.032-4.027-1.957-7.628-4.329-2.245-3.002 7.216-6.989 2.416-9.646-1.5-2.36 6.211-12.312 9.37-7.815 17.96 7.633 1.854 2.857 13.045 6.609 18.558 1.453 7.23 3.782 14.486.36 21.567-6.452 2.98-14.244 2.604-19.977 7.703-3.677-1.313-11.398 2.104-11.864.72 1.214-7.279-11.604 1.991-6.136-6.328 2.996-7.51 12.433-7.937 12.402-17.5 3.963-7.068-3.332-14.713-1.854-21.436.27-4.136-1.73-15.749 4.108-10.216 6.232-5.001 4.575-14.399 5.533-21.743.32-5.952 5.912-3.626 8.177-2.135-4.53-4.972 1.309-16.306 5.492-8.035 6.013.895 5.266-11.542-1.238-7.402-7.75-1.231-9.44-12.412-12.968-18.114-3.074 5.56-10.02 10.217-9.515 17.407 5.663 3.075 1.767 17.419-5.344 17.962-6.965 5.185-5.041 14.568.115 19.859 3.346 4.87 5.547 15.512-.832 18.306.52-3.988-3.197-17.471-8.314-9.038-3.02 5.127 1.412 8.518 4.069 10.758-1.942 4.474 11.104 4.418 3.937 7.301-2.275 2.662-13.92-4.638-8.41.956 8.42 3.586-6.54 5.152-7.837.254-4.38-5.077-6.963-12.715-5.267-19.518.497-7.715-1.306-15.077 2.292-22.164 3.55-8.116-4.01-17.474 3.177-24.38 2.922-3.316 5.863-16.332 10.55-12.108-2.688 7.113 3.56 7.438 5.27 1.454 4.272-7.601-5.992-13.765-4.217-21.048.486-7.814 7.067-11.249 8.472-18.744 1.512-4.48 10.555-9.94 6.758-1.348-1.683 8.024 4.18 2.765 6.21-.523 6.323-5.277 13.18-3.737 19.639-7.156 6.784-6.401 14.374.92 20.627 4.396 5.2 4.383 5.846.688 5.607-4.903 3.699-6.668 5.236 7.518 7.793 10.14 2.028 6.607 11.14 8.642 10.716-.023 2.63-9.26 6.82 5.79 5.7 9.623.066 7.601 7.216 11.886 4.2 19.906.49 3.636 1.19 10.998 6.679 10.29-2.107-5.231 2.802-10.927 4.494-3.503 4.278 7.38 8.375 15.033 7.358 24.098-2.24 7.104-5.17 15.261-.373 22.035 2.645 5.888.616 12.39-.106 18.664 1.344 6.634-.2 14.512-5.515 18.944-3.983.861-11.499 9.185-14.596 2.333 5.224-1.619 7.42-9.13 8.405-14.214-3.172 2.44-6.55 13.49-13.567 9.63-3.494-2.373 5.678-5.594 5.37-10.576 4.845-5.294-2.65-14.738-5.732-6.235-.955 5.041-.978 13.631-5.033 5.392-2.515-6.662.429-14.014 5.648-17.824 6.163-4.715 6.023-14.42.02-19.242-7.48-7.034 3.018-15.43-.099-22.963-3.739-3.717-9.665-8.11-12.195-11.075-4.696 4.827-4.07 15.107-11.362 16.81-3.833.442-13.163 1.09-5.479 5.308 3.474.106 8.721-7.8 9.46.578-.309 5.623 7.797 7.784 5.5 15.236-2.538 7.55.994 14.486 4.077 21.04 2.45 8.144 3.4 15.559 3.49 23.815 2.89 5.356 4.921 10.91 5.545 17.294.916 5.403 2.73 10.555-.836 15.263-3.422 9.718-8.573-9.55-12.921.278-.959.719-1.429 4.687-2.799 3.707zm1.416-.787c.655-10.115 9.249-3.564 12.42-.843 2.85-5.933 5.445-9.59 2.264-15.885.988-10.565-8.779-19.755-5.569-30.013-2.345-8.801-4.873-17.199-8.251-25.623.332-6.992 3.107-17.304-5.037-20.11-.65-2.467 1.827-8.613-3.206-6.409-3.057 4.6-9.85 3.398-9.069-2.233 7.353 1.432 15.052-3.47 17.195-12.183.152-5.833 5.86-7.601 6.855-1.635 4.755 3.073 14.096 9.05 8.062 15.685-4.009 7.415-.49 14.28 4.415 19.138 3.716 8.557-2.545 14.413-7.675 19.388-3.276 4.8-3.933 14.466 2.209 16.675-3.655-5.914 4.854-18.728 8.464-8.937.042 6.478-4.92 13.286-7.812 15.92 6.82 5.154 10.62-5.414 14.224-9.041 1.56 4.715-3.632 9.067-4.871 13.09-8.53 5.536 6.303 3.551 8.476-.332 7.07-2.259 8.684-11.159 8.165-18.43-.074-8.353 2.745-17.267-2.39-24.27-2.49-8.546 4.23-15.778 1.92-24.245.324-6.923-4.395-11.84-7.15-17.577-3.532-7.28-2.865 1.57-4.588 4.618-4.842.52-6.174-7.991-5.88-9.412-5.762 5.203 9.091 11.485 3.754 11.005 3.43 1.624 4.507 8.627-.309 4.564-2.15-2.74-5.068-5.662-2.642-.175 5.752 2.936-5.211 13.872-5.423 3.531-.063-7.611-9.167-8.129-10.248-13.17 4.125-3.632 11.93.037 12.77 2.726-3.274-7.584 6.646-16.157-.7-22.219-3.421-6.22-.08-14.85-5.058-20.273 3.139 6.14 1.78 13.52 3.937 19.984 2.524 3.433 6.008 7.695.787 10.693 2.49 6.016-2.567 9.049-7.129 5.559-5.03-.1-14.669 2.877-14.02-5.91 5.328-3.424-6.515-12.62 2.396-13.232 4.531.307 7.543-4.183 8.322-7.829 3.976 1.752 2.76 2.03 4.114-2.37.822-2.728.12-9.458-.105-2.795-.943 10.011-11.462 3.195-12.73-3.525-.108-3.199-5.428-14.4-5.579-7.015 1.622 8.197-4.709 7.299-8.664 3.34 4.053 2.086 10.41 8.853 5.924 7.863-3.699-6.555 1.653 7.878-2.515 1.546-2.859-3.995-6.087-8.582-7.164-11.962-5.71-5.044-12.18-3.009-17.796 1.052-6.453.184-12.971 2.442-18.195 7.445-1.485 7.126-7.041.926-4.098-3.75.944-7.745-7.268 3.024-7.893 6.607-2.378 7.032-9.85 12.207-6.616 20.401 4.637 6.11 7.677 17.612-1.313 20.971-3.201-1.143 1.656-11.698-3.8-6.248 3.813-3.495 2.519 8.2.929 7.402 2.103 3.647 4.367 5.213 4.42 10.048 3.804-.314 7.267 4.274 9.166-2.449 3.606-5.277 2.612 8.632-.608 9.773-1.011 6.22-5.876-3.077-7.831 2.6 6.944-3.983-3.253 9.87-2.82 9.956-1.361-3.807 3.665 9.963-2.551 4.38-3.879-1.112-8.593 1.005-11.233 3.78-2.557 3.037-1.69-5.284.808-6.817 3.198-7.496-1.73-16.201 1.23-23.76 3.151-1.797 7.163-13.291 6.795-11.73-5.513 7.762-11.166 16.756-7.245 26.892.323 5.721-8.416 18.75.887 18.017-.16-4.085 5.131-4.935 8.153-6.46 4.73 2.871 9.374 6.802 11.184 13.136.415 4.136 2.495 10.515-2.105 12.725 1.461-2.817-1.336-10.444-1.23-10.788-3.355-2.063-6.663-5.962-5.64-9.982-1.35 2.555.31 9.102-2.292 4.776-1.132 2.924-3.045 12.953-4.713 9.728 5.191 3.043 3.38 9.605 9.22 10.955 2.69 2.825 8.186 3.474 1.734 4.256-6.526-.59-10.686-5.481-13.228-11.567-2.004-3.65-1.25-6.013-2.05-.574-1.497 3.4-4.459-.492.027 1.419 4.945 2.394.9 9.016 5.695 9.58 1.247 3.592 8.59 5.27 2.063 4.984-6.14-1.314-9.9-8.347-11.184-14.687.318-4.67 1.11-14.3-.055-15.958.494 7.45-2.15 15.685 1.767 22.483 2.169 5.92 8.42 11.202 14.079 7.334-4.313 1.445-7.624-7.48-2.157-3.705 2.998 3.481 14.104-.95 5.4-2.768-4.82-1.113-.304-5.435-5.258-5.482-6.167-5.55 3.39-18.702 6.74-7.696 1.334 2.84-.437 11.733 3.403 5.241 3.808-7.421-1.864-15.933-6.084-21.524-4.117-9.506 5.538-13.977 10.188-19.047 3.418-5.813.702-11.516-1.025-15.57 2.017-6.274 6.361-11.107 10.507-15.024 2.117 4.633 6.05 16.571 9.367 15.771-3.365-1.971-7.377-12.409-6.123-11.777.275 3.136 7.306 11.363 5.865 7.543-3.527-2.78-10.008-12.854-7.342-15.28.41 3.331 7.721 13.407 7.285 8.76-3.68-1.165-8.884-11.027-5.586-12.116 3.02 5.825 7.998 8.748 13.142 10.757-1.464 4.274-3.698 7.966.802 8.605-1.726 3.273-9.607 7.61-2.385 5.345 7.185-.501.964 15.125-3.663 6.186-7.86-3.557-1.063 10.661-4.221 10.684-7.754-7.062-7.576 7.769-7.46 13.168.351 6.003-5.923 12.797-8.44 9.428-.904 7.126-1.829 14.991 1.688 21.373 1.859 7.262-.613 15.718-4.767 20.621-4.038.754-12.118 9.416-7.367 11.798 3.507-3.582 5.6-1.434 5.62 3.157 4.668-4.307 11.851.271 16.287-4.942 5.92-3.225 17.73-1.281 16.299-11.597.67-7.15-2.613-13.794-3.555-21.067.062-4.818-.592-10.92-5.38-12.43-3.109-8.155 5.458-11.39 7.895-17.083 3.6-1.298 5.667 9.944 9.059 2.484 1.567-5.283 7.31-6.095 5.84.888 5.612 2.998 8.412 10.432 6.418 17.777.719 2.224.792 14.006 1.67 6.2-2.114-6.872 4.957-9.496 4.784-16.515 3.211.9 5.492 7.726 9.168 9.77 1.02 3.79-3.955 8.314-2.282 10.89-.23-4.392 2.431 3.963 1.886-1.652-.435-5.356 1.945-7.75 2.374-11.973 3.227 6.4 3.272 12.776 3.235 20.069.94 6.751 7.303 13.106 5.219 19.766-4.037-.198-6.451-11.187-9.31-3.759-3.705-2.225-6.442-9.062-8.057-1.063-4.473.095-2.023 10.319-6.868 7.482.17-1.862.84-12.111-.252-4.748-2.527 4.71 2.808 7.635 2.1 11.891 3.448 1.267 5.391 8.79 8.791 7.562zm-2.176-1.084c-6.954-2.368-.534-16.328 3.634-7.56.701 1.715-1.967 9.757-3.634 7.56zm1.505.289c1.467-3.364 3.295-12.196-2.62-9.82-4.03 2.45-.044 9.697 2.62 9.82zm-2.76-4.225c.594-4.202 1.333 1.37.001 0zm14.596 4.32c-3.237-2.966-4.984-9.84-1.19-10.993-4.12 3.105-4.38 6.843-5.44-.1-1.9-4.863 1.984-13.976 5.93-5.975 2.089 3.518 4.4 2.772 5.924 8.262-2.334 5.65-5.231-10.127-2.683-.668-1.7.806-2.623-2.532-.642 1.744 1.026 2.303.686 7.4-1.9 7.73zm.87-.89c4.615-4.407-3.691-14.288-4.486-4.842 1.775.672 4.094 5.782 4.486 4.841zm-.644-4.014c-.714-3.642 1.616 1.977 0 0zm-5.262-1.746c-1.162-7.567 12.167-1.301 4.14-6.15-3.191-4.315 3.728 3.4.95-2.44-1.415-5.259-7.285-6.445-6.511.27-.86 2.906 1.182 5.53 1.42 8.32zm2.358-9.9c-1.973-4.861 1.122-1.505 0 0zm6.928 8.309c1.648-5.812-3.036 2.367 0 0zm-.97-3.598c-.245-5.173-3.73-.064 0 0zm-12.202 4.782c-.834-6.611-7.525-3.805-9.225.174-3.571-.79-1.034-8.075.876-4.54-1.777-6.768 6.233-14.843 8.467-5.043.496 2.385 1.933 8.605-.118 9.41zm.724-1.286c1.097-5.089-3.425-18.311-7.564-9.064-1.376 3.28-3.042 12.974 1.607 5.574 2.492-2.094 4.868 4.163 5.957 3.49zm-6.957-3.552c1.563-3.43 2.364-9.754 1.89-2.433-.294.994-.787 2.312-1.89 2.433zm-2.92 4.284c1.17-4.06-2.437-5.717-1.77-.92.256.355 1.394 2.235 1.77.92zm-58.697-.046c.476-8.934 8.014-10.307 11.884-16.86 5.153-3.878 4.602 7.3 10.58 3.4 5.144 2.837-1.803 9.615-6.366 7.74-4.582 3.487.385-8.202-3.022-.8 1.239 5.844-7.643 6.012-4.973.108-1.738-3.313 1.43 5.372-2.906 3.962-1.776.645-3.8.932-5.197 2.45zm1.421-1.341c4.448.888 8.983-7.878 2.42-6.205-1.62.26-5.215 10.36-2.42 6.205zm10.945-2.003c-1.195-5.205 9.76-11.772 1.173-14.096-3.11.351-6.201 8.136-1.994 2.376.187 4.542-11.49 4.406-3.354 7.214 1.794 3.39-2.17 9.009 4.175 4.506zm3.468-2.279c3.348-2.21 10.58-.646 7.226-7.778-4.233-.7-8.023 3.273-8.889 7.908l.727.158zm-22.853 2.11c1.04-4.66 5.49-6.804 6.574-8.83 3.306-1.012 9.54-10.584 9.412-1.746-2.762 2.462-7.42 7.502-8.712 5.803 1.979 4.217-4.482 3.565-7.274 4.774zm1.297-.502c3.195.038 9.197-4.294 3.918-5.985-1.065-.64-7.235 8.321-3.918 5.985zm8.232-5.093c2.048-2.332 8.881-6.074 3.437-4.354 2.829-2.654 3.108-6.514-.985-2.077-1.87 3.953-9.823 2.146-3.762 6.66.665 2.078.918.287 1.31-.229zm23.477.738c-2.749-.243 3.138-5.24 2.908-4.798 8.078-1.312.734 5.558-2.908 4.798zm1.765-.438c4.937-.637 4.665-6.343-.01-3.417-.607 2.134-4.313 4.415.01 3.417zm2.21-5.25c-5.195-1.245-2.9-8.562-6.873-11.393 1.048-6.685-5.907-12.658.452-17.776-1.472-9.736 8.657-.085 4.483 4.387 3.196 5.046.425 12.786 4.35 15.975 1.274 1.855-.035 8.938-2.412 8.808zm1.007-.35c3.639-5.085-.436-8.48-1.255-12.005-.49-6.866-1.16-14.454-3.703-20.605-3.518-.174-.94 5.969-4.775 7.936-.478 4.167 3.535 7.541 1.878 12.602 3.464 3.141 3.235 7.733 5.283 11.951.88-.653 1.7.655 2.572.121zm-3.866-11.705c-2.615-4.575.278-4.67.503.346zm-2.376-6.783c-.743-5.442 2.167-.359 0 0zm1.552-4.403c-.26-7.134 2.596-3.074 0 0zm-7.412 23.055c-1.175-5.14-6.628-4.362-8.422-8.269-.811 5.783-8.095 2.814-2.892-1.225 2.067-7.328-.882-13.85-2.853-20.202 3.792 3.321-2.881-12.633 1.878-11.817 1.543 4.211 5.278 6.466 8.114 7.336.573 2.756-.754 8.732 1.824 3.208 7.86-.532.707 12.003 5.009 16.85 1.278 4.457 5.085 15.789-2.658 14.119zm.73-.353c9.083-2.989-1.75-15.25.042-22.604 1.369-4.3-1.061-11.948-4.624-5.053-2.945 1.128-2.305 13.202-3.41 4.848.929-4.437 6.524-12.027-1.276-12.387-2.816-.351-4.625-10.775-5.03-2.989-1.304 3.595 3.268 9.31 1.666 9.95-1.269-4.087 1.91 6.854 2.55 9.345 2.082 5.889-.553 2.06-1.648 1.628 3.904 3.942-4.116 10.32-.055 12.622 3.453-1.624-.267-4.293 2.737-6.571.527 7.879 5.626 1.746 3.973-2.956-.954-8.275 3.63 4.557-.226 6.38-3.673 5.577 5.417 1.469 4.63 7.618zm.635-4.707c-2.117-3.29-.73-9.317-.15-2.357-.06.49 1.188 2.226.15 2.357zm-8.399-11.43c-.812-2.915 2.337-2.434 0 0zm5.84-6.018c-.738-2.495 2.158-4.077 0 0zm-2.164 10.823c-.551-6.696-1.267.268-.492 1.037zm-3.126-12.198c2.706-9.078-1.962 1.01 0 0zm-5.356-.719c-.57-3.731-3.47-6.348-1.229-1.19-.056-.373 1.81 2.944 1.229 1.19zm83.81 17.276c-7.331-.27 5.986-6.315 3.785-7.312-1.453-4.072 2.663-8.157 3.73-9.78-2.457.603-1.595-8.776-3.497-2.732-.82-3.849-9.062.224-5.337-5.629-1.008-1.956-1.25-9.463-2.904-3.763-2.994-1.49-4.471 6.16-6.997 2.418 1.51 3.335-1.591 10.52-.703 11.797-3.762-2.781-4.152-11.425-.407-12.886-2.158-4.258 5.05-7.684 8.258-8.306 3.567-6.865 8.047-.435 13.047-1.174 6.187 5.262-.944 12.908 2.42 19.22-3.029 1.648.21 6.057-2.713 9.778-2.41 3.849-3.029 8.433-8.683 8.369zm1.73-.532c3.914-.766 5.57-6.198.432-4.815-1.885 3.433-7.343 6.083-.432 4.815zm5.803-5.274c2.298-3.382 3.984-14.752-1.934-8.43-1.6 3.242-3.325 9.495 1.934 8.43zm.811-5.426c.744-4.334 2.328-1.431 0 0zm-2.708-1.801c-.905-2.758 1.593-.751 0 0zm-17.509-2.776c-1.988-3.123 4.099-11.56-1.858-10.777-2.111 2.782.238 11.66 1.858 10.777zm20.745-1.583c5.055-.31-1.45-9.813 2.581-13.305-.119-8.047-7.325-5.978-11.601-8.36-3.656 1.451-4.469 3.092-1.918 6.002 1.64 4.372.487 5.599.922 11.206 2.536-1.866 7.39 3.427 5.867-2.746 3.312-5.47-1.319 10.718 4.149 7.203zm-7.979-9.112c-1.966-5.29 2.014-5.118 0 0zm5.132-2.115c-.941-4.942 2.312-4.534 0 0zm.438-5.48c.63-2.992.907 1.822 0 0zm-6.213-2.069c-.558-2.51 1.459-.053 0 0zm4.833 12.442c2.44-2.44-.158-2.27 0 0zm-14.888-2.958c3.45-1.32 10.781-8.158 2.68-8.636-1.867 1.89-9.383 6.951-2.68 8.636zm7.536-6.348c.321-3.482-1.293-1.049 0 0zm10.52 28.607c.34-3.428 3.343-14.023 6.832-9.473-.827 3.374-3.168 9.754-6.833 9.473zm1.401-.533c3.394-1.167 7.12-14.17 1.435-7.353-.76 1.845-3.213 5.805-1.435 7.353zm-16.195-1.471c-7.227.072 4.561-6.152 2.863-7.195-1.607-5.33 7.161-12.128 7.271-3.672-.722 3.237-4.75 7.04-4.754 6.749.133 2.658-3.435 4.029-5.38 4.118zm2.112-.932c6.372-.917-1.566-8.229-2.369-1.56-5.514 2.03.715 2.805 2.369 1.56zm4.458-3.875c3.412-2.795 4.189-14.19-1.629-7.77-2.181 2.698-3.04 7.956 1.629 7.77zm1.042-5.414c1.075-3.878 2.316-.674 0 0zm-108.59 1.958c-3.831-6.586 3.126-1.798 0 0zm.67-.165c-.01-3.628-2.787-3.276 0 0zm119.261-.394c-2-6.305-.789-13.85.64-19.943 7.263 3.37-.605 11.968 2.51 18.134-.006 1.898-1.933 2.022-3.15 1.81zm1.003-.454c4.73-2.575-1.862-10.063 2.71-13.477.516-4.793-4.923-7.995-3.497-1.182-.123 4.665-2.803 10.906.787 14.66zm-81.838-8.15c.871-3.6.25 2.737 0 0zm-4.183-1.155c-2.637-1.581-2.584-9.43-6.795-5.881-5.999-2.363 4.317-7.509 2.695-13.542-.039-4.856-.219-19.739 6.755-12.571-2.374 5.65 3.817 6.178 6.38 5.08 5.096 7.602-8.309 5.882-6.519 12.504-.004-5.263 11.686-8.49 8.001-1.772-8.544.825-2.715 13.856-9.034 15.96l-.731.27zm1.157-.546c6.325-.958-.764-12.48 7.045-14.463 7.07-5.169-2.856-6.33-4.585-.818-2.163 2.992-2.746 9.22-2.295 2.097-.552-6.636 13.699-8.537 5.972-13.018-3.37-.611-6.692 5.443-4.824-.917-.395-9.717-7.47-4.902-5.942 2.221.605 6.503-1.815 13.113-4.318 17.94 3.388 5.95 7.449-8.918 5.31.093-.284 2.065.597 8.447 3.637 6.865zm-.425-21.223c-.29-2.88 2.673-1.21 0 0zm-3.482-1.477c-.995-5.784 1.582-4.286 0 0zm39.109 22.257c-.846-5.982.185-13.732-6.577-15.16-4.057-4.102 3.054-12.799 4.267-4.804 7.321 5.94.032-7.811 1.638-10.754 4.141-.867 6.482-8.095 10.845-2.312 4.905 7.954-2.92 17.683 4.059 25.3 3.629 7.686-2.789 7.198-4.263.89-4.692-4.77-7.577-.619-7.868 5.308-.544 1.078-.86 3.099-2.101 1.532zm.819-.1c2.083-3.611 1.176-13.036 7.375-8.132-.408-2.325-4.213-11.003-1.801-11.315.234 6.75 3.976 13.903 7.962 17.867 2.427-6.479-8.196-14.038-2.591-21.468 1.706-7.213-5.262-16.301-9.159-8.66-8.465 1.191 4.056 14.403-3.417 14.362-1.17-3.026-5.643-9.1-6.2-2.099-1.81 3.037 3.284 3.77 2.7 4.391 2.458 1.755 5.012 10.428 5.532 2.59 2.553-5.38-2.67 10.488-1.284 12.385l.365.332zm4.7-22.318c.122-6.25 2.955-1.783 0 0zm2.723-3.273c-1.567-3.51 2.623-3.725 0 0zm.177-3.68c-1.08-4.298 3.309-1.901 0 0zm43.156 20.918c.842-3.725-4.362-1.701-3.578-5.07-2.767 2.103-4.968-.055-6.767-.694 1.485-2.731-1.499-14.509-2.535-11.852.082 4.362 3.799 15.506-3.452 11.716-3.056 4.101-5.758 1.855-2.515-2.372 2.435-3.846-2.686-6.246-1.393-10.995 1.935-1.157-7.236-1.08-5.613-6.3-1.362-4.658 4.33-16.805 3.668-6.07 1.589 2.553 4.522-4.18 7.578-3.944 1.738-3.723 6.734-6.57 4.867-12.732-.907-3.802.15-11.227 2.964-4.18 1.991 6.524 7.404 11.055 6.594 18.742 3.534 5.766-5.327 9.818-2.096 12.82-2.276 7.239 1.148 12.922 3.659 18.728l-.453 1.089zm.527-.838c1.33-7.313-2.22-3.277 0 0zm-1.385-2.332c.805-5-5.715-9.631-3.742-13.806.11 4.986 2.681 5.346 1.562-.15 1.143-6.185-.927-4.025-1.562-2.611 3.666-6.84 6.052-13.631 3.327-21.578-1.722-5.1-2.68-2.718-2.199 1.413-1.508 4.6-3.816 2.954-1.063-.648 1.525-4.697-3.35-14.715-5.076-14.201.449 7.177 1.505 15.377-4.982 18.913-2.41 3.189-4.873 2.109-5.663 6.255-4.507 1.388-1.285-12.378-3.776-3.715-2.315 5.224-1.712 12.796 3.318 12.739 2.833 1.43 2.645 6.661.25 1.951.945 2.205 2.384 10.053 2.412 3.377 3.044 3.512-5.574 15.005 1.48 8.953 3.527.865 6.056.569 3.865-3.415 1.018-4.092-1.933-12.144-.754-13.411 2.503 5.864 3.882 12.573 4.01 17.85 2.618-.887 4.238-.808 2.898.593 3.179-1.875 4.293-.955 4.816 2.413zm-8.424-16.928c.927-4.014.089-13.97 2.483-13.626-1.744 4.34.431 9.73-2.483 13.626zm.955-3.886c1.95-2.645-.71-8.091.454-2.068.184.778-2.183 5.413-.454 2.068zm-8.75 2.45c-1.568-2.94-2.306-10.197.2-3.531.043.613 1.221 4.554-.2 3.531zm-.507-4.49c-.448-3.504-1.368-1.368 0 0zm15.541-2.464c-.63-4.048 1.957-1.602-.005.312zm-6.744-4.864c-1.097-3.337 1.5.49 0 0zm4.535 19.946c-.883-4.869-.37 1.17 0 0zm-63.963 7.028c-5.53-4.8-7.673-10.139-11.728-15.982-3.958-1.916-5.686-7.271-3.352-11.227 4.346-.357 4.842 6.339 7.952 8.757-.68 2.607-1.669 4.136 1.197 1.433 2.103 1.44 3.504 12.498 4.514 4.586 2.156-6.925 9.203-3.1 12.681-8.95 3.744.448 9.848-10.793 12.217-3.911-3.166 8.788-12.811 7.429-16.912 15.975-1.27 4.207-4.253 4.118-5.498 9.15zm1.395-.984c-.458-4.755 8.336-6.848 4.458-10.327-5.657 5.997.586-3.931 2.233-2.204-2.65 3.881 4.918-4.103 7.203-4.688 3.432 1.442 7.444-6.078 7.148-8.74-5.459.065-7.922 7.305-13.98 7.577-1.069 2.697-5.635 6.672-5.837 2.767-6.162-.52-3.337 17.966-5.812 6.266-.034-3.61-5.547-9.355-3.985-2.284.854 1.722 1.995 4.827-.344 2.03-.216 5.184 5.551 5.164 7.278 9.819l.783.165zm-9.26-11.616c7.167 0-3.008-9.85-6.166-14.837-4.119 1.81-.384 7.444.015 9.547 4.244-1.272 2.847 5.29 6.15 5.29zm16.163 4.798c-2.549-3.502 3.356-2.78 0 0zm.492-1.74c-1.936-.598.691 2.758 0 0zm-24.794-4.19c-.442-4.996 6.757-.952 0 0zm2.354-1.542c.349-3.535-4.426 2.985 0 0zm11.775-.866c-3.723-2.833-2.412-8.214 1.534-5.085 3.252-2.272 8.796-.776 3.514 2.633-1.384 1.053-3.16 3.89-5.048 2.452zm1.787-.332c3.149-1.141 8.424-7.668 1.66-4.578-3.39.177-7.931-1.702-4.075 3.359.542.635 1.508 2 2.415 1.22zm3.616-4.076c-.308-1.796 1.551 1.281 0 0zm3.989.14c.711-3.114 3.478-.935 0 0zm-13.692-.445c-3.899-3.076 2.726-6.264.626-.295l-.035.638zm.044-1.25c1.785-6.098-3.089-1.805 0 0zm16.437.66c-2.647 5.294 2.835-8.661 2.218-1.677l-.74.999zm1.756-2.497c-.095-5.404-6.36 4.182-.865 1.621l.586-.916zm-13.61 2.076c-2.942-3.302-5.978-7.776-1.69-5.328 2.616.965 11.945-1.826 6.393 3.941-1.127 1.6-3.118 1.24-4.704 1.387zm2.194-.557c3.39-.077 6.185-7.288.882-3.939-6.191-2.21-6.684 4.37-.882 3.94zm-5.391-4.11c.565-5.835-2.216 1.098 0 0zm-4.87 3.66c.125-2.792 3.586.916 0 0zm15.339-2.63c-.346-5.898 9.134-3.255 3.261-.112-1.082.245-2.173.073-3.261.112zm3.964-1.003c3.094-5.743-7.922 1.438-.674.6l.35-.172zm-47.32-.487c-2.275-6.33 6.237-2.243 0 0zm1.03-.628c3.64-5.363-4.289-.379 0 0zm34.931.346c-2.998-.62-1.993-7.238.194-2.273 7.011-7.286 9.592 2.467-.194 2.273zm2.552-.404c5.822-.805 1.985-6.992-1.065-2.16-3.486-1.315-4.036.541-.659 2.394h.866zm-43.016-2.253c-3.304-6.33 2.65-14.34 4.883-19.715-.927-.263 3.955-10.645 7.086-4.306 6.726 1.887-.227 9.901-3.606 12.765-2.235 4.022-1.958 13.266-8.363 11.256zm1.597-.237c6.405-1.846 4.435-13.573 11.27-16.749 4.247-4.719.182-5.635-1.433-5.026-.832-9.82-7.831 4.427-6.845 3.362-1.562 1.275-5.017 11.991-3.666 9.885 2.514-2.172-6.416 9.895.674 8.528zm2.258-2.82c-.32-4.853 3.154-4.879 0 0zm2.674-7.36c1.021-3.607 2.636-1.42 0 0zm-3.843-.857c.445-3.997 3.945-7.015 1.119-1.645-.271.312-.37 2.362-1.119 1.645zm5.473-2.28c.942-3.033 1.85-.3 0 0zm32.113 13.245c-3.162-5.747-5.251-11.788-4.617-17.535-5.191-4.452-12.38-10.266-15.587-14.903-.757-7.544-5.491-13.9-2.39-20.366 3.574-2.968 10.247-7.929 13.659-5.394-4.695 3.689-12.441 7.004-9.498 14.189 2.736 7.065 5.94 16.718 13.604 18.126 3.953-2.953 1.317 9.536 5.592 3.55 2.612-6.697 10.391.534 13.814-6.696 6.424-3.272 7.427-10.65 8.46-17.507 4.09-5.19.985-11.786 2.336-17.818 3.517 4.477 5.462 13.83 8.808 17.435-3.912 2.716-4.18 9.373-7.982 9.602 2.286 5.104-4.15 11.387-7.367 12.823-5.52.98-16.713 7.98-16.455 10.813 4.63-2.213 1.298 1.629.723 3.22 2.479 3.843-1.809 6.22-2.296 10.137zm.753-.955c.282-4.42 4.754-6.361 1.68-9.351 3.196-2.087 1.473-6.33-.51-1.709.289-1.843.914-9.026 1.234-6.411 5.992.392 11.772-8.097 18.01-6.758-1.202-6.301 6.73-4.064 5.069-11.125-2.398-5.284 3.16.617 3.61-4.989 1.313-4.46 7.48-6.82 1.158-10.07 2.255 5.179-5.571 4.642-1.497 1.037-.46-2.387 1.156 3.685.369-1.417.076-2.83-2.969-15.047-4.684-10.257 1.55 7.752-.933 14.469-2.996 21.229 3.827 2.165-4.329 5.405-2.695 8.964-5.737 1.035-7.108 10.172-14.106 7.093-3.53-1.002-6.66 8.915-8.298 1.137-.162-3.98-5.195-.157-6.946-4.556-3.84-1.383-5.285-8.668-6.931-10.094-1.54-4.42-4.992-9.852-.895-12.305-2.42-4.74 11.696-6.795 6.354-8.228-3.547 2.549-14.997 4.49-11.048 10.41.281 1.93-2.024 4.759 1.02 6.87-.094 3.528 2.101 8.445 2.277 11.191 6.31 2.423 7.908 7.718 13.387 11.718 3.808-3.789 1.337-1.303 1.463 2.754.828 2.618 7.207 6.625 1.85 4.169-3.356-.286 1.649 11.225 3.125 10.698zm-.563-3.656c.821-3.37 3.72-1.643 0 0zm1.857-17.82c1.008-3.228.518 1.844 0 0zm-6.339 8.94c.463-3.937-2.014.478 0 0zM83.4 125.693c-6.033-2.639 5.752-1.04 0 0zm.992-.332c-1.547-2.603-3.287.24 0 0zm9.044.442c-4.687-.19-12.528-3.797-13.416-8.077 3.524 1.364 7.946 1.492 2.693-2.034-6.018-3.577-.255-9.686 4.356-6.992 4.295.725 8.298-10.076 10.981-6.33.453 6.69-9.563 8.935-9.353 11.786 7.036 2.193 7.822-10.192 12.907-10.278-.135 3.136-4.455 9.821.51 4.294 3.874-.685-5.892 11.82.051 5.614 6.047-7.162-1.1 7.573-3.411 9.364-1.502 1.374-3.39 2.355-5.318 2.653zm.842-.537c5.741-1.705 8.302-8.331 9.869-13.495-3.645 3.533-6.852 14.368-12.853 10.877 4.75-3.035 11.008-7.085 10.884-14.205-3.301 1.636-5.053 13.12-9.432 8.528 3.856-2.16 9.432-10.29 7.857-12.701-3.847 3.112-7.975 15.279-13.17 8.679 3.913-1.26 12.16-7.929 9.215-11.277-4.029 5.368-9.258 8.05-15.225 7.838-5.31 4.3 10.675 9.273 2.069 9.76-7.344-2.64 5.41 7.7 8.577 5.844l1.074-.027zm-1.336-10.093c-.749-2.548 2.07 1.003 0 0zm.846 7.813c3.481.6 8.25-9.765 2.909-3.234-1.677.941-8.198 3.262-2.909 3.234zm.894-5.28c3.166-1.06 5.117-8.279 1.1-2.557-1.857-.632-4.731 4.333-1.1 2.556zm-54.15 7.124c-.899-3.406 1.818-3.506 0 0zm36.471-.143c1.64-6.024 6.688-.302 0 0zm1.748-.762c5.203-4.358-4.842 1.686 0 0zm-8.21-.356c-1.692-4.884 4.423 2.6 0 0zm1.068.245c.828-2.6-3.081-.86 0 0zm-41.481-2.463c1.973-7.033 6.385-.015 0 0zm1.572-.61c6.12-5.35-4.763.575 0 0zm4.535-15.884c-1.046-7.316-7.1-14.62-.27-20.708 4.287-4.046 3.699-12.422 9.203-15.847 3.88-1.901-.422 6.857-.372 9.042-.667.646-2.33 7.052-.253 1.597 1.026-2.897 6.238-1.775 3.021 1.289 3.738 3.066 6.206 8.034 2.032 11.673 5.56 6.804-2.794 9.703-7.834 6.916-3.646-.135-3.93.034-1.748 2.174-.234 1.943-1.838 4.18-3.779 3.864zm1.156-.524c5.87-3.904-4.345-6.638-1.03.12l.39.148zm11.31-4.55c6.22-2.222-3.708-8.927 2.517-11.683 2.334-5.523-6.597-4.24-3.35-10.497-4.031.682-3.485 6.779-7.01 9.197.22 5.571-2.429 3.62-1.178-.333 1.847-2.357 4.154-6.27.113-2.75-.508-2.6 1.211-6.163.478-1.45 4.205.19 3.426-8.603 4.627-6.727.02-3.815 3.875-11.325-1.306-5.319-3.62 5.9-5.582 13.696-10.233 17.944-.058 5.747 3.49-4.308 1.602 2.853-.887 3.657-1.926-.717-1.965 3.935 2.474 7.35 7.371.982 11.948 3.897 1.226-.51 2.933 2.071 3.757.933zm-8.954-3.904c-.831-5.74 12.398-6.625 4.475-4.089-1.626 1.178-2.855 2.901-4.475 4.089zm4.014-4.145c-2.033.586-2.344 1.259 0 0zm-3.354-4.957c-1.046-.79-5.939 0 0 0zm1.937-2.93c4.074-4.593-3.845 3.076 0 0zm40.071 16.502c-.234-1.965-3.616 1.848-.98-2.88 3.103.943 1.056-9.733 3.418-2.765 2.412 4.162 2.607 4.882-2.438 5.645zm-.833-.741c2.197-4.735-2.2 1.467 0 0zm2.282.39c5.046-1.715-.982-5.137-.218-7.031 1.019 1.687-2.855 7.896.218 7.032zm-14.189-.185c-.777-9.185 4.034-.126 0 0zm.867-.462c1.268-5.84-2.119-.408 0 0zm-2.194.065c-7.073-.271 3.297-13.764 1.15-4.484-.228 1.511-.22 3.248-1.15 4.484zm.457-.773c1.358-5.245-.841-6.025-3.563-1.7 1.008 1.067 2.512.84 3.563 1.7zm5.77.22c-4-4.514-2.19-12.178-6.687-14.417-.01-6.543 1.618-1.24 4.098-.914 3.385-3.513-8.008-2.897-3.26-8.617-1.355-9.9 12.107-17.062 17.516-8.467 4.26 3.98 3.11 16.831-1.136 14.363 6.27 5.428-4.227 5.937-3.974 6.721.394 4.222-3.082 10.822-6.558 11.33zm1.252-1.127c3.816-3.442-5.56-1.765-.474 1.055l.276-.308zm2.544-2.759c-.654-1.982-.743 5.08 0 0zm-2.748-.563c.925-3.196 2.897-7.042 1.393-1.377 1.08 2.754 2.385-4.889 2.073.01 1.458-2.523 2.097-4.843.519-4.941 1.071-3.259 9.95-1.276 5.446-6.551-1.418 2.505-8 5.445-9.24.048 4.59-2.06 10.387.266 8.92-7.499 3.014-5.096-1.418 11.472 3.12 3.405 2.53-7.478-3.998-16.542-11.255-14.138-5.404-.44-4.875 9.863-6.809 7.458-2.716 5.926-1.364 9.116 3.885 10.942-.143 5.93-5.884-.172-5.016.233-.617 4.413 4.296 4.585 3.293 9.853 1.118 1.01 1.854 3.464 3.671 2.557zm-3.186-2.754c-1.938-4.916 1.832-3.903 0 0zm2.31-3.266c-5.043-1.065 1.724-7.634 1.338-.827.185.787-.78 1.596-1.339.827zm1.126-.793c-.618-5.209-4.437.83-.873.598.243.885.95-.35.873-.598zm1.839-1.318c-1.194-2.7 3.156.008 0 0zm-6.017-.563c-.63-1.877 1.532.68 0 0zm1.409-5.65c-3.294-3.663 2.095-.097 0 0zm1.038-.338c.724-2.314.162 2.15 0 0zm2.024.152c1.055-2.631 3.621-.652 0 0zm5.272-2.465c1.794-3.146 1.694.332 0 0zm-12.017-.557c-.898-3.219 2.33 1.307 0 0zm10.09-2.697c.592-4.806 1.193 1.486 0 0zm5.85-2.34c-.52-2.904 1.358 2.202 0 0zm-5.02-.156c.058-3.131 5.94-7.437 3.957-2.168-1.867-.904-4.1.915-3.957 2.168zm.93 12.643c7.22-4.878-4.713-4.657-4.495-1.558 1.145.828 3.142 2.806 4.495 1.558zm6.467-3.67c1.744-5.078-3.298 2.815 0 0zm-2.331-1.418c-.448-3.56-.216-5.947-.69-1.86.262.03.3 2.793.69 1.86zm3.28 17.26c-4.831-3.5-2.725-15.934 1.162-5.772 2.994 4.78 2.271 2.492-1.162 5.772zm.413-.704c5.657-1.301-3.921-10.179-2.798-8.5-.8 2.73 1.48 6.935 2.798 8.5zm-25.855-1.375c-4.895-2.86 3.443-9.269 5.524-6.756-2.051 2.626-1.603 5.477-5.524 6.756zm1.183-.474c2.047-3.047 5.928-9.789.266-4.858-3.471 1.49-3.07 4.173-.429 3.92-1.309 1.832-.353 1.14.163.938zm28.067-1.592c-3.62-1.563-5.835-13.045-.753-5.322 4.096-2.775 4.188 6.381.753 5.322zm.912-.366c-2.156-2.086 4.219-2.557-.207-4.833-6.3-3.344-3.635.49.207 4.833zm-31.739-2.888c-5.194-1.6 2.18-5.502.697-8.468 3.884-6.41-4.912 5.813-3.927 1.166-5.02-1.67 4.87-8.304 6.005-11.64 2.66-3.246 8.341-3.578 3.414.822-2.581 2.778-5.563 4.997-.295 2.394-.306 2.84-7.521 11.885-.942 5.982 1.558 1.762-.187 7.691-3.138 7.354-.322.885-.536 2.775-1.814 2.39zm1.094-1.39c1.12-4.242 5.115-2.923 3.804-8.033-1.825 2.645-10.234 8.524-4.443 8.425l-.02.597zm-2.679-6.311c.16-5.077 9.646-10.766 7.465-12.63-4.319 3.093-8.33 7.462-9.946 13.133.279 1.446 3.186 1.44 2.481-.503zm2.438 1.407c3.95-4.124-.498-4.731 0 0zm-.104-3.561c2.433-.705 7.556-8.672 2.117-3.711-.384.018-4.141 5.25-2.117 3.71zm44.19 6.138c-3.268-6.306 9.178-4.14 3.557-2.24-1.674-.684-2.208 1.98-3.557 2.24zm.63-1.009c1.758-1.452 7.303-2.493 1.746-3.267-1.1.371-3.73 1.924-1.747 3.267zm-14.92.87c-3.098-3.335-3.243-7.832-1.787-10.19 3.73 1.803 9.163 8.895 3.618 9.147-4.627-5.07.89 1.425-1.83 1.043zm.348-.813c-.717-2.991-1.56-.54-.183.476zm2.147.078c4.107-4.145-2.311-6.61-4.751-8.773 1.418 2.22-1.978 7.294 2.427 5.8-.754-4.03 2.224 4.6 2.324 2.973zm-36.2-9.755c2.917-4.654 5.345-.238 0 0zm1.008-.57c3.126-2.467-2.24.696 0 0zM95.69 213.242c2.747-3.47.01-7.786 2.004-9.542-1.392 6.112 5.86-1.228 2.583-4.418.622-9.047-2.972-17.592-7.09-25.048 1.978 3.916.566 9.343-1.415 10.036 3.361 5.99 4.065 11.72 2.338 18.519 1.62 3.732-2.871 10.206 1.58 10.453zm1.19-14.896c-.68-4.101 1.308-1.376 0 0zm-1.816-8.247c-4.255-6.512 2.188-1.166 0 0zm23.223 19.626c-.19-9.223-8.015-16.117-6.055-25.685 1.523-4.146-3.29-7.214-1.923-12.327-2.622-1.602-.617 6.523-2.997 8.234.048 2.04.653 7.68-1.83 3.774.553 4.11-.6 13.672-.758 4.402-2.323-6.157 6.44-15.744-1.188-18.142-1.89-3.63-6.348-10.214-5.802-1.576-3.41 5.066-3.018 9.724 1.504 13.753 1.789 4.617-.024 8.486 3.437 12.285-1.464 4.219 4.282 14.527 6.925 9.217-2.696-4.022-2.916-16.471-1.54-15.694.044 5.92-.788 14.417 5.37 16.874-.087 2.973 2.914 3.916 4.857 4.885zm-4.66-8.03c-2.605-2.392-1.957-8.226-.415-2.047-.324-.339 1.864 2.869.414 2.048zm-2.712-13.585c-.708-4.715 2.067-5.682 0 0zm-9.868-9.242c-1.503-2.829-.636-7.888.053-2.048-.371-.058.996 2.5-.053 2.048zM93.3 202.252c4.239-6.478-.627-13.408-2.382-19.563.14 7.232 5.367 11.634 2.382 19.563zm9.095-1.085c.913-6.31-2.528-2.21-.856 1.035zm-.989-4.147c3.677-.808-4.505-11.045-.591-2.646.114.435-.069 5.603.591 2.646zm-76.264-5.803c6.43 1.318-7.09-10.052-4.597-2.615 1.296 1.277 2.898 2.22 4.597 2.615zm74.51-5.026c1.7-3.717-6.846-10.697-1.657-3.842.347.99 1.597 10.144 1.656 3.842zm-65.111 1.101c4.523-1.127-5.58-2.569-5.906-5.619-7.686 2.07 2.829 7.524 5.906 5.619zm-15.577-1.248c7.599-1.94-4.987-13.451-2.133-5.463 1.037 1.481.415 4.846 2.133 5.463zm5.604-3.352c8.65-4.257-8.376-15.215-3.17-4.233.926 1.524 2.02 2.915 3.17 4.233zm13.992-6.76c3.001-3.06-1.403-12.984-2.336-5.502.85 1.192.984 9.956 2.336 5.501zm-23.088.167c5.792-.335 2.564-11.19 2.084-15.461-3.36-.903-1.12 9.591-1.425 12.656l-.187 1.481zm4.079-2.981c3.245-1.233 6.684.525 5.756-5.014 1.584-3.215-.581-5.685 3.588-7.331 2.428-3.73 2.2-5.88-2.468-6.857-5.212 1.097-9.66 6.946-6.66 13.813.13 1.775.421 3.684-.216 5.389zm2.946-5.35c-.772-4.712 2.755-5.127 0 0zm1.57-3.441c1.225-2.417 1.43 1.184 0 0zm-3.638-4.413c-.823-3.432 1.532 1.253 0 0zm-.858 6.225c-5.985 0 8.77 0 0 0zm15.722 1.623c6.364-.657-2.064-7.857-.586-8.41-5.3-6.031-6.501 5.163-1.312 6.477.931-.257 1.261 4.018 1.898 1.933zm-5.958-3.66c-.14-2.843-2.808.084 0 0zm-12.7-6.53c.32-5.404-3.801-2.277 0 0zm3.57-2.337c4.378-6.494 5.075-14.137 7.412-21.654 2.522-3.177 7.655-7.643 2.377-11.46-5.588.944 3.028-15.668-2.983-8.46-2.253 5.86-6.998 10.785-7.98 16.626-.308 5.196-.35-3.253-.72 1.906.584 4.387.915 15.14 1.186 15.044-1.092 2.323-5.476 10.708.708 7.998zm.725-14.62c-1.156-4.486 1.984-13.628 3.599-13.934a104 104 0 0 0-3.599 13.934zm1.201-8.861c-.476.986-.96 3.727 0 0zm2.356-6.998c-.181-3.984 2.105-.96-.014.374zm.96-2.76c-.307-1.846 4.263-2.733 0 0zm6.117 31.227c-3.064-2.175-.337-12.817-.562-5.416 1.144-3.006 8.439-13.399 1.587-7.248.316-6.228 7.508-3.851 7.312-2.575 2.38-4.05 5.222-7.003 3.16-12.863-.853 7.13-5.475 5.313-10.15 4.497-1.668 2.03-8.037 4.66-5.045 10.058-.303 3.954-5.762 11.992-3.682 13.066 1.935-3.828 6.143 3.386 7.38.481zm-7.07-4.632c1.661-2.609 3.967-14.129 2.695-11.176.056 3.732-4.492 7.874-2.695 11.176zm102.095-20.654c6-4.128-1.219-16.65-5.637-17.025 1.648 1.84-8.008-5.442-7.84 1.45 5.099 1.86 11.372 7.562 10.06 14.28.955.826 2.176 1.467 3.417 1.295zm-61.075-5.046c-.325-2.939 7.921-6.721 1.338-5.614-2.263-3.357 6.08-8.304-1.456-10.165-5.782 1.696-6.507-7.747-10.202-8.294-.835 6.213 5.718 9.749 7.356 13.239-3.365-.773-7.763-4.125-4.072 1.446 3.163 1.18 6.444 7.891 1.24 3.652-3.341-2.258 4.612 7.39 5.796 5.736zm68.202-1.826c2.306-3.299-8.423-7.9-1.643-5.433-2.09-1.041-9.169-10.056-6.18-2.515 1.52 2.924 4.979 8.85 7.823 7.948zm-76.584-7.76c-.871-3.74-3.405-4.706 0 0zm-.03-4.809c-.172-3.25-5.566-9.727-2.575-2.727 1.53.052.87 4.76 2.576 2.727zm65.412-.333c2.903-3.151.873-8.55 4.03-10.928-.77-3.335-4.887-8.327-5.437-9.96-.56 4.626-.95 15.48-5.14 5.952-4.036-5.347 5.643 5.442 4.176-2.159-1.256-6.892 4.67-8.677.514-16.275-1.933-7.226-3.702 6.3-2.377 6.911-.72 4.187-6.306-5.66-5.027 2.537-3.33 4.141-15.195 3.752-9.196 10.952 1.824 2.99 7.577 1.281 1.533 3.51-6.592 5.742 3.203 10.197 7.964 7.942 2.569-.008 4.994-.377 7.82 1.851zm-6.24-3.15c-.796-2.687 1.74 1.478 0 0zm1.81-1.029c-3.58-1.407 3.462.03 0 0zm-2.522-.057c-3.34-.591-7.074-9.834-2.951-3.547.021 1.627 5.98 2.342 2.95 3.547zm.326-.49c-2.262-2.464-5-2.256 0 0zm4.205-1.263c-1.66-2.463 1.29-3.191 0 0zm-6.243-13.446c-1.288-4.476 1.919 2.87 0 0zm12.504 18.957c2.777-5.817-3.818-5.14 0 0zm-7.088-12.814c-3.398-3.587-3.121 1.098 0 0zm1.126-6.667c.456-4.732-.744 4.45 0 0zm-24.327-9.789c-1.432-3.948-2.162-7.13 1.723-2.844.008-4.647-12.681-10.124-6.423-3.66 2.267 1.025 2.771 6.257 4.7 6.504zm1.902-4.816c-2.194-3.057-1.186.39 0 0zm-7.85-5.776c-2.705-2.08-2.362.095 0 0z" style="display:inline;fill:#000;stroke:#000;stroke-width:.700013;stroke-dasharray:none;stroke-opacity:1"/><path d="M298.158 244.008c-5.94.142-13.547 1.732-16.724 3.814-3.166 2.075-6.31 7.565-8.809 15.377-.436 1.363-.85 2.588-1.246 3.684-1.94 4.458-3.671 7.17-5.004 7.81a2 2 0 0 1-.416.041c-1.302 0-2.287 1.281-3.117 4.053-1.605 5.357-1.548 9.578.13 9.578q.235 0 .473.078c.34.453.744.923 1.221 1.43.75.799 1.326 1.539 1.738 2.252.396.966.681 2.015.793 3.014a6 6 0 0 1-.29 1.529c-.563 1.77-.67 2.574.09 2.789.302.55 1.324.383 3.812-.037.825-.14 1.55-.224 2.187-.252 1.163.158 2.22.494 2.865.965 2.97 2.164 12.155 2.782 13.32.896.528-.853 3.897-1.073 8.583-.574l.646.072c.475.06.946.124 1.451.164 3.65.396 5.366.418 5.953-.066.897-.264.829-.876.495-2.207a4.6 4.6 0 0 1 .005-2.234c.36-.895.883-1.827 1.518-2.653.353-.46.693-.966 1.006-1.49 1.383-1.456 2.439-1.495 5.986-.963l4.737.711-.5-4.07c-.357-2.9.06-4.88 1.455-6.875 1.642-2.352 1.756-3.243.713-5.533-.952-2.089-.955-3.02-.014-3.961 2.333-2.333 1.214-3.433-3.682-3.621-8.947-.346-13.459 4.025-12.972 12.564.139 2.449-.22 4.292-.95 5.35-2.665.367-4.162.188-4.656-1.063-.178-.709-.142-1.672.059-3.082.233-1.091.632-2.427 1.181-4.047.282-.575.582-1.02.866-1.248.786-.634 1.161-1.42.834-1.748-.266-.265-.115-1.166.312-2.398 3.16-7.42 7.919-13.65 11.436-14.766 1.174-.373 1.981-.978 2.437-1.728 1.694-1.77 1.572-4.325-.652-6.13-1.528-1.238-1.663-1.219-.971.135q.084.163.148.295c-.721-.777-1.641-1.533-2.751-2.226-.02-.014-.045-.026-.065-.04l-.02-.011c-1.943-1.338-4.627-2.344-8.453-3.201-1.383-.31-3.178-.425-5.158-.377zm154.098 40.83c-.21.004-.44.02-.7.045-1.96.188-2.248.521-2.429 2.808-.113 1.428-.738 5.38-1.39 8.784-1.2 6.26-.947 14.06.486 14.945 1.162.718-.328 4.625-2.336 6.125-1.775 1.325-2.048 1.338-4.74.213-1.572-.657-3.936-2.019-5.256-3.026-4.687-3.574-7.458-1.564-6.586 4.776.464 3.377.373 3.606-2.373 6.088-4.068 3.675-15.373 9.943-20.604 11.424-9.752 2.76-17.426 8.466-17.426 12.96 0 2.694 2.937 9.462 5.643 13.01 2.289 3.001 5.437 4.788 11.518 6.537 6.67 1.92 6.186 4.098-1.588 7.135-9.687 3.784-14.606 13.563-10.315 20.506 4.664 7.547 19.67 12.32 30.227 9.615 2.57-.658 7.317-1.197 10.547-1.197 4.524 0 5.873-.237 5.873-1.033 0-.568-.518-1.23-1.149-1.473-.63-.242-1.484-1.407-1.896-2.59-.542-1.553-1.382-2.278-3.028-2.607-5.26-1.052-18.934-19.04-17.437-22.94.977-2.545 3.355-1.323 6.789 3.489 1.856 2.6 3.373 5.056 3.373 5.457s3.004 2.324 6.674 4.273c3.67 1.95 6.674 3.831 6.674 4.182 0 .35.853.636 1.896.636 3.04 0 8.35 1.553 8.735 2.553.775 2.022-.895 3.011-4.86 2.875l-3.918-.135-.055 3.631-.052 3.631 3.761.81c2.069.446 5.595 1.785 7.838 2.975 5.584 2.963 8.005 2.692 10.155-1.138 2.059-3.669 4.024-11.999 4.111-17.426.036-2.243.302-4.41.59-4.818.287-.408.937-2.52 1.447-4.694.532-2.27 2.024-5.387 3.504-7.326l2.578-3.377-1.932-4.535c-1.061-2.495-4.225-8.208-7.03-12.693-4.445-7.106-5.384-8.186-7.298-8.381l-2.197-.225-.496 5.334c-.651 7.005-2.527 15.193-4.273 18.645-1.577 3.116-4.168 4.193-6.997 2.904-1.85-.843-6.316-7.213-8.171-11.654-.577-1.38-2.09-3.985-3.362-5.79-3.968-5.63-1.267-6.556 5.655-1.94 4.966 3.31 10.502 5.684 11.324 4.855.297-.3.539-5.938.539-12.528v-11.982l3.639-10.317 3.64-10.316-1.152-9.332c-.707-5.726-1.828-10.992-2.899-13.625-1.424-3.5-1.808-4.149-3.271-4.123zm-278.776 24.5c-2.89 0-3.421.627-6.802 8.047-2.017 4.426-5.238 9.972-7.158 12.322-2.973 3.638-3.602 5.403-4.235 11.875-.27 2.773-.423 4.54-.392 5.664-.349-.753-1.126-1.063-2.34-.678-3.067.974-5.225-2.247-5.225-7.802v-5.026l-4.865-.666c-8.065-1.105-7.92-1.181-7.197 3.79.965 6.639-2.344 16.616-6.112 18.429-1.916.922-2.72 1.982-2.386 3.146.276.966 1.085 3.88 1.796 6.475 1.476 5.382 4.373 9.108 7.622 9.8 2.341.5 10.374-.105 13.501-1.017 1.09-.318 1.836-1.56 1.836-3.054 0-1.905-.42-2.356-1.722-1.856-1.5.575-1.655-.046-1.2-4.783.386-4.011 1.375-6.503 3.758-9.469 1.76-2.189 2.679-4.423 2.743-5.994.244.558.71.645 1.466.645 1.115 0 4.114-.924 6.662-2.051 6.013-2.66 12.969-3.789 13.915-2.258 1.164 1.885 6.884 1.446 6.884-.527 0-.929 2.124-3.782 4.72-6.34 6.747-6.652 6.455-8.646-2.505-17.121-3.972-3.758-7.764-7.894-8.426-9.192-.842-1.652-2.141-2.36-4.338-2.36zm255.47 22.814c.961.003 2.2 1.431 3.425 4.106 1.027 2.243 1.756 4.658 1.62 5.367-.344 1.784-2.311 2-3.727.408-1.527-1.716-3.138-7.182-2.561-8.685.31-.808.738-1.197 1.242-1.196zm-247.856 14.936c-1.615 0-3.516.58-4.225 1.289-.709.71-3.107 2.006-5.328 2.883-5.83 2.301-20.018 16.064-20.018 19.418 0 2.48.315 2.625 5.715 2.625 5.805 0 15.801 2.137 19.172 4.1 2.91 1.694 6.543 1.331 10.38-1.04 4.43-2.738 4.476-4.607.386-15.814-1.73-4.741-3.147-9.71-3.147-11.041 0-1.952-.567-2.42-2.935-2.42zm272.467 33.396c.728-.037 1.474.281 2.107 1.043 1.227 1.48 1.217 4.702-.027 8.473-.541 1.64-1.204 2.98-1.471 2.98-1.006 0-3.725-5.851-3.725-8.017 0-2.592 1.513-4.397 3.116-4.479zm59.697 41.305.506 10.25c1.094 22.172-2.77 38.073-11.377 46.818-4.8 4.877-15.082 13.305-20.875 17.11-5.111 3.357-6.972 5.72-8.451 10.73-1.123 3.804-3.575 4.84-7.286 3.078-2.29-1.087-4.163-3.67-5.25-7.242-.623-2.049-4.757-1.756-5.24.371-1.557 6.859-1.84 9.033-1.855 14.303-.043 13.984 4.905 22.418 13.945 23.773 4.214.632 7.616 3.627 9.744 8.573 1.179 2.74 1.526 4.624 1.213 6.584-.368 2.3-.083 3.195 1.76 5.513 1.21 1.522 2.42 3.942 2.69 5.377.817 4.357-.214 12.048-2.62 19.555-2.922 9.119-2.94 10.305-.148 10.305 1.173 0 2.555-.508 3.07-1.13.515-.62 1.526-.942 2.244-.714s3.09.699 5.27 1.045c8.85 1.404 11.372-.732 9.037-7.652-.896-2.655-1.315-6.55-1.41-13.053-.09-6.126-.81-13.164-2.12-20.76-1.09-6.321-2.036-13.385-2.103-15.697-.117-4.022 1.163-8.031 2.566-8.031 1.615 0 9.026 21.564 12.026 34.996 2.311 10.348 4.102 22.46 4.12 27.861l.015 3.91 5.828-.486c3.205-.268 6.01-.192 6.232.168s4.11.683 8.64.717c8.013.06 8.227.02 7.782-1.483-.252-.85-3.06-6.55-6.24-12.668-7.772-14.95-9.095-19.572-7.373-25.77.756-2.723.835-2.772 3.625-2.326l2.851.456.489-3.233c.269-1.778.676-4.202.904-5.385.407-2.113.368-2.14-2.307-1.707-5.035.817-5.053.398-.394-9.353 4.148-8.683 8.138-18.452 8.138-19.922 0-.387-.667-.493-1.482-.234-1.403.445-1.483.133-1.483-5.791 0-7.052.658-8.201 4.27-7.479l2.258.451.54-6.494c.866-10.389-.686-23.195-3.68-30.361-.906-2.166-1.465-2.6-3.35-2.6-2.19 0-2.262.109-2.262 3.358 0 5.646-5.26 14.437-8.639 14.437-1.585 0-3.224-2.271-3.224-4.467 0-2.437 1.051-5.11 3.52-8.947.941-1.465 1.914-4.382 2.163-6.482.911-7.694-2.921-23.221-8.451-34.23-2.573-5.123-2.992-5.58-5.31-5.802zm-409.674 41.73c-1.262-.056-2.662.417-4.285 1.42-2.35 1.453-2.439 1.674-2.041 5.034.364 3.072.162 3.816-1.606 5.916-1.494 1.776-1.918 2.926-1.625 4.42.244 1.239-.73 5.7-2.52 11.548-3.642 11.908-6.193 21.838-8.794 34.22l-2.025 9.638-3.895-.244c-3.478-.22-3.855-.1-3.516 1.111.21.747.607 5.862.883 11.367s.798 10.373 1.16 10.815c.41.5-.438 3.072-2.238 6.795-5.196 10.744-8.464 21.691-7.123 23.86.926 1.5 4.501.793 8.197-1.618 2.711-1.769 4.338-3.601 6.094-6.86 3.448-6.399 8.283-18.978 9.195-23.925.431-2.336 1.282-5.415 1.89-6.842.61-1.428 3.219-10.77 5.8-20.762 2.581-9.991 5.028-19 5.437-20.02s3.252-4.855 6.319-8.525c6.673-7.985 9.722-12.876 10.97-17.597.891-3.37.83-3.713-1.595-8.725-2.642-5.462-4.667-7.416-7.682-7.416-.991 0-2.588-.83-3.549-1.842-1.066-1.124-2.189-1.71-3.451-1.767zm409.547 24.383c1.019-.051 2.308.713 3.107 2.106 1.117 1.946 1.485 2.088 4.535 1.744 3.042-.343 3.272-.256 2.725 1.033-1.945 4.59-2.734 10.308-3.312 24.022-.677 16.017-1.348 19.501-4.961 25.767-2.073 3.595-1.834 3.44-3.424 2.225-.99-.757-1.097-1.54-.582-4.264.347-1.835 1.009-10.01 1.472-18.166.758-13.337 1.624-21.302 2.721-25.025.272-.922-.035-1.297-1.06-1.297-1.07 0-1.642-.79-2.217-3.055-.426-1.679-.597-3.514-.381-4.078.252-.657.766-.98 1.377-1.012zm-351.465 4.436c-1.121 0-3.082.883-4.367 1.967-1.282 1.081-3.405 2.417-4.717 2.966-3.256 1.365-11.736 1.274-20.332-.216l-7.146-1.239-7.422 6.069c-9.533 7.794-14.99 15.576-12.786 18.232.464.558.77 2.63.68 4.602s.234 4.329.72 5.238c1.38 2.578-.63 9.71-6.982 24.768-5.912 14.016-7.742 18.806-7.742 20.265 0 .62 1.457.88 4.662.832 4.237-.062 5.133.219 9.825 3.078 5.48 3.341 9.873 4.265 8.845 1.86-2.019-4.727-2.646-9.214-2.357-16.87.17-4.528.738-9.062 1.277-10.195.847-1.777 1.348-2.015 3.91-1.853l2.94.185 3.986-7.04c2.192-3.873 3.986-7.292 3.986-7.6 0-.906-4.813-.64-5.771.318-1.48 1.48-1.739.25-.96-4.58 1.547-9.613 5.969-14.034 14.636-14.633 3.68-.254 5.986-.002 8.408.916 6.098 2.312 6.338 2.198 10.783-5.101 4.547-7.465 6.933-13.3 7.541-18.438.41-3.457.376-3.531-1.617-3.531zm317.022 21.068c1.062.02 2.02 1.56 3.744 5.362 3.778 8.333 5.565 19.51 3.457 21.619-3.088 3.088-6.513-2.543-9.067-14.905-1.525-7.386-1.471-9.652.27-11.228.609-.551 1.113-.856 1.596-.848zm-378.53 74.43c-1.223-.005-2.436.328-4.324.994-5.38 1.898-13.712 7.937-15.461 11.205-.986 1.842-1.035 3.219-.191 5.438 1.402 3.688-.016 5.761-3.49 5.097-2.081-.397-2.57.056-3.14 2.9-.851 4.26-.874 12.903-.038 15.08.44 1.148 1.992 1.661 5.027 1.661 4.048 0 4.467-.266 5.393-3.408.732-2.488 1.71-3.507 3.625-3.772 1.441-.2 3.277-.902 4.078-1.56.8-.659 2.452-1.068 3.67-.91 1.602.207 2.602-.6 3.623-2.922.778-1.771 3.252-4.255 5.521-5.543 3.072-1.744 4.381-3.327 5.184-6.266.59-2.163 1.527-3.932 2.082-3.932s1.008-1.815 1.008-4.033c0-4.727-1.856-6.77-8.178-9-1.93-.68-3.165-1.024-4.389-1.029zm385.545 20.353c-1.749 0-4.043.78-5.098 1.735-2.346 2.123-2.61 7.703-.365 7.703.854 0 1.819 1.297 2.145 2.883s1.362 5.625 2.303 8.974l1.708 6.09 4.14-.699c2.962-.5 4.396-.293 5.042.727 1.401 2.21 1.097 8.439-.664 13.607-1.534 4.502-1.746 4.674-5.242 4.266-3.524-.412-3.645-.309-3.631 3.097.028 6.768.921 8.232 5.09 8.346 2.095.057 4.99.494 6.432.969 1.441.475 4.037.781 5.767.681 3.103-.179 3.14-.252 2.807-5.455-.407-6.348 2.113-9.586 6.588-8.463 2.468.62 2.664.403 2.664-2.959 0-3.805-1.778-5.97-3.12-3.798-1.144 1.851-2.092-2.471-2.109-9.612-.011-4.732.443-6.416 2.172-8.027 1.841-1.715 1.995-2.403.961-4.334-1.506-2.814-.526-7.342 1.59-7.342 2.183 0 1.944-3.932-.281-4.621-3.53-1.092-17.196-3.768-19.247-3.768-1.608 0-2 .61-1.765 2.743.379 3.441-2.844 6-4.47 3.548-.575-.865-.864-2.634-.641-3.931.345-2.017-.058-2.36-2.776-2.36z" style="fill:#dbcbcb;fill-opacity:.08643326;fill-rule:evenodd;stroke:#000;stroke-width:.112097;stroke-dasharray:none;stroke-opacity:1" transform="matrix(.26459 0 0 .26459 0 -.002)"/></svg>