<?xml version="1.0" encoding="UTF-8" standalone="no"?>
<svg
   xml:space="preserve"
   width="578.37"
   height="230mm"
   viewBox="0 0 153.03 230"
   version="1.1"
   id="svg1"
   sodipodi:docname="bone_golem.svg"
   inkscape:version="1.4.4 (dcaf3e7, 2026-05-05)"
   xmlns:inkscape="http://www.inkscape.org/namespaces/inkscape"
   xmlns:sodipodi="http://sodipodi.sourceforge.net/DTD/sodipodi-0.dtd"
   xmlns="http://www.w3.org/2000/svg"
   xmlns:svg="http://www.w3.org/2000/svg"><defs
     id="defs1" /><sodipodi:namedview
     id="namedview1"
     pagecolor="#ffffff"
     bordercolor="#000000"
     borderopacity="0.25"
     inkscape:showpageshadow="2"
     inkscape:pageopacity="0.0"
     inkscape:pagecheckerboard="0"
     inkscape:deskcolor="#d1d1d1"
     inkscape:document-units="mm"
     inkscape:zoom="0.67433264"
     inkscape:cx="123.08465"
     inkscape:cy="393.7226"
     inkscape:window-width="1920"
     inkscape:window-height="1009"
     inkscape:window-x="2552"
     inkscape:window-y="143"
     inkscape:window-maximized="1"
     inkscape:current-layer="svg1" /><path
     d="m 100.50972,228.3029 c -5.696052,-5.05356 -10.994704,-11.60134 -10.151205,-19.37759 3.471396,-8.32425 -1.865242,-15.80639 -1.170768,-23.77992 0.905835,-6.44366 2.489586,-13.98335 -2.135045,-19.55111 -4.144442,-1.1764 -4.115221,-11.8717 -7.983042,-5.38236 -1.597388,5.82442 -7.697655,2.39754 -9.395366,-1.37002 -3.552239,5.27458 -14.524539,13.2545 -4.570087,18.16557 2.324004,7.32505 2.474003,15.18532 5.006446,22.61722 2.234395,7.25198 -0.898043,15.11134 -9.98075,14.75696 -7.228178,2.35827 -13.074227,4.99053 -20.800128,5.4673 -1.73375,-1.43395 -3.460682,-4.4544 -7.607072,-2.62679 -3.090555,-5.55132 8.992123,-10.06235 11.363854,-15.26752 4.650931,-7.88767 -1.065574,-15.69679 -0.952588,-23.70959 -0.296101,-4.59779 -1.217521,-12.82248 5.052225,-10.23314 6.712924,-5.94864 1.021744,-16.41925 6.413901,-22.32222 3.532759,-0.93435 7.395709,3.58032 4.394764,-1.59562 -1.59057,-5.41341 4.745409,-9.423 7.864211,-4.311 6.031112,-1.80843 1.878879,-10.33361 -3.574641,-7.09123 -7.324607,-1.74358 -7.786291,-14.15689 -11.885927,-15.2867 -4.223337,5.38236 -12.356378,12.19411 -6.177215,18.63321 3.221074,10.6679 -11.780733,11.50452 -12.087549,20.51104 -0.328243,8.1562 9.667117,13.22802 7.542787,21.83541 -0.289283,3.90364 -5.133069,7.38715 -4.198013,1.32892 0.340906,-5.35222 -6.85026,-10.01212 -8.526543,-2.66241 -0.290257,6.50121 6.853182,10.60122 10.340162,13.93768 -2.355172,4.17309 -16.055692,-3.29262 -8.673619,2.33817 2.973673,4.52107 -10.339188,2.52084 -10.425876,-2.20116 -5.652219,-6.52405 -3.525941,-14.89488 -3.5912,-22.4985 -1.673361,-8.80467 5.532416,-16.52976 2.425302,-25.27781 -1.935371,-8.11235 5.965853,-13.69016 8.644399,-20.77317 3.781133,-4.32014 4.54184,0.64208 4.540866,3.71184 9.337899,-0.253 5.624947,-13.03256 1.489272,-17.77922 -3.165555,-7.96622 4.945083,-13.863708 7.441488,-20.711075 -0.592202,-4.426996 10.820353,-10.129938 6.895065,-2.473345 -0.436359,9.751812 8.016159,-4.904677 13.149227,-3.840627 8.505115,0.336112 15.331025,-8.52336 23.551726,-3.997722 4.557425,1.848615 14.951158,11.705463 14.061881,1.296953 3.854188,-6.929568 5.697028,7.695867 8.590828,10.382023 3.17724,5.662755 11.12035,2.720862 9.90088,-3.41044 4.63242,-3.604983 5.55384,8.135187 5.14378,11.390358 2.85972,6.811745 5.51002,13.359535 4.64606,20.694635 -0.26103,4.14477 7.53597,8.70602 5.44768,2.14819 3.48698,-7.76802 6.84929,5.2006 9.15089,8.0128 5.33371,8.25392 1.58764,17.19377 -0.0536,25.73265 0.31558,7.27664 6.185,13.74132 3.06912,21.38147 -1.08992,6.99716 1.33051,15.36434 -5.11845,20.83255 -3.62335,2.26693 -14.16805,8.70877 -14.22552,2.5866 4.52918,-1.82122 7.32558,-10.16556 6.68468,-12.13839 -2.17693,3.96849 -9.90965,13.43717 -13.20767,6.50669 4.09964,-3.90913 9.76841,-9.85685 5.91033,-15.44837 -7.797,-5.90661 -4.32463,11.79863 -9.28238,8.94076 -4.76586,-6.32036 -1.25063,-15.30953 5.24801,-19.2762 7.2983,-6.47746 1.24284,-14.86382 -3.48893,-20.44802 -0.76753,-7.23189 7.70739,-16.70513 -2.35128,-21.21981 -3.6136,-2.21487 -8.00252,-9.46685 -9.8288,-2.09705 -1.37629,7.54243 -7.113247,12.54575 -15.282326,12.44437 -3.915548,3.63786 5.263587,4.4754 7.145387,1.14807 5.633709,-1.2047 2.615235,8.29046 7.617789,10.18474 3.98373,6.53957 -2.3766,14.78893 3.08276,21.48651 4.42204,8.07399 5.40969,17.35725 5.63469,26.30989 4.52917,7.51137 6.01065,16.26215 6.60578,24.73619 -0.15584,4.80421 -5.13307,10.89807 -8.80317,4.28908 -4.81261,-5.41889 -5.67364,3.40862 -8.52751,4.35028 z m 1.37921,-0.71881 c -0.32922,-9.57736 10.24957,-1.47414 12.61351,-1.76276 4.40159,-5.22891 2.54511,-11.32094 1.60421,-17.0796 -1.0685,-8.07673 -8.02395,-15.43283 -5.33956,-23.84842 -1.52921,-9.32071 -7.8496,-17.92901 -7.68986,-27.24973 1.46784,-5.81802 -0.19773,-12.54939 -5.366836,-15.50133 1.874982,-5.26636 -2.602573,-6.4117 -5.752544,-2.69529 -5.021056,2.84051 -9.389522,-6.45919 -2.062967,-4.07627 10.048931,-0.25117 11.113527,-10.77568 15.751797,-16.05665 4.12496,3.63786 12.87845,7.44195 13.35377,14.28932 -5.24995,6.33955 -4.27788,15.62921 2.44576,20.81154 4.67138,8.5535 -5.34541,14.15872 -8.97459,20.56859 -2.97368,3.54744 1.05486,13.46914 3.11783,11.28898 -3.42367,-5.75775 7.60804,-15.55157 8.72913,-5.97056 0.64091,5.48374 -6.95448,10.88528 -6.34961,14.14776 6.58533,4.08357 10.61289,-10.45327 12.9252,-7.37711 0.41396,5.15585 -7.64798,10.07148 -6.62331,13.41708 7.20383,-0.10595 14.96674,-4.52747 17.00438,-11.25884 1.08603,-8.55259 1.81167,-17.4148 0.93603,-26.01579 -6.38955,-8.0813 0.23572,-17.06591 -0.2698,-25.79568 0.17045,-7.3287 -4.98794,-13.14581 -8.39895,-19.33374 -3.76652,-2.61857 -0.89609,10.02947 -6.2824,5.10013 -2.73017,-2.17377 -3.299,-11.63148 -3.86685,-3.99955 1.43667,3.03049 6.53955,5.78697 5.85968,7.17161 4.96165,7.15242 -2.97951,2.57472 -4.90222,0.81013 3.58633,2.9282 2.65224,10.88893 -3.34867,9.10608 0.47142,-7.56343 -7.34799,-10.18474 -11.02587,-15.46845 3.54444,-4.40599 12.62033,2.12992 11.98333,1.18095 -0.53182,-7.28577 5.84994,-15.09124 -1.1961,-21.20793 -0.82402,-4.418774 -1.34804,-15.273911 -3.43341,-15.229157 2.86069,7.325048 0.75974,15.928787 6.52299,22.220837 -0.5396,3.76664 -2.57919,5.56959 -2.40582,9.59563 -4.52625,3.05697 -10.33821,-1.10241 -15.88621,0.49229 -8.854788,-1.35815 -0.45779,-9.76734 -5.60352,-14.51492 -0.243504,-5.512051 10.82912,-2.1418 10.90509,-9.120688 0.76558,-1.949997 5.00255,1.461357 4.39184,-3.439667 0.90876,-4.201399 -0.0974,-6.901254 -0.37986,-1.014729 -4.6334,8.264883 -13.51156,-3.190323 -13.39858,-8.896919 -0.4159,-3.283485 -5.517803,-6.749639 -3.949636,-0.959928 2.097059,6.61903 -8.817774,3.542875 -7.882718,2.146366 4.666515,2.29433 8.172001,7.957085 3.718797,6.11943 1.776606,8.433851 -5.483715,-4.127418 -6.998311,-6.358727 -3.079841,-8.270362 -14.02292,-4.732967 -19.653711,-1.481449 -7.828173,0.0082 -14.878107,4.787768 -19.197871,9.648604 -5.076576,-1.121591 1.98115,-12.317406 -4.608074,-7.190786 -4.584697,6.300272 -8.357064,13.348576 -11.508982,20.364913 -0.075,7.61458 10.751197,17.39927 0.876615,23.66027 -4.649956,2.35644 -1.518492,-9.99933 -4.570087,-5.48922 4.950927,2.08243 -2.680494,8.70146 3.167503,11.38396 -0.204544,6.57428 9.471339,8.30233 11.442749,1.7171 2.75939,2.7647 -0.129544,13.30473 -5.172029,11.34195 -3.095426,-1.85318 -5.359041,1.05309 -1.794139,0.87681 -1.16882,5.89383 -7.494085,7.99179 -4.499958,13.27642 -2.101928,2.27698 -8.441803,-2.6688 -11.774889,1.6422 -6.514224,6.09203 -2.379523,-4.46901 -0.647721,-7.0894 0.878563,-8.06486 -3.345748,-17.22939 3.907755,-23.5735 1.80388,-3.34651 4.426907,-8.71973 0.590255,-2.82133 -4.424959,6.04636 -7.762914,13.94042 -4.566191,21.15678 0.639929,5.04351 -8.277195,15.56344 0.863953,16.45578 2.564586,-8.53158 13.280719,-5.30472 16.45504,1.27869 3.886327,3.58124 4.028533,16.18452 0.681811,15.29218 1.908099,-6.85741 -8.098949,-13.90024 -7.413242,-16.80194 -0.425645,1.19192 0.285387,6.84919 -1.863294,3.34285 -0.513307,3.01861 -3.545421,9.54266 -3.718796,9.44219 3.521071,4.99875 6.223968,10.21853 12.715789,12.47267 -6.27559,2.87705 -13.047929,-3.36568 -15.319336,-8.67315 -1.186352,-2.06416 -2.400951,-7.10401 -2.479847,-1.55269 -5.602544,2.23588 3.359384,-0.0658 2.666858,4.89007 -1.605179,4.80603 7.339217,7.23097 6.704158,9.72167 -7.602201,0.009 -12.004757,-8.06852 -12.618388,-14.27837 0.413958,-3.42779 0.799668,-13.31204 -0.06039,-12.4407 -0.362334,7.81277 -1.78245,16.49779 3.92334,23.07481 1.612972,3.96028 10.168735,4.93208 10.680094,3.01587 -6.14215,-1.30608 -3.820094,-6.82544 0.969147,-2.43589 4.982096,1.33714 8.870371,-3.84154 1.593492,-4.12285 -1.125964,-4.73754 -8.79732,-6.66836 -4.629502,-12.71289 6.453835,-8.72886 7.90025,6.71219 9.595039,7.57165 5.964879,-7.23737 -0.674993,-15.89225 -5.099952,-22.06282 -3.874639,-9.23486 9.140174,-12.385 11.548917,-19.56208 1.836996,-6.1103 -5.342482,-11.93106 0.749993,-17.17094 2.559716,-2.96381 7.840836,-11.74748 9.038876,-3.66709 2.031799,3.39309 2.814909,9.09694 7.28175,10.26603 -3.205489,-2.60304 -5.725271,-7.1095 -5.963905,-10.7565 -0.259089,3.40953 9.334977,11.05608 3.555161,4.84805 -2.405821,-3.34285 -6.866818,-7.66298 -4.993784,-11.91462 0.772395,2.54002 4.933395,10.4898 7.095713,8.00093 -3.922366,-0.76082 -8.701867,-10.97387 -4.867162,-10.09889 2.016214,6.87751 15.957317,6.30576 10.438538,14.03268 1.400636,2.92728 3.225943,3.59402 -0.759733,6.08837 -5.624947,3.70637 7.844731,-0.44115 3.916521,6.22264 -1.402584,5.82807 -5.825594,1.87419 -8.72719,0.39091 -4.432751,2.0459 2.770103,13.91485 -5.347353,8.56446 -7.079154,3.96667 -1.118171,13.96326 -5.585986,19.6799 -2.475951,4.93939 -8.680438,0.96998 -7.012921,7.64198 -2.191538,8.2183 4.612944,15.41092 2.411666,23.51322 -0.128571,8.34617 -8.743749,10.51081 -12.788841,16.45853 -2.016215,3.61959 1.274988,4.79142 4.027559,2.55189 3.294125,1.11337 0.871746,6.41992 5.027875,3.0451 7.902199,0.73707 13.64208,-3.84062 21.006621,-5.20608 10.146333,-0.56445 8.72719,-11.50087 6.808377,-18.00847 -2.998024,-6.16327 -0.896095,-13.53856 -4.765864,-19.27895 -8.718425,-4.8106 1.62466,-12.40052 4.895408,-17.3399 3.381787,0.25026 7.270062,8.57907 9.154784,1.41295 1.266222,-4.69918 7.499929,-2.71538 5.357092,1.66686 7.697655,3.62781 6.849287,12.35759 6.680782,18.98119 -0.216232,3.18575 1.480505,7.73331 0.911679,1.78468 -0.175323,-4.62519 4.738592,-11.49357 6.079813,-13.40794 4.217493,4.97226 11.113533,9.7582 5.371703,16.26672 -0.26591,3.45245 0.21818,-0.52426 1.94316,2.38657 -0.37207,-3.5036 1.45908,-12.12743 2.96102,-11.6744 3.92821,6.81083 1.0383,14.87934 4.06262,21.80069 1.52239,3.37299 6.85026,12.13656 2.21297,13.00881 -2.27433,-1.57918 -5.75839,-8.49048 -7.66357,-2.95559 -3.08471,-3.13461 -7.026557,-6.2884 -8.58888,-0.85124 -2.47108,0.917 -3.16458,10.48523 -5.867477,5.76322 0.262011,-2.93733 0.55519,-8.29685 -0.701292,-2.59756 0.03896,6.4939 4.550607,14.55785 10.983019,16.97913 z m -2.119465,-0.99007 c -7.684993,-2.00205 1.042195,-15.3762 3.649645,-6.0765 -0.36234,1.68787 -0.96233,7.02364 -3.649645,6.0765 z m 1.465895,0.26396 c 3.46945,-3.62325 0.0828,-14.13405 -4.173662,-6.64004 -0.208439,2.56742 1.330507,5.92124 4.173662,6.64004 z m -2.688286,-3.85889 c 0.04675,-4.08267 1.628556,1.01473 0,0 z m 14.216746,3.94566 c -3.83567,-1.89976 -3.40906,-10.03769 -1.86816,-9.5043 -5.10385,8.17172 -7.36162,-7.28303 -2.22953,-8.95172 2.8753,2.21944 10.86321,8.02194 7.88759,11.53284 -2.31816,-1.60292 -2.68828,-7.19078 -1.31492,-1.72988 -3.93795,-1.79564 3.49282,7.63833 -2.47498,8.65306 z m 0.8474,-0.81288 c 5.07852,-3.43967 -4.10061,-12.64712 -4.36944,-4.42243 2.02498,0.81836 2.59283,3.72281 4.36944,4.42243 z m -0.62727,-3.66618 c -1.012,-3.51821 1.70161,1.74632 0,0 z m -5.12528,-1.5947 c -1.39089,-5.87465 11.40672,-1.84588 3.29121,-6.62543 6.57558,3.19672 -4.29639,-11.35382 -4.74346,-2.0395 -0.62532,3.08985 0.82888,5.71207 1.45225,8.66493 z m 2.29674,-9.04214 c -1.93148,-3.08803 0.9107,-2.27241 0,0 z m 6.74798,7.589 c 1.79804,-3.28257 -1.80193,-1.20014 -0.7831,0.40279 z m -0.94479,-3.28622 c 0.19091,-4.6051 -3.88243,-0.24569 0,0 z m -11.88495,4.36762 c -0.69935,-6.88664 -8.060968,-1.328 -10.023612,-0.35894 -2.848025,-3.17114 2.152578,-4.50554 1.675309,-4.79782 -0.892199,-10.3537 11.445673,-8.06851 9.335953,1.40108 -0.005,1.20562 0.37792,3.01861 -0.98765,3.75568 z m 0.70518,-1.17456 c 2.11459,-4.9887 -4.874951,-16.96452 -7.870052,-6.92318 -1.470766,2.65785 -1.172717,9.44219 2.067837,3.7356 2.694135,-1.69152 3.737305,2.83046 5.802215,3.18758 z m -6.776231,-3.24421 c 0.976938,-2.40393 2.464261,-8.09226 1.840891,-2.22218 -0.278568,0.82019 -0.705188,2.09522 -1.840891,2.22218 z m -2.844129,3.91278 c 0.938952,-8.17629 -4.837942,0.0822 0,0 z m -57.171865,-0.042 c 0.705189,-7.23006 8.610309,-12.33659 13.891428,-16.12242 2.639586,2.40028 5.059043,5.64541 8.793424,4.35393 4.686969,4.81974 -9.477184,10.34458 -8.90641,4.838 -0.177271,-3.23873 -1.443493,9.19742 -6.056436,4.0845 -0.420776,-4.20597 0.05649,-4.01691 -0.67402,0.16074 -2.056149,0.96541 -5.251899,0.68045 -7.047986,2.68525 z m 1.384078,-1.2248 c 6.506433,1.45039 6.451888,-10.19022 0.939927,-4.14751 -0.424672,0.30597 -3.499643,7.43465 -0.939927,4.14751 z m 10.660614,-1.82944 c -0.612656,-4.22423 9.465495,-12.60237 0.02143,-12.47359 -2.510042,1.13803 -3.715875,5.81163 -0.821097,1.76916 0.362335,3.46615 -10.568082,4.57496 -3.266852,6.58889 1.468817,2.63592 -1.567193,8.4923 4.066519,4.11554 z m 3.37789,-2.08152 c 4.040222,0.0548 11.819694,-4.9677 5.516832,-7.15151 -2.530496,-1.24489 -10.240813,8.28406 -5.516832,7.15151 z m -22.259205,1.92717 c 2.663935,-5.44082 9.213224,-11.63605 15.046611,-12.58867 2.366861,6.15779 -8.649269,6.91769 -8.639529,11.0104 -1.998682,0.9581 -4.344115,0.80375 -6.407082,1.57827 z m 1.263299,-0.4585 c 4.751254,1.36728 8.160313,-7.36524 2.3279,-4.55852 -0.483112,0.4996 -5.169107,5.73399 -2.3279,4.55852 z m 8.018107,-4.65168 c 0.714928,-1.21202 8.309337,-5.2207 3.347695,-3.97672 4.348011,-3.55749 0.09351,-4.80695 -1.8818,-0.76812 -4.178532,0.9654 -6.348642,3.59219 -2.004527,5.73764 z m 22.866992,0.67405 c -3.271722,-3.8525 10.905092,-6.76791 4.529178,-1.39743 -1.305182,0.8622 -2.873349,1.62302 -4.529178,1.39743 z m 1.71914,-0.40005 c 6.372018,-0.40553 1.707451,-7.13964 -0.849343,-1.68239 -1.802905,1.31157 -1.252586,2.5181 0.849343,1.68239 z m 2.152577,-4.79507 c -4.984044,-3.57393 -5.855789,-10.53912 -7.387918,-15.93518 -2.898674,-4.83983 -0.514281,-12.0224 2.957115,-14.42359 5.6717,4.30461 2.551924,11.42964 4.579827,17.63309 1.051938,4.24342 5.677544,9.37643 -0.149024,12.72568 z m 0.980835,-0.31968 c 3.266852,-6.88846 -3.501591,-14.24457 -2.487639,-21.8217 0.149998,-4.05161 -3.944768,-12.02879 -4.782423,-3.8388 -4.216518,4.45349 0.153895,11.00584 0.727591,15.76895 3.24932,2.61948 1.269144,10.64781 6.542471,9.89155 z M 64.385383,196.101 c -3.262957,-5.91667 1.622712,-2.05229 0,0 z m -2.314264,-6.19524 c -1.444467,-3.46706 2.35712,-2.62496 0,0 z m 1.511674,-4.02147 c -0.885381,-5.09282 2.89283,-3.99863 0,0 z m -7.219413,21.05723 c -0.659409,-3.37938 -7.602201,-6.47198 -8.420375,-6.65373 -3.107113,4.97591 -5.883061,-0.79827 -2.278225,-3.26431 2.564586,-5.91301 -4.063598,-14.37061 -1.908099,-17.7162 -0.882459,-2.74279 -2.343484,-14.61631 2.117512,-7.72418 3.286333,3.16931 7.940185,4.13198 6.940844,9.09694 5.232418,-6.17149 5.866503,5.55589 4.684047,9.0257 0.501619,5.1184 7.675252,14.7186 0.149999,17.3874 z m 0.711033,-0.32241 c 8.359986,-4.02604 -0.932134,-13.06087 -0.149999,-19.33648 2.33277,-4.32014 -1.545765,-12.42062 -5.23534,-5.1248 -1.188301,2.4971 -2.264589,9.60477 -2.180824,2.83778 2.06589,-3.87808 4.765864,-10.87067 -2.442834,-11.02411 -1.866216,-3.30632 -4.275934,-7.04465 -4.149312,-0.91974 2.038618,6.79713 2.164266,10.08336 4.665541,17.22208 1.792191,4.57131 -3.57172,-1.81665 -0.863953,2.79941 -0.08279,2.3263 -4.711319,11.21043 0.301945,8.03746 -0.3711,-3.33828 1.214599,-6.37151 2.28894,-1.51342 5.556766,0.96633 1.257455,-14.12857 4.077234,-4.65807 0.459736,4.01964 -5.602545,8.03746 2.150629,8.78549 1.762971,0.38452 -0.07695,2.96838 1.537973,2.8944 z m 0.6185,-4.29913 c -2.070759,-2.30346 -0.517203,-7.7808 -0.146102,-2.15276 -0.217206,0.36991 1.244793,1.94543 0.146102,2.15276 z m -8.180767,-10.43956 c -1.085054,-2.41032 2.532444,-2.35461 0,0 z m 5.688258,-5.49653 c -0.609734,-2.5117 2.040566,-2.74643 0,0 z m -2.107772,9.88517 c -0.746097,-9.18737 -1.355831,4.2288 0,0 z m -3.044777,-11.14102 c 2.839259,-6.74142 -1.319792,-2.08426 0,0 z m -5.216834,-0.6567 c -0.599994,-4.332 -3.701263,-4.17947 -0.407139,-0.0703 l 0.45097,0.52882 z m 81.632349,15.779 c -6.31163,-1.84679 7.52428,-4.95309 3.51133,-9.43488 2.26264,-4.47541 4.82138,-6.09751 1.37921,-10.53273 -0.43636,3.13918 -4.311,-0.75808 -7.00611,-0.71515 1.21168,-2.68524 0.0828,-10.59483 -3.02724,-6.15688 -1.63148,2.32173 -6.00286,3.05972 -5.42819,3.6534 -0.18507,3.33371 -0.72857,13.76049 -3.49283,5.89839 -1.08116,-6.32675 1.59934,-13.46913 8.76907,-15.43922 3.70127,-5.00698 14.63948,-3.03323 16.48621,2.55737 -0.81817,7.61275 -0.56298,14.01441 -1.92465,21.22802 -2.51297,3.37756 -3.63893,9.32072 -9.2668,8.94168 z m 1.68505,-0.4859 c 6.51033,-0.94806 1.67726,-8.2183 -1.36655,-2.22492 -3.09932,2.26419 -1.87498,2.99852 1.36655,2.22492 z m 5.65222,-4.817 c 3.38568,-2.98391 2.22076,-14.27288 -2.46037,-6.47837 -1.16005,2.22948 -2.12433,7.58718 2.46037,6.47837 z m 0.78993,-4.95582 c 0.0954,-3.16567 2.32497,-1.6011 0,0 z m -2.63764,-1.64494 c -1.15324,-2.39937 1.64024,-0.74803 0,0 z m -17.05406,-2.53545 c -1.06752,-2.42677 3.00289,-12.79874 -2.38634,-8.65763 -0.37987,2.67611 -0.38377,7.27025 2.38634,8.65763 z m 20.20598,-1.44583 c 4.56814,-2.46056 -0.96233,-9.7098 2.41361,-13.4253 -1.00129,-5.19512 -11.07165,-7.85936 -14.40084,-4.12103 2.80225,3.46159 1.15129,11.36479 3.24737,13.10928 4.00808,1.49607 5.16229,0.10961 5.58015,-3.16201 1.49122,1.49241 -1.64512,9.60933 3.15971,7.59906 z m -7.77168,-8.32243 c -1.99674,-3.09442 1.8068,-6.33041 0,0 z m 4.99865,-1.93173 c -1.19609,-3.30997 2.31524,-4.67634 0,0 z m 0.42662,-5.00514 c 0.36331,-2.95925 1.03538,1.6696 0,0 z m -6.05157,-1.88972 c -0.90583,-2.21852 1.5633,-0.10047 0,0 z m 4.70743,11.36387 c 2.56848,-2.087 -0.33117,-1.85592 0,0 z m -14.50117,-2.70168 c 4.79022,-0.42014 9.22394,-9.89429 1.70843,-7.11589 -2.30063,1.61845 -7.36454,6.13587 -1.70843,7.11589 z m 7.3402,-5.79793 c 0.6672,-3.07342 -1.35389,-0.96541 0,0 z m 10.24665,26.12813 c -0.60486,-3.15013 4.91586,-13.7066 6.28338,-7.38532 -1.09089,2.82224 -2.4516,7.20174 -6.28338,7.38532 z m 1.3646,-0.48681 c 3.94672,-0.91974 6.05351,-13.03895 1.05389,-6.00069 -0.73052,1.7792 -2.64933,4.18861 -1.05389,6.00069 z m -15.7742,-1.34353 c -6.3467,-1.21384 5.91423,-5.23988 2.85192,-9.35086 0.93798,-6.16144 10.45315,-4.26533 5.99994,1.67326 -3.12075,2.6624 -3.88243,7.6027 -8.85186,7.6776 z m 2.05712,-0.85124 c 6.148,-0.70328 -2.26167,-7.19079 -2.30744,-1.42483 -5.37171,1.77281 0.57369,2.59208 2.30744,1.42483 z m 4.34217,-3.53923 c 4.41522,-2.54276 2.50809,-13.59883 -2.31524,-6.07741 -1.54284,2.12262 -1.55161,6.49573 2.31524,6.07741 z m 1.01492,-4.94486 c 0.3526,-2.91084 2.37271,-0.97089 0,0 z m -105.768481,1.78833 c -3.539577,-3.86985 2.532444,-3.11451 0,0 z m 0.652591,-0.1507 c 0.405191,-2.5117 -2.8977,-3.34833 0,0 z m 116.16222,-0.35986 c -1.49414,-5.16224 -1.79317,-15.56801 1.78245,-17.58377 4.07821,4.71471 -0.17922,12.63891 0.1948,17.48148 l -0.99837,0.17079 -0.97888,-0.0676 z m 0.97694,-0.41466 c 3.85418,-3.66343 -0.89707,-9.91804 2.58114,-13.86735 -2.84705,-6.79531 -3.98568,0.56719 -3.76944,3.88629 -0.53863,3.27709 -1.53603,7.28212 1.1883,9.98106 z m -79.71159,-7.44378 c 0.78798,-3.48259 0.283439,2.37014 0,0 z m -4.074312,-1.05492 c -2.4029,-2.58477 -3.080815,-7.73879 -7.534994,-5.80523 -1.873035,-4.7558 6.331109,-9.3262 3.552239,-15.20267 -0.435386,-3.57393 1.04512,-13.65273 6.568769,-8.21374 -3.765549,7.19809 12.243391,2.86791 5.926892,9.7098 -2.81296,0.52061 -7.642135,5.42254 -5.935658,5.47278 0.344802,-5.36318 13.100526,-4.75763 6.263902,-0.47403 -6.872662,2.24044 -0.685708,13.88654 -8.84115,14.51309 z m 1.126937,-0.49868 c 6.128514,-2.45782 -0.416879,-12.64439 7.965509,-14.05186 4.362622,-5.71481 -7.912912,-2.29981 -6.86974,2.46239 -2.31816,6.43636 -0.938952,-6.83458 3.638927,-6.48294 7.217464,-2.81859 0.262984,-8.29959 -3.950612,-4.1941 2.91231,-4.6261 -3.633083,-11.34377 -5.344431,-3.83788 0.618501,6.7743 -0.513306,13.74588 -4.154181,19.74931 3.004842,4.83801 7.324606,-7.45565 5.123328,0.95536 0.146103,1.84679 0.457788,6.46103 3.5912,5.39972 z m -0.413957,-19.38398 c -0.532787,-2.55646 2.791532,-1.09876 0,0 z m -3.391527,-1.34901 c -1.227261,-3.76026 1.68505,-5.10105 0,0 z m 38.092823,20.32837 c 0.162661,-6.18245 -1.466869,-12.59506 -7.410319,-15.41 -1.583752,-5.14945 5.195405,-7.90502 6.335979,-2.01119 6.239552,0.65944 -4.739566,-11.26523 3.174321,-12.04157 8.294725,-8.16807 11.377485,6.83823 8.874265,12.4608 -3.234708,5.03437 8.23726,13.00698 1.612,14.88026 -2.09998,-3.66344 -8.171027,-9.72533 -10.119061,-2.10892 -0.467528,1.06131 -0.185063,5.97512 -2.467185,4.23062 z m 0.79772,-0.0913 c 0.524995,-4.58409 3.976911,-10.36102 6.897987,-8.46947 -1.978228,-2.32447 -2.622053,-14.02902 -1.001289,-5.80707 0.840576,3.85798 4.805798,12.60511 7.588568,11.71277 -0.90973,-7.16156 -7.160975,-13.80342 -2.5753,-21.00425 0.58441,-5.9395 -6.596045,-11.00584 -10.486268,-5.06543 -5.147679,2.2304 4.672358,14.60443 -2.576275,11.65249 -1.48635,-5.79519 -7.66746,-2.95925 -5.267483,1.55908 4.112299,1.12981 7.123959,11.77214 8.415505,3.04145 0.350646,3.39217 -4.068468,10.57474 -0.995445,12.38043 z m 4.577879,-20.38409 c -0.566878,-4.8444 3.298995,-2.42951 0,0 z m 2.652248,-2.98939 c -1.584725,-2.98665 2.498349,-3.03049 0,0 z m 0.172401,-3.36112 c -1.386026,-3.72098 3.430488,-1.84862 0,0 z m 42.034668,19.10541 c -0.37013,-2.22583 -3.8912,-4.84075 -5.40579,-3.83698 -7.47753,1.83948 -2.89478,-13.25541 -7.08695,-11.43785 0.37792,3.17845 3.28341,12.75581 -3.4149,9.88607 -3.81036,4.83435 -4.74541,-0.99554 -1.87888,-3.4287 -1.80778,-4.95217 -0.40422,-10.41399 -6.94279,-11.77305 -1.81265,-2.75649 0.0633,-13.49197 3.09737,-11.05608 -0.74999,7.11316 7.24474,-1.43121 9.11485,-3.31088 6.28144,-3.82693 0.52597,-11.69085 4.18535,-15.59359 3.00484,6.28658 8.59375,12.41057 8.15447,19.72466 2.18472,5.86278 -4.65677,10.31535 -2.76426,16.42564 -1.34999,4.89372 6.44994,10.56926 2.94153,14.40076 z m 0.51331,-0.76539 c 1.72985,-5.16863 -2.34543,-4.27721 0,0 z m -1.34902,-2.12993 c 0.7987,-4.66994 -5.22462,-7.94064 -3.64477,-12.60967 0.89707,8.29137 3.14997,-2.47061 1.04707,-3.82419 -2.09413,2.5181 3.1266,-5.78149 2.90744,-8.17263 0.74025,-4.06166 0.76363,-10.16556 -2.58991,-12.75034 1.28083,3.30632 -4.42009,9.55636 -1.30129,3.2159 1.48051,-3.67348 -2.73503,-13.72488 -4.85742,-11.73195 1.47272,7.24559 -0.60097,15.31227 -8.28888,18.5647 -1.86622,3.72737 -5.03567,4.07719 -4.74151,-1.00468 -0.21818,-4.10002 -3.36328,6.27561 -2.16914,8.42107 -0.55129,3.11634 9.1168,5.95137 5.31424,7.00355 -1.63148,-2.24227 1.89446,7.24284 2.00647,2.55372 1.38798,3.73193 -5.17787,11.72738 2.24803,7.73788 6.69442,0.23381 0.99642,-9.59837 1.56427,-13.7331 0.86883,-3.51456 3.51815,7.74519 3.81523,10.59849 -1.32272,4.52746 3.52594,3.36934 4.21262,3.8461 3.52789,-2.53271 2.92205,4.4133 4.47755,1.88515 z m -8.20511,-15.46114 c 0.69544,-3.07799 0.33701,-12.23886 2.14283,-11.69085 -1.1883,3.82692 0.53961,8.25483 -2.14283,11.69085 z m 0.93018,-3.54927 c 1.53603,-3.46433 -0.29707,-5.92854 0.21234,-0.86403 0.0584,0.095 -1.79511,3.89725 -0.21234,0.86403 z m -8.52264,2.2377 c -2.20226,-3.05332 -1.1396,-8.49413 0.37694,-2.3537 -0.0925,0.21372 1.00129,3.11908 -0.37694,2.3537 z m -0.49383,-4.10093 c 0.0497,-3.24239 -1.52921,-1.00469 0,0 z m 15.13719,-2.25049 c -0.60389,-3.9 1.76298,-0.26944 0,0 z m -6.56876,-4.44252 c -1.66655,-3.02592 1.69284,0.20367 0,0 z m 4.41716,18.21763 c -0.17727,-2.38658 -0.85226,-1.55635 -0.13831,0.12421 z m -62.301035,6.419 c -6.306759,-4.86357 -8.721346,-12.73389 -14.749536,-17.65775 -3.340878,-4.03699 1.499011,-10.72178 4.385023,-4.14477 1.579855,2.44412 3.701264,5.52119 3.134386,7.43009 3.524967,-3.63421 4.648008,11.38031 6.297993,1.94177 3.834704,-4.30004 10.80282,-4.42517 14.976482,-8.369 2.058098,-3.69358 11.755407,-6.57245 7.397658,0.30871 -6.599938,5.32664 -14.673563,8.84486 -18.497553,16.68595 -1.607128,0.83023 -0.949667,3.94475 -2.944453,3.805 z m 1.358753,-0.89873 c -0.642851,-3.08894 8.910306,-8.68685 3.441202,-8.56903 -3.420747,1.41752 3.428539,-4.37311 3.574641,-2.53271 4.04217,-4.311 15.491738,-6.30027 12.515142,-12.52291 -5.619103,3.12 -11.261582,6.38247 -15.812188,10.3601 -2.515886,0.49138 -4.959694,-2.48248 -6.012606,2.2715 -0.641877,3.21224 -1.165898,8.63296 -2.174006,2.45416 0.333114,-4.96313 -6.767468,-6.69118 -3.262956,-0.7736 1.484402,3.14557 -2.79835,-0.79187 -0.171427,3.34285 2.744779,1.0814 5.290859,6.78709 7.902198,5.96964 z M 67.287953,151.4502 c 6.613574,-2.52997 -4.466841,-9.79839 -6.005788,-13.55133 -4.623658,3.63055 0.445126,8.71699 3.35354,10.69986 0.502593,1.13347 0.983757,2.87431 2.652248,2.85147 z m 15.743033,4.38225 c -2.753545,-3.07159 3.529837,-2.57108 0,0 z m 0.479217,-1.58923 c -2.082448,-0.29592 1.072392,2.10435 0,0 z M 59.36043,150.41626 c -0.330192,-5.01793 6.560977,-0.19819 0,0 z m 2.292836,-1.40838 c -0.345776,-3.29444 -3.500617,3.07159 0,0 z m 11.469047,-0.79096 c -4.322686,-2.98482 -1.16882,-6.7679 2.761338,-5.26453 9.124589,-2.43864 0.537657,6.60533 -2.761338,5.26453 z m 1.740568,-0.30323 c 4.397686,-1.40929 6.864871,-6.93961 0.343828,-4.19226 -6.528834,-1.95365 -3.876586,3.9484 -0.343828,4.19226 z m 3.522045,-3.7228 c -0.38571,-1.55817 1.551609,1.17639 0,0 z m 3.885353,0.12787 c 0.31266,-2.79119 3.677888,-0.81288 0,0 z m -13.336238,-0.40644 c -4.342167,-4.43887 4.201909,-4.09819 0,0 z m 0.04286,-1.14169 c 2.274329,-4.95582 -3.2688,-2.28611 0,0 z m 16.009914,0.60281 c -2.553872,3.16384 4.063598,-7.78355 1.660699,-0.89873 -0.331166,0.53887 -1.135704,0.57723 -1.660699,0.89873 z m 1.710374,-2.28063 c -1.809724,-5.9806 -5.212938,7.20358 0,0 z m -13.256369,1.89611 c -2.068812,-1.69517 -6.252214,-7.46935 -0.425645,-4.67451 3.951586,-0.97546 9.90575,0.69962 4.045091,4.20322 -1.129859,0.53523 -2.412639,0.36717 -3.619446,0.47129 z m 2.136993,-0.50873 c 4.525282,-0.79918 4.563269,-6.05002 -0.206492,-3.88538 -5.360014,-1.12159 -4.470737,4.64802 0.206492,3.88538 z m -5.250925,-3.75386 c 1.140574,-4.34206 -2.246083,-0.45302 0,0 z m -4.743462,3.34285 c 0.357465,-2.60304 3.058413,1.11611 0,0 z m 14.940444,-2.4021 c -0.176297,-6.4391 9.613546,-0.60281 1.59057,0.0192 z m 3.861003,-0.91609 c 2.033747,-6.24547 -7.233049,3.13643 0,0 z m -46.090475,-0.4448 c -2.361017,-5.81437 6.116825,-1.89154 0,0 z m 1.003237,-0.57358 c 3.492824,-3.68079 -3.788925,-1.19375 0,0 z m 34.023381,0.31601 c -3.090555,-0.26578 -1.498038,-6.42722 0.188959,-2.07603 1.795113,-4.17674 9.720688,-1.99384 3.953534,1.37915 -1.286676,0.56902 -2.736987,0.71789 -4.142493,0.69688 z m 2.485691,-0.36899 c 5.912282,-1.71983 0.614604,-4.83891 -2.17498,-2.2925 -4.108403,-0.55532 0.386685,3.62142 2.17498,2.2925 z M 33.9084,135.62186 c -3.364254,-7.46388 3.940872,-14.07195 5.738907,-20.88278 3.830808,-7.43374 12.976826,3.14192 5.999944,7.08575 -6.031112,3.01405 -3.655485,11.60134 -9.686598,14.03267 l -0.956484,-0.008 z m 1.555505,-0.21646 c 6.543445,-4.1192 6.054488,-13.55682 12.725529,-17.91075 -0.08376,-3.11908 -4.280803,-1.31065 -4.142493,-4.94121 -5.697998,1.69426 -7.412268,9.5938 -9.450885,14.62726 2.192512,0.13335 -5.913256,9.13713 0.867849,8.2247 z m 2.19933,-2.57564 c -0.145129,-5.32299 2.884064,-3.18485 0,0 z m 2.604521,-6.72224 c 0.437333,-2.85787 2.946401,-1.65681 0,0 z m -3.743147,-0.78274 c 0.956485,-5.37048 4.249636,-5.29742 0,0 z m 5.330794,-2.08243 c 0.900966,-2.88436 1.727906,-0.19089 0,0 z m 31.278602,12.09729 C 67.928856,129.99838 70.976554,121.14987 65.62628,116.92107 59.156861,111.9351 52.111797,106.77834 51.597516,98.356364 c -3.717822,-6.61903 -0.495774,-13.960519 7.166816,-16.004591 4.135675,-2.026718 7.385969,0.37082 1.889592,2.356437 -9.276536,3.820533 -5.325923,13.329395 -1.388948,19.43421 1.390896,5.93493 8.723295,5.98517 11.483659,8.83938 0.96525,8.35713 5.782737,-4.68547 11.532358,-0.93162 6.829806,-2.06233 11.986251,-8.76357 12.693387,-15.668474 2.85387,-6.303925 2.717507,-12.99785 2.87335,-19.819643 2.56361,5.146714 7.96259,12.58867 7.30318,17.004706 -3.55127,5.210648 -6.390526,8.160761 -7.480451,13.965081 -4.195091,6.98894 -14.088179,6.44093 -19.698516,12.05619 -2.107772,1.59836 -3.61068,3.71367 -0.170453,2.91541 -1.928553,4.26716 -0.59415,9.16818 -4.667488,12.83619 z m 0.733434,-0.87225 c 1.97141,-4.45988 2.86361,-8.06943 2.965881,-11.96486 -2.825622,5.41433 -2.165239,-6.08472 0.467529,-4.01598 5.491506,-1.61206 12.255079,-6.16236 16.330365,-7.14056 1.038302,-4.04887 7.856416,-6.0628 4.559373,-11.19764 4.844753,0.27127 6.053513,-6.352331 7.743433,-9.608415 -3.37205,-5.597908 -1.18343,3.335545 -5.19736,0.736158 1.13181,-3.717325 2.32206,0.480421 1.3909,-4.524724 0.59123,-3.026834 -4.927548,-13.919418 -4.065543,-5.430765 -0.34675,7.515938 -1.625634,15.714146 -4.819436,21.466406 -2.383419,3.9822 -7.506747,10.28156 -13.637209,10.37655 -4.060676,-2.087 -8.946344,7.89771 -9.564845,-0.42014 -7.122011,-0.86403 -10.899248,-7.22184 -13.551495,-13.090103 -3.481136,-5.386011 -2.888934,-12.750332 3.591199,-15.362507 7.957718,-4.381328 -4.719111,-0.516041 -7.070387,1.523464 -5.435014,4.932077 -0.07987,12.368554 0.746096,18.370156 2.025955,5.7203 9.592118,9.06589 13.840779,14.18886 4.307102,-4.94578 -0.908758,5.72304 4.584697,6.15688 1.836996,1.4714 -4.876902,-0.95445 -2.211018,3.26978 0.82694,2.3062 1.569141,5.34308 3.897041,6.66744 z m -0.548371,-3.3392 c 0.548371,-2.85147 3.454837,-1.34719 0,0 z m 1.808749,-16.27585 c 0.749993,-3.24604 0.68376,1.58922 0,0 z m -6.174292,8.16532 c 0.891225,-3.05149 -2.002579,-0.21189 0,0 z m 12.610595,11.61048 c -5.637609,-2.17194 5.283067,-0.93618 0,0 z m 0.966225,-0.30323 c -1.166872,-2.43316 -3.428539,0.32789 0,0 z m 8.809008,0.4037 c -4.482426,0.33337 -14.234282,-4.95491 -11.759305,-6.96702 9.682701,1.58375 -6.974934,-5.24261 0.696422,-8.57633 5.741829,0.79826 9.749908,-2.06143 13.371302,-6.30576 6.223968,1.56731 -3.612628,8.36262 -6.573639,10.25142 4.428854,4.60327 7.261295,-7.62463 12.220989,-8.42746 -0.582462,3.06154 -3.540551,7.92238 1.055828,3.93835 0.9672,2.58843 -5.347346,10.04226 0.44805,4.11098 3.29997,-1.01016 -2.464259,7.83652 -4.279826,9.5527 -1.441545,1.23211 -3.240554,2.13724 -5.179821,2.42312 z m 0.820122,-0.49047 c 5.388261,-0.80283 9.516145,-10.1409 8.951215,-11.64701 -3.257113,3.36843 -5.535338,11.76118 -11.857681,9.25586 4.815539,-1.57826 12.961241,-10.67155 9.457703,-12.03792 -1.256482,2.54002 -6.138254,10.7227 -7.321684,6.42084 3.238605,-2.00663 8.772962,-9.1417 6.224941,-10.5446 -3.128542,2.94372 -6.820066,12.60602 -12.121639,7.30313 4.161974,-0.53431 12.183976,-8.77727 8.226546,-9.40931 -2.879194,6.07285 -12.622284,4.33201 -15.097261,8.51149 1.651933,2.71629 9.607702,7.85661 1.210703,6.27743 1.087003,3.85068 7.788239,6.2747 12.327157,5.87009 z m -1.301287,-9.21842 c -0.862979,-2.37562 2.144785,0.95628 0,0 z m 0.824019,7.13599 c 3.94769,0.084 7.263243,-8.14158 2.031799,-2.5793 -1.380182,0.37995 -6.425589,2.73639 -2.031799,2.5793 z m 0.870771,-4.82248 c 3.537629,-1.68056 4.17561,-6.25095 0.360386,-2.33452 -1.414273,0.19363 -3.61068,3.81323 -0.360386,2.33452 z m -52.74301,6.50669 c -1.0159,-2.42768 1.782451,-3.38852 0,0 z m 35.523367,-0.13061 c 1.424986,-5.55041 6.456757,-0.0995 0,0 z m 1.702581,-0.69597 c 4.51262,-3.19672 -4.100611,0.99007 0,0 z m -7.996678,-0.32515 c -1.474661,-4.48454 3.988599,2.43224 0,0 z m 1.04025,0.22377 c 0.765577,-2.40667 -2.817831,-0.48408 0,0 z m -40.403191,-2.24958 c 1.475636,-6.29479 6.407083,-0.0868 0,0 z m 1.531155,-0.55714 c 3.932105,-2.32721 -0.479217,-2.45142 -1.087003,-0.0493 z m 4.417166,-14.50761 c -2.364913,-7.18166 -6.206435,-15.787217 1.655828,-21.354071 2.3279,-3.751118 3.121724,-12.220591 8.576218,-11.755697 0.131492,3.242384 -3.183087,9.76186 -2.736987,10.832303 0.66915,-4.48271 6.163578,-2.762877 4.206779,0.328805 4.880798,2.775664 2.301601,8.32242 2.172057,11.24057 4.383076,8.27036 -8.973617,4.83161 -11.322945,6.02718 2.799324,1.1362 -0.461684,5.12571 -2.55095,4.68091 z m 1.125963,-0.4786 c 6.569743,-5.85364 -6.710976,-3.2707 0,0 z m 11.01613,-4.15573 c 5.366833,-2.32995 -3.134386,-8.99465 2.75452,-11.54654 0.585384,-3.570275 -6.696366,-4.727487 -3.565876,-8.711509 -4.683073,1.613885 -5.512935,9.788349 -8.091157,11.120009 -2.007449,-2.062341 5.537285,-9.005609 0.225971,-5.535802 -0.656487,-1.748147 1.257456,-5.404278 0.46558,-1.324354 4.733722,-2.523579 4.790215,-8.658535 5.565532,-13.047171 -6.044748,4.776808 -6.331109,13.458178 -12.297936,18.434097 -0.215257,3.9758 3.589252,-2.4359 1.560375,2.60578 -5.035667,3.62416 1.85258,9.36181 7.200906,6.4117 2.169136,-0.1845 4.309051,2.05412 6.182085,1.59379 z m -8.721346,-3.56571 c -1.207781,-4.73297 11.759305,-6.38156 3.231787,-2.84964 -1.080184,0.94714 -2.033747,2.02306 -3.231787,2.84964 z m 3.909703,-3.78582 c -1.76297,0.38452 -2.024007,1.16177 0,0 z m -3.266852,-4.527468 c -3.496721,-0.770866 -2.931791,0.255737 0,0 z m 1.88667,-2.676109 c 3.691524,-3.834233 -3.504512,2.579294 0,0 z M 80.60471,111.48026 c -4.372361,0.0137 2.403874,-5.87466 1.69479,-6.83915 1.347065,3.10903 4.725929,6.89943 -1.69479,6.83915 z m -0.811355,-0.67679 c 3.148996,-4.10642 -2.365887,0.78913 0,0 z m 2.222706,0.3562 c 4.634372,-0.50873 -1.831152,-10.11806 -0.497723,-3.50451 -0.07208,0.82018 -1.816541,4.02603 0.497723,3.50451 z M 68.195736,110.9907 c -1.660698,-7.57165 4.394764,-1.62576 0,0 z m 0.844473,-0.42197 c 1.72888,-2.93823 -1.938293,-3.46798 0,0 z m -2.136993,0.0594 c -7.174608,-0.76995 3.996391,-12.448926 0.978887,-3.03231 -0.13344,1.04669 -0.282465,2.15824 -0.978887,3.03231 z m 0.445126,-0.70602 c 3.003868,-4.67908 -4.315869,-4.78959 -2.658092,-1.00924 0.866875,0.38817 1.888619,0.41922 2.658092,1.00924 z m 5.620077,0.20094 c -2.590885,-5.06451 -4.918785,-11.125486 -6.233708,-15.861194 1.365572,1.006509 6.60286,2.516273 2.936661,-0.664003 -7.285646,-3.372993 -0.666228,-15.782647 6.599938,-16.467658 8.834332,-1.233019 13.589482,10.434997 8.948292,16.442997 -4.067494,-0.68775 3.506461,4.863576 -3.138282,5.251749 -5.083394,0.975455 -2.317186,10.318089 -9.112901,11.298109 z m 1.219469,-1.02934 c 3.147048,-3.91826 -5.636635,0.23473 -0.192856,0.68227 l 0.107142,-0.38087 z m 2.477899,-2.51993 c -1.049017,-1.09693 -0.20844,3.97946 0,0 z m -2.676599,-0.51421 c 1.767841,-4.57131 1.392844,-3.78857 2.158422,-0.82476 1.548686,-3.5246 1.329533,1.31979 2.579196,-3.5109 -3.400293,-4.083581 9.452833,-2.75466 4.448335,-7.409079 -1.899333,5.950459 -14.060907,0.214636 -5.555792,-0.822013 5.668778,1.486016 5.075602,-5.861865 6.335979,-6.424487 -0.834732,3.379386 0.464606,8.515139 2.30842,2.255968 2.389263,-7.564345 -8.447648,-16.19548 -14.814795,-9.772819 -2.543158,4.710133 -8.430116,12.091809 0.642851,14.960634 -0.04091,5.943156 -8.131093,-3.223204 -3.876587,3.562055 3.47724,1.931731 0.764603,8.322421 5.773971,7.985401 z m -3.103217,-2.51536 c -2.131149,-3.573018 1.899333,-4.250722 0,0 z m 2.249979,-2.983 c -5.64248,-3.571184 4.710345,-4.098186 0.457788,0.27949 l -0.458762,-0.27949 z m 1.096743,-0.72428 c -1.977255,-5.815284 -3.10614,3.16932 0,0 z m 1.791216,-1.203792 c -1.090898,-2.505312 2.888934,0.205503 0,0 z M 70.16325,98.118893 c -0.796745,-1.74084 1.633427,0.646651 0,0 z m 1.37239,-5.160414 c -3.102243,-2.511706 1.344143,-1.087797 0,0 z m 1.01103,-0.308711 c 0.651617,-2.197515 0.217205,1.93447 0,0 z m 1.97141,0.138829 c 0.937004,-2.347304 3.216203,-0.379953 0,0 z m 5.135016,-2.251402 c 1.301287,-2.925453 1.897385,0.246604 0,0 z M 67.948336,90.02846 c -1.005185,-2.950113 2.344459,1.167258 0,0 z m 9.82783,-2.463298 c 0.0263,-3.710932 1.51557,0.06393 0,0 z m 5.697998,-2.137234 c -0.624345,-2.718122 1.373364,1.938124 0,0 z M 78.5846,85.285446 c -0.739279,-3.525522 6.860974,-5.445379 3.160684,-2.179247 -1.373364,-0.15801 -3.094451,0.767212 -3.160684,2.179247 z M 79.490435,96.8329 c 8.211936,-4.667206 -9.774258,-3.826927 -2.264589,0 0.637007,0.401873 1.665569,0.567189 2.264589,0 z m 6.298967,-3.351986 c 2.006475,-4.274467 -3.144126,2.280629 0,0 z m -2.270433,-1.295127 c 0.04188,-6.471068 -1.35291,-2.684328 0,0 z m 3.194775,15.764383 c -5.013265,-2.18656 -1.910047,-13.946821 1.131807,-5.27185 2.464263,2.72543 2.110695,3.35199 -1.131807,5.27185 z m 0.402269,-0.643 c 5.893775,-2.08791 -6.787923,-13.104711 -2.136019,-3.48259 0.543501,1.24032 1.231157,2.43863 2.136019,3.48259 z m -25.183205,-1.25585 c -6.249291,-4.32288 10.134645,-10.448699 3.373021,-2.62405 -0.655514,1.28234 -1.921736,2.23131 -3.373021,2.62405 z m 1.152262,-0.43293 c 2.90257,-2.99669 4.652879,-8.722469 -0.834732,-3.88264 -3.274645,2.07969 0.871745,3.80501 0.834732,3.88264 z m 27.33773,-1.45405 c -3.589252,-0.89508 -5.117484,-11.265228 -0.733435,-4.860835 3.762627,-2.514446 4.331453,5.602475 0.733435,4.860835 z m 0.888303,-0.33428 c 0.326296,-2.14637 2.636664,-4.499154 -2.107772,-5.26454 -4.564243,-1.300607 1.344143,4.28177 2.107772,5.26454 z m -30.914319,-2.63775 c -4.991836,-0.96906 3.765549,-9.361815 0.878563,-8.85034 -4.30418,7.03643 -7.644084,-1.374588 -1.801931,-4.149339 1.577907,-2.007538 8.23726,-9.678744 8.292779,-4.858096 -1.649984,1.580092 -7.178504,6.344113 -1.628556,3.494468 -1.082133,3.635124 -5.978515,8.702377 -0.494801,6.227205 1.093821,4.228799 -3.190879,6.065541 -5.246054,8.136102 z m 1.065574,-1.269555 c 0.900966,-1.728967 6.579484,-7.390809 2.777896,-6.309405 -2.205174,1.348101 -8.852838,8.71334 -2.777896,6.309405 z m -2.609391,-5.764137 c -0.477268,-4.093624 9.413873,-9.530782 6.486952,-10.992139 -3.289255,2.598474 -11.031714,9.136217 -7.33532,12.382254 0.829862,0.03836 1.152262,-0.827493 0.848368,-1.390115 z m 2.374653,1.28508 c 3.725615,-2.78845 -0.405191,-4.940297 0,0 z m -0.101297,-3.252431 c 3.552239,-1.146251 6.038904,-7.665726 1.305182,-2.655101 -0.194803,0.165316 -3.077893,3.8662 -1.305182,2.655101 z m 43.041797,5.606128 c -3.99346,-5.11292 9.75576,-3.687184 2.42044,-2.023065 -0.98084,0.515128 -1.28571,1.701567 -2.42044,2.023065 z m 0.61364,-0.921568 c 2.96393,-0.673137 5.9902,-3.812313 0.71103,-2.547326 -1.05486,0.385432 -2.1331,1.843135 -0.71103,2.547326 z M 90.249425,97.67044 c -4.654826,-3.337372 -2.457445,-13.338529 2.395107,-6.000694 4.639242,4.02969 -1.483427,5.56868 -2.19933,3.918261 0.256167,0.09042 1.247716,2.435898 -0.195777,2.082433 z m 0.338958,-0.742552 c -1.003238,-3.706365 -1.074341,1.443089 0,0 z m 2.091214,0.07124 c 4.664566,-3.478028 -7.174608,-11.948413 -4.53697,-4.091797 0.587332,3.896341 3.073023,-2.190208 3.584381,2.915405 0.265907,-0.406439 0.508437,1.966438 0.952589,1.176392 z M 57.420189,88.089423 c 2.032773,-4.155732 5.754491,-0.24843 0,0 z m 0.981809,-0.520608 c 3.450941,-2.253229 -2.103877,0.440234 0,0 z M 93.534784,214.59081 c 2.875297,-2.90993 -0.456814,-10.83687 2.994127,-6.77065 4.625609,-7.10767 0.01461,-17.37735 -3.253216,-24.92525 -1.36752,-2.37471 -2.797376,-5.77419 -1.310053,-1.07958 -0.676941,4.98688 -2.825622,7.65659 0.355517,12.43249 2.540235,6.3295 -3.331138,15.87124 1.213625,20.34299 z m 1.15908,-13.60523 c -1.257456,-0.95353 1.477583,-4.0443 0,0 z m -1.768815,-7.53238 c -3.45289,-3.40039 1.151288,-3.14556 0,0 z m 22.619591,17.92537 c -0.81233,-8.97456 -8.40771,-16.82569 -5.75157,-26.15919 -1.87401,-3.29628 -2.77984,-13.58331 -3.66912,-4.49093 -1.47076,2.59847 -0.62337,9.4641 -2.96978,7.65659 0.51234,2.72451 -0.79869,10.70443 -0.82012,3.26339 -1.42596,-6.49207 5.80514,-14.37061 -2.407768,-18.61037 -1.342195,-3.91735 -5.76618,-4.10733 -4.400608,0.60098 -5.296704,5.35039 0.442203,10.68343 2.249979,15.60546 2.154525,5.96233 1.015899,14.46469 7.607067,17.94911 3.28731,-3.30358 -3.33406,-11.15746 0.20065,-15.68858 -1.17856,6.87112 1.41525,13.34401 6.19085,17.78288 1.03538,1.0056 2.46621,1.48328 3.77042,2.09066 z m -4.53892,-7.33419 c -2.96101,-3.44149 -1.11525,-5.92306 0.20844,-0.76903 0.61363,-0.0137 0.3263,1.39102 -0.20844,0.76903 z m -2.64153,-12.40782 c -0.57857,-5.60065 1.94511,-3.54288 0,0 z m -9.611598,-8.44116 c -1.841866,-4.18496 0.129544,-7.72418 0,0 z m -7.545709,21.35772 c 4.558399,-4.64894 -1.643166,-16.04295 -2.240238,-16.65855 0.735382,5.57599 5.00255,10.94739 2.240238,16.65855 z m 8.858687,-0.99098 c 1.02466,-8.3617 -3.420751,3.10447 0,0 z m -0.963306,-3.78766 c 3.426586,-1.96826 -4.153208,-8.52062 -0.575644,-2.41671 0.158764,0.40461 -0.153895,5.01701 0.575644,2.41671 z m -74.282418,-5.30015 c 6.146046,-0.77178 -9.269718,-8.43659 -3.47724,-1.5737 1.028562,0.73707 2.211993,1.29695 3.47724,1.5737 z m 72.573992,-4.59049 c 1.552583,-3.46433 -6.02332,-9.01748 -1.450311,-2.86243 0.165583,1.2248 1.529206,7.73606 1.450311,2.86243 z m -63.419208,1.0056 c 2.910362,-1.41204 -6.218123,-4.28817 -6.95448,-4.74393 -4.928525,2.6825 4.608074,6.23542 6.95448,4.74393 z m -15.172259,-1.13986 c 7.807718,-1.68056 -5.80027,-12.54666 -1.562323,-3.71824 0.396424,1.18644 0.08669,3.09808 1.562323,3.71824 z m 5.45839,-3.06154 c 8.604464,-3.30084 -7.759992,-13.35314 -3.087634,-3.8662 0.893174,1.37915 1.957774,2.65236 3.087634,3.8662 z m 13.628443,-6.17423 c 3.740224,-2.58477 -2.561664,-11.58399 -1.993813,-4.32927 0.443178,0.54344 0.655514,8.19182 1.993813,4.32927 z m -22.4881,0.15253 c 5.796374,-1.46866 3.142178,-11.93106 1.042198,-13.97605 -2.33277,4.30552 0.96038,9.53992 -1.042198,13.97605 z m 3.973014,-2.72269 c 9.130434,0.89873 3.420747,-9.80935 9.863869,-12.48546 2.756467,-8.79189 -12.253132,-3.58855 -10.586589,3.08711 -0.08474,3.19763 2.072708,6.1651 0.72272,9.39835 z m 2.869454,-4.88641 c -0.66915,-5.19238 2.619131,-3.41409 0,0 z m 1.529206,-3.14283 c 0.815252,-2.13723 1.482454,0.90695 0,0 z m -3.543473,-4.0306 c -1.25843,-3.30175 1.672387,1.03208 0,0 z m -0.835706,5.68559 h 1.016873 z m 15.313492,1.48236 c 6.566821,-0.67496 -4.206779,-14.63914 -5.095082,-6.44915 -0.617527,3.31545 4.595411,5.33761 5.095082,6.44915 z m -5.803192,-3.34285 c 0.05065,-2.63958 -2.87335,0.15527 0,0 z m -12.370014,-5.96416 c 0.808434,-4.54665 -4.003209,-2.34639 0,0 z m 3.47724,-2.1345 c 5.431118,-6.48568 3.964249,-15.89225 9.340822,-22.14685 4.801902,-3.6881 0.853238,-7.44196 -1.73375,-9.86689 0.191881,-2.56012 2.629845,-11.44242 -1.416221,-4.96405 -2.877245,3.60316 -7.582721,14.74509 -7.816485,14.33956 -0.827914,6.38521 2.661014,13.35862 -0.900965,19.22962 -1.344143,2.1692 -0.547398,5.22435 2.526599,3.40861 z m 0.706163,-13.35314 c -1.161028,-3.6744 1.603231,-11.88356 3.231787,-11.94567 a 101.29775,94.988153 0 0 0 -3.231787,11.94567 z m 1.169794,-8.09317 c -0.712981,1.68421 -0.473372,2.07147 0,0 z m 2.294783,-6.39161 c -0.506488,-3.21316 2.066864,-0.82201 -0.01364,0.34159 z m 0.935056,-2.52084 c 0.452918,-2.80124 3.332112,-0.93801 0,0 z m 5.958061,28.52111 c -2.882115,-0.95628 -0.550319,-10.8661 -0.547397,-4.94669 2.130175,-3.68262 6.190851,-9.8121 1.678231,-7.59631 2.003552,-6.18337 8.750567,1.86596 9.511274,-5.30655 2.191538,-2.80581 1.047068,-11.25975 -0.69837,-4.32379 -4.504828,2.751 -11.013208,-1.34993 -13.699547,5.21521 1.27304,5.71847 -3.550291,11.08348 -3.432435,16.51881 1.912969,-3.55749 5.246055,2.84782 7.188244,0.43932 z m -6.886299,-4.23063 c 1.992839,-2.93184 4.387946,-15.92878 1.356806,-6.2747 -0.904862,1.90707 -2.517834,4.14021 -1.356806,6.2747 z m 99.442247,-18.86428 c 5.78566,-5.28372 -1.14934,-15.43557 -7.24474,-16.05208 -5.14768,-3.42688 -8.20609,2.75283 -2.07563,3.71823 7.16584,2.14454 3.53276,11.65432 9.32037,12.33385 z m -59.488077,-4.60875 c 0.59902,-2.98391 6.370069,-5.48009 1.005185,-5.71756 1.1883,-3.42871 3.964248,-9.82397 -3.01653,-8.55441 -3.570746,-0.80649 -9.105109,-12.55305 -7.488241,-3.8799 1.399662,3.531 10.908014,10.50623 2.052253,6.74416 -2.590885,1.29056 9.045694,9.45314 1.801931,6.16875 -2.507119,-0.85946 4.489244,6.46193 5.645402,5.23896 z m 66.429897,-1.66777 c 0.5698,-3.71916 -5.30547,-5.98243 -2.56264,-5.61709 -2.13797,-2.61766 -8.20025,-6.65831 -4.41814,-0.52974 1.68797,2.2998 3.4149,6.36694 6.98078,6.14683 z m -74.594106,-7.08758 c -1.086029,-3.71733 -2.990232,-3.39857 0,0 z m -0.02922,-4.39229 c 0.301945,-3.4488 -5.857737,-7.73606 -2.040565,-2.29433 0.791876,0.4448 0.552268,3.98859 2.040565,2.29433 z m 63.712386,-0.30415 c 4.4347,-5.75409 3.54834,-16.09227 -1.48148,-18.19479 0.57467,4.52107 -3.48308,13.9459 -6.04377,4.86997 -3.24251,-4.05709 7.4746,3.87716 5.21586,-2.28885 -0.54545,-5.680112 4.6743,-11.647926 -0.52305,-16.780939 -3.68276,2.845077 1.45615,12.702838 -6.0467,7.562518 1.99187,7.149681 -15.67777,5.277323 -9.09829,12.985981 1.58473,1.8614 6.5152,1.99566 1.49317,3.20585 -6.736299,6.31853 5.51293,9.25221 10.54081,7.24924 2.28894,-0.49504 4.00905,2.21578 5.94345,1.39102 z m -6.07786,-2.87704 c -0.85324,-2.51536 1.61686,1.32618 0,0 z m 1.76297,-0.93984 c -3.48698,-1.33988 3.20451,0.12787 0,0 z m -2.45647,-0.0521 c -3.45582,-0.63934 -9.8142,-11.46799 -3.6253,-4.12193 -0.21038,1.98196 6.34183,2.80123 3.6253,4.12193 z m 0.31752,-0.44754 c -2.33277,-2.28702 -3.89217,-1.33988 0,0 z m 4.09575,-1.15355 c -1.62369,-2.01576 1.26524,-2.68342 0,0 z m -7.83694,-11.331 c -6.03501,-4.967693 2.16231,-0.90238 0,0 z m 13.93525,16.36445 c 2.90744,-4.90467 -3.80256,-4.82795 0,0 z M 116.4982,106.4769 c -2.68633,-3.28805 -3.50938,0.90147 0,0 z m 1.09675,-6.08929 c 0.46265,-4.374936 -0.72759,4.00959 0,0 z M 93.90004,91.446889 c -1.817516,-2.532713 -1.165898,-6.453714 1.678231,-2.597561 0.72272,-4.309174 -12.644686,-8.743476 -5.503195,-2.827724 1.708425,1.496977 1.587647,4.46901 3.824964,5.425285 z m 1.85258,-4.398682 c -1.640245,-2.98208 -1.518492,0.258477 0,0 z m -7.646032,-5.275496 c -2.295758,-2.314423 -2.175954,0.503255 0,0 z"
     style="display:inline;fill:#000000;stroke:#000000;stroke-width:1.3205;stroke-dasharray:none;stroke-opacity:1"
     id="path1" /></svg>
