<svg xmlns="http://www.w3.org/2000/svg" xml:space="preserve" width="578.37" height="230mm" viewBox="0 0 153.03 230"><path d="M68.96 221.26c-.95-2.13 2.55-6.48-2.72-6.53-5.92 1.04.72-5.32-1.39-8.24 2.02-6.68-6.47.38-8.78-3.97-2.83.3-5.52-.78-6.46 1.05-2.33.38 2.91 5.53-1.9 6.59-5.22 2.74.59 7.7-4.47 8.89-3.6 1.87-6.68 1.69-7.97-2.06-.03 2.53-3.48 5.25-5.35 3.23-.73-3.85 3.6-5.78 1.9-9.8-.67-1.54 5.84-.9 1.34-2.68-4.73 1.3-.85-5.6-1.73-8 4.81-.05 3.95-7.32-.06-5.79-.07-1.89 2.28-7.15-.87-6.48-3.04.8 0-4.02-1.84-4.91 2.27-2.92-.4-8.07 3.3-8.5-3.12-2.87 1.81-7.08.23-10.92 2.27-3.73 3-6.9 2.18-11.1-3.3.96-6.03 8.5-9.62 6.18 1.17-5.08 4.43-8.44 6.83-12.74 1.3-5.75 6.27-10.27 6.21-16.6-1.61-5-2.54-12.33 3.14-15.34 7.48-1.75 1.34-8.94-.86-11.75-2.32-4.75-.73-11.13 3.28-14.35 4.73-.79 8.48.62 12.03 2.2 4.08-.38-1.62 4.15-.46 6.22-4.05.4.1 4.65-1.95 7.77.6 3.36 4.76 2.34 6.57 3.5 3.38.6-3.64 4.66 1.61 2.76 1.03-2.99 5.87-2.4 5.85.98 2.92.6 6.75-.56 4.13 3.16 2.72-.1 7.2 1.81 3.46 3.62-4.57.36-2.75 1.73-.17 3.78-.11 2-3.18.7-.26 3.24 1.49 3.63 2.12 5.96 7.18 5.58 4.6-.3 2.4 2.76 2.75 4.8 3.87 2.16.03-5.26 4.65-2.5 5.38-.44 4.69 4.68-.06 5.07-6 1.92-.84 9.47 2.35 11.56-.17 5.16-8.8 2.95-9.3-1.84-2.14 1.36-.85 8.26-2.12 11.68 4.1 3.55.81 7.84-.31 12.08.16 2.84-1.98 2.7-4.16 2.52 1.55-4.06-4.08-5.14-2.4-8.37 4.58-3.86 3.66-10.2 1.9-15.23-.7-3.82-6.72-4-3.52-8.87-1.54-2.94-3.24-4.92-3.6-8.76-2.8-.16-3.93-9.6-5.48-2.78 2.25 3.77-3.89 2.31-2.5 5.42-3.99-.21-3.88 6.68-5.34 8.06.32 1.93 6.24 3.36 2.06 4.63.18 2.76 4.8 4.73 4.01 7.88 5.15-1.95.1 5.32 5.53 4.86 5.08 3.03-4.01 3.96.28 7.23.84 2.74 5.94 7.15.65 6.74 2.73 2.54 6.87 5.19 7.22 8.7-2.62-1.71-5.32 1.17-2.09 1.16 4.21-2.07 5.27 7.04 10.78 5 7.17-1.17 2.55 4.16-.15 6.6 1.42 3.55 7.08 3.36 6.76 7.6-5.17-1.74 1.37 3.92-3.76 2.2-2.9.63-4.68-3.64-6.08-.63-3.64-.98-7.22.6-4.72 3.66.93 3.2 6.77 6.62 1.94 7.68 1.84 2.24-4.55 2.55-4.43 4.9-1.06.12-2.19.29-3.24-.04m3.63-6.61c-2.85-4.25-1.7 2.9 0 0m-11.56-13.33c-2.56-1.77-.05 2.56 0 0m-13.62-99.84c.17-3.7-5.12 2.8-.42.58zm29.44 85c-1.11-1.76 2.23 2.23 0 0m-62.6 37.2c2.98-2.9 7.68.8 10.5-2.99 3.7-.74-3.33 2.14.7.82 2.24-1.53-.41 2.56 2.8.8 3.75.32-4.1.65-5.63.4-2.9 1.68-5.58-.22-8.37.97m24.55-.05c-5.3-.45 2.72-1.6 1.98-.4l-.75.19zm31.25-1.17c-4.61-1.6-4.48-3.6 0 0m5.98.16c-2.9-.44-7.32-1.6-1.82-.59 5.62 1.72 4.59-3.59 2.44-3.59 3.88-.52 4.51-6.79 6.32-2.2-1.8 1.93-7.27 1.86-2.21 3.74 3.75 1.38-3.91 1.96-4.73 2.64m-41.96-.43c2.1-1.7 2.18.65 0 0m49.02-.34c-.88-1.74 2.25.08 0 0m-63.75-.14c-1.37-.9 4.02-.28 0 0m13.11-.03c-.74-2.15 1.68.17 0 0m6.96-.07c.87-1.86 5.24-3.2 6.45-2.9.42 2.82-5.14 1.03-6.45 2.9m3.68-1.34c1.15-.78-2.63.58 0 0m-20.65 1.1c1.78-1.58 6.72-9.23 7.13-6.91-.64 2.77 3.07-3.3.06-4.32-4.53-3.42-4.95-8.94-.69-12.54 1.5-2.11 2.83-10.74.28-3.8-.48 2.33-.12-3.26-1.17.49-1.92 3.23-5.7 1.1-8.46 4.43-4.38 2.5 1.55-4.6-2.38-.61-.66-2.92 7.06-5.43 9.36-7.5 1.6-4.18-1.97-2.66-.5-7.36 1.57-5.83 3.7-11.6 4.11-17.64 1.6-2.75 3.59-10.17-1.94-5.67-6.06 2.12-2.28 13.85-6.42 14.33-3.56-1.93 4.87 5.27-1.2 2.78-2-1.06 3 4.43-.7 1.2-3.63-4.56-1.15 4.7-3.34-.14-2.7-6.29 2.36-11.28 3.45-17.2 3.56-5.2 6.88-9.9 8.72-15.67 2.54-3.5 9.78-11.09 5.17-13 .75-2.08 2.8-4.13 1.05-3.42.03-6.95 1.34-15.25 8.13-18.8-1.11-5.82-7.3-9.5-5.28-15.92.06-2.34 2.85-11.76 3.77-7.13 2.46-2.14 6.34-4.24 7.93-4.13 6.22-4.76-3.92 2.9-.38 2.75 2.53-2.37 1.36-4.1 2.16-.42 2.1 2.04 11.79-2.1 5.5.65 1.06 7.87 7.51-5.06 6.85-5.47 1.75 4.74-2.52 7.4-2.93 11.05 2.1-1.6 4.2-4.49 1.41-.62-4.46 2.21-8.24 8.01-2.37 5.72-3.56 1.68-7.93 10.6-1 8.31 1.87 1.92 8.14-5.43 4.82-.07-2.64 5.35 8.01-.78 3-3.97-5.28-5.08 9.84-10.58 5.66-4.25-.97 2.85 2.49 11.18-4.47 10.03.08 5.83 10.07-.36 8.34.37 2.43-.82 2-.55.14 2 1.6 2.15-3.55 4.08 1.38 5.05 3.2.33 5.32-8.88 4.82-1.97.13 5.6-11.42 7.33-4.15 10.95 6.38 2.07-.74 1.88-3.2 2.07 1.6 2.44 5.2 3.2 7.4 4.03-1.86 1.76 6.08 1.87 8.25 2.82 5.1-.5 13.3 2.23 7.77 8.15 1.08-3.4-1.94-8.59-5.67-4.08-2.08 3.3-9.58 4.49-3.85 7.71 2.22 1.4 2.24 2-.19.78 2.17 7.45 13.35-1.18 15.32 7.22 2.43 6.84-2.65-3.24-6.15-.03-1.37-.08-4.44 1.83-1.33 2.34-2.76 2.2-6.86-1.87-1.67.18-3.59-4.2 12.66-1.86 5.08-4.89.33-2.58-14.1 2.12-11.75-5.67-3.9-.8-2.55-6.74 1.27-4.48-3.3-1.91 4.93-1.86 4.85-5.13 2.68-1.97 7.79 4.95 4.08-.78-7.24.82-14.21-2.43-20.67-5.28-3.86-1.29-4.35-5.7.75-4.14-3.7-.55-8.24-8.29-1.26-5.48-4.12-3.66 6.47-1.97 4.47-7.17-.4 6.4-10.83 1.68-6.3-2.12-3.31 1.23-12.27 3.52-7.9-2.94 6.7 1.4 4.85-8.58-.55-7.93 2.63-2.03 2.5-4.97.08-1.25-4.05 3.87 5.07 4.12.7 7.9-2.8 3.28-9.24 5.18-4.7-.17-4.76 1.67-12.94 2.08-9.06-5.42-2.32-3.33 5.4-4.27 4.31-7.76-1.71 3.27-4.77 3.5-1.6-.06 1.91-.44 8.51-6.09 3.22-4.04-1.7 2.38-10.13 2.8-6.3-.56 2.73 1.2 1.88-3.35-.42-.27-3.85 3.31-1.35-3.48-4.17.1-4.51 3.2.4-4.91-4.19-1.64-3.51 1.43-4.06 4.74-2.65 3.55-5.27 3.46-4.55 11.97-1.09 16.42 3.14 2.67 4.97 6.73 0 8.05-5.82 2.52-5.85 9.47-4.4 14.7-.9 3.31-.2 2 .86-.04 0 6.1-3.6 11.3-6.27 16.14 1.04 3.3-4.82 7.14-.96 1.7-.17-2.26-3.3 6.45-4.72 8.42-.45 3.04-7.1 10-5.25 10.1 1.54-1.43-2.4 5.53-3.25 7.45-2.79 2.58 1.32 10.77.14 3.19 1.09 2.26 4.94 6.78 2.3 1.55 4.87 3.05.46-1.44.83-2.7 4.93.97 1.64-9.26 5.24-12.27 4.44-1.82 4.67-6.52 8.65-8.85-.62 4.98-2.57 10.8-4.52 15.94 2.46 1.94-2.58 8-.3 10.76-.96 1.72-5.3 8.85-1.08 5.48 2-1.33-1.28 6.54-2.77 8.01-.95 1.08-7.28 4.01-4.2 4.24 5.22-3.85 6.38-5.21 10.12-9.34 1.44 7.24-7 12.97-4.24 20.13 3.68 2.05 7.42 8.8.34 9-2.67-.33-2.05 4.43-5.26 4.79m8.95-6.15c2.14-3.24-2.59 1.3 0 0M18 196.68c3.64-2.4.86-1.53-.93.4zm8.6-1.32c3.34-3.61-4.54.18 0 0m-.5-1.16c4.35-2.42-1.88-.7 0 0m3.88-3.95c-1.7.1.3 3.52 0 0m-1.88-8.53c4.55-5.99-2.71-1.11 0 0m3.82-18.77c1.99-5.08-1.36 1.79 0 0m-1.44-3.45c3.02-1.05 2.99-7.44.66-2.43l-.35 1.09zm2.78-4.99c1.73-1.68.4-2.22-.46.05zm-2.43-8.42c2.5-1.81-1.82-.12 0 0m67.9-7.84c2.51-.66.98-3.04 0 0m-20.7-15.34c-1.22-1.46-2.24 1.3 0 0m.16-5.34c2.07-2.69-1.84-.31 0 0m3.28-7.2c.27-2.05-1.21 2.41 0 0m-11.2.26c-.84-4.12-3.99 2.35 0 0m-2.08-1.6c-.03-1.46-2.65 2.75 0 0m-4.89-2.67c2.4-1.3-.22-1.48 0 0m-8.55-4.37c1.32-2.92-2.51.56 0 0m.92-3.3c.55-2.1-1.91 2.43 0 0m13.3.46c8.22-4.45-5.36-4.64 0 0m2.42-3.6c2.53-2.88-3.12-1.15 0 0m-32.9-2.54c1.93-4.4-1.18 1.44 0 0m19.33-1.78c3.16-3.36-2.96 2.14 0 0m-18.76-.53c1.69-2.45-1.44-1.97 0 0m24.54-8.46c.49-2.45-2.74-.36 0 0M35.36 221.2c-3.65-1.46 1.62-.14-.71-3.03-.23 1.51 4.57 2.62.7 3.03m38.29.06c-1.7-1.4 2.99.46 0 0m23.75-.72c-2.7.59-6.13-6.12-3.95-.43.72-6.99-7.3-14.65-11.35-13.85 5.23-1.67 9.15 5.4 11.15 9.19 1.86 2.8 2.3-5.61.66-.16 3.16-4.53-3.08-7.08-3.92-9.83-2.67-.62-3.4-3.22-1-.75 3.02 2.18 9.72-4.03 2.37-2.47-3.79-.06-3.85-3.44-3.08-3.83-3.53 2.37-8.33-4.73-2.49-4.58 1.15-2.45 4.53-8.09-.82-4.62-4.09 1.27-12.03-4.1-9.1-6.08 1.73 1.36 6.58 3.95 2.58.44-5-2.32-8.28-6.67-11.06-9.53 1.27 2.94 3.97 2.45 2.63-.9 1.33 8.67 8.34-4.04 2.08-3.84-1.54 1.96-1.12 5-3.81 1.81 0-2.03-5.8-8-.9-5.36-1.13-2.59 3.48-4.42-1.2-5.75-7.62-1.17 1.07-7.28.9-11.18 1.9 4.2-4.2 7.58-3.06 10.04 2.34 1.7 7.75-4.43 3.6.09 3.96 2.6-1.41 5.59 1.91 7.1-2.15 1.3-4.44 3.33-.17 3.12 1.35-1.68 5.64-7.12 1.68-7.63 2.29 3.2-2.78-4.1 1.08-.25 5.17-1.7 1.66-10.6-.17-13.97.02 2.8.35 6.88-1.34 1.64-1.74-3.91-2.51-13.28-3.63-14.2-.83 1.54-6.1-5.82-6.5.43-.92 2.96-7.23 7.25-1 6.52-.84 3.72 3.46.66.83-.61 3.77-4.8-.68 5.67.13 8-1.05 3.4 7.32 2.65 1.47 3.44-4.58.26-4.16-4.48-2.05-5.65-3.36-1.4 1.73-1.85-2.12-1.3 1.94-4.29-4.37-2.56-1.4-6.65 2.76-3.77 8-5.72 6.95-10.13 2.5 1.5 2.9 5.01 4.36 4.95a87 87 0 0 0 3.49 15.11c2.63-5.45 5.04 6.87 4.56 9.74-.04 5.02-6.53 7.76-6.04 12.93 1.43-4.3 6.73-3.29 4.67 1.49-.59 2.11-3.53 8.65.1 3.55 4.18-6.29-.14 1.9.55 3.99 5.67-3.87 3.24-12.46 8.17-16.7-3.07-2.69-4.01-12.2-.64-13.4 4.95 1.36 5.92 11.06 11.8 6.86.22-4.5 12.72 9.07 7.53 1.74-.71-1.96 5.03 6.29.75 2.56-2.74-4.27-6.86-4.77-10.86-2.47-3.65-.56-8.24-11.94-10.26-4.51-.75 3.87 2.1 14.98 6.24 9.34-.14-5.17 2.77 4.17-2.1 2.56-6.6-1.72-4.26 7.37-8.1 11.03-2.57 3.02 1.48 6.79 2.86 4.93 1.1 3.15 3.46 9.82 6.78 4.49 6.05-1.36-.11 7.52-2.11 8.57-3.5-.96 1.5 5.23 3.4 1.53 3.97-3.54-2.2 5.62 3.4 4.6 2.26-1.16 11.13-.77 5.81 1.1-5.42.8-7.37 6.36-1.97 8.65 1.73 3.65-5.58 8.09 1.7 9.09m-.12-18.14c4.72-1.55-3.8.17 0 0m-1-.44c2.24-1.42-3.32 1.03 0 0m-15.51-13.2c-.9-2.64-5.58-7.15-4.43-3.11-.25 1.83 2.89 3.18 4.43 3.12m-6.67-8.7c-1.13-2.3-.79 2.43 0 0m.46-2.22c2.68-1.5 1.87-6.15.4-1.23zm-6.23-11c3.55-2.09-3.56.21 0 0m15.28-.05c2.04-.38-.49-1.37 0 0m-17.49-1.38c-3.33-2.88 1.1 1.98 0 0m9.4-8.3c-.74-4.61-1.18 1.4 0 0m5.46-3.59c-1.39 2.13.3 3.38 0 0m-6.03 1c.67-7.68-1.24 3.3 0 0m-14.35-8.74c1.51-2.08-1.56-1.78 0 0m-.75-1.58c2.88-1.84-2.68 1.01 0 0m5.73-10.88c1.63-5.54-5.19-1.67 0 0m-2.29-3.92c-1.13-2-.94 3 0 0m10.35 90.62c-.5-2.39 3.85 1.6 0 0m-14.77.04c-1.92-2.35-2.57-3.72.4-.98 3.39 1.75 3.88.6-.4.98M26.2 220c.86-3.76 6.23-.22 1.2-.04zm2.1-1.18c-1.04-2-1.98 3.04 0 0m38.88.1c2.5-1.49-1.1-6.1 1.9-1.99 1.39 2.68-1.74.02-1.9 2m-4.83-.4c.76-2.79 2.82-2.67.16-.2zm-26.74-.23c-3.25-2.44 2.73.7 0 0m14.31-.72c1.75-2.57 1.62.09 0 0m3.15-.66c-1.55-1.6 2.39.16 0 0m44.13.08c-2.48-3.35 4.27 1 0 0m-9.64-.14c-1.55-1.38 2.37.1 0 0m-32.6-.23c2.6-4.56 3.53-3.08 0 0m22.06-.26c-1.17-1.52 3.51 1 0 0m-12.13-.57c-2.5-1.8 3.58-.51 0 0m-19.65-.2c-.41-2.9 3.1-6.39 4.14-5.7-3.1.53-1.72 4.42-4.14 5.7M57.6 215c3.06.24 5.96-8.5 5.67-1.68-1.68 1.08-3.83 1-5.67 1.68m4.48-1.19c2.99-.88-1.64-1.34 0 0m16.7.78c-.88-3.44 2.56.79 0 0m-7.1.31c-2.33-2.56 2.3 0 0 0m8.89-1.53c-3.6-.84-8.27-4.62-3.25-6.82 1.74-3.57 5.76 2.92.93-.24-3.39-.24 3.28 5.4 2.32 7.06m-1.58-1.45c-1.55-5.26-4.18.15 0 0m-3.16-2.68c.64-.27.55-.23 0 0m7.63 3.78c-4.26-1.41 3.36-1.42 0 0m-26.2-2.58c.11-2.9.38-4.23 1.97-4.12 1.68-4.37 5.94-.38.68-.1-.4 1.72-1.95 2.7-2.66 4.22m7.06.3c-.47-3.2 1.48-3.44 0 0m-14.42-1.1c-1.8-3.61 9.42-6.52 2.98-2.94-.88 1.07-1.3 2.85-2.98 2.94m2.69-3.27c-.26-1.5-1.76 1.38 0 0m-18.78 3.13c-2.14-2.76 2.24-1.36 0 0m28.08-.82c-2.76-2.16 2.74.47 0 0m-32.14-1.32c-2.2-1.63-2.55-5.42.26-1.7.4.52.3 1.35-.26 1.7m-.16-1.7c-2.13-2.98.7 3 0 0m44.11 1.15c.81-2.07 2.93 1.56 0 0m2.74-.4c-2.86-1.76.04-2.2 0 0m-12.07-1.05c-2.8-3.02 1.06-2.74 0 0m-34.23-.02c-1.15-3.04 2.99-.4 0 0m19.46-.04c-3.39-3.34 2.36.51 0 0m31.96 0c-3.82-1.8 1.66-1.23 0 0m-30.24-.13c1.51-2.2-2.72-3.32 1.42-1.85.53.87-.41 2.2-1.42 1.85m6.36-1.12c-4.51-.36-3.38-3.18 0 0m-27.1-1.29c-2.23-2.48.94-1.84 0 0m-15.51-.4c-.3-1.15 1.08-3.5.4-1.02zm45.64-.4c-2.38-1.12.91-1.1 0 0m-27.93-2.33c-1.8-5.85 4.23-3.74 0 0m1-2.9c-.96-3.08-.95 4.62-.19.99zm.35-1.3c-1.12-2.67 1.6.17 0 0m54.99-.6c.98-2.21 2.98.65 0 0m8.13-1.22c-1.14-2.96 3.34-1.09 0 0m-73.73-5.45c-1.32-3.98 2.31-2.3 0 0m65.2-1.98c.42-2.56 3.26.2 0 0m-66.28-1.01c-.22-3.03 1.21-.04 0 0m48.8-.7c-2.7-2.34 1.68-1.6 0 0m-52.27-8.94c-1.53-2.38 1.38-.78 0 0m11.89-.88c-.47-2.8 1.78-.1 0 0m-8.23-.66c-1.88-1.99-2.12-6.59-.3-1.6l.18.77zm83.3-3.77c-.17-2.15 2.31-.63 0 0m-74.38-2c-1.07-3.1 2.2-2.42 0 0m55.1-.43c-2.14-2.04 4.41-1.04 0 0m20.94-3.15c-3.37-3.24-.01-3.53 0 0m-25.13-4.43c-.64-6.02 2.9-.66 0 0m-2.21-.61c-2.14-3.89 2.38-1.25 0 0m-46.47-.69c-.88-3.69 2.44.42 0 0m-6.1-.33c2.17-3.76 3.06-.19 0 0m72.85-.62c-2.52-.45-4.65-3-.83-.55zm-14.67.26c-1.35-1.83.95-3.46 0 0m15.76-.82c-2.56-.65-4.08-4-.75-1.07zm-9.88-.6c-2.62-1.11-4.56-4.76-3.7-3.86-.98-3.23 6.76 3.44 1.47 1.8.66 1.74 6.42.92 2.23 2.07m-31.53-1.48c-.97-2 2 1.01 0 0m-33.39-2.08c.58-2.2 1.87-2.66 0 0m-6.92-1.22c1.3-1.32 2.52-1.3 0 0m72.49-.43c-4.75-2.6 3.15.5 0 0m.3-.83c-.94-1.78 4.98 1.48-.04-.45-.18-.13.9 1.28.04.45m-10.47-.75c-3.54-2.89.68-3.93 0 0m-25.94-1.2c-.16-3.58 1.23 2.12 0 0m-31.21-1c-.24-3.98 2.91-2.1 0 0m30.03-3.13c-.19-2.06 1.95.97 0 0m6.32-.42c.56-4.22 3.05-.8 0 0m-6.45-.93c-3.32-3.13 3.4.7 0 0m15.29-.98c-2.35-2.22 2.24-2.61 0 0m29.63-.6c-.34-1.91 1.68 1.64 0 0m5.92-.76c-2.66-.24-1.1-1.06.31-.16zm-36.24-.95c-1.05-2.56 1.6-1.31 0 0m-11.8-2.85c-2.24-2.33 3.12-1.8 0 0m3.63-1.11c.23-2.61.78 2.05 0 0m22.6-1.56c.27-3.15 3.77 2.37 0 0m1.5-.12c-1.8-1.97-1.89.66 0 0m-25.97-1.02c1.14-1.95 1.61.44 0 0m18.55-3.67c-3.75-.6-2.36-3.1 0 0m-14.5-2.06c-1.32-2.04 1.61 1.11 0 0m10.82-3.93c-4.27-1.42 2.14-.48 0 0m-1.63-3.91c-2.52-1.16-.07-1.5.5-.08zm-.23-5.6c1.2-1.47 2.15 1.29 0 0m-1.02-.2c-.32-2.59 3.38.84 0 0m17.74-3.82c.59-.61.85-.88 0 0m-29.7-.25c1.3-1.81 2.26.45 0 0m21.56-1.56c1.1-2.42 1.66-.15 0 0m5.37-.28c-4-2.26 1.57-.7 0 0m-28.73-1.29c1.14-1.66 2.15.78 0 0m-17.26-3.8c-1.37-3.21 2.7 1.75 0 0m30.23-.71c-1.65-4.2 2.13.26 0 0m-25.48-.17c1.31-3.9 3.84.7 0 0m28.7-6.34c2.26-4.22 4.37-.82 0 0m1.92-3.19c-.35-3.13 2.14.17 0 0M53.93 89.4c.66-1.53 1.78.9 0 0m-10.22-2.32c-1.04-1.62 1.93-.41 0 0m3.59-5.11c-.78-1.2.68-.04 0 0m5.62-1.07c1.88-3.56 3.47-.63 0 0m15.11-1.72c0-3.43 7.93-.07 1.23.16zm-4.33-.55c.15-2.22 1.73-.1 0 0" style="fill:#222046;fill-opacity:.0497738;fill-rule:evenodd;stroke:#000;stroke-width:.976;stroke-linecap:round;stroke-linejoin:round;stroke-dasharray:none;stroke-opacity:1"/></svg>