<svg xmlns="http://www.w3.org/2000/svg" xml:space="preserve" width="210mm" height="297mm" viewBox="0 0 210 297"><path d="M35.4 123.35c3.2 3.02 1.39 2.87 4.18 3.04 3.47 2.17 3.6 10.81-.34 3.79-.46-4.04-.13 10.9-5.05 3.54-2.12.31-4.84-.46-6.43-4.18-4.1 8.6-5.69-3.23-8.3-4.05-3.27 2.79-1.56 11.63-.27 4.35-.1 4.4 2.65 14.96-3.03 7.3-1.47 4.6 6.07 13.03 5.42 19.8.4 6.93 1.07 3.9 1.27-1.19 2.45-11.75 2.63 11.07 5.26 10.56.1-3.43 2.03-15.68 2.97-6 1.7 8.26-3.32 23.54 2.1 27.4 2.52-8.73-1.6-18.23.04-27.35 1.8 8.47 7.11 15.2 5.3 25.1-7.77 7.3-.49 16.72 4.57 23.78 4.82 3.5 3.68 14.97 5.73 22.29 1.42 8.3 2.59 14.76 3.55 22.85.97 5.28 1.47 12.87 2.7 11.12 2 8.74-11.33.41-7.1 6.4-8.21 9.92 8.94 7.8 14.77 8 4.15-1.15 16.4 1.57 9.28-3.58 2.76-3.7-6.8-6.15 1.18-6.64 6.17-1.6 12.44-2.53 10.34-9.29 2.35-5.48 3.84-3.89 3.3 1.16 4.22 6 3.08-15.28 8.02-6.41 4.65 3.74 1.03 10.72-.04 11.03 5.53-.02-3.11 5.96 3.01 3.15 9.5 5.22-1.66 12.45-8.34 8.23-4.24-3.07-18.72 2.8-7.5.98 6.2-2.73 21 5.4 20.49-4.72-2.15-4.36-2.32-12.8 2.7-6.47 1-7.94 5.45-5.94 7.86.17 3.53-3.42 3.58 4.33 6.83 2.86.27-13.65 11.85 7.59 1.86 9.09-7.27.96-12.98 14.92-1.26 12.12 8.76-.5 24.8 5.02 26.6-7.82.68-1.59-2.47-2.4-1.45-6.04 4.9 8.28-3.8-16.53 4.3-6.64 4.21 2.58.62-8.74 6.85-4.16 3.29 2.9 12.37 14.64 13.9 6.12 3.27-5.05 10.64 8.36 17.33 5.1 4.87 1.78 11.66 2.72 12.94-.1 10.6-.13-6.71-4.36-6.8-9.28-4.18-6.88-5.44-15.02-7.88-22.58.17-4.2 7.04-.87 3.64-6.35-3.02-6.28-.48-20.65 8.21-12.06 3.3-6.4-12.13-14.17-13.27-22.46-2.01-4.06 5.68-3.56 1-8.06-7.1-6.23-5.64-16.07-11.9-22.69-5.71-4.78-.74-10.4-7.65-12.66-.88-6.52-9.19-6.02-12.7-11.2-6.16-1.91 3.37 6.66 6.66 7.53 8.59 4.36 9.33 14.56 15.22 21.44 2.67 3.27 1.98 3.77-.08 4.55 1.4 5.82 13.62 11.26 7.34 17.05-4.5-5.47 2.57 7.12 3.56 8.6 1.9 3.92 11.02 13.16 2 6.24-5.08-.26 8.23 6.17 9.52 8.92-4.5 1.43-12.4-4.8-11.43-4.99 2.43 3.54 3.1 7.7.06 8.99 3.24 4.37 4.13 18.02-3.15 12.5 5.6 9.73 3.88 22.9 13.03 30.66 1.66 3.92-11.69-8.56-4.5-1.37-8.25-5.93-10.37-17.3-16.17-25.1 2.16-4.8-6.86-13.32-3.45-21.5 3.73-.97 3.97 9.57 8.17 12.2-2-5.56-6.2-13.13-6.61-16 1.8-7.4-1.14-15.11.71-22.45.7 5.09 3.96 12.72 1.55 13.13 3.07 3.93 3.3 12.18 3.68 14.6-4.05-3.45 5.3 9.51 2.02 1.35-3.72-4.9 1.2-3.58 2.53-2.83-1.6-3.66-8.14-10.85-6.42-12.7 2.12 1.84 8.72 10.58 4.05 2.8-7.75-8.77-3.55-21.66-9.33-31.4-4.79-7.5-9.5-24.23-19-22.82 2.95 1.4 11.15 6.33 2.92 4.5-8-2.62-14.48 1.36-21.65 3.73-1.59 1.42-6.11 1.89-1.58.3-5.5-1.95 7.33-7 11.18-6.75 4.1-.82 12.32-3.86 4.44-3.54-7.09-1.02-13.69 4.51-19.47 7.69.56-1.42-5.35-1.55-.38-4.08 2.85-2.04 10.47-5.63 3-3.76-2.25 1.3-13.34 8.88-8.4 2.68 6.55-3.39 5.12-11.24 0-12.45.75-2.29 11.7-2.63 6.3.16 3.87-1.65 17.22-4.26 8.87 1.22 8 1.57-2.26 4.05-4.7 4.84 3.47 2.62 13.98-5.58 13.72-5-4.44-1.68-5.79-5.97-12.15-4.06-4.2.75-12.4-1.29-4.5-3.18 1.43-3.46 12.16-9.12 3.24-7.59-6.87 1.97-22.55 10.24-17.48-3.42-2.48.77-7.1 10.92-6.33 2.22-6.74 9.88-4.82-12.07-8.53-3.32-2.02 6.66-6.17 3.52-4.48-1.75-4.36-9.55-4.7 6.45-8.44 5.44.02-7-6.15 9.5-7.25.67 1.28-5.27-3.52-14.77-5.47-4.82-.6 2.98-.87 13.95-3.87 5.78-5.11.25 2.13 13.64-1.13 14.9-2.3 3.53-6.93 13.82.7 10-.93 4.81 2.45 3.55-.44 5.43-1.4 4.18.96 11.09 2.44 8.1-2.34 6.28-4.8 13.36-8.5 18.45-5.57.55-13.59-6.19-18.8-11.5-.27-4.16-4.54-14.82-.94-14.02-1.43-8.43-3.3-15.77-4.06-24.26 8.08-2.86.43-18.8-6.4-19.36zm36.22 42.93c.27-.97-.52-.1 0 0zm.22-1.42.04-.29zm.05-15.12c.85-1.03-.8-.2 0 0zm35.49-13.72c.45.23.3-.75 0 0zm27.14 2.6-.17.2zm14.52 11.23 1.58.25zm4.25 9.03c.52 1 1.96-1.03 0 0zm23.12 84.83.25.65zm9.97-23.67c.05-1.17-.49.11 0 0zm-.23-.73-.08-.29zm-.08-.29c.61-.2-.52-.82 0 0zm-.07-.4c.63-.17-.3-.55 0 0zm.25.23c.05.66.27-.2 0 0zm-39.01 61.65-.01 1.31zm-70.58-1.56-1.38.12zm-3.74-5.74c3.56.92.82-.48 0 0zm-21.88-28.35-.02-.16zM33.9 184.13c-.38.57.73-.03 0 0zm4.65-55.52-.48-1.62zm-17.68-3.56-.03.24zm74.16.73c-.04 5.58 1.91 11.4 5.42 12.13-3.1.68.4 5.45-5.4 5.22-6.57 1.18-13.91-.64-17.85-2-8.73 6.25 5.14-3.86.26-8.33-.84-1.43 2.01-9.82 2.6-2.03-1.65 8.32 4.77 13.58 10.84 6.15 2.29-3.3 3.24-7.29 4.13-11.14zm-14.22 12.5c.04-3.4-1.7 2 0 0zm17.6.18c-.36-2.5-.88-.08 0 0zm-2.66-6.9c.18-.44-.76-.1 0 0zm-75.38-4.54c1.38 1.58-2.1 2.74 0 0zm20.04 1.57c-.55 2.02 3.09 1.42 0 0zm63.15.59c3.13 2.45-2.27 2.07 0 0zm.68.74c-.35-.76-.22 1.46 0 0zm-83.91-.52c3 2.44.02 3.39 0 0zm7.26 1.93c1.4.98-1 1.66 0 0zm74.7.47c3.45.57-.2 7.74.52 1.94-2.04 5.52-3.24-.78-.53-1.94zm-61.5 1.62c6.68 3.72-2.91 6.42 0 0zm-11.5.07c5.66 2.57-4.06 2.78 0 0zm4.05.02c2.62 1.8-1.29 2.16 0 0zm-8.1.37c3.51 7.9-7.25 8.28-3.2.9l1.57-.35zm69.32.32c-5.24 2.14 2.04 5.28 0 0zm20.67.38c3.1 5.19-12.6 10.74-2.92 4.51.98-1.5 1.5-3.31 2.92-4.51zm-1.42 4.74c1.1-.6-.42-1.32 0 0zm22.98-4.24c1.92.1-3.37.5 0 0zm-59.41.09c1.88.8-1.04 2.2 0 0zm-6.02.03c.49.52-.7.55 0 0zm38.44.25c.95 3.28-3.02 3.82 0 0zm-28.39.04c.36.54-.93.37 0 0zm53.12.04c-4.2 2.76-9.65 2.87-2.4.79.78-.32 1.6-.52 2.4-.79zm-106.79.09c2.65.44-1.08 2.02 0 0zm-4.35.05.18.27zm111.72.36c1.17.93-1.67.69 0 0zm-48.19.05c0 .56-.55-.05 0 0zm-60.1.21c1.57 1.07-1.73.83 0 0zm74.91.02c.78.76-.54 1.8 0 0zm-71.1.18c-.27 1.38-2.03-.04 0 0zm4.43 0c7.78 1.58 3.4 11.77-.44 6.08 5.77 6.54-12.06 8.21-7.57 3.03-8.36-.5 2.57-5.67 4.5-8.56 1.1-.61 2.33-.42 3.51-.55zm-15.43.4c1.34.4-.99.7 0 0zm87.33.27c1.77 3.46-4.07 2.34 0 0zm-68.83.05c.69.3-.86.26 0 0zm95.85.12c1.45.43-1.13 1.03 0 0zm-118.13.14c.58.24-.36.62 0 0zm11.61.08c.45 1.57-2.47.87 0 0zm61.02.2c-3.43 3.29-4.81-1 0 0zm-2.38.18-.24.04zm44.7-.14c-1.7 5.52-7.46 1.1 0 0zm-27.5.18c4.07 1.32-4.02.41 0 0zm-31.82 0c1.6 1.05-.58 2.33 0 0zm-55.52.06c.75.13-.48.6 0 0zm25.1.05c4.04 2.63-4.17 2.18 0 0zm-20.02.2c.04 1.49-2.9-.51 0 0zm103.51.08c-3.95 6.47-22.81 5.1-17.36 15.05 5.15-.26 3.37-.46.32-1.64 2.8-2.35 2.31-2.08 2.25-4.18 1.82-1.1 6.41 1.98 3.68-2.23 3.64 2.3 12.84-8.6 11.74-1.66-6.32 4.49-12.36 12.87-20.34 12.8 2.32 3.96-4.05 13.37 2.36 5.8 4.3-.08-.24 10.74 4.39 2.97 2.52-1.95.75-13.09 4.58-7.55 3.12-2.36 2.57-6.86 4.61-7.66 11.2 2.46-3.04 10.63-5.03 16.3-2.86 3.45-8.42 9.8-12.1 8.91-.64.85-11.76 7.82-17.5 4.75 4-.84 13.38-4.03 4.15-1.74-4.72.7-12.07-1.36-3.05-1.92-3.49-.6-3.19-1-3.3-1.38-11.18-.27 4.72-3.76 3.68-5.28 2.6-1.82 3.75-4.6.11-.87 1.33-2.43 2.1-9.05-.55-3.37 1.54-7.35-3.9-8.68-10.9-6.05-1.04-3.45 10.19-4.48 2.38-5.6-4.86.11 2.9 2.12-1.18 2.49-2.9 2.52-13.17 5.44-6.55-1.27 6.6-7.08 20.46 1.17 22.44 7.8-.29 4.42-3.45 7.47 1.93 6.6-3.78-6.41 3.48-8.99 6.9-3.25-2.69-2.38-3.14-3.28-4.66-5 3.01-1.45-2.22-3.9 3.64-3.82-.37-1.7-2.42-1.93.89-4.8.28-4.57-6.54 13.81-11.78 5.19-1.88-4.2-6.83-5.82-1.06-7.52-1.4-3.96-13.65-1.09-4.08-4.6 7.9 1.79 17.22 2.12 25.36-1.36 4.2-2.96 9.3-4.06 14.03-5.91zM76.76 156.3c.95-.4-.56-.21 0 0zM16.2 138.53c.8.39-.52.96 0 0zm27.7.32c.19.44-.65-.13 0 0zm-6.29.01c-1.89-.25.86 1.25 0 0zm56.3.36c-7.77 3.7 6.83 4.35 0 0zm36.72.16c.18.74-1.23.57 0 0zm-22.06.17c1.37-.19-.12.9 0 0zm-82.46.1c.45 1.15-1.57.67 0 0zm62.2.15-.32.04zm15.9 0c.64.25-.35.75 0 0zm-71.56.16c-3.32.5 1.02 1.97 0 0zm87.3.11-.1.04zm-17.04.07c4 3.63-4.64 1.97 0 0zm-8.75.09c1.13 2.5-2.4.67 0 0zm-76.91.1c8.23 3.5.17 8.12 0 0zm25.14.03c.1.95-1.27.64 0 0zm86.34.08c4.22 1.4-2.74 3.26 0 0zm-30.52.05c-1.67 2.07 2.89 1.1 0 0zm-9.08.14c-2.02 1.86 2.7.48 0 0zm-3.41.2c-3.62 2.64 4.09.06 0 0zm-3.12.08c-2.2 2.5 2.97 1.5 0 0zm17.99.02c.77.25-.64.6 0 0zm-56.9.24c.92.86-.87.42 0 0zm42.24.08c1.05.8-1.33.48 0 0zm-7.96.02c.96 1.31-1.45 1.54 0 0zm27.06.2c.8-.02-.5.5 0 0zm-78.93.09c.88.26-.48.91 0 0zm79.57.25c.65.2-1.02.2 0 0zm-73.3.2c-7.03-.45 1.85 8.12 1.3 1.26-3.17-.14-2.17.03-.49-.94zm87.42.09c1.88-.06-1.45.71 0 0zm-94.78 0c1.87 1.03-1.83.96 0 0zm80.99.15c1.11.04-.17 1.25 0 0zm-77.27.06-.4.07zm14.9.2c-.26 1.15.9.19 0 0zm61.51.18c.7.37-.81.47 0 0zm-86.32.08c-.8 1.44 2.26.19 0 0zm81.37.05c3.13-.18-1.18.78 0 0zm-23.66.12c2.67 1.08-1.19 1.42 0 0zm48.7.06c-4.1-.09-1.6 2.9 0 0zm-91.56.13.07.15zm54.03.38c4.62 2.19 15.45-1.12 16.98 1.18-7.2 3.9-16.34-3.57-23.38 2.02-4.35 6.95-12.53-.67-3.48-.04 3.42.13 6.3-3.29 9.88-3.16zm-13.43 4.25c-.07.09.08-.04 0 0zm6.88-.94c.75-.68-.88-.26 0 0zm34.88-3.1c.85 1.13-2.32.01 0 0zm4.72.03c-.5.8 1.21.05 0 0zm-89.03.01c3.46 1.71-3 1.3 0 0zm49.34.05c1.43.23-2.58.36 0 0zm-8.5.1c1.62.2-.62 1.4 0 0zm-44.96.41c-1.14 1.35 1.94.26 0 0zm48.41.42c1.1.75-2.19.09 0 0zm-37.2.34c.6 2.54-3.1 1.85 0 0zm82.12.1c-1.3-.05.51 1.07 0 0zm-86.58.08c-2.24.76 1.55 1.07 0 0zm68 .05-.3.1zm21.7.4c4.05.48-2.93 1.11 0 0zm-4.94.21c-2.95.36 1.22 1.6 0 0zm-94.6 0c2.03 2.87-3.33.74 0 0zm60.7.09c-.62.5.9.37 0 0zm25.55.24c1.83.68-2.13.71 0 0zm-24.1.27c-3.11.72 4.67.28 0 0zm-5 .07c.26.96-1.27.48 0 0zm-42.01.13c.97-.1-.4.77 0 0zm53.07.33c-2.29 1.28 1.45 1.43 0 0zm40.58.1c.6.45-1.19.12 0 0zm-.95.08c.29.65-.99-.02 0 0zm-12.45.15c-6.28.96 2.56.9 0 0zm-44.27.01-.25.15zm-41.74.18c2.53.67-1.65 1.4 0 0zm2.52.05c2.92 6.07-5.79 3.25-1.2 1.44-.4-1.4.52-1.28 1.2-1.44zm-1.4 2.46c-.33 2.33.47.39 0 0zm65.07-2.43c-7.3-.3-.4 11.67-.48 1.77zm-8.6.31c-1.66-.04.65 1.34 0 0zM34.3 148c-.53.24.64.28 0 0zm59.94.36c-6.18 2.8 1.27 2.57 0 0zm23.4.03c-1.57-.27.5 1.23 0 0zm-14.61.14c-1.51 1.7 2.21.36 0 0zm40.85.27c.8 0-.5.5 0 0zm-104.18.08c.63.07-.33.6 0 0zm62.1.01c-.89 1.49 2.21.55 0 0zm6.71.07c.24 1.71-2.49.02 0 0zm7.67.11c-3.36.98-1.23 4.5 0 0zm31.15.05c-.32.42 1.1.16 0 0zm-104.56.1c-2.8 4.42-7.3 3.17-1.26.1zm52.4.1c-1.62.52 1.24.53 0 0zm3.2.26c1.76 1.63-2.39 1.12 0 0zm-12.52-.34c.28.07-1.31 2.46-1.43 2.72-.08.18-3.21-1.84-3.4-1.86-.26-.03-.67-.11-.68-.36 0-.33 5.2-.58 5.51-.5zm20.74.99c1.06 1.26-2.09-.06 0 0zm7.16.15c-1.29-.05.52 1.08 0 0zm18.18.02c-1.09.14.8.74 0 0zm-37.91.38c-.26 1.89 2.33.15 0 0zm36.04.12c-1.76.2 1.12.96 0 0zm-87.23.02c.63.25-.75.27 0 0zm-3.45.02.14.15zm35.5.32c.19.44-.65-.13 0 0zm-1.3.01c.6.56-1.59.05 0 0zm18.02.03c-5.48 1.87 5 2.24 0 0zm43.01.01c-5.58 3.07 1.79 2.69 0 0zm-26.75.15-.08.16zm5.28.17c-5.37.35 1.25 1.81 0 0zm5.16.07c-.47 2.84-3.67.42 0 0zm-35.48.38c.4.35-.7.3 0 0zm14.86.12c.93.19-.76.48 0 0zm-2.03.32c-6 1.74-2.16 9.23 0 0zm26.44.13c-1.5 2.24-2.11 3.89 0 0zm-32.38.08c-3.27.86 2.26 1.73 0 0zm-9.23.11c-.83.92 1.4.07 0 0zm67.77.1c-7.87 2.05 1.13 3.47 2.18.4l-.78-.22zm-46.25.1c-1.55 3.64.46 3.27 0 0zm-74.13.06c2.12 5.18-1.5 10.54-.3 1.94l.03-.99zm61.28.15c1.05.02-.5.65 0 0zm-62.6 0c.89 5.34-.61 4.92 0 0zm87.29.18c.8.57-.88.21 0 0zm30 .12c-2.74.46 1.64 1.15 0 0zm7.83.06c-.92-.1 0 .65 0 0zm1.66.16c-.93-.12.22.48 0 0zm-36.83.42c1.65.88-1.67 1.2 0 0zm-80.77.07c.05 3.57-3.82 1.47 0 0zm62.48.32c-1.71.63 1.13 1.3 0 0zm41.12.03c-.68.16.42.4 0 0zm-100.67.13c2.82 2.59-3.92.65 0 0zm33.98.07c-.97.28.72.42 0 0zm12.58.23c-.9 1.65 2.44.64 0 0zm39.27.85c1.27 4.62-5.22 1.2 0 0zm-4.24.04c-.56 1.1-.81 1.61 0 0zm40.68.04c1.65.5-2.7.54 0 0zm-78.16.05.31.12zm48.27.64c-1.49-.17.8 1 0 0zm-23.17.38c.86 1.16-1.57.53 0 0zm16.8.02-.06.1zm14.2.08c-2.65.05 1.08 1.34 0 0zm-26.42.76c1.77 1.42-.85 2.81 0 0zm-29.6.14c-.6 1.06 1.43-.07 0 0zm15.6.04c-1.43.95 1.69.62 0 0zm12.34.15c5 5.62-6.31 1.29-.98 1.86l.35-.83zm-.98 1.86c-1.02 2.26 1.05.48 0 0zm9.69-1.83c-1.41.02.44 1.23 0 0zm-97.34.11c.68.47-.77.64 0 0zm52.44.13c1.97.97-1.3 1.79 0 0zm32.84.08c2.53 2.38-1.19 3.22 0 0zm37.22.13c.15.67-1.07.14 0 0zm-63.44.47c1.17.5-.9.74 0 0zm33.43.01c-1.09.14.8.75 0 0zm34 .2c.86-.14-.3.52 0 0zm-1.23.13c-3.32 2.38-9.13.87-1.83.2zm17.52.02c1.1.95-2.14-.05 0 0zm-60.79.05c-1.52.3 1.15.9 0 0zm-82.8.04.07.3zm100.78.02c.86-.13-.3.52 0 0zm-22.25.06c-1.82 2.1 2.96-.24 0 0zm-16.1.3c1.03.29.35 1.26 0 0zm-.18 1.51c5.02.35-.59 3.4 0 0zm55.98-.67c.86-.13-.3.52 0 0zm-2.76.06c-3.67.62 1.04 1.94 0 0zm-8.43.13c.84.18-.39.5 0 0zm-15.43.08c-.91 3.34-1.78.88 0 0zm-76.11.04c-.1 4.46-2.8 2.82 0 0zm51.63.1.35.38zm12.82.25c-.89.26.63.41 0 0zm29.75.07c-5.28.6 2.64 1.08 0 0zm-16.18.3c-2.73.53 1.3 1.3 0 0zm-70.99.1c1.98 2.93-4 .7 0 0zm46.32.15c-2.7 4.19 2 5.94 0 0zm-49.72.25c1.08.37-1.61.32 0 0zm-5.43.16c.86.47-.64.99 0 0zm123.56.23c.1.92.83.23 0 0zm-48.08.07c1 .55-.68 1 0 0zm3.3.1c-1.75.06.83 1.18 0 0zm-32.4.19c.93.19-.76.47 0 0zm-3.74.06c.6 1.54 2.56 1.91 3.98 2.63.93.46 2.04.54 2.61.94.51.34.53 1.02.71 1.07-.71 7.77-14.7 4.56-10.37-.45 2.26-2.97 6.65-.16.47-2.56-1.6-2.21 2.09-.85 2.6-1.63zm-.4.32.33.11zm-39.63-.28c.23.48-.92-.12 0 0zm46.23.1c.76 3.77-4.12 1.06 0 0zm-43.08.16c1.07 5.51-9.17 2.32 0 0zm44.83.1c3.97.79-3.08.46 0 0zm-41.41.27c.53.24-.63.28 0 0zm76.25.14c-.48 2.5-3.05.06 0 0zm16.04.01c-1.41.03.78 1 0 0zm11.16.32c-.62.87-2.85.58 0 0zm-116.38.04-.03.24zm50.07.03c.59.23-.38.6 0 0zm70.47.11c3.2-.5 9.88 9.33 6.6 1.7 4.66 2.05 6.23 7.69 10.22 10.64-1.97 3.85 7.79 11.07-.69 6.83-6.66-5.8-15.62-1.2-21.9-7.56 1.5 6.67-8.25-.1-10.66-2.4-2.26-4.06 3.11-.06 2.27-5.35 5.49.35 8.85-2.4 14.16-3.86zm-114.86.35c.54.4-.75.21 0 0zm7.76.2c.73.59-1.37 0 0 0zm53.05.3c2.87 5.45-12.92 10.44-1.54 7.94 2.81-1.24-.96-.88 2.53-4.1a3.9 3.9 0 0 0-1-3.84zm9.03.08c-2.42 4.66.5 4.62 0 0zm-78.93.03c.78.42-.68.74 0 0zm104.3.14c.92-.08-.3.81 0 0zm-35.05.02c-.9.15 1.31.58 0 0zm25.54.09c6.98 3.63-4.27 4.06.16 5.5-4.13 7.16-5.55-6.69-.16-5.5zm-3.43 4.58c.19 1.59 2 1.95 0 0zm2.86.5c-.46-.87-.43.28 0 0zm-.2-.85c2.25.52 1.24-1.39 0 0zm-4.4-3.64c5.11 5.29-7.37 3.4 0 0zm.8 2.87.1-.28zm47.71-2.79c-1.16 1.19 2.57-.07 0 0zm-125.6.78c-1.63 2.33-3.36 3.22 0 0zm71.64.2c-1.8 3.34-1.02 3.03 0 0zm12.38.18c-3.23-.18-.09 2.3 0 0zm-82.47.02c2.05 2.2-1.05 1.61 0 0zm-3.43.04c.34 1.64-2.22.28 0 0zm114.72.18c-1.51.24.97 1.1 0 0zm-25.03.07c-2.07 5.74 4.23 4.83 4.33 3.42 3.2 9.21 13.97 8.27 21.86 10.02 4.2-.46 9.71 8.96 7.1.4 6.55 1.03 13.6 10.73 8.23 15.68 3.18 4.74-9.54 18.93-16.94 11.27-3.53-4.76-13.13-1.46-8.43-9.83 1.45-4.8 12.1-11.67 1.93-7-7.63 1.2-2.96-10.82-10.77-11.74-2.95-5.02.24 4.44 0 3.26 5.46.7 3.53 4.92 4.09 6.61 10.32 4.96.06 14.41-7.25 15.31-3.67 2.34 2.95 1.46-2.37 4.66-3.3 2.4-13.05 9.39-14.08 5.13 4.64-4.39 7-3.4 10.03-6.84-7.4-2.34-10.53 12.66-17.71 8.76 3.37-3.1 8.77-11.74 2.49-3.6-6.14 4.82-6.4 5.14-10.45 7.8-5.67 2.77-16.27 2.18-23.82-.3-4.74-1.15-12.86-1.95-4.75-5.65 1.87-4.75 14.18-7.37 12.68-4.86-6.42-2.69.96 5.93 3.52 3.9 3.12-5.21-10.33-4.47-2.97-8.58 4.81-.73-7.32.75-5.88-.6 2.3 6.31-10.27 9.37-13.5 12.65-4.2-6.4-.23-16.14 3.95-20 .28-3.5 13.17-11.7 10-1.88-.23 11.54 4.56-4.46 7.24-2.88 1.41 5.43 3.93-4.09 5.06-5.62 4.97-.22 8.25 5.98 9.15 4.14 3.63 3 15.05 4.13 8.1.73.21 2.05-15.17-5.23-5.64-3.88 7.7 6.68 26.58 9 30.62 2.03-7.34 3.38-13.76 3.72-21.63 1.55-6.86-.7-13.56-7.79-7.07-12.83 3.54-.19 11.58-7.94 5.8-.29-.48 4.17 7.3-5.9 7.26-1.07 7.5-6.82-.85 8.53 5.3 4.34 2.5-2.97 1.89-7.35 4.09-8.98-7.28.12-.73-2.04.43-5.23zm-45.36 44.3c-4.32-1.56-6.07-1.45 0 0zm17.74 8.52 1.15-.56zm1.47-.72c.74-.09-.2-.32 0 0zm32.08-37.15c-2.35-.87-2.2-.54 0 0zm-.4-4.63-.57-1.1zm9.44 25.26c-.21 1.1.72-.26 0 0zm4.7 1.44.27-.11zm23.92-12.44c-.23-.18.15.24 0 0zm-68.9-24.47c-3.31.76.68 2.16 0 0zm-20.8.14-.04.24zm39.94.1c-2.46.9 2.09.83 0 0zm-81.67.07c3.83 2.58-2.37 4.06 0 0zm124.1.75c2.61 2.13-1.64 2.7 0 0zm-121.14.34c.23 2.07-1.6.67 0 0zm62.28.1v.02zm49.65.08c-1.06 1.37 2.37.62 0 0zm-64.98.1c-2.78.2 1.87 1.56 0 0zm-11.4.55c-1.93.64 2.31 1 0 0zm-40.05.23c1.31.29-.15 1.09 0 0zm-6.86.04c1.88.17-1.15 1.31 0 0zm117.72.12c-6.27 2.82 6.19 3.16 0 0zm-42.86.1c-4.17 1.15-11.56 8.06-3.2 2.8 1.22-.69 2.7-1.34 3.2-2.8zm7.85 0c.68 1.06-1.6.2 0 0zm15.99.06c.84 2.23-1.9.5 0 0zm9.86.37c-.4 2.83 3.51 1.92 0 0zm9.03.16c2.03 1.5-2.44.34 0 0zm-111.3.1c1.52 1.24-.5 2.47 0 0zm34.91 0c.87-.13-.29.52 0 0zm-.83.04c1.4 1.26-.63 3.05 0 0zm-31.72.06c3.18 1.17 2.56 2.08 0 0zm72.42.17c-.56 2.24-4.08.26 0 0zm-73.45.01c7.31 2.62 2.11 9.3 0 0zm120.06.1c-1.64 2.15 2.45 1.3 0 0zm-57.24.14c-1.53.68 1.37.67 0 0zm13.4.27c4.28-.81.44 2.05 0 0zm13.9.17c.63.06-.74.44 0 0zm24.66.37c2.86 2.03 2.34.73 0 0zm-74.2.27c.18.44-.65-.13 0 0zm19.1 0c-2.1 1.16 2 .52 0 0zm69.82.1c1.65 4.92 2.8 3.67 0 0zm-86.88.02c-1.9 1.5 3.04.06 0 0zm40.38.22c.47.42-.58.47 0 0zm16.56.02c.08 1.91 3.36-.34 0 0zm-62.84.1c.56.97-1.07.65 0 0zm-32.23.02c1.95.4.03 1.14 0 0zm73.87.12c.53.25-.63.29 0 0zm-2.05.04c1.8 3.84-8.12 7.37-1.55 2.31.38-.68.4-2.25 1.55-2.31zm47.35.31-.44.25zm-75.85.04c-1.55.1.9 1.02 0 0zm32.36.26c2.2 3.89-4.48 1.26 0 0zm-10.7.4c-1.2 2.76-4.32.7 0 0zm-15.62.22c-3.25.2-1.6 3.63 0 0zm78.53.09.1.11zm-48.4.06c4.56 3.73-4.3 11.65-.8 3.07.37-1 .73-2 .8-3.07zm6.34.05c-.83.36-.42.18 0 0zm-97.66 0c.48.42-.6.43 0 0zm120.66.07c-1.2.35 1.09.49 0 0zm10.59.01c-1.46 5.26 3.97 2.83 0 0zm-53.08.05c.53.24-.63.29 0 0zm43.28.14c-.7 1.42 2.23.03 0 0zm-23.87.3c.13 2.63 3.48.62 0 0zm-97.34.2c2.29.81-2.49.65 0 0zm64.59.35.2.04zm59.01.5c-.82.44-.53.29 0 0zm-123.81.39c2.12 1.35-1.74 2.25 0 0zm73.2.1c-2.28 4.49-14.63 8.13-13.84 5.09 5.64.35 8.44-4.05 13.83-5.08zm-28.68.06c3.09 5.47-10.56 13.45-4.47 4.15a7.2 7.2 0 0 1 4.47-4.15zm2.89.14c1.07.16-.53 1.08 0 0zm-1.62.07c.84.18-.39.5 0 0zm49.3.49c1.94 4.58 4.07 2.38 0 0zm-1.21.33-.12.03zm-30.03.1c-3.03.35 1.34 1.44 0 0zm-16.45.1c.83 1.65-2.9.06 0 0zm22.73 0c-2.95.1.8 2 0 0zm55.7.15c-.54 1.6 2.5.55 0 0zm-116.83.24c.87.73-.12 2 0 0zm123.64.38c-.75 1.66 2 .5 0 0zm-20.9.65c-1.42.11.94 1 0 0zm-60.66 0c3.27.56-1.35 2.12 0 0zm-42.79.15c1.8 1.1-1.4 1.36 0 0zm2.24.28c2.8 4.37 1.34 9.8-1.66 3.16-.91-1.28.43-2.84 1.66-3.16zm122.68.1c-.43 2.22 2.51.45 0 0zm-84.98.03c.49.9-.93.28 0 0zm24.36.4c-3.97 2 .9 4.05 0 0zm11.5.16c-5.7 2.88 7 1.78 0 0zm-14.73.12c.55.43-.95.1 0 0zm-15.07.01c3.8-.72 1.2 2.46 0 0zm-46.29.07c.63.36-.49.7 0 0zm82.53.28c-1.43.1.93 1 0 0zm-92.38.34.12.27zm52.1.07c6.45-1.02 1.7 4.78 0 0zM32.5 182c2.14 3.64-4.07.22 0 0zm75.5.16c-5.3 2.1 3.68 2.04 0 0zm-27.99.05c-.23 1.73-3.15 1.99 0 0zm27.7.16c.52.24-.64.28 0 0zm20.55.08c.04 2 .06 2.67 0 0zm29.48.21c-2.08.41 1.54.83 0 0zm-38.73.29c1.23.06 1.67.08 0 0zm18.17.4c.34.55-1.06-.17 0 0zm-40.1.1c1 .03-.58.76 0 0zm-16.4.34c-.43 2.76-2.49 2.35 0 0zm67.06.11c1.68 1.53 3.11-.81 0 0zm-61.59.26c9.06 4.64-9.9 4.59-1.27.02zm28.4.09c-1.62 1.4 5.65-.14 0 0zm18.65.04c-.7 1.06 1.5-.06 0 0zm-100.58.06c.88.13-.54.84 0 0zm76.25.04c-1.2.75 1.43.38 0 0zm41 0c1.91.27 2.77.4 0 0zm-52.12.11c2.93.06-.83 1.4 0 0zm30.47.03c-1.12 3.17.61 3.07 0 0zm-36.28.05c-.95 1.61-3.57 0 0 0zm63.6.08c-8.64 1.59 1.24.99 0 0zm-80.62.18c1.52 1.39-2.13.87 0 0zm-42.63.1c.34.56-1.05-.16 0 0zm67.64.22c.5.61-.64.14 0 0zm58.5.03c-.15 2.1 3.25.25 0 0zM97 185.2c4.07 3.36-5.06 1.43 0 0zm25.7.05c-4.93 3.72 5.57 2.2 0 0zm-73.82.1c9.02.86 16.28 17.86 4.73 19.98-3.2-4.28 1.36-17.97-7.62-14.49-4.98-1.45 2.17-.72-.31-3.62.73-1.08 2.01-1.5 3.2-1.86zm-2.85 4.1c-.86 1.06.98.17 0 0zm124.86-4.07c.88 1.3-1.41 3.16 0 0zm-129.33.07c2.16.6-1.79 1.4 0 0zm103.07.05c-1.14 1.35 1.94.26 0 0zm-104.82.07c1.05.17-.43 1.29 0 0zm36.26.29c2.65 5.42-4.65 5.68 0 0zm85.6.1c-3.53.75 1.28 1.78 0 0zm-16.13.14c-2.94 1.1 2.41 1.36 0 0zm-22.96.07c2.07.71-1.55 1.36 0 0zm-36.77.02c-1.9-.11.43 1.52 0 0zm82.65.11c-1.35.2.93.75 0 0zm-37.22 0c-2.58 1.1 1.33 1.49 0 0zm-98.62.06c1.25 2.32-1.92.2 0 0zm130.7.12c-.5 1.85 2.3.46 0 0zm-78.81.12c-2.42.45 1.64 1.18 0 0zm75.4.4c-.92 1.07 1.5.32 0 0zm-79.4.2c-1.32 3.9-4.83.28 0 0zm-8.18.06c1.72 6.76-6.78 3.26 0 0zm41.9.07c-3.45-.21-2.7 3.49 0 0zm-8.64.17c2.45 4.02 4.4 1.1 0 0zm-64.01.15c.63.07-.34.6 0 0zm119.4.07c-1.43.11.93 1 0 0zm-44.5.04c1.53 2.75 3.86-.15 0 0zm-84.51.05v.32zm103.47.1c-1.9.92 1.64 1.15 0 0zm10.51.02c-.77 1.1 1.57.1 0 0zm30.6.04c-.81 2.96.8 1.67 0 0zm-91.25 0-.54.13zm-45.82.07c10.74 1.68-6.29 7.72-2.85 1.9.9 1.37 1.38-2.31 2.85-1.9zm34.73 0c.97 1.9-1.98 1.7 0 0zm-23.87.13-.1.7zm46 .07c.71 0-.53.46 0 0zm75.74.1c3.77 2.06 4.15 10.71 1.18 2.82-.53-.88-.85-1.86-1.18-2.83zm-57.26.13c-6.88 3.94 9.38 3.15 0 0zm52.11.04c-1.78.99 1.2 1.77 0 0zm-51.47.34c3.32 1.03-2.78 1.6 0 0zm-34.26 0c1.99.3-1.02 1.49 0 0zm-39.9.17c-2.08.39.83 1.65 0 0zm123.46.1c-1.42 8.1 4.4 4.7 0 0zm-92 .05c1.33.34-1.16.95 0 0zm81.65.25c-3.5.85 2.7.6 0 0zm2.65.03c-1.57.69 1.72.63 0 0zm-110.54.1-.04.24zm-6.17.5c-1.01 1.67 2.47 1.64 0 0zm136.37.55c.11 1.54.19 2.6 0 0zm-65.56.08.64.78zm-17.34.04c1.38 2.35 3.95-.6 0 0zm48.57.06c.76.52.44.3 0 0zm-92.63.13c.61.76-1.14.18 0 0zm-5.7.02c.9 1.4-2.07.39 0 0zm107.5.17c-1.84.38 1.32 1.1 0 0zm-78 .05c1.6.41-1.1.91 0 0zm23.08.6c1.23.31 1.51.38 0 0zm-24.3 0c.87-.07-.35.49 0 0zm-2.93.36c2.31 4.14-5.18 5.15-4.27 11.01-.57 4.13-7 8.5-2.69 1.85 2.56-4.15.39-12.03 6.96-12.86zm-1.2 3.8c1.96-.16-.84-1.47 0 0zm-19.8-3.68c-.86.81-3-.04 0 0zm92.15.12-.5.17zm-2.53.06c-4.87.7 2.57 1.04 0 0zm22.8.5c-.89.75 1.25.36 0 0zm-84.37.03c-6.58 3.01-1.99 5.9-.46 2.45.01-.53 1.64-1.9.46-2.45zm-.46 2.45c1.72 1.08 3.7.06 0 0zm-3.25 1.37c.41-.75-.62-.05 0 0zm8.59-3.74c-.03.95-1.26.53 0 0zm-34.2.15c3.06 8.05-15.13 2.32-7.75 1.3.26-3.65 6.1 3.56 7.74-1.3zm113.19.03c-1.18.44 1.23.75 0 0zm-31.9.02c.18.45-.66-.13 0 0zm-78.92.1c.64.23-.34.75 0 0zm-5.38 0c1.33.3-1.17.77 0 0zm43.03.11c.53.24-.63.29 0 0zm71.54.15c-6.92-.28 3.67 6.77 1.23.8-3.35 3.1-.45.3-1.23-.8zm-75.41.06c-.12 5.91-6.1 4.37 0 0zm42.74.07c.95-.02-.88.38 0 0zm-3.7.2c1.16.5-4.82-.3 0 0zm-72.95.02c2.64 2.96-3.91.83 0 0zm11.29.2c.55.38-.9.08 0 0zm81.75.15c-4.36.67-8.47 7.7-2.61 2.37.77-.9 1.9-1.41 2.61-2.37zm-80.68.13c2.88.86-.85 2.04 0 0zm-25.64.13c4.12 3.24-1.35 5.12 0 0zm145.76.11c-2.83 2.49 1.62.5 0 0zm-1.35.04c.02.96 1.03.81 0 0zm-2.63.04c-.5 1.77 2.55 1.63 0 0zm-111.83.11c-.92 1.45 2.06.32 0 0zm-18.51.03-.01.33zm44.87.07c-5.38.08-9.98 2.7-1.81 1.39 1.73.31 6.12-.49 1.8-1.4zm38.17.26c-1.9 2.3 3.17-.1 0 0zm-84.64.2c-.16.4.38 0 0 0zm57.3.1c-.9 4.47-.33 6.88 3.4 2.78 5.67-1.45-1.6-3.1-3.4-2.78zm35.72.04c-1.95-.23.14 1.6 0 0zm-37.8.01c-4.77-.02-7.88 1.15-1.16.56-1.38.9 2.54-.58 1.16-.56zm65.48.07c-1.24.77 1.4.83 0 0zm14.66.14c-.84 1.37 2.46 1.17 0 0zm-124.85.02c-1.77.6 1.71.52 0 0zm55.37.01c1.46 4.05 12.41 5.07 7.64 1.41-2.67.82-5.25-.34-7.64-1.4zm-66.98.12c-1.2 1.43 2.17.49 0 0zm60.48.02c2 1.55-2.56.26 0 0zm-5.91.45c2.37 1.99 2.16.15 0 0zm79.41.05c-.66 1.2 1.46.13 0 0zm-33.1.43-.03.04zm-88.32.08c-4.49.67-.22 3.16 0 0zm70.71.03c-.97 1.59 2.2.9 0 0zm-65.47.19c3.03 4.3-5.28 3.28 0 0zm-12.38.1c2.5 2.73-3.53 1.03 0 0zm104.77.03c-5.46.08 1.82 7.57.97 7.52 3-1.36.04-5.66-.97-7.52zm-106.92.06c1.15 2.84-3.45.34-2.64 4.1 7.84.15-.56 3.2-3.17 3.96 2.55 2.8-5.49-2.35.2-2.93 3.1-2.04-10.86-2.02-1.29-4.05a82 82 0 0 1 6.9-1.08zm-4.34 4.42c.85.3 3.66-1.17 0 0zm118.54-4.39c-.74 2.62 2.2 1.92 0 0zm-85.48.14c-2.6 2.81-.88 6.58 0 0zm19.66.01c-5.65 2.48-5.04 5.31-.17.44zm75.95.11c.89 1.63-.32 3.47 0 0zm-41.37.07c-4.48.32.69 2.2 0 0zm-92.31 0c.7.5-1.15.2 0 0zm128.23.02c-2.12 1.3 1.54 1.13 0 0zm-108.69.04c-4.47 1.8 1.61 2.92 0 0zm79.84.05c-.13.75-1.27-.16 0 0zm38.64.12c2.94 3.01 4.21 4.93 0 0zm-37.5.28.36.02zm30.28.09-.46.28zm-15.07.07c1.87 1.26-2.1.63 0 0zm-27.46.21c-2.88.69.91 1.8 0 0zm5.88.4c-3.6-.2 1.31 1.45 0 0zm-4.95.47c-4.82-.06-15.58 12.31-6.2 4.99 2.63-1.31 7.14-2.86 1.8-1.95 1.27-1.26 3-1.95 4.4-3.04zm-63.5.06c-.59-.04.08.56 0 0zm107.41.03c3.63 8.02-5.92 8.51 0 0zm-9.23.03c-4.48 2.58 1.14 3.59 0 0zM56 199.64c-1.11.51 1.16.53 0 0zm112.82 0c-4.85.28-7.18 10.27-1.81 3.16.67-.73 2.56-1.78 1.8-3.16zm-118.43.05c.54.25-.63.29 0 0zm73.82.04c-1.1.63 1.04 1 0 0zm-29.6.12c-2.72 7.3 6.6 4.22 0 0zm-7.64.02c-.6 1.07 1.42-.07 0 0zm42.7.07c-3.6.14-3.6 3.4 0 0zm2.72.01c-4.19.56-2.65 2.1 0 0zm-.3.2c-.74.13.12.34 0 0zm-4.76-.18c-.75.55-.48.35 0 0zm-11.25.25c-1 1.6 1.91.57 0 0zm-7.46.03c-.62 1.99 2.82.03 0 0zm-49.37 0c-1.78-.23.74.86 0 0zm62.24 0c-2.37 2.4.99 2.64 0 0zm-29.74.14c-2.66-.17-1.16 1.2 0 0zm7.1.1c-1.9 2.3 3.17-.1 0 0zm-42.03.2c-1.84 3.31 2.68 2.52 0 0zm-6.42.26c1.58 1.85-2.61.05 0 0zm129.2.09c-.58 2.84 3.48 2.41 0 0zm-61.64.15-.36.3zm59.47.19c.06 3.95 9.56 15.85 4.53 6.43-1.74-1.96-3.56-3.95-4.53-6.43zm-114.97.31c.53.25-.63.29 0 0zm28.53.1c-1.86 1.02-4.74 3.33-1.06.85zm95.6.22c-.44.44.7-.03 0 0zm-36.58.03c-1.58.85 1.65.75 0 0zm-66.79 0c-1.42.95 1.66.6 0 0zm-36 .07c-3.44 2.82 4.1 1.07 0 0zm114.7.02c-2.97.59.71 2 0 0zm-19.9.23c.02.82-1.37.12 0 0zm-81.07.07c-1.09 6.38-7.3 4.35 0 0zm80.27.06c.47 1.12-1.73.14 0 0zm-22.7.1c-1.62 2.18 1.47 1.51 0 0zm-47.7.17c-7.46-.53.3 4.14 0 0zm77.14.07c-2.52 1.95 5.4-.56 0 0zm-46.35 0c-5.36.28-5.5 1.02 0 0zm-26.28.02-.06.21zm56.25.03c-5.4 1.53-6.2 3.72 0 0zm-11.32.29c-.46.42.6.46 0 0zm-6.07.35c-.73.85-1.62 1.87 0 0zm-62.62.09c.46.34-.91.2 0 0zm128.78.1-.03.02zm-130.12.13c3.58 3.68-3.74 15.33-3.92 6.51 4 2.62-3.34-8.6 3.46-4.98 1.54 2.54.25-.83.46-1.53zm.3 2.44.08.15zm.4 2.1c.75-.37-.88-1.93 0 0zm88.93-4.5c-.46.87-2.55.4 0 0zm11.02.23c-1.8-.2.73 1.23 0 0zm-9.75.02c1.47.92-.2.59 0 0zm-3.87.18c5.59 2.23-3.3 8.5-.18 4.6-2.6 1.59-11.94 7.38-5.24.95 1.7-1.94 3.08-4.3 5.42-5.55zm-.75 5.34-.24.22zm-62.32-5.29c-6.16 2.58 3.7 4.48 0 0zm13.96.17c3.86 1.64 5.95.37 0 0zm85.1.1c.77 3.89-.7 2.16 0 0zm-131.31.01-.1.15zm126.79.22c7.8 6.84.05 18.08.37 26.72-.3 5.18 3-3.9 2.67 3.05 2.23 10.87 6.78 21.14 12.48 30.55 3.39 6.05 12.75 8.59 16.32 11.9-2.93-.33-10.3-1.08-3.37 1.52-5.37 4.17-14.33-10.97-13.4-7.18 6.46 5.17-.73 7.92-4.36 2.88-6.73-3.24-14.91-7.87-11.83-16.7 1.22-3.94-3.83-17.4-1.45-7.2-.87 7.82 2.1 16.77 1.38 23.42-5-1.62-8.73-8.64-14.77-10.6 7.45-2-.13-12.87 3.13-19.1.13-4.22.97-13.6 4.65-9.8-5.23-7.93.63-17.32 3.77-24.38 1.68 1.1-3.16 11.5.77 5.9-.4 11.34 1.86-3.35 1.8-6.93.31-1.46.88-2.89 1.84-4.05zm-12.7 39.06c.78.6-.09.15 0 0zm-14.3-39.05c.93 2.19-3.94 2.22 0 0zm-75.2.03c-1.37 1.4 2.25.48 0 0zm46.43.04c-4.74 1.17-5.02 10.62-1.84 2.66.5-.97 1.5-1.6 1.84-2.66zm-55.71.08c-.8 1.1-2.83 1.02 0 0zm-12 .07c.07.83-1.36-.1 0 0zm109 .03c-1.22.18-1.7.25 0 0zm-17.17.01c-3.87 1.25-1.87 4.88 0 0zm-19.57.11c-.52.68 1.1-.12 0 0zm34.3.18c-.64.31.9.22 0 0zm-47.98.02c-5.02-.7-6.68 9.93-1.91 3.16-.25.1 4.04-3.38 1.91-3.16zm-5.07 5.2c.82-1.7-2.34.37 0 0zm27.55-5.13c-.85.43-.58.3 0 0zm34.7.26c-3.57.19-.95 2.38 0 0zm-112.24.08c-1.44 1.59 2.08.75 0 0zm44.18.02.17.04zm12.25.18c-1.9 2.3 3.17-.1 0 0zm-20.37.27c-1.9 2.3 3.17-.11 0 0zm76.3.26c-1.47.61 1.35.7 0 0zm-42.66 0c.42.4-.68.16 0 0zm-66.97.05c.8-.01-.51.5 0 0zm95.05.07c.72.45-.87.5 0 0zm-101.7.26c.84.16-.65.49 0 0zm29.7.26c-6.56 3.5 5.22 2.32 0 0zm-22.7.08c.48.41-.61.42 0 0zm21.4 0h-.04zm74.32.04c.71-.03-.43.44 0 0zm-94.16.1c5.13.87 2.5 14.43 5.32 4.26 8.41.81 4.78 14.29 4.32 20.64-1.32 3.3-.15 13.35 3.48 7.21.98 8.63 7.9 14.26 10.53 22.24 2.28 9.38-17.4 11.37-14.2.63-5.2-14.52-5.6-30.12-9.35-44.98-.4-3.2-.82-7.17-.1-10zm23.83 56.33c-.07-1.31-1.01.77 0 0zm95.93-56.17c.78.94-.94 2.56 0 0zm-124.07 0c-1.07.8 1.36.54 0 0zm21.22.04c-1 1.3 2.03.03 0 0zm88.49.06c-3 1.2 2.22 1.3 0 0zm-10.15.1c9.31 2.45-7.88.93 0 0zm17.4.16c.53.24-.63.28 0 0zm-125.01.16c.67.13-.29.47 0 0zm98.88.29c.88.05-.92.49 0 0zm-3.08.13c-1.2.24.87.58 0 0zm-45.7.22-.22.45zm66.55.24c-2 .52 1.2 1.48 0 0zm-52.6.2c-2.92 1.1 1.35 9.43 1.37 1.28 2.31.73-1.14-1.31-1.38-1.28zm71.47.07-.03.24zm-41.61.02c-1.52.3 1.15.9 0 0zm10.56.23c4.69.46-2.91 1.15 0 0zm3.98.07c.35.56-1.05-.15 0 0zm2.9.03c3.83-.25-1.28 2.4 0 0zm-39.68.44c-2.17.31.97 1.2 0 0zm60.52.33c1 4.3-.47 7.43-.14 1.07zm-5.5.03c1.77.6.36 9.36 1.93 4.22 3.95 5.12.86-5.11-1.93-4.22zm-19.57.19c.71.45-1.74 0 0 0zm-75.18.1-.2.53zm-6.7.25c-1.15 1.34 1.94.25 0 0zm-14.36.38c.71-.04-.43.44 0 0zm14.7.57c-2.49 3.03 3.9 1.1 0 0zm-15.32.19c-.12 2.03-3.07 1.85 0 0zm95.36.01c.53.7-1.45.01 0 0zm-59.56.01c1.54 1.7-2.24.42 0 0zm21.07.3c-2.32 2.36-.5 2.96 0 0zm52.22 0c3.2 4.56-4.56 4.8 0 0zm-81.66.25c-1.9 2.3 3.17-.11 0 0zm54.3.22c-.2.84-1.58.04 0 0zm3.4 0c.47 7.1-12 3.4-2.66.63.87-.28 1.77-.43 2.66-.63zm10.3.03c3.4-1.18 3.96 2.77 0 0zm4.8.25c4.94 1.48-4.74 2.77 0 0zm-60.93.06c3.42 2.34 13.99 7.85 5 2.55-1.68-.84-3.38-1.62-5-2.55zm19.2.16c-.38.23.53.08 0 0zm29.33.11c.88 2.53-2.88-.62 0 0zm22.3.06c.53.24-.63.28 0 0zm-17.11.11c3.44 2.32-3.67 1.68 0 0zm-56.6.21c.18.44-.66-.13 0 0zm36.51.16c2.12.62-.94 1.66 0 0zm5.91 0c.66.2-1.01.21 0 0zm-.68.27c.66.2-1.01.2 0 0zm17.36.01c1.66 2-1.87 1.62 0 0zm-12.9.12c-3.29 2.49 3.56.73 0 0zm-82.57 0c-.52 4.7 2.1 8.6-1.5 8.5-1.1 2.4-2.2-8.93 1.5-8.5zm104.38.1c.88.19-.85.27 0 0zm16.6.03c.63.06-.74.45 0 0zm-65.65.09-.11.17zm-39.73.08c-1.31 1.1 1.78.63 0 0zm86.13.07c.18.45-.66-.13 0 0zm5.73.03c.2 1.2-1.56.37 0 0zm-70.87.05c-1.07.3.84.78 0 0zm-14.87.14c-1.1.34.93.81 0 0zm60.86.05c.87-.13-.29.52 0 0zm-10.71.18c2.11 1.5-3.72 0 0 0zm-74.2.08c-1.3 3.83-2.23.15 0 0zm107.1.18c1.12.68-1.32.73 0 0zm-79.33 0c-.3 2.16 3.35 1 0 0zm72.56.14c1.3 1.94-4.23-.53 0 0zm-9.74.1c5.1 2.5 16.33 2.41 11.22 12.37-2.54 7.23-11.27-.14-12.07 6.63-4.46 3.28-5.41-9.8-5.47-1.17 2.89 7.42-4.2 5.41-3.99-.14-.54-7.06 2.99-15.6 10.31-17.68zm-13.32.44c8.44 2.38-5.98 5.32 0 0zm31.6.13c2.91 2.01.62 5.6 0 0zm-37.4.16c6.43 3.05-.17 12.42-1.63 5.88 4.13-.45-5.67.15-2.17-4.04a6.6 6.6 0 0 1 3.8-1.84zm-1.89 5.33c.42.1 1.14-.82 0 0zm1.04.35c-2.56.21.99 1.28 0 0zm-.13 2.06.15.06zm-62.02-7.66c-.79.42.44.45 0 0zm115.07.03c1.27 1.13-1.86.77 0 0zm-120.46.22c1.94 1.88-1.09 1.77 0 0zm22.6.35c-.61 2.93 3.44.83 0 0zm-1.32.02c-.9 1.08 1.64.33 0 0zm77.72.08c3.4 0 .18 2.34 0 0zm-39.8.12c-1.08-.02 0 .67 0 0zm-63.25.5c1.55 1.43-1.43 3.57 0 0zM124 218c.95.71-.38 1 0 0zm-74.67.16c-.02 1 1.16.43 0 0zm25 .18c-.84.35-.43.18 0 0zm56.8.4c-.12.75-1.26-.18 0 0zm-40.86.07c-3.19.84 2.67.66 0 0zm67.4 0c3.74 1.32-1.59 2.12 0 0zm-25.06.15c.5.9-1.32.2 0 0zm21.12.04c1.72 1.34-2.45.8 0 0zm-46.35.43c1.97-.17-1.02.77 0 0zm-41.6.1c4.65 1.09 2.38 1.8-.17.02zm10.06.16c.76.52.44.3 0 0zm53.87.25c2.4 3.4-3.8 3.4 0 0zm10.05.07c-3.53 2.1-3.52 7.4-.67 1.4zm13.67.2c.8 1.37-1.57.5 0 0zm-70.06 0c.08 2.24 3.75.37 0 0zm36.3.03c-1.23.74 1.5.45 0 0zm-2.09.03-.07.17zm-38.66.14c-.75.39-.52.27 0 0zm-1.94.05c-.62.25.54.27 0 0zm79.2.09c4.6 3.83-4.69.75 0 0zm-89.75.05c-.73 3.06-3.74 1.05 0 0zm35.8.06c.14.66-1.07.14 0 0zm-31.1.03c.87-.05-.26.7 0 0zm34.9.04c7.5.12 2.37 8.05-2.3 6.28.4-1.92.28-5.42 2.3-6.28zm7.7.28c6.48 4.65-7.28 3.34 0 0zm-2.2 2.21c0 .72.6-.42 0 0zm11.92-2.15c.17.83-1.29-.25 0 0zm8.24.04c-.4 3.5-6.28 11.37-2.44 3.4.85-1.1 1.7-2.21 2.44-3.4zm-28.73.1c.33.68-.88.29 0 0zm38.84.06c-1.52.18 1.01.96 0 0zm-6.33 0c-1.44.08.9 1.03 0 0zm-61.95.17c4.16-.42 8.85 4.47 2.12 1.48-2.2.7-6.98-.32-2.12-1.48zm32.85.11c-.68-.03.28.62 0 0zm-19.04 0c-2.57.3 1.83.83 0 0zm-20.58.07c.63.24-.37.71 0 0zm1.69.01c3.29.75-.98 2.17 0 0zm85.54.05c1 1.89-2.74.13 0 0zm-40.24.03c-2.22 2.43 3.37.23 0 0zm-20.53.01c-3.58-.4-1.36 1.65.42.42zm70.43.04c-7.77 4.59 3 3.94.95.17zm-36.93 0c5.63 4.84-5.22 5.22 0 0zm-1.2 3.02c1.22 1.86-.35-2.12 0 0zm15.44-2.42c-.83.5 1.1.32 0 0zm-37.48.1c-.23 2.02-3.51.13 0 0zm-13.05.03c-5.91.33 2.85 1.11 0 0zm9.49.04c-1.08 2.41-4.2-.18 0 0zm80.1.02c.39.36-.7.29 0 0zm-36.22.02c-1.74.97 1.64.86 0 0zm-21.91.02c-.39-.07.19.37 0 0zm12.05.1c-2.16.85 1.68 1.06 0 0zm13.72 0c-1.5 2.4 1.98 2.59 0 0zm7.95.13c-.5.64-.48-.28 0 0zm-45.62.35-.4.2zm-43.49.18c9.84 5.34-7.57 4.03 0 0zm77.08.21c-2.35 2.26.86 1.92 0 0zm-33.58 0c-.28.48.67.13 0 0zm-23.82.08c4.78.27-1.62 1.46 0 0zm68.35.02c.96 1.18-1.38.97 0 0zm-21.63.14c-4.55 3.33-.6 5.88 0 0zm-41.91.04c.34.56-1.05-.15 0 0zm76.76.19c-1.35 4.04 1.07 10.15 0 0zm28.72.02c-.7 1.54 1.86.34 0 0zm-40.32.02c2.02 1.41-2 2.13 0 0zm-62.05 0c6.9.92-.36 10.59-2.95 4.56 1.8-1.2-3.58-4.34 2.95-4.56zm-2.4 4.28v.1zm3.7.6c-1.27-.93-.41.33 0 0zm-.64-.24c.86-.57-1.48.03 0 0zm.18-.22c1.12.22.1-.58 0 0zm39.05-4.19c-.77 1.1 1.57.1 0 0zm48.99.18c-.58 2.15.67 1.34 0 0zm2.14.19c-.07 2.33 2.7 1.1 0 0zm-85.04.02c8.1 2.16-7 4.8 0 0zm37.42.07c-4.7 3.2.97 6.42 0 0zm-20.6.06c-.8 5.69 4.24 1.99 3.78 4.1 5.84-8.42 5.71 5.23-.87 5.27-5.25 10.13-5.93-5.32-2.91-9.37zm22.57.19c-1.32 1.7 1.96.89 0 0zm-36.05.32c1.02-.02-.45.75 0 0zm-33.97.13c.88-.08-.35.48 0 0zm49.48.02c.4.35-.7.3 0 0zm45.23.02c-4.49 2.91-1.65 17.22-.83 5.55.46-1.8.94-3.66.83-5.55zm17.56.06c.15 3.97 2.65 4.08 0 0zm-79.8.01c-.8.16.58.78 0 0zm11.03.05c.39.35-.7.28 0 0zm-13.3.04c-1.78 2.38 2.87.1 0 0zm42.8.05c-3.55 2.95 1.9 4.92 0 0zm2.03.03c-1.33.23 1 .81 0 0zm4.1.23c-1.25.13 1.05.72 0 0zm-37.63.18c2.2 1.44-2.8.89 0 0zm3 .03c.87 4.41-5.59 14.06-4.37 3.96.86-1.92 3.57-1.98 4.37-3.96zm34.62.21c-1.04 1.49 2.31 1.23 0 0zm5.9 0c.87-.13-.29.53 0 0zm-21.02.07c-3.42.45.83 1.94 0 0zm-38.52.07c-3.43-.25 1.23 1.46 0 0zm12.94.1c3.7 1.58-3.43 1.76 0 0zm36.19.03c-1.07.8 1.36.53 0 0zm2.9.15c-1.85 2.42 1.16 3.75 0 0zm5.73.03c.79.58-.89.21 0 0zm-79.94.23c0 .02-.01-.01 0 0zm-7.1.03c.74.19-.6.4 0 0zm87.9 0c.5.4-.7.72 0 0zm-88.35.26c.78.33-.96.05 0 0zm74.61.05c-1.09.14.8.74 0 0zm12.32.09c1.62 1.87-.7 2.3 0 0zm-13.12.02c-3.7.6 1.04 1.98 0 0zm-72.25.1c3.23 1.37-3.6.9 0 0zm25.86.1c-.6 1.06 1.42-.08 0 0zm62.11.16c.96 4.77-1.13 3.55 0 0zm-9.79.14c-3.48.35-.05 2.6 0 0zm-39.3.05c1.88 1.04-1.85.87 0 0zm19.77 0c.8 0-.5.5 0 0zm-24.34.06c.19.44-.65-.13 0 0zm48.12.01c-3.52.88 1.36 2.27 0 0zm-46.32.39c2.1 2.24-2.97 2.04 0 0zm48.55.05c2.46 2.52-1.67 4.39 0 0zm-20.18.18c-1.98 1.39 3.17.3 0 0zm24.72.06c5.65 1.72-4 4.97 0 0zm-55.53.15c3.48 1.31-1.22 2.68 0 0zm7.97.03c.53.25-.63.29 0 0zm17.8.15c1.44 1.14-1.17 2.12 0 0zm-21.51.04c4.45 1.83-3.35 1.45 0 0zm7.45.14c-2.8 1.11.82 2.06 0 0zm-13.9.2c.71.04-.06.74 0 0zm16.34.07c1.78 2.02-1.4 1.5 0 0zm46.74.2c-1.53.17 1 .96 0 0zm-68.17.01c-.13.56.64 0 0 0zm50.26.1c-2.38 1.47 1.67 1.76 0 0zm-50.68.14-.03.24zm41.8.16c-.78 1.13.76.69 0 0zm18.7.02c.6.47-.4.95 0 0zm-86.17.03c1.23 1.19-1.72 2 0 0zm30.74.13c5.6-.03-1.82 1.27 0 0zm-31.97.02c2.48 3.12-2.7 3.14 0 0zm30.17.05c.5.61-.63.15 0 0zm14.56.06c-2.75 1.17 1.52 1.45 0 0zm8.41.08c-1.19.6.8 1.3 0 0zm17.71.04c-2.41.89 3.27.6 0 0zm46.05.08-.03.26zm-57.48.52c1.19 8.44 13.31 12.31 18.86 8.32-1.06 5.27 5.97 16.64 1.14 22.96-7.16.88-16.42 4.29-22.72-.83-3.42-3.85.3-15.9-6.18-15.3 4.24 6.64 3.25 13.29 2.53 19.84-.87 8.22-4.21-10.24-6.22-.54-4.38-6.24-2.39-19.03.89-22.96 3.97 7.31.02-7.08 5.48-2.98 7.36 3.98-3.36-4.55 3.3-3.62 3.89 4.86 9.45 3.95 10.61 11.34-.21-5.62 4.75-2.5 3.8.3 3.26-6.36-9.67-6.92-12.98-12.36-4.28-1.27 1.66-2.08 1.49-4.17zm7.7 16.23c-1.3 2.84-.83 2.52 0 0zm-10.5-6.7 1.45.91zm-6.67 4.66c-.58 2.4 1.91.34 0 0zm17.85 18.48c1.05.27-.6-1.15 0 0zm.32-23.73c-1.61-.98-1.8.7 0 0zm-6.81-8.79c.5.61-.63.15 0 0zm-15.74.1c-3.5 2 .82 3.18 0 0zm2.08.03c5.07 3.04-4.4 12.37-1 3.74.23-1.23.1-2.72 1-3.74zm16.81.06c-2.32.69 2.52.52 0 0zm23.3.04c.66.6-1.12.56 0 0zm-2.51.1c1.05 1.49-1.3 1.06 0 0zm-82.43.03c.03 1.4-.92.11 0 0zm.62.3c1.42 6.42-4.68 4.06 0 0zm62.14.52c-1 1.25 1.99.15 0 0zm-1.06.16c-1.42 1.1 2.33.42 0 0zm-3.34.14c.69.47-.33 1.02 0 0zm-49.82 0c2.45.26-1.45 1.18 0 0zm70.97.06c1.27 1.1-1.68.72 0 0zm4.33.04c1.52 2.16-2.68.54 0 0zm2.26.1c.64.66-.7 1.05 0 0zm-11.8.13c.86.95-1.29.48 0 0zm.61.02c.44.44-.79.42 0 0zm-76.75.16c.87.77-1.05 1.03 0 0zm102.74.27-.03.24zm-37.72 0c-2.04.1.79 1.42 0 0zm-61.59.02c.54.24-.63.28 0 0zm104.6 0c-1 2.32 1.11 1.22 0 0zm-110.08.05c1.54 2.52-3.38-.02 0 0zm89.04.14c.88-.08-.35.48 0 0zm-5.64.05c5.19.47-2.44 1.43 0 0zm-5.67.37c10.07 3.31-5.58 3.88 0 0zm-67.86.2c.65-.04-.36.48 0 0zm56.44.1c-.65.78 1.67 0 0 0zm-11.64.02c.54.24-.63.28 0 0zm46.1 0c-1.94 4.11.75 5.8 0 0zm-50.9.12-.03.24zm25.28.2c1.15.72-1.03 1.27 0 0zm15.3.04c1.42 2.86-1.85 3.1 0 0zm-2.08.07c.75 3.7-3.42 3.2 0 0zm-87.65.06c.66.2-1.01.2 0 0zm80.32.05c.65-.03-.36.49 0 0zm3.35.32c3.4-.12-2.79 1.15 0 0zm-4.8.05c-3.03.17.42 2.2 0 0zm-72.69.16c1.87 7.35 2.52.86 2.61 1.7 1 1.51.46 13.21 2.66 7.35.33 4.22 4.95 10.06 4.37 2.35 5.99 2.22.97-5.21 3.62-8.47.75-4.14 1.74 2.97 3.46-.59.18 5-.99 7.09 2.43 2.51 1.77-1.53 1.34-6.22 1.9-.91 6.09-3.92-.62 13.48-4.64 13.4-5.58.09-6.82 17.71-8.63 6.12.02-1.91-2.72-7.3-3-2.33-4.13-6.24-4.1-13.96-4.78-21.13zm-6.65 0c.8-.01-.5.5 0 0zm10.4.02c2.3 1.7-1.07 1.66 0 0zm85.35.13c.1 3.73 4.92 9.75 1.27 2.87l-.63-1.43zm-46.4.02v.07zm36.28.04c1.41 1.17-1.56 1.92 0 0zm-95.05.31c-.1 1.64 2.89 11.82.36 6.57-2.56 7.1-4.03-5.63-.36-6.57zm.56 5.02c-1.23-1.94.5 4.95 0 0zm118.77-4.88c-1.78 1.95 2.1.83 0 0zm-109.18.02c-1.31 1.65-3.53.01 0 0zm49.86.07c.27 1.08-1.41.64 0 0zm-63.76.06c.77 1.07-1.73 1.39 0 0zm97.28.25c.53.24-.63.29 0 0zm33.53 0c-.63.29.54.24 0 0zm-100.9.03c1.9 2.9-3.39 2.07 0 0zm-11.97.1c3.77-.32-.56 2.1 0 0zm78.01.02c1.43 2.92-1.06 1.47 0 0zm-92.02.03-.02.4zm-.35.06v.34zm22.96.01c4 1.44 4.83 12.1.9 11.7-2.09-4.92-2.71-7.23-.91-9.51l.02-1.07zm-25.06.1c.14.59-1.13-.04 0 0zm87.18.08c3 1.14-5.99.95 0 0zm-42.35.31c3.75 1.6-3.3 2.06 0 0zm83.36.1c.23 3.04 4.16 2.98 0 0zm-19.14.08-.03.24zm16.69.09c-.26 1.71.87 3.73 0 0zm-29.67.14c3.76 4 5.89 18.49.6 17.69-3.36-1.94-6.63-16.57-1.77-11.28.66 9.02 1.25-2.22.41-5.16l.23-.74zm19.3.03-.02.25zm-12.5.13c.35 1.33-1.12.45 0 0zm-88.39.1c-.31 1.66-1.96-.02 0 0zm47.27.07c-.23 4.12-1.24 2.93 0 0zm53.59.12c-3.95 4.65.28 9.53.33 1.7zm-14.85 0c.8 0-.5.5 0 0zm-54.45.61c1.14-.18-.33.71 0 0zm-26.3.3-.04.25zm73.92.11c.86-.02-.51.7 0 0zm-48.99.17c1.07-.18-.15.94 0 0zm-33.76.1c1.21 1.45-1.44 2.16 0 0zm32.64.04c.7 0-.08.74 0 0zm82.5.22c-1.48 6.03 5.04 4.63 0 0zm-47.4.2c.76.52.44.3 0 0zm21.84.1c.55.27-.62.25 0 0zm-53.95.06c-2.17 2.45-3.03.54 0 0zm-47.72.04c.5.62-.86 1.23 0 0zm28.61.96c-1.57 1.04 1.34 2.1 0 0zm-9.6.2c1.16 1.68-.86.87 0 0zm54.2.12c.7 1.79 6.78 10.3 6.85 9.28-2.4-3-4.27-6.44-6.85-9.28zm-29.1.05c6.14 3.86-4.6 16.37-2.9 5.41 4.57 1.28 2.4-2.7 2.9-5.41zm22.24.26c-5.26 2.17 1.23 3.33 0 0zm3.34 0c1.1.51 1.95.9 0 0zm-40.55.09c-.37.8 1.09-.2 0 0zm10.57.06c-1.34.93 1.46.55 0 0zm-40.62.17c2.89.46-.52 2.2 0 0zm26.29.02-.06.19zm22.1.19c-.52 7.03 4.67-.23 3.74 5.83 1.78 6.75-9.5 8.1-4.2 1.32.42-2.37.03-4.79.47-7.15zm23.4.02c1.04.46 2.15.94 0 0zm31.31.1c1.62 2.57-3.25.33 0 0zm3.69.2c-1.13 1.48 1.93.53 0 0zm-65.9.15c-1.43.22.56 1.3 0 0zm-16.53.12c1.2.4-.7.98 0 0zm66.84.05c-.83.92 1.4.07 0 0zm-18.05.01c1.85 2.21 2.18 0 0 0zm-73.1.4c.19.45-.65-.13 0 0zm107.93.37c-3.98 2.68 3.84 3.72 0 0zm-88.23.04c2.2 2.14-.85 1.73 0 0zm13.85.14c-.53.18.35.28 0 0zm6.9.31c-1.62 1.77 2.05 1.83 0 0zm-16.26.01c1.9-.11-.59 1.46 0 0zm88.3.01c-1.1.14.8.74 0 0zm.76.02c.34.77.24.53 0 0zm15.6.53c-1.92 3.87 2.5 9.2 0 0zm-16.75 0c-1.8 3.12 2.94 1.4 0 0zm-21.7.04c-.67.9 1.13-.08 0 0zm23.1.02.1.22zm-11.27.01c1.3.19-.98.71 0 0zm-100.9.08c3.4 1.38 4.33 3.28 0 0zm101.9.05c.78.33-.96.05 0 0zm-24.4.06c-1.31 1.73 2.83.2 0 0zm-46.34.07c1.25 1.69-2.54 2.03 0 0zm58.45.08c.1 1.84 2.8.54 0 0zm-18.36.08c-4.3.02 1.5 1.82 0 0zm44.31.13c-1.16 4.26 1.89 6.47 0 0zm-80.78.06c-3.89 1.53.97 3.47 0 0zm-17.2.15c1 1.21-1.39.97 0 0zm-12.65.56c1.19.8-.72 1.14 0 0zm67.9.03c1.07.93.86.74 0 0zm19.21.17c1.12.43-.4 1.58 0 0zm-73.01.24c1.35 1.49-1.77 2.65 0 0zm89.77.48c-5.81 1.3 2.55 9 2.43 5.22-6.51.08-1.73-7.37.63-1.19.02-1.76-1.23-3.77-3.06-4.03zm3.06 4.03c-.52 2.08.51.37 0 0zm-33.2-4.03c-.68.9 1.33.02 0 0zm37.6.29c-.37.67.78.48 0 0zm-41.77.14c2.23 7.82-9.8-3.78-4.43 5.43 3.9 3.48 6.73 2.97 2.35-.77 2.43-1.78 3.85-.6 2.3-.05 5.13-1.9 10.34 6.98 10.93 9.75 6.3 3.72-1.2-4.1 3.73-.76-2.32-3.4-10.62-9.09-14.88-13.6zm-43.51.37.22.32zm-28.1.05c3.43 1.9-3.19 1.62 0 0zm-1.8.08c1.38.18-1.04.4 0 0zm50.56.05c1.29 1.73-1.78 2.31 0 0zm37.36.06c-.66 2.7 1 5.32 0 0zm44.37.08c-.43.24.36.32 0 0zm-85.26.01c-1.83 2.67 1.23 1.77 0 0zm30.31.04c-1.07.83 1.33.42 0 0zm-6.83 0c-1.13 1.46 2.55.03 0 0zm45.33.08c.5 2.99 2.34 9.62 3.39 7.38.68 4.44 8.78 8.65 5.38 2.08-4.82-1.73-6.9-5.01-8.77-9.46zm-98.3.16c2.05.65-2.02.61 0 0zm64.96.18c-1.08.79 1.36.53 0 0zm36.43.18c2.98 4.36 3.43 3.76 0 0zm-113.78.08c1 .3-.56.52 0 0zm109.34.6-.03.24zm-76.01.13c1.74.3-.63 1.15 0 0zm44.59.15c-4.41 2.69 2.18 3.17 0 0zm-50.85 0c-1.1.35.93.83 0 0zm-8.88.03c-1.2.5 1.12.9 0 0zm-24.64 0c2.44-.07.45 1.04-.42.14zm112.94.4c-1.59 1.79 2.11.94 0 0zm-107.9.05c3.04 4.58-4.85 8.45-1.27 1.26l.49-.78zm-2.22.21c.56.4-.9.1 0 0zm43.1.06c1.4.55-1.09.82 0 0zm17.07.02c-.83 1.34-1.1 8.38-1.53 3.25-1.56 11.06 3.3-.88 1.53-3.25zm-1.16 7.37c-.62.15.37.35 0 0zm9-7.2c.7 0-.08.73 0 0zm-18.69.47c7.72 1.45-1.25 20.12-1.74 8.5 3.68-1.62 1.13-5.66 1.74-8.5zm-27.4.04c-.94 1.3 1.85.36 0 0zm3.08.16c-.05.92-.03.56 0 0zm64.52.1c-2.8 1.73 2.32 1.08 0 0zm-5.9 0c-3.03 2.33 1.21 3.92 0 0zm-85.34.46c1.21.47-1.15.5 0 0zm104.31 0c-.41 3.07 1.69 4.48 0 0zm25.3.92c1 2.47 1.7 2.52 0 0zm-94.4 0c2.03 4.1-2.7 4.95 0 0zm20.2.16c2.06 2.03-1.67 1.8 0 0zm-5.82.3c3.76 5.83-7.13 11.3-6.15 2.82 2.84-3.86 6.2 4.62 6.15-2.83zm51.6.14c.78.33-.95.05 0 0zm-11.12 0c-2.09 1.62 2.35 1.04 0 0zm-89.17.26c1.03 1.03-.86 1.9 0 0zm5.03.2c-.06 1.39-2.28 1.15 0 0zm24.5.06c-1 1 1.39.4 0 0zm57.52 0c-4.06 3.77 5.28 2.4 0 0zm7.1.46c.65-.03-.36.5 0 0zm1.5.1c-.47.18.23.58 0 0zm-21.78.07c-.68-.03.16.58 0 0zm13.38.09c2.17.3-1.29 1.15 0 0zm12.4.27c.92.07-.72.47 0 0zm-49.38.67c.48.42-.61.43 0 0zm-46.6.02c.2 1.53-1.82.09 0 0zm90.84.13c6.64 4.9-.45 20.73-2.68 7.07.7-2.43 2.85-4.4 2.68-7.07zm-89.57.06c.55.93-1.26.21 0 0zm125.48.1c.55 2.23 2.08 1.92 0 0zm-76.62.15c2.42 3.04-.97 1.76 0 0zm14.23.34c-1.73 1.2 1.88.93 0 0zm-66.04.39c-.13 4.92-6.18 1.82 0 0zm106 .12c-.81.66.55.47 0 0zm-104.12.02c3.53 2.77-3.3 2.43 0 0zm71.57.03c1.07 3.05 2.65 3.11 0 0zm12.76.08c-1.13 1.14 1.66.33 0 0zm11 .12c7.27.13-2.93 3.6 0 0zm-75.59.04c1.3 2.04-.79 1.28 0 0zm84.43.08c-5.1 4.7 5.23 12.66 1.2 3.97-.5-1.3-.99-2.6-1.2-3.97zm15.12.02c5.46 4.07-5.03 3.11 0 0zm-117.93.06c1.35 1.13-1.36 1.73 0 0zm29.4.72c.38 3.13-4-.16 0 0zm46.86.01.2.34zm-81.26.11c-1.55.12.22 1.48 0 0zm40.54.06c-3.26 1.7 1.7 1.39 0 0zm27.57.05c-.6 1.06 1.42-.07 0 0zm44.94 0v.4zm-67.24.29c-2.9 1.41 1.05 2.03 0 0zm-8.1 0c-.18 2.24 3.56.62 0 0zm60.46.01c-.62.48-1.3.03 0 0zm-29.74.31c-.22 1.9 3.06.2 0 0zm-63.46.4c.4.06-.89.15 0 0zm95.94.1c.54.84-1.27.2 0 0zm-2.26.11c.33.69-.88.3 0 0zm-28.04.03c-1.26 1.03 1.47.46 0 0zm-68.4.12c8.4 3.63 2.05 4.48 0 0zm87.94.32c-1.08.14.8.74 0 0zm22.9.25-.03.24zm-35.78.02.07.08zm27.66 0c-.2 1.7-.38 3.19 0 0zm-70.39.11c-.42 1.9-3.7.92 0 0zm65.95 0c.91.66-.88.45 0 0zm-1.97.02c.78.43-.68.74 0 0zm-25.03.34c-.84 1.46 1.97.01 0 0zm34.47.11c4.03 5.92-.27 4.94 0 0zm-66.65.06c-1.12 1.51 1.86.87 0 0zm53.13 0c.7 5.6 1.52 5.62 0 0zm-28.43.06c3.15.68 1.86 4.02 0 0zm4.5.13c-1.43 1.12 1.42 1.64 0 0zm-11.01 0v.47zm64.44.88c-.93 1.52 1.93.32 0 0zm-79.36.43c1.43.52-.31 1.86 0 0zm60.06.02c-1.3 1.9.14 3.18 0 0zm-71.03 0c.71.15-.14.83 0 0zm40.88.21c-.64 1.38 1.77.18 0 0zm1.33.42c-.31 2.02 3.25.14 0 0zm48.28.18c1.94 3.66 5 6.88 0 0zm-86.59.1c-4.74 3.54 4.6 2.14 0 0zm80.92.36c-2.54 3.19 10.9 4.83 2.6 1.06l-1.24-.68zm-34.84.08c.36 1.32-1.65-.04 0 0zm-40.16 1c2.47 1.79-5.17-.17 0 0zm-8.06.04c-1.41.02.78 1 0 0zm-10.48.06c2.64.58-1.96 1.23 0 0zm8.13.08c-6.6 1.64 8.18 1.54 0 0zm-31.41.07c.7.58-.59 1.82 0 0zm27.69.6c-1.23.73 1.5.44 0 0zm41.7.27c4.04.68-2.1.95 0 0zm-31.43.33c-6.14 2.62-1.9 5.88.28.66zm-9.82.04c-.76 1.38 2.2-.13 0 0zm77.48 0c-1.33 1.54 1.97.8 0 0zm-32.38.22c.95-.02-.87.38 0 0zm-38.77.23c-3.5 2.61-1.14 4.54 0 0zm-8.32.2c-.84.36-.42.18 0 0zm16.2.25c1.03 0 .61 1.23 0 0zm-10.53.44c-1.38.27 1.03.78 0 0zM56 268.2c3.1 1.04-.8 2.3 0 0zm109.3.03c.12 5.1 1.05 3.32 0 0zm-3.1.03-.1.2zm-77.12.24c-1.9 2.3 3.17-.1 0 0zm-8.9.87c-1.33 2.79 3.93-.35 0 0zm101.7.06c-3.07 1.32 3.05.97 0 0zm-45.83.1c.12.8-1.2-.32 0 0zm-78.5.34c3.05.73.68 3.52 0 0zm19.73.3c-1.16 1.3 2.17.13 0 0zm61.9.01c3.56 0-2.57 1.28 0 0zm44.22.16c-.64 1.55 2.07.05 0 0zm-46.78.1c6.26.52-3.6 1.2 0 0zm-83.72.21c5.14 2.1-4.43 6 1.1 1.63.23-.85-2.84-1.2-1.1-1.63zm8.67.08c2.17 1.24-2.24.77 0 0zm22.7 0c-.78 1.74 2.67 0 0 0zm10.06.12c-2.9 1.83 3.05 1.08 0 0zm-2.92.1c-1.69 5.08-17.1.47-7.03 4.03 3.65-.83 8.6.77 7.03-4.03zm.6 2.74c.13.24.7-.43 0 0zm-8.98-2.4c-1.43.1.93 1 0 0zm54.1.01c.23.49-.92-.11 0 0zm46.2.11c-2.61 2.1 4.32.97 0 0zm-85.6.07c-5.16-.38 1.06 2.13 0 0zm-15.73.08c-.96.8 1.31.3 0 0zm4.92.27c-.6 1.59 2.63-.22 0 0zm-22.6 0c5.67 1.91-14.54 2.17-3.67.77l1.87-.23zm120.72.13h.02zm-83.58.25c-1.58 1.12 2.03.71 0 0zm93.38.23c-.12 1.4 1.8.2 0 0zm-124.12.06c.32 3.27-3.63 2.3 1.59 2.62 4.04 6.45-11.12 3.21-15.8 3.77-4.18-4.6 12.95-4.3 14.2-6.4zm9.62.12h.06zm57.75.04c.18.44-.66-.13 0 0zm7.82.06c8.58 2.4-1.36 3.49 0 0zm-4.97.03c4.72 6.17-7.55.04 0 0zm-39.28.32c-4.3 1.5 2.9 4.35 0 0zm86.26.32c-.53 2.03 3.72-.28 0 0zm7.12.27c-.4 2.6 3.08.7 0 0zm1.77.05c-.54 1.21 1.57.28 0 0zm-101.1.42c-1.91 1.4 4.26-.36 0 0zm-18.57.03c-.9 1.47 2.05.26 0 0zm-20.44.08c9.97.93-5.29 2.71 0 0zm133.79.08c.89.25-.57.25 0 0zm7.19.12c-.39 1.81 2.61.98 0 0zm-53.2.04c4.33-.14.82 2.25-.73.52zm-54.18.2c-1.28 1.12 1.2.63 0 0zm46.87.18c.63.31-.91.22 0 0zm-66.5.2c-1.6.85 1.62.75 0 0zm12.09.05c-4.78 1.05 4.47.9 0 0zm-28.11.06c-1.92 3.62-4.17 2.81 0 0zm81.93.34c4.45.1 9.97 2.49 11.45 5.75-4.84-3.83 4.4 7.04-1.68 4.95-5.1-1.11-3.72 2.7-4.67 3.2-1.6 4.5-2.18-7.5-4.68 1.52 1.06-4.44-2.38 2.34-2.78-1.94 3.18-2.81.7-6.75-1.44-1.34-1.71 5.73-.95-1.71-3.3.83 3.74 2.22-5.08 1.54-.14-1.7 7.35-11.6-11.08 11.95-5.52-.1-6-4.9 6.63-3.8 7.75-9.19a7.1 7.1 0 0 1 5-1.98zm-7.73 13.31.63-.34zm6.52.38c1.8 1.1.84-2.12 0 0zm5.4-.03c1.58 1.66.82-1.77 0 0zm1.5-12.17-.75-.31zm-12.32-1.46c.65-.03-.36.5 0 0zm-63.87.01c-3.22-.4-11.6 2-3.73.86l1.8-.43zm21.63.12c-4.79-.1-3.8.75 0 0zm-37.4.1c1.03.29-1.11.41 0 0zm45.97 0c-4.08.6 2.8.8 0 0zm-26.12.13c-1.45.6 1.35.46 0 0zm-1.1.07c-1.3.8 1.54.54 0 0zm32.3 0c-12.7-1.5 4.4 3.76 0 0zm43.07.05c2.37.1.22 1.1 0 0zm-92.65.01c.34 1.85-2.04 1.14 0 0zm94.24.12c.77.33-.97.05 0 0zm-91.72.05c.53.24-.63.28 0 0zm34.83.1c.66.4.56.35 0 0zm-38.93.1c.7 1.39-1.8.1 0 0zm97.03.2c3.5 1.83-.28 2.31 0 0zm-3.77 0c.65-.03-.36.5 0 0zm5.11.13c.54.24-.63.29 0 0zm-69.77 0c-4.56.33.82 2.2 0 0zm59.98.18c-1.27 1.2 2.33.57 0 0zm-9.38.23c.74.1-.54.6 0 0zm6.94.15c-4.77.01 3.06 1.58 0 0zm3.52 0c-.6 1.32 1.77-.14 0 0zm4.11.64c-1.08.14.8.75 0 0zm-2 .82c.34 1.78 3.47-.64 0 0zm-2.3.35c-2.62.92 3.72.79 0 0zm1 .62c-.7 0 .18.38 0 0zm-2.4-.58c-1.8-.2.73 1.23 0 0zm-9.39.41c-.8 1.83-4.42-.61 0 0zm7.35.1c-3.98 2.74 2.97 2.89 0 0zm6.59.06c-5.05 2.72 4.67 3.12 0 0zm-9.19.05c-5.97-.17-.52 4.42 0 0zm6.08.3c-2.13 1.42.52 3.76 0 0zm4.9.5c-1.99.72 1.96.67 0 0zm-3.83.17c-1.41.02.44 1.23 0 0zm-15.93.77c1.13.06-1.22.34 0 0zm-1.22.15c.03 1.83-3.15.1 0 0zm21.43.18c-2.07 1.21 2.22 1.16 0 0zm-17.76.18h.04zm7.17.08c-2.04 2.24 3.1 1.58 0 0zm2.35.3c-2.52.71 1.41 1.39 0 0zm1.82 1.01c-4.78 1.62 1.48 2.72 0 0zm-16.12.05c-.66-.13.18.44 0 0zm11.03.13c-2.88.71.21 1.69.62.25zm9.06.04c-1.95 3.1 2.9 1.2 0 0zm-2.03 0c-3.92.46 1.6 1.67 0 0zm-11.89.3.04.26zm15.92.54c-1.53.17 1 .96 0 0zm-3.92.46c-2.4.63 1.54 1.16 0 0zm4.69.25c-2.69.41.96 1.64 0 0zm-24.36.04c3.53 5.39-7.48 2.26-.06.02zm1.67.23c2 .45-.5 1.82 0 0zm24.68.62c3.67 3.9-5.1 3.15.11 1.08zm-17.17.1c1.62 1.13 3.75-.23 0 0zm10.22.88.44.01zm-6.9 1.15c.53.24-.63.29 0 0zm-1.92.49c-.32-.01.08.73 0 0zm14.31.35c1.53 2.37-2.27.95 0 0zm-4.87 2.23c.54.24-.63.28 0 0zm-21.85.4c-.14.54.39-.08 0 0zm-28.94-59.11c1.89 2.9-3.4 2.07 0 0zm-5.56-6.61c-2.94 2.35-9.22.22-1.99.1zm5.56-.53c1.89 2.9-3.4 2.06 0 0zm2.11 3.17c2.13 4.27-1.71 8.42-.36 1.4zm-5.8-68.42c.77 3.76-4.11 1.06 0 0zm-1.05 2.91c.76 3.76-4.12 1.06 0 0zm3.97 1.33c.76 3.75-4.12 1.05 0 0z" style="fill:#000;stroke:#000;stroke-width:.771;stroke-dasharray:none;stroke-opacity:1"/></svg>