<svg xmlns="http://www.w3.org/2000/svg" xml:space="preserve" width="578.37" height="230mm" viewBox="0 0 153.03 230"><path d="M144.23 201.05c-.36.64 1.28 1.67 1.2 1.38-.01-.03 0-.95-.26-1.25-.28-.34-.83-.07-.94-.13zm-4.76 9.8c-.36.63 1.27 1.65 1.2 1.37-.02-.03-.01-.95-.26-1.25-.28-.34-.83-.07-.94-.13zm1.85-1.07c-.36.64 1.28 1.67 1.2 1.39-.01-.04 0-.96-.26-1.25-.28-.35-.83-.08-.94-.14zm1.06-1.58c-.36.63 1.28 1.66 1.2 1.38-.02-.04-.01-.95-.26-1.25-.28-.35-.83-.08-.94-.13zm.8-2.65c-.37.63 1.27 1.66 1.19 1.38-.01-.03 0-.95-.25-1.25-.29-.34-.84-.07-.95-.13zm1.05-14.29c-.36.64 1.28 1.67 1.2 1.38-.01-.03 0-.95-.26-1.25-.28-.34-.83-.07-.94-.13zm-.8.27c-.35.63 1.28 1.66 1.2 1.38 0-.04 0-.95-.25-1.25-.28-.35-.83-.08-.94-.13zm-3.96-8.73c-.36.63 1.27 1.66 1.2 1.38-.02-.04-.01-.95-.26-1.25-.28-.35-.83-.08-.94-.13zm-1.06.8c-.36.62 1.28 1.65 1.2 1.37-.01-.04 0-.95-.26-1.25-.28-.34-.83-.07-.94-.13zm-.26.26c-.36.63 1.27 1.66 1.2 1.38-.02-.04-.01-.96-.26-1.25-.29-.35-.84-.08-.94-.13zm-17.2-14.82c-.36.63 1.27 1.66 1.2 1.38-.02-.04-.01-.95-.26-1.25-.28-.34-.83-.08-.94-.13zm2.9 2.12c-.35.63 1.28 1.66 1.2 1.38 0-.04 0-.96-.25-1.25-.28-.35-.83-.08-.94-.13zm0 4.23c-.35.63 1.28 1.66 1.2 1.38 0-.04 0-.95-.25-1.25-.28-.34-.83-.08-.94-.13zm0 3.97c-.35.63 1.28 1.66 1.2 1.38 0-.04 0-.95-.25-1.25-.28-.35-.83-.08-.94-.13zm2.13-10.85c-.36.63 1.27 1.66 1.2 1.38-.02-.04-.01-.95-.26-1.25-.29-.34-.84-.08-.94-.13zm.26-1.59c-.36.63 1.28 1.66 1.2 1.38-.02-.03-.01-.95-.26-1.25-.28-.34-.83-.07-.94-.13zm-.26-2.64c-.36.63 1.27 1.66 1.2 1.38-.02-.04-.01-.96-.26-1.25-.29-.35-.84-.08-.94-.13zm1.05 4.5c-.35.63 1.28 1.66 1.2 1.37-.01-.03 0-.95-.25-1.25-.29-.34-.84-.07-.95-.13zm-.26 1.05c-.36.64 1.27 1.66 1.2 1.38-.02-.03-.01-.95-.26-1.25-.28-.34-.83-.07-.94-.13zm-2.91 3.97c-.36.63 1.27 1.66 1.2 1.38-.02-.03-.01-.95-.26-1.25-.28-.34-.83-.07-.94-.13zm.26 2.12c-.36.63 1.28 1.66 1.2 1.38-.01-.04 0-.95-.25-1.25-.29-.35-.84-.08-.95-.13zm3.44-9.26c-.36.63 1.28 1.66 1.2 1.38-.01-.04 0-.95-.25-1.25-.29-.35-.84-.08-.95-.13zm-1.85-3.97c-.36.63 1.28 1.66 1.2 1.38-.01-.04 0-.95-.26-1.25-.28-.34-.83-.08-.94-.13zm-1.32-4.5c-.36.63 1.27 1.66 1.2 1.38-.02-.04-.01-.95-.26-1.25-.28-.34-.83-.07-.94-.13zm-1.06-.26c-.36.63 1.28 1.66 1.2 1.38-.02-.04-.01-.96-.26-1.25-.28-.35-.83-.08-.94-.13zm3.97 7.14c-.36.63 1.27 1.66 1.2 1.38-.02-.04-.01-.95-.26-1.25-.28-.34-.83-.08-.94-.13zm-.53 3.97c-.36.63 1.27 1.66 1.2 1.38-.02-.04-.01-.95-.26-1.25-.28-.34-.83-.08-.94-.13zm2.38 3.7c-.36.64 1.28 1.66 1.2 1.38-.01-.03 0-.95-.26-1.25-.28-.34-.83-.07-.94-.13zm-4.76 3.97c-.36.63 1.27 1.66 1.2 1.38-.02-.03-.01-.95-.26-1.25-.28-.34-.83-.07-.94-.13zm1.59 1.85c-.36.64 1.27 1.67 1.2 1.38-.02-.03-.01-.95-.26-1.25-.29-.34-.84-.07-.94-.13zm.52-6.35c-.35.64 1.28 1.67 1.2 1.38-.01-.03 0-.95-.25-1.25-.29-.34-.84-.07-.95-.13zm-11.64-31.48c-.36.63 1.28 1.66 1.2 1.38-.01-.04 0-.95-.25-1.25-.29-.35-.84-.08-.95-.13zm2.91-3.97c-.36.63 1.28 1.66 1.2 1.38-.01-.04 0-.95-.25-1.25-.29-.34-.84-.08-.95-.13zm1.33-4.5c-.36.63 1.27 1.66 1.2 1.38-.02-.03-.01-.95-.26-1.25-.29-.34-.84-.07-.94-.13zm-3.7 3.44c-.37.63 1.27 1.66 1.19 1.38-.01-.03 0-.95-.25-1.25-.29-.34-.84-.07-.95-.13zm-.54 4.76c-.36.64 1.28 1.67 1.2 1.38-.01-.03 0-.95-.25-1.25-.29-.34-.84-.07-.95-.13zm1.86-5.82c-.36.64 1.27 1.66 1.19 1.38-.01-.03 0-.95-.25-1.25-.29-.34-.84-.07-.94-.13zm.52-5.82c-.35.63 1.28 1.66 1.2 1.38-.01-.03 0-.95-.25-1.25-.29-.34-.84-.07-.95-.13zm-2.11 3.97c-.36.63 1.27 1.66 1.2 1.38-.02-.04-.01-.95-.26-1.25-.29-.34-.83-.07-.94-.13zm-1.85 3.97c-.36.63 1.27 1.66 1.2 1.38-.02-.04-.01-.95-.26-1.25-.29-.34-.84-.08-.94-.13zm1.32-8.73c-.36.63 1.27 1.66 1.2 1.38-.02-.04-.01-.95-.26-1.25-.28-.35-.83-.08-.94-.13zm-.53-4.23c-.36.63 1.27 1.66 1.2 1.38-.02-.04-.01-.96-.26-1.25-.28-.35-.83-.08-.94-.13zm-2.38-1.06c-.36.63 1.27 1.66 1.2 1.38-.02-.04-.01-.96-.26-1.25-.28-.35-.83-.08-.94-.13zm.53 2.64c-.36.64 1.27 1.66 1.2 1.38-.02-.03-.01-.95-.26-1.25-.29-.34-.84-.07-.94-.13zm-2.12 2.91c-.36.64 1.28 1.66 1.2 1.38-.01-.03 0-.95-.26-1.25-.28-.34-.83-.07-.94-.13zm-.26 2.65c-.36.63 1.27 1.66 1.2 1.38-.02-.04-.01-.95-.26-1.25-.29-.34-.84-.08-.94-.13zm3.17 4.23c-.36.63 1.28 1.66 1.2 1.38-.01-.03 0-.95-.26-1.25-.28-.34-.83-.07-.94-.13zm-6.35-5.02c-.36.63 1.28 1.66 1.2 1.38-.01-.04 0-.96-.26-1.25-.28-.35-.83-.08-.94-.13zm-2.12-2.12c-.35.63 1.28 1.66 1.2 1.38-.01-.04 0-.95-.25-1.25-.29-.35-.84-.08-.95-.13zm-1.85-1.06c-.36.63 1.28 1.66 1.2 1.38-.01-.04 0-.95-.25-1.25-.29-.34-.84-.08-.95-.13zm-2.38-1.85c-.36.63 1.28 1.66 1.2 1.38-.01-.04 0-.95-.26-1.25-.28-.35-.83-.08-.94-.13zM99.25 123c-.36.63 1.28 1.66 1.2 1.38-.01-.03 0-.95-.25-1.25-.29-.34-.84-.07-.95-.13zm3.97 1.59c-.36.63 1.28 1.66 1.2 1.38-.01-.04 0-.95-.26-1.25-.28-.34-.83-.08-.94-.13zm2.12.8c-.36.63 1.27 1.65 1.2 1.37-.02-.03-.01-.95-.26-1.25-.28-.34-.83-.07-.94-.13zm5.03 3.17c-.36.63 1.27 1.66 1.19 1.38-.01-.04 0-.95-.25-1.25-.29-.35-.84-.08-.94-.13zm-29.1-14.03c-.37.64 1.27 1.67 1.19 1.39-.01-.04 0-.96-.26-1.25-.28-.35-.83-.08-.94-.14zm.78-1.85c-.35.64 1.28 1.66 1.2 1.38-.01-.03 0-.95-.25-1.25-.29-.34-.84-.07-.95-.13zm.27-1.06c-.36.64 1.27 1.67 1.2 1.38-.02-.03-.01-.95-.26-1.25-.28-.34-.83-.07-.94-.13zm-.8-3.17c-.35.63 1.28 1.66 1.2 1.38-.01-.04 0-.95-.25-1.25-.29-.34-.84-.08-.94-.13zm-8.99-1.59c-.36.63 1.28 1.66 1.2 1.38-.02-.03-.01-.95-.26-1.25-.28-.34-.83-.07-.94-.13zm1.59-1.85c-.36.63 1.27 1.66 1.2 1.38-.02-.04-.01-.95-.26-1.25-.29-.34-.84-.08-.94-.13zm2.38-1.06c-.36.63 1.27 1.66 1.2 1.38-.02-.03-.01-.95-.26-1.25-.28-.34-.83-.07-.94-.13zm-4.76-.26c-.36.63 1.27 1.66 1.2 1.38-.02-.04-.01-.96-.26-1.25-.29-.35-.84-.08-.94-.13zm-2.65 1.85c-.36.63 1.28 1.66 1.2 1.38-.02-.04-.01-.95-.26-1.25-.28-.34-.83-.08-.94-.13zm-2.12 1.85c-.36.63 1.28 1.66 1.2 1.38-.01-.04 0-.95-.25-1.25-.29-.34-.84-.07-.95-.13zm6.88-2.91c-.36.63 1.28 1.66 1.2 1.38-.01-.04 0-.95-.25-1.25-.29-.34-.84-.08-.95-.13zm2.65 1.06c-.36.63 1.27 1.66 1.2 1.38-.02-.04-.01-.95-.26-1.25-.28-.34-.83-.08-.94-.13zm1.32-.27c-.36.64 1.28 1.67 1.2 1.38-.01-.03 0-.95-.26-1.25-.28-.34-.83-.07-.94-.13zm-2.38-1.58c-.36.63 1.28 1.66 1.2 1.38-.02-.04-.01-.96-.26-1.25-.28-.35-.83-.08-.94-.13zm0 .26c-.36.63 1.28 1.66 1.2 1.38-.02-.03-.01-.95-.26-1.25-.28-.34-.83-.07-.94-.13zm0-.26c-.36.63 1.28 1.66 1.2 1.38-.02-.04-.01-.96-.26-1.25-.28-.35-.83-.08-.94-.13zm6.24 77.13c-.67 1.34 1.34.76 0 0zm-1.89 2.19c-.34.68.43 4.82.69 4.73.06-.02 1.63 1.31 1.9.74.23-.45-1.4-1.75-1.46-2.24-.12-1.14-.8-3.05-1.13-3.23zm3.45 5.66c-.68 1.33 1.33.75 0 0zm1.16 1.3c-.67 1.34 1.34.76 0 0zm1.95-.87c-.68 1.34 1.33.76 0 0zm-.4-1.3c-.67 1.33 1.34.75 0 0zm-.77-1.75c-.17.34-1.9-1.88-1.83-1.76.21.37 2.83 2.33 1.83 1.76zM83.24 183c-.37.74 1.04 1.97 1.29 1.83.2-.1-.69-1.49-1.3-1.83zm-4.01-10.72c-.46.8.9.45 0 0zm2.11-2.65c-.46.81.91.46 0 0zm2.39-1.85c-.46.81.9.46 0 0zm2.11-2.12c-.46.81.91.46 0 0zm-16.67-14.55c-.46.81.91.46 0 0zm6.88-2.91c-.46.81.91.46 0 0zm1.06 8.47c-.46.8.9.45 0 0zm-.53 2.11c-.46.81.91.46 0 0zm-3.17 7.67c-.46.82.9.46 0 0zm-4.5-.52c-.46.8.9.45 0 0zm-1.32-2.91c-.46.8.9.45 0 0zm.26-3.18c-.46.81.9.46 0 0zm.8-4.23c-.47.8.9.46 0 0zm.52-2.12c-.46.81.91.46 0 0zm14.03-9.52c-.46.8.9.45 0 0zm.8 5.29c-.47.8.9.46 0 0zm-3.18 4.5c-.36.63.39.55.3.27q0-.12-.3-.28zm-3.44-2.39c-.46.82.9.46 0 0zm-.53-.26c-.46.81.9.46 0 0zm12.17-8.73c-.46.81.9.46 0 0zm1.32 3.44c-.46.8.9.46 0 0zm-2.91 3.17c-.46.81.9.46 0 0zm-1.85 2.12c-.46.81.9.46 0 0zm-4.5 6.08c-.46.82.9.46 0 0zm-2.91 6.09c-.46.81.9.46 0 0zm-2.38 3.97c-.46.81.9.46 0 0zm-2.65 3.44c-.46.81.91.46 0 0zm-.26-41.28c-.46.82.9.46 0 0zm2.11 2.12c-.46.81.91.46 0 0zm-1.85.8c-.46.8.91.45 0 0zm-3.97 1.32c-.46.8.91.46 0 0zm-1.32.53c-.46.8.9.45 0 0zm64.82 6.08c-.46.81.91.46 0 0zm0 2.91c-.46.81.91.46 0 0zm.8 2.65c-.46.8.9.46 0 0zm.26 1.58c-.46.82.91.46 0 0zm-27.45-75.17c-1.39 5.4-1 11.23-1.48 16.64-3.12 1.18-1.79 7.48-6.13 4.94-2.14-1.73-9.08 3.51-5.97-3 2.84-6.98-8.6 8-5.4-1.1.09-3.09-1.76-14.62-2.14-6-.13 2.63.03 14.07-1.65 6-.04-2.26-2.63-12.75-2.68-5.42.07 4.43.97 5.25-.61 10.37-4.32-1.05-1.9-10.37-5.4-10.52-.52 2.74 2.75 12.2-2.01 10.62-2.22-2.55-1.58-10.97-4.07-10.75-.73 2.97 2 12.54-.28 11.67-.14-3.1-2.98-5.48-1.75-1.06 3.61 5.98-3.19 7.57-7.26 4.35-3.24 1.03 4.56 6.57 5.65 9.3 1.56 4.52-1.8 13.96 2.05 15.24 1.72-5.16.1 1.9.98-.88 1.89 3.57 4.73-2.84 4.67 2.47.95 3.9 3.58 9.26-3.01 10.06-4.66 3.46-13.42 2.4-13.63 9.98-4.08 5.27-10.34 7.47-10.46 15.37-1.31 3.5 4.66 7.64 3.15 2.05 1.13.43 5.51 9.18 5.3 3.87-2.1-2.49-.83-9.07 1.6-3.49 5.03 4.87 8.26-3.84 2.67-6.2-1.52-6.76 8.5-5.68 5.46 1.12 2.03 6.03-.44 11.39-2.53 16.28.37 4.56-1.16 10.65 1.09 13.23 2.59 3.31-1.94 10.32 2.37 13.1 1.97-3.45-1.8-9.6 2.45-11.44-1.72 2.92 2.48 8.94 1.97 2.65.11-6.72 1.46-13.6.25-20.22-6.17-5.66-.99-13.82-2.24-20.87-1.06-3.15-2.05-8.2 1.9-3.45 4.96 1.06-.46 11.87 2.1 16.74 3.48 4.93 2.48-8.5 1.45-10.8-.56-3.94-.46-13.48 5.72-10.8.8 2.55-.08 10.46 2.26 10.02 1.2-2.9-.89-13.23 3.8-11.34-.9 2.5 2.28 12.88 3.1 5.43-.38-2.52.1-12.63 2.35-5.76-.51 2.6 2.15 5.27 2.57 1.4 1.46 7.39-8.07 10.33-9.48 17.1-3.24 6.2-8.17 11.97-9.85 18.52 2.11 6.55 7.45 11.92 8 19.12.63 6.7-3.9 13-8.5 17.43-3.62 1.97-11.47 1.18-11.05 7.09 2-2.42.8 4.14 4.01.23 2.63 5.92 8.54-.91 13.6-1.08 2.6-3.4 7.63-7.8 8.13-10.16.84 4.18 2.87-1.95 4.1 1.37.05-3.5-3.21-7.7.01-9.84 1.1-7.27-6.24-11.5-5.3-19.16-4.64-4.24-.75-10.62 4.7-11.57 1.34 5.47.46 12.12 2.78 17.74-.01 2.04 1.7-7.22 2.33-1.75.7 2.62-1.49 12.18 1.37 10.23 1.68-9.1 3.53 5.74 3.78 8.72.28 3.25 2.46 5.74 1.77 1 .78-3.66 1.85-13.66 2.62-5.01 2.1 7.05.56-4.82 2.36-7.03 2.73-3.36-1.55-10.8.37-11.74 3.85 3.95 2.76 9.95 4.04 15.1 2.36-2.38-1.18-13.43 3.51-10.45 2 3.04 1.67 12.05 3.35 11.43-.34-6.53 4.55-5.4 4.8-.06 3.82 4.1 4.43 10.97.39 15.1-5.66 4.51-13.14.73-19.62 1.52-4.03-.88-13.55 2.6-7.88 6.77 1.41-6.53 10.2-3.45 15.23-3.62 3.3-.92 8.87 1.19 3.9 4.37-2.42 3.13 1.6 3.78 3.23 2.2 1.08 5.08 2.45.87 5.28.74.23 5.44 5.14-3.38 7.06 1.7 2.67-6.58 6.46-12.31 12.12-16.94 6.24-9.43 2.97-22.24-3.17-30.87-4.19-6.6-11.97-11.6-11.09-20.39.23-5.33-1.88-12.7 1.15-16.83 3.16 5.65-.14 15 .45 21.74 6.5 3.53 1.68-8.7 2.28-12.21.67-4.15 4.04-7.16 1.56-12.13.38-5.35-.73-10.42-2.44-15.4-.74-2.65-.08-13.43 2.68-9.7-1.84 3.66 1.2 13.77 2.48 5.05-1.82-4.49 1.08-10.23-3.4-12.87-.76-4.5-.16-12.04-3.97-14.53-1.96 3.96-.06 13.56-3.36 15.27-3.07-3.02-3.04-7.32-.13-9.78a55 55 0 0 0-3.93-16.2c-1.92 1.71-.77 5.76-.57 1.03 1.4.98 1.26 6.56.28 1.7.78 2.25-2.81 1.24-.26 3.5-1.4 1.23 2.81.06 2.58-.46.74 1.64-.62 7.4-.4 5.1.6 3.6 0-2.33.65 1.48-.64 5.37-2.91-1.95-1.44-4 1.87 3.23.77-1.9.22-.66-.52-2.2-1.29 3.34-2.05-.46-2.17 5.91-.46-5.93-1.64.72-.53 2.61-5.27 6.95-4.56 1.12.36-2.12-.71-12-.93-4.66.33 3.49-4.36 3.16-.08 5.11-1.7 6.52-6.06 1.35-3.3-2.08-1.92-5.78-.74-12.46-4.98-17.46zm-.53 1.52c.96 4.25.42 5.26 0 0zm.95.19c1.02 6 .66 4.56.7 5.42-1.34 2.67-.17-4.01-1.15.23.03-1.89.5-3.76.45-5.65zm-.33.34c.28.83-.51 1.5 0 0zm.53.18.06.1zm-.06.25c1.44 4.11.1 1.68 0 0zm.85 2.12c1.15 1.25-.29.76 0 0zm-.08.65-.05.26zm.12.26c.54.45-.03.93 0 0zm.49.19c.38.35-.38.35 0 0zm.06.41c.55.24-.38.42 0 0zm-.2.25-.03.06zm.26.26c.52.27-.46.7 0 0zm-.2.12-.04.68zm-22.4.72c.23 2.72-.01 4.08 0 0zm23.18.58c0 1.52-2.78.46 0 0zm-2.98.14c1.46.02-.42.74 0 0zm-.7.19c3.4 2.3-.73 2 .22 4.62-.4-1.98-.05-3.31-.23-4.62zm3.56.21c2.05 2.85-.66 4.78 1.15 8.01-1.72 3.46-2.5-3.49-2.87 1.24-3.2-1.78 1.56-2.83-.98-5.57.63-3.55 1.14 4.7 1.91-.97.05-2.75-1.06 3.84-.88-1.2.75-.55 2.04.18 1.67-1.5zm-.35.21-.34.34zm-1.86.02c1.1-.05.23.71 0 0zm2.66.1c-.63.35-.13.72 0 0zm-.68.11-.16.14zm-27.53.06c.42 1.63.18 2.41 0 0zm26.77.06c.54.13-.69.25 0 0zm-1.2.17.33.13zm.74.08c1.27.43-.62.3 0 0zm-25.9.2v.5zm4 .04c.45 1.6-.39 1.05 0 0zm23.44.35c-1.57 2.36 1.04 1.97 0 0zm-2.37.01.12.3zm.93.12c-.41.23.12 1.18 0 0zm15.17.22.14.95zm-16.92.14.03.32zm-24.14.23.02.32zm3.72.3c.38.52-.31.71 0 0zm22.8.03c-.34 1.1-.82.1 0 0zm-26.4.22c1.1 3.9.26 3.56 0 0zm-12.35.26-.14.28zm53.51.1.03.29zm-36.7.04.1.3zm28.9.1.02.72zm-45.57.07c1.7 3.38.05 3.55 0 0zm11.77 0c.27.67-.59.6 0 0zm25.74.03.03.28zm-37.9.1c1.15 2.86-.43.78 0 0zm6.05.02.03.27zm30.65.22.02.37zm-20.34.02c.42 1.33-.42 2.27 0 0zm.4.1c1.92 1.66-.71 2.13 0 0zm-10.6.12.04.28zm.24 0 .03.28zm5.99.19c.92 1.86-1 .8 0 0zm-12.44.13c1.26.41-.97 2.4 0 0zm12.26.12.18.43zm-5.7.04c1.72 3.17 2.82 11.77.78 7.64.86 3.24 4 3.5.24 3.82-2.16.4.25-3.67-.8-2.19-.87-3.67.34-6.3-.22-9.27zm-.41 0c.6 2.13-.78 1.31 0 0zm39.84.12-.04 1.04zm8.26.06.14.56zm-13.62.04.02.16zm-3.42.07c1.1 2.04-.77 1.32 0 0zm-30.88.04.04.28zm46.8.18v.5zm-36.4.08v.75zm22.63.09.11.3zm1 .17.03.29zm5.24.02c.44.37-.24.48 0 0zm-45.1.04.02.28zm54.02.2-.1.85zm-54.47.02v.64zm12.38.02c.8.09-.8 1.62 0 0zm-12.15.01.02.32zm36.06.02.05.4zm4.53 0c1.16.6-.9.79 0 0zm-34.2.07c.54.67-.9 1.14 0 0zm29.29.01.37.42zm17.54.05-.07 1.04zm-13.95.02c-.74.84.53.68 0 0zm-22.37 0c.65 2.2-.38 2.36 0 0zm21.23.14c-.56 2.2.64.58 0 0zm-20.8.04.12.64zm19.15.17c.61.58-.37.44 0 0zm-.94.05c1.35 1.85.1 3.3 0 0zm-19.64.02c.6 1.21-.27 2.7 0 0zm16.95.03c-1.67 3.2 2.3 3.98 0 0zm-36.69.14c-2.78 3.8 3.83 5.27.43.61 0-.3-.25-.43-.43-.61zm15.84.04.04.28zm33.68.01.02.97zm-32.59.01c.33 4.15.65-1.02.92 3.75 1.13 5.42-1.32-5.01.04 1.72.95 3.75-.76-1.47-.08 1.95-1.32-1.96-2.54 3.32-1.83-1.3.06-1.83-.19-8.2.8-4 .34-.55-.48-1.68.15-2.12zm27.99.08-.05.37zm-24.75.09.03.32zm-9.4.02c-.41 1.13.31 1.26 0 0zm-6.6.01c1.3 3.68 1.01 7.54 3.77 10.4 4.06-.71-.3 1.52 3.24 2.76-3 .82 2.04-.16-2.05.59-4.58 2.23-.32-4.13-3.66-5.36-.57-2.93-1.53-6.28-1.3-8.39zm32.56.14.03.32zm7 .04.01.43zm-22.5.02c.78 1.1-.17.91 0 0zm35.02.04c1.33.39.85 1.39 0 0zm-56.13.03c.52 2.1.2 1.4-.05 2.63a9 9 0 0 1 .05-2.63zm58.24.05-.7.3zm-48.13.05c-.21.62.64.52 0 0zm33.84.08.18.28zm-7.57.27.03.32zm21.7.08c-.25.7-1.25-.27 0 0zm-14.6 0c-.75.51.63.8 0 0zm-6.75.04.03.32zm19.35.01c-.62.25 1.17.22 0 0zm-35.81.05c.23 1.54-.77 1.59 0 0zm20.55.19c-.45.38.63.17 0 0zm-19.59.15c.37 1.73-.85 1.95 0 0zm35.64.02c.6-.38 0 .68 0 0zm-1.82.01c.2 1.24 1.2.47 0 0zm-44.74.04c-.73 1.11 1 2.07 0 0zm17.41.05c-2.17 3.5-2.34 9.04-1.84 11.32-.73 2.72-1.78 3.3-.68.89-1.6 2.75.23-.35-2.71 2.7.27-1.4.91-4.38-.55-6.07 3.15.54 2.9-6.84 5.78-8.84zm13.18.01-.21.2zm-29.66.11c.57.1-.23.44 0 0zm25.48.04.03.28zm21.54.08c-.48.4.48.3 0 0zm-15.34.11c-.38.13.6.9 0 0zm-.73.03.03.22zm6.83.12c1.58.18.13 1.19 0 0zm-44.04.08c1.01.63-.05 1.33 0 0zm36 .02.03.32zm-40.37.12-.2.4zm41.36.01.08.97zm-.93.24.03.28zm17.7.02c.23.36-.68.83 0 0zm-3.13 0 .06.67zm-6.78 0c1.2 2.48-.85 8.5-.06 2.75.22-.89.44-1.86.06-2.74zm-5.02.02c.45.31-.3.56 0 0zm4.53.04c.26.37-.4.32 0 0zm-28.36.06c.33.63-.7 1.65 0 0zm-15.25.01c.83.7-.02.79 0 0zm-3.98.01c.5.57-.26 1.83 0 0zm50 .03c-.77.48 1.65.43 0 0zm-2.82.05-.46.35zm-31.37.09c-.25.68.75.72 0 0zm39.88.01c.26.15-.48.33 0 0zm-46.66.03.03.32zm48.1.02-.15.2zm-42.25.06c.3.8-.56 2.44 0 0zm41.9 0c.49.25-.36.19 0 0zm-46.82.02.03.27zm.58 0 .03.27zm33.54.05c-1.36 1.58-2.87-.85 0 0zm5.77.02c-.32.68.83.43 0 0zm6.02 0c.7.87-.56.43 0 0zm-35.3.05c-1 4.47-1.77 2.01 0 0zm34.54.12c.67.15-.14.5 0 0zm-14.23.03c-.2.84-1.14.05 0 0zm-30.87.01c-.3.6.44.39 0 0zm28.49.02c.24.41-.72-.02 0 0zm1.75.02-.4.17zm-35.53.09c.82 1.1-.24.95 0 0zm45.68.01c-.44.22.26.35 0 0zm-40.9.04.02.28zm28.74 0c.16.35-.4.02 0 0zm4.06.08c.84.45-2.02.45 0 0zm-39.24.04c.67 2.44.12 4.32 0 0zm52.7 0c-.35 2.82-.27 3.56.14 4.06-1.28 5.68-1.6-6-.72-3.11-.6-.45 0-1.15.59-.94zm-10.89 0c.54.46-.96.7 0 0zm-40.49.03c.67 1.22-.38.85 0 0zm11.62.06c.07 1.76 1.06.72 0 0zm-5.92.02.02.28zm33.04.12c.06.48-.54-.2 0 0zm-2.77.06c.14.38-.44.13 0 0zm-21.08.03c.28.81-.56.36 0 0zm-14.58.05.04.17zm31.54.1.1 1.1zm-1.37.07c-2.24.78 1.25 1.55 0 0zm-24.61.01.12.3zm5.54.02c-1.33 1.57.39.7 0 0zm22.03.06c2.33 2 2.96 4.99.84.78-.71-1.3-3.12 1.34-.84-.78zm18.82.02v.78zm-.65 0c.1 2.17-.27 1.83 0 0zM76 91.38l.03.28zm34.48.12c.36 1.36-.84 1.55 0 0zm-4.65.07c4.43-.77 1.18 3.57 0 0zm-4.71.03c.26.48-.61.37 0 0zm-29.97.02c1.27 2.25.13 2.72 0 0zm4.93.02.03.27zm.23 0 .03.27zm46.45.06.04.21zm-13.61.04c.37.57-.5.44 0 0zm-17.42 0c-.4.15.03 1.06 0 0zm-1.97.09c-.5 1.48-2.49 1.34 0 0zm14.35.08c4.22 1.96-.48 6.72-.6 1.18l.09-.44zm-12.2.05c-1 3.13-.06 1.58 0 0zm-25.05.03c.22 2.88.5-.47.93 3.26-.06 1-1.59-4.44-.32.76-.6-1.73-1.1-3.13-.6-4.02zm43.16.05c.27.45-.44.4 0 0zm-38.95.07.02.33zm53.77 0 .01.24zm-42.62.01c-.52.27.59.5 0 0zm-12.1.1.04.27zm12.71.04c-.2.78.61.4 0 0zm-1.62.03v.4zm37.32.05-.11.3zm2.36.05.04.28zm-13.24.02c.43.37-.25.47 0 0zm-31.8.05.02.32zm-4.67.22.02.28zm-.93.02.03.32zm52.34.03c.97.43-.23 1.5 0 0zm-36.97.03c-.33 1.8-2.01 2.34 0 0zm32.68 0c-.44 3.65-1.74 3.19 0 0zm-30.07.02c.03 1.43-1.1 1.12 0 0zm31.87.02c1.07.49-.42.53 0 0zm-11 0c1.16 0-.85.52 0 0zm21.25.1c.33 3.6-.58 5.28-.27.75-.06-.32.08-.53.27-.75zm-52.72.14c.67 1.44.6 1.98 0 0zm47.14.02.08.11zm.7.1c.3.2-.52.35 0 0zm.3.06c.27 2.8-.4 3.43 0 0zm-55.58.12c.7.48-.87 1.43 0 0zm1.57.03.04.28zm7.72 0c.56 2.5-1.28 3 0 0zm40.78.14c1.4 4.09-.69 3.49 0 0zm-22.55.2c.37 3.28-6.49 1.65-1 .65zm10.28 0c.61.48-.34.84 0 0zm23.06.03c1.59 3.5.23 4.7 0 0zm-28.55.06-.02.17zm20.3.03c.38.23-.4.08 0 0zm-1.9.03v.1zm-2.67.03c-.12 1.21-.58 2.66 0 0zm-31.14 0c-2.77 3.15-2.2 8.34-5.3 10.86 1.73 1.84 5.73 3.28 2.65 5.2-.68 2.67 2.94 2.76 1.34 3.97 2.12 2.88-2.68-2.72-.94 1.6-2.35-.09-.03-2.94-1.87-.28-1.78-1.82 4.13 4.18-.38 2.64-2.16 2.88-2.96 6.1-2.82.46-.75-2.66 1.72-6.74 1.8-1.18-.03-.18.35-9.25-.63-4.6-1.5-3.71.03 1.89-2.37-.56-.34-1.68-1.26.87-.3-2.01-1.64 2.92.77-2.11-1.33.74 2.7-2.37-2.24-3.19 1.73-1.9.61.27-1.31-1.33-.36-1.11-1.94-.24-4.82-3.78-4.88.95 1.88 2.54-4.44 2.18-1.53-.57-1.69 3.57 3.86-6.01-.41-.52-2.13 6.2-1.07-.82-1.46.33-.46-3.02-2.55 6.68-1.84.28-1.08-1.12.37 5.17-1.98.91 2.03-2.34 2.52-4.19 5.88-5.52-1.84 2.54 2.5-2.8 1.36 1.18.64-1.56 1.33-3.26 1.4-1.08 3.6-1.33-.91-1.13 3.46-1.66 1.45-1.3 1.82 1.52 2.7-1.15-.3 3.2 3.65-.24.69.95-.52-4.53 2.54-4.55 3.86-7-2.7 2.77.93-.78 1.53-.92zm44.3.18.04.28zm-59.55.09c.56.52-.8.54 0 0zm52.2.04c-.8.47.7.37 0 0zm-38.66.08c-2.94 1.7-6.18 1.4-3.64 3.74-1.68 4.85-9.18-.1-3.42-1.03 2.47-.62 4.55-2.75 7.06-2.71zm-3 .03v.17zm-15.04 0 .01.28zm52.08.01c1.22 2.27-.87 1.06 0 0zm-47.35.03.22.25zm-1.33.07c-.14 2.15-.91.67 0 0zm47.72 0 .03.28zm-48.56.04c.6 2-.8 2.41 0 0zm60.73 0-.03.17zm-7.9.06c.5 2-.5 2.64 0 0zm-32.41.11c.53.2-.05.56 0 0zm-18.32 0c.99 1.76.08 1.76 0 0zm30.14 0-.14.1zm20.91.03c.74.5-.52 1.12 0 0zm-29.02.08c-1.21 1.58-1.15.1 0 0zm-7.1.01c.2.54-.98.94 0 0zm1.14 0-.67.3zm-9.46.02c.08.7-.98.26 0 0zm43.44.03v.7zm-13.74.04c.5.67-1.49-.16 0 0zm13.1.06-.07.39zm10 0 .02.32zm-.6 0c2.1 3.4-.93 5.44-.05 1.28l.04-1.2zm-54.1.07c-.7.47 1 2.1 0 0zm.99 0c.71.06-.28.63 0 0zm39.59.07-.08.1zm-8.7.05c.89.13-.62.43 0 0zm-36.14.05c.94 1.28-.24.82 0 0zm41.17.08c3.1.05 1.15.77 0 0zm-4.04 0c1.3-.1.2.5 0 0zm-33.86.02c.15.49-.42.22 0 0zm41.4.04-.04.08zm-5.59.03c1.44.04-1.98.14 0 0zm1.38.01c1.36.08-.24.4 0 0zm11.57.03.04.28zm-16.23.04c-.12.94-.83-.15 0 0zm-30 .04.17.11zm12.53 0c-.15.47.8.73 0 0zm26.61.05.02.07zm-45.36.1c.3.48-.3.15 0 0zm52.92 0 .03.28zm-45.64 0c.4.45-.66.18 0 0zm-1 .11v.07zm39.58.02c1.07.52-.53.4 0 0zm-42.46.03c.32 1.16-1.24 1.42 0 0zm4.62.03c.89.55-1.87.1 0 0zm-5.11 0-.41.16zm5.94 0c.27.34-.44.23 0 0zm3.49.05c-2 2.04-.44 1.13 0 0zm-16.6.02.03.32zm49.3.03c4.03 1.98-1 1.07 0 0zm-27.23.06.03.28zm26.29.04c2.62 1.96-2.6-.57 0 0zm-17.45.01c-1.63 2.1 6.74-.03 5.09 2.3 3.55-.03 1.36 1.6 4.29.63 4.62 2.33-1.11 1.9-.71 1.85 3.95 1.45-6.45-.39-1.71 2.19-1.24-1.57 3.2.31 2.83.16 4.11.77 5.75 6.24 6.4 6.8.48 2.83 2.87 9.6 1.85 2.75 1.56.62 4.78 2.62 1.36 2 1.24 2.39 7.01 7.5 6.1 7.65-1.37.21 5.28 7.98 4.3 4.83 2.47 1.5 2.35 5.7.6 2.44-.95.67.1 4.36-1.43 1.34 1 4.48-.92.94-.2 4.7-1.02-.47-2-7.1-3.63-2.52-3.35 1.14-2.76 1.77-.96 1.54-3.3 3.25 4.11-.26.17 2.53-1.8 1.26 0-1.39-1.74.43-.53-3.86-1.69 1.68-1.06-3.35-2.55 5.23 1.89-6.83 1.8-2.21 1.74-1.67.47-6.46.05-3.36-.63-4.1-4.94-2.7-8.07-6.04-.7-2.07-3.3-1.43-2.8-4.95 2.42.25-3.41-3.33-5.24-2.5-4.18-.57-.82-2.45-3.09-3.05-1.92-3.56-.8-3.55.5-.85-1.54-4.1-.7-6.49-.93-6.96-2.09 2.14 2.65-5.4-1.47-2.4-3.51 1.26-4.97 13.64-3.99 5.09 2.03-3 .62-11.15.39-6.43.72 2.29-2.08 8.46-1.03 2.7.57-3.8-2-7 2.38-4.82-1.3-1.34-3.47-1.8-.05-2.49zm3.27.03c2.63-.7-.04 1.08 0 0zm-18.7 0c.82.1-.84.26 0 0zm-12.73.02c2.28 1.62 1.8 6.61.98 1.8-.96.32-2.23.57-.98-1.8zm-2.5.05c1.71 2.18-.27 1.1 0 0zm-.45.08.14.63zm51.38.01c1.38.3-1.5.43 0 0zm-7.2 0c1.84 1.38-1.88.69 0 0zm5.15.04.8.58zm-34.62.06c.4.68-.74 1.17 0 0zm-7.7 0c.11.98-1.57 0 0 0zm34.16 0c.3.67-.59.4 0 0zm11.24 0c.29.46-.87 0 0 0zm-40.1.03c-1.67.95-2.26.14 0 0zm-9.1.06.21.21zm2.56.06h.24zm15.89.06.18 1.44zm20.84 0c.46.29-.46.29 0 0zm20.82.02c-.2.45.63.2 0 0zm-17.14 0c.59.8-.66.15 0 0zm-31.14.08c.45.78-.34.31 0 0zm37.06.01c.26.35-.44.21 0 0zm-48.57.05-.02.03zm.39.07.33.33zm5.28.02c-.51.63-2.06-.15 0 0zm43.15 0c3.2.06.2 1.29 0 0zm6.15.05c-.53 2.28-2.4-.39 0 0zm-58.22.02c.84 1.38-.36 1.03 0 0zm39.64.04c.26.34-.45.2 0 0zm-29.62 0 .03.03zm39.42.02-.4.1zm8.44.1c-.52.08.52.08 0 0zm-46.44 0c-.8.2 1.28.3 0 0zm43.55 0 .01.7zm-1.38.06c1.01.86.22 1.03 0 0zm2.57.02c.94.52-1.15.48 0 0zm7 .05c-.22.59 1.07 1.45 0 0zm-55.98.05c-.87.74-1.6-.22 0 0zm-1.81.03.34.32zm58.56 0c.26.35-.44.21 0 0zm-5.18.06c-.08.9-1.55-.01 0 0zm-47.52.02c-3.02 1.11-1.2 3.14 1.34 1.03.15-.74-.76-1.09-1.34-1.03zm22.83.01c-1.25.06.3 1.06 0 0zm-33.77.03c.44 0 .28 1.6 0 0zm7.73.01c.65 0-.37.2 0 0zm45.25.04.75.19zm-48.05.02-.03.04zm37.68.06c.08.96-.96-.47 0 0zm.42 0c.62.11-.65.26 0 0zm-34.53 0c-.26.35.44.21 0 0zm42.1.01c2.4.81-.72 1.6 0 0zm-13.06 0c.64.9-1.97.16 0 0zm-8.52.04.26.28zm35.07.03.12.16zm-51.01.02c-1.04.44 1.03.85 0 0zm36.8.02.44-.02zm-19.1 0c-.74.5.79.23 0 0zm19.68 0 .45.28zm-6.55.01c.52.1-.53.09 0 0zm20.02.06c-.02 2.25-1.07 3.12 0 0zm-57.66.03c.9.15-1.58.15 0 0zm-5.05.04c.42 1.31-.8-.05 0 0zm13.3.01c-.98 1.06-.58 1.47 0 0zm17.8.08c-.45.23.28.34 0 0zm29.27.04c.9.1-.12.44 0 0zm-45.08.07c-1.1.74.33.83 0 0zm-14.94 0c.5.43-.5.43 0 0zm62.7.1c.36.46-.54.32 0 0zM105.6 98c.53.09-.53.09 0 0zm-15.72.03c-.3.53.31.39 0 0zm35.76 0c.06 1.6-.41.68 0 0zm-22.75.08c-2.15.3-.56.91 0 0zm-31.2 0c.79.25-.41 1.46 0 0zm-2.89.03.08.14zm9.96.02.1.08zm41.6 0c1.48.36-.76 2.37 0 0zm-52.07 0c.59.91-.9-.06 0 0zm4.29.08.03.27zm44.27.03c.8-.01-.21.6 0 0zm13.33.08.02.3zm-58.67 0c.36.42-.41-.08 0 0zm11.94.01c-.68.43.56.39 0 0zm6.08.02c-.92 1.61.79.3 0 0zm3.96.01c1.58.5-1.91.15 0 0zm28.18.02c3.17 1.6-2.07 1.15.09.36zm-51.5.04c.67.3.26.87 0 0zm8.51.02-.03.05zm-.47.01c.85-.15-.2.53 0 0zm-8.6.03c1.75 2.57.2 2.22 0 0zm6.3 0c.45 1.23-1.02.56 0 0zm39.26.05c2.16-.02 6.14 4.67 2.2 1.74-.28-.66-2.23-1.46-2.2-1.74zm9.79 0c.61 2.1-.63 1.08 0 0zm-23.96.02c-2.51.7.4.74 0 0zm22.53.01c2.63 1.44-2.35 1.06 0 0zm-52.33.07c.27.33-.45.23 0 0zm10.84.03c-1.1 1.77.18.61 0 0zm.33.01.03.27zm-8.49 0c-2.3 2.3 2.47 2 0 0zm56.1.01.02.32zm-60 .01c2.13.9 1.49 3.01 0 0zm53.7.02-.22.29zm-47.18.01c.55 1.73-1.4 2.12 0 0zm-3.67.05v.56zm10.71.04c-1.93.84.9.62 0 0zm47.45.03-.07 1.02zm-72.63.02c2.47 1.19 4.33 3.83 5.6 5.48 2.62 1.02 2.16 5.05-.9 1.36-.82-2.86-3.43-4.53-4.7-6.84zm40.6.08c-1 .15.55.51 0 0zm-24.74 0c.43 1.51-1.17 2.62 0 0zm-2.54.1c.3.46-.53.32 0 0zm33.2 0c-2.76.28-3.68.2 0 0zm-11.26.02c2.17.98-.77 1.78 0 0zm31.11.01.02.44zm-45.46.03c-1.5.38.55.45 0 0zm37.07.05.72.7zm-24.64.03c.29 1.02-1.6.6 0 0zm-10.52 0c.12 1.17-5.4 3.09-2.07.86-.53-.48 1.82-.58 2.07-.85zm12.46.05c-.55.76 1.1.4 0 0zm5.8.01c-.05.53 1 .35 0 0zm30.58.09c.27.13-.5.32 0 0zm-28.15.04c-5.84 3.84 1.66.99 0 0zm-23.66 0c-.87.23.12.58 0 0zm-9.06.19c.46.5-.36.33 0 0zm4.63.03c.63.13-.5.44 0 0zm31.03 0c1.55 1.14 2.04.47 0 0zm25.45 0c.59.31-.33.27 0 0zm-57.53.02c-1.59 2.04.2 1.2 0 0zm59.79.04c.35.23-.35.1 0 0zm-63.75.07c.81.32-.47.8 0 0zm61 .02c.76.33-.58.44 0 0zm-68.94.2c.39.13-.7-.01 0 0zm72.09.02c-.7 2.36-2.05-.01 0 0zm-3.75.02c2.53 1.82 3.18.99 1.78 3.69-.52-3.99-1.86-.22-1.98.14-.36-1.45.5-2.68.2-3.83zm1.11.03c.44-.24.04.42 0 0zm1.4.05-.16.06zm-.83 0c.48.59-.1 1.3 0 0zm-23.06.01c-.46.17.47.05 0 0zm-13.32.03c.43.05.07.75 0 0zm-33.1.04c2.45-.6 6.42 3.38 3.7 3.4.94-.36-2.71-1.9-3.7-3.4zm18.24.04c-.47.28.46.28 0 0zm44.83.07c2.68.63-1.75.5 0 0zm-46.06 0c.53.4-.48.2 0 0zm54.7.02-.27.35zm-15.34.04c.22.95 1.27.6 0 0zm-34.9 0c-.48.72.31 1.28 0 0zm22.87.06c-1.25.14.9.22 0 0zm-27.85.02c.44.04-.35.12 0 0zm-.45.02c.54.53-.95-.15 0 0zm-8.23.05c.96 1.83-1.61.01 0 0zm51.3.06c1.57.65-.32.77 0 0zm-21.88 0c-.65.25.67.15 0 0zm6.15.02c-2 .31 1.46.06 0 0zm-12.98.05c1.54-.3-.38.53 0 0zm-7.69.13-.33.32zm9.87.04c3.67 2.5.44 11.7-2.6 13.64 2.76-4.87 3-7.38 2.6-13.64zm38.73 0c.06 2.15-.84 1.48 0 0zm-66.08.13c1.03-.26 1.17.4 0 0zm27.35.06c-.04.74.97.85 0 0zm5.34 0c-.27.37.55.52 0 0zm-33.47.07c-1.28.82.92 1.2 0 0zm37.45.03c-.18.65 1.23.2 0 0zm-22.48.04-.2.4zm-14.18.02c.65.28-.65.28 0 0zm10.51.01c-1.04 1.74-3.09-.28 0 0zm39.68.03c1.26.58-.86.69 0 0zm4.37.01c1.6.16-.48 1.24 0 0zm-45.5.04c.34.13-.45.04 0 0zm34.2 0c3.3.82 3.56 1.95 0 0zm-35.6 0-.52.18zm26.16.03c-.52.41.63.26 0 0zm2.7 0 .25.38zm-31.88.02c.8.24-1.23.9 0 0zm-2.47.1c.44.21-.26.34 0 0zm40.59 0c1.93-.2-.04.74 0 0zm9.43.07.44.4zm-39.5.11c-1.31 2.05.01.8 0 0zm-15.46.05c-.26.35.44.21 0 0zm34.12 0c.2.87-.7 1.07 0 0zm-34.86 0c1.7 1.69.8 1.63 0 0zm9.72.03c-2.96 1.3 4.44-.25.2 1.05-1.56.31-1.75-1.11-.2-1.05zm15.79.06-.2.4zm14.75 0c-2.35 1.37 3.31.21-.58 1.11 1.5-.57 2.99 1 .58-1.1zm-1.23.07c.2.54-.69-.04 0 0zm8.1.04c1.36.52-4.89.33-1.2.06zm-41.34.05c.34.13-.46.04 0 0zm.44 0c2-.03-.5.48 0 0zm10.32.02.06.4zm-6.46.05c.47.05-.46.16 0 0zm-6.64.03c.46.28-.46.28 0 0zm27.88 0c-.08.47.7-.1 0 0zm6.89.12-.41.49zm21.97.05.03.32zm-40.31.01c-.69.43.68.42 0 0zm37.56.06c.74.79-.48.36 0 0zm-49.29 0c1.24.64-1.15.05 0 0zm60.26 0c.42.74-.5.37 0 0zm-31.99.02c-1.87 2.5-1.13 2.92 0 0zm23.4.02.04.28zm6.67 0c.49.62-.65 1.32 0 0zm-59.73.03c1.22.23-.08 1.13 0 0zm39.68.04c-.34.53-1.44-.22 0 0zm-38.72.04.04.28zm61.85.02-.16.12zm-51.91.05c-1.28.48.77.56 0 0zm7.47 0-.26.38zm42.04.04c1.15 6.08.39-1.85 2 1.28.7.4 1.1 6.98-.27 5.4-1.75.4-.2-.9-1.6-.86 1.33 3.06-4.73.52-.76 1.28-.21-1.47-.26-6.07.23-3.64.74-2.1-.7-1.73.4-3.46zm-52.5.08c-.41 1.39 2.04.16 0 0zm52.74.03-.16.09zm-18.5 0c3.29.92-1.95.87 0 0zm-2.56.04c3.8.72 2.37 1.63 0 0zm22.17 0-.02.12zm.56.02c.35 1.73 1.38-.02.4 1.78l-.21-.59-.2-1.19zm-1.42.02.01.1zm-12.32.03c2 .87-1.5 2.42 0 0zm-39.07.01c-1.03 1.1 2.07.54 0 0zm21.64.13c.74.17-.68.77 0 0zm-16.08 0c.28 2.47-2.81 1.07 0 0zm-3.84.12c-.46.82.9.46 0 0zm16.44.01.03.32zm21.04 0c-.85 1.29.9 1.04 0 0zM79.6 103v.21zm25.6.04c-1.67-.28-.85 1.72 0 0zm3.03.06-.02.14zm-29.78.1c-.6 1.59 1.99.9 0 0zm25.04.01c-.98.74 1.7.97 0 0zm-4.44.01c-.86.75.71 1.13 0 0zm1.62.06c-.27.84-1.94.41 0 0zm23.04 0c3.05 3.62.74 6.85-.21 2.1-2.4-3.73 1.68 1.57.2-2.1zm-46.27.03c-1.97 1.74 1.04 2.03 0 0zm-.69.02c-.42.44.43.4 0 0zm32.07.04c.54.55 1.1.13 0 0zm-33.53.02c-.96.2-.03.72 0 0zm57.73.01v.78zm-11.03.03.12.42zm-32.54.02c-1.67 1.5-2.68 1.2 0 0zm-.34.33.03-.09zm.48-.3c-.95 2.96-3.28.97-4.99 2.42 1-3.13 2.47.26 4.99-2.42zm30.98.05c.53.37-.61.43 0 0zm-9.67.03c.8.2-.24.4 0 0zm-33.43.05c.15.47-.42.22 0 0zm53.2 0 .04.33zm-29.6.05c.15.5-.51.45 0 0zm10.86 0c-.28.78-1.25-.35 0 0zm-33.02.08.12.44zm40.18.04c2-.05-.16 1.37 0 0zm-9.04.04c1.45 2.06 1.4 1.42 0 0zm2.77.05c1.01.15-.26.87 0 0zm-32.18.02.38.33zm33.05.02c.88.04-.39.38 0 0zm-26.21.07c.44.2-.26.34 0 0zm-17.28 0c.26.35-.44.2 0 0zm59.4.02-.23.62zm-50.15 0c-.4 1.2 1.66.2 0 0zm-6.97.04c-.96.61-.36.92 0 0zm4.78.05c.26.48-.34.29 0 0zm26.43 0c.2 2.47.9 2.2 0 0zm-28.77.03c-.87 2.25 1.98.12 0 0zm-8.46.02c2.1.11-.35 1.72 0 0zm65.88 0c-.35.45.4.54 0 0zm-.39.05c-.34.77.37.8 0 0zm-39.9.03c.64.43-.42 1.5 0 0zm17.9 0c-.6.88 2.09 1 0 0zm21.23.02c1.06.96-.35.52 0 0zm-.46.01c.61.34-.38 1.97 0 0zm-16.57.02c2 .51 4.75 5.76 1.78 2.34.78 1.83-3.67-2.66-1.78-2.34zm-12.9.01c.12 1.12-1.15 1.4 0 0zm-1.44.03c.03.38-.4-.14 0 0zm6.53.03c-.87.08.78.74 0 0zm25.86.01v.43zm-50.5.04c.42-.15-.03.3 0 0zm40.48.02c4.6 5.07-1.28 6.14 0 0zm-44.13.05c-2.2 1.18 3.68 1.38 0 0zm2.47.01c-2.37 1.42 1.92.9 0 0zm52.69.08c.51.62-.27.73 0 0zm-8.98.05.1.25zm-19.75.01c-2.02 5.21 3.8 4.2.86.02zm17.78.02c-.23.46.65.22 0 0zm-36.77.05c.26.35-.44.21 0 0zm14.88 0c.65.17-.67.29 0 0zm-.9 0-.01.16zm10.33.1c-.15.51.65.21 0 0zm-28.9 0c.38.56-.78-.05 0 0zm50.14.03c.38.04-.24.3 0 0zm-54.73.03c-1.42 1.84 2.2-.31 0 0zm-1.1 0-.3.35zm-4.3 0c-.44.21.26.35 0 0zm6.66.03.05.12zm4.33.04.14.07zm37 0 .33.32zm4.64 0 .32.92zm-18.97 0c1.1-.06-.82.96 0 0zm24.58.03c.1 4.28-1.2 6.5 0 0zm-55.38.01.03.28zm.1.07c-.49 1 .82.18 0 0zm34.42.05c-.5.3.76.38 0 0zm-4.78 0c-.94.06 1.19 3.36.2.32zm-39.05.01c-.21.91.83.66 0 0zm12.12 0c.4.03-.3.18 0 0zm-6.32.02c-.42.16 0 1 0 0zm18.52.02.39.23zm-9.97.07c.69.52-.59.34 0 0zm6.87.01c-2.2 1.35-.31.78 0 0zm11.85 0 .03.32zm27 .07c-.81.53 1.28.68 0 0zm9.07.06.09.14zm-62.52.04c-2.8.7.78 1.17 0 0zm49.87.06c2.5 2.38.89 7.16 1.1 1.5.18-.41-1.84-1.18-1.1-1.5zm-21.52.04c.8.52-2.06.8 0 0zm1.46.03c.48.3-.48.4 0 0zm9.76 0c-.55 1.03.73.64 0 0zm-44.62.08c2.05.7-2.24.03 0 0zm6.43.01c-.96.42.92.41 0 0zm59.52.04c-1.33.5 1.23 3.97 0 0zm-31.54 0c.27.65-.52.12 0 0zm-22.07.03c.33 1.3 2.05 1.06 0 0zm-7.3.04c-.87 1.26-1.37.3 0 0zm37.55.04c-2.04 4.54 2.4 7.23 4.61 6.82-.4-1.44-1.37-4.33-.69-.52-3 .07-6.39-8.12-.76-3.8 1.13 1.25.51-2.54-1.84-1.76-.28-.4-.77-.88-1.32-.74zm-13.42.03c-.4.15.03 1.06 0 0zm27.62 0c-1.24.56.51.8 0 0zm-42.22 0c.02.85.92.1 0 0zm24.99.02c1.55 2.25-1.59.05 0 0zm28.42.06c.5.28-.44.3 0 0zm-54.26 0c.3 1.67.94.2 0 0zm-4.46.07c-.05.5-.65.2 0 0zm-5.13.01-.02.16zm34.57.04c.33.71-.65 1.36 0 0zm-9.94 0c-.99 1.2-.22 2.12 0 0zm38.32 0c.58.1-.23.44 0 0zm-8.29.05c-.02 1.13.9.77 0 0zm-24.35 0c.37.39-.64.37 0 0zm8.03.01-.04.16zm-35.34.04-.6.7zm-7 .02c1.18.7-1.25.76 0 0zm54.6.03c3.03 3.08-.57 5.7 0 0zm-41.72.02v.07zm24.4 0c-.37 1.08.63 2.06 0 0zm-21.4.07c-.36 1.17 1.7.12 0 0zm26.07 0 .33.75zm-4.83.03v.92zm6.42.01-.05.15zm-34.55.02c.78.7-.99.56 0 0zm24.36.07c.41.4-.57.2 0 0zm11.87.02.34.31zm-40.05 0-.16.31zm.3.05c-.86.2.59.78 0 0zm35.15.03c-.44.98 1.45.6 0 0zm-32.17.03c-.7 2.8-.2 1.62.07 1.63-.94 1.8-.83-2.28-.64-1.28zm6.6 0c-.62.66 1.05.22 0 0zm1.31.02-.15.07zm40.25.18c.08 2.03.69 1.03 0 0zm-22.7.02-.07.06zm5.16.05c1.31 2.43-1.01.57 0 0zm-5.83 0 .04.27zm-23.18.01c.24.57-.34.34 0 0zm15.25.05c4.06 3.08-2.65 2.37 0 0zm7.25 0v.5zm-22.87.03c.37 1.58-1.18.51 0 0zm22.35.08c.52 1.73-1.43 1.47 0 0zm-14.2.1.3.06zm49.6.07c.2.51-.41.47 0 0zm-61.11.02-.16.3zm61.41 0-.06 1.33zm-29.38.06.02.1zm-21.88 0c-.69.36.56.43 0 0zm-5.12.02c-2.13.29.66.45 0 0zm52.47 0c-.65.69.06.66 0 0zm-30.56.03c1.42.57-1.21 1.16 0 0zm.57 0c.49.75-.3.02 0 0zm-28.28.05-.34.32zm13.49.04c-.46.17.46.05 0 0zm40.48.03c.72 1.08-.75.88 0 0zm-2.2.04c-.45.22.25.35 0 0zm7.82 0c-.34 1.1.23.99 0 0zm-63.33.03-.34.32zm12.44 0c-.63.51.66.4 0 0zm3.23 0c-1.5 1.22 1.97.4 0 0zm-2.02.01c-1.05.25.47.82 0 0zm35.7.02c-.08.46.7-.1 0 0zm-24.38 0 .02.32zm6.79 0 .06.12zm7 .07.12.4zm-15.09.02c-.22.44.58.1 0 0zm-19.87.02.05.27zm7.62 0c-.63.4-.26.89 0 0zm51.33.09c.56.61-.51.83 0 0zm-32.1.02c.23.65-.52 1.14 0 0zm-23.8.03c-.48.06-.34 1.03 0 0zm9.11.05-.03.25zm19.02.14c-.5 2 1.31 2.55 0 0zm-31.44.01.05.1zm-2.32 0 .16.25zm-1.72.02-.39.42zm32.3.02-.14.22zm-29.14.07c-.9.4-.33 2.43 0 0zm59.96 0-.13 1.1zm-31.56.1c.6.28-.56.12 0 0zm8.3.01c-.37.69.77.67 0 0zm-37.7 0c.27.57-.76.08 0 0zm12.7.09c-.25.53 1.28.27 0 0zm-1.32.02c-.1.98.77.22.14.02zm18.91 0c1.5 2.06-.5 1.28 0 0zm-31.9.02.3.48zm22.32 0c1.68 1.48-.56.7 0 0zm19.33.04c-.34.8.9.68 0 0zm3.63 0c-.23 1.23 1.24 1.41 0 0zm-14.95.01-.03.24zm4.52.01.19.46zm-4.96.07c.3.35-.4.02 0 0zm31.9.07c-.51.56.51.43 0 0zm-3.87.02c.97 2.07-2.17 2.52 0 0zm-17.27.02.1.55zm-24.93.01c-.26 1.17.8.97 0 0zm26.17 0c-.3.4.6.07 0 0zm19.71.06v.5zm-25.23 0 .05.19zm-28.22.02c-1.28 1.41 2.38.55-.47 1.9-1.53-.07-.33-1.8.47-1.9zm22.44.03-.05.1zm.93 0c-1.6 1.88-.7 7.26-1 1.88.12-.41.04-2.23 1-1.88zm13.37.03.29.41zm-6.5.01c-.2 3.71 3.31 3.9 2.45 5.29 2-.7-2.03-4.01-2.45-5.29zm13.9.03.5.5zm-50.86.06-.07.4zm56.64.02c-.92.65-.33.9 0 0zm-46.12.04c-.68 1.99 3.55 2.21 0 0zm19.74 0 .07.1zm25.32.01c1.05.84-3.4-.32 0 0zm-37.9 0c1.37-.12-.93.48 0 0zm-14.72 0c-.44.4.26.46 0 0zm39.92.04c.32.02-.34.13 0 0zm-39.27.02c-1 .49.78.76 0 0zm-4.95.03-.33.98zm63.12 0 .11.46zm-48.7.02c-1.33 1.05 1.76.36 0 0zm2.59.01c-.26.35.44.22 0 0zm-16.76.05c.15.49-.42.22 0 0zm19.12.06c.82.08-.84.25 0 0zm-8.13.01c-.72.56.72.56 0 0zm24.42.02c-.63.7-.11.98 0 0zm20.82.02.03.28zm-.34.02c.77.73-1.25-.02 0 0zm-53.77.06c-.95.64.94.66 0 0zm-.87 0-.06.53zm9 .02c-.18.46.63.2 0 0zm38.44.08c.67.2-.44.35 0 0zm6.5 0c-.08.5-1.43.64 0 0zm-41.16.01c.26.34-.45.23 0 0zm17.38 0c-.13 2.55-1.34 3.17 0 0zm31.1.01c.47.37-.55.58 0 0zm-40.4.02c.9.24-.38.77 0 0zm37.05.01.11.3zm-28.72.03.02.13zm-12.56.04c.63.11-.64.26 0 0zm-16.99.01c.3 3.15-1.26 2.23 2.15 1.76 2.62-.5 10.89 4.45 3.93 1.73-2.74-1.42 4.3 3.52-.35 1.24 1.05.05-1.2 1.99-.24 1.93-.81-1.57-1.6-1.87-2.17.44-2.07.94 4.1-1.52-.23.87 1.65 2.63-6.18 3.4-2.47-.54 1.22 2.21-.56-2.92-3.32-.25-.07-2.86-.64 4.04-.57-.71 1.32-4.14 2.5-1.11 1.57-1.19 1.33-.26 2.43-2.34 3.92-2.21 2.6-1.4-7.88 1.95-2.22-1.5-1.24-2.52.87 1.1 0-1.57zm7.03.01c.03.44-1.09.13 0 0zm57.94.08c1.3.9-2.17.37 0 0zm-20.4.01c-.4.33.95.44 0 0zm12.41 0c.46.47-.73.13 0 0zm-54 .02c-.34.3.7.34 0 0zm8.61 0 .1.3zm-3.53.01c.06 1.15-.42.23 0 0zm31.28.01c.67.29-.24.46 0 0zm16.3.02c.63.75-.63.2 0 0zm-1.45.07-.4.4zm-56.28 0c-.87.42.87.42 0 0zm11 .01.1.14zm48.62 0c2.33 1.65-.29 1.35 0 0zm-52.3.03c-.09 1.04-.7.61 0 0zm23.52 0c1.16 2.1-4.35 7.4-1.26 2.53 1.07-.68.36-2.09 1.26-2.52zm17.76.01.52.49zm-9.54.03.04.05zm-1.68 0c-.45.4.5.6 0 0zm2.03.02c1.15 1.33 1.43 2.45 0 0zm-21.01.04c3.63 2.04-1.75 1.95 0 0zm49.79.09c1.41-.11-.38.87 0 0zm-2.68 0c.41 1.77-6.33.09-.79.4 2.38-.65-1.66-.08.8-.4zm-43.6.01c1.8 1.2-1.1.39 0 0zm37.33.02.02.17zm-17.41 0 .21.25zm-26.4 0c-.65.15.36.47 0 0zm-13.02.01c.53.17-.42.57 0 0zm63.74.05.06.03zm-2.2.01.24.09zm-58.32.01c-1.25.7.89.38 0 0zm55.9.03c1.13-.35-.17.7 0 0zm-49.6 0c-1.1.26.96 1.01 0 0zm54.4.07-.18.2zm-42.85.02c.74.45.17 1.33 0 0zm-7.66.01c-.99.45 2.63.62 0 0zm-9.24 0c-.1.49-.7.18 0 0zm61.37 0c.78-.1-.33.57 0 0zm-19.63.12c1.15.2-.28.43 0 0zm-45.4 0 .31.34zm38.64 0c-.5.14.8.27 0 0zm-5.06.02c-.76.57.2.77 0 0zm10.55.06c-.14 1.13.66 1.4 0 0zm-30.84.1c1.43-.17-.7.56 0 0zm-6.46.02c-.5.71-1.06.06 0 0zm47.03.05c.95.78-.7.14 0 0zm-31.13.01.03.28zm16.49.06c1.04.33-.28.68 0 0zm-15.78.03-.33.32zm16.51.03.3.25zm26.35.04c.3.51-.94-.08 0 0zm-69.26.1c-.08.46.7-.1 0 0zm18.27.02-.07.34zm28.57.01c-.36.9.69 1.6 0 0zm-35.07.06c-.26 1.5-1.28 1.22 0 0zm-.59.03-.9.76zm18.08.07c-.22 2.78-1.22 2.34 0 0zm-16.08 0c-.45.13.54.11 0 0zm30.12.05.2.67zm25.32.05c.36.87-.22.88 0 0zm-28 0c.45.37-.25.48 0 0zm-20.32 0c.63 0 .13.46 0 0zm-4.88.01c-.7.96 1.35 1.29 0 0zm-11.83 0c-1.82.2 1.66.93 0 0zm20.07 0c1.27.55-1.36.63 0 0zm-6.84.05c-1.05.65.56.81 0 0zm14.6 0-.09.2zm-21.67.06c.42.25.1-.05 0 0zm32.63 0c.46.28-.45.28 0 0zm-9.7.04c.53 1.8-.67 1.48 0 0zm-14.6 0-.16.35zm51.37.13c.24 1.32-.38.34 0 0zm-70.02 0v.88zm8.64.04c1.34.09.28.66 0 0zm-.56.03c.94.25-.57.18 0 0zm1.4 0c1.48.35-1.1 0 0 0zm-4.1 0c.34.14-.46.05 0 0zm.97.02c.37 2.61 1.67 1.46 0 0zm12.37.01c.55.31-.5.6 0 0zm5.77.08c2 5.2-5.55.06-.42.77zm40.2 0c3.5 1.18-3.64 2.56 0 0zm-54.08.12c.57.28-2.5.17 0 0zm29 0c-.64 2.8.76.97 0 0zm-30.52.05c.66-.05-.02.41 0 0zm23.47 0c.22.53-.47-.14 0 0zm-12.28.07c2.47 1.22-.55.23 0 0zm-2.67.05c-.6 2.28 1.58.74 0 0zm-4.51.06.32.11zm-9.8.1c-.44.2.26.34 0 0zm6.63 0c.34.14-.45.05 0 0zm29.56.1c.55 1.51-.36.45 0 0zm-30.36.01c.8.17-.23.57 0 0zm55.6.01-.14.62.14-.62zm-49.19.09c.07 1.08.6.65 0 0zm-10.78 0c.17.77-1.84-.38 0 0zm34.87.04.13.02zm-28.86.03c.81.6-.82-.09 0 0zm36.55.18c-.94.67.84.81 0 0zm21.8.02c.63.36-.72 1.23 0 0zm-66.04.04c-.9-.2.28.6 0 0zm6.8 0c.47.1-.39.02 0 0zm-10.24.03c.98.11-.36.68 0 0zm62.54.04c.88 1.02 0 2.13 0 0zm-56.52 0c-2.52 2.18 2.49.96 0 0zm62.74.02c.9 1.65 1.13 2.65.65 3.92-.48-1.53.13-3.29-.65-3.92zm-22.32 0 .45.55zm-29.57 0c-.14.59 1.02.14 0 0zm6.65.08c-.29.46.4.65 0 0zm.95 0c-.74.42.62.88 0 0zm8.99 0 .02 1.26zm-6.12 0c.63.12-.64.27 0 0zm-16.05.13c2.12.23-1.4.04 0 0zm-11.56.03c.7 1.29-2.16 1.99 0 0zm6.4.02-.45.62zm55.5 0c2.3.66-.93.31 0 0zm-54.23.17c-.37 1.1 1.33.09 0 0zm-5.31.04c.22 1.47-.46.5 0 0zm37.89.02.29.14zm-25.63.01c.67.09-.3.71 0 0zm34.31.11c-.53 1.2 1.92 2.61.62.8zm1.63.1.17 1.12zm-17.5.02c.3 2.3-.2 1.8 0 0zm24.98 0c3.16 1.36-1.82 5.3.14.73-.69.45-.63-.51-.14-.73zm-40.17.05c-1.16.23.92.62 0 0zm-14.25.03c-1.25.96 2.37.88 0 0zm42.64.1c-.87.12.32.81 0 0zm17.94.02c2.5 2.14 1.05 12.55 1.22 10.4-.37-3.45.83-7.31-1.22-10.4zm-47.61 0c-1.04.27.44.37 0 0zm32.17 0 .03.28zm12.96.03c5.31 1.4 3.77 11.86 2 13.37-5.38-2.02-3.37-9.34-2-13.37zm-14.29.05c-.68 1.02 1.16.83 0 0zm11.98.02c.2 4.58-.5 4.56 0 0zm6.13 0c.27.29-.52.65 0 0zm-36.53.14c.77 2.33-6.13 6.86-1.83 3.04-1.28-.05 1.69-2.48 1.83-3.04zm-22.1.07c-1.67.12.2 1.1 0 0zm40.58 0 .14.28zm-2.72 0c-.47.53.67.14 0 0zm-11.22.02c.68 2-.2.94 0 0zm34.12.16-.34.16zm-66.67.05-.34.6zm46.1.02c-.04.85 1.2.2 0 0zm-38.4.02c-.46.13.54.11 0 0zm-5.93.09-.2.19zm8.83 0c2.14 1.3-.45 1.64 0 0zm1.26.01c.43.33-.59.14 0 0zm32.27.05c-.67.06.76.91 0 0zm4.8.09c-.1 1.15.72.59 0 0zm-44.53.07c-1.95.26 1.23.86 0 0zm-1.94 0c-.74.4 1 .53 0 0zm25.9.01-.02.13zm-19.26.03-.98 1zm2.76.1c.74.84-.28 1.42 0 0zm-4.93 0-.05.08zm.06.07c.68 2.2-1.13.8 0 0zm62.26.05c.47.3-.56.32 0 0zm-63.46 0c-1.27-.09.5.8 0 0zm22.44.06c-.5 1.85-.58.36 0 0zm-18.82.12c.72.79-2.6 1.85 0 0zm-9.69.03-.25.47zm14.28.03c-.5.15.82.27 0 0zm-4.42.03c1.1 0-.3.46 0 0zm-6.17.06c-.6.6 1.1.4 0 0zm42.93 0c-.62.39.87.48 0 0zm22.9.02c.4.35-.4.26 0 0zm-66.71 0c-.78.06-.3.81 0 0zm36.62.03.46.28zm-25.86.1.3.4zm44.96.07-.1 1zm-5.64.04c2.55 1.6 1.94 3.9 0 0zm-52.18.04-.27.33zm.37.08-.23.5zm56.06.03c.34.82-.72.25 0 0zm-4.11.06.78.63zm-35.03.02c.6.33-.24.52 0 0zm29.81.05c-.91.3.52.81 0 0zm-43.97.04c-.54.31.78.53 0 0zm2.9.02-.13.21zm38.62.05-.14.22zm-38.91.16-.53.56zm-1.38.02c-.5 1.42 1.19.53 0 0zm8.85.01c.18 1.9.64.76 0 0zm14.38 0c.13.55-.6.6 0 0zm-26.16.1c1.7 1.96-4.47 1.49-.16.1v-.1zm22.32.04c-.57 1.85-.89.11 0 0zm-13.5.1c3.3 1.88.73 9.46 1.27 2.19-.13-.65-.18-2.36-1.28-2.2zm3.3.04.22.96zm43.34.03c.53.47-.32.75 0 0zm-48.04.04-.1.67zm20.08 0c.38.13-.43.41 0 0zm15.03.02c-.33.13.4.03 0 0zm6.37.06c-3.3 4.37 5.76 7.97.76 3.2-1.2-5.05 3.45 2.37.51-2.51l-.64-.34zm-46.72 0c-1.16.24.92.63 0 0zm27.98.02.04.6zm1.48.02c2.28 1.43-2.1 3.47 0 0zm-.71.12c.63.44-.25.16 0 0zm-5.06.01c.21.3-.56.42 0 0zm37.38.04c.55 1.88-.43.54 0 0zm-35.66.03c.9.36-.38 2.54 0 0zm-13.2.04c-.42.48.8.04 0 0zm33.08.04c-.43.52.57.22 0 0zm-44.87 0c-.97.57.27 1.2 0 0zm46.22.06.29.53zm5.68.01c.43.38-.26.47 0 0zm.85.17c.46.3-.12.48 0 0zm-46.98.02c-.25 3.15-3.28 5.14-.64.72zm-9.64 0-.35.31zm56.23.05.06.2zm-38.4.06.38 1.04zm27.31.02c-1.18 1.24 1.7.12 0 0zm10 .03c.47.32-.46.26 0 0zm-48.67.01-.83.36zm42.61.05c-.53.73.66 1.02 0 0zm-17.57 0-.12.07zm-15.75 0c-2.14.6 1.47.3 0 0zm-9.16.09c0 1.38-1.58.38 0 0zm62.06.09c.55 1.26-.49.82 0 0zm-61.27.12c.97.79-.5 2.29 0 0zm15.46 0c.27.34-.45.22 0 0zm34 .03c.22 1.08-1.49.07 0 0zm-6.99 0c.33 2.29.04 3.5 0 0zm-54.58.04c-1.23.26 1.22.26 0 0zm14.5 0c2.07 1.9-2.52 2.11 0 0zm-4.59.01c.91.29.4.78 0 0zm23.24.03c.47.28-.46.29 0 0zm-24.49.02c-1.17.17 1.1 1.13 0 0zm64.09.06c.03 3.16.08 7.7 1.43 3.59.34.34-1.38 5.41-1.93.33 1.03.2-.43-2.7.5-3.92zm-55.28.05c-.31 1.9.7 1.21 0 0zm1.4.03c-.4.78.38.43 0 0zm-1.13.04c-.2.48.54.49 0 0zm40.33.04c.63.18-.08.54 0 0zm-21.57.04v.43zm-28.53.1c-.4.65 1.1 1.59 0 0zm2 0c.58.2-1.87.45 0 0zm59.24.02c.49 1.73-.29 2.05 0 0zm-18.6.07c-.63.65 1 .76 0 0zm-45.72.06c1.15.53.17 1.85 0 0zm68.87 0c1.4 1.94-1.71 3.92 0 0zm-41.57.04.03.09zm4.74.02.07.09zm-6 .01c.45.48-1.06.46 0 0zm26.63.03c.1 3.97 1.8 4.78 0 0zm4.5.01c.7.53-.35.3 0 0zm-49.53.01.01.2zm20.71.01c.32.9-.38 1.59 0 0zm-12.64.04c.04.57-.68.14 0 0zm11.63.01c.32 1.5-.8 1.82 0 0zm-21.05.12c.54 2.3-2.13 1.85-.6 4.66-3.76-1.56-.74-2.97.6-4.66zm-7.2.01c.7.73-.97.9 0 0zm48.4.03c-1.4.17.8.64 0 0zm10.1 0c1.25.1-.3.8 0 0zm-54.26.02c.46.28-.46.27 0 0zm-2 0c-.83.07.67.13 0 0zm-3.6 0c3.84 2.53-.69 3.01 0 0zm34 .02c.27 1.14-.8-.07 0 0zm-26.47.04c.32.25-.57.22 0 0zm26.85.06-.1.15zm-18.92.03c-1.88 1.9-.15 1.95 0 0zm8.18.06c.47.54-.6.34 0 0zm9.8 0v.04zm2.74.01c2.48 1.38-3.1 3.58 0 0zm17.53.04c-.1.81.45.44 0 0zm-49.94 0 .03.28zm12.13.07-.15.27zm-15.15 0c.5.42-.35.56 0 0zm69.47.11c.83 1.06-.29.9 0 0zm-65.33.02c-.38 1 1.26.6 0 0zm28.37.04c.9 1.67 2.52.22 1.95 3.73-1.51 2.23-1.23 7.33-1.83 1.3a4.2 4.2 0 0 1-.12-5.03zm-28.6.01c-.5.43.5.43 0 0zm1.52.08c2.04-.55.33 1.15 0 0zm28.84 0c.52.17-.16 1.09 0 0zm-7.83.1c.36.76-1.42.64 0 0zm-23.27.04-.15.3zm46.79.02c-.74.73 1.65.43 0 0zm-10.44.06c1.07 1.59-.73.23 0 0zm-13.65.04c-.33 1.62-1.48.63 0 0zm-10.95.01c-1.21.36.21.8 0 0zm14.18.02c.53.68-.14 1.1 0 0zm41.07.07-.08.08zm-40.54 0 .03.26zm20.44.02c.75-.05-.13.48 0 0zm6 .01.25.47zm-7.49.06c-1.48 1.58.78 3.39 0 0zm-39.09.13c-1.23.4.5.43 0 0zm-9.8.05c-.64.17.44.38 0 0zm12.8 0c.43.01-.3.43 0 0zm.16.1.06.16zm-.53.01c.4.54-.49 1.84 0 0zm21.93.03c-.81 4.11-2.56-1.44-1.27 3.3.82 1.46 1.58-3.23 1.27-3.3zm-17.17 0c1.15 1.47-1.8.45 0 0zm51.95.04.01.57zm-20.31.04-.04.78zm-18.97.01-.04.14zm-4.65.03c1.8 2.06-4.48 2.42 0 0zm-12.24.05.01.03zm-5.44.07c3.32 2.18-.94 4.46 0 0zm46.2.06.03.28zm.35 0c-.65.95 1.83 1.53 0 0zm-41.5 0 .12.44zm53.44.08c.67 2.2-.54 1.15 0 0zm-52.12.08c.54 1.53-.61 1.81 0 0zm51.87.07-.01.19zm-69.18 0c-.53.28.62.2 0 0zm31.12.02c.3.3-.53.29 0 0zm-11.6.04c.36.6-1.1.08 0 0zm-9.9.02c-.44.39.26.45 0 0zm32.77.07c.27.33-.45.23 0 0zm32.14 0c.4.33-.73.5 0 0zm-19.54 0 .39.74zm-33.84.17-.04.04zm-21.3.02c-.28.67.59.38 0 0zm55.9.08.02.01zm-13.92 0-.32.53zm-1.52.02c.3 3-3.87 5.04-.76 1.03zm-30.34 0c-.88 1.18 1.4 1.34 0 0zm40.19.05.4.43zm-42.58 0c.45.4-.63.18 0 0zm42.07.01c.68 1.05-.51.54 0 0zm-42.53.01c.44.03-.34.14 0 0zm24.02.03v.93zm30.25.08c.26.35-.45.21 0 0zm-52.08.04.48.91zm50.5.01c-.57 1.05 1.2.92 0 0zm-44.65 0 .19.94zm-7.07.02c1.61 1.7-.05.99-.18.13zm8 .03c.48.34-.38.78 0 0zm-3.2.02c.81.33.07.66 0 0zm4.93.07c-.72 1.47-.1 1.2 0 0zm14.7.01.04.28zm20.63.02c-.51.47.62 1.13 0 0zm-46.03.13c1.76 2.05-.5-.53.42 2.1-.36-.64-.31-1.4-.42-2.1zm8.4.1.25.57zm35.2.05-.01.22zm17.86.1v.43zm-33.28.1c1.14 2.52-2.08.73 0 0zm-21.75.04.03.28zm28.76 0c.72 4.52-8.8 7.35-2.47 2.63.9-.76 1.08-2.51 2.47-2.63zm-6.63.06.03.31zm-2.26.07-.1.16zm-.9 0c.44 1.36-.48.81 0 0zm40.54.02c-.23 1.1.82 1.22 0 0zm-58.72 0c1.1 4.9-2.7 1.15 0 0zm36.32.04c-.16.99-.46 0 0 0zm-31.22.05c.4.27-.23.77 0 0zm-15.15.05.13.2zm6.17 0c-.66.9 1.47.92 0 0zm-9.7 0c-.2 3.24.98-.02 0 0zm31.51.03.01.28zm1.2.15c.15.66-.54 1.05 0 0zm20.23.02.13.3zm-27.04.07c.43.5-1.07.22 0 0zm2.76 0c.28.81-1.25 1.6 0 0zm29.3.03c-.64.18.08.57 0 0zm-52.41 0c1.79 2.09.68 1.36-.24.22l-.02-.17zm9.97.07c-.72 1.67-.26.44 0 0zm.33 0c-.04 2.18-.87.67 0 0zm9.3.01c.18.82-1.07-.09 0 0zm13.64.03-.25.47zm-22.62.03c1.96.13-1.08 1.66 0 0zm42.54.05c-1.46.67 2.8 1.13 0 0zm-8.9.02.05.1zm-17.55.08-.02.05zm-17.24.03c.06.51-.57.2 0 0zm43.5.02.47.4zm-44.6.02.3.43zm36 .01c.6.55-.57.31 0 0zm-.35.03c.8.61 0 1.33 0 0zm-32.2.06.46.33-.45-.33zm38.36.02.05.2zm-24.43.02.03.27zm-28.83 0c-.76 1.34-.05 2.1 0 0zm70.13.13.02.31zm-15.7.06.2 1.03zm-41.71 0c.17.64-.87 1.55 0 0zm-.7.04c.59.69-.7 1.2 0 0zm54.11.05c.64 1.1-.5 1.6 0 0zm-56.64 0c1.6 2.32-2.3 2.88 0 0zm41.47.07c.9 2.54 2.47.64 0 0zm-39.61 0 .5.8zm4.24.02c1.6.13.01.7 0 0zm13.63.02c.34.13-.53.27 0 0zm24.39 0 .25 1.14zm-53.1.04c-1.44 1.7.13 1.72 0 0zm50.63.07.73.86zm1.81.02c-.62.5-.2.88 0 0zm-.34.02c-.64.3.1.56 0 0zm3.94 0c.1.58.61.14 0 0zm-27.98.08c-.13 2.29-.17.65 0 0zm-20.42.01.38.02zm49.2.02c-.08 1.66 2.47 1.8 0 0zm-28.06.06c-.34.84-.56-.17 0 0zm23.9.03c-.61.37 1.36.45 0 0zm-23.69.03c.35.53-.57 1.83 0 0zm24.76.03c-.1.84.45.41 0 0zm-38.05 0c1.19.42-.16.5 0 0zm-3.17.04-.12.23zm21.91.01c.06.42-.47-.09 0 0zm-17.86 0c.45.22-.26.36 0 0zm35.79.04c.2.57.76.1 0 0zm-22.5.02-.08.84zm-22.47.04c.96.2-.54.88 0 0zm41.5 0-.08.06zm-35.75.02c-.4 3.1 1.39 2.86-1.05 2.45.65 2.97-.39 2.72-.2-.87.36 1.53 1.18-1.56 1.25-1.58zm46.1 0c1.06-.03 1.69 1.79 0 0zm-49.82.08c.3.05-.24.38 0 0zm48.4 0c.23.7 1.61 1.16 0 0zm-28.92 0 .02.32zm2.63.04c.96 1.27-1.84.57 0 0zm-8.33.19.19.72zm-3.62.08c.36.45-.65.18 0 0zm-7.74.01-.26.27zm37.24 0 .29.31zm-39.54.07c1.1 1.84.67 2.07 0 0zm26.22 0c.26.35-.44.22 0 0zm13.05 0c.58.53-.4 1.56 0 0zm-19.2.12c.4.75-.3.37 0 0zm-1.13 0c-.04 1.81-.58.47 0 0zm-16.52.05c-.25 2.07-.51.53 0 0zm-1.93.03c1.45 1.73.33 1.42 0 0zm46.27.04c-.82.51 1.2.13 0 0zm-45.1.02-.22.39zm22.41.1c-.12 1.37-.14 1.7 0 0zm-13.96 0c.56.72-.7 1.22 0 0zm32.33 0 .35.31zm-15.37.01-.07.27zm-25.1.02c.38 1.42-1.14 2.5 0 0zm39.12.08c.13.46.63 0 0 0zm4.68.02c-.4 1.2 1.07.06 0 0zm-15.8 0c.37 2.49-3.12 5.58.85 2.56-.36 4.37-8.7 2.64-2.5.46 1.18-.66.58-2.3 1.65-3.02zm-19 .02c.52.6-.2 1.16 0 0zm.58 0 .03.28zm38.93.01c.85.46.13.73 0 0zm-5.17.1c-.34.29.3.42 0 0zm-.3.02.03.28zm-34.5 0c.76 1.42-.8 2.64 0 0zm8.93.03.01.28zm28.31.05c-.38 2.43 3.87 1.76 0 0zm-24.19.08v.43zm3.15.04-.26.48zm-6.54 0c.47.38-.17.6 0 0zm-20.49.05.09.09zm12.06.04c.7.88-.32 1.04 0 0zm-12.56 0 .55.95zm-2.2.07c.54.07.08.72 0 0zm21.1.28-.12.8zm38 .01c.59.38-.47.22 0 0zm-57.87 0c1.26 1.4-.15.8 0 0zm-.78.06c1.74 1.47-.72.83 0 0zm17.9.06c1.3.61-1 .5 0 0zm-5.9.04.03.28zm10.43.03c.37.66-.36 1.2 0 0zm29.95.03c2.18 1.78.96.72 0 0zm-23.63.02c.05.56.56-.03 0 0zm19.85.01c-.51.45.74.17 0 0zm-34.83.02c1.47 3.77.42-1.3 1.62 2.72 1.3 2.92-1.83-1.86-1.62-2.72zm3.46.02v.86zm4.1.03-.06.15zm37.06.05c.46 2-1.1 2.25 0 0zm-36.85.02c.76 1.34-1.14.93 0 0zm-17.58.05-.7.67zm-2.69.02.08.25zm50.16.02c1-.15-.02.6 0 0zm-19.12.03c-.48 1.15.38.77 0 0zm2.13.08c.86 1.97-2.09 1.49 0 0zm-31.47.03c.34.4-.65.22 0 0zm9.03 0 .04.29zm-.46.01.12.42zm5.82.04c.45 1.03-.1 3.6-.08 1.07zm3.62.08.03.28zm-3.02.07c.83.16-.65.4 0 0zm40.7 0c.7 1.78-.64.96 0 0zm-33.12.05c1.9 3.07-4.1.37 0 0zm-21.43.01c.57-.09-.3.68 0 0zm10.56.05.35.8zm-9.73.14c-.52.3-.2 1.5 0 0zm-3.02 0c.47.05-.46.17 0 0zm18.83.08c.79 1.54.35 7.8-.45 2.9-2.61 4.8-.13-3.03.45-2.9zm-7.87.02c.5 2.33-1.3 3.49 0 0zm-8.7.05-.06.09zm17.87.1v.55zm-9.77.02c.56.4-.21.87 0 0zm37.87.02.3.27zm-18.33.07c-1.72 1.32.58 1.13 0 0zm20.74.1c-1.82.46 3.3 2.76 0 0zm-20.73.04c.14.49-.42.22 0 0zm-30.82.1-.12.03zm58.14.17c.92 2.47.46 3.93.03 4.1-1.36 4.88-2.1-4.96-.03-4.1zm-25.83.03c-.44.22.26.35 0 0zm24.41.04.03.28zm-42.72.01.18.48zm6.9.16c1.17 1.23-.87 1.97 0 0zm.87.15-.04.1zm10.63.04.03.28zm25.77.02.1.43zm-9.26.07c-.83.57.54.82 0 0zm-47.09.02c.48.06-.24.5 0 0zm55.13.02c1.2.59-.26.54 0 0zm-45.9.05c.38.98-.2.91 0 0zm44.53.01c.82-.1.07.84 0 0zm-20.64 0c.52.4-.52.6 0 0zm18.4.04c.1.57.83.21 0 0zm-31.65.01-.03.42zm26.45.07c-.6.43.23.56 0 0zm-47.47.05c.51 1.18-1.32 1.17 0 0zm21.2.01v.78zm-2.55.01c-1.32.54 1.02 1.03 0 0zm7.43.03c.15 1.2-1.93.08 0 0zm23.49.1c-3.25 1.6 1.58.42 0 0zm-16 .1c.02 2.4-1.66 1.88 0 0zm22.18 0 .08.74zm-8.94.03.04.02zm-32.03.04c1.67.66-1.1 1.4 0 0zm36.43.09c-.02 1.13 2.29.34 0 0zm-37.88 0c2.12 2.96.33 5.08 0 0zm15.4.02c-1.44-.02-.69 1.54 0 0zm-17.22.02c.43.78-.29 1.7 0 0zm43.54 0c-.35.62.5.4 0 0zm-3.72.09c.37 0-.27.14 0 0zm1.17.21c-.75 1 .96.48 0 0zm.42.16c-.3.37.59.1 0 0zm2.15.08c-.26.34.44.2 0 0zm-.96.04c-.87.23.1.59 0 0zm-33.84.02.08.05zm37.29.07c-1.7 1.07.3 2.22 0 0zm-25.57.05c.27.8-.8.57 0 0zm18.82.05-.37.46zm6.34.01c-1.02.59-.69 2.14 0 0zm-36.43.09v.5zm26.48.13c.54.9-.17 1.6 0 0zm6.68.12c.04.55.55-.02 0 0zm-4.2.06c-2.14 2.13.1 2.43 0 0zm-29.14.06c.31.83-.7 1.34 0 0zm31.85.06c-1.81 1.15-.86 4.7 0 0zm-31.54.18-.1.1zm32.58.01c-1.45.2 1.18.63 0 0zm-22.19.05c1.01 2.32-3.2.54 0 0zm27.15.1c1.54.78-.03.91 0 0zm-37.21 0c.32 1.33-.35 2.06 0 0zm36.48 0 .1.68zm-42.17.08.1.17zm5.8.04.03.22zm26.87.06c-.58.41.87.45 0 0zm3.04.11c-1.24.83.1.87 0 0zm-1.87.02-.6 1.31zm-22.6.28c1.62.28.58 2.38 0 0zm-10.7.2-.28.66zm38.62.18c2.1.77.42 2.63 0 0zm-37.46.02-.07.08zm32.99.04c.72 1.03-.53 1.64 0 0zm-29.78.08c.28.74-.55.85 0 0zm-4.85.05c3.76.77 2.84 5.7 1.16 2.78-2.02.69-2.75-.19-2.7 2-1.3-1.65.01-4.03 1.54-4.78zm41.35.02.03.27zm-40.66 0-.27.23zm30.48.55.03.27zm-26.14.01-.02.8zm.13.02c.39.73-.41 1.58 0 0zm36.97.08c.5.42-.5.42 0 0zm-40.46 0c-.26.35.44.21 0 0zm-.74.2c-1.3-.2 1.5 1.8 0 0zm33.27.02c1.05 1.6-.34 1.26 0 0zm-3.19.1c-.21.97.94.58 0 0zm-19.65.02c2 .8-.4.43 0 0zm25.73 0c-1.12.19 1.46 1.11 0 0zm4.38.02c-.5.56.1.76 0 0zm-9.67.07c-.71.56.43.73 0 0zm7.12.05c1.1-1.03.29 3.67 0 0zm-39.23.15c-.28.76.34.33 0 0zm.23 0v.43zm5.57.08v.2zm36.46.17c1.56 1.01-.77 1.23 0 0zm-4.54.01c-.13.4.75.34 0 0zm-31.56.03c1.43 2.85-4.12.7-.68 4.08 2.34-2.98-.16 4.7-.87.06-.83-1.87-1.32-4.7 1.41-3.35zm24.75.01c-1.23.82-.13.98 0 0zm3.42.13c-.43 1.67-1.22 1.68 0 0zm-1.2.11c.43.32-.47.42 0 0zm-32.67.12.02.32zm38.28.15c.58.08-.29.38 0 0zm-3.17 0-.15.31zm-2.37-.9c-7.43.52-3.3-13.35 0 0zm-46.74 1.1c.39.59-.45 1.03 0 0zm47.97.12c.76.74-.3.66 0 0zm-1.13.01c.07.39-.5-.03 0 0zm2.71.02c-.46 4.19-5.8.4-.25.67-.01-.24.5-.4.25-.67zm-18.54.04c-.19.56-1.68.37 0 0zm-31.95.04c1.15.69-1.23.97 0 0zm46.82.04c-.52.94-1.54.9 0 0zm3.63.02-.1.17zm-31.34.01.3.4zm30.6.14c-.34.51.86 1.31 0 0zm-17.37.02c-.22.66-.81-.22 0 0zm-32.35 0c-.26.35.44.21 0 0zm47.7.02c.16.95-1.31.94 0 0zm5.82.21c.75.8-.5.92 0 0zm-5.45.03c.46.06-.29.58 0 0zm4.78.01c.73.86-.03.6 0 0zm-.93.07.03.27zm-23.08.14c2.42 2.82-4.2.6 0 0zm28.19.02c2.18 1.19-.74 4.17 0 0zm-26.6.1c1.58 2.11-2.7.53 0 0zm-34.76.1c3.68 0 2.89 9.74 1.72 2.14-1.9-3.36 1.62 6.58-.35 2.97-.24-2.48-1.1-1.45-.6-2.76-2.74-4.4 1.45 5.57-1.06 2.01.65 3.26-3.56-5.75-.68-1.3 2.42.93-4.21-2.83.43-2.49l.25-.05zm1.92.05c1.39 1.08-1.63.27 0 0zm51.77 0c.26 1.06 1.43-.29 0 0zm-31.73.02c.11 2.46-4.06 4.9-3.33 1.1 1.62 3.2-.26-2.3 2.35.17l.64-.57zm31.2.12c-.47 0 .47.26 0 0zm-53.24.03c-.3.38.6.07 0 0zm25.88.01.01.86zm29.51.07c.53 3.94-2.17 2.28 0 0zm-3.07.36c-.87.09.88.08 0 0zm-27.96.07c.54.3-.4.5 0 0zm27.16.01c-.3.37.6.1 0 0zm11.53 0c.6.09-.32.38 0 0zm-5.95.03c.95 3.22-1.34 2.14 0 0zm-1.71.01c-.55 1.13.12 1.64 0 0zm-36.17.04.4 1.13zm-20.61 0 .42.43zm22.25.07-.44.1zm33.54.05c.41.2-.33.09 0 0zm-45.7.04c.64.3-.47.53 0 0zm23.17.01.03.33zm-31.67 0c-.44.25 1 .2 0 0zm20.7.14c.47.05-.46.16 0 0zm19.47.1c-.13 2.68-3.61 7.02-2.02 1.9-1.06-1.95 1.82-1 2.02-1.9zm-41.63 0 .25.21zm.52.06.4.39zm54.34.01c-.11 1.3-.77.6 0 0zm-4.05.03c.07.64-.77.25 0 0zm1.48.01-.33.31zm-17.74 0c.34.53-.73.16 0 0zm24.17.02c1.03.15-.32.55 0 0zm-19.81.09c.4.4-.74.45 0 0zm-36.92.01c-.8 0 .6 1.04 0 0zm22.68.1c-.3.4.6.07 0 0zm30.89.08c.75 3.4-1.38 1.73 0 0zm-30.48 0c-.46.28.47.28 0 0zm30.15.1c.5.44-.6.26 0 0zm-50.29.02c.66 1.58-1.16.48 0 0zm49.2.13c.08 1.06-1.4 1.2 0 0zm-15.82.03c.4.66-.73.34 0 0zm-40.3 0c3.5.26-.04 1.8 1.96 2.34-2.15 2.69-2.85-1.78-3.53.84-6.1-2.81 4.6-.98 1.09-3.09zm16.83.13c.4 2.3-.33 1.36 0 0zm40.16.02c.23.08-.2.11 0 0zm-56.39.04c-.46.28.46.28 0 0zm60.14.04.03.28zm-8.35.04c-.26 1.84-2.93 1.36 0 0zm4.33.02c1.13.65-1.8 1.45 0 0zm-53.67 0c-1.22 1.18.37.52 0 0zm35.67.03c.16.57.23 5.61-3.47 3.44-1.13-3.2 1.13-2.9 3.47-3.44zm-30.12.22c.46.28-.46.28 0 0zm20 0h.17zm25.99.02c-.53.08.52.08 0 0zm-37 .2v.47zm-17.02.01c-.16 1.29 1.17.29 0 0zm18.67.04c.58.06-.25.39 0 0zm37.15 0c-.57.11.23.45 0 0zm-1.34.18.29.2zm-48.71.03c1.04.57-.31.89 0 0zm46.65 0c1.16-.02-.79.49 0 0zm-30.3.02.39.73zm31.53 0c.27.35-.44.24 0 0zm-1.52.01-.08.1zm2.06.01c.38.67-1-.02 0 0zm-32.96.02-.16.52zm37.39.05c1.04 1.85-.89 1.3 0 0zm-23.33 0c-.72.19 1.19.23 0 0zm-18.01.03c.7.12-.34.5 0 0zm-19.87.09c.05.54.55-.02 0 0zm.3.03c-.23.44.57.1 0 0zm53.92.02c.42.29-1.68.1 0 0zm1.26 0c-2.9 1.1 4.14 2.1 1.7 2.94-1.37-2.3-7.21.67-2.81-2.24-2.02 1.26-2.61.02 1.11-.7zm-33.73.07-.16.13zm-18.2.04-.07.1zm20.68.08c.52.32-.16.46 0 0zm-24.31.04c-.47.16.46.05 0 0zm56.32.03c2.77-.16 4.48 5.81 2.29 3.5 1.31-1.6-4.17-3.24-2.3-3.5zm-36.54.04c-.34 1.5-.1.3 0 0zm-18.8.03.33.32zm52.18 0c-.1.61-.67.02 0 0zm4.19.13.3.2zm-36.97.1.04.3zm-22.53.01c-.6-1.1 3.47 3.97.49 2.68.38-3.67-.87 4.64-1.07.1.06 3.8 2.07 6.84 1.46 6.92.74 1.8 3.43 4.26.95 4.12 2.94 3.03.71-5.12 1.55.73a169 169 0 0 1-1.24 12.73c.6-5.48.83-11.15-.43-7.56.82-.88.06-6.73.8-1.26.8-1.58.36-5.2-1.5-1.44-2.04-2.85 3.11-6.46-1.24-4.26-.87-2.8-1.41-3.07-.29-2.47-1.03-3.26-.64-1.72-.89.93-1.12-3.07-3.7-2.7-.81-.6-5.04.68-10.68 2.43-12.5 7.71-3.02-.17.11 8.06-2.6 2.75-.07-2.29 4.27-10.9 3.63-6.72 2.41-.67-1.2-1.55 2.31-2.56 2.26-1.25 2.11-3.15 1.46-.15 1.67-1.02 6.63-4.87 5.04-4.78-4.91 6.1 4.03-8.13-.8-.66-1.2 2.74-3.62 4.32-.8.55 2.77-4.4-1.72 1.4-.28.14-3.98 6.44 2.05-5.1 1.66-3.35-.54 1.4 1.2-2.26.1.8.16-3 5.1-5.22 3.68-3.73l.57-.09zm42.9.1c-2.32.26.25 1.32 0 0zm-42.24.02c.34.13-.46.04 0 0zm1.72.04c-.26.44.85-.03 0 0zm9.3.03c.26.35-.45.22 0 0zm19.97.05c1.08.18-.5 1.33 0 0zm-22.89.02.03.28zm-5.26.01c.4.49-.33.5 0 0zm56.6.05.37.32zm-37.12.05c.35 1.58-.56.85 0 0zM65.4 139l.34.31zm60.37.01c.28.1-.38.22 0 0zm-49.28.07c.78.28-.74.38 0 0zm-12.57.08c.09 1.33 1.94 1.55 0 0zm-.36.1.48.58zm-4.08.01c.13 2.14-2.41.42 0 0zm26.36 0 .06 1zm-19.05.08c-.23.43.57.1 0 0zm23.52 0 .11.16zm.93.02c.8 2.85-1.74 4.47-.6.65.24 2.27.39-.24.6-.65zm-25.75.05c.46.15.2 1.3 0 0zm4.83.03.13.78zm52.59.01.33.36zm-61.3 0c-.45.24.28.33 0 0zm4.17.01.17.3zm-5.9.02c-.23 2.42-1.37 1.35 0 0zm10.17.09c.3 2.56-2.94-.5 0 0zm-7.25 0c-2.57 2.44.22 2.72.24.2-1.11 2.28-1.48 1-.24-.2zm58.8.15c.35.98.04.31 0 0zm.03.08.3.32zm-61.21.12c-.88.33.72.5 0 0zm21.74.02c.54.23-1.44.16 0 0zm-16.15.04c.9 1.05-.7.36 0 0zm54.2.07c.92.1-1.11.05 0 0zm-33.91.02c2.02.08-.28 13.47-1.2 4.4-.5-4.48-.77-2.28.97.3 1.3-2.22.92-5.09-.48-1.33-1.15-3.43.35-.57.43-1.63.48-.51.23-.94.28-1.74zm37.3.02c2.75 4.65-1.07 5.16-2.91.67 2.33-.8 4.2 4 2.91-.67zm-56.78.05c3.76.56-2.06 2.27 0 0zm18.64.01-.34.31zm33.63.01c4.43.14-4.03 1.94 0 0zm-12.03 0c0 .43-.7.21 0 0zm-25.37.01c-.5 3.5-1.14 10.64-1.46 11.63.44-3.88.74-7.79 1.46-11.63zm5.09.03.65.7zm-18.55.06c1.45.64-.54.67 0 0zm49.95.1.01.16zm3.95.26-.05.05zm-35.35.13c-.22.45.65.22 0 0zm-23.34 0c-.7-.02 1.23 1.21 0 0zm55.76.1c.57-.05-.3.24 0 0zm-57.84.12c-3.85.93.34 2 0 0zm4.62 0c.7.3-.24 1.14 0 0zm21.37.01c.13 4.66-.11 5.86 0 0zm-21.75.1c.37 1.2-1.87.84 0 0zm39.92.1c.63.12-.64.26 0 0zm13.6 0c.49 2.28-3.88 1.34 0 0zm-54.3.02c-.89.25.25.4 0 0zm55.45.03.33.35zm-.52.01c3.3 1.3-1.52 2.34 0 0zm-48.58.12c-.04.88-1.1.69 0 0zm3.26.24-.05.05zm-13.98.1c.18.7-.47.18 0 0zm49.14.07c.23.44-.58.1 0 0zm-35.46.1c-2.4 2.18-1.9 11.68-1.81 3.64.39-1.3 1.08-2.5 1.81-3.63zm-12.11.02.34.32zm24.91.1c-.1 1.32.1 2.54 0 0zm25.7.13c.45.21-.26.34 0 0zm8.7 0c.5.07-.25.51 0 0zm-1.97.17-.13.28zm-57.67.07c-1.39.3 1.8 2.66 0 0zm-2.27.1-.1.1zm56.3.03c.83.27.55.9 0 0zm7.43.01.12.31zm-50 .01c.18.65-.44.65 0 0zm47.64.08c-.22.8-1.24.75 0 0zm-2.97.01c-.12.73-1.15-.23 0 0zm3.96.02c-1.41 1.6 2.04 6.39-1.73 1.72-1.83-1.78-4.66 1.25-1.8-1.14 3 .41 1.64 1.32 3.53-.58zm-41.21.24.03.28zm.35 0 .03.28zm42.38 0 .17.47zm-29.21.01c.09.46-.7-.08 0 0zm-3.25 0-.01.86zm24.42.24c.72.72-.7.48 0 0zm-45.97.2c.57 3.3-1.18 1.51 0 0zm-8.71.01c.52 4.64.34-.94 0 0zm1.6 0 .12.31zm57.88.02c.85.43-1.22.52 0 0zm7.41.06c1.73.2-.15 1.23 0 0zm-64.17.06c.26 3.07.98 1.7 0 0zm31.77.12c1.39.38-1.29.53 0 0zm27.33.09c.66 1.02-1.56 1.17 0 0zm-15.34.01-.31.3zm21.57.08-.08 1zm-59.07.01c1.07 1.2-1.26 1.22 0 0zm16.1.05c.29.07-.26.36 0 0zm32.82.05c.57.22-.76-.01 0 0zm-4.49.06c1.38 1.15-1.57.48 0 0zm4.92.06c.75.07-.17.24 0 0zm-56.72.11c-.58.26.79.48 0 0zm56.47.03c4 1.25-6.67 2.36-1.27.44zm-23.12.01c1.88-.07.89 4.3-.13 1.2-.04 3.56-1.07 2.71-.19-.34zm-37.75.02-.28.39zm5.09.1c-.26.34.59.6 0 0zm22.9 0 .24.08zm-5.68 0 .03.28zm47.63.02.02.75zm-61.74.03c-.7 2.99.17 7.6-.75 2.1-.18-.75-.04-1.73.75-2.1zm6.64.03-.27.54zm24.94.08c-.46 4.13-2.05-.03 0 0zm-35.06.04c-.13.4.76.34 0 0zm33.5.03c-.29.38.6.08 0 0zm23.83.07.5.3zm-48.3.02c.26.34-.45.22 0 0zm46.28.03c-.55.26.39.46 0 0zm-30.96.08c-.26.34.44.2 0 0zm-29.43.01c-.1.42-.48-.1 0 0zm55.1.05c.61.52-.9.36 0 0zm-2.28.03c3.22.85-1.27 3.77 0 0zm-25 .02.12.55zm36.6.01c.44.38-.26.47 0 0zm-22.63.12c1.28 1.44-1.2.76 0 0zm-38.65.04c-.59.34.47.55 0 0zm58.26.02c.6.22-.7.32 0 0zm-56.23.07c-.84.46.82.55 0 0zm65.23.04.05.21zm.27 0c.35.8-.54 1.17 0 0zm-64.67.06c-.4.08.44 1.27 0 0zm4.08.01.18.28zm52.96.02c2.47 1.94-1.22 4.05-1.37.89 3.85 2.97-1.38-2.35 1.36-.87zm-40.36.02.02.33zm-.3.08c.34.19-.45.04 0 0zm44.03.02c.16 4.52-1.27 4.6 0 0zm-60.82 0c.27 1.01.5.3 0 0zm65.44 0c.54.1-.38.42 0 0zm-18.7.03c.21 2.25-2.32 1.13 0 0zm-8.06 0c1.09.54-1.35.76 0 0zm16.47 0c.3.55-.64.05 0 0zm.16.01.28.06zm-56.65.04c-1.91.7-.5 4.39 0 0zm45.44 0c3.42 3.46-2.97-.45 0 0zm10.38.01c.47.05-.46.17 0 0zm-5.65.04.03.28zm-18.72.04-.24.48zm-30.31.03c-.46.54.86.54 0 0zm54.14 0c.33.18-.47.03 0 0zm-18.42.03c1.73.55-.9.76 0 0zm2.15.04c2.4 2.8-3.32-.02 0 0zm-39.04.04-.3.57zm58 .04.12.33zm-22.74.01.04.29zm20.65.03c1.88.45 1.63 2.01 0 0zm-14.46.02c4.98.38-.56 2.11-.35 0zm-2.67.03c-1.42.5.9.66 0 0zm16.52 0c.34.13-.46.04 0 0zm3.02.1c.7.35-.44.49 0 0zm8.6.01c.23 2.8.02 1.06 0 0zm-60.23 0c.66-.1.24.86 0 0zm39.9.06c.86-.15-.2.53 0 0zm8.73.07.52.21zm-47.72.03c.47.52-.67.25 0 0zm47.36.06c-.64.59-1.05-.42 0 0zm-15.34.02c1.6.45-.55 1.29 0 0zm26.55 0c.73 3.32-.2 3.77 0 0zm-67.4.02.04.28zm55.06.03c.05.68-.8.7 0 0zm-28.27.02-.1.27zm5.55.02-.07.13zm10.5.01c-.43.4.28.44 0 0zm-3.36.02c.05.55.56-.01 0 0zm-39.79 0c-.3.6.44.4 0 0zm46.25.02c.29.54-.56-.06 0 0zm-35.97.06-.46.43zm46.91.02.07.05zm-22.78.02c.62.95-.52.7 0 0zm-22.94 0c.53.82-.5.87 0 0zm45.35 0c3.22.74 2.52 3.3 2.53 4.99-2.07 1.9-3.11-4.1-1.64 1.6 1.24-1.16 1.28 6.71.15 7.05-1.69-5.18 2.56 7.8.02 1.35 0 2.17 3.22 7.3.3 9.67-1-4.49-2.02-12.12-3.34-5.07.26.84.6-4.83-.16-.4.86 3.83.02-.02-1.75 1.45-1.14-2.9 1.3-5.31-2.26-3.93-1.08 1.7-1.84 5.26-2.26 3.26-1.6 2.17.26-2.16-2.02-.59 2.14-2.23 3.01-9.43-.62-5.61-2.64.77-4.8 6.72-4.46 1.53 1.24-2.37 5.76-4.1 3.68-4.12 2.62-1.26 5.4-3.02 5.03-3.75 2.2.05 3.71-5.86 2.15-2.53.57-2.75 3.18-3.96 4.65-4.9zm-58.36 0-.26.25zm5.45.1.3.34zm-.67.02c.34.68 1.24.44 0 0zm43.23.03c.59.08-.29.38 0 0zm-.66.09c1.94-.08-.38 1.21 0 0zm-47.03.08c-.63.28.89.43 0 0zm36.82.13c.39 2.32-.94 1.81 0 0zm-8.7.06-.1.33zm29.82.04c-1.2 2.24.34 2.43 0 0zm-53.14.13c-1.03.96 1.04 2.73 0 0zm41.08.02c.23.44-.58.1 0 0zm-10.51.04c.98 2.1-.47 1.61 0 0zm11.55.08c.44.21-.26.34 0 0zm-40.94 0c-.1.82.45.44 0 0zm14.95.11c.46.29-.46.28 0 0zm16.75.05.03.33zm-38.49.04c-.05.53-.03.28 0 0zm60.96.08v.26zm-47.05.08v.5zm-12.02 0 .26.29zm45.2.1c1.54.55-1.07.16 0 0zm23.27.04c.53.25-.47.72 0 0zm-41.6 0-.14 1.28zm35 .06c.66 2.66-.86 1.57 0 0zm-58.04.03c.48.67-.56.34 0 0zm-6.18.07c-1.15.2.09.64 0 0zm-1.4.05-.12.3zm58.39.07-.1.15zm-18.66.03c.43.53-.42.73 0 0zm-35.64.1.33.22zm37.59 0 .24.22zm-37.15.03v.03zm-1 .05c-.72.57.87.57 0 0zm61.42.04c.28.44-.43.4 0 0zm-56.89.08c-.92.95 1 .6 0 0zm32.1.07c.73 2.16-1.4 1.03 0 0zm-40.86.01-.03.01zm63.45.02c-1.95.6-.13 1.5 0 0zm-2.23.03.07.06zm-18.88.07c1.8 1 2.86 4.31-.17.6l.13-.59h.03zm30.84 0c.45 4.96-.57 6.95 0 0zm-33.66 0c.96 1.08-.63 1.53 0 0zm-15.51.06.04.29zm33.87.14-.38.31zm14.26.04c.53.53-.84 1.5 0 0zm-72.18.03c-1.54.66 1.42.53 0 0zm4.66 0c-2.38.19-1.31.75.2.1zm19.97.01v.44zm21.86.09c.52.63-.47.94 0 0zm-47.55.02c.67 1.18-1.01.76 0 0zm3.99.22c-.44.22.26.35 0 0zm6.08.02c-.66.61.83.14 0 0zm63.5.02c.4.24-.41.23 0 0zm-56.36 0c.63 1.64-.78 1.08 0 0zm48.03 0c.38.99-.37 1.05 0 0zm-6.05.03.15.38zm14.6 0c.08 4.55-1.63 3.08 0 0zm-6.93.1c.89 1.94-.35 3.09 0 0zm-7.96 0-.43.47zm-49.5.12.02.32zm-5 .12c-.16 1.23-3.2.38 0 0zm59.06 0c-.7.27.54.37 0 0zm-63.95.02.13.15zm36.61.03-.7.84zm-25.66 0c-.59.26.78.48 0 0zm15.1.02c.57 2.58-.6 1.24 0 0zm-25.7.15-.64.5zm63.77 0c-.44.22.26.35 0 0zm-22.47.07c.91 2.66-.5 2.4 0 0zm8.15.05c-.3 2.18-2.63.88 0 0zm-38.56.15.12.3zm56.75.08c.52.54-.5.58 0 0zm-57.99.07.26.47zm54.33 0c-.53.9 1.46.86 0 0zm-65.13 0c-.5.22.73.89 0 0zm1.56 0c-.4.62.8.18 0 0zm60.4.01c-.37.14.5.39 0 0zm-43.8.05-.04.83zm47 .06.26.46zm-16.4 0c-.07.6-.45-.05 0 0zm-29.83.05c.44.8-.43 1.4 0 0zm56.22 0c.46.28-.46.28 0 0zm-11.16.08c.61 1.43.08 2.3 0 0zm-62.7.03c-.26.48.44.37 0 0zm18.01.04c.08 4.18-.53 6 0 0zm41.92.01c-1.37.83.6.72 0 0zm-62.06.05c-1.17.6 1.2.34 0 0zm49.95.02c.56.4-.7.35 0 0zm-52.56.19c.02.6-1.45.63 0 0zm69.55.08v.43zm-64.5.03c-.46.24.27.32 0 0zm9.54.04.25.53zm37.55.01c-.1.4-.45-.33 0 0zm-2.9.02.3.48zm2.26.03.08.22zm-50.06.01c-.62.84 1.58.51 0 0zm14.82.03c-1.46.58 1.45.8 0 0zm55.96.02c.3 1.77-.6.67 0 0zm-21.5 0c.58.64-.52 1.22 0 0zm-39.72.05-.25.18zm-6.41.03c-.72-.02.3.3 0 0zm74 .16.15.48zm-13.4.05.05.09zm-54.58.07-.68.57zm3.8.13.18.28zm37.72.01c.2.67-.63-.1 0 0zm14.87.02c-1.58 2.77 1.77 3.06 0 0zm11.55.04.02.14zm-14.13 0c-.88 3.22-1.43 4.72-1.1 5.82.76-3.9 2.27-3.14 1.1-5.82zm-18.64.03c.48.3-.48.4 0 0zm12.47 0c.5.43-.5.42 0 0zm8.2.08c-.57.68.9.6 0 0zm-.99.06c-.84.76 1.1.73 0 0zm-2.93 0c-.27.9-2.05 1.48 0 0zm1.91.03c.44.26-1.07.28 0 0zm13.92.04c.3 3.49-.62 3.2 0 0zm-11.39 0c.36 1.1-.5 2.16 0 0zm-45.06.03c.46.28-.46.28 0 0zm29.08.09c.48.76-.62.13 0 0zm4.73.06c.14.63-.6.42 0 0zm-4.09 0-.25.3zm-36.56.19.02.31zm53.8 0c-.1 1.92-1.22.47 0 0zm-52.74.1c-.66.14.35.45 0 0zm56.06.06c.06 1.17-.54.99 0 0zm-9.44.02c-.78.23-.23 1 0 0zm-24.22.02-.08.08zm-29.26.04c-4.02 3.08 4.3 10.47 1.7 10.65 1.57-3.85-6.76-6.97-1.7-10.65zm43.34 0c.26.35-.44.22 0 0zm-30.29.04-.02.3zm16.03.1c-1.6 1.55-2.01.53 0 0zm28.86.06c.64.21-.08.55 0 0zm-44.74 0-.05.26zm-20.38.04c1.03.04-1.04.27 0 0zm49.89.03c.35.89-.61.59 0 0zm-11.93.1c1.16-.17-.57.8 0 0zm10.95.07c.58-.06-.37 1.09 0 0zm-3.8.03c.5.42-.5.42 0 0zm-31.25.07c-1.03.73.78.38 0 0zm5.99.06.02 1.02zm23.62.12c.68.6-.38.7 0 0zm5.8.02.02.29zm14.51.01c-1.54 1.72.84 2.95 0 0zm-65.88.11c-1 1.9-.1.48 0 0zm62.1.12c-4.56 4.02-2.56 2.2-3.1 3.45.77.1 1.3-1.27 2.8-2.9-3.16 4.39 1.24.82.3-.55zm-59.74.01c-1.06 4-1.64 7.92-.2 10.63-3.69-2.19-2.8-7.87.2-10.63zm0 .08-.2.4zm48.99.24c.63 1.3-.44 1.4 0 0zm16.42 0c-.98 1 .87.27 0 0zm-2.2.05.04.28zm2.69 0c-.42.23.15.5 0 0zm-.3.3c-.3.38.6.1 0 0zm-.58.02c-.6.43.23.56 0 0zm4.4.06c.44.38-.37.67 0 0zm-49.46 0c.66.88-.32 1.41 0 0zm-21.9.04-.42.47zm81.96.04.03.28zm-59.67.02c.26 2.14 1.65 8.96.67 6.85-.99 2.65-1.09 4.81-1.98.63.23-2.04-.8-5.17 1.04-3.17.27-1.42-.06-2.9.27-4.3zm43.62.06c-.38.6.26 1.18 0 0zm.35 0c-.83.9.36 1.07 0 0zm-50.92.05c.27.35-.31.22 0 0zm49.71 0 .03.32zm-2.35.08c-2.26 2.22-.05 2.05 0 0zm-11.11.01c.55 1.7.23 4.38.02 1.58.02 4.48-2.12 3.66-1.63-.25.8 2.09 1.35-.17 1.6-1.33zm3.08 0c.48 1.4-1.45.86 0 0zm9 .02c.37 1.26-1.05.75 0 0zm-13.16 0c.01 1.19-.8.4 0 0zm16.58.1c-.42 3.3.45 3.92 0 0zm-18 .08c1.94.39-.44.98 0 0zm12.14 0-.31.52zm-60.2.01c-1.84 3.8-1.26 3.28 0 0zm50.5 0 .03.28zm15.9.02c-.72 1.02 1 1.2 0 0zm-68.84.02c-.9.4.76.72 0 0zm3.06.05c-.67.44.45.5 0 0zm76.6.03c.77 1.05-.49.52 0 0zm-31.3.03c.35.76-.65.8 0 0zm-7.57.05c.46.28-.47.28 0 0zm25.46.31c-1.18.92 1.06 1.31 0 0zm-24.37.08.04.28zm12.88.1-.2.4zm-55.24 0c-.73.53.62.53 0 0zm66.75.03-.2.4zm.65.2c-1.12.42 0 1.87 0 0zm1.33 0c-.52.68.07.77 0 0zm-21.87.03c1.18 2.8-.34 2.38 0 0zm20.75.01c-.96 1.83 1.29.82 0 0zm-50.41.08c.41.54-.15 1.2 0 0zm-16.67 0c-.45.22.25.35 0 0zm40.19.03c.43.5-.56.24 0 0zm11.38.07c-.68.55.41.53 0 0zm-28.67 0c.93.86-.9 1.49 0 0zm18.97 0c.54.13-.05.68 0 0zm22.72.04c.2.64-.98.76 0 0zm-11.67.05c-.8.63.28.49 0 0zm26.86.03c.27.45-.43.39 0 0zm-80.07.06c-.67.67.54.58 0 0zm79.53.01c.17 1.73-1.95 1.93 0 0zm-11.99.05-.01.21zm-23.66.03c.55.59-.24.76 0 0zm22.26.07c-.85 2.23 1.74 4.39 0 0zm-65.45.13c-.41.15.28.42 0 0zm53.44.05.03.32zm26.35.06c.89 3.15-.6 14.1-1.03 5.55-2.59-3.9 2.32-1.17 1.03-5.55zm-78.94.06c.05.36-.67.14 0 0zm62 0c-2.08 1.87.61 1.01 0 0zm-64.1 0c-.5.74.6.44 0 0zm23.32.14-.27.38zm26.71.01c.13 1.1-.1 2.58 0 0zm23.43.03c.48.3-.49.4 0 0zm-14.57.03c-.35.12.44.04 0 0zm-59.57 0c-.87.6.87.7 0 0zm70.23.01c-.37 1.96.56 1.4 0 0zm14.62.01.03.28zm-19.13 0 .02.28zm-47.4.04v.5zm-15.85.02c.1.54-.76.25 0 0zm57.16.02c-.45.12.55.11 0 0zm-6.58 0c.97 1.86.72.55 0 0zm-12.2.05c2.19 2.29-1.93 6.89 2.22 6.3-.68 3.52-3.64 6.76-5.16 5.72-.43 2.9-3 4.57-5.6 7.9-1.47-.8.77 1.84.64 2.38-2.42-1.73-5.06 2.7-5.22-1.23 1.63-1.1-3.35 1.88-.89-2.21 4.17-4.77 2.84-8.62 8.35-12.44 3.98.03-4.53 6.39-.34 4.48 3.64-3.26.4-6.33.26-5.27-2.28.24 2-4.85 4-4.6.44-1.17 1.5.6 1.74-1.03zm19.53 0c-1.48 1.5.64 1.55 0 0zm3.26.07c-.72.52.62.52 0 0zm-64.15.16c-.22.63.77.54 0 0zm60.86 0-.12.3zm8.95.07c-.45 1.06 1.1.92 0 0zm-4.46 0c-.7.5-.05.6 0 0zm-5.77.01c-1.3.34.54.78 0 0zm-55.57.1c-.25.48.44.38 0 0zm-1.63.03c.36.44-.66.17 0 0zm15.36.08v.24zm46.7.02c-3.26 1.22-1.95 8.56-1.33 2.45-2.48.37 2.34-1.77.71-1.38l.47-.65zm2.9 0c-.96 1.8 1.53 1.68 0 0zm-23 0c.51.14-.09.53 0 0zm24.58.02c-1.03 2.74.07 3.08 0 0zm.94.01.09.29zm-66.45.09c-.3.65 1-.28 0 0zm60.95.03c.14.5-.43.22 0 0zm16.82.06c1.72 1.23-.08 1.8 0 0zm-20.85.02c-2.68 2-.37 1.73 0 0zm7.02.01c.54.16-.5.45 0 0zm-41.37.02c-2.13 4.36-.2 5.05.32 1.8.06-.61-.4-1.2-.32-1.8zm39.83.22c-.53.11-.12 1.2 0 0zm-.53 0c-.15.82.44.78 0 0zm-15.05 0 .02.29zm12.97.32c-.6.58.46.32 0 0zm3.63 0c-1.43.98.71.78 0 0zm3.83.03c.1 2.27.22.94 0 0zm-6.26.03-.39.71zm-17.07 0c.1 3.79-.64 3.67 0 0zm22.77.09c-.27.85.56 1.97 0 0zm-19.68.03c.8.15-.64 3.98 0 0zm-9.3.06c-1.75.87-.49 1.06 0 0zm4.75.03.03.28zm15.64 0c-.42.22.15.5 0 0zm8.36.01-.14.29zm-66.67.17c-1.14.26.7 1.62 0 0zm55.23.02c-.95.3.54.71 0 0zm-9.78 0c.27.62-.42 1.1 0 0zm-48.42.02c-1.08.47.32.5 0 0zm17.53.02.03.28zm47.06.05c.98-.43-3.4 5.91-.1 2.36l.32-1.17zm.48.07c-.63 2.15.87 2.44 0 0zm-4.13.02c.2.73-.63.8 0 0zm-12.23.03.01.43zm-24.09.04c-.26.68.83.4 0 0zm37.2.03c-.87.66.57.9 0 0zm23.16.07c.26.35-.44.21 0 0zm-25.27 0c-.48.42.97.19 0 0zm-17.5.01c1.04 1.09-.85 2.57 0 0zm18.45.02-.07.2zm-2.87.1c-.53.75.94.1 0 0zm-7.84.1c.51.23-.39.44 0 0zm-10.58 0c-.53.53.27.55 0 0zm36.23 0c.46.29-.46.29 0 0zm5.75 0c.63.56-.47.35 0 0zm-14.3.04c-2 2.96.82 6.33-.1 1.05l.1-1.05zm-48.22 0c.57 2.21-.4 2.82 0 0zm65.71 0c.43.5-.55.25 0 0zm-21.14.1c-1.59 1.02.87 1.14 0 0zm6.11.08c-.17.29.59.85 0 0zm.65.02c-1.27 1.19 1.16.65 0 0zm-5.25 0c.4.24-.1 1.18 0 0zm-16.15 0c.16.96-.77.36 0 0zm-40.9.02c1.02.63-.13.88 0 0zm-7.77.02.03.27zm58.73.07c-.99.22.45.22 0 0zm16.85.04c2.18 3.7.53 11.54-1.53 17.19-1.49 2.09 2.23 9.13-.72 6.11-2.62 1.74-.36 5.79-.2 6.43-2.3-1.15-1.52-.57-4.54-2.28-1.71-3.46 3.52 2.51 1.27-3.1-.53.24-2.2-.18-.63-3.29-.4-1.47-1.06 3.46-.55-.32-.36 1-1.05 5.04-.16 1.64 1.1 1.44-2.22 5.22-1.74.71 1.7-2.8.74-12.78 3.8-9.83-1.21 4-.52-1.23-.9 2.78 1.07 2.46.83-4.06 3.74-3.15-.33 4.52 3.05-5.75.41.05-1.06-1.76-.93-8.28.72-4.29.9 3.21.72-3.98.62-5-1.14-1.35-.07-2.45.4-3.65zm-7.52.01c.1 2.55-1.3 6 .6 1.76.05-.67.09-.99-.6-1.76zm-1.06.01c.01.93-1.69 1.25 0 0zm-9.93.08c-1.32.92.86.57 0 0zm-17.61 0c-.83 1.03.4.46 0 0zm-33.33.1c-2 2.54 3 11.63-1.8 5.29 2.01 1.93 2.16 3.06 1.19-.96-.15-1.42-.66-3.25.61-4.33zm51.68 0c-.67-.02-.13.95 0 0zm4.65.04c.05 1.09-.84.55 0 0zm5.64 0 .02.15zm-68.36.07c.22.6 1.6 1.4 0 0zm40.39.04.02.28zm17.75.08c-.92.6.83.16 0 0zm-40.3 0c.28.34-.46.25 0 0zm52.07.01c-.27.76.4.51 0 0zm-5.78.09c-1.37 1.06-.69 1.66 0 0zm3.04.04-.17.18zm3 .04c-.54.85.27 3.47 0 0zm-32.96.06-.2.18zm22.68.05c2.93.78-1.51.44 0 0zm-11.07.07c.13 3.85-.83 1.72 0 0zm6.75 0c-2.27 1.93.5 2.71 0 0zm-15.65.03c-.42.21.14.5 0 0zm26.66.02-.25 1.2zm-41.29.05-.1.28zm-.45.01c.46.29-.46.29 0 0zm30.78 0c.34.14-.46.05 0 0zm-18.54.06c-.84.12.53.57 0 0zm30.74.05c-1.37 1.22.98 1.01 0 0zm-2.66.02c-.71.96.54.16 0 0zm16.72.1c-.44.4.26.46 0 0zm-33.7.03v.58zm-22.97.02c-.6.92.05.27 0 0zm-25.52 0 .18.19zm68.15.07c.21.77-.67.5 0 0zm-15.69.03c1.98 2.86-1.03 3.4 0 0zm-11.22.1c-1.54.53.8.72 0 0zm24.46.02-.2.39zm-8.98.08c-2 .9.82.77 0 0zm10.5.04c-.48.43 1.02.18 0 0zm-48.84 0 .08.25zm-8.45.03c1.87 1.01-1.61.3 0 0zm25.91.06c-.26.35.45.21 0 0zm13.65 0c1.04 3.23-.94 2.9 0 0zm-37.35.02c1.12 1.72-1.1 2.4 0 0zm-12.03.01.03.33zm75.79.07v.5zm-6.22 0c-.42.55.19 2.09 0 0zm-67.28.01c-.47 4.67-2.07 4.7 0 0zm58.11 0 .5.47zm-20.03.14v.1zm28.51 0-.2.4zm-.47.08c-.87.57-.16.75 0 0zm-55.93.04c.83.78-.63.65 0 0zm58.62.08c.44.2-.26.34 0 0zm-67.42.06c-.57.23.43.52 0 0zm44.76.07c.48.3-.48.4 0 0zm8.3.07c.07 1.06-1.02.71 0 0zm-14.25.02-.16.76zm-5.97 0-.1.14zm-17.73.13.08.74zm45.97.04-.15.29zm-28.25.01c2-.77-.6 1.8 0 0zm33.88.1c.73 2.67 1.3.18 0 0zm-19.16.03c1.7 3.6-1.24 6.93-.43 1.1zm-51.38.09c1.5-2.77-.88 4.6 0 0zm48.29.13c.42.3 0 1.49 0 0zm-29.8.08c.39.52-.38.72 0 0zm50.74.01c-.4.15.02 1.06 0 0zm-5.03.2c-1.76.74.75 1.13 0 0zm-37.55.02c-.9 3.9-1.3 2.5 0 0zm-15.87 0c2.41.58-.03 1.04 0 0zm67.64.13c.26.34-.45.22 0 0zm-12.46 0c.43 2.16-3.16.43 0 0zm-28.7.25c.5.85-.57 1.04 0 0zm11.63.12v.57zm29.32.08c.52 3.83-1.49 4.55 0 0zm-36.52.06c-.8-.12.15.5 0 0zm-22.64 0c.5 1.86-.44 1.58 0 0zm48.53.2c-.4 1.33.74.8 0 0zm4.28.13c-1.16.99.66 1.3 0 0zm2.36.08c-.08 2.48 2.21-1.34.9 2.8-.6-2.54-3.04.46-.9-2.8zm-19.77.04-.14.17zm.27.09c-.16 1.89-.41 1.23-.7 4.2-.36-1.2-.74-3.87-.16-1.75.23-.83.46-1.67.86-2.45zm-15 0c-1.08 1 .36 1.11 0 0zm-3.27 0-.15.31zm31.57.08c-.3.73.8.22 0 0zm-12.19.04c-.41.16.28.4 0 0zm-15.36.03c-.6.35.35.35 0 0zm-.85.07-.2.4zm28.66.13c-.27.46.44.4 0 0zm-29.97 0c-.42.08-.06.71 0 0zm25.2.11c-1.33 1.69-.49 1.6 0 0zm-25.2.16c-.7.47.24.58 0 0zm23.3.23c-.9.8 2.09.86 0 0zm-4.43.08c.14.57-.6.72 0 0zm-7.35.07c.22 4.01-.84 3.5 0 0zm17.9.03c-.6-.02.13.7 0 0zm-48.78.02c.85.51-.3 1.41 0 0zm36.35 0c.27.35-.44.22 0 0zm-18.35.01c.83.17-.62.5 0 0zm4.7.13c-.19.38.6.26 0 0zm-3 .18c-1.19.53.7.6 0 0zm15.28.04.02.32zm-20.2.01c-2.27 5.95-.82 4.67 0 0zm27.28.19c.97.05-.97.22 0 0zm-6.56.03c.17.77-.66.82 0 0zm17.95 0c-.94 1.85 1.36 1.71 0 0zm-11.42.2-.57.43zm-1.06.24c1.71 1.79 3.18 3.3 1.31 4.72-.14 3.76-1.17-.3-1.16-.3-3.06 2.1 1.16-3.31-.15-4.42zm6.88 0-.2.39zm-48.04.08c.31 1.41-.25 1.07 0 0zm53.2.13c-.44.39.26.45 0 0zm-34.43.23c-.4.58.27.56 0 0zm17.4.06c1.04.18-.6.85 0 0zm23.47 0c.36.64-.27.84 0 0zm4.9.11.06.1zm-45.51.06c-.44.22.26.35 0 0zm-2.12.08c.2.42-.86.14 0 0zm31.77.05c-.07.52-1.42.44 0 0zm-4.6.01-.2.4zm-43.67.04c5.32 5.27 4.21 13.33 3.43 20 .5-2.69.19-10.06-.2-6.89.1-3.76 1.29-7.75-2.57-11.3-.28-1.43-.37.46-.66-1.8zm41.63.12c.4.42-.71.21 0 0zm22.74 0 .06.1zm-34.17.23c.27.45-.44.4 0 0zm3.07.01c.55.7-.62.6 0 0zm15.5 0c1.33 1.61-2.03.16 0 0zm-.84.07c-.59 2.04 1.7 4.04-.02 4.14-2.21 5.96-1.26-3.18.02-4.14zm16.68.05.05.09zm-21.94.01c.04.87-1.22.18 0 0zm-24.81.2c-2.1 1.53 1.13.77 0 0zm46.98.14.06.09zm-32.94.03c1.62 3.39.32 5.49 0 0zm33.17.32.07.09zm-22.15.05c-1.02 1.65-.32 2 0 0zm-6.03.1c-.1 3.01-1.4 2.24 0 0zm-37.31.07c.76.35-.72.42 0 0zm48.49 0c.27.34-.45.23 0 0zm10.23.02v.58zm-35.2.1c.24.48-1.02.57 0 0zm-7.31.16c-.42.44.43.42 0 0zm2 .01-.08.11zm4.71.1c-.3 3.3-6.19 5.52-2.14 1.27.6-.57 1.26-1.24 2.14-1.27zm11.95.03c1.14.74-.35 1 0 0zm-4.08.05c.48.54-.43.6 0 0zm11.05.05c-.7.41.68.42 0 0zm-22.96.02c-1.03 2.59.78 1.85.05.26zm-18.57 0-.2.36zm-.7.05c.55.32-.29.25 0 0zm17.8.06c-2.19 1.4 1.4.83 0 0zm18.96.08c.44 1.45-.96.85 0 0zm29.82.09.08.1zm-7.42.01c.56.2-.7.07 0 0zm-29.36.15c.42.44-.55.3 0 0zm12.16.04c-.64.79 1.03.22 0 0zm-22.71.04.05.95zm-18.37.04c2.5 3.14.39 2.22 0 0zm49.16 0 .03.33zm-50.57.04c-1.51 2.08-3.74 2.87 0 0zm.54.02-.26.38zm66.81.01.07.1zm-18.67.04.03.28zm-32.5 0c.05.55.55-.01 0 0zm-15.94.07c-1.07 4.11-2.07 3.21 0 0zm.63.01c2.57 1.73-2.8 3.99 0 0zm17.5 0c-1.1.39.26.63 0 0zm13.4.03c.47 1.33-.18 3.15 0 0zm-18.38.01c-.42.24.15.49 0 0zm52.5.08c1.13.16-.24 1.45 0 0zm1.7.11.07.1zm-52.7.18c-1.15.3-.57 1.25 0 0zm39.5 0c-.65.87.73.76 0 0zm2.18.03c-.7 3.21.85 2.12 0 0zm-39.69.06c-.74.88-.28 1.36 0 0zm25.13.37c-.05.7-1.2.17 0 0zm-19.52.1c-1.02.94-.03.5 0 0zm17.27.02c.59 1.44-1.02.65 0 0zm28.53.28.08.12zm-9.97.06.04.27zm-24 .05c.57.75.13 2.09 0 0zm-20.4.05c-.25.47.45.38 0 0zm54.59.07c3.87 5.06 7.48 9.56 10.88 14.93-1.79 1.39 4.57 7.14.3 5.82-2.3 3.9-.88-6.83-2.67-3.9-1.36-3.62-2.59-3.3-.3.11 1.37.8.44 6.7 4.2 4.82 2.73 2.2 1.62 14.4-1.13 7.11-.14 2.87-1.14 4.34 1.5 2.93 1.14 5.81-4.88.51-4.8 6.51-.84 1.91 4.52-6.12 3.06-.6-1.9 2.64-7.21 4.41-8.44 4.39-2.3-1.8 5.35-.76 5.36-4.62 4-6.25 3.14-14.06-.1-20.42-2.43-4.33-2.77-7.68-6.16-11.03-2.2-1.67-3.34-5.59-1.7-6.05zm-26.39.05c.64.8.75-.02 0 0zm-2.97.05c.75 1.04-.36.95 0 0zm27.84.04c.46.28-.46.28 0 0zm-50.96.2.03.31zm-2.2.03c-.44.21.26.35 0 0zm1.97.07.02.27zm37.02.07c.39.3-.25.14 0 0zm1.65 0c.11 2.14-2.42 5.02 0 0zm-13.55.13.03.28zm-43.21.08c.45.11-.42.4 0 0zm52 .02c-1.88-.14-1.51.8 0 0zm-7.66.01c.48 1.23-1.54 4.82-.47.47-.68 2.9.9.18.47-.47zm-38.53.02c.3.6-.87.01 0 0zm-.86.06c1.4.3-.53 1.1 0 0zm-4.39 0c.4.43-.7.23 0 0zm2.62.14c4.03.98-4.36.1 0 0zm-1.33.04-.07.13zm13.99.09-.1.12zm20.66.01c.15.47-.43.24 0 0zm-2.12.08c.51.43.13 1.6 0 0zm-30.86.01c-.46.05.34.13 0 0zm11.24.03c-.65.18.38.43 0 0zm5.5.04-.48.52zm21 .06-.2.4zm29.9.03c.33 1.9 2.01 1.08 0 0zm-19.66.02c1.47 1.04-1.8.12 0 0zm18.62.11c-.46 1.45.73.85 0 0zm-33.67.05c.12.56-.42.29 0 0zm19.7.04.03.28zm-51 .2c1.42 1.8-1.03 2.42 0 0zm46.04.21c-.19 4.39-2.35 3.94 0 0zm-49.74.06c.52.75-.62.77 0 0zm56.83.03-.32.86zm-57.98.01-.07 1.04zm1.93.1c.59 3.18-.66 4.16 0 0zm43.55.07c.47.46-1.62.73 0 0zm-29.6.01c-.7.25.5.35 0 0zm50.6.06c7.34 7.6 15.33 16.88 14.2 28.19.49 5.3-9.07 15.47-8.8 5.42 2.79-6.37-5.12-10.83-4.2-18.13-.22-3.63-4.4-5.47-.88-9.03.26-2.18-1.65-4.29-.32-6.45zm-23.1.12.01.43zm-7.21.02c1.44 1.86-.78 3.93 0 0zm-33.83.02c.9 1.6-.98 1.51 0 0zm56.77.1c-.45.22.26.35 0 0zm-55.17.02c.85 1.63-.79 1.77 0 0zm.98.02.1.43zm-1.97.15c.4.62-.32.5 0 0zm3.04.03v.5zm61.8.01.18.21zm-54.39.07c-1.03.61-1.37 2.34 0 0zm26.57.1.03.27zm10.82.1.03.2zm-16.38.09c.41.54-.26.6 0 0zm-33.51 0c.96 1.36-.38 1.19 0 0zm2.22.21c.81 2-.23 3.63 0 0zm-.25.12v.5zm2 .01c.5.44-.5.68 0 0zm67.75 0c-2.26.93 1.18.68 0 0zm-72.57.02-.12.38zm.1.03v.05zm40.45 0c.61 3.47-2.97 5.12-.4.79zm-5.9.1c.7.97-.99.35 0 0zm38.07.23c.22.78 1.16.98 0 0zm-56.84.07v.43zm20.94.02c.26.46-.44.4 0 0zm-37.48.08.04.21zm16.1.08c-.36.41.54.39 0 0zm53.46.08.15.19zm-68.26.03.02.29zm15.18.02.02.32zm1.54.06c-.46.25.27.33 0 0zm-11.33.04c.56 2.38-.55 2.14 0 0zm28.55.08c.5.89-.34.83 0 0zm-29.52.02c.7.93-.5 2.26 0 0zm66.51.02c-.43.5.42.78 0 0zm-71.78.02c.4 3.33-.19 12.29-.2 3.84-.07-1.28-.23-2.6.2-3.84zm72.8.05c-.44.4.27.45 0 0zm-3.42 0 .12.17zm-66.64.06c.96 3-.8 2.62 0 0zm13.37.08c-.3.63.6.38 0 0zm-14.93.04c.49.63-.7.67 0 0zm68.45.18.1.11zm-15.15.04.03.28zm-50.79.01.13 1.44zm12.29.06c-.1.63.62.35 0 0zm21.3 0c.6.55-.76 1.22 0 0zm36.74.08c.84 2.2 1.74.32 0 0zm-34.24.04c-.26.48.44.38 0 0zm33.43.01c0 .21 1.75 2.67 0 0zm-1.3 0c-.15.65.47.36 0 0zm-68.88.04c.29.7-.2 2.12 0 0zm55.53.06c-.46.25.27.32 0 0zm-2.86.02c.2.37-.49.13 0 0zm-53.41.02c.29 1.12-.82 1.53 0 0zm67.68.02.47.52zm-58.16.17c-1.13 1.36.4.1 0 0zm59.29.18c.85-.15-.2.53 0 0zm-54.86.07c-.13 1.56.4.4 0 0zm-.39.2c-.54.34.73.3 0 0zm-11.65.01v.05zm66.33.02.15.18zm-35.49 0c.32.67-.45 1.51 0 0zm-33.9.03c.65.7-.63 1.63 0 0zm52.19 0c-.48.25.12.64 0 0zm-16.14.02c.47.46-.42.27 0 0zm-33.78.1c.47 2.16-.38.96 0 0zm12.2.07c-.3 1.34.4.36 0 0zm16.4.03c.72 1.23-1 2.32 0 0zm-26.9 0c.67 2.67-.38 1.82 0 0zm47.37.02c.53.25-.47.73 0 0zm-31.33.22c4.05 5.26 1.98 13.54 6.83 17.7 2.21 1.73-.92.64-.12 3.77-2.57-5.17-2.96-10.68-4.7-16.62-.98-1.42-2.5-2.95-2.01-4.85zm31.9 0 .03.28zm.24 0 .02.28zm-16.05.05-.2 1.06zm-33.17.04-.11.3zm29.32.03c.4 1.93-.51 1.46 0 0zm39.96 0c-.43.21.14.5 0 0zm-19.33.1c.03 1.46.37 1.07 0 0zm20.3.02c.64 2.34 2.63 2.18 0 0zm-74.08.02v.03zm6.1.07c.27 2.55-.46 4.54 0 0zm49.29.04.02.32zm-2.33 0 .03.28zm2.54.02c-.46 1.29.82 1.49 0 0zm18.58.1.73.7zm-3.04.07.19.19zm-69.95.29c.34 2.55-.39 4.98-.33 1.05zm15.19.04v.43zm55.11.03.11.12zm-67.11.02.22.3zm50.32.05c-.58.3.58.3 0 0zm-50.72.07-.38.17zm-2.27.04.03.16zm16.75.02c.84 1.38-2.46 1.34 0 0zm-5.54.03.27.25zm43.83.02c.5 2.41 1.03.01 0 0zm15.88.02c.79.63-.47 1.21 0 0zm-71.03.04c-.44 3.04 4.74-1.94 1.63 1.87-.06-1.9-2.66 4.3-1.5 1.89 1.37-3.5.94.18 1.46-.35.67-4.77 2.28 6.02-.5 1.07-2.85 4.24-.56-3.36-1.09-4.48zm70.25.07.18.2zm-39.25.06c1.1.99.02 2.55 0 0zm7.29.06.03.29zm-4.98.2c.5.42-.5.42 0 0zm7.06 0c.26.35-.44.21 0 0zm33.25 0c.33.12-.28.35 0 0zm-3.07.01.25.3zm-18.8.08c-.7.78.87.48 0 0zm-9.27.02c.42.65-.57.86 0 0zm11.48.02c-.15.63.47.36 0 0zm19.78.06-.07.08zm-58.37.08c.58.06-.25.39 0 0zm-12.32 0c.47 2.64-1.1 2.35 0 0zm55.7.1c1.84 1.98-.87 2.44 0 0zm-6.74.21c-.5.42.5.43 0 0zm4.4.02c-.4 2.14.76 1.54 0 0zm-54.12 0c.27 1.07-.78.48 0 0zm14.64.08c1.16 2.9-5.43 2.79 0 0zm54.18 0c.61.04.62 1.44 0 0zm-33.02.04c.41.7-.5 1.12 0 0zm26.34.07v1.15zm-30.48 0c.5.71-.11 1.12 0 0zm-19.54.07c1.57 1.49-1.5 2.2 0 0zm-16.66.02v.25zm76.61.02c.07.52 1.29.69 0 0zm-1.23.15c-.46.23.27.34 0 0zm-72.93 0c-.7.5.43.42 0 0zm35.12.23c.26.35-.45.22 0 0zm5.2.04c-1.04 2.16.42-.56 0 0zm15.3 0 .02.28zm18.56.04c-.26.35.44.22 0 0zm-19.1.02c-.36 1.14 2.03 1.42 0 0zm16.5.03.1.1zm-68.42.03.03.28zm-3.11.01v.43zm15.65.18c-.46.28.46.29 0 0zm14.15.04.04.28zm-12.36.02c1.74.25 5.55 5.45 1.01 4.98-.27-2.76-5.6-2.09-1-4.98zm34.46 0 .06.14zm20.68.06c.4.26-.27.6 0 0zm-.71.03c.73.88 1.25 1.5 0 0zm-67.22.11c.41 1.88-.13 1.72 0 0zm52.79 0c.6.4-.3.68 0 0zm-24.46.02.03.28zm3.44 0c1.53.15-.86 1.81 0 0zm-32.1.07c.03.45-.24.84 0 0zm32.14.12c-.26.35.45.22 0 0zm18.42.12.35.3zm-56.64.12c.47.28-.46.28 0 0zm5.53 0c.5.42-.5.42 0 0zm54.58 0c.95.93-.54.54 0 0zm-46.6 0c1.09 2.68-1.68.33 0 0zm30.4.03c.63.48-.36.81 0 0zm-25.26.12c-.41.24.4.24 0 0zm42 .02c.58 3.33 2.41-.24 2.87 3.2 2.57 2.83 1.18 7.64-2.16 3.48-1.97 1.8.82-4.22-1.45-1.54-3.12-.01 2.89-2.04.31-4.39zm-57.62.06v.16zm36.26 0c.46.77-.39 1.03 0 0zm-34.46 0c.5.48-.66.39 0 0zm52.29.07c-.26.64.63.57 0 0zm-22.03.07c.63.38-.32.68 0 0zm16.85.02c-.65.14.3.46 0 0zm22.52.07.83 1.12zm-28.39 0c.69 2.53-.14 2.2 0 0zm10.85 0c-.42.22.14.5 0 0zm.73 0 .14.32zm-51.65.03c.79 1.76-.56 3.7 0 0zm7.04.1c-.13.4.75.33 0 0zm65.13 0c1 .85.5.37 0 0zm-.92.06c-.69.36.56.42 0 0zm-23.6.05c-.74.7.89.27 0 0zm-37.98 0-.1.62zm41.59.15c-1.03.84 1.06.24 0 0zm-38.09.09c-.51.72.53.69 0 0zm33.16 0c-.5.63.58.34 0 0zm26.09.1c-1.5-.24-1.12 3.94 0 0zm-77.67.01c.37.33-.37.39 0 0zm2.33.18c.2.68-.44.1 0 0zm38.56.01c.46.28-.46.29 0 0zm-6.44.03.19.26zm22.44.09c-.3.38.6.06 0 0zm-36.71 0c-.47 1.32 1.94 1.1 0 0zm-4.86.07c2.35 2.32-.35 2.03 0 0zm61.22 0-.33.48zm-42.7.05c.45.28-.47.28 0 0zm-30.45.1c-.77.53.55.44 0 0zm12.2.13c-.56.96.91.9 0 0zm43.3 0c.6 1.27-1.56 1.46 0 0zm-54.55 0c2.11 1.1-.79.34 0 0zm38.87.02c.24.92-.58.9 0 0zm-6.04.01c.65.36-.45.8 0 0zm.85 0c-.05.51-.65.2 0 0zm39.26.14c.66.6-.27.33 0 0zm-25.85.03c-.45.13.53.11 0 0zm-51.35.04c.46.28-.46.28 0 0zm1.85.05c.43.9-.57 1.56 0 0zm1.24.08c-.76.12.31.58 0 0zm-.56.08.29.64zm75.9.02c.06.86.63.25 0 0zm-37.9 0c.27.56-.4.57 0 0zm-38.28.11.06.3zm55.15 0c.26.36-.44.22 0 0zm-39.01.05.02.28zm34.3.03-.2.19zm-51.71.08c-.47.55.64.61 0 0zm-1.03.08c.55.4-.92.36 0 0zm34.05 0c.26.35-.45.22 0 0zm-31.95.01.05.43zm57.38.03.04.28zm-38.98.03c-1.28.67.34.86 0 0zm19.89.17c.46.28-.46.28 0 0zm-36.47.02c.73.25-.5.52 0 0zm10.06 0c.88.51-.48.5 0 0zm49.8.08c2.57 1.12.66 1.62 0 0zm-44.2.1c-.97 1.59.88.37 0 0zm15.09.15c.44.37-.26.47 0 0zm5.6 0c.52.95-.5 1.04 0 0zm2.81 0c.47 1.83-.21 3.83 0 0zm-37.58 0c.26 1.13-2.08.24 0 0zm-2.64.05-.2.06zm-1.03.04.18.06zm53.1.06c-1.2 2.02 1.69.84 0 0zm8.24.01c3.65 2.48-1.98-.85 0 0zm-1.75.02c.14.67 1.65-.35 0 0zm-57.33.12c1.29.36-.96 1.43 0 0zm-2.27.03c6.64.73-7.6.75 0 0zm77.37.14c.14 1.01 1.86 2.46 0 0zm-18.76.04.03.27zm-41.17 0 .03.27zm-1.53.37c.83 2.6-1.8.52 0 0zm40.6.22c-.45.22.25.35 0 0zm7.18.07.13.24zm-8.05.01c.8.1-.3 1.55 0 0zm-22.68.03c.48.47-.41.28 0 0zm.77.19c.58.1-.22.44 0 0zm-31.62.12c.75 1.18-.9 1.94 0 0zm74.8.05c-.43.39.26.45 0 0zm-76.68.09c1.1 2.1-.96 1.97 0 0zm-1.82.01c.56.84-.32 2.12 0 0zm56.94.08c.72 1.2-.42.8 0 0zm-54.2.12c.47.82-1.15.62 0 0zm32.79.04c.44.25-.5.5 0 0zm-34.28.1c.82.43-.94.3 0 0zm37.75.09c.37.57-.83.83 0 0zm21.08.04c-.65 2.1.97 1.03 0 0zm-15.61.05c.84 1.51-1.67-.26 0 0zm-10.95.07c.48.94-.36.7 0 0zm9.71.2c.32.66-.59 1.27 0 0zm34.38 0 .24.42zm-41.99.28.03.32zm29.1.06c.67.37-.2 1.4 0 0zm-62.4.05-.11.3zm39.77.28c1.97 4.06-1.56 5.51 0 0zm-38.45.18c.59.08-.25.35 0 0zm55.16.06v.5zm3.18.05c-1.7 1.1 1.04 1 0 0zm-3.76.05c1.12 1.07-.25.7 0 0zm4.22.18c-.3 1.22 1.1.93 0 0zm-60.44.09c.57.41-.69.35 0 0zm3.07.02c.33 2.1.4 7.96-.2 2.62.08-.85-.32-1.84.2-2.62zm59.2.1.34.32zm-25.6.04c.43.5-.56.25 0 0zm23.9.11c.59.09-.3.38 0 0zm-19.73.08c1.85 2.34-2.46 6.02.2 2.54l-.1-1.45zm-42.51.04.03.28zm60.08.02c2.81 4.66-2.2 4.38 0 0zm-37.23 0c.27.92-.27 1 0 0zm12.75.06c.46.28-.47.28 0 0zm18.73 0c1.82.08-.46.54 0 0zm-52.22.02-.19.34zm77.25.06c-.87.04.39.37 0 0zm-36.54.09.03.32zm-4.4.06c.46.28-.46.28 0 0zm-38.13.06c.55.77-.7 2.14 0 0zm79.1.08c-.01 1.25 0 .22 0 0zm-56.75.1c-1.45 3.4-5.32 3.96-.45.52l.24-.28zm-18.62 0v.21zm-2.21.03-.18.15zm45.92.07c.47 3.2.79 8.2.21 2.25q-.09-1.12-.21-2.25zm5.55.13c.44 2.14.39 4.73 0 0zm6.87 0c-1.02 1.12.66 1.15 0 0zm-24.27.03.2.66zm44.41.1c-.53.1.53.09 0 0zm-15.93.02c1.14 1.05-.55.49 0 0zm-8.47.1c1.2.1.15.47 0 0zm-.33.1c3.18.99-.5 1.47 0 0zm25.3 0c-.22.44.59.1 0 0zm-41.93.51c.38.36-.38.36 0 0zm-37.9.06c.56 2.5-.92 2.25 0 0zm21.82.04-.09.3zm40.5.09c.47.28-.46.28 0 0zm-26.64.04c.6.08-.3.37 0 0zm-14.34.2c.28.32-.47.24 0 0zm-22.06.11c.74.97-.45.52 0 0zm38.28.05.02.33zm-38.4.38.1.22zm60.22.04c-.4.33.95.43 0 0zm-60.47.23c.58.48-.47.28 0 0zm19.21.05c.1 1.29-2.86.04 0 0zm-2.64.2c5.63.1 2.73 5.11 0 0zm43.12.14c.69.28-.3.48 0 0zm-55.71.01v.02zm-3.92.02c.07 1.04-.4.44 0 0zm3.91.12c.84-.32-.2.62 0 0zm-3.62.2c3.03 1.7-.63 11.49.45 3.56.05-1.18.42-2.55-.45-3.57zm3.73.23c.59.09-.31.38 0 0zm56.08.1c.67.2-.36.85 0 0zm-39.9.16c.25.59-.7.07 0 0zm12.35 0-.12 1.43zm4.86.06c.06 3-1.47.94 0 0zm-33.1 0c1.62 3.19-1.4.23 0 0zm77.42.26c-.25 1.04.54.75 0 0zm-81.41 0c.62 3.9-1.95.99-.12.13zm60.44.09c.44.2-.26.34 0 0zm-41.26 0-1.09.44zm-2.17.05c-.08.46.7-.1 0 0zm4.1.06c.27.34-.45.23 0 0zm45.25 0c-.93 1.9-.56 7.57-5.61 5.07 4.8 1.18-1-1.62-.12-.7a6.3 6.3 0 0 0 5.73-4.37zm-22.69.12c.44.38-.26.47 0 0zm-23.6.1c4.1.35.74 1.64-.63.68zm59.13.3c-.14 1.45.47.62 0 0zm-25.42.1c.5 1.9.43 2.13 0 0zm-30.4.2c1.16.81-.71 1.15 0 0zm58.23 0c-.51.7.62.94 0 0zm-64.7.08c2.39.18.51 1.54 0 0zm6.66.27c-.45.24.28.33 0 0zm-4.27.25c1.26 1.1-4.53 1.53 0 0zm60.32.12c-.66.62.74 1.36 0 0zm-57.17.1c1.88.39-1.77.32 0 0zm-21.67.1c-.32 2.29.47 2.88 0 0zm24.58.02c-.61.24 1.17.22 0 0zm-1.62.14c.73.25-.5.51 0 0zm42.3 0c.74.06-.7.42 0 0zm-40.78.08c.12 1.92.7.2 0 0zm-.92.01c1.55 1.4-.8 1.27 0 0zm-24.25 0c.87 4.37-1.7 4.42 0 0zm81.7.15c-.39 1.33 1.01 2.57 0 0zm-82.56.05.04.64zm37.34.15c.46.29-.46.28 0 0zm22.76.2.19.42zm7.27.08.04.28zm-28.74.07c.46.29-.46.29 0 0zm24.47 0c.45.39-.63.18 0 0zm-8.04.2c.53 4.26.1 3.83 0 0zm-33.17 0c-1.03 2.7-6.55.2-.89.54zm58.97.04c-1 .19.11.82 0 0zm-58.24 0c-.11.77-.64.25 0 0zm2.83.23c.55.06-.25.52 0 0zm41.27.01c.8 1.02-1.05 1 0 0zm-39.23.28c.8.03.35.83 0 0zm54.13.16c-1.06.02.58.38 0 0zm1.14.14c-2.07.17 1.43 1.55 0 0zm-16.7.17c.37.38-.86.05 0 0zm15.56.06c-2.87.66.77 2.64 0 0zm-54.48.02c1.14 2.88-.83.72 0 0zm37.47.01c-1.15.12-.67.6 0 0zm-39.45.24c.61.07-.3.4 0 0zm-2.16.2c.26.35-.45.21 0 0zm38.43.04c1.14-.29.12.9 0 0zm5.17.2c-.17 3.35-5.04 1.57-.5.86zm-43.16.01c.64.13-.22.65 0 0zm37.5.1c.99 1.53-.57 2.28 0 0zm22.09.04c-.37 2.4.48 2.02 0 0zm-14.56.21c1.16 2.56-.11 1.26 0 0zm-29.07.22c.46.38-.63.17 0 0zm25.22.08c-1.48.1.21.4 0 0zm-26.75.19c.6.06-.3.4 0 0zm24.32.29c2.41.17-.93.98 0 0zm18.9.14c-.5.42.5.42 0 0zm-13 .1v.5zm-.35.17c.35.98-.8.94 0 0zm-.7 0c-1.5 3.14 2.95.43-.95 3.17-1.8-.54-1.59-1.39-2.96-2.22 1.53.54 2.86.27 3.92-.95zm-39.75.08c1.32 1.88.88 3.92 0 0zm-.72.08c1.46 2.4-.77 1.5 0 0zm10.86.2.07.82zm31.89.04c2.45 2.15 1.29 2.63 0 0zm-.37.17c.08.95-.94 1.06 0 0zm-6.56.27c.46.13.09 1.2 0 0zm-44.14.19-.22.8zm3.34.23-.2.19zm-1.42.12c.7 1.55-1.24.72 0 0zm47.55.25c-1.06-.02.2 1.09 0 0zm-2.3.03c-.51.34.61.47 0 0zm-44.1 0c1.41 0-1 .53 0 0zm5.32.05.03.32zm-8.7.46-.09.34zm45.2.08c1.18-.05-.17 1.35 0 0zm7.94.04.12.24zM90 201.9c.49.83-.8.7 0 0zm-6.8.07c.43 2.45-1.55-.2 0 0zm-.65.23c.23.44-.58.1 0 0zm-1.42 0v.14zm2.83.12c.25.34-.45.21 0 0zm45.05.1c-.76-.07.15.43 0 0zm.39.01c-1.48.05.29.41 0 0zm2.68.02c1.91.19-.81 1.68 0 0zm-50.3.02c1.11.77-1.24.81 0 0zm2.63.06c.24 2.03-2.54.35 0 0zm45.54.3c-1.24 1.32-2.8-.3 0 0zm-46.76 0c-.37 2.33-3.38 1.62-.75.13zm-2.19.05c-1.18 2.51 2.3 4.78-1.5 3.97 1.07 2.36 1.32.02 3.1 1.76-1.96-.58 1.3 6.98-1.41 2.03-1.51-2.07-4.23-2.18-3.28-.38-3.14 3.5 2.1-1.96 2.2.16 2.08 2.05-.85 10.93-3.98 8.58-1.6 2.26-4.62.96-4.23 2.56-3.66-4.46 3.68-1.9 4.33-5.5-.15-2.43-1.11 1.6-3.88 2.07-2.07.2-7.68 3.66-5.14-1.41-1.81 2.37-8.56 4.69-2.91 1.02 2.5-1.92 9.97-2.88 9.92-3.54-1.46 2.85-9.67 3.06-3.1 2.75 5.05-2.57 6.95-9.4 9.88-14.07zm8 .38c.65 4.42.22-1.62.7 3.19 1.1 2.27 2.73 6.36-.39 2.42-.81-1.78-.1-3.75-.31-5.61zm12.6.12.19.43zm27.96.34c1.88 2.77-1.02.8 0 0zm-2.44.04c-.15 3.02 6.69 2.26 6.23 5.6 1.48 3.64-4.24-4.72-1.06.63 4.17 5.47-7.73-5.52-1.31-.19 1.11 2.28-5.75-8.88-3.25-2.14-1.27 3.68-.61 5.76 1.83 3 1.58-.08 4.28 3.85 3.09 4.96-2.53-1.7 1.27 2.07.43 2.34.45 3.17-.5 1.69-.56 4.27-2.26-1.09-1.9 1.49-3.13-1.98.75 1.62-.74 7.07-2.6 3.1 1.75-.62-.64-1.58-1.3 1.84-.7-4.57 4.93-1.87 2.9-3.32-1.17-1.03 2.03-6.27-.58-1.57-1.1 2.35-1.66-1.97-1.8 2.01-4.25 1.81 2.22-6.86-1.56-1.96-2.28 1.11-1.47.55-3.35.39 4-2.45 4.02-1.67 5.5-6.6 2.08-.15-1.96 6.44.72 1.57 2.76-3.53-.23-2.83-2.35-.34-4.8 3.54-12.13 2.2-18 2.4-4.07-.22-9.55-.69-11.55 3.1 1.95-6.19 11.28-4.7 16.6-4.04 5.25.04 13.45 1.27 14.57-5.76.83-2.32 1.2-4.9.53-7.3zm-43.48.01c-.49 1.35-.85.24 0 0zm62.35.1c.45.45-.34.84 0 0zm-13.81.44c.33 2.79-3.37 1.76 0 0zm-51.85.02c-.21.45.65.2 0 0zm2.5.1c.68.17-.2.6 0 0zm-1.34.22c2.22.62.7 1.4.89.6-.33-.09-.78-.23-.9-.6zm-.34.07c.6.44-.31.23 0 0zm-.64.66.1.23zm49.07.01.12.09zm-48.12.06c.63.32-.3.28 0 0zm-1.17.17c.02.68.6.3 0 0zm3.77 0c1.25.28-.9.49 0 0zm46.26.01c.17.23-.34-.01 0 0zm1.68.12c.26.71-.42.51 0 0zm-1.9.01.8.53zm-41.68.06c.46.29-.46.29 0 0zm-6.7.1.06.11zm7.76.06c-.68 1.44 1.16 1.65 0 0zm-9.41 0c-.45.13.53.11 0 0zm2.96.1c1.14 1.22-1.67.15 0 0zm45.67.06.6.48zm5.02.08c.74.4-.38.53 0 0zm-53.67.01c-2.67.3 1.35.81 0 0zm1.9.18c2.1 1.17-.05.75 0 0zm50.28.13c1.2 1.05-1.62.21 0 0zm-43.2 0c-.7 1.6.84.72 0 0zm39.91.28c-.36.5.74.19 0 0zm-42.59.1c.48 1.4-.89 1.51 0 0zm44.06.2c-.26.8 1.88.2 0 0zm-49.85.01c1.15-.37 1.36.73 0 0zm47.58 0c.73.36-.3 1.26 0 0zm3.45.14c-1.42.42.07.44 0 0zm-2.59.1c.26.6.79.16 0 0zm-50.1.1c-.63.17.45.38 0 0zm3.33 0c2.38.74 2.13 4.36 0 0zm51.04.04.03.28zm-2.7.02c-.07.46.71-.1 0 0zm-49.75.07.2.08zm47.7.06.16.31zm1.6.22c-.08.46.7-.1 0 0zm-44.47.19c1.4 3.59-.35 5.52.02.78zm-6.16 0c.03.75 3 3.75 0 0zm52.65.04c0 .65.85-.04 0 0zm-3.87 0c2.07 1.4.6 2.74-.46 1.35l.32-.68zm-49.8.06c-.43.48.8.04 0 0zm52.29.12c.03.56.85.3 0 0zm-47.86.6c1.69 1.57-2.12.23 0 0zm5.1.02.11.3zm-7 .05c.09.87.9.82 0 0zm50.02.03c-.38.39 1.02.14 0 0zm-42.47.12.15.55zm52.73.98c-.15.52.66.22 0 0zm-53.31.3.18.5zm52.2.12c-.44.21.27.35 0 0zm-63.17.23c-1.51.07.33.8 0 0zm7.4.06.1.68zm56.75.18.17.29zm-61.75.04c-3.77 3.57 1.25.78-.6 5.82.54-2.52 3.2-4.58.29-3.89-.57-.75.38-1.41.31-1.93zm-1.69 0c-.72 1.1.47.3 0 0zm5.45.15c.58 1.04-1.3.11 0 0zm48.72.08c.6.08-.31.37 0 0zm2.18.31c1.47 2.26-.35.71 0 0zm6.05.15c.6.09-.3.38 0 0zm-57.18.08c.72.87-.72 1.5 0 0zm-6.7.22c-1.18.97.26 1.04 0 0zm63.54.06-.3.28zm-11.07.08c-1.04 0-.37.7 0 0zm1 .1c-1.94 2.1-10.23 10.88-4.66 4.81 1.54-1.62 3.02-3.3 4.67-4.8zm.95.07c.21 3.43 1.79 1.44 0 0zm8.58.17c.26.35-.44.22 0 0zm-54.41.04c.5.7-.22 1.39 0 0zm-8.55.02c-.72.28-1.18 1.87 0 0zm53.9.3c-2.04 2.25-.84 5.8-.1.89.96 2.3.22 3.98.8.36l-.2-.78zm-53.4.13.1.42zm49.53.19-.34.31zm-50.14 0c-2.02 1.86.33 1.84 0 0zm55.51.08c-.48.7.56.44 0 0zm.4 0c-.24.5.6.7 0 0zm-55.96.2-.2.3zm58.8.03c.84.51.13 1.84 0 0zm-58.26.19c-.19.55.6.27 0 0zm54.84 0 .11.3zm-1.87.04.04.25zm-55 .03c-.43.5-.24.29 0 0zm57.44.28c-.45.21.26.35 0 0zm-57.37.03-.3.2zm8.12.12.03.28zm-8.12 0c-.91 1.25-1.77.9 0 0zm52.52.17c-.6.43.22.57 0 0zm-52.99.04-.1.1zm2.79.1c-.84.04-.13.61 0 0zm55.55.04.04.28zm-3.53.08c-.94.5-1.29 3-.33.95zm-54.3.1c-1.04-.07.47.55 0 0zm61.05.05c.3.91-.46.67 0 0zm-57.9.03c-1.1 1.32.41 2.94 0 0zm48.42.01-.34.32zm-52.98 0-.43.47zm58.22 0c-.26.35.45.22 0 0zm-54.16.28-.15.28zm49.06.23c-.77.27-.1.68 0 0zm-51.9.12c-.47.6.31 1.5 0 0zm51.01.07c-.77 1.74-.6.72 0 0zm-49.48.39c.03.44-1.3.64 0 0zm-5.75.21c-1.15.11.13.46 0 0zm-4.13 0c-.55.86.68.49 0 0zm60.2.11c-1.2 1.43.4 0 0 0zm1.38.15-.15.27zm5.34 0c1.2 2.56-.22 1.36 0 0zm-1.1.05c-.43.94.64.86 0 0zm-.72.11c-.92 1.73.7.93 0 0zm-54.26.15c-.9.98 1.3.53 0 0zm-5.05.07c-.2.46.63.2 0 0zm61.65 0c.94-.64.05.96 0 0zm-28.75.1c-.46.28.47.28 0 0zm23 0c-.76.57.62.33 0 0zm-19.55 0 .08.14zm23.38.1.03.32zm-5.7.02c-.53.4.37.84 0 0zm4.29.1c-1.1 1.38.08 2.52 0 0zm-49.14.06-.15.8zm30.88.06c-.73.11 1.06.5 0 0zm24.77.04-.01.1zm-37.81.04c-.46.04.33.12 0 0zm29.61.04c-.34-.1.37 1.17 0 0zm-51.33.04.03.28zm-5.83.02c-1.54.6-.25.6 0 0zm60.63.1c-.55.44.47.59 0 0zm-67.09.03c-.45.4.88.5 0 0zm7.36.09c-.8.44 1.66.63 0 0zm-8.3.02c.1.64-.85-.18 0 0zm67.57.12c-2.16 1.23.16 1.57 0 0zm-11.46.06c.35.13-.46.04 0 0zm-6.94 0c-.82.06.67.12 0 0zm6.49.01c.39 1.02-2.8-.11 0 0zm7.81 0c-.96 1.66-.08 2.1 0 0zm-61.73.02-.14.29zm51.6.01c3.2.16-3.33.29 0 0zm-41.31 0c-.93-.03.23 1.01 0 0zm27.17.07-.06.05zm23.17 0c-.46 1.13.29 0 0 0zm-48.33.12c-.83.77.4.62 0 0zm19.91.03c-.3.39.6.08 0 0zm34.1.03c-.03 2.26.58.6 0 0zm-3.9.03c-.42.22.15.48 0 0zm.18.21c-.49.3.17.6 0 0zm-53.98.04c-.13.4.76.34 0 0zm50.84.24c-1.43.6.03 1.13 0 0zm-61.36.07-.51.3zm9.14.06c.37.82.72.16 0 0zm55.04.1c-.44.22.26.35 0 0zm-61.72.03c-1.08 4.1-6.33 2.56 0 0zm-3.13.03-.6.31zm9.7.08c.16 1.02.92 1.25 0 0zm-1.68.02c-.4.13 1.4 1.91 0 0zm58.59.2c-.56.93.6.68 0 0zm1.36.03c-1.4 1.35.53.96 0 0zm-7.53.12c-.54.62.85.97 0 0zm-58.91.15-.36.31zm63.22.2-.38.34zm-52.66.02c.77.34-.4 1.63 0 0zm49.94.12c.06.42-.85.4 0 0zm-6.39.14c2.25 2.34 4.7.64 1.18 3.16-2.17-4.42-1.04 1.14-4.64 3.1.9-2.2 2.31-4.18 3.46-6.26zm-48.47.03c1.73.62-6.02 4.03 0 0zm53.4.08c-.43.22.14.5 0 0zm8.2.23c-1.5-.02-1.93 1.88 0 0zm-60.9.1v.64zm53.06.28-.05.04zm-59 .01c.22.35-.64.05 0 0zm5.02 0c-.99.2 1.2.13 0 0zm54.1.22v.03zm-60.01 0-.78.44zm63.46.13c.7.27-.42.42 0 0zm-30.88 0c1.07.96-.05 2.78 0 0zm28.46.28c-.24 2.34.9 1.05 0 0zm2.31 0c.99-.06-.33.7 0 0zm-32.06.02c2.1 1.1-.63.42 0 0zm27.66.07c3.72 2.7-2.22 2.01-.43.57-1.15-.6 1.28-.25.43-.57zm7.86.01-.42.47zm-2.31.22c-.78.51.8.57 0 0zm3.29.27c2.77 1.68-.15 3.29-.3 1.1-1.84 3.61-1.23-1.15.3-1.1zm-35.95.1.3.2zm22.72.08c1.06 1.02-.89.11 0 0zm.16.02c2.32 1.67-.62 3.25 0 0zm3.8.13c.05.54.55-.02 0 0zm-.73.12c.87 1.23-1.28 1.5 0 0zm-48.5.13c-.59.92-.59-.16 0 0zm57.64.04c-.75.58 2.02-.14 0 0zm-14.14.17-.64 1zm5.77.22c3.55 3.41-1.77 1.28 0 0zm8.21.03c-1.88 2.32.68.25 0 0zm-9.63.02c.05.9-1.06.16 0 0zm-52.96.3c.26.34-.45.2 0 0zm48.98.46c.28.32-.46.25 0 0zm9.88.04c.6.08-.3.37 0 0zm4.54.21c.34 2.97-1.55 4.16 0 0zm-10.03.22c-.08 3-3.5 3.94 0 0zm5.02.06c.79.39-.83.33 0 0zm-7.6.07c.5.15-.64.09 0 0zm7.5.34c-.35 2.58-1.52 1.69 0 0zm3.73.46c.44.4-.26.47 0 0zm-4.24.03-.29.49zm-10.27.1-.3.61zm9.31.51c1.22 2.12-1.14 3.06 0 0zm5.35.37c1.02 2.1-.36.89 0 0z" style="display:inline;fill:#000;stroke:#684e15;stroke-width:.247;stroke-dasharray:none;stroke-opacity:1"/></svg>