<svg xmlns="http://www.w3.org/2000/svg" xml:space="preserve" width="481.39" height="703.56" viewBox="0 0 127.37 186.15"><path d="M21.6 79.36c1.17 1.98 4.88 3.2 3.23 5.94-2.29-4.63-.48 1.62-3.02 1.66-1.03-1.71-3.96-1.1-4.3-3.72-2.04 6.43-4.68-7.55-5.44.28.05 3.94 1.23-2.31.94 1.75.5 1.83.38 6.63-1.71 2.71 0 4.99 3.69 9.35 3.09 14.52.49.56.7-8.34 1.73-3.16.08 2.49 1.6 10.31 1.87 3.82 1.34-7 1.87 4.4 1.24 6.98-.37 2.41-.48 9.97 1.4 8.4.86-5.35-1.03-10.71-.2-16.06 1.1 5.98 5.4 12.73 1.28 18.37-1.64 6.32 4.6 10.67 5.8 16.3 1.2 10.07 2.78 20.08 4 30.14 2.4 2.86-1.44 3.76-3.64 3.83.11 2.1-2.03 6.13 2.42 5.93 3.59-.31 9.81 1.02 11.86-1.17-.92-2.06-3.64-5.75.9-5.5 5.1.05 3.55-5.34 5.76-7.54-.1 2.72 1.63 5.04 2.13.97 0-2.96 1.92-4.77 3.2-1.18 1.18 3.17-.72 5.4-.08 7.57-.64 1 4.34 1.03 2.7 4.08-2.96 5.13-8.25-1.5-12.21 1.8 2.63-.57 8.8 1.31 12.3-.28 1.62-1.65-2.11-10.42 2.07-6.51-.37-4.37 3.88-3.33 4.2.1 1.92-1.54 3.84 4.77 3.96-.45 3.43-1.1 4.43 8.89-.7 8.49-3.8 1.84-3.93 9.29 1.64 6.98 4.83.83 13.66 1.6 13.27-5.56-.93-1.01-1.32-4.22.08-2.07-.04-2.37-1.73-9.38 2.16-4.93.32-3.9 3.03-4.21 4.78-.72 1.98 3.46 5.17 4.58 6.85 1.01 4.02 3.49 8.65 5.3 13.99 4.74 3.17-.9 3.16-2.04.03-3.54-4.47-3.28-4.67-9.63-6.2-14.58-2.02-2.9.86-3.86 1.71-5.61-3.11-4.44.07-12.66 4.17-9.34.04-5.83-9.89-9.79-6.51-15.68.26-3.82-4.42-7.84-4.44-12.46-2.4-3.83-3.72-8.19-5.68-11.94-1.39-3.3-5.65-5.66-8.46-7.35 2.13 4.72 8.7 6.02 9.62 11.8 1.13 3.83 4.75 7.26 3.61 10.54 1.8 1.98 6.76 8.67 2.78 8.51.64 3.18 2.95 7.12 4.95 10.16 2.87 3.61-4.6-2.42-.62 1.54 3.84 1.88 5.26 5.92.22 2.75-2.49-1.98-1.88-2.3-.96.6-1.9 3.56 2.24 8.3-.91 11.68-3.4-1.72 1.35 5.87.89 8.6.5 3.73 2.33 7.36 4.33 10.23-1.25-.31-5.04-4.48-2.4-1.33-4.38-4.77-7.15-11.6-8.56-17.6-.62-3.45-4.17-9.06-1.27-11.42 1.55 1.63 2.4 7.51 3.49 6.87-1.9-4.75-3.99-9.39-3.04-14.59-.18-2.3-.5-7.93.18-8.15 1.08 4.7 1.12 8.61 2.36 13.16.42 2.64-.66 4.98 1.8 5.73-.6-1.48-2.16-4.8.98-3.11-1.22-1.98-5.84-10.92-1.59-5.59 2.95 3.23-2.22-3.94-1.91-5.72-1.07-5.74-.7-11.9-3.97-17.03-1.94-4.04-3-9.16-7.16-11.53-4.93-1.57 5.32 3.88-.23 2.63-4.75-1.86-9.2 1.71-13.45 3.13-.03-3.22 6.05-4.94 9.83-5.8 3.23-2.36-5.45-1.25-6.57.58-1.38 2.13-7.2 4-4.5.44 2.06-.94 4.8-4 .95-1.88-1.62 1.93-6.97 3.94-2.72.3 2.64-2.23.25-6.13-.74-7.35.74-.88 5.3-1.07 2.99.58 2.7-1.62 7.83-1.76 5.44.95 3.12 1.7-7.16 3.76-.66 2.76 2.88-1.4 6.53-3.25 1.93-5.15-1.45-1.58-9.57.95-6.73-2.2 2.14-1.44 6.74-7.15.85-4.35-3.1 2.34-10.68 3.48-7.78-2.74-1.29 1.17-3.87 5.8-3.39 1.38-3.14 5.95-3.14-8.47-5.01-.79-2.98 4.32-1.6-8.28-4.33-2.68-.37 1.6-1.74 5.2-2.66 2.7-2.05 4.65-4.01 2.57-3.38-1.31-.14-4.19-3.48-2.95-3.02.63 0 2.53-.73 6.1-2.39 2.82-.92 4.43 1.3 9.22-1.84 13.41-1.71 3.92 3.03.96 2.02 3.65-.4 2.2-.36 7.07.86 7.56-1.87 3.2-1.77 11.94-6.75 10.28-4.73-2.5-8.59-6.66-8.65-12.22.7-4.86-.67-10.02-1.36-15.45-.42-3.77 3.57-7.4.12-11.5-.84-1.47-2.04-3.24-3.82-3.5Zm19.38 26.82c.25-.54-.33-.13 0 0zm.11-.89.02-.18zm.03-9.44c.57-.54-.46-.23 0 0zm18.99-8.57c.3.12.06-.49 0 0zm14.52 1.62-.1.13zm7.77 7.02c.68.12 1.46.26 0 0zm2.27 5.64c.42.68.88-.84 0 0zm12.37 52.98c.17.53.12.38 0 0zm5.33-14.79c.19-.68-.34-.05 0 0zm-.12-.45-.04-.18zm-.04-.18c.36-.18-.37-.45 0 0zm-.04-.25c.37-.08-.2-.34 0 0zm.13.14.07.1zm-20.87 38.5c0 .64 0 1.48 0 0zm-37.76-.97c-.68.07-1.23.13 0 0zm-2-3.58c1.74.76.64-.35 0 0zm-11.7-17.71-.02-.1zm-9.18-37.92c-.22.35.41-.04 0 0zm2.5-34.68c-.28-1.09-.4-1.53 0 0zm-9.47-2.22-.01.15zm39.68.45c-1.03 4.6 6.1 9.59-.65 10.96-3.3.83-8.9-1.83-10.21-.57 3.53-2.53.17-6.79 2.44-9.25-.22 3.25 1.01 11.01 5.6 6.6 1.82-2.15 2.24-5.08 2.82-7.74Zm-7.6 7.8c.19-2.23-1.03 1.27 0 0zm9.4.12c.1-1.47-.6-.22 0 0zm-1.41-4.3c.1-.31-.42 0 0 0zm-40.33-2.84c.79.97-1.27 1.59 0 0zm10.72.98c-.38 1.21 1.73.8 0 0zm33.78.37c1.78 1.39-1.24 1.4 0 0zm.37.46c-.3-.4.03 1 0 0zm-44.9-.33c1.52 1.05.08 2.48 0 0zm3.89 1.2c.85.6-.7.96 0 0zm39.96.3c1.9.28-.16 4.53.28 1.21-.7 3.17-1.94-.5-.28-1.21zm-32.9 1.01c3.64 2.22-1.65 3.96 0 0zm-6.15.05c3.13 1.46-2.17 1.84 0 0zm2.16.01c1.4.87-.67 1.27 0 0zm-4.33.23c2.47 4.76-4.88 3.95-1.14.41.4-.08.76-.28 1.14-.41Zm37.09.2c-2.96 1.15 1.32 3.44 0 0zm11.06.24c1.95 2.73-6 6.3-1.56 2.82.52-.94.78-2.04 1.56-2.82zm-.76 2.96c.66-.34-.35-.78 0 0zm12.3-2.65c.88.2-2.08.18 0 0zm-31.8.06c1.04.41-.64 1.34 0 0zm-3.21.02c.3.33-.43.28 0 0zm20.56.15c.57 1.8-1.58 2.28 0 0zm-15.19.03c.21.37-.53.14 0 0zm28.42.02c-2.48 1.84-4.33 1.36-.64.24zm-57.13.06c1.47.19-.66 1.3 0 0zm-2.33.03.1.17zm59.77.22c.68.61-.96.35 0 0zm-25.78.04c.05.36-.32-.06 0 0zm-32.15.13c.92.63-1 .48 0 0zm40.07 0c.5.48-.42 1.01 0 0zm-38.04.12c-.09.93-1.07-.19 0 0zm2.38 0c5.2 1.98-.72 5.38.37 5.19-.3 3.47-5.84 2.55-5.38.42-2.97-.82 3.96-6.1 5.01-5.61Zm-8.26.25c.76.2-.56.46 0 0zm46.72.17c1.14 2.1-2.37 1.44 0 0zm-36.82.03c.37.21-.49.12 0 0zm51.28.08c.83.25-.67.61 0 0zm-63.2.08c.33.16-.26.36 0 0zm6.2.05c.32.95-1.34.45 0 0zm32.66.13c-1.51 2.12-2.78-.7 0 0zm-1.28.11-.13.03zm23.92-.09c-1.02 3.8-3.75.16 0 0zm-14.72.12c2.04.72-2 .2 0 0zm-17.02 0c.97.6-.51 1.34 0 0zm-29.7.03c.42.08-.3.36 0 0zm13.43.03c2.3 1.58-2.38 1.42 0 0zm-10.72.13c0 1.02-1.51-.55 0 0zm55.38.05c-2.11 3.42-13.38 4.63-8.42 9.34 2-.3-2.07-1 .48-2.33-.55-2.45 3.64-.52 2.4-2.46 1.8.23 7.38-5.2 5.25-.67-2.45 3.64-8.01 6.56-9.98 8.5.08 1.89-1.45 6.38.99 2.57 1.98.46.43 5.92 2.35 1.86 1.32-1.99.33-6.93 3-5.33.17-2.78 3.3-6.15 4.16-1.84-2.44 4.2-5.13 8.45-8.45 12.08-2.8 1.71-10.8 6.46-11.4 4.04 1.85-.42 5.04-2 1.3-.83-2.2.8-5.84-1.18-1.63-1.2-1.88-.75-5.97-1.24-1.75-2.74 1.45.28 4.72-5.04 2.01-1.96.74-.98.96-5.45-.3-2.1 1.96-4.88-4.65-4.34-5.76-4.52 1.66-1.14 4.17-3.28.32-2.52 3.18 2.27-7.93 4.98-3.24.52 4.3-4.7 13.79 1.83 11.5 7.53-.35 2.82 2.45 1.16 1-1.05.87-4.4 6.45 2.85 2.74-1.23-1.9-1.58 0-3.94.68-4.46-.42-1.68 1.7-4.08-.46-1.14-1.35 4.37-5.47 4.03-6.54-.3-1.66-1.93 2.9-3.25-1.5-3.77-4.36-1.25 3.65-1.43 5.18-.65 6.17.86 10.62-3.57 16.07-5.34Zm-25.56 11.2c.56-.16-.28-.2 0 0zm-32.4-11.1c.47.26-.37.54 0 0zm14.81.2c.1.3-.34-.12 0 0zm-3.36.01c-1.03-.24.46.82 0 0zm30.12.23c-4.27 2.4 3.75 2.54 0 0zm19.65.1c.13.51-.69.22 0 0zm-11.8.1c.72-.23-.06.61 0 0zm-44.12.07c.3.75-.9.28 0 0zm33.27.09-.17.02zm8.51 0c.38.16-.27.43 0 0zm-38.28.1c-1.68.1.44 1.22 0 0zm46.7.07-.05.02zm-9.11.04c2.29 2.2-2.59 1.29 0 0zm-4.69.06c.71 1.38-1.22.42 0 0zm-41.14.06c4.35 1.87.06 5.15 0 0zm13.45.02c.11.62-.71.29 0 0zm46.2.05c2.38.77-1.65 2.13 0 0zm-16.34.03c-.9 1.2 1.52.55 0 0zm-4.86.09c-1.2 1.16 1.58.3 0 0zm-1.82.12c-2 1.71 2.12-.06 0 0zm-1.67.05c-1.3 1.51 1.68.96 0 0zm9.63.01c.43.17-.4.34 0 0zm-30.45.15c.59.46-.5.32 0 0zm22.6.05c.61.5-.76.26 0 0zm-4.26.02c.62.81-.9.82 0 0zm14.48.12c.44-.03-.28.32 0 0zm-42.23.06c.51.16-.35.53 0 0zm42.57.15c.32.19-.59.06 0 0zm-39.21.13c-3.78-.25 1.32 4.73.7.79l-1.11-.1c1.65-.32.81-.5.41-.69zm46.77.06c1.03-.08-.77.46 0 0zm-50.71 0c1.05.62-1.05.58 0 0zm43.33.09c.66.02-.22.76 0 0zm-41.34.04-.22.04zm7.97.12c-.26.68.54.13 0 0zm32.9.11c.4.24-.46.26 0 0zm-46.17.05c-.47.91 1.23.04 0 0zm43.53.03c1.79-.31-.52.6 0 0zm-12.66.08c1.51.52-.68.92 0 0zm26.06.04c-2.09-.27-.91 1.94 0 0zm-48.99.08.04.1zm28.9.24c2.2 1.53 8.87-1.05 8.36 1.1-4.7.91-10.44-2.43-13.73 2.67-6.58-1 4.53-2.88 5.37-3.77Zm-3.49 2.05c.46-.39-.5-.17 0 0zm18.67-1.93c.45.77-1.3-.15 0 0zm2.52.02c-.29.53.67-.04 0 0zm-47.63 0c2.02 1.06-1.72.82 0 0zm26.4.03c.64.3-1.56.06 0 0zm-4.55.07c.92.07-.43.87 0 0zm-24.06.25c-.67.85 1.1.1 0 0zm25.9.26c.51.6-1.22-.13 0 0zm-19.9.22c.34 1.5-1.59.85 0 0zm43.94.06c-.73-.07.33.68 0 0zm-46.32.05c-1.26.4.86.7 0 0zm36.38.03-.16.06zm11.6.25c2.34.13-1.63.83 0 0zm-2.64.13c-1.45.09.58 1 0 0zm-50.6 0c1.19 1.77-1.87.48 0 0zm32.47.06c-.36.32.52.18 0 0zm13.67.15c1 .47-1.2.36 0 0zm-12.9.17c-1.62.51 2.72.05 0 0zm-2.67.04c.2.63-.72.2 0 0zm-22.48.08c.54-.09-.24.49 0 0zm28.4.2c-1.3.73.83.86 0 0zm21.7.07c.3.34-.66-.03 0 0zm-.5.05c.15.43-.54-.08 0 0zm-6.66.1c-2.02 0-.72.9.26.18zm-23.69 0-.13.1zm-22.33.11c1.44.38-.96.91 0 0zm1.35.03c1.48 4.05-3.5 1.97 0 0zm-.75 1.54c-.33 1.35.3.35 0 0zm34.81-1.52c-3.9-.08.2 6.7-.25 1.1zm-4.6.2c-.93-.08.42.84 0 0zm-30.6.02c-.29.17.38.13 0 0zm32.08.22c-3.11 1.23.25 2.09 0 0zM65.6 95c-.86-.23.3.8 0 0zm-7.82.1c-.9 1.06 1.27.2 0 0zm21.86.16c.43-.02-.29.31 0 0zm-55.74.05c.35.05-.23.35 0 0zm33.22 0c-.53.91 1.22.3 0 0zm3.6.05c.19 1.07-1.35-.07 0 0zm4.1.07c-1.81.65-.41 2.49 0 0zm16.66.03c-.12.34.6-.03 0 0zm-55.94.06c-1.37 3.06-4.42 1.47 0 0zm28.04.06c-.93.24.66.4 0 0zm1.7.17c1.05.97-1.4.7 0 0zm-6.7-.22c-.14 3.67-5.5-1.11-.52 0h.53Zm11.1.62c.58.84-1.14-.14 0 0zm3.84.1c-.73-.07.33.68 0 0zm9.72 0c-.6.1.48.45 0 0zm-20.28.25c-.25 1.11 1.29.1 0 0zm19.28.07c-.98.06.62.63 0 0zm-46.67.01c.35.18-.43.14 0 0zm-1.84.02.07.09zm18.99.2c.09.3-.35-.14 0 0zm-.7 0c.24.46-.87-.14 0 0zm9.65.02c-2.94 1.24 2.6 1.22 0 0zm23 0c-2.94 1.5.73 2.07 0 0zm-14.3.1-.05.1zm2.82.1c-2.44-.18.02 1.3 0 0zm2.76.05c-.1 1.8-2.09.19 0 0zm-18.98.24c.22.26-.41.13 0 0zm7.95.07c.52.1-.42.3 0 0zm-1.09.2c-2.9.55-1.11 4.96-.22.96zm14.15.08c-.97 1.72-.66 1.52 0 0zm-17.33.05c-1.88.49 1.32 1.13 0 0zm-4.93.07c-.49.59.77.02 0 0zm36.25.06c-6.17 2.1 4.57 1.02 0 0zm-24.74.07c-.74 1.44.16 2.38 0 0zm-39.66.03c1.18 2.7-.83 5.87-.16 1.22q-.04-.62.16-1.22zm32.78.1c.59-.05-.26.43 0 0zm-33.49 0c.4 1.15-.08 3.6-.07 1.02zm46.7.11c.48.33-.49.15 0 0zm16.05.08c-1.54.16.9.78 0 0zm4.2.03c-.5-.14 0 .43 0 0zm.88.1c-.49-.16.08.35 0 0zm-19.7.27c.95.56-1 .66 0 0zm-43.22.04c.25 2.15-2.2.93 0 0zm33.43.2c-.98.35.7.8 0 0zm22 .02c-.38.07.25.26 0 0zm-53.86.08c1.5 1.65-2.01.29 0 0zm18.18.04c-.55.14.4.3 0 0zm6.73.15c-.55 1 1.34.34 0 0zm21.01.53c.89 2.87-2.96.71 0 0zM67 99.7l-.27.63zm21.77.03c.87.37-1.6.22 0 0zm-41.82.03.17.07zm25.83.4c-.82-.15.43.64 0 0zm-12.4.24c.53.73-.9.25 0 0zm8.99 0-.03.07zm7.6.06c-1.47-.12.58.9 0 0zm-14.14.47c.89.51-.43 2.14 0 0zm-15.84.09c-.36.68.8-.1 0 0zm8.35.03c-.83.58.96.35 0 0zm6.6.09c2.67 2.03-3.4 3.24 0 0zm-.52 1.16c-.79 1.21.65.47 0 0zm5.18-1.14c-.8-.03.32.77 0 0zm-52.08.07c.4.3-.46.35 0 0zm28.06.08c1.06.48-.73 1.14 0 0zm17.57.05c1.43 1.23-.73 2.15 0 0zm19.91.08c.1.46-.58 0 0 0zm-33.94.3c.68.26-.52.45 0 0zm17.89 0c-.62.09.48.46 0 0zm18.19.12c.46-.14-.14.36 0 0zm-.66.08c-2.25 1.6-4.1.14-.4.05l.3-.04zm9.37.02c.54.68-1.17-.18 0 0zm-32.52.03c-.85.16.66.56 0 0zm-44.3.02.04.19zm53.92.02c.46-.15-.14.35 0 0zm-11.9.03c-.94 1.27 1.48-.2 0 0zm-8.62.19c.59.13.07.77 0 0zm-.1.94c2.7.03-.28 2.24 0 0zm29.96-.42c.46-.14-.14.36 0 0zm-1.48.04c-1.82.12.39 1.25 0 0zm-4.51.08c.47.06-.22.34 0 0zm-8.26.05c-.22 2-1.07.58 0 0zm-40.72.03c.3 2.15-1.73 2.28 0 0zm27.63.06c.31.42.16.21 0 0zm6.85.16c-.5.12.35.27 0 0zm15.92.04c-3.06.12 1.3.83 0 0zm-8.65.19c-1.54.18.72.87 0 0zm-37.99.06c1.2 1.83-2.3.42 0 0zm24.79.1c-1.57 3.15 1.28 2.92 0 0zm-26.6.15c.53.32-.94.09 0 0zm-2.91.1c.51.3-.44.56 0 0zm66.1.14c-.02.57.48.1 0 0zm-25.72.05c.6.32-.45.58 0 0zm1.77.06c-.97-.04.47.77 0 0zm-17.34.12c.52.1-.42.3 0 0zm-2 .04c1.94 1.49 6.24 3.43 1.99 5.6-3.65 1.8-5.5-3.94-1.85-3.97-2.11-.56-2.46-1.51-.14-1.63zm-.21.2.18.06zm-21.2-.18c.08.35-.49-.16 0 0zm24.73.06c.58 2.33-2.33.65 0 0zm-23.05.1c.45 3.86-4.88.86 0 0zm23.99.07c2.22.45-1.57.29 0 0zm-22.16.16c.29.17-.37.15 0 0zm40.8.1c-.14 1.58-1.73-.03 0 0zm8.58 0c-.79-.02.46.63 0 0zm5.97.2c-.3.62-1.5.16 0 0zm-62.27.02-.01.15zm26.8.02c.33.16-.27.35 0 0zm37.7.07c1.65-.08 4.97 5.1 3.53 1.06 3.44 2.6 6.65 8.72 6.37 11.59-3.29-3.24-10.9-3.04-12.9-4.71-1.14 2.95-8.77-2.97-4.56-4.54.5-1.62 5.6-1.86 7.56-3.4zm-61.46.22c.32.26-.42.1 0 0zm4.15.12c.37.43-.75-.1 0 0zm28.39.2c1.37 2.75-6.22 6.98-.25 4.5-.25-1.63 1.92-2.9.25-4.5Zm4.83.04c-1.19 1.79.16 3.56 0 0zm-42.23.02c.46.26-.43.42 0 0zm55.8.09c.52-.08-.2.5 0 0zm-18.75.01c-.46.2.8.26 0 0zm13.66.06c2.43 1.51-.58 3.6-1.26 4.67-1.06-1.08-.88-5.02 1.26-4.67Zm-1.83 2.86c-.1.93 1.21 1.02 0 0zm1.53.3c-.13-.56-.31.15 0 0zm-.1-.52c1.13.48.58-.97 0 0zm-2.36-2.28c2.8 3.4-4 1.96 0 0zm.43 1.8.05-.18zm25.52-1.75c-.62.82 1.43-.18 0 0zm-67.2.5c-1.07 1.74-1.2 1.17 0 0zm38.33.12c-.7 1.33-.56 2.06 0 0zm6.63.1c-1.6-.26-.05 1.38 0 0zm-44.13.02c1.17 1.37-.58.94 0 0zm-1.83.03c.25 1.08-1.24 0 0 0zm61.37.1c-.85.14.6.68 0 0zm-13.39.05c-1.48 4.1 3.28 1.14 3.14 4.01 3.25 5.33 11 2.17 14.68 6.83-.24-5.22 7.23 2.77 5.18 6.32.13 4.47-5.33 13.37-10.24 7.82-4.9-.87-5.83-5.2-2.43-8.57 2.92-3.15.78-1.9-1.9-1.52-1.64-1.83-3.2-9.43-5.06-7.14.19 2.57 3.8 2.83 2.74 6.05 6.57 3.92-2.5 8.9-4.19 10.81-.29 2.14-7.88 7.67-8.05 4.38 1.8-1.1 7.35-5.32 2.3-3.2-1.22 1.71-6.29 7.73-6.15 4.02 1.42-1.68 3.26-5.48.63-1.38-3.44 3.74-7.9 7.18-13.33 5.88-2.48-1-9.78-.75-8.8-3.94 1.92-1.82 5.54-5.7 8.03-3.82-4.3-1.09 3.83 5.66 1.8.58-1.68-.74-4.18-2.86-1.02-3.64-3.05.18-4-.92-4 2.37-2.46 2.5-8.66 8.1-7.8 1.1.44-4.8 2.75-10.51 7.5-12.38 2.64-.01-.45 8.8 2.58 3.75.59-1.3 1.99-4.03 2.86-1.63 1-5.21 3.92-4.54 6.95-1.94 1.73 2.43 8.29 1.47 3.19.5-2.56-.2-5.07-4.33-1.04-1.72 4.01 2.88 9.88 4.43 14.4 1.89 2.69-2.73-4.51 1.7-6.67.4-3.95-.13-10.48-2.53-8.52-7.58.92-1.28 7.39-5.69 4.08-1.41.85 1.3 3.79-2.54 4.55-1.31 2.52-2-.5 6.87 2.6 2.61.2-2.2 3-5.32-.04-5.35.55-1.01 1.7-1.63 2.03-2.79zM47 134.83c-1.77-.8-3.26-.86 0 0zm9.5 5.32c.61-.35.9-.52 0 0zm.78-.45c.4.03-.07-.25 0 0zm17.17-23.2-.91-.33zm-.22-2.9c-.28-.63-.5-1.13 0 0zm5.05 15.78c-.25.68.46-.08 0 0zm2.52.9.14-.06zm-24.07-23.05c-1.67.24.3 1.33 0 0zm-11.13.09-.02.15zm21.37.06c-1.42.47 1.22.59 0 0zm-43.7.05c2.2 1.44-1.44 2.62 0 0zm66.4.46c1.5 1.19-.96 1.76 0 0zm-64.81.22c.32 1.22-.95.37 0 0zm33.32.06v.01zm26.57.05c-.61.86 1.31.3 0 0zm-34.77.06c-1.43.11.97.89 0 0zm-6.1.34c-1.08.45 1.34.55 0 0zm-21.43.15c.74.1-.16.7 0 0zm-3.67.02c1.05.06-.68.82 0 0zm62.99.08c-3.33 1.85 3.24 1.68 0 0zm-22.94.06c-1.99.37-5.69 4.8-1.7 1.75.68-.44 1.48-.9 1.7-1.75zm4.2 0c.4.7-.89.04 0 0zm8.56.04c.57 1.36-1.05.26 0 0zm5.27.23c-.24 1.73 1.76.97 0 0zm4.84.1c1.2.93-1.45.22 0 0zm-59.55.06c.91.72-.45 1.42 0 0zm18.68 0c.46-.14-.14.36 0 0zm-.45.03c.86.84-.56 1.74 0 0zm-16.97.03c1.6.66 1.43 1.34 0 0zm38.75.11c-.4 1.42-1.9-.14 0 0zm-39.3 0c4.03 1.62.87 5.62 0 0zm64.23.07c-.97 1.27 1.4.8 0 0zm-30.62.09c-.88.37.76.43 0 0zm7.17.16c1.86-.74.58 1.25 0 0zm7.44.11c.33.1-.46.23 0 0zm13.19.23c1.34 1.35 1.1.22 0 0zm-39.7.17c.1.3-.35-.12 0 0zm10.22 0c-1.22.66 1.14.37 0 0zm37.35.06c.3 1.83 1.8 3.01 0 0zm-46.48.02c-1.02.86 1.68 0 0 0zm21.6.13c.3.27-.34.26 0 0zm8.87.02c.16 1.2 1.57-.43 0 0zm-33.62.06c.38.59-.64.33 0 0zm-17.25.01c1.04.06-.01.79 0 0zm39.52.08c.3.16-.36.15 0 0zm-1.1.02c1.1 2.27-3.95 4.13-.82 1.44.22-.4.18-1.37.82-1.44zm25.34.2-.24.15zm-40.58.02c-.86.01.52.65 0 0zm17.31.16c1.34 2.4-2.53.8 0 0zm-5.72.25c-.58 1.68-2.1.28 0 0zm-8.36.14c-1.76.15-.59 2.05 0 0zm42.02.05.05.07zm-25.9.04c2.55 1.94-2.26 6.83-.43 1.92l.28-.94zm3.4.03-.25.13zm-52.26 0c.3.27-.36.23 0 0zm64.56.05c-.67.2.6.3 0 0zm5.66 0c-1.05 2.99 2.29 1.97 0 0zm-28.4.03c.3.16-.36.16 0 0zm23.16.1c-.4.9 1.22-.08 0 0zm-12.77.18c-.08 1.66 2 .31 0 0zm-52.08.12c1.26.52-1.38.37 0 0zm34.56.22.1.03zm31.57.31-.27.18zm-66.24.25c1.1.79-1 1.2 0 0zm39.16.06c-.18 2.84-8.9 4.69-6.34 3.13 2.4-.42 3.97-2.64 6.34-3.13zm-15.34.04c2.15 2.9-5.51 7.98-2.4 2.59l.91-1.57 1.49-1.03Zm1.54.09c.63.1-.38.64 0 0zm-.86.04c.47.05-.22.34 0 0zm26.37.3c.51 2.26 2.37 1.82 0 0zm-.64.21-.07.02zm-16.07.06c-1.7.05.74.98 0 0zm-8.8.07c.46 1.09-1.58-.13 0 0zm12.16 0c-1.64-.03.49 1.3 0 0zm29.8.09c-.35 1 1.37.24 0 0zm-62.5.15c.53.44-.22 1.15 0 0zm66.14.24c-.52 1.03 1.14.21 0 0zm-11.18.4c-.8.06.56.62 0 0zm-32.45 0c1.83.26-.8 1.38 0 0zm-22.9.1c1.08.6-.86.83 0 0zm1.2.17c2.56 3.63-1.24 5.02-.87.77-.65-.22 1.29-.77.87-.77zm65.64.06c-.34 1.37 1.4.26 0 0zm-45.47.02c.34.54-.55.17 0 0zm13.04.25c-2.2 1.03.6 2.67 0 0zm6.15.1c-2.92 1.97 3.63.78 0 0zm-7.88.08c.29.3-.53 0 0 0zm-8.07 0c1.95-.61.72 1.63 0 0zm-24.76.05c.38.22-.33.39 0 0zm44.15.17c-.8.06.56.62 0 0zm-49.42.22.06.16zm27.87.04c3.38-.9.93 3.15 0 0zm-26.77.07c1.26 2.25-2.25.18 0 0zm40.39.1c-2.93 1.2 1.91 1.39 0 0zm-14.98.03c-.1 1.2-1.69 1 0 0zm14.82.1c.29.17-.37.15 0 0zm11 .05.02 1.1zm15.77.14c-1.16.16.83.56 0 0zm-20.72.18.59.03zm9.72.25c.13.39-.56-.2 0 0zm-21.45.06c.55 0-.35.46 0 0zm-8.78.21c-.09 1.59-1.36 1.42 0 0zm35.88.07c.6.91 1.93-.5 0 0zm-32.95.16c4.6 2.82-5.42 2.23-.39.01h.3zm15.2.06c-.67 1.12 3.22-.57 0 0zm9.97.02c-.4.69.83-.08 0 0zm-53.81.04c.5.1-.37.5 0 0zm40.8.03c-.69.45.8.21 0 0zm21.93 0 .94.16zm-27.88.07c1.6-.18-.44.96 0 0zm16.3.01c-.62 2.05.37 1.7 0 0zm-19.41.04c-.45 1-1.9-.1 0 0zm34.02.05c-2.83.22-1.67 1.48 0 0zm-43.13.1c.9.85-1.26.55 0 0zm-22.8.07c.12.4-.56-.2 0 0zm36.18.14c.33.34-.36.1 0 0zm31.3.02c-.04 1.29 1.58-.06 0 0zm-32.87 0c2.33 2.05-2.84.95 0 0zm13.75.03c-2.8 2.25 3.12 1.44 0 0zm-39.5.07c5.58.41 8.24 12.34 2.27 11.9-.73-3.64.27-9.96-4.68-9.11 1.9-.6-.19-2.54 2.41-2.79Zm-1.52 2.56c-.58.58.57.18 0 0zm66.8-2.55c.6.9-1.02 1.8 0 0zm-69.19.05c1.11.37-.94.74 0 0zm55.15.03c-.68.85 1.1.1 0 0zm-56.08.04c.62.13-.37.75 0 0zm19.4.18c1.5 3.82-2.63 2.85 0 0zm45.8.07c-1.78.21.5 1.15 0 0zm-8.64.08c-1.7.66 1.42.89 0 0zm-12.28.05c1.18.38-.93.9 0 0zm-19.67.01c-1.05-.16.3.99 0 0zm44.22.07c-.76.08.52.49 0 0zm-19.92 0c-1.46.6.77.97 0 0zm-52.76.04c.86 1.38-1.1.15 0 0zm69.93.07c-.37 1.07 1.27.3 0 0zm-42.17.08c-1.37.19.94.8 0 0zm40.34.25c-.55.66.85.16 0 0zm-42.48.12c-.46 2.45-2.74.12 0 0zm-4.37.04c1.09 4.1-3.69 2.03 0 0zm22.41.04c-1.85-.12-1.13 2 0 0zm-4.62.1c.78 2.25 2.73.92 0 0zm-34.25.1c.37.05-.23.36 0 0zm63.88.05c-.8.05.55.61 0 0zm-23.8.02c.63 1.76 2.19-.18 0 0zm-45.22.03v.2zm55.36.07c-1.1.51.96.7 0 0zm5.62 0c-.45.72.88 0 0 0zm16.38.03c-.44 2.36.45.56 0 0zm-48.83 0-.28.08zm-24.51.05c5.68.93-3.77 4.33-1.2 1.32.42-.38.48-1.4 1.2-1.32zm18.58 0c.67 1.16-1.19.89 0 0zm-12.77.08c-.06.55-.05.42 0 0zm24.61.04c.4 0-.3.28 0 0zm40.52.06c2.02 1.03 1.94 6.23.64 1.77l-.36-.87zm-30.63.09c-3.33 2.72 4.66 1.28 0 0zm27.88.02c-1.06.57.8 1.03 0 0zm-27.54.21c1.71.6-1.43.89 0 0zm-18.33 0c1.13.12-.63.94 0 0zm-21.35.1c-1.17.17.56 1.04 0 0zm66.06.07c-1.1 3.96 2.5 3.89 0 0zm-49.22.03c.73.24-.71.54 0 0zm43.68.16c-2.04.42 1.5.47 0 0zm1.42.02c-.87.44.97.36 0 0zm-59.14.06-.02.15zm-3.3.31c-.6 1 1.41.95 0 0zm72.96.35.06.97zm-35.08.05q.69.97 0 0zm-9.28.02c.77 1.48 1.85-.5 0 0zm25.99.04.24.2zm-49.56.08c.36.48-.64.06 0 0zm-3.05.01c.54.92-1.16.12 0 0zm57.52.1c-1.04.2.75.7 0 0zm-41.74.04c.9.19-.63.59 0 0zm12.35.37.55.16zm-13 0c.48-.1-.17.34 0 0zm-1.57.23c-.27 3.2-2.7 6.18-3.48 9.47-2.36 1.52 1.46-4.45.81-6.24.23-1.45 1.03-3.08 2.67-3.23zm-.64 2.37c1.1-.02-.52-.94 0 0zm-10.6-2.3c-.44.6-1.5-.23 0 0zm49.31.08-.27.1zm-1.35.04c-2.82.2 1.28.78 0 0zm12.2.3c-.52.48.7.2 0 0zm-45.15.03c-4.27 2.1.26 4.25 0 0zm-.24 1.53c.7.8 1.93-.24 0 0zm-1.74.85c.3-.42-.36-.08 0 0zm4.6-2.33c.04.61-.7.22 0 0zm-18.3.09c1.75 5.27-8.98.95-3 .35.96.59 2.65 1.42 3-.35zm60.56.02c-.66.3.73.41 0 0zm-17.07.01c.1.3-.35-.12 0 0zm-42.22.06c.38.16-.27.43 0 0zm-2.88 0c.73.2-.68.45 0 0zm23.02.07c.29.17-.37.15 0 0zm38.28.1c-3.64-.23 2.1 4.05.65.5-1.66 2-.33.24-.65-.5zm-40.35.03c.25 3.27-3.43 3.03 0 0zm22.87.05c.5 0-.48.23 0 0zm-1.98.12c.25.44-2.71-.45 0 0zm-39.03.02c1.52 1.81-2.2.53 0 0zm6.04.12c.29.27-.5 0 0 0zm43.73.1c-3.05.89-3.56 4.4-.68.74l.68-.75Zm-43.16.08c1.48.34-.44 1.21 0 0zm-13.72.08c2.3 1.64-.86 3.45 0 0zm77.99.06c-1.8 1.36.86.56 0 0zm-.73.03c-.05.59.58.42 0 0zm-1.4.02c-.34 1.02 1.43 1 0 0zm-59.83.07c-.57.93 1.16.1 0 0zm-9.9.02-.01.2zm24 .05c-2.47-.28-4.73 1.8-.97.86.74.25 3.35-.34.97-.86zm20.42.16c-.99 1.37 1.6-.13 0 0zm-45.28.12.04.1zm30.65.07c-2.46 7.07 7.2-1 0 0zm19.11.02c-1.06-.25.15 1.05 0 0zm-20.22 0c-1.91-.17-3.99.85-.62.36-.62.57 1.36-.42.62-.36zm35.03.05c-.71.49.83.45 0 0zm7.85.09c-.5.87 1.38.57 0 0zm-66.8.01c-1 .35.93.34 0 0zm29.62 0c.14 3.22 7.8 2.05 3.03 1.06a7 7 0 0 1-3.03-1.06Zm-35.83.08c-.7.89 1.2.27 0 0zm32.36.01c1.03.93-1.3.1 0 0zm-3.17.29c1.17 1.25 1.1-.02 0 0zm42.49.03c-.43.75.82.04 0 0zm-17.7.26-.03.03zm-47.26.05c-2.36.2-.15 2.11 0 0zm37.83.02c-.59.93 1.22.54 0 0zm-35.03.12c1.86 2.63-3.1 2.03 0 0zm-6.62.06c1.44 1.67-2 .67 0 0zm56.05.02c-3.34 1.28 2.84 7.65.82 1.77-.23-.6-.54-1.18-.82-1.77Zm-57.2.04c-1.02 1.52-2.08 2.37.26 3.26-1.93 2.63-6.1 2.22-3.03-.48-6.16-2.06.08-2.07 2.77-2.78zm-2.32 2.76c.7.19 1.74-.84 0 0zm63.42-2.74c-.55 1.66 1.22 1.06 0 0zm-45.74.09c-1.5 2.24-.11 3.4 0 0zm10.52 0c-3.62 1.85-1.73 2.92 0 0zm40.64.07c.55.9-.3 2 0 0zm-22.14.05c-2.12-.14.06 1.44 0 0zm-49.39 0c.37.35-.64.05 0 0zm68.61 0c-1.2.74.87.7 0 0zm-58.15.03c-2.45.93.85 1.97 0 0zm42.72.03c-.08.52-.65-.22 0 0zm20.67.08c1.75 2.13 1.65 2.31 0 0zm-20.06.17.19.02zm16.2.06c-.43.3-.22.15 0 0zm-8.07.04c1.08.77-1.2.4 0 0zm-14.69.13c-1.59.33.53 1.18 0 0zm3.15.25c-2.02-.38.66 1.03 0 0zm-2.65.3c-2.75 0-7.74 7.14-2.76 2.8 1.15-.4 2.67-1.54.4-.9.67-.78 1.6-1.22 2.36-1.9zm-33.98.04c-.33-.04.1.35 0 0zm57.47.01c2.1 4.58-3.22 5.26 0 0zm-4.94.02c-2.44 1.32.62 2.43 0 0zm-57.05.04c-.63.32.66.3 0 0zm60.36 0c-2.62-.08-3.43 6.08-.97 1.97.45-.47 1.35-1.18.97-1.97zm-63.36.03c.3.17-.37.15 0 0zm39.5.03c-.66.39.64.56 0 0zm-15.84.07c-1.65 4.32 3.6 2.72 0 0zm-4.1.01c-.35.69.8-.1 0 0zm22.85.05c-1.91.11-1.38 1.92 0 0zm1.46 0c-1.56-.06-1.57 1.5 0 0zm-.16.13c-.4 0 .04.26 0 0zm-2.55-.11-.25.21zm-6.02.15c-.65.98 1.1.3 0 0zm-3.99.02c-.3 1.21 1.36-.12 0 0zm-26.41 0c-.97-.28.33.6 0 0zm33.3 0c-1.32 1.24.56 1.82 0 0zm-15.91.09c-1.33-.27-.57.84 0 0zm3.8.06c-.99 1.37 1.58-.12 0 0zm-22.5.13c-1.14 1.89 1.56 1.66 0 0zm-3.43.16c.82 1.1-1.31-.03 0 0zm69.13.05c-.32 1.75 1.75 1.24 0 0zm-32.98.1-.2.19zm31.82.12c-.11 2.97 5.38 9.11 1.72 3.09-.7-.95-1.34-1.96-1.72-3.09Zm-61.52.2c.3.16-.35.15 0 0zm15.27.05c-2.5 1.74-1.12 1.13 0 0zm51.15.14c-.25.28.38-.03 0 0zm-19.57.02c-.91.5.94.45 0 0zm-35.74 0c-.82.58.94.34 0 0zm-19.26.04c-1.95 1.71 2.28.72 0 0zm61.37.02c-1.63.24.4 1.3 0 0zm-10.65.14c.02.57-.72-.06 0 0zm-43.37.04c-.1 3.44-4.21 3.18 0 0zm42.94.04c.27.76-.94-.04 0 0zm-12.14.06c-.93 1.39.8.84 0 0zm-25.52.1c-3.86-.64-.1 2.76 0 0zm41.27.05c-1.05 1.36 2.56-.6 0 0zm-24.8 0c-1-.07-3.28.56-.96.2zm-14.06.02-.03.13zm30.1.01c-3.15 1.1-2.37 1.87 0 0zm-6.06.19c-.28.26.36.24 0 0zm-3.25.21-.47.64zm-33.5.06c.21.27-.52.04 0 0zm68.9.06-.02.02zm-69.62.08c2.74 2.96-3.51 8.58-1.42 3.96-1.17-2.28.02-4.53 1.57-2.72l-.12-.68zm.16 1.53.04.1zm.22 1.3c.46-.4-.66-1.02 0 0zm47.58-2.8c-.25.63-1.32.04 0 0zm5.9.14c-.99-.21.39.81 0 0zm-5.23.01c.84.4-.1.47 0 0zm-2.07.12c2.51 1.37-.7 4.4-.76 3.35-1.37 1.38-5.12 3.08-2.14.12.9-1.2 1.59-2.64 2.9-3.47zm-.4 3.33-.13.14zm-33.34-3.3c-3.45 1.44 2.11 2.9 0 0zm7.47.1c1.84 1.05 3.22.12 0 0zm45.53.07c.46 1.5-.4 1.71 0 0zm-70.25 0-.06.1zm67.83.14c5 4.47-1.71 14.3.92 17.22 3.88-2.46-8.91 26.57 3.32 11.16 1.24 6.18 4.65 12 10.3 14.85 3.3 1.93 1.8 1.61-.8 1.96 3.28 3-4.1-.17-4.38-2.56-3.42-4.18 2.76 3.73-1.96 2.24-3.72-2.9-10.1-6.02-8-11.93.6-2.53-1.77-10.27-.83-3.58-.83 3.9 2.48 12-.18 13.19-1.82-2-5.98-5.33-6.27-6.4 2.66-4.2-.61-9.93 1.23-14.7-.58-2.53 2.41-3.75 1.81-3.99-1.95-4.35.94-11.5 2.67-13.79.28.89-1.56 5.92.22 3.19.2 8.25.57-5.94 1.95-6.86zm-6.8 24.4.14.17zm-7.64-24.4c.35 1.53-1.95.89 0 0zm-40.24.03c-.79.88 1.24.25 0 0zm24.84.02c-2.45.44-2.42 6.19-.98 1.66l.52-.8zm-29.8.05c-.31.72-1.51.46 0 0zm-6.42.04c.02.58-.71-.18 0 0zm58.31.02-.58.1zm-9.18 0c-1.98.7-.83 2.85 0 0zm-10.47.08c-.27.45.6-.14 0 0zm18.35.11c-.33.24.51.09 0 0zm-25.67.01c-2.96-.33-3.03 5.88-.76 1.68.04-.22 1.79-1.62.76-1.68zm-2.71 3.25c.47-1.12-1.28.32 0 0zm14.74-3.2-.29.17zm18.56.16c-1.7-.1-.46 1.43 0 0zm-60.05.05c-.85.98 1.19.46 0 0zm23.64.01.09.03zm6.55.11c-.99 1.37 1.6-.12 0 0zm-10.9.17c-.98 1.37 1.6-.13 0 0zm40.83.16c-.85.35.76.44 0 0zm-22.83 0c.25.26-.38.07 0 0zm-35.83.04c.44-.03-.28.31 0 0zm50.85.04c.42.3-.5.26 0 0zm-54.4.16c.46.1-.38.3 0 0zm15.88.16c-3.64 2.04 2.75 1.6 0 0zm-12.14.05c.28.27-.37.23 0 0zm11.45 0h-.02zm39.76.03c.39-.04-.24.28 0 0zm-50.38.06c2.44.54 1.64 8.09 2.85 2.66 5.65 2.71 1.69 10.72 2.04 15.62-.42 1.56 1.2 4.46 2.13 1.78.05 6.06 6.87 10.62 5.25 16.68-2.61 4.3-8.93 1.47-7.46-3.25-2.58-9.43-3.08-19.25-4.9-28.82-.12-1.55-.22-3.13.09-4.67zm12.75 35.18c.02-.84-.57.49 0 0zm51.33-35.08c.5.66-.72 1.48 0 0zm-66.38 0c-.63.5.77.3 0 0zm11.35.03c-.56.84 1.12-.08 0 0zm47.34.03c-1.54.61 1.12.8 0 0zm-5.43.07c5.32 1.61-4.35.58 0 0zm9.31.1c.3.16-.35.15 0 0zm-66.88.1c.38.04-.18.3 0 0zm52.9.18c.47.07-.53.27 0 0zm-1.65.08c-.67.1.48.38 0 0zm-24.45.14c-.2.49-.1.25 0 0zm35.61.15c-1.14.26.74.91 0 0zm-28.14.12c-1.83 1.87 1.32 4.53.73.8 1.4.53-1.12-1.17-.73-.8zm38.24.04-.02.15zm-22.27.02c-.85.16.67.55 0 0zm5.65.14c2.71.1-1.54.83 0 0zm2.13.04c.15.4-.56-.18 0 0zm1.55.02c1.95-.28-.6 1.43 0 0zm-21.23.28c-1.2.1.55.78 0 0zm32.38.2c.56 3.67-.46 3.76 0 0zm-2.94.02c1.04.5.09 5.21 1.03 2.64 2.3 3.2.16-3.5-1.03-2.64zm-10.47.12c.25.4-.97-.2 0 0zm-40.22.06c-.15.5-.1.3 0 0zm-3.59.16c-.68.85 1.1.1 0 0zm-7.68.24c.39-.05-.23.28 0 0zm7.87.35c-1.47 1.87 2.19.71 0 0zm-8.2.12c0 1.34-1.68.93 0 0zm51.02 0c.24.52-.79-.12 0 0zm-31.87.01c.93 1.08-1.29.25 0 0zm11.28.2c-1.27 1.38-.16 1.74 0 0zm27.93 0c2 2.65-2.74 3.06 0 0zm-43.69.15c-.97 1.37 1.6-.14 0 0zm29.06.14c-.11.59-.82-.13 0 0zm1.82 0c.85 3.97-6.3 1.96-1.43.39 0 .44 1.44-.9 1.43-.39zm5.5.01c1.83-.72 1.76 1.66 0 0zm2.57.16c2.6 1.06-2.52 1.45 0 0zm-32.6.04c1.95 1.65 6.74 4.17 2 1.2a46 46 0 0 1-2-1.2Zm10.28.1c-.2.15.3.03 0 0zm15.69.07c.6 1.64-1.69-.48 0 0zm11.93.03c.29.17-.37.15 0 0zm-9.15.07c1.95 1.4-2.08 1.1 0 0zm-30.29.13c.1.3-.35-.12 0 0zm19.54.1c1.21.3-.61 1.05 0 0zm3.16 0c.32.19-.59.06 0 0zm-.36.17c.32.19-.59.06 0 0zm9.28 0c.98 1.14-1.06 1.04 0 0zm-6.9.08c-1.77 1.43 1.77.46 0 0zm-44.17 0c1.14 2.2-.97 8.52-1.37 3.12.11-.91.01-3.1 1.37-3.12zm55.84.07c.48.1-.46.16 0 0zm8.88.01c.34.1-.46.24 0 0zm-35.12.06-.06.1zm-21.26.05c-.77.7 1.02.34 0 0zm46.08.04c.1.3-.35-.12 0 0zm3.07.02c.17.78-.88.11 0 0zm-37.92.03c-.6.2.51.47 0 0zm-7.95.1c-.63.2.56.47 0 0zm32.56.02c.46-.14-.14.36 0 0zm-5.73.12c1.13 1.03-2.1-.18 0 0zm-39.7.05c-.4 2.35-1.35.17 0 0zm57.3.1c.64.45-.77.4 0 0zm-42.44 0c-.12 1.36 1.65.34 0 0zm38.82.1c.44 1.38-1.93-.66 0 0zm-5.21.06c4.93.45 9.57 5.75 4.48 9.68-2.99-.68-4.48 1.35-6.1 2.41-1.33-2.09-2.24-3.8-1.53-.16-.18 5.5-3.98-2.05-2.18-4.28.55-3.11 2.13-6.55 5.33-7.65zm-7.13.27c4.65 1.59-3.32 3.15 0 0zm16.9.08c1.6 1.46-.07 2.8 0 0zm-20 .1c3.85 1.1-.93 7.78-.39 3.53-2.86.06-2.48-3.37.39-3.53zm-1.01 3.33.3-.17zm.55.22c-1.42-.02.54.86 0 0zm-.07 1.29.08.03zm-33.18-4.79c-.46.2.26.32 0 0zm61.57.02c.74.73-1.08.38 0 0zm-64.45.14c1.08 1.19-.66.93 0 0zm12.09.22c-.47 1.83 1.96.48 0 0zm-.7.01c-.54.7.92.13 0 0zm41.57.05c1.66-.2.11 1.4 0 0zm-21.29.08c-.57-.12 0 .46 0 0zm-33.84.3c.9.92-.97 2.1 0 0zm40.63.08c.55.37-.28.6 0 0zm-39.95.1c-.08.63.65.18 0 0zm13.38.11-.26.12zm30.38.25c-.07.52-.64-.23 0 0zm-21.86.04c-1.75.52 1.39.37 0 0zm36.06 0c1.93.54-.73 1.35 0 0zm-13.4.1c.3.6-.74.03 0 0zm11.3.02c.87.83-1.24.35 0 0zm-24.8.27c1.08-.24-.47.55 0 0zm-22.26.06c1.98.3 1.3 1.27 0 0zm5.38.1.24.2zm28.82.16c1.5 2.02-2.28 2.14 0 0zm5.38.04c-2.22 1.64-1.6 4.79 0 0zm7.32.13c.53.83-.9.26 0 0zm-37.49 0c.1 1.4 1.79-.04 0 0zm19.42.02c-.68.47.84.24 0 0zm-1.11.02-.04.1zm-20.69.08-.25.16zm-1.04.03c-.35.14.31.17 0 0zm42.38.06c2.61 2.32-2.49.6 0 0zm-48.02.03c-.15 1.84-2.18.67 0 0zm19.15.04c.09.45-.58 0 0 0zm-16.64.02c.49-.07-.17.45 0 0zm18.68.02c5.54.35-2.58 7.55-.95 1.72.13-.61.32-1.4.95-1.72zm4.12.18c3.53 3-3.95 1.9 0 0zm-1.18 1.38c-.03.46.33-.27 0 0zm6.38-1.34c.06.56-.68-.27 0 0zm4.4.02c-.16 2.73-3.46 6.28-.96 1.6q.51-.78.96-1.6zm-15.37.06c.23.44-.5.13 0 0zm20.78.04c-.84.08.58.6 0 0zm-3.38 0c-.8.03.53.64 0 0zm-33.15.1c3.27.38 3.47 2.13.1 1.07-1.65.06-1.43-.87-.1-1.07Zm17.58.08c-.39-.03.2.38 0 0zm-10.19 0c-1.44.07.94.58 0 0zm-11.01.04c.38.15-.27.4 0 0zm.9 0c1.68.26-.47 1.32 0 0zm45.77.04c.49 1.15-1.34-.05 0 0zm-21.53.01c-1.34 1.53 1.97.13 0 0zm-10.98.01c-2.75-.44.77 1.34 0 0zm37.68.03c-4.71 3.26 2.73 1.97 0 0zm-19.76 0c3.1 2.99-2.88 3.16 0 0zm-.64 1.88c.65 1.17-.2-1.33 0 0zm8.26-1.5c-.46.32.62.14 0 0zm-20.05.05c-.21 1.27-1.65-.17 0 0zm-6.99.02c-3.43-.08 1.37.86 0 0zm5.08.03c-.65 1.52-1.95-.3 0 0zm42.86 0c.2.26-.41.13 0 0zm-19.38.02c-1.01.54.94.54 0 0zm-11.72.01c-.22-.03.13.23 0 0zm6.44.07c-1.2.48.96.67 0 0zm7.34 0c-.94 1.33 1.2 1.7 0 0zm4.26.08c-.19.44-.3-.2 0 0zm-24.41.22-.22.12zm-23.27.1c5.66 3.1-4.14 2.66 0 0zm41.24.14c-1.36 1.57.52 1.01 0 0zm-17.97 0c-.17.31.38.04 0 0zm-12.74.05c2.73-.22-.79 1.12 0 0zm36.57.01c.6.72-.83.52 0 0zm-11.57.09c-2.22 1.54-.36 3.71 0 0zm-22.43.02c.15.4-.56-.18 0 0zm41.07.12c-.74 2.12.49 5.24.09 1.07zm15.37.02c-.48.96 1.06.12 0 0zm-21.57 0c1.05.86-1.12 1.12 0 0zm-33.2 0c4.43 1.67-2.47 6.75-1.74 1.2-.4-1.02 1.14-1.21 1.74-1.2zm-1.29 2.68v.06Zm1.98.38c-.52-.66-.35.2 0 0zm-.34-.15c.41-.42-.83.12 0 0zm.1-.14c.55.25.1-.41 0 0zm20.89-2.62c-.45.7.88 0 0 0zm26.21.11c-.31 1.48.38.63 0 0zm1.15.12c-.23 1.22 1.52.81 0 0zm-45.5.02c4.31 1.59-3.71 2.5 0 0zm20.02.04c-2.77 2.34.93 3.47 0 0zm-11.02.04c-.1 4.25 2.93.85 4.17 1.28.71 2.81-3.05 6.54-4.77 6.17-.65-2.4-.47-5.2.6-7.45zm12.07.12c-.73 1.08 1.06.44 0 0zm-19.29.2c.57-.06-.26.48 0 0zm-18.17.08c.47-.12-.17.33 0 0zm26.47 0c.23.26-.4.14 0 0zm24.2.02c-2.43 1.5-.79 9.84-.44 3.47.24-1.14.5-2.3.44-3.47zm9.4.04c-.06 2.26 1.53 2.52 0 0zm-42.7 0c-.46.13.39.46 0 0zm5.9.04c.22.24-.4.11 0 0zm-7.11.02c-1.09 1.54 1.63.02 0 0zm22.9.03c-1.9 1.75 1.09 2.73 0 0zm1.08.02c-.74.12.58.5 0 0zm2.2.14c-.7.1.6.43 0 0zm-20.14.12c1.12.89-1.43.4 0 0zm1.6.02c.86 2.46-3.18 8.18-2.33 2.47.42-1.16 1.97-1.29 2.33-2.47zm18.53.13c-.62.9 1.3.67 0 0zm3.16 0c.46-.14-.14.36 0 0zm-11.25.04c-1.7.05.3 1.22 0 0zm-20.6.04c-1.91-.4.61 1.03 0 0zm6.91.07c1.98 1.01-1.79.96 0 0zm19.37.02c-.63.5.77.3 0 0zm1.55.09c-1.11 1.32.84 2.4 0 0zm3.06.02c.48.33-.49.15 0 0zm-46.57.16c.42.1-.33.25 0 0zm47.03 0c.3.29-.44.37 0 0zm-47.26.16c.4.22-.54 0 0 0zm39.91.03c-.6.1.48.45 0 0zm6.6.06c.96 1.04-.52 1.35 0 0zm-7.02.01c-1.84.11.38 1.27 0 0zm-38.66.07c1.7.97-1.87.31 0 0zm13.84.06c-.37.68.79-.1 0 0zm33.23.1c.57 2.36-.6 2.1 0 0zm-5.24.09c-1.85.06-.03 1.71 0 0zm-21.03.03c1.06.62-1.06.53 0 0zm10.58 0c.44-.02-.28.31 0 0zm-13.02.03c.1.3-.35-.12 0 0zm25.74.01c-1.82.35.67 1.37 0 0zm-24.78.24c1.26 1.36-1.77 1.28 0 0zm25.97.03c1.31 1.56-.94 2.4 0 0zm-10.8.12c-1.1.96 1.79.04 0 0zm13.23.03c3.01 1.22-2.25 2.68 0 0zm-29.7.1c1.92.69-.7 1.75 0 0zm4.26.02c.29.17-.37.15 0 0zm9.52.1c.88.7-.8 1.16 0 0zm-11.5.02c2.34.96-1.63.93 0 0zm3.98.08c-1.45.48.42 1.23 0 0zm-7.44.13c.41 0-.1.46 0 0zm8.74.04c1.03 1.26-.77.86 0 0zm25.01.13c-.85.06.58.6 0 0zm-36.47 0c-.1.36.36-.02 0 0zm26.89.07c-1.34.82.97 1.12 0 0zm-27.12.08-.01.15zm22.37.1c-.52.6.46.44 0 0zm10 .02c.37.29-.3.53 0 0zm-46.1.01c.72.71-1.02 1.14 0 0zm16.45.08c3.18-.44-.74 1.04 0 0zm-17.1.02c1.48 1.79-1.6 2.03 0 0zm16.13.03c.33.34-.35.13 0 0zm7.8.04c-1.4.52.72.93 0 0zm4.5.05c-.71.36.54.74 0 0zm9.47.02c-1.27.53 1.83.34 0 0zm24.64.05-.02.16zm-30.76.33c-.03 5.48 7.7 6.75 10.04 5.86-.05 4.54 4.94 13.74-2.38 14.27-4.59 1.9-11.37-.06-10.1-6.12 1.08-2.74-3.59-6.99-1.31-2.22.93 3.5 1.09 8.38-.22 11.32-.53-1.48-2.42-5.39-2.76-1.6-2.22-3.64-1.7-12.61.82-13.64 1.43 1.92.33-5.67 3.22-2.18 1.94 1.18-1.82-4.65 1.53-2.11 1.94 2 5.24 3.28 5.28 6.55-.3-4.33 2.84.52 2.26-.51.11-4.24-7.84-4.51-7.6-8.13.42-.38 1.27-.79 1.22-1.49zm4.12 10.13c-.7 1.59-.3 1.35 0 0zm-5.61-4.18c.87.65 1.11.82 0 0zm-3.57 2.9c-.46 1.46 1.06.18 0 0zm9.55 11.55c.6.11-.43-.7 0 0zm.17-14.82c-.78-.7-.9.55 0 0zm-3.65-5.5c.33.35-.36.13 0 0zm-8.42.07c-1.91 1.03.48 2.12 0 0zm1.12.02c2.74 2.24-2.53 7.2-.47 1.74.05-.6.1-1.24.47-1.74zm8.99.04c-1.25.45 1.4.28 0 0zm12.47.02c.37.43-.66.25 0 0zm-1.35.07c.7.85-.8.62 0 0zm-44.1.01c.18.84-.58.1 0 0zm.33.2c1.14 3.43-2.75 2.86 0 0zm33.25.32c-.57.82 1.1 0 0 0zm-.57.1c-.8.73 1.31.16 0 0zm-1.79.08c.42.29-.26.59 0 0zm-26.65 0c1.37.07-.82.8 0 0zm37.97.04c.76.68-.97.39 0 0zm2.32.03c.92 1.35-1.54.3 0 0zm1.2.06c.4.41-.46.57 0 0zm-6.3.08c.52.6-.76.25 0 0zm.32.01c.25.31-.46.19 0 0zm-41.06.1c.52.5-.67.55 0 0zm54.96.17-.01.15zm-20.18 0c-1.13-.05.48.93 0 0zm-32.95.01c.31.16-.37.15 0 0zm55.97 0c-.7 1.28.7.77 0 0zm-58.9.03c.8 1.5-1.67-.1 0 0zm47.64.1c.47-.13-.17.33 0 0zm-3.02.02c3.24.1-1.4 1.01 0 0zm-3.03.23c5.71 1.88-2.99 2.55 0 0zm-36.3.13c.35-.03-.22.3 0 0zm30.19.06c-.29.58.91-.15 0 0zm-6.23.01c.3.17-.37.15 0 0zm24.66 0c-1.1 2.29.58 3.66 0 0zm-27.23.08-.01.15zm13.53.12c.68.46-.67.7 0 0zm8.18.03c.8 1.54-.97 1.87 0 0zm-1.11.04c.5 2.08-1.77 1.86 0 0zm-46.9.04c.34.19-.59.06 0 0zm42.98.03c.36-.03-.22.3 0 0zm1.79.2c1.87-.12-1.48.75 0 0zm-2.57.03c-1.64-.02.27 1.44 0 0zm-38.89.1c.07 2.86 1.37 1.35 1.56 1.68.08 2.42.52 5.66 1.42 5 .06 2.55 2.91 3.78 2.18.44 3.41.34.14-7.52 3.79-5.66-.55 3.15.52 4 1.81.61.3-2.29.62.58 1.79.67.7 5.72-4.95 7.61-6.57 12-1.58 6.99-1.94-5.79-3.42-1.54-2.25-4-2.19-8.75-2.56-13.2zm-3.56 0c.44-.02-.27.32 0 0zm5.57.01c1.3 1.02-.6 1 0 0zm45.66.09c.18 2.68 2.35 5.2.47 1.24zm-24.82 0v.05zm19.4.03c.8.66-.91 1.13 0 0zm-50.85.2c.05 2.05 1.5 5.65-.05 4.8-1.61 2.68-1.36-5.22.05-4.8Zm.3 3.13c-.78-1.1.59 3.5 0 0zm63.55-3.05c-1.06 1.2 1.19.52 0 0zm-58.42.02c-.69 1.13-1.8-.23 0 0zm26.68.04c.21.7-.8.28 0 0zm-34.11.04c.46.75-1.04.66 0 0zm52.04.15c.3.16-.36.16 0 0zm17.94 0c-.36.17.31.16 0 0zm-53.98.02c1.17 1.76-1.97 1.3 0 0zm-6.4.07c1.81-.4-.1 1.3 0 0zm41.73 0c.96 1.61-.65 1.02 0 0zm-49.23.03-.01.25zm-.19.03v.22zm12.29.01c3.63 1.34.91 11.59-.42 4.46-.67-1.64.69-2.87.42-4.46Zm-13.41.06c.04.43-.59-.13 0 0zm46.64.05c1.25 1-2.87.2 0 0zm-22.66.2c2.12.93-1.88 1.35 0 0zm44.6.06c.17 1.91 2 1.3 0 0zm-10.24.05-.01.15zm8.93.06c-.19.93.48 2.2 0 0zm-15.87.08c1.55 2.93 3.77 9.1.32 11.05-2.53-1.2-2.74-11.45-.82-5.49.97 1.51-.4-5.06.5-5.56zm10.32.02v.16zm-6.68.08c.3.79-.67.25 0 0zm-47.3.06c-.04 1.08-1.07-.12 0 0zm25.3.05c.08 1.77-.79 1.95 0 0zm28.67.07c-2.08 2.27.31 5.45.18 1.07zm-7.95 0c.44-.02-.27.33 0 0zm-29.13.38c.6-.18-.15.49 0 0zm-14.07.2-.02.15zm39.55.06c.48 0-.32.43 0 0zm-26.21.1c.6-.14-.14.62 0 0zm-18.06.07c.76.9-.94 1.17 0 0zm17.46.02c.4 0-.11.46 0 0zm44.14.14c-1 3.4 2.79 3.09 0 0zm-25.36.13.24.19zm11.68.06c.31.17-.35.14 0 0zm-28.86.04c-1.01 1.55-1.56.17 0 0zm-25.53.02c.32.43-.56.64 0 0zm15.3.6c-.88.58.82 1.25 0 0zm-5.13.13c.76.88-.54.6 0 0zm29 .07c.53 1.82 5.44 8.69 2.3 3.6-.72-1.23-1.42-2.47-2.3-3.6Zm-15.57.03c3.56 1.9-2.5 9.75-1.55 3.38 2.49.93 1.24-2.2 1.55-3.38zm11.9.16c-2.82 1.05.57 2.3 0 0zm1.78 0 .62.33zm-21.7.06c-.2.53.6-.18 0 0zm5.66.04c-.78.54.83.34 0 0zm-21.73.1c1.56.18-.32 1.43 0 0zm14.07.02-.04.12zm11.82.12c-.47 2.8 3.47 1.58 2.06 5.06-.24 3.34-4.88 2.1-2.31-.6.23-1.48.03-3 .25-4.46zm12.52 0 .64.34zm16.75.07c1 1.6-1.87.16 0 0zm1.98.13c-.7.9 1.1.27 0 0zm-35.26.09c-.82.1.4.8 0 0zm-8.85.07c.7.21-.45.6 0 0zm35.77.04c-.49.58.77 0 0 0zm-9.66 0c.8 1.43 1.2-.07 0 0zm-39.11.25c.1.3-.35-.12 0 0zm57.74.23c-2.33 1.6 2.34 2.38 0 0zm-47.2.03c1.24 1.4-.5.96 0 0zm7.4.08c-.3.1.21.19 0 0zm3.7.2c-1.01 1 1.3 1.16 0 0zm-8.7 0c1.05-.14-.38.95 0 0zm47.24.01c-.62.08.47.45 0 0zm.4.01.13.3zm8.36.33c-1.08 2.01 1.12 4.8.2.97zm-8.97 0c-1.1 1.86 1.66.94 0 0zm-11.6.03c-.41.55.62-.05 0 0zm12.35.01.06.14zm-6.03 0c.73.1-.55.46 0 0zm-53.98.06c1.56.62 2.25 2.1 0 0zm54.52.03c.41.22-.54 0 0 0zm-13.06.04c-.63 1.08 1.4-.03 0 0zm-24.79.04c.73 1.03-1.48 1.17 0 0zm31.27.05c-.06 1.1 1.52.27 0 0zm-9.82.05c-2.11-.19.57 1.2 0 0zm23.7.08c-.54 2.97 1.1 3.3 0 0zm-43.21.04c-2.15.78.6 2.27 0 0zm-9.2.1c.63.73-.84.52 0 0zm-6.77.34c.7.44-.49.68 0 0zm36.33.02.39.39zm10.27.1c.68.29-.38.92 0 0zm-39.06.16c.76.88-1.06 1.59 0 0zm48.03.3c-3.94 1.52 4 5.74-.3 2.62-.68-3.9 3.55 1.74 1.49-1.72l-.52-.6zm1.64 2.51c-.44 1.18.33.36 0 0zm-17.77-2.51c-.38.58.74-.05 0 0zm20.12.18c-.25.42.46.24 0 0zm-22.35.08c1.4 3.86-5.54-1.07-2.37 3.4 1.19 2.01 3.83 1.52 1.26-.48 3.71-2.7 6.13 5.47 8.5 6.38-1.16-2.36 1.66.03-.42-2.13-2.22-2.49-4.84-4.6-6.97-7.17zm-23.28.24.12.2zm-15.03.03c1.92 1.12-1.76 1.05 0 0zm-.96.05c.78.05-.54.28 0 0zm27.05.03c.72.86-1.01 1.57 0 0zm19.99.04c-.33 1.94.56 2.46 0 0zm23.74.05c-.25.14.22.2 0 0zm-45.62 0c-1.06 1.93.7.85 0 0zm16.22.03c-.64.5.74.24 0 0zm-3.66 0c-.62.95 1.4-.1 0 0zm24.25.05c.65 3.44 1.7 7.06 5.07 7.82-.1-3.09-4.96-4.04-5.07-7.82Zm-52.59.1c1.14.38-1.1.38 0 0zm34.76.1c-.63.5.77.3 0 0zm19.49.12c.45 1 2 2.8.6.79zm-60.88.05c.57.12-.3.37 0 0zm58.5.38-.01.15zm-40.67.08c.98.05-.36.77 0 0zm23.86.1c-2.45 1.45 1.2 2.11 0 0zm-27.2 0c-.63.2.56.47 0 0zm-4.76 0c-.69.33.68.51 0 0zm-13.18 0c1.79.04-.86.67 0 0zm60.43.26c-.94 1.08 1.2.58 0 0zm-57.73.03c1.6 4.74-3.47 3.61 0 0zm-1.19.13c.3.28-.5.01 0 0zm23.06.04c.8.29-.63.52 0 0zm9.13.01c-.38.48-.56 5-.82 2.03-.7 2.63.47 3.96.88.49.13-.83.3-1.72-.06-2.52zm-.62 4.6c-.35.07.21.23 0 0zm4.82-4.5c.4 0-.12.45 0 0zm-10 .3c4.87 1.25-1.8 12.02-.34 4.86 1.1-1.41.02-3.27.34-4.86zm-14.66.03c-.56.82 1.04.13 0 0zm1.65.1-.02.35zm34.52.06c-1.46.88 1.15.7 0 0zm-3.16 0c-1.73 1.21.8 2.6 0 0zm-45.66.29c.68.27-.65.3 0 0zm55.8 0c-.19 1.91.88 2.15 0 0zm13.54.57c.36 1.36.92 1.35 0 0zm-50.5 0c1.12 2.2-1.43 3 0 0zm10.8.1c1.14 1.05-.86 1.05 0 0zm-3.1.19c2.75 4.07-5.66 6.22-2.72 1.18 1.67 0 3.01 2.07 2.72-1.18zm27.6.09c.42.21-.51.01 0 0zm-5.95 0c-1.22.97 1.36.64 0 0zm-47.7.16c.63.64-.62 1.04 0 0zm2.68.12c.05.93-1.24.5 0 0zm13.11.04c-.6.6.79.23 0 0zm30.78 0c-2.37 2.3 3.02 1.53 0 0zm3.8.29c.35-.02-.23.3 0 0zm.8.06c-.28.11.18.33 0 0zm-11.66.04c-.38-.04.13.37 0 0zm7.16.06c1.21.08-.7.78 0 0zm6.64.17c.5.03-.4.3 0 0zm-26.42.42c.28.27-.37.23 0 0zm-24.93.01c.2.99-1.02-.04 0 0zm48.6.08c3.5 1.65.16 12-1.32 5.17-.46-1.8 1.57-3.3 1.32-5.17zm-47.93.04c.35.6-.7.07 0 0zm67.14.06c.17 1.23 1.16 1.25 0 0zm-41 .1c1.49 2.3-.6.82 0 0zm7.62.2c-.97.76 1.05.54 0 0zm-35.33.25c.24 3.04-3.57 1.06 0 0zm56.7.08c-.48.32.33.32 0 0zm-55.7 0c2.03 1.64-1.86 1.59 0 0zm38.3.03c.62 2.14 1.06 1.13 0 0zm6.82.05c-.67.7.94.17 0 0zm5.89.07c3.95-.14-1.42 2.35 0 0zm-40.45.03c.83 1.1-.52.81 0 0zm45.18.05c-2.83 1.94 2.58 7.73.64 2.48zm8.08.01c3.1 2.4-2.78 2.04 0 0zm-63.09.04c.82.7-.89.94 0 0zm15.73.45c.33 2-2.29-.2 0 0zm25.07 0 .1.22zm-43.48.07c-.88.03.25.93 0 0zm21.7.04c-1.69.72.71 1.02 0 0zm14.75.03c-.37.67.78-.08 0 0zm24.04 0v.25zm-35.98.18c-1.5.62.52 1.24 0 0zm-4.33 0c-.05 1.4 1.73.12 0 0zm32.35 0-.39.12zm-15.91.2c-.17 1.2 1.67 0 0 0zm-33.96.25-.1.05zm51.33.06c.33.56-.71.06 0 0zm-1.2.07c.21.44-.51.13 0 0zm-15 .02c-.76.6.83.3 0 0zm-36.6.08c3.76 1.32 1.75 3.47 0 0zm47.05.2c-.6.07.46.45 0 0zm12.25.15-.02.15zm-19.14.01.03.05zm14.8 0-.12 1.15zm-37.67.07c-.16 1.18-2.01.46 0 0zm35.29 0c.55.37-.5.3 0 0zm-1.05.02c.45.27-.44.41 0 0zm-13.4.2c-.51.94 1.1-.06 0 0zm18.45.08c1.95 2.56.05 3.94 0 0zm-35.66.03c-.72.93 1.1.46 0 0zm28.42 0c.13 2.1.76 3.44.14.62zm-15.2.04c1.7.5.55 2.18 0 0zm2.4.08c-.87.7.91.9 0 0zm-5.9 0c0 .52 0 .27 0 0zm34.49.55c-.6.95 1.1.14 0 0zm-42.46.27c.85.31-.36 1.1 0 0zm32.13.01c-.86.95.35 1.9 0 0zm-38 0c.42.1-.16.5 0 0zm21.87.14c-.41.88 1 .02 0 0zm.71.26c-.1 1.26 1.58-.13 0 0zm25.83.11c1.43 2.93 2.03 3.12 0 0zm-46.33.06c-2.67 2.1 2.51 1.43 0 0zm43.3.23c-.41 2.85 5.28 2 .9.34-.26-.2-.6-.22-.9-.34Zm-18.64.05c.25.85-.92-.12 0 0zm-21.49.62c1.04 1.3-2.46-.39 0 0zm-4.31.03c-.79-.04.46.63 0 0zm-5.6.03c1.49.32-1.16.83 0 0zm4.34.05c-3.25 1.07 4.2.78 0 0zm-16.8.05c.45.41-.48 1 0 0zm14.81.37c-.7.47.84.24 0 0zm22.31.17c2.37.2-1.1.74 0 0zm-16.81.2c-3.88 1.95.02 3.55 0 0zm-5.26.03c-.42.9 1.2-.18 0 0zm41.46 0c-.74.98 1.07.4 0 0zm-17.33.14c.5 0-.47.24 0 0zm-20.74.14c-1.12.33-1.13 2.84-.25.88zm-4.45.13-.26.12zm8.66.15c.6-.04.2.78 0 0zm-5.63.28c-.77.14.58.5 0 0zm-17.14.25c1.6.43-.42 1.37 0 0zm58.48.02c-.14 1.8.7 3.22 0 0zm-1.66.02-.06.12zm-41.26.15c-.99 1.37 1.6-.13 0 0zm-4.76.54c-.69 1.69 1.98-.34 0 0zm54.4.04c-1.59.8 1.57.5 0 0zm-24.51.06c.03.55-.63-.3 0 0zm-42 .21c1.63.46.17 1.98 0 0zm10.55.19c-.64.86 1.2-.03 0 0zm33.12 0c1.95-.02-1.33.75 0 0zm23.66.1c-.4 1 1.14-.07 0 0zm-25.03.07c3.62.1-1.79.86 0 0zm-44.79.13c2.32 1.21-1.84 3.64.42.67-.04-.16-1.24-.46-.42-.67zm4.64.05c1.27.75-1.32.5 0 0zm12.14 0c-.45 1.11 1.45-.1 0 0zm5.39.07c-1.7 1.13 1.77.7 0 0zm-1.57.07c-.78 2.68-8.88 1.08-3 2.38 1.5 0 4-.1 3-2.38zm.32 1.7.17-.04zm-4.8-1.5c-.8.05.55.62 0 0zm28.94.01c.1.35-.48-.14 0 0zm24.72.07c-1.33 1.54 2.22.21 0 0zm-45.8.05c-2.4-.54.07 1.38 0 0zm-8.41.05c-.55.5.74.15 0 0zm2.63.17c-.34 1.04 1.41-.28 0 0zm-12.09 0c1.36 1.72-7.07.85-1.38.4.49-.04.92-.26 1.38-.4zm19.87.23c-.9.72 1.16.38 0 0zm49.96.15c-.14.91.99 0 0 0zm-66.4.03c-2 2.4 2.51 1.2.79 3.66-2.1.53-9.38 1.59-8.25-1.32 2.23-1.44 5.27-.9 7.46-2.34zm5.14.08h.03zm30.9.02c.1.3-.35-.12 0 0zm4.18.04c3.52.47.2 2.72 0 0zm-2.66.02c2.65 3.56-3.86.07 0 0zm-21.01.2c-2.3 1.09 1.68 2.31 0 0zm46.15.2c-.06 1.48 1.7-.53 0 0zm3.8.17c-.33 1.62 1.77.4 0 0zm.95.03c-.35.78.89.09 0 0zm-54.09.26c-.97 1 2.44-.48 0 0zm-9.93.02c-.55.95 1.15.06 0 0zm-10.94.05c3.2-.18.67 1.8-.6.51zm71.58.05c.52.09-.28.22 0 0zm3.85.08c-.3 1.06 1.43.53 0 0zm-28.46.02c2.86-.04-1.17 1.43 0 0zm-28.99.13c-.8.6.7.44 0 0zm25.08.1c.32.25-.53.09 0 0zm-35.58.13c-.93.5.91.46 0 0zm6.47.03c-2.4.54 2.24.5 0 0zm-15.04.04c-.82 2.1-2.32 1.69 0 0zm43.83.21c2.96.02 6.75 2.74 5.56 3.87 1.98 2.96.09 2.93-2.19 3.06-.55 2.44-1.22 2.7-2.3.57-1.17 2.4-.11 1.25-2.19 1.63.83-1.45.59-5.11-.91-1.54-.34 3.1-1.75-1.42-1.61 1.33-3-.09 3.27-6.32-.76-2.48-.97 1.74-4.22 4.22-2.43.54-2.52-3.16 4.8-3.61 5.35-6.66zm-4.14 8.32c.46-.3.32-.2 0 0zm3.5.23c.95.66.28-1.23 0 0zm2.88-.01c.81 1.1.43-1.17 0 0zm.8-7.6c-.5-.25-.4-.2 0 0zm-6.59-.92c.36-.03-.21.31 0 0zm-34.17 0c-3.03-.19-4.86 1.4-1.03.28zm11.57.08c-1.47-.18-2.64.51 0 0zm-20 .07c.56.2-.63.22 0 0zm24.59 0c-2.36.24 1.5.59 0 0zm-13.98.08c-.82.33.75.3 0 0zm-.58.04c-.75.5.87.3 0 0zm17.28 0c-6.28-1.37 1.15 2.51 0 0zm23.04.03c1.21-.18.15.8 0 0zm-49.57 0c.32 1.16-1.18.56 0 0zm50.42.08c.4.22-.54 0 0 0zm-49.07.03c.29.17-.37.15 0 0zm18.63.07.25.18zm-20.82.06c.44.89-1.01-.01 0 0zm51.9.12c1.7.71-.02 1.52 0 0zm-2 0c.36-.01-.23.31 0 0zm2.73.09c.29.17-.37.15 0 0zm-37.33 0c-2.17-.14.12 1.44 0 0zm32.09.1c-.72.79 1.3.27 0 0zm-5.02.15c.42.07-.34.36 0 0zm3.71.1c-2.42-.23 1.46 1.03 0 0zm1.89 0c-.37.85.96-.18 0 0zm2.2.4c-.6.07.46.45 0 0zm-1.08.5c.22 1.2 1.83-.64 0 0zm-1.23.23c-1.43.67 2.16.35 0 0zm.54.38c-.38-.07.08.27 0 0zm-1.29-.36c-.98-.2.41.8 0 0zm-5.02.26c-.5 1.26-2.28-.7 0 0zm3.93.06c-2.26 1.58 1.69 1.88 0 0zm3.53.04c-2.87 1.6 2.7 2.03 0 0zm-4.92.03c-3.17-.34-.29 2.9 0 0zm3.26.19c-1.04.52.23 2.74 0 0zm2.62.3c-1.12.43 1.09.43 0 0zm-2.05.11c-.8-.02.31.78 0 0zm-8.53.48c.6.06-.68.2 0 0zm-.65.1c.06 1.17-1.7-.1 0 0zm11.47.11c-1.07.72 1.14.6 0 0zm-9.5.11h.02zm3.83.05c-1.22 1.38 1.82.99 0 0zm1.26.19c-1.4.35.8.89 0 0zm.97.63c-2.57.78.72 1.87 0 0zm-8.62.03c-.36-.13.1.3 0 0zm5.9.08c-2.38 1 1.53.56 0 0zm4.85.03c-1.18 1.84 1.61.83 0 0zm-1.09 0c-1.94.08.67 1.1 0 0zm-6.36.19.02.16zm8.52.33c-.86.07.57.6 0 0zm-2.1.3c-1.34.3.86.76 0 0zm2.5.15c-1.47.14.57 1.04 0 0zm-13.02.02c1.94 3.56-4.11 1.16 0 0zm.89.15c1.15.19-.41 1.13 0 0zm13.2.38c1.39 2.24-2.04 1.96 0 .1zm-9.18.07c.8.83 1.94-.44 0 0zm5.46.54.24.01zm-3.69.72c.3.16-.36.15 0 0zm-1.02.3-.05.17zm7.65.23c.91 1.28-1.15.6 0 0zm-2.6 1.39c.3.17-.37.15 0 0zm-11.7.25c-.13.33.25-.02 0 0zM48.8 147.56c1.16 1.76-1.98 1.3 0 0zm-2.97-4.13c-3.02 1.73-3.87-.48 0 0zm2.97-.33c1.16 1.76-1.98 1.28 0 0zm1.13 1.98c1.35 1.78-1.42 6.34 0 0zm-3.1-42.73c.59 2.32-2.33.64 0 0zm-.56 1.82c.58 2.32-2.33.64 0 0zm2.12.83c.58 2.31-2.33.64 0 0z" style="fill:#000;stroke:#000;stroke-width:.445685;stroke-dasharray:none;stroke-opacity:1"/></svg>