<svg xmlns="http://www.w3.org/2000/svg" xml:space="preserve" width="578.37" height="230mm" viewBox="0 0 153.03 230"><path d="M47.76 232.16c-4.53-.28-6.84-5.53-3.27-6.89.88-.44 4.99-4.93 6.73-7.31.07-12.2 2.66-25.36-2.75-36.77-1.89 2.56-3.44-1.76-3.5 2.88-.5 3.23-2.82 12.8-2.96 12.37.68-1.25-1.36-9.7 1.17-5.65-2.7-8.65-4.94 16.07-4.28 3.66.92-2.7.33-13.42-2.34-6.16-.52 2.89.56 13.13-.48 5.22-.02-4.63-1.6-14.25-4.8-14.56.36 9.46 2.65 19 .64 28.41 2.71 3.96-4.73 12.41-3.4 12.15-3.62-.37-7.6 6.7-3.71 6.03.9-2.9 9.82-6.96 3.47-2.7-3.67 6.24 6.36 3.47 5.28-1.75-.28-3.77 1.83-5.66 3.16-3.05-.88-5.23 1.45-10.04.56-15.45 1.32 1.9 1.91 11.56 2.38 4.77-.27-.66 2.07-11.33 1.01-2.76.21 7.26-2.13 14.64-5.95 20.9-1.72 5.6-19.8 2.73-12.36-2.17 4.05-2.85-1.17-2.62.6-1.57 8.4-2.45 9.6-12.5 9.53-19.95-.42-8.89.31-19.08-3.58-26.94-3.32-4.34-4.65-10.3-8.01-13.08.87-3.78-1.13-3.27-.46-4.21a55 55 0 0 1-2.25-9.84c-3.44.57 2.98-5.1.94-.05 2.3-2.6-2.12 8.86.92 3.72.48-2.92.16 1.15 1.02-2.5 1.63.53.62 7.26 1.86 3.08-.4 4.93 1.94 1 1.98-.78-.54 1.77 2.72 8.43 2.53 3.15-.1 2.14.43 6.76 1.22 1.78-1.15 2.88 1.13 10.69 1.38 3.33.88-2.48.8-7.69 3.5-4.36 1.34-1.47 2.96-10.51.2-4.4-2.68 1.78-6.06 6.45-2.7.89 2.66-4.64 5.07-9.09 7.09-15.11-.1-1.23-.23 3.28 1.91-.78 1.18.37-.66 3.53 1.38-.65 1.11-3.98 2.16-3.48 1.27.26.42-3.03 2.86-4.58 3.03-3.86.86-2.4 4.2-4.04 4.14-6.03 1.82 1.93-1.84-2.78 1.48-.97-1.9-3.85-2.8-9.08 3.59-6.94-7.34-4.63 10.13 2 2.21-1.44-2.7-.85-7.84-3.56-6.21-4.1-4.78-.58-1.6-6.87-3.14-5.95-4.41-1.7-7.5-1.6-4.57 3.04-2.67.5.9 2.09-1.07 4.2 4.24.45-1.8 5.64-1.48 9.55-1.85 3.35-.9 11.82-2.28 3.95-2.26-.15-4.58 4.97-7.31 4.6 1.7-4.7-1.97-6.2-5.7-7.35 1.39 1.9-2.23 3.56-.2 5.91-2.12-6.36-5.87 8.65-4.48.2-1.85-7.46-14.26-2.65-14.1-11.17-7-6.95 7.03-7.26 7.74-12.72 3.97-6.9-3.07 5.6 1.5.86 2.14-3.66-.04 4.12 3.43.62 2.5-2.83 3.58-4.69 1.62-.72 2.89.1 7.96-1.13 2.86 1.58-4.32 3.5-9.37 2.17-6.8.82-8.75-3.39-11.8 13.84-2.1 10.62 3.31-2.58 9.35 2.27 2.93 1.26-3.1-1.04-13.56.76-5.95 2.75 6.75-.77 15.22-1.62 19.69.55 1.92 1.84 5.57 4.04 3.82-.32.02-4.31 6.7.34 3.7-4.55-2.39-5.18 6.65-.07 1.93-4.9-3.62-2.21-11.04-5.02-12.56-5.97 2.8.04 12.96 5.46 10.42 1.31-2.9-2.63 3.44.38-1.28-2-4.38-2.13 3.67-8.57-1.96-6.92 1.16 7.66-9.89-.78-4.99-4.45.14-3.83 4.4-11.38 6.1-3.67.35 3.06-.02 8.89.94 2.56.96-5.66-6.85-10.12-6.36-1.72-.16 3.17-6.93 6.3-3.17 2.6 3.51-1.34 6.07-13.5 8.73-4.3 1.24 4.91 4.34 9.16 9.77 8.16-5.86 3.16 7.26 2.12 2 4.59 4.36-.22 7.2 6.74 8.3 7.87-4.16 1.66 8.1 4.66 1.83 5.23.95 3.8 7.47 1.84 4.01 5.15 3.28 1.39 6.89 3.23 5.26 4.65 5.18 2.56-4.52.37 1.43 2 4.55.42 2 5.19 6.3 7.39 5.25 5.32 13.28 5.48 20.28 6.06-3.93 2.07-13.5-3-13.41-.58 2.33 1.77-7.57.15-6.78 2.41-1.1-4.27-2.27-1.75-1.98.56-3.36-5.08.56 5.1-2.58-.6-.11 2.4-4.29.32-.48 3.77 3.7 5.2-.64.71-2.28-1.2 0 2.82-2-.68-1.69 3.8-3.12 3.57 3.14.3.87 5.08-2.99 4.46-.37 16.92 2.54 11.71-.33-.18 4.47 4.77-.37 4.1.3 2.47 1.29 1.74-1.34 2.08 1.22 4.24 7.12.58 6.15 1.04 1.54 3.7 2.62-4.39 3.34-.21 2.7-2.11 10.86-7.78 15.25-1.08 1.95 3.4 4.18 4.4 1.77-.06-2.08-2.68.96-11.28.56-3.5-.12 12.02 7.7 22.82 17.94 28.53 3.94 1.87 7.24 7.4 5.64 5.84 3.21 3.8.85 9.72 3.05 14.6-2.64 2.6-4.07 10.07-.11 5.09.46-2.9 2.92-9.73 1.37-2.67-3.48 3.48 2.62 8.42 2.5 1.9 1.68-6.73-1.56 6.45 3.97 3.08-3.77 5.86-18.42 1.28-9.88-5.48 4.56-9.22-1.82-20.32-10.34-24.66-6.58-1.63-8.02-11.7-13.4-12.34-.94 3.87-2.67-.76-2.55 3.83-4.68 7.58 6.52 14.41 1.17 22.34-3.8 7.63 3.18-4.33.71-7.66-.35-4.17-4.96-14.68-6-10.53 3.32 6.68 7.91 15.14 1.46 21.64-1.11-1.5 4.76-10.04.74-14.11-1.34-4-2.9 1.6-3.06-3.8-3.55-2.76-7.22-7.82-8.26-13.34-.47-5.25-2.88-.07-2.8-2.15-2.22-1.43-5.8 3.31-6.31 2.68-3.77-3.72-3.63 5.06-4.69-1.05-.73 1.53-3.68 2.14-3.3 6.88-1.18 7.05-2.36 9.92-2.02 17.08-1.46 7.58-.07 16.12-3.96 22.84-2.42 3.67-6.88 1.4-9.7 2.95zm-2.82-3.12c1.87-5.79-1.12 2.68 0 0zm3.4.7c2.2-4.54-1.47 1.88 0 0zm5.28-1.3c-.47-1.58-1.12 4.12 0 0zm3.42 1.5c2.5-2.6 1.48-7.48 0-7.11-.72-3.12 1.17-6.32.98-1.38 2.57-8.47-.56-17.28.5-25.9-.49-3.47 2.57-9.15 1.03-2.62-.65 5.18-.29 17.78.64 18.82 1.24-6.35-1.13-9.46 1.3-16.28 1.1-6.94 1-11.39 2.32-17.89 2.38-5.08-3.58-10.1-1.71-16.15 1.08 4.26 1.25 2.04 1.24-.7 2.97 4.69-1.93-13.9-3.32-3.25.24 2.8-3.1 9.99-1.94 3.25.77-4.04 2.75-9.76 3.67-11.07-.8-2.21-.32-12.05.88-5.24.13-3.45 4.9-6.1.2-8.67 1.03 5.97-2.67-1.8-2 3.24-2.66-4.17 4.04-4.2 1.69-8.4 4.55-3.18-6.83-9.58-5.84-3.8-1.5 2.55-6.96-1.82-7.47 3.65-2.36 4.06-8.4 7.8-7.7 12.55 2.22-4.77 1.69 3.33 2.51-1.64 2.47-3.4 3.92-3.13 5.38-6.87-.92 6.74 4.85-6.82 3.06-4.66.95 3.42 1.47-5.09 1.82.72-2.9 6.48-9.37 8.83-11.96 15.18-2.55 5.3-6.35 14.2.14 17.94 2.81 2-2.82 1.52.19 4.93 1.27-.09 2.99 5.48 7.14 4.32 1.94 7.04.06 15.5 2.12 23.06-.58 6.1 1.33 14.7-.31 18.19-1.25 3.06-1 8.22-2.12 7.4-3.18 1.19-6.05 8.87-1.26 4.15 2.6-3.14 5.22-4.86.94-.61-1.84 5.8 4.82 4.05 4.26-.68 4.95-5.16-3.2 3.6 1.61 4.85-.2 1.47 1.33.79 2 .66zm-.44-1.04c.47-.58.23.81 0 0zm-1.67-.47c-.45-2.04.64-.5 0 0zm3.45-1.93c-1.57-2.38.89.31 0 0zm-1.74.04c-.88-3.62 1.44.25 0 0zm-.11-2.6c-1.02-1.18 1.24.9 0 0zm-3.43-.14c.28-.61.19.58 0 0zm.82-1.02c.08-1.33.95-.45 0 0zm1.28-2.55c.24-.65-.03 1.05 0 0zm-2.44-.22c.75-1.72-.03.85 0 0zm5.6-.12c.26-.85.6-1.94 0 0zm-2.91-.27c-.01-1.21.64-.16 0 0zm-2.42-.67c.04-.92.36.46 0 0zm-1.6-.24c.38-.75.33-.67 0 0zm5.63-.32c.33-.3-.14.74 0 0zm-1.22-.52c.28-.61.19.58 0 0zm-4-.39c.33-.3-.14.74 0 0zm5.08 0c.33-.3-.13.74 0 0zm-4.81-1.13c-.44-.91.57-.26 0 0zm5.7-.35c-.9-3.94.39-5.2 0 0zm-5.44-.65c.33-.3-.13.74 0 0zm1.89-1.12c.11-.7.11.7 0 0zm.8-.46c.12-.7.12.7 0 0zm1.2-.58c-.82-1.43.77.68 0 0zM54 211.95c.1-.96.1.96 0 0zm1.59.06c.32-.3-.14.74 0 0zm.34-.38c-.32-1.46.6.62 0 0zm.7-.02c-2.09-2.15 1.51-.96 0 0zm-3.99-.5c.33-.31-.14.73 0 0zm.6-.39c-.65-3.84.41-.16 0 0zm1.13.48c.19-.84.54.63 0 0zm2.47-1.28c-.33-1.61 1.1-.12 0 0zm-.92-1.08c-.79-1.7.93 1.16 0 0zm4.1.07c.1-.7.1.7 0 0zm.37.14c.44-.35.17.6 0 0zm-7.2-.44c.11-.96.11.95 0 0zm.18-.96c.43-.82-.06.6 0 0zm4.54-.12c-.23-.79.47.56 0 0zm-1.87-.9c-.23-.8.46.55 0 0zm-3.07-.35c.43-.82-.06.61 0 0zm3.57-1.02c-.2-2.85.62.23 0 0zm-4.3-.54c.33-.3-.14.73 0 0zm5.62-.19c-.41-1.55.94.98 0 0zm2.53-.87c-.63-2.11.77 1 0 0zm-3.74-.48c-.25-.9.7-.07 0 0zm-2.01-1.33c.1-.84.49.58 0 0zm3.17-.18c-.85-.75.67-.24 0 0zm-1.83-3.15c-.13-1.07.66.5 0 0zm1.74.06c.41-.68.35.65 0 0zm1.49-.91c.12-.7.12.69 0 0zm1.63-.23c.04-.91.73.32 0 0zm-.44-.32c.33-.3-.13.74 0 0zm-6.15-1.06c.33-.3-.14.73 0 0zm1-.68c-.27-1.2.93-2.15 0 0zm5.3-.3c.11-.69.11.7 0 0zm-2.7-.38c.14-.8.28.86 0 0zm-3.2-.92c.33-.3-.14.73 0 0zm-2.59-1.52c-.65-1.09.7-.84 0 0zm4.18-.21c.45-1.18.18 1.08 0 0zm4.18-.49c.26-.97.4.7 0 0zm.99-.2c-.38-1.74.58 1.05 0 0zm-4.68-.64c.19-3.34.44 1.14 0 0zm-4.55-.28c-1.67-3.7.9-6.24 0 0zm6.34.01c-.04-.83.52 1 0 0zm-1.47-1.19c-.1-1.89.94-.35 0 0zm2.67-.76c0-2.46 2.05-1.46 0 0zm-2.27-.76c-.08-1.36.59.5 0 0zm.13-1.5c-.3-1.54.79.42 0 0zm2.8-.54c-.53-3.08 1.62-4.95 0 0zm2.97-.4c-1.65-2.15 1.7 1.25 0 0zm-11.7.26c-.94-.94.6-.57 0 0zm6.2-.28c.29-.85.13.81 0 0zm4.42-.82c-1.24-.62 1.47.24 0 0zm-10.88-1.44c-1.6-3.43 1.98.87 0 0zm10.14.37c.65-.62.68.4 0 0zm-3.41-.55c.49-1.15.07 1.86 0 0zm3.84-1.6c.7-.68-.13.5 0 0zm-2.5-.22c.34-.3-.13.73 0 0zm.63-.74c-2.95-5.9 2.9-1.54 0 0zm-8.76-.47c.18-1.19.02 1.6 0 0zm10.2-.11c1.23-3.64-3.8-13.66-.73-12.91-1.79 4.39 3.24 8.67.72 12.91zm-1.22-10.67c-.14-.8-.28.85 0 0zm.04-1.33v.37zm.18-1.1c-.1-1.14-.5.82 0 0zm-7.5 12.67c.44-.35.16.6 0 0zm-1.2-1.03c-.06-2.09 1.16.04 0 0zm1.04-.35c.74-3.89 1.87-2.38 0 0zm.3-.73c-.2-.58-.28.61 0 0zm4.95.31c.16-.9.55.06 0 0zm-4.55-.62c-.33-2.6.74-.45 0 0zm4.64-.35c-.79-1.53.61.19 0 0zm1.34-.23c-1.34-2.05.04-1.5.27.1zm.85.19c.33-.3-.13.73 0 0zm-9.18-.44c.7-2.94 3.03-2.28 0 0zm3.13-.64c.45-.52-.23 1.01 0 0zm-1.02-1.2c-.1-2.69.66-.82 1.37-4.73.98-4.22 3.37-4.5 3.18.3 2.43 4.72.63 2.34-1.01 1.78 1.35 4.45-1.85-3.23-1.95 2.37-.23.65-1.14.52-1.6.27zm5.86-1.33c-.68-.71-.92-.96 0 0zm-.27-1c-.17-.99-.53.41 0 0zm-1.4-1.5c-.2-3.01-1.06 1.06 0 0zm-1.28-.8c-.8-.99-.1.59 0 0zm-.3-1.24-.03.28zm.53-1.82-.02.28zm.27-.3-.03.28zm-1.03 6.12c.4-.9.77.66 0 0zm-5.2-.62c.12-.7.12.69 0 0zm-1.07-.2c-1.27-1.64 1.15.96 0 0zm11.91.1c-1.15-2.1 1.37-.33 0 0zm-11.3 0c-1.01-1.78.84-.07 0 0zm-2.53-.48c.61-1.02.3 1.63 0 0zm14.7.2c.14-.8.28.85 0 0zm-15.48-.03c-2.65-3.49-2.55-4.35 0 0zm5.79-.29c-1.2-1.14 1.45.44 0 0zm6.61.01c.14-.8.28.86 0 0zm-7.65-.68c.44-.35.3.6 0 0zm9.97-.53c.14-.8.29.85 0 0zm-11.83-.17c-.39-1.12.6.58 0 0zm3.27-.06c-.47-.77.82.34 0 0zm5.52-.15c-.67-1.44 2.1-1.63 0 0zm-4.1-.1c-.87-.85.64-.41 0 0zm-4.23-.67c.43-.36.16.6 0 0zm-1.12-.52c-.4-1.9.9.93 0 0zm-1.5-.08c.2-.58.28.61 0 0zm.92-.19c-1.43-1.12.72-.08 0 0zm3.51.06c-.45-.67.7 0 0 0zm-5.87-.27c-.63-.62.66.01 0 0zm-3.62-.75c-.58-1.18.54.48 0 0zm1.33-.2c-1.15-2.35.97 1.13 0 0zm1.94.05c.33-.3-.14.73 0 0zm16.27-.1c-.82-4.26.75 1.06 0 0zm-17-.23c-.07-.64.41.85 0 0zm-1.08-.3c-.06-.65.42.85 0 0zm3.84-.53c-.28-4.06.67 2.4 0 0zm2.23.4c-.03-.96.97 1.5 0 0zm-5.08-.37c-1.15-1.23.95.63 0 0zm-1.59-.09c.33-.3-.14.74 0 0zm5.29 0c.15-.63.37 1.2 0 0zm-3.63-.53c-.23-.79.46.56 0 0zm15.8-.27c-.44-.67.7 0 0 0zm.62-.48c.12-.7.12.7 0 0zm-10.66-1.06c-1.51-.53.53-.5 0 0zm10.4-.3c.11-.7.11.69 0 0zm-14.26-.1c-.63-.62.67 0 0 0zm1.72-.06c.18-.58.28.62 0 0zm3.89-.26c-.06-.64.42.85 0 0zm-8.3-.34c0-.84.54.6 0 0zm-1.19-.37c-.47-1.5.56.52 0 0zm8.48-.17c.28-.86.13.81 0 0zm2-.3c.38-2.56.08 1.28 0 0zm-9.41-.3c.46-.58.23.82 0 0zm-3.66-.42c-2.17-2.4.87-1.83 0 0zm2.72.26c.14-.8.28.86 0 0zm7.5-.02c-.5-1.04.77.33 0 0zm11.75-.22c-.26-1.41.75 1.1 0 0zm-17 0c-.23-.79.46.56 0 0zm6.37-.07c.62-3.1 4.4-11.22 5.74-9.84-1.22 3.66-3.63 6.67-5.74 9.84zm1.59-2.95c.23-.91-.8 1.61 0 0zm1.5-2.72c3.4-5.47-.75-.71-.68 1.42zm2.93-5.35c-.59-.3.01.75 0 0zm-6.7 9.96c.47-.55-.02.78 0 0zm-8.55-.58c-.49-1.47 1 .71 0 0zm13.8-.25c.11-.7.11.7 0 0zm-15.08-.3c-.09-.77.67.36 0 0zm15.86-.08c.14-.8.28.85 0 0zm-10.1-.08c.43-.34.28.6 0 0zm1.94-.24c.33-.3-.13.74 0 0zm12.1.13c-.86-1.24 1 .2 0 0zm-3.53-.53c.13-4.2.9.26 0 0zm-11.25-.26c-.47-.76.77.57 0 0zm1.1-.08c.52-3.37 5.75-8.52 1.61-2.76-.52.92-1.15 1.79-1.6 2.76zm-7.98-.77c.06-3.26 2.94-3.8 0 0zm16.86.04c.42-.83-.06.6 0 0zm5.54-.15c.2-1.57.33.9 0 0zm-20.88-.04c.31-.85.31.86 0 0zm2.55-1.32c-.44-1.31.88.16 0 0zm18.53-.28c-.1-.82.6.74 0 0zm-10.35-.6c-.38-.97.72-.32 0 0zm-2.99-.62c.04-3.73 6.3-11.07 7.91-10.03-1.5 2.23-5.52 8.22-2.52 1.96-1.88 2.64-3.32 5.57-5.39 8.07zm7.8-10.58c.24-.64-.8 1.24 0 0zM43 153.28c-.3-.95.73 1.15 0 0zm16.61.08c.33-.3-.14.74 0 0zm-15.54-.19c.12-1.05.9.22 0 0zm8.11-.7c.68-2.78-.13 1.96 0 0zm-5.3.21c.44-.35.17.6 0 0zm-4.6-.57c-.9-1.39.93.73 0 0zm-1.35-.47c-.09-.77.67.36 0 0zm.93-1.14c-.64-3.13 1.03 1.82 0 0zm2.71.05c.31-.65.03.7 0 0zm.37-.15c-.23-.78.46.57 0 0zm13.32.01c.31-.62.31.63 0 0zm-9.03-.15c.18-.58.27.62 0 0zm-1-.47c.54-.6.64.42 0 0zm-6.57-.68c-.3-2.1.95.37 0 0zm10.18.1c.1-.85.49.58 0 0zm-7.5-.31c.31-.63.31.62 0 0zm1.74-.15c.04-.92.36.47 0 0zm2.64-.2c-1.3-2.32.72-.12 0 0zm10.81-.26c.2-.58.28.61 0 0zm-16.8-.1c-.04-1.08.7 0 0 0zm7.23-.3c.34-1.13.93-.24 0 0zm6.64-.9c.24-.86.63.7 0 0zm-9.78-.22c.37-.7.23.62 0 0zm13.5-.02c-.5-1.37 1.05.07 0 0zm-18.52-.36c.3-3.07.45 1.18 0 0zm2.14.1c.69-2.68 1.45.02 0 0zm6.96-.3c.02-2.22 1.73-2.04 0 0zm-3.13-.25c.26-.97.38.71 0 0zm-2.1.01c.56-.53.4-.37 0 0zm6.17-.73c.82-1.05.87 1.41 0 0zm-5.88-.53c.77-1.11-.31.8 0 0zm12.7-.24c-2.37-3.24 1.2-.2 0 0zm-11.36-.78c-.1-.97.59.75 0 0zm4.22-.02c.36-.88.27.85 0 0zm7.43-.16c-1.02-2.93.88 1.1 0 0zm2.12-.3c.2-1.63.87 1.3 0 0zm-16.25.1c1.22-1.96 1.92-.53 0 0zm12.5-.55c.15-.8.29.85 0 0zm.4.18c-.05-2.61 1.4-1.08 0 0zm-7.09-1.01c.31-.63.31.62 0 0zm8.79-.53c-1.18-2.93.92.8 0 0zm-10.99-.13c.42-.82-.06.61 0 0zm9.9-.43c.72-4.7 3.06 1.52-.04-1.42-.04.34.88 2.33.04 1.42zm1.33-2.4c.07-.79-.5.5 0 0zm-10.48 1.75c2.55-1.5-1.72 1.69 0 0zm3.2.2c.03-1.61.68-.16 0 0zm4.49-.07c-.4-1.23.64.54 0 0zm3.48-.3c.5-.81.45.97 0 0zm-9.99-.18c.72-1.42 1.54-.05 0 0zm2.61-.5c.28-.61.2.58 0 0zm-1.9-.8c.9-1.64.15.97 0 0zm-7.26.09c.46-.69.4-.6 0 0zm10.93-.66c.2-.9.22 1.47 0 0zm-8.39.08c-.16-.76.6-.17 0 0zm-.03-1.55c.64-4.42.39 1.93 0 0zm6.4.31c-.02-1.03 1.7-.05 0 0zm4-.5c.19-.58.28.6 0 0zm-2.2-.85c-.14-.76.74 1.2 0 0zm2.54-1.44c.27-.61.18.58 0 0zm-9.44-.3c-.2-1.25 1.04.6 0 0zm2.82-.93c-1.22-2.63.7-2.1 0 0zm7.4-.27c-.98-1.24 1.27.82 0 0zm3.63-.24c-.56-1 .81.58 0 0zm-1-.08c.19-.58.28.62 0 0zm-.35-.7c-.06-.73.94 1.26 0 0zm-3.4-.37c.39-.62.64.45 0 0zm.97-.85h.33zm2.47-1.25c-.02-.77.58.56 0 0zm-2.84-.41c.52-.75.33.93 0 0zm-6.08-.8c.08-.8.65.35 0 0zm7.9-.94c.23-.62.37.7 0 0zm-.8-1.15c.39-.7.27.98 0 0zM43.05 228.27c1.88-4.91-1.73 4.74 0 0zm3.78.75c-.53-.57.25 1.59 0 0zm2.56-.74c-.6.79-.84 1.13 0 0zm77.47-1.45c-.4-1.97-.47 4.57 0 0zm-3.95.2c.24-3.9-1.2 5.1 0 0zm-77.3 1.33c-.2-.58-.29.61 0 0zm74.1-1.08c1.41-4.81-1.33 3.02 0 0zm-89.3.32c.18-.71-1.13 1.05 0 0zm.55-.27c.27-.63-.94 1.1 0 0zm86.75-1.22c.08-2.02-1.34 4.71 0 0zm-95.6-1.13c.01-1.44-1.89 3.82 0 0zM26 226.3c2.78-3.95-1.97 2 0 0zm.06-.38c1.03-1.24-.58 1.01 0 0zm7.13.41c.55-1-2.2 1.26 0 0zm-13.3-.78c1.7-1.74.76-1.76-.15-.05zm12.73.22c-.44-.35-.3.59 0 0zm-10.38-.46c-.18-.58-.27.61 0 0zm96.03-.76c3.26-5.05-2.94 2.12 0 0zm-85.18-.16c-1.25-.12-.23 2.98 0 0zm-10.31.23c-.67.04-.05.77 0 0zm10.7-.6c-.32-1.23-.4 3.98 0 0zm1.35.51c1.7-3.79-2.33 1.36 0 0zm24.13-1.69c-.3-4.75-.1 4.38 0 0zm-24.71-.45-.02.28zm1.87-1.21-.02.28zm-1.36-.9c1-2.52-.88 1.3 0 0zm-.34-.25c-.81-.44.34 1.53 0 0zm16.33-1.79c-.85.46-.07 1.2 0 0zm8.58-.58c-.95.67 1.18.86 0 0zm31.58-3.16c-.7.21-.32.9 0 0zm-52.33-.36c-.29-1.36-.1 1.33 0 0zm20.83-.62c-.46-1.56-.19 3.2 0 0zm-20.9-.06c-.38-.7-.24.62 0 0zm-.28-1.63c1.89-3.88-2.4 1.62 0 0zm22.82-.85c-.5-2.1.06 1.91 0 0zm30.9.17-.03.28zm.79-.27c.8-2-1.32 1.16 0 0zm-52.7.3c-.27-.62-.18.58 0 0zm52.12-1c-.45-.59.2.77 0 0zm.18-.85-.02.28zm.48-.05c-.1-1.33-.28 1.36 0 0zm.06-.86-.02.27zm-54.75-1.53v.37zm55.72-.8c-.6.17.17.76 0 0zm.67-1.89c-.37-3.2-5.13-8.53-1.55-2.53.56.2 1.23 4.97 1.55 2.53zm-35.9-.8-.03.28zm35.5-.7c.35-1.43-1 .08 0 0zm-32.97-.83v.38zm-.13-.98c0 .75 0 .48 0 0zm-2.47.19c-.28-1.37-.1 1.32 0 0zm-19.78-2.05c.07-.79-.5.51 0 0zm19.84-1.86-.02.28zm-19.5-.64c-.65-.49.23 1.95 0 0zm2.77-.27-.02.28zm48.21-.03c-1.03-1.12.24 1.16 0 0zm-28.14-.97c-.52-4.44-.29 4.01 0 0zm28.41.44c-.76-1.42.56 1.9 0 0zm-31.08-2.48-.02.28zm28.17-.27c.87.04-1.54-.3 0 0zm-28-.24c-.48-.58-.1.84 0 0zm27.25-.95-.31.23zm-.53-.45c-.43-2.16-.12 1.42 0 0zm6.15-.86c1.38-1.98-.15-1.58-.29.05zm-7.01.33c-.49-.1.74.82 0 0zm.57-.47c-1.13-1.9-2.36.99 0 0zm3.65-.21c-1-.52 1.13 1.26 0 0zm-49.25-.53c-.38-.62-.38.61 0 0zm3.25-.58c-.28-1.9-.1 2.21 0 0zm-7.15-1.1c-.38-7.34-1.02 4.15 0 0zm25.8 1.18c-.29-.86-.13.81 0 0zm.98-.45c-.6-.93.13 1 0 0zm29.45-.96c-.68-1.62-.87 4.17 0 0zm.65.3c1.3-4.2-1.22 1.85 0 0zm-49.9-.06-.03.28zm43.67-.03c.43-1.6-1.14.26 0 0zm-46.71-.4c-.5-.58-.11.84 0 0zm42.5-.1c-.68 0 .46.66 0 0zm.49-.11c-.13-1.56-.16 1.97 0 0zm-.6-1.1c-.98-3.44-.13 3.12 0 0zm-39.9-.14c-1.1-.68.76 1.91 0 0zm1.21.21-.02.28zm-7.44-.83c-.58-.51.66 1.26 0 0zm44.48-.84c-.47-3-.08 2.04 0 0zm-44.5-.43c.63-2.5-2.18-2.49 0 0zm35.25-2.41c-.17-4.96-8-1.9-1.55-.46.78.94 2.79 3.92 1.55.46zm-8 1.8c-.42-.67-.35.66 0 0zm-28.86-.84c.32-2.86-.78.33 0 0zm28.85.34c-1.7-2.5-.3.95 0 0zm2.22-.32c-.67-.43-.52-.34 0 0zm-2.2-.38c-.58-.75.1.75 0 0zm-29.72-1.1c-.89-.76 1.26 2.26 0 0zm.92.46c.61-2.93-1.64-.71 0 0zm34.68.18c-.91-1.09-.2.6 0 0zm.99.1c-.7-.37-.54-.28 0 0zm.5-.28c-1.4-1.53-1.57.25 0 0zm-23.91-.24c-.33-2.54-1.03-.48 0 0zm21.95-.12c-.78-.65.4.75 0 0zm-31.98-.73c-.96.67 1.17.86 0 0zm35.32.75c-.36-.62-.53.4 0 0zm-36.94-.31c-.16-.6-.44.35 0 0zm.16-.42c-.58-.03.73.62 0 0zm32.77.01c-.56-1.2-.8.8 0 0zm8.3-.85c4.07-7.14-3.39 2.8 0 0zm-40.7.5c.18-1.9-1.9.73 0 0zm38.2-.15c-.47-.58-.23.81 0 0zm-10.84-.17c-.33-.53-.07.89 0 0zm12.5-.36c-1.1-.57-.54 1.41 0 0zm-1.97.13c2.45-4.28-4.25.64 0 0zm-41.45-.47c.28-2.51-.67 1.07 0 0zm43.32-.12c-.56-1.06-.74 1.39 0 0zm4.59-1.56c-.27-3.88-3.33 4.03-.51-.35.24.53-1.3 3.68.51.35zm-.3-1.24c.54-.5.33-.3 0 0zm-45.57 2.52c-.7-.46.96 1.24 0 0zm-.35.12c.06-1.63-2.16-1.7 0 0zm-1.03-.4c-.17-4.95-4.77-1.82 0 0zm-.51-.83c-.23-.79.46.56 0 0zm50.34-1.58c.63-6.15-3.62 6.65 0 0zm-15.33 1.9c-.28-.62-.2.58 0 0zm4.1.04c.16-2.22-3.9.26 0 0zm4.08-.55c-.39-1.19-1.82 2.33 0 0zm-30.92-.13c-.58-.04.73.62 0 0zm4.76 0-.03.28zm31.63-.75c-.76.2-.2 1.46 0 0zm3.75-.47c2.52-4.2-3.58 3 0 0zm-9.58.5c.72-2.57-2.05 1.78 0 0zm-25.1-.6c-.24-1.95-.63 1.36 0 0zm35.75.15c1.01-.76-2.22.73 0 0zm-55.77-.55c-.9-1.53.49 1.23 0 0zm54.02-.57c-.4-1.35-1.13 2.72 0 0zm2.17.38c.26-.63-.94 1.1 0 0zm-55.53-.45c-.93-2.88-6.73-10.08-3.42-2.96.75 1.3 1.76 2.85 3.42 2.96zm-1.1-.74c.33-.3-.14.74 0 0zm-1.95-2.64c.18-.58.28.61 0 0zm-.13-1.5c-.45-.67.7 0 0 0zm22.55 5.08c-.72-1.22-1.01-.09 0 0zm-11.64-1.07c-.91-.87.37 1.26 0 0zm10.33.22c.28-3.4-.77 1.14 0 0zm1.36.08c-.14-.81-.28.85 0 0zm-2.68-.8c-1.9-4.28.78 2.7 0 0zm38.57.42c-.44-.35-.3.59 0 0zM32 173.8c-.58-.99.25 1.08 0 0zm11.25.16c-.28-.61-.19.58 0 0zm5.24-.19c-.49-.1.74.82 0 0zm39.2.12c-.41-1.07-1 .96 0 0zm-56.97-.28c-.6-.96.16 1.06 0 0zm10.34-.25c-1.35-2.1.97 2.1 0 0zm9.15.45c-.28-.61-.19.58 0 0zm18.27-.6c-.19-.58-.28.6 0 0zm-28.32-.83c3.87-.93-5.18-6.05.37-5.3-.8-3.28-2.64-7.77-1.99-2.11-3.29.56 1.56-6.89-1.25-5.95-1.22-.16-4.63 2.87-2.64 6.15-4.23-1.22 1.58 9.55-.3 2.14 1.98 5.1 3.77 2.57 4.04 2.1.28.28 1.6 4.74 1.77 2.97zm-4.86-4.12c-.57-1.19.54.48 0 0zm.59-2.27c.18-2.43.43 2.28 0 0zm.23-1.48c-.4-3.05.6 1.2 0 0zm-1.09-1.57c-.57-1.19.55.48 0 0zm.25-.41c-2-.5 1.15-.5 0 0zm.47-2.09c.63-1.18-.26 1.03 0 0zm46.26 12.2c.8-1.45-1.06 1.42 0 0zm-45.72.1c-.28-.6-.19.59 0 0zm-5.89-.13c-.23-1.28-.6.5 0 0zm36.52-.55c-.65-1.16.46 1.32 0 0zm.33-.74c-.37-1.3-.91.7 0 0zm-34.84-.55c-.85-1.33.65 1.93 0 0zm33.36-.17c-1.26-3.23-.14 1.8 0 0zm.24-.35c-.17-.6-.44.36 0 0zm-40.04-1.38c1.81-3.1-1.75-1.36 0 0zm40.9-.91c-1.77-1.7.76 1.24 0 0zm-39.84-.07c-.7-.9.5 1 0 0zm14.48-.4c-.4-4.94-2.39-4.93 0 0zm23.77-.88c-1.4-1.76 1 2.86 0 0zm-33.27.21c-.6-.75.89 2.35 0 0zm-4.58-.43c-1.23-1.32.46 1.89 0 0zm3.5-1.17c.88-3.21 1.37-11.4-.81-3.81-.05 1.14-.76 3.47.82 3.8zm.3-5.31c.23-.65-.03 1.05 0 0zm-.92 5.62c-.45-.6.2.76 0 0zm-5.93-1.29c-.24-3.75-1.44.03 0 0zm.8-.6c.15-3.17-.7-1.43-.16.37zm8.86.49c.15-2.04-.35.55 0 0zm-6.26-.18c.07-.8-.49.5 0 0zm4.24-.79c-1.02-1.3 1.33 2.8 0 0zm33.64-1.53c-2.11.05 1.46 3.03 0 0zm-43.91.99c1.85-3.14-.48-7.62-.36-1.76-.1.1-.54 4.02.36 1.76zm-.05-3.09c-.33-2.6.75-.45 0 0zm2.5 3.31-.02.28zm2.32-.38c-.53-.4.8 1.85 0 0zm-2-1.4c.06-5.24-2.11 3.17-.49-1.6-.02.6.87 4.83.5 1.6zm34.13.92c.53-2.02-.41-2.57 0 0zM38 161.93l-.03.28zm-13.96-.44c-.9-.5.24 1.2 0 0zm3.36-2.2c-.17-5.8-5.03-1.41-1.98-.81 1.35-.61 2.08 4.59 1.98.81zm-1.71-1.57c.02-.7.3.66 0 0zm-.42-1.08c-.67-1.28 1.2.76 0 0zm4.74 4.41c-.31-.62-.31.62 0 0zm5.29-.8c1.54-2.86-1.62-2.07 0 0zm-7.15-.52c-.7-.26.85 1.47 0 0zm10.25-.23-.02.28zm27.3-.92v.37zm-37.13-1.14c-.93.48.56 1.82 0 0zm5.45-.07c2.87-5.37-2.66.72-.16.12zm-12.15-1.45c-1.45.58 0 2.95 0 0zm10.92.58c-.67-2.3.02 4.46 0 0zm-12.24.62c3.1-3.5-1.47-6.15 0 0zm44.44-.7c.1-1.1-.48.73 0 0zm-41.85-.73v.38zm15.2-.21c-.72-.77.48 2.1 0 0zm-13.66-.32c-.55-2.65-.1 1.82 0 0zm41.2.23c2.52-2.65-3.1-1.94 0 0zm-.12-.5c.33-.3-.14.73 0 0zm-30.32-1.08c1.9-3.7-1.57-1.07 0 0zm-.89-.05c-.69.32-.08 1.8 0 0zm4.28.57c.41-2.51-1.38 1.54 0 0zm26.17-.4c.75-2.53-1.05-1.42-.36.18zm-.26-.8c-.23-.78.46.57 0 0zm-1.79.89c-.48-.1.75.82 0 0zm-26.52-1.93c1.15-2.3-1.12.85 0 0zm-4.68-.08c.14-.77-.75 1.2 0 0zm8.08-.3c-.14-.81-.28.85 0 0zm-.76-.26-.02.28zM66.03 150c-1.07-.87.98 3.2 0 0zm-33.48.55c2.23-2.15-1.98.9 0 0zm6.71.13c-.48-.1.75.82 0 0zm-7.55-.14-.03.28zm5.43-.25c.7-2.88-1.85-1.04 0 0zm-3.56-.28c3.38-1.76-.87-1.58 0 0zm2.77-.44c-.33-.53-.07.9 0 0zm1.65-1.13c-.58-.45-.34-.26 0 0zm24.54.86c-.23-2.89-.82.74 0 0zm0-.94c-.3-.85-.14.81 0 0zm-27.65-.07c-.18-.58-.27.61 0 0zm32.93-.28c.67-2.67-1.68.14 0 0zm1.76-.37c.08-3.97-2.27-2.96 0 0zm-34.88.28c1.17-1.57-1.05.4 0 0zm5.14-1.34c-1.68-.07.65 2.75 0 0zm-1.4 1.1c-.28-.61-.19.58 0 0zm23.64-.62c-.78-1.94.03 2.03 0 0zm1.12.16c.98-1.4-1.44-.46 0 0zm3.08.08c-.3-1.1-.3 1.1 0 0zm-3.85-.41c-.7.07.65.95 0 0zm5.53-1.6c-.58.98.66 2.27 0 0zm-4.29.42c-.97-3.9.43 3.8 0 0zm-24.74.73-.02.27zm.06-.47c2.68-2.74-1.3-1.72 0 0zm1.32-1.23c-.39-2.44-.32 4.6 0 0zm33.94.96c-1.01-1.36.06 1.01 0 0zm-37.41-.46c-.54-.64-.2.83 0 0zm1.04-.02c2.85-1.88 1.62-7.61.95-2.13-.3.63-2.1 1.37-.95 2.13zm32.82-.16c.08-2.68-1 .48 0 0zm-.7-.38c-.59-3.39-1.69-.09 0 0zm-32.8-1.21c2.48-3.52.14-5.89-.88-1.05-.48.78.66 3.35.87 1.05zm5.76.51c-1.05-1.71.67 3.04 0 0zm-2.2.24c-.49-2.4-.01 1.95 0 0zm25.92.46c.43-1.19-.8-.1 0 0zm2.41-.41c-.16-.6-.43.36 0 0zm-28.37-1c-.31-.62-.31.62 0 0zm32.32-.15c-1.02-.94.63.97 0 0zm2.76-.04c-.48-.1.75.82 0 0zm-34.79-.26c.8-2.72-.65-2.1 0 0zm39 .3c-.58-.87-.57.61 0 0zm-11.55-.3c-.58-1.5.04 1 0 0zm1.57 0c-.64-1.2.27 1.03 0 0zm7.79-.04c-.58-.03.73.62 0 0zm-4.44.06c-.18-1.63-.84.4 0 0zm-8.82-.98c-1.05-1 1.44 2.36 0 0zm12.7.58c-.66-.42-.52-.33 0 0zm1.93-.07c-1.78-2-1.32.86 0 0zm-6.29-.15c-.1-2.72-1.42.13 0 0zm-4.15-1.54c-1.3-5.11.61 4.03 0 0zm-1.13 1c-.9-1.02.34 1.04 0 0zm11.78.23c-.88-1.11-.25.6 0 0zm-.93-.17c-.32-1.55-.69.32 0 0zm-1.09-.05c-1.35-2.42-1.47.24 0 0zm-38.49-.32c-.33-.53-.07.89 0 0zm28.95-.01c.27-2.67-.96-1.2 0 0zm-3.3-.14c-.77-.65.4.75 0 0zm11.51-.07c-.27-.62-.18.57 0 0zm-4.48-.76c-5.45-5.93 2.2-2.93 1.4-2.34-1.88-2.85-7.37-10.45-7.1-3.54.3 3.25 3.17 4.58 5.7 5.88zm-2.36-5.27c-.49-.87.74-.05 0 0zm-2.2-1.6c-1.79-1.67-.28-1.58.28 0zm.61-1.49c0-.58.6.82 0 0zm10.84 8.8c-.98-.77.37.83 0 0zm-11.38.05c.28-1.18-.77.3 0 0zm3-.42c-1.45-1.58.78 1.27 0 0zm10.4.23c-2.33-.88.33.56 0 0zm-35.28-.76c-.07-.97-.91 2.91 0 0zm22.9.04c-.66-.5.97 1.2 0 0zm-26.58-1.8c-.71-1.5-.13 2.79 0 0zm25.48.62c-1.7-2.9-1.1.1 0 0zm-25.08-1.06c-.66.18.26.79 0 0zm29.52.23c-.55-.85-.09.5 0 0zm-4.97-.23c-.4-.93-.14.83 0 0zm-26.56-.69c-.7.1.35 1.39 0 0zm3.44.28-.02.28zm.5-.73c1.21-3.53-1.66 1.48 0 0zm18.15-.62c-1.67-4.07.05 2.95 0 0zm-17.62.19c-.33-.56-.39.59 0 0zm16.68-.32c-.17-.99-.53.41 0 0zm10.44-1.27c-1.94-2.78.18 1.31 0 0zm-6.56.24c-.24-1.84-3.21-.3 0 0zm-19.67-.35c-.19-.58-.28.62 0 0zm27.04-.5c-.73-.74-.86-.88 0 0zm-6.77-.6c-.7-2.98-1.1.33 0 0zm4.5-.2c-.65-2.59-1.5.28 0 0zm-4.43-1.34c-.55-.53-.38-.37 0 0zm4.82-.16c-.66-.43-.51-.34 0 0zm-22.77-1c-.21-1.69-.26 3.34 0 0zm-25.82-.53c-.52-2.45.13 2.98 0 0zm49.3.89h-.33zm-2.85-.17c-.78-2.32-.99-.33 0 0zm-.53-.19c-.28-.61-.2.58 0 0zm-45.18-1.06c-.53-1.46-.56 2.52 0 0zm44.45.19c-.7-.47.96 1.24 0 0zm-34.73-.8c1.97-3.66-2.6-1.65 0 0zm34.12.63c-.6-1.62-.93.56 0 0zm-32.08-.4c-.29-.86-.13.8 0 0zm.35-.6c-.16-2.29-.41 1.8 0 0zm21.44-1.03c-.68-3.69-4.01-3.06-3.55-2.53-.68.29 3.2 4.49 3.55 2.53zm8.81.67c-.97-3.15-3.87-.31 0 0zm-40.33-1.2c0 .65 0 .49 0 0zm40.74.5c-.18-.53-.66.42 0 0zm-43.72-.52c-.28-.53-.28.53 0 0zm-2.34-.5c-.61-2.06.23 1.6 0 0zm4.85-.17c-.49-.1.74.82 0 0zm40.94.05c-2.43-2-1.14.5 0 0zm-40.6-.34-.02.27zm7.81-.02c-.37-.5-.2.65 0 0zm36.26.02c-5.5-1.78-3.63 1.05 0 0zm-48.56-.48c.05-2.8-1.56.24 0 0zm35.72-.31c-.36-.63-.53.4 0 0zm-28.18-.9c-1.1-2.15-2.96-.06 0 0zm-.57-.5c-.03-.86.69 1.13 0 0zm30.11.5c-1.07-3.1-1.17.63 0 0zm-39.53-.1c-.55-1.73-2.78 1.5 0 0zm-2.05-.31c-.5-.77-.57.59 0 0zm21.65-.11c.26-1.17-1.1.05 0 0zm17.9-.49c-2.2-5.98-6.27.4 0 0zm-.64-.24c-.54-1.37 1.31 1.73 0 0zm8.77.75c-.38-.47-.23.4 0 0zm-13.62-.12c-.55-.53-.38-.37 0 0zm9.17-.1c-.38-.7-.24.63 0 0zm1 .02c-3.82-3.02-4.68.25 0 0zm-8.56-1.15c-.16-.6-.44.36 0 0zm-10.96-.49c-.59-.5.65 1.26 0 0zm15.07.32c-.38-.47-.23.4 0 0zm-4.24-.6c-1.05-1.2.22 1.07 0 0zm3.6.16c-.52-.43-.76.82 0 0zm-13.24-.25c-.59-.29.01.75 0 0zm-27-.4c-.67-2.43-.4 1.82 0 0zm45.03-.04c-1.81-1.43.5 1.06 0 0zm2.3.16c-1.53-1.62-2.92.1 0 0zm-6.35-.25c3.55-1.7-9.47-4.17-2.27-.86.62.65 1.46.66 2.27.86zm-.53-.97c.24-.63.38.7 0 0zm-33.93.93c-.98-.35-1.15-.41 0 0zm-11.25-.53c-.36-.63-.53.4 0 0zm8.8-.34c-.38-.47-.23.4 0 0zm22.47-.48c-.77.3.73.8 0 0zm17.6.33c-2.27-1.4-4.18-.7-.42.22zm-3.66-.46c-.38-.47-.23.4 0 0zm3.4-.15c-1.78-.98.68.77 0 0zm-4.5-1.12c-.55-.85-.09.5 0 0zm5.79-.72c-.75 0-.5 0 0 0zm-54.24-.95c-.2-1.13-.1.95 0 0zm50.39-.22c-.16-.6-.44.35 0 0zM8 115.97c-1.35-.22-.27.7 0 0zm-.81.1c-.51-.73-.4.7 0 0zm51.13 0c-.9-1.08-.2.62 0 0zM8.39 114.3c.25-3.65-5.34.23-.51-.07.03.12.7.61.51.07zm-2.98-1.04c.98-.93-.4.67 0 0zm36.78.85c-.3-.62-.3.62 0 0zm9.37-.76c-1.66-1.98-.25 1.62 0 0zm3.35.29c-1.43-2.31-1.83.86 0 0zm-.45-.69c-1.56-.88.68.8 0 0zm2.99-.4c-2.28-2.25-2.85-.18 0 0zm-4.15-.03c-.83-.5-1.46-.88 0 0zm-.97-.91c2.92-3.44-7.18-2.98-1.17-1.45-2.86-.78.24 1.66 1.17 1.45zm-1.63-2.2c-.1-.77.66.36 0 0zm-.08-.61c.54-.4.36.62 0 0zm-8.83 2.75c-.25-1.24-.71.4 0 0zm-19.4-2.41c.42-3.02-2.79.48 0 0zm.95-.38c.19-1.41-2.42 3.62 0 0zm25.4.66c-.93-1.42-.68.65 0 0zm-7.7-.85c-.42-4.13-.86 1.57 0 0zm2.62.24c-2.07-1.04-1.41.78 0 0zm-1.94-.47c.36-1.87-1.79.51 0 0zm8.69-.46c1.06-1.44-2.75.88 0 0zm-8.09-.2c-.17-.54-.66.4 0 0zm12.27-.23c-3.25-1.72-3.96 1.15 0 0zm-12.8-.25c1.2-1.7-1.6.57 0 0zm7.3-.38c-.4-.69-.52.74 0 0zm-11.85-1.37c-.2-.58-.28.62 0 0zm8.68 0c3.45-1.53-2.78.31 0 0zm-8.4-.55c.67-1.47-1.98 1.1 0 0zm7.75.04c-.18-.53-.66.41 0 0zm-5.9-.48c1.34-1.45-.82.07 0 0zm-5.15-.4c.56-3.22-3.05-.7 0 0zm11.05-.32c-1.55-2.07-2.74 1.7 0 0zm3.6.1c-2.46-1.32-4.2 1.5 0 0zm1.18.15c-.38-.47-.23.4 0 0zm-.53-.15c-.38-.47-.24.4 0 0zm-6.42-.64c-.65-1.55-1.43 1.5 0 0zm-4.92-.56c.24-.8-.87 1.59 0 0zm3.6-.23c1.7-1.15-3.7 1.46 0 0zm.1.22c-.37-.47-.23.4 0 0zm1.21-.16c-.38-.47-.23.4 0 0zm-10.8-.68c1.3-3.16 1.8-14.7-.85-6.13-.7 1.95-1.14 4.73.84 6.13zm-.3-1.6c.44-.42.2.35 0 0zm.96-2.01c.5-1 .6.15 0 0zm10.53 3.16c4.95-.95-2.9-.43 0 0zm-4.41-.47-.02.27zm2.99-.13c-.62-.62-.6.82 0 0zm-5.63-1.5c.95-1.32-1.45.2 0 0zm-.53-.8c2.66-4.11-.9-4.31 0 0zm2.37.15-.03.27zm.7-.06c-.49-.98-.31 1.48 0 0zm-2.27-.3c-.14-.8-.28.86 0 0zm-8.23-.92c.28-1.52-1.22 1.78 0 0zm9.93.21-.02.28zm-.43-1.7c-.73-1.4.2 1.9 0 0zm-2.48-1.48c-.73-1.8.32 1.62 0 0zm.53-.4c.27-2.98-.7 2.34 0 0zm-.64-1.09c.27-2.42-.77-1.48-.2.16zm45.23 133.7c-8.47.81-2.11-8.47 2.75-8.01 5.64-5.11 6.08-14.9.83-20.44 8.22 5.15 1.24 18.67-.46 21.44 2.79-2.76-10.53 4.4-4.46 1.81 1.35-2.87-1.8 6.13 1.77 2.01 1.24-3.14 8.26-5.05 2.78-1.43-3.52 7.36 7.7.53 5.57-4.16 1.25 7.4 4.33-7.36 2.57.94-.25 5.83-6.05 8.92-11.35 7.84zm-3.15-1.56c2.37-4.8-.43 2 0 0zm3.5.76v.37zm-1.26.24h-.32zm.96-.74c-.33-.53-.08.89 0 0zm7.17-.26c-.02-1.39-1.05.94 0 0zm-5.52-1.42c-1.89 1.07-.82 1.68 0 0zm4.45 1.15c.26-1.05-.62 1.2 0 0zm-10.92-.36c2.57-1.6-.14-1.56 0 0zm4.77.36c-.2-.58-.28.62 0 0zm8.11-.26c2.19-.47-1.02-1.83 0 0zm.18-1.88c-.88-1.05.02 1.9 0 0zm1.3-1.08-.02.28zm39.91 3.88c-.94-5.09-3.5-9.91-.99-8.51.56 2.8 1.12 5.64 1 8.51zm-.88-8.26c-.67-1.66-.03.98 0 0zm-.3 8c.1-1.15.5.81 0 0zm-3.91-.17c.17-1.85.46-.09 0 0zm-93.9-.16c-.36-.71-.29-.57 0 0zm13.75 0c-.16-.75.6-.16 0 0zm-14.72-1.07c.33-.3-.13.74 0 0zm50.01.14c-.85-1.13.62-.33 0 0zm5.33-.35c.9-1.28-.37 1.01 0 0zm.32.1c1.84-1.48.18.86 0 0zm42.77-.33c-.28-.87.92 1.1 0 0zm.28-.24c-.23-.79.46.56 0 0zm-.67-.6c.19-.57.28.62 0 0zm.67 0c-1.78-2.48 1.16-1.41 0 0zm-5.9-1.13c.27-1.43.46 1.17 0 0zm3.05-.49c-1.54-1.57 1.82.28 0 0zm-94.26-.71c.55-.53.38-.37 0 0zm59.08-1.8c-.53-3.85 1.21.83 0 0zm-58.71-.1c-.07-2.3.34 1.65 0 0zm93.47.2c.33-.3-.14.73 0 0zm.6 0c-.38-1.13.6.57 0 0zm-39.13-.75c.2-.93 0 1.32 0 0zm35.48-.05c-1.42-2.8 1.4-.37 0 0zm-89.98.05c-.18-1.16.62-.23 0 0zm-1.88-.31c.84-2.96.9-.72 0 0zm115.45-.19c-.37-1.8 1.8-.63 0 0zm-56.2-.26c.55-1-.07.77 0 0zm33.46-.01c-.42-1.6.64.76 0 0zm-37.22-.26c.42-.83-.06.6 0 0zm-53.35-.1c-.02-.74.58.3 0 0zm58.74-.55c-.53-2.93 1.63-1.32 0 0zm-3.2-.13c.56-.52.4-.36 0 0zm58.11-.48c.33-.3-.13.73 0 0zm.59.02c2.24-5.38 1-12.7-3.4-16.65 3.3 4.61 1.42 9.88 1.1 12.48-1.5-2.3-2.72-6.22-3.64-3.46-2.44-5.3-9.56-6.53-12.25-10.6-2.2-4.67-4.4-3.12-4.8-4.3-.9-3.01-3.48-5.64-3.39-4.77-1.2-3.68-4.13-7.43-2.4-1.15-.45 7.68 8.85 9.87 9.17 16.91.31 3 .68 13 .06 4.77 1.46-9.82-8.83-13.7-10.14-22.41.16-5.38.49-8.94-.25-14.12 2.78 3.69-2.25-4.75-.7-6.14-.88-3.28-6.41-7.26-1.84-5-.54-3.46-2.96-10.23-5.24-11.82-.98-3.05-3.14 1.79-2.43.49-2.31-4.39-11.28-.12-5.57-3.47-3.9-1.41 5.84-1.48 7.22 1.65 4.93 1.7 3.92 4.63 9.08 7.38 2.78 4.23-2.9 2.07-3.43-.4-1.22 4.35 5.95 8.47 5.61 9.12-.25 2.96-4.16-3.83-2.66 1.44 3.1 3.65 5 7.2 4.6 11.95 1.98.95-.57-4.42 1.24-.03.66 3.28 3.75 10.5 4.7 9.5-1.13-3.9-.7-7.13 1.82-1.47-5.13-3.98 2.7 9.01 2.9 4.76.59 4.26 2.33 3.5 3.69 4.94-1.41-3.25 5.32 6.44 1.62-.23 1.5 3.22 6.06 6.86 4.95 1.54 1.9 2.16-4.36-8.2.22-1.62 3.01 2.6 7.49 6.84 3.46.5-2.41-2.91-6.76-6.46-.72-2.66 1.88.63 2.48 2.14.27 1.52.37 1.7 5.13 7.64 2.35 6.2 2.1 6.4-3.56-4.29-1.09 2.37 1.14 3.41 3.37 8.54 1.33 6.04.15 2.33-.33 4.7-1.44 6.75zm-2.4-6.13c-.7-4.41-4.88-4.5-.85-.56.05.1 2.02 3.5.85.56zm-3.64-3.49c-2.83-4-2.33-.44.4 1.35zm2.23-1.22c-.46-1.74-1.03.4 0 0zm-3.31-.85c-.27-.86-1.42-.1 0 0zm1.3-.4c-.28-.61-.18.58 0 0zm-.13-.46c-.28-.61-.19.58 0 0zm-5.62-.79c-.9-1.31-3.54-3.18-1.02-.86zm1.86-.2c-.64-3.01-2.13-.55 0 0zm-.49-.06c.39-.79-.07.99 0 0zm2.37.16c-.17-1-.52.4 0 0zm2.39-.62c-.58-1 .26 1 0 0zm-2.87-.09c-.33-.53-.07.9 0 0zm-.32-.18c-.63-.54-.56-.48 0 0zm-.87-1.25c.42-1.08-.9 0 0 0zm-5.83-1.44c-.38-2.36-2.65-2.57 0 0zm-.4.56c-.1-1.56-.9-.08 0 0zm4.87-.11c-.53-.98.05.8 0 0zm9.06-.9c-1.94-3.05.44 1.88 0 0zm1 .02c-1.32-2.5-.32.82 0 0zm-11.44-.19c-.29-.85-.14.81 0 0zm-2.97-.22c-.58-1 .26 1.01 0 0zm1.29-.05c-.98-2.26-.4 1.07 0 0zm-3.27-.85c-.33-2.27-.9-.35 0 0zm5-.07c-.6-.95.16 1.06 0 0zm9.86-.01c-2-1.47.65 1.41 0 0zm-1.67-.99c.73-.91-.74.28 0 0zm-15.07-1.07c.12-3.6-1.74.6 0 0zm2.8-.06c-.5.38.86.95 0 0zm-2.12.14c.2-.67-.73.49 0 0zm3.47-.48c-1.1-2.93-1.37-.26 0 0zm-7.76-1.57c-1.64-4.65-.15 2.26 0 0zm.93-.07c-.16-.6-.43.35 0 0zm.81-.98c1.44.27-1.29-1.05 0 0zm-.87-.02c.35-1.64-1.54.15 0 0zm-2.12-1.45c-.07-1.12-1.3-3.13-.4-.87zm5.93-1.79c.27-1.53-.78-.07 0 0zm-8.9-2.34c-1.43-1.04 1.86 4.02 0 0zm.95-.02c-1.13-4.98.33 3.49 0 0zm5.4 1.12c-.62-2.37-.95-1.93 0 0zm-4.01-.27c-.78-.3.27 1.18 0 0zm-2.62-2.56c-1.2-.49.57 1.94 0 0zm-1.06 0c-.39-1.48.02 1.09 0 0zm4.62-1.97c-.41-1.88-.24 2.33 0 0zm-1.92-1.4c.28-4.38-.91 1.39 0 0zm2.11-.9c-.57-2.68.02 2.45 0 0zm-1.11-.62c-.48-.1.75.82 0 0zm-1.26-1.2-.03.28zm-.27-.72c.21-2.37-1.06.62 0 0zm-2.75-9.47c-.49-.1.74.82 0 0zm-1.5-3.3c-.4-.68-.34.64 0 0zm2.66-.78c-1.05-.34.94 1.15 0 0zm-.87-.74c-.93-1.44.7 1.55 0 0zm-2.5-1.33c-.95.05 1.23 1.33 0 0zm.47-.53c-.58-.03.73.62 0 0zm1.45-4.75c-1.78-1.32.4.8 0 0zm-1.2-.22c.59-2.58-3.14.47 0 0zm-.47-2.23c-9.07-4.13 1.12 1.86 0 0zm-8.67-4.02c-.5-1.58-.8 0 0 0zm-1.7-3.34c-4.22-1.63 2.79 1.53 0 0zm-1.64-.05c-2.84-2.35-1.07.97 0 0zm-.24-.54c-2.37-.86-4.29.02 0 0zm20.75 69.03c-1-2.32.83.9 0 0zm-35.34-.15c.46-.55-.02.79 0 0zm37.41-.22c.19-.57.28.62 0 0zm19.34-.84c-1.35-4.23.9.91 0 0zm-113.9-.24c-.75-1.3 1.12-.14 0 0zm95.31-.23c-1.13-.64.56-.72 0 0zm-.88-.36c.28-.61.19.58 0 0zm-.47-.23c-.48-1 .7.82 0 0zm.33-.2c-1.83-1.89.46-1.16 0 0zm-92.13-.4c.24-.66-.03 1.04 0 0zm87.96-.3c.17-1.2.01 1.6 0 0zm-31.69.33c.42-.82-.06.6 0 0zm-55.46-.56c-.69-2.68.67 1.56 0 0zm-1.56 0c.3-2.58.44.6 0 0zm2.2-.04c.36-.92.28 1.86 0 0zm109.89-.36c-.35-2.72.76 1.6 0 0zm-113.64.07c-.23-2.44.88.25 0 0zm62.52-.37c.33-.3-.14.73 0 0zm-61.89-.23c-.42-3.38 1.03-1 0 0zm93.62.2c-1.66-.33 1.2-2.93 0 0zm-4.4-.5c-.78-2.11 1.04.72 0 0zm1.19-.51c-2.17-3.33.43-.18 0 0zm-88.74.22c-.53-1.4 1.06-.14 0 0zm57.15-.46c.12-.7.12.7 0 0zm33.98 0c.44-.37.16.59 0 0zm-90.12-.3c-.29-.97.72.46 0 0zm54.48-.16c.3-1.42.17 1.04 0 0zm57.95.08c-1.14-1.86 1.02.26 0 0zm-111.76-.36c.04-2.25 1.35-.25 0 0zm89.7-.44c1.74-5.17-6.98-12.3-6.56-13.24 3.08 3.84 8.96 6.87 6.56 13.24zm.24-4.93-.02.28zm-3.3-3.98c-1.99-4-4.7-3 0 0zm23.9 9.32c-.96-4.45 1.29.97 0 0zm-52.43-.77c-.11-2.28 1.72-2.24 0 0zm27.5-.12c.15-1.6.65 2.5 0 0zm27.77-.24c-.84-4.88.47 1.34 0 0zm-60.64.53c-1.2-2.56.64-1.08 0 0zm58.42-.65c-1.76-4.6-.73-5.14 0 0zm-57.85.5c-.75-2.4 1.11-.21 0 0zm33.06-.08c.14-.8.28.86 0 0zm-30.38-.05c-.02-.75.58.29 0 0zm34-.62c-.6-3.14.91 1.99 0 0zm-34.77-.17c-.55-2.64.69 1.65 0 0zm33.36.27c-1.17-1.2.8.24 0 0zm-89.87-.2c.33-.3-.14.74 0 0zm86.73-.14c.14-.8.28.86 0 0zm24.57-.03c-.07-.64.41.85 0 0zm-21.35-.17c-2.14-1.41.23-1.28 0 0zm-35.22-.4c.11-.84.5.58 0 0zm.94-.3c-.9-2.2.8.94 0 0zm4.95.3c.09-2.52 1.28-.33 0 0zm-4.68-.8c-1.55-4.33 1.06 1.09 0 0zm-2.41.11c-.62-1.93.8 1.32 0 0zm32.7.27c-1.82-.56-.37-4.95 0 0zm-81.63-.17c-.85-1.72 1.11.09 0 0zm109.59-.82c-1.53-4.5 1.19 1.65 0 0zm-53.23-.11c1.15-2.57-.6 2.02 0 0zm27.36.14c.25-2.16 1.08 1.6 0 0zm.76.1c-.1-.78.66.35 0 0zm-29-.39c.12-.84.5.58 0 0zm27.12-.69c-1.64-2.3 2.22 2.35 0 0zm-86 .28c-.03-1.32.47.34 0 0zm54.06-1.2c-.27-1.48.7 1.13 0 0zm.28-.52c-3.06-1.05.67-.61 0 0zm28.3 0c-1.27-.86 2.23.9 0 0zm2.42-.22c-.73-1.91 1.08 1.66 0 0zm-80.92-.1c-1.22-2.89 1.27-.79 0 0zm105.7.17c.47-.58.21.83 0 0zm-107.57-.23c.3-1.1.3 1.1 0 0zm80.25-.25c.15-.62.37 1.2 0 0zm-78.9-.14c.33-.3-.14.73 0 0zm-4.7-.3c.29-.85.13.81 0 0zm53.61.08c.24-.63.38.7 0 0zm-50.13-.58c.24-1.81.2 1.33 0 0zm81.89.19c-1.37-.92 1.7.66 0 0zm-84.96-.45c-.16-.76.6-.17 0 0zm81.86-.45c-1.09-2.3.98.6 0 0zm1.18-.26c1.1-.92 1 .7 0 0zm26.58.04c-.46-.76.77.57 0 0zm-56.3-.17c-.08-.82.6.74 0 0zm-.7-.2c-1.96-2.27 1.33.08 0 0zm-51.73-.03c-.68-.62.73-.3 0 0zm.61-.52c.1-1.22.1 1.22 0 0zm50.02-.38c-3.29-1.88 1.73.54 0 0zm28.52.53c.15-.96 1.54 1.31 0 0zm28.92-.1c-.04-.7.7.18 0 0zm-103.92-.35c.11-1.06.28 1.1 0 0zm75.57-.48c-4.23-.9.87-.47 0 0zm-75.79-.22c.33-.3-.14.73 0 0zm.76-.14c.28-1.36.1 1.32 0 0zm46.21.23c-2.34-2.07 1.49-.91 0 0zm30.42-.11c-1.14-.99 3.11.94 0 0zm-81.8-.28c.32-.3-.14.73 0 0zm4.68-.49c.58-1.4-.24 2.94 0 0zm-4.9-.03c.2-.58.28.61 0 0zm47.14-.69c-3.8-3.87-.93-3.25.53.78l.1.2zm57.26.2c-.38-.92 1.24 1.6 0 0zm-54.94-.12c-.25-1.06.62 1.2 0 0zm61.06-.32c-2.17-3.06-2.78-3.3.06-1.1.46.2.58 2.88-.06 1.1zm-54.02.21c-.06-.64.42.85 0 0zm-56.82-.39c-.03-.76.76.51 0 0zm56.34.19c.44-.36.16.6 0 0zm48.83-.55c-2.01-3.27 1.27 1.4 0 0zm-25.43.3c.44-.42.2.36 0 0zm3.2-.35c-.06-1.06.5 1.19 0 0zm-76.97.05c-1.28-2.19.96-.5 0 0zm50.52-.4c-.99-.17.97-.53 0 0zm20.5.1c-1.8-1.25 1.13 0 0 0zm5.45-.82c-.25-1.05.62 1.2 0 0zm-76.74-.22c.14-.81.28.85 0 0zm70.45.05c-1.06-1.65 1.51.49 0 0zm28.92.02c-.5-.7.83.37 0 0zm-29.72-.3c-1.58.3.5-1.03 0 0zm6.49-.84c-2.18-2.86 2.83 2.85 0 0zm-83.84.38c.12-.7.12.7 0 0zm73.74-.07c-3.48-3.72 5.77.58-.06-1.12-1.32-1-.43 1.38.06 1.12zm3.84.18c-.66-1.78 1.93-.5 0 0zm-74.91-.35c.33-.3-.14.74 0 0zm47.94-.16c.77-.65.19 1.5 0 0zm58.91.07c-.26-1.1 1.66 1.3 0 0zm-16.78-.05c-.56-1 .81.59 0 0zm-93.01-.6c-1.4-2.77 1.08 1.04 0 0zm81.1.22c-.01-.58.59.83 0 0zm3.76-.32c-.53-1.96.68 1.45 0 0zm-26.32 0c-.23-.78.46.57 0 0zm-58.35-.67c-.3-2.88.54 2.1 0 0zm82.86.4c-.02-1 .98.24 0 0zm-33.87-.36c.43-.83-.06.6 0 0zm1.8.04c.31-.62.31.62 0 0zm50.73-.13c-2.96-.69.02-3.79 0 0zm1.06-.16c-.6-1.15 1.49 1.28 0 0zm-25.76-.03c-3.27-.36.2-1.12 0 0zm-30.7-.37c-.74-1.73.74 1.04 0 0zm58.42-.01c.03-1.24 1.2 1.88 0 0zm-55.26-.06c-.1-1.4.44.97 0 0zm.45-.34c.51-1.15-.39 2.63 0 0zm21.89.4c-.77-.9 1.03.63 0 0zm-24.4-.17c1.99-1.26 1.6-1.57 0 0zm63.82-.85c-2.58-3.25 3.14 2.58 0 0zm-62.84.68c-.8-1.37.9.98 0 0zm25.46-.03c-.77-.84 1.23.83 0 0zm8.32.08c-.14-.84.8 1.17 0 0zm24.6-1.03c-2.5-3.23 3.48 2.81 0 0zm-61.12.12c-.5-1.66.98.87 0 0zm2-.13c-1.21-2.77.77.57 0 0zm25.69.19c-4.83-2.17 1.5-1 0 0zm9.75-.1c-.26-.63.94 1.1 0 0zm-12.19-.17c-.74-1.28 1.14 1.03 0 0zm1.04.05c-1.16-1.36 1.52.44 0 0zm5.68 0c-.49-1.35 1.17.55 0 0zm-77.67 0c-1.95-1.03 1.07-.52 0 0zm75.6-.07c.18-.58.27.62 0 0zm4.02-.06c1.3-2.27 1.03.5 0 0zm1.4-.01c.15-.86.82 1.36 0 0zm20.56-.16c.15-.83.4.93 0 0zm-56.67-.47c-.98-3.17.66-2.82 0 0zm.06-.85-.03.28zm24.97.71c-1.6-2.84 1.7 1.67 0 0zm5.39.29c-.66-1.45 1.36.23 0 0zm-1.41-.4c-1-2.19 1.14 1.7 0 0zm.83-.01c.5-1.92.38 1.85 0 0zm4.02.34c-1.02-.73 1.24.38 0 0zm2.2-.18c-1.4-1.78.77.26 0 0zm20.23-.72c-1.07-3.15 1.56 3.44 0 0zm3.08.64c-2.07-3.18-6.15-10.39-1.37-3.55 2.77 1.74 2.3 2.19.77 2.72zm-56.16-.4c.2-.93 0 1.31 0 0zm29.57-.23c-.35-1.3 1 1.98 0 0zm31.46 0c-4.5-1.41 1.62-1.51-2.06-2.32-1.77-.84-7.22-4.8-2.35-2.79-4.56-3.96-5.04-8.23-9.18-12.33 8.18 5.48-5.83-7.75-1.4.43 3.05 5.11.71 4.2-.61-.18-1.13-3.77-7.75-10.16-4.91-10.48-2.67-2.23-2.16-1.51-.1-1.45-4-2.7 2.91.62 1.05 2.31 6.1 3.87 4.77 7.05 9.57 11.52-.01 4.63 7.06 11.09 10.44 15.2zm-6.28-5.27c-1.23-2.43-.9.5 0 0zm-9.54-12.42c-.55-.52-.38-.37 0 0zm.54-.54c-.11-.84-.5.58 0 0zm.94-2.13c-2.22-1.49-4.9-4.33-.68-1.93-2.3-3.27-6.91-3.35-2.07.2.3.14 3.32 3.3 2.75 1.73zm-22.5 20.5c.54-.4.37.63 0 0zm7.89-.1c-.27-.64.93 1.1 0 0zm19.47.06c-3.3-2.03.33-1.9 0 0zm-30.9-.51c-1.16-2.72-.43-2.94 0 0zm14.25-.08c.34-.78.02 1.3 0 0zm-73.68-.02c.43-.82-.06.61 0 0zm60.7.09c-2.13-1.68 1.01.1 0 0zm10.3 0c-2.05-3.65 1.42 0 0 0zm-.51-.18c-.32-.73.77.12 0 0zm2.75-.44c-.8-1.38.89.97 0 0zm-8.39-.1c-.18-.79.6.8 0 0zm1.87.07c.54-.4.37.63 0 0zm1.97-.06c-.47-1.5.55.52 0 0zm-76.19-.24c-.4-1.44.57.8 0 0zm46.6.17c-.46-.67.69 0 0 0zm31.1-.16c-.5-1.67.66.8 0 0zm25.9-.1c-1.84-2.4 2.87.79 0 0zm-5.14-.35c-1.33-2.37 1.55 2.13 0 0zm-94.15.18c-1.89-1.78 1.14.23 0 0zm74.46-.36c.43-1.33.1 1.7 0 0zm-81.24.05c-.64-1.13.94 0 0 0zm78.64-.3c-.06-.65.42.85 0 0zm-30.3-.58c.2-.92 0 1.32 0 0zm34.76.27c-.26-.64.94 1.1 0 0zm-7.49.07c-.9-.96 1.07-.22 0 0zm5.78-.24c-.45-2.16.77.8 0 0zm-35.87-.45c-1.05-1.92 1-1.49 0 0zm23.15.19c.33-.3-.13.73 0 0zm30.14-.07c-.81-1.38.75.73 0 0zm2.88-.08c-.87-1.28 2.48 0 0 0zm-21.65-.15c-.14-.76.75 1.2 0 0zm3.06.2c-1.67-2.97 1.11-.55 0 0zm-3.73-.42c-.26-1.06.62 1.2 0 0zm-15.79-.1c.08-1.95.58.5 0 0zm5.35-.2c-1.18-2.78 1.1-1.33 0 0zm12.38-.04c-1.05-1.71 1.42.7 0 0zm19.6.14c-1.98-1.9 1 .25 0 0zm3.4-.11c-1.21-.53 1.04.16 0 0zm-36.22-.72c-1.72-3.13 1.38 1.75 0 0zm12.41.56c-.22-.79.47.56 0 0zm20.82-.21c-2.7-1.6.8-.46 0 0zm-27.57-.46c-.18-.78.6.8 0 0zm7.7-.01c-.4-1.6.66.76 0 0zm-5.89-.3c-.34-1.7.53 1.1 0 0zm2.87 0c.14-.8.28.86 0 0zm4.64 0c-1.8-2.35 1.5.95 0 0zm-81.81-.23c-.23-.8.47.56 0 0zm44.52-.08c.33-.3-.13.73 0 0zm53.26-.34c-1.9-2.22-.59-1.45.27.17zm-52.46.2c.1-.83.48.59 0 0zm.62-.15c-.1-1.1.47.73 0 0zm34.26-.01c-.23-1.5 1.05.81 0 0zm-35.54-.3c.33-.31-.14.73 0 0zm21.54-.06c-.32-1.41.56 1.05 0 0zm32.28-.36c-3.38-2.95.37-2.84 0 0zm-.67-1.96c-.81-.37.44.78 0 0zm-30.13 1.76c.33-.3-.14.74 0 0zm12.77.08c-.28-1.1.65.5 0 0zm15.74-.5c-.7-.85.89.22 0 0zm.07-.66c-.07-.64.41.85 0 0zm-50.92-.27c.24-.65-.03 1.04 0 0zm35.35-.15c.2-.93 0 1.32 0 0zm13.41 0c-3.13-1.56-7.04-13.33-3.42-4.89 1.44 1.32 4.1 2.46 3.42 4.9zm-28.74-.17c-1.94-1.03 1.07-.51 0 0zm35.03-.38c-.43-1.3 1.68 2.47 0 0zm-27.56.06c-.06-.65.42.85 0 0zm1.13-.05c.3-.62.3.63 0 0zm5.9.01c-.47-.76.76.58 0 0zm19.83.03c-.59-1.02 1.24.72 0 0zm-.56-.48c-.47-.76.77.57 0 0zm-31.59-.16c-.47-.75.77.58 0 0zm13.08-.05c.6.78.84 1.07 0 0zm15.42-.2c-.64-1.17 1.24 1.49 0 0zm-5.12-.23c-.44-2.1.64.77 0 0zm-25.86-.28c-.4-1.41.6.8 0 0zm29.3-.16c-.22-.8.47.56 0 0zm2.62-.17c-.3-.94.73 1.15 0 0zm-30.2-.06c-.22-1.08.46.78 0 0zm6.72-.14c-.38-3.4 2.18-8.67 1.12-2.39a12 12 0 0 1-1.12 2.39zm.9-2.89c-.17-1.03-.15 1.48 0 0zm22.62 2.58c-1.52-2.13 2.05 1.93 0 0zm-2.65 0c-.51-.64 1.24.93 0 0zm-28.04-.78c.32-1.17.36 1.74 0 0zm14.28.14c-.9-3.21.91.2 0 0zm12.25-.73c-.8-1.68.72.78 0 0zm-23.85.14c.48-4.1 2.86-13.93 4.06-13.61-2.52 5.83-2.74 9.27-2.58 9.46-.38 1.43-.94 2.78-1.48 4.15zm-5.68-.19c-.45-.67.7.01 0 0zm34.6-.49c-.72-.98 1.25 1.07 0 0zm-32.72-.4c-.74-3.88 1 1.93 0 0zm-26.25-.04c.18-.58.28.61 0 0zm-.63-.1c.44-.42.2.35 0 0zm52.9-.3c.34-.3-.13.74 0 0zm-48.73-.04c.18-1 .53.4 0 0zm22.17-.28c-.07-.64.41.85 0 0zm25.82.11c.28-.61.19.58 0 0zm1.75-.02c-2.74-2.1 2.42-3.11 0 0zm-51.66-.36c.14-.8.28.85 0 0zm-6.19-.3c-.55-1.48 1.11 1.56 0 0zm29.9-.61c-.55-1.84.85 1.71 0 0zm11.48.2c-1.02-2.83-.06-4.31-.24-5.47.6-1.49.14 6.09.24 5.46zm4.84.23c-.63-.61.67.02 0 0zm15.76-.53c-.92-1.38 1.5 1.7 0 0zm-56.08.16c-.23-.78.47.56 0 0zm24.87-.36c.7-1.82.12 1.24 0 0zm25 .3c-1.67-1.2.9-.07 0 0zm-9.28-.03c-.94-.94.6-.57 0 0zm-42.66-.26c.18-.53.66.42 0 0zm3.35-.4c.43-.36.16.6 0 0zm22.36-.5c-1.81-5.15.01-4.05 0 0zm-19.61.06c-.25-1.13.92.03 0 0zm45.97-.32c-.57-1.37.77.86 0 0zm.35-.17c-1.41-3.68-1.02-4.66 0 0zm-43.18-.04c.17-1.46.62 1.64 0 0zm-7.9-.13c.36-.91.28 1.86 0 0zm2.14-.04c-3.89-1.06 4.14-.54 0 0zm19.37.3c-.68-.62.73-.3 0 0zm22.73-.52c-.5-1.58.87 1.73 0 0zm-3.46.2c-.63-.61.67.02 0 0zm15.2-.09c-1.16-.83 1.26.29 0 0zm-51.1-.52c-5.1-2.52 6.51-4.33 6.87-6.86 5.08-1.33 8.32-7.22 2.84-8.46 2.64-.24 5.47-2.93 7.78-1.58-1.68 3.37 1.62 10.51.64 11.27.38-2.32-3.3-4.48-3.22-4.62-2.74 3.76-1.24-2.4-4.02 2.04-3.31 3.14-7.2 5.55-10.89 8.21zm6.23-5.38c-.64-1.03-.66 1.27 0 0zm3.02-1c-.57-1.71-.45 2.28 0 0zm3.08-3.46c-.04-.84-.03-.75 0 0zm1.55-4.17c-.86-2.23.06 2 0 0zm-.39-.88-.32.01zm1.68-.52c-.4-.7-.4.7 0 0zm-.57-.29c-.57-.87-.56.61 0 0zm1-.82c-.92-.1.69.98 0 0zm4.6 16.5c-.64-1.55.47.79 0 0zm.44.05c.29-.86.13.8 0 0zm15.57-.01c.5-.58.11.84 0 0zm-20.94-.2c-.84-2.33.7-3.63 0 0zm-10.84-.46c-.21-.98.8.14 0 0zm2.7-.54c1.89-1.86-1.26 1.72 0 0zm-3.31.21c.58-1.56 1.04.4 0 0zm1.24-.26c1.6-4.27.21.98 0 0zm4.26.2c-.2-1.67 3.24-3.88 1.08-1.1zm40.81-.16c-.13-.77.75 1.2 0 0zm-22.28-.69c-1.67-5.33 1.02-1.87 0 0zm8.04-.1c-.06-.65.42.85 0 0zm8.1.12c-.6-.86.87.22 0 0zm-48.53-.15c-1-1.84 1.1.04 0 0zm11.97-.46c-.04-1.45.93.28 0 0zm38.88-.06c-3.56-2.24 1.17-.06 0 0zm-45.7-.1c.3-.62.3.62 0 0zm8.58-.21c.72-.94-.46 1.13 0 0zm34.14.18c-.77-1.33.71.3 0 0zm-29.81-.06c-1.07-3.4 3.92-4.11 0 0zm-17.13-.22c-4.4-.7-.96-3.49 0 0zm-1-.9c-.36-1.57-.83.54 0 0zm46.51.9c.24-.62.38.7 0 0zm-30.02-1.03c1.24-4.48 1.4-.68 0 0zm3.73.64c.33-.3-.14.74 0 0zm20.18-.02c-.26-.64.94 1.1 0 0zm5.7.1c-.22-.79.47.56 0 0zm1.3.07c-1.46-.61.62-2.05 0 0zm-52.76-.43c-.8-2.38.84.87 0 0zm7.57.22c.23-.63.37.7 0 0zm11.84-.24c.47-.55-.02.78 0 0zm33.94-.02c-.06-.65.42.85 0 0zm-11.14-.44c-2.1-1.29 1.63-1.97 0 0zm-40.14-.13c-.37-.76 1.3 1.1 0 0zm14.63-.15c.88-1.25-.55 1.23 0 0zm28.82.16c-.24-1.21.63.73 0 0zm9.9-.02c-.46-1.07.71.8 0 0zm-35.34-.37c.04-.92.36.47 0 0zm-20.04-.4c-1.36-1.5 1.06-1.5 0 0zm11.07.24c.31-.62.31.62 0 0zm41.12-.32c-.82-1.23.74.5 0 0zm-50.35-.15c-1.15-1.08 1.95 1.28 0 0zm10.84.09c-.23-1.11 1.04 1.23 0 0zm-8.95-.21c-1.57-3.39 1.21.3 0 0zm3.27.16c.51-.39.94.73 0 0zm2.97-.11c-4.53-.46-.14-4.2 0 0zm-2.23-.18c.59-.97.81 1 0 0zm45.44.03c-1.02-1.46.93.68 0 0zm-47.45-.16c.33-.3-.14.74 0 0zm19.67.14c-.64-1.14.94-.02 0 0zm.64-.08c-.97-3.43 1.33-.27 0 0zm-27.79-.3c-.3-.9 1.08.13 0 0zm46.77-.2c.14-.8.29.85 0 0zm-3.5-.77c-.23-1.1 1.7.37 0 0zm-31.32.05c-.15-3.5 3.64.66 0 0zm11.73.08c.76-1.1-.32.8 0 0zm-16.61-.2c.28-.61.18.58 0 0zm12.31-.01c-.01-2.97 3.26-2.2 0 0zm12.65.01c.35-.65.41.68 0 0zm19.42-.11c-.11-.98.78.93 0 0zm-48.63-.37c-1.65-2.27.45-1.58 0 0zm33.88-.2c-.23-1.09.46.77 0 0zm9.81.13c-.85-1.03.61-.47 0 0zm-23.3-.34c.96-.7-.6.89 0 0zm4.5.1c.34-.92.5.76 0 0zm-21.25-.13c-.23-.79.47.56 0 0zm.36-.24c-2.26-1.57 2.97 1.57 0 0zm16.93.17c.4-.93.14.84 0 0zm2.35-.15c.85-.96-.1 1.3 0 0zm-16.82-.32c-.23-1.04.84 1.8 0 0zm5.6-.05c-5.62-1.33.72-1.39 0 0zm-1.52-.7c-2.62-1.14 1 .94 0 0zm30.38-.01c-.22-1.72.65 1.4 0 0zm-40.07.12c-.35-2.25 1.27-.05 0 0zm50-.49c-.9-2.08 1.68 1.23 0 0zm-91.04-.06c.1-1.14.5.82 0 0zm83.01-.11c-2.05-1.88.78-.75 0 0zm5.2-.04c-.9-1.28.84.33 0 0zm-43.3-.1c-.24-.78.46.57 0 0zm7.66.08c-1.18-1.8 1.06-1.15 0 0zm9.95-.09c-.07-.74-.05-.47 0 0zm18.74-.3c-.39-1.87 1.55 1 0 0zm-32.88.01c.12-.78.6 1.45 0 0zm18.55-.16c.43-3.02.3 1.33 0 0zm12.18.32c-.01-.58.59.83 0 0zm-25.84-.22c-1.27-2.34 2.66.58 0 0zm27.58.08c-1.11-.77-4.82-3.24-1.08-1.79-2.08-3.72 1.55.98 1.08 1.8zm-1.03-2.67c-.45-.6.2.76 0 0zm-79.79 2.05c.1-1.22.1 1.23 0 0zm67.56.46c.31-.62.31.62 0 0zm22.34-.16c-3.56-3.27 2.2 1.04 0 0zm-40.14-.22c.14-.8.28.85 0 0zm28.51-.15c.33-.88.4.9 0 0zm11.76-.65c-2.56-3.23 2.52 1.7 0 0zm-46.85.47c.44-.42.2.36 0 0zm11.8-.18c-3.69-.16-.05-2.18 0 0zm26.85-.2c-1.19-1.97.94.85 0 0zm-32.38-.07c-.63-.62.67.01 0 0zm8.08-.07c.45-.65.56.64 0 0zm19.75-.1c-.06-.64.42.86 0 0zm-10.4-.15c-1.07-2.7 1.69-.9 0 0zm-14.32-.21c.13-1.02.76 1.28 0 0zm19.89.02c.24-.63.38.7 0 0zm-9.97-.15c-.33-.93.94.78 0 0zM68.42 159c-.18-1.2 1.46-.43 0 0zm2.54-.47c-.6-1.8 1.58 2.18 0 0zm12.93.25c-.4-1.17 2 .3 0 0zm11.44 0c-1.02-1.82 1.07.45 0 0zm14.81-.1c-.49-1.03.78.33 0 0zm-28.9-.22c-2.9-.63 1.9.18 0 0zm4.45-.04c.73-.57.77.4 0 0zm14.93-.25c.18-.58.27.62 0 0zm10.73.04c-1.62-1.92.94-.85 0 0zm-42.85-.17c-.45-.67.7.01 0 0zm14.04-.19c-1.48.21-.1-1.27 0 0zm2.58.2c-1-2.94 1.82-1.02 0 0zm25.45-.45c-1.88-1.04.93-.63 0 0zm-42.77-.12c-.22-1.08.46.78 0 0zm2.32-.07c-1.22-1.5.98.48 0 0zm1.65-.06c.11-.85.49.58 0 0zm33.6-.32c-.14-.76.75 1.2 0 0zm-35.3-.31c-1.35-1.65 1.07.1 0 0zm-.62-.44c-1.45-1.85.7-3.1 0 0zm34.58-.16c.14-.8.28.86 0 0zm10.1 0c-.5-.64 1.24.93 0 0zm-40.6-.21c-2.34-2.62.58-1.6 0 0zm13.27 0c-1.15-1.68 1.48.63 0 0zm-10-.17c.18-.58.27.62 0 0zm27.9 0c.3-.62.3.62 0 0zm6.2-.34c-1.13-1.56 1.2.38 0 0zm-27.42-.42c.24-.62.38.7 0 0zm1.28-.15c.27-.61.18.58 0 0zm-13.97-.1c-.21-1.1.79.39 0 0zm17-.28c-2.34-1.36 1.29.13 0 0zm19.87-.2c-.82-1.43.77.68 0 0zm-10.32-.32c-.59-1.47.83.8 0 0zm12.85.06c-2.95-1.63.14-1.15 0 0zm-35.96-.1c-1.34-.96 1.03-.43 0 0zm26.96.08c.45-.42.2.36 0 0zm-73.03-.35c.11-.7.11.69 0 0zm41.67-.09c-2.52-1.1.7-3 0 0zm19.61.23c.44-.36.16.6 0 0zm4.28.07c-.88-.85-1.25-2.56 0 0zm-7.04-.54c-.3-1.24 1.19.57 0 0zm-18.58-.02c-1.1-2.43.32-2.82 0 0zm27.06-.11c-1.06-4.23 3.93.24 0 0zm7.57-.15c-1.56-1.29 1.74.86 0 0zm-74.46.04c-.63-1.13.95 0 0 0zm42.17-.13c.33-.3-.13.73 0 0zm14.89-.05c-.1-2.41.51.98 0 0zm4.96.01c-.38-2.17 1.49 1.16 0 0zm20.17.05c-.1-1 .84 1.15 0 0zm-11.61-.18.39.01zm-73.05-.73c.12-3.18.24 1.58 0 0zm61.98.55c-4.1-1.87 3.82-1.57 0 0zm3.81 0c-1.2-1.25 1.96.78 0 0zm1.74-.08c-3.07-.79.94-1.47 0 0zm16.2-.19c-.71-1.22 1.22 1.36 0 0zm-80.7-.28c.24-.65-.03 1.05 0 0zm42.12-.24c0-.76 2.08 2.62 0 0zm31.08.52c.13-1.3.7-.11 0 0zm.37 0c.44-.42.2.36 0 0zm-74.79-.36c.22-2.56.72-.32 0 0zm66.38-.15c-4.06-2.34 1.86-.12 0 0zm2.95.07c-1.02-1.03 1.8.86 0 0zm8-.47c-3.88-3.19 2.38 1.24 0 0zm-19.16.15c-.63-.61.67.02 0 0zm23.31 0c.44-.42.2.36 0 0zm-8.33-.46c-1.71-1.28 2.83.94 0 0zm-23.34-.08c-1.12-1.1.8.08 0 0zm12.54.05c-.58-.8.4-.42 0 0zm7.92.03c.06-.82.88.33 0 0zm-24.42-.32c-.84-1.98 1.05.16 0 0zm6.07-.03c.07-.64.85 1.06 0 0zm5.82-.01c.06-.88.69.76 0 0zm22.29-.06c1.64-1.98-.07 1.1 0 0zm-13.26-.12c-2.18-1.24.77-.01 0 0zm-18.73-.3c-.3-.94.73 1.16 0 0zm5.9.19c-.3-.72.9.87 0 0zm6.48-.02c.74-1.57 1.7.67 0 0zm2.75 0c.44-.35.16.6 0 0zm-21.29-.31c-.3-.95.73 1.15 0 0zm3.55.17c.24-.62.38.7 0 0zm19.34 0c.31-.62.31.62 0 0zm6.16-.07c.23-.91.86 1.33 0 0zm-20-.25c-.28-1.8 2.11 1.76 0 0zm-49.95-.05c-.47-1.82.79.52 0 0zm56.17-.21c-2.2-2.2 1.82 1.06 0 0zm7.72.29c-1.98-.9 2.6.68 0 0zm-1.86-.11c.44-.42.2.36 0 0zm13.68-.05c.06-.64.84 1.06 0 0zm-10.78-.15c.31-.63.31.62 0 0zm-20.13-.4c.33-.3-.14.74 0 0zm27.43.02c-.56-1 .8.58 0 0zm3.82-.01c-.4-.97 1.8 1.31 0 0zm-84.4-.16c.34-.3-.13.73 0 0zm72.64-.03c.9-1.37 4.63.05 1.49.14zm16.5.12c-.14-.91 1.2 1.02 0 0zm-85.8-.15c.42-.68.35.64 0 0zm51.9.06c-1.49-2.34.8-1.2 0 0zm21.69-.22c.14-1.14.46 1.17 0 0zm-26.74 0c-2.33-2.52 1.64-.31 0 0zm26.35.05c.44-.41.2.36 0 0zm-73.37-.46c-2.38-2.88.46-2.59 0 0zm53.65.11c.43-.35.3.6 0 0zm22.69 0c-.01-.58.59.83 0 0zm2.26-.11c-.23-.64.8 1.24 0 0zm-73.2-.12c.3-.85.3.86 0 0zm49.23-.07c-1.42-2.4 2.2.91 0 0zm5.34-.01c-1.26-1.27 3.82 1.7 0 0zm10.28-.14c.4-.69.5.73 0 0zm9.5 0c.44-.35.3.59 0 0zm-12.69-.25c-.14-.87.9.45 0 0zm13.67-.01c.44-.42.2.36 0 0zm-82-.28c.14-1.26.63.79 0 0zm64.86.13h.32zm5.6-.4c-.64-3.35 3.97.77 0 0zm-7.39-.18c-.43-.78 1.03.86 0 0zm4.6-.03.32.01zm7.53-.05c-.47-.67 1.45.78 0 0zm-73.62-.12c.58-3.1 5.05-6.8 2.47-3.87-1.19.88-1.6 2.67-2.47 3.87zm52.03.03c-2.2.5.2-1.08 0 0zm11.35-.06c.38-.7.24.63 0 0zm7.86.05c.68 0 .47 0 0 0zm1 0 .33.01zm-12.48-.2c.38-.7.24.62 0 0zm12.81.04c-1.47-1.22 2 .57 0 0zm-74.85-.37c-.3-.95.73 1.15 0 0zm58.36.18c-3.54-.79 1.42-.55 0 0zm-52.7-.39c.73-2.89 1.56.07 0 0zm57.05.23c.75-.78.75.79 0 0zm3.86-.02c1.2-.63-.18.66 0 0zm10.2.02c.59-.78.54 1.08 0 0zm-16.4-.15c.06-.64.84 1.06 0 0zm10 .06c-.05-.94 1.03.7 0 0zm4.86-.21c.7-.8.7.61 0 0zM78 146.01c.42-.63.5.96 0 0zm5.55-.01c.44-.36.16.6 0 0zm7.04-.04c-2.52-2.32 2.35.38 0 0zm-59.23-.2c.33-.3-.14.74 0 0zm39.95-.01c-.06-.65.42.85 0 0zm-51.05-.12c.02.9.04 2.08 0 0zm1.46.03c-1.46-.94-1.52-6.43-.66-1.88.94-3.99.05 1.22.66 1.88zm61.36.04c-.52-.65 1.18.71 0 0zm-2.3-.2c-1.48-.95.53-.01 0 0zm12.52.1c.44-.42.2.36 0 0zm2.2-.13c.12-.94 1.09 1.4 0 0zm-11.35-.07c.5-.71.57.75 0 0zm-67.02-.54c.3-1.96.06 1.56 0 0zm12.74.4c.1-.79.64.35 0 0zm51.8-.02c.44-.36.17.6 0 0zm4.26-.1.32.02zm7.76-.08c-2.73.46-1.4-1.04 0 0zm-71.56-.76c.25-1.93.07 3.25 0 0zm66.4.7h.4zm-7.2-.27c1.41-1.93 2.46 1.3 0 0zm-49.85-.33c.41-1.05-.04 1.34 0 0zm53.44.2c-1.95-1.1 2.22.63 0 0zm11.14.05c2.42-3.47 11.6 1.82 3.75-.24q-1.88-.06-3.75.24zm-77.95-.4c.32-.3-.14.73 0 0zm9.23.06c1.02-2.22 1.9-1.48 0 0zm59.56.03c.2-.66 1.08 1.14 0 0zM16.49 144c3.04-1.44-2.85-5.5-.37-3.67 3.39-1.9 2.15 1.53.37 3.67zm2.81.1c-.4-1.66 1.92-1.1 0 0zm70.47.09c-.76-.66 2.8.79 0 0zm2.27-.09c1.42-1.3-.2 1.02 0 0zm-73.8-.46c.33-.3-.14.74 0 0zm12.18-.3c.33-.3-.14.73 0 0zm56.71.13c.75 0 .5 0 0 0zm-57.17-.46c-.19-.9.77.08 0 0zm-8.03-.14c-.89-1.12 1.03-.08 0 0zm3.67-.43c-.01-1.22.64-.16 0 0zm6.63-.41c-.13-3.37 4.56-2.04 0 0zm-10.25-.28c.38-3.01 1.71-.92 0 0zm-2.94-.54c.33-.3-.13.73 0 0zm11.1.1c.47-2.27.88-.36 0 0zm.54-.09c.54-1.06.46.82 0 0zm3.61.02c-.13-1.07.67.5 0 0zm-15.42-1.08c1.45-2.9 1.87-.58 0 0zm4.45.1c1.18-2.72 1.4-1 0 0zm7.7-.4c.59-3.31-.1 1.75 0 0zm-12.38-1.1c.17-4.84 2.15-.5 0 0zm13.1-.12c1.01-3.16 1.23-.96 0 0zm2.02-.14c-.5-3.18 1.4-.66 0 0zm-17.27.05c-.3-4.31 3.32-4.02 0 0zm19.95-.29c-.43-.92.58-.27 0 0zm-14.46-.77c-.16-2.42 2.6-1.6 0 0zm14.74-.3c.12-.69.12.7 0 0zm-4.57-.56c.32-3.8 7.16-7.74 4.92-3.6-2.42-2.63-2.36 4.26-4.92 3.6zm1.8-1.34c-.34-.53-.08.89 0 0zm3-4.24c-.45.65-.35.5 0 0zm-.1 5.58c-1.05-1.9 2.16-1.76 0 0zm-9.52-.78c.17-1 .53.4 0 0zm-8.36-.55c.75-2.93-.05 1.64 0 0zm1 .32c.55-.53.38-.37 0 0zm1.2-.47c.46-.63.46.62 0 0zm14.2.07c.97-.8.16.54 0 0zm-20.56-.34c1.6-3.49.92 1.55 3.88-1.66-.83.64-2.78 2.95-3.88 1.66zm21.22.18c.36-.62.53.4 0 0zm-14.32-.05c.55-.52.38-.37 0 0zm6.54-.35c1.04-2.64 3.34-3.97 0 0zm4.32-.28c1.05-1.78-.69 1.84 0 0zm-10.32 0c.09-.89.65-.26 0 0zm-.98-.26c-.32-2.23.95-1.22 0 0zm6.15.05c-.44-1.56 2.74-1.35 0 0zm3.88-.13c-.66-1.38 1.18-.09 0 0zm-14.07-1.3c.43-.82-.06.62 0 0zm1-.12c.12-2.09.9.47 0 0zm6.42.14c.18-1.1.6-.34 0 0zm13.86-.43c.91-1.04-.44 1 0 0zm-21.8-.41c1.07-2.84-.13 1.29 0 0zm15.25-.02c-.12-.8.76.2 0 0zm-15.71-.33c1.77-1.02-1.23-5.02.07-3.49-.28 1.67 3.35 2.05-.07 3.5zm7.6-.3c.63-1.18-.26 1.03 0 0zm-4.93-.9c-.18-2.02 1.38.32 0 0zm7.88.08c.13-.66.6.1 0 0zm-3.47-.63c.33-.3-.14.73 0 0zm12.33-.22c.1-.96.1.96 0 0zm-8.73-.42c.67-1.12-.2 2.24 0 0zm-3.48.2c-.6-2.59 1.14.13 0 0zm4.15-.23c.04-.92.36.47 0 0zm17.09-.2c-1.22-2.21.67.29 0 0zm22.64.1c.44-.43.2.35 0 0zm-38.95-.3c-.56-1.79.95-.93 0 0zm1.12-.44c.23-.66-.03 1.04 0 0zm12.85-.3c.23-.66-.03 1.04 0 0zm-17.04-.4c-.05-1.9.38.41 0 0zm4.04-.07c.33-.3-.14.73 0 0zm10.33-.52c.1-.96.1.95 0 0zm2.56.04c-3.54-2.65 5.2-1.16.45-.56zm4.67-.08c-1.7-1.89 1.03.1 0 0zm-19.12-.14c.6-.93.84.99 0 0zm-2.28-.22c-.82-1.47.65.45 0 0zm2.43-.47c-.06-.64.42.85 0 0zm9.9-.03c-.08-.78.67.35 0 0zm-10.91-.17c.3-.62.3.62 0 0zm13.6-.28c.28-.52.28.53 0 0zm2.45-1.58c0-3 .53 1.52 0 0zm1.26-.72c.62-2.81 3.75.57 0 0zm-11.23.45c-.09-.82.6.74 0 0zm10.48-.6c.7-1.68.2.83 0 0zm-34.15-.39c-.57-1.19.55.48 0 0zm21.14-.4c-2.25-2.72 1.59-.04 0 0zm-4.62-.27c.3-.63.3.62 0 0zm-17.32-.24c-.57-1.19.54.48 0 0zm17.67 0c.23-.89.52 1.05 0 0zm.85.08c.28-.61.2.58 0 0zm9.9-.15c-.25-1.05.63 1.2 0 0zm-27.35-.07c.3-.86.14.8 0 0zm1.64-.04c-.23-.64.8 1.24 0 0zm-1.12-.04c.19-.58.28.61 0 0zm14.35.05c-.63-.61.66.02 0 0zm20.52-.43c.6-.65.32.88 0 0zm-17.59-.17c.15-.62.37 1.2 0 0zm.96.15c-.4-2.56 1.48-.65 0 0zm3.35-.55c-2.86-2.1 2.47.28 0 0zm4.93.41c-.57-1.19.54.48 0 0zm6.82-.02c-.2-1.09.57.79 0 0zm-19.97-.29c-.06-1.58.67.93 0 0zm6.97-.08c-2.55-1.52 2.2.94 0 0zm16.87.02c-1.8-2.12 1.03.72 0 0zm-16.41-.27c-.26-.63.94 1.1 0 0zm11.02-.24c-1.02-2.04.78.56 0 0zm3.72-.17c-.84-2.1.74.96 0 0zm-20-.02c-.39-1.12.6.58 0 0zm-19.62-.14c.14-.8.28.85 0 0zm27.5-.23c.24-.62.38.7 0 0zm9.12-.08.18-.2zm-17.34-.37c-.13-1.07.74.93 0 0zm18.8.15c.19-.58.28.61 0 0zm-15.5-.25c-.92-.98.64-.32 0 0zm15.79 0c-.88-.84.64-.41 0 0zm2.72-.2c.28-.62.19.57 0 0zm-14.7-.37c.37-1.06.04 1.37 0 0zm4.53.24c.15-.95.6.11 0 0zm6.63-.02c.13-.87.64.75 0 0zm-31.86-.16c.42-.63.5.96 0 0zm18.95-.09c.33-.3-.14.74 0 0zm17.23.14c.44-.42.2.36 0 0zm-37.99-.21c.44-.36.16.6 0 0zm20.29-.1c-.06-.64.42.85 0 0zm3.94-.15c-.1-1.13.9.58 0 0zm11.92-.05c-2.5-.8 2.3-1.07 0 0zm12.8.2.33.02zm-44.64-.48c.87-1.07-.13 1.03 0 0zm12.82.13c.28-.61.2.58 0 0zm-18.54-.3c.46-.7.46.7 0 0zm1.08 0c.23-.63.37.7 0 0zm.8 0c.38-.7.24.62 0 0zm.87-.15c.41-.68.35.65 0 0zm4.11-.33c.7-.67-.13.5 0 0zm18.3-.25c-2.64-2.49 1.72.81 0 0zm3.54.16c-.05-.63 1.03 1.36 0 0zm-24.5 0c.44-.4.2.37 0 0zm.96-.4c.36-.63.53.4 0 0zm6.8-.05c.44-.41.2.36 0 0zm8.54-.14c-.4-1.12.6.58 0 0zm6.94-.06c.38-.7.24.63 0 0zm14.26-1.15c.13-2.82 1.76 2.47 0 0zm-39.11.9c.44-.42.2.36 0 0zm38.86-.3c-2.37-1.5 2.56 1.22 0 0zm-16.62.06c-.2-1.15 2.03 1.22 0 0zm3.25-.1c-.15-1 .63 1.14 0 0zm9.39.11c1-.82 2.01.27 0 0zm-20.06-.12c.18-.58.27.61 0 0zM12 115.77c.31-.62.31.62 0 0zm18.87 0c-.22-.8.47.55 0 0zm-2-.31c-.23-.79.46.56 0 0zM13 115.24c.2-.84.56.63 0 0zm21.92-.02c-2.9-2.07.63-2.38 0 0zm-1.87-.21c-2.01-1.87 1.96-.4 0 0zm-18.98-.15c.46-.7.46.7 0 0zm29.05-.06c.32-.94.5.75 0 0zm2.83.08c.15-.93.75.85 0 0zm-17.34-.24c1.45-2.95 1.57.14 0 0zm16.55.12h.4zm-19.14-.32c-1.21-1.46 1.26.77 0 0zm-4.38-.11c-.33-.83.95 1.09 0 0zm26.23-.53c.51-.43.22.62 0 0zm-30.59-.16c.44-.36.16.6 0 0zm3.95-.02c-2.76-1.74-.34-1.93.4-.1zm14.37.07c.44-.41.2.36 0 0zm6.11-.4c-1.07-1.07 2.37 1.1 0 0zm-11.89-.05c-.07-1.22 1.07 1 0 0zm14.65-.37c-.68-1.4 1.23 1.44 0 0zm-24.4.22c.44-.42.2.36 0 0zm-8.54-.2c.8-1 .1.57 0 0zm33.7.04c-1.29-1.07 1.44.22 0 0zm-19.66-.35c-.28-.88 1.3-.16 0 0zm4.27-.1c.44-.42.2.36 0 0zm6.52-.05c.51-.43.22.62 0 0zm-25.84-.15c.46-.7.46.7 0 0zm20.15 0c.3-.62.3.62 0 0zm1.27 0c.5-.71.57.75 0 0zm14-.55c-.95-1.93 1.85 2.08 0 0zm2.13.33c-.97-1.97 2.13.73 0 0zm-34.76-.34c-.7-.75.74-.23 0 0zm4-.37c-1.15-1.43 2.02 1.26 0 0zm9 .32c.52-.43.23.62 0 0zm-12.54-.25h.32zm15.89-.06c-.23-.82.73.38 0 0zm-3.18-.1.33.02zm.44-.34c-.08-1.03 1.37 1.13 0 0zm-14.76-.19c.35-.68.4.36 0 0zm17.9-.27c.28-.62.2.57 0 0zm13.3.04c.44-.41.2.36 0 0zm-16.3-.2c.4-.67.34.65 0 0zm17.86-.29c.3-.87.87.93 0 0zm-16-1.2c1.3-.57.97.6 0 0zm2.67-.16c.24-1.78 1.42-.17 0 0zm2.86.03c-.97-.84.96-.08 0 0zm-6.2-.66c.45-.36.17.6 0 0zm6.67-.1c.75 0 .49 0 0 0zm-2.58-.66c.42-.63.5.97 0 0zm13.83-.03c.84-.5.02.68 0 0zm-30.85-.56c.95-2.11-.57 2.05 0 0zm17.64.24c.29-.85.81 1.36 0 0zm10.7-.1c.35-.63.52.4 0 0zm.36-.43c1.18-.76 1.66 1.15 0 0zm-26.22-.6c.8-2.14.19.67 0 0zm8.79.26c1.21-.93 2.45.83 0 0zm5.82.01c-.64-.68 2.3 1 0 0zm18.57-.25h.32zm-35.44-.32c-.3-1.1.75.12 0 0zm12.7-.45c.43-.41.19.36 0 0zm-10.6-.67c1.06-1.22-.97 1.4 0 0zm6.33.02c.31-.62.31.62 0 0zm5.1-.06c.92-.85.56.45 0 0zm6.17-.3c-1.06-3.41 1.02.4 0 0zm-17.15-.06c-.03-1.23.97.1 0 0zm-.68-1.15c1.42-3.32-1.1-13.6 3.77-6.45.25 2.42-4.25-5.65-2.48.55.44 4.47 10.4-1.53 3.59 2.61-1.88.68-3.1 2.45-4.88 3.3zm1.5-1.97c.4-2.8-1.68-1.84 0 0zm.5-.1c-.74.27.45 1.53 0 0zm-.52-2.06c-1.32-1.8.94 3.18 0 0zm11.06 4.26c.23-.9.52 1.04 0 0zm-10.44-.53c2.76-3.64-.38 2.17 0 0zm8.35-.77c.27-.61.18.58 0 0zm-6.73-.37c.9-2.09.16.98 0 0zm1.84-1c.38-.7.24.63 0 0zm5.18-.23c-.9-2.3.97 1.2 0 0zm-4.04-.11c1.74-1.7 2.2-.07 0 0zm4.83-.65c.33-.3-.14.73 0 0zm-7.58-1.44c-.23-.8.46.56 0 0zM20.29 97c-.06-1.24.8.81 0 0zm-1.2-.07c-.3-.94.89.23 0 0zm81 66.15c.24-.62.38.7 0 0zm-.8-1.21c.2-.58.28.61 0 0zm1.34 6.24c.23-.63.37.7 0 0zm-.8-1.22c.18-.57.27.62 0 0zm5.56 10.74c.24-.62.38.71 0 0zm-.8-1.21c.18-.58.27.61 0 0zm3.18-4.87c.24-.63.38.7 0 0zm-.8-1.22c.18-.57.27.62 0 0zm1.6-3.01c.23-.63.37.7 0 0zm-.8-1.22c.18-.58.27.61 0 0zm-3.17-5.93c.23-.62.37.7 0 0zm-.8-1.21c.18-.58.27.61 0 0zm-4.23-2.23c.24-.62.38.7 0 0zm-.8-1.21c.18-.58.27.61 0 0zm-.79 4.65c.24-.62.38.7 0 0zm-.8-1.21c.18-.58.28.61 0 0zm14.3 14.44c.23-.62.37.7 0 0zm-.8-1.21c.18-.58.27.61 0 0zM103 182.66c.24-.62.38.7 0 0zm-.8-1.21c.18-.58.27.61 0 0zm9.53-1.43c.24-.63.38.7 0 0zm-.8-1.22c.18-.58.27.61 0 0z" style="display:inline;fill:#474747;fill-opacity:1;stroke:#000;stroke-width:.351;stroke-dasharray:none;stroke-opacity:1"/><path d="M24.52 114.05c.49-.33.38.59 0 0zm-.66-1.67c-.4-1.53-2.1-4.94-.89-1.44-3.01-2.46-3.02-4.66 1.22-2.95-3.27-.78 2.13 7.28-.33 4.39zm-2-4.68c-1-1.04.22 1.03 0 0zm-.63-1.32c-.29-1.17.97.95 0 0zm-.53.01c-.27-.64.84.65 0 0zm-.22-.93c.88-.6.12 1.16 0 0zm-2.42-5.79c1.09-.84-.3.83 0 0zm.18-.85c.19-.83.1 1.04 0 0zm.47-.19c.52-.61.09.85 0 0zm-.66-.59c.3-.87.52.63 0 0zm.5-.31c.49-2.14.73.8 0 0z" style="fill:#681c1c;fill-opacity:1;stroke:#43040b;stroke-width:.299167;stroke-dasharray:none;stroke-opacity:1"/></svg>