<svg xmlns="http://www.w3.org/2000/svg" xml:space="preserve" width="481.39" height="703.56" viewBox="0 0 127.37 186.15"><path d="M81.5 54.28c-2.07 1.24-1.94 3.35.03.41.42.05.87.2 1.23.36q-.45-.26-1.27-.77m1.26.77c.54.3.77.42.8.42a4 4 0 0 0-.8-.42m.72.47c.78 1.27 1.31 1.1 0 0m.87 1.13c-2.71 2.07 2.32 2.37 0 0m-4.46.02a4 4 0 0 0-.43 1.29c.03.03.2-.35.43-1.29m-1.47 1.8-.34.32.06.09q.09-.2.28-.41m-.28.4c-.63 1.32 1.44 2.23 0 0m7.9 1.1c1.97 4.46 10.4 3.18 9.7 8.24 2.6-3.44-6.72-4.58-8.58-7.43-.43 0-.66-.8-1.12-.8m9.7 8.24-.13.15.09.05zm-.13.15c-2.22-1.25-6.97-2.7-2.88-.45 2.98-.38 1.16 2.35 1.16 2.4.02 0 .27-.35 1.01-1.26q.43-.36.7-.69m-13.1-8.2q-.34 0-.8.2c1.91 1.3 2.02-.22.8-.2m-3.96.2c-.6.05.53.55.89.61l-.06-.03.07-.07c-.13-.1-.4-.26-.9-.5m.9.5c.14.11.1.14-.01.11 2 1.27 3.35 3.95 1.67.31 2.5 1-.27-1.79-1.66-.41m-17.01.06q-.24.08-.17.14.07-.08.17-.14m-.17.14c-2 1.7-1.4 3.62.2.77 4.16-.04.06-.44-.2-.77m-15.8.61c-3.8 2.65 4.37 7.8 3.98 12.36.91-4.79-7.5-9.23-3.98-12.36m3.98 12.36c-.12 2 1.08 3.1 0 0M83.6 62.44l-.36.01c1 .26 2.04.61 3.04 1.08a5.3 5.3 0 0 0-2.68-1.09m2.68 1.09c3.02 2.1 5.79 6.46 5.3 5.36-.78-2.53-2.92-4.26-5.3-5.36m-37.1-.78c-.1 0 .15.71 1.09 2.53.18.99-.22 2.24 1 2.69-.18-2.24-1.9-5.24-2.1-5.22m2.08 5.22c.37.83.63 1.17.85 1.24-.07-.33-.32-.76-.85-1.24m.85 1.24c.23 1.14-1.72 1.2-1.93-.88.26 2.9 1.34 4.28 3.38 4.97a2 2 0 0 1-.51-1.23c-.96.23-3.19-1.24-.38-2.03q.33.43.5.76a9 9 0 0 1 1.4-2.86c-1.55-.39-1.87 1.45-2.46 1.27m2.46-1.27q0 0 0 0l.02-.03zm-1.4 2.86q-.16.64-.12 1.27c.38-.1.56-.47.12-1.27m10.89-7.88c.64.75.98 1.02 1.01.99.02-.05-.31-.45-1.01-1m1.01.99q0 0 0 0c1 3.32 3.07 2.2 0 0m9.6-.82q-.15.45-.29.98c2.07-2.2 5.41 9.57 3.19 2-.6-1.23-1.54-2.55-2.9-2.98m-.29.98q-.21.24-.42.7.08.35.12.7zm-.3 1.4c-.97 4.97-1.7 12.21-8.22 10.71-.34-.53-.47-.74-.5-.76 0 .05.6 1.2.47 1.62 5.3.63 8.85-6.53 8.25-11.56m-8.25 11.57a6 6 0 0 1-1.09-.24c.72.48 1.01.47 1.09.24m-4.87-13.1c-2.22 1.37-.15 2.24 0 0m-2.55.5q-.47.66-.98 1.36.68-.53.98-1.36m-.98 1.36c-1.88 1.53-5.41 1.4-5.39 1.45.03.03.75.1 2.62.35 1.23-.06 2.07-.88 2.77-1.8m8.73.36c-3.78.36-5.92.72-2 1.82.43-.88 1.97-.67 2-1.82m-6.43 1.53c-.22 0-1.12.4-2.86 1.57 2.07-.69 3.2-1.56 2.86-1.57M37.9 68.72h-.41c-2.38.35-2.6 2.6-2.21 4.8.2-3.23 3.23-6.94 3.77-1.73 0 1.77 1.53 3.5 3.25 5.13-1.12-1.36-2-2.92-2.5-4.47-.86-1.24-.04-3.61-1.9-3.73m4.4 8.2c.84 1.02 1.8 1.93 2.86 2.65-.86-.84-1.89-1.73-2.86-2.65m2.86 2.65c2.23 2.2 3.29 4.14-.99 5.65-4.6-.18-.47 2.05-3.78 4.06 1.1 1.13-2.84-.94.01 1.1-.18 2.78-2 3.97-3.95 5.08 1.68-.63 2.91-.95 3.17.45a30 30 0 0 1 .87-4.72c1.9-4.55 5.47-6.18 8.88-7.91-1.3.25-3.09-.12-.04-1.45.86.39 1.1.71.98.96a17 17 0 0 0 4.06-2.78c2.65 1.47 3.24-4.84 1.1-.99-3.23 3.27-7.14 2.74-10.3.55m5.15 3.22-.94.49c.45-.1.84-.26.94-.49M39.62 95.91c-.05.57-.02 1.15-.05 1.72q.16-1.1.05-1.72m-.05 1.72c-.03.21-.03.38-.08.62q.04.16.05.33zm-.03.95c0 .5-.06.98-.04 1.46q.12-.73.04-1.46m-.04 1.46c-.35 2.23-1.6 4.3.5 4.15-.17 2.05-1.43 4.75 1.11 6.16.9 4.65-2.35-1.67-2.5 3.13-1.55 3.5-.08-.93-3.1 1.38-1.21.84 3.62 1.32 3.67-1.52 2.86-1.44 2.9 10.26 4.32 9.77-.84-4.06-4.09-10.08-.85-13.14 1.7 1.85 2.1 6.66 1.82 1-.4-1.7.81-1.15-2.47-1.64-1.6-2.66-2.36-5.94-2.5-9.29m-3.05-4.58-1.82.68-.2.51q.98-.62 2.02-1.19m-2.02 1.2c-1.48.98-2.7 2.24-2.91 4.55-2.19 1.97-1.66 8.33-.75 8.07-2.28-4.88 2.02-8.82 3.66-12.63m.85-23.14c-.06.86.08 1.69.52 2.3l.3.63c-.3-.82-.64-1.87-.82-2.93m.82 2.93c.35.91.66 1.53.7 1.56a12 12 0 0 0-.7-1.56m42.17-7.3c-.43 2.99.1 3.35 0 0m-22.16.44c-.26.02-.84.5-1.75 1.82l-.51.78c2-.71 2.79-2.63 2.26-2.6m8.66 1a1 1 0 0 0-.44.13c.32.27.62 1.23.86 3.24.46-2.51.15-3.36-.42-3.36m-.44.13c-.31-.25-.65.13-1.02.85.34-.37.7-.69 1.02-.85m-1.02.85c-1.03 1.12-1.88 2.8-1.05 2.53.36-.96.72-1.88 1.05-2.53m41.93-.48c-4.3.5 6.46 2.1 0 0m-84.8.21c-6.06 1.74-.59 4.86 1.04 8.52l-.17-1.51c-2.2-2-5.94-6.8.06-6.48 2.8 3.91 1.48-.36-.93-.53m1.04 8.52c.1.78.22 1.63.37 2.45a4 4 0 0 0-.37-2.45m.37 2.45q-.07.3-.16.57c-.98 1.88 2.99 7.37 2.9 3.33-1.38 1.45-2.23-1.08-2.74-3.9m56.2-10.73c-1.13.8-3.5 3.28-.8 1.59-1.3 1.63-.66 2.9.33 3.72-.22-1.78.18-3.56.48-5.31m-.47 5.31.02.17.35.11zm.37.28c1.64 1.15 3.67 1.22 0 0m26.12-5.1c-.2.3-.19 1.05-.13 1.33.13 3.09 1.6 7.3.7 1.57l-.6-1.03-.1-.54c.05.28.15.11.13-1.32m3.02.91c-1.3 2.45 1.05 4.18 0 0m-68.85.17 2.28 10.54c3.17.88.05-2.94-.07-4.51zm15.24.68c-.16 0-.65.46-1.65 1.73l-.5.4-.42.1c.76 1.47 3.04-2.24 2.57-2.23M23 74.3c-.77-.04-.5.98 2.2 1.56-.9-1.12-1.74-1.53-2.2-1.56m2.2 1.56c-.07.02-.09.1.12.2.2-.18-.02-.24-.12-.2m48.43-1.13-.27.03c-.2.05-.27.08-.2.29q.06.24-.03.49l-.25.72q-.18.5-.44.94-.34.57-.75 1.1-.26.4-.59.76c-.24.23-.47.31-.8.33l-1.42.1h-2.34c-.24 0-.5.02-.72-.06l-.04-.02.05.03c.23.08.48.07.72.07h1.15l1.2-.01 1.4-.1c.34-.02.58-.1.82-.32q.31-.36.6-.77.4-.53.74-1.1c.18-.3.3-.62.44-.94l.25-.72a1 1 0 0 0 .04-.5c-.08-.2 0-.23.18-.28q.28-.05.56 0c.18.05.24.28.3.44q.17.52.27 1.06c.08.33.05.65 0 .98q-.08.39-.21.76l-.22.55q-.08.24-.1.48 0 .3.09.58.1.28.29.51c.22.23.52.34.8.46q.53.18 1.05.38.51.19.96.5l.99.73q.5.39 1 .78.45.35.77.81.19.28.43.5c.16.2.44.31.61.5v.06c-.01.1-.21.2-.3.24q-.26.1-.54.08a3 3 0 0 1-.82-.3q-.43-.21-.85-.42-.92-.44-1.82-.87-.84-.37-1.7-.68-.55-.18-1.09-.33-.56-.13-1.12-.27-.5-.14-1-.3-.41-.11-.81-.24-.6-.17-1.2-.3-.78-.17-1.6-.24a6 6 0 0 0-1.26 0q-.57.1-1.11.25l-.72.14q-.3.04-.62.03h-.65q-.31 0-.63-.07l-.47-.17q-.2-.03-.2-.23c.08-.24.2-.48.27-.73q.06-.22.1-.44L62.8 80q-.04.23-.1.44-.13.37-.28.73c0 .17.1.2.24.25q.24.1.47.17.32.08.64.08h.65q.3.01.62-.04l.71-.14q.55-.16 1.12-.24.63-.07 1.26-.01.8.07 1.6.25.6.12 1.2.29.4.13.8.25l1 .3q.57.12 1.13.26t1.08.34q.87.3 1.7.67.91.45 1.82.87c.3.13.57.3.86.43.26.12.53.25.82.29q.28.02.54-.07c.09-.05.29-.16.3-.25v-.06c-.17-.19-.45-.3-.61-.5a3 3 0 0 1-.44-.5 4 4 0 0 0-.76-.82q-.5-.37-1-.78l-1-.73q-.45-.31-.99-.52l-1.04-.37c-.27-.12-.56-.22-.78-.44a2 2 0 0 1-.28-.52q-.09-.27-.09-.57.01-.24.1-.48l.22-.55q.14-.37.2-.76c.06-.33.09-.65 0-.98a8 8 0 0 0-.27-1.06c-.06-.18-.12-.4-.33-.47q-.14-.02-.28-.02m-7.85 4.68-.05-.03zm-.05-.03q-.19-.14-.34-.33l-.4-.5q-.3-.4-.63-.77a2 2 0 0 0-.56-.53c-.25-.07-.36.06-.44.3q-.18.63-.42 1.25c-.11.33-.23.66-.25 1l.01.01c.02-.34.14-.67.25-1q.25-.6.43-1.26c.08-.23.18-.36.44-.29.21.12.37.32.52.51q.34.38.64.78l.4.49q.14.2.35.34m-8.14-4.37c-.32.3-.25.47-.1.53.12.04.28.02.38-.03.16-.08.19-.26-.28-.5m.28.5c1.14 2.14 1.73 1.23 0 0m-.37.03c-1.29 1.92-.65 2.97 0 0m-36.2.17c1.37 4.23 2.39 2.48 0 0m39.97.72c-.24 0-.69.26-1.44.96l-.69-.33c.43 3.67 3.1-.65 2.13-.63m-35.89.45c-.12 0-.07.83.4 3 .98 2.78-.13 3.34-.96 2.91l-.24 1.04-.5 1.08c3.6-.7 1.67-8.05 1.3-8.03m-2.35.68zc-.02.02-.05.15-.07.48.12.3.11-.44.07-.48m38.78.03-.44.18zm27.54.4q-.35.5-.78 1.03c1.15-.6 2.1.36 1.56 3.44.13 2.46-1.6 6.5-2.51 6.04 2.57 1.66 5.05 2.94 1.52 4.66-1.09 3.44 5.76 4 .65 1.98-.59-2.94 4.45-5.72 5.57-3.78-.34-1.47-1.17-2.46-2.93-.31-6.74-1.34.8-9.35-3.08-13.05m6 13.37c.11.46.17.97.19 1.44.09-.64 0-1.11-.18-1.44m.19 1.44q-.09.6-.37 1.37c.2.96.42-.07.37-1.37m-6.97-13.78c-.5.26-1.04.83-1.5 1.66q.8-.8 1.5-1.66m-1.5 1.66c-1.57 1.56-3.29 2.78-4.19 2.4 1.85 3.7.85.06 3.65-1.22q.24-.66.53-1.18M23 78.12c-1.77 2.68 2.09 4.18 1.25 1.74zm57.42.45v.04h.02c.01 0 .03-.04-.02-.04m.02.05c-1.43 2.23.92 5.6.11 1.27zm-42.8-.05c-.05.01.25.65 1.03 1.92a10 10 0 0 0-1.03-1.92m1.23 2.63c-.2 0-.24.74.13 2.68-.03 1.11-.13 2.23-.1 3.35 1.81-1.65.45-6.03-.03-6.03m21.6.22c-1.4.07 3 1.17 0 0m-.63.23c-1.27 1.44-4.56 1.67-6.32 1.67 2.29.47-1.03 3.3 0 .61-4.83 3.49 4-.03 4.98-.25l.6-1.17zm-6.32 1.67a4 4 0 0 0-1.14-.06c.03.02.47.06 1.14.06m-2.44-.16h.5zm11.68.95c.5 2.61-5.36.25-.42 2.65.49-.16 1.55-1.97.42-2.65m42.33.81c-1.3.07-2.74 2.46-2.52 5.2-.33 1.1-.92 2.12-1.32 3.2 2.95-1.74 1.44-12.58 5.2-5.98.4.8.57 2.08.64 2.84l-.04-1.48c-.22-2.78-1.06-3.82-1.96-3.78m-29.48.34c-4.76.36-1.27 11.9-.63 3.87 4.67-4.66 1.72 3.07 1.16 4.43 1.29-2.28 5.07-8.07-.04-8.3zm.53 8.3-.02.04q-.13.34.02-.04M48.61 85.6c.02.09.04.17-.05.23-.24.13-.52.17-.77.3-.24.09-.28.17-.43.37q-.33.44-.72.81c-.43.35-.9.65-1.3 1.03q-.68.65-1.22 1.42l-.5.68q-.57.69-1.15 1.37c-.22.27-.41.5-.6.78a5 5 0 0 0-.8 1.9l-.1.52c-.15 1-.17 2.04-.2 3.06l.01.75c.04.94.16 1.88.23 2.82l.02.01c-.07-.94-.2-1.88-.23-2.82l-.01-.75c.02-1.02.05-2.05.2-3.07l.09-.52q.2-1.01.8-1.89c.2-.28.39-.51.6-.78q.58-.68 1.15-1.37l.5-.68c.37-.5.77-1 1.23-1.42.4-.38.87-.68 1.3-1.03q.39-.38.72-.8c.15-.21.19-.29.43-.39.24-.12.53-.16.77-.3.09-.05.07-.13.04-.23zm1.85.13c-1.37 4.06 2.4 8.5.74 2.85-.27-.95-.55-1.89-.74-2.85m25.2.75c2.57 2.57-5.79 1.19 0 0m-20.93.05.02.01h.03zm.05.02q1.1.37 2.24.64l.57.13-.02-.01-.56-.13q-1.13-.28-2.23-.63m50.12.29c1.05 3.78-1.15 8.51-2.57 11.13 3.23-.98 5.91-8.95 2.57-11.13m-23.2.37c-.72 4.75-4.27 8.9-4.08 13.85.46 2.3.73 8.23 2.17 3.1.43-1.96-.12-3.73-.46-5.57-.39-2.08-.5-4.25 1.38-6.88 1.06-2.57 4.57.63 1.83-3.6l-.49-.65zm-42.87.07c-.06 0 .03.65.43 1.84-.18-1.26-.37-1.85-.43-1.84m22.57.12c-2.62 1.43-2.45 9.96-1.93 4.57-.1-1.8 1.44-3.07 1.93-4.57m2.12 3.04c2.13 1.76 1.43 3.46 2.38.72-.8-.22-1.58-.53-2.38-.72m43.64.69c-.53 3.28.2 2.81 0 0m-54.94.16c1.32 1.64 3.68 3.15 0 0m-4.95.65c-1.35 1.17 1.54 3.14 1.5 5.02q.16-.2.28-.34c.32 2.41 2.67-3.86.26-1.66-1.13-.66-1.23-2.3-2.04-3.02m1.5 5.02a24 24 0 0 0-1.31 1.82c.95-.57 1.29-1.2 1.3-1.82m-1.31 1.82q-.2.14-.44.24c-2.04 1.87-1.1 6.32.58 1.58-1.87 1.3-1.16-.25-.14-1.82m39.43-6.62c-2.36 1.34-4.15 11.81-2.18 4.62-.21-2 2.6-3.16 2.18-4.62m-36.15.42c0-.13-.07.31-.26 1.76.15-.9.25-1.62.26-1.76m23.22.14c-.56 2.6-.02 2.63 0 0m9.05.1c-1.86 2.02-2.39 8.47-.82 2.44.26-.81.75-1.57.82-2.44m18.27.55c-.05 0-.5.45-1.3 1.44.9-.88 1.32-1.4 1.3-1.43m5.67.05c-2.65 3.4-1.35 5.37-1.9 8.72.7-2.9 1.37-5.8 1.9-8.72m-81.43.06c-2 .13.7 1.48 1.51 2.86.03-1.2-.44-2.5-1.51-2.86m1.51 2.86c-.01.6-.14 1.16-.38 1.59.72-.48.7-1.04.38-1.6m32.57-1.9c-1.32 3.97 5.08 9.19 2.67 4.19-1.35-1.04-1.97-2.7-2.67-4.19m-35.43.02c-.56.21-.85 2.16 0 0m51.53.05-.03.37zm-19.53.1c-.64.12-1.3.24-1.96.27h.02c.66-.02 1.31-.14 1.96-.26zm17.53.08c-1.52 1.03-6.76.9-4.48 5.35 2.83 3.5-.95-8.32 3.58-2.86.52 3.08-1.9 2.28.97 3.48-.55 3.59.21 6.16 1.07 1.57 1.25-2.52.67-6.44-1.04-3.4-1.17-.8.16-2.92-.1-4.14m21.53.12c-.7.35-.81.85-.68.98.13.1.44-.1.68-.98m-.67.98q0 0 0 0c-2.66.26-.4 1.16 0 0m4.82-.89c-.27 0-.8.18-1.73.63l-.74-.15c-.24 2.71 3.65-.48 2.47-.48m-33.95.55c-1.5 3.5-.49 5-1.1 8.6-2.82 1.56-3.12 4.07-1.41 5.02q-.4 1.53-.67 2.3-.02.55-.14.42l-.06.22c.06-.03.44-.78 1.4-2.44.71-1.33-2.63-4.1.77-3.46-.58-.79-.7-1.73 1.1-1.57 1.59 3.5-.24 2.72-1.09 1.58 3.3 4.55 1.13-4.35.78-6.35 1.5-.8.93-1.58.42-4.32m-1.2 10.67-.01-.01zm-2.12 5.67.14-.41q0-.36-.14-1.03c-.16.83-.09 1.33 0 1.44m28.27-14.54c-2.86.2-5.67 3.12-.41 1.3 2.55.4 9.5 3.63 4.17-.56l-1.17-.42-1.39-.22q-.58-.15-1.2-.1m-41 .32h-.01v.01zm14.33.38c-.12 0-.59.38-.55.66.53-.5.62-.67.55-.66m-27.22.25c-.55.14-.47.75-.27 1.1.23.43.62.47.27-1.1m-.27 1.1c-2.46-1.78-3.3 10.11-.98 3.2q.6-1.55.98-3.2m63.38-.17c-4.6 4.74 8.88-1.31 1.98.59-1.4 1.67-1.16-.22-1.98-.6m-53.24 1.53q0 0 0 0m51.98.11c-.36.02-.48 1.66.1.03zm-9.06.54c-3.49.27-2.34 10.53-.13 7.44-3.04-2.48-.8-8.57 2.16-5.88a2.1 2.1 0 0 0-2.03-1.56m-33.06.06c-4-.18-4.64 6.64-1 3.64 2.24.3 6.47-3.23 1.84-3.5q-.45-.12-.84-.14m41.82.03c-.37.14-.05 1.23 0 0m-14.71.35c1.15 3.05-7.06 9.02-2.21 9.3.5-.37.98-1 1.39-1.8-.8.79-3.5-.86-.25-1.96.39.7.5 1.21.45 1.56.96-2.13 1.42-5.12.62-7.1m-.62 7.1-.2.4a.7.7 0 0 0 .2-.4m16.12-6.66c-3.77 3.38 5.47 1.39.31.27zm-42.49.3c3.87 1.67-6.32 3.26-1.13.15zm56.53.32c-1.7.2 1.23.93 2.02 2.07-.06-.9-.63-1.76-2.02-2.07m2.02 2.07q.05.7-.23 1.35c.53-.5.51-.95.23-1.35m-.23 1.35q-.24.22-.63.46c-2.05-1.66-2.9-3.82-2.25.31 1 1.36 2.34.52 2.88-.77m-72.2-3.3c-2.82 1.98 5.18 5.45 4.8 1.57a6 6 0 0 1-1.8-.66c.78 1-1.95 2.55-3.32-.39l.17-.19.42-.07q.99-.03 1.6.1a4 4 0 0 0-1.87-.37m1.87.36q.57.25 1.13.55-.24-.37-1.13-.55m-25.94.19q-.4.8-.83 1.6c-.27.55-.55 1.1-.73 1.69l-.11.4-.06-.03.05.07c-.04.17-.06.32-.1.58a3.8 3.8 0 0 0 .8 2.88l.4.44c.87.81 1.96 1.25 3.1 1.49.5.07.96-.04 1.42-.21.29.1.61.13.91.18q.2.02.36-.06l-.63-.43.21-.12c.48-.31 1-.64 1.38-1.08l.23-.3c.28-.53.74-1.14.57-1.77q-.04-.15-.13-.3c-.46-.6-1.19-.78-1.9-.93q-.9-.16-1.82-.27c-.4-.09-.81-.12-1.2-.25-.44-.14-.54-.6-.67-.99-.15-.5-.28-1.02-.48-1.5-.16-.35-.45-.55-.74-.77h-.02c.3.2.58.41.74.75q.28.74.48 1.52c.15.42.23.85.7 1 .4.14.8.17 1.2.25q.92.12 1.83.27c.7.15 1.4.32 1.87.91q.07.15.13.3c.17.63-.3 1.24-.58 1.76q-.1.16-.23.3c-.38.45-.9.78-1.37 1.1l-.22.11-.17-.11q-.15.05-.32.02c-.14-.02-.94-.2-1-.18-.04.01.04.14 0 .14h-.02l.03.02q.33.17.66.35l.17.07c-.45.17-.92.27-1.4.2a6 6 0 0 1-3.06-1.46q-.21-.22-.4-.44a3.8 3.8 0 0 1-.82-2.88l.1-.57q.04.08.1.12c.16.15.36.25.51.41l.02.02c.01-.09.16-.06.24-.08l-.03-.16-.82-.36.1-.4c.19-.6.47-1.14.74-1.7q.43-.78.83-1.6zm-1.04 4.3q.02.13.13.24-.05-.13-.13-.24m.13.24.04.06.65 1.13q.44.95 1.16 1.71l.02.01a6 6 0 0 1-1.16-1.7q-.32-.58-.66-1.14zm3.7 3.84q.12.08.26.08zm90.77-8.26-.15.4zm-7.27.12q-.23.72-.6 1.53c-4.13 3.32 4.88 7.87 7.06 10.94-.13 2.72-11.62-8.52-6.05-2.7 3.6 1.47 5.74 4.49 4.48 7.9.58-1 1.24-3.73 1.27-3.77.01.02-.12.63-.45 2.27 5.67-5.82-6.84-6.93-6.56-12.58zm-7.1.12c-.38.02-.5 1.66.1.03zm-.32.63c-.36.14-.05 1.22 0 0M77 105.57c-4.17 4.28 3.93 3.2 0 0m36.07.48c1.6 2.67-3.27.65 0 0m-64.52.14c-1.6.94.33 3.85.54.75 2.4 2.5 1.04-.46-.54-.75m44.74.68c-.7-.03-1.18.03-1.25.23-1.45 3.46 4.56-1.33 7.64 1.83 3.93-.1-3.33-1.93-6.39-2.06m-32.35.79c-.3-.02-.79.05-1.44.3 1.77.64 2.37-.24 1.44-.3m-1.9.32c-.16.01-.48.23-1.01.81.71.65 1.46-.85 1.01-.81m-1.01.81c-.01-.12-.14-.1-.52.28q-.01.39.1.4c.15.02.43-.5.42-.68m-.42.67c-.95 2.94.42 4.17 0 0m-24.8-1.45c-.82-.01-.91 3.77-1.65 2.02.47 3.77-3.06 6.8-6.61 7.21 1.67 0 3.35-.34 4.76-2.12 2.46-2.01 2.86-7.2 4.45-5.9-.4-.88-.7-1.21-.95-1.21m-8.26 9.23q-1.1-.02-2.16-.1 1.06.24 2.16.1m-2.16-.1a5 5 0 0 1-1.84-.78c-2.02 1.18-2.97 3.1-4.5 4.32q.54-.08 1.15-.06c.96-3.43 2.95-3.6 5.2-3.48m-6.34 3.54c-1 .16-1.8.56-2.5 1.1a5 5 0 0 0 2.5-1.1m-2.5 1.1q-.4.07-.83.07a33 33 0 0 1-6.31 7.73c3.52-1.22 4.45-5.65 7.14-7.8m-7.14 7.8a5 5 0 0 0-.43 1.2c.04 0 .22-.42.43-1.2m24.75-19.55q0-.08-.07-.11l.06.12zm30.2-1.85c-.15.01-.26.6-.22 2.28q.12.14.19.44c1.26 2.02.47-2.77.03-2.72m-.03 2.72-.19-.32v-.12c-.44-.5-1.25.36.14 1.55q.14-.71.05-1.11m.56-2.56zv.04l.01.05zm.01.09c-.21 2.25 1.1 2.35 0 0m-24.15.22h-.03c-2.95 2.13 1.6 3.03.76 1.96 1.35.28.02-2-.73-1.96m63.92.43c.16 2.35 3.2 3.08 0 0m-31.59.1h-.04c-2.8 1.17.59 6.07-.14 1.6.94 2.1 1.04-1.58.18-1.6m-11.68.02c-.94 2.93.43 4.17 0 0m-1.49.1c-.04-.01-.52.57-1.86 2.09-1.04 1.14-.91 5.97 1.55 4.65-3.37-1.36.44-6.7.31-6.74m35.67.18c-3.09.04-2.47 4.69-.27.5 6.87 3.48-5.53 5.83-8.5 3.72-2.44-1.32-10.09-.73-3.91 1.3 4.88-.89 9.93.82 13.68.06-2.48 4.68-10.22 3.68-15.06 3.59-2.43-1.87-5.2.01-2.27 1.77 4.26-.43 8-.25 11.1.99 2.33-2.14 2.46 1.91 4.53-1.86 1.8 2.2-6.53 3.37-8.78 3.95-2.34.56-10.94-3.08-9.59-.1 4.62-1.84 6.07 4.85 10.19.18 1.94 2.26 6.64-2.39 7.12 3.34 2.5-3 1.85-11.84 5.25-11.34 2.66 5.14-1.9-5.91-1.23-.73-2.07-2.2 2.64-2.31 2.57-3.06 1.89-.27 2.13.61 1.8 1.94.5-.81 1.26-1.21 2.57-.66-2.53-1.99-5.6-3.56-8.9-3.58zm6.63 4.25c-.32.52-.52 1.21-.68 1.93q.44-1.05.68-1.93m-.68 1.93c-.6 1.5-1.32 3.13-1.28 4.32-1.03-1.22.74 2.48.64-1.4.26-.74.4-1.86.64-2.92m-7.71 11.26c-1.63 3.01-.52 2.41 0 0m-45.19-17.18c-2.22 3.61 3.5 7.97 2.12 5.93-2.96-.83-2.6-7.74.05-3.27-.55 6.3 3.48-2.25-2.17-2.66m-11.39.24.47.73zm25.8 1.03c-1.35.04 2.1 4.53.46.09q-.29-.1-.46-.1m14.08.07c-2.68 2.42-.53.5 1.26.99 0-.6-.8-.92-1.26-.99m-23.22 1.33c-.06 0-.13.13-.22.47.4.96.42-.47.22-.47m7.6.1c-1.05-.01-.08 1.4 1.74.64a4 4 0 0 0-1.75-.63m-5.8.07q-.14 0-.33.07v.01c2.68 2.57-3.29 4.99 1.05 4.15.07-.77.47-4.22-.71-4.23m-.33.08q0 0 0 0c-.05-.06-.45.03-1.28.49.81-.13 1.28-.4 1.28-.49m-2.24.13q-.35-.01-1.09.32c.94 1.23 2.1-.34 1.09-.32m7.73.07c-1-.03-1.36 5.95.21 1.47l.2-1.15q-.22-.32-.4-.32m11.96.17c0 1.81.18 2.26 0 0m32.95.88c.21 1.52 2.07 3.62 3.58 4.99-1.14-1.5-1.62-4.27-3.58-5m3.58 4.99q.42.55.97.83-.43-.35-.97-.83m.97.83c.82.63 1.27.82.78.17a2 2 0 0 1-.78-.17m-58.76-5.53c-.2 0-.03 1.27.05.45-.07-.23-.08-.28 0-.02l.02-.4q-.04-.04-.07-.03m.05.43v.02zm.11.34.1.32zm.42 1.1c.65 1.56 1.64 3.2 1.8-.45l.06-.72c.06-1.1-.82 3.06-1.86 1.17m20.72-1.51c-.9 1.93-7.42 3.72-5.47 4.53 2.7-1.81 4.93.77 5.47-4.53m-18.7.23c-.16 0-.28.62.24 1.32.06-.95-.1-1.31-.23-1.32m20.95.15c-1.7 2.72 3.44 3.86 0 0m-37.32.4a9 9 0 0 0-1.58 1.37c.03.03.58-.4 1.58-1.38m27.93.4h-.27c.68.02 1.4.25 1.44.95.16-.63-.51-.92-1.17-.95m1.17.95-.02.06.02-.02zm-.02.06c-.63.86-1.45 1.63-1.82 2.69l-.2.41c.51-1.03 1.11-2.05 1.92-2.88q.07-.11.1-.22m-2.12 3.3c-.43.71-1.37 1.11-1.72 1.87-.22.57-.2 1.58-.66 1.84q.22-.02.45-.11c.8-1.11 1.34-2.37 1.93-3.6m-2.38 3.71q-.26.02-.53 0l.07.03q.29.08.46-.03m-.53 0a2.2 2.2 0 0 0-1.4-.2c.46.01.93.15 1.4.2m-1.4-.2a1.5 1.5 0 0 0-1.3.58q.59-.45 1.3-.58m-1.3.58a3 3 0 0 0-.46.41c-1.18.96-1.58 2.56-2.79 3.49q-.38.3-.82.35.3.1.62.09c1.09-.07 1.58-1.22 2.18-1.97.53-.86.64-1.69 1.27-2.37m-4.07 4.25a2.4 2.4 0 0 1-1.52-2.87q.08-.57-.03-1.08l-.2-.68a7 7 0 0 0-1.96-2.5c-.85-.83-2.03-1.76-3.3-1.3q-.15.05-.27.18c.9.01 1.95.14 2.36.54 1.15 1.15 2.63 2.35 2.7 4.11-.08.87-.2 1.8.32 2.57a2 2 0 0 0 1.9 1.03m-7.28-8.25c-.85 0-1.57.1-1.55.2h.11q0 .02-.09.02l.27.05.7.08c.22.02.38-.18.56-.35m-1.53.22-.02-.03h-.2zm-.21-.03-.08-.02.03.03zm-.08-.02a.8.8 0 0 1-.28-.63q-.02.3.12.56zm-.28-.63v-.13zm0-.13zm.93-1.23.02-.01a4 4 0 0 1 1.1-.04 5 5 0 0 0-.88-.05q-.12.03-.24.1m1.13-.05.4.07zm.4.07zm.9.29zm.9.45zm1.3.81.04.04zm.04.04c.57.6 1.04 1.3 1.46 1.99-.25-.71-.53-1.3-.91-1.59zm1.46 1.99c.2.56.38 1.21.56 1.84q.14.33.21.68c.4 1.24.9 2.25 1.74 2.16.9-.11 2.06-1.67 3.1-3.3-1.22 1.27-2.3 2.18-3.02 2.08-.9-.12-1.57-1.78-2.59-3.46m5.61 1.39c.7-.72 1.44-1.55 2.18-2.38.7-.78 1.88-1.56 2.39-2.24 1.26-1.12.14-2.02 1.35-2.69-.6.24-1.1.68-1.49 1.2q-1 1.34-2.18 2.54c-.48.6-1.32 2.11-2.25 3.57m5.92-7.3q.36-.15.75-.19.2-.06.42-.07-.44-.01-.78.08-.23.08-.39.17m52.12.02c-1.53.25.95.86 1.94 1.94-.3-.93-1.07-1.76-1.94-1.94m1.94 1.94c.19.56.2 1.17-.03 1.68.6-.66.46-1.21.03-1.68m-.03 1.68-.29.13c.02.1-.13.4-.31.22l.1-.14-1.32.55q-.2.21-.43.2c-1.65.78-2.46 1.67-3.05 5.07-.84 2.72-2.93 3.28.45 2.18.58-.34 2.43 4.5 1.94 2.3.95-3.8-1.3-9.23 5.09-9.58 4.3 5.2-3.45 9.57-2.67 15.07-.13-3.93 5.12-11.62 6.94-6-2.48 6.57 2.76-1.7-1.39-2.8-.18-2.68-.94-8.85-5.06-7.2m-2.25.96.43-.2q.16-.15.25-.5a3 3 0 0 0-.84-.04q-.18.1-.37.26c-.04.21.23.47.53.48m-.53-.48q.02-.17.37-.26c.62-.37 1.07-.29 1.24-.22-.18-.11-.68-.5-1.6-1.62-.37-2.65-.56 2.09-.2 2.27zm1.6-.48.08.03zm.68.21.21-.08c-.01-.07-.07-.08-.2.08m-81.57-3.09c-.28.25-.53.82-.77 1.52q.42-.72.77-1.52m-.77 1.52c-1.33 2.27-3.04 3.8-3.3 3.67 1.71 2.5 2.48-1.3 3.3-3.67m-3.3 3.67zm83.31-5.14-.15.4zm-82.5.73c-4.95 1.21-6.89 2.18-1.37.41zm79.15 1.53-.4.4zm-85.74.13c-3.97-.03-5.5 4.02-9.12 5.14-2.12 1.4-7.33 8.55-2.9 3.5 4.09-3.1 8.22-6.37 12.85-8.57a6 6 0 0 0-.83-.07m11.9.66c-3.1 1.96.76 8.52-1.19 2.25 1.97-5.72 3.42 7.44 2.55.53-.27-.91-.32-2.38-1.36-2.78m73.73.48c-.12.01-.02.17.05.22.05.03.08 0 0-.21zm.05.22c.42 2.41.93 1.28 0 0m-45.2.34c-2.6 1.53-1.75 13.4-3.76 5.84-2.47-3.9-3.55.07-4.25 2.8 1.37-.9 2.48 2.95 1.83-.2 1.67-.83-2.16-3.84 1.05-1.7 1.04 2.27 3.63 3.52 3.26-.02 6.72 7.45 6.98-8.12 1.66-4.86.34-.48.69-1.33.2-1.86m-8 8.64-.1.06.04.15zm-.06.21c-.34 1.31-.59 2.25-.87 1.73-3.25-2.63 2.15 4.28.87-1.73m54.69-8.36zl-.32.4zm-.32.4c.02-.1-.03-.11-.23.2.05.2.2-.07.23-.2m-64.82-.26c-1.75 1.08-1.25 3.68-.3.55 2.2 1.65 3.47 2.98 1.09-.28zm-13.25 1.5c1.28 2.3 2.02 2.66 0 0m67.05.59c-3.46 2.56.52-.1 1.18 1.9-.09-.85-.39-1.69-1.18-1.9m1.18 1.9a8 8 0 0 1 0 1.47q.19-.97 0-1.47m-75.06-1.73c-2.02.64-2.3 2.99-.13.85-1.69 1.7-.67 8.44-1.99 4.4 1.32-5.33-.8-.48-1.16 1.87-1.53.45 2.2 2.1.6-.48 2.67.4 4.27 3.47 6.85 1.94-1.57-.81-3.25-2.1-4.78-2.2-1.36-2.65.45-4.32 2.66-5.5l-1.15-.68zm4.17 8.58q0 0 .03.02l.03-.06zm.03.02c-.5 1.08-.88 1.66-1.07 1.91.25-.23.85-.68 1.9-1.04 3.64 1.72 3.32 6.23 2.84 10.01.83-2.29 3.86-4.39.65-2.57-.29-2.2-1.28-6.73-.85-8.23-.98.9-2.18.58-3.47-.08m3.47.08q.23-.2.42-.49-.3.05-.42.5m.2 10.8q-.27.7-.17 1.35zm-.17 1.35c-.27 2.1-.43 3.8.3 4.38 1.58-.57 2.93-2.82 3.81-4.87-1.57 3.3-5.69 6.77-3.71 1.4a2 2 0 0 1-.4-.9m4.11-.49.13-.29zm.13-.29c1.01-2.45 1.29-4.47.23-2.69.4.66.22 1.65-.23 2.7m-8.81-9.54q-.15.15-.15.17zm83.23-10.17c2.71 3.24-2 5.96-.9 1.13l.34-.65zm-44.9.67c-1.88 1.08 1.58 5.23-2.72 3.8-4.5-1.14 1.12-2.91.72-3.31l-.11-.05q.1.01.11.05c.7.26 1.38-.31 2-.49m-49.9.18c-2.06 1.6-4.34 3.9-3.08 5.23-2.2 1.3 1.28 2.48.8-.86 1.23-1.74.45-4.4 3.9-3.51l-.87-.67zm16.57.22c1.5 3.87-8.21-.38-2.3 1.94 3.83 1.1 3.9 1.87 2.3-1.94m64.31.35a10 10 0 0 0-.61 1.99q.08 0 .61-2m-49.89.07c-.2 2.53 5.54 8.23 1.8 3.23-.9-.86-1.7-1.93-1.8-3.23m-11.41.13c-1.2.03-.03 1.6.27.02q-.16-.03-.27-.02m-12.98.1c-.03 0-.1.06-.04.1q.06-.07.05-.09zm49.32.35q-.3 0-.57.06c1.11 1.74 4.43 1.8 2.05 2.46-2.92 1.91-2.14 4.08-1.43 5.42 1.95-1.3 5.33-3.08 3.52.45 3.67-2.14 9.76-1.9 13.63-5.68-2.9 1.8.86-1.22-2.6.98-4.94 1.64-11.52-3.6-14.6-3.69m.05 7.94c-.74.5-1.27.92-1.23.97.03.02.42-.19 1.33-.78zm-54.76-7.32c.82 2.34 2.88 3.8 1.03 5.5.26 1.99-.56 5.24-2.07 3.42 1.15 2.7 1.2 8.62 1.81 8.14-.98-5.55.83-9.21 2.24-14.05-.08-1.1-2.05-2.3-3-3.01m-1.04 8.92a3 3 0 0 0-.63-.99q.33.63.63 1m80.1-8.19c-1.2 1.3-1.23 3.7-1.1 4.95-.13-1.33 1.14-3.53 1.1-4.95m3.73.19c-.42 2.7-1.91 7.1-.1 2.18-.02-.73.2-1.46.1-2.18m-66.07.61c.53.57.74.75.77.73q.01-.01-.04-.09c-.12-.18-.48-.58-.73-.64m.73.64q.44.45.77.96c.03-.2-.18-.5-.77-.96m.77.96c-.15.95-5.73-.47-1.87.58 2.79.25 3.62 6.44 3.72 7.26-.03-.27-.11-1.2-.21-3.12a12 12 0 0 0-1.64-4.72m72.05-1.14c-.12 0-.2.58.12 1.77.18-1.17 0-1.77-.12-1.77m9.92.35c-.47 3.46.01 4.58 0 0m-106.77 1.72c-1.81-.06-4.48 1.85-5.54.15-4.48 4.56 4.2-.36 5.89-.1zm.35.04zm96.7.04c-.13.01-.31.57-.46 2.08l-.36 1.18-.47 1.11c1.64-.89 1.63-4.38 1.3-4.37m-63.83.16q-.18 0-.38.04c-1.82 1.02.86.43 2.22 1.47-.41-.86-1-1.52-1.84-1.51m1.84 1.51c.3.65.51 1.42.64 2.09.2-1.05-.13-1.69-.64-2.09m.64 2.09-.04.18c.2 2.57.36 1.48.04-.18m64.97-3.5c-.7 2.44-.54 2.4 0 0m-40.43.42c-1.89.37-1.47 2.44 0 0m-12.55.16c-1.03 2.15 1.99 9.32.37 3.29-.38-.97.07-2.54-.37-3.3m-38.12.4c-.08 0-.3.12-.8.49.36.06.95-.5.8-.5m4.44.23-.1.05zm18.13 0a9 9 0 0 0 .3 1.7c.02-.04-.05-.6-.3-1.7m74.37.09c-.03 1.4-3.25 8.05-3.27 4-.02 2.94-.81 3.6-2.44 2.8 4.26 2.97-8.24 7.06-1.87 4.75 2.6-1.36 4.27-3.28 2.82.86 2.48-.98.33-2 2.45-3.87-4.97 2.05 3.66-7.03 2.31-8.54m-4.76 12.41c-1.12 1.28-.3 2.8 0 0m-.95-5.61q-.3-.23-.75-.43.4.25.75.43m-16.25-6.78.02.11zm.02.11c.08.6.2.9.22.5q-.16-.22-.22-.5m24.77.04a9 9 0 0 0-1.16 1.58c.02.03.46-.49 1.16-1.58m-67.05.14c-1.29 2.84-.6 6.77-.07 1.34l.07-.99zm-40.68.11c-.28.18-.55.5-.76.87zm-.76.87c-2.68 3.09-5 6.29-5.6 11.05a6 6 0 0 0-.41-2.01c.05.8-.29 1.28-1.08.4-.45 1.58-2.8-4.41-2.1-.02-.13 3.35 4.22-.36 4.06 4.44.31-2.6-.5-10.55 3.84-7.36-3.07-2.55 2.57-2.13 1.53.52.46 4.92 2.02 9.89 6.22 13.16 3 3 5.05 1.21 1.99-1.83.36 1.62.56 2.97.76 3.15-2.61-.66-10.63-8.4-4.13-9.32 1.81.6 2.74 3.44 3.3 5.84-.4-4.8-1.5-8.53-6.35-5-1.42-3.72-2.48-9.64-.9-11.29-1.74.79-1.72-.66-1.13-1.73m8.37 18.02.02.28.06.05zm-14.38-8.98c-.05-.81-.5-1.95-1.26-2.31.48.48.94 1.4 1.26 2.3m-1.26-2.31c-.42-.44-.85-.52-1.2.08.46-.25.87-.24 1.2-.08m106.6-7.5c-2.8 6.35-8.42 3.88-13.12 8.8-2.55.9 5.47-.46 1.16-.63 2.68-1.58 10.5-5.89 7.41-.42 1.34-.97 2.66-2.15 2.23-3.33a11 11 0 0 0 2.32-4.42m-4.55 7.75-.14.1.09-.01zm-.14.1c-2.69.3-5.19 2.98-5.84 3.63-.09.9-1.12 1.6-1.96 2.02l1.33-.41c2.43-1.8 7.58-5.1 6.4.8-.77 2.5-4.18 7.1-2.87 3.66-.73.96-4.15-4.47-2.95-.14-1.26.2-1.33-.4-1.1-1l-.35.45c-.28.97-.51 2-.8 2.99a4.2 4.2 0 0 1 2.25-2.4c-.07 2.58 3.55-.02 2.1 3.81-1.39 3.54-.82 7.22-5.29 4.83.16-1.3.18-2.9.44-4.4-1 3.7-1.79 7.44-.86 11.17 1.13 5.43 4.3 2.2 2.51 1-.4 7.06-6.48-10.8.7-6.55.9 2.1-1.42 8.08.35 2.74 1.26-5.54 2.56-11.17 6.16-15.74 1.58-1.41.3-2.44-.86-4.38-3.04.15-1.24-.75.64-2.08m-8.64 13.84q.24-.93.5-1.84-.35.87-.5 1.84m1.65-5.29c1.47-1.92.37-.94 0 0m4.05 1.15a15.03 15.03 0 0 0 0 0m.1-.26q.1-.28.26-.61a4 4 0 0 0-.42-1.17c.18.89.22 1.45.16 1.78m-.16-1.78q0-.09-.03-.17l-.09-.03zm-.12-.2c-1.23-1.8-3.59-1.15 0 0m-4.68-1.8a6 6 0 0 0-1.08.4c.04.02.52-.13 1.08-.4m-15.83-13.44c-1.66.2 1.28.95 2.1 2.1-.1-.91-.7-1.78-2.1-2.1m2.1 2.1q.06.69-.2 1.33c.5-.49.48-.93.2-1.33m-.2 1.33q-.22.22-.62.46c-2.1-1.49-3.01-3.94-2.23.28 1.06 1.35 2.37.53 2.86-.74m14.26-3.4c-2.28 1.35-2.55 3.89 0 0m-94.9.64c-1.2 3.17-.7 3.44 0 0m77.85.1-.14.4zm-10.26.1c-.07.02-.6.08-2.03.08-3.3.7-9.8 3.2-2.93 1.14a9 9 0 0 1 3.47.04c.09-1.01 1.38-1.24 1.49-1.25m-46.44.36c-1.57.71-2.46.26.83 1.21.51.05-.54-1.2-.83-1.2m51.66 0c-.91 1.73-.57 1.79 0 0m-63.26.24-.29.6zm65.8.24a.5.5 0 0 0-.3.19zm-.3.19c-3.86 2.42 2.04 1.93.8 5.32 1.48-.85-1.45-4.42-.8-5.32m.8 5.32c-.3-.05-.77.24-.02.6.34-.4.22-.57.03-.6M21 134.86c-.04 0-.31.24-1 .94a4 4 0 0 0 1-.94m49.89.4c-.13 0-.36.1 0 .13.12-.1.08-.12 0-.12m36.33.09c-.08 0-.5.56-1.03 1.66.85-1.11 1.12-1.68 1.03-1.66m-36.09 0c-5.28 1.52-5.34 7.33-7.12 10.5-6.49 1.86-5.98 7.74-2.13 11.85.6 4.45 13.79 7.17 12.5.05 1.1-3.86-2.86-3.57-3.77-2.38q-.15.38-.14.75a.8.8 0 0 1 .14-.75c.72-1.97 4.03-4.23 2.08-5.08 3.52.23 2.32-6.53 6.52-5.06-.52-.8.1-3.16-2.08-5.54.56 2.99-4.28 8.45-4.64 7.82.95-4.1-7.24-.05-8.53.77l-.08.13q-.07.02-.09.01 0-.03.17-.14c2.37-3.59 6-6.5 5.12-9.58.06-3.4 5.99-2.2 6.25.67 2.1-1.6-2.94-3.55-4.2-4.01m4.2 4.02c.19.76-7.89-4.85-4.33-.33 3.2 2.69 1.21 12.37 3.95 4.82.46-1.95 2.76-1.36 1.33-3.94zm-31.39-4c-.34 3.55 6.8 3.49 2.26 1.87-1.25.05-2.08-.44-2.26-1.88m32.91.3q0 0 0 0m-72.95.62c-1.3 2.48-2.63 9.46-.54 3.23.24-1.07.36-2.15.54-3.23m79.75.08c1.66 2.67-3.25.63 0 0m3.26.48q-1.17.73-1.55.92a5 5 0 0 1 2.04-.3c-.6 2.4-3.32 9.5-.44 3.48.19-1.07 1.37-3.44-.05-4.1m-1.55.92q-.22.09-.24.1v.01q0 0 .24-.11m-23.57-.48c-.38.01-.83.2-1.31.67 3.41 2.45 2.98-.74 1.31-.67m-1.31.67c.03-.08-.02-.14-.3-.07-.04.2 0 .25.08.24.08 0 .18-.1.22-.17m-.22.17q-.05.02-.06.05c-.07.16.5.54.06-.05m-.06.05c-2.6-1.38-4.22 4.53-.62.53zm16.63-.4q-.3-.02-.75.66c1.52 3.2 1.72-.75.75-.67m7.98.45c-1.15.87-1.72 1.4-1.7 1.44.01.03.58-.4 1.7-1.44m27.52.03.25.54zm-61.73.22c-6.32 1.28-4.58 13.42-5.2 15.25 2.26-4.48-1.34-16.7 7.31-12.75 3.19 3.49.7-.37-.94-1.88zm-5.2 15.25zm73.31-15.22c-.04.01-.19.63-.45 2.25.28 3.11-4.14-.64-1.1 3.87 1.03-1.42 1.68-6.13 1.55-6.12m-80.32.37q0 0 0 0c-.04.03-.06.7.06 1.51a7 7 0 0 0-.05-1.5m24.43.17c-1 1.71 1.05.36 0 0m-2.5 1.12c-.15 3.19-3.7 7.67-5.03 3.95 1.87 7.47 4.98-.99 5.04-3.95m-56.84.72-.15.4zm8.83.02c-.43.34-.6.58-.64.72l.22.2c.34-.03.88-.42.42-.92m-.42.91c-.14.02-.25-.04-.22-.19l-.44-.38c-.41.25.87 2.02.66.57m68.54-.3c-.16 0-.44.5-.72 1.96l-.45.54c1.4-.52 1.5-2.5 1.17-2.5m-11.27.37c-1.29 2.05.44.61 0 0m-67.13.75c-.16.24-.1.85-.04 1.1l.07.09c.03-.07.04-.4-.03-1.19m.03 1.19h-.01q-.03 0-.06-.1c.38 3.48 2.42 3.42.07.1m95.43-1.12q-.2.15-.3.3.2-.16.3-.3m-.3.3c-1.5 1.31-6.67 4.22-2.95 2.95-.3 1.7-.02 4.46 1.89 2.92-2.9 3.35-4.61 3.17-5.1 7.2l-.02.06c2.23-4.39 8.1-8.38 5.95-11.55.06-.49-.1-1.09.23-1.57M91 156.15q-.34.68-.55 1.35l.02.33c.2-.52.38-1.11.53-1.68m-.53 1.68c-.7 1.86-1.58 2.9-2.03-.98-.14-1.67.01-3.44-.02-3.46-.03.02-.12.62-.38 2.15-.83 3.1 2.71 7.77 2.43 2.29M4.6 143.36c1.6 2.67-3.28.65 0 0m80.73.57c-.97.1-.22 2.68 0 0m-66.31.78c-.07.35.19.03 0 0m76.24.09c5.28 3.5-1.86 2.87-.91.94-.16-.07-.11-.68.9-.94m-10.37.21zm-.05.3c-.76 2.92-9.19 3.2-6.73 3.67 2.24-.95 6.1-.73 6.73-3.68m-31.48-.16zc-3.64 4.83 1.72 10.46-.3 16.01.72.7-3.93 8.48-2.36 4.92-5.38 3.52-10.24-1.8-14.93-.09-3.82 1.8-9.2 5.11-11.54 7.96 3.34-.5 6.59-1.51 9.88-2.27-2.89.57-7.4-.44-1.97-2.34 4.5-3.79 9.75-2.03 14.12-.75 3.78-.75 9.21.57 7.38-5.28.24-3.2-.32-9.03.84-10.52-.2 5.8 3.47 14.12-2.24 17.98-3.14 1.27-5.76-.13-8.14 2.65-2.28-2.48-5.42-2.84-9.28-1.85.1-.23-.42.04-.4.09q.01.04.4-.09c2.34 2.77 7.56 2.66 11.37 2.63-.5-.18-.14-.5 1.94-1.08 4.37-.6 9.9.02 8.29-6.57-.4-6.78-1.06-13.62-2.45-20.27l-.37-.84zm-7.17 29.05c.52.19 2.01.2 3.43.16-.8-.17-2.02-.17-3.43-.16m4.5-8.12h.01c.23-.04.64-.34.44-.66-.69.53-.65.7-.44.66m57.73-20.6q-.11.1-.1.1v.01c.03.01.14-.05.1-.11m9.03.87c-.03 0-.1.64-.3 2.31-.14.28-4.48-.3-.8.33 1.66 1.3.88 3.68-.52 2.76 1.24 2.35-3.2.49-.22-.17a5 5 0 0 1-.9-1.17c3.15.56-1.43-.2-2.34-2 .15 1.85 2.21 2.6 1.88 2.58.5 3.16.2 1.75-.29 1.55.1 1.06-.03 2.25-.27 3.49 1.24-2.66 4.64-4.66 4.14-5.84-.4-1.77-.33-3.85-.38-3.84m-3.76 9.68a4 4 0 0 0-.44 1.9q.26-.97.44-1.9m-.44 1.9c-.52 2.04-1.19 4.06-1.5 5.68.54-2.5 3.23-3.56 1.54-5.26zm-.88-9.51a3.4 3.4 0 0 1 .41-1.83c-.64.7-.68 1.3-.41 1.83m3.24 3.16q.11.1.22.17l-.11-.2zm-23.76-4.72c-.24 0-.87.32-2.1 1.12-1.18.94-3.56 3.07-.94 3.92q.08-.13.14.05c.62-1.86 3.65-5.08 2.9-5.1m-2.9 5.09-.14-.05q-.1.13-.16.78h.01c.31-.05.35-.53.29-.73m-.28.73h-.02c-.02.02-.06.08-.04.1zm-86.28-5.24q0 .07.04.18zm.04.18a8.5 8.5 0 0 0 4.69 5.68c-1.62-1.34-4.36-4.67-4.7-5.68m4.69 5.68c.74.62 1.24.81 1.18.19-.25.1-.67.02-1.18-.19m1.18.19c.46-.18.34-.9-.89-2.31.59 1.17.86 1.9.9 2.3m87.31-5.9c.85 2.75-2.87.45 0 0m5.76.18-.15.4zm-94.18.03c-.15.01-.21 1.08.29 2.52.02-1.82-.16-2.54-.29-2.52m69.38.52c-.3 0-.97.37-1.97 1.44 1.92-.33 2.52-1.46 1.97-1.44m2.48.74a13 13 0 0 0-2.14.48c1.55-.17 2.48-.49 2.14-.48m-2.14.48h-.03.04l.02-.06c-.15.03-.08.08-.03.06m37.69-.44-.15.4zm-52 .35c1.98 1 7.4.09 6.43 5.18-1.34 3.47.6 3.76 2.1 5.57-4.06 2.6-1.46-3.6-5.32-.94-2.71-2.75-.9-12.47-5.74-6.21.72-1.2 1.17-2.97 2.53-3.6m16.46 0c-.57 2.12 2.4 10.68.73 4.33-.3-1.42-.93-2.83-.73-4.33m-4.49.41c-2.45.6.64 2.08 0 0m27.87.38c1.42.73-2.14.33 0 0m-.7.28c2.56 1.32-1.54 1.37 0 0m-16.97.25c-.42.01 1.46 3.68-1.36 3.73 1.73.26 3.2-3.21 1.4-3.72zm-10.56.16c-2.92 4.22 4.9 6.62 3.49 1.5-1.13-.59-2.32-1.02-3.49-1.5m9.52.23c-2.45 1.1-2.5 6-1 1.44l.52-.9zm34.62 1.16c-1.36 4.48-1.72 11.58-6.59 13.16a4 4 0 0 1-.06-1.61c-.15.86-.19 1.6-.03 2.14 5.28-2.3 6.16-8.85 6.68-13.69m-68.03.91c-3.52.68.92 4.27-3.5 6.61 2.44-.08 4.97-4.8 3.5-6.6m32.5 1.25c-.28 0-.6.05-.76.2 1.78.05 1.37-.2.76-.2m-37.95.4a30 30 0 0 0-1.28 2.25c.03 0 .31-.43.98-1.5zm35.43 1.86c-.3.85-.4 1.33-.37 1.36q.09-.01.37-1.36m-37.05.75c-2.52 2.29-5.17 3.85-8.3 4.16q.51.18 1.07.46c2.95-.4 5.46-2.32 7.23-4.62m-8.3 4.16a4.8 4.8 0 0 0-3.09-.1q1.61.25 3.08.1m-3.09-.1q-.61-.08-1.26-.24c-1.81 2.06-8.1 5.72-7.68 6.35 3.74-.6 5.68-5.07 8.94-6.1m47.87-3.43c-2 .28-3.52 1.75 0 0m-2.34 2.68c-.39 1.25-.24 1.4-.06 1.15-.69 1.13-.48 1.32-.2 1.14.31-.2.7-.8.2-1.14.18-.25.37-.87.06-1.15m-.25 2.29c-4.83 4.84-16.67 3.17-18.6 9.31 1.3-3.54 10.7-5.1 15.17-6.05 2.06.68 3.12-1.66 3.43-3.26m23.04 2.64-.08.35zm-78.69 1.6c-.26.02-.5.4-.55.63-.06.25.1.31.74-.53l.01-.02a.3.3 0 0 0-.2-.07m.2.08-.01.02c-.02.04.03.08.24.05.02-.17-.16-.13-.23-.07m-.75.55c-3.06.65-9.99 6.73-8.58 6.1 2.6-2.4 6.13-3.53 8.58-6.1m30.51.21c-.27 0-.9.16-2.04.62-.85.62-1.54 1.44-2.23 2.23 1.59-.42 5.23-2.81 4.27-2.85m7.55 4.85c.02 1.12.92.78 0 0m.37.7c-.9 4.42-5.7 4.48-10.3 3.9q.79.26 1.59.67c2.32-.5 11.69-.15 8.71-4.56m-10.3 3.9a11 11 0 0 0-3.63-.54q1.73.28 3.62.54m-3.63-.54c-.98-.15-1.9-.28-2.68-.35-4.7.26-9.05 2.64-13.8 2.62 5.6.96 11.07-2.24 16.48-2.27m-16.48 2.27c-.32-.3-1.53.24 0 0m-7.63-4.39a5 5 0 0 0-2.08.48c-3.5-.01-4.77 4.73-1.24 1.02 3.03-1.87 6.09-1.31 6.04 2.13 1.1.9 2.63.93 3.98.77-3.59.35-3.6-4.3-6.7-4.4m-10.24 1.23c-1.09 0-8.3 4.02-1.64 4.49 1.73.44 3.65.1 5.02-1.1-3.26 2.2-10.88-.74-3.86-2.65.65-.52.73-.74.48-.74m4.73 2.17c-2.11 1.63-1.33 1.75 0 0" style="fill-rule:evenodd;stroke:#000;stroke-width:1;stroke-linecap:round;stroke-linejoin:round;stroke-dasharray:none;stroke-opacity:1"/></svg>