<?xml version="1.0" encoding="UTF-8" standalone="no"?>
<!-- Created with Inkscape (http://www.inkscape.org/) -->

<svg
   width="153.02699mm"
   height="230mm"
   viewBox="0 0 153.02699 230.00001"
   version="1.1"
   id="svg1"
   xml:space="preserve"
   sodipodi:docname="boss_shadow.svg"
   inkscape:version="1.4.4 (dcaf3e7, 2026-05-05)"
   inkscape:export-filename="bird.svg"
   inkscape:export-xdpi="96"
   inkscape:export-ydpi="96"
   xmlns:inkscape="http://www.inkscape.org/namespaces/inkscape"
   xmlns:sodipodi="http://sodipodi.sourceforge.net/DTD/sodipodi-0.dtd"
   xmlns="http://www.w3.org/2000/svg"
   xmlns:svg="http://www.w3.org/2000/svg"><sodipodi:namedview
     id="namedview1"
     pagecolor="#ffffff"
     bordercolor="#000000"
     borderopacity="0.25"
     inkscape:showpageshadow="2"
     inkscape:pageopacity="0.0"
     inkscape:pagecheckerboard="0"
     inkscape:deskcolor="#d1d1d1"
     inkscape:document-units="mm"
     inkscape:zoom="0.67433263"
     inkscape:cx="91.942755"
     inkscape:cy="656.20434"
     inkscape:window-width="1920"
     inkscape:window-height="1009"
     inkscape:window-x="2552"
     inkscape:window-y="143"
     inkscape:window-maximized="1"
     inkscape:current-layer="svg1"><inkscape:page
       x="0"
       y="0"
       width="153.02699"
       height="230.00002"
       id="page2"
       margin="0"
       bleed="0" /></sodipodi:namedview><defs
     id="defs1" /><path
     id="path2"
     style="fill:#222046;fill-opacity:0.0497738;fill-rule:evenodd;stroke:#000000;stroke-width:0.976;stroke-linecap:round;stroke-linejoin:round;stroke-dasharray:none;stroke-opacity:1"
     d="m 68.957837,221.25506 c -0.946539,-2.12946 2.549099,-6.47199 -2.716818,-6.5215 -5.921965,1.03371 0.71487,-5.32794 -1.388234,-8.24201 2.017437,-6.67812 -6.470462,0.37947 -8.779227,-3.96827 -2.829221,0.29991 -5.526577,-0.78316 -6.466578,1.04806 -2.329905,0.37801 2.917941,5.53103 -1.890093,6.58454 -5.229432,2.74122 0.581207,7.698 -4.478356,8.89322 -3.599241,1.87001 -6.681568,1.69063 -7.964348,-2.05671 -0.03857,2.5249 -3.484618,5.25155 -5.357484,3.22662 -0.726334,-3.84803 3.595817,-5.78152 1.906516,-9.79069 -0.677619,-1.54338 5.833361,-0.8994 1.338834,-2.68559 -4.735264,1.29323 -0.850014,-5.59944 -1.732836,-7.99533 4.813851,-0.0566 3.948478,-7.32708 -0.05677,-5.79558 -0.07713,-1.89117 2.2752,-7.15579 -0.871693,-6.48262 -3.044087,0.80236 0.0056,-4.02045 -1.84476,-4.91059 2.27003,-2.91647 -0.391072,-8.06532 3.309147,-8.50644 -3.128807,-2.86714 1.805445,-7.07161 0.227528,-10.91146 2.267053,-3.73457 3.003719,-6.89304 2.173097,-11.09636 -3.291938,0.95276 -6.02293,8.49111 -9.615413,6.17096 1.167954,-5.07118 4.432114,-8.43895 6.829462,-12.73762 1.302133,-5.74938 6.269916,-10.27133 6.212242,-16.60282 -1.614546,-4.99666 -2.53917,-12.32249 3.136302,-15.33393 7.478289,-1.7529 1.337984,-8.9368 -0.857388,-11.75352 -2.321724,-4.74911 -0.735642,-11.131337 3.28019,-14.349202 4.729795,-0.788164 8.479235,0.620147 12.029075,2.20894 4.083055,-0.383153 -1.624674,4.143714 -0.456242,6.216031 -4.054893,0.388919 0.09236,4.643791 -1.95494,7.770661 0.59827,3.35297 4.76083,2.33185 6.572083,3.491 3.378113,0.59569 -3.645326,4.66409 1.612919,2.76287 1.02185,-2.98443 5.860957,-2.39806 5.843801,0.97859 2.920614,0.60473 6.748571,-0.5527 4.137115,3.16498 2.71993,-0.0939 7.192817,1.81134 3.453747,3.61751 -4.569817,0.35891 -2.750828,1.73004 -0.172461,3.77652 -0.108805,2.00398 -3.175048,0.70667 -0.259591,3.24042 1.492859,3.63204 2.123583,5.96246 7.18512,5.57934 4.599329,-0.29542 2.406206,2.76338 2.750262,4.80065 3.87023,2.1677 0.03265,-5.26 4.649539,-2.48635 5.378844,-0.44733 4.686845,4.67039 -0.06426,5.06414 -5.993453,1.91271 -0.83475,9.46387 2.350955,11.55332 -0.163994,5.16529 -8.789709,2.9528 -9.301138,-1.83498 -2.140469,1.35655 -0.844804,8.26272 -2.115079,11.67747 4.093495,3.54796 0.809254,7.83736 -0.313725,12.08501 0.158224,2.8355 -1.977797,2.70307 -4.155768,2.51638 1.55062,-4.06533 -4.082634,-5.14516 -2.396646,-8.37494 4.571833,-3.85973 3.656473,-10.19321 1.901923,-15.22672 -0.714428,-3.81544 -6.727327,-3.99467 -3.53242,-8.87311 -1.532724,-2.93764 -3.234227,-4.91601 -3.594992,-8.75735 -2.805292,-0.15557 -3.925866,-9.60401 -5.476414,-2.78161 2.24926,3.77651 -3.891643,2.317 -2.502895,5.42405 -3.989112,-0.21391 -3.884631,6.68129 -5.336596,8.05571 0.31128,1.93377 6.237071,3.36258 2.051402,4.6345 0.18669,2.75722 4.802889,4.7246 4.016296,7.87781 5.146529,-1.94702 0.08929,5.32369 5.525857,4.86563 5.083596,3.02703 -4.011097,3.95227 0.281226,7.22083 0.843116,2.74076 5.941676,7.15196 0.64866,6.74398 2.72946,2.53988 6.869697,5.18862 7.225601,8.69836 -2.626539,-1.70987 -5.32761,1.16811 -2.093626,1.16622 4.214685,-2.07381 5.271344,7.04053 10.779553,4.99351 7.174646,-1.16913 2.547255,4.16358 -0.153559,6.59324 1.423321,3.56058 7.08133,3.37064 6.765214,7.60125 -5.174901,-1.73191 1.365374,3.92649 -3.761944,2.20596 -2.9048,0.63224 -4.679162,-3.64289 -6.083239,-0.62896 -3.632351,-0.97981 -7.211039,0.60147 -4.715566,3.65779 0.93412,3.2015 6.77209,6.6247 1.935673,7.68558 1.841966,2.23929 -4.54475,2.54658 -4.422272,4.89459 -1.068461,0.1274 -2.194126,0.2903 -3.245972,-0.042 z m 3.629361,-6.60593 c -2.846916,-4.24556 -1.694137,2.89807 0,0 z m -11.553586,-13.3326 c -2.568374,-1.77056 -0.05711,2.56426 0,0 z M 47.411444,101.48231 c 0.172061,-3.708737 -5.119323,2.80442 -0.41909,0.58245 z m 29.4417,84.98832 c -1.113181,-1.74859 2.231467,2.24356 0,0 z m -62.602624,37.2132 c 2.983878,-2.91128 7.683275,0.78863 10.504854,-2.99039 3.692372,-0.74208 -3.336401,2.13258 0.699839,0.81487 2.233837,-1.53101 -0.414722,2.56468 2.802138,0.80038 3.743045,0.32502 -4.106216,0.65206 -5.641583,0.39341 -2.897326,1.68406 -5.572911,-0.21491 -8.365248,0.98173 z m 24.552342,-0.0558 c -5.304271,-0.45157 2.714911,-1.60258 1.973954,-0.39183 l -0.750007,0.18072 z m 31.248493,-1.16492 c -4.611939,-1.60085 -4.485193,-3.60457 0,0 z m 5.98179,0.15489 c -2.900955,-0.43361 -7.321804,-1.58957 -1.81896,-0.58798 5.618948,1.72282 4.586189,-3.58635 2.432833,-3.58754 3.880186,-0.52299 4.514868,-6.78789 6.325214,-2.20667 -1.801556,1.93673 -7.270266,1.86183 -2.212269,3.74048 3.75443,1.38686 -3.910719,1.95948 -4.726818,2.64171 z m -41.964467,-0.43036 c 2.102858,-1.68952 2.186207,0.6567 0,0 z m 49.019476,-0.33635 c -0.882674,-1.74524 2.247571,0.0746 0,0 z m -63.744699,-0.14454 c -1.374556,-0.90538 4.014052,-0.28092 0,0 z m 13.107325,-0.0275 c -0.743616,-2.14522 1.678049,0.17468 0,0 z m 6.954999,-0.0667 c 0.872056,-1.86257 5.248114,-3.19944 6.457434,-2.89526 0.416867,2.81695 -5.14428,1.02475 -6.457434,2.89526 z m 3.686246,-1.33895 c 1.148991,-0.78002 -2.633755,0.57501 0,0 z m -20.648521,1.1025 c 1.77699,-1.58857 6.721442,-9.23722 7.1312,-6.91835 -0.639815,2.77084 3.068053,-3.28932 0.05127,-4.31835 -4.526763,-3.41566 -4.949361,-8.93904 -0.682461,-12.54233 1.498693,-2.10815 2.822845,-10.74005 0.27663,-3.78813 -0.477592,2.31953 -0.123751,-3.26895 -1.174856,0.48035 -1.918731,3.22922 -5.692608,1.1102 -8.456316,4.42637 -4.380153,2.50006 1.551916,-4.59071 -2.378287,-0.60665 -0.665154,-2.91719 7.05533,-5.43118 9.356773,-7.49493 1.598377,-4.18038 -1.966664,-2.66248 -0.490547,-7.36405 1.56511,-5.83279 3.700511,-11.59419 4.107528,-17.64167 1.588778,-2.74404 3.581924,-10.16869 -1.948492,-5.66749 -6.052856,2.11625 -2.277801,13.85339 -6.414754,14.33355 -3.563449,-1.92993 4.867685,5.26984 -1.20606,2.77962 -1.998287,-1.06319 3.006339,4.42202 -0.701568,1.18745 -3.626244,-4.5468 -1.141188,4.70596 -3.328738,-0.13572 -2.709868,-6.28243 2.351012,-11.27971 3.447369,-17.20165 3.560274,-5.20274 6.877177,-9.89078 8.716952,-15.66016 2.540953,-3.50782 9.777564,-11.09212 5.169961,-12.99581 0.752108,-2.08588 2.807613,-4.13864 1.052132,-3.43064 0.02951,-6.9514 1.343258,-15.24793 8.13082,-18.79326 -1.116899,-5.82794 -7.294639,-9.496 -5.278805,-15.921252 0.05178,-2.345171 2.850652,-11.763721 3.761896,-7.131333 2.466189,-2.136809 6.347735,-4.242085 7.935177,-4.131513 6.2152,-4.759249 -3.917066,2.906895 -0.384503,2.750952 2.530901,-2.372416 1.361551,-4.105706 2.164355,-0.418529 2.095854,2.033138 11.790262,-2.111975 5.501828,0.643118 1.053105,7.874423 7.507919,-5.056386 6.844344,-5.462238 1.755088,4.739962 -2.516973,7.399988 -2.928945,11.044422 2.095386,-1.596004 4.196972,-4.483933 1.414791,-0.621321 -4.464159,2.213229 -8.244158,8.017343 -2.376895,5.72108 -3.55319,1.684912 -7.924996,10.603514 -0.994638,8.312694 1.869377,1.92455 8.143679,-5.428696 4.818116,-0.0667 -2.643236,5.34601 8.014369,-0.78626 3.001306,-3.97659 -5.279954,-5.073039 9.839105,-10.578698 5.662184,-4.243628 -0.967624,2.851155 2.487869,11.174308 -4.467511,10.028868 0.07798,5.8326 10.068073,-0.35965 8.331729,0.36384 2.433291,-0.81639 1.995318,-0.54316 0.139607,2.00353 1.608937,2.15103 -3.549626,4.07841 1.387571,5.05302 3.200786,0.33025 5.315992,-8.8819 4.820959,-1.9691 0.121058,5.6058 -11.427216,7.32775 -4.15417,10.9419 6.377763,2.07764 -0.740209,1.88459 -3.1931,2.06994 1.58809,2.44036 5.20002,3.20732 7.393271,4.03798 -1.859468,1.75966 6.080085,1.87038 8.245837,2.8149 5.096409,-0.48988 13.306686,2.22862 7.778202,8.15109 1.076915,-3.39046 -1.940015,-8.58531 -5.673841,-4.07533 -2.078995,3.30488 -9.579356,4.48157 -3.848179,7.70832 2.221788,1.40085 2.240041,2.00472 -0.189011,0.78135 2.161747,7.44738 13.342685,-1.18437 15.320755,7.21648 2.42325,6.84037 -2.6534,-3.24498 -6.151948,-0.0281 -1.373618,-0.0858 -4.439583,1.82983 -1.334153,2.33943 -2.754106,2.19959 -6.857362,-1.86865 -1.670315,0.18204 -3.588234,-4.21058 12.666226,-1.86651 5.084056,-4.89321 0.32361,-2.58249 -14.100746,2.11976 -11.756384,-5.6675 -3.896376,-0.80824 -2.543821,-6.74629 1.276389,-4.48353 -3.295784,-1.9093 4.931384,-1.85467 4.846863,-5.13018 2.676856,-1.96663 7.787252,4.95383 4.079851,-0.78328 -7.233761,0.8221 -14.21116,-2.42723 -20.672562,-5.27661 -3.852469,-1.28529 -4.349113,-5.70253 0.754205,-4.14123 -3.694493,-0.54321 -8.240723,-8.28429 -1.256316,-5.47804 -4.122764,-3.66277 6.4642,-1.97117 4.466482,-7.17191 -0.400585,6.40425 -10.825681,1.68502 -6.296613,-2.12271 -3.318607,1.23219 -12.275745,3.52953 -7.903286,-2.933 6.706857,1.39042 4.852159,-8.577477 -0.546521,-7.937114 2.623635,-2.024223 2.498879,-4.964427 0.07425,-1.241631 -4.045347,3.863535 5.074576,4.115775 0.710734,7.887545 -2.804639,3.29135 -9.252852,5.18386 -4.711525,-0.16009 -4.754875,1.66757 -12.94235,2.08138 -9.060979,-5.418463 -2.314586,-3.331162 5.401013,-4.275738 4.315129,-7.761456 -1.715778,3.270654 -4.77143,3.503369 -1.594773,-0.06046 1.907463,-0.442923 8.507058,-6.087121 3.21012,-4.041794 -1.694394,2.381628 -10.13012,2.801758 -6.299102,-0.55993 2.73493,1.20219 1.881066,-3.344973 -0.419999,-0.264607 -3.849754,3.306461 -1.345613,-3.483499 -4.172826,0.09994 -4.506283,3.19415 0.407855,-4.91739 -4.180488,-1.648473 -3.516976,1.430874 -4.069649,4.746561 -2.658419,3.553015 -5.267452,3.461078 -4.548558,11.971338 -1.085409,16.418958 3.136302,2.67216 4.967738,6.72751 -0.002,8.04861 -5.81478,2.52136 -5.853248,9.4691 -4.39265,14.6977 -0.910751,3.31678 -0.213762,1.99736 0.854424,-0.0389 0.0025,6.09838 -3.604347,11.30647 -6.274353,16.14197 1.041631,3.29666 -4.819149,7.14176 -0.958947,1.70728 -0.169903,-2.26836 -3.30675,6.44621 -4.714147,8.41593 -0.450104,3.04204 -7.10387,10.00165 -5.248948,10.09119 1.539419,-1.41997 -2.394731,5.54326 -3.253763,7.45459 -2.787242,2.58868 1.324126,10.77714 0.13691,3.19172 1.091293,2.2631 4.940431,6.77737 2.299924,1.55336 4.868989,3.04378 0.458223,-1.43761 0.832184,-2.69931 4.933392,0.97224 1.640356,-9.25989 5.24368,-12.27675 4.433303,-1.81638 4.665525,-6.51021 8.647565,-8.84232 -0.618546,4.97866 -2.570887,10.80095 -4.517202,15.94026 2.451957,1.93986 -2.583328,8.00346 -0.299437,10.7603 -0.960961,1.71952 -5.301434,8.84879 -1.083019,5.48114 2.002398,-1.33147 -1.285941,6.53419 -2.772661,8.01011 -0.94629,1.07616 -7.279097,4.00628 -4.199108,4.23754 5.215851,-3.85533 6.381955,-5.21498 10.121784,-9.34035 1.443149,7.24173 -6.99409,12.97087 -4.237566,20.12596 3.675385,2.05081 7.418721,8.80419 0.338921,9.00003 -2.668658,-0.33006 -2.047599,4.43701 -5.25894,4.78815 z m 8.947517,-6.15794 c 2.135058,-3.23904 -2.588271,1.2924 0,0 z M 17.996275,196.68032 c 3.629451,-2.39082 0.855635,-1.52852 -0.940962,0.39815 z m 8.59785,-1.31666 c 3.331152,-3.6176 -4.54008,0.17521 0,0 z m -0.504918,-1.15986 c 4.350108,-2.42072 -1.883184,-0.69571 0,0 z m 3.877882,-3.94994 c -1.706047,0.0906 0.303988,3.51943 0,0 z m -1.87602,-8.52886 c 4.553188,-5.99479 -2.713332,-1.11792 0,0 z m 3.817337,-18.77818 c 1.991759,-5.07269 -1.35948,1.79307 0,0 z m -1.437998,-3.45071 c 3.02295,-1.05068 2.989821,-7.44021 0.655852,-2.42552 l -0.344315,1.0872 z m 2.778432,-4.98589 c 1.734614,-1.68164 0.400487,-2.21716 -0.455652,0.0485 z m -2.424551,-8.41611 c 2.499603,-1.81442 -1.827112,-0.11934 0,0 z m 67.902496,-7.84557 c 2.505255,-0.66246 0.976397,-3.03821 0,0 z M 78.022901,122.90597 c -1.219787,-1.46019 -2.242542,1.29932 0,0 z m 0.157023,-5.34085 c 2.074722,-2.68015 -1.835497,-0.30518 0,0 z m 3.282995,-7.18852 c 0.271192,-2.05399 -1.213181,2.40812 0,0 z m -11.208578,0.25464 c -0.836936,-4.12103 -3.981593,2.3524 0,0 z m -2.071508,-1.59577 c -0.03776,-1.46476 -2.65734,2.74684 0,0 z m -4.891053,-2.67636 c 2.394215,-1.30368 -0.217662,-1.4821 0,0 z m -8.547521,-4.36953 c 1.316133,-2.923266 -2.518693,0.5625 0,0 z m 0.914025,-3.301154 c 0.549349,-2.107152 -1.911498,2.432494 0,0 z m 13.301379,0.463299 c 8.223128,-4.447649 -5.355775,-4.636757 0,0 z m 2.420281,-3.599469 c 2.533357,-2.883085 -3.115347,-1.155578 0,0 z M 38.485741,93.008854 c 1.92264,-4.390975 -1.186048,1.445395 0,0 z m 19.323735,-1.782662 c 3.165329,-3.355814 -2.96033,2.147892 0,0 z M 39.050893,90.699554 c 1.685126,-2.454129 -1.441397,-1.97169 0,0 z m 24.535191,-8.461779 c 0.493617,-2.451042 -2.740959,-0.356095 0,0 z M 35.357231,221.21059 c -3.649726,-1.4601 1.618472,-0.13841 -0.709451,-3.02833 -0.230508,1.50948 4.576553,2.61467 0.709451,3.02833 z m 38.292391,0.0576 c -1.702813,-1.39313 2.985894,0.46016 0,0 z m 23.748566,-0.72159 c -2.698853,0.59381 -6.126805,-6.11858 -3.944202,-0.42595 0.719241,-6.99027 -7.296674,-14.64744 -11.358787,-13.84912 5.233604,-1.67418 9.150728,5.40051 11.153425,9.18554 1.861318,2.81156 2.30958,-5.6092 0.658554,-0.1551 3.167512,-4.53251 -3.074789,-7.08296 -3.916326,-9.82946 -2.669931,-0.62273 -3.395924,-3.22471 -0.996077,-0.7565 3.017499,2.18123 9.719662,-4.02213 2.368976,-2.47023 -3.793013,-0.0584 -3.857699,-3.44033 -3.083017,-3.82733 -3.535654,2.3735 -8.334103,-4.72822 -2.49083,-4.57738 1.149027,-2.45237 4.525425,-8.08869 -0.81507,-4.61834 -4.095179,1.26643 -12.032401,-4.10136 -9.106228,-6.08242 1.735095,1.35686 6.576658,3.9532 2.583701,0.43998 -5.003371,-2.31545 -8.279611,-6.66535 -11.059406,-9.5319 1.269989,2.93901 3.966109,2.4549 2.630652,-0.90574 1.3257,8.67945 8.341166,-4.03178 2.076053,-3.83116 -1.544273,1.95687 -1.122712,4.99225 -3.811863,1.81253 0.0034,-2.03122 -5.791425,-7.99695 -0.891617,-5.36574 -1.137549,-2.58735 3.478379,-4.4153 -1.204814,-5.74605 -7.625713,-1.17339 1.069115,-7.28161 0.896715,-11.17878 1.896062,4.20587 -4.194453,7.5731 -3.055498,10.03508 2.333365,1.69798 7.745711,-4.4262 3.590369,0.0868 3.971536,2.6041 -1.40399,5.59231 1.917372,7.09597 -2.146369,1.31152 -4.43979,3.33638 -0.172024,3.13042 1.348237,-1.68293 5.639056,-7.12162 1.680173,-7.63466 2.289423,3.19756 -2.77962,-4.10626 1.07792,-0.25091 5.168863,-1.6907 1.661258,-10.60369 -0.161385,-13.97107 0.01436,2.80031 0.347255,6.88862 -1.349854,1.64085 -1.738844,-3.91027 -2.505702,-13.27404 -3.628165,-14.19455 -0.822082,1.53434 -6.092097,-5.82401 -6.494232,0.42512 -0.926989,2.96629 -7.231724,7.24861 -0.996842,6.52781 -0.847116,3.71848 3.452207,0.65908 0.824074,-0.61443 3.771,-4.80481 -0.683001,5.66976 0.129683,7.99183 -1.048411,3.40808 7.32405,2.66105 1.46849,3.44594 -4.576331,0.26422 -4.154643,-4.47458 -2.045538,-5.64936 -3.361571,-1.40412 1.725324,-1.84897 -2.121157,-1.2969 1.935213,-4.28686 -4.373147,-2.55648 -1.399593,-6.6518 2.756511,-3.76659 8.000336,-5.72423 6.944868,-10.12825 2.494955,1.50208 2.905263,5.01089 4.367247,4.9512 0.659802,5.1359 1.925076,10.17613 3.486131,15.10729 2.629215,-5.45348 5.044591,6.86708 4.560062,9.7415 -0.04116,5.01811 -6.530543,7.76033 -6.042784,12.92771 1.428866,-4.30418 6.733265,-3.285 4.677391,1.48905 -0.591984,2.11614 -3.536357,8.64974 0.08815,3.5473 4.183944,-6.28044 -0.136316,1.89915 0.552548,3.99056 5.677945,-3.86536 3.246167,-12.45831 8.179527,-16.69021 -3.079228,-2.69114 -4.016652,-12.21147 -0.641186,-13.40257 4.945875,1.35628 5.917658,11.05954 11.79771,6.85298 0.221038,-4.49398 12.723366,9.07207 7.523646,1.73924 -0.70954,-1.96022 5.03777,6.29497 0.75985,2.56729 -2.749566,-4.26998 -6.869935,-4.77206 -10.861469,-2.47232 -3.650252,-0.56176 -8.247811,-11.93902 -10.261959,-4.51428 -0.747636,3.87566 2.095611,14.97964 6.240274,9.34464 -0.139919,-5.17067 2.764888,4.17305 -2.106557,2.55653 -6.597882,-1.72208 -4.257122,7.37078 -8.100475,11.02867 -2.561921,3.02821 1.48907,6.79001 2.868927,4.93766 1.09686,3.14357 3.455879,9.81509 6.774376,4.48171 6.049319,-1.36015 -0.112877,7.52949 -2.112267,8.57171 -3.500109,-0.96089 1.49529,5.23698 3.407447,1.52813 3.962239,-3.53144 -2.202174,5.62715 3.405873,4.60397 2.254933,-1.15578 11.12403,-0.76533 5.803553,1.10024 -5.41873,0.80377 -7.372426,6.36281 -1.97699,8.65187 1.729438,3.65364 -5.576639,8.08812 1.712476,9.08542 z m -0.117057,-18.13344 c 4.719029,-1.55213 -3.810442,0.16683 0,0 z m -1.007605,-0.44099 c 2.250128,-1.42382 -3.315753,1.03097 0,0 z M 80.767292,188.77806 c -0.898924,-2.64658 -5.579388,-7.16211 -4.431964,-3.12044 -0.241694,1.82888 2.890427,3.18403 4.431964,3.12044 z m -6.664746,-8.7039 c -1.128514,-2.31351 -0.790958,2.42579 0,0 z m 0.461847,-2.22658 c 2.674664,-1.4941 1.860759,-6.1467 0.395059,-1.22645 z m -6.23565,-10.99311 c 3.551364,-2.09326 -3.555254,0.20923 0,0 z m 15.285315,-0.0516 c 2.038755,-0.38615 -0.494438,-1.37009 0,0 z M 66.12397,165.41981 c -3.331792,-2.88414 1.096267,1.98197 0,0 z m 9.390417,-8.29789 c -0.734052,-4.61517 -1.172956,1.39868 0,0 z m 5.466204,-3.58831 c -1.386009,2.12762 0.292135,3.37725 0,0 z m -6.027872,0.99141 c 0.667909,-7.67374 -1.246095,3.29763 0,0 z m -14.354485,-8.73028 c 1.513568,-2.08196 -1.555734,-1.78697 0,0 z m -0.746918,-1.58696 c 2.878312,-1.84008 -2.679663,1.01416 0,0 z m 5.732626,-10.87683 c 1.626013,-5.53887 -5.192371,-1.67487 0,0 z m -2.289892,-3.92562 c -1.137827,-1.99883 -0.947531,3.00701 0,0 z m 10.345846,90.62009 c -0.503515,-2.3824 3.85018,1.60402 0,0 z m -14.770851,0.0476 c -1.922928,-2.3541 -2.573102,-3.72796 0.409567,-0.98598 3.377652,1.75447 3.867735,0.5988 -0.409567,0.98598 z m -32.661201,-0.0687 c 0.864508,-3.76568 6.233178,-0.22918 1.206394,-0.0462 z m 2.107501,-1.18544 c -1.048273,-1.99633 -1.990218,3.0434 0,0 z m 38.873665,0.10401 c 2.492354,-1.48957 -1.093459,-6.11127 1.903442,-1.99188 1.385798,2.67862 -1.741868,0.0153 -1.903442,1.99188 z m -4.832413,-0.39505 c 0.759391,-2.79341 2.828316,-2.67929 0.165121,-0.21137 z M 35.6187,218.28634 c -3.253663,-2.43708 2.735384,0.71159 0,0 z m 14.310942,-0.71994 c 1.750354,-2.57109 1.622549,0.0894 0,0 z m 3.153537,-0.66061 c -1.552086,-1.59475 2.384443,0.15958 0,0 z m 44.128967,0.0878 c -2.483297,-3.3565 4.267764,0.9879 0,0 z m -9.63999,-0.14125 c -1.548556,-1.38 2.371238,0.098 0,0 z m -32.606131,-0.23655 c 2.602122,-4.55095 3.536299,-3.07497 0,0 z m 22.060958,-0.2555 c -1.169839,-1.52474 3.514715,1.00807 0,0 z M 64.89679,215.79406 c -2.489036,-1.80139 3.583168,-0.51824 0,0 z m -19.645804,-0.20615 c -0.413451,-2.90448 3.101787,-6.38823 4.141181,-5.69106 -3.103083,0.52383 -1.720283,4.41812 -4.141181,5.69106 z m 12.349559,-0.5788 c 3.058091,0.23895 5.958676,-8.50712 5.664726,-1.68247 -1.676955,1.08497 -3.824239,0.99477 -5.664726,1.68247 z m 4.479263,-1.18518 c 2.988136,-0.88513 -1.639868,-1.3484 0,0 z m 16.695833,0.77455 c -0.87675,-3.43441 2.564884,0.78867 0,0 z m -7.094037,0.31594 c -2.327312,-2.56485 2.292373,-0.0106 0,0 z m 8.887766,-1.53495 c -3.603826,-0.83537 -8.26812,-4.62169 -3.245164,-6.81871 1.738992,-3.57228 5.75895,2.92049 0.928256,-0.24139 -3.392001,-0.23502 3.276849,5.39714 2.316908,7.0601 z m -1.577702,-1.45064 c -1.548003,-5.26093 -4.179697,0.15486 0,0 z m -3.159154,-2.67813 c 0.64176,-0.27451 0.544343,-0.23284 0,0 z m 7.622746,3.77534 c -4.25705,-1.40686 3.367416,-1.42022 0,0 z m -26.20265,-2.57969 c 0.118721,-2.89208 0.390533,-4.22747 1.980843,-4.12066 1.675651,-4.37068 5.933633,-0.3771 0.676219,-0.0937 -0.402346,1.71703 -1.952757,2.69452 -2.657062,4.21436 z m 7.067627,0.29761 c -0.470181,-3.19498 1.480338,-3.43865 0,0 z M 49.901054,209.6498 c -1.800461,-3.61057 9.414078,-6.52197 2.981769,-2.94348 -0.879319,1.07655 -1.312021,2.85603 -2.981769,2.94348 z m 2.689317,-3.27392 c -0.262009,-1.5026 -1.760942,1.38373 0,0 z m -18.780035,3.12998 c -2.139838,-2.75804 2.242328,-1.35508 0,0 z m 28.074819,-0.81791 c -2.759845,-2.16072 2.749692,0.47184 0,0 z m -32.134397,-1.31356 c -2.208628,-1.63265 -2.55479,-5.41951 0.262779,-1.71345 0.391329,0.52923 0.297502,1.36173 -0.262779,1.71345 z m -0.16564,-1.70372 c -2.124877,-2.97657 0.701175,3.00707 0,0 z m 44.119863,1.15247 c 0.80614,-2.07547 2.920285,1.56134 0,0 z m 2.730992,-0.40424 c -2.858259,-1.75553 0.04317,-2.19071 0,0 z m -12.070649,-1.04997 c -2.803326,-3.02338 1.068012,-2.73482 0,0 z m -34.229153,-0.0221 c -1.146961,-3.03237 2.990932,-0.39788 0,0 z m 19.46553,-0.0417 c -3.390574,-3.33697 2.358332,0.51742 0,0 z m 31.955393,0.0131 c -3.817654,-1.81449 1.663401,-1.24283 0,0 z m -30.234156,-0.13956 c 1.508559,-2.20506 -2.718713,-3.31875 1.417817,-1.84798 0.528177,0.87011 -0.410763,2.19531 -1.417817,1.84798 z m 6.359498,-1.11491 c -4.512971,-0.3664 -3.386002,-3.18077 0,0 z M 30.576475,202.7715 c -2.224942,-2.48334 0.939077,-1.84129 0,0 z m -15.506447,-0.40186 c -0.296574,-1.14937 1.083723,-3.50067 0.391453,-1.0234 z m 45.642268,-0.3983 c -2.381377,-1.12183 0.909691,-1.1047 0,0 z M 32.78021,199.63707 c -1.790742,-5.84964 4.226129,-3.73383 0,0 z m 1.002001,-2.90254 c -0.9662,-3.07011 -0.948505,4.6227 -0.187364,0.99238 z m 0.349401,-1.29456 c -1.12418,-2.66934 1.602179,0.17211 0,0 z m 54.983792,-0.59894 c 0.983618,-2.21264 2.981809,0.65016 0,0 z m 8.136369,-1.22001 c -1.144609,-2.95995 3.336817,-1.08605 0,0 z m -73.72947,-5.45472 c -1.318599,-3.97732 2.311808,-2.2876 0,0 z m 65.194311,-1.97515 c 0.418496,-2.56017 3.262616,0.18943 0,0 z m -66.27311,-1.01284 c -0.219557,-3.03053 1.210948,-0.0374 0,0 z m 48.788824,-0.6989 c -2.69947,-2.34167 1.685689,-1.60696 0,0 z m -52.25959,-8.93983 c -1.528694,-2.38102 1.374812,-0.7764 0,0 z m 11.885264,-0.88148 c -0.471421,-2.79204 1.780635,-0.0951 0,0 z m -8.227279,-0.6615 c -1.878993,-1.98187 -2.120039,-6.583 -0.298632,-1.58989 l 0.175461,0.75901 z m 83.292597,-3.76883 c -0.16223,-2.15006 2.31641,-0.62732 0,0 z m -74.37448,-1.99016 c -1.070984,-3.10855 2.196041,-2.42482 0,0 z m 55.109908,-0.44249 c -2.147078,-2.03958 4.404966,-1.03436 0,0 z m 20.934292,-3.14209 c -3.36894,-3.2387 -0.0153,-3.53189 0,0 z m -25.131893,-4.43009 c -0.64256,-6.0244 2.895917,-0.66195 0,0 z m -2.214444,-0.61651 c -2.136473,-3.88424 2.386317,-1.24421 0,0 z m -46.467021,-0.68632 c -0.879607,-3.68624 2.441884,0.41899 0,0 z m -6.100495,-0.33076 c 2.16934,-3.76142 3.06207,-0.18823 0,0 z m 72.855023,-0.62286 c -2.524753,-0.44187 -4.659072,-2.98914 -0.835785,-0.54875 z m -14.672115,0.2635 c -1.355055,-1.8341 0.944449,-3.45973 0,0 z m 15.756145,-0.81692 c -2.554825,-0.65442 -4.080252,-4.00646 -0.74979,-1.07458 z m -9.873563,-0.59609 c -2.621703,-1.11868 -4.563475,-4.76651 -3.695631,-3.86841 -0.991261,-3.22403 6.754749,3.44334 1.461881,1.8001 0.659305,1.73719 6.414545,0.91851 2.23375,2.06831 z m -31.53365,-1.4855 c -0.972296,-1.99456 1.989569,1.01024 0,0 z M 26.82009,153.24762 c 0.58125,-2.19778 1.866511,-2.65278 0,0 z m -6.923053,-1.21792 c 1.303276,-1.32224 2.521959,-1.29325 0,0 z m 72.491231,-0.43336 c -4.74477,-2.59327 3.154072,0.49715 0,0 z m 0.306176,-0.82294 c -0.94306,-1.78108 4.977416,1.48095 -0.04533,-0.45485 -0.174342,-0.12412 0.902768,1.28168 0.04533,0.45485 z m -10.476233,-0.75642 c -3.540603,-2.88218 0.676852,-3.92685 0,0 z m -25.940514,-1.19934 c -0.16048,-3.57616 1.2279,2.12086 0,0 z m -31.207591,-1.00506 c -0.236915,-3.96961 2.914883,-2.09563 0,0 z m 30.031857,-3.12173 c -0.188185,-2.06039 1.951971,0.96573 0,0 z m 6.321732,-0.424 c 0.558358,-4.2208 3.050302,-0.7907 0,0 z m -6.455458,-0.9267 c -3.316303,-3.12846 3.400367,0.70244 0,0 z m 15.287932,-0.9836 c -2.346526,-2.21788 2.241354,-2.60916 0,0 z m 29.632208,-0.60131 c -0.334814,-1.90811 1.680363,1.64633 0,0 z m 5.924223,-0.75123 c -2.65768,-0.24117 -1.09986,-1.06673 0.31044,-0.16146 z m -36.241014,-0.95479 c -1.051094,-2.55534 1.604081,-1.31269 0,0 z m -11.809698,-2.8481 c -2.228829,-2.33058 3.127806,-1.80234 0,0 z m 3.63619,-1.11343 c 0.230791,-2.60737 0.786204,2.05217 0,0 z m 22.596157,-1.55688 c 0.280408,-3.14912 3.77812,2.36604 0,0 z m 1.511297,-0.12389 c -1.807374,-1.96431 -1.891236,0.66732 0,0 z m -25.97219,-1.01716 c 1.131671,-1.95333 1.60805,0.44502 0,0 z m 18.544918,-3.66828 c -3.750797,-0.59594 -2.353368,-3.10883 0,0 z m -14.503786,-2.05687 c -1.309589,-2.04066 1.618176,1.10686 0,0 z m 10.822482,-3.93172 c -4.266043,-1.42389 2.13841,-0.48421 0,0 z m -1.626256,-3.9164 c -2.520611,-1.16076 -0.06666,-1.50472 0.495544,-0.0794 z m -0.228235,-5.60221 c 1.204516,-1.46424 2.143178,1.29581 0,0 z m -1.023239,-0.18888 c -0.320275,-2.59527 3.38196,0.83571 0,0 z m 17.741342,-3.8296 c 0.58583,-0.60828 0.846293,-0.87893 0,0 z m -29.707303,-0.24769 c 1.314784,-1.80876 2.266955,0.45158 0,0 z m 21.569691,-1.55422 c 1.087844,-2.42749 1.654603,-0.14994 -6.9e-5,0 z m 5.367578,-0.28874 c -3.999019,-2.25232 1.572072,-0.69349 0,0 z m -28.728646,-1.28026 c 1.139939,-1.66152 2.152597,0.77297 0,0 z m -17.263986,-3.79691 c -1.368337,-3.220435 2.709733,1.74374 0,0 z m 30.234744,-0.72063 c -1.652174,-4.188591 2.130597,0.26327 0,0 z m -25.48166,-0.16241 c 1.30988,-3.897744 3.83686,0.70181 0,0 z m 28.693837,-6.349037 c 2.26496,-4.220811 4.371446,-0.815882 0,0 z m 1.923354,-3.183538 c -0.344516,-3.135466 2.144832,0.166799 0,0 z M 53.931105,89.390478 c 0.659103,-1.532406 1.777566,0.900975 0,0 z M 43.706187,87.074977 c -1.039823,-1.626282 1.937538,-0.419566 0,0 z m 3.588816,-5.115351 c -0.774954,-1.193339 0.689068,-0.03718 0,0 z m 5.621877,-1.068001 c 1.884572,-3.558278 3.472498,-0.632957 0,0 z m 15.114471,-1.719442 c -0.0043,-3.436856 7.930404,-0.06897 1.231622,0.161491 -0.41054,-0.05383 -0.821081,-0.107662 -1.231622,-0.161491 z m -4.328017,-0.549672 c 0.145415,-2.225464 1.726338,-0.09595 0,0 z" /></svg>
