<svg xmlns="http://www.w3.org/2000/svg" xml:space="preserve" width="578.37" height="230mm" viewBox="0 0 153.03 230"><path d="M114.918 71.677c-5.138.957-7.003 5.504-5.745 10.162 5.093 2.34 1.098 6.469-.988 8.46-1.466 3.207 3.968 4.455.408 1.711.588-4.84.127-.89 2.499 1.147 3.337 1.23-1.394 5.718.447 1.252-2.364 1.954-3.26.036-4.278-2.183-.16 2.786 2.068 4.483-.595 4.784-5.231-2.808.029 2.335.886-.051 2.978 1.79 6.11 6.904 5.051 9.039-.835-2.466-2.777-2.855-.141-1.99-1.703-3.313-6.16-2.365-7.405-5.03-1.272-.596-.566-3.074-1.797-1.72 1.354 1.758 4.177 5.312 1.13 2.763-3.525-1.758 1.934 3.788 2.288 1.096 2.995.246 7.687 5.618 3.4 6.553-2.536-1.254.665 3.252 1.67 3.434 1.004 2.514-3.87 6.11-1.061 8.504 3.236 6.173-3.073-4.924 2.346-5.435-2.26-1.069.955-2.737-.454-3.41-1.186-1.23 2.375-6.912 1.458-2.689 3.504-2.864-.041 2.944.68 3.542-1.355-.164-.198 2.905-1.534 4.318-.379 1.431-.438 1.598-.63 3.84 1.477 1.58-2.172 3.29-1.65 5.759 1.298 2.065-2.02 8.18-2.525 6.396.535-.395-.865-2.733 1.607-4.154-3.123-2.723 2.582-6.374-.171-6.78-1.81 5.05-1.19 10.39-5.55 13.208-1.582 2.218-7.154-1.568-8.389 3.186 1.81-1.509-2.152 6.155-.033 2.66.236-1.291 3.263-5.793 2.095-2.405 1.757-2.554 5.656-3.375 1.322-.197.216 2.376 2.578-2.487 2.224.601 2.435-3.61 1.093-.136 1.652 2.8-.421 1.304-1.768-1.757-2.153-1.04-.452.635.406 1.635-.768 1.873-2.705 1.691.14-4.424-2.22.052-1.443 3.51 3.284 11.583.973 4.352 4.834 3.887-4.92-4.502 2.01-3.959 2.15 6.001.695.97 1.936-.189 4.682 3.92-1.79 11.322.089 12.031-1.902 7.359 4.37-6.973 1.274-3.632.655-3.075 2.025-6.8 1.432-1.4 2.09-2.25-.197 4.246 1.75-1.099.714-2.994 4.991 1.757 5.1 2.069-1.45.123.176 2.918-1.277 2.078.049 2.192 5.014 6.327 4.155 2.184-.944 1.915-3.379.85-1.752-1.754-3.29-3.8 2.272 2.127-.248-2.38-3.263-3.448-8.488-4.871-3.078-9.92 3.478-3.92-.704-7.601 1.361-11.701 1.492-4.726.68-11.814 4.99-14.215 2.567-5.026-3.154-.296-.65-3.303-.085-3.091 4.416-4.707 4.998-2.031 2.884.842 3.3-.065.8-.811 1.51-.525-5.067-1.718-4.314-4.768-.973-1.638 5.258 2.785.677-.716 1.034-2.88-1.767-5.067.996-6.485 1.663-1.17 3.727-3.143 3.591-6.967 6.26-.253 6.698-9.198 2.566-12.834 1.624 3.298-.472 11.021-4.178 7.937-3.374-4.484-.573 1.336.354 1.852.128 1.463 2.746-.871 3.058-.577 2.619-2.595 1.818 2.402-.48 2.018-3.971-1.022-2.263 2.556-2.329 2.281-3.328-.59-4.757 5.721-2.012 2.66 1.99-1.911 2.588.802-.399 1.505-1.335.524-2.41 1.659-3.075-.194-1.24-1.078-3.387-4.586-4.496-2.946-4.79-.305 3.057-3.228 1.67-5.54.465-1.12-5.101-6.054-.134-3.508 3.208.532 1.833 7.452 3.173 1.918-3.203-2.99 6.291-.35.622-2.11-5.421 1.892-6.522-7.315-2.026-9.38.61 0-.18-.782-.203-.522zm-1.78 1.318c-4.139 1.983-1.787 4.883-1.457 7.229-3.837 3.002-2.005-7.591 1.457-7.229zm-83.479.251c-5.244 1.667.15 2.8 0 0zm82.17 2.155c-.22 3.6-1.767.85 0 0zm-74.541.179c-3.816.613-5.178 2.528-7.172 5.927 2.137-2.15 1.904 2.255.215 2.944-2.51 3.086-1.741-1.159-4.084 3.219-.54 2.03-1.93 3.528-2.515 5.488-1.372-5.656-1.238 5.832-.69-.3 1.685 4.268 3.59 7.388 4.86 11.308 4.772 2.954 2.858.891.184-1.93-1.601-2.387 2.503 1.289-.13-2.27-2.153-2.855-2.563-7.431-1.723-9.956-.445-.376 1.107 2.147.062-.827 2.17-5.652-.488 5.217 2.13-1.1.34-3.013 5.689-3.28 3.973-6.61.637-2.084 2.045-3.139-.74-1.688 3.142-3.126 5.027-3.637 8.867-3.773-1.002-.45-2.17-.34-3.237-.432zm-10.754.113c-2.545 2.066 2.829 2.573-.039 3.34-1.54 5.217 3.835-2.576.071-2.78l.055-.524zm82.891 2.007c.463 2.655-.116 3.367 0 0zm17.076 1.242c2.682 3.853-2.26 8.283-.202 2.284.137-.753.207-1.518.202-2.284zm-86.891.237c-4.596.869-3.106 2.072-6.356 5.4 2.244-2.382 6.794-3.804 7.555-5.278zm2.67.075c.092 2.691 4.212 2.745 0 0zm-16.997 2.11c-3.247 3.501-1.345 4.039-1.14 8.153 2.09-1.107-.024-5.732 1.14-8.152zm-3.187.687c-1.722 1.434.335 1.712 0 0zm22.65.448c-2.311 1.575 3.443.287 0 0zm-21.96.481c-1.655.61 1.288 2.597 0 0zm88.84.014c2.368 1.939.34 2.24 0 0zm-64.54.038c-2.025.571.662 4.961 2.252 2.137 5.451 2.498-.284-1.23-2.253-2.137zm58.286.072c-1.051 2.599 2.197 1.623 0 0zm-2.492.01c-4.081-.382-7.858 6.806-4.017 6.682 2.028-1.739 1.425-6.668.355-2.665-4.716 2.726 2.502-3.731 3.662-4.017zm-52.064.114c-1.628 2.532 2.733-.313 4.19 3.964-2.106-1.644 1.222 6.717-1.522 1.948-1.363-5.74-1.56 3.517 3.07 3.665 1.272 1.662-1.267 9.474 1.203 2.454.179-3.511-4.302-6.092-1.741-7.101-.843-2.32-2.646-4.514-5.2-4.93zm53.294 1.283c-2.404.43 3.633 2.958 0 0zm-82.762.705c-1.174 1.343 1.004 1.18 0 0zm105.928.47c-.158.907-4.528 4.187 0 0zm-24.007.276c-3.614 1.771-3.023 7.353-.357 10.304-.6-1.434-.676-2.54-.714-4.862 1.7.666-.117-4.86 1.07-5.442zm-65.68.248c-4.75 1.402-4.856-1.109-6.672 4.095 3.728-3.377 7.147-3.092 11.612-1.073 1.547-2.09 5.464 1.758.796-1.811.558 1.74-5.894.72-4.021-.812l-.973-.308zm-15.913 0c-1.274.429-4.366 1.428-3.287 3.053-.568 5.13-2.638-.06-2.68 5.677.596 5.32.842-5.128 3.152-1.701.548 1.454-1.752 4.508.407 4.992-.327-3.763 1.18-2.905-.281-7.865-.37-2.21 2.645-2.142 2.69-4.155zm93.165.052c-2.105.38.318 1.08 0 0zm-12.983 1.688c1.292 2.332-1.353 6.076 0 0zm14.327.157c-4.162.986 2.532 4.947 1.674 1.679-.357-.71-.893-1.417-1.674-1.68zm-2.076.713c-2.099.784.501 1.529 0 0zm2.064.186c2.45 1.278-1.486 1.385 0 0zm-77.395.454c-4.647-.107 5.707 2.149 6.345 4.72 1.878 2.54.221 7.714 1.785 8.164 1.455-3.317.46-5.819-.808-9.35-.316.908-1.22.745-2.417-1.125 4.553 1.452-3.915-3.359-4.905-2.409zm-5.016.23c-2.21.576.943 1.36 0 0zm-2.967.687c-2.91 2.796 1.187 1.367 0 0zm68.164.555c-4.61 1.522.61 9.236 1.708 6.827 6.143 2.878-.54-2.143-.927-.873-2.56 1.484-1.91-4.155-.78-5.954zm-73.704.192c.327 3.461.01 8.266-.971 2.159.085-.777.33-1.649.97-2.16zm9.362.18c-4.736-.043-6.225 9.507-4.23 7.525 1.592 3.211 1.308 2.957-.725 1.825.334 2.384 4.259 4.804 4.489 3.284-2.77-2.514-2.184-3.064-.924-2.936-.114-.455 4.876 4.122 1.28-.384 2.146 1.783 7.097-.087 1.52-.736-3.138-4.809 5.116-3.798 4.751-4.33 4.102.574 2.633 7.399-1.21 8.926-.81 1.441 5.577-2.69 1.31 1.257 1.062 2.06 5.527-6.574 2.869-5.113 1.771-3.486-1.159-5.177-1.887-6.209-2.43-1.834-.344 1.42-3.538-.507-6.437-.009 7.055-.815-.076-1.492 2.414.167 5.788 1.758 1.626-.675-1.228-2.494-7.762 3.104-6.554 1.368.052-.593 2.283-1.414 1.299-1.802zm75.65.053c2.082 1.238 1.838 3.058 0 0zm2.398.32c3.333 3.406-.493 3.677 1.351 6.585.149 2.28 4.25 1.895 1.792 2.892-2.514-.17-3.835-5.047-2.698-7.522-.146-.608-2.23-1.565-.445-1.955zm-75.85.51c-1.16 2.105-3.352.93 0 0zm40.199.142c-2.953.967 4.038.6 0 0zm-1.526.116c-3.356 2.681-5.287 1.189-6.233 2.443-3.211 2.756-3.825 5.67-4.427 8.467-1.328.298-4.015.429-1.755 2.434-.36-2.215 4.413-2.223 1.954 1.265-2.149 1.945 3.965-.65.231 2.522-1.521.004-3.995-3.45-3.424-.31-2.65.039-7.84-3.856-8.086-3.024 3.332 3.473 3.424 5.307 1.586 7.371 2.56 2.648-5.109 3.764.527 3.118 2.696-2.07 10.577.833 4.357-2.71-7.635-.777 8.868.339.68-1.691-1.952.596-7.395 1.884-3.1.186-1.013-2.399 4.083.332-.634-2.888-2.264-2.299-2.792-2.88.3-.695 4.665.977 7.152 2.044 11.025 5.424 5.524 3.316-2.25-2.986-1.177-2.517 3.201 1.49 6.87 6.146 5.796 6.189 2.066 1.325 1.97 2.555 2.793 3.05-3.2-2.693-7.508-4.2-6.607.33 1.492 1.546-3.146.037-1.993-.412.12-.768-.129-2.719 1.497-2.92 4.85-.361-2.564-3.536-3.603-3.047.718.068 4.583 2.881 1.054 4.45-3.97-3.006-.379 1.45-.781 3.373 3.393-2.727-3.792 11.045-.144 6.032-1.662 4.59-4.848 5.638-4.683-.05.496-2.511 5.64.503 1.533-2.062 3.407-1.245 3.097-5.675.866-1.202-2.409 2.092.432-3.549-2.182 1.42.323 1.108-3.848 5.651-2.23 2.47-1.095-2.651-2.448 9.841-3.098 9.426-.861-1.408-1.738 1.756-1.203-1.22-2.692 4.596-2.609 11.97-5.409 12.37-.908-.984-3.26 6.585.468 1.246 4.03-3.568 2.47-8.063 5.602-12.008.065 6.153 2.423-6.202 3.218-7.128 2.342-4.066 4.583 3.536 1.841 5.9-1.859 1.676.611 2.121-1.226 2.638-.602-1.713-2.863 5.56.32.873 1.927-2.744 3.303-6.824 2.105-.972-.785 3.444-2.504 8.778.605 2.62 2.066-4.031.338-1.377.085-2.031-.27-2.378.943-4.83 1.118-6.066.616-4.14 4.34-7.98 5.53-12.416.594 1.137.556 3.575 1.703-.558 4.688 1.038-.799 9.675-1.69 13.169 2.054-2.452 1.688-4.13 2.201-2.539 3.347-6.044-1.907 5.865-2.821 7.565-1.835 4.05-5.427 11.206-7.178 12.787 2.553-4.988 4.998-9.408 6.497-14.613 1.541-5.032-5.329 9.447-1.668 3.24-2.031 6.128-6.022 11.318-8.491 17.27.698.88 5.352-7.603 7.287-10.055-1.398 1.61.282 2.499-.591 3.411-1.755 2.523-1.695 6.135-2.724 8.197.074.813.287-.7.942-.746-.49 2.392-2.4 3.855.398 2.815-2.114.608.45 2.581-1.32 2.753-1.781 1.886-3.877 5.038-3.125 5.305-2.173 2.09-.938 5.3-3.798 6.657-.014-3.709.132-1.756 1.445-3.762 1.202-3.723 4.86-6.49 4.804-10.069-1.187 1.073-.469 3.89-2.704 4.289-.866 3.978-6.04 7.92-3.98 11.47 1.59-2.683 5.147-4.18 1.827-.57-1.424 4.719-11.612 10.372-10.167 12.524 2.1-3.39 8.045-8.627 9.667-9.47.746 3.306 3.384-11.773 3.209-3.738 3.366-2.522 3.994-4.963.468-.875-.654-5.257 2.582-10.085 4.527-14.158 1.925-4.707 5.79-1.981 7.334-7.028 2.707-4.514 5.023-3.426 2.05 1.066.167-1.041 4.435-5.024 1.432-1.005 2.868-.109-1.97 2.867-1.15 4.024 2.077-1.522-2.707 7.159-3.597 8.761-2.977 3.854-2.7 7.96-4.634 9.531-2.303 1.525 1.139 2.865-2.778 4.672-2.63 2.25-4.526 7.1-.896 1.887 3.224-5.485.274 6.403-2.347 8.388-2.372 4.427-3.115 9.831-5.07 13.68-.744 4.114-1.603-1.344-1.328 1.9-.317 1.572.095 8.325-2.507 7.288-.212 4.932-14.092 7.63-8.053.781 4.458-2.788 4.127-7.67 6.671-10.92-2.57-2.496 3.691-5.036.731-5.216 2.345-5.527 2.892-13.293 5.927-18.094-4.203 4.956-3.843 12.283-6.551 17.697 1.07 3.26-8.644 6.96-1.323 5.83-1.415 4.15-3.623 8.649-7.192 12.11-2.442 7.01 9.248 1.663 10.775-1.158 3.022-4.325 2.316-10.642 5.686-14.88-.156-6.031 5.324-10.005 6.06-15.683.62-4.737 4.35-7.724 5.02-12.221 2.077-4.847 5.465-12.033 7.807-15.298 1.319 4.35-3.558 11.742-3.448 13.409 1.12-2.26 1.75-3.092 3.054-3.504 1.017 1.73-2.059 8.077-1.908 10.754 2.335-2.707 1.97-11.631 3.358-11.968.698 3.07-3.861 11.629-1.246 11.41 4.248-4.591.172 1.545 1.813 3.897.294 2.58-4.06 12.242-1.883 5.234.942-2 1.472-7.94.116-2.185.18 2.213-6.014 11.77-1.473 6.685-3.478 6.503 2.907-1.671 4.266-3.171-.693 2.46-6.803 8.206-6.969 7.332.153-.457 1.91-2.68.826-1.95-1.625 1.695-5.566 7.534-1.064 3.385 5.269-4.05 9.602-9.181 11.658-15.682.258 2.542-.34 7.39 1.467 2.002.82-3.712-1.344 2.667-.796-2.002-1.047-1.871-1.883.522-.963-2.016.39-1.985 1.525 3.831 2.085-.692-1.532 3.327-1.39-10.622-2.358-2.019-.791 3.99-1.672 5.675-.588 6.337-1.318 2.949-4.484 7.726-1.577 1.615-1.466 2.371-8.421 12.417-4.361 4.286 2.655-5.342 1.911-9.004 2.677-13.325 1.432-7.722-.677 1.06-3.252 1.757.588-3.51 3.235-10.85 1.703-12.59.565-1.69.048-6.421.285-10.41.051-2.253-.547-10.747 1.3-5.468-1.135-6.466 3.837 8.933 2.315 2.957-2.45-4.407.144-2.237-.493-3.774-.755-2.714.837-1.447-.779-4.382-.36 2.123-2.408 3.17-1.806-.837 3.99 1.118.89-3.106 4.655-3.811 1.18-1.65-3.017.19-2.205-1.732-1.655.383 4.68-3.381.991-4.729-1.436.062-6.075-.626-1.031.708 2.197.656-.887 4.062-2 2.313 5.097-3.355-7.971 3.756-3.95-.038-2.017 1.583-6.648 3.767-2.357-.135 2.36-2.816 3.206-3.437-.493-1.385.436-4.453 4.097-7.362 4.114-7.322-3.435-1.257 3.155-7.973-3.546-6.695-4.11-4.034 3.157.446 5.516.985-1.777.98 4.29 3.514.088 6.032-2.714 5.78.973-1.113 2.63-1.502 1.21 2.583-2.542 2.676.263 3.656-.989 2.474-3.093 1.672.147 1.968.453-2.344 3.2 3.036 2.101.1-3.299-.877-1.19-9.955-.117-3.375.554 3.132 1.87.184 2.096 5.01-2.361-1.51 3.72 7.015-.621 2.367-3.116-.812 1.037 2.494-1.203 3.594-2.828 2.424-.04 1.407.461 2.976-.433-1.68 4.334-.999 1.632.498-1.135-2.318-2.274 2.473-.606-.167-1.643 2.698 1.682 1.605-.456 3.902.67 1.14-3.088 11.641-.248 4.573 1.703-8.107 2.145 1.378 2.605 5.73.75-4.439.085 1.127.124 2.239.652-1.048-.442 8.17-1.12 1.391.17-3.122-.654-9.572-.611-2.389.678 4.758 1.709 7.721 1.71 12.177-.43-2.25-.869.288-.928 2.058-.84 3.044-.589 8.145.27 2.188.143-2.023.921-5.47.334-.996-.666 3.14-2.339 13.525-.045 4.398.908 3.51.555 6.965.202 10.633 1.12 5.247 1.472 4.6 1.495 9.555.61 3.173 1.517 7.085-1.37 9.45 3.75-4.045.66 7.106 3.525 4.33.5 1.523 3.088-2.382 1.647-4.127 3.246.985.65-7.68 2.863-4.528.112-5.007 1.324-8.676 2.56-13.646 1.255-8.08 3.637-16.157 4.306-24.221-1.213 4.597-5.117-4.659-5.807-6.365-.403-2.015-2.254-8.88-1.98-2.964-3.022-3.817-1.771-7.751-4.403-11.647-.034-4.467-2.612-7.483-3.325-11.6 2.479 2.636 4.794 10.714 5.82 11.237-1.383-7.435 3.062.588 3.29 3.352 2.336 5.385-2.812-2.982-1.545 1.687-.04 1.575 1.957 5.947 1.934 6.434-.67 1.254 5.16 5.953 1.076.558-1.308-2.155-3.272-9.19-.105-4.925-.93-4.68 6.222 7.807 4.669 2.743.347-.169-2.462-5.524-2.821-7.426-1.006 1.65 3.525 10.142-.297 4.154-1.16-3.313-2.671-2.01-2.94-5.665-.978-2.457-2.383-6.655-4.482-7.478-1.517-.646.27-2.874-1.552-2.198-.834-.125-5.873-7.947-1.482-1.988 1.072.99-1.969-6.144.354-8.407.444-2.71 4.324 5.297 4.258 5.793-5.207-2.922.048 1.452 2.418 1.591.169 1.86-1.624 1.916.303 2.423-2.232 2.417-2.3 3.679-.333.933 7.29-1.786-4.063-4.234-1.784-7.24 5.886 3-7.474-7.674-.002-4.453 5.52 1.402 3.786-6.034 8.647-4.567 4.254 3.284-.53-2.67-1.345-.789-4.024-.155-3.786 2.28-3.963 3.333-3.654 3.036-7.351-2.19-5.998-4.452-3.662-.499-1.24-3.94-3.667-2.718.001.686-1.992.322-1.5 2.004-1.294 3.993-2.57-2.227-3.612-3.48.248-.18.177-2.466-.56-1.925-.404-2.3 2.101.542 3.018-.328 1.916 4.47.587-2.453 1.395.646 4.03-.43 1.515 1.84 2.484 1.755-.877 1.275 8.536-2.118 2.571-2.433-4.07 3.399-11.911-6.598-5.447-2.499.85 3.276 2.21.868.293-1.167 2.722-.987-4.785-1.595-1.964-3.046 5.371.04 1.533-.307-.038-3.112 1.732 1.48 2.758.343.4-.468 2.58-1.371 6.694-.311 1.553-2.12-.725.669-1.556.636-2.533.639.949 1.358-5.005-.254-1.544 1.376-.797-.053 1.254.615.869 1.536-2.074-.004.907 4 .23 3.984-3.83-.083-.721-1.006-3.456-2.443-.447-2.316 5.164-1.05.126-3.503 1.361 4.608-5.822-5.005-2.581 1.359.1.854-2.838 5.865-.646 4.185 3.3.642 2.048 4.559-.248 5.203-.057-1.984-3.013.87-3.787-2.82-1.806-4.434-.115-2.074 2.446-2.366-.354-1.337-6.689-4.765-.654-4.829 5.319 2.186-.529-4.158-1.603-1.64-2.076-.79 2.102-6.568 1.875-4.99 2.004-.17 7.242.028 5.511 1.848.622.56-.521.275.926 1.315-1.167-.944-2.012.574-.438.307 5.2 3.644.92-.906 1.802-.863 1.44-2.19-3.149-1.008 1.132-2.36 1.465-1.726-6.932 1.23-5.905-2.177.508-.31-.254-.427-.32-.72zm-41.05 1.12c-1.3 3.692-3.046 1.805 0 0zm80.58.638c1.509 2.06 2.166 1.998 1.846 5.037-1.549.327-.526-1.625-1.63-1.03-.567-2.562-.097-.814-.217-4.007zm-16.532.083c-.549 1.386 1.336 1.211 0 0zm-13.465.002c-3.323 1.02-1.744 3.054.276.24zm18.44.143c-1.031 1.284 1.472 1.235 0 0zm-31.94.389c-1.348 2.746-2.872 4.603-1.193.504.3-.44.767-.408 1.194-.504zm-30.24.029c2.596 1.474-.698.97 0 0zm-17.903.257c-1.063 3.236 2.65 6.754.76 1.415.985-4.333-1.38 1.292-.76-1.415zm105.397.444c-2.192-.194-4.792 5.282-.72 1.82-2.239-2.894 8.226 1.492 1.231-1.801zm-78.862.103c-.836 1.276 1.83 2.204 0 0zm-18.145.444c.8.588-.277 3.89-.342 2.382-.72-1.236-1.03-.518.342-2.382zm2.757.004c-.132-.038-.431 4.135-.64 2.316-1.081-2.418-.972 5.341-1.284.17-.345-3.266.904.288 1.924-2.486zm6.858.049c.111 2.57-1.873 6.009-.25 5.218-6.025 5.229 5.622-2.314.25-5.218zm4.62 0c1.604.812.26 4.733 0 0zm83.337.248c-2.52 1.432.808 1.917 0 0zm-112.063.134c-1.81 1.274 1.314 5.076.292 1.261 1.032 3.51 7.325 4.284 2.723 1.594-1.03.09-1.772-1.13-3.015-2.855zm93.083.133c2.267 1.921 3.61 3.908.163 1.411-.631 1.681-.57-1.403-.163-1.411zm-74.964.008c-.263 4.164-1.344.43 0 0zm90.498.223c-2.812 1.372-1.974 4.683.217 3.105 1.725 4.24-9.803 4.605-2.039 4.578 4.48-1.068 2.335-5.85.9-6.103-.733-.513 1.843-1.165.922-1.58zm-75.293.16c-3.002 3.741.46 7.129-1.877 10.058 1.054-4.407-4.08 3.591-1.442-1.757-.978.15-3.636 5.04-2.817 1.726-3.425 2.734-.77 1.426-.792 3.152-.959 3.279-1.042 5.95 1.224 1.2-2.743.853 4.735-6.743 2.734-1.928 4.606-3.852 2.207-9.757 2.97-12.452zm17.413.338c.912.92.36 2.729 1.006 2.974 1.894.423-.84 4.997-.843 5.038 1.365 2.765.34 4.41-.918.559-1.05-.69-.568-4.29-1.428-3.138.69-.643 2.119-4.912 1.093-3.79.225-.44.843-1.182 1.09-1.643zm61.007.501c-.747 2.188 3.7 1.205 0 0zm-53.1.04c-.512 1.356 2.24.448 0 0zm55.575.948c-.253 1.246 7.132 3.782 1.59.591l-.958-.42zm-53.465.033c-2.906.906-.057 1.943 0 0zm51.799.464c-6.595 1.504 3.405 1.174 0 0zm5.337.541c.774.993 5.49 7.687 2.016 4.853 2.744 2.83.424 14.298 2.249 5.09-1.62-3.903.974-3.01-1.125-6.569-.71-1.365-1.686-2.728-3.14-3.374zm-112.513.12c-1.273 1.721 2.374 2.692.464.52zm90.846.128c2.23 1.656 4.004 4.557.952 7.007 1.213-2.754-1.801-4.576-.952-7.007zm-49.39.205c-1.422 1.037.872 1.451 0 0zm-43.244 1.118c-1.146 1.539 2.066 1.858 0 0zm47.171.373c-1.52 1.643 1.173 3.449 0 0zm67.43.372c-.258 1.476 1.954 1.234 0 0zm-58.835.188c1.096.204 1.247 2.586-.748 1.63-.435-.415.248-1.445.748-1.63zm4.986.114c1.538.868.15 1.812 0 0zm-61.994.18c.53 4.75 6.657 4.31 1.265 1.711 1.932-1.327-.102-.589-1.265-1.71zm26.475.14c-1.958 1.339.818 1.162 0 0zm67.39.362c.704 2.738-.692 3.756 0 0zm3.415.221c1.628 2.894-1.11 2.86 0 0zm-80.922.535c-1.8 2.728-4.948 7.651-6.358 1.76-1.444 1.65-1.48 1.032-3.251-.363 1.888 4.871 4.436 8.507 9.675 10.826-2.683.833-5.865-1.121-8.487-3.278-3.472-3.646-.724 2.581 1.177 2.072.089 1.267 2.872 3.488 3.294 1.843 2.597-1.297 2.606 1.193 6.024 1.215 1.139 2.84 1.943 6.005.359 8.515 5.248-3.855-6.6 12.85.678 5.493.04 3.17-4.128 8.889-.614 4.859 2.692-4.114.606-6.086-.023-5.939 1.277-.994 3.44-7.487 1.091-6.29 3.419-6.008-.822 9.693 1.692 2.94 3.21-1.198 2.935 6.158 4.178 4.742-.377 3.96-6.32 10.79-4.787 5.992-2.762 5.538-.25 2.917 1.962 2.428-.406 2.25-3.105 7.264.119 2.595.863-2.11-.875-4.728 2.889-7.501 2.33-4.804-1.852 2.51-.036-1.955-.998-3.298 3.123-7.553 2.337-10.277 1.024-1.944-2.85-5.17-.848-3.816 1.625 2.698 3.373 5.934 2.676 1.978 2.549 1.554 3.525 4.885 3.509 1.59 2.083.998 2.877 5.683 1.827.427-4.378-1.122-4.013-2.752.269-2.705 5.295-1.35-5.864-.157 1.12-2.4 3.683-1.317-.746-1.376-3.544-1.19-2.184-.986 1.223-1.471-3.119-2.565-.659 3.103 6.623 2.882 2.776 5.84-3.253 2.205-4.995-2.466-7.506-2.551-2.355-.933-2.734-6.337-3.299-4.475-.384-1.586-2.934-1.722.328-2.933-5.497 3.604.365-8.397-3.995-2.531-1.131 4.978-1.79 2.469-2.556 1.649-1.163-1.876 1.853-4.19.443-5.995zm36.704.248c-.596 1.284 1.41.733 0 0zm16.949.444c-1.55 1.865-2.586 1.176-4.678 1.576 2.086 2.288 6.389-.716 4.678-1.576zm-54.015.213c-2.454 4.405.217 7.491 1.954 10.648-2.36.749-4.544-4.528-3.709-7.12-.042-1.389 1.074-2.429 1.755-3.528zm41.783.157c.55 3.875-2.09 1.8 0 0zm-9.79.183c-1.032 1.249 1.952 2.006 0 0zm50.033.783c-.754 3.314-2.912.714-.105.115zm-88.312.576c-.483 3.75 3.857 5.093 4.555 7.198-3.457-.752-5.69-3.72-4.555-7.198zm98.176.136c-4.924-.196-1.213 3.535-2.02 1.36.44-1.696 7.387.717 2.02-1.36zm-31.032.49c-4.381.81-3.209 2.738-3.306 4.801-3.348 3.827 1.434-.45 1.697-.343-1.449-2.602 5.466-3.96-.074-2.61-4.968.703 6.448-1.574 1.683-1.849zm-57.057.078c-1.842 3.223-.245 6.314.224 8.868 1.869-3.467 2.308.793 3.419 2.405 1.92-.047-2.793 4.516 1.151.963 1.85-.437-.726 6.773 1.62 1.06.088 6.235.549.402 1.306 1.748-.318 4.49-1.307 4.132-1.76 6.99-3.341-2.178 1.553-1.196-3.217-2.61-1.66-4.137 3.185 1.884-.143-2.636 3.058-1.095.98-.625-1.29-2.08.399-.785-2.62-1.275.997-.882-.56-.871-1.037-.158-.684-1.277-1.944-.403-2.704-3.533-2.433-3.99-1.69-2.321-1.035-5.191.347-7.965l.359-.534.104-.062zm39.116.009c1.75 3.344-2.285 1.286 0 0zm33.748.372c-1.681 2.818-4.633.52 0 0zm-13.557.285c-3.364.849 5.142 3.244 0 0zm31.74.127c-2.38.543 3.372 1.09 1.52 5.205-2.17 7.249 2.845-2.9-.776-4.74zm-68.022.46c3.167 1.96 1.073 2.314 0 0zm12.255.17c-3.594.224-.529 2.172 0 0zm42.366.233c-.796 2.823 4.354.403 0 0zm-83.94.022c2.173 4.987-4.378.47 0 0zm46.616.084c2.223.602-1.473 2.054-.017.054l.014-.052zm33.499.4c-2.87-.026 1.105 1.87 0 0zm-46.67.06c3.759.617-1.063 2.338 0 0zm9.265.197c-4.29-.803-.035 1.906 0 0zm-3.88.112c-1.215 1.733 3.877.106 0 0zm-3.217.401c1.954.525 4.095 5.255 2.154 1.17-1.943-.83 2.135-.099 1.749 1.319 3.72 3.92-2.455-4.404 1.925.89 3.503 4.443-4.128-1.063.45 2.723 3.554 2.002.041-2.183 2.396-3.315.17 1.943.273 4.94-.378 6.833-3.462-1.384-1.44-3.033-4.586-4.672-1.613-1.294-3.06-2.99-3.71-4.948zm9.597.043c2.372 1.308-3.353 2.533 0 0zm-9.727.898c1.265 1.726-1.583.835 0 0zm7.746.277c.181 3.475-1.854 3.497 0 0zm19.115.494c-2.866 2.539-1.206 4.526 0 0zm21.313.255c-.741 2.156-3.305.73-.064.079l.062-.078zm-77.25.029c3.161 1.749-.13 2.232 0 0zm49.783.13c1.714.807-3.402.7 0 0zm-10.165.671c1.565.692-1.356 1.954 0 0zm57.495.405c-2.919 4.286-1.388 7.435-4.663 9.783 5.497-2.772 1.643-5.134 5.283-8.686-1.022 4.844 2.55-1.771-.62-1.097zm-77.588 1.02c4.316.904-6.514 2.55-.347.013zm20.524.026c1.49 2.263-1.845 3.147 0 0zm-22.503.238c-.961 2.427-2.388 1.983 0 0zm6.573.104c-.793 1.105 2.55.726 0 0zm26.103.421c-1.18 3.215 6.091.879.337.496-.615.097.142-.519-.337-.496zm-18.51.352c-.785 1.012 1.569 1.032 0 0zm41.06.201c-2.86 1.098.417 3.623 0 0zm-31.263.551c3.969 7.157-4.03 1.429 0 0zm-2.655.235c2.374 3.438-1.868 2.465 0 0zm-2.892.36c-.297 1.339 2.665.454 0 0zm54.94.22c-3.728 2.088-.907 2.9 0 0zm-44.672.102c4.506.616-.706 5.374 5.115 6.357-3.37-1.471-3.328-1.071-1.509 2.025-2.171-2.037-2.897-5.731-3.606-8.382zm-26.141.27c-1.647 1.198 2.166.877 0 0zm25.438.678c1.696 2.562 1.44 8.54.521 2.788-.712 2.445-5.17 2.786-1.153-.294.41-.79.253-1.715.632-2.494zm-1.109.564c.315 3.127-4.023 4.22 0 0zm40.338.146c-4.093-1.024-8.16 9.241-3.926 3.873-2.878.468 4.816-5.038 2.19-1.496 1.483-.405 2.306-1.832 1.736-2.377zm-45.1.275c3.978.925.226 5.23.897 5.723-2.863-1.026-3.758-5.302-.978-1.673 2.304-1.405-4.708-2.55.081-4.05zm48.595.243c-4.168.114-1.94 1.916.167.049zm-60.902.248c-.001 1.952-2.708 2.89 0 0zm21.387.22c.593.81.11 1.845-.405.552l.172-.3zm-29.933.486c-1.182.944 2.052.202 0 0zm71.18 1.116c-4.725-.862-11.47 8.246-9.03 8.378.348-4.968 5.773-7.102 8.995-6.853-3.454 2.625 4.398-.488.6.148 1.598-1.694-1.338-.639-.565-1.673zm-56.272.555c2.255 2.864-3.463 10.192-.352 3.265.78-1.336-1.106-2.562.352-3.265zm10.607 1.064c2.512.328 1.556 2.815 1.426 5.866-.013.12-.468 1.387-.391.404-.854-2.625.642 4.398-1.691-1.489-3.6-1.858.243-7.166.566-1.218 1.63.164-1.395-3.35.09-3.563zm26.597.756c-2.469 1.788-.099 4.043 0 0zm-64.442.243c-3.3 1.918-.77 2.642 0 0zm20.935.236c1.384.73-1.495 1.779-.008.008zm52.604.252c-2.017 2.752-2.17 6.391-.008 1.372-.17-.255.65-1.254.008-1.372zm-88.682 1.042c2.277 2.39-2.222 4.466-.2 4.685 1.37-.876 2.304-4.132.2-4.685zm-11.127.224c-5.74-.522-10.658 7.361-7.148 11.765.334 2.445 2.491 5.582 3.625 3.952 1.849.036 1.963 2.65 1.05 2.786.649 2.956 5.95 2.578 1.912 1.347.35-1.586 3.34-3.223 1.427-5.987-.603-3.583 3.163 3.47.332 5.706 2.39-.558 1.134-9.085.474-8.164-2.75.076-2.27 4.454-4.292 2.668.174 2.112-.902-1.779-1.873.37-2.855-2.03-1.836-3.19.21-1.173 2.607-.495-3.087-5.235-3.411-3.49-.057-4.623 3.183-10.642 9.57-9.008 2.104-.275-1.673-.978-1.876-.772zm33.659.349c-.382 4.146 1.7 2.707 0 0zm-30.898.383c1.318 3.259 4.086 1.404 0 0zm67.382.468c3.012 1.877.868 1.59 0 0zm-40.684.04c-.534 3.235-4.916 7.129-.876 5.323 1.545 3.12-6.773 12.466-.286 7.24 2.136-3.508-.344-.882-1.553.266 2.692-3.75 3.53-9.588 2.715-12.83zm5.395 1.024c-1.777 2.42-.53 5.96.186.56l-.032-.413zm62.493.073c-3.063 2.368 2.476 6.648-.987 6.864-.423 3.252 2.202 5.227 1.33 6.788 2.85 3.928 5.617 2.179 1.412.676-1.438-3.178-2.525-6.767-1.214-10.427-1.502-1.105-.385-2.66-.54-3.901zm-6.852.248c-1.842 1.968 1.841.86 0 0zm-82.714.879c-2.002-1.16-5.973 3.946-2.637 1.59-.997 1.681-1.838 1.204-2.44 2.116.538 3.16-3.524.75-.18 2.599 1.019-2.247 4.665-6.249 3.272-2.332-4.575 3.161 5.704 9.071-.496 3.15-.967-3.268 3.333-1.772 1.161-5.385 1.46-.634 2.698 1.328 2.995-1.194-1.753.721-.588-.28-1.675-.544zm21.231.465c1.1 2.1-2.347 2.416 0 0zm72.454.415c.354 3.47-3.828 4.82-.515 9.45.993.452-2.273-6.976.466-4.704.375-1.379.81-3.496.049-4.746zm-45.994 1.723c-1.899 1.194.537 1.357 0 0zm31.679.083c2.15 5.335-2.92-1.75-.637 3.023-1.878 6.904-2.9-2.892.637-3.023zm-88.983.424c-1.998.57.031 1.576 0 0zm66.924.004c.89 3.684-1.318 1.17 0 0zm25.375.132c2.454 1.892.726 6.66-1.282 7.681-4.866-2.261-.535-.723.535-1.579-3.742-.6-3.692-2.068.031-1.837-4.313-.274-2.711-1.594.32-1.602 4.224-.668-5.433-1.774.396-2.663zm21.871.901c-8.142 1.723 6.472-.691 5.613 5.605 1.358 4.248-.684 3.724-2.498 3.497-.5 1.476-2.315 4.929.227 2.838 2.689-2.448.563 2.56-.893 1.3-1.828 1.774-2.26.784-3.738-.321-2.338.994-1.434 4.895.4 4.931.785 1.25-2.216 1.527-2.032-.493.047 5.388 4.213-.401 5.087-2.174 1.98 1.917 1.841-2.117 3.456-3.35 2.54-3.985-.15-11.637-5.622-11.833zm-113.586.352c-7.131 3.338 6.538 4.225 0 0zm110.062.467c-3.41 1.157-4.294 7.232-1.35 1.588-.823-.476 2.264-1.016 1.35-1.588zm-110.068.268c3.043 2.246-3.425 1.637 0 0zm-5.096 1.265c1.828.562-.135 2.205 0 0zm90.374 1.109c2.466.916 2.77 4.937.206 2.448.259 3.05-1.676-1.382-.31-2.327zm-26.545.834c2.824 2.297 2.643 4.927.465.84l-.356-.653zm-39.257.163c-1.754 2.638-6.24 5.267-2.496 1.234-1.371-3.127-4.21 9.748-.556 2.625.107 3.47.555 8.065-2.586 8.863-1.905 4.466 3.045 2.744 1.365 1.093-3.053-.027 2.24-3.147.935.05 1.645-2.387 1.908-5.328.669-3.349.254-4.616.096-6.778 2.669-10.516zm-9.933.079c1.774 2.145.858 3.584 2.006 7.13-1.425-3.203 2.938-3.468-2.006-7.13zm60.913.138c2.408 3.597 1.007 5.673 0 0zm-12.644.06c-1.17 1.698 1.868 1.24-1.769 1.633-4.034.759-.954-1.902 1.769-1.633zm10.036.14c1.188 2.361-.112 2.486-.286.704l.155-.587zm-1.982.042c1.67 3.227-.042-.473-.419 2.967a8.3 8.3 0 0 1 .42-2.967zm5.574.141c.812 1.67 1.486 1.15 1.746 2.152.756 2.635-1.364-1.96-1.746-2.152zm31.695.352c-.87 2.52 4.33 4.833 4.138.626 1.288 2.21 2.9-.156.279-.345-1.626 2.766-2.399 2.849-4.417-.28zm7.153.746c-.657 1.791 1.65 1.734 0 0zm-108.913.062c.759 1.273-.098 3.426-1.13 3.947-.182-1.97.297-2.61 1.13-3.947zm86.83.321c-.24 3.277 2.39.616.602 3.443.66 2.397-1.694 6.072-1.038.615-3.081 2.28 1.049-2.957.436-4.058zm23.84.08c-2.428 1.58.023 1.696 0 0zm-58.319.157c-2.435 1.193 6.44.115 2.586 2.796 1.298.145-1.163.394-.39 1.15-.015 1.344-2.816 4.71-1.607 1.912-1.88.68-.11-1.108-1.261-1.345.85-.212 4.15-1.648.406-1.22 6.4-3.483-1.418.41-1.283-.387-4.83 1.43 3.302-3.317-1.328-2.08.819-.64 1.883-.725 2.877-.826zm35.621.15c.741 1.221-1.837 1.367 0 0zm-60.37.1c-1.335 6.36-7.57 4.625-8.443 10.883 3.427-5.235.099 3.42 2.812-1.4 5.091-5.2-5.214 2.474-.017-2.629 2.609-.934 6.295-3.684 5.649-6.854zm80.943.124c-.572 1.216.094 1.089.223 1.564.064-.513.287-1.208-.223-1.564zm8.58 0c-2.192.875.563 1.343 0 0zm-4.938.248c-5.737 3.607 6.06 4.247 0 0zm-63.582.166c.502 3.576-3.336 5.757 0 0zm36.782.161c1.221 1.67-.947 2.138 0 0zm-26.443.074c.644 2.099-3.232 3.651 0 0zm48.588.134c-1.234 1.248 1.97.529 0 0zm-41.015.011c1.733.6-2.078.523 0 0zm-62.409.075c-.04 1.806 3.14 3.505.806.45zm105.527.005c-2.086 1.853.724 2.018 0 0zm2.421.251c2.85 1.533-2.526 1.652 0 0zm5.204.739c1.203.787-1.026 2.904 0 0zm-50.895.275c2.21 1.714.686 1.99 0 0zm40.005.012c.564 2.76.305 2.566-2.079 2.756 4.574-1.254-.942 7.468 2.83 1.602 1.096-1.119.122-3.44-.75-4.358zm10.344.21c.801 1.495-1.992 1.225 0 0zm-15.246.25c1.545 2.092 4.178.709 0 0zm6.995.247c.42 4.56 4.819 2.649 0 0zm-47.69.372c-1.82 1.796.796 2.958.042.633 1.799 1.016 1.008-.433-.041-.633zm-54.942.435c-.308 5.608-2.006-1.816-3.474 2.075 4.282-.79.077 6.232-3.458 5.748 3.612-.023 6.312-2.405 5.992-4.424 1.002 1.059 1.786-2.65.94-3.399zm43.512.234c-.557 2.486-5.767 5.68-2.12 1.32.627-.546 1.282-1.138 2.12-1.32zm1.337.08c1.107.906-1.525.914 0 0zm5.408.121c1.053.353-1.886 1.326 0 0zm-9.48.064c.359 1.86-1.62 1.73 0 0zm18.125.154c1.592 2.14-.326 1.638 0 0zm-55.152.03c-1.318 2.399-3.909 8.177-.205 2.734 1.034 2.83 2.068-4.675.553-1.802l-.336-.932zm20.84.125c-2.01 1.803.277 1.814 0 0zm35.666.157c2.307 1.23-.34 2.003 0 0zm-16.184.39c-.115 1.713 3.419.693.34 1.814-1.684-.2-1.201.573-.34-1.814zm17.732.538c3.451 2.885 1.565 2.914 0 0zm-12.703.372c-.09 2.472-1.903.07 0 0zm10.888.24c1.955 2.878-1.942 1.526 0 0zm-45.893.075c-1.873 1.302.499 1.243 0 0zm19.267.397c-2.568 5.673-5.844 11.05-10.832 14.986-2.76 2.143-4.641 6.89-.993 1.875 3.017-3.646 7.575-6.423 9.745-10.524-1.97 1.432 3.038-5.48 2.08-6.337zm71.717.067c1.897.062.184 5.1-.286.624l-.066-.434zm-44.003.371c2.608.202 5.039 8.221 1.344 3.53 1.35 1.532 5.148 11.51 1.56 5.56-1.06-2.965-4.045-10.22-2.265-3.71-2.174-.12-.433-4.062-.64-5.38zm42.001.004c-5.108.598-2.339 8.32-4.17 7.938-1.439-1.365 1.488-7.152-.867-3.816-1.17 1.073.365 6.072 1.915 4.36 3.599 2.886-3.46-4.751 1.604-6.623 1.918-2.365-2.277 6.163.249 1.183 2.116-1.071.722-1.29 1.27-3.042zm-60.464.176c.624 1.445-2.813 3.147-1.474 4.774-1.145-.343-3.723 6.004-2.143.366.476-2.105 1.793-4.053 3.617-5.14zm1.357.107c4.403 1.492-.524 1.383.218 4.63-.108 2.885.471 2.845 2.35-.26-.114 2.755-7.769 6.27-5.411 1.696 1.254-1.722 1.418-4.508 2.843-6.066zm13.056.25c-3.874.704.557 3.562 0 0zm-34.814.051c-3.745.582-7.623 6.779-6.756 10.047-.326.089-1.384 2.951-.508 1.206 1.412-2.022 2.244-9.073 5.603-9.523-.255 1.515 2.532-1.712 1.66-1.73zm25.044.005c-.44 4.73-1.982 3.807 0 0zm2.959.34c.548 6.239 1.221 14.272-.871 19.419-.776-.252 2.238-9.72-.013-10.088 2.055-1.389.378-6.564.884-9.33zm47.97.06c-2.839 3.222.387 3.462 0 0zm-49.593.816c1.246 1.154-1.543 2.267 0 0zm34.307.803c-.73 2.746 5.686 3.765 0 0zm-2.226.248c-1.633 2.501-2.905 14.886-1.053 6.396.597-1.987 1.194-4.412 1.053-6.396zm-34.975.006c.147 3.47-1.363 2.907-.357.483l.209-.38zm1.943.157c.602.574.64.392-.41 1.567.277-.447.025-1.206.41-1.567zm-56.153.096c-3.741-.972-8.946 6.296-5.314 4.817.313 2.198-3.807 7.354.2 2.345 1.5-3.432.843-4.007.045-4.205 1.476-1.746 5.104-3.118 3.02-.511 4.405-1.176 1.436-.92 2.409-2.138l-.177-.28zm10.787.24c-1.495-.21-3.253 5.508-5.472 3.366-3.883-1.09-6.353 4.45-7.907 5.542 1.596 2.853 2.823-6.349 7.245-4.932-3.331 3.407 7.739-1.849 6.134-3.976zm12.818.868c-4.024 1.913-2.19 4.45-3.246 8.122-2.003 4.642-1.476-5.517-2.21.232-1.734 2.425-.023 1.924-.369 3.82 2.399-.007-6.65 3.155-.8 2.177 1.757-2.165 5.405-5.196 5.424-5.715-2.187.685-3.615 2.72-.967-1.616.068-2.612 1.187-4.886 2.168-7.02zm33.824 0c1.456 1.505.494 1.719.093.361-.085.32-.329-.337-.093-.36zm34.682.994c-3.16 3.803 7.877 10.941 1.297 4.55-1.117-1.316-.993-2.968-1.297-4.55zm18.877.248c-1.685 3.58 3.807 6.953 1.465 10.561 1.724-3.348.81-1.568 1.928-1.384 2.27-7.183-1.747-1.366-3.393-9.177zm-58.502.249c-1.89 1.507.42 1.594 0 0zm8.513.125c-.927 1.337.78 1.879 0 0zm-44.343.278c-3.506 4.022 1.873 4.989 1.79 1.713-3.376.54-1.526 2.396-1.79-1.713zm52.944.28c1.804 4.596 6.732 7.658 5.473 13.452-.24 5.89 1.716 10.952.954 16.568-.684 2.98 1.33.048.406 4.611-.463 3.803.693 11.43-.615 11.17-.244 1.919-1.07 8.367-2.046 7.339-1.358 2.992 0 4.952-3.05 3.022 1.481-3.277 1.016-1.992.466-5.951.35-4.909-.661-10.32-2.07-15.573 1.54-4.51.08-8.774.11-11.227-.982-3 .466-6.285.318-9.407 2.186 3.708-.359-6.544.167-8.326-.043-1.893-.076-3.785-.113-5.677zm4.411.55c2.315 5.046 4.825 10.183 8.808 14.139-1.811 8.85-3.227 17.778-5.37 26.548-1.51-6.16.674-13.239-1.103-19.53-.083-4.45-.702-8.859-1.115-13.274.485 2.768 4.85 11.966 3.014 4.173-1.606-3.297.746 4.822-1.243-.656.91-2.848-3.842-7.504-2.99-11.4zm-25.72.756c2.043 1.623-1.637 4.659-.045 4.266-2.8 1.766-2.706-3.518-.354-3.966zm3.631.085c.213 1.71-1.854 1.751 0 0zm9.193.411c-.561 2.579-.566 10.634.247 3.27-.056-1.077.264-2.254-.247-3.27zm-10.43.859c-.01 1.177-2.56 1.471 0 0zm34.82.166c-1.274 1.165.712 2.153 0 0zm24.96.32c3.158 2.266-1.432 8.64-.86 8.6 2.76-1.943 3.32-6.273.86-8.6zm1.764.457c2.955.109 2.294 5.715.25.372l-.223-.332zm-27.042.848c-1.782 3.237-1.882 11.098-.314 3.127-.01-.916.807-2.278.314-3.127zm-93.132.829c-3.9 2.22-.703 10.314-.168 7.392.506 2.214.611 6.336 3.115 6.026-2.26-2.557-2.303-6.553-4.302-8.525-.605-2.907 2.143-2.936 1.355-4.893zm4.824.014c-2.105 2.259-3.129 8.476-.59 2.579-.141-.896 1.265-1.75.59-2.579zm99.552.11c1.05 2.45 2.733 2.99.297 3.21 1.103.53 4.159 2.375 1.264-1.658-.523-.519-.872-1.213-1.56-1.552zm-57.564.815c-3.168 1.326-9.339 11.676-3.651 4.233.98-1.445 3.24-2.75 3.65-4.233zm50.71.022c-.562 1.366-2.668-.108 1.08 2.144-.662-4.33 8.002 4.818 6.44 6.166-5.69-.985 1.947 1.074.69 3.105 2.139 1.292.87-2.166.502-4.82-1.164-4.713-1.74-2.083-.414.906-1.44-3.595-4.409-6.73-8.299-7.5zm-2.707 1.027c-1.966 6.498-2.934 13.248-4.268 19.87-.24 5.26-2.579 10.13-2.45 15.538-1.978 2.264-.591 7.036-2.832 9.567 1.697-.45-2.422 4.497.799 2.52-1.725.864-3.304 4.082-1.496 4.126-1.737 2.127-6.996 4.924-4.713 1.49-6.285 3.935 4.457 2.016 5.5-.92 2.906 1.536 14.68.723 6.686-2.888-9.017-2.685-1.189-10.373 2.362-13.796-.655-3.644-.354 2.281-4.115 2.751-1.376 3.17-4.617 5.936-2.612.246 1.86-4.72 1.056-9.276 3.257-15.395-.048-3.698 1.498-10.58 2.532-13.337 5.329 6.595-2.309-1.752.668-4.782.12-1.588 1.132-3.534.682-4.99zm-67.194.604c-1.222 2.639-2.447.506 0 0zm22.795.516c-2.678 2.668.441 1.802 0 0zm29.86.04 2.355 11.625zm-11.717.517c-.523 2.854 4.172 3.778.834.89-.384-.206-.485-.657-.834-.89zm6.527.187c-2.694 1.924-.63 4.495 0 0zm2.198.33c.235 1.106.44 2.764.438 3.77-1.73.081-.55-.139-.438-3.77zm-63.284.046c-3.308-1.103-7.576 6.173-2.701 1.328 4.387-3.763 9.768 4.286 7.79 5.027-2.95.285-2.56 6.537-1.057 2.905 3.073-1.106-.625 3.026-1.412 2.063-.982 1.727-3.245-1.934-5.555-1.641 2.965 1.356 1.958 5.838 4.805 6.434 2.831.352-1.473 2.116 1.677 2.227 3.818 4.132-3.118-.275-3.699-3.146-3.23-4.124 2.765 3.847-.906 2.016 3.14 1.92 4.82 5.093 8.963 2.428 4.719.723 2.462-4.29 1.796-3.413 1.357-.944 7.045-.147 1.802-1.29-5.814.682.4 5.049-6.05 3.85-3.325-2.727.711-4.283 1.169-2.198.378-3.613-2.466-5.234-.457-8.787.352-3.302-1.994-8.293-6.165-7.803zm106.23.25c-.187 1.514-1.927 3.357-4.176 2.805-2.26-1.339-6.578.732-6.758 3.657-3.68 3.175 4.946-.566 1.722-1.276 1.498-2.512 11.6-.239 9.211-5.187zm-79.69 1.111c-2.472 1.207-7.095 5.892-5.59 2.39-2.606 2.119-4.765 11.352-1.078 3.674 2.348-3.683 3.559-1.866 4.808-3.862-.452 2.089 1.946-1.923 1.86-2.202zm-37.79.977c-.242 4.3 1.787 6.662 5.828 6.558 1.014-2.431-.83-8.545-.462-1.708-.568 3.595-5.464-2.755-5.367-4.85zm71.194 1.167c.047 1.915-1.68 5.989-2.589 6.102-1.253-.788-1.695-8.877-1.734-2.954 1.212 2.064.884 10.905 2.991 3.352.233-2.243 2.444-4.182 1.332-6.5zm-31.304.218c-3.8 1.857.471 2.79-3.168 6.805-1.07 2.912-3.937 5.862-5.946 5.231-.594-1.261-5.874 3.206-.125.825 3.277-1.072-4.447 5.808-6.12 6.925-3.327 3.418-13.026 2.408-13.948 4.157 3.846-1.031 8.427-.29 11.745-2.035-3.223 1.505-8.636 10.93-3.056 3.918 2.515-3.535 11.597-.532 4.753 1.756-1.486 1.72 5.168-.551 1.97 2.55-2.62 1.487-4.347 4.423-1.128 2.026 1.563-5.205 7.07-3.096 9.005-6.799-.838 1.638-12.001 4.203-6.374 1.131 2.46-3.907-3.69-3.405-7.093-2.001 4.603-3.49 8.288-7.714 11.723-10.735 4.029-2.631 5.736-8.109 7.627-12.688l.295-.795zm56.133.373c-1.44 3.252 3.607 10.107 4.943 8.318-4.072-.196-5.598-9.204-1.505-6.03-.686-3.391-2.81-.958-3.438-2.288zm-60.663.987c-1.26 2.488-4.523 5.625.4 3.214-.532 3.515-5.933 9.18-.48 3.594 1.07-1.006 2.878-6.193-.795-4.027.244-.646 1.487-2.191.875-2.781zm11.226.317c1.699.068-1.46 1.546 0 0zm-36.876.931c-.973 3.606-3.344-.927-2.468 1.378.722 2.292 3.005.782 2.468-1.378zm1.933.023c-6.975 3.076 6.504 4.38 0 0zm88.064.367c-3.07 1.331 3.316 2.996 0 0zm-88.11.356c3.02 1.958-3 1.785 0 0zm4.189.088c1.4 1.583-1.674 1.038 0 0zm30.982.621c-.209 3.77-3.105 5.372-1.05.693.134-.63.702-.441 1.05-.693zm-45.399.238c-2.39.884 2.742 5.061 2.989 2.844-1.153-.808-2.155-1.707-2.989-2.844zm54.287 1.206c-.825 3.253-1.492 2.91 0 0zm12.63 1.081c1.21 1.32-.226 3.107 0 0zm24.995.743c-.482 3.631 2.085 2.913 0 0zm-42.512.248c-.587 3.5 1.311 4.573.218.075zm52.55.713c-1.885 2.641 3.305-.722 6.163 3.706 1.078 2.508 3.016 11.357 2.047 3.947-.385-4.303-3.947-7.435-8.21-7.653zm-91.69.39c1.7 1.08 2.632.348 2.103 3.278-.478-.88-2.46-1.406-2.104-3.278zm-6.403.034c1.822.875 3.253 5.611-.81 3.277-1.699-3.233-.57 3.536 2.242 2.829 4.046 2.514 2.945-5.232 1.668-.337-5.901-.489 2.947-2.612-1.725-5.454l-1.052-.276zm9.99.13c3.458 1.27 2.01 3.855-.631 1.108.015-.468.283-.845.63-1.108zm59.327.59c.843 2.735.58 2.08 2.271 5.319 1.336-.216-1.445-4.515-2.27-5.32zm-69.044.89c-.695 1.645 1.588.273 0 0zm88.711.359c1.464 2.788-3.566 10.072-1.705 9.722 1.225-1.044-1.723 5.392.827.123 1.458-3.524-1.658.175.943-4.546.16-1.615.81-3.845-.065-5.299zm-13.766.496c-.743 1.085-2 8.953.009 3.004-.546-.967 1.854-2.55-.01-3.004zm-34.216.001c-1.77 2.05 1.002 4.21 0 0zm18.224.124c-1.493 1.1 1.096 1.044 0 0zm-16.615.305c-1.483 3.993.281 6.23 0 0zm15.769.604c-2.842 2.571-2.689.771-3.488 1.76-2.747 5.041 6.209-4.988 1.886 1.917-.095 1.24 4.65-1.84 1.132-1.083-.16-.72 1.346-2.187.47-2.594zm-18.459.085c-2.059 2.915-.891 11.04-.37 3.245-.048-1.05.687-2.295.37-3.245zm5.79.121c-2.317 1.26.728 1.784 0 0zm24.711.53c-.901 1.102 1.728 1.589 0 0zm-25.61.644c-1.813.834-.886 3.664 0 0zm54.848 1.346c-3.793.942.383 9.72-1.12 3.483-.827-2.351 3.57-2.428 1.12-3.483zm1.622.34c-.393 1.673 2.186 1.177 0 0zm-30.355 1.105c-1.451 3.76-1.04 7.4.474 11.119 1.441 5.212.772-2.531.318-4.636zm.77 13.465c-2.152 1.082.352 1.634 0 0zm32.279-13.32c-2.7.761-.926 2.686.257 1.231 1.636 3.771.91-1.008-.257-1.231zm2.266 3.42c-1.307-.63-3.23 6.205-.442 1.83l.433-1.432.014-.396c0-.002-.005-.002-.005-.003zm-6.514.42c-.105 2.983 1.232 7.867.868 1.591l-.281-.872zm-8.601.004c-3.125 1.21-7.342 5.361-5.021 4.54-2.815 6.876 3.687-6.385 5.795-3.005.486-2.405-1.44.681-.774-1.535zm-54.287 1.013c-1.272 3.683-2.48 13.514-1.016 5.188zm3.532 1.177c-1.395 3.41-2.48 6.677 0 0zm-1.677 4.296c-2.117 5.06-1.58 4.22 0 0zm-.776-3.952-2.55 9.71zm53.892.06c-1.342 3.231 3.408-.53 1.337 4.706 2.154-2.785.767-4.38-1.337-4.706zm-87.767.889c-2.698.386-8.656 6-5.284 5.623-3.189 2.784-5.534 10.73-2.673 12.482-.768-2.881 2.808-9.241-.588-3.251-2.076-2.04 6.014-9.352 3.286-10.511.76-1.934 5.416-3.127 5.26-4.343zm96.25 1.86c-2.97 3.704 1.15 4.064 0 0zm.87.521c-.627 4.363-4.9 8.699-4.962 6.935-4.554 4.99 6.077-1.541 5.024-5.087-.383.105.737-1.717-.062-1.848zm-8.306 2.088c-.705 2.007-.943 5.211-4.175 8.049 4.28-1.01-2.95 2.951-3.947 4.002 1.085-.159 2.822-1.27 3.355-1.858 2.599-.577 3.612-4.974 8.033-7.087-.21-2.528-8.416 7.256-3.588.791 1.139-1.42.535-2.768.322-3.897zm-26.86.545c-3.678-.576-7.902 10.252-3.243 2.697 3.06-3.966 2.097.89 2.68.963 3.373-2.928.167-.603.563-3.66zm-54.664.575c.792 2.837-3.069 2.982-4.288 2.767-1.828-.137-4.879 2.772-2.982 3.118 1.197-3.566 10.233-1.35 7.27-5.885zm-6.16.122c-3.132 2.223-3.612-1.213-6.359 3.018-.574 2.332 3.503-2.56 5.342-2.21 2.183-.432 1.084 4.241 1.904.038l-.352-.51zm67.886.125c-1.913 1.813.133 3.386 0 0zm4.545.124c-.841 1.328 1.731 1.05 0 0zm19.582 1.118c-1.263.824 1.053 1.242 0 0zm-73.39.509c-4.365.64-1.457.507-3.16 1.862-3.03 2.131 4.067-1.125 3.16-1.862zm48.201.054c-1.933 1.985 1.64 1.44 0 0zm-35.425 2.423c-.835 3.536 1.245 5.156 0 0zm-17.87 0c-1.489.99-5.39 2.59-5.304 3.451 2.581-.042 4.172-1.916 5.305-3.45zm-20.22.396c-2.529 3.035 1.49 2.997 0 0zm74.97.097c-1.8 1.08-.169 1.889 0 0zm-12.192.87c-.446-.185-.691 1.479-.253.748-1.42 1.821-7.975 7.394-2.17 3.264.816-1.012 2.908-2.762 2.423-4.012zm-1.038.124c-1.527 1.316 1.069 1.242 0 0zm-48.316.625c-4.578-.108-8.597 4.938-5.814 4.72-2.035 1.961-4.602 3.952-3.133 6.054-1.108-3.18 7.664-7.784 3.104-7.517 3.025-4.105 6.427-.345 5.843-3.258zm60.42.403c-1.719 1.148.43 1.692 0 0zm-39.043.214c-4.445 1.72-.208 1.806 0 0zm46.36.262c-.707 3.092-2.181 2.395 0 0zm-45.312.11c-.523 1.337 1.547 1.741 0 0zm-4.604.134c1.056 2.044-3.933 1.232 0 0zm22.971 2.476c-2.006.582.38 1.252 0 0zm15.246.116c-3.061 1.332-3.74 4.948-.384.765l.49-.535zm-16.711.683c-5.69.996-6.297 4.439-9.377 7.401-.325 1.668 1.194-1.457 2.368-1.321-2.718 2.595 2.462-.937 1.254-1.734 1.21-2 4.688-3.023 5.755-4.346zm28.123.296c1.67 2.71 11.46 5.595 3.28 5.543-5.54.153-7.297-1.353-3.28-5.543zm-55.148.077c-4.895-.093-9 6.392-9.154.324-2.927-1.954-9.221 4.019-3.038.567 6.32-1.922-2.01 6.169 4.141 2.882 2.649-.551 5.714-3.508 8.05-3.773zm26.69.573c-.599 1.478-5.563 4.193-.41 2.125 3.254-.49 6.033-2.947 1.038-.918-3.08 1.42.312-.55-.627-1.207zm-17.366.119c-.269 2.97 2.054 2.421 0 0zm32.062 1.372c-3.38 3.569-3.226 1.347-5.445 1.674 2.13.29-1.983 3.217 1.978 1.278 1.044-.64 3.408-1.733 3.467-2.952zm-6.302.185c-2.247.66.793.965 0 0zm-49.69.182c-3.438-.084-7.074 4.464-6.84 5.616-2.02-5.35 1.135 5.359 2.088 1.997-3.967-5.3 3.722-5.961 4.751-7.613zm48.145.257c-3.535.477-8.483 7.912-3.461 3.781-.508-1.725 4.573-4.21 2.437-1.532 5.945-1.864 1.634.048 1.024-2.25zm-27.676.456c-1.605 2.375-2.676 5.259-5.445 6.523-2.067 3.596 2.511.932 4.366.835-1.335-1.62-5.487 1.28-1.463-1.784.662-1.416 3.932-4.545 2.542-5.574zm10.548 3.884c-4.823.955-.14 2.504.4.097zm9.426.575c-3.868.306-3.46 3.9-1.11.839-.451.184 2.558-.656 1.11-.839zm-14.86-79.115c-2.009 1.803.277 1.814 0 0zm-32.109-6.045c-1.998.57.032 1.576 0 0z" style="fill:#000;fill-opacity:.862144;stroke:#000;stroke-width:.269005;stroke-dasharray:none;stroke-opacity:1"/><path d="M73.458 105.552c-.903-3.134-.646 1.937-3.438-1.805.23-5.074 8.367-.042 3.563 1.882zM72.466 109.85c-3.025-.129-2.277-4.748.52-3.153.929 1.049 2.402-1.28 3.277 1.369.197 3.513-1.744-.226-3.624.914.609.743.99 1.09-.173.87M74.783 111.78c-1.37-1.51 2.988-2.196 0 0M72.74 111.051c-1.27-1.045 1.478.088 0 0" style="fill:#8a7a7a;fill-opacity:.610503;fill-rule:evenodd;stroke:#000;stroke-width:.0352598;stroke-linecap:round;stroke-linejoin:round;stroke-dasharray:none;stroke-opacity:1"/><path d="M73.589 110.527c-.097-1.455 1.141.268 0 0" style="fill:#8a7a7a;fill-opacity:.610503;fill-rule:evenodd;stroke:#000;stroke-width:.00881497;stroke-linecap:round;stroke-linejoin:round;stroke-dasharray:none;stroke-opacity:1"/><path d="M76.898 107.024c-.707-1.423 1.698-1.925 0 0M76.025 104c.417-3.522 1.993.372 0 0" style="fill:#8a7a7a;fill-opacity:.610503;fill-rule:evenodd;stroke:#000;stroke-width:.0249325;stroke-linecap:round;stroke-linejoin:round;stroke-dasharray:none;stroke-opacity:1"/><path d="M78.301 108.512c-1.528-1.453 1.797-1.116 0 0M74.281 113.608c-1.62-2.04.764-.885 0 0" style="fill:#8a7a7a;fill-opacity:.610503;fill-rule:evenodd;stroke:#000;stroke-width:.01763;stroke-linecap:round;stroke-linejoin:round;stroke-dasharray:none;stroke-opacity:1"/><path d="M73.518 112.415c-1.533-.68.718-.036 0 0" style="fill:#8a7a7a;fill-opacity:.610503;fill-rule:evenodd;stroke:#000;stroke-width:.01763;stroke-linecap:round;stroke-linejoin:round;stroke-dasharray:none;stroke-opacity:1"/><path d="M33.744 113.602c-5.018.738-5.279-10.88-3.284-3.195-.143 2.26 4.26 1.186 3.284 3.195" style="fill:#8a7a7a;fill-opacity:.610503;fill-rule:evenodd;stroke:#000;stroke-width:.0498651;stroke-linecap:round;stroke-linejoin:round;stroke-dasharray:none;stroke-opacity:1"/><path d="M36.121 115.15c-3.678-.973-1.727-10.541-1.157-7.993-3.143 2.892 4.593 7.733 1.157 7.993M37.97 110.557c.264-2.645 2.531-2.622 0 0M38.578 115.277c-2.063-3.6.446-4.32.711-.514-.28.157-.22 1.21-.711.514" style="fill:#8a7a7a;fill-opacity:.610503;fill-rule:evenodd;stroke:#000;stroke-width:.0498651;stroke-linecap:round;stroke-linejoin:round;stroke-dasharray:none;stroke-opacity:1"/><path d="M77.153 116.906c-1.601-2.574 1.605-5.611.19-.05zM75.69 113.655c-.048-2.66 1.249-.84 0 0M76.782 119.472c-5.085-1.856.533-3.545.809-.44-.206.136-.48.855-.81.44" style="fill:#8a7a7a;fill-opacity:.610503;fill-rule:evenodd;stroke:#000;stroke-width:.0249325;stroke-linecap:round;stroke-linejoin:round;stroke-dasharray:none;stroke-opacity:1"/><path d="M76.274 116.985c-3.746 1.005-9.684-10.482-5.031-3.845 1.358.582-.724-3.68 1.712.155 2.002 1.279 3.424 2.767.301 1.484-.066 1.538 2.905 1.739 3.018 2.206M104.852 136.819c-1.117-7.49 2.945-.51 0 0" style="fill:#8a7a7a;fill-opacity:.610503;fill-rule:evenodd;stroke:#000;stroke-width:.0249325;stroke-linecap:round;stroke-linejoin:round;stroke-dasharray:none;stroke-opacity:1"/><path d="M106.678 133.937c-3.587-2.2 2.643-.967 0 0M110.912 134.904c-.533-2.135-4.843-.405-.754-2.138 1.238-.864 1.356 2.208.754 2.138M109.74 138.952c-2.469-1.212-4.796-2.082-.28-1.837-1.112-1.841-4.358-.308-.491-1.955 3.293-.38 2.311 2.629.771 3.792M108.974 140.124c-4.16-1.345-1.27-2.045.632-.356.161.522-.396.466-.632.356M105.345 140.32c-1.014-1.98-3.294-.27-1.351-3.178.604 1.52 2.814 1.256 1.35 3.178" style="fill:#8a7a7a;fill-opacity:.610503;fill-rule:evenodd;stroke:#000;stroke-width:.0249325;stroke-linecap:round;stroke-linejoin:round;stroke-dasharray:none;stroke-opacity:1"/><path d="M80.79 103.504c-.944-1.933-2.928-2.905-3.26-1.436-2.525-1.267-3.314-3.713-2.44-.19-1.006-3.415-4.305-1.407-4.49-3.823.394-3.906 5.506-3.55 6.896-1.716 2.245 1.387-2.096 4.085.194 3.414 1.029-2.832 7.603 3.035 1.418.36-1.193.255 3.459 3.128 1.682 3.39m-3.952-4.547c.503-2.194-2.83-.382 0 0M66.985 105.524c-.795-2.036-.094-4.888.882-6.98.219-.998 1.186 1.544.826 2.208 1.885.178-.207 4.158-1.425 5.082-.177-.026-.552.227-.283-.31m1.202-1.603c1.437-4.068-2.137-1.305 0 0" style="fill:#000;fill-opacity:.610503;fill-rule:evenodd;stroke:#000;stroke-width:.0249325;stroke-linecap:round;stroke-linejoin:round;stroke-dasharray:none;stroke-opacity:1"/><path d="M81.086 106.72c-1.928-1.5-2.515-.962-3.294-3.398 3.956-1.067.958 1.6 3.294 3.398" style="fill:#000;fill-opacity:.610503;fill-rule:evenodd;stroke:#000;stroke-width:.0249325;stroke-linecap:round;stroke-linejoin:round;stroke-dasharray:none;stroke-opacity:1"/><path d="M97.454 213.348c-5.764.799-.903-8.07 1.735-2.775 3.93 1.902 7.668 3.125-1.735 2.775M89.65 208.063c-2.05-3.11 1.054-3.63-1.298-6.273 3.789-4.192.254-8.134.486-13.672-.274-6.484-1.077-3.316-2.16.324.09-3.179.125-8.425 2.63-6.745-2.313-3.327-5.045-9.545-1.506-12.26.238-3.751-2.017-11.27-.28-13.386 3.916 3.801 4.745 8.97 4.969 14.282-.034 5.036.4 7.045-.76 10.418-1.556 4.206.566 3.674 1.206-.64.743 1.264-.071 6.115.512 8.613.025 4.893.013 9.528-.332 12.637-2.227 2.3.033 6.26-3.467 6.702m.579-5.035c2.564-2.086-1.535-1.224-.324.122zm1.78-28.89c-.427-2.64-3.444-16.792-1.91-7.92.74 2.495.739 5.863 1.91 7.92" style="fill:#000;fill-opacity:.610503;fill-rule:evenodd;stroke:#000;stroke-width:.07052;stroke-linecap:round;stroke-linejoin:round;stroke-dasharray:none;stroke-opacity:1"/><path d="M88.402 210.792c-1.382-5.811 4.867-.103 0 0" style="fill:#000;fill-opacity:.610503;fill-rule:evenodd;stroke:#000;stroke-width:.07052;stroke-linecap:round;stroke-linejoin:round;stroke-dasharray:none;stroke-opacity:1"/><path d="M41.199 220.926c-3.95-1.829 9.62-1.681 2.992-3.145 4.797-3.862 1.88-6.872 3.587-10.821 1.482-3.455 7.063-.653 2.433-3.084-5.862 3.206 2.514-3.501-.963-3.683 3.21-5.329 2.183-12.687 6.405-17.495-.037 1.808.455 6.723 1.202 1.34.724-3.373 1.687-7.667 5.598-8.852.978 3.983 1.824 3.41-1.374 6.609 2.383.526-5.55 8.5-.7 4.403 4.473-3.986-1.778 7.83-3.146 9.83-.442 3.09-1.977 8.561-3.783 5.592 1.664 3.606-.363 4.677-1.345 7.037 1.868 5.479-3.156-3.274-1.073 2.433 2.036 3.306-1.622 5.147-3.349 8.124-1.986 1.003-4.253 1.652-6.484 1.712m11.566-21.089c1.072-3.212 3.436-14.168 1.129-5.517-2.17 3.803 1.702-11.676-.858-2.264-1.207 3.608-.427 5.789-.27 7.781m2.464-3.482c1.316-2.563 3.596-9.878.912-3.212-.712 1.054-2.703 7.692-.912 3.212m4.556-13.95c1.55-6.495-2.231-2.616 0 0" style="fill:#000;fill-opacity:.610503;fill-rule:evenodd;stroke:#000;stroke-width:.0997302;stroke-linecap:round;stroke-linejoin:round;stroke-dasharray:none;stroke-opacity:1"/><path d="M63.397 176.907c.275-6.026-6.687 3.149-4.168-3.812 1.733-4.995 3.246-11.506 8.13-13.23 1.1-.147 8.508-10.895 5.493-3.709-1.274 2.38 3.884-1.572.57 2.28-.544 4.16-3.797 9.607-6.282 14.285-.18.852-3.389 9.329-3.743 4.186" style="fill:#000;fill-opacity:.610503;fill-rule:evenodd;stroke:#000;stroke-width:.0997302;stroke-linecap:round;stroke-linejoin:round;stroke-dasharray:none;stroke-opacity:1"/><path d="M59.54 124.728c-2.01 1.803.276 1.814 0 0zm3.968-3.175c-2.009 1.803.277 1.814 0 0zm-1.852-2.381c-2.009 1.802.277 1.813 0 0zm-10.584 11.112c-2.008 1.803.277 1.814 0 0zm-3.969 5.027c-2.008 1.803.277 1.814 0 0zm.794 9.79c-2.009 1.803.277 1.814 0 0zm-5.292-11.377c-2.008 1.803.277 1.814 0 0zm-4.762 9.525c-2.009 1.803.277 1.814 0 0zm1.058 6.615c-2.009 1.803.277 1.813 0 0z" style="fill:#000;fill-opacity:.862144;stroke:#000;stroke-width:.269005;stroke-dasharray:none;stroke-opacity:1"/><path d="M13.526 131.578c.474-3.25 5.023-5.326 7.803-4.127-1.38.476-4.217.136-5.029 2.462-.797.674-1.81 1.491-2.774 1.665" style="fill:none;fill-opacity:.610503;fill-rule:evenodd;stroke:#000;stroke-width:.269004;stroke-linecap:round;stroke-linejoin:round;stroke-dasharray:none;stroke-opacity:1"/><path d="M22.403 129.53c-1.998.57.031 1.577 0 0zm1.323-1.322c-1.999.57.031 1.576 0 0zM25.342 165.2c-4.365-2.567-5.623 6.782-2.55.393.275-1.234 2.944.106 2.55-.394zM128.367 135.385c.17 1.483-1.917 3.81.75.674M136.04 136.972c.17 1.484-1.917 3.81.75.674m-4.19-1.732c.17 1.483-1.917 3.81.75.674m-1.808-3.055c.17 1.483-1.917 3.81.75.674m-2.338 2.236c.17 1.483-1.916 3.81.75.674" style="fill:#000;fill-opacity:.862144;stroke:#000;stroke-width:.269005;stroke-dasharray:none;stroke-opacity:1"/></svg>