<svg xmlns="http://www.w3.org/2000/svg" xml:space="preserve" width="578.37" height="230mm" viewBox="0 0 153.03 230"><path d="M67.73 108.68c-1.71-.03 3.9 3.1 5.12 4.9-2.25.85 1 1.68 2.68 2.93-.92-1.6-2.16-3.4-3.87-4.42-.03-1.03-3.08-2.2-4-3.29a22 22 0 0 1 14.29 11.33c2.92 3.88 4.14 8.9 4.95 13.82 1.55.99-1.54 2.96.89 5.89.36.06.35.55.15 1.3q.36-1 .88-1.85c-4.09 1.02.82-6.22-1.19-5.43.35-1.38 7.2-4.63 10.4-4.72 5.27-.29 10.06 3.5 13.32 7.42.12.78 3.44 3.5 2.91 4.47 1.8 2.3 3.93 6.69 2.95 10.07.32-.35.91 3.47-.58 3.46-.05.52-2.37 2.92-4.88 4.96a3 3 0 0 1-.56-.33l.08.08q.23.14.47.26c-1.57 1.28-3.22 2.43-4.42 2.88-4.8 2.35-7.83 4.55-13.06 6.3-2.48.72-2.7-2.64-3.97-3.96-2-4.42-1.56-6.49-3.63-9.15-.27.32-.28-1.38.56-2.78-.73.72-1.82 1.61-2.43 3.04.64 1.9.3 2.42-.57 2.9l-1.8-3.3-2.02 4.24c1.38-1.94 1.73-1.94 2.24-2.41.43-.4 1.29.98 1.57 1.47-.65.36-1.6.69-2.67 1.54-1.74.65-1.9 1.92-1.94 3.02.6-1.57 2.56-3.27 2.87-2.8-.93-1.72 6.37-.63 2.57-3.88 1.8-.34 3.22 7.12 3.66 10.17q.63.35.89.68c-.15-.88-.31-1.35.1-.16-1.67-5.83 1.41 1.42.94 3.28l-.34.27c.46-1.34-1.04-.18-1.12-.66.51-.14.6-.93.54-1.73-.5.98-2.66 1.63-2.6 1.28l.5-.43c-.34.2-.48.35-.5.43-1.35 1.2-3.13 2.95-3.13 5.07q.49-.59 1.38-1.43c-.72.35 2.21-4.32 2.56-2.62-.8.17-5.22 7.1-1.9 3.46 1.43-3.58.76 1.09-2.83 2.8-.02.39-1.15 0-.22-.1.08-.42-.04-.86.97-2.06l.04.01v-.06l-.04.05c-2.39-.78-2.84-1.19-6.23.52-2.6.81.48-1.66-.06-2.5-.53.36.95-4.55-.09-3.12.48-2.54-.66-4.06 2.47-4.54a1.3 1.3 0 0 1-.51-.61c-.13.55-.48.89-1.5.76-2.62 1.78-7.06 6.78-3.95 2.91-.56.5-.24-.93-1.16.46a7 7 0 0 1-1.04 1.33c-.06-.07.82-1.58-.4-.03-2.01-1.88-.66-1.12-2.56-2.95-1.31-7.87-.63 4.99 3.93 3.45 3.12-3.6.88 3.8-2.92 2.76 1.52-2.07-3.37 2.07-3.58 1.67-.95 1.96-2.52 3.66-5.4 5.02-.43.61-1-.16-.9-.65-.59.73-.49.63-3.15-1.04-.57-1.4-4.17-5.76-4.35-4.8-.05 1.4-1.4-.64-2.1-1.82 2.69-2.5 3.47-7.6 2.88-10.93.57.18.78.25.8.24-.04-.1-1.6-.87-1.1-1.65.22-.06.46-.2.47-.42q-.35.21-.48.42c-.3.06-.6-.01-.4-.23q.2-.02.64-.4-.52.25-.64.4c-.63.1 0-1.62-.25-2.17q.14-.52.3-1l-.31.34c-2.7 4.76-2.67-4.7-3.9-2.64-4.3 3.93-1.32-10.53-3.72-6.13q0 .25-.02.48c1.52-3.33-.07 3.87 1.8 6.13 1.66 3.85 1.67-1.48 2.61-.12.52 2.78 1.47 4.1.23 4.65 1.3 1.08 3.29-4 2.36.75.33 1.32 1.87 2.15 1.01 2.76.3.14.87 3.6-.04 4.82-.56-2.65-1.74 3.23-.32.57.24 3.51-4.79-2.09-2.32 1.18 2.3 1.31.7.98.4 1.29-1.2-1.23-3.18-1.89-4.8-2.46l-.05-.17-.36.03.41.14c1.3 4.84-5.43-1.94-6.6.43-2.29-.88-4.09-.1-5.51 1.4.81 1.58 1.86-1.47 2.64-.65.6-.65 3.7-2.01 1.71 2.09.23-3.53-.87 2.67-1.25-.67.1 1.67-2.8-.11-.4 2.4.31-2.7.76.9.52 1.05.35-.1.72-.35.9-1.43.36.26.85.4 1.38.53.2.45.3.37.37.09l-.37-.09a8 8 0 0 1-.3-.87c1.22-1.54-.59-5.89 3.17-3.38 4.34 1.07 1.96 1.41 4.43 3.73l.04.07c-.97-2.42-.9-5.18 1.89-3.25.2.52 1.7 1.78.47 2.59-.02 1.48-.1 5.48.53 2.9-.63-2.17 1.37-2.94 1.84.1 1.38 2.9-.36.34-2.3 1.69v.05c.5.4.99.73 1.49.89-1.23.87-2.77 1.42-4.08 2.12 2.46-.38 5.4-1.52 4.65-2.14 1.78.25 2.37 1.91.26 1.36.16-.36.12-.62-.91-.3q.52.21.9.3c-.24.56-.96 1.35.62.66-.57.3-.15.62-.31 1.15 1.04-.87 2.25.36.47.63-4.36 1.7 2.82-1.05-.65 1.22-.35-2-2.1 2.97-2.32 1.8l-.64.37c.05-2.36-3.9-2.6-3.88-3.73a3.8 3.8 0 0 0-1 2.79c-1.52 4.93-.31 9.93 4.97 11.36 6.28 1.75-5.64-4.2-1.08-5-2.2-2.68.34-5.38 2.3-5.6.45-2.12 8.05-3.84 6.18-.43-5-.8-2.39 7.88 1.08 9.38 1.92 1.07 2.35 1.06 2.16.56l.04-.02-.07-.05.03.07c-1.04.52-5-3.1-3.58-2.33-.1-.25-3.52-3.76-1.63-6.18l.09-.1-.09.1c-.37.3 0-2.43 1.36.3q.18.12.35.2c-.12-.16-.05-.34.51-.38-2.05-.2 1.5-3.18.3-.87.22.4 1.67.38.1 1.5l-.03.04c1.37.14 1.79-1.33 1.26.7-.24 2.04-1.99 4.44 1.33 6.95-.46-1.06-3.13-3.92-1.15-4.1-1.86-5.38 4.75 1.29 2.58-2.24 1.57.08-2.48-3.7-1.96-2.62-1.44.6-1.97-4.44.43-.1 0-.87.07-1.24.19-1.3-.54-.41-1.03-1-1.15-1.48.02 2.58-3.18-2.02-3.04-2.36-1.52 1.57-3.63-7.22-1.6-4.2 0 .78 3.4 3.96 2.55 4.11 2.3 1.99-.1-1.9 1.23-.08.37-.37 1.3 1.7.82.2 1.68 2.27 2.19.05 2.71 3.62.15.95-.55.85-1.27.37q-.15-.21-.25-.17l.25.18c.43.65 1.03 2.8 1.06 2.7.26-.24 2.2-.67 2.3 1.82l.4-.72q.32-.26.56-.66-.25.19-.55.66l-.19.12c-.46-1.24.12-1.53.74-1.74.68-4.49 1.06-.9 0 .95.92-.72 1.27 1.15.64 2.83l.28-.42c.02.12.15.07.47-.25.15-.12.13-.3.12-.51q-.27.3-.6.76c-.06-.3.54-1.65.27-1.93.2-.02 1.06-.95-.17-.95.7-1.9 1.43.78 1.4 1.34 1.2-.6 1.38 1.39.07 3.85-3.2 2.55-.9 2.59 1.54.77a7.6 7.6 0 0 0 2.73-3.57c-1.15 2.2-3.2 4.3-4.92 4.5-1.85.57 1.28-1.18 1.04-2 1.22-3.2.78-4.53-.26-6.12 1.31-4.88 1.84 2.42 3-1.58 1.93.16 2.33 1.6 1.88 3.34.49-1.24 1-2.38 1.9-3.15q-.27.21-.48.45c-.82.27-.73-.06-.26-.2-.27-.32.8-2.78 1.11-2.47-.04-1.35 1.56.7 1.08.78 1.56-.14.2.28-1.03 1.12a5 5 0 0 1 3.21-.64c.6 3.07 2.18 5.07-1.59 7.76.6.23.82.52.78.84q.28-.41.67-.96c-1.06.07 2.14-3.52 1.43-4.82 3.27-2.46-.34-.38 1.72-2.37-.97.2-1.97.71-2.09 1.89-.02-2.35-1.68-2.76-2.06-3.74-.05-4.38 4.84-2.2 5.73-2.94-.21.66.91 4 1.59 5.46-2.16-1.14.39 1.04-.88 3.24-.95 3.9-.24-.7-1.28 2.72-.9 2.64-3.46 3.47-7.2 5.28-5.93.78 1.44-.88 2.7-3.2-.95.87-1.53 1.35-.87.26-1.92 1.82-8 4-2.59 3.3 5.05-1.35 8.67-3.59 9.61-8.7 2.8-2.77-2.9-6.13.99-7.52 2.07 4.8 6.12-.79 8.63 2.36 2.92-2.32 5.23 2.7 1.93 5.47 2.64-.7.77 3.82-.57 4.57q.13.09.25.23c.14-.89 2.43-2.31 2.1-4.34-1.62-1.3-.9-1.13.35-3.44.8-.03-1.2-2.47-.64-3.3 2.86-2.22-1.03-3.47.06-1.46-.27 2.28-1.7-5.6 2.06-3.4 2.67-.84 2.87 4.15 3.8 7-.07-2.26-.82-7.12-3.35-7.99-3.23-2.03-1.94-.9-.04.58-4.76-1.58-2.74 5.18-3.6 5.72-.56-1-2.36-3.97-1.26-1.19-1.21 1.64-1.03 0-4.01-.78.42.8-.23.54-2.24 1.08 2.1-1.87 1.66-.9.29-2.19.5-.63 2.08-2.46.3-1.88a1 1 0 0 0-.29-.1c1.58-1.34 3.3-2.33 1.3-.73 3.61-.09 7.37-3.8 10.8-1.9a6 6 0 0 0 3.79.43c-.94-1.61-2.03-.19-.37-3.96-2.54 3.88-.91-1.13 1.77-1.15-5.44 3.76 3.4 1.19-.6 1.51-.54-1.47 4.66-1.7 6.46-3.65 5.96-3.32-.95 1.72 2.64 3.93q.11.4-.17.62c1.62-.2 2.9 1.62 3.25 4.2 1.26.07 2.83 3.34 2.1 6.06.49-1.11 1.78-3.3.3-4.62-.38 1.18-.55-.74-.55-.79-2.55 0-1.17-2.74-3.35-4.73-.4.13-3.95-3.97-1.55-4.59.8-.54 1.45-.77 2.01-.78l-.33-.2c-1.32-1.1 6.86-3.4 7.79-5.64 2.02 2.35 4.77 3.94 4.37 7.67l-.16.34.14-.2-.09.56c1.26-1.58.57 2.93 1.2 2.15 1.75.94 1.65 2.4 4.24 2.12 2.47.06 6.26-4.28 7.31.57 1.77-.1-1.69-6.3-4.56-4.15-1.47.82-4.79-2.61-4.36-4.87l-.41-.52c.2.28.16.43-.32.37 0 3.17 4 4.18 3.34 5.97.66-1.04.92-.39 1 .33q-.09.18-.14.4c.03.43.06.6.1.62.05-.04.09-.54.03-1.02 1.04-2.4 5.04-1.51 5.63 1.92-.41-1.11-3.59-2.52-3.34-2.03-.24-.3-1.32 1.27-2.82 1.7-3.05-1.05-.94 1.67-3.34-.24-.73-3.08-1.49-3.22-2.4-1.57.94-1.92-.1-2.19-.55-3 .85-1.07 1.16-1.14 1.58-1.52.5-.46 1.6 1.52 1.66 1.64l-1.9-3.47-1.46 3.09q-.1-.3-.04-.74c.48-2.55-2.43-2.13-2.62-5.25-2.1.55-1-3.71-2.31-2.12.42.7.57.96.57.99-.06-.01-1.03-1.45-1.36-1.65.62 1.4 1.12 2.9-.5 2.93-2.18 1.24-5.49 3.11-6.91 3.85-.24-.77 1.36-1.18-1.31-.02 2.99-2.48-2.21.55-1.4.8-.86.24-.16-2.79.62-3.24 2.66-2.05 5.83-3.28 8.41-6.23a9.4 9.4 0 0 0-4.13 3.11c-4.95 3.74.12-1.83.76-4.17 2.8-4.58-.1-10.6-2.44-14.86-2.22-4.9-7.1-8.3-11.71-10.82-3.6-1-7.05-2.96-10.75-3.88l-1.85-3.38-1.37 2.9q-.43-.03-.87-.02a5 5 0 0 1-.7.18q.61-.02 1.46.07l-.53 1.11q.48-.67.81-1.07c4.45.57 12.31 3.03 7.3 3.22-3.65 1.12-5.78 1.48-8.54 3.7l-.61.37c.15-2.18-3.41-7.26-.9-7.37-2.21-.31-2.5-3.33-3.97-5.18-2.36-5.08-7-8.76-12.02-10.89-1.32-.4-2.1-.57-2.5-.57zm52.55 47.55.3-.1-.01-.23zm.3-.1c.06.41.36 1.03.65 1.7-.14-1.27.47-1.6 1.38-1.41l-.93 1.96c.71-1.01 1.15-1.5 1.48-1.8a10 10 0 0 1 2.8 1.83 5.2 5.2 0 0 0-2.4-2.16q.19-.14.36-.29c.5-.45 1.6 1.53 1.66 1.64l-1.89-3.46-.9 1.88a5 5 0 0 0-2.21.12zm5.38 2.28q.21.36.41.75.73.62 1.36 1.38a8 8 0 0 0-1.77-2.13zm1.77 2.13.03.05c-.96.4 1.63 2.25 2.27 3.1-.62-.85-1.38-2.06-2.3-3.15zm-6.5-2.72.05.3q.03-.03.1.01zm.05.3q-.07.06.16.67zm-6.36 7.77a10 10 0 0 1 2.84 2.51c-.76-1.38-1.54-2.54-2.84-2.51zm2.84 2.51.43.8-1.27 2.67a10 10 0 0 1 1.67-1.96q.52.96 1.2 1.73c-.44-.5-.75-1.12-1.12-1.8q.25-.18.49-.38c.5-.46 1.6 1.52 1.66 1.64l-1.9-3.47-.69 1.47q-.21-.34-.47-.7zm2.58 3.77q.25.2.53.35c-1.31-.14.03 1.72 1.39 2.33-.32.19-.21.8.1 1.48 2.37-1.41-3.91-2.94.08-3.4-.95-.13-1.6-.4-2.1-.76zm-19.06 10.61v.4q.1.06.22.2zm0 .4c-1.14-.82-.93 3.57 1.25 5.29-.08-.91-2.49-2.65-1.3-4.62q.04-.17.06-.68zm1.25 5.29v.11l.18.02-.18-.13zm0 .11c-3.77-.28-2.12 4.51-.26 6.23.18-.9-2.8-3.66-1.44-5.67 1.19-.03 1.63-.23 1.7-.56zm-.26 6.23-.03.07.15.04zm-.03.07c-4.11-.96-2.36.63-1.19 3.64q.73.68.85.87c-.45-1.07-2.16-2.54-1.4-4.46 1.13.26 1.62.21 1.74-.05zm-.34 4.51.04.11q.02-.03-.04-.1zm.04.11c-.07.2-1.97-1-1.49.24-1.09-1.6-4.99.1-5.26 2.73-1.35.07-.72-4.87-2.07-1.9-1.5-.65 2.46-2.37 1.12-4.09-.85-.35-1.25-.5-1.26-.78q-.33.39-.8.78c4.25-2.04-1.9 6.4 1.48 4.19-.24 2.7 2.52 1.6 2 4.15.98-.81 1.6-.05 2.35.7a9 9 0 0 1-.12-.85c-2.66-.89 2.76-5.15-.44-3.03-1.5 3.5-1.93-.2-.43-1.5 1.77-1.94 4.82 1.33 3.33.63-.73.28 4.34 3.05-.46 2.54-1.21 2.33-.84 1.27-1.55 1.67-.03.03-.08.5-.15.7.5.47 1.07.87 1.85.78l.26.24c-.18-.61-.36-1.38-.7-1.23-1.34-1.72 2.28-2.82 3.88-1.22-.94-1.37-1.9-2.57-2.22-3.59.72-.3.84-.7.68-1.16zm1.54 4.75.44.6a2 2 0 0 0-.44-.6zm.42.63c-.27.4-3.04 1.18-3.17 2.27 2 2.23 4.1 6.34 1 9.66 1.27-.18 2.18-1.58 2.79-2.92q-.2.2-.43.39c-2.72 3.82-.7.67-.6-1.63-.54-4.05 1.15-.57-.05-3.46-.14.86-1.29-1.73-1.5-1.57.38-4.77 3.77-.3 3.6 3.53.54-2.36-.46-4.45-1.64-6.27zm1.64 6.27q-.15.65-.47 1.34-.22.64-.55 1.4c.68-.75.98-1.72 1.02-2.74zm-4.81-4-.43-.45c.13.45.25.82.44.7a1 1 0 0 1-.01-.25zm-2.54-1.46-.18-.18c.07.34.13.32.18.18zm-5.2-10q.42-.5.67-.98c-.45.5-.68.78-.68.99zm.67-.98.82-.9c.48 1.14.5-1.21.4-1.25a3 3 0 0 1-1-.3c.23.6.28 1.48-.22 2.45zm.21-2.45q-.13-.33-.31-.53-.07.3.31.53zM73.4 181.34q0 .24.09.6.02-.51-.09-.6zm-17.01 4.7q-.39-.03-.88-.29c.17.24.72.45.88.29zM39.4 172.83c.98.22 2.05.46 2.69 1.26 2.8-1.48 4.7.62 6.45 2.07-.16-.48-.33-1.32-.46-1.34a6 6 0 0 1-1.51-2.09c.23 1.16-4.13-1.98-2.75-.28.36.91.01.44-1.34 1.34.37-.82-3.28-1.45-2.48-2.34q-.15-.28-.23-.27c-.21.01-.24 1.15-.37 1.65zm7.17-.1q-.04-.15-.2-.44zm1.97 3.43c.1.31.19.48.25.21zm4.95-17.2q.39-.23 1.12-.44l.5-.28-.74 1.57c1.38-1.95 1.72-1.95 2.24-2.42.5-.45 1.6 1.52 1.66 1.64l-1.1-2c2.28-1.3 4.6-2.23 2.57 1.73.8-.87 2.82-9.9 2.5-2.63l.4 1.29c-.06-.66.03-1.44.63-1.7-1.56-1.58.95-.56 3.38.42l-1.43 3.03c1.38-1.94 1.72-1.94 2.24-2.41.5-.46 1.6 1.52 1.66 1.64l-.9-1.63c.58.22 1.09.4 1.45.47 1.96 2.1-.61 1.13-.89 3.61 2.8-3.56 1.42.83 2.91-1.26-.5-5.07-.03 3.13-.74-1.8-.84-4.1.26-1.36 1.37-.82q.28.04.54.04c1-2.62 2.11-2.94.76-6.96-1.8-4.76 1.73.1 2.39 2.14-1.08.13-.16 3.17-1.59 4.45 2.69-1.34 3.85-6.01 2.6-8.92 1.76 3.13 3.51-2.92 2.64-4.33.22.46-.23.01-.56-.48.33 1.9-.5 4.34-.5 4.86-1.13.12-1.94-1.19-2.88-1.08-3.67.56-1.98-4.87.94-6.57 1.84-5.18 5.77 3.5 1.96 1.53q.14.2.24.44c.12-.07.39 0 .9.28 1.52-1.16 1.05-2.4-.1-3.84.38.61-1.68-1.07-1.87-1.67-.02 1.03-1.8 2.54-2.98 3.48-1.71 1.9-2.84 6.5-7.63 4.46.3.64-2.6.37-3.9.61-.28 1.33-3.08.2-4.1 2.44-2.07-1.29.46.7-3.1 1.69-.37.13-2.66 1.55-2.7 4.08-.24.1-.63.23-.79-.09.98-1.19-1.3-1.55.86-4.78a39 39 0 0 1 8.93-13.57c-.25 3.07-.3 4.2.22.44-.79-5.14 1.05 1.07 2.5.54-2.27-.76-1.14-2.98.12-3.6l.07-.85c-.67 2.14-3.5.77-3.19 3.1-3.86 4.46-7.67 9.36-9.47 15.1-1.92 2.63.45 3.52.48 4.94 1.86-3.99 5.66-6.23 9.58-7.8 5.03-1.77 10.62-1.66 14.5 2.5-2.23.29.6.25-.73 1.77-2.7-1.65-.87-3.06-3.58-4.12.5 2.54.47 4.66.8 6.43.26 5.35-4.53-.76-3.1 2.8 0 .9-2.21-.37-2.93-.73l-.42-.77-.57 1.2c-1.84-.83-1.66-3.03-4.29-1.55.57-4.27-1.47.1-1.85.38-1.6 1.67-2.12-.01-3.75 1.32l-.4-.71-.67 1.43c-.28.15-.88.7-2.21 1.86zm-.38-4.11q-.25.53-.45 1.11c.34-.42.46-.78.45-1.11zm24.68-18v-.12q-.03.05 0 .13zm0-.12c.05-.14.37-.11 1.15.23 3.28 2.3 1.77-2.81 2.51-2.3a7 7 0 0 1 .23-2.02c-1.1-1.89-.33-3.54-1.41-6.95.62.38-.63-2.73-1.21-2.9-1.16 1.56.74-3.37-1.91-3.42-.22-.3-.46-.75-.74-1.26q-.11.42-.64.9c4.22 1.36.94 4 3.86 5.66a3.6 3.6 0 0 1-1.57 1.15l-.91-1.68-1.14 2.38c-1.4.41-3 .8-4.4 1.39l-.66-1.23-1.01 2.13q-.47.32-.85.7l-.19.28.78-.45-.74 1.58a8 8 0 0 1 1.9-2.14l.68-.3c.54.26 1.27 1.57 1.32 1.66l-.98-1.8c1.42-.58 2.92-1.1 4.02-1.54l-.75 1.58a9 9 0 0 1 1.71-2q.55-.24 1-.37c.52.37 1.15 1.5 1.2 1.6l-.91-1.68c3.66-.82 1.78 4.65 2.97 7.08-.85.87.5 4.07-3.4 3.46q.06.12.08.26zm-8.89-6.94a5 5 0 0 0-.92.73q.45-.13.92-.73zm-.92.73c-1.36.44-2.59-1.54-2.55.15v.05c.3-1.27.87.9 2.13 1.33-.25-.53-.06-1.04.42-1.53zm-2.55.2q-.08.32-.14.99.12-.4.14-.99zm10.98-12.61c.17-.6-.25-1.13-.88-1.6q.5.87.88 1.6zm5.27 14.53.1.16c.1-.51.12-.73.1-.76h-.01c-.03.02-.11.26-.2.6zm-.23 2.02c.04.25.13.4.31.36q-.2-.28-.3-.36zm-2.59 7.43c-.17.1 0 .47.24.82a4 4 0 0 0-.24-.82zm-4.44 14.55q-.71.37-1.56.37l-.04.12.18.14.26-.1q.75-.14 1.16-.53zM53.1 110.48c-1.18-.07-5.2 1.46-6.57 2.7a24.5 24.5 0 0 0-9.95 10.41c-3.2 2.45-1.97 8.62-4.4 10.59.31 4.84-1.27 9.39.28 13.88-1.91-.34-.63 1.08-.01 2.55-.61-1.72-.38-3.04.1-.59.26-2.4.9-.96.25-3.42-1.21-3.28-.7-6.96 0-11-1.04-1.77 1.48-2.5 1.83-6.73.23 1.9.98.23.25-1.65 1.74-3.93 4.7-9.06 8.8-11.48.4-.39 4-3.87 8.4-4.94.68-.2 1.06-.3 1.22-.28zm.2.04q.06.02.09.05 0-.05-.1-.05zm.09.05c-.04.49-6.53 3.81-4.18 4.17.42.77-3.03.62-4.07 3-.72 3.3-4.4 4.56-5.35 9.22.5 2.6-2.06 5.88-.75 5.96 2.32-.64 4.54-1.76 1.13.9-2.88.88.13 2.33-1.05 4-1.06 1.06 1.84 1.96 4.66.28-1.09.78-5.18 3.62-3.76 7.23-.97 1.52.44 1.06 1.45 1.02-1.67-1.28-2.03-5.7 1.45-7.15 5.47-3.58-7.07 2.41-2.6-2.58-4.19-.5 6.47-6.98-.25-4.27-1.1-1.76.36-7.39 2.53-10.56 3.67-.94.92-4.08 4.86-5.7 4.14-.86.25-1.7 3.78-3.5 1.82-1.19 2.35-1.8 2.15-2.02zm-11.92 35.78q.38.3.83.35c-.08-.3-.42-.36-.83-.35zm.83.35.01.07c-3.23 3.27 1.02 6.68-1.12 1.99 2 1.78 1.61 1.94 2.68 3.39 1.16-1.91-1 .16.02-2.12l.04-.09c-1.29.9-3.47-1.52-1.18-3.27q-.23.04-.45.03zm1.63 3.24c.4-.28.71-.88.78-1.92q-.3.65-.78 1.92zM90.56 124c.48-.02 1.24 1.25 1.45 1.62a17 17 0 0 0-2.83-.47c.58-.66.86-.76 1.21-1.08q.07-.07.17-.07zm-3.35 1.3q-.3 0-.5.05.23 0 .5-.06zm-.5.05h-.01zm-.01 0h-.03.02zm-.03 0a3 3 0 0 0-.46-.02q.22.02.46.02zm-9.12.55q.1 0 .2.06l-.65.24.28-.23q.07-.06.17-.07zm5.74 2.74-1.3 3.82c.89-1.75 1.11-1.75 1.45-2.18.32-.41 1.03 1.37 1.07 1.48zm-9.55 1.86-2.02 4.23c1.38-1.94 1.73-1.94 2.25-2.4.5-.47 1.6 1.51 1.66 1.63zm3.72 0-2.02 4.23c1.38-1.94 1.73-1.94 2.25-2.4.5-.47 1.6 1.51 1.66 1.63zm26.01 2.48-.55.44c-.48.42-.49.48-.74.72q-.15.18-.34.34.2-.15.36-.33l.74-.72zm-2.22 1.91q-.12.08-.26.13zm-.26.13q-.82.37-1.81.3l.01.02q1 .1 1.8-.32zm2.31-1.77v.3c-.02 1.18-.78 2.53-.24 3.58-.53-1.03.25-2.42.27-3.57zm-9.74 1.64c0-.02-.16.11-.56.44-.48.41-.49.48-.73.72l-.34.33.36-.32q.36-.37.73-.72zm-2.23 1.91-.26.13zm-.26.13q-.82.35-1.81.3l.02.01c.67.08 1.26-.05 1.8-.31zm2.31-1.78v.3c-.01 1.18-.78 2.54-.24 3.59-.52-1.04.25-2.43.27-3.58l-.03-.31zm15.98 1.64-.55.44c-.48.42-.49.48-.74.72q-.15.18-.34.34.2-.15.36-.33.37-.36.74-.71zm-2.22 1.91q-.12.08-.26.13zm-.26.13q-.82.37-1.82.3l.02.02q1 .1 1.8-.32zm-38.41-1.98-2.01 4.23c1.37-1.94 1.72-1.94 2.24-2.4.5-.47 1.6 1.51 1.66 1.63zm40.72.2v.3c-.02 1.19-.78 2.54-.24 3.6-.53-1.04.25-2.43.27-3.58zm-5.74.56.07.08q.23.15.5.27l-.03-.02a3 3 0 0 1-.55-.33zm-4.32 1.09-.55.44c-.48.41-.49.48-.73.72l-.34.33q.18-.14.35-.32.37-.37.74-.72zm-2.22 1.91-.26.13zm-.26.13q-.82.35-1.81.3l.01.01c.68.08 1.26-.05 1.8-.31zm2.31-1.78v.3c-.02 1.18-.78 2.54-.24 3.59-.52-1.04.25-2.43.27-3.58l-.03-.31zm-5.44.56.08.07q.23.16.5.27l-.03-.01a3 3 0 0 1-.55-.33zm-8.46.08-2.01 4.23c1.38-1.94 1.72-1.94 2.24-2.41.5-.46 1.6 1.52 1.66 1.64zm-24.82 1.04-2.01 4.24c1.38-1.95 1.72-1.95 2.24-2.42.5-.46 1.6 1.52 1.66 1.64zm49.09.78.08.08q.23.15.5.27l-.03-.02q-.23-.1-.45-.24zm-5.55.45-.55.44c-.48.42-.49.48-.73.72l-.34.34q.18-.15.35-.33l.74-.72zm-2.22 1.91q-.12.08-.26.13zm-.26.13q-.82.37-1.82.3l.02.02q1 .1 1.8-.32zm2.31-1.78v.3c-.02 1.19-.78 2.54-.24 3.6-.53-1.04.25-2.44.27-3.58l-.03-.32zm8.85.06-.55.44c-.48.41-.49.48-.74.72q-.16.18-.34.33.19-.14.36-.32.36-.37.74-.72zm-2.22 1.91-.26.13zm-.26.13q-.82.37-1.82.3l.02.01c.68.08 1.26-.05 1.8-.3zm2.31-1.78v.3c-.02 1.19-.78 2.54-.24 3.59-.53-1.04.25-2.43.27-3.57zm-24.76.02c-.8 2.37-2.1 5.79-1.03 7.7q.32.19.57.36c-.37-1.03-.31-2.49-.38-2.55l-.02.03c.11-1.05.27-3.32.86-5.54zm11.57.86.08.07q.23.16.5.27l-.03-.01a3 3 0 0 1-.55-.33zm-4 2.67-.55.44c-.48.41-.49.48-.73.72l-.34.33.36-.32q.36-.37.73-.72zm-2.22 1.9q-.12.08-.25.14zm-.25.14q-.83.37-1.82.3l.01.01c.68.08 1.27-.05 1.8-.31zm2.3-1.78v.3c-.01 1.19-.78 2.54-.24 3.59-.52-1.04.25-2.43.27-3.57l-.03-.32zm8.82.24.08.08q.23.15.5.27l-.03-.02a3 3 0 0 1-.55-.33zm8.68.32.08.07q.23.16.49.27l-.02-.01q-.23-.1-.45-.25zm-5.24 1.08-.55.44c-.48.42-.49.48-.74.72q-.16.19-.34.34.2-.15.36-.32.37-.37.74-.72zm-2.22 1.91q-.12.08-.26.13zm-.26.13q-.82.37-1.82.3l.02.02q1 .1 1.8-.32zm2.31-1.77v.3c-.02 1.18-.78 2.54-.24 3.58-.53-1.03.25-2.42.27-3.57zm-68.31.42-2.01 4.24c1.38-1.94 1.72-1.94 2.24-2.41.5-.46 1.6 1.52 1.66 1.64zm44.76.8-2 4.23c1.37-1.94 1.72-1.94 2.23-2.41.5-.46 1.6 1.52 1.67 1.64zm3.6 1.14c.17.49.44.88.86.99-.06-.3-.32-.62-.86-1zm.86.99a1 1 0 0 1-.07.49q.36-.35.84-.59-.45.19-.77.1zm-.07.49q-.38.37-.64.82.46-.44.64-.82zm7.21-1.38.08.07q.23.16.5.27l-.03-.01a3 3 0 0 1-.55-.33zm6.85.13-.55.44c-.48.42-.49.48-.73.72l-.34.33q.18-.14.35-.32l.74-.72zm-2.22 1.91-.26.13zm-.26.13q-.82.37-1.81.3l.01.01q1 .1 1.8-.3zm-66.86-1.83q.2.56.12 1.07l.27-.25a7 7 0 0 1-.4-.82zm.12 1.07q-.34.38-.43.73.37-.32.43-.73zm-.43.73q-.17.14-.41.26c.6.85 3.28 3.92 4.21 6.17.4-3.13-4.24-4.57-3.8-6.43zm3.8 6.43q-.05.4-.2.8.22-.01.47.02a5 5 0 0 0-.27-.82zm.27.82.04.32c1.01.28 1.81.78 2.48 1.38l-.3.64.4-.55c2.4 2.21 3.17 5.75 6.27 5.65-1.52-.55-2.59-1.04-2.12-1.94-.3.3-2.08-2.14-4.03-3.88.96-1.24 1.28-1.3 1.72-1.7.5-.45 1.6 1.52 1.66 1.64l-1.89-3.46-1.62 3.4a6 6 0 0 0-2.61-1.5zm65.41-9v.3c-.02 1.19-.78 2.54-.24 3.59-.53-1.03.25-2.43.27-3.57l-.03-.32zm13.19.06-.55.44c-.48.41-.5.48-.74.72q-.16.18-.34.33.19-.15.36-.32.36-.37.74-.72zm-.17.26v.3c-.02 1.19-.79 2.54-.24 3.59-.53-1.04.25-2.43.27-3.57l-.03-.32zm-7.61 1.19.08.08q.23.15.5.27l-.03-.02a3 3 0 0 1-.55-.32zm-13.3.45-.55.44c-.48.42-.49.48-.73.72l-.34.34.36-.32q.36-.37.73-.72.5-.42.53-.46zm-2.22 1.91-.26.14zm-.26.14q-.82.35-1.81.3h.02q1 .1 1.79-.3zm21.32-2.03-.24.12zm-.24.12q-.82.37-1.82.3l.02.01c.68.08 1.26-.05 1.8-.3zm-18.77.13v.3c-.01 1.18-.78 2.54-.24 3.58-.52-1.03.25-2.42.27-3.57l-.03-.31zm17.53 1.32-.55.44c-.48.42-.5.48-.74.72q-.16.18-.34.33.19-.14.36-.32.36-.37.74-.72zm-2.22 1.91-.26.13zm-.26.13q-.82.37-1.82.3l.02.01q1 .1 1.8-.3zm2.31-1.78v.3c-.02 1.2-.8 2.58-.22 3.63-.57-1.04.23-2.45.25-3.61l-.03-.32zm.04 4.27.02.03zm-9.2-3.7.08.07q.23.15.5.26l-.03-.01a3 3 0 0 1-.55-.33zm13.02.31.08.07q.23.16.49.27l-.02-.01q-.23-.1-.45-.25zm-47.15.22.66.5h-.38zm36.95.54-.55.45c-.48.41-.49.48-.74.72q-.16.18-.34.33.2-.14.36-.32.37-.37.74-.72zm-2.22 1.92-.26.13zm-.26.13q-.82.35-1.82.3l.02.01c.68.08 1.26-.05 1.8-.31zm2.31-1.78v.3c-.02 1.18-.78 2.54-.24 3.59-.53-1.04.25-2.43.27-3.58l-.03-.31zm10.86.52c.22 0-.39 1.4-1.6 2.73l-.92.86c1.16-1.4-1.22.2.91-2.42-.63 1.98 1.46-2.02.92-.35.38-.57.6-.81.7-.82zm-52.77.17c.04.53.18.98.22 1.01a4 4 0 0 0-.22-1.01zm-15.24.05-2.01 4.24c1.38-1.94 1.72-1.94 2.24-2.41.5-.46 1.6 1.52 1.66 1.64zm46.44.13.08.08q.23.15.5.27l-.03-.02a3 3 0 0 1-.55-.33zm-19.62 1.3-2 4.24c1.37-1.94 1.71-1.94 2.23-2.41.5-.46 1.6 1.52 1.66 1.64zm-14.48.4c-.02.03.05.65.18 2.27.14 1.7.12 3.4.05 5.1.82-3.89 3.55-8.82.68-4.54-.62-1.31-.87-2.77-.91-2.82zm.23 7.37c-.21 1-.3 1.93-.13 2.62q.08-1.32.13-2.62zm-.13 2.62c-.15 2.94-.27 5.9.25 8.82.11 1.8.04-6.94-.1-8.41a2 2 0 0 1-.15-.41zm38.06-9.65-.55.44c-.48.41-.49.48-.73.72l-.34.33.36-.32q.36-.37.73-.72zm-2.22 1.91-.26.13zm-.26.13q-.82.37-1.81.3l.01.01c.68.08 1.26-.05 1.8-.3zm17.06-1.94c.1 0 .03.25-.3.94-2.51 3.63-.83-.17-3.64 3.64-2.19 1.67-2.57 1.28-.03-.28-2.86 1.14.73-.7 1.69-2.32-1.18 1-1.89 1.49.7-1.04-.63 1.69 1.29-.93 1.58-.94zm-14.75.16v.3c-.02 1.19-.78 2.54-.24 3.59-.52-1.04.25-2.43.27-3.57l-.03-.32zm6.96 1.19.08.08q.23.16.5.27l-.03-.02q-.23-.1-.45-.24zm-51.98 1.1q-.03 0-.06.05l.08-.05h-.02zm58.83.2c-.9 3.56-1.4.42-1.5 3.62-1.22-.4-.37-2.3 1.5-3.62zm-31.93.93c-.17.47-.23.93-.08 1.32.08-.37.07-.83.08-1.32zm27.25.37c.66.01-1.51 3.1-3.03 3.35-.26.57-1.44.84-.96 0 2.63-1.36-.25.07 2.37-2.21.9-.83 1.4-1.14 1.62-1.14zm-23.19.41-3.26 6.18c1.38-1.94 1.73-1.94 2.24-2.41.5-.46 1.6 1.52 1.67 1.64zm14.2.17.08.08q.23.15.5.26l-.03-.01a3 3 0 0 1-.55-.33zm10.34.67c.2 0-.56 1.42-1.66 2.56-.3.7-1.81 1.34-.5.3-2.19.77 1.16-2.54.8-1.18.84-1.22 1.25-1.67 1.36-1.68zm-52.44.47-2.01 4.24c1.38-1.94 1.72-1.94 2.24-2.42.5-.45 1.6 1.53 1.66 1.65zm47.22.03h.01c.52.01-1.33 3.52-4.64 4.56-.82-.2.04-.97.26-1.03.32-.59 2.17-1.23 3.57-2.83q.6-.7.8-.7zm-37.61.21-2.01 5.9c1.37-2.7 1.72-2.7 2.24-3.36.5-.64 1.6 2.47 1.66 2.6zm10.96 1.5c.56.01.59 2.5-1.74 4.31-.35.6.45-2.2.77-2.18.31-1.54.7-2.13.97-2.12zm13.26.34q.08.46.12 1c.16-.3.16-.65-.12-1zm7.6 1.07c.61-.02-.7 2.3-2.9 3-.5.45-1.35.4-1.92.17-4.76-1.94 3.42.22.45-.54-3.4-1.45.49-.66.18-.86 3.28-1.07-.28.82 2.3-.2 1.03-1.14 1.63-1.57 1.9-1.57zm-61.02.21c-.15.17-.14.28.17.25q-.08-.16-.17-.25zm-2.7.55-.02.18.08-.08zm-.02.18c-.7.74-1.3 1.65-1.82 2.6-3.25.38-.5 3.1-2.14 5.48.61-.72 1.1-1.58.95-2.52-1.59-2.79 2.33-2.12 3-5.56zm-3.96 8.08q-.37.44-.76.8.48-.38.76-.8zm-.76.8-.24.19c-3.56 2.08 2.18.46.1 3.64-2.58 2 .38 2.03-.58 3.69.34-.43.72-.88.98-1.29-2.96-.26.57-2.45.55-4.74-2.85.26-1.98-.34-.8-1.48zm-1.09 8.02-.25.26v.16q.1-.2.25-.41zm-.25.42q-.16.31-.11.55.1-.24.11-.55zm-.11.55c-.62 1.6-3.58.88-5.42 3.32-1.57.47-1.76 3.16-1.53 5.18.05-2 .92-5.31 2.47-5.8 2.77-2.72 3 2.34 1.1 1.8-.6 1.64-1.78-.88-2.85 3.34.73-1.16 1-1.63 1.04-1.66 0 .07-1.32 2.52-1.1 3.78q-.24.17-.4.02c.31 1.14.71 1.36.72-.77-.32-4.3 5.99-3.99 4.22-5.44-.8-2.67-1.73-2.96 1.45-1.2-1.78-1.47 1.03-.63.35-1.3 3.58-.4-.72-.18.27-.96q-.28-.11-.32-.31zm-6.68 9.98q-.16-.61-.27-1.48c-.02.73.07 1.28.27 1.48zm79.15-27.57c.35 0-1.88 2-3.32 2.6-1.43.55.08-.32.61-.6-.73.3 1.13-1.94.93-.86 1.12-.82 1.65-1.13 1.78-1.14zm1.58.02c.5 0-1.74 2.07-.55 3.62-.65-.7-.57-.25-2.1-.37a3.7 3.7 0 0 0 2.05-3.02q.47-.23.6-.23zm31.75.26-.26.45q.18-.23.26-.45zm-20.37 1.08q-.46.05-.95.33.62-.09.95-.33zm-.95.33c-1.5.24-3.92-.08-3.96-.02q.02.03.44.13c-2.2 1.27-1-.27-4.4 1.43 2.8-1.86-.06-.34-.85-.57.36.58.72 1.2-.02 1.26l.03.14h-.02l.03.06-.01-.06c2.65-.5 5.17-2.23 8.32-2.07l.44-.3zm-35.55-.15c.24 0-.7 3.85.74.18 1.15 1.4-2.84 7.08-1.09 2.67-.8.59-2.05 3.33-1.9 3.35-1.38 1.3-.32.07-.28-.46 2.92-4.16-2.55 2.75.5-1.45-.6.1-.93.25-.97.22-.04-.05.44-.45 1.51-1.79.7-4.38.65.17 1.4-2.62q.06-.1.09-.1zm26.64.04c-.48.02-.24.45.05.93 2.73-.72 1.68-.33.69-.8q-.5-.15-.74-.13zm.05.93-.07.02q.04.09.16.13zm-12.81-.4c.26 0 1 2.7 1.66.31.65 3.07-.69 1.21-.86 2.09l-.25.18c.3-1.69-3.55-1.54-.65-1.89 0-.5.03-.69.1-.7zm-54.72.39c-1.05-.04-2.24.72-.51.26.76-.46-.55 2.01-.58 2.44-1.1 1.14 1.58 6.36-.95 4.28-.65-2.17.32 6.02.38.95 2.84 1.31-1.34-5.98 2.35-4.95-.36-1.76.12-1.5.67-1.62q-.09.02-.28-.62c-.14-.54-.6-.72-1.08-.74zm1.36 1.36h.02zm35.67-.4c.07 0 0 .25-.3.96 1.55 4.3-3.44 4.18-4.37 6.37 0 1.17-1.7.82-4.17 2.94 1.76-3.38.6-1.69-.91-.37.65-.1 1.22.65-.03 2.73-.89-.9-.96-1.66-.72-2.15q-.18.13-.36.22c-1.47-.2-.8-4-.19-3.87.84 1.22 1.23-1.27 2.9-1.25.42 1.35 1.68-2.97 1.27.56 2.46-.2-.83-.59.81-.82-.64.01.94-.82 2-1.3q-.1.15-.23.3c.8-.41 1.1-.6 1.12-.64-.06-.02-.42.13-.88.34 1.61-2.17.92-2.46 2.54-3.66-.63 2.89 1.28-.32 1.52-.36zm-10.5 10.48q.38-.26.75-.58c-.29.04-.59.25-.75.58zm4.64-9.15q-.25.36-.2.43zm54.93.36-2.01 4.24c1.38-1.94 1.72-1.94 2.24-2.41.5-.46 1.6 1.52 1.66 1.64zm-39.8.25c.45.5-1.83.3.54 1.93-2.03-.67.02-.84-3.54-.56 2.67-1.16-1.11-1.15 3-1.37zm-4.46.74c.61-.03-2.25 2.1-.53 1.35-1.76 2.26-1.28.63-2.68 2.39-2.3 1.26 2.04-1.53 1.66-2.54-3.3 3.62.44-2.36.8-.93q.59-.26.75-.27zm45.15.41-.1.06q.2.26.4.47-.17-.26-.3-.53zm.3.53c.45.76 1.1 1.46 1.64 1.58-4.12-.2 1.08 4.38 2.18 5.11 2 1.04-2.9.89-2.66 4.52-.37.34 0-.82-.02-1.01-.73 2.63-3.11-3.4-3.85-3.14-.44.68-.64.98-.7 1.02.94-.05 2.68 5.04 2.8 2.9 2.4.58 3.9 1.24 6.5.95 1.55-1.68 6.64-3 8.1.86.05 2.66.49 2.34.71 1.14-.2.39-.94-2.36-1-2.6-.74-.91-.99-1.2-1.01-1.22 0 .08.99 1.48-.23.45-3.04-2.84-2.52.88-3.53-1.62-1.04-.17-.4 2.09-2.92 2.18l-.9-1.2c.01.04.64 1.08-.07 1.21-.94.64-1.67-.1-1.93-.87-.39.97-1.35 1.97-1.21-.76 5.6-2.93.4-2.42-1.27-7.14 2.35-1.01.6-1.05-.64-2.36zm3.11 10.26c.2-.46.25-.92-.03-.94-.1.23-.09.6.03.94zm11.6 3.67a1 1 0 0 0 .04-.29zm.04-.29a7 7 0 0 0-.28-3.35q.21.6.16 1.45c.1.98.14 1.58.12 1.9zm-.28-3.35a2.6 2.6 0 0 0-1.16-1.38q.16.18.33.4.55.3.83.98zm-1.16-1.38c-2.72-3.03-5.95-.9-8.95-.64-1 .5 2.63.58 3.71-.73-2.33 3.33 2.63-1.83 1.48.35-.68.44 2.03-.03 3.76 1.02zm-16.72-.83h-.01zm-.01 0c-.06-.1 1.13-2.6.3-3.58q-.7.43-1.08.59c.94-.18 1.22 1.8.52 3.21q.1-.2.26-.22zm-.78-3a1 1 0 0 0-.27.1q.11-.02.27-.1zm-.27.1q-.33.1-.3-.13-.2.5-.51.94.45-.61.81-.8zm-.3-.13.17-.51q-.16.34-.17.51zm-31.25-5.47c-.56 1.3-.02 5.22-.9 2.44-1.12-.24-.26-1.38.9-2.44zm-1.9.1c.42 0-.6 1.52-1.93 2.68-1.85 1.01.9-.85.77-1.43-.84 1.72-3.2.18-.39-.13.89-.81 1.37-1.13 1.56-1.13zm-6.77 2.04c-.96.03-3.22 2.8-1.18 3.1q.2.25.22.25c.04-.08-1.3-2.27.1-.42-1.8-2.42 2-2.05 1.2-2.7a.3.3 0 0 0-.34-.23zm-5.66.11c.08 0 0 .3-.38 1.17-.89 1.24.64.08-.32 3.27.24 1.4-1.98-1.14-2.46-.72-.55-1.1.73-.38 1.53-1.93-.1.85 1.42-1.76 1.63-1.79zm-26.1.69-.69.09c-.8.53-1.12.91-1.12 1.23a7 7 0 0 1 1.81-1.32zm8.69.1-.02.01zm-3.48.93q-.3.24-.55.72c.33-.28.48-.52.55-.72zm6.49 1.15q-.03.13.01.3zm-12.57.46c.58-.01.46 2.03 1.62 2.89-1.06.46 0 5.26-1.24 4.7.17 2.73 1.23 3.88 4.38 5.18-3.83.23-5.37-3.23-5.98-3.48-1.76-.62-.93-6.31-.25-7.57-.95-1.1 2.22-.48.7-1.05.35-.48.6-.67.77-.67zm29.14.1h-.04zm-8.13.15c.63.02.86 1-.88 2.71-.58 1.25-.73-.97-.6-.92.24-1.25.98-1.8 1.48-1.79zm-32.35.2v.01c-.05.04.07.39.55 1.3-2.64-1.91-1.94 2.65-1.28 1.77.89 3.92-.7-1.84-1.27 2.71 1.1-.72-.15 2.37-.76.83-.5-1.72.24 1.6-.75 1.17-2-4.42.08 2.9-1.23-.34-1.04-.6-.08 1.01-1.56 1.78 1 0 1.7.47 2.72-.9 1.51.61 2.37-.3 2.5-3.36 2.41 1.06.02-1.76.53-3.53 2.07.92.72-1.44.55-1.43zm46.6.47q-.26 0-.56.05a5 5 0 0 0 1.52.03 3 3 0 0 0-.96-.08zm-.56.05-.28-.03-.1.09zm-7.48.78q-.15 0-.27.05.07.09.27-.05zm25.66 1-2 4.24c1.37-1.94 1.72-1.94 2.23-2.41.5-.46 1.6 1.52 1.67 1.64zm-43.66.7c-.38 0-.41.75.48 2.93-.26-2 .56-2.13 1.45.46.48-.97-1.26-3.37-1.93-3.38zm16.57 1.24q-.35.92-.74 1.86.5-.95.74-1.86zm-5.32.57c-.64.35-.67.71-.66 1.02q.46-.52.81-.73zm.15.3q.1.1.1-.06zm-39.2 3.07c-.56 0-1.4.73-.35 1.4q.23-.12.44-.2c.56-.9.3-1.21-.08-1.2zm.09 1.2-.1.16q.59-.11.95-.3-.39-.02-.85.15zm49-.65-.54.82q.46-.43.54-.82z" style="fill:#000;stroke:#000;stroke-width:1.30418;stroke-dasharray:none;stroke-opacity:1"/></svg>