<?xml version="1.0" encoding="UTF-8" standalone="no"?>
<!-- Created with Inkscape (http://www.inkscape.org/) -->

<svg
   width="153.02699mm"
   height="230mm"
   viewBox="0 0 153.02699 230.00001"
   version="1.1"
   id="svg1"
   xml:space="preserve"
   sodipodi:docname="crypt_lurker.svg"
   inkscape:version="1.4.4 (dcaf3e7, 2026-05-05)"
   xmlns:inkscape="http://www.inkscape.org/namespaces/inkscape"
   xmlns:sodipodi="http://sodipodi.sourceforge.net/DTD/sodipodi-0.dtd"
   xmlns="http://www.w3.org/2000/svg"
   xmlns:svg="http://www.w3.org/2000/svg"><sodipodi:namedview
     id="namedview1"
     pagecolor="#ffffff"
     bordercolor="#000000"
     borderopacity="0.25"
     inkscape:showpageshadow="2"
     inkscape:pageopacity="0.0"
     inkscape:pagecheckerboard="0"
     inkscape:deskcolor="#d1d1d1"
     inkscape:document-units="mm"
     inkscape:zoom="1.9073007"
     inkscape:cx="320.08586"
     inkscape:cy="558.11859"
     inkscape:window-width="1920"
     inkscape:window-height="1009"
     inkscape:window-x="2552"
     inkscape:window-y="143"
     inkscape:window-maximized="1"
     inkscape:current-layer="svg1" /><defs
     id="defs1" /><path
     id="path1"
     style="fill:#000000;stroke:#000000;stroke-width:1.30418;stroke-dasharray:none;stroke-opacity:1"
     d="M 67.726615 108.67812 C 66.019952 108.65352 71.634312 111.78857 72.8493 113.5879 C 70.604974 114.43199 73.843064 115.2619 75.53234 116.51072 C 74.606633 114.90647 73.371614 113.11396 71.658158 112.09032 C 71.630178 111.05895 68.584514 109.88127 67.666671 108.79956 C 73.720987 110.22171 79.103526 114.52406 81.945903 120.12962 C 84.865263 124.0109 86.094723 129.03246 86.902706 133.94531 C 88.451572 134.93905 85.357157 136.90803 87.789473 139.83798 C 88.150037 139.89888 88.135477 140.3904 87.939852 141.14177 C 88.180124 140.48101 88.468948 139.8504 88.818351 139.28711 C 84.734742 140.31185 89.636726 133.07206 87.634961 133.86315 C 87.981726 132.48109 94.831906 129.23069 98.039494 129.13734 C 103.29516 128.85189 108.08915 132.63795 111.35289 136.55652 C 111.47226 137.34145 114.78659 140.06698 114.26331 141.0348 C 116.05934 143.3376 118.18864 147.71844 117.21455 151.10292 C 117.53451 150.74628 118.12081 154.56661 116.63216 154.56421 C 116.58296 155.07669 114.25528 157.47723 111.74718 159.52411 L 111.74202 159.51998 C 111.58585 159.44818 111.43014 159.37611 111.28881 159.27555 C 111.25371 159.24825 111.2214 159.22055 111.1896 159.19235 C 111.2164 159.21675 111.23801 159.24235 111.26711 159.26625 C 111.4168 159.37052 111.57959 159.45136 111.74408 159.52721 C 110.16783 160.81331 108.5208 161.95912 107.32368 162.40869 C 102.51383 164.76137 99.487528 166.9636 94.256779 168.71425 C 91.778515 169.4287 91.564661 166.07055 90.288546 164.75222 C 88.297507 160.33139 88.732481 158.26038 86.658793 155.59722 C 86.388253 155.921 86.38019 154.22323 87.218966 152.82065 C 86.491884 153.54356 85.395029 154.43354 84.79224 155.85767 C 85.430491 157.7576 85.093727 158.28323 84.216048 158.76137 L 82.414608 155.46131 L 80.403878 159.69878 C 81.782836 157.75672 82.12694 157.7563 82.644051 157.28549 C 83.070372 156.89734 83.926107 158.26931 84.213464 158.76292 C 83.560088 159.11841 82.607894 159.44823 81.535075 160.29823 C 79.800796 160.95196 79.633846 162.21561 79.602893 163.32491 C 80.19562 161.7522 82.157986 160.05166 82.469385 160.51475 C 81.541464 158.802 88.840456 159.8854 85.035636 156.6354 C 86.832518 156.29952 88.263053 163.76214 88.696395 166.80636 C 89.125864 167.03665 89.413896 167.26675 89.590397 167.49107 C 89.443234 166.61153 89.278702 166.13888 89.681864 167.3288 C 88.022381 161.49859 91.101752 168.75342 90.630644 170.60767 L 90.286995 170.87846 C 90.754814 169.53995 89.250037 170.70238 89.16665 170.22475 C 89.68074 170.08005 89.765338 169.2925 89.712354 168.48946 C 89.205548 169.47302 87.053048 170.11528 87.112512 169.77103 C 87.284918 169.61717 87.449898 169.47195 87.603438 169.33592 C 87.273358 169.54473 87.128102 169.68664 87.112512 169.77052 C 85.76232 170.97535 83.975294 172.71623 83.982471 174.83584 C 84.312406 174.44793 84.757177 173.98217 85.358614 173.41474 C 84.641746 173.76043 87.572276 169.09433 87.924349 170.79474 C 87.122642 170.96153 82.70373 177.89706 86.011804 174.2519 C 87.454881 170.67263 86.777184 175.3388 83.194922 177.04449 C 83.168372 177.43772 82.04112 177.0555 82.965479 176.94424 C 83.045599 176.52773 82.929886 176.09141 83.938546 174.88907 C 83.953626 174.89407 83.968791 174.89915 83.984021 174.90405 C 83.983539 174.88145 83.982471 174.85876 83.982471 174.83636 C 83.967461 174.85396 83.953076 174.87125 83.938546 174.88855 C 81.552091 174.11276 81.096072 173.701 77.706885 175.411 C 75.115833 176.22063 78.19137 173.74941 77.652108 172.91193 C 77.12233 173.26932 78.597088 168.35789 77.561157 169.79325 C 78.042484 167.25079 76.895347 165.73319 80.028707 165.24779 C 79.772014 165.08069 79.607808 164.87253 79.518144 164.63853 C 79.390429 165.19405 79.037637 165.52629 78.021077 165.40024 C 75.395308 167.18193 70.960965 172.18471 74.065247 168.31221 C 73.505677 168.80941 73.833614 167.37662 72.905111 168.76954 C 72.164789 169.80471 71.914914 170.10568 71.872099 170.09608 C 71.871466 170.09584 71.870561 170.09595 71.870032 170.09556 C 71.808252 170.02546 72.691076 168.52108 71.47419 170.06611 C 69.455711 168.18682 70.814933 168.94691 68.908455 167.12468 C 67.595947 159.24759 68.279353 172.10603 72.840515 170.5746 C 75.956045 166.97284 73.71715 174.37449 69.920797 173.32637 C 71.435457 171.26367 66.54745 175.39704 66.341687 175.00431 C 65.388209 176.95716 63.82013 178.65731 60.93995 180.0195 C 60.511449 180.6325 59.931123 179.85926 60.034578 179.37458 C 59.454923 180.09542 59.55214 180.00421 56.887484 178.33278 C 56.321986 176.93917 52.718749 172.5655 52.542529 173.53876 C 52.487249 174.93714 51.146563 172.8946 50.432581 171.7089 C 53.126872 169.21696 53.912588 164.10516 53.319226 160.77675 C 53.888084 160.96407 54.104001 161.03473 54.120728 161.0186 L 54.121244 161.01808 L 54.121244 161.01756 L 54.121244 161.01705 L 54.121244 161.01653 L 54.121244 161.01601 C 54.121197 161.01579 54.120898 161.01444 54.120728 161.01394 C 54.080225 160.92858 52.515043 160.15012 53.010718 159.3665 C 53.243368 159.3142 53.477477 159.17662 53.491825 158.95154 C 53.253064 159.0872 53.099818 159.22637 53.011235 159.36547 C 52.707386 159.43384 52.40649 159.35768 52.604024 159.13964 C 52.746653 159.11604 52.954806 158.99633 53.254114 158.74535 C 52.897915 158.90604 52.698024 159.03755 52.605058 159.13861 C 51.981767 159.24181 52.610215 157.51754 52.357011 156.96975 C 52.445361 156.62382 52.546864 156.28874 52.659835 155.96412 L 52.659835 155.96361 L 52.659318 155.96361 C 52.570733 156.07371 52.467449 156.18809 52.347709 156.30674 C 49.653409 161.07059 49.675645 151.6035 48.459058 153.67382 C 44.15868 157.60122 47.131193 143.1363 44.726469 147.54345 C 44.727144 147.71107 44.72183 147.86917 44.712 148.01836 C 46.225668 144.68845 44.63709 151.89385 46.512406 154.15286 C 48.169567 158.00238 48.175357 152.6665 49.119999 154.02781 C 49.643138 156.81322 50.594166 158.13822 49.350476 158.68127 C 50.643157 159.76484 52.636722 154.68274 51.709505 159.42541 C 52.040809 160.75277 53.580269 161.58038 52.720813 162.18855 C 53.027405 162.3287 53.587498 165.79049 52.683606 167.00583 C 52.120743 164.35854 50.938031 170.237 52.364246 167.57582 C 52.598542 171.09413 47.570119 165.48981 50.04139 168.75714 C 52.341206 170.07263 50.74656 169.74439 50.444983 170.04905 C 49.242382 168.82233 47.259483 168.16192 45.642692 167.5939 C 45.627582 167.5379 45.610889 167.48004 45.593599 167.42079 C 45.469191 167.43559 45.348867 167.44459 45.231348 167.44869 C 45.365315 167.49679 45.502473 167.54569 45.642692 167.59494 C 46.943293 172.42949 40.206415 165.65079 39.036894 168.0223 C 36.752105 167.13555 34.954904 167.9256 33.528186 169.4155 C 34.343728 170.99503 35.38979 167.94621 36.171436 168.76954 C 36.760645 168.12321 39.870337 166.75563 37.882959 170.85779 C 38.109376 167.32964 37.007076 173.52632 36.630839 170.19065 C 36.724329 171.86039 33.823043 170.07516 36.233447 172.59412 C 36.544053 169.88286 36.985674 173.49078 36.749178 173.63643 C 37.099624 173.54883 37.471244 173.28658 37.6592 172.21223 C 38.006595 172.47161 38.495021 172.61584 39.031726 172.74398 C 39.22547 173.18603 39.331768 173.10999 39.404313 172.83028 C 39.278687 172.80175 39.154479 172.7729 39.03276 172.74398 C 38.95036 172.55596 38.851763 172.27461 38.733553 171.87478 C 39.949496 170.33229 38.140899 165.98191 41.902869 168.48532 C 46.241016 169.56213 43.864163 169.905 46.334639 172.21998 C 46.347999 172.24218 46.36072 172.26399 46.37288 172.28509 C 45.39917 169.86699 45.46771 167.1116 48.257003 169.03774 C 48.457587 169.55715 49.951678 170.82187 48.729325 171.62932 C 48.705465 173.11101 48.628466 177.10839 49.255391 174.52837 C 48.625136 172.36413 50.627961 171.59159 51.099207 174.62913 C 52.475684 177.5391 50.740496 174.96677 48.80529 176.31534 C 48.80129 176.33614 48.797514 176.3555 48.793404 176.3727 C 49.296455 176.77497 49.789457 177.10442 50.289954 177.2574 C 49.05957 178.12871 47.521141 178.6772 46.211133 179.38027 C 48.670671 178.99612 51.612155 177.85799 50.862012 177.24241 C 52.644304 177.48664 53.229345 179.15272 51.11781 178.60409 C 51.279361 178.23949 51.237038 177.97544 50.209855 178.29351 C 50.555519 178.43558 50.857157 178.53737 51.11781 178.60512 C 50.870508 179.16232 50.148336 179.95241 51.730693 179.25728 C 51.157945 179.56906 51.581127 179.88173 51.417017 180.40708 C 52.464916 179.54252 53.670038 180.77048 51.886755 181.03546 C 47.533709 182.74349 54.70691 179.98584 51.240283 182.25554 C 50.893852 180.268 49.149467 185.22968 48.917944 184.06525 L 48.27974 184.4337 C 48.33187 182.06619 44.387183 181.83338 44.398324 180.70267 C 43.770102 181.38886 43.380769 182.26635 43.403552 183.48906 C 41.882643 188.42367 43.086098 193.41967 48.368107 194.84599 C 54.654306 196.59598 42.731522 190.65712 47.287553 189.84991 C 45.098013 187.17202 47.626343 184.46942 49.598523 184.258 C 50.042455 182.129 57.637306 180.41336 55.768172 183.81617 C 50.763033 183.01128 53.381619 191.70153 56.846143 193.20268 C 58.772234 194.27041 59.196032 194.26205 59.012935 193.7644 C 59.025835 193.7584 59.038152 193.75101 59.050142 193.74321 C 59.027822 193.72661 59.006393 193.7101 58.984513 193.6936 C 58.995223 193.7181 59.004625 193.74128 59.012935 193.76388 C 57.968053 194.28114 54.00542 190.65191 55.429692 191.43276 C 55.333952 191.18185 51.911178 187.67052 53.801884 185.25071 C 53.826664 185.23101 53.8543 185.1975 53.8856 185.14787 C 53.85656 185.18187 53.828764 185.21578 53.801884 185.25019 C 53.43464 185.54227 53.793733 182.82404 55.163558 185.54371 C 55.283428 185.62551 55.399489 185.69526 55.51134 185.75455 C 55.388484 185.58788 55.461599 185.41465 56.019836 185.37318 C 53.972241 185.16649 57.528599 182.19099 56.314392 184.5014 C 56.539909 184.89275 57.992665 184.87698 56.414128 185.99537 C 56.40733 186.01096 56.398152 186.02511 56.387256 186.03671 C 57.763442 186.17733 58.176578 184.71418 57.651778 186.73847 C 57.406079 188.78119 55.664479 191.17639 58.984513 193.69309 C 58.517983 192.62701 55.853586 189.76669 57.828512 189.5967 C 55.972073 184.20685 62.577319 190.87846 60.411816 187.35032 C 61.982212 187.43362 57.927824 183.64098 58.451213 184.72929 C 57.005594 185.33589 56.477657 180.28681 58.875993 184.62594 C 58.871293 183.75903 58.948284 183.39137 59.069779 183.33506 C 58.532962 182.91661 58.035891 182.32807 57.923079 181.85453 C 57.937169 184.4348 54.737993 179.83242 54.881921 179.49344 C 53.358493 181.06371 51.248926 172.27382 53.281502 175.29628 C 53.282293 176.07311 56.670954 179.25102 55.832768 179.40094 C 58.122322 181.38623 55.738722 177.50449 57.0606 179.32084 C 57.42725 178.94669 58.367252 181.02811 57.876054 179.51411 C 59.560877 181.78956 60.069697 179.56616 60.593717 183.13766 C 60.737748 184.09334 60.039574 183.99442 59.318343 183.5149 C 59.225513 183.37498 59.140107 183.30299 59.069779 183.33558 C 59.152149 183.39978 59.235354 183.46023 59.318343 183.51541 C 59.752825 184.17124 60.354708 186.31462 60.380294 186.22481 C 60.643124 185.97803 62.574816 185.55433 62.686096 188.04434 C 62.825953 187.75849 62.960214 187.51725 63.087622 187.31673 C 63.303472 187.15215 63.485877 186.92193 63.638493 186.65527 C 63.472709 186.78597 63.288164 187.00073 63.087622 187.31622 C 63.028192 187.36162 62.966654 187.40183 62.902104 187.43662 C 62.437864 186.19649 63.015541 185.91294 63.64366 185.69771 C 64.317955 181.211 64.69667 184.80574 63.638493 186.65476 C 64.558255 185.92974 64.906767 187.79826 64.275663 189.47732 C 64.371513 189.33027 64.465228 189.19171 64.556783 189.06184 C 64.584023 189.17619 64.711966 189.13253 65.029106 188.80708 C 65.18453 188.68901 65.160304 188.50857 65.154163 188.29652 C 64.967398 188.50893 64.767325 188.76277 64.556783 189.06133 C 64.486203 188.76484 65.090166 187.4051 64.817749 187.12708 C 65.028105 187.10608 65.88026 186.18135 64.645667 186.18243 C 65.345772 184.27858 66.083353 186.96187 66.059017 187.52085 C 67.25325 186.9113 67.434988 188.90649 66.119995 191.36661 C 62.911457 193.91583 65.212255 193.95676 67.659436 192.13608 C 69.0411 191.22651 69.804472 189.92432 70.391569 188.57299 C 69.239183 190.76419 67.193478 192.86155 65.471973 193.07452 C 63.623231 193.63704 66.746237 191.88782 66.514803 191.06896 C 67.734177 187.87158 67.287835 186.53779 66.245052 184.94943 C 67.561251 180.07294 68.090479 187.37338 69.246419 183.37434 C 71.179768 183.52909 71.579831 184.97759 71.132609 186.71108 C 71.618029 185.47174 72.127422 184.3265 73.02345 183.55675 C 72.851088 183.69741 72.690362 183.84744 72.551127 184.00582 C 71.729553 184.27863 71.822159 183.94892 72.290678 183.81669 C 72.023081 183.48828 73.08078 181.02866 73.400688 181.3419 L 73.401204 181.3419 C 73.357274 179.98658 74.960042 182.03332 74.475557 182.11963 C 76.039705 181.98114 74.679124 182.39925 73.454431 183.23688 C 74.222741 182.74671 75.240709 182.49262 76.664054 182.59557 C 77.253012 185.6659 78.844754 187.67222 75.069836 190.36151 C 75.673285 190.59139 75.891602 190.88073 75.847567 191.20435 C 76.035278 190.92871 76.258707 190.60785 76.521427 190.23748 C 75.455014 190.31088 78.658404 186.71758 77.954932 185.41969 C 81.215671 182.96401 77.605407 185.03682 79.666455 183.05084 L 79.666455 183.05033 C 78.700185 183.25252 77.701633 183.76348 77.581311 184.93807 C 77.557071 182.58911 75.901532 182.17667 75.516321 181.19566 C 75.467821 176.82104 80.357436 178.99121 81.245687 178.25527 C 81.039875 178.92048 82.163103 182.25237 82.839388 183.72005 C 80.67871 182.57864 83.226342 184.76135 81.956755 186.96482 C 81.008866 190.86915 81.723748 186.26775 80.682931 189.68351 C 79.779819 192.32225 77.224508 193.14513 73.48337 194.95864 C 67.545634 195.74431 74.919138 194.07799 76.18243 191.75367 C 75.233464 192.63027 74.646334 193.11175 75.311165 192.02497 L 75.311165 192.02445 C 73.390815 193.8438 67.305677 196.01866 72.719592 195.31779 C 77.766241 193.97474 81.38922 191.72987 82.331925 186.6191 C 85.124895 183.85331 79.430884 180.49066 83.318429 179.09501 C 85.388765 183.90586 89.438745 178.31238 91.947359 181.46076 C 94.870418 179.13965 97.179775 184.16518 93.879541 186.92812 C 96.523268 186.23 94.650728 190.75131 93.308516 191.50046 C 93.391836 191.55606 93.475615 191.63201 93.55553 191.72576 C 93.703421 190.84179 95.985318 189.41501 95.664445 187.38908 C 94.037378 186.0924 94.758331 186.25541 96.014294 183.95105 C 96.808136 183.92205 94.80743 181.48186 95.365755 180.65874 C 98.230595 178.43222 94.336954 177.18389 95.42725 179.18958 C 95.156232 181.46721 93.737214 173.58445 97.492757 175.79237 C 100.15729 174.94766 100.35754 179.9355 101.28271 182.78161 C 101.22261 180.52895 100.47045 175.67248 97.943376 174.8038 C 94.71025 172.77493 96.0008 173.89971 97.897384 175.37948 C 93.137528 173.79666 95.156792 180.55645 94.305355 181.10264 C 93.73606 180.10689 91.942739 177.12665 93.040833 179.91305 C 91.830179 181.54681 92.01326 179.90909 89.025574 179.13429 C 89.454363 179.92979 88.798477 179.67376 86.794702 180.21174 C 88.89133 178.33658 88.445015 179.30322 87.077889 178.02066 C 87.58816 177.38585 89.155566 175.56049 87.376579 176.14119 C 87.270125 176.07859 87.174779 176.04864 87.089775 176.04714 C 88.674759 174.70064 90.396939 173.70908 88.394604 175.31436 C 92.00047 175.22326 95.756926 171.50101 99.199113 173.4137 C 100.53019 174.02086 101.76599 174.06293 102.97718 173.84159 C 102.04241 172.22766 100.95332 173.65282 102.60511 169.88214 C 100.07418 173.76171 101.69969 168.75412 104.37761 168.7282 C 98.940537 172.49046 107.7877 169.91695 103.78488 170.24129 C 103.24139 168.77074 108.44011 168.54249 110.24185 166.59087 C 116.20231 163.26767 109.29406 168.31454 112.87786 170.52344 C 112.96416 170.7862 112.89051 170.98625 112.70578 171.13632 C 114.33305 170.93419 115.60658 172.76323 115.96398 175.33452 C 117.22405 175.41002 118.7934 178.67519 118.05688 181.39565 C 118.5491 180.28962 119.84251 178.09097 118.3597 176.78456 C 117.97618 177.96285 117.81442 176.043 117.8109 175.99081 C 115.25828 175.98281 116.63991 173.24665 114.45916 171.25725 C 114.06775 171.38695 110.51213 167.28531 112.90525 166.67303 C 113.70074 166.134 114.35964 165.89811 114.92218 165.88652 C 114.81446 165.82163 114.70359 165.7571 114.58939 165.69273 C 113.27321 164.58954 121.44753 162.28331 122.37961 160.04811 C 124.40265 162.40344 127.15258 163.99335 126.7504 167.71689 L 126.7504 167.71793 L 126.58814 168.05951 C 126.63814 167.98911 126.68647 167.92083 126.73387 167.85539 C 126.71047 168.03945 126.67995 168.2286 126.64085 168.42331 C 127.9037 166.84172 127.20964 171.35119 127.83767 170.57253 C 129.59263 171.50615 129.49052 172.97442 132.08186 172.68817 C 134.55175 172.75067 138.33706 168.40503 139.39046 173.26488 C 141.15584 173.15101 137.70468 166.95296 134.83415 169.11164 C 133.36097 169.93356 130.04423 166.49511 130.46697 164.23804 C 130.33947 164.09263 130.20329 163.9191 130.05924 163.72437 C 130.25341 163.99719 130.21745 164.15098 129.74092 164.09231 C 129.73192 167.26102 133.73056 168.26984 133.08025 170.0568 C 133.73614 169.01929 133.99756 169.67401 134.07399 170.38753 L 134.07347 170.38753 C 134.01977 170.51106 133.97395 170.64331 133.93704 170.78441 C 133.96534 171.21581 134.00131 171.39473 134.03161 171.41073 L 134.03213 171.41073 L 134.03265 171.41124 L 134.03316 171.41176 L 134.03368 171.41176 C 134.03471 171.41178 134.03603 171.41121 134.03678 171.41124 L 134.0373 171.41124 C 134.03763 171.41125 134.03835 171.41127 134.03885 171.41124 L 134.03936 171.41124 L 134.03988 171.41073 L 134.0404 171.41073 L 134.04091 171.41021 C 134.04121 171.40989 134.04145 171.40916 134.04195 171.40866 C 134.09335 171.37456 134.1259 170.86773 134.0745 170.38702 C 135.1117 167.99925 139.11065 168.87738 139.70207 172.3068 C 139.28985 171.19524 136.11351 169.79194 136.3555 170.27694 C 136.12207 169.98067 135.03711 171.55397 133.53552 171.98588 C 130.48834 170.92615 132.60413 173.64789 130.20497 171.73887 C 129.46722 168.65715 128.71268 168.52352 127.80305 170.17049 C 128.74499 168.24777 127.6987 167.98439 127.25011 167.17119 C 128.09948 166.10079 128.40656 166.03067 128.82883 165.64622 C 129.33038 165.18958 130.42629 167.16849 130.49178 167.28798 L 128.59939 163.82204 L 127.13488 166.90661 C 127.06998 166.7031 127.04507 166.46404 127.08527 166.16712 C 127.57389 163.62 124.65503 164.0415 124.46992 160.91576 C 122.36678 161.46998 123.47252 157.20906 122.15999 158.79599 C 122.57852 159.49344 122.7325 159.7632 122.72791 159.78611 L 122.72791 159.78715 L 122.72688 159.78766 L 122.72636 159.78818 C 122.67326 159.78018 121.70139 158.3428 121.37244 158.13505 C 121.98959 159.54673 122.48617 161.04284 120.86911 161.07389 C 118.6925 162.30824 115.38026 164.17973 113.95997 164.9243 C 113.72452 164.14882 115.31715 163.74079 112.64842 164.90156 C 115.6359 162.41531 110.43673 165.44963 111.25264 165.69945 C 110.38688 165.9394 111.08852 162.90971 111.86811 162.4645 C 114.52967 160.40578 117.69787 159.17744 120.28361 156.22974 C 118.78388 156.7405 117.31914 157.87744 116.1526 159.3417 C 111.20273 163.08148 116.27073 157.50761 116.91069 155.16831 C 119.70936 150.5876 116.80458 144.57323 114.47053 140.31133 C 112.25448 135.40457 107.36288 132.00425 102.75755 129.49235 C 99.165702 128.48737 95.714647 126.52958 92.008337 125.60887 L 92.007821 125.60887 L 90.164522 122.23233 L 88.79303 125.12104 C 88.502508 125.10794 88.210362 125.10471 87.915564 125.11071 C 87.666725 125.19011 87.433335 125.24737 87.214832 125.28538 C 87.612646 125.27098 88.112678 125.30106 88.677791 125.36496 L 88.153276 126.47083 C 88.474277 126.01875 88.739426 125.67059 88.963562 125.39855 C 93.414159 125.96835 101.27045 128.43279 96.25304 128.62109 C 92.611461 129.74167 90.47884 130.09688 87.724361 132.32164 L 87.106828 132.68544 C 87.257856 130.51218 83.698452 125.43468 86.213859 125.31587 C 83.997913 125.00636 83.713155 121.989 82.243559 120.14254 C 79.876371 115.0647 75.245025 111.38347 70.22207 109.25483 C 68.904405 108.85737 68.120977 108.68379 67.727132 108.67812 L 67.726615 108.67812 z M 120.28361 156.22974 C 120.38091 156.19654 120.47805 156.16556 120.57559 156.13776 C 120.55999 156.04606 120.55628 155.96492 120.56628 155.89694 C 120.47298 156.01005 120.37861 156.12146 120.28361 156.22974 z M 120.57559 156.13776 C 120.64449 156.54291 120.93604 157.16106 121.23343 157.82396 C 121.09317 156.56428 121.7038 156.22175 122.60854 156.41681 L 121.67888 158.37586 C 122.39347 157.36946 122.82985 156.88451 123.15682 156.58527 C 124.03303 156.92392 125.06821 157.61873 125.95562 158.4141 C 125.26515 157.31068 124.4476 156.61314 123.56713 156.24834 C 123.6855 156.15816 123.7973 156.07342 123.91905 155.96257 C 124.4206 155.50593 125.5165 157.48536 125.582 157.60485 L 123.68961 154.1384 L 122.79871 156.0158 C 122.07476 155.87207 121.3231 155.9249 120.57559 156.13776 z M 125.95562 158.4141 C 126.10078 158.64609 126.24037 158.89587 126.37368 159.16444 C 126.85743 159.56531 127.30873 160.03813 127.7276 160.53594 C 127.37884 159.86321 126.72215 159.10115 125.95562 158.4141 z M 127.7276 160.53594 C 127.7366 160.55444 127.74631 160.57303 127.75551 160.59123 C 126.8025 160.9893 129.38656 162.83909 130.02876 163.68303 C 129.41313 162.84481 128.64814 161.62994 127.7276 160.53594 z M 121.23343 157.82396 C 121.24393 157.91856 121.25867 158.01859 121.27787 158.12368 C 121.29517 158.10158 121.32822 158.10682 121.37192 158.13402 C 121.32642 158.02992 121.27947 157.92657 121.23343 157.82396 z M 121.27787 158.12368 C 121.23827 158.17398 121.27766 158.36995 121.43858 158.78617 C 121.36818 158.54504 121.3146 158.32468 121.27787 158.12368 z M 114.92218 165.88652 C 116.29094 166.71092 117.1473 167.57343 117.76129 168.40212 C 116.99934 167.01874 116.21575 165.85984 114.92218 165.88652 z M 117.76129 168.40212 C 117.90299 168.6594 118.04429 168.92408 118.18762 169.19071 L 116.91638 171.86961 C 117.77886 170.65494 118.23655 170.1999 118.58501 169.91418 C 118.9407 170.54032 119.32539 171.14414 119.78132 171.64327 C 119.34738 171.13893 119.03852 170.52399 118.66666 169.84855 C 118.8393 169.71246 118.98879 169.60907 119.15655 169.45632 C 119.6581 168.99968 120.754 170.97911 120.8195 171.0986 L 118.92711 167.63215 L 118.23154 169.09769 C 118.09022 168.86961 117.93552 168.63728 117.76129 168.40212 z M 119.78132 171.64327 C 119.94666 171.83544 120.13051 172.01152 120.34253 172.16882 C 120.14346 172.01226 119.95695 171.83554 119.78132 171.64327 z M 120.34253 172.16882 C 120.50867 172.29948 120.6836 172.41629 120.86911 172.51608 C 119.55658 172.3767 120.89657 174.24248 122.25714 174.84721 C 121.93586 175.03733 122.04593 175.65797 122.36462 176.33136 C 124.73425 174.91899 118.44838 173.39013 122.43542 172.92898 C 121.49224 172.80258 120.83912 172.53725 120.34253 172.16882 z M 101.28271 182.78161 C 101.28671 182.92363 101.28732 183.0552 101.28632 183.17487 C 101.35291 183.22216 101.42414 183.28699 101.49975 183.37072 C 101.42275 183.18799 101.35064 182.9906 101.28271 182.78161 z M 101.28632 183.17487 C 100.1365 182.35848 100.34719 186.74648 102.52501 188.46757 C 102.45131 187.55761 100.04007 185.82379 101.22431 183.85389 C 101.25981 183.74003 101.28232 183.50219 101.28632 183.17487 z M 102.52501 188.46757 C 102.52801 188.50777 102.52687 188.54649 102.52087 188.58332 C 102.58117 188.58832 102.64331 188.59369 102.70639 188.60089 C 102.64479 188.55849 102.58429 188.51398 102.52552 188.46757 L 102.52501 188.46757 z M 102.52087 188.58332 C 98.761549 188.2984 100.40528 193.09271 102.26766 194.80723 C 102.4532 193.90912 99.470085 191.14957 100.82537 189.13884 C 102.01596 189.10524 102.46473 188.90833 102.52087 188.58332 z M 102.26766 194.80723 C 102.26266 194.83303 102.25407 194.85791 102.24337 194.88061 C 102.29127 194.89141 102.3396 194.90333 102.3891 194.91523 C 102.3484 194.88093 102.30824 194.84451 102.26766 194.80723 z M 102.24337 194.88061 C 98.125516 193.9156 99.876155 195.51372 101.05068 198.51501 C 101.54993 198.98452 101.80677 199.25303 101.90179 199.39403 C 101.45301 198.32285 99.735393 196.85399 100.49464 194.93384 C 101.62688 195.19 102.1198 195.14102 102.24337 194.88061 z M 101.90179 199.39403 C 101.91749 199.43133 101.93177 199.46824 101.94417 199.50462 C 101.95117 199.48412 101.93819 199.44871 101.90179 199.39403 z M 101.94417 199.50462 C 101.87487 199.70262 99.969046 198.50361 100.4502 199.7413 C 99.364734 198.13814 95.462846 199.84674 95.185404 202.46723 C 93.838758 202.53643 94.471405 197.59576 93.11628 200.56657 C 91.622683 199.92412 95.582716 198.20456 94.240243 196.48413 C 93.38769 196.13335 92.988907 195.97068 92.981405 195.69917 C 92.7583 195.95665 92.494205 196.21772 92.183521 196.48 C 96.428582 194.43764 90.27088 202.87943 93.663017 200.66941 C 93.420745 203.36062 96.184525 202.27005 95.653593 204.82109 C 96.644489 204.00962 97.257259 204.77443 98.007971 205.51097 C 97.971331 205.33635 97.93211 205.06764 97.890149 204.6733 C 95.228559 203.77976 100.64958 199.51534 97.446248 201.64299 C 95.957394 205.13526 95.5164 201.44306 97.015267 200.13507 C 98.790871 198.19942 101.8393 201.46574 100.3484 200.77431 C 99.622801 201.0488 104.69486 203.82348 99.888477 203.30542 C 98.678464 205.6416 99.052434 204.58218 98.339734 204.98232 L 98.339217 204.9818 L 98.339217 204.98129 L 98.339217 204.98077 L 98.3387 204.97974 L 98.337667 204.97922 L 98.33715 204.97922 L 98.336633 204.97922 L 98.336117 204.97922 L 98.3356 204.97974 L 98.335083 204.98077 C 98.311993 205.01427 98.2629 205.4785 98.191423 205.68719 C 98.68896 206.14971 99.260283 206.54798 100.04196 206.45872 C 100.12526 206.53492 100.21023 206.61532 100.29569 206.69953 L 100.29569 206.69901 C 100.11833 206.08535 99.937444 205.32348 99.598572 205.46911 C 98.256348 203.75243 101.87594 202.64998 103.48051 204.25007 C 102.54068 202.88312 101.58726 201.6848 101.26359 200.66475 C 101.98412 200.35286 102.10202 199.96765 101.94417 199.50462 z M 103.48051 204.25007 C 103.62236 204.45641 103.76421 204.66654 103.90322 204.88052 C 103.90922 204.87252 103.91335 204.86445 103.91665 204.85675 C 103.79984 204.62204 103.65164 204.42075 103.48051 204.25007 z M 103.90322 204.88052 C 103.62785 205.27471 100.86478 206.06134 100.72719 207.15118 C 102.73714 209.37995 104.82356 213.49254 101.73539 216.81364 C 103.00208 216.6296 103.90996 215.22961 104.51713 213.88514 C 104.38925 214.02452 104.24851 214.15537 104.09287 214.27684 C 101.37413 218.10143 103.39046 214.95388 103.48774 212.6542 C 102.95481 208.5962 104.64289 212.08288 103.43813 209.18982 C 103.30154 210.05107 102.1499 207.45503 101.93641 207.61885 C 102.31505 202.84656 105.70906 207.32003 105.54136 211.14525 C 106.08367 208.79416 105.0848 206.69938 103.90322 204.88052 z M 105.54136 211.14525 C 105.44001 211.58462 105.28537 212.0327 105.06749 212.48987 C 104.92292 212.90562 104.74005 213.39153 104.51713 213.88514 C 105.197 213.14408 105.49652 212.16807 105.54136 211.14525 z M 100.72719 207.15118 C 100.5823 206.99053 100.43781 206.83961 100.29569 206.69953 C 100.4257 207.14928 100.55347 207.51895 100.74062 207.39354 C 100.72082 207.31095 100.71719 207.23057 100.72719 207.15118 z M 98.191423 205.68719 C 98.129113 205.62919 98.068232 205.57008 98.007971 205.51097 C 98.079971 205.85411 98.141226 205.83377 98.191423 205.68719 z M 92.981405 195.69917 C 93.272751 195.36296 93.494502 195.03272 93.657849 194.71421 C 93.211361 195.20549 92.975515 195.486 92.981405 195.69917 z M 93.657849 194.71421 C 93.87976 194.47004 94.153393 194.17386 94.475887 193.80781 C 94.963018 194.95198 94.980204 192.60024 94.878963 192.56137 C 94.408978 192.48027 94.083407 192.38102 93.872306 192.2632 C 94.113614 192.86708 94.159443 193.73619 93.657849 194.71421 z M 93.872306 192.2632 C 93.786346 192.04808 93.676042 191.86652 93.556047 191.72576 C 93.521017 191.93511 93.605079 192.11407 93.872306 192.2632 z M 73.400688 181.3419 C 73.405688 181.49647 73.432047 181.69551 73.485437 181.94652 C 73.501817 181.59445 73.467368 181.40763 73.400688 181.3419 z M 56.387256 186.03671 C 56.129198 186.01028 55.837269 185.92733 55.51134 185.75455 C 55.681911 185.98594 56.230909 186.2041 56.387256 186.03671 z M 39.404313 172.83028 C 40.383566 173.0524 41.44863 173.29266 42.090454 174.09222 C 44.895233 172.6063 46.797111 174.70917 48.539156 176.16444 C 48.383835 175.67844 48.207375 174.84399 48.075618 174.82085 C 47.501094 174.37983 46.970176 173.59992 46.56615 172.73209 C 46.795622 173.89201 42.443454 170.75363 43.822648 172.44632 C 44.18458 173.36457 43.834389 172.88737 42.479061 173.79301 C 42.850362 172.96931 39.203927 172.34155 39.996525 171.44638 C 39.904505 171.25512 39.832097 171.17783 39.7738 171.18128 C 39.555724 171.19418 39.533212 172.33332 39.404313 172.83028 z M 46.56615 172.73209 C 46.54464 172.62337 46.482898 172.4769 46.372363 172.28509 C 46.433063 172.43582 46.497761 172.58519 46.56615 172.73209 z M 48.539156 176.16444 C 48.637646 176.47259 48.727744 176.64099 48.792887 176.3727 C 48.708617 176.3053 48.624088 176.23539 48.539156 176.16444 z M 53.491825 158.95154 C 53.752658 158.80335 54.115289 158.65922 54.605452 158.52469 C 54.755432 158.44489 54.925052 158.34864 55.109814 158.24099 L 54.367224 159.80523 C 55.746182 157.86317 56.090802 157.86275 56.607914 157.39194 C 57.109466 156.9353 58.205369 158.91473 58.270862 159.03422 L 57.173254 157.02349 C 59.454849 155.73123 61.76258 154.8022 59.74054 158.75568 C 60.541255 157.8883 62.563819 148.85909 62.240645 156.13 C 62.411269 156.66201 62.539194 157.08567 62.632869 157.41675 C 62.581579 156.76144 62.674456 155.98281 63.272107 155.71401 C 61.709891 154.1359 64.221284 155.16238 66.651746 156.14447 L 65.216174 159.17065 C 66.595132 157.22859 66.939237 157.22765 67.456348 156.75684 C 67.957901 156.30021 69.053801 158.27962 69.119295 158.39912 L 68.229427 156.76873 C 68.8041 156.98675 69.308755 157.16118 69.667582 157.2426 C 71.627892 159.33611 69.058133 158.37389 68.784432 160.85375 C 71.577275 157.2919 70.19854 161.6812 71.691231 159.59336 C 71.187008 154.51812 71.656245 162.72013 70.948124 157.79502 C 70.114657 153.68497 71.206926 156.42858 72.3191 156.97285 C 72.504392 156.99975 72.685678 157.01315 72.862736 157.01316 C 73.867031 154.39396 74.972425 154.0655 73.621346 150.04769 C 71.821008 145.29103 75.354392 150.14274 76.009831 152.18761 C 74.92892 152.32047 75.846246 155.36118 74.424398 156.64212 C 77.105415 155.3005 78.268095 150.62519 77.029407 147.71501 C 78.783701 150.84811 80.533804 144.79673 79.659737 143.39021 C 79.882372 143.84872 79.429004 143.40378 79.097498 142.90962 C 79.426907 144.81206 78.604756 147.24662 78.604504 147.76927 C 77.469089 147.89141 76.656598 146.58091 75.716309 146.6913 C 72.046105 147.24908 73.744106 141.82003 76.657853 140.11548 C 78.49972 134.93668 82.433998 143.62029 78.621041 141.64613 C 78.714471 141.78455 78.793788 141.93215 78.860819 142.08797 C 78.976563 142.02457 79.247975 142.08714 79.760506 142.36754 C 81.283124 141.20581 80.810185 139.97414 79.663354 138.53366 C 80.04107 139.14377 77.982817 137.45888 77.790601 136.85728 C 77.770031 137.89177 75.988932 139.39547 74.80732 140.33924 C 73.096842 142.23231 71.966615 146.84432 67.176261 144.80046 C 67.478956 145.44441 64.572396 145.16949 63.283993 145.41076 C 62.99935 146.73902 60.203152 145.60399 59.171065 147.84576 C 57.110684 146.56189 59.635593 148.55664 56.077714 149.53506 C 55.706984 149.66786 53.424966 151.09498 53.375037 153.62008 C 53.139071 153.71368 52.750271 153.85343 52.590072 153.53016 C 53.567236 152.34179 51.286281 151.9754 53.448934 148.75009 C 55.329408 143.68345 58.593641 138.97044 62.383272 135.18296 C 62.131984 138.24505 62.076656 139.37674 62.601347 135.61808 C 61.810732 130.48257 63.649973 136.68546 65.096285 136.15603 C 62.8294 135.40252 63.956969 133.18321 65.223926 132.56348 C 65.243596 132.2365 65.264611 131.95237 65.286971 131.70669 C 64.619257 133.84569 61.799441 132.48114 62.100085 134.81813 C 58.244026 139.26913 54.429139 144.17142 52.626245 149.90661 C 50.711624 152.53829 53.081016 153.4319 53.11252 154.8474 C 54.973238 150.86335 58.768676 148.6187 62.694881 147.05666 C 67.716961 145.27521 73.306102 145.38668 77.191154 149.54229 C 74.959758 149.83979 77.791803 149.80347 76.459932 151.3179 C 73.752219 149.6742 75.591742 148.25918 72.881856 147.20497 C 73.371733 149.74418 73.35342 151.85838 73.687492 153.6268 C 73.939242 158.97626 69.146401 152.87347 70.586389 156.43024 C 70.587278 157.32447 68.368673 156.06331 67.647034 155.70161 L 67.646517 155.70161 L 67.226904 154.93266 L 66.659497 156.12794 C 64.818304 155.29957 64.997702 153.10319 62.37242 154.57816 C 62.935071 150.30888 60.902429 154.67259 60.524471 154.95953 C 58.924663 156.62778 58.400546 154.94973 56.769145 156.28297 L 56.768111 156.28297 L 56.378471 155.56777 L 55.696859 157.00385 C 55.423853 157.14581 54.822889 157.70619 53.485624 158.85904 C 53.491724 158.89134 53.493625 158.92224 53.491825 158.95154 z M 53.11252 154.8474 C 52.945545 155.20493 52.794341 155.57676 52.659835 155.96309 C 52.997685 155.54274 53.119873 155.18049 53.11252 154.8474 z M 77.790601 136.85728 C 77.791453 136.81448 77.789283 136.77236 77.783883 136.73119 C 77.771463 136.76429 77.774501 136.80711 77.790601 136.85728 z M 77.783883 136.73119 C 77.835923 136.59241 78.159397 136.62012 78.937817 136.95857 C 82.219032 139.25065 80.707961 134.14958 81.450842 134.66258 C 81.374412 134.16108 81.53175 133.24881 81.677702 132.64358 C 80.586261 130.75054 81.347585 129.0987 80.266935 125.69104 C 80.893669 126.06636 79.643911 122.96496 79.055123 122.79457 C 77.895665 124.35268 79.803493 119.41645 77.145162 119.37049 C 76.930261 119.06294 76.688968 118.62439 76.41084 118.10855 C 76.33319 118.3892 76.130377 118.68748 75.766435 119.00514 C 79.994438 120.37394 76.706336 123.01269 79.626147 124.67404 C 79.30583 125.14612 78.756032 125.51013 78.063452 125.81816 L 77.145679 124.13764 L 76.012931 126.52458 L 76.012415 126.52458 C 74.602402 126.93285 73.01589 127.31884 71.618368 127.90744 L 71.617851 127.90744 L 70.946574 126.67754 L 69.9363 128.80609 L 69.935266 128.80609 L 69.935266 128.80661 C 69.625551 129.02133 69.340953 129.25763 69.087256 129.51923 C 69.025106 129.61903 68.962387 129.70973 68.89967 129.79311 C 69.14015 129.63855 69.403497 129.48686 69.683602 129.33784 L 68.935327 130.91501 C 70.0013 129.41375 70.449198 129.07249 70.836503 128.77767 C 71.061259 128.67676 71.290701 128.57767 71.523283 128.48001 C 72.064471 128.74395 72.787491 130.04911 72.839482 130.14399 L 71.855562 128.34204 C 73.282349 127.75858 74.779652 127.23887 75.881673 126.80053 L 75.134432 128.37511 C 76.030171 127.1136 76.489179 126.67108 76.842855 126.38712 C 77.210007 126.22137 77.540806 126.09749 77.83866 126.0104 C 78.361511 126.38117 78.989879 127.5147 79.038586 127.60358 L 78.127531 125.93495 C 81.785147 125.10733 79.911946 130.58334 81.102026 133.01462 C 80.251876 133.87974 81.603622 137.07592 77.699133 136.47074 C 77.744233 136.55274 77.772013 136.63983 77.783883 136.73119 z M 68.89967 129.79311 C 68.534377 130.02791 68.221764 130.26915 67.980863 130.51555 C 68.284534 130.41715 68.594649 130.19864 68.89967 129.79311 z M 67.980863 130.51555 C 66.617337 130.95709 65.392096 128.97979 65.426497 130.67419 C 65.426414 130.69049 65.426214 130.70719 65.425981 130.72329 C 65.736114 129.44512 66.296384 131.62532 67.557117 132.04775 C 67.30685 131.51947 67.500751 131.00662 67.980863 130.51555 z M 65.425981 130.72329 C 65.373001 130.94163 65.327063 131.26054 65.286454 131.70669 C 65.370154 131.43856 65.4203 131.11572 65.425981 130.72329 z M 76.41084 118.10855 C 76.578515 117.50254 76.163379 116.97773 75.53234 116.51123 C 75.861669 117.08196 76.15209 117.62865 76.41084 118.10855 z M 81.677702 132.64358 C 81.707712 132.69568 81.73937 132.7482 81.77227 132.80068 C 81.87211 132.28728 81.895261 132.0658 81.876139 132.04155 L 81.875623 132.04104 L 81.875106 132.04104 L 81.875106 132.04052 L 81.874589 132.04052 L 81.873556 132.03949 L 81.873039 132.03949 L 81.872522 132.03949 C 81.872414 132.03951 81.871372 132.04037 81.870972 132.04052 L 81.869938 132.04052 L 81.869421 132.04104 C 81.838901 132.05794 81.760148 132.30171 81.677702 132.64358 z M 81.450842 134.66258 C 81.488482 134.90957 81.582821 135.05685 81.763485 135.01915 C 81.629582 134.82978 81.528086 134.71591 81.450842 134.66258 z M 78.860819 142.08797 C 78.687933 142.18267 78.862091 142.5587 79.097498 142.90962 C 79.047468 142.62069 78.970872 142.34381 78.860819 142.08797 z M 74.424398 156.64212 C 73.949732 156.87964 73.427662 157.01291 72.862736 157.01316 C 72.847546 157.05276 72.831874 157.09286 72.816744 157.13356 L 73.001746 157.26999 L 73.258577 157.16198 C 73.763429 157.08358 74.140533 156.89786 74.424398 156.64212 z M 53.099601 110.48008 C 51.91672 110.40618 47.891275 111.94273 46.53256 113.18637 C 42.240645 115.68513 38.745464 119.13999 36.579163 123.59194 C 33.376014 126.03718 34.611461 132.20531 32.188216 134.17992 C 32.491305 139.01725 30.912209 143.56738 32.464168 148.05815 C 30.545422 147.71525 31.826263 149.14211 32.445565 150.61458 C 31.839895 148.89353 32.068049 147.57114 32.558736 150.02495 C 32.812928 147.62468 33.452751 149.06221 32.800065 146.59622 C 31.586317 143.32397 32.096869 139.63827 32.809367 135.59379 C 31.758311 133.83086 34.283228 133.10542 34.629411 128.87224 C 34.86225 130.774 35.606125 129.09727 34.878491 127.21601 C 36.617146 123.2922 39.575087 118.16161 43.682605 115.74126 C 44.075122 115.35333 47.677501 111.86938 52.087777 110.80047 C 52.75917 110.59265 53.137311 110.508 53.297005 110.51729 C 53.245055 110.49749 53.178459 110.48498 53.099601 110.48008 z M 53.297005 110.51729 C 53.335645 110.53209 53.366302 110.55083 53.388472 110.57413 C 53.391272 110.54053 53.362595 110.52109 53.297005 110.51729 z M 53.388472 110.57413 C 53.348352 111.05517 46.85755 114.37978 49.213534 114.74287 C 49.630566 115.50584 46.181229 115.35672 45.143498 117.73855 C 44.420201 121.0482 40.734508 122.30275 39.79137 126.96486 C 40.296263 129.55348 37.725908 132.83671 39.039994 132.91902 C 41.363785 132.27599 43.579024 131.16058 40.168091 133.81095 C 37.287958 134.70489 40.299314 136.14872 39.124744 137.81278 C 38.063067 138.88281 40.962615 139.77504 43.779757 138.1032 C 42.69458 138.87746 38.5953 141.71925 40.021847 145.32705 C 39.047841 146.8487 40.464011 146.38825 41.467236 146.35437 C 39.799187 145.07309 39.435778 140.64372 42.915727 139.20132 C 48.386868 135.6178 35.847327 141.6097 40.322087 136.61543 C 36.134179 136.11696 46.790062 129.63571 40.074556 132.34541 C 38.966773 130.58637 40.427545 124.9632 42.596883 121.79153 C 46.274565 120.8468 43.51753 117.70801 47.456535 116.09834 C 51.602438 115.23069 47.713479 114.38433 51.240283 112.58744 C 53.059067 111.40147 53.594979 110.79289 53.388472 110.57413 z M 41.467236 146.35437 C 41.718461 146.54734 41.999017 146.66938 42.300777 146.69854 C 42.223677 146.39929 41.880644 146.34042 41.467236 146.35437 z M 42.300777 146.69854 C 42.30637 146.72022 42.310472 146.74299 42.31318 146.76727 C 39.076325 150.04436 43.33204 153.45085 41.192318 148.7594 C 43.195246 150.54119 42.803903 150.69712 43.865023 152.14989 C 45.026731 150.23662 42.87187 152.31247 43.892411 150.03477 C 43.904581 150.00297 43.916605 149.97182 43.928585 149.94072 C 42.63986 150.8446 40.462127 148.42151 42.745194 146.67477 C 42.592996 146.70497 42.444424 146.71244 42.300777 146.69854 z M 43.928585 149.94072 C 44.328397 149.66031 44.642549 149.05975 44.711483 148.01939 C 44.510379 148.4618 44.254609 149.0901 43.928585 149.94072 z M 90.556746 123.98881 C 91.038443 123.97301 91.79765 125.24414 92.005237 125.60835 C 91.081025 125.37886 90.141655 125.21442 89.179569 125.14482 C 89.764136 124.48225 90.03796 124.38069 90.393449 124.05703 C 90.442689 124.01213 90.49759 123.99071 90.556746 123.98881 z M 87.214315 125.28486 C 87.017637 125.29186 86.845989 125.30984 86.703752 125.33964 C 86.864764 125.33364 87.034639 125.31616 87.214315 125.28486 z M 86.703752 125.33964 L 86.703752 125.3386 C 86.70214 125.33892 86.700152 125.33919 86.698584 125.33964 C 86.700163 125.33957 86.702164 125.33969 86.703752 125.33964 z M 86.698584 125.33964 C 86.689439 125.34 86.680354 125.34067 86.671195 125.34067 C 86.676795 125.34144 86.682539 125.34122 86.688249 125.34222 C 86.691818 125.34153 86.695152 125.34062 86.698584 125.33964 z M 86.671195 125.34067 C 86.500368 125.3174 86.348962 125.30971 86.214376 125.31587 C 86.358387 125.33601 86.510014 125.34447 86.671195 125.34067 z M 77.546171 125.89361 C 77.608391 125.8934 77.675658 125.91429 77.745125 125.95149 C 77.54051 126.03319 77.325719 126.11157 77.102787 126.18713 C 77.192757 126.11813 77.281009 126.0475 77.375122 125.96182 C 77.426572 125.91502 77.48396 125.89371 77.546171 125.89361 z M 83.287423 128.62522 L 81.991378 132.4467 C 82.880292 130.69537 83.101873 130.69517 83.435217 130.2706 C 83.758531 129.8588 84.465286 131.64338 84.507503 131.75113 L 83.287423 128.62522 z M 73.736068 130.48713 L 71.724821 134.72459 C 73.10378 132.78253 73.4484 132.78211 73.965511 132.3113 C 74.467064 131.85466 75.562965 133.83408 75.628459 133.95358 L 73.736068 130.48713 z M 77.455737 130.48713 L 75.444491 134.72459 C 76.823449 132.78253 77.16807 132.78211 77.685181 132.3113 C 78.186734 131.85466 79.282634 133.83408 79.348128 133.95358 L 77.455737 130.48713 z M 103.4712 132.97121 C 103.4844 132.95391 103.31774 133.08549 102.92188 133.41253 C 102.43825 133.82634 102.43053 133.89271 102.18498 134.13186 C 102.0744 134.25295 101.96133 134.36449 101.84495 134.46569 C 101.96646 134.36563 102.08607 134.25783 102.20461 134.14427 C 102.45015 133.90512 102.68545 133.65325 102.941 133.42493 C 103.26471 133.15483 103.458 132.98854 103.4712 132.97121 z M 101.84495 134.46569 C 101.65339 134.62346 101.45729 134.76316 101.2548 134.88272 C 101.4594 134.76809 101.65612 134.62991 101.84495 134.46569 z M 101.2548 134.88272 C 101.16902 134.93337 101.07903 134.97145 100.99073 135.0145 C 101.08001 134.97453 101.16841 134.93112 101.2548 134.88272 z M 100.99073 135.0145 C 100.44212 135.26012 99.839199 135.35014 99.175342 135.31215 L 99.193945 135.32611 C 99.868313 135.40281 100.45289 135.27671 100.99073 135.0145 z M 103.3017 133.23528 L 103.30067 133.2358 C 103.29867 133.2488 103.29984 133.33163 103.30584 133.53862 L 103.30584 133.53914 C 103.28383 134.71947 102.51664 136.07499 103.06141 137.12135 C 102.53441 136.08691 103.30894 134.69541 103.32703 133.54999 C 103.32603 133.51644 103.30843 133.25517 103.3017 133.23528 z M 103.06141 137.12135 C 103.13451 137.26483 103.23298 137.40145 103.36165 137.52959 C 103.23402 137.40002 103.13544 137.26353 103.06141 137.12135 z M 93.552429 134.87601 C 93.565619 134.85871 93.398969 134.9908 93.003109 135.31784 C 92.519478 135.73166 92.511755 135.7975 92.266203 136.03666 C 92.155628 136.15774 92.042552 136.26929 91.926172 136.37049 C 92.047678 136.27043 92.167314 136.16262 92.28584 136.04906 C 92.531386 135.80991 92.767192 135.55856 93.022746 135.33024 C 93.346462 135.06014 93.539236 134.89334 93.552429 134.87601 z M 91.926172 136.37049 C 91.73461 136.52825 91.538522 136.66848 91.336027 136.78803 C 91.540632 136.67341 91.737338 136.53471 91.926172 136.37049 z M 91.336027 136.78803 C 91.250745 136.83838 91.161274 136.87593 91.073511 136.91877 C 91.16227 136.87898 91.250121 136.83616 91.336027 136.78803 z M 91.073511 136.91877 C 90.524493 137.16491 89.921035 137.25497 89.256567 137.21695 L 89.275171 137.23142 C 89.950185 137.3082 90.535244 137.18152 91.073511 136.91877 z M 93.382931 135.13904 L 93.382931 135.13955 L 93.382931 135.14007 L 93.381897 135.14111 C 93.379497 135.15411 93.380781 135.23691 93.387581 135.44393 C 93.365544 136.62438 92.598578 137.97974 93.143669 139.02614 C 92.616357 137.99167 93.390738 136.60033 93.408769 135.45478 C 93.407569 135.42118 93.390187 135.15868 93.383447 135.13955 L 93.383447 135.13904 L 93.382931 135.13904 z M 93.143669 139.02614 C 93.21675 139.16951 93.314821 139.30634 93.443392 139.43438 C 93.315857 139.30491 93.217677 139.16821 93.143669 139.02614 z M 109.36025 136.7808 C 109.37345 136.7635 109.20679 136.8956 108.81093 137.22263 C 108.3273 137.63645 108.32009 137.70281 108.07454 137.94197 C 107.96397 138.06305 107.85037 138.17408 107.73399 138.27528 C 107.8555 138.17522 107.97514 138.06793 108.09366 137.95437 C 108.33921 137.71521 108.57502 137.46335 108.83057 137.23503 C 109.15429 136.96493 109.34706 136.79812 109.36025 136.7808 z M 107.73399 138.27528 C 107.54243 138.43304 107.34634 138.57327 107.14385 138.69283 C 107.34845 138.5782 107.54516 138.4395 107.73399 138.27528 z M 107.14385 138.69283 C 107.05857 138.74317 106.96909 138.78073 106.88133 138.82357 C 106.97009 138.78378 107.05794 138.74095 107.14385 138.69283 z M 106.88133 138.82357 C 106.33232 139.0697 105.72885 139.15976 105.06439 139.12174 L 105.08299 139.13621 C 105.758 139.21299 106.34307 139.0863 106.88133 138.82357 z M 68.466622 136.83661 L 66.455892 141.07408 C 67.83485 139.13202 68.178954 139.1316 68.696065 138.66079 C 69.197618 138.20416 70.29352 140.18356 70.359013 140.30306 L 68.466622 136.83661 z M 109.19075 137.04486 L 109.19023 137.0459 C 109.18823 137.0589 109.18889 137.1417 109.19489 137.34872 C 109.17288 138.52908 108.40612 139.88455 108.95097 140.93093 C 108.4239 139.89648 109.19807 138.50503 109.21607 137.35957 C 109.21507 137.32603 109.19748 137.06475 109.19075 137.04486 z M 108.95097 140.93093 C 109.02407 141.07439 109.12205 141.21107 109.2507 141.33918 C 109.12309 141.20963 109.02499 141.07309 108.95097 140.93093 z M 103.44071 137.60452 C 103.46723 137.62875 103.48883 137.65366 103.51771 137.67738 C 103.67257 137.78525 103.84145 137.86795 104.01174 137.9461 L 103.99262 137.93112 C 103.83646 137.85932 103.68075 137.78724 103.53942 137.68669 C 103.50455 137.65967 103.47231 137.63252 103.44071 137.60452 z M 99.131417 138.68559 C 99.144607 138.66829 98.978473 138.80039 98.582613 139.12743 C 98.098982 139.54124 98.091259 139.60761 97.845707 139.84676 C 97.735132 139.96785 97.621541 140.07887 97.50516 140.18007 C 97.626666 140.08001 97.746301 139.97272 97.864827 139.85916 C 98.110373 139.62 98.346179 139.36815 98.601733 139.13983 C 98.925449 138.86973 99.118224 138.70292 99.131417 138.68559 z M 97.50516 140.18007 C 97.313598 140.33784 97.11751 140.47806 96.915015 140.59762 C 97.11962 140.48299 97.316326 140.34429 97.50516 140.18007 z M 96.915015 140.59762 C 96.828926 140.64844 96.738533 140.68622 96.649915 140.72939 C 96.7397 140.68925 96.828147 140.64628 96.915015 140.59762 z M 96.649915 140.72939 C 96.101692 140.97452 95.498821 141.06449 94.835555 141.02653 L 94.854159 141.041 C 95.528131 141.11767 96.112324 140.99128 96.649915 140.72939 z M 98.961918 138.94862 L 98.961918 138.94914 L 98.961918 138.95017 L 98.961401 138.95069 C 98.959001 138.96369 98.959769 139.046 98.966569 139.253 L 98.966569 139.25403 C 98.944531 140.43448 98.177564 141.78983 98.722656 142.83624 C 98.195343 141.80177 98.969725 140.40991 98.987756 139.26437 C 98.986556 139.23077 98.969175 138.96826 98.962435 138.94914 L 98.962435 138.94862 L 98.961918 138.94862 z M 98.722656 142.83624 C 98.795738 142.97961 98.893809 143.11593 99.02238 143.24397 C 98.894845 143.1145 98.796664 142.97832 98.722656 142.83624 z M 93.521423 139.5088 C 93.548203 139.5332 93.569868 139.55879 93.598938 139.58269 C 93.753799 139.69057 93.922674 139.77275 94.092965 139.8509 L 94.073844 139.83591 C 93.91768 139.76411 93.761972 139.69204 93.620642 139.59148 C 93.585562 139.56428 93.553213 139.537 93.521423 139.5088 z M 85.060441 139.58631 L 83.049711 143.82378 C 84.428669 141.88172 84.772773 141.8813 85.289884 141.41049 C 85.791436 140.95385 86.88734 142.93328 86.952832 143.05277 L 85.060441 139.58631 z M 60.237667 140.62708 L 58.22642 144.86506 C 59.605378 142.923 59.950516 142.92206 60.467627 142.45125 C 60.969179 141.99462 62.064565 143.97403 62.130058 144.09353 L 60.237667 140.62708 z M 109.32924 141.41359 C 109.35604 141.43799 109.37766 141.46359 109.40676 141.48749 C 109.56162 141.59536 109.7305 141.67754 109.90079 141.75569 L 109.88218 141.7407 C 109.72602 141.6689 109.56979 141.59735 109.42846 141.49679 C 109.39336 141.46959 109.36104 141.44179 109.32924 141.41359 z M 103.78075 141.86059 C 103.79395 141.84329 103.6278 141.97489 103.23194 142.30191 C 102.74831 142.71573 102.74059 142.78209 102.49504 143.02124 C 102.38446 143.14231 102.27138 143.25386 102.155 143.35507 C 102.27651 143.255 102.39563 143.14721 102.51416 143.03365 C 102.75971 142.79449 102.9955 142.54263 103.25106 142.31431 C 103.57477 142.04421 103.76756 141.8779 103.78075 141.86059 z M 102.155 143.35507 C 101.96344 143.51284 101.76683 143.65255 101.56434 143.7721 C 101.76894 143.65748 101.96617 143.51928 102.155 143.35507 z M 101.56434 143.7721 C 101.47775 143.82322 101.38684 143.86154 101.29769 143.90491 C 101.388 143.86459 101.47699 143.82104 101.56434 143.7721 z M 101.29769 143.90491 C 100.74987 144.14952 100.14754 144.23946 99.484884 144.20153 L 99.504004 144.21549 C 100.17734 144.29208 100.76052 144.16627 101.29769 143.90491 z M 103.61125 142.12362 L 103.61125 142.12414 L 103.61125 142.12466 L 103.61073 142.12517 C 103.60873 142.13817 103.6099 142.22101 103.6159 142.428 L 103.6159 142.42852 C 103.59388 143.60906 102.82663 144.9648 103.37198 146.01124 C 102.84442 144.97675 103.61908 143.58449 103.63708 142.43885 C 103.63608 142.40525 103.61846 142.14327 103.61176 142.12414 L 103.61176 142.12362 L 103.61125 142.12362 z M 103.37198 146.01124 C 103.44505 146.15452 103.54322 146.29101 103.67171 146.41897 C 103.54425 146.28958 103.44598 146.15322 103.37198 146.01124 z M 112.4598 142.17788 C 112.473 142.16058 112.30634 142.29269 111.91048 142.61972 C 111.42685 143.03353 111.41964 143.0999 111.17409 143.33905 C 111.06352 143.46014 110.94992 143.57117 110.83354 143.67237 C 110.95505 143.5723 111.07469 143.46502 111.19321 143.35146 C 111.43876 143.11231 111.67457 142.86044 111.93012 142.63212 C 112.25384 142.36202 112.44661 142.1952 112.4598 142.17788 z M 110.83354 143.67237 C 110.64198 143.83014 110.44589 143.97036 110.2434 144.08991 C 110.448 143.97529 110.64471 143.83658 110.83354 143.67237 z M 110.2434 144.08991 C 110.15812 144.14026 110.06865 144.17781 109.98088 144.22065 C 110.06964 144.18086 110.15749 144.13804 110.2434 144.08991 z M 109.98088 144.22065 C 109.43187 144.4668 108.82841 144.55686 108.16394 144.51883 L 108.18254 144.5333 C 108.85756 144.61008 109.44262 144.4834 109.98088 144.22065 z M 112.2903 142.44195 L 112.28979 142.44299 C 112.28779 142.45599 112.28844 142.53829 112.29444 142.74529 L 112.29444 142.74581 C 112.27243 143.92606 111.5055 145.28118 112.05001 146.3275 C 111.52326 145.2931 112.29754 143.90199 112.31562 142.75666 C 112.31463 142.72312 112.29703 142.46185 112.2903 142.44195 z M 112.05001 146.3275 C 112.12312 146.47108 112.22151 146.60805 112.35025 146.73626 C 112.22254 146.60662 112.12405 146.46978 112.05001 146.3275 z M 87.530058 142.45694 C 86.725284 144.83265 85.426054 148.24533 86.500146 150.16654 C 86.717258 150.2887 86.906359 150.40452 87.069621 150.51639 C 86.704813 149.48595 86.75522 148.03477 86.6929 147.97236 C 86.692764 147.97225 86.69174 147.97207 86.691349 147.97185 L 86.690833 147.97133 L 86.690316 147.97081 L 86.689799 147.97081 C 86.689409 147.97082 86.688449 147.97082 86.688249 147.97081 L 86.687732 147.97081 L 86.687215 147.97081 L 86.686698 147.97081 C 86.686547 147.97089 86.685523 147.97162 86.685148 147.97185 L 86.684631 147.97185 C 86.680531 147.97585 86.675192 147.98385 86.670162 147.99665 C 86.784699 146.95336 86.939852 144.67659 87.530058 142.45694 z M 99.100411 143.31838 C 99.127191 143.34278 99.148856 143.36838 99.177926 143.39228 C 99.332787 143.50015 99.501661 143.58233 99.671952 143.66048 L 99.653349 143.64601 C 99.497185 143.57431 99.34096 143.50213 99.19963 143.40158 C 99.16455 143.37438 99.132201 143.34658 99.100411 143.31838 z M 95.102205 145.98799 C 95.115395 145.97069 94.948746 146.10229 94.552885 146.42931 C 94.069254 146.84312 94.061531 146.90948 93.815979 147.14864 C 93.705403 147.26972 93.592328 147.38075 93.475948 147.48195 C 93.597452 147.38188 93.717088 147.2746 93.835616 147.16104 C 94.081162 146.92188 94.316451 146.67003 94.572005 146.44171 C 94.895719 146.17161 95.089013 146.0053 95.102205 145.98799 z M 93.475948 147.48195 C 93.284386 147.63971 93.088299 147.77996 92.885803 147.8995 C 93.090408 147.78489 93.287114 147.64616 93.475948 147.48195 z M 92.885803 147.8995 C 92.801701 147.94915 92.713417 147.98634 92.626904 148.02869 C 92.714426 147.98932 92.801058 147.94698 92.885803 147.8995 z M 92.626904 148.02869 C 92.076929 148.27606 91.472262 148.36653 90.806344 148.32841 L 90.824947 148.34288 C 91.501482 148.41984 92.087648 148.29269 92.626904 148.02869 z M 94.93219 146.2505 L 94.93219 146.25154 L 94.93219 146.25205 L 94.931673 146.25257 C 94.929273 146.26557 94.930558 146.34789 94.937358 146.55488 C 94.915455 147.73524 94.148255 149.09112 94.692928 150.13761 C 94.166096 149.10319 94.940517 147.71162 94.958545 146.56625 C 94.957345 146.53265 94.939963 146.27068 94.933223 146.25154 L 94.933223 146.2505 L 94.93219 146.2505 z M 94.692928 150.13761 C 94.766035 150.28115 94.864455 150.41767 94.993168 150.54585 C 94.865494 150.41624 94.766964 150.27985 94.692928 150.13761 z M 103.75077 146.4939 C 103.77713 146.51804 103.7985 146.54315 103.82725 146.56676 C 103.98211 146.67463 104.15098 146.75733 104.32128 146.83548 L 104.30268 146.8205 C 104.14652 146.7487 103.99081 146.67662 103.84948 146.57607 C 103.81474 146.54905 103.78225 146.52179 103.75077 146.4939 z M 112.4288 146.81068 C 112.45547 146.835 112.47731 146.86075 112.50631 146.88457 C 112.66117 146.99244 112.83005 147.07463 113.00034 147.15278 L 112.98173 147.13779 C 112.82557 147.06599 112.66935 146.99443 112.52802 146.89388 C 112.49303 146.86676 112.4605 146.83879 112.4288 146.81068 z M 107.19036 147.89278 C 107.20356 147.87548 107.0369 148.00708 106.64104 148.3341 C 106.15741 148.74792 106.1502 148.81428 105.90465 149.05343 C 105.79407 149.17451 105.68048 149.28555 105.5641 149.38675 C 105.6856 149.28668 105.80524 149.1794 105.92377 149.06584 C 106.16932 148.82668 106.40511 148.57482 106.66067 148.3465 C 106.98438 148.0764 107.17717 147.91009 107.19036 147.89278 z M 105.5641 149.38675 C 105.37254 149.54452 105.17644 149.68474 104.97395 149.80429 C 105.17855 149.68967 105.37527 149.55096 105.5641 149.38675 z M 104.97395 149.80429 C 104.88904 149.85442 104.79984 149.89183 104.71247 149.93452 C 104.801 149.8948 104.88826 149.8523 104.97395 149.80429 z M 104.71247 149.93452 C 104.16327 150.18088 103.55923 150.27125 102.89449 150.23321 L 102.9131 150.24768 C 103.58859 150.32451 104.17389 150.19765 104.71247 149.93452 z M 107.02086 148.15685 L 107.02034 148.15736 C 107.01834 148.17036 107.01899 148.25319 107.02499 148.46019 C 107.00307 149.64066 106.23606 150.99638 106.78108 152.04292 C 106.25392 151.00846 107.02818 149.61653 107.04618 148.47104 C 107.04518 148.4375 107.02758 148.17675 107.02086 148.15685 z M 106.78108 152.04292 C 106.85417 152.18634 106.95219 152.32256 107.0808 152.45064 C 106.95323 152.32114 106.8551 152.18504 106.78108 152.04292 z M 38.710299 148.58318 L 36.699569 152.82116 C 38.078527 150.8791 38.422631 150.87868 38.939742 150.40787 C 39.441295 149.95123 40.537713 151.93013 40.603206 152.04963 L 38.710299 148.58318 z M 83.472941 149.3759 L 81.462211 153.61336 C 82.841169 151.6713 83.185273 151.67088 83.702384 151.20007 C 84.203936 150.74343 85.29984 152.72286 85.365332 152.84235 L 83.472941 149.3759 z M 87.069621 150.51691 C 87.242963 151.00652 87.510206 151.401 87.92745 151.50651 C 87.86619 151.20373 87.607768 150.88568 87.069621 150.51691 z M 87.92745 151.50651 C 87.96118 151.67325 87.935141 151.8352 87.863371 151.99847 C 88.103014 151.76726 88.380071 151.56674 88.698979 151.4135 C 88.396839 151.53891 88.142244 151.56085 87.92745 151.50651 z M 87.863371 151.99847 C 87.607873 152.24497 87.394769 152.52578 87.218966 152.81961 C 87.513754 152.52645 87.747912 152.26096 87.863371 151.99847 z M 95.0712 150.62026 C 95.09798 150.64466 95.119644 150.67026 95.148714 150.69416 C 95.303576 150.80204 95.472449 150.88421 95.642741 150.96236 L 95.623621 150.94789 C 95.467457 150.87609 95.311747 150.80402 95.170418 150.70346 C 95.135338 150.67626 95.10299 150.64846 95.0712 150.62026 z M 101.92091 150.74997 C 101.93411 150.73267 101.76797 150.86426 101.37211 151.19129 C 100.88848 151.6051 100.88076 151.67147 100.6352 151.91062 C 100.52463 152.03171 100.41155 152.14325 100.29517 152.24445 C 100.41667 152.14438 100.53631 152.03659 100.65484 151.92303 C 100.90038 151.68388 101.13568 151.43201 101.39123 151.20369 C 101.71495 150.93359 101.90772 150.76729 101.92091 150.74997 z M 100.29517 152.24445 C 100.1036 152.40222 99.90752 152.54193 99.705025 152.66148 C 99.90963 152.54686 100.10633 152.40866 100.29517 152.24445 z M 99.705025 152.66148 C 99.619243 152.71213 99.529252 152.75021 99.440959 152.79326 C 99.530238 152.75329 99.618632 152.70988 99.705025 152.66148 z M 99.440959 152.79326 C 98.892344 153.03888 98.289423 153.12891 97.625566 153.09091 L 97.644169 153.10487 C 98.318538 153.18157 98.903111 153.05548 99.440959 152.79326 z M 32.57734 150.96184 C 32.701679 151.33354 32.764665 151.69927 32.702913 152.03155 C 32.782093 151.94755 32.872387 151.86284 32.974731 151.77627 C 32.820236 151.509 32.688249 151.23319 32.57734 150.96184 z M 32.702913 152.03155 C 32.465125 152.28386 32.328351 152.52546 32.272449 152.76018 C 32.520385 152.54959 32.652731 152.30159 32.702913 152.03155 z M 32.272449 152.76018 C 32.159001 152.85658 32.021025 152.94492 31.855937 153.02425 C 32.469055 153.87335 35.144277 156.94023 36.07325 159.19442 C 36.475485 156.06499 31.828742 154.62317 32.272449 152.76018 z M 36.07325 159.19442 C 36.04051 159.44921 35.974294 159.71554 35.869128 159.99385 C 36.020405 159.97965 36.175908 159.98569 36.33525 160.01039 C 36.281469 159.75574 36.191662 159.48175 36.07325 159.19442 z M 36.33525 160.01039 C 36.35823 160.11922 36.374706 160.22488 36.383826 160.32613 C 37.391381 160.61132 38.190178 161.10592 38.862227 161.70641 L 38.559403 162.34513 C 38.703897 162.14164 38.83724 161.95945 38.960413 161.79581 C 41.355472 164.01211 42.134916 167.55313 45.230831 167.44766 C 43.713438 166.90205 42.644795 166.40701 43.112097 165.51393 C 42.811602 165.81091 41.030681 163.36789 39.083919 161.63354 C 40.039109 160.39359 40.355779 160.33636 40.800094 159.93184 C 41.301646 159.4752 42.397548 161.4541 42.463041 161.5736 L 40.57065 158.10766 L 38.952144 161.51779 C 38.066851 160.74697 37.153905 160.13751 36.33525 160.01039 z M 101.75141 151.013 L 101.75141 151.01352 L 101.75141 151.01404 L 101.7509 151.01455 C 101.7489 151.02745 101.75006 151.11039 101.75606 151.31738 L 101.75606 151.3179 C 101.73405 152.49837 100.96704 153.8537 101.51215 154.90011 C 100.98482 153.86564 101.75925 152.4743 101.77725 151.32875 C 101.77625 151.29515 101.75863 151.03266 101.75193 151.01352 L 101.75193 151.013 L 101.75141 151.013 z M 101.51215 154.90011 C 101.58523 155.04346 101.68331 155.18032 101.81187 155.30835 C 101.68435 155.17889 101.58616 155.04217 101.51215 154.90011 z M 114.93924 151.06726 C 114.95244 151.04996 114.78626 151.18207 114.39043 151.5091 C 113.9068 151.92292 113.89908 151.98927 113.65353 152.22843 C 113.54296 152.34951 113.42988 152.46055 113.3135 152.56175 C 113.435 152.46169 113.55463 152.3544 113.67316 152.24084 C 113.9187 152.00169 114.15399 151.74982 114.40955 151.5215 C 114.73326 151.2514 114.92605 151.08458 114.93924 151.06726 z M 113.3135 152.56175 C 113.12204 152.71941 112.92572 152.85978 112.72335 152.97929 C 112.92783 152.8647 113.12477 152.72587 113.3135 152.56175 z M 114.76974 151.3303 L 114.76974 151.33081 L 114.76974 151.33185 L 114.76922 151.33236 C 114.76722 151.34536 114.76839 151.42778 114.77439 151.63467 L 114.77439 151.63571 C 114.75237 152.81638 113.98483 154.17195 114.53048 155.21843 C 114.00263 154.18391 114.77757 152.79179 114.79558 151.64604 C 114.79458 151.61244 114.77686 151.34996 114.77026 151.33081 L 114.77026 151.3303 L 114.76974 151.3303 z M 114.53048 155.21843 C 114.60353 155.36161 114.70179 155.49776 114.8302 155.62564 C 114.70282 155.49634 114.60445 155.36031 114.53048 155.21843 z M 107.15987 152.52557 C 107.18639 152.54981 107.20798 152.57523 107.23687 152.59895 C 107.39173 152.70682 107.56059 152.78952 107.73089 152.86767 L 107.71229 152.85269 C 107.55612 152.78099 107.3999 152.70881 107.25857 152.60826 C 107.22371 152.58114 107.19146 152.55357 107.15987 152.52557 z M 93.861971 152.97257 C 93.875161 152.95527 93.709027 153.08686 93.313167 153.41389 C 92.829536 153.82771 92.821813 153.89408 92.576261 154.13323 C 92.465684 154.25431 92.35261 154.36534 92.23623 154.46654 C 92.357735 154.36648 92.477371 154.25919 92.595898 154.14563 C 92.841444 153.90647 93.076733 153.65461 93.332288 153.42629 C 93.656003 153.15619 93.848779 152.98989 93.861971 152.97257 z M 92.23623 154.46654 C 92.044669 154.6243 91.848064 154.76453 91.645569 154.88409 C 91.850174 154.76946 92.047397 154.63076 92.23623 154.46654 z M 91.645569 154.88409 C 91.55948 154.93491 91.469087 154.97269 91.380469 155.01586 C 91.470254 154.97572 91.558702 154.93275 91.645569 154.88409 z M 91.380469 155.01586 C 90.832246 155.26098 90.229374 155.35095 89.566109 155.313 L 89.585229 155.32747 C 90.259202 155.40413 90.842879 155.27774 91.380469 155.01586 z M 112.70061 152.99066 C 112.62214 153.0363 112.53987 153.07126 112.45929 153.11055 C 112.541 153.07397 112.62132 153.03429 112.70061 152.99066 z M 112.45929 153.11055 C 111.91067 153.35618 111.30724 153.4462 110.64338 153.40821 L 110.6625 153.42268 C 111.337 153.4994 111.92135 153.37287 112.45929 153.11055 z M 93.692472 153.23509 L 93.692472 153.23561 L 93.692472 153.23664 L 93.691956 153.23716 C 93.689656 153.25016 93.69084 153.33247 93.69764 153.53947 C 93.675737 154.71982 92.908507 156.07569 93.45321 157.12219 C 92.926347 156.08776 93.700799 154.69622 93.718827 153.55083 C 93.717627 153.51723 93.699729 153.25473 93.692989 153.23561 L 93.692989 153.23509 L 93.692472 153.23509 z M 93.45321 157.12219 C 93.526316 157.26573 93.62423 157.40226 93.752934 157.53044 C 93.625269 157.40083 93.527245 157.26443 93.45321 157.12219 z M 111.22008 154.55956 C 111.23328 154.54226 111.06662 154.67437 110.67076 155.00139 C 110.18713 155.41521 110.17941 155.48157 109.93386 155.72073 C 109.82328 155.84181 109.71021 155.95284 109.59383 156.05404 C 109.71533 155.95397 109.83497 155.84669 109.9535 155.73313 C 110.19904 155.49397 110.43432 155.24211 110.68988 155.01379 C 111.01359 154.74369 111.20689 154.57687 111.22008 154.55956 z M 109.59383 156.05404 C 109.40227 156.2118 109.20618 156.35204 109.00368 156.47159 C 109.20829 156.35697 109.40499 156.21825 109.59383 156.05404 z M 109.00368 156.47159 C 108.9184 156.52194 108.82893 156.55949 108.74117 156.60233 C 108.82992 156.56253 108.91778 156.51971 109.00368 156.47159 z M 108.74117 156.60233 C 108.19215 156.84847 107.58869 156.93854 106.92422 156.9005 L 106.94283 156.91497 C 107.61784 156.99175 108.2029 156.86507 108.74117 156.60233 z M 111.05059 154.82259 L 111.05059 154.82311 L 111.05059 154.82362 L 111.05007 154.82414 C 111.04807 154.83714 111.04872 154.91998 111.05472 155.12697 C 111.03253 156.32203 110.24659 157.6968 110.83148 158.74845 C 110.26443 157.71021 111.0582 156.29764 111.07642 155.13782 C 111.07542 155.10422 111.0578 154.84225 111.0511 154.82311 L 111.0511 154.82259 L 111.05059 154.82259 z M 110.83148 158.74845 C 110.89738 158.86911 110.98179 158.98459 111.08779 159.09417 C 110.98254 158.98357 110.89806 158.86816 110.83148 158.74845 z M 111.08779 159.09417 C 111.0953 159.10205 111.10281 159.1101 111.11053 159.11794 L 111.11105 159.11794 C 111.10319 159.11011 111.09543 159.10205 111.08779 159.09417 z M 101.89094 155.38328 C 101.91732 155.40743 101.93917 155.43252 101.96794 155.45614 C 102.1228 155.56401 102.29167 155.64671 102.46196 155.72486 L 102.44284 155.70988 C 102.28667 155.63808 102.13097 155.566 101.98964 155.46545 C 101.9549 155.43842 101.92243 155.41118 101.89094 155.38328 z M 114.90927 155.70057 C 114.93579 155.72481 114.95687 155.75023 114.98575 155.77395 C 115.14061 155.88183 115.30947 155.964 115.47977 156.04215 L 115.46117 156.02717 C 115.305 155.95537 115.1493 155.88382 115.00797 155.78326 C 114.9731 155.75624 114.94086 155.72858 114.90927 155.70057 z M 67.763822 155.91555 C 67.919683 156.0383 68.133638 156.20301 68.416496 156.41733 C 68.284886 156.42233 68.159231 156.42339 68.038741 156.41939 L 67.763822 155.91555 z M 104.7104 156.46435 C 104.7236 156.44705 104.55746 156.57916 104.1616 156.90618 C 103.67797 157.32 103.67024 157.38637 103.42469 157.62552 C 103.31411 157.74661 103.20104 157.85763 103.08466 157.95883 C 103.20616 157.85876 103.3258 157.75148 103.44433 157.63792 C 103.68987 157.39876 103.92516 157.14691 104.18072 156.91859 C 104.50443 156.64849 104.69721 156.48166 104.7104 156.46435 z M 103.08466 157.95883 C 102.8931 158.1166 102.69702 158.25683 102.49452 158.37638 C 102.69913 158.26176 102.89582 158.12304 103.08466 157.95883 z M 102.49452 158.37638 C 102.40924 158.42673 102.31977 158.46428 102.232 158.50712 C 102.32076 158.46733 102.40861 158.4245 102.49452 158.37638 z M 102.232 158.50712 C 101.68299 158.75326 101.07901 158.84333 100.41454 158.80529 L 100.43366 158.81976 C 101.10867 158.89654 101.69374 158.76986 102.232 158.50712 z M 104.54091 156.72738 L 104.54091 156.7279 L 104.54091 156.72893 L 104.54039 156.72945 C 104.53839 156.74245 104.53956 156.82476 104.54556 157.03176 L 104.54556 157.03279 C 104.52354 158.21335 103.75629 159.56856 104.30164 160.615 C 103.77408 159.58051 104.54874 158.18876 104.56674 157.04313 C 104.56574 157.00953 104.54812 156.74704 104.54142 156.7279 L 104.54142 156.72738 L 104.54091 156.72738 z M 104.30164 160.615 C 104.37471 160.75828 104.47287 160.89477 104.60137 161.02273 C 104.47391 160.89334 104.37564 160.75698 104.30164 160.615 z M 115.40226 157.25293 C 115.62123 157.24293 115.0103 158.65543 113.79667 159.9799 L 112.87786 160.83669 C 114.04382 159.44815 111.65611 161.03708 113.78995 158.41617 C 113.15766 160.40194 115.24705 156.39663 114.70876 158.07201 C 115.08737 157.49618 115.31323 157.25701 115.40226 157.25293 z M 62.632353 157.41778 C 62.673945 157.94859 62.811799 158.39886 62.851978 158.43064 L 62.853011 158.43167 L 62.853528 158.43167 L 62.854045 158.43167 L 62.854561 158.43167 L 62.855078 158.43167 L 62.855595 158.43167 L 62.856628 158.43064 L 62.857145 158.43064 L 62.857662 158.43012 L 62.857662 158.42961 L 62.858179 158.42961 L 62.858179 158.42909 L 62.858695 158.42857 L 62.858695 158.42754 C 62.875275 158.39464 62.827219 158.10667 62.632353 157.41778 z M 47.389355 157.47308 L 45.378109 161.71054 C 46.757068 159.76848 47.101687 159.76806 47.618799 159.29725 C 48.12035 158.84061 49.216253 160.81952 49.281746 160.93901 L 47.389355 157.47308 z M 93.831482 157.60485 C 93.858262 157.62925 93.879927 157.65485 93.908997 157.67875 C 94.063859 157.78662 94.232216 157.8688 94.402507 157.94695 L 94.383903 157.93248 C 94.227738 157.86068 94.072031 157.7886 93.930701 157.68805 C 93.895621 157.66085 93.863272 157.63305 93.831482 157.60485 z M 74.212524 158.9009 L 72.201794 163.13836 C 73.580752 161.1963 73.924857 161.19588 74.441968 160.72507 C 74.94352 160.26843 76.039423 162.24786 76.104915 162.36735 L 74.212524 158.9009 z M 59.725553 159.30862 C 59.709823 159.33362 59.781437 159.95427 59.905387 161.57412 C 60.049927 163.26414 60.028735 164.96671 59.959131 166.67458 C 60.779508 162.78037 63.513157 157.84507 60.641777 162.12705 C 60.024423 160.81769 59.766379 159.36433 59.72762 159.31017 L 59.727104 159.30966 L 59.726587 159.30862 L 59.72607 159.30862 L 59.725553 159.30862 z M 59.959131 166.67458 C 59.7494 167.67015 59.664382 168.59769 59.830457 169.28579 C 59.875397 168.41468 59.923698 167.54394 59.959131 166.67458 z M 59.830457 169.28579 C 59.678355 172.23441 59.560796 175.18744 60.07902 178.10747 C 60.192984 179.90902 60.12476 171.16985 59.976184 169.69869 C 59.915034 169.57344 59.86659 169.43548 59.830457 169.28579 z M 97.891699 159.63935 C 97.904889 159.62205 97.73824 159.75364 97.342379 160.08067 C 96.858748 160.49449 96.851025 160.56084 96.605473 160.8 C 96.494898 160.92108 96.381823 161.03263 96.265442 161.13383 C 96.386947 161.03377 96.506583 160.92597 96.62511 160.81241 C 96.870657 160.57325 97.106462 160.32139 97.362016 160.09307 C 97.685731 159.82297 97.878507 159.65667 97.891699 159.63935 z M 96.265442 161.13383 C 96.07388 161.29159 95.877793 161.4313 95.675297 161.55086 C 95.879902 161.43623 96.076609 161.29805 96.265442 161.13383 z M 95.675297 161.55086 C 95.589515 161.60151 95.499523 161.63959 95.41123 161.68264 C 95.50051 161.64267 95.588904 161.59926 95.675297 161.55086 z M 95.41123 161.68264 C 94.862617 161.92826 94.259696 162.01827 93.595837 161.98029 L 93.614441 161.99425 C 94.288809 162.07095 94.873383 161.94484 95.41123 161.68264 z M 112.47169 159.74425 C 112.56159 159.74355 112.49877 159.98828 112.16473 160.67753 C 109.66011 164.31476 111.33765 160.50522 108.53291 164.3171 C 106.34209 165.99409 105.96045 165.59809 108.50294 164.03805 C 105.63857 165.18468 109.22638 163.33152 110.19017 161.71829 C 109.00982 162.72875 108.30238 163.20893 110.88367 160.6765 C 110.25981 162.3686 112.17806 159.74651 112.47169 159.74425 z M 97.722201 159.90238 L 97.722201 159.9029 L 97.722201 159.90342 L 97.721167 159.90393 C 97.718767 159.91693 97.720051 159.99977 97.726851 160.20676 C 97.704948 161.38714 96.937693 162.74247 97.482422 163.78897 C 96.955535 162.75454 97.73001 161.36352 97.748039 160.21813 C 97.746839 160.18453 97.729457 159.92203 97.722717 159.9029 L 97.722717 159.90238 L 97.722201 159.90238 z M 97.482422 163.78897 C 97.555526 163.93249 97.653965 164.06956 97.782662 164.19773 C 97.655004 164.06814 97.556455 163.9312 97.482422 163.78897 z M 104.68043 161.09818 C 104.70681 161.12232 104.72866 161.14741 104.75743 161.17104 C 104.91229 161.27891 105.08117 161.36109 105.25146 161.43924 L 105.23234 161.42426 C 105.07617 161.35246 104.92046 161.28089 104.77913 161.18034 C 104.74439 161.15332 104.71192 161.12608 104.68043 161.09818 z M 52.696008 162.18493 C 52.677125 162.18782 52.65917 162.20558 52.643298 162.23868 C 52.670778 162.22228 52.696556 162.20587 52.720296 162.18907 C 52.713296 162.18607 52.706386 162.18393 52.699626 162.18493 C 52.698357 162.18499 52.697267 162.18474 52.696008 162.18493 z M 111.53273 162.39112 C 110.62548 165.9533 110.12445 162.81079 110.03359 166.00951 C 108.81361 165.6024 109.66359 163.71739 111.53273 162.39112 z M 79.60186 163.32491 C 79.425018 163.79412 79.369896 164.2524 79.51711 164.63801 C 79.60058 164.27422 79.5882 163.81457 79.60186 163.32491 z M 106.84619 163.69233 L 106.84619 163.69285 C 107.50875 163.69985 105.34032 166.79643 103.82415 167.03787 C 103.56184 167.60539 102.37871 167.87835 102.86401 167.03218 C 105.48945 165.68439 102.61375 167.11412 105.23027 164.8256 C 106.13392 164.003 106.63445 163.68996 106.84619 163.69233 z M 83.66311 164.10264 L 80.403878 170.28211 C 81.782836 168.34005 82.12694 168.33963 82.644051 167.86882 C 83.145603 167.41218 84.241507 169.39161 84.306999 169.5111 L 83.66311 164.10264 z M 97.860693 164.27214 C 97.887473 164.29654 97.909138 164.32162 97.938208 164.34552 C 98.093069 164.4534 98.261944 164.53609 98.432235 164.61424 L 98.413114 164.59926 C 98.25695 164.52746 98.101242 164.45539 97.959912 164.35483 C 97.924832 164.32763 97.892483 164.30034 97.860693 164.27214 z M 108.2027 164.94342 C 108.40133 164.93542 107.6363 166.35973 106.53665 167.49779 C 106.2391 168.209 104.72946 168.84094 106.04159 167.80578 C 103.84987 168.5724 107.20279 165.26353 106.84722 166.61515 C 107.67625 165.40432 108.09128 164.9483 108.2027 164.94342 z M 55.758354 165.40954 L 53.747107 169.64753 C 55.126065 167.70547 55.470686 167.70505 55.987797 167.23424 C 56.489349 166.77762 57.585252 168.7565 57.650745 168.876 L 55.758354 165.40954 z M 102.98183 165.44365 C 102.98583 165.44331 102.98961 165.44359 102.99371 165.44365 C 103.51458 165.45065 101.66316 168.96054 98.351619 170.00099 C 97.527074 169.79325 98.393893 169.03024 98.613102 168.97108 C 98.92828 168.38286 100.77642 167.73957 102.18188 166.14231 C 102.58779 165.66182 102.85087 165.4544 102.98183 165.44365 z M 65.367069 165.64984 L 63.355823 171.55232 C 64.734781 168.84736 65.079402 168.84653 65.596513 168.19077 C 66.098065 167.55476 67.193966 170.66129 67.25946 170.78079 L 65.367069 165.64984 z M 76.334875 167.15517 C 76.88714 167.16217 76.916447 169.64673 74.590796 171.46085 C 74.23843 172.06776 75.03899 169.26548 75.364392 169.28372 C 75.670285 167.73898 76.065163 167.15161 76.334875 167.15517 z M 89.58988 167.49159 C 89.64032 167.79305 89.688406 168.14181 89.71132 168.48842 C 89.868508 168.18249 89.867146 167.84399 89.58988 167.49159 z M 97.192517 168.5556 C 97.803946 168.5369 96.487713 170.85258 94.28055 171.56782 C 93.788262 172.0102 92.939073 171.96944 92.369556 171.73009 C 87.614816 169.79116 95.787079 171.9538 92.815523 171.19058 C 89.410942 169.74019 93.310331 170.53449 92.998975 170.32707 C 96.27528 169.26392 92.71561 171.14967 95.308911 170.12398 C 96.332299 168.98744 96.934359 168.56352 97.192517 168.5556 z M 36.170919 168.77006 C 36.020302 168.93528 36.034372 169.05312 36.340417 169.02069 C 36.285497 168.91341 36.228948 168.83118 36.170919 168.77006 z M 33.479093 169.3168 C 33.469393 169.3797 33.458844 169.44154 33.447054 169.5018 C 33.473764 169.4731 33.500699 169.44422 33.527669 169.41602 C 33.511519 169.38472 33.495063 169.3518 33.479093 169.3168 z M 33.447054 169.5018 C 32.756803 170.24247 32.155152 171.14505 31.62701 172.09699 C 28.377127 172.48047 31.13663 175.20499 29.494324 177.57986 C 30.103598 176.8573 30.590233 176.00217 30.437419 175.06373 C 28.851742 172.27188 32.774175 172.94102 33.447054 169.5018 z M 29.494324 177.57986 C 29.248515 177.87137 28.98239 178.14146 28.730546 178.38653 C 29.05478 178.12517 29.304213 177.85476 29.494324 177.57986 z M 28.730546 178.38653 C 28.654106 178.44813 28.573704 178.5094 28.4887 178.56998 C 24.926496 180.65293 30.665031 179.02768 28.598771 182.21058 C 26.007788 184.21811 28.97174 184.24278 28.013794 185.89821 C 28.352314 185.46648 28.732559 185.01598 28.988411 184.61147 C 26.033158 184.35464 29.561736 182.15918 29.542383 179.86551 C 26.688019 180.12979 27.558143 179.52737 28.730546 178.38653 z M 28.013794 185.89821 C 27.877618 186.07188 27.74822 186.24281 27.636556 186.40619 C 27.80138 186.22088 27.924606 186.05234 28.013794 185.89821 z M 27.636556 186.40619 C 27.563816 186.48799 27.482784 186.5728 27.39316 186.66147 C 27.39359 186.71547 27.39222 186.768 27.389543 186.81857 C 27.453033 186.68867 27.538096 186.55025 27.636556 186.40619 z M 27.389543 186.81857 C 27.286873 187.02859 27.239784 187.21621 27.279472 187.36944 C 27.340557 187.21045 27.378302 187.02867 27.389543 186.81857 z M 27.279472 187.36944 C 26.664867 188.96848 23.7015 188.25418 21.859648 190.68759 C 20.289793 191.15707 20.102923 193.84512 20.332092 195.87228 C 20.384852 193.86359 21.249218 190.55683 22.799642 190.06902 C 25.573521 187.34847 25.80472 192.41174 23.890531 191.86839 C 23.291194 193.5066 22.117718 190.99138 21.054529 195.20772 C 21.782535 194.04939 22.05798 193.5849 22.088574 193.55459 L 22.089091 193.55408 L 22.089608 193.55356 L 22.090125 193.55356 L 22.090641 193.55356 L 22.090641 193.55408 C 22.087141 193.61898 20.76735 196.06662 20.989933 197.33317 C 20.829868 197.44908 20.699977 197.44481 20.598743 197.34661 C 20.904686 198.4868 21.303174 198.70933 21.313944 196.58128 C 20.992249 192.28619 27.296862 192.59078 25.527124 191.1351 C 24.724572 188.47044 23.800305 188.18321 26.976131 189.93466 C 25.201766 188.46938 28.014843 189.3145 27.333215 188.6443 C 30.913705 188.2359 26.609374 188.45543 27.598832 187.68208 C 27.413732 187.60899 27.313851 187.50208 27.279472 187.36944 z M 20.598743 197.34661 C 20.491551 196.94712 20.395741 196.4353 20.332092 195.87228 C 20.313032 196.59782 20.399951 197.15376 20.598743 197.34661 z M 99.753084 169.78395 C 100.09791 169.77695 97.874146 171.77925 96.427706 172.38483 C 94.998977 172.92622 96.508519 172.05965 97.044206 171.77298 C 96.307239 172.07303 98.165827 169.83739 97.967664 170.92032 C 99.089724 170.09745 99.61815 169.78692 99.753084 169.78395 z M 101.33438 169.80101 C 101.83902 169.80033 99.593434 171.86638 100.78455 173.41577 C 100.12866 172.71195 100.21315 173.17398 98.673564 173.05197 C 99.04 172.89075 100.50438 172.10033 100.73132 170.03045 C 101.05268 169.87219 101.24093 169.80113 101.33438 169.80101 z M 133.07973 170.0568 C 133.00063 170.18198 132.91597 170.33116 132.82497 170.50846 C 132.94372 170.35153 133.02692 170.20191 133.07973 170.0568 z M 112.70527 171.13632 C 112.40093 171.17412 112.0839 171.2828 111.75855 171.47119 C 112.16416 171.40679 112.50197 171.30151 112.70527 171.13632 z M 111.75855 171.47119 C 110.26338 171.7087 107.84241 171.38875 107.80272 171.45155 C 107.80268 171.45171 107.80284 171.45277 107.80272 171.4531 L 107.80221 171.45362 L 107.80221 171.45465 L 107.80221 171.45517 L 107.80221 171.45568 L 107.80272 171.4562 L 107.80376 171.45672 C 107.82286 171.47482 107.95834 171.51344 108.24197 171.57919 C 106.04691 172.8496 107.23211 171.30949 103.84792 173.01321 C 106.64333 171.14758 103.77624 172.67273 102.99061 172.4365 C 103.34843 173.02395 103.70542 173.64312 102.97459 173.70258 L 102.97356 173.70258 L 102.99836 173.83797 C 102.99136 173.83897 102.98376 173.8411 102.97666 173.8421 C 102.98746 173.8607 102.99903 173.87955 103.00973 173.89895 L 102.99836 173.839 C 105.64531 173.34843 108.17482 171.60856 111.31724 171.77349 C 111.46588 171.65662 111.61304 171.55647 111.75855 171.47222 L 111.75855 171.47119 z M 76.212402 171.32133 C 76.453276 171.31533 75.513707 175.16697 76.949825 171.50271 C 78.102838 172.90854 74.109896 178.57897 75.862036 174.16508 C 75.063575 174.75629 73.807567 177.49662 73.966545 177.52146 C 72.580348 178.82765 73.640295 177.58724 73.684391 177.06051 C 76.595964 172.89986 71.132311 179.81458 74.184619 175.60737 C 73.587291 175.70637 73.253404 175.86167 73.213619 175.82751 C 73.167539 175.77701 73.647909 175.38083 74.724638 174.04467 C 75.412074 169.65848 75.367638 174.21084 76.117318 171.42313 C 76.158078 171.35653 76.188012 171.32543 76.209302 171.32236 C 76.209547 171.32232 76.210595 171.32191 76.210852 171.32184 C 76.211109 171.32177 76.212156 171.32189 76.212402 171.32184 L 76.212402 171.32133 z M 102.85005 171.35647 C 102.37404 171.37607 102.60862 171.80609 102.90431 172.29336 C 105.62834 171.57294 104.58201 171.96172 103.58696 171.48669 C 103.24642 171.38889 103.00872 171.34994 102.85005 171.35647 z M 102.90431 172.29336 C 102.87941 172.29936 102.85395 172.30671 102.82835 172.31351 C 102.85845 172.37361 102.91497 172.41322 102.99061 172.43599 C 102.96161 172.38839 102.93281 172.34029 102.90431 172.29336 z M 90.088558 171.8877 C 90.089658 171.88761 90.090659 171.8877 90.091659 171.8877 C 90.353421 171.8867 91.089345 174.58999 91.754089 172.20241 C 92.396888 175.26662 91.060602 173.41325 90.885409 174.28755 L 90.885409 174.28807 L 90.636328 174.471 C 90.946275 172.78463 87.090526 172.92822 89.993473 172.58068 C 89.987573 172.08076 90.022278 171.89375 90.088558 171.8877 z M 35.374068 172.27786 C 34.316419 172.23866 33.131947 172.99925 34.85627 172.54451 C 35.623527 172.0804 34.311113 174.55403 34.277494 174.98105 C 33.18729 176.11941 35.863812 181.33939 33.328198 179.26038 C 32.679513 177.08791 33.646028 185.27644 33.70957 180.20967 C 36.551207 181.52139 32.374294 174.23322 36.055164 175.26269 C 35.695926 173.49546 36.182751 173.76901 36.730058 173.64108 C 36.672198 173.63508 36.582832 173.45978 36.452555 173.01631 C 36.30948 172.47872 35.854818 172.29569 35.374068 172.27786 z M 36.730058 173.64108 C 36.736458 173.64168 36.743011 173.64043 36.748661 173.63643 C 36.742561 173.63743 36.736078 173.63908 36.730058 173.64108 z M 72.404883 173.24266 L 72.4054 173.24266 L 72.405916 173.24266 C 72.406436 173.24268 72.407017 173.24268 72.407467 173.24266 C 72.471437 173.23866 72.402165 173.48944 72.105676 174.1997 C 73.648684 178.50833 68.658088 178.38309 67.731266 180.56986 C 67.730891 181.74306 66.037721 181.39248 63.559428 183.50715 C 65.324824 180.13033 64.163426 181.82318 62.648889 183.13714 C 63.295667 183.04074 63.873619 183.78917 62.61685 185.87238 C 61.733978 184.97524 61.664184 184.21033 61.903198 183.71799 C 61.780495 183.80069 61.658054 183.87565 61.537329 183.94019 C 60.069127 183.73636 60.73218 179.94674 61.352844 180.06601 C 62.18821 181.29317 62.577903 178.79902 64.240523 178.81906 C 64.669752 180.16924 65.927667 175.85023 65.516931 179.37665 C 67.983074 179.18785 64.69466 178.7937 66.334452 178.56171 C 65.69383 178.57171 67.273293 177.74361 68.338981 177.25688 C 68.265701 177.35518 68.18761 177.45715 68.10437 177.56332 C 68.892915 177.14919 69.203693 176.95973 69.21748 176.91892 L 69.21748 176.9184 L 69.21748 176.91788 C 69.217467 176.91747 69.217464 176.91721 69.21748 176.91685 L 69.21748 176.91582 L 69.216964 176.9153 L 69.216964 176.91478 L 69.216447 176.91427 L 69.216447 176.91323 L 69.216447 176.91272 L 69.21593 176.9122 L 69.215413 176.9122 L 69.214897 176.91168 L 69.21438 176.91168 C 69.214081 176.91154 69.212613 176.91129 69.212313 176.91117 C 69.164673 176.89877 68.80021 177.04519 68.340015 177.25533 C 69.953386 175.09243 69.255004 174.79918 70.883529 173.59716 C 70.251824 176.49027 72.164103 173.27914 72.404883 173.24266 z M 61.903198 183.71799 C 62.153831 183.54916 62.40584 183.348 62.648889 183.13714 C 62.362936 183.17974 62.063619 183.38753 61.903198 183.71799 z M 66.539091 174.57487 C 66.3716 174.81586 66.314624 174.95036 66.34117 175.00379 C 66.41028 174.86218 66.476164 174.71909 66.539091 174.57487 z M 121.46959 174.93403 L 119.45834 179.17149 C 120.8373 177.22943 121.18192 177.22901 121.69903 176.7582 C 122.20057 176.30157 123.29646 178.28093 123.36198 178.40048 L 121.46959 174.93403 z M 81.664783 175.17949 C 82.1236 175.67671 79.835033 175.47633 82.209969 177.11477 C 80.179473 176.43708 82.234887 176.27149 78.668583 176.54633 C 81.344082 175.38575 77.556313 175.4048 81.664783 175.17949 z M 77.205623 175.92208 C 77.82369 175.88868 74.962192 178.01331 76.679557 177.27238 C 74.919455 179.52748 75.399229 177.90341 73.999101 179.6588 C 71.704733 180.9175 76.035633 178.12881 75.664115 177.11529 C 72.359483 180.74436 76.10383 174.75803 76.452698 176.1939 C 76.856983 176.0078 77.091165 175.92826 77.205623 175.92208 z M 122.36359 176.33136 C 122.33299 176.34956 122.30097 176.36732 122.26747 176.38562 C 122.38539 176.56105 122.51563 176.71806 122.65143 176.86052 C 122.54412 176.68462 122.44653 176.50664 122.36359 176.33136 z M 122.65143 176.86052 C 123.11442 177.61955 123.76774 178.32349 124.29577 178.43769 C 120.18066 178.24697 125.38062 182.81699 126.48117 183.54952 C 128.48131 184.58907 123.57482 184.43784 123.82293 188.06707 C 123.44554 188.40734 123.82751 187.24845 123.80071 187.05938 C 123.06736 189.68937 120.68578 183.66589 119.94772 183.91694 C 119.50673 184.60028 119.3101 184.89799 119.25422 184.936 C 119.25392 184.9362 119.25347 184.93632 119.25319 184.93652 C 119.25364 184.93649 119.25378 184.93654 119.25422 184.93652 L 119.25525 184.93652 C 120.18505 184.88632 121.92553 189.9792 122.04113 187.83091 C 124.44421 188.41582 125.95447 189.08391 128.55649 188.78848 C 130.1014 187.10805 135.18678 185.78817 136.64747 189.64527 C 136.70157 192.3093 137.14011 191.98637 137.36371 190.78577 C 137.15878 191.1751 136.42448 188.43064 136.35447 188.19265 C 135.61735 187.27947 135.37453 186.98333 135.34678 186.97463 L 135.34626 186.97463 L 135.34574 186.97463 L 135.34523 186.97515 L 135.34471 186.97567 L 135.34471 186.9767 C 135.34971 187.0484 136.33899 188.45139 135.12095 187.41543 C 132.08328 184.58091 132.59774 188.29907 131.58732 185.79538 C 130.54788 185.63363 131.19193 187.88819 128.67173 187.97974 C 127.99509 187.10194 127.78867 186.7912 127.7705 186.77361 L 127.76998 186.7731 L 127.76946 186.7731 L 127.76843 186.7731 L 127.76843 186.77361 C 127.78143 186.81551 128.40992 187.85513 127.7028 187.99266 C 126.76013 188.63066 126.02997 187.89001 125.77217 187.1245 C 125.38094 188.08778 124.4151 189.09367 124.55777 186.36485 C 130.16154 183.43284 124.96202 183.94366 123.29428 179.218 C 125.64097 178.209 123.89633 178.16646 122.65143 176.86052 z M 125.77217 187.1245 C 125.96247 186.65595 126.01658 186.19755 125.74116 186.18398 C 125.63456 186.41489 125.65347 186.7723 125.77217 187.1245 z M 137.36371 190.78577 C 137.38791 190.73967 137.40437 190.64654 137.41177 190.5031 C 137.39757 190.6045 137.38071 190.69413 137.36371 190.78577 z M 137.41177 190.5031 C 137.55014 189.51456 137.54567 188.13276 137.12858 187.15188 C 137.2712 187.55184 137.33579 188.0295 137.29446 188.59882 C 137.39744 189.58193 137.42866 190.17786 137.41177 190.5031 z M 137.12858 187.15188 C 136.90215 186.51691 136.47895 186.07614 135.97051 185.76696 C 136.08227 185.89153 136.19329 186.02498 136.30331 186.16745 C 136.67457 186.36034 136.94209 186.71332 137.12858 187.15188 z M 135.97051 185.76696 C 133.24996 182.73589 130.01754 184.86261 127.0155 185.13289 C 126.01183 185.62114 129.64655 185.70883 130.73156 184.3996 C 128.39891 187.73246 133.35549 182.56627 132.20537 184.751 C 131.52609 185.18948 134.24159 184.71568 135.97051 185.76696 z M 119.25319 184.93652 C 119.24855 184.93679 119.24333 184.93725 119.23923 184.93755 L 119.23975 184.93807 L 119.24078 184.93858 L 119.2413 184.9391 L 119.24182 184.94013 L 119.24233 184.94013 L 119.24285 184.94013 C 119.24326 184.9401 119.24392 184.9401 119.24492 184.94013 C 119.24522 184.94014 119.24598 184.94015 119.24698 184.94013 L 119.2475 184.93962 C 119.24909 184.93908 119.25098 184.93802 119.25319 184.93652 z M 119.23923 184.93755 C 119.17773 184.84145 120.36537 182.3418 119.54309 181.36206 C 119.06562 181.64543 118.71143 181.8359 118.45634 181.94807 C 119.39945 181.76899 119.6824 183.75483 118.97672 185.16441 C 119.05302 185.0199 119.14132 184.94918 119.23923 184.93755 z M 118.45634 181.94807 C 118.37394 181.96367 118.28701 181.99585 118.19485 182.04625 C 118.26725 182.02565 118.35365 181.99317 118.45634 181.94807 z M 118.19485 182.04625 C 117.96282 182.11225 117.87798 182.05694 117.88583 181.91034 C 117.75594 182.23874 117.58753 182.55454 117.37578 182.85137 C 117.67921 182.43558 117.95354 182.17829 118.19485 182.04625 z M 117.88583 181.91034 C 117.95263 181.74162 118.00922 181.56981 118.05636 181.39565 C 117.95846 181.61576 117.89213 181.79246 117.88583 181.91034 z M 86.638639 176.44453 C 86.082763 177.74737 86.615805 181.65548 85.735335 178.87694 C 84.623037 178.63733 85.484542 177.50107 86.638639 176.44453 z M 84.746248 176.53238 C 85.15844 176.53145 84.140121 178.0617 82.808899 179.21903 C 80.962758 180.23461 83.708878 178.37413 83.578878 177.79483 C 82.743616 179.51493 80.372421 177.96861 83.192855 177.66202 C 84.076146 176.84982 84.558888 176.53281 84.746248 176.53238 z M 77.972502 178.58393 C 77.00551 178.61143 74.750344 181.38848 76.790145 181.67418 C 76.923653 181.85265 76.98992 181.9272 77.009253 181.93205 L 77.00977 181.93205 C 77.010041 181.93206 77.010567 181.93208 77.010803 181.93205 L 77.011837 181.93205 L 77.012354 181.93153 L 77.01287 181.93101 L 77.013387 181.93101 C 77.049267 181.84621 75.710617 179.65843 77.102271 181.5083 C 75.305207 179.09363 79.114092 179.46114 78.31925 178.81441 C 78.25447 178.6487 78.130737 178.57943 77.972502 178.58393 z M 72.314966 178.69452 C 72.388236 178.68652 72.30246 178.98878 71.934111 179.85569 C 71.04146 181.09539 72.571514 179.94241 71.614233 183.13197 C 71.849488 184.52976 69.632846 181.98627 69.149268 182.40644 C 68.603558 181.31746 69.881287 182.02705 70.677856 180.47839 C 70.575631 181.32664 72.104066 178.72012 72.314966 178.69452 z M 46.211133 179.37975 C 45.975681 179.41655 45.744743 179.44673 45.521769 179.46863 C 44.717265 179.99532 44.401542 180.3834 44.397807 180.70111 L 44.397807 180.70163 C 44.884949 180.16969 45.51581 179.75293 46.211133 179.37975 z M 54.897424 179.47742 C 54.891124 179.47942 54.886355 179.48407 54.882955 179.49137 C 54.887555 179.48637 54.892894 179.48172 54.897424 179.47742 z M 51.4165 180.40656 C 51.221671 180.5673 51.032483 180.80082 50.86873 181.1259 C 51.201191 180.84614 51.352892 180.61019 51.4165 180.40656 z M 57.90861 181.55533 C 57.89116 181.64673 57.897403 181.74733 57.922563 181.8535 C 57.922033 181.7632 57.91723 181.66378 57.90861 181.55533 z M 45.341418 182.01525 C 45.916628 182.00925 45.799201 184.05083 46.955273 184.90964 C 45.902803 185.37073 46.964516 190.1706 45.720723 189.61633 C 45.894341 192.33865 46.950716 193.49457 50.09565 194.79018 C 46.265997 195.0227 44.728027 191.56483 44.124438 191.30874 C 42.362853 190.69296 43.19092 184.99584 43.874841 183.74486 C 42.920189 182.6385 46.08637 183.25884 44.562138 182.68911 C 44.924532 182.2104 45.165334 182.0172 45.341418 182.01525 z M 74.475041 182.11963 C 74.464851 182.12053 74.454982 182.1207 74.444552 182.1217 C 74.455682 182.12156 74.465551 182.12078 74.475041 182.11963 z M 66.346855 182.27001 C 66.981528 182.29451 67.208838 183.2755 65.465255 184.98044 C 64.894302 186.22732 64.744173 184.00613 64.862708 184.05905 C 65.113212 182.81046 65.85322 182.25098 66.346855 182.27001 z M 34.002576 182.47775 L 34.002576 182.47827 L 34.002059 182.47878 L 34.001542 182.47878 L 34.001025 182.47878 L 34.001025 182.4793 C 33.9996 182.47955 33.996836 182.48023 33.995341 182.48085 L 33.994824 182.48137 C 33.950244 182.51687 34.065946 182.86642 34.549312 183.78516 C 31.913417 181.87001 32.606396 186.42655 33.265153 185.54733 C 34.159004 189.4656 32.565067 183.70668 32.001147 188.26344 C 33.101837 187.54295 31.845604 190.62696 31.238403 189.08717 C 30.737011 187.37241 31.482877 190.69877 30.494263 190.25557 C 28.49209 185.83931 30.570837 193.1577 29.260746 189.92071 C 28.22189 189.32393 29.179227 190.93272 27.702185 191.70458 C 28.700862 191.69248 29.394966 192.1663 30.423466 190.80437 C 31.932371 191.41427 32.793271 190.508 32.916337 187.43662 C 35.334152 188.49873 32.937044 185.68274 33.454289 183.90867 C 35.523891 184.83298 34.172859 182.46771 34.002576 182.47775 z M 80.604899 182.93819 C 80.429249 182.94493 80.238286 182.95959 80.041109 182.98625 C 81.09229 183.08044 81.519345 183.0619 81.555745 183.02294 L 81.556262 183.02242 L 81.556262 183.0219 L 81.556779 183.0219 L 81.557296 183.02087 L 81.557296 183.02035 C 81.557328 183.01932 81.557263 183.018 81.557296 183.01725 C 81.557246 183.01652 81.557019 183.01515 81.556779 183.01415 C 81.524338 182.97251 81.13185 182.91797 80.604899 182.93819 z M 80.041109 182.98625 C 80.040103 182.98616 80.039016 182.98634 80.038009 182.98625 L 80.038009 182.98676 C 80.039016 182.98663 80.040102 182.98638 80.041109 182.98625 z M 80.038009 182.98625 C 79.949889 182.97825 79.857519 182.96929 79.760506 182.95989 C 79.727856 182.99069 79.696119 183.02081 79.665938 183.04981 C 79.791091 183.02371 79.915914 183.00285 80.038009 182.98625 z M 72.559912 183.77018 C 72.461292 183.77718 72.370792 183.79409 72.291195 183.81669 C 72.337505 183.87359 72.42356 183.86638 72.559912 183.77018 z M 98.223462 184.7758 L 96.212215 189.01327 C 97.591173 187.07121 97.935794 187.07079 98.452905 186.59998 C 98.954458 186.14334 100.05035 188.12276 100.11585 188.24226 L 98.223462 184.7758 z M 54.558427 185.47602 C 54.183542 185.47002 54.148455 186.21856 55.036434 188.3978 C 54.775178 186.39062 55.600121 186.27426 56.488542 188.86289 C 56.973055 187.8925 55.226703 185.48603 54.558427 185.47602 z M 71.133126 186.71108 C 70.894697 187.3198 70.661872 187.95088 70.392086 188.57195 C 70.721608 187.94523 70.978271 187.3113 71.133126 186.71108 z M 65.814587 187.28211 C 65.173318 187.62676 65.144894 187.99379 65.153646 188.296 C 65.457383 187.95053 65.728369 187.7145 65.963932 187.57356 C 65.926372 187.52316 65.876898 187.42939 65.814587 187.28211 z M 65.963932 187.57356 C 66.024202 187.65446 66.05405 187.62295 66.0585 187.52085 C 66.02762 187.53655 65.996162 187.55436 65.963932 187.57356 z M 26.765291 190.64573 C 26.196256 190.65893 25.351134 191.37956 26.411825 192.04926 C 26.563655 191.96796 26.708066 191.90432 26.846423 191.85547 C 27.414752 190.95908 27.154631 190.63669 26.765291 190.64573 z M 26.846423 191.85547 C 26.815623 191.90407 26.781951 191.95437 26.746171 192.00637 C 27.145014 191.93837 27.45733 191.83304 27.702185 191.70509 C 27.441481 191.70909 27.159943 191.74472 26.846423 191.85547 z M 75.84705 191.20383 C 75.61681 191.54192 75.439886 191.81273 75.310649 192.02394 C 75.612693 191.73771 75.812209 191.45986 75.84705 191.20383 z " /></svg>
