<svg xmlns="http://www.w3.org/2000/svg" xml:space="preserve" width="578.37" height="230mm" viewBox="0 0 153.03 230"><path d="M45.73 229.43c-.26-3.17-3.85 1.47-3.22-1.93-4.17 1.1 1.12-7.08 4.36-6.79 2.24-2.65 3.25-6.45 3.3-11.28a36.5 36.5 0 0 0 .65-18.16c-.34.92-3.64-2.39-2.53.9-1.67-1.63-3.52-2.89-3.49-1.77.5 1.73-1.23-.98-.9.75-.88 1.3-1.02 1.6-1.65 3.85-.6-2.03-.75 3.45-1.1 1.02-.75 2.63-1.45 3.1-2.2 5.48-.88.2-1.86 5.8-2.62 7.35-.09 2.04-.12 5.73-1.18 5.44-1.96 2.13-1.26 4.85-2.68 6.75-1.1-.08-1.22 5.85-5.46 4.71-3.69.6-6.78.05-9.04-.18-.07-2.17-2.42 1.65-1.23-1.8 2.03-6.06 10.3-3.03 11-10.46 1.02-5.16 2.18-10.37 2.67-15.67 0-4.6.55-9.83-.16-13.73-.7-1.12-1.7-2.77-2.1-1.64.28-1.3-.85-3.44-.86-2.03-.32-2.4-1.17-2.43-1.81-1.44.12-1.9-.26-4.56.3-.99.74-2.52-.2-1.71-.8-2.58-1.64 2.71-.75-2.19-1.87-1.22-1.2-1.27-2.39 3-5.02 2.62-1.27.75-4.69-.76-5.03-3.37-2.22-2.7 1.68 1.37-.81-2.33.26 1.62-2.97-3.03-2.38-5.32.54-2.3-.8-2.2.16-4.65-2.2.63.13-.71.2-1.21.33 1 .28-3.14-.1-1.76-.11.97-.8 2.59-.79.85 1.23-2-1.97-1.64.49-3.06-3.46.22.66-2.58.37-3.16-2.43-.38 2.47-2.34.85-3.22 2.02-.6-.93-3.9.36-3.85-.19-3.2-2.32-6.13-1.16-9.77 2.82 2.36 5.72 5.47 8.13 4.53.25-.02 1.8-.54 2.31-3.01.5.6 1.53-2.9 2.27.06.67-1.34 1.28-2.68.74-.3 1.43-.77 2.54-3.45 2.89-2.45 1.21-2.44 2.05-4.18 1.84-.19 1.47-2.88-.08 1.4 1.95-1.82.92-1.26 1.75-2.7.93-.29 2-2.19 3.2-5.01 2.49-.37.1.9 3.8-3.15 1.62.12 2.45-1.04 6.53-4.5 3.53-.2 2.16-.82 3.29-2.1 2.88-.83 3.15-1.73 3.48-1.38 1.16 1.07 2.12-.6 5.58-1.31 7.12-1.32-2.41 1.65-1.12 1.62-.93 1.71-1.45.95 5.07-1.1 1.68.48 2.53.4 8.97-2.32 3.7 1.05-2.23 1.75 3.15.3 2.03 1.2 2.49.05 6.26-.16 1.72 1.48-.6.52.28.47 2.48 1.02-3.89.44 2.32 1.34 2.97 1.65 4.33.11-4.79 2.04.74 2.19 2.64.24-.12.9 3.5 1.44 5.87.98-4.71.68.83 2.01-3.42-.74 5.13 2.71-.17 1.35.81 1.66 6.7 2.44 5.02 3.11-3.15.16-.3.74-1.04 1.2 2.95.96 1.7 2.13 5.82 1.61-4.37 2.32 7-.2 2.18 1.85 1.67.75 5.39-.74 4.8.23 1.58.18 6.55-2.48 4.05-.18 1.41-.51 7.21-.11 6.8.27-4.63.37 9.44 2.3 3.32 2.4 1.39.94 7.83 2.76 3.29 2.33 2.06 1 2.57 2.13 5.85 3.05-4.15-.58.9 1.82-1.03 1 1.21 1.05 6.5 3.59 1.81 2.2 1.67.97 1.52 1.63 2.77 2.73-1.36-.16 6.45 4.74.72 2.23 1.87 2.53 3.3 4.35 4.44 5.95-3.59-1.64 3.77 5.5 2.33 5.15-2.39-.72 5.73 5.43.67 2.7 1.13 1.31 2.23 3.18 1.21 2.59-1.76-1.87 2.12 2.5 2.44 2.77 2.67 1.92-.04.36.75 1.19 1.8 1.84 5.53 3.72 3.18 3.55 1.67 1.67 2.6 2.86 3.95 6.42-2.83-4.16-.85.02-1.04.1.89 1.68 1.67 7.44.17 3.61 1.19 1.89-.36 10.82-.53 5.34-.15 2.03-1.23 5.44-1.41 4.39-2.32 5.24-.85.1-1.5-2.72-.24 3.86-1.68-6.6-1.96-2.31-.49-1.92-3.23-5.55-.49-1.76-1.23-2.54-1.81-3.72-.92-3.4-1.29-2.58-.28.44-2.05-.91 1.09 2.04.55-.58 1.53 2.89a9.4 9.4 0 0 0-2.86-3c1.07 3.35-2.27-3.16-1.97-1.56-.72-1.42-2.69-3.9-1.15-.76-1.34-1.4-3.5-5.91-2.55-3.32-1.66-3.97-.14 1.69-1.64-1.92-.67-1.86-.97-3.85-.6-.6-1.26-2.39-2.04-4.82-.88-2.45.15-2.58-1.54-3.57-.78.03-1.21-3.96-1.6-4.37-1.54-1.93.34 1.83.97 4.8 3.1 7.15 3.35 1.63 4.44 4.44 4.41 7.2-.03 1.26.46 5.08-.25.36-.78-3.51.44-4.44-3.62-6.82-2.33-1.89-3.83-6.37-3.58-6.8-.9-2.86-.03-1.52-.64-4.4 1.52 2.44-1.51-5.4.95-1.67-.83-1.99-.78-3.99-1.12-5.3 2.66 3.99-.74-2.6.7-.42-.44-1.38-2.03-4.27.13-1.9-2.23-3.5-.13-.34-1.1-2.39-2.16-3.22 1.78.6-.98-3.03.39.95-1.28-2.26.01-1.08-1.03-1.63-3.76-4.18-1.98-2.7-.17-1.88 2.26 3.22.04-1.25-.35-1.21-.04-2-3.24-4.06 1.06 2.06 2.69 5.06.31 2.3 1.39 2.06 2.05 4.52.38 1.15-1.27-1.71-3.5-3.21-.96-1.78 1.36-.77-4.2-5.78-1.09-3.26-.38.43 3.94 2.5 3.43 3.03-.13-.86 1.28 0-.78-1.74-1.71-.78-5.04-2.57-4.94-3.23 3.46 1.75 1.14.14-.04-.55 3.45.65-1.84-1.3-.57-1.78 4.68 1.48-.57-1.48-2.88-.7-4.2 1.1 1.02-1.08 2.27-.28 2.93-1.2-5.34-1.56-6.86-.27 1.7-1-2.24-.6-2.1 0-1.97.04-5.51-.03-6.82.47-5.03.88 2.3.62.77.08 2.47.16-2.98 1.5 1.35.9 2.78-.92 2.42-.7.74-1.05 4.65-.5.81.89-1 1.31-2.9-.44-6.73.19-6.8.57 4.22 1.26-3.92-.75.1 1.26.76-.9 2.13 1.07-1.04 0-.88.75-.55-1.93-1.93-.77-2.55-.77-2.25.34-.65 1.5-2.92-2.5.35 2.88-.57.73-.72-1.13-3.68-3.5-3.44-1.46 1.67 1.61-.92.13.84 1.74.71 1.61 2.62 1.75.6 1.53-.92-.12-2.9-2.16-.41-.49-2.6-3.29-2.39.41-.7 1.3-4.66-3.1-.38 2.29.85 1.19 2.5 2.08-1.4-.15-1.74-.05-1.63-1.57-1.77.17-.93 1.56 2.17 3.65-2.63-3.03 0 2.1.82-.34 2 2.69-.1.33.76 1.76.1 2.13.74 3.12-1.27-.03 1.36 4.06-.51 3.4.63 1.41 1.78 3.59-.08.84.05 2.79-1.63.91-.62 3.6-.46.06 2.25 1.27.85-.17-.8-1.08 1.84.46 2.24.72 1.58 0-.1-1.12 1.51-.93-2.31-3.17.9-.35 1.38-1.2-.32-1.1 1-.34 2.63-.57-.83-.88-.13-3.22.4-1.66.18.73.08 2.7-1.3 2.36-.28.98-1.91 2.17-3.28 2.7-1.36 1.13-3.13.65-.56 2.21 2.18.61-.46-.96 1.4-.63 2.34-.12-.48-.86 2.6-1.23 1.47-1.15 1.95-2.35 3.01-2.47-.18-1.68 1.17.02 1.23-1.21 1.03-.35-.16-1.11.92-.94 1.13-1.76 3.03-2.06 4.81-3.37 1.57-1.92-1.03-1.65 1.4-2.1.58-.91-1.39-3.11.47-1.77 1.42-.29-1.92-2.17-1.43-1.78.44 1.72-3.7-.31-.09.27-1.03-2.36-3.29-1.26-1.9-2.25-.96 0-.17-.87-1.36-1.35 2.08.26.5.9 3.45 1.1-.78-.66-.78-1.46-1.5-2.24.55.28 2.14 1.3 2.67.96 2.16.37-1.91-2.3.71-1.04.62-.3 1.59-.1-.04-1.12 1.17.22 1.58-1.27-1.47-1.12 2.26 2.11-2.54-2.15.92-1.02-3.91-1 2.57-.36-.79.7 1.02.5 4.67-.93 1.63.35 2.08 1.31 1.67.93 3.04-.47-3.89.92.97-.48-2.7-.69 1.44-.42 2.99-.23 1.3-1.02-.47-.02-4.03-.05-1.8-.37.03.54 3.2-.9 1.6-.78 1.69-.52.34-.46 2.58-.82-3.14 1.48-.26 2.34-2 3.21 2.67.28 3.21-.08 1.79 1.59 3.18-.06-2.07.57-.38 1.94-2.14.95 4.24-.69.31.84 1.45 1.14-3.21-.42-.18 1.04-.11 1.73-.79-.01-.5 2.81 1.35 1.08 1.04 4.1.68 2.37-1.23-2.14.31 2.57.48 2.22.81 3.32-2.05 0-.04 3.12.25-2.38 1.5 2.7.28-.51-.49 3.1 1.5 6.37 1.46 7.08 1.14 2.27-1.29-.83-.35 3.08.55 4.04-3.42-7-1.22-1.66.23-3.23-1.88-7.55-1.1-1.93.52 2.66 1.97 6.87 1.81 4.33.79 2.83 2 3.79 3.03 5.91-1.9-5.83 1.26 3.25 2.88 1.78-1.36-.96 2.89.4 2.8.71 2.49.6 4.6 4.17.78 1.44-2.89-.63 2.08 2.51 3.05 2.67 1.15 1.18-5.42-2.89-1.7 0 2.06.07 3.41 2.78 5.55 3.57 1.74 2.69 2.16 1.89 2.55 2.99 1.22 1.88 1.5 9.9 1 4.8 0-.37-2.25-5.27-1.29-1.72 1.02 2.57.65 6.5 1.08 6.31-.86 2.35-.8 4.57.06 2.13.68-1.85 1.03-2.36.19.73-1.73.36-3.23 9-.96 3.07 1.02 2.14 1.2 1.48 1.92-1.76-.75-.87 1.85-1.18.76-3.74 1.92 1.92-1.35 4.88-.3 4.88-2.13 4.64.99-1.4.99 2.92.91.79 1.37-1.54 1.36-1.14.06-1.56-.32-3.18.74-3.83.8 1.2-.4 2.33-.16 4.23 1.46-2.7 1.59 1.39 2.6.9.3-2.75-1.33-4.3.16-3.5-.67-2.02-.04-1.86-1.25-5.02 1.51 3.22-3.19-11.69-.56-4.2-.73 1.11 2.78 6.62 1.3 5.97.2 2.41 2.88 7.4-1.42 7.95-1.5-.02-4.32.67-6.15.01-.19.67-2.45-.9-3-.6-1.37-4.78 5.22-6.14 3.23-11.17-.57-5.4-2.94-11.27-8.3-13.42-2.05-.48-4.74-4.2-5.49-3.5-2.75-2.65-4.22-6.11-5.28-7.16-.88-4.96-2.28.79-2.64-.05-.53-.74-1.16 1.24-1.74 1.7-.45 3.46-.8-1.08-1.24 2.86-1.26.59.77 7.02 3.35 8.7 1.25 2.61-1.05 4.05-1.82 6.46-.9 1.29-1.46 3.07-.5-.05-.58-.92 1.3.04 1.5-2.97-.76 1.47-1.31 1.58.11-1.13-1.33.56-1.31 2.29-2.83 4.19.22-.2-1.7 4.16-2.02 5.83-.21 1.9 1.45-2.08 1.85-3.72 1.67-2.03-.28 2.8-.61 2.56-1.07 3.23-2.01 4.6-2.81 7.06-1.52 1.35-6.77 1.76-8.05 1.24-2.49-.6-4.82.38-3.93-2.22 1.86-4.7 8.3-2.2 9.35-7.93 2.72-2.32 1.84-9.6 1.35-9.62 1.96 1.59 1.3 8.9 1.15 2.9-.8 4.29-3.05 9.23-6.2 11.67 6.33-2.14-5.56 1.13-2.65 2.15.21 1.67.42 1.72 1.4.36 1.1-1.77.6-2.22 2.65-2.2 2.27.41 5.32-6.63 2.6-1.16-.54 2.17-1.02 1.23-3.29 2.46-1.9 1.55 1.32 1 .2 2.1 1.08-.07 2.94.1 1.32-.51-.96-1 1.86-1.24 2.03-2.14 1.46-1.14 1.57-2.66 1.81-2.09.9-2.13 1.86-3.55 2.8-7.21-.08 2.89 1.09-.7 1.11-2.02 1.29-1.27-2.36.54.64-2.3-1.34-1.94-2.75-4.7-2.81-5.98-.43-1.06-.1-.72-1.45-.6.08.84.81.73 1.27 2.16-1.44-.09.78 3.26.45 4.26 1.92 1.61-1.55 6.89-1.69 5.67 1.43-2.18-1.49.95.45-2.58 1.37-2-2.03-5.36-1.96-5.83.96.56-2.61-3.24-2.1-3.63-1.69-.6-1.2-2.57-2.57-1.36-.73.53 1.91 2.27 1.6 2.4 1.59 1.97-.06-.64 2.06 1.85 1.65 2.03-3.88-2.98-3.8-3.24-1.06-1.82-3.46-5.7-2.25-6.99-1.31-4.96-1.24 3.02-.7 2.86.25.22 4.3 6.21 1.43 2.58-1.83-1.12-1.76-4.32-2.38-6.6-1.92 2.35.55-1.62-1.89.4 3.76-2.98.26-2.94-1.36-.03-.54 3.32 2.28-2.7 1.27.52-1.05.78-1.34 1.2-2.1.62-.99-.3-2.06.96-1.45 2.16-1.52-1.61-3.58-1.22-2.35.03-3.34-1.93.75 2.3-2.42.9 1.64 2.68-1.15 1.1-.53 3.23-1.04-1.14-.47 3.66-1.06 1.35-.52 2.8.07 1.87-1.15.95-1.26 1.06.88-1.79 1.38-1.31-.66-1.14-1.1-.69.09-1.17-.81-1.5-.13-1.86.75-2.73-2.46.36.89-.78.66-1.52-2.69-.23 1.4-1.01.58-1.66-1.6.88-.74-1.49.96-1.42-2.16-.37.24-1.67-.54-2.03 1.98-.03-.8-1.68.63-1.8-1.69-.23-2.92-3.1-.93-.6-1.96-2.62.83.01-1.44-3.25-.61-1.71 1.3-5.36-.02-6.06.64-.43.05-2.5.23-3.97.82-.3-1.65-3.42-.33-.08-.45 2.97-1.52-5.84-1.43-.82-.3-1.39.18-3.24.72-.86.6-2.38.63-6.29 1.43-2.66.36.6-.33-3.59.48-.58.43-1.74-1.16-4.44.38-1.66.06-1.83-.73-4.57.64-1.25.4-2.04-1.57-6.85.09-2.38 1.72 4.46-.18-3.57.91-1.7-.01-1.02 1.61 3.83.55 0-.1-2.31-1.6-4.64.8-2.22-.46-2.15-4.1-6.97-.73-3.56-2.17-2.53-1.46-2.7-2.59-4.1-3.68-3.78.6.5-.4 1.04-.86-.45 1.04 2.7.98 2.76-1.87-3.26-1.05 1.14.06 2.02 1.14 1.4-1.53-2.43-.84.17.04-1.46-1.53-3.39-1.19-4.54-1.58-1.3 1.64-.17-1.67-2.1-1.43-1.68 3.71 2.82.76-.61.5-.6-2.53-1.68-1.61-1.97-4.53-.96 2.4-.91-2.55-1.34-1.42-1.07 4.46.6 2.22-.8 1.65 1.04 3.37 2.38.79-.32-1.94-.66-4.02-.32-1.04.14-2.93-.41-4.83-.89-2.54.46-.65-.2-4.83-2.15-4.7-.84.75-.07 3.37.47 1.29 1.28.24 1.4 1.04 1.71 3.66.83a36 36 0 0 1-6.15 1.55c-.26 1.21 5.44-.28 1.93 1.52.69.73-2.62-1.18.22.63 2.23 2.26-2.27-1.41-.29.99-1.92.4 2.5 2.23-1.97 1.36 1.43 1.57.47.64.2 1.91-.26.52 1.75 1.75-.28 1.63 1.45 1.78.75 5.86.66 3.86 1.32.81-2.22-7.3-.97-2.42-.85.6-.56 1.39-1.26.54.05.86.38 2.8-.71.58.4.49.68 4.02-.2 1.98-.26 1.9.93 8.3 1.6 3.16-.45 3.75-.67 2.34-1.48 1.79-.16-3.93-2.02-.1-2.11 1.51-.35.68-1.44 3.53-.7 1.95-.03.65-1.05 5.42.37 1.06.25-1.04.18-2.85 1.01-2.94.1 1.27-.4 3.93.59 1.37-.66 3.92-1.04-2.25-1.64 2.26-.06 2.14-.58 4.12.32 3.34-.1 4.33 1.7-3.1.72 1-.1 2.2.34 2.2.75 1.5.53 1.97-1.07.26-1.05-.81-.5 1.1-.99-3.34-.4.12-1.2-1.62-1.89-3.58-2.35-.45-.34.91.2 3.81.8 2.14-.77-2.6.74 1.45.77.25-.73 1.04 2.01 4.5 1.44 2.24.93 2.71.92.22 1.82 3.03-2.05-2.15-2.08-1.34-1.27-.06-1.82-.47 1.53 1.13 1.26 2.25.46-.51 1.5.16 2.23.5-.54-.75 2.07.34 2.34.2-.08 4.05-5.44-3.12-1.98 1.25.6 2.58 3.63-2.68 1.65.8-.05 1.2-.42 5.74-.55 7.41-.35-2.16.04-5.06-.77-5.37-1.02 4.17 1 7.44.1 11.64-.34 4.45-1.74 10.38-1.27 12.35-.48-.53-1.01 4.85-2.77 6.8-3.82 5.06 4-4.37.53.4-1.74 1.4-5.13 2.2-4.78 4.9 2.5-2.48 1.11 4 2.61-.9.53-1.59 5.78-6.13 3.11-2.56-1.61.51-4.08 4.76-1.84 3.49 1 1.3-.06 2.59 1.19 1.8 2.03.18.67-3.09 1.97-3.62.25-.84 2.1-2.1 2.1-1.33-.73.6-3.04 4.94-.77 2.98.96.98.13 1.7 1.63 1.96 1.11.27 1.26-.07.85-1.67-.79-.73-.88-1.45 1-.72.95-.43-1.3-1-.56-1.5 1.28.96-.02-3.8 1.03-.09-1.18-3.48.1-3.6.68-4.5-.62-1.12.9-2.04.1-2.58-.9 1.92.16-4.4-.76-1.03-1.45 5.42-.88.21.36-2.56 1.4.1.53-4.43.91-6.94.75-3.02 1.03-6.48 1.95-8.5.57.58-1.1 3.46-.67 4.9-.38 2.13-1.66 6.3-.74 5.47-1.56 2.29.6 7.27.57 2.8-.93-2.37 1.1 2.27.17-1.75-.24-2.37.76.52.46-3 .51-4.75-.02.42.44-.26.55-1.65.33-4.24 1.02-4.16-.23 1.74.34-3.21.7-.5-.21.05-.56 2.49-.64 2.9-.71-1.41-.9 3.78-1.45 4.07-.43 1.52 0 8.17-1.22 7.2-1.12 1.79-.45 6.23-1.23 6.78-1.3.69.54 5.6-2.28 6.67-3.85 1.55-3.69.24-7.73.62-.2.2-.25.95-.69.72zm2.24-1.5c-.12-.38-.25.37 0 0zm3.2-1.93c-1.07 1.85-.6 3.05 0 0zm-4.7.72c1.14-3.9-1.62 3.63 0 0zm-2.6-.95c0-1.85-1.58 3.92 0 0zm-1.99-.37c.82-1.98-1.86 3.32 0 0zm13.52-.03c-.34-.6.3 1.09 0 0zm-28.91-.43c.36.18 2.34-2.17.99-2.31.75-.05 1.24.28 1.87.08.24.22 1.72-3.49 1.37-4.05-1.87 1.85-.3.24.53-2.4.36-1.13-.26 3.3.32 1.62 0 .3.65.73 1.24-.68.64-1.3-.11-3.6 1-4.18 1.57-4.09-3.62 3.9-1.5.37 2.64-2.59 1.62-5.41 1.36-9.31.08-4.41.13 3.55.7 3.65.9-5.82-.15 2.89.13 4.42.72-.28 1.15-1.78 1.39-.74-.14-1.5.36-1.36.31-4.14.51 1.25.53-3.78 1.03-2.12.24-2.26 2.17-4.4 1.2-4.6.32.05-.22-3.27.7-4.25.59-4.94-.76 2.45-1.1-.33-1 2.14-2.13 4.67-2.58 5.88-.18-3.17 1.63-2.89 1.55-5.91.37-1.44.94-4.01-.19-5.1-.74-.9.6 1.1-.76.28.88 2.23-.78-.15-1.03 2.98-.2 2.19-2.1 9.16-.9 3.99-.92-3.64-.49-1.53.15-.9-.07-3.28-1.02-6.3-.33-7.49-.5-2-.58 1.4-1.23-1.83-1.17-1.16-1.24-.44-1.68-2.89-.71 3.93.16 8.48-.49 12.65-.06 4.57-1.87 8.95-1.92 13.47 1.07-1.77-3.08 7.37-2.68 6.46-2.43 1.59-3.3 3.08-.1 1 1.98-1.7-2.54 2.56-4.17 1.27-3.14 2.65-.52 1.78-1.3 4.35 1.16-.03 2-.5 2.47-1.6 1.68-2.51 6.03-2.5 6.54-6.66-1.02 4.3-3.3 4.55-5.37 6.21-1.26.74 1.45 1.4.2 2.72.9.21 2.05.38 2.28.1zm-.13-.48c.03-.95.3.5 0 0zm-.52-.38c.25-.38.12.38 0 0zm-4.22-.32c.25-.37.12.38 0 0zm4.93-.68c.62-.94-.34.93 0 0zm-.25-.15c.58-.86-.3.68 0 0zm2.8-.37c.24-.54.09.55 0 0zm-6.93-.24c.16-.49.36.17 0 0zm7.03-1.16c.11-.72.35-.23.02.1zm-.25-.1c.12-.39.25.36 0 0zm-1.75-2.15c.15-.28.04.45 0 0zm.91-1.5c.09-.48.09.46 0 0zm2.47-.71c.24-1.46.04 1.39 0 0zm-3.69.18c1.26-2.14 1.12-.97 0 0zm4.78-.78c.24-.55.09.55 0 0zm-3.7-.99c.62-1.14-.09.73 0 0zm1.75 0c.09-.47.09.47 0 0zm-1.11-1.25c.03-.69.37-.17 0 0zm.9-1.15c.1-.47.1.47 0 0zm-.84-.42c.4-.74-.1.74 0 0zm2.14.05c.15-.28.05.45 0 0zm-.8-.36c.24-.37.11.38 0 0zm3.86-.03c.35-.48-.12.46 0 0zm-5.07-.25c.13-1.1.37.48 0 0zm2.82-.2c.14-.27.04.45 0 0zm-2.22-.44c.58-2.88.35.2 0 0zm1.4-.27c.2-.52.32.38 0 0zm.81-.43c.31-.38.19.52 0 0zm.9-.17c.81-1.07-.32.93 0 0zm-3.29-.19c.08-.65.08.65 0 0zm.6.1c.09-.46.09.48 0 0zm3.1-.47c.15-.28.05.45 0 0zm2.51-.47c-.09-.69.77-3.8 0 0zm-5.83-.36c.3-.75.18.89 0 0zm3.23-1.98c.11-.5.06.63 0 0zm-3.43-.14c.16-.49.36.18 0 0zm6.83-.87c.26-2.64.93-.96 0 0zm-6.03-.64c.17-.34.58-.28 0 0zm4.82-.71c.18-1.3.34.67 0 0zm1.77-.8c.75-2.42-.2 1.22 0 0zm-1.55.09c-.01-.8.4-.21 0 0zm-.3-.21c.09-.47.09.47 0 0zm2.2-.1c.1-.48.1.46 0 0zm-1.71-.55c.3-.95.09.73 0 0zm1.8-.83c1.16-3.91 1.19-.92 0 0zm.95-.72c-.13-.51.45.44 0 0zm-2.66-.87c.21-1.15.12 1.13 0 0zm-.23.1c-.27-.77.37.48 0 0zm-.12-.48c-.13-.52.33.4 0 0zm-4.13-1.4c.15-.76.15.9 0 0zm6.26.01c-.13-.96.32.6 0 0zm-3.98-.47c.17-.55.15.38 0 0zm-.5-.27c.08-.55.23.55 0 0zm2.31-.11c.15-.28.04.45 0 0zm1.2-.05c.3-1 .3-.08 0 0zm-5.42-.61c-.31-1.86.5 1.11 0 0zm.58-.95c-.08-1.2.27.96 0 0zm3.54-.37c.15-.28.04.45 0 0zm.14-1.09c.11-.66.38.16 0 0zm-1.74-1.46c.09-.47.09.47 0 0zm2.4 0c.17-.54.15.4 0 0zm-3.1-.73c.09-.47.09.47 0 0zm-.01-2.16c.08-.67.4 0 0 0zm-1.5-.3c.14-.27.04.45 0 0zm1.26-1.9c0-.76.35.3 0 0zm-.57-.07c.08-.58.36-.14 0 0zm23.76 36.94c-.2.05.14.45 0 0zm-.77-.24c-.37-.97-.3.94 0 0zm-11.35-.8c3.72-4.58-2.23-.28-1.35.42.8-1.22.7 1.57 1.35-.42zm-22.53.54c-.12-.41-.36.4 0 0zm1.86-.64c2.18-3.06-2.03 2.22 0 0zm-1.97.31c.3-.63-.77.49 0 0zm-1.57-.97c1.61-2.52-2.44 2.93 0 0zm-2.22.44c2.95-3.86-1.4 1.24 0 0zm11.9.05c.34-.45-.66.54 0 0zm82.68-.63c.87-3.68-.9 2.19 0 0zm4.37.55c-.14-.4-.19.52 0 0zm2.02-1.59c-.54 1.97-.12 2.36 0 0zm-3.67.77c.1-2.54-.62 2.63 0 0zm-83.82-.07c.73-1.28-.37-3.57-.6.58.2-.2.32-.48.6-.58zm.07-.46c.24-.55.08.55 0 0zm78.95-.68c-.78 1.38-.19 1.8 0 0zm-90.13.37c1.52-1.74 3.73-4.07.07-1.72-2.52 1.3-.3 1.99-.07 1.72zm11.92.12c-.42-.63-.13 1.14 0 0zm88.94-.48c-.94-2.3.31 2.01 0 0zm-10.64-.66c1.46 1.27 2.65-4.91.2-1.3-.3.58-1.49 3.24-.2 1.3zm-30.47-.29c-.27-.19-.39.33 0 0zm-5.78-.8c.66-1.47-.83 1.33 0 0zm3.64-.21c.6-1.14-1.28 1.53 0 0zm2.57.29c-.33-.38-.3.58 0 0zm3.83-.32c-.38.16-.04.68 0 0zm-27.13-.08c-.16.14.15.69 0 0zm15.97-.68c.73-1.39-1.5 2.04 0 0zm11.61-.5c-.73-.33 0 2.48 0 0zm-9.92.7c.55-1.1-.78 1.06 0 0zm6.82-.15c-.72.24.08.3 0 0zm-48.54.04c-.23-.36-.29.2 0 0zm50.36-.3c-.2.06.15.46 0 0zm-1.14-.18c-.4-.74.1.74 0 0zm1.57 0c-.24-.37-.12.38 0 0zm-9.4-.26c1.35-1.74 3.35-3.55.08-1.25-2.35 2.4-.64 0-.08 1.25zm-.18-.08c.35-.49-.12.45 0 0zm8.55-.34c-.11-1.16-.4 1.2 0 0zm-48.64-.75c-.88-.68.26.72 0 0zm51.98-1.52c-.35-.43-.1 1.92 0 0zm-28.32.15c-.33-1.4-.02 1.4 0 0zm27.62 0c-.12-.75-.27 1.12 0 0zm-3.31-.13c-.36-.18-.16.48 0 0zm3.7-.07c-.26-2.02-.3.8 0 0zm43.07-.33c.06-1.5-.4 1.7 0 0zm-71.17-.8c2.98-4.87-2.07.4 0 0zm27.83.4c-.36-1.7.54.52 0 0zm43.72-.75c-.17-.36-.18 1.78 0 0zm.42.26c-.44.41-.2.76 0 0zm-.11-1.83c-.1-1.1-.45 2.84 0 0zm-72.46.81c-.4 0-.25.43 0 0zm73.46-.65c-.44.58-.16.94 0 0zm-1.68.2c-.27-.83.09 1.36 0 0zm-92.5.07c.57-1.86-1.13-.2 0 0zm22.63-.32c-.26-.38-.26.37 0 0zm69.73-.45c-.18.1.16.58 0 0zm2.03-.18c-.24-.24-.2 1.21 0 0zm-71.84.1c-.21-1.09-.06 1.1 0 0zm71.52-.12c-.2.05.14.46 0 0zm-1.79-1.07c-.63-1.18.39 2.13 0 0zm-92.47.44c-.18.1.16.57 0 0zm91.98-.12c-.17-.71-.31.56 0 0zm2.35-1.47c-.34-4.27-.21 4.53 0 0zm.51.88c.1-1.88-.63 1.75 0 0zm.95-1.68c1.55-2.16-2.84-8.98-1.35-7.66 1.12 1.11 2.68 5.22.95.74-.44-1.4-2.15-3.37-.64-2.4.5-.65-5.22-5.72-1.02-2.55 3.92 3.89-1.03-2.36-.86-2.36-3.76-2.7-2.91-1.17-6.22-3.57 1.2.24 7.83 3.5 4.06 1.2-.4-.23-3.08-3.19-3.06-2.6-1.94-1.77-3.12-1.99-.67 1.08-1.6-1.23-5.1-6.96-2.47-1.8 1.2 2.58.4 3.27 1.75 5.55-1.7-1.97 2.55 6.36-.18 1.7.8 4.03 1.52 3.03 1.2 2.12.9 2.32.97 1.94 1.72 2.78-.03-1.35-.96-1.81-.14-1.97-1.53-4.5 5.05 9.44 3.13 3.66-.76-1.62.52.57-.51-1.93.33-1.3-1.75-5.2-2.13-6.05 1.41.74-2.75-3.9.28-.47 1.32 2.55 3.48 5.87 4.4 9.5.52 2.29 1.98 5.77.88 1.04-.95-3.37 1.11 1.73.83 2.74-.32 1.69-.2 4.95.05 1.25zm-2.2-9.08c-2.19-3.38-.6-1.88 0 0zm-3.39-.73c-1.4-1.87.28-.12 0 0zm-2.15-.36c-.35-.45.66.53 0 0zm-.05-.78c-.28-1.07.38.59 0 0zm.2-.97c-3.32-4.52.68-1.2 0 0zm-.88-.54c-.62-.11.29-.23 0 0zm6.02-.3c-1.46-1.69 2.04 1.58 0 0zm-5.41-.92c-.58-1.46.7 1.1 0 0zm2.79-.2c-.71-.76 1.04.84 0 0zm.87-.34c-2.1-1.93 2.36 1.63 0 0zm-3.87-.43c-.22-.96.86.81 0 0zm4-.15c-.49-.7.78.71 0 0zm-1.76-.62c-.62-.63.9.66 0 0zm-3.05-.14c-.53-.7.75.54 0 0zm2.16-.36c-1.11-1.22 1.59 1.14 0 0zm-2.26-.55c-3.12-3.83 2.09 2.05 0 0zm.7.15c-.94-.83.55.03 0 0zm.35-.15c-1.55-1.65.67.36 0 0zm-.01-1.24c-1.68-1.87 1.43.28 0 0zm.75-.18c.22-.54.62.73 0 0zm.11-.28c-.34-.61.87.54 0 0zm-1.65-1.2c.3-.2.23.35 0 0zm4.72 19.96c-.3.02-2.42-4.93-.6-.39.28.42.5 2.22.6.39zm3.08-.91c-.07-2.62-1.5-4.96-.4-1.78-.42.4.6 4.36.4 1.78zm-43.33.34c.78-1.65-.88 1.41 0 0zm-2.1-1.27c-.65-.42-.44.94 0 0zm42.13.22c-.34-.4-.34.4 0 0zm-1.53-.49c-.4.2.02.58 0 0zm3.76-.5c-.63-4.39-1.24-1.18-.51-.25.16.6.31 1.85.51.25zm.07.25c-.2.05.14.45 0 0zm-.72-.09c-.12-.38-.25.37 0 0zm-17.39-.25c-.14-.9-.27.53 0 0zm16.8-.08c-.2.05.15.46 0 0zm-39.98-.14c-.14-.4-.18.53 0 0zm38.31-.39c-.18-1.1-.37.61 0 0zm.5.37c.63-.61-.7.1 0 0zm-39.01-.47c.05-.77-.52 1.56 0 0zm40.28-.73c-.15.19.15.91 0 0zm-70.64-.54c-.9 1.44.14.33 0 0zm33.2-.29c1.04-4.02-5.66-7.7-3.68-12.55.5-.32.99.26 1.15-2.2-1.66.58-1.25 2.94-2.02 2.76.13 1.48 1.01 1.59-.5 1.22.05.92-.48 2.96 1.07 4.29.1.27 1.02 1.73 1.71 3.16.86 1.3.84 2.66 1.86 2.54 1.81-2.87-1.02 3.49.41.78zm-3.33-5.51c-.13-.52.32.4 0 0zm-.34-2.8c-.48-1.59.55.5 0 0zm23.37 8.7c-.89-1.23.73 1.66 0 0zm1.01.54c-.82-.92-.81-.68 0 0zm14.27-.42c-.31-.97-.27.77 0 0zm6.2-.1c-.41-1.22-.28.56 0 0zm-21.9-.23c-.1-1.4-.87-.76 0 0zm-20.6-.27c-.5-.37.09.92 0 0zm36.59.28c-.35-.43-.47-.28 0 0zm2.26-.25c-.48-.46.48.77 0 0zm-44.8-.36c-.39-2.67-.07 1.92 0 0zm45.47 0c-.26-1.9-.82-1.88 0 0zm-71.32-.1c-.2.05.14.45 0 0zm31.5-.3c-.27-.18-.39.34 0 0zm21.03-.09c-1.18-1.39-1.18-.73 0 0zm12.02-.06c-.48-.81.33.9 0 0zm8.59.1c-.33-.41.11.51 0 0zm-72.87-.47c.25-.93-.56 1.2 0 0zm31.03.32c.7-.58-.81-1 0 0zm31.82-.81c-.5-.94-4-6.58-2.1-3.06.55.9 1.3 2.98 2.1 3.06zm.72-.5c.18-1.22-.5-1.52-.72-.35.09.27 1.02 1.56.72.35zm1.2.15c-.9-.98.85 1.44 0 0zm-64.47-.24c.03-.95-.48 1.3 0 0zm73.19.17c-.88-2.82-.39.65 0 0zm-5.37-.21c-.32-.85-.27.08 0 0zm-1.23-.23c-.52-.6.37.69 0 0zm-41.23.06c-.35-.42-.47-.28 0 0zm4.5-1c-2.4-3.7-.03.81.1.73zm36.86.66c-.36-.48.28.77 0 0zm3.26-.1c-.39-.48.16.73 0 0zm-5.33-.16c-.28 1.43-.08.7 0 0zm2.7-.22c-1.2-3.49-.95.05.1.36zm-41.03-.16c-1.14-1.04-.7-.1 0 0zm43.66-.34c-2.63-5.24-.33.49 0 0zm-9.16-.08c-2.15-3.27-2.86-2.89 0 0zm-32.35-.02c-.25-.37-.12.38 0 0zm-47.41-.22c-.2.04.14.45 0 0zm44.3.02c-.25-.38-.12.38 0 0zm2.9-.17c-.47-.33-.14.2 0 0zm-47.07-.26c-.32-.38-.19.53 0 0zm43.56-.1c-.12-.38-.25.38 0 0zm48.63-.13c-.69-2.5-.05 1.23 0 0zm-92.1-.15c-.3-.35-.26.58 0 0zm44.18.08c-.26-.38-.26.37 0 0zm-43.47-1.87c-1.22.2-.4 2.46 0 0zm21.25.85c-.17.14.15.69 0 0zm20.5.08c-1.33-1.47 1.16-.26-.84-1.19.1.31-.02 1.66.85 1.2zm36.95-.06c-.31-.37-.06.51 0 0zm-79.36-.14c.12-.86-.54.4 0 0zm63.37-.12c-1.6-2.38-1.74-.34 0 0zm-19.95-.05c-.35-.55-.23.56 0 0zm33.52-.02c.22-1.08-2.88-4.46-.43-.46l.41.64zm1.73-.27c-.42-.24.37.8 0 0zm-78.81-.31c-.46-.25-.48.43 0 0zm87.07-.03c-.7-.8.53.9 0 0zm-9.54-.1c-.33-.41.1.51 0 0zm1.02-.1c-.34-1.13 0 .96 0 0zm-16.52.08c-1.31-1.5 1.63-.66-1.55-1.5.5.5.94 1.13 1.55 1.5zm-62.43-.12c-.36-.52-.43.37 0 0zm87.23-.15c-.82-.92-.81-.68 0 0zM40.65 197c.24-1.97-1.05.1 0 0zm80.35-.1c-1.37-3.46-1.1.38 0 0zm-36.29.07c-.26-.37-.26.37 0 0zm36.64-.41c-.82-.95-.66-.29 0 0zm-41.86-.05c-.23-.36-.3.2 0 0zm2.51-.1c-.35-.43-.47-.28 0 0zm-42.56-.3c-.31.02-.03-.13 0 0zm40.22.08c-.26-.36-.02.48 0 0zm5.58-.07c-.55-.13.33.45 0 0zm-22.4-.17c-.45-1.54-1.47-.52 0 0zm18.07-.05c-.31-.25.3.56 0 0zm20.86.08c-1.25-.6.63.56 0 0zm-23.69-.26c-.54-.66.32.9 0 0zm5.5.08c-.2.05.14.46 0 0zm.36.03c-.73-1.17.17.82 0 0zM41 195.7c-.2.05.15.45 0 0zm40.09-.03c-1.02-.66.47.73 0 0zm40.14-.76c-.36-1.21-1.29-2.61-.74-3.47-1-2.05-.46-3.19-2.75-5.17-.46.22-1.84-2.97-1.71-.79-1.97-3.94-.54.94.3 3.53.37 2.7 1.7 1.76.5-.53.87.7.72-3.49 1.28 1.06.53 1.2-1.44-2.18-.55 1.46.54 3.67 1.7 2.9 1.13 1.58-.36-2.05-.23-3.83.33-1.81-.9.36 1.89 3.76.81 3.33.18-.33 1.36 3.26 1.4.81zm-2.8-1.96c.15-.28.05.45 0 0zm.77-2.84c-.55-1.04.7.78 0 0zm-.92-1.23c-.14-.69.44.62 0 0zm-1.77-.84c-.28-1.27.51.91 0 0zm-.38-.55c-.84-2.62.05-1.96 0 0zm-75.9 8.12c-.25-.37-.25.38 0 0zm1.23-.6c-.46-.92 0 1.65 0 0zm61.3.52c-1.29-.99-.37.13 0 0zm11.12-.54c-1-2.7.23 2.3 0 0zm-36.28.19c.65-.66-.79-.13 0 0zm36.86-.2c-.42-3.43-.94-.9 0 0zm.96.11c-.55-.65.31.9 0 0zm-13.62.09c-1.22-.06.44.32 0 0zm-21.82-.09c-.25-.37-.25.38 0 0zm2.51 0c-.38-.37-.26.39 0 0zm2.64-.64c-.53-.84.33 1.65 0 0zm29.65.41c-.2.05.15.46 0 0zm-17-.18c-.7-.99.53 1.06 0 0zm-19.4-.12c-.34-.55.3.93 0 0zm-38.35.17c-.23-.35-.3.2 0 0zm1.7-.05c-.25-.38-.25.37 0 0zm43.09-.23c-.38-.2.15.77 0 0zm13.53.24c1.58-.2-1.61-.7 0 0zm16.86-.13c-.3-.35-.27.49 0 0zm-51.52-.11c-.2.05.15.45 0 0zm17.14.07c-.88-.5.46.57 0 0zm33.97-.12c-.5-.4.19.66 0 0zm-32.81.01c-.31-.37-.06.51 0 0zm-18.87-.2c.05-.98-.88.22 0 0zm16.96 0c-.23-.35-.29.2 0 0zm-37.92-.29c-.4-.16.34.48 0 0zm34.3.13c-.86-1.23-.79 0 0 0zM35 193.72c-.2.05.15.45 0 0zm46.5.12c-.11-.38-.24.37 0 0zm15.66-.11c-.52-.59.29.7 0 0zm-20.2-.12c-.2.05.15.46 0 0zm41.08-.15c-.29-.58.26 1.05 0 0zm-30.87-.6c-.04-2.46-.36 2.75 0 0zm-23.88.67c-.12-.42-.6.49 0 0zm21.73-.26c-.17-.7-.31.57 0 0zm27.5-.05c-.24-.37-.12.38 0 0zm-77.44-.54c.1-1.24-.42-5.44-.25-2.18-1.01-.02.34 3.84.25 2.18zm3.08.2c-.4-.16.35.48 0 0zm2.5.13c-.41-.18-.4.34 0 0zm35.03-.53c-.08-2.72-.07-4.42-.27-.45-.55.14 1.06 1.7.27.45zm-33.26.2c-.2.04.15.45 0 0zm21.96.13c-.36-.17-.4.3 0 0zm11.95-.28c-.14-.74-.1 1.03 0 0zm.45.21c-.31-.37-.05.51 0 0zm2.3-.04c-.25-.38-.25.37 0 0zm-44.95-.56c-.48.06.43.84 0 0zm79.13.1c-.78-.98.1.98 0 0zm-.61-.36c-.5-1.92.15 2.09 0 0zm-32.34.27c-.4-.16.34.48 0 0zm-41.87.08c-.24-.35-.3.2 0 0zm78.36-.5c-.18.1.16.58 0 0zm-82.87-.4c-.34-.68.18 1.28 0 0zm34.06.3c-.57-1.69-2.6-.34 0 0zm-29.84-.32c-.42-.24.36.8 0 0zm5.2.2c-.16-.34-.57-.28 0 0zm73.22-.92c-.95-2.16.6 2.84 0 0zm-50.53.44c-.49-.5-.1.4 0 0zm46.89-.28c-.37-.48.27.77 0 0zm-24.3-.23c1.36-2.56-.56-1.89-.17.37zm27.5.24c-.31-.37-.06.51 0 0zm-80.74-.27c-.2.05.15.45 0 0zm52.07-.01c1.25-2.39-1.18.8 0 0zM66 190.4c.27-.91-1.02.47 0 0zm28.57-.17c-.37-.48.27.77 0 0zm-27.42-.3c-.72-.58.34.56 0 0zm1.8-.33c-.1-3.61-.44 1.55 0 0zm41.96.02c.38-2.54-.63-1.02 0 0zm-44.2.05c-.76-.72-.11.28 0 0zm3.35-.42c-.39.03-.71 1.2 0 0zm-1.5.3c-.08-.87-1.56.26 0 0zm47.02-1.2c-.9-1.11.67 3.27 0 0zm-27.75.84c-.53-.18-.53.32 0 0zm1.98-1.22c-.45-.06-.42 2.14 0 0zm26.23.87c-.26-.37-.26.37 0 0zm6.02-1.28c-1.98-1.92-2.64-3.5-1.02-2.03-1.44-1.6-5.2-6.22-.89-2.41.99 1.38-1.35-2.34-2.53-2.69-2.85-2.7 1.9 3.42.4 2.1-1.29.53 3.56 3.85 1.61 3.37.06.9 4.34 3.9 2.43 1.66zm-3.16-3.3c-1.14-2 .36-.62 0 0zm-.74-1.17c-.35-.87.54.66 0 0zm.75.1c.39-.14.22.3 0 0zm-.82-1.08c-.51-.42.82.44 0 0zm-48.18 6.31c-.12-.38-.24.37 0 0zm45.9-.65c-.8-3.59-.38 1.82 0 0zm-25.47.24c-.3-.28-.17-.17 0 0zm30.28-.17c-.4-.48.15.72 0 0zm-5.59-.28c-.23-1.33-.31 1 0 0zm-81.52.03c-1.1-.58-.44.51 0 0zm11.16.16c-.23-.36-.3.2 0 0zm24.16-.12c-.4-.22-.1.23 0 0zm5.9-.94c2.79-4.18-3.07 3.4 0 0zm-3.06.51c-.17-.34-.41.72 0 0zm-20.62-.1c-.39-.47.16.73 0 0zm24.55.1c.35-.45-.66.53 0 0zm15.74-.03c-.12-.38-.24.37 0 0zm-16.41-.1c0-.48-.27.34 0 0zm-2.52-.5c-.74-.05-.82 1.04 0 0zm-2.3.08c-.12-.4-.36.4 0 0zm43.69-.24c-.18.11.16.58 0 0zm4.6-.06c-.68-1.12.49 1.28 0 0zm-45.12.02c.8-.9-.97.83 0 0zm-1.47.01c.19-.86-.55.75 0 0zm43-.06c-.2.05.14.45 0 0zm4.54.11c-.94-4.27-2.51-1.33-1-.88.18-.42.61 1.43 1 .88zm-45.94-.74c.1-2.15 2.25-1.18 1.88-3.66-1.84.57-3.13 2.9-1.66 1.8-2 2.33-.31 1.57-.68 2.45.16-.19.41-.31.46-.59zm3.67.07c2.08-3.18-.06-2.33-1.45-.4.54 0 1.18-.16 1.56-.43-.2.12-.83 2.25-.11.83zm.36-1.5c.1-1.97.56.91 0 0zm-5.33 1.7c-.14-.4-.18.53 0 0zm21.2-.27c.22-1.44-1.18-6.53-.46-1.11-.1-.11.66 2.57.46 1.11zm-61.23-.25c-.47-.8.22 1.28 0 0zm37.98.27c-.03-.96-1.25-1.1-.23.2zm4.92.05c.18-.54-.53.5 0 0zm3.5-.03c-.1-.45-.34.56 0 0zm35.4-.3c-.36.28.23.84 0 0zm-82.36.18c-.19-.52-.32.38 0 0zm18.44-.13c-.2.05.14.46 0 0zm20.9.02c-.4-.4-.12.54 0 0zm1.4-.17c-.78-2.3-2.03-1.59-1.31-.62-.3.21 1.4 1.31 1.3.62zm-.69-.45c.18-.55.16.39 0 0zm-40.04.14c-.69-1.28.61 1.53 0 0zm12.77.32c-1.02-1-.53.25 0 0zm.83 0c-1.06-.62.41.57 0 0zm29.25-.06c-.36-.18-.15.48 0 0zm17.43.04c-.37-1.76-.02.85 0 0zm-16.63-.72c-.63.64-.74 1.44 0 0zm-34.82.41c-.37-.46.3.75 0 0zm10.88.13c-.88-.51.45.57 0 0zm62.67-.17c-.32-1.35-.6 1.21 0 0zm-71.17-.22c-.88-1.5 0 1.54 0 0zm71.7 0c.37-2.23-1.2-3.57-.25-.1l.14.42zm4.42.1c-.3-.25.3.56 0 0zm-49.02-.07c-.43-.66.22.7 0 0zm6.55-1.15c.05-1.52 2.34-2.1.9-2.97-1.7 1.8-3.08 5.57-.9 2.97zm-.6.1c.59-.86-.3.68 0 0zm41.6.45c-1.13-2.2 1.01-1.31-.65-3.22-1.95-1.23 1.06-.68-1.49-2.29.9 2.7.81 2.62.6 3.82-.02.47 2.05 3.5 1.54 1.69zm-.24.01c.15-.28.04.45 0 0zm-38.57.21c-.28.2-.13.47 0 0zm-33.6-.03c-1-1.32.06.75 0 0zm27.6.14c-.78-1.21-.32.2 0 0zm6.55-.09c1.9-2.78-1.07-.11 0 0zm-36.13-.12c-.35-.56-.06.57 0 0zM75 184.3c.1-.45-.49.58 0 0zm-31.25-.14c-.97-1.1-.69.12 0 0zm.6-.22c-.58-1.93-1.09.53 0 0zm-13.87-.22c-.95-2.69-.01.76 0 0zm10.37 0c.47-2.53-.02-3.07 1.28 0-.33-2.37.47-1.13-.48-3.64-1.69-2.65.16 3.55-1.58.34-.76 1.7-.76 2.34-.04 1.42-.1.13.94 2.81.82 1.88zm37.59-.09c1.63-2.37-1.3 1.05 0 0zm12.52-.44c.23.14.06-3.64-.51-5.07.72 4.48-.75.54-.63-.22.8 2.32.52-3.58-.32.08-1.51 3.71.8 3.37.95 4.65.24.28.58 2.18.51.56zm-.32-2c.11-.5.06.62 0 0zm-57.87 2.32c-.2.05.15.46 0 0zm9.8.07c-.32-.41.12.51 0 0zm70.84-.3c-.48-.93.2 1.27 0 0zm-75.27.17c-.87-1.38.23.75 0 0zm41.96-.16c.27-.67-.72.91 0 0zm-39.87.11c-.49-1.33-.94.43 0 0zm38.61-.84c1.32-2.01.92-3.66 1.48-2.65.86-3.15-1.88 2.32-1.5.94-.75-.34-1.03 4.3.02 1.71zm-36.3.6c.27-.52-.58.58 0 0zm34.93-.1c.71-.93-.94.94 0 0zm37.98-.24c.08-.5-1.43-5.65-1.58-3.78-.8-.24-1.27-2.17.04 1.35.5.63.83 3.13 1.54 2.43zm-83.53.06c-.4-.16.34.48 0 0zm37.27.13c-.5-.41.14.37 0 0zm.95 0c-2.18-2.1-.08.9 0 0zm-26.5-.87c-.65-.91.31 2.14 0 0zm36.72.6c-.28.2-.12.47 0 0zm-50.72-.36c-.83-1.69-.56-1.48 0 0zm38.1.48c-.48-.4-.58-.23 0 0zm-37.14-.14c-.32-.85-.27.08 0 0zm5.8-.57c-1.25-4.87-.14 2 0 0zm1.71.15c-.7-.87 1.3-4.83-.26-6.09-1.45 1.51-.7 5.44-.37 3.31-.42.38.46 3.8.63 2.78zm-.23-2.83c-.95-1.99.98 1.14 0 0zm-.59-1.71c.03-.94.3.51 0 0zm5.38 3.94c-1.08-1.34.93 2.39 0 0zm.49.66c-.31-.26.3.56 0 0zm25.48.13c-.25-.37-.12.38 0 0zm.4 0c-.49-.5-.1.4 0 0zm10.86-.97c.3.76 1.44-2.58.23-.9-.41.4-.52 2.71-.23.9zm32.37.63c-.2.05.15.46 0 0zm1.36-.2c-.18.32.23.55 0 0zm-67-.01c-.18.1.16.57 0 0zm17.3 0c-.7-2.08-.58-.69 0 0zm28.54-.13c-.09-.55-.24.55 0 0zm-46.03-.9c-.5-.1.46 1.74 0 0zm-16.7.25c-.5-1.02.17 1.02 0 0zm7.28.14c-.08-3.2-1.08-.14 0 0zm26-.27c-.56-1.9.27 1.7 0 0zm25.6.22c-1.01-1.88 1.67-3.36.13-5.21-.08 1.5-1.74.62-2.62 2.85-1.03.2 2.12 2.92 1.22.57.13-2.09 1.2 2.88 1.27 1.8zm-.5-2.16c.15-.28.04.45 0 0zm.45-.9c0-1.25.26.98 0 0zm2.59 2.79c-.5-.4.1 1.23 0 0zm-1.94.26c-.64-.95.18.72 0 0zm-7.1-.5c.5-1.86 2.96-4.01 1.94-1.8-.28 2.56 1.69-1.58 2.48-2.54 1.28-2.22-.97-1.04-2.02-.16-2 .6-1.93 2.05-1.24 1.4-.83 2.9-.87-3.04-2.32 1.08.03 1.5 2.73-2.58.72.92-.24.07-.64 2.59.43 1.1zm.22-.65c.07-.64.54.15 0 0zm2.86-2.03c.08-.58.36-.15 0 0zm-1.12-.54c.72-.91-.27.67 0 0zm1.33-.3c.42-1.89.13.77 0 0zm-.78-.06c.66-1.39.46.24 0 0zm-.12-.67c.14-.28.04.44 0 0zm27.46 4.62c-.2.05.15.46 0 0zm1.44-.03c-.43-1.06-.13.95 0 0zm-85.07-.83c-.7-4.66-.73 1.67 0 0zm1.82.76c-.2.05.15.45 0 0zm37.02-.09c-.68-.64.4.7 0 0zm1.84.07c-.46-.46.2.49 0 0zm23.55.05c.01-1.03-.57.34 0 0zm-14.46-.42c-.72.67.1.26 0 0zm-7.97.26c-.39-.34-.4.19 0 0zm45.16-.68c-1.42-3.2.03.98 0 0zm-51.88.08c.04-2.3.9-.48.94-1.6 1.1 3.07-.98-6.38-1.07-.6.1.21-.61 3.33.13 2.2zm.61-1.5c.15-.28.04.45 0 0zm6.01 1.73c-.4-.18-.39.34 0 0zm48.98-.17c-2.2-1.85-1.76-1.8-1.05-1.2-1.17-2.02-2.8-1.65-3-1.53 2.09 2.08 2.37 1.17 4.05 2.73zm-76.32-.06c.82-.06-1.36-5.13-.23-.73-1.16-2.85.31 1.76.23.73zm.9-.15c-.79-1.82.1 1.34 0 0zm21.1.15c-.2.05.14.46 0 0zm12.4.09c.03-.53-.61.39 0 0zm3.99.03c-.26-.37-.26.38 0 0zm-46.68-.33c-.56-.42.68.87 0 0zm34.93.22c-1.3-.88.13.67 0 0zm-29.4-.48c-.37-.46.3.75 0 0zm41.33.11c.25-1.48-.77.67 0 0zm-7.61-.2c-.58-.42.34.68 0 0zm38.98.11c-.43-.55-.01.54 0 0zm.58-.3c-.42-.23.37.81 0 0zm-74 .05c-.18-.53-.3.37 0 0zm40.06-.01c-.26-.37-.26.37 0 0zm32.67 0c-.12-.38-.25.37 0 0zm-30.2-.29c-.73.24.07.3 0 0zm-47.53-.74c.35-4.53-3-1.76-1.43.56.12-4.08.56-.62 1.5.03zm-1.5-.17c.11-.5.06.63 0 0zm7.01.94c-.08-.55-.24.55 0 0zm.66-.52c-.02-3.15-.31-3.56-1.28-2.48-1.04-.02.78 2.42.54 1.81-.05.21.58 2.35.74.67zm33.28.52c-.61-.81-.65.38 0 0zm39.2-.44c.03-3.27-1.75-2.4-1.06-1.13.06-.43.88 2.77 1.05 1.13zm-.76-1.13c.15-.28.04.45 0 0zm-77.6.64c-.29.08.29 1.2 0 0zm51.04.67c-.12-.38-.25.37 0 0zm-58.23-.17c.68-2.82-1.22.54 0 0zm8.83-.18c-.06-1.65-1.31.03 0 0zm43.83-.02c-.3-.37-.05.5 0 0zm5.88-.48c1.83.56 1.9-4.47 0-.22l-.46.81zm26.04.34c-.4-1.43-.28.9 0 0zm3-.04c-.49-.84.35 1.11 0 0zm-71.76-.39c-.14-2.54-.66 1.75 0 0zm71.37.59c-.34-.43-.47-.29 0 0zm-32.18-.23c-.14-.4-.19.53 0 0zm-47.48-.9c.45-4.36-.79 2.1 0 0zm39.71.7c-.34-.42-.47-.27 0 0zm-47.68-.53c-.3-.37-.05.51 0 0zm18.1-.38c-.69-.92.47 1.36 0 0zm68.82.3c-.58-.36.37.67 0 0zm-48.87-1.32c1.3 2.67.07-4.1.61-3.07 1.74 3.01-.59-2.56.22-2.75 1.67 2.19-.7-3.48-.53-3.9-1.35-.51 1.12 5.58-.85.83-.12 2.3-.8.72-.55 3.99-1.11-2.1.52 3.22-.47 2.72-.2-.22 1.78 5.85 1.57 2.18zm.2-.22c-1.25-3.3.24-.8 0 0zm-.74-2.2c-.16-.85.46.64 0 0zm-.37-1.54c-.42-1.19.71.76 0 0zm.8-1.15c.26-.37.26.37 0 0zm-.08-.47c-.49-1 .84-.64 0 0zm1.34-.04c0-.49.28.34 0 0zm-1.22-2.88c-.15-.92.33.58 0 0zm49.55 9.64c.23-2.43-4.1-6.14-1.6-1.73-1.32-3.68.97 2.44 1.6 1.73zm-88.14-.03c-.5-.02-.06.44 0 0zm9.81-.1c-.17.11.17.58 0 0zm80.9.05c-.49-.46.48.78 0 0zm-89.83-.14c-.2.05.15.45 0 0zm16.67-.17c.17-1.01-.5 1 0 0zm71.54.1c-.24-.31-.24.31 0 0zm-79.35-.3c.33-.84.82-4.94 1.01-4.04.87-.88.03-3.66-.87-3.06 1.02 1.6-1.64 1.07-.47 2.88.46.7 1.74-2.72 0 1.06-.38-1.57.25 4.64.33 3.16zm-.09-3.11c.15-.28.05.44 0 0zm.89-1.82c.1-1.96.42-.6 0 0zm-.62 4.98c-.2.05.14.46 0 0zm27 0c-.2.05.14.46 0 0zm-30.33-.52c.7-2.02-.8-3.9-.33-.01l.18.47zm1.54-.32c.7-1.9-.25-3.78.65-.82 1.22-4.48-1.4-3.25-.5-2.12-.8-2.11-.95 5.05-.15 2.94zm57.3.53c-.18.1.16.57 0 0zm23.48-.12c-1.48-1.98 3.27 2.28.54-.67-2.14-3.18-2.29.42-.37.95zm-33.5.08c1.6-1.53-1.45-.74 0 0zm29.29.04c-.2.05.14.46 0 0zM32 176.54c-.47-1-.38.75 0 0zm-14.3-.04c2.93-.62.55-.9 2.56-1.31.2-.29 1.93-1.59 1.74-1.94.13.2 1.28-1.97 2.27-1.9 1.4-.3 2.94-2.68 4.44-2.18-.78.83 2.3-.92-.16-.92 2.59-.01 1.25-2.38 4.25-.1 3.66 2.73 1.17-1.63.3-2.2 1.21-.3 4.07 1.26 2.77-.15 2.3 1.9 2.84 1.2.8-1.18 4.92 1.55-3.86-2.13 1.6-.6.13-.52 1.76.25.98-.55 4.73 2.45-2.44-3.57 1.32-1.43-2.63-1.73-.48-1.68-.83-2.2 4.84 1.5-1.88-2.47.6-1.67-4.36-1.44-.49-.9-.89-1.48-3.81-.82 5.71.52-.17-1.31-1.69-.64.93-1.03-2.28-1.07-2.08.52 1.5-.77-.13-.83 2.26-.47-2.57-1.23-1.15-1.61-2.33.95-1.76.03-.9-.66-1.24-.03-3.81.06-1.2-.6-2.97.11-2.12-.26-1.39-.55-3.35.3-1.27.05-1.6-.79-1.53.64-1.52-.96-2.9-.09 1.45-1.12-.85-.25-.21-.89-1.98.39-.24.2-1.2-1.43.78-3.48-3.25 3.51-1.82.51-.4.1.58-1.64 1.2-1.41-.73-1.08 1.36-.33 2.39-2.47 1.23-.87.5-2.2-.6-.86-.76.25-3.38-.34-.95-2.02-2.11 3.54 1.36-.5.1 1.57 1.26.19 1.17-.22 3-1-2.33 2.15 2.11-.04 1.39.53 2.18-2.86-.9 1.72 2-1.04 2.4-.22 4.67-5.76 6.53-2.99-.75.47.34 2.9-.17 4.22.8 2.14-.4 1.3.32 3.54 3.09-.63 1.56-.33.85.73 3.24.8-1.02-1.2 2.41-.12-2.52 1.9.56.78.45 2.07-3.15.38 1.63.72-1.83 1.52 3.48 1.17-2.23 1.17.03 2.05-.53-.08 4.3 1.55.99.4-2.9-.7-3.12 1.3.17 1.46-2.52-2.43 3.96 2.18-.82.05 2.89 3.4.04 3.4 3.02 6.51.32-.17 1.82 3.4 1.5 1.06 1.08-2-2.2-5.27-2.48-5.63 2.22.74 1.75 1.5 3.31 3.74.79.3-1.48-4.51-.1-2.87-1.98-3.31 1.09.1.68-1.4 3.22 3.12-1.49-3.59 1.12-1.42-2.81-2.16-2.09-2.62.82-1.79 3.07 1.65-2.7-2.73-.26-1.73-3.4-2.43-1.84-1.68-.24-1.73-3.26-1.47 4.81 1.03-.29-1.4-3.9-.83-2.43-.66.36-.63-1.61-.84-.86-1.4-1.73-1.73 4.84.64-.38-.78-.26-1.28-2.01-.35-4.83.02-1.3-.45-4.06-.98 6.16-.52 4.57.27 4.37-.12-3.5-1.2 1.15-1.32 2.27.22-.64-1.7 1.94.33 2.26-.35 2.34-2.2-1.62-1.15-2.98-.08-4.76-.52-8.98.73.44-.9 3.34-1.54 1.35-1.73 1.89-.61 4.1.23 1.2.65 3.07 1.16 7.64-2.54 1.54-1.28-.12-.08 2.14-1.06-.03-1.04 1.48-.72-2.44-.1-1.47-.02-4.36 1.13-.76-.36.91-1.74-2.96.3-5.35 2.48-5.87 1.18 1.47.05.36.77 3.08-.74 3.5-1.28-7.06 1.5.1-.59 3.46-1.85-1.07-.4-2.48.36 2.37-2.07-5.82 2.28-.42-1.51-3.6-.12-4.86 2.78-6.2 2.93 3.36-2.71 2.45-3.58.8-2.07.1-2.26-4.26 3.89-1.42-.32 2.5-3.43-2.95 1.73-.78-.71-2.12.63-2.91 2.65-3.14 1.5-2.03.68-2.61 3.42-.15.96-1.64 1.07-3.14 3.34-1.79.21-2.78 3.55 1.46-2.95-1.78.76-1.18.31-3.36 5.21-1.38.2-2.03 1.66-1.72 3.68-.45 2.47-4.16 3.23 1.1 0 .38 1.1-.3.06-3.86 2.45-2.13-.66-3.75 4.12-6.66 9.46-6.9 15.11 1.3-.26 1.26-4.2 1.06.24.88.55 2.27-5.23 1.76-3-2.82 2.67 1 5 1.35 3.05 1.15 0 1.94-3.83 1.3-.62 1.45 1.27 2.4-2.97 2.1-1.8.24 1.5-1.13-4.36-.25-1.21 1.33-2.33.05 3.8 3.83 1.6 1.94-1.68-.6 1.73 2 .23 2.1-.84.68 1 3.26.26-.46-.75 1.4-.81.65.2 1.66-.64 2.53-1.1 2.54-.09-2.16-.05 3.36 1.1-.19 1.18-3.19-.41-2.52 1.4-.04.48 2.57-.6-1.26 1.15-3.24.9 3.87-.24-3.74-3.43-1.77-1.6-.6-.45-6.07-.69-5.2 1.4.27 1 1.77 3.33 2.74 2.36-2.07.58 1.75 5.64-1.1.98-2.2-3-.07-.92-.51-.06-1.81 1.47-5.57-3.07-6.27-.4-3.9-.3-4.12 3.3-7.47 3.49 5.25-1.68 1.83 2.63 2.54 4.08-1.02 1.19 1.32.96 3.45.04 1.33-.6 3.9-5.61 3.16-3.57 2.12-.55 6 1.97 2.13 4.56-2.93.96-2.99 5.24-6.57 5.46-1.1.67-4.31-.07-1.41 1.41.24-.68.63.52 1.7.2zm-1.14-.5c-.4-.74.52.34 0 0zm1.05-.05c-.31-.47.45.08 0 0zm5.36-4.4c.54-1.37.66.26 0 0zm.8-.53c.77-.88.2.47 0 0zm.4-.43c.39-.37.26.39 0 0zm.4-.3c.7-.72.64.16 0 0zm-1.23-.08c.56-.17.1.18 0 0zm2.99-1.7c.36-.4.12.4 0 0zm-9.18-.26c.47-.48-.2.53 0 0zm10.74-.1c.18-.52.31.38 0 0zm-11.85-.11c.63-.6-.16.58 0 0zm1.9-.47c.65-.72-.15.73 0 0zm-1.29.08c.43-.5.48-.09 0 0zm10.33-.08c.25-.37.12.38 0 0zm1.2 0c.26-.37.13.38 0 0zm1-.07c.43-.15.03.2 0 0zm-11.78-.55c.36-.4.12.4 0 0zm1.25.01c.43-.62.26.13 0 0zm7.7-.33c-.6-1.06.72.8 0 0zm2.09.21c.25-.37.12.38 0 0zm2.7 0c.27-.18.4.33 0 0zm-2.45-.2c-.25-.75.48.74 0 0zm-1.7-.17c.15-.28.04.45 0 0zm4.1-.1c1.64-.04.62-.04 0 0zm-14.15-.15c.18-.55.16.39 0 0zm1.2-.1c.72-.81-.22.7 0 0zm1.21.01c.58-1.15.53.2 0 0zm10.38-.07c-.08-.73.46.6 0 0zm2.22.05c-1.42-1.31-.9-2.12.6-.16-.5-.71-.4.57-.6.16zm-1.72-.16c.05-.96.84.84 0 0zm-12.78-.56c.22-.9.4.38 0 0zm1.5-.22c.65-.77-.3.77 0 0zm1 .04c.1-.68.4-.02 0 0zm12.7-.15c-.67-.7 1.37.78 0 0zm-6.67-.36c.31-.38.18.52 0 0zm-6.53-.13c.2-.58.47 0 0 0zm-1.38-.13c.3-.59.33.38 0 0zm2.24-.03c.35-.48-.12.46 0 0zm10.11.07c-1.16-1.06.81-.06 0 0zm1.23-.09c-.75-.46 1.12.4 0 0zm1.5.06c.27-.2.39.33 0 0zm.34-.03c-2.43-2.32.45-1.1 0 0zm-9.52-.09c.3-.2.23.36 0 0zm8.18-.11c-2.65-1.88 2.72 1 0 0zm-6.22-.08c.37-.17.4.3 0 0zm-3.36-.1c.69-1.4.43.44 0 0zm-6.07-.1c-.65-.96 1.9-2.17 0 0zm3.56-.02c.24-.37.12.38 0 0zm.3-.06c.15-.27.05.45 0 0zm14.27.07c-.14-.5.51.04 0 0zm-15.88-.27c.47-.59.07.51 0 0zm6.12 0c-.22-.66.7.59 0 0zm7.08-.03c-1.06-.3.9-.06 0 0zm-8.46-.4c-.02-.85.5 1.05 0 0zm.38 0c.1-.47.46.7 0 0zm6.8.1c.45-.15.05.2 0 0zm2.49-.03c.26-.19.38.33 0 0zm-13.68-.23c.35-.5.37.26 0 0zm.98.02c.25-.37.12.38 0 0zm8.51.03c.44-.14.04.2 0 0zm4.79-.1c-1.64-.46 1.78-1.82 0-.4l.22.46zm3.6-.04c-.1-.55.55.4 0 0zm-10.71-.17c-.32-.47.44.09 0 0zm2.28-.58c-3.12-2.77 1.49.63 0 0zm2.97.24c.1-.73.6.49 0 0zm-14.2-.32c.36-.4.12.4 0 0zm6.33-.31c-.87-1.04 1.6.68 0 0zm5.46.1c.26-.37.26.38 0 0zm-11.24-.04c.4-.34.4.19 0 0zm11.59-.1c-.4-.5.77.44 0 0zm4.17-.23c-1.35-.97.95-.65 0 0zm-13.28-.14c.02-.47.24.43 0 0zm.28 0c.12-.39.25.36 0 0zm8.44-.41c-.4-.7.92.56 0 0zm6.25.02c.44-.15.04.2 0 0zm-5.27-.19c.26-.37.15.5 0 0zm-7.96-.16c.39-.34.4.18 0 0zm13.96-.2c-.2-.52.62.22 0 0zm-.82-.11c-3.33-1.05 1.05-.23 0 0zm2.51-.16c.28-.7.5.8 0 0zm-4.71-.26c-.58-.73.9.73 0 0zm-5.06.03c.23-.78 1.05.63 0 0zm1.62 0c-.79-.56.84.22 0 0zm7.65-.3c-.26-.52.58.59 0 0zm-10.64-.04c-.34-.44.65.38 0 0zm7.73-.16c.09-.55.24.55 0 0zm-2.12-.12c-.3-.49.75.56 0 0zm-5.46-.03c.37-.4.13.4 0 0zm3.47-.15c-.2-.48.82.52 0 0zm3.43 0c-.94-.68 1.93.02 0 0zm-4.49-.12c-.8-1.81 1.16.21 0 0zm6.23.06c-.86-.63 2.09-.34 0 0zm-8.25-.22c.92-.08-.4.33 0 0zm10.15-.2c.27-.18.39.33 0 0zm-9.8-.62c1.2-.6-.74.77 0 0zm2.05.13c.78-.16.15.17 0 0zm5.95 0c.59-.58.65.34 0 0zm-6.28-.55c-.35-.44.65.38 0 0zm-1.45-.1c.5-.38.26.4 0 0zm1.55-.17c-.2-.87 1.39.62 0 0zm-3.69-.2c.71-.53-.44.49 0 0zm2.25-.24c.3-.63.84-.22 0 0zm1.2-.02c.26-.19.38.33 0 0zm1.39-.25c-.38-.56 2.23.7 0 0zm-12.34-.06c.04-.51.33.35 0 0zm-2.2-1c.24-.54.1.55 0 0zm1.34-.77c.64-.96-.26.75 0 0zm1.27.1c.79-1.74 1.07-1.11 0 0zm3.16-.06c.15-.28.05.45 0 0zm8.98.06c.12-.38.25.37 0 0zm5.32-.1c.52-.39.52.38 0 0zm-1.87-.15c-3.84-.22-.11-.64.81-.07zm-12.24-.14c.49-1.7-.05.27.09-2.23-1.21-2.39 1.99.91-.09 2.23zm0-2.84c-.54-.66.32.9 0 0zm7.13 2.76c-1.68-1.06-.74-.9 0 0zm1.9-.2c.51-.8.44.83 0 0zm12.91.05c-.37-1.3.8.36 0 0zm-26.85-.17c.15-.28.05.45 0 0zm28.63.03c-.75-1.75.66.53 0 0zm-29.23-.04c.08-.68.39-.02 0 0zm17.31-.16c-3.23-.03-1.7-.88.44.07zm1.94.05c.44-.14.04.2 0 0zm-18.65-.2c.17-.69.48-.22 0 0zm2.76-.24c.2-1.02.26.79 0 0zm14.01.06c.58-1.26 2.61 0 0 0zm-3.78-.42c-.9-.44 1.29 0 0 0zm-3.81-.06c1.1-.57.19-.2 0 0zm-1.09-.32c.63-.99-.39 1.08 0 0zm-4.64.08c.61-1.06 0 .44 0 0zm11.1 0c.75-.56.42-.18 0 0zm13.17-.38c-.77-1.12 1.54 1.05 0 0zm-27.72.1c.15-.48.35.19 0 0zm11.44 0c.4-.19.39.34 0 0zm-11.07-.06c.05-.67.43-.25 0 0zm6.62-.3c.12-1 .38.24 0 0zm7.1.04c-.26-.9.98.7 0 0zm-2.05-.2c-.24-.47.62.37 0 0zm-9.74-.2c.56-.68-.3.66 0 0zm8.03.09c.25-.37.12.38 0 0zm4.49.03c1.9-.76-.17.31 0 0zm11.97-.16c-.32-.66.73.77 0 0zm-13.66-.05c-5.38-4.55 2.06.94 0 0zm-5.05-.34c.36-.4.12.4 0 0zm-5.32-.33c.84-.94-.65.93 0 0zm12.74.12c.73-.39.35.4 0 0zm10.57-.04c-.34-.56.75.04 0 0zm3.99.04c-1.96-1.18.35-.1 0 0zm-29.82-.28c1.01-1.36-.57 1.1 0 0zm12.66.18c.1-.54.57.2 0 0zm15.52-.01c-3.38-1.21 3.24-1.06-.66-.6-.2 0 1.72 1 .66.6zm-24.27-.6c-1.05-2.42 1.2 2.07 0 0zm6.69.46c.2-.24 1.23.12 0 0zm3.04-.1c1.85-.63-.1.64 0 0zm13.42-.07c-.4-.42.83.41 0 0zm3.24-.11c-1.18-.86 1.2.68 0 0zm-18.7-.4c.38-.38.26.38 0 0zm-10.24-.21c.52-.87.3.27 0 0zm8.23 0c-.4-.43.84.4 0 0zm-9.14-.48c.8-1.24-.1.43 0 0zm30.17.05c.12-.4.36.4 0 0zm-2.41-.2c-.4-.65.7.65 0 0zm-21.13-.11c.4-.34.4.18 0 0zm1.42.08c.66-.87.65.23 0 0zm-7.33-.45c.15-.28.04.45 0 0zm6.41-.04c.52-.87.01.79 0 0zm-2.23-.33c.24-.43.02.48 0 0zm1.71.15c.45-.15.04.2 0 0zm19.22-.18c.79-.33-.09.5 0 0zm1.28 0c.4-.34.4.19 0 0zm-26.3-.4c.3-.79.07.48 0 0zm3.39-.2c.54-.3-.25.32 0 0zm-2.79-.19c.52-.86.3.27 0 0zm26.98-.14c1.22-.68 1.16 0 0 0zm-1.9-.04c.44-.14.04.2 0 0zm-24.33-.33c.75-.68-.48.65 0 0zm24.8-.22c.1-.63 2.18-.15 0 0zm-24.24-.08c.61-.88.32.05 0 0zm26.6-.13c-.25-.4.73.43 0 0zm-27.66-.42c.66-.77-.3.77 0 0zm.58-.13c-.1-1.36.48.7 0 0zm2 .02c.31-.58.34.38 0 0zm21.44 0c1.37-.94.2.58 0 0zm-20.45-.67c.95-.94-.72.93 0 0zm-1.67-.1c-.07-.3 2-.82 0 0zm2.37-.34c.17-.97 1.09-.38 0 0zm19.78-.03c.94-.35-.06.39 0 0zm-23.2-.16c.67-1.03 1.56-.98 0 0zm4.42-.46c.25-.37.12.38 0 0zm18.4-.08c.66-.15.13.18 0 0zm-3.71-.1c.66-.15.12.17 0 0zm.51-.05c1.84-1.43.6.17 0 0zm2.77.02c.95-1.06 1.66-.64 0 0zm-19.57-.1c.65-.92.32.33 0 0zm-1.6-.34c.64-2.67.26.64 0 0zm3.21-.25c.15-.27.05.45 0 0zm20.32.06c.26-.38.39.38 0 0zm-20.82-.52c.58-.86-.3.68 0 0zm17.46.07c.4-.7.33.28 0 0zm-14.22-.33c2.2-.86-.51.66 0 0zm-1.8.05c.26-.37.13.38 0 0zm16.77-.31c.6-.49.12.42 0 0zm-1.35-.2c1.45-1.37.25.31 0 0zm3.86-.62c3.65-.33-2.85-1.42 1.99-.69 4.57.56.36.52-1.99.68zm-5.61-.37c.33-.58.2.49 0 0zm1-.37c.24-.37.11.38 0 0zM28 140.8c.33-1.45.4-.26 0 0zm1.8-.34c.25-.37.12.38 0 0zm-2.85-.42c.73-1.38-.22.9 0 0zm-.96-.18c.12-.78.4.31 0 0zm14.35-.03c.25-.37.12.38 0 0zm1.22 0c.86-.85.8-.24 0 0zm1.2 0c.91-.63.28.16 0 0zm1.18.03c.44-.14.04.2 0 0zm4.3 0c.56-.16.1.19 0 0zm-18.08-.27c.35-.48-.13.46 0 0zm10.46-.18c.94-.68-.83.8 0 0zm2.73.18c3-1.82 2.55-.24 0 0zm-14.88-.29c.24-.43.02.47 0 0zm1.13-.25c1.05-2.18 2.91-1.48 0 0zm13.05-.05c1.51-1.2-1.93-.66 1.14-.84-.38.23-.64.94-1.14.84zm-10.82-.17c2.05-2.47-2.13.07 1.18-1.86-1 1.24.9 1.36-1.18 1.85zm3.54.06c.37-.4.13.41 0 0zm-1.78-.38c.85-1.17-.56 1.21 0 0zm.1-.61c3.1-1.64-.25.55 0 0zm2.29.05c.92-.28-.4.37 0 0zm-.6-.83c.36-.4.12.4 0 0zm10.23-.1c-.49-.38.8.29 0 0zm-12.2-.73c1.3-1.5-.8 1.3 0 0zm2.79-.33c.54-.3-.24.32 0 0zm51.73 40c.04.17 1.7-3.29.4-1.58-1.31-.52-.74 3.61-.4 1.58zm3.98.12c-1.38-2.15.57 1.7 0 0zm20.81-.1c-.66-1.16.51 1.55 0 0zm-81.42.31c-.1-1.29-.37.42 0 0zm52.26-.08c-.12-.38-.25.37 0 0zm28.28-.6c.56-1.64-1.7-4.9-.69-1.24.16-.19.84 3.5.7 1.24zm-.43-1.8c-.25-.73.48.75 0 0zm-.14-.43c.39-.14.22.3 0 0zm-74.84 2.73c-.25-.37-.12.38 0 0zm2.4-.5c-.66.46-.2.1 0 0zm2.42.06c.98-2.24-1.16-.24 0 0zm48.35.21c-.2.05.14.46 0 0zm-58.08-.14c.73-2.87.58-1.57.85-1.59.9-4.73-.96-.8-.8-.18-.52-3.13-.27 2.84-.05 1.77zm-1.32-.26c-.38.17-.04.7 0 0zm6.23.32c.47-.32-.48-.35 0 0zm75.18.05c-.23-.35-.3.2 0 0zm-80.49-.78c.05-2.81-.85 1.97 0 0zm-6.54.26c.17-1.11-1.17.73 0 0zm12.89-.32c.06-1.9-.51 1.7 0 0zm30.48.21c-.58-.43.34.68 0 0zm16.96.04c-.36-.17-.15.49 0 0zm-49.49.02c-.18-.52-.31.38 0 0zm80.76-.36c-1.42-1.15 1.13 1.36 0 0zm-49.74.15c-.48-.75.25.74 0 0zm17.72 0c-.12-.38-.25.37 0 0zm-47.24-.52c-.4.2 0 .78 0 0zm2.62.3c1-2.05-1.09.04 0 0zm1-.06c-.21-.85-.17 1 0 0zm-16.29-.65c-.91-2.12-1.31-.77-.02.72zm86.32.27c-.73-2 .14 1.53 0 0zm-43.13.24c-.25-.37-.25.37 0 0zm24.82-.12c-.07-2.68-.78-.12 0 0zm-66.57-.27c-.29-.55.25 1.04 0 0zm59.62.27c-.25-.32-.37.31 0 0zm-51.76-.38c.63-1.53-.8-2.77-.32-.35-.29-4.22-.77.97.32.35zm-3.1-.47c-.44-2.08-.59 2.27 0 0zm79.25.66c-.25-.38-.25.37 0 0zm5.83-.05c-1.16-1.24-3.6-3.72-1.46-.86.26.25 1.5 1.24 1.46.86zm-90.88-.45c-.16.16.16.81 0 0zm66.55.16c-.18.1.16.57 0 0zm-74.04.13c-.45-.37-1.44.48 0 0zm7.93-.21c1.03-.64-.78.71 0 0zm4.5-.1c-.19-.3-.23 1 0 0zm83.66.2c-.54-1.49-.34-.16 0 0zm-95.32-.1c2.22-1.36-2.1.78 0 0zm23.78.09c.05-1.68-.9.02 0 0zm.84-.04c-.31-.38-.18.52 0 0zm-11.67-.17c-.2.05.14.45 0 0zm7.01-.74c1.14-2.9-.9-1.65-.15.63zm1.7.66c-.04-.51-.33.35 0 0zm24.09-.62c-.4-.86.14 1.85 0 0zm-46.88.45c.73-.42-2.16.42 0 0zm51.36-.36c-.45-2.21-.17 1.45 0 0zm21.2.36c-.14-.4-.18.53 0 0zm-63.8-.17c-.2.05.14.46 0 0zm85.1-.37c.26-1-2.39-6.1-1.2-2.74-.48.89.7 1.97 1.22 3.3zm-.35-.97c-.17-.38.5.4 0 0zm-85.77 1.16c-.44-.78.15.84 0 0zm-8.9.14c-.13-1.36-1.79-.45 0 0zm2.18-.23c-.73.24.07.3 0 0zm73.43.05c-.31-.25.3.56 0 0zm-77.1-.09c-1.04-1.96-.67.78 0 0zm.7.13c-.64-1.44-.95.14 0 0zm1.7-.1c-.98-1.9-1.05.8 0 0zm.85-.04c-.23-2.28-1.39.78 0 0zm2.06-.26c-.32-.35-.34.94 0 0zm66.29.13c-.45-.37.15.5 0 0zm23.54-.38c-.54-1.08.43 1.62 0 0zm-90.61.26c.26-2.12-1.7-2.87-1.34-1.74-1.63-1.7-.25 1.6.22.97.05.47.6 1.26 1.12.77zm73-.26c-.83-1.93-.17.96 0 0zm20.43.16c-1.6-2.88 2.2 1.3-1.27-2.76-1.16-.34 1.43 2.74.36 2.2l.31.52zm-1.01-2.1c-1.24-1.67.69.67 0 0zm-91.03 1.88c.37-2.94-2.8-5.08-1.46-1.03.33-.05.85 1.4 1.46 1.03zm-4.79-.63c-.59-2.78-.83 1.98 0 0zm98.64-.05c-1.52-1.6 1.41 1.73 0 0zm-100.17-.07c-1.65-1.92.52 1.73 0 0zm.7.32c-.75-2.12-.8.71 0 0zm1.68-.4c-.6-2.24-.98 1.66 0 0zm23.08-.43c-.38-5.6-1.3 3.38 0 0zm-25.87.76c-.88-2.36-.9.05 0 0zm54.2-.16c-.1-.58-.47-.05 0 0zM35 171.5c-.18.1.16.57 0 0zm-1.11-.14c-.39-.85.15 1.1 0 0zm54.02.07c-.57-.8-.26.89 0 0zm.82-.12c-.12-.38-.24.38 0 0zm24.24 0c-.73-2.06-5.22-4.4-.92-.75-.03.28.15.72.92.75zm-1.02-1.12c-1.04-1.32 1.23.89 0 0zm-77.02 1c-.55-1.25-.38-.2 0 0zm32.88-.37c-.58-1.14.86-1.52-.77-2.83-.45.42.75 4.09.77 2.83zm-53.93.1c-.4-.88-.67.63 0 0zm.99.1c1.17-.36-1.57-.35 0 0zm22.95-.67c.5-4.03-.7 1.9 0 0zm70.75.06c-1.5-2.94.2 1.56 0 0zM16 170.7c-.46-.45.1.55 0 0zm4.87.04c-.36-.96-.3.94 0 0zm15.13-.27c-.77-.4.2.97 0 0zm73.34.24c-1.13-2.8-2.15-3.1-.19-.01l.34.18zm-65.65-.07c-.08-.55-.24.54 0 0zm18.55-.53c-.7-1.42.07 1.98 0 0zm1.5.23c-.47-.97.27 1.09 0 0zm46.58-.15c-1.44-3.1.7 2.1 0 0zm-88.95-.15c.17-.9-1.22 2.28 0 0zm23.67.25c-.2-.48-.32.57 0 0zm42.48-.24c-.62-.55.15.85 0 0zm-67.35-.05c-.38-.38-.12.68 0 0zm20.46-.41c.11-3.98-.87-1.7-.07.68zm-.08-1.05c.15-.27.05.45 0 0zm22.78 1.69c-.23-.36-.3.2 0 0zm-51.88-.3c1.94.42-2.82-5.03-.77-.69-.2-.2.7 1.46.77.68zm-.42-.8c.26-.38.26.37 0 0zm27.5.42c.47-2.88-1.25 2 0 0zm1.11-.17c-.27-3.53-.7 2.53 0 0zm-17.77.32c.13-.62-.6.62 0 0zm91.52-.03c-2.3-1.85.7.98 0 0zm-92.19-.57c-.84-.7-.38 1.35 0 0zm-.63-.34c-.28-2.79-.92 2.15 0 0zm1.76.57c.1-.56-.47.44 0 0zm41.26-.65c-.62-2.93.06 2.31 0 0zm-40.76.24c-.13-.41-.37.4 0 0zm8.34-.06c.78-.7-1.86-.36 0 0zm80.71-.13c1.19-.18-4.12-2.78-2.34-1.01 1.08-.24 1.95 1.42 2.34 1zm-73.98-.36c-.18.1.16.57 0 0zm49.52.02c-1.11-.75.77.86 0 0zm-54 .01c-1.13-.55.74.64 0 0zm29.62-.03c-.3-.26.3.56 0 0zm3.07 0c-.2.05.14.46 0 0zm42.9-.8c-1.26-3.4-2.78-1.87-1.13-1.03.26.52 2.74 3.63 1.13 1.03zm-86.89.51c.27-1.15-.72 1.03 0 0zm2.34.1c.85-.88-1.05.7 0 0zm38.03-.01c-.19.05.15.45 0 0zm28.14.07c-.47-.48.19.53 0 0zm-58.77-.01c.48-1.47-2.04-.32 0 0zm52.75-.04c-.12-.38-.25.37 0 0zm-62.94-.45c-.51-2.35-.87 1.44 0 0zm1.8.27c-.3-.84-.72.57 0 0zm-11.94-.15c-.35-.18-.15.49 0 0zm2.21.01c-.26-.38-.38.38 0 0zm94.8-.02c-2.57-3.13-1.12 0 0 0zm-66.04-.78c-1.1-5.66-.4 2.57 0 0zm2.77.46c-.3-.25.3.56 0 0zM64 167.4c-.53 0 .33.75 0 0zm23.18.29c-.6-.5-.12.42 0 0zm24.13.07c-1.14-1.09-.54-.24 0 0zm-80.4-.28c-.24-.37-.11.38 0 0zm59.94-.35c-.48.06.44.84 0 0zm-68.16 0c-.59-2.21-.68 1.36 0 0zm18.92-.1c-.63-3.73-.7-.36.01.45zm23.1.03c-.07-1.21-.24 1.11 0 0zm20.66.1c-.36-.4-.12.41 0 0zm.35.06c-.23-.35-.29.2 0 0zm25.4-.1c-.47-.4-.58-.23 0 0zm-65.71-.22c-.14-.4-.19.53 0 0zm-10.03-.26c-.97-.86.5 1.06 0 0zm5.07.06c-.57-.43.35.67 0 0zm47.08.16c-.62-.72-.18.48 0 0zm3.15-.03c-.52-.1-.36.31 0 0zm18.13-.08c-.25-.37-.12.38 0 0zm.44-.16c-.48-.69 2.01.08-1.18-1.54-2.53-2.07 1.22 1.78 1.18 1.54zm-85.98-.19c-.63-.71-.36.76 0 0zm15.68.14c-.19-.52-.32.38 0 0zm3.81-.1c-.25-.38-.25.37 0 0zm19.89-.33c-.4-.42.38 1.08 0 0zm22.37.38c-.91-1-.69.05 0 0zm1.2-.05c-.74-1.58-3.06-.13 0 0zm-.25-.11c.12-.38.25.37 0 0zm-18.87-.2c-.12-.39-.24.36 0 0zm23.34-.05c-.23-.36-.3.2 0 0zm-79.11-.33c-.47-2.26-2.53 1.17 0 0zm2.63.03c1.7-2.76-5.66 1.35-.35.16zm28.96-.54c-2.3-3.87.04 1.5 0 0zm44.81.42c-.53-.32-.53.18 0 0zm-43.45-.61c-.49.06.43.84 0 0zm62.63.14c-.64-.8.31.85 0 0zm-95.59-1.22c1.11-2.1.6-2.1.82-.6 1.45-3.9-.21-2.59-.02-2.15-.2-.72-3.56 6.5-.8 2.75zm.22 1.1c-.25-.38-.38.38 0 0zm80.34-.06c-.4-1.05-1.35 0 0 0zm-26-.2c-.32-.4.12.52 0 0zm37.44-.1c-.32-.41.12.52 0 0zm-60.22-.5c-.56-2.4-.9-.98-.04.48zm21.91.22c-.17.1.17.57 0 0zm21.12.3c-.35-.43-.47-.29 0 0zm-18.62-.57c-.5-.54.23 1.08 0 0zm-54.94.03c.36-2.38-2.31 1.04 0 0zm94.13.1c-1.35-1.17-1.03.13 0 0zm-62.45-.57c-.07-1.96-.3-1.55.41-1.43-.37-2.4-3.06-2.69-1.25.48-2.43-2.1 1.08 2.2.84.95zm-.38-1.2c.15-.28.05.45 0 0zm64.44 1.73c-2.23-1.76-3.8-.47 0 0zm-59.72-.82c-.3-.01.1 1.1 0 0zm-38.34-.32c.16-.1.85-1.14 1.05-2.4-.65-2.51-2.05 3.75-1.05 2.4zm.3-1.63c.54-1.15.36-.04 0 0zm53.94 1.72c-.35-1.03.17 1.28 0 0zm43.12.26c-1.26-.59.62.56 0 0zm-92.81-.36a19 19 0 0 1 5.05-3.18c-1.15-1.63-8.7 4.63-5.05 3.18zm2.57-2.46c.15-.28.05.45 0 0zm-4.24 2.29c.9.59-.26-5.71.87-1.27 1-3.69-2.18-2.3-1.21.72-.66.03.16 1.95.34.55zm29.08-.1c-1.09-1.58.46 1.53 0 0zm-28.48.1c-.28.2-.12.47 0 0zm92.31-.06c-.65-1.32-1.66-.2 0 0zm-58.3-.3c-.06-1.44-.44.95 0 0zm18.9 0c-.43-.67.2.73 0 0zm36.95-.04c-2.57-2.02.66.96 0 0zm-92.55-.37c.25-.74-.48.75 0 0zm34.2-.53c-2.36-7.18.21 3.2 0 0zm58.35.3c-.42-1.45-2.08-.08 0 0zm-60.73-.64c-1.71-4.31-.64.79 0 0zm-.25.03c-.13-.52.33.4 0 0zm-27.17-.15c4.96-2.28.32-1.93-.52-.02-.2.54-1.61 1.55.52.02zm91.46.57c-.87-.44.25.41 0 0zm-59.65-.22c-.2.04.14.45 0 0zm54.94-.14c-.63-.6.16.58 0 0zm-32.42-.24c-.86-1.38.24.76 0 0zm18.01-.02c-.26-.39-.38.37 0 0zm17.02.04c-1.44-1.18-.52.49 0 0zm-78.42-.2c-.84-1.65-3.8 1.05 0 0zm43.08.05c-.9-1-1.35-.46 0 0zm32.81-.06c-.61-.3.16.43 0 0zm.72-.2c-1.3-1.15 1.12 1.24 0 0zm1.9.16c-.24-.37-.11.38 0 0zm-2.7-.47c-2.36-1.47 1.14 1.33 0 0zM44 159.67c-.93-3.22-2.96-2.42-.73-.25.07.6 1.65 2.44.73.25zm48.68.81c-.4-.38-.4.38 0 0zm-77.65-.96c-2.3-3.84-.5 2.4 0 0zm8.93.69c2.94.03 1.15-1.56.52-1.86-3.26.19 1.45 1.04-2.57.5.41.9 1.25 1.61 2.05 1.36zm-7.94-.49c4.1-1.4-.04-2.13-.72.42zm84.84.19c-.6-.62.13.62 0 0zm-89.97-.4c-.18.11.16.58 0 0zm9.7.25c-.85-.21-.18-.07 0 0zm48.45 0c-.51-.72-.16.43 0 0zm-25.9-.07c-.72-1.1-.4.26 0 0zM12 159.5c1.46-1.13-1.33-4.19-1.06-.9.12-1.1.32 1.73 1.06.9zm-.3-.09c.34-.48-.13.45 0 0zm-.12-.39c.25-.37.12.38 0 0zm-.18-.3c-.8-2.06.54.74 0 0zm-.17-.74c.4-.18.4.34 0 0zm10.84 1.51c-.86-1.16-1.64.58 0 0zm45.37.11c-.23-.35-.29.2 0 0zm34.24-.1c-3.3-2.56-1.69-.7 0 0zm-82.18-.08c.5-.46-1.38.34 0 0zm52.4-.32c-1.55-2.65-4.18-3.87-1.27-1.1.54.88-3.34-2.45.33.7-.56-.84 1.69 1.29.94.4zm-3.05-.03c-.47-.47.19.53 0 0zm-53.27-.9c-.26-3.3-2.1 3.34 0 0zm3.48.87c2.19-1.57-2.85.1 0 0zm28-.25c-1.14-1.56.46 1 0 0zm-4.8-.1c-.39-.17.35.48 0 0zm33.92-.08c-.19-.52-.32.38 0 0zm-59.65-.44c3.43-1.12-2.74-.61 0 0zm8.27 0c-.58-.24.29.53 0 0zm47.52-.09c-3.03-1.43 1.6 1.16 0 0zm30.06.21c-.87-.44.24.41 0 0zm-78.05-.32c1.32-1.4-1.87 1.26 0 0zm-11.12.06c-1-2.2-1.02.26 0 0zm61.08-.15c-3.4-1.25.4.38 0 0zm4 .2c-.26-.38-.39.38 0 0zm12.33.02c-.15-.54-.49.23 0 0zm-66.68-.35c.89-2.53-3.05 1.1 0 0zm48.37.08c1.93.4-2.77-1.6 0 0zm26.75 0c-.72-.6.34.55 0 0zm2.13.03c-.7-.11.14.35 0 0zm-26.72-.09c-.25-.37-.25.38 0 0zm2.1.06c-1.54-.93-.42.25 0 0zm-1.15-.16c-.79-.67-.14.48 0 0zM14 157.2c.07-2.95 1.3 1.94.99-2.44.3.95.52 3.22 1.07.2.62-3.74 1.68-5.89 2.83-8.2 1.04-2.99 1.8-.94 2.62-4.9.01-.05 2.11-3.71 1.02-.97 1.05-.57 2.6-4.91.66-1.67.38-1.9-4.05 5.4-1.08.2.68-1.91-2.28 2.02-.93-.61.15-1.95-1.25 3.25-.99 1.2-1.23 2.44 1.46.35-.21 3.11 1.58-1.89-1.4 2.24-.06-1.23-.04-4.76-1.56 2.9-1.85 1.22.46-3.43-2.38 3.1-.84-.77-2.17 2.29-2.22 9.72-2.77 5.27-1.27 2.2-.75 1.51-1.2 2.92-.47-2.36-.06 1.74-1.03 1.76.3.76-2.7 2.07-.23 3.22.4-1.96.72 3.57 2 1.69zm.25-2.48c-1.14-4.02.69 1.53 0 0zm-1.91-.52c-.32-.66.73.78 0 0zm1.36.02c-.04-.93.52.73 0 0zm1.27-.06c-.37-1.02.6.3 0 0zm1.06 0c-.76-.83.62-.15 0 0zm-3.68-.48c-.15-1.21.47.95 0 0zm3.48-.33c-.18-1.15.3.76 0 0zm-2.82-.44c.26-1.79 1.37-.86 0 0zm2.42-1.32c-.23-1 .35.5 0 0zm-1.22-.07c.03-.5.32.35 0 0zm2.67-.94c.09-.47.09.47 0 0zm-2.73-.73c.18-.7.32.57 0 0zm1.32-.63c.03-.68.37-.16 0 0zm1.11-.05c.23-1.21.11.4 0 0zm.59-.6c.08-.91.43.3 0 0zm.6-.23c.14-.96.5-.48 0 0zm-2.41-.99c.17-.55.15.39 0 0zm.7-.06c.16-.28.05.44 0 0zm1.33-.41c.1-.5.05.63 0 0zm-1.42-.01c.14-.28.04.45 0 0zm.4-.23c.15-1.18 1-.95 0 0zm-.51-.34c.41-1.91.28-.22 0 0zm1.21-.27c.15-.27.05.45 0 0zm1.18-.3c-.01-1.2.21 1.05 0 0zm1.02-.07c.55-1.26.4-.2 0 0zm-2.74-.16c-.11-2.04.74.21 0 0zm.54-.26c.91-1.68.2.51 0 0zm1.4.12c.14-.8.5-.25 0 0zm-.19-.92c-1.12.55.47-1.05 0 0zm1.2-.1c.43-.62.25.13 0 0zm.56-.3c0-.77.35.29 0 0zm-2.98-.28c.12-.68.38.38 0 0zm1.87-1.13c2.3-2.66-.44.9 0 0zm22.58 14.93c-.51-.4.14.38 0 0zm35.49-.02c1.36-.03-1.67-.57 0 0zm4.48.06c-.4-.21-.1.24 0 0zm19.27 0c-.4-.21-.1.24 0 0zm-26.17-.09c-.66-.74-.31.3 0 0zm1.53-.22c-.55-.17-.1.18 0 0zm3.44-.26c2.17-.38-2.18-.67-.44.14zm-70.11 0c2.14-1.87-2.02.29 0 0zm.3.01c-.12-.38-.25.37 0 0zm13.35-.1c-.12-.38-.25.37 0 0zm26.54-.14c-.61-.8.11.7 0 0zm28.67.06c-1.5-.67-.38 0 0 0zm-36.49-.15c1.28-.78-1.58.02 0 0zm1.54-.48c-.05-2.32-5.94-4.5-1.91-1.81-.06-.73-1.7.92.24 1.53 1.47.13-.73-1.35 1.88.88zm-2.1-1.27c-.35-.51.58.37 0 0zM81 156.62c-.46-.65-.8.32 0 0zm-7.97-.07c-.44-.78-.25.62 0 0zm3.36.08c-.25-.38-.12.38 0 0zm-41.62-.17c-1.45-.42-.09-.09 0 0zm35.3-.04c-.55-.38-.38.39 0 0zM24.07 156c-.82-.72-1.9 1.06 0 0zm11.42.34c-.4-.21-.1.24 0 0zm43.36 0c-.4-.21-.1.24 0 0zm-45.4-.14c-.5-.41.15.37 0 0zm38.4-.05c-.23-.35-.29.2 0 0zm8.7-.02c-.39-.21-.09.24 0 0zm2.43-.02c0-.49-.76.17 0 0zm1.17-.02c-.39-.37-.26.39 0 0zm-49.64-.16c-.53-.18-.53.32 0 0zm44.54-.05c2.45-.72-3.08.03 0 0zm-.52-.2c.33-.5.6.58 0 0zm6.84.15c3.85-1.31-4.89.42 0 0zm-9.55.06c-.37-.4-.13.4 0 0zm4.86 0c-.98-.69-.94.33 0 0zm-55.4-.11c.41-.56-1.7.2 0 0zm44.72-.1c-1.08-1.05-.8.1 0 0zm6.32.1c-2.41-1.69-2.26-.03 0 0zm4.74-.1c-.4-.53-.28.67 0 0zm7.73-.17c2.88-1.2-1.38-.74-1.25.14-1.86-.4-.09.75 1.25-.14zm-6.1.03c1.75-.58-2.45 0 0 0zm-73.22-.07c1.03-2.08 1.66-3.74-.73-.23l.33.29zm.45-1.44c.32-.72.73-.02 0 0zm0 1.44c.4-.42-.84.4 0 0zm20.27.06c-.23-.36-.4.2 0 0zm38.4-.37c-.51-.42.14.37 0 0zm12.07.04c-.4-.22-.1.23 0 0zm1.63-.05c.64-.32-1.76.12 0 0zm11.34 0c.1-.4-.95.37 0 0zm2.71 0c-2.04-.49-.11.46 0 0zm-86.07-.1c-.12-.4-.36.4 0 0zm65.65 0c-.39-.37-.26.39 0 0zm14.17.04c-.4-.21-.1.24 0 0zm2.78-.05c3.02-.72-3.87.17 0 0zm-17.4-.1c1.46-.4-1.02-.37 0 0zm11.35-.1c1.32-.85-2.06.74 0 0zm-7.39-.19c-.43.12-.2.3 0 0zm6.68.03c-.19-.18-1.1.16 0 0zm2.33.1c-.55-.17-.1.18 0 0zm-11.57-.15c-.25-.37-.12.38 0 0zm12.99-.16c-1.82-.24-.96.59 0 0zm3.05.1c5.27-.7-3.6-.43-1.16.13zm-42.84-.27c-.6-.06.04.61 0 0zm33.2.27c-.4-.21-.1.23 0 0zm-5.75-.14c-.59-.5-.12.42 0 0zm10.6-.24c3.12-1.3-3.7.93 0 0zm-19.23.03c.25-1.7-2.76-1.94-.47-1.2.12.2-.71 1.14.47 1.2zm3.2-.01c-.4-.34-.3.47 0 0zm-.72-.17c-2.11-2 .45 1.07 0 0zm2.79-.14c-.25-.37-.12.38 0 0zm1.23-.03c1.1-.83-1.31.12 0 0zm1.08.1c-.04-.28-.6.09 0 0zm1.25-.27c.15-.37-1.4.07 0 0zm2.31 0c-.8-.34-.8.33 0 0zm-3.41-.1c-2.58-.76.32.46 0 0zm-3.36-.1c-.85-.37-.63.33 0 0zm16.6-.01c-.11-.42-.58.49 0 0zm-22.3-.44c-1.32-.57.78 1.05 0 0zm2.53-.14c-.8-.89.34.92 0 0zm4.37.01c-.74-.37-.18.25 0 0zm2.1-.33c-1.36-.34-2.22.1 0 0zm-3.3-.2c-1.07-.54.33.52 0 0zm-36.14-.05c-2.27-.5.3.36 0 0zm29.8-.76c.78.93 1.94-.48-.59-.52-.95.07 1.61 1.64.6.52zm-54.56-.23c-.76-1.3.39 1.91 0 0zm57.89.42c-.63-.6.16.58 0 0zm-59.05-.24c-.76-.32-1.38.65 0 0zm24.62-.02c-1.8-.55.5.4 0 0zm15.98-.33c1.67-.59-3.01-.9 0 0zm-40.76.02c2.33-2.07-1.35.63 0 0zm59.36 0c-.6-1.61-.35-.24 0 0zm-1.81-.48c-4.14-3.79-1.32.25 0 0zm-32.77.05c-.3-3.51-.17 1.92 1.51-1.09 1.02-.62.59-2.61-.33-.49.96-4.38-3.02.35-1.35 1.75l.12-.02zm29.1 0c-.6-.21.38.48 0 0zm-52.8-.2c-.3-.39-.18.52 0 0zm53.96-.3c-.47-.45.1.55 0 0zm3.36.11c-2.6-2.2-.03.41 0 0zm-4.5-.47c-1.63-1.94.93 1.5 0 0zm-14.12-.02c-.89-.5.45.57 0 0zm17.27-.2c-1.24-.83.8.89 0 0zm1.69.12c-.87-1.2-1.06.38 0 0zm-57.55-.3c-1.15.26-.04.35 0 0zm20.6.08c1.5.07-1.53-.73 1.36-.9-.92-.4.7-1-.23-1.2 1.51-.88-.45-1.08.5-1.78-.87.24 2.03-3.63-.1-2.4-.26.93-4 3.58-1.86 3.7-2.16 1.13-.7 2.64-.65 2.66zm-.93-1c.26-.38.26.37 0 0zm-19.53.5c-.19-.42-1.46.94 0 0zm23.26-.32c.27-.7-.59.84 0 0zm30.74-.18c-.84-.82 2.85.17-.44-1.22-3.01-1.04.02 1.37.44 1.22zm-52.44-.21c-.23-1.27-.23 1.27 0 0zm48.49.38c-.35-.43-.47-.29 0 0zm8.17-.48c-1.5-.92-.15.56 0 0zm-57.47-.33c-.5-.53.1.71 0 0zm38.8.12c-.5-.42.15.37 0 0zm17.31-.14c-1.82-1.15.94.92 0 0zm-25.71-.03c-.23-.9-2.31.66 0 0zm9.51.06c-.37-.39-.54.38 0 0zm16.51-.15c-.86-.6.36.53 0 0zm-1.51-.33c-1.47-1.16-1.07-.39 0 0zm-54.54-.72c.55-.13.12-1.4-.12.72zm14.72.26c1.29-1.15 2.41-.77 4.16-3.12 1.56-1.88 5.19-5.97 5.15-6.67-2.57 3.93-6.02 7.34-10.14 9.24-.04-1-1.04.66.33 1.1.16-.03.2-1.22.5-.55zm.19-.16c.14-.28.04.45 0 0zm-1.51-.2c.15-.29.04.44 0 0zm.7-.1c.34-.42.46-.27 0 0zm10.05.65c1.52-.2 1.31-7.17 1.2-5.12 1.06 1.2-2.9 6.03-1.2 5.12zm-25.82-.7c-.87-2.77.48 2.83 0 0zm49.73.7c.96-1.67-4.42-2.5-.9-1.02-.84.96-.15.24.9 1.02zm-.78-1.6c-.38-.55.7.57 0 0zm-46.14 1.1c.35-1.1-.76-2.85 0 0zm25.68.15c-.4-.22-.1.23 0 0zm1.38-.04c-.12-.38-.25.37 0 0zm9-.32c-1.6-1.66-.56.52 0 0zm1.33.12c-1.72-1.25-1.02.32 0 0zm9.85-.21c-.47-.45.1.55 0 0zm5.82-.04c-.7-.23.33.55 0 0zm-25.15-.03c-.4-.19-.39.33 0 0zm22.06-.25c-2.3-1.94.93 1.4 0 0zm-12.82.1c-.25-.37-.12.38 0 0zm1.7-.05c-2.62-1 1.37-1.91-2.42-1.48-1.03-1.18 2.84-.16-.7-1.3-2.52-.4.16 1.47.78 1.55 1.94 1.62.05.97 2.34 1.23zm13.35-.15c-1.9-.78 1.66.97 0 0zm-17.4-.06c-.97-.58.55.54 0 0zm-11.5-.4c-.49-.07 0 .74 0 0zm27.67.15c.21-.86-3.05-1.3-1.07-.1.28.13.9.58 1.07.1zm-28.08-.4c.71 1.61 1.7-6.46.2-1.58-.26.35-1.73 2.8-.2 1.58zm13.3.35c-.92-.3-.05.04 0 0zm-39.08-.2c-.44-.08.32.48 0 0zm3.63-.23c.2-2.22-.68 1.75 0 0zm11.38.24c-.2.05.15.46 0 0zm-13.78-.51c-.67-.57.34.84 0 0zm47.13.18c-1.15-.78.12.5 0 0zm6.23-.17c-.73-.43.25.4 0 0zm-53.82-.52c-.84-1.5.3 1.18 0 0zm3.37-.12c.95-4-.53 1.62 0 0zm48.54.21c-1.86-.99-1.63.3 0 0zm-2.8-.04c-.48-.4-.58-.22 0 0zm3.22-.28c-.39-.17.35.48 0 0zm-34.42-.21c2.28-.45 2.98-3.43 1.6-1.67.22-1.04-4.03 1.88-2.13 1.8.48-.26-.5.99.53-.13zm22.16.12c-.26-.37-.26.38 0 0zm-40.5-.58c-.39-.48.16.73 0 0zm41.7.14c-.22-.46-.9.33 0 0zm-16.24-.53c-.55-.6.12 1.33 0 0zm-24.31.35c-.25-.37-.12.38 0 0zm.1-.52c-.58-1 .36 1.24 0 0zm48.94.2c-1.4-.62.96.71 0 0zm2.74.05c-3.21-1.16-3.88.01.2.14.29-.06-.2 0-.2-.14zm3.6.1c-.4-.21-.1.24 0 0zm-56.75-.2c-.32-.41.11.52 0 0zm2.77-.55c1.1.35 0-1.82.9-.73 1.18-.55-2.75-3.46-1.84-2.52-.09-.31-.49 3.47-.36.78-.14-1.07-2.08-1.74-1.5-.07-.55-1.48.91 3.74.93 1.51.06.9 1.7 2.07 1.87 1.03zm-.5-.28c.09-.55.24.55 0 0zm.45-1.49c-1.06-1.37.13-.85 0 0zm15.02 2.2c.3-.49-.55.63 0 0zm26.14.03c1.86-.69 2.95-.15 2.83-1.32-1.74-.37.21.7-2.84.08-.98.57-2.54 1.08-.7 1.34zm.5-.8c-.46-.33.75.29 0 0zm1.44-.69c.44-.15.04.2 0 0zm-19.79 1.2c-.2.05.15.46 0 0zm11.45.16c-2.85-1-4.43.26 0 0zm16.06 0c-.4-.21-.1.24 0 0zm-.85-.25c-2.05-.51.3.46 0 0zm-51.88.02c-.68-1.24-.63.5 0 0zm22.38-.03c2.53-1.7-.22-.64 0 0zm30.98-.01c-.66-.3-.66.29 0 0zm-48.38-.24c.12-.57-.44.58 0 0zm1.04-.46c.25-1.89-.9 2.08 0 0zm3.41.46c-.19-.5-.32.57 0 0zm41.38 0c-1.18-1.13-1.4.3 0 0zm-9.5-.05c-.38-.37-.25.39 0 0zm5.93-.26c-1.05-.6.44.59 0 0zm-48.82-.17c-.2.04.15.45 0 0zm42.22.16c-.67-.2-.12.19 0 0zm8.1-.22c-2.81-1.06 1.12.75 0 0zm-37.74-1.22c.67-1.63-2.34 2.99 0 0zm-12.49.86c-.56-.6.46.94 0 0zm6.96-.18c-.39.28-.16.59 0 0zm-6.16-.35c-1.28-2.65.15 1.82 0 0zm49.33.34c-.87-.45.25.4 0 0zm-42.06-.35c-.37-.5-.18.62 0 0zm12.35.14c-.12-.38-.25.37 0 0zm27.95-.42c-1.13-.34-.3.38 0 0zm-43.6-.15c-.08-.75-1.98-.62 0 0zm40.62.1c-.4-.22-.1.22 0 0zm1.28-.04c.64-.54-5.16-.18-.67.08zm-6.78-.23c2.93-.5 1.42-.73.29-.96-.92.36-2.45 1.38-.29.96zm.39-.48c.44-.14.04.2 0 0zm2.65.53c-.55-.17-.1.18 0 0zm1.73-.35c-1.14-.78-2.46.66 0 0zm-31.51-.74c.56-1.28 2-2.17 1.85-.75 1.91-1.72.94-4.25-.54-1.8-.2.3-2.97 4.37-1.31 2.55zm2.29-1.8c1.06-1.16-.53 1.23 0 0zm31.68 2.4c1.4-.54-3.4-1.2-2.24-1.78-1.35-.68-5 .62-1.47.53-3.74.9 3.3.64 2.63 1.33zm-38.65-.23c-.31-.38-.18.52 0 0zm40.56-.26c-.4-.38-.4.38 0 0zm-48.67-.27c-1.19-1.77-.18.9 0 0zm48.09.16c-1.38-.76-1.34.3 0 0zm1.08-.1c-1.23-.67-.59.27 0 0zm-2.51-.1c-.12-.38-.25.37 0 0zm-32.65-.23c-.2.05.14.46 0 0zm-15.12-.5c-.3-1.13.26 1.83 0 0zm39.45.3c-.24-.93-2.41-.12-.91.26zm8.12.22c.08-.33-1.18.07 0 0zm-1.03-.17c-.4-.21-.1.24 0 0zm3.34-.03c-1.85-.58.41.37 0 0zm-34.73-.21c-.26-.38-.26.37 0 0zm-3.69-.46c-.06-1.15-.66 1.07 0 0zm36.36.24c-.56-.35-.37.32 0 0zm.73.05c-.4-.22-.1.23 0 0zm-47.57-.49c-.5-1.58-.35 1.38 0 0zm40.05.38c3.02-.23.27-1.37 3.78-1.58-1.57-.34-7.2 1.94-3.85.11-1.42.34-4.02.95.07 1.47zm-.9-.21c.43-.15.03.2 0 0zm6.44-.04c-1.51-.35.5.35 0 0zm-46.64-.47c.34-3.46-.5.95 0 0zm13.64-.1c-.51-.34-.03 1.05 0 0zm-2.57.14c-.2.05.15.45 0 0zm6.94-.14c-.28.2-.13.46 0 0zm19.5-.02c1.94-1.17-4.4.86 0 0zm-18.67-.32c.58-.43 2.04-3.68 1.37-.83 1.93-1.56 2.4-5.3-.13-1.6-.94.25-.79-.3-1.5 1.5.1.47-.67 1.85.26.93zm.15-.46c.8-.83-.7.94 0 0zm-.36-.02c.16-.34.58-.28 0 0zm2.37-1.56c.34-.48-.13.46 0 0zm.04-.9c.17-.55.15.39 0 0zm.5-.83c.18-.55.16.38 0 0zm-4.1 3.88c.35-.45-.66.53 0 0zm20.52-.43c2.75-.85 4.1-1.54-.08-.91-1.88.58 1.83-1.07-1.07-.41 1.67-.95 8.07-2.48 2.27-1.17-1.95-.32-4.22.38-3.33 1.39-1.23.71 1.07.91 2.21 1.1zm-.66-.23c1.8-.54-.51.41 0 0zm-.85-1.25c.36-.4.12.41 0 0zm-24.6 1.21c-.36-.87.16 1.08 0 0zm31.25.03c3.59-.82-3.95.24 0 0zm-31.5.03c-.03-.8-.5.5 0 0zm3.82-.02c-.26-.37-.26.38 0 0zm-.6-.18c.31-.48-.55.63 0 0zm16.21-.35c-.15-.92-1.42 1.17 0 0zm-.38 0c.54-.3-.25.32 0 0zm9.96.22c.25-.4-.73.44 0 0zm3.92 0c-.26-.37-.26.38 0 0zm-23.29-.31c-.12-.38-.25.37 0 0zm21.28 0c-.53-.38-.53.38 0 0zm3.31 0c-.12-.38-.25.37 0 0zm-13.87-.2c1.55-.86-1.08-.34-.53.17zm6.54-.11c-.24-.37-.12.38 0 0zm-9.97-.22c1.72-1.9-2.4.94 0 0zm20.09.15c-.4-.21-.1.24 0 0zm-19.23-.14c3.52-.87-.4-.91 0 0zm-4.07-1.04c2.8-3.58-1.63-.13-.63.78zm-.32-.42c.25-.37.12.38 0 0zm9.46 1.08c-.93.18-.03.31 0 0zm.5.1c-.4-.2-.09.24 0 0zm3.95-.04c2.94-.5-2.73.03 0 0zm-6.07-.22c2.02-.48 1.36-1.62-.39-.06-.39.24.36.22.4.06zm-6.48-.64c-.76.3-.33 1 0 0zm3.3.56c.4-.56-.74.41 0 0zm-7.82-.22c-.31-.38-.18.52 0 0zm5.07-.1c2.31-2.74-2.04.74 0 0zm.65.14c6.64-3.88-1.44-.53 0 0zm7.18-.02c-.43.12-.2.3 0 0zm-5.45-.1c5.02-1.6.55-1.52-.51.12zm.83.08c-.25-.38-.38.38 0 0zm6.18-.45c-.85-.43-2.1.88 0 0zm-3.9.15c2.95-.7 4.68-2.28.68-.54-.21-.41 1.6-1.4-1.74.3-1.43.43.9.55 1.06.24zm-1.32-.32c.58-.75-1.08.76 0 0zm-7.57-.07c-.3-.4-.3.47 0 0zm2.8.07c-.27-.19-.39.33 0 0zm-4.17-.21c.3-.76-.65.77 0 0zm16.09-.12c-.14-.77-1.96.8 0 0zm-11.52.02c-.27-.19-.38.33 0 0zm13.77-.07c1.17-.72-2.17.23 0 0zm-15.67-.3c1.08-1.3-1.86 1.26 0 0zm17.71.26c.31-.37-.98.37 0 0zm-16.69-1.1c-.43.34-.25.62 0 0zm9.13.13c.15-.58-1.22.41 0 0zm-8.55-.38c.51-.92-.9.74 0 0zm9.85-.07c1.65-.99-1.95.61 0 0zm-5.69-.29c-.46-.06-.18.33 0 0zm-3.2-.6c-.42 0-.26.42 0 0zm11.44-.22c-.88-.1-1.08.71 0 0zm-10.3-.39c.38-.76-.84.79 0 0zm14.01 96.02c.18-.55.16.39 0 0zm.86-3.64c.03-.52.32.34 0 0zm.68-.98c-.29-2.65.57 2.74 0 0zm65.43.68c-.6-.28.25-1.4 0 0zm-65.9-1.03c-.1-.45.49.58 0 0zm-2.34-.4c.4-.91-.2 1.02 0 0zm2.96-.03c0-3.27.98-4.26 0 0zm-3.33.02c-.27-.76.37.5 0 0zm67.96 0c-.32-.48.44.08 0 0zm-6.15-.57c-.12-.52.33.4 0 0zm3.25-.45c.06-.67.16.65 0 0zm-64.52-.13c.15-.27.05.45 0 0zm.25.07c.03-.5.46.2 0 0zm-1.65-.81c.5-1.06-.22.92 0 0zm2.56-.3c.24-.54.09.56 0 0zm63.33-.15c-.3-.76.65.77 0 0zm-60.4-.16c-.77-.84.6-.16 0 0zm-5.13-.57c.23-.72.07.73 0 0zm28.09.1c.25-.36.12.39 0 0zm39.96-.41c-.75-1.84 1.14 1.86 0 0zm-69.52.36c.2-.75.45-.4 0 0zm67.45-.52c.15-.83.1.84 0 0zm-41-.08c.35-.48-.12.46 0 0zm41.48-.44c.07-1.28.2 1.29 0 0zm-63.76-.18c.35-.49-.13.45 0 0zm-3.6-.2c.69-2.04.44-.39 0 0zm63.14-.17c-.03-1.68.3-.9 0 0zm3.7-.7c-.26-.77.37.49 0 0zm-34.19-.25c.19-.53.32.37 0 0zm-1.85-.46c.35-.48-.12.46 0 0zm32.74-.3c-.7-2.08.65.05 0 0zm1.13-.22c-.88-4.44.74 1.26 0 0zm3.48.28c-.31-.47.45.08 0 0zm-1.8-.53c-.34-.68.42.09 0 0zm-61.96-.34c.37-.4.13.4 0 0zm1.03-.29c-.72-1.57.6-.06 0 0zm60.76-.23c.25-.38.25.37 0 0zm-65.13-.5c.45-2.17.28 2.2 0 0zm62.08.13c-.26-1.23.39.48 0 0zm-26.86-.22c.69-1.75.25.68 0 0zm31.21.01c.4-.06-.15-.22 0 0zm-65.23-.26c.1-.47.1.47 0 0zm1.7.02c.71-.62.26.15 0 0zm.72-.47c-.99-1.18 1.37.85 0 0zM52 212.2c.09-.47.09.47 0 0zm61.97-.34c-.4-1.94.41 1.33 0 0zm3.14.08c-.53-1.65.44.7 0 0zm-33.9-.21c.47-.48-.2.53 0 0zm-32.42-.22c.15-.27.04.45 0 0zm4.12-.2c.22-1.05.43.43 0 0zm-3.22-.09c.11-.68.37.38 0 0zm65.1-.33c-.96-2.38.62.7 0 0zm-64.9-.21c.15-.28.05.45 0 0zm3.32 0c.14-.28.04.45 0 0zm31.9-.45c.38-.77.27.26 0 0zm25.5-.5c.1-.74.31.94 0 0zm-55.94-.4c-.27-.76.37.49 0 0zm-.87-.2c.07-.91.22.9 0 0zm56.22.19c-.34-.6.21-.44 0 0zm4.62-.1c.14-.28.04.45 0 0zm-28.72-.03c.16-.48.36.18 0 0zm28.4-.28c-.3-.71.53.57 0 0zm.17-.22c-.13-.46.34.48 0 0zm-64.59-.56c.09-.46.09.47 0 0zm1.6-.37c.15-.28.04.45 0 0zm59.93.1c-.3-.67.15-.34 0 0zm2.8-.43c-.47-2.58.36 1.23 0 0zm-30.25-.48c.03-.94.31.51 0 0zm28.4-.04c-.13-.45.35.49 0 0zm2.72.11c-.33-.82.39.02 0 0zm-.66-.2c.14-.27.04.45 0 0zm-59.93-.22c0-.8.37 1.02 0 0zm-4.52.01c.15-.27.05.45 0 0zm62.8-.42c-.06-.83.6.38 0 0zm-63-.3c.15-.28.05.44 0 0zm3.6 0c.32-.37.06.5 0 0zm31.33.01c-.16-.67.44.51 0 0zm-28.28-.36c-.25-1.23.58.56 0 0zm56.1-.09c-.84-1.56.84 1.14 0 0zm1-.09c.14-.27.04.45 0 0zm.1-1.21c.6-2.59-5.53-5-4.25-5.32.39 1.15 4.27 4 2.14 1.1 2.15 2.4 2.5 2.41 2.37 5.45zM53.8 205.2c.3-.2.23.36 0 0zm-1.7-.2c.25-.37.12.38 0 0zm61.73-.28c.1-.46.45.7 0 0zm1.18-.24c-.1-.74.4.74 0 0zm-58.01-.14c.05-.68.15.65 0 0zm56.2.13c-1.64-1.86.56.1 0 0zm2.7-1c-.17-1.08.34.88 0 0zm-29.76-.35c.09-.47.09.47 0 0zm.9-.36c-.2-.53.46.47 0 0zm-30.18-.17c-.12-.52.33.4 0 0zm-1.31-.11c.3-.68.4.4 0 0zm30.4-.2c-.4-.88.71.74 0 0zm-29.22-.2c.09-.47.09.47 0 0zm52.31-.3c-2.75-2.1 1.5.77 0 0zm-52.42-.18c.15-.28.05.45 0 0zm.85-.01c-.12-.46.35.48 0 0zm50.64.07c-.37-.47.6.22 0 0zm3.1-.18c-.35-.45.65.53 0 0zm-53.58-.2c.14-.27.04.46 0 0zm-5.72-.35c.09-.47.09.47 0 0zm6.72-.07c.57-.66-.34.6 0 0zm50.78-.04c-.62-.67.94.61 0 0zm5.17.11c.25-.37.12.38 0 0zm-29.23-.23c-.8-.75 1.04.42 0 0zm22.7-.03c.38-.3 1.38.52 0 0zm-1.05-.25c-2.7-1.19 2.45.63 0 0zm3.07.1c.12-.39.24.36 0 0zm3.21-.28c-2.94-3.9.85.64 0 0zm-58.3-.06c.3-1.13.17.5 0 0zm5.16-.5c.1-.47.1.47 0 0zm-2.04-.36c-.01-1.2.21 1.05 0 0zm48.2.15c.2-.41.74.32 0 0zm3.1.03c.44-.14.03.2 0 0zm-54.18-.24c.1-.47.1.47 0 0zm51.88-.06c2.75-.09.88.24 0 0zm-50.38-.1c.15-.28.05.45 0 0zm-4.72-.21c.15-.28.05.45 0 0zm1 0c.15-.28.05.45 0 0zm53.43-.09c-1.8-1.17 1.4.55 0 0zm5.1-.32c-.14-.62.6.62 0 0zm-56.42-.16c.29-.2.23.35 0 0zm53.9-.2c.4-.19.4.34 0 0zm-56.75-.73c.55-3.18-.21 2.76 0 0zm58-.1c-1.32-2.86-.82-1.98.17-.28.34-.64.67 2.52-.16.28zm-5.21.62c.12-.41.36.4 0 0zm-48.97-.18c-.34-.68.42.09 0 0zm50.78-.1c-.5-.75.88.6 0 0zm-47.49-.35c.37-.4.13.41 0 0zm44.42-.1c.3-.2.23.35 0 0zm-47.37-.05c.83-1.12.61-.17 0 0zm47.03-.04c.25-.32.37.31 0 0zm-.41-.12c.26-.19.38.33 0 0zm-49.24-.1c.16-.48.36.19 0 0zm3.93-.1c.1-.48.1.46 0 0zm51.43 0c.12-.39.25.36 0 0zm-4.9-.18c-.17-.65.48.43 0 0zm-43.93-.04c.59-.65.41.25 0 0zm-1.05-.23c-.38-2.53.44-.72 0 0zm-6.48-.18c.19-.52.31.38 0 0zm52-.1c-2.57-1.04 2.35.6 0 0zm-47.68 0c.15-.48.35.18 0 0zm2.5-.12c.06-.7.5-.17 0 0zm50.26-.06c-.33-.83.39.02 0 0zm-51.7-.13c-.18-.5.44.04 0 0zm50.56-.07c-.1-.68.46.6 0 0zm-5.35-.2c-.23-.66.7.59 0 0zm-43.51-.48c-.24-3.46.85.97 0 0zm-7.09-.34c.17-1.59.1 1.36 0 0zm5.34.3c.2-.9.29-.05 0 0zm51-.4c-.58-2.03.56 1 0 0zm-4.73-.02c-.2-.53.47.48 0 0zm-2.4-.22c-.38-1.08.89.96 0 0zm3.21-.03c0-.86.62.58 0 0zm-53.39-.58c.1-.87.07 1 0 0zm5.9.25c.77-1.21.21.51 0 0zm50.86.04c-.32-.47.44.09 0 0zm-9.03-.18c-7.11-4.72 3.84 1.44 0 0zm1.99-.22c-1.65-1.42 1.43.75 0 0zm-42.92-.1c.18-.7.31.57 0 0zm44.41 0c-.4-.59.91.6 0 0zm-5.17-.16c-1.37-1.65.87.59 0 0zm2.69-.07c-.32-.47.44.09 0 0zm6.15-.04c.3-.2.23.36 0 0zm3.06 0c-.13-.52.33.4 0 0zm-10.94-.1c.13-.4.37.4 0 0zm-36.84-.1c.25-.37.12.38 0 0zm-3.57-.52c.01-1.96.16 1.77 0 0zm2 .18c-.23-1.15 1.01-.12 0 0zm42.67.05c-.35-.44.65.54 0 0zm.68.02c-.76-.84.62-.16 0 0zm-2.23-.25c.12-.38.25.37 0 0zm-47.92-.06c.2-.9.29-.05 0 0zm7.72-.05c.84-.4-.4.43 0 0zm44.61-.13c-.68-.84.79.83 0 0zm-9.53-.08c-.1-.5.46.36 0 0zm11.46-.05c.06-.57.35.56 0 0zm-2.5-.44c-.88-1.08.76.27 0 0zm-9-.06c-1.7-4.66.17-1.22 0 0zm11.5.07c-.25-1.35.38.19 0 0zm-49.09-.3c.32-1.09 0 .93 0 0zm.72.15c.13-2.16.57-2.31 1.53-3.43.13 2.73-.36 1.26-1.53 3.43zm1.13-1.93c-.48-.68-.33.22 0 0zm40.6 1.93c-.1-.55.47.44 0 0zm-45.72-.1c.25-.37.12.38 0 0zm2.56-.1c-.13-.53.32.39 0 0zm-5.1-.16c-.27-.76.36.49 0 0zm56.14 0c-.12-.58.44.58 0 0zm-5.97-.05c.12-.38.25.37 0 0zm4.33-.32c-.17-1.65.35 1.41 0 0zm-56.05-.36c.1-.68.06.81 0 0zm55.53.26c.27-.18.39.33 0 0zm-45.22-.3c.18-.71.31.56 0 0zm35.8.02c-.13-.45.34.49 0 0zm6.72 0c-.13-.45.35.49 0 0zm1.28-.21c-.36-.97.37.7 0 0zm-.38-.1c-.12-.46.35.48 0 0zm-8.99-.13c.19-.52.32.38 0 0zm11.2-.18c-.35-1.48.4.97 0 0zm-12.04 0c-.13-.46.34.48 0 0zm5.66-.3c.26-.75.04.86 0 0zm-39.45.12c1.3-2.4 1.1-5.48 1.17-1.32-.38.35-.65 1.26-1.17 1.32zm.77-1.23c-.2.05.15.46 0 0zm32.78.52c-1.2-3.66.86 1.37 0 0zm-24.61.25c.45-1.44.2.84 0 0zm36.94.03c-.04-1.2.62.65 0 0zm.9-.04c-.43-.92.57.62 0 0zm-7.45-.08c.44-.15.04.2 0 0zm2.64-.2c.14-.28.04.45 0 0zm-7.17-.11c-.34-.69.42.08 0 0zm-24.76-.45c.74-1.43 2.26-1.7 0 0zm33.99.04c-.24-.96.55.7 0 0zm1.92.02c-.03-1.86.65-1.04 0 0zm-47.69-.03c-.31-.47.45.09 0 0zm-4.94-.15c-.12-.52.33.4 0 0zm-1.54-.33c.5-.92-.14.82 0 0zm1.2.14c.15-.48.35.18 0 0zm6.28-.29c.54-1.96.24 1.12 0 0zm45.13.13c.1-.5.06.62 0 0zm-5.61-.4c.56-2.98 1.26-7.42 1.78-8.28.3-2.21.79-3.05 1.65-4.8-.7 4.16-.82 5.36-2.07 8.96.65.1-1.19 2.95-1.36 4.12zm.9-3.25c.53-2.28-.74 2.11 0 0zm.67-2.4c.97-3.38.68-3.62-.16 0-.6 1.84-.14 1.63.16 0zm.94-3.7c-.07-.73-.23.72 0 0zm.3-1.3c.12-1.05-.51 1.88 0 0zm-30.29 10.55c.35-.49-.12.45 0 0zm21.13-.03c.15-.28.05.45 0 0zm10.75-.05c.09-.47.09.47 0 0zm-45.84 0c.12-.4.36.4 0 0zm35.34-.43c-.2-2.46.4 1.76 0 0zm12.86.38c-.27-.77.37.48 0 0zm1.1-.02c-.13-.46.34.48 0 0zm-53.21-.24c.12-.38.25.37 0 0zm41.73 0c-1.04-.84 1.35.32 0 0zm7.96-.37c-.16-1.47.38 1.21 0 0zm1.05.16c-.1-.74.4.74 0 0zm-53.55-.2c.25-.38.12.37 0 0zm7.93 0c.25-.4.38.37 0 0zm33.68-.07c.15-.27.05.45 0 0zm2.4-.26c-.65-1.64.82 1.43 0 0zm5.12.32c.26-.37.26.38 0 0zm6.33-.17c-.48-2.31.62 1.08 0 0zm-48.64.07c.12-.38.25.37 0 0zm-4.01-.21c-.25-.5.96.07 0 0zm39.9-.17c.15-.27.05.45 0 0zm-34.43-.04c.39-.34.4.18 0 0zm45.48-.27c.14-.27.04.45 0 0zm-10.36-.5c-.17-1.12.57.28.08.53zm-38.39.3c-.36-.56.71.57 0 0zm47.15-.1c-.35-1.31.5 1 0 0zm3.62-.21c.1-.68.06.81 0 0zm-52.76.03c.06-.88.43.52 0 0zm6.41-.47c-1.35-2.1-1.6-2.45-2.05-4.15-1.2-2.78 1.16 1.26.7-1.3 1.33-.14.83-3.1 1.37-3.43-.2-2.93.73-3.67.3 1.02.05.6 1.4-2.86.39.44-.5 3.2-.9-.71-.59 3.16-1.1.41-.59 3.56.21 4.8zm-.68-3.07c-.2.05.14.45 0 0zm.13-1.79c-.34-.5-.24.5 0 0zm-4.56 5.21c-.59-.88 1.05.6 0 0zm1.98-.1c-2.38-.92 1.08-.42 0 0zm49.13 0c-.49-1.8.38.43 0 0zm-48.1-.07c.11-.38.24.37 0 0zm-5.53-.15c-.52-.49.91.46 0 0zm8.99-.06c-.12-.72.58.57 0 0zm-6.98-.15c-.3-.95.88.45 0 0zm4.17 0c-1.05-.76.8.23 0 0zm34.36-.03c-.35-1.09.69.83 0 0zm-42.23-.2c-.19-.85.54.76 0 0zm53.77-.2c.1-.67.06.82 0 0zm-1.36.07c.02-.48.23.43 0 0zm-50.07-.07c-.1-.64.69.24 0 0zm50.96 0c.06-.57.35.57 0 0zm1.77-.05c-.22-.7.43.65 0 0zm-47.84-.47c-2.97-1.94 2.58.8 0 0zm46.86.47c-.13-.53.33.4 0 0zM57.92 184c-.36-.67.62.21 0 0zm36.84-.46c.07-1.62.27 2.02 0 0zm-39.53.19c-2-1.84 1.56.61 0 0zm1.57 0c.14-.6.14.6 0 0zm51.11.01c-.26-1.27.52.86 0 0zm-12.06-.23c.3-.2.23.36 0 0zm1.51.06a77 77 0 0 1 4-13.97c-.38 3.14-.57 3.54-1.42 6.1.03.48-1.06 3.94-.93 3.95-.21.8-.83 1.83-1.65 3.92zm.7-2.45c-.38.17-.04.69 0 0zm.44-1.33c1-2.83 1.5-6.05.2-1.15-.13.46-1.19 4.03-.2 1.15zm1.72-5.93c1.24-4.53-1.5 4.43 0 0zm.62-2.35c-.2.05.15.46 0 0zm-51.7 11.93c-1.6-2.83.48.04 0 0zm55.61 0c-.31-.46.45.1 0 0zm.55-.12c-.45-.92.56.62 0 0zm-55.27-.01c.25-.37.12.38 0 0zm2.04-.08c-.3-.48.56.63 0 0zm10 .08c.26-2.72.54-1.1 0 0zm-11.24-.36c-1.44-1.41 1.24 1.14 0 0zm3.31.15c-.26-.41.87.43 0 0zm53.03-.03c-.34-1.28.35.42 0 0zm1.39-.25c-.13-.46.34.48 0 0zm-51.85-.29c-.2-.53.47.47 0 0zm2.51-.01c.15-.28.05.45 0 0zm-7.2-.2c-.49-1.06.7.93 0 0zm9.51-.33c-.67-2.23.83 1.93 0 0zm33.38.32c-.16-.73.4.48 0 0zm-45.73-.04c-.36-.52.57.37 0 0zm4.56 0c.12-.38.25.37 0 0zm17.66-.04c0-.94.47.58 0 0zm33.96-.06c.02-.47.24.44 0 0zm2.69.1c-.95-1.85.57.04 0 0zm-59.98-.16c-.2-.57.86.57 0 0zm1.99-.02c-.9-1.38.68.68 0 0zm8.25-.08c-.6-.91.86.95 0 0zm.98-.01c-.76-.84.61-.16 0 0zm-5.9-.64c-.86-.93 1 .9 0 0zm19.32.18c.26-.39.39.37 0 0zm-.35-.1c.26-.38.26.37 0 0zm1.45-.05c-.5-.64.77.4 0 0zm1.36.04c.25-.37.12.38 0 0zm-12.74-.19c-.18-.86.52.58 0 0zm46.47.04c-.34-.68.58.43 0 0zm-13.65-.11c.31-.38.19.52 0 0zm-37.44-.1c-.31-.72.52.56 0 0zm-8.63-.22c.31-.37.18.53 0 0zm25.5.07c1.29-.8.17.39 0 0zm-23.64-.19c-.13-.45.35.49 0 0zm56.4-.34c-.49-1.3.71 1.06 0 0zm.52.22c-.19-.5.44.04 0 0zm-1.9-.34c-.16-1.25.34 1.05 0 0zm-11.61-.04c.06-.9.22.92 0 0zm-18.87.06c.24-.37.12.38 0 0zm-21.92-.15c.3-.37.27.49 0 0zm3.65-.06c-.17-.39.5.39 0 0zm-.56-.22c-.1-.55.47.45 0 0zm13.92-.1c-.35-.87.54.63 0 0zm25.67.03c-.3-.48.55.63 0 0zm-48.64-.08c-.07-.72.47.6 0 0zm28.57-.02c-.3-.49.55.63 0 0zm29.63-.12c-.48-1.26.55.66 0 0zm-53.54.03c-.65-.57.6-.18 0 0zm40.88-.1c-.26-.52.58.58 0 0zm-24.59-.42c-1.02-1.77 1.35 1.74 0 0zm-13.79.2c-.31-.47.45.09 0 0zm3.11-.09c.06-.57.35.57 0 0zm17.56.06c.04-.52.4.37 0 0zm-25.01-.08c-1.23-1.14.86.3 0 0zm57.64-.1c-.12-.72.44.63 0 0zm-38.02-.11c-.35-.44.66.54 0 0zm35.9.08c.25-.37.12.38 0 0zm-49.22-.1c-.18-.82.62.4 0 0zm39.84-.07c.15-.27.05.45 0 0zm-19.16-.05c.31-.58.33.38 0 0zm-24.3-.16c.77-2.86 1.84-6.24 2.35-6.62.8-2.32 1.98-3.58 2.24-5.37.65.56 2.83-5.33 1.3-.67-.83 2.7-1.8 3.57-2.46 6.18-.96.95-2.52 4.32-3.43 6.48zm2.9-6.67c1.23-2.39 1.64-3.95.13-.65-1.37 2.9-2.15 5.06-.12.65zm1.82-3.82c1.37-2.97-1.25 1.94 0 0zm50.03 10.21c-.68-1.47.76 1.16 0 0zm-55.92.13c-.12-.52.33.4 0 0zm4.03-.16c-.1-.46.5.58 0 0zm.97-.18c.36-.98.23.82 0 0zm3.49.06c.1-.74.3.94 0 0zm44.63.22c-.33-.69.43.08 0 0zm-46.37-.1c-.32-.48.45.08 0 0zm3.35-.1c.15-.28.05.45 0 0zm6.07-.05c-.13-.93.64.87 0 0zm.8-.11c-.49-.65.74.68 0 0zm23.66.01c-.42-1.5.58.86 0 0zm-45.73-.17c.24-1.12.06.87 0 0zm1.61.1c-.06-.83.6.38 0 0zm28.04-.03c.25-.38.26.37 0 0zm18.72-.1c.12-.39.25.36 0 0zm10.4-.1c-.2-.74.43.66 0 0zm-11.41-.34c.28-1.67.03 1.55 0 0zm-42.4.07c.08-.55.24.54 0 0zm7.88-.24c-.66-1.92.83 1.37 0 0zm12.15.3c-.02-.75.62.57 0 0zm34.27-.24c-.31-.66.55.68 0 0zm-48.32-.04c.19-.49.33.58 0 0zm12.33-.05c0-.35-.44.04 0 0zm37.93.08c-.59-1.08.51.6 0 0zm-52.06-.04c-.34-.68.42.08 0 0zm36.67-.14c.29-.56.04.68 0 0zm-35.42-.2c-.3-1.1.57 1.1 0 0zm20.56.2c-.24-.66.67.4 0 0zm-24.72-.07c-.33-.83.38.02 0 0zm1.54-.2c.15-.27.05.45 0 0zm18.64.1c-.63-.58.74.28 0 0zm1.23-.04c.26-.37.26.38 0 0zm-16.41-.86c-.11-2.27.33 2.07 0 .07zm.64.47c-.3-.48.55.63 0 0zm11.7.08c.27-.4.5.38 0 0zm35-.13c-.36-.64.73.77 0 0zm-57.1-.18c.08-.65.08.65 0 0zm10.9.1c-.3-.89.5.76 0 0zm9.96.05c.15-.28.04.44 0 0zm3.47.1c-.31-.48.45.08 0 0zm1.9-.17c-.68-1.38.98.82 0 0zm-11.6-.13c.2-.55.2.54 0 0zm16.51.05c.26-.39.38.37 0 0zm14.8-.05c.25-.55.25.54 0 0zm-22.88-.2c-.42-.87.62.42 0 0zm5.45.07c.66-.15.12.17 0 0zm.45-.13c.01-.47.23.44 0 0zm29.8-.09c-.7-1 .91 1.03 0 0zm-56.82-.07c.09-.55.24.55 0 0zm42.62-.16c.08-.65.08.65 0 0zm14.6.14c-.13-.46.34.48 0 0zm-38.54-.34c.02-.47.24.44 0 0zm36.5-.06c-.45-1.09.7.93 0 0zm-33.5.05c.11-.42.58.5 0 0zm5.06-.05c-.19-.53.48.48 0 0zm25.46.09c-.31-.47.45.09 0 0zm-56.84-.17c.42-1.53.1.66 0 0zm2.88-.03c.15-.28.05.45 0 0zm25.29-.1c-.34-.67.58.43 0 0zm5.08.09c-.15-.7.5.3 0 0zm-20.22-.44c-.82-1.8 1.31 1.36 0 0zm21.88.3c.25-.38.24.33 0 0zm12.84-.18c0-.8.37 1.03 0 0zm-48.79.06c.28-.76.1.4 0 0zm15 .02c-.04-.66.57.13 0 0zm36.3-.1c.1-.48.1.46 0 0zm-.94.03c-.32-.47.44.09 0 0zm-37.35-.2c-.15-.74.36.49 0 0zm11.44.08c0-.77.36.3 0 0zm12.79-.01c.75-.9 1.63-.43 0 0zm-4.18-.11c-.98-.42 1 .08 0 0zm-28.13-.21c.1-.47.1.47 0 0zm9.82-.01c-.3-.89.5.76 0 0zm13.14.14c.44-.14.03.2 0 0zm6.5-.13c-1.11-.7.91.12 0 0zm27.98-.03c.03-1.03.78.16 0 0zM70 174.44c-.26-1.08-.1-.38 0 0zm0-.36c-.33-.4.11.52 0 0zm5.92.21c-.22-.83.43.63 0 0zm.72.16c.55-.17.63.33 0 0zm27.65-.18c.1-.74.31.94 0 0zm-59.92-.01c.41-1.2.27.7 0 0zm50.69.08c.3-.2.23.36 0 0zm8.18 0c.12-.37.25.38 0 0zm-44.97-.47c-.57-1.5.94 1.31 0 0zm-5.46.1c.14-.27.04.45 0 0zm7.49-.39c-1.35-1.71.24-3.24.82-2.48 0 1.17-1.18-.57-.71 2.7l-.04.22zm13.2.42c-.02-.48.92.56 0 0zm20.6-.1c-.68-.83.78.84 0 0zm-11.29-.03c.32-.38.19.53 0 0zm10.04.05c.3-.2.23.36 0 0zm9.9-.06c-.15-.68.44.63 0 0zm-32.02 0c-.31-.47.45.09 0 0zm6.11-.14c-.17-.9.4.66 0 0zm1.32.14c-.15-.77 1.33-.07 0 0zm-18.49-.2c-.46-2.18.72-.12 0 0zm.41-.01c-.12-.46.35.48 0 0zm45.02-.03c-.25-.74.47.75 0 0zm-53.9-.12c.38-2.38 1.86-4.22 2.78-6.62 1.04-2.23 2.08-3.76 2.92-5.25 2.8-5-.63 3.87-1.4 3.93.51-1.98 2.14-4.57-.04-.78-1.11 1.84-4.87 9.74-1.97 4.1 3.04-5.46 1.43-1.21-.56 1.45-.52 1.09-1.15 2.12-1.74 3.17zm5.9-11.61c-.29.2-.13.46 0 0zm12.01 11.27c-2.24-2.21 1.52.74 0 0zm14.27.15c-.79-.73 1.32.35 0 0zm19.6-.18c.2-1.04.26 1.04 0 0zm-46.15.07c.09-.47.09.47 0 0zm23.7.07c-1.3-.75 1.7.4 0 0zm24.72.04c.12-.38.24.37 0 0zm1.45-.1c-.6-.65.9.6 0 0zm-58-.16c.11-.5.06.62 0 0zm25.95.2c-.13-.65 1.49.06 0 0zm7.43-.01c-.07-.83.6.37 0 0zm11.99-.22c-.27-.77.5.89 0 0zm-23.15-.26c-1.29-1.78 1.42 1.6 0 0zm8.63.17c-.6-.88 1.2.79 0 0zm1.86.16c.29-.2.23.36 0 0zm-3.27-.18c-.66-1.2 1.12.36 0 0zm25.65-.02c.09-1.47.65.4 0 0zm-50.89-.22c.29-.56.03.69 0 0zm23.33-.18c-.76-1.3 1.98 1.11 0 0zm8.49.19c-.42-.7.86.43 0 0zm-36.44-.01c1.65-4.3 1.53-2.47 0 0zm14.07-.07c-.44-1.12.58.51 0 0zm19.06.08c-.17-.38.5.39 0 0zm22.88-.17c-.16-1.14.52.68 0 0zm2.42.07c-.32-.92.45.76 0 0zm-33.98-.17c-.52-1.07.71.86 0 0zm1 .1c-.1-.45.5.58 0 0zm29.3-.04c-.16-.9.4.66 0 0zm-19.19.04c-.18-.66 1.12.13 0 0zm-25.25-.11c-.25-.9.56.08 0 0zm-10.45-.5c-.17-1.83.36 1.59 0 0zm26.4.36c.25-.38.37.38 0 0zm5.81-.05c-2.68-.06.49-1.09 1.36-1.17-3.37-1.48 1.93-.6 1.8-1.18.95-.12-1.63-1.95 1.76-.3 2.86.94-1.94-.6-1.65 1.16-2.03 1.04-2.83-.12-3.27 1.49zm1.89-1.55c-.25-.66-1.21.46 0 0zm.43-.35c-.44-.02.18.5 0 0zm12.74 1.95c.27-.18.38.34 0 0zm9.15-.26c-.5-1.26.66 1.19 0 0zm-11.07.1c-.11-.7.31.57 0 0zm5.07-.02c-.34-.45.78.6 0 0zm-28.45-.35c-2.39-2.13 1.25.75 0 0zm.52.17c-.39-1.24.66.54 0 0zm22.42 0c-.16-.58.63.6 0 0zm10.04-.05c-.26-.83.51.55 0 0zm-30.35.03c-.31-.47.45.09 0 0zm2.94-.1c-.17-.55.85.44 0 0zm1.41.02c-.23-.66.7.58 0 0zm5.97.05c.39-.38.26.38 0 0zm21-.37c-.66-1.49.94 1.66 0 0zm-7.87.3c-1.01-.87.86.1 0 0zm4-.1c.14-.27.04.45 0 0zm-50.7-.09c.18-.52.31.38 0 0zm32.97.05c.12-.4.36.4 0 0zm-36.18-.18c.52-1.5.33.59 0 0zm1.4.1c.12-.78.4.32 0 0zm51.6-.13c-.25-.74.47.75 0 0zm2.19.03c-.3-.49.55.63 0 0zm4.68-.03c-1.2-1.54 1.27 1.02 0 0zm-13.43.04c-.34-.69.42.08 0 0zm11.5-.22c-.97-1.53.9 1 0 0zm.55.22c-.65-.57.59-.18 0 0zm-45.65-.42c.1-.47.46.7 0 0zm20.04.01c.06-.57.35.57 0 0zm5.88.03c1.27.08.14.01 0 0zm-29.32-.26c-.26-.77.5.89 0 0zm22.68.18c.25-.37.25.38 0 0zm25.05-.05c-.37-1.17.78.44 0 0zm-31.01-.12c-.31-.47.45.09 0 0zm4.55-.04c-.88-.35 1.17.24 0 0zm29.37-.17c-.1-.45.5.59 0 0zm-1.88-.19c-1.77-1.78-1.2-.47-.92-1.93-1.7-2.4.8-.88.81 1.17-.64-.58.79 1.79.1.76zm-19.16-.16c.5-1.37.3 1.14 0 0zm-35.16.06c.16-1.27.56-.4 0 0zm22.21-.01c.32-.38.19.52 0 0zm-12.37 0c-.76-.84.61-.16 0 0zm15.44-.12c-.12-.45.35.49 0 0zm2.26-.1c-.68-1.08.86.96 0 0zm-7.7-.33c-1.3-2.1 1.5 1.38 0 0zm1.51.35c-.36-.56.72.56 0 0zm-24.53-.16c.13-.6.13.6 0 0zm7.25-.1c.44-.99-.2 1.07 0 0zm19.3.2c.26-.18.38.34 0 0zm29.16.02c-1.16-.97 1.36.16 0 0zm.86-.09c-.13-.45.35.49 0 0zm-55.37-.03c.26-.37.26.37 0 0zm32.32-.1c-.57-.74.9.73 0 0zm25.2-.2c-.18-.74.44.66 0 0zm-28.56-.12c.12-.4.36.4 0 0zm16.51 0c-.16-.38.51.4 0 0zm-21.52-.08c0-.77.36.3 0 0zm9.08-.08c-.18-.57.61.42 0 0zm-26.05-.04c.03-.51.33.35 0 0zm22.43 0c.26-.38.26.37 0 0zm23.76-.06c.17-1.07 1.14.43 0 0zm-50-.05c.02-.93.3.34 0 0zm27.92.04c.15-.74 1.34.27 0 0zm-24.76-.22c.3-.95.05.62 0 0zm19.27.02c-.16-.58.63.6 0 0zm19.72.06c.12-.38.25.37 0 0zm-34.47-.17c.15-.28.04.45 0 0zm12.38 0c-.51-.42.83.45 0 0zm10.22.04c.55-.48.51.4 0 0zm3.2-.22c1.26-.63-.9 1.06 0 0zm10.83.24c-.35-.44.65.38 0 0zm3.67-.07c-.12-.46.35.48 0 0zm-51.14.02c.07-.58.35-.15 0 0zm23.8-.29c-.23-.92.49 1.06 0 0zm-.97.13c-.43-.94.46.26 0 0zm8.32-.23c-.96-1.03 1.15 1.04 0 0zm12.1.05c.17-.94.28 1.23 0 0zm2.58.11c-.31-.47.45.1 0 0zm-42.93-.17c-.65-.07.25-.74 0 0zm50.84.03c-.12-.53.33.4 0 0zm-50.43-.07c.17-.78.57-.27 0 0zm8.49-.08c.09-.55.24.54 0 0zm11.6.03c-.56-.8.62.06 0 0zm8.9.05c.44-.14.03.2 0 0zm2.17-.03c.12-.42.6.49 0 0zm.54-.17c.3-.62 1.14.34 0 0zm9.57-.07c-.85-1.75 1.01.42 0 0zm8.31.08c-.12-.58.44.58 0 0zm-26-.05c.26-.37.26.37 0 0zm-4.98-.16c-.1-.68.46.6 0 0zm3.34.1c-.31-.48.45.08 0 0zm18.61-.1c-1.62-.84.64-.48 0 0zm10.1-.03c-1.05-2.03.78-.23 0 0zm-3.33-.02c-.11-.55.54.4 0 0zm5.87-.05c-.34-.68.52.56 0 0zm-23.99-.16c-.77-.62 1.15.5 0 0zm-28.45-.22c.85-2.07-.3 1.18 0 0zm3.82.07c.21-1.14.1.67 0 0zm45.61.1c-.26-.53.58.58 0 0zm-32.36-.27c-2.7-2.66 1.9 1.55-.4-2.05 0 .23 1.72 3.38.4 2.05zm8.95.18c-.43-.7 1 .52 0 0zm22.48.08c-.43-1.57.35-.03 0 0zm-28.82-.22c-.13-.45.35.49 0 0zm-.7-.08c-.05-.57.6.61 0 0zm33.05-.03c-.3-.48.55.63 0 0zm-55.13-.41c.23-1.8.07 1.59 0 0zm48.22.39c-.37-.47.6.22 0 0zm7.7-.4c-.92-1.74 1.03 1.48 0 0zm-10.61.3c-.04-.88 1.59.44 0 0zm-14.16-.11c.08-.54 1.6-.22 0 0zm1.81 0c.4-.46.42.54 0 0zm.55 0c-.05-.62.52.03 0 0zm-35.03-.21c.87-3.82.72-1.23 0 0zm14.21-.08c0-.8.37 1.03 0 0zm12.35.2c-.8-1.28 1 .53 0 0zm-24.6-.2c.55-.69-.32.65 0 0zm23.32.03c.01-.64.52.3 0 0zm8.4.08c.66-.34.66.3 0 0zm19.17-.19c-.14-.55.82.6 0 0zm-47.43-.23c.83-1.18-.6 1.19 0 0zm7.51.12c-.1-.68.46.6 0 0zm10.26-.1c-.41-.82.85.84 0 0zm6.72.15c-.13-.52.33.4 0 0zm25.15-.24c-.25-1.1.68.55 0 0zm-9.74-.07c.3-.2.23.36 0 0zm5.71-.07c-.3-.48.55.63 0 0zm-18.16-.08c-.7-.57 1.28.52 0 0zm19.46-.13c-.34-.44.66.54 0 0zm-26.12-.08c-.26-.76.37.49 0 0zm20.79.04c.54-.3-.24.32 0 0zm1.78-.04c-.41-.47 1.01.45 0 0zm1.66.05c.3-.2.23.36 0 0zm-18.13-.1c-1.82-.95.9.4 0 0zm-29.85-.04c.14-1.53.79-.1 0 0zm54.23-.08c-.62-1.48.6.38 0 0zm-22.91-.09c-.31-.37.97.38 0 0zm12.6-.07c-.12-.46.35.48 0 0zm6.51.06c.35-1.43.93.27 0 0zm-47-.24c.54-.7-.05.83 0 0zm3.9.15c.25-.37.12.38 0 0zm41-.1c.12-.41.36.39 0 0zm-22.18-.11c.27-.4.5.38 0 0zm-14.64-.17c-.32-.47.45.08 0 0zm11.62-.17c-.73-.8.87.76 0 0zm4.67.13c.4-.18.4.34 0 0zm15.72-.1c.11-.61.54.54 0 0zm6.37 0c-.36-.51.57.37 0 0zm-3.97-.1c.25-.38.12.37 0 0zm-45.11-.23c.47-.6-.08.6 0 0zm42.35.12c-.37-.47.6.22 0 0zm-34.63-.08c.13-.78.4.32 0 0zm20.38-.14c-.81-.59 1.95.28 0 0zm5.26 0c-.13-.48.73.47 0 0zm-26.56-.34c.06-.67.16.65 0 0zm12.8.12c-.7-.9.6.36 0 0zm2.21 0c-.01-.47 1 .27 0 0zm-25.24-.12c.47-1.01.08.54 0 0zm15.37-.06c.03-.68.29.56 0 0zm16.81.04c-.7-.36.98.3 0 0zm.65.06c.26-.38.26.37 0 0zm17.56-.07c-.31-.49.75.56 0 0zm-2.95-.04c.12-.4.36.4 0 0zm8.68-.05c-.59-.55.94.55 0 0zm-21.24-.1c-.45-.5.9.31 0 0zm-9.6-.43c-1.07-1.67-.76-3.76.03-.6-1.08-.47 1.38 1.96-.04.6zm13.69.15c.4-1.15.92.64 0 0zm-32.74.12c.26-.37.26.37 0 0zm22.1-.05c.06-.52 1.83.42 0 0zm3.14 0c-.52-.72.9.63 0 0zm-8.88-.1c-.34-.69.52.56 0 0zm12.65-.05c.1-.76.63.8 0 0zm14.46.1c.29-.2.23.35 0 0zm2.56 0c.12-.42.59.49 0 0zm.94-.08c-.3-.48.55.63 0 0zm-41.95-.08c.32-.38.19.52 0 0zm44.32-.05c.26-.19.38.33 0 0zm-21.83-.05c.36-.5 1 .06 0 0zm-10.4-.26c-3.7-1.82 1.33.26 0 0zm-20.36-.4c0-1.74.29 1.6 0 0zm1.66.19c.1-.47.1.47 0 0zm30.6.05c-.37-.6 1 .54 0 0zm13.55.05c-.24-.4.87.45 0 0zm-36.27-.22c.37-.3.16-.15 0 0zm18.1.12c.26-.37.26.37 0 0zm19.75-.01c-.63-.74.72.35 0 0zm-38.3-.32c-.14-2.03.24 1.36 0 0zm3.45.22c.12-.38.25.38 0 0zm12.52-.02c-.42-.75.53.38 0 0zm17.82.06c.44-.15.04.2 0 0zm-14.88-.14c-.42-.69.42.3 0 0zm-4.67-.1c-.4-.43.83.4 0 0zm7.23-.22c-3.09-1.71 2.93.67 0 0zm4.83.2c-1.1-.46 1.61.24 0 0zm8.32.01c.25-.37.25.38 0 0zm4.98-.06c.48-.26.07.5 0 0zm1.04-.14c-.06-.9.97.75 0 0zm-47.28.04c.31-.37.05.51 0 0zm41.98-.04c-.24-.65.84.7 0 0zm-20.34.01c-1.32-.72 1.4.28 0 0zm11.63-.12c.1-.8.46.63 0 0zm-35.47-.05c.2-.9.29-.05 0 0zm6.48-.1c.01-.7.3.54 0 0zm27.67.02c1.1-1.24.92.38 0 0zm-9.81-.14c-.54-.92 1.08.67 0 0zm-26.45-.15c.24-1.27.23.77 0 0zm1.66-.18c-.58.24-.37-2.75.11.28zm29.1.3c.21-.52.52.36 0 0zm3.36.05c.47-.36.87-.11 0 0zm-29.25-.2c.35-.48-.13.46 0 0zm6.43-.4c-.08.79.85-1.3.35.54zm11.67.36c-.34-.46.78.59 0 0zm5.62 0c-.31-.48.75.56 0 0zm22.41-.18c-1.96-1.37 2.19 1.04 0 0zm.8.1c-1.55-1.98.59 0 0 0zm-31.58.04c-.13-.52.32.4 0 0zm24.54-.04c.19-.45 1.18.4 0 0zm-40.25-.16c.31-.57.18.7 0 0zm30.36.11c1.1-.5.1-.09 0 0zm12.75 0c.26-.39.39.37 0 0zm-15.76-.18c-2.3-1.34.44-.3 0 0zm6.08-.03c.25-.38.25.37 0 0zm-10.04-.09c2.32-1 .5.32 0 0zm9.36.02c.78-.17.15.16 0 0zm11.77-.15c-.93-.7 1.57.58 0 0zm-22.54-.1c.3-.2.23.35 0 0zm7.68-.08c-1.07-1.28 1.34.58 0 0zm-31.83-.8c.07-1.42.06 1.55 0 0zm22.57.34c-2.02-1.62 2.2 1.4 0 0zm4.03.18c-.23-.86 1.12.3 0 0zm7.2.2c-1.83-.4 2.18-1.46 0 0zm10.92-.16c-.05-.32.8.16 0 0zm-31.85-.17c-.13-.45.35.49 0 0zm7.32.08c.26-.19.38.33 0 0zm-10.24-.38c-.83-2.25 1.05 1.32 0 0zm2.57-.46c-.56-1.98.94 1.82 0 0zm18.2.42c.37-.4.13.41 0 0zm-16.4-.16c.15-.28.05.45 0 0zm10.71 0c-1.66-.8 1.96.44 0 0zm21.65.01c-.53-.66.8.39 0 0zm-23.15-.03c.22-.5-2.25-2.42.87-.09l-.23.12zm5.82-.1c.55-.16.1.19 0 0zm-30.43-.2c-.26-.76.37.5 0 0zm33.01.06c.25-.37.12.38 0 0zm12.15 0c-.26-.4.87.44 0 0zm-1.56-.1c.84-.4-.4.42 0 0zm5.22 0c-.16-.38.51.39 0 0zm-18.82-.1c-1.93-.83.6-.52 0 0zm3.67-.01c.49 1.39.24.5 0 0zm-23.5-.21c.15-.62.6.81 0 0zm1.91.12c.19-.53.32.38 0 0zm8.52-.14c-.31-.66.74.78 0 0zm17.48.14c.18-.55.16.38 0 0zm-37.58-.2c-.02-1.06.27.82 0 0zm8.64.02c-.32-.47.45.09 0 0zm37.23-.03c.55-.54.27.5 0 0zm-3.82-.1c-.36-1.28 3.47-.34 0 0zm4.47-.1c-2.66-.53-1.95-1.33.2.07l-.3-.02zm-15.3-.23c-3.18-1.2-1.72-1.86-.16-.3.35.1 1.51.87.17.3zm1.63.14c.44-.14.04.2 0 0zm.32.03c.39-.34.4.19 0 0zm-4.52-.16c-.35-.44.65.38 0 0zm-28.34-.58c-.89-3.12.9 2.04 0 0zm3.9.37c-.17-.9.4.65 0 0zm6.34.14c-.33-.83.38.02 0 0zm5.36-.2c-.45-1.8.28.04 0 0zm17.86.05c-.51-.36 1.43-.1 0 0zm-31.87-.1c.25-.37.12.38 0 0zm3.76-.05c-.17-.57.62.42 0 0zm35.44-.05c.77-1.13.4.5 0 0zm6.62-.1c-.17-.39.5.38 0 0zm-16.56-.1c.82-.35-.06.37 0 0zm2.4-.12c-.81-.74.98.64 0 0zm-6.02.02c.67-.18.67.3 0 0zm3.33-.05c1.38-.66-.6.62 0 0zm1.3.04c1.16-.35.94.33 0 0zm-23.35-.1c.25-.38.12.37 0 0zm25.55-.05c3.07-.75-1.28.52 0 0zm-21.16-.3c-.34-1.17.75.99 0 0zm30.5.24c.4-.46.41.54 0 0zm-9.64-.21c-.77-.38 3.8-.76 0 0zm11.42.03c.18-.96.44.33 0 0zm-38.57-.14c.12-.38.24.38 0 0zm28.5 0c.38-.39.55.39 0 0zm.76 0c.7-.43 1.27-.07 0 0zm10.59-.1c-.45-.73.9.7 0 0zm-34.02-.06c-1.2-3.34-1.17-2.03-.01-2.35-1.29-3.9 1.46 2.88-.22 1.18-.17-1 .7 2 .23 1.17zm2.67-.22c-1.45-2.72.88 1.07 0 0zm26.98.25c1.21-.5.19.5 0 0zm-38.87-.15c-.9-1.38.68.68 0 0zm.44-.03c.09-.47.09.47 0 0zm6.06.11c.03-.5.33.35 0 0zm1.5-.01c-1.85-.86.56-.06 0 0zm2.93.04c-.3-.88.41.2 0 0zm14.17-.2c.44-.16.04.19 0 0zm8.83 0c.69-1.1 1.5-1.73 3.12-1.3 4.51.39-2.59.08-2.5.9-.12.1-.4.63-.62.4zm-28.72-.11c-.31-.47.45.09 0 0zm1.3-.21c-.13-.46.34.48 0 0zm-6.18-.1c.15-.27.05.45 0 0zm40.05.06c.57-.32.7.42 0 0zm-6.65-.07c.44-.14.04.2 0 0zm-35.21-.32c.16-.74.11.92 0 0zm34.81.22c.44-.15.04.2 0 0zm-34.4-.45c-.66-1.34-.37-.4 0 0zm1.3.15c.15-.28.05.45 0 0zm6.84-.08c-1.04-1.76.93 1.05 0 0zm.8-.12c-.43-1.41.54 1.04 0 0zm23.07.26c1.81-.5-.2.45 0 0zm11.83.03c.44-.15.04.2 0 0zm-.4-.1c.44-.15.03.2 0 0zm-2.4-.36c-3.3-.29 1.58-.12 0 0zm-34.36-.29c-.96-1.2.95 1.01 0 0zm4.61.03c-.1-.46.5.58 0 0zm1.87-.51c-2.1-2.69 2.4 2.27 0 0zm-7.35.47c.4-.18.4.34 0 0zm35.42-.07c.44-.15.04.2 0 0zm3.18-.04c-5.03-.66-2.38-.43 0 0zm-43.47-.69c-.46-1.46.63 1.36 0 0zm4.93-.2c-1.22-2 1.69 2.19 0 0zm4.8.36c-.49-.7.78.7 0 0zm-2.43-.47c-.37-.97.74.38 0 0zm-4.44-.25c-.63-.67.93.62 0 0zm5.35-.23c-.63-1.16.56.47 0 0zm3.6-.3c-.46-.88.57.63 0 0zm-10.05-.03c-.42-.87.62.42 0 0zm-2.46-.23c-.31-.77.63.97 0 0zm1.15.12c-.08-.88.54.9 0 0zm9-.04c-.23-1.33-3.76-2.35-1.48-1.94-2.8-3.82 1.58 1.17 1.47 1.94zm-10.64-.18c-.55-.68.74.56 0 0zm6.26-.15c-.16-.38.51.39 0 0zm33.61-.07c.44-.15.04.2 0 0zm-30.7-.23c-1.61-2.7.63.67 0 0zm-.99-.17c-.48-.96.82.94 0 0zm-6 0c-1.27-.7 1.5.14 0 0zm-2.74-.05c-.17-.38.5.39 0 0zm1.75-.1c.27-.19.39.33 0 0zm9.09-.27c.08-.55.24.55 0 0zm-10.21-.42c-.9-.85 1.15.79 0 0zm6.44.06c.27-.19.39.33 0 0zm-4.9-.32c.29-1.88.32 1.09 0 0zm-2.12-.15c-.38-.56.7.56 0 0zm2.77-.3c2.8-.27.55.19 0 0zm3.3-.06c-.35-.44.65.38 0 0zm-4.46-.48c-.09-1.07.4.7 0 0zm1.15-.46c-.56-.71.92.67 0 0zm2.79.13c.44-.14.04.2 0 0zm1.57-.14c-.14-.5.5.24 0 0zm2.45-.53c-.37-.94.97 1.05 0 0zm-1.88-.08c-.18-.56.62.4 0 0zm-4.83-.27c-1.4-.62 1.28-.17 0 0zm4.82-.31c-.6-.55.94.55 0 0zm-3.06-.67c.95-.46.83.14 0 0zm2.76-.05c-.93-.7 1.43.56 0 0zm-3.54-.65c.55-.17.1.18 0 0zm.52-.08c.55-.5.53-.1 0 0zm.7-.53c.02-.4 1.26.55 0 0zm-2.62-.02c.44-.15.04.2 0 0zm3.53-.37c1.03-.67.24-.22 0 0zm-.2-.66c-.9-.39 1.17.3 0 0zm-1.12-.33c.44-.14.04.2 0 0zm-.04-1.04c-1.04-.6 1.58.33 0 0zm-1.79-.18c.36-.32.5.3 0 0zm-.78-.34c.44-.15.04.2 0 0zm4.7-.62c.56-.17.1.18 0 0zm-6.42-.58c.47-.35.15.23 0 0z" style="fill:#000;stroke:#000;stroke-width:.2;stroke-dasharray:none;stroke-opacity:1"/></svg>