<svg xmlns="http://www.w3.org/2000/svg" xml:space="preserve" width="578.37" height="230mm" viewBox="0 0 153.03 230"><path d="m68.92 91.19-.11.01q.31.66.71 1.38c-1.81-1.48.31 1.41 1.93 3.37q.72 1.27 1.38 2.58c-.17.36-.54-.07-1.3-2.06-.02 1.01 1.33 2.9 2.4 4.63l.23.66c-.4.32-.14.46.12.44q.08.32.15.64c-.15-.22-.04.54.05.25l.03.19c-.06.31-.11.95-.13 2.02-.26-2.57-.61.13-.67 2.05q-.23.3-.52.58c-3.8-3.93-5.97-7.8-10.95-9.93l-.2-.1a7.4 7.4 0 0 1 2.4 2.55 6 6 0 0 0-1.19-.85l.07.63q-.36-.34-.84-.86a5 5 0 0 0-.62-.87l-.9-.49-.47-.5q0 .12.19.36c-3.38-1.75 2.4 1.94 2.69 4.5q.36-.1.64-.23c.52.97.74 1.93.28 2.71-.22 2.43.76 10.5.67 4.23.22-1.84-.35-5.63.03-5.98l.57.58.2.42c-.37.55-.03 2.72.44 1.8.55 1.27.7 1.49.81 1.4.57 1.82 1.06 3.4 1.7.32l.32.33c.02-.02-.12-.24-.3-.52q.02-.06.03-.13a10.6 10.6 0 0 1 4.22 4.78c-.45.54 0 .74.26.65.56 1.56.77 3.24.67 4.95l-.11.18c-.26-2.32-.34-3.21-.36-3.23-.04.08.26 5.43-.95 7.69-.55 1.24-.75 1.7-.74 1.72.06-.03.87-1.63 1.37-2.38q-.2.57-.43 1.12 0 .3-.1.63-.2.44-.2.66a9 9 0 0 1-2 2.94c-.74-.32-.83.07-.88.79-1.47 1.15-2.8 1.36-2.4-.6q.14-.73.65-1.89c.19-1.9-1.05-4.86-1.79-5.68 1.29 2.75 1.22 5.56.36 8.35-.01-.87.07-1.9.28-2.98-.36.14-.5.1-.54-.07l.05-.63c.1-.56.26-1.38.03-2.3q-.06-1.25-.3-2.49c-.22-.18-.38-.13-.41.27-.8-2.1-.3 2.01-.35 4.11-.1 2.43.89-1.11.08 2.92a48 48 0 0 0-2.74 5.66c.13-.17.24-.24.08.15l-.24.25v.02q-.7.72-1.53.9a2 2 0 0 0 .45-.43c-.03-.02-.19.07-.58.37l-.03.08q-.61.08-1.28-.24c.25-3.94.8-9.43-2.3-12.1 1.11 1.83 1.56 4.7 1.7 7l.02-.12c.6.5.2 1.04.01.8.05 1.44-.02 2.56-.12 2.86q-.16.6-.45 1.48c-.08-.08-.15.03-.17.5-.45 1.33-.98 2.83-1.1 3.64-.9.83-1.58 1.3 0-.74-.22-1.79.78-3.38 1.28-5.65.05 4.25.78-3.15-.15-.81-.35.46-.51-.42-.52-1.42l.01-.73c.07-1.04.3-1.9.65-1.07-.28-1.33-.31-2.03-.84-3.33q-.14-1.24-.4-2.47-.15-.13-.32-.25l.2 1.6a40 40 0 0 0-.88-1.7c.79 4.42 1.32 9.05-.26 13.3.44-.75.51-.1.15.97q-.65 1.5-1.72 2.84-.34.36-.76.66c1.53-2.33.63-1.27-.72.2l-.95.97c-3.06-.11-3.39-11.91-4.05-6.22-.23-1.64-1.07-2.04-.8 1.62-.08-.2.2.9.4 1.91q.02.66.16 1.3c-.01.35-.14.42-.48-.1.65 4.08.09.25.83 1.52.56 1.89 1.29 3.63.77 4.79.02-.25.02-.47-.01-.5-.05.01-.12.24-.23.88-.36.44-1 .76-2.01.93.18-.49-.21-.2-.83.2-.25-.3-.58.07-.96.56-1.1.52-2.37.64-2.8-1.66-2-2.89-.63-12.24-3.15-11.17l-.04.36c-.34-3.8-1.26 4.84-.93 2.97.02.55.37 1.82.7 3.18-.1.7-.28 1.2-.57 1.37 0-.16 0-.37-.02-.39a1 1 0 0 0-.05.28l.01.13c-.47.19-1.23-.42-2.46-2.37-3.72-3.88-2.45-15.22-1.53-15.9 3.4-3.19 1.23 9.53 2.3 2.95 1.11-3.47-2.37-6.06 1.02-6.8.1-1.57 1.68-5.51 2.1-7.24-.45 1.37-2.19 2.45-.81.15l.79-.99c-.17 0-.53.36-1.18 1.22 1-3.18-1.77 2.76-2.86 3.63a8 8 0 0 0-1.68 2.27c-.88.42-1.38 0-.67-2-.23-2.69-.5-5.23-.66-7.86-.15 4.42-1.66 8.53.54 13.03.21.03.31.49.34 1.16l-.17.44.17-.3c.04 2.21-.7 6.55-1.5 6.86-.2 2.28.79 3.64.96 2.72.12 4.62 3.59 9.6 6.56 11.2 0 .6-.14.98-.51.97.54-.28-.8-1.4-2-2.25q.09.13.07.14-.05.01-.36-.34l-.05-.05c-1.52-1.68-6.5-7.93-3.34-4.4.81 1.23 1.13 1.7 1.16 1.7.05-.05-1.41-2.6-1.76-3.98-1.5-4.77-.63-9.57.19-14-.84 1.08-1.27.12-1.55-1.8.13-1.8.22-3.62.13-5.43q.14.43.22.76c-.33-1.88-.12-4.89-.17-6.75q.23-.94.9-1.7c-.17-2.2-.23-4.5-.56-6.6a33 33 0 0 0-1.01 5.53q-.02.02-.04.2v.05q-.07.57-.13 1.15a6 6 0 0 0-.58.86c.31 2.52.32 9.93-.4 4.06-.34-2.61.3 12.5.56 6.79.75 3.33-.12 4.36-.71 6.78l-.29 1.36c-.83.6-1.86.55-2.84-.53 1.02 1.2 2.2 2.18 3.41 2.83q.23.33.35 1.1a25 25 0 0 1-5.06-4.35c-.3-.87-.98-1.6-1.54-2.21l-.1-.22a6 6 0 0 1-.79-1.43q.11-.26.54-.47c-1.6-1.44-.5-8.94-.14-3.36.01 2.54 1.14 5.2 2.76 7.34q-.48-.75-.93-1.9c-1.08-2.05-2.1-12.78-2.96-5.6q-.12-1.47-.32-3.18c-.87 3.53-.53 4.64.3 7.12-.87-.58-.79 1.7.93 4.19-1.45-3.04-.68-2.63-.07-1.73.68 2.97 1.55 5.8 1.8 6.8.07-1.05.25-1.69.52-2.03l.45.5 1.8 1.71c0-.04-2.25-2.3-1.25-1.82.16-.3.95.26 1.77 1.2.62.85 1.24 1.89 1.78 2.9q.15.4.22.8c-1.98-2.56-.62-.19.48 3 2.87 6.2-1.3-3.65.78.36q.07-.3.12-.45.24.4.44.8c.15.79.33 1.7.69 1.6.46 1.33.43 2.35-.59 2.2q.5.23 1.12.38l-.24.17q-.82-.42-1.43-.66l.02-.03a9 9 0 0 1-1.75-.99c-1.4-.92-3.98-5.01-4.7-5.37 2.05 2.4 1.5 4.14.62 2.47q-.1-.69-.5-1.29l-.13-.46-.12-.73q-.17.06.09.97a3 3 0 0 0-.96-.75c-1.08-.9 2.4 6.73 1.77 9.51.38 3.12-.08-1.31.46-2.47.35 3.17.58 6.42 1.15 7-.45-2.13-.28-5 .7-6.26.69.4.6.14.23-.25q.24-.23.54-.32l.01.02.28.26c0-.03-.1-.17-.21-.3q.25-.06.52-.03-.05-.07.04-.17l.44.06.32.3-.2-.02q.78.35 1.81 1.49a7 7 0 0 0-1.53-.3c-.03.04.62.25 2.35.69l1.38.26a31 31 0 0 0-1.57-.48q1.27-.05 2.2.3l.02.04q.11.14.14.12.01-.03-.02-.11l.2.09a4 4 0 0 0 .5 1.08c0-.5.12-.6.28-.56q1.06.96 1.07 2.85c.4-5.14 5.3 2.44.64 1.47.06-.03-.03-.08-.36-.08l-.13-.04v.03l-.55.03q.33.07.6.1c.11.45.15.7.11.84l.15-.25v-.12c1.41.78.8 1.7.16 1.93a3 3 0 0 0-.56-1.03q.07-.21.21-.45c-.13.12-.47-.13-.94-.45q.1.43.01.7l-.07.16a1 1 0 0 1-.25.26l-.19-.51c.25-.04.4-.18-.08-.39l-.1.05q-.19-.3-.47-.44.34-.05.67-.13c-.94-.55-2.2-1.02-3.4.06-1.15.32-1.73.68-1.94 1.06h.03l.06.06-.13.04.04-.1q-.33.06-.28.17a5 5 0 0 0-.94.32c.04.04.5-.02 1.14-.06q.03.24.18.48c-.48.1-.27.58 1.54 1.68 1.14 3.4 1.07.23 2.3 2.56v.04-.02l.1.2q.27-.37.41-.53c.63.5 1.75 1.76 2.94-.28 3-.4 1.22-1.49-.03-1.07-.1-.14-.34-.14-.68.18-.01-1.63-2.95-.61-3.13-3.03l1.27.57q.3.23.52.55c0 .17-.01.5.18.1 1 .47 1.47.36 1.62.02 1.25.07 1.67-.77 1.15-2.99q.48.42 1 .68c-.89.45-1.23.57.25.34.12.17.4.16.62.07l-.32-.14q.32-.22.56-.34c.28.11.06.36-.24.48q.52.21.76.46c-.16.44-.4.97-.64 1.46l-.29.27a9 9 0 0 0-.83 2.9q-.18.57-.38 1.06 0-.09-.09.03.01.1.02.13c-.59 1.52-.97 2.5.9 3.31.4 1.5.95 3 1.41 4.53.03 2.04.38 4.41-.18 7.61q.3.13.53.05c-.45 2.27 2.2 2.63 3.62 1.17q-.03.73.03 1.38c-.08.96.23 1.73 1.53 2.14l-.29.2-.15.02c.47-.12.13-.22-.3-.02-1.92-.31-4.77-3.9-2.52-.33-.14 2.76 1.99-1.51 1.48 3.12.8.32 2.26-2.43 3.23-1.78 2.6-4.65 2 7.9 2.4.3-1.13-3.58 1.48-11.4 3.2-8.45-.96-3.64 1.83-4.43 2.24-1.48q0-.14.06-.33.12.29.13.49c.03-1.83-.77-4.23.25-3.96q.02.22.04.22l.02-.2q.27.09.72.43c.81 2.2-.72-5.12-.43-6.56q.14.15.26.34a1 1 0 0 1 .09-.45c.22.24.55.85 1.03 1.96 1.55.29-.5-6.94-1.86-6.95-.06-.68.87-2.1 2.07-2.68q.45-.12.75-.24c.72-.1 1.48.2 2.14 1.14q-.2.09-.35.22c-.13-.22-.33-.5-.37-.5q-.02.03.18.42l.12.15c-.25.29-.35.72-.35 1.16-.02-.42-.44-1.26-.3.06.22.22.3.16.3 0 .03 1.11.64 2.25.73 1.35.25 1.17.3 1.51.31 1.53 0-.03-.15-1.19.65.12.2.28.22.18.2-.04q.37.69.79 1.23c.26.84.64 1.4 1.12 1.22l.05-.1q.59.37 1.23.28c.1.53.3 1 .52 1.46-.58.73.14.84.4.6.24.16.28-.31.2-1.03 1.67 3.53.35-3 .36-4.96.16.38.27.7.32.87q.2-.03.3-.2c.36.2.75-.2 1.08-.28.05.85.14 1.67.3 2.36-.17-3.75.86 2.91.58 0 1.84 4.77 1.26-6.78 2.23-6.94q.37 1.1.78 2.41l.12-.57.06.2c.25.23.43.61.57 1.05.06 1.1.16 2.32.44 3.07q.05.2.1.13c.19.82.5.87 1.39-1.13-.1-1.18-.03-3.27.11-4.42.06 0 .17-.42.27-.8q.1.1.2.8l-.07.96c-.31 3.22-.07 3.77.22 2.6.13.98.54 1.32.8.7q0 .4.04.77c-.2 2.51.05 2.18 1.01 3.32q.46.85 1.05 1.5v.01c1.54 2.18 1.55 1.75 1.8 1.4q.76.38 1.53.4l.33.27 1.13 1.08q.94 1.1 1.71 2.26a.6.6 0 0 0-.33.19c2.06 2.77 3.21 4.71 3.51 9.74.58 2.76.44 5.49.06 8.2a25 25 0 0 0-.8 4.56 92 92 0 0 0-.71 4l.4 2.02c.04-.05-.33-2.91.21-3.85v.31l.02.99.09-.13q.04.19.12.31c.04.25-.08.36-.19.34.13 2.6.54 5.19 1 7.82q-.15.8-.28 1.59-.15.53-.3 1.32c-.23-3.3-.3 1.79-.96 5.36q0 .08-.03.17a7 7 0 0 1-.86 2.55c-.51 2.49-.58 3.91-.94 5.38-.79 1.44-1.81 2.84-2.55 4.1-.57.79-1.4 2.21-1.94 3.64.14.27.62-.7.99-1.31q-.07.61.25 1.1c.96-1.32 3.53-6.6 2.56-1.85a4 4 0 0 0-.98 2.06l-.24.74.42-.13q.04-.25.3-.4c.22.68 1.38.12 2.32-.63.23-.07.36-.15.3-.26 1.05-.94 1.61-1.99-.3-1.33.49-2.98 2.95-1.96 2.8-.38.72-1.08.56-4.1.56-6 .23.07.48-.01.08-.44l-.08.02c.03-1.45.22-1.93 1.23.45l.2-.1q.1.33.25.7.1-.55.08-.99.1-.11.17-.25c-.14-.07-.3-.5-.18-1.47q.35.61.37 1c.85-2.94-1.99-10.5-.52-15.12 1.28-5.74 1.4-11.5 1.96-17.36.31-.84.55-1.01.73-.8l.01.22q.12.49.15.47c.03 0 .03-.12.02-.28.37 1.25.4 4.5.43 4.5.02-.02.04-.67.1-2.41.15-2.41.34-7.38.77-10.65-.23.8-.58 1.57-.9 2.1.15-.82.3-1.63.5-1.68l.05-.2c.12.01.26-.23.47-1 .19-1.23.43-2.1.72-2.32.16 1.03.25 1.65.33 1.02.58 3.19-.18.02 2.27-1.36-2.2.44-.5-4.8-3.82-5.95-.58-3.14-3.74-7.1-2.56-9.8l.04.16-.04.28a1 1 0 0 0 .04.3q.03-.05.05-.34c.85 3.47 1.2-7.3 3.08-1.7l.07.46c-1.21-2.64-.7-1.07.27 1.63l.06-.06c.2.75.42 1.54.67 2.24l-.02.09q.03.44.06.42a1 1 0 0 0 .05-.26q.2.54.4.98c.06.5.1.87.15.9q.04-.02.07-.47c.4.73.8 1.02 1.08.49.37.38.28.15.08-.18q.12-.3.2-.87c-.72-1.78.02-5.5.6-6.07.67.28.13 2.25.63 3.42.15 3.01-2.34 5.3.37 5.86-.1.74-.12 1.57.02 2.2-.35.16-.46.5.11 1.13l.5-.15c.35.16.87 0 1.6-.65-1.58 1.7-.46 1.3.57 1.07-.47.47.9.53.36-.07.59-.09 1.02-.01.68.73q-.2.14-.09.18-.18.36-.57.88-.34.35-.66.75c-.07-.1-.28-.06-.59.4q.16.04.28.03-.3.45-.57.9l-.35.27.14.06c-.66 1.09-1.2 1.99-1.84 1.93-.22 2.51 1.32 8.8 1.02 2.98.74-3.23 1.3-1.57 1.86 1l.07.58q.03.01.04-.03l.35 1.68c-.32-.38-.18.2.19 1.37q.1.37.32.82c.25.92.51 1.64.8 1.94q.3.24.56.5c1.06 1.68 2.26 3.27 2.65 3.46a14 14 0 0 1 1.6 5.4c-.25.8-.08 2.55-.14 4.18q-.11.64-.27 1.27l.11.27-.1.44c-1.52 5.25.81-1.3.16 2.04l.04.25c-.7 3.07-3.6 6.45-4.44 8.84l-.08.17.06-.09q-.32.9-.13 1.58c-.97 3-3.41 3.75-3.27 5.63q-.08.19-.13.41l.16-.18q.07.35.26.77c-.94 1.09-1.21 1.87-1.1 2.4q-.16.34-.13.34.04 0 .19-.16c.5 1.14 3.16.74 3.89-.5-2.64.48-.9-1.92.18-2 .27 1 .5 1.13.67.82q.02.3-.04.74c1.5-2.72 1.06-9.82 3.43-4.15 1.18-5.26.54-11.16 3.33-15.87 1.33.72.73 10.48 1.3 3.69-.17-4-1.59-6.74 1.83-7.72a5.7 5.7 0 0 0 1.03-5.08c-.94-3.43-4.59-6.44-4.26-10.37.55-4.56 3.72-7.78 2.94-12.2 1.12 1.42 1.64 3.23 2.07 5.09.2 1.35.48 2.63.93 3.75.53 1.68 1.3 3.17 2.77 4.15-.05.36.21.64.54.92.28.95.5 2.28.67 3.3q.01.38.13.99l.03-.14c.22.99.39.98.58-1.77 2.9-.19 2.55 4.73 4.55 3.09l.12.08q.16.43.3.88-.04-.06-.06-.07-.03.01.01.2.1.1.13.1.29.99.52 1.86.01.4.3 1.52l.14.42q0-.38-.03-.72c.22.51.48.84.82.86q.2 1.2.3 2.4l.14 1.62c.36 5.9-.45 11.8-1.81 17.55.33 1.19-.41 2.98-1.27 4.69l-.3.28c-.3.33-.41.47-.42.49.04 0 .38-.34.64-.62-1.05 2.09-2.24 4.03-1.8 4.6q-.24.48-.46 1c.02.54.4-.37.6-.88q.15.07.42.05c1.6-3.93 3.36-2.63 1.62.86l.24.22-.18.68q.33-.21.63-.36c1.3.69 2.08-.9 2.4-2.4.17 0 .3-.1.08-.37.1-.58.12-1.12.09-1.48.64.7 1.1 1.07 1.4 1.19q-.03.05-.04.24.03.26.05.27c.02-.02.03-.37.01-.5 1.7.63-1.54-7.1.6-7.8l.01.02.08.17c.5 1.07.83 1.55 1.01 1.6q.22.5.25.48c.03-.03-.02-.26-.1-.57.39-.82-.85-6.77-.86-8.52-1.4-5.03.71-10.37 1.17-15.56.33-2 .24-3.72-.24-5.3.2-.43.25-.87-.1-1.35-.03-.25-.12-.38-.28-.31q-.15-.15-.36-.3l-.03.1a19 19 0 0 0-3.95-4.81c-2.93-4.85-1.99-12.66.4-16.6 1.73 3.66 2.55-4.31 2.37 1.45-1.3 2.45-.35 9.72 0 3.21 2.99-1.73 1.15-7.83.7-11.3-1.94-3.86-5.1-8.6-8.98-11.5-2.93-4.58-7.55-6.74-13.2-7.45-3.26-2.67-9.08-2.5-11.38-5.77-3.38-1.38 1.9-2.6-2.34-2.19-1.83-.38-3.26-.9-4.5-1.43a3 3 0 0 1-.98 0c.01-.02.16-.05.54-.09l.34.05c-2.32-1.01-4-2.1-6.51-2.69 2.4-2.03-2.64.73-4.22.93l.27.09q-.53.22-.97.46c-.94.53-.82.07-.64-.36q.46-.24.94-.24c-.16-.14.03-.53.75-1.3q-.72.45-1.5 1.06c.02-.1-.09-.05-.45.3-.74.15-1.4.8-1.97 1.66-1.58 1.16-2.54 1.29-1.53-2.7.47-5.04 2.66-11.17 5.66-13.08q.41-.31.69-.15v.02c.04 4 .73 1.61.23.34l.03-.08c1.1 1.83.03 10.18.87 3.75-.48-3.32 1.54-10.08.73-12.52.2 1.4-.33 2.49-.72 2.7.07-.95.1-1.78.05-2.27l.18-.46.1-.6a1 1 0 0 0-.29-.19q.08.59 0 1.2c-.08-.82-.38-.55-1.04 2.01-.02.1.07.42.2.8-.42.85-.94 1.64-1.5 2.28q-1.13.68-1.94 1.5c-1.34.49-2.43-.45-2.23-4.07a26 26 0 0 0-.27-4.5c0 .28-.33.29-.3-.52q.23.21.28.39c-.41-2.88-1.27-5.73-2.77-7.99.28.79-.08 1.12-.23-.34q-.16-.23-.33-.43-.03.47-.2.61l-.2-.64v.7c-.3-.01-.76-.44-1.26-.99.56.74.82 1.55.78 1.92-.31-.3-.82-.77-1.4-1.53l-.12-.26c-.18-.48-1.62-.89-1.22-1.52.58.16 1.06.47 1.45.83-.78-.88-1.61-1.8-2.18-1.8zm2.18 1.8.51.56q-.21-.3-.5-.56zm2.5 1.31.23.34a3 3 0 0 0-.25-.52zm3 8.33.02.14q0-.06-.02-.14zm7.1 1.1q.24.23.38.63-.08-.51-.3-1.08zm-3.13 23.33q.11.1.4.05a2 2 0 0 0-.4-.05zm11.13 1.8.1.05q0-.03-.1-.04zm3.58 45.98-.12.8q.22-.75.28-1.5zm-3.77 42.22q-.07.26-.19.47c.12.05.22-.13.19-.47zm-4.24-22.46-.02-.52c-.19.31-.1.5.02.52zm-30.79-34.45c.03.34.19.81.61 1.5a4 4 0 0 0-.6-1.5zm-.86 9.85q-.06.25-.15.16v.74q.13-.4.14-.9zm-.15.16q0-.23-.04-.44-.03.36.04.44zm-20.54-19.62.48.3-.15-.42q-.16.08-.33.12zm1.42.75.04-.08zm-1.62-4.72q0 .34.1.93l-.09-.91zm-5.49-3.18q-.3-.14-.59-.17c.07.1.33.15.6.17zm-5.17-7.55q.05-.03.13.01l-.16-.18zm6.58 6.37q.3.12.53.15a3 3 0 0 1-.47-.28zM31.78 107q.1 1.02.18 2.03.04-1.06-.06-2.17-.05.08-.12.14zm4.55 35.84.03.02zm2.68-31.07q.1 0 .1.16 0-.13-.03-.25zm.01.84q.1-.31.1-.62 0 .21-.1.62zm16.64 21.76a9 9 0 0 0-.59 1.37q.33-.68.6-1.37zm1.27-12.95.08.07-.1-.16zm1.23 5.8q.14.8.5 2.08c-.18-1.08-.36-1.73-.5-2.08zm.57 1.94-.03-.68c-.08.37-.04.59.03.68zm3.54 3.72.16-.4c-.14.2-.32.5-.16.4zm3.58-13.36.12.12q-.07-.17-.17-.34zm-5.36-22c-.03-.21.4-.13 1.56.4a4.4 4.4 0 0 0-1.83-.72zm13.6-1.81c.96 1.59 1.76 5.1 1.53 6.01-.46-1.67-1.28-3.76-1.98-5.64q.18-.2.46-.37zm-1.69 1.22c.84.56-.25.52 0 0zm2.47 3.53c.06 0 .17.1.31.38-.3.94-.54-.38-.31-.38zm-11.67.42.15.22q-.03.06-.15-.22zm-32.94.07c-.26.02-1.1 3.6-1 5.37.21 2.45.83-1.84.85-2.56.27-2.06.27-2.82.15-2.81zm.89.17c.8 2.22-1.43 8.21-.5 2.55l.17-1.29zm34.92.37.06.02v.02zm.54.2c2.86 1.36 5.07 6.99 7.57 7.87-.49 2.04-2.13-1.56-4.83-3.65 2.76 2.07-1.3-3.03-2.74-4.22zm-1.4.15.14.1a.7.7 0 0 0-.04.38.7.7 0 0 1-.1-.48zm10.2.07q.03-.01.06.04-.05 0-.11-.02zm-45.5.37.12.04c-.17.48-.36-.04-.13-.04zm46.13.66c.28.18.02.22-.1.18l-.03-.12zm-10.97.14q.1 0 .28.26zm2.53.2c.22 0 .68.37 1.25 1.45-1.33-.54-1.58-1.44-1.25-1.44zm8.04.59c.21.03.4.73.45 2.52l.01.07q-.05.6 0 1.17l.02-1.06c.4 2.1 1.5 4.47 1.02 6.1q-.14-.87-.43-1.9c.12-.26.12-.87-.21-1.92q-.1.19-.17.36-.17-.77-.23-1.58c-.1 2.2-.54-.79-.95-2.88.13-.47.28-.79.42-.86l.02.17q.14.5.16.49c.02-.03-.05-.4-.11-.68zm-7.67 2.25c.05-.01.28.21.83.83l-.46-.13c-.24-.37-.43-.7-.37-.7zm15.17.73q.06 0 .16.12-.09.14-.15.13l-.06-.05c-.03-.07-.01-.2.05-.2zm-19.24.32q-.02.01-.05.16.03.14.05.15c.04-.02.04-.28 0-.3zm7.54.15q-.05.01.27.37c.34.28.47.37.48.35.01-.05-.69-.72-.75-.72zm-3.46.27c.31.47-.52.8 0 0zm1.96.23.22.16c-.07.04-.18-.06-.22-.16zm-2.91.11c-.04.01-.01.22.16.83.22 0-.1-.84-.16-.83zm15.83.58c.15.5.21.83-.05.56q-.02-.23.05-.56zm.37.05c.3.77.1 1.12-.12 1.07q.08-.53.12-1.07zm-13.33.02c-.05 0 .37.6 1.73 2.35.97.81-1.62-2.36-1.73-2.35zm-40.98.27q-.03 0-.05.2c.01.2.03.27.04.29.03-.03.04-.46.01-.5zm46.9.42q.06-.02.23.53c.04 3.66-.49-.5-.24-.53zm5.95.6q.33.01.53.43c-.17 1.13-.6 1.73-.62-.43zm1.3.1q.07.38-.07.56zm-8.99.93q.06-.01.15.3c-.23.8-.27-.29-.15-.3zm9.29.17c.27-.01-.03.3-.56.68l.09-.55q.34-.12.47-.13zm-19.33.21a2 2 0 0 0 0 .86 5 5 0 0 0 0-.86zm.7.02v.46zm14.66.49c.07 0 .05.3.03.67q-.34.45-.6.91V113c.27-.72.43-1.06.52-1.17l.02-.03zm-2.91.11c.07 0 .02.62-.38 2.38-.1-1 .27-2.37.38-2.38zm5.24.5q-.3.16-.58.27.3-.25.58-.26zm-1.08.23-.11.23-.06.01zm-3.6.03q.03.09.04.15l-.03.09c-.06-.04-.14-.2 0-.24zm-2.56.26q.04 0 .1.12c-.24.33-.2-.12-.1-.12zm1.29 0q.03 0 .12.18c-.08.5-.21-.18-.12-.18zm7.4 0c0 .95-.63.29 0 0zm-51.6 1.14c.35.84-.2.88 0 0zm.54.4c.55.94-.58 1.19 0 0zm4.73.16v.01l-.01.04zm41.2.12q.04 0 .06.06l-.07.18c-.53.3-.17-.24 0-.24zm-40.54.05c.3 1.2-.33 2.58-1.15 3.66a1 1 0 0 0-.17-.34c-.91.54-.54.83-.18.78-1.08 1.26-2.28 1.93-2.05 1.09.59.54 1.98-1.7 2.69-4.46l.22-.24a6 6 0 0 1-.25.94l.44-1.12q.21-.17.45-.3zm40.34.71q-.2.57-.33 1.11a9 9 0 0 0-1.35 2.65 2.8 2.8 0 0 1 .19-2.02c.2.11.4-.04.4-.6.33-.4.73-.75 1.09-1.14zm2.37.05c-2.02.93 1.12 2.7 0 0zm-4.2.11q.1-.02.1.36a2 2 0 0 0-.05.67l-.06.43c-1.04.94-.27-1.46.02-1.46zm3.41 1.05-.06.07q.02.18.05.17c.04 0 .06-.25.01-.24zm-1.91.23c.02.16-.05.2-.11.18l.06-.11zm-48 .11c.03 0 .09.12.17.45-.14 1.45-.31-.43-.18-.45zm47.87.12c-.27 1.16-.43 2.24-.78 3.14q0-.3-.08-.82c.25-.85.53-1.7.86-2.32zm2.64.36c-1.2.5.97 1.43 0 0zm-44.3.02c.06-.01.06.1-.1.47-.62.32-.07-.45.1-.47zm-.5.86c.1-.01.09.16-.2.67-.79.25-.02-.66.2-.67zm40.22 0c.13 0-1.1 3.33-.42 3.36.04 1.68-.65 2.67-1.17 2.86l.03-.06c.28-.1.5-.32.27-.63l-.03.01c.4-1.23.3-2.54.46-3.85.58-1.24.82-1.7.86-1.7zm-41.74.1q.05 0 .06.09l-.25.16c.06-.13.13-.25.19-.25zm48.84.2v.01a3 3 0 0 0 0 .98c.02-.04.03-.94 0-.98zm-2.54.13c-1.38 1.56 1.05 1.58 0 0zm-44.53.24c-1 .2.22.68 0 0zm-3.35.22c.94 2.87-.52 1.63 0 0zm47.3.37q-.02 0-.05.15.03.15.05.16c.04-.02.04-.29 0-.31zm-3.48.1v.13zm-44.5.24q-.03 0 .14.43c.5.56-.06-.44-.13-.43zm42.03.4-.05.23c-.05-.07-.04-.22.05-.22zm2.67.4q.08.1.18.11-.17.3-.38.58zm-46.76.52q-.03.01-.06.16.03.15.05.15c.04-.01.04-.29 0-.3zm7.15.05c-1.04.8 1.04.84 0 0zm-4.21.47.02.33zm-2.94.26-.05.21q.03.2.05.22c.03-.03.03-.4 0-.43zm46.3 1.23c.27.36-.44.22 0 0zm-41.11.16c-.02 0-.06.28-.12 1.08.05 1.97.18-1.08.12-1.08zm41.35.31c.18 1.08-.99.5 0 0zm-3.51.44q.02.08.08.12c.08.46-.45 1.11-.08-.12zm2.2.36.05.02q.09.2.35.4c.08.48-.41 1.18-1.02 1.78q-.08-.03-.1.1c-1.04 1-2.32 1.64-1.68.4.24.14.73.1.18-.33l.23-.36c1.13-.11 1.43-1.25 1.98-2.01zm-3.33.51q-.04-.01-.29.3c-.04.54.42-.3.3-.3zm1.02.37c.55.75-1.98 1.56 0 0zm-40.78.24h.05c0 .82-.53-.02-.05 0zm27.29.52c.5.5-.44.24 0 0zm16 .02.05.07-.08.39c-.18-.02-.38-.23.03-.46zm-1.21.01c-.05.01-.24.23-.61.78q0-.1-.21-.26c-.44.34-.09.48.1.4l-.46.71c.65-.53 1.3-1.65 1.18-1.63zm10.8.07c.2.43.84.71 1.52.94-.66-.06-1.44-.1-2.14-.17.53-.43.65-.66.5-.74zm-9.52.04c.11.2.07.3-.02.33zm-8.83.04c.12-.02.08 1.05.05 2.22a26 26 0 0 1-2.38 4.87l-.1.3c-2.39.68 1.92-1.75 1.83-5.2.33-1.57.51-2.17.6-2.19zm-34.8.1q.05-.03.06.3c-.5 1.22-.21-.29-.07-.3zm39.85.08c.78 1.7.15 2.36-.5 2.38l.03-.07-.09.07q-.2 0-.38-.08c.68-.63 1.08-.89.76-1.6q-.27-.17-.48-.27.27-.2.66-.43zM57 126.7c.19.65-.21.12 0 0zm17.49.34q.15.15.25.3 0 .14.02.13l.02-.05c.8 1.28.18 3.1-.65 4.78-.25-.15-.9.3-1.38 1.77l-.24.5q.4-.3.7-.56l-.3.55-.1.08.08-.02q-.23.41-.39.76-.2.33-.31.65c-.51-1.3-1.56-.51-2.65.64-.22-.1-.4.18-.85.93-1.15 1.31-2.23 2.55-2.64 1.67q-.48.64-.95 1.09c-.07-.18-.17-.22-.8.45q-.72.57-.98.84c-.95.48-1.9.72-2.88 1.12.25-.54.28-1.09-.64.13l.01.15q-.7.35-1.44.92c.26-.69-1.33.77-2.78 1.84q-.05-.09-.3-.21c-.42.27-.18.4.05.4-1.52 1.06-2.77 1.54-1.48-1.51 2.49-3 4-5.34 6.1-7.07-.03.46 1.92.67 1.36-.61a5 5 0 0 0-.88.23q.9-.69 2.02-1.23l-.77.66c-.13.33.53-.26.92-.65-.35.97.84-.02 1.97-1.1q-.28.38-.25.69c-.15.64.07.27.39-.25.29 3.7 4.52-6.24 5.1-4.64l-.42.4-.36.45q.47-.34.83-.68l.02.4c2.49-.72 2.59-2.18 4.05-3.5q.1.64.62 2l.08 1a7 7 0 0 0-.35-3.3zm-50.55.13.23.44c-.31.39-.84.63-.23-.44zm32.9.1q.03 0 .1.03c.17.82-.34-.05-.1-.04zm-24.73 0c-.4.13.6.9 0 0zm55.21.49c.38.17.59.36.45.62l-.78-.39q.26-.12.33-.23zm-64.85.19q-.01 0-.05.15.02.2.04.22c.04-.02.05-.34.02-.37zm52.76.03c.32 2.44-.18 1.59 0 0zm8.43.4c.44.49-.55.29 0 0zm-60.6.1-.06.08q.02.18.05.17c.04 0 .07-.25.02-.24zm62.22.19a.3.3 0 0 1 .18.05c-.08.2.02.28.17.28l.02.1c-1.33.43-.82-.43-.37-.43zm1.65.02.5.03-.28.2c2.37.73 2.72 1.26 2.35 1.63a11 11 0 0 0-.76-.78c-2.09-.87-2.2-1.06-1.81-1.08zm-20.54.05q.04.15.02.21zm-43.8.04q-.02 0-.05.15.02.22.04.22c.04-.03.05-.34.02-.37zm45.95.05c.12 1.6-.65 2.27-1.1 2.24.4-.6.65-1.25.52-1.73q.24-.24.58-.5zm20.67.15q.09 0 .24.04c.44.91-.83-.05-.24-.04zm-7.13 0c.35.14 1.12.16 1.77.07q-.54.16-1.84.21.02-.16.07-.28zm-25.2.12q.06-.01.16.13c-.24.33-.3-.12-.16-.13zm7.41.12q.04 0 .1.1l-.1.26c-.1-.02-.1-.35 0-.36zm1.82.07v.23c-.05-.02-.08-.1 0-.23zm-35.5.23c.3.03.76 1.64.51 3.57 0 3.2-.69-.28-.51-.92q-.22-1.55-.18-2.15l.28.08zm59.64.01c.9.49.97 1.12.76 1.2q-.2-.2-.52-.48a4 4 0 0 1-.24-.72zm-19.75.12c.26.36-.45.22 0 0zm-47.78.08q-.02.01-.05.27.02.34.04.34c.03-.03.04-.57.01-.6v-.01zm6.91.36q.06 0 .18.05c.11.55-.41-.03-.18-.05zm63.77.1c.82.01 1.84.21 2.44.45a11 11 0 0 0-2.62-.19q-.3-.14-.54-.21.3-.06.72-.05zm-27.28.19q0 .38.04.66c-.65 1.07-.79 1.57-.65 1.7-.56.44-.9 0 .6-2.36zm-2.2.03q-.43.9-.93 1.63c-.26-.16.56-1.32.93-1.63zm12.54.07-.2.44c-.46.7-.62.5-.52.18.37-.16.47-.37.41-.54q.15-.08.31-.08zm-44.66.11c.43.43-.45 1.67 0 0zm54.81.38c.25-.02.67.08 1.14.19-.28.05-.47.07-.48.06.56.47 1 1.32 1.38 2-.46-.2-1.93-2.3-2.26-2.08q-.01-.16.22-.17zm-21.66.06q-.1-.02-.26.52c.3-.27.33-.52.26-.52zm26.21.18c2.32 1.82 2.12 5.96-.7 1.74-1.91-1.58.07-.83.7-1.74zm-3.93.1q-.02.01.22.31.26.27.28.26c0-.03-.46-.56-.5-.57zm-2.75.07q.07.03.15.1l-.16.12zm-5.62.07-.09.22q0-.06.09-.22zm4.74.03q.26.14.34.23l-.14.28c-.38.11-1.13-.04-.2-.51zm11.03.08h.04q.03.6.17 1.26c-.35-.7-.63-1.26-.2-1.26zm-6.2.05q.44.45.5.68l-.3-.07a2 2 0 0 1-.2-.61zm-5.75.08c-.03.26.21.53.53.67-1.45.3-1.14-.23-.53-.67zm13.55 0c.74.38.97.64.95.8q-.11-.05-.1.12c-.18.13-.62.13-.96.02.24.05.7-.08.17-.33-.31.16-.33.26-.25.3-.4-.15-.6-.46.19-.9zm-39.6.13q.07-.01.17.26c-.4.68-.35-.26-.17-.26zm22.06.16q-.05.18-.05.36l-.16.1c-1.29.36-.49-.14.2-.46zm-3.95.17c.02 1.05.1 1.59.23 1.76-.23.46-.4.6-.5.16a.4.4 0 0 0-.26-.18c-.23.18-.27.12-.23 0q-.23.06-.49.25.4-1 1.25-1.99zm-.76 1.75a1 1 0 0 1 .23 0l.1-.1c.06-.5-.26-.1-.33.1zm17.5-1.7c-1.18.84 1.35.65 0 0zm6.18.21c.38.01-.41.53-.24.03zm-25.27.16c-1.12 1.05 1.12 1.16 0 0zm2.94.04.1.26-.15.36q-.01-.19.05-.62zm2.7.11c.27 0 .55.16.63.67-.93.13-1.23-.05-1.22-.25.24 0 .44-.11.33-.36a1 1 0 0 1 .26-.06zm-.98.03c-.19.12-.16.23-.05.3l-.1.17c-1.05.56-.08-.44.15-.47zm-10.68.1a4 4 0 0 1-.8.8zm-18.33.02c.1 2.72 1.62 8.64 3.75 8.43-1.5 1.7-3.54-3.75-4.15-5.14l-.05-.52q.12-.82.06-1.51.11-.68.4-1.26zm-.84.01c.2.66-.2.12 0 0zm19.96.03h.18c.06.36-.38.13-.3.03h.02zm21.03.12c.09 0 .28.17.62.66-.32.73-.89-.67-.62-.66zm8.62.12q.27.07.5.17.14.28.3.5l.5.23-.24-.47c1.22.69 1.54 1.72 1.36 2.26q-.23-.42-.42-.87c-.86-.99-1.47-1.36-1.86-1.39zm-.7 0c.47.32-.12.47 0 0zm1.97.31c.81.28-.5.15 0 0zm-7.4.16c1.36 1.6 2.1 3.43 2.36 5.33l.05-.1.05.35-.07-.04.04.35c-1 1.74-.58-3.28-2.44-5.89zm2.39 5.54q0-.1-.03-.2-.04.14.03.2zm-9.85-5.54q.06 0 .21.12c-.2.5-.42-.11-.21-.12zm13.13.1.16.12-.05.14q-.03-.15-.11-.26zm-2.09.25q.07-.02.28.26c-.21.37-.42-.24-.28-.26zm-5.5.03c.09 0 .22.2.4.75-.51.59-.63-.76-.4-.75zm-22.85.04c-.63 1.24-1.65 1.08 0 0zm-2.35.02c-.2.51-.43.64-.6.53zm28.25.06q0 .03.09.13.25.2.27.2v-.01c0-.04-.31-.32-.36-.32zm-12 .1q.07 0 .16.12c-.24.34-.3-.11-.16-.12zm-40.46.26c-.58 1.6.1 4.14.76 6.53l-.07-.05c-.46.28-.03.38.14.3.66 2.4 1.26 4.6.48 5.53a7 7 0 0 1-1.1-2.35l.25.08q.02-.45-.02-1 .16.55.36 1.41c.24.38-.18-1.27-.65-3.37-.54-2.9-1.48-6.26-.15-7.08zm57.13 0c.14.6.64 1.29 1.44 1.45q.2.22.37.52.05.67-.27 1.03l-.16-.15c-.5.18-.31.33-.1.36-.63.32-1.6-.3-1.69-2.62a.9.9 0 0 0 .41-.58zm3.46 0q.23.17.82.54c-.24.16-2.09-.31-.82-.53zm-16.5.1q.03 0 .05.02c-.4.27-.3.48-.07.56-1.09.83-.24-.58.02-.58zm-25 .17c.4 1.42-1.05 1.67-.43.22l.02.37c.3.15.4-.17.4-.59zm34.93.07q.13.14.34.57-.2.2-.32.07zm-34.42.07c.44.4-.27.47 0 0zm36.55.1c1.03 2.7 2.78 5.4 3.78 6.6q-.06.75-.26 1.3c-.04-3.41-3.59-5.15-4.16-7.28q.55-.19.64-.62zm-16.74 0q-.02.13.21.2l-.07.1-.2.06-.22-.1q.1-.13.28-.26zm-17.96.21c.96-.06-2.78 3.92-5.14 4.6-.93 1.28-.67.65-.48.1.89-.82 1.77-1.47 2.33-1.55 2.93-2.1 2.44-1.51 2.93-3.04q.23-.1.36-.11zm29.76.49c.07 0 .17.1.28.4-.48.37-.48-.4-.28-.4zm-13.54 0c0 .3.99.5 1.7.49q.15.12.3.3l-.12.09-.3-.07-.02.02c-1.89-.06-2.06-.63-1.56-.82zm24.92.02c1.24.9 1.66 1.07 1.78.98.57.49.82.8-.95.03q-.58-.54-1-.84zm.77.17.08.02.4.35c-.1.09-.42.05-.48-.37zm1.2.06q.1 0 .24.05c1.02-.03 3.51 2.18 4.58 2.9-.35.04-2.14-1.71-3.98-2.39q-.6-.3-1-.47.02-.1.17-.09zm-72.33.02q.05 0 .18.1c-.05.5-.33-.1-.18-.1zm61.31.07.08 1.1a3 3 0 0 1-.08-1.1zm-27.8.1.03.28zm-8.7 0q.06-.01.17.23c-.17.81-.3-.21-.16-.23zm14.92.04h.33c-.16 1.18.05 2.23.46 2.72-.3.72-.45 1.3-.71-.03-1.04-.35.15-2.37-.2-2.63zm-6.92.04q-.02 0-.05.16.03.14.05.15c.04-.02.04-.29 0-.3zm35.63.14c.38.02-.4.5-.23.02q.15-.03.23-.02zm.47.08.25.16q.13.33.31.68a1.7 1.7 0 0 1-.56-.84zm-12.26 0q.1 0 .14.33a5 5 0 0 0-.26 1.43c-.36-.58-.07-1.74.12-1.75zm9.23 0c-.93.58.93.58 0 0zm-6.63.17q.16.36.25.74-.21.67-.42 1.52l.1-1.08c-.15.1-.09-.28 0-.23zm-.06.95-.02.23.09-.1q-.04-.12-.07-.13zm-12.7-.81q.14 0 .35.14c-.04.25.13.35.35.37l.12.18c-1.2.1-1.25-.69-.83-.7zm-2.6.17.06.12-.1.1c-.1 0-.2-.1.04-.22zm-19.1.18q.05-.01.05.16c-.48.79-.19-.17-.05-.16zm8.77.1c-1.09 1.01 1.12.66 0 0zm9.45.03q.05.1.15.2c-.28.02-.28-.07-.15-.2zm30.72.24q.07 0 .2.08.03.2.21.2l.05.05c-.56.19-.7-.33-.46-.33zm-4.9.16c.4 0 .87.19 1.3.6q.04.06.1.1a5.4 5.4 0 0 1 1.16 2.3 52 52 0 0 0 1.82 1.95c-.26-.14-.4-.05-.32.36-.83-1.4-1.87-2.61-2.85-3.8a37.04 37.04 0 0 1-1.21-1.51zm-29.04.03q-.08-.01-.24.21c.32 0 .35-.22.24-.21zm16.4.2c.07-.02.14.15.24.6-.42 1.86-.46-.57-.23-.6zm20.77.05c.37.02-.4.49-.24.02q.16-.03.24-.02zm-60.3.03c.04 0 .1.13.2.52q-.06.22-.1.3l-.18-.45c0-.2.02-.37.07-.37zm57.97.1q.06 0 .22.12c-.24.34-.39-.11-.22-.12zm2.54.09c2.1.52 4.5 1.18 6.7 2.08-1.37-.3-2.88-.5-4.37-.93.07-.22-.12-.47-.91-.45v.15q-.63-.23-1.23-.56zm-34.93.13c.7.74.96 1.27.95 1.66q.31-.15.95-.15l.17.06q.31.21.6.33.68.5 1.05 1.3c.1 1.4.12 3.68.35 5.24q.2-.8.35-1.27c.01 1.61-.15 3.21-.12 4.28l-.02.15c-.56-1.77-.85-.85-1.02.47L77 150c.32-3.52-2.1-6.84-4.1-8.24q.56.24 1.02.53l-.23-.32c2.16.78.73-.5.65-1.42a3 3 0 0 1-.98.38c.04-.85.93-1.28.99-1.78q-.3-.56-.57-.87 0-.03.03-.05zm.53 2.32q.39-.23.42-.66c-.35.15-.44.4-.42.66zm4.27-2.12q.16.01.35.35v.13a1 1 0 0 0-.2-.2c-.62.41.06.6.22.42q.1.94.34 1.45-.01.68-.28 1.44l-.1.15-.07-.11-.05-1.1c-.54-1.82-.45-2.53-.21-2.53zm24.64.37.76.35a10 10 0 0 1 1.9 1.94c.12 1.17-2.1 1.39-3.13-1.98zm-4.14.03.1.6-.16-.18q-.03.27 0 .6a.2.2 0 0 0 .2-.06l.03.83q-.03.16-.01.27l.03.12v.03l-.03-.15a5 5 0 0 1-.22-1.04c-.17-.04-.36-.27-.18-.76q.1.08.18.16 0-.23.06-.42zm-9.11.01c.15.86.28 1.22.37 1.24-.48 2.22-1 4.72-1.95 5.92.1-.46.05-.8-.3-.79 1.4-.25 1.65-3.35 1.88-6.37zm-11.88.12q.06 0 .17.18c-.25.5-.32-.18-.17-.18zm-10.04.1c1.47.42-1.18.87 0 0zm31.9.04q.11-.01.44.26.1.25.29.33c-.64.17-1.01-.59-.74-.59zm9.78.04q.13 0 .44.11.03.1.08.18c-.55-.18-.65-.28-.52-.29zm-32.58.06q.06 0 .15.12l-.11.11-.1-.04c-.03-.07-.01-.2.06-.2zm-15.57.01c-.98 1 .92 1.8 0 0zm47.44.01c.07 0 .1.1.05.4-.64.39-.23-.38-.05-.4zm-21.84.1q.06-.01.15.18c-.23.49-.28-.17-.15-.18zm-62.3.08c.18.93.33 2.02.46 3.14l-.05.05c-.81-.26-.43-1.68-.42-3.19zm31.91.14-.33.39q.07-.1.07-.12c-.07-.03-.6.4-1.26 1.04l.61-.7zm-2.19 0c.17-.01-.57 1.22-1.38 2.35q-.4.34-.82.45.27-.5.67-1.02c.99-1.28 1.43-1.77 1.53-1.78zm32.8 0c-.41.58-.31 1.06-.09 1.28q0 .05-.03.11c-1.18 1.3-.27-.98.11-1.38zm23.37 0 .1.08-.16-.05zm-9.5.06q.04.1.08.29c-.51.37-.61.1-.54-.17q.24.01.45-.12zm-48.81.16q-.15.08-.3.14.18-.12.3-.14zm-25.86.04c2.84 1.05 2.21 2.92 1.22 2.35a6 6 0 0 0-.9-1.28q-.18-.45-.32-1.07zm80.39 0q.09 0 .34.2c.54.95 1.33 1.94 1.97 2.8.77 2.3-2.86-2.96-2.31-3zm-50.74.36a13 13 0 0 1-2.06 2.06v-.03l.25-.27c.93-.86 1.5-1.43 1.81-1.76zm48.14.06c-.77 1.22 1.8.74 0 0zm-13.27.02-.06.37q-.06-.11.06-.37zm-53.64.17q-.02 0-.05.22.03.2.05.21c.03-.03.03-.4 0-.42zm71.3.1c.22-.01.47.33.71.8q-.26-.15-.49-.35-.3-.04-.52-.2.13-.25.3-.25zm-43.56.04h.48c-.25.1-.4.07-.48 0zm-13.03.01-.02.03q-.12.27-.24.46c-.44.04-.74-.24.26-.49zm51.81 0a3 3 0 0 0 .5.55h.01a6 6 0 0 0-.5-.55zm-38 0 1.08.1c2.48.4-1.56.82-1.08-.1zm9.28.62q.19 1.13.42 1.83-.06-.1-.1-.1c-.04.03.05.41.45 1.5.22.15.18-.11.07-.46.85 1.27 1.5-1.08-.84-2.77zm-4.43 0q.3 0 .76.12c-.55.2-.56.53.83 1.35.04.62.19 1.6.38 2.54q-.13-.07-.35-.15c-.13-.73-.28-1.44-.45-1.93-1.66-1.38-1.74-1.89-1.17-1.92zm37.78.04c.34.02.73.25 1.07.51q.15.32.28.66-.2-.12-.5-.37zm-54.83.02q-.25.35-.52.6.25-.3.52-.6zm60.26.03c.1.22.4.46.74.58-.8-.22-.94-.43-.74-.58zm-20.95.02q-.05.75-.15 1.5c.03-.84.08-1.3.15-1.5zm-42.88.01c.09 0 .27.16.55.67l-.07.03a4 4 0 0 1-.52-.4c-.05-.15-.04-.3.04-.3zm-2.68.13a4.3 4.3 0 0 0-.06 1.31 8 8 0 0 0 .06-1.31zm.82.13c.23.15.24.28.19.35-.1-.14-.17-.25-.2-.24q-.01 0 .1.3c-.1.02-.23-.09-.1-.41zm69.18.13q.09-.01.24.13c-.36.34-.44-.12-.24-.13zm-91.63.01.32.42c-.18.21-.4.16-.32-.42zm60.8.02h.03c-.67.54-.67.92-.46 1.08l-.1.18c-1.5 1.14.24-1.23.53-1.26zm-53.78.08q.15.1.15.2zm79.3.08.03.01h-.03zm2.8.03.1.02v.01q-.06 0-.1-.03zm-66.05.02.22.12a2 2 0 0 0 .5.5l.05-.03q.33.4.46.9c-.35.53-.8 2.87-1.31 5.08-.4.13-.27.36-.07.46-.37.37-.44-.2.43-2.5a6.3 6.3 0 0 0-.28-4.53zm33.3.1c.09 0 .14.11.03.45-.64.1-.23-.45-.03-.45zm-34.57.07q-.03 0 .01.19.12.14.14.11c.03-.04-.1-.3-.15-.3zm-21.13 0h.04l.15.06q.14.05.35.2l.35.19c0 .24-1.21.19-.91-.44zm74.2.06q.07-.02.28.26c-.21.37-.42-.24-.28-.26zm-25.5.01c-.03 0 0 .15.16.54.46.53-.08-.55-.16-.54zm-10.3.17q.2 0 .74.09c-.32.25.26.28.82.21-.34.56-2.33-.27-1.56-.3zm54.46.09a7 7 0 0 1 2.74 4.05c-.45-.67-1.11-1.55-1.71-2.43 0-.22-.18-.57-.66-1zm-80.16.01q.08-.01.24.42c.23.7.04.93-.2.79-.13-.7-.15-1.2-.04-1.21zm74.15.08c.86.2 1.33.75 1.59 1.42-.05.3.07.77.28 1.29.16 1.46-.05 2.88.84 2.49.32 1.27.3 1.72.08 1.74l.21.13c-.15.1-.3.4-.35 1.36q-.18-.45-.36-.8c.06-.11.01-.28-.26-.5l-.23-.4q.32-.04.68.08c-.94-.7-2.96-3.72-2.49.1q.08.36.14.68c-.11.58-.19 1.3-.23 2.05-.26-.06-.6-.4-.97-.92q-.05-.25-.09-.12c-1.27-1.84-2.64-5.45-.58-4.8-1.23-1.94-.5-3.75 1.74-3.8zm2.48 6.8q.2.15.3.14-.15-.08-.3-.13zm2.9-6.8q.06 0 .19.1c.33 1.2.94 1.67 1.26 1.66l.39.65c-1.5-.9-2.15-2.4-1.84-2.4zm-58 .02c.16.68-.87.21 0 0zm-9.95.06c.93 1.08-.14 2.58 0 0zm13.1.07a11 11 0 0 1-2.17 2.06c-.74.27-1.7 1.42-2.6 2.02q.48-.2.74-.19a2.3 2.3 0 0 0-.13 1.87c-.4.65-.94 1.32-1.45 1.76-.44.33-.88.6-1.23.76q-.24.07-.48.17c-.62.13-.6-.43 1-2.23.36-3.5 3.48-4.87 6.33-6.22zm-13.52.04c.2.2.12.54.02.7q-.06-.11-.14-.09 0-.18.12-.61zm-19.21.01c.12 0 .15.1-.08.33-1.2.2-.25-.33.08-.33zm3.96.06c.04.16-.36.33-1.62.46q-.28-.21-.38-.36c.8.08 1.56.05 2-.1zm71.4.15q.05.17.06.35c-.16-.04-.32-.2-.05-.35zm-80.64.02.02.02c1.06 3.97-.72 1.6-.02-.02zm36.65.02c-.2.4-.5.34-.52.22q.3-.11.52-.22zm34.95.07q.06 0 .15.13.02.08.07.13l.07.14c-.38.35-.45-.4-.29-.4zm-44.3.06-.2.3c-.12-.1-.12-.28.2-.3zm.23 0 .07.01c-.05.3-.2.39-.33.37zm39.28.07q.06 0 .13.03-.25 1.38-.69 2.7c.03-1.48.19-2.7.56-2.73zm-19.7.03q.45.6.57 1.07-.15.27-.25.91c-.19-.15-.37-.74-.31-1.98zm-21.12 0c.03.22-.06.31-.14.32q.08-.15.14-.32zm55.86.14q.04 0 .12.08-.01.17.14.18l.03.03c-.16.61-.46-.3-.3-.3zm-13.72.1q.09.05.14.11l.09.46q-.07.15-.14.15l-.07-.05q-.1-.1-.02-.67zm-12.46 0q.1 0 .2.07-.12.18-.07.28c-.3.85-.52-.33-.13-.35zm-4.37.07-.05.21.04.22h.01c.03-.03.03-.41 0-.43zm28.51 0c.49.4.9.68 1.14.68l.02.03q0 .15.07.2.25.69.56 1.38-.35-.18-.6-.1a5.4 5.4 0 0 0-1.19-2.2zm-44.98.05q-.2.08-.43.21l.04-.05-.02-.05zm-3.46.06q-.02-.02-.51.46c-1 1.3.56-.39.52-.45zm-8.98.07q-.03 0-.05.15l.04.16h.01c.03-.02.03-.3 0-.31zm-11.15 0c.15 0 .34.17.5.65-.9.03-.8-.65-.5-.65zm23.04.03q-.02.08.01.12l-.16.1a.5.5 0 0 0-.29-.09zm9.76.03q.07-.02.23.19c-.31.4-.4-.18-.23-.2zm-16.96 0c.14.5.06 1.12-.12 1.77.02-.12-.13-.26-.51-.06.26.26.44.2.5.1a10 10 0 0 1-1.61 3.12c.28-.6.54-2.46.99-3.78zm63.02.03q.31.25.33.3-.03.01-.42-.23zm-85.2.06q.14.11.19.22c-.21.16-.36-.2-.19-.22zm70.95.02q.08 0 .2.05c.04 1.02.5 1.65.87 1.8l-.02.2c0 1.44-1.46-1.3-.48-.5-.94-1.05-.89-1.54-.57-1.55zm-49.53.05c.11 1.42-1.25 1.3 0 0zm18.25 0q.09-.02.2.3c-.34.49-.35-.27-.2-.3zm23.18.06.07.91c-.28 1.34-1.54 1.45-.07-.91zm-1.57.1c.02 0 .04.14.06.54-.16 1.37-.13-.53-.06-.54zm5.98.01q.35.3.75.77c.19 2.87 2.08 6.88 2.4 10.22-1.12-2.68-2-7.33-3.15-10.99zm-11.7 0c.08 0-.12.26-.9 1.06-1.05.47.7-1.05.9-1.06zm-55.84.05.38.17q-.13.01-.38-.17zm32.3.03q.17.21.25.44a9 9 0 0 0-.71 2.73c-.9 1.34-2.26 2.5-2.75 2.62.69-.55 1.34-1.23 1.33-1.53.07 1.14 1.07-.83 1.69-3.3a1 1 0 0 0-.22-.3q.2-.27.41-.66zm-11.64.05h.04l-.11.27c-.14 0-.22-.08.07-.27zm62.03.06c-.89.44.92.56 0 0zm-57.77 0c-2.59.2-.5 1.93 0 0zm-4 .05q.02.04-.04.09zm37.85.01q.14.5.23 1.27c-.38 1.14-.63 2.1-.5 2.7.14 1.6.15 3 .1 4.48-.65 2.54-1.98 4.05-4.37 1.71-.23-1.18.53-1.2 1.24-1.27.23 0 .43 0 .46-.07.6-.15.96-.58.2-2.31a1 1 0 0 0-.5-.31c1 1.58.47 2.19-.05 2.1l-.05-.62c.1-.04.15-.13-.04-.28a4 4 0 0 0-.2-.94q.08-.15.2-.29a1 1 0 0 0-.38.08q-.1-.02-.2.13c-.79.61-1.04 2.2-.8-1.17.17-2.26.82-3.02 1.39-2.7.14.89.19 1.72.55.9-.15.85 0 1.03.28.85q.07.4.1.9c1.4-1.1 2.27-3.41 2.34-5.16zm-3.29 6.17q.08 0 .14.03l-.07-.11zm-27.31-6q.07 0 .16.04c-.55.72-.61-.07-.16-.04zm58.95.15q.03 0 .06.07-.15.27-.2.48c.02-.29.08-.55.14-.55zm-3.95 0c-.9.59.95.76 0 0zm-4.67.02a6 6 0 0 0 .61.8l-.27.02c.74 1.62 1.88 4.35 2.78 6.52l-.02.63c-.25-1.49-3.5-7.22-3.1-7.97zm-75.66.04q.71.14.99.3-.2.03-.24.23-.31-.1-.82-.44h.35zm41.4.01c1.75-.08 2.45 10.45 1.01 9.73q.29-.67.2-1.5c.23-.83.15-2.23-.1-3.68.18.15.83.06.21-.33q-.19.1-.23.2c-.3-1.69-.8-3.41-1.3-4.36a1 1 0 0 1 .22-.06zm-16.82.16c.23-.01.14.34-.92 1.24l-.15.2c-.04-.81.78-1.43 1.07-1.44zm23.3 0q.02 0 .04.05c-.6.9-.73 1.93-.64 2.58l-.18.37c-1.18 1.88-.42 0-.11-.7.47-1.67.76-2.28.88-2.3zm-30.97.03a9 9 0 0 1-1.15 3.58l-.02-.04q-.1 0-.17.03c.36-.64.91-2.7 1.34-3.57zm-14.94.01c.69.01.8.55.7.8l-.54-.32q-.08-.18-.16-.48zm23.64.02c-.35 1.22-1.52 2.73-2.44 4l-.1-.12-.27.11a12 12 0 0 1 2.81-4zm35.93.04q.06-.01.15.13a.3.3 0 0 0 .16.3l.07.16c-.45.46-.57-.56-.38-.59zm-23.2.2c.06 0 .16.1.29.4-.38.35-.45-.38-.29-.4zm-4.6.26.09.06h-.06zm18.24.03h.05a15 15 0 0 0-1.73 5.6l-.12-.15c-1.92 3.28.96-2.83.75-3.32.05.2-1.74 1.45.1-1.23.42-.63.73-.88.95-.9zm14 .03.13.18c-.03.4-.84-.2-.13-.18zm-33.56.03c.18 0 .73.29 1.1.39q.05.45.77 1.5c.37 1.13 1.32 3.29-.56-.3-1.28-1.26-1.5-1.59-1.3-1.6zm25.84 0c.11 0 .02 1.05-.24 2.36q-.35.8-.75 1.53l-.2-.08.46-1.17c.4-1.92.64-2.65.73-2.64zm-18.8 0c.13.58.26 1.13.4 1.54-.13 2.63-.35.63-.71-1.5a1 1 0 0 0 .32-.03zm40.1.05c-.92.3.73.68 0 0zm4.56.02q.07.24.21.34c-.14.23-.2 0-.2-.34zm2.25.02.08.03q0 .08.13.1c-.24.34-.38-.12-.21-.13zm-79.4.08c-.79.9 1.37.57 0 0zm-.87.08c.11 0 .25.15.4.6q-.25.16-.4.11a2 2 0 0 0-.18-.4c.01-.16.08-.3.18-.3zm14.74.07c-.6.58.76.48 0 0zm-16.03.03.04.22a.4.4 0 0 1-.06-.2zm68.2.12q.03 0 .25.38l.04-.01c.06.47.35 1.2 1 2.21.3 3.36 2.52 8.69.71 11.61.3-1.46.63-3.29.3-4.11.64-2.12-2.55-10.08-2.3-10.08zm-69.81.06c.27.07.33.17.3.26zm13.9.03c.05 1.2-.22 1.37-.36 1.15l.1-.65h-.01a2 2 0 0 0-.16.49 1 1 0 0 1 .44-.99zm69.7.01.63.46q-.48.1-.6.67zm-20.33.06.17.24c-.32.18-.8.3-.53-.16zm-37.92 0c.06 0 .08.15 0 .6-.78 1.1-.19-.57 0-.6zm15.52.02c-1.13.84 1.23 1.42 0 0zm-29.79.02q.3-.01.3.29c-.06-.06-.2.08-.18.57l.1-.13a10 10 0 0 1-.95 1.9q-.3-.16-.41-.12c.44-1.06.8-1.97.58-2.37q.34-.14.56-.14zm56.82 0q.06 0 .17.14l.18.27a1 1 0 0 1-.09.25l-.24-.18c-.08-.2-.1-.47-.02-.48zm-68.12.02q.24.14.4.22c-.32.22-1.07.3-.4-.22zm1.58.13a14 14 0 0 1 1 1.27c.7.98 1.25 1.96.98 1.92.47.13.46-.29.27-.84.51.32.97.55 1.2.76-.47.5-1.06.9-1.62 1.24.74-1.1-2.06-3.04-1.83-4.35zm74.73.12q-.23.2-.33.37-.1-.03-.1.16-.09.32.15.44l.02.06q.45.19.47.05c.62-.01 1.24-.45-.21-1.08zm-17.5 0c.14.11.3.36.44.65-.16.24-.28.73-.41 1.34-.02-.83-.06-1.69-.02-1.99zm-26.38 0c.26.17.23.27.11.29-.08-.1-.14-.24-.11-.28zm48.8.02c.32.62-.59 0 0 0zm-13.83.03.24.03a11 11 0 0 1 2.57 4.14c.25.88.4 1.67.42 2.12q.26.88.49 1.72c.22 1.73.23 3.52.11 5.25q-.59.73-.8 1.48 0-.14-.05-.33c-1.5.65-.43 1.25-.06.74-.33 1.49.04 2.8-.65 3.15-3.66.48 1.75-6.47-.24-9.05-.3-3.15-1.16-6.21-2.03-9.25zm-.1 0c.1 1.77.48 3.6.85 5.43-.38-1.49-1-3.48-1.44-5.23q.3-.18.58-.2zm3.86.18q.51.43.95 1.03c1.22 2.42 2.47 4.95 2.26 8.1q.08-.24.15-.34c.04 1.42-.15 2.64-.62 3.34l-.03-.04c-.5.17-.55.36-.44.5l-.22.1c-.7-4.29-.4-9.07-2.05-12.7zm-67.1.05q.07 0 .15.03-.14.16-.33.27-.03-.3.18-.3zm31.84 0c.04 0 .1.09.22.36-.12.84-.36-.34-.22-.36zm-32.69.05.33.37-.27.05q-.02-.22-.06-.42zm73.1.04c.66.24.41.54.18.53q-.09-.16-.23-.32 0-.09.04-.21zm-.87.06c-.8 1.13 1.23.55 0 0zm9.52.05.72.42c2.06 1.28 4.31 3.5 2.3 4.57q-.2-.3-.4-.42-.11.22-.2.66l-.22.06c-1.35 6.09-3.72-3.88-2.2-5.29zm-68.57.03c1.87.5-1.72 1.93 0 0zm-23.74.17c-.6.81.7.5 0 0zm7.14.02c.15.5-.43.23 0 0zm32.78 0c.65.83 1.16 1.77 1.62 2.9.24 1.9-.08 4.32-.6 2.9.47-2.09.22-3.58-.95-4.88-.04-.36-.12-.76-.07-.92zm-23.82.03.02.03c-.12.3-.21.18-.22.05zm40.73.06c-1.08.51.84.65 0 0zm-1 .12c.42.17-.42.17 0 0zm-30.13.01c.04.23-.17.77-.9 1.56q.17-.98.44-1.37l.26-.06q.12-.13.2-.13zm-11.59.03q.32.16.74.12c-.27.31-.56.57-.85.6q.08-.36.11-.72zm-1.18.01h.21a2 2 0 0 1 0 .6q-.14-.17-.2-.6zm.22 0c.63.06.66.44.5.64q-.26-.14-.5-.63zm-5.4.02c-.09.01.19.52 1.2 1.72l.32.57c-.55-1.36-1.4-2.32-1.52-2.3zm85.3.02q-.04-.01-.06.19c.29.3.16-.2.06-.2zm-21.46.03a13 13 0 0 1 2.44 4.17c-.05.65-.14 1.47.58 3.4q0-.74.09-.95c.5 2.59.42 5.33-.1 7.78q-.72 1.41-.85 2c-1.2 1.4-1.58 1.01-1.6-.26.18.02.1-.15 0-.25.05-2.8 1.43-8.97.08-10.67.1-1.34-2.18-4.69-.64-5.22zm11.94.01.06.02q-.04 0-.06-.02zm-.15.33c-.8 1.93 1.8 1.73 0 0zm9.68.12c-.1 0-.1.12.19.45.44-.12-.02-.46-.19-.45zm2.8.02c.82.42 2.03 1.69 2.68 2.9-.7-.87-1.72-1.96-2.68-2.9zm-32.55.01c0 .4.1.98.37 1.83-.07 2.77-.38.76-.49-1.76zm-41.63.03c.17.67.3.9.43.84-.62.74-1.01.78-.43-.84zm42.47.1q.02.3.03.79c-.07.01-.16-.3-.03-.79zm-45.36.03c.75 1.13.57 1.52.3 1.4l-.05-.03c-.23-.16-.49-.67-.25-1.37zm39.45.21c.43.5-.56.25 0 0zm-31.06.02q.09-.02.04.36c-.74.77-.23-.35-.04-.36zm-12.04.1c.22-.02.08.84-1 2.79l-.25.38c.27-1.98 1-3.17 1.25-3.18zm29.44 0c.17.91.3 1.37.42 1.6q-.02.6.24 1.87c.51 2.4-.58 6.3-.61 3.9.11-1.1.24-2.3.38-2.82-.22-.1-.4-1.02-.48-2.04.3 0 .48-.47-.04-1.59q.02-.53.09-.92zm46.63.02c.12 1.05.43 2.36.53 3.48-.5-2.13-.54-2.68-.53-3.48zM35 148.7l-.05.21q.02.28.04.28c.03-.02.04-.45.01-.49zm17.58.09q.05.18.05.31c-.22.1-.17-.13-.05-.31zm33.03.01c-.93.58.93.58 0 0zm-39.1.08.01.1q.06.22.22.42c-.53 1.32-.46 2.37-.05 3-.33.42-.57 1.34-.98.69l.05-.54-.21.21c-.27-.96.4-2.52.96-3.88zm12.84.1-.22.1q-.06.07-.05.1c.04.02.28-.16.28-.2zm-7.21.04-.13.36c-.06-.09-.05-.22.13-.36zm27.92 0c.04 0 .05.1-.01.41-.64.88-.13-.38.01-.4zm42.64.04c-.83.64 1.07.5 0 0zm-67.02.01q.11-.01.07.35c-1 .85-.32-.35-.07-.35zm6.24 0c.37.03-.4.5-.24.02zm15.54.1q.27 1.15.27 1.86-.15.29-.38.32-.07-.69.11-2.19zm44.1 0c-.32 3.76 4.34 2.7 0 0zm-59.21.06q0 .54.04 1.06c-.14.01-.24-.34-.04-1.06zm13.25 0c.33.63-.58 0 0 0zm19.07.14q.16.54.27.8c-.34 1.7-.79 3.51-1.71 3.82-.18.53-.33.83-.48 1 .27-.59.46-1.36.41-2.09 1.02 1.89 1.02-1.1 1.3-2.75-.11.1-.19-.42.03-.15q.07-.4.18-.63zm-.18.63-.03.15.06-.11zm-21.76-.61c.07-.01.17.4.3 1.64-.48 1.27-.5-1.63-.3-1.64zm-16.72.09.2.04q-.31.45-.52.82.14-.42.32-.86zm67.4.16c-.7.43.69.43 0 0zm-8.32.1h.05c-.25.4.04.58.3.57l.02.12c-.87.07-.66-.7-.37-.7zm-27.32.03c-1.7.36.87.88 0 0zm-24.45 0 .03.04-.03.04zm-37.02.1v.94zm62.21.06c-1.08 1.41 1.15 1.86 0 0zm-8.9.05c.06 0 .07.12-.03.46-.85.86-.14-.46.04-.46zm-30.1.02.17.13-.25-.05zm5.4 0c.1 0 .08.28-.23 1.14l-.14.15q-.06-.25-.18-.54c.2-.38.45-.73.55-.75zm-4.02.07c.09.18-.2.17-.2.07zm-3.38 0c.8.57 1.65 1.02.78 1.66-.75-.17-1.87-1.1-.78-1.66zm21.05.03q.06 0 .19.04c.31.79-.63-.07-.19-.04zm-43.35.02a4 4 0 0 0 0 1.03 7 7 0 0 0 0-1.03zm71.74 0h.17a.7.7 0 0 1-.58.07q.18-.06.41-.07zm-45.1 0q-.1.57-.1 1.3c-.46.16-.68-.82.1-1.3zm65.45.04c-.04.1.04.18.14.21-.22.42-.26-.18-.14-.21zm-55.88.02c2.92 2.06-3.25 2.34 0 0zm2.11 0c.04 0 .16.1.4.41.48 1.41-.56-.38-.4-.4zm-13.6.17c.72.7.23.96-.24.87-.38-.56-.16-.74.24-.87zm16.95.15q.37-.02.59.3c-.1.42-.06 1.24.26 2.62.25 2.21 0 2.4-.43 2-.05-1.14-.36-2.6-.33-3.27.47.7.86.7-.09-1.65zm-7.82 0c.8 0 1.2.51.18.89.31-.38-.36-.66-1.3-.58l.24-.11c.1.1.37.02.72-.19zm-6.1.03.4.4c-.31.59-.36 1.04-.26 1.36-.22.19-.38.45-.21.95-.3.13-.49.07-.6-.1.17-.06.24-.22-.1-.52q0-.34.1-.73.34-.53.54-1.25.06-.08.12-.11zm35.07.02q-.03 0-.05.14.01.21.04.23c.03-.03.04-.35.01-.37zm8.1.04c1.04 1.2.18 1.45-.18 1.08q-.03-.67.17-1.08zm-37.02.01q-.14 0-.15.03c.02.03.22.05.24.03q0-.03-.1-.06zm65.68.1c-.97.58 1.02.47 0 0zm-34.8 0c.48.94-.17.9-.15.4zm-2.5.01c-1.1.44.68 1.18 0 0zm9.62.04q.06 0 .1.03c.16.58.82 1.53 1.3 2.48.16 2.58-1.15 5.53-1.27.85-.25-1.01-1.07-2.45-.13-3.36zm-64.83.04q-.28.08-.6.2.15-.13.6-.2zm83.33 0q.06 0 .17.15c-.25.17-.28-.13-.17-.14zm-13.67.03c-1.38 1.72 1.4 2.53 0 0zm-39.96.02q-.02 0-.05.15.03.15.05.16c.04-.02.04-.3 0-.31zm-28.17.03q.04 0 .1.12c-.24.33-.2-.12-.1-.12zm64.5.02q.05-.01.14.2-.09.26.1.39l-.02.21-.25-.46c-.01-.18 0-.33.04-.34zm-7.81.1c.15.5-.43.23 0 0zm-21.63.05c.24-.02.77 2.06.67 3.57l.12-.36c-.06-.03-.15-.24-.02-.31l.05.22.07-.23c.06 1.96.03 4.04-.3 3.74-.01-.82-.17-2.01-.34-3.12a6 6 0 0 0-.37-2.8c0-.5.04-.7.12-.71zm-19.42.02q.07-.02.16.08l-.03.05-.2-.1q.03-.04.07-.04zm-10.36.06-.03.01v-.01zm7.13.07q-.03.01-.06.16.03.14.05.15h.01c.03-.02.03-.28 0-.3zm30.54.07-.01.2v-.2zm-21.35 0q.05.28.45.35-.34.27-.63.63.06-.45.18-.97zm-21.64.02q.1-.01.28.16c-.42.42-.51-.15-.28-.16zm93.42.06c.15 0 .47.26.82.6q.05.23.04.43l.41.01.54.57c-.19.38-.92.64-.99-.3a1 1 0 0 1-.14.3c.3.62.63 1.34.92 2.04-.15.01-.4-.39-.85-1.7-.82-1.45-.95-1.95-.75-1.95zm.82 1.3q.03-.13.04-.27h-.04zm-22.4-1.1c-.42.45.45.41 0 0zm-58.69.04c.27 1.15-.47.45 0 0zm48.17.02c.5 1.64-1.22.57 0 0zm-30.5 0c.09 0 .2.19.3.77-.49.25-.47-.76-.3-.77zm12.91.22q.06 0 .04.19-.07 0-.1-.15.03-.04.06-.04zm-15.59.1q.33.4.5.85-.05-.3-.02-.67l.16-.09.03.06q.13.9.24 1.57-.1 0-.23-.24.1.54.06 1.03c-.3-.05-.44.57-.45 1.42q-.18.23-.37.2.13-.9.07-1.57c.24.03.54-.1.11-.43l-.15.09q-.08-.5-.23-.8c.13-.46-.2-1.07.28-1.43zm.68 1.48q-.06-.3-.18-.63.06.4.18.63zm-32.26-1.35c-.02.1-.2.08-.21 0zm48.63.02q.04-.01.15.1c-.18.5-.31-.1-.15-.1zm37.16.06q.04 0 .14.1c-.06.48-.26-.1-.14-.1zm-67.84.04q.16.03.22.08l-.2.03zm50.51.1q.1.16.21.47zm-67.89.06c1.86.08 3.54 2.34 3.46 2.98-.23-.1-.75-.21-1.17-.35l-.6-.5q.1-.15.72-.35a5 5 0 0 0-2.04-1.24zm89.92.06h.02c.04.88-.1 1.6-.64 1.89.25-.85.43-1.88.62-1.89zm7.76.01c.43.09.52.32.43.52zm-3.05.09c.8.26-.46.91 0 0zm-37.37 0c-1.2 1.04.97.83 0 0zm10.53 0c.56.57-.1.6 0 0zm-26.1.02q.08.01.12.4-.17.16-.33.07.14-.47.21-.47zm-22.9.06q.1 0 .26.16c-.75.82-.63-.17-.26-.16zm75.04.04c.35.03.67.78.79 2.72.13.55.27.73.37.65.07 2.62-.31-1.3-1.16-3.37zm-40.2 0c-.02.97-.38 2.63-.63 3.9-.34-.19-.63.1-.62 1.77-.91.75.93-3.02.9-5.6q.15.03.36-.06zm-29.2.03q-.27.36-.31.78c-.07-.21.06-.5.31-.78zm-10.32.02c.06 0-.07.3-.57 1.18-1.36 1.54.41-1.15.57-1.18zm51.05.04c1.36 1.29 1.73 6.13 1.26 6.39.08-1.6-.91-4.35-1.26-6.4zm-42.62.04q.16.1.34.1c-.07.55-.26.22-.34-.1zm-4.68.09h.01c-.41.2-.7.23-.85.2q.4 0 .84-.2zm63.82.06.74 1.73q0 .42.03.82c-.16.27-.08.41.02.44l.04.44c-.28.26-.48-.7-.64-1.86q.1-.31-.1-.85zm-69.97 0q.04 0 .07.18c-.22.5-.16-.18-.07-.18zm49.16.02q.05-.01.12.26a.3.3 0 0 0 .01.23c-.24.8-.27-.47-.13-.49zm-40.48.01q.08-.02.15.28c-.44.47-.31-.27-.15-.28zm-10.87.01q-.15.21-.4.48c.07-.14.23-.33.4-.48zm11.42.2q.06 0 .16.12c-.24.34-.3-.11-.16-.12zm19.52.05c-.03 0-.04.25.07.95.14-.3 0-.95-.07-.95zm-1.63.03.02.46c-.38.42-.17-.35-.02-.46zm-14.99.21a1 1 0 0 1 .27.05c-.15 1.9 2.61 4.67 1.82 5.3-1.24-1.75-.8-2.21-3.07-3.93 1.7.14.34-1.4.98-1.42zm57.47.03h.02c-.3 1.03 0 1.4.26 1.33v.04c-.64.32-.5-1.37-.28-1.37zm-71.14.04c.13.07.3.45.46 1.37-.5.05-.68-.52-.67-.94zm80.07.08.03.3q-.19.1-.34.4c-.23-.07-.4-.49.31-.7zm-16.24.1q.35 1.8.46 3.6h-.01l-.05.2.04.29.03-.15a15 15 0 0 1-.06 1.51c-.46.41-.24-2.86-.7-4.97.23.09.31-.1.3-.47zm-4.32.05q.05-.01.15.13c-.24.33-.29-.12-.15-.13zm28.33.08q.19.22.25.36l-.1.28c-.2.03-.55-.23-.15-.64zm-63.8.05c.16 0 .4.32.66.77.05.87-.48.03-.85-.23q.02-.56.2-.54zm-4.68.01.1.12q-.03.16-.02.34c-.08-.04-.16-.2-.08-.46zm-17.92.06q.03-.01.04.13l-.07-.1q0-.03.03-.03zm9.4.12c.05 0 .16.1.33.4-.11 1-.53-.39-.33-.4zm6.83.02a2.9 2.9 0 0 0-.43 2.62c-.34-.6-.48-.21.62 2.83a3 3 0 0 0-.07-1.3q-.06-.09-.04-.17l-.05-.19.08.15-.03.04.04.16c.04.05.08.06.07-.05.27.51.57 1 .8 1.43.11.57.22 1.18.29 1.72q-.25.33-1.09.45v.63c-.39-.6-.57-.94.6 2.8.21.58.3.8.33.8.03-.05-.19-.9-.18-1.18.66.98 1.64 1.37 2.32 1.12l.02.07c-.58.41-.93 1.13.26 1.54.4 2.79.7 6.1 1.01.9-.13-1.03.18-1.78.56-2.04l.05.1q.19.36.2.35c.02-.02-.07-.24-.18-.49.46-.24.99.22 1 1.71 1.71-1.97.3-7.58-.62-3.79l-.12.1q.03.17.06.18l-.07.39c-1.11-1.44-2.09 1.52-2.56-2.04l.08-.14q.08-.03.13-.11c.65-.4 1.8 1.06 1.19-1.94a8 8 0 0 0-.78-1.62c.98 3.06.27 3.37-.2 2.6.01-.56-.09-1.25-.25-1.84q.09-.46.36-.88c-1.33-1.93-2.73-1.1-3.4-4.9zm3.4 4.9.09.13-.06-.17q0 .03-.03.05zm56.55-4.89c-.45.68 1 6.37.47 7.99q.31.74.49.86v.06l-.21-.08q-.12.24-.14.38a10 10 0 0 1-.29-1.02c.87-2.9-1.76-8.25-.32-8.19zm-69.7.04q.38 0 1.44.27c-1.3.3-2.25-.3-1.45-.27zm24.13.03q.06-.01.14.2l-.12.1a1 1 0 0 1-.02-.3zm13.83.03c-.84 1.2 1.33.33 0 0zm35.07 0q.13.21.25.59a3 3 0 0 0-.36-.57zm-32.9 0 .02.03-.05.92c-.15-.03-.23-.29.02-.95zm24.2.03v.36c-.07-.05-.1-.16 0-.36zm-21.8.08-.04.49c-.14.2-.3.69-.45 1.71-1.16 2.92 1.06 7.26 1.1 10.04-1.18-2.55-1.46-2.04-1.15-4.74-1.27-4.03-.46-3.5.55-7.5zm35.62.08.04.03c-.21.23 0 .34.17.31l.02.05c-.3.77-.4-.39-.23-.39zm-65.8 0q0 .04.04.08l-.04.07zm2.55.08c.12-.01.44.4.72.75l.1.75c.4 1.39-.41 3.3-1.02 2.74a2 2 0 0 1-.1-.76c.2.97 1.11-1.1.67-2.07-.41-1.05-.47-1.4-.37-1.41zm-20.06.14q.1 0 .29.14c-.07 1.17-.7-.16-.3-.14zm75.24.13q.15.39.3.54c-.2-.02-.4-.18-.3-.54zm-61.53.08c-.01.02.01.17.11.53q.14.3.16.28a3 3 0 0 0-.27-.8zm65.71.02q.12.52.16.93l.08-.56-.05.89-.03-.33a8 8 0 0 0 0 1.3l-.02.18v-.11c-.21.65-.73-.24-.14-2.3zm-77.1 0q.08-.01.24.1c-.18.79-.52-.08-.23-.1zm38.4.3c.46.29-.47.29 0 0zm-32.32 0q.06-.02.28.27c.1.56.09.77.04.79q-.13-.42-.36-.86-.03-.19.04-.2zm49.07.04c.11 1.32 0 2.55-.6 3.54.14-1.3.34-2.72.6-3.54zm-59.2.01h.04q.23.72.56 1.14 0 .51-.21 1.29c-1.22-1.47-.86-2.4-.4-2.43zm-4.55 0a.6.6 0 0 1-.08.37l-.07.02q0 .03.03.04c-.15.17-.4.2-.54.16a1 1 0 0 0 .12-.38q.18-.1.54-.2zm34.18.09c-1.1 1 .05 4.33.12 1.3zm-12.31.02c-.02 0 0 .18.12.68.48 1.13-.05-.67-.12-.68zm15.95.1c.17.52-.23.05 0 0zm-28.76.02q.05-.01.14.1c-.22.34-.28-.09-.14-.1zm-10.28.07q.02 0 .07.03l-.1.11q-.03-.12.03-.14zm84.06.01.16.2-.01.3c-.17.07-.53-.14-.15-.5zm-56.43.01c.41.8-.74.2 0 0zm-29.21.1q.26 0 .26.02c0 .05-.4.14-.43.1q-.03-.03.17-.12zm64.38.07q-.03-.01-.06.35c.15.92.13-.37.06-.35zm-10.43.19q.16-.02.33.48l-.07 1.3a10 10 0 0 0-.3-1.78zm39.62.03a1 1 0 0 0-.04.26q-.05-.24.04-.26zm-82.33.01c.07 0-.12.58-.88 2.34-1.21 1.65.7-2.3.88-2.34zm36.46.04h.1c-.05.57-.54 0-.1 0zm36.94.05c1.94.85-.7 3.36 0 0zm-84.44.13c-.1.8-.64.2 0 0zm85.58 0 .01.7a1 1 0 0 0-.2.23q.09-.5.2-.93zm-61.45.01c.35.74-.97.28 0 0zm25.85.03.05.06zm-27.66.17q-.01.01.16.36c.18.28.25.38.27.38 0-.04-.39-.73-.43-.74zm24.92.01q.08-.02.1.37c-.59.87-.28-.34-.1-.37zm46.2.18q.15.2.32.24c.04.5-.17.16-.32-.24zm-24.35.1a1.5 1.5 0 0 0 0 .68c.03-.03.03-.63 0-.67zm-1.34.06c-.8.8.92.39 0 0zm-17.35 0c1.3 1.26 1.19 3.29 1.88 4.5q.02.64.13 1.07c-.17.98-1 0-.8-.42q.01-.72-.04-1.34c-.18.12-1.34-1.3-.25-.74q.18.32.23.5a7 7 0 0 0-1.15-3.57zm1.15 3.56.02.25q.07-.03-.02-.25zm-1.8-3.48c.43 1.5.19 1-.21.43zm30.25.05c.1 0 .07.56-.06 1.33q-.24.52-.61.87c.35-1.59.57-2.19.67-2.2zm-60.94 0c.09.01.19.13.26.46-.63.25-.49-.47-.26-.45zm75.44.02c.19.65.27 1.2.18 1.49zm-77.92 0v.15q.15.45.14.89c-.55.34-.32.52-.05.54-.3 1.6-1.69 3.08-1.8 3.7a2 2 0 0 1-.43.26c-.82.33-1.41-.4-1.04-3.05.3-1.74 1.93-1.84 3.18-2.48zm-1.18.01c.47.1-.24.32-.1.06zm-10.9.04q.06-.02 0 .38c-.46.5-.13-.36 0-.38zm19.81.1q.23.45.35.75c-.22-.33-.24-.18-.18.24a4 4 0 0 1-.17-1zm-10.16.02q.22-.01.04.42l.27-.1c-1.21 1.21-2.13 2.62-2.3 3.75q-.16-.3-.33-.52l.22-.57c-.13-1.28 1.62-2.97 2.1-2.98zm82.15 0q.56 1.16.94 2.4c-1.67-1.85-1.36-2.22-.94-2.4zm-60.58.24q-.02 0 .02.19.11.13.13.12c.04-.04-.1-.32-.15-.3zm-5.33.02q.18.37.16.58zm11.58.1q.06 0 .16.14c-.13.09-.2.05-.22 0v-.09q0-.05.06-.05zm51.76.06c.15 0 .36.58.56 1.14l-.15-.04c.08 2.62-1.12 3.65-.07-.03a3 3 0 0 1-.47-.26l-.03.07c0-.63.07-.87.16-.88zm.34 1.07.07.03v-.25zm-61.8-.98c-1.17.61.89.95 0 0zm-5.93.05c-.05.01-.05.12.03.42.6.49.11-.43-.03-.42zm66 .01c.12.14.26.54.34 1.35l-.04-.03q0-.41-.3-1.32zm-87.59.04c.11 0 .3.4.6 1.58-.63.26-.82-1.59-.6-1.58zm14.83 0q.09-.01.19.35l-.31-.11c.02-.13.06-.24.12-.24zm40.3.03c-1.22.88 1 2.45 0 0zm-34.33.04c1.03 2.13-.45 2.3 0 0zm32.14 0 .02.33zm-27.66.05-.02.13q0-.06.02-.13zm.97 0c1.27 2.79.61 3.61.13 2.97-.08-.57-.2-1.24-.34-1.86q.05-.5.2-1.1zm56.91.1c.13.89.24 1.71.34 2.2q.03-.06.09-.13l-.03.38-.06-.25c-.17.3-.1.54 0 .66-.07.3-.18-.2-.37-2.01q.05-.43.03-.85zm-88.1.27c-1.14.72 1.07.73 0 0zm33.11 0c-1.39.9 1.16.99 0 0zm6.97.02c-1.31 2.62 1.71 2.52 0 0zm-24.4 0q-.52.26-.85.5c-.11-.43-.6-.4-1.3 1.38q.43.06.7-.1c.5.52 2.14.21 1.45-1.77zm28.1.05c.07 0 .17.29.32.75q-.07.62-.11 1.92.47.43 1.14.98.26.6.59 1.14a2.3 2.3 0 0 1-1.05-.26l-.4-.35a3 3 0 0 1-.47-.93c-.1-2.37-.12-3.24-.02-3.25zm-36.24.01c.05 0 .1.11.08.45-.48.53-.23-.44-.08-.45zm81 .23.04.23-.02.5c-.08.16-.24-.15-.02-.73zm-35.93.09-.06.5c-.12-.14-.16-.34.06-.5zm-37.11.06c.28 1.05-.54 1.21-.88 1q.22-.35.23-.7.22-.15.65-.3zm44.1.04q-.03 0-.07.08.02.17.05.17c.04 0 .06-.25.01-.25zm1.67 0q-.03 0-.07.08.03.17.05.17c.04 0 .07-.25.02-.25zm-4.7.02.03.06q-.06.1-.09.39-.08-.11.05-.45zm-14.35 0q.07.01.17.33l-.06.17zm42.64.08c.43 1.64-.45 1.88 0 0zm-31.42.02q.06-.01.17.23c-.27.67-.32-.22-.17-.23zm38.83.17q.07.2.17.32l.05.4c-.4.79-.35-.48-.22-.72zm-82.6.12c.16 0 .23.36.06 1.36q.08-.05.17-.09c-.45.6-.47 1.55.4 1.78q-.25.1-.58.1c-.53.26-.86.24-1.03.05l.03-.86c.54-.1.42-.27 0-.37l.03-.49c.26-.76.68-1.47.91-1.48zm-9.68.1c-1 .96.99 1.58 0 0zm20.34.11q.12 0 .26.04c.02 1.07.25 2.71.13 3.66l-.05-.2c-.73 2.04-.86.3-.27-1.9-.88-1.01-.64-1.6-.07-1.6zm19.18.03q-.03-.02-.05.37c.22 1.21.14-.4.05-.37zm-6 .16c-1.6 3.75 1.9 4.27 0 0zm32.44.06c.55 1.02-.4.96 0 0zm-28.92.24c-.96.62.68.76 0 0zm-36.06 0c-1.57 4.24 3.14.57 0 0zm94.48 0c1.13 2.57-1.12 4.77-.61.86.29 1.2.6-.38.6-.85zm-17.57.11q.06 0 .16.11l-.08.15-.07.04c-.1-.02-.12-.3-.01-.3zm2.5.12q-.03.12-.1.26-.18.2-.25.2.2-.22.36-.46zm-1.22.1c1.49.22-1.85 2.07 0 0zm16.62.08.17.66-.07.47h-.02q-.02-.57-.08-1.13zm-88.36 0c.07 0 .17.33.24.81l-.32.05c-.02-.6.02-.85.08-.85zm70.25.04q.05 0 .07.05-.43.24-.77.54c.29-.36.56-.6.7-.6zm-37.19.02c-1.38.92.92 1.56 0 0zm-30.28.04c.6 0 .96.72.7 1.3-.62.3-1.62.1-.82-1.29zm82.26 0c.05 0 .08.14.07.54-.47.53-.22-.53-.07-.54zm-57.95.04q-.02 0-.05.15.02.15.05.16c.03-.03.03-.29 0-.31zm-9.22 0q.2.5.08.86a6 6 0 0 1-.08-.86zm3.13 0-.06.08q.02.17.04.18c.04 0 .07-.26.02-.25zm16.13.05q.22.7.54 1.43c-.21-.33-.42-.8-.54-1.43zm38.05.03q.02 0 .06.08l-.08.25c0-.19 0-.33.02-.33zm-28.74.16q.07-.02.16.37-.13.07-.26-.04c.02-.17.05-.33.1-.33zm26.84.1-.02.07-.05-.04zm4.13.03q.1.3.15.53l-.04.9c-.15-.03-.36-.6-.1-1.43zm-69.15 0q-.02 0-.3.26a1 1 0 0 0-.15.24c.05 0 .45-.44.45-.49zm64.8.07c-.17.2-.08.3.05.33-.25.42-.49-.05-.04-.33zm9.41.06q.04-.01.1.13c-.24.33-.2-.12-.1-.13zm7.88.07q.3 1.51.1 3.03c.01-1.08-.02-2.18-.1-3.03zm-22.85.01c.27.16.08.23-.04.21l.02-.2zm7.67 0q.06.16.2.16c-.03 1.3-.17.47-.2-.15zm-29.52.02q.13 0 .4.28c.11 1.18.71 2 1.2 2.22q.08.45 0 .89c-.3.26-1.46-1.62-.76-1.54a6 6 0 0 1-.9-1.67v-.13q0-.05.06-.05zm-4.2.03q.05-.01.14.12c-.11.34-.23-.11-.13-.12zm4.59 0v.16q-.04-.09 0-.16zm-36.06.04c.1 0 .1.2-.08.7q-.4.47-.56 1.22l-.12.23-.41.28-.23-.05c.41-1.33 1.17-2.38 1.4-2.38zm-7.06.03c-.7.43.7.43 0 0zm18.4 0c-.58 2.27 2.32.92 0 0zm28.49.02.12.39v.39zm-53.92.07h-.01q-.02.02.02.19.12.13.13.11h.01c.02-.04-.1-.3-.15-.3zm74 .03q.11.37.04.65l-.13.28c-.41.66-1.44.46.1-.93zm-62.41 0c-.5.43.5.43 0 0zm23.45 0c-.64 1.3.44 3.32 1.03 4.42q.11.4.24.75c-.2-.12-.73-.59-1.77-1.56-.97-.32-1.2.13-1.22.81-.6.13-.41.13.02.58.04.67.13 1.4-.08 1.85q0-.17-.02-.23-.03 0-.06.15l.03.17c-.22.33-.65.45-1.5.15l.4 1.36-.02 1.03c.14.09.23-.05.28-.29.25.6.5.77.96.45q.14.18.44.5.23-.01.22-.14.23 1.12.3 2.26c-.2.33-.37.24-.34-1.33-.15 4.89-.68 9.93-2.7 14.5-.85.48-1.71 3-2.3 5.1.18-.38.27.1.38.7q-.14.43-.27.88a32 32 0 0 1-.36 3.78c.03-.62-.1-1.78-.27-.33.1.54.18.7.23.64q-.09.6-.18 1.19c-.18-1.74-1.17 4.14-2.01 6.03-.74 3.34-5.16 9.83-4.09 10.77q.2-.9.38-1.43c.02 1.14.02 1.78-.04 2.15l-.05.07q-.11.25-.1.27h.01l.07-.07c-.26.62-1.04-.3-3 2.03q-.27.28-.54.65c-.2.1-1.34 2.08-2.45 3.56q-.46.62-.43.63c.04.03.87-.9 1.59-1.8-.6 1.54-.5 2.43 1.34-.32.67-1.57 1.6-3.06 1.94-3.1l.36-.43a1 1 0 0 1-.24.62q.01.28-.22 1.09-.03 0-.24.3-.1.3-.08.3c.04 0 .18-.24.27-.42l-.3.88-.45.65c-.25-.25-.48.72-1.47 2.33-.07.98.41-.07.82-.6q0 .23.09.4l.08-.07q.06.15.04.24c.58.6 2.27.19 3.9-1.1-2.73-1.72 2.65-3.9 1.35-.89 2.3-.8.88-7.15 1.65-7.07-.02.3.08.27.23.15q.27.28.78 1.18v-.2q.24.03.29-.5.16.04.36.2a2 2 0 0 1-.02-.76v.04q.12.2.14.18c.03-.03-.06-.32-.12-.4l.05-.24c.32.77.36 1.24.29 1.43.4.3.73.34.42-1.43a18 18 0 0 1 .98-7.69c-.15-.07-.27-.29.07-.45l.04.08c.43-1.32.89-2.7 1.24-4.4 1.09-4.04 4.02-10.27 5.36-15.24 2.36-1.7 1.47 9.3 2 2.52a13.8 13.8 0 0 1 2.29-8.52c-.06-3.33-.45-2.95-.94-1.6-.33.1-1.08 1.58-.83 2.5-.61 1.8-1.2 3.03-1.48-.15.89-2.92-.52-3.8-1.3-2.62-.27-.04-.57.65-.8 2.5-.21-2.12-.4-5.32-.24-6.37 1.83-2.95-3.23-4.68-1.64-7.65l.3.5c.56.85.29-.18.02-1l.08-.1c.65 2.62 1.46 1.06 2.88 1.47q.48.53 1.3.89l.33.39c1.83.44.77-1.6-.44-3.45.43.01.77-.55-.4-1.47q-.15.36-.17.63c-.57-.81-1.07-1.48-1.22-1.72l-.18.55-.06-.2q-.02.05-.01.34c-.47.87-.49-2.28-1.22-2.45zm-4.87 44.65-.11.37c.13.07.3 0 .11-.37zm-1.51 9.5-.34-.26c.08.36.26.46.34.25zm-8.9 7.97-.12-.18c-.37.31.08.45.12.18zm1.46-5.1q-.02-.2-.12-.19c-.35.47-.1.43.12.19zm7.74-26.49a48.41 48.41 0 0 1 0 0zm-.34 1.27c-.43 1.75-.55 2.66-.1.56zm42.48-31.79.04.04q0 .03-.04.06c.1.2.2.23.28.18.43.53.29.95-.02 1.2.01-.1 0-.25-.09-.08l.02.12c-.4.28-1.02.29-1.11-.07a1 1 0 0 1-.22.11q.05-.12.11-.3l.1.04c.03-.28.28-.7.93-1.3zm-.93 1.3.01.15q.1-.08-.01-.15zm-8.04-1.3c.06.66.13.55.2.03.02 1.44-.41 1.25-.2-.02zm27.01.02c.05 0 .1.13.14.5l-.08.26a2 2 0 0 0-.11-.7zm-69.97.02c-.42.49.2.52 0 0zm56.75.02c-.36.7-.8 1.16-1.31.97l-.07.05q.69-.49 1.38-1.02zm-46.6.1c-.06.02-.03.22.2.8.51.25-.08-.82-.2-.8zm60.65 0c-.07 1.08-.1 2.22-.18 3.2-.37.55-.14-1.59.18-3.2zm-29.27.11c-.51 0 .25.44.12 0zm27.82 0 .13.2-.26.75zm2.5.02c.26.68-.02 1.16-.21 1.2l.04-.26c-.03.01-.08-.1-.09-.23l-.1.18q.04-.3.36-.9zm-.26.7.08-.1-.03-.1q-.07.07-.05.2zm.08-.1.03.23q.02-.26-.03-.22zm-17.65-.56c-.17.42-.17.96.1 1.7l-.12.2c-1.04.27-.61-.9.02-1.9zm-69.13.01h.35c.08.86.05 1.99-.27 2.82-.58 1.13-.25-1.06-.07-1.72.28-.02.58-.24.12-.62l-.1.06zm11.04.11c.05 0 .04.15-.02.55-.53.51-.98 1.24-.47.07.26-.35.42-.61.49-.62zm18.26.03c-1.13 1.08 1.08 1.17 0 0zm60.06.02q.08.01.13.16zm-59.08.08c-1 1.06-.1 1.7.3 1.42q.11.6.34 1.59c.28-.74-.31-2.76-.46-2.72zm28.77.06c.1 1.07-.3 1.38-.5 1.25.1-.27.16-.62.18-.92zm-54.45.14c1.52.58 1.73 4.34 1.93 5.54-.12.53-.34.95-.75 1.18-.94 1 .64-2.37.04-2.45-.1-2.46-1.27-2.94-1.39-4.21zm49.43.04c-1.5.78 1.05.84 0 0zm-38.81.01c-1.15 2.57 1.94 6.1 1.4 2.31-1.24.26-1.3-1.52-1.4-2.3zm-15.5.03q.07 0 .17.12-.06.04-.1.1c-.25.14-.22-.22-.07-.22zm23.11 0q-.03.01-.12.13c.12.35.24-.14.12-.12zm39.6.02q.05.03.11.17a1 1 0 0 1-.15.17zM38.9 162c-.03 0 .02.1.24.38.52.3-.15-.38-.24-.38zm2.47.02c.07 0 .1.12.03.44l-.14.13-.05-.14c-.07.01-.15-.02-.12-.12l.05-.08.07.2c.1-.01.16-.1-.06-.21q.13-.2.22-.22zm74.05.21q.04 0 .1.13c-.74 2.18.62 6.64.08 6.71-.09-.6-.16-1.3-.22-2.01-.21.45-.22-.65-.02-.3-.16-2.22-.16-4.5.06-4.53zm-.06 4.53.02.3.05-.13zm-31.33-4.52q.08 0 .15.12l-.21.11-.03-.16q.04-.06.1-.07zm41.1.03c.07.02.16.2.29.62l-.03.28a4 4 0 0 0-.26-.9zm-72.59.04q-.05.1-.08.1zm3.96.02q-.03 0-.1.35c.18 1.11.2-.37.1-.35zm-19.96.03c-1.23 1.68 1.1 2.34 0 0zm55.98 0c1.12 2.5 3.1 4.78 3.76 6.99-.98-1.89-4.18-3.73-3.76-6.98zm-19.13.03c.8 1.71-.04 2.32 0 0zm-28.83.01c.06 0 .15.07.28.3-.33.44-.46-.29-.28-.3zm-4.07 0 .13.09.06 1.1a1.6 1.6 0 0 1-.2-1.18zm19.21.03q.04.36.18.48a.3.3 0 0 1-.15.07zm-1.29.07-.06.07q.02.18.04.18c.04-.01.07-.25.02-.25zm9.04.1c-.74 1.17 1.44.92 0 0zm35.53 0c-.87.28-1 .6-.84.77l-.2.19.25-.14c.28.2 1 .1.79-.82zm-41.8.01.09.06c.05.14-.06.54-.45 1.42 0-.32-.11-.74-.24-1.22.24-.11.47-.26.6-.26zm3.08 0-.06.08q.02.18.05.18c.04-.01.07-.26.01-.25zm7.6.01q-.07-.02-.06.41c.3.18.16-.42.06-.4zm-24.53.06q-.02 0-.15.17-.04.13-.02.14c.04 0 .19-.27.17-.3zm35.27.01q.12 0 .23.03-.11 0-.23-.03zm-.09 0a6.3 6.3 0 0 1 2.5 1.93q.06.23.16.44c.05-.03.13 0 .26.18q-.08.1-.14.13c.36.84.8 1.66 1.39 2.15q.05.25-.04.33l-.04-.04q0 0 .03.05c-.2.12-.87-.44-2.19-2.2a117 117 0 0 1-2.4-2.85q.25-.1.47-.12zm2.78 2.68-.12-.31c-.1.06-.06.4.12.3zm-44.31-2.65.02.01zm63.49.03-.01.02zm-23.38.03c1.27 1.05 2.24 1.91 1.2 1.5-.47-.56-.92-1.11-1.2-1.5zm-28.06.02-.15.8c.23.57.53.72.8.74-.55.73-2.24-.57-.65-1.54zm-12.74.18c.37.03-.42.5-.24.02q.15-.03.24-.02zm15.48 0c.37.71-.07.63-.18.39l-.03-.14q0-.13.21-.24zm-16.86.04c-.12 0-.11.13.29.5.8.02-.03-.5-.29-.5zm59.77.03q-.09-.02-.45.32c.19.42.64-.33.45-.32zm7.15.05q-.04 0-.36.2c-.4.49.4-.15.37-.2zm19.12.03v.06zm-68.7.02c.46 1.26-.7 2.59-1.01 2.42q.44-.52.42-1.48l.02-.04zm-4.8.16c-.12 1.03.1 2.2.66 2.98v.16q-.2.18-.4.4c.05-.13.08-.24.06-.25q-.03-.03-.22.32l-.02.14a10 10 0 0 0-1.62 3.36l.1-.18a8 8 0 0 0-.49 1.15q.08-.15.2-.3c-.24.8-.45 1.58-.71 2.31-1.43-2.53.56-3.32 1.65-5.86 2.78-1.8-2.5-3.83.68-4.17zm-1.93 8.08a7.12 7.12 0 0 1 0 0zm58.37-7.97.15.28q-.06.13.08.28h.02c.31 1.01-.51 1.49-.8 1.15.05.73-.28.55-.47.22.63-.71.28-.85-.08-.57.07-.12.2-.19.48-.14q.05-.45.62-1.21zm-.62 1.22q-.06.35.07.5 0-.2-.07-.5zm-43-1.2-.05.22.04.28c.04-.04.04-.46.02-.5zm27.57.04.33 1.3c-.1-.09-.23-.48-.33-1.3zm-56.36.08-.04.27.04.28c.03-.04.03-.52 0-.55zm85.04.05c.03.11.16.18.3.2v.11c-.4.31-.4-.06-.3-.3zm-63.78.02q-.01 0-.05.14l.04.23h.01a1 1 0 0 0 0-.37zm30.2.23c.06 0 .16.1.3.39-.3.94-.54-.39-.3-.39zm-26.5.07c.04 0 .1.06.17.26q0 .03-.03.04a1 1 0 0 1-.27.01c0-.13.05-.3.12-.3zm68.07.04a1 1 0 0 1-.07.26zm-82.76.1c.12 0 .18.17.05.71-1.05.5-.35-.7-.05-.71zm51.64.01c-.23.57-.24.99-.13 1.26q0 .12.11.38.12 0 .18-.02c.56.32 1.43-.38-.16-1.62zm-56.95 0q.15.09.24.17l-.05.58a2 2 0 0 1-.2-.75zm86.1 0c.92 3.85-2.8 3.02 0 0zm-73.72 0q-.08 0 0 .22c.93.66.18-.22 0-.21zm22.31.07q.25.39.4.69l.06.23.16.33c.27 1.02-1.04.27-1.07-.53l.01-.03v-.06q0-.34.44-.63zm50.9.05q-.05.35-.12.42zm-64.56.06c.52.27-.03.52 0 0zm6.04 0c-1.15 2.94.66 4.89.63.96.4-.43-.32-.87-.63-.96zm44.33 0-.14.26c-.13.06-.26.09-.3.07l.15-.18q.1-.07.29-.15zm-72.3 0c-.08.01-.03.26.31.97.28-.22-.2-.98-.32-.97zm31.73.02q-.02-.02-.04.36a1 1 0 0 0 .07.32c.04-.05 0-.65-.03-.68zm32.24 0q.44.23.48.4a2 2 0 0 0-.47.48c-.47.1-.96-.12 0-.88zm9.06.04q.09-.02.21.3c-.37.97-.42-.3-.2-.3zm-58.1.06q0 .03.03.05l.02.12c-.06.11-.4 0-.06-.17zm66.72 0-.03.1q0-.06.03-.1zm-.03.11c0 .13.14.2.29.2-.08.4-.29.03-.29-.2zm-50.4.02c-.7.61.97.21 0 0zm39.76.04q.03 0 .05.02l-.08.04q0-.06.03-.06zm-43.6.23q-.1-.02-.06.3c.56.47.2-.3.05-.3zm22.22.02q.06 0 .16.15c-.13.18-.07.3.05.35-.24.78-.42-.49-.2-.5zm-32.1.07q-.04 0-.05.16.1.16.12.14c.04-.02-.03-.3-.08-.3zm-3.16.04q.16.05.28.11l-.38.05zm-8.4.01c.07 0 .06.18-.1.7-.91 1.06-.08-.69.1-.7zm70.41.04c.49 1.22-.33 1.45 0 0zm-62.47.06.03.1-.12.03q.03-.06.09-.13zm67.6.04.06.01c-.05.8.48 1.22.82 1.25l.08.18c-.9.29-1.3-1.43-.95-1.44zm3.58.11.08.48c-.21 1.41-.36 2.66.28 2.73-.56 1.8-.69-1.36-.36-3.2zm-63.85.06c.38.01-.42.53-.24.03zm38.82.01c-.76.49.6.59 0 0zm11.54.01.12.01-.02.04q-.02.03.03.07c-.2.01-.42-.01-.13-.12zm-47.57 0q.05.17.03.31l-.08-.13.06.2c-.1.35-.47.44 0-.38zm8.65.03q.29.36.47.63c-.22-.08-.23.08.47.82.09.33-.41-.13-.94-1.45zm32.7.01q.28 0 .45.05c-.2.06-.58.28-1.21.75q.07-.39.1-.67l.02-.08q.37-.05.65-.05zm3.23.09q.03 0 .07.05 0 .04.05.08l.03.05c-.23.49-.28-.17-.15-.18zm11.32 0q.08.11.24.15c-.21.43-.3.04-.24-.15zm-13.9.02c.7.35-.4 1.42-1.04 1.35.48-.43 1.03-1.11 1.03-1.35zm-37 .05c-.64 1.08 1.64.45 0 0zm42.16 0c1.17 2.45-2.02 10.55-.76 8.43 1.57-2.12 1.12-11.9 3.7-5.77q.03.52.18 1.41l.07-.46c.6 4.01-2.35 7.53-3.53 11.18l-.03.09a7.4 7.4 0 0 0-.23 4.35c-.3-.8-.75-1.4-1.16-1.67-.1.01-.22 0-.15-.08l-.2-.06-.04-.05v.05q-.4-.04-.51.6c-.49-2.37-2.03-5.53-3.02-4.55 0-.08 0-.23-.02-.25q-.03.01-.06.16l.04.13q-.37.39-.6 1.6c-2.05-2.45-.51-9.03 1.3-10.75.17.2.9.2.52-.36a.8.8 0 0 1 .7.04l.07.56c.03 2.92 1.28 6.16.76 1.2.79-1.99.34-4.63 2-5.78q.36.05.73.33zm-.24.35c-.15.25-.16.34.12.1zm-1.67 17.13.15.08c.15-.02.29-.1-.1-.13zm-51.57-17.46q-.03 0-.07.08.03.18.05.17c.04 0 .07-.25.02-.25zm9.16.07q-.02.01.02.19.11.13.13.12c.04-.04-.1-.32-.15-.3zm-13.14.06.28.1c-.06.17-.24.1-.28-.1zm53.14.01v.22l.04-.04c-.02 1.68-1.75 1.09-.04-.18zm-2.82.01c-.01.23-.23.3-.4.28q.12-.16.24-.26zm5.3.01q-.53.4-.96.74.47-.49.95-.74zm-31 .06c-.64 1.17 1.42.54 0 0zm25.24.01-.11.16c-.07-.04-.06-.1.11-.16zm-2.59.08c.73-.01 1.04.14 1.1.33-.16-.21-.68-.33-1.1-.29zm-1.7.03c-2.16.42.33 1.44 0 0zm27.24.02c-.91.67.95.9 0 0zm4.64.1c-1.29 1.06 1.03.63 0 0zm-57.19.11c2.2.74.24.93 0 0zm-28.35.05c.05 0 .06.13-.02.52-.6.73-.12-.51.02-.52zm57.82.06c.03.71-.4.85-.44.63zm-45.63.04q-.03 0-.07.07.03.17.05.18c.04 0 .07-.26.02-.25zm62.05.02h.03l-.14.25c0-.13.03-.25.11-.25zm-44.03.07c2.08 1.55 2.66 2.3.83 1.2q-.44-.46-.84-.94zm23.82 0c-1.53.78.85.88 0 0zm13.53 0q.58.45.94 1.22c.06-.39.25-.33.5-.04.1.5-.12.48-.44.19l-.06-.15-.01.08a6 6 0 0 1-.93-1.3zm-28.35.06c1.13 0 .01 1.1 0 0zm-30.92 0c.23.45-.52.35 0 0zm66.14.04.03.07-.05.1q0-.08.02-.17zm-56.51.08c.15.39-.1.71-.35.58q.23-.33.35-.58zm64.26.02-.1.47-.12.1zm-26.57.01q.09 0 .22.09c-.36.42-.46-.08-.22-.09zm24.2.03c.27.35-.46.24 0 0zm-41.54 0c-.01.02.07.17.34.56.6.57-.29-.57-.34-.56zm-11.14.03c.17.52-.23.05 0 0zm-11.93.04c-.72 3 .7 9.3.4 2.57 0-.85.17-1.82-.4-2.57zm44.95.05c0 .68-1.12.3 0 0zm-33.99.03-.06.07q.02.18.04.17c.04 0 .07-.26.02-.24zm4.04.01.07.24-.05.04-.03-.01zm1.1.12c.6.09-.32.37 0 0zm31.34.02c.86.22-1.36 1.9 0 0zm-8.33.05c-1.04 1.37 1.47 1.62 0 0zm22.26.11h.01l-.12.18q.03-.16.1-.18zm-68.7.07c.27.3-.1.33-.23.22zm26.15.08q.36.8.82 1.26 0 .06.1.22l.22.09c1.02.83 2.05.57 1.74-.01.14-.05.24-.21-.11-.37l-.08.13c-.31-.3-.95-.65-2.04-.97zm-27.36.07c1.23-.03-.34 1.1 0 0zm53.38.1.04.12-.17.03zm-41.04 0q-.02.02-.05.22.03.2.05.22c.03-.03.03-.4 0-.43zm25.22.06c.13 0 .39.22.74.87-.83.06-1.03-.87-.74-.87zm34.77.04q.04 0 .13.12c-.11.35-.23-.12-.13-.12zm1.67.11c1.4 2.9.22 7-.1 7.1-.17 1.56.14 3.96.09 6.02-.68.2-.74 1.32-.45 2.7q-.34.82-1.08 1.14c.82.34 1.04.71.93.88-.34-.3-.85-.56-1.22-.67l-.24-.4q.25.07.46.16c-1.15-1.4-.83-2.23-.28-1.96l.13.36q.04 0 .1.03.1.23.24.21-.05.22-.15.19l.1.17q.1-.15.17-.32.15.28.29.7c.4-1.86-.11-2.69-.77-3.54.16-.02.3-.16-.07-.4l-.13.15a6 6 0 0 1-1.53-4.04c-1.3-2.75.14-6.1 1.6-2 .78-.18 1.19-.77 1.41-1.53.26.14.99-.08.3-.59l-.2.16c.3-1.5.09-3.44.4-4.52zm-1.57 15.76-.19-.43c-.1.03.05.4.2.43zm-.04 1.17.04.04.03-.01zm-82.26-16.87c.06 0 .12.14.16.56-.16.16-.25.16-.3.1l.02-.5q.06-.15.12-.16zm79.65.18c.12.15.35.22.55.21v.03c-.33.5-.5.17-.55-.24zm-28 .05q.14-.01.38.22c.04.29.23.47.45.56l.23.39c-1.1-.3-1.36-1.16-1.05-1.17zm-14.74.04c-.09.01.26.35 1.5 1.3l.46.15a6 6 0 0 0-1.96-1.45zm-19.12 0-.04.34.04.4c.03-.04.03-.69 0-.73zm20.09.09c2.3.77 1.09 1.48 0 0zm21.13.04c-1.5.74 1.2.84 0 0zm4.47.1q.03.25.04.48c-.5 0-.35-.25-.04-.47zm-19.01.17c.2 0 .6.29 1.27 1.03-.2-.02-.34.04-.28.36q-.67-.75-1.19-1.16.02-.23.2-.23zm39.09.01a10 10 0 0 1-.6 3.65c.27-1 .42-2.4.44-3.58zm-21.07.02c.17.07.19.2-.33.54q.13-.25.33-.54zm2.99.17.09.17-.08.26c-.22.1-.65-.15-.01-.43zm-37.93.07q-.04.03.1.24c.5.38-.03-.26-.1-.24zm21.02.05q.07 0 .17.04l.07.27q-.03.01.01.2l.07.06q.2.58.5 1.36a1 1 0 0 0-.58-.38c-.44-1.2-.44-1.54-.24-1.55zm-28.47.06c-.07 0-.09.4.07 1.5.27-.54.04-1.52-.07-1.5zm-9.93 0-.3.64q-.07-.07-.1.17c-1.28 2.52-1.22.21.4-.81zm64.17.05.05.13.06 1.08c-.07.39-.22.3-.1-1.2zm-51.39 0c-1.2.5.97 1.44 0 0zm27.89.06.32.2.07.43c-.29.1-.93-.12-.39-.63zm-16.78.03q-.01.02.08.24.24.36.26.34c.01-.04-.3-.58-.34-.58zm-19.06.02c-1.23.8 1.3 1.41 0 0zm-2.1.01q-.03.02-.05.28l.04.27a2 2 0 0 0 0-.54zm-7.1 0c.06 0 .02.4-.28 1.56-.78 1.07.11-1.54.28-1.55zm-5.55.05c.18-.01.22.42-.33 1.66a1 1 0 0 1-.16-.4l.05-.68c.1-.34.31-.58.44-.58zm58.52.06c-2.87.26 1.64 1 0 0zm3.7.05q.06 0 .15.12c-.23.33-.29-.11-.15-.12zm-54.47 0c-.16.01-.03.6.16.11q-.1-.11-.16-.1zm4.53.09-.06.08q.02.17.04.17c.04 0 .07-.25.02-.25zm16.21.15c.82.64-.23 1.46 0 0zm20.9.08c.9.37 1.46.9 1.8 1.52q.13 1.24.15 2.56.16-.12.26-.15c-.05.95-.26 1.95-.43 2.91-.47 1.65-.89 3.37-.05 3.37q.2.6.71 1.02c-.96-.47-1.6-.2-2.01.34q-.06-.01-.14.2c-.4.65-.56 1.57-.63 2.16q0-.56-.03-1.83c.49-1.57-.56-5.61.28-4.85a8 8 0 0 0-.1 1.05c.27-.05.4-.33.43-.64l.43.69-.1-.7c-.08.11-.33 0-.03-.28l.03.03c-.11-2.8 1.6-4.1-.58-7.4zm.57 7.4v.25q.07-.07 0-.25zm30.01-7.4q.05.04.12.42l-.18.26q.02-.66.06-.67zm-40.94.02q-.08 0-.13.14c.56.45.33-.13.13-.14zm-36.72.04c.17 0 .33.36.26.77a1.2 1.2 0 0 1-.57.87c-.06-1.22.13-1.64.31-1.64zm79.72.02q.06-.01.17.14c-.25.17-.28-.13-.17-.14zm-73.29.14c-.24 1.68-.94 1.83-1.08 1.43.39-.43.88-.75.9-1.26l.1-.12zm22.85 0c-.66 2.47 2.33 2.68 2.38 2.63q0-.02-.49-.05c-.67-.77-.85-2.18-1.89-2.58zm21.62.03q.13.45.23.92c-.26.6-.56 1.52-.84 2.09.4-1.26.77-2.41.61-3.01zm36.98.02.03.28zm-43.16.02.09.1-.06.06.1-.01.14.18c-.31.21-.5.06-.57-.12q.23.02.33-.05c-.13 0-.24-.04-.03-.16zm-12.34.05c-.45 1.62 3.04.91 0 0zm-22.3.04c-.09.01-.13.25.08.79.14-.5 0-.8-.09-.79zm48.39.01c-.02.28-.24.28-.29.2v-.03q-.01-.1.29-.17zm2.16.06q-.31.45-.7.6l.03-.08q.34-.2.67-.52zm-40.3.03c-.93 1.42 1.19.84 0 0zm29.01.2q.05 0 .1.09-.04.12.06.18l.01.1-.13.08-.07-.44zm7.47.05c-.47.22-.62.41-.6.54l-.09.16c.07.2.16.12.21 0 .33.16 1.13 0 .48-.7zm-16.03 0-.06.07q.03.17.05.17c.04 0 .07-.25.01-.24zm3.54.1c.09 0 .07.24-.26.94-.51-.02.08-.94.26-.94zm-16.91.16.15.75c-.05-.15-.25-.34-.44-.48zm60.34.08c-.95 1.38 1.06.82 0 0zm-15.06.1q.05-.01.16.23c-.18.82-.3-.23-.16-.23zm-43.79 0-.13.05c.24.35.32-.05.13-.05zm26.77 0c-.6.17-.7.33-.6.46l-.14.07c.18.19.33.15.38.06.41.12 1.05.02.36-.58zm-58.94.05q.05-.01.09.13c-.23.33-.19-.12-.1-.13zm20.88.22q-.01 0-.06.08.02.17.05.17c.04-.01.06-.25.01-.25zm16.02.02c-.74 1.07 1.4.56 0 0zm24.66.05c-.04.35-.23.48-.42.5.2-.17.33-.38.32-.5zm-55.48.08q.07-.01.08.35c-.51.86-.23-.34-.08-.35zm55.89.25c1.46 1.16-.29 2.2-.34 1.17a1 1 0 0 1-.18-.57q.13.15.2.26.06-.33.32-.86zm-.32.86-.02.31c.13.16.26.05.02-.31zm-9.85-.68c-1.19.55.96.8 0 0zm-13.9.23c-1.23.45 1.16.42 0 0zm1.01 0c-.13 1.67 2.01.1 0 0zm-7.1.04c.45 1.47-.4.8 0 0zm18.69.1c.59 1.92.84 3.99-1.2 4.43.1 1.78.09 7.7.47 9.34-.35 1.77-.64 2.54-.63-1.36.36-4.95-.88-5.56.05-9.29.55 2.5 1.6-.93 1.3-3.11zm-9.52.06c.31 3.18 1.44 3.2 2.05 5.67-.07-1.93.34-2.55.95-2.74v.01l.02-.02c.27-.08.59-.08.92-.08.38-2.26-1.78-.76-3.07-1.33-.14.15-.49.19-.4-.29a2 2 0 0 1-.47-1.22zm.47 1.22q.19.19.4.29c.11-.12.1-.31-.38-.37zm-40.37-1.05q.11-.01.23.3c-.37.28-.72.67-.93.66.3-.44.51-.96.7-.96zm45.68.04c.12-.02.23.38.22 1.32q-.22-.25-.46-.68.09-.61.24-.64zm-43.74.06q.2 0 .28.23-.3.23-.61.94a3 3 0 0 0-.23-.85q.36-.32.56-.32zm6 0c.45.22-.26.36 0 0zm22.42.02q.07.15.12.31l-.18.49c-.1-.28-.17-.55.06-.8zm29.7.05q0 .03.03.05l-.05-.03zm18.72.11c-.2.6-.29 1.04-.14 1l-.2.3c-.19-.52.09-1.05.34-1.3zm-17.53.09-.06.07q.02.18.04.17c.04 0 .07-.25.02-.24zm-21.71.05c-.07 0 0 .32.34 1.25.78.69-.18-1.27-.34-1.25zm11.28.06c-1.09.5.83.64 0 0zm-33.28.05q-.03.02-.05.22.03.2.05.21c.03-.03.03-.4 0-.42zm42.27.04.46.34.06-.11q.18.46.28.9c-.02.2-.01.72.04 1.72-.2.4-.67-.02-1.25-1.96l.13-.47zm-29.26.07c.6 2.12-.4 4.26-.36 2.66q.12-.79.15-1.4l.08-.5zm48.61.01-.17.46v-.2zm-39.62.17c-2.47 1.03.11 2.24 0 0zm-18.94.06c-.93.53.94.53 0 0zm-14.26.11c.18 0 .11.65.14 1.08a4.4 4.4 0 0 1-2.35 2.57q.23-.21.44-.53.14-.1.13-.2l.16-.31c.17.02.38-.1.15-.33q.14-.29.27-.64c.61-1.23.91-1.64 1.06-1.64zm-5.74 0 .06.12q-.09 0-.09-.09zm6.7.1c.02 1.54-1.13 1.89-.81 1.09.03.31.15.43.53-.15l-.23-.36q.2-.25.5-.58zm-6.61.06q.17.35.26.62-.26.38-.7 1.2c-.51-.03-.93-.68.18-1.81l.05.25zm43.86.18c-.3.4.61.06 0 0zm-36.63 0c-.11.95-1.16.84 0 0zm-5.74.04c.04 1.94-1.53 1.97 0 0zm78.96.04-.13.05c.23.34.32-.06.13-.05zm-20.09.12c.47 2.15-.32 1.72 0 0zm-47.7.12c-1.33 1.2 1.07 1.8 0 0zm30.18 0c.3 1.01-.43.78 0 0zm-43.03.04q-.02-.01-.36.3-.23.31-.21.31c.03 0 .57-.57.57-.61zm78.32 0q-.1.5-.02.82l-.07.27c-.98.8-.18-1.03.09-1.09zm-58.21.08c-1.22 3.7 1.44 5.4 0 0zm59.83.02c-.9.87 1.16 1.37 0 0zm2.92.05a2 2 0 0 0 0 .67c.02-.04.03-.63 0-.67zm-48.77.18q-.34.97-.45 1.65c-.2-.37-.33-.48-.29 1.23.02 1.13.25 1 .47.52.68.76 2.35-1.18.27-3.4zm-36.66.04c-.05 0 .07.34.56 1.3.57.36-.44-1.3-.56-1.3zm47.49.25.25.98-.01.04-.1.04q-.1-.57-.14-1.06zm12.72.1c.5.84-.46 1.53 0 0zm-21.18.2q-.55.37-.7.7-.08-.03-.23.16.08.06.14.06c-.21.86 1.25 1.1.79-.93zm1.36.02q-.4.4-.66.72c-.33-.34-.78-.59-.18.25-1.77 2.43 2.35 1.33.84-.97zm12.5.1c-1.13.66.9.8 0 0zm30.1.11c-.95 1.07-.5 1.99.06 2.36l.12.3.24.24-.07-.4c.3.1.58.02.64-.3.21.1.74 0 .2-.3l-.18.1c-.02-.4-.3-1.04-1-2zm7.72.14c-.78 2.52 1.1.89 0 0zm-34.43.12q-.03 0-.07.08.02.18.05.17c.04 0 .06-.24.02-.25zm-2.27.13c.1 0 .2.16.27.34-.17.4-.36.75-.53.9q-.04-.46.05-1.03.12-.21.21-.2zm26.54.04q.08-.01.23.2c-.3.4-.4-.18-.23-.2zm-36.78 0c.36.97-.3 1.35 0 0zm37.53.05c.34.51.79 1.22.95 2.87.81 2.31.62 3.93.06 4.39l-.26-.54c1.62-.27-.09-3.57-.75-6.72zm1.66.04c.42.3.16.5-.07.51q-.12-.18-.16-.02c-.1-.06-.1-.22.23-.49zm-46.25.02c1 .55.25 1.57-.09 1.41.11-.35.2-.7.19-.83-.1.4-.2.4-.32.24q.04-.31.22-.82zm-30.63.01q.07 0 .2.15l-.05.06-.1-.01-.13.11c-.07-.07-.04-.3.08-.3zm37.06.13q-.02 0-.05.15.02.2.04.22a1 1 0 0 0 .02-.37zm-34.42.03c.44.39-.26.5 0 0zm33.93.03c-.79.66.63.71 0 0zm-4.58.1q-.05-.01-.14.1c.06.48.26-.11.14-.1zm-29.81 0c.1.56-.27.73-.42.63q.05-.15.05-.33.12-.15.37-.3zm76.26 0 .07.4zm-38.98.01c-.82.74.9.33 0 0zm-23.67 0c-.08 0-.12.24 0 .92.38-.21.13-.93 0-.92zm21.44.21c-.02 0-.06.23-.13.83.07 1.49.2-.85.13-.83zm-37.7.3q.09.03.19.25-.27.2-.35.13.1-.17.16-.39zm26.2.1q.07.51.02.5c-.05 0-.14-.38-.03-.5zm.27.01a31 31 0 0 1-1.57 6.8c.4-1.78 1.14-4.53 1.57-6.8zm51.2.02c.36.68.16.92.02.8l-.1-.43q.02-.16.09-.37zm-47.9.11.03.41zm10.24.07c-1.15.83 1.12.89 0 0zm-37.25.24c.5 1.7-1.8 2.75-1.23 1.54.73-.58 1.45-.9.72-1zm-.94.07q.08.33 0 .52l-.54.29c-.33-.05-.49-.42.54-.81zm-6.76.24c-.19 0 .02.41 1.32 1.45-.14-.8-1.06-1.45-1.32-1.45zm85.73.21q.05-.01.14.24c-.08.24-.14.27-.18.21l-.03-.23c0-.11.02-.22.07-.22zm-48.75.13c-.05.01-.17.33-.38 1.24.25.65.52-1.26.38-1.24zm-35.35 0c1.4.2.07.6 0 0zm66.74.05a2.6 2.6 0 0 0-.69 2.96l.02.55c.26.38.42.41.5.25.5.42.98.03.51-2.13l-.07-.83zm2.8.03c.18.4-.06.47-.16.38l-.01-.21q.05-.07.17-.17zm-18.25.12q.07-.01.16.23c-.27.67-.32-.22-.16-.23zm17.25.08c-.08.01-.27.37-.6 1.4.5-.34.73-1.42.6-1.4zm10.25 0c-.4.82-.28 1.52 0 1.88l.05.07-.06-.07c-.7-.88-.36-1.8.01-1.87zm-47.94.2c.04 1.76-.25 5.5.08 6.57-.82 1.62-.95 1.09-.87-.13.25-.04.5-.25.04-.51.1-1 .28-2.27.35-3.22l-.02-.48q.2-1.15.42-2.22zm45.37.2c.29.25.65.64.98 1.06l-.2-.14q.2.23.43.44.16.18.28.38c.1.49-.52.6-1.29-1.05q.33.1.57.23-.42-.45-.77-.92zm-41.35.14-.15.3zm49.64.25c.06 0 .14.24.2.91-.42.93-.37-.92-.2-.91zm-2.66.08c-1.21.5.96 1.43 0 0zm-45.68.12c.2.72-.28.97-.48.87l.1-.53q.13-.15.38-.34zm-32.18.23q.05.09-.06.4.1-.18.22-.34c.09.22-.09.38-.25.43-.23.07-.42-.06.09-.5zm53.92.03.03.28zm-25.24 0q.16-.01.28.34l-.16-.2q-.25.13-.3.27l-.04-.2q.11-.2.22-.2zm28.03.08c.47 1.97 1.19 2.65 1.73 2.4 0 1.25-.08 2.3-.76.15q-.58-1.05-.9-1.51-.02-.53-.07-1.04zm-19.15.12c-1.12 1.15.98 1.43 0 0zm25 .02c.4.76.29 1.32.1 1.54 0-.41-.07-.96-.16-1.4q.02-.07.06-.14zm-65.83 0c-.05 0 .04.31.4 1.22.73.9-.28-1.2-.4-1.21zm31.6.33v.26l-.09.06zm-30.6 0c-.03 0-.11.12-.25.46.21-.03.33-.47.26-.46zm4.6.08-.04.27q.02.33.04.34c.03-.03.04-.59 0-.61zm26.2 0c.12.18.42.27.53.16q.06.44.08 1.18c-.45 1.77.19 2.58.32 3.18-.4-.42-.46-2.44-1.3-.14.19-.61.31-1.27.38-1.9l.02-.07-.01-.03c.09-.87.07-1.72-.02-2.37zm30.67.01q.21.35.44.91c-.16.03-.34.27-.54.82l-.13-.55q.18-.45.23-1.18zm19.69.06q-.03 0-.06.07.02.18.04.17c.04 0 .07-.25.02-.24zm-4.02.03q.16.15.33.17l-.02.13q-.18-.15-.3-.3zm-49.28 0-.18 1.21q-.02-.03-.06-.01c.03-.3.12-.88.24-1.2zm4.75.12c-1.04.8 1.05.84 0 0zm50.99.07c.6 1.08 1.36 2.14 2.12 3.1l-.25-.16c-.73-.26-1.36-1.52-1.87-2.94zm-49.6.05c.86.25.26.42-.17.41l.03-.35zm48.23.13c.13 1.15.16 1.86-.34 1q.19-.49.34-1zm-48.53 0-.07.04zm42.44.03c.34.53.54 1 .41 1.15a9 9 0 0 1-.4-1.15zm-75.79.04c.53.15-.1.54 0 0zm-1.32.1c-1.13.96 1.06 1.93 0 0zm67.24.54q.15.1.33.32l-.16 1.2q-.1-1.05-.17-1.5zm-36.4.39c.03.92.02 1.4-.02 1.58l-.01.06-.01.01a6 6 0 0 1-.25-1.42zm53.06 0q.08 0 .27.21-.2.1-.13.68c-.21-.63-.24-.88-.14-.89zm-34.68.17q.13-.01.26.4-.24.43-.6 1.24l-.02-.97c.12-.4.23-.67.36-.67zm31.75.12c.57.81.5 1.44.3 1.68.21-.66-.1-1.2-.38-1.34zm-12.92.36c.47.85.81 2 .42 2.87-.21-.98-.33-2-.42-2.87zm-34.51.05q-.02 0-.15.17-.03.12-.02.14c.05 0 .19-.27.18-.3h-.01zm29.03.04q.04 0 .12.07c-.3.53.03.74.35.72-.67.85-.78-.8-.47-.8zm-16.9.06q.06-.01.18.23c-.11.31-.2.37-.24.32v-.5q.02-.05.06-.05zm4.48.03c.1 0-.04.33-.3.85q.11-.41.17-.78.09-.07.13-.07zm34.44.2q.16 0 .27.05l.36.5c.07.7-.83 1.6-.63-.56zm-79.02.13q-.02 0-.05.22.03.2.05.21c.03-.02.03-.4 0-.43zm-4.1.29c-.74.57.73.57 0 0zm33.75.35c-1.26 1.55 1.34 1.75 0 0zm24.85.12c-.5.79-.57 1.41-.45 1.81.07.44.12.46.15.32.42.51 1.26 0 .3-2.13zm18.55.4q.09.11.15.24c-.07.11-.22.05-.15-.24zm-43.9.1-.05.2q.02.28.04.29c.03-.03.04-.46.01-.5zm29.28.04.22.62c-.07-.02-.14-.26-.22-.62zm-62.53.06c-1.46 2.65 1.37 2.3 0 0zm47.4.22c.07 0 .12.21.14.77q-.4.94-.65 1.89c.05-.87.34-2.65.51-2.66zm-2.9.01.14.04c-.18.49-.36-.03-.13-.04zm38.7 0 .1.2q0 .33.04.61a2 2 0 0 1-.13-.8zm-56.07.13.19.28c-.07.62-.26.32-.34 0zm57.66.13q.39.51.7.87-.54-.37-.85-.55a1 1 0 0 1 .15-.32zm-21.96.25c.21.54.42.99.61 1.24-.25 1.25-.68 1.33-.61-1.24zm1.27.01c.46-.03 1.37 2.25 1.95 3.63.28 2.13-1.1-1.4-1.97-3.62zm-19.74.01q.04 0 .16.17c-.18.65-.31-.16-.16-.17zm-13.18.16c-.15.27-.52.54-1.3.9.48-.38.95-.62 1.3-.9zm55.46.18q.66.83 1.01 1.46c-.45 1.27-.36-.03-1-1.46zm-2.67 0c1.97 2.23 1.1 3.84 0 0zm-54.12.01c.08 0 .01.24-.34.87l-.15.06-.11.36q-.45.47-.83 1.25h.08l.71-1.15c-.44 1.28-.9 2.5-1.29 2.6q.21-.84.5-1.45c-.69-.02 1.17-2.52 1.43-2.54zm-30.76.04-.05.27.04.34a2 2 0 0 0 .01-.61zm64.76.06.02.03-.03.03zm21.9.22c.02 1.44.73 1.54.9 1.08q.17.58.04 1.32c-.96-1.52-1.1-2.24-.93-2.4zm-41.51.05q.03 0 .06.11v.1l.01.14c-.15.26-.23.33-.27.3l.02-.32c.05-.16.12-.32.18-.33zm35.34.04q.06 0 .17.14l-.02.01-.17-.14zm-11.94.7c.6.57-.02.68 0 0zm12.81.08.18.1c.01.1-.32.13-.18-.1zm-15.31.04q-.02 0-.06.15l.04.22h.01c.03-.03.04-.34.01-.37zm1.96.04c.48.93-.06.86-.13.46.03-.19.07-.37.13-.46zm20.3.05.02.33zm-21.27.23c.46.32-.13.48 0 0zm-22.15.23c.02.18 0 .63-.07 1.2l-.12.36q.12-.78.19-1.56zm24.24.29c1.06.56 1.98 2.19 2.42 3.54-.63-.73-1.5-1.45-1.83-2.25a5 5 0 0 0-.6-1.29zm-2.36.08.06.34q-.07-.06-.06-.34zm.86 0q.1.24.15.1c.3.3-.32.6-.15-.1zm-35.57.1c-.06 0-.09.47-.01 1.73l.05.84c.24-1.04.06-2.6-.04-2.58zm36.67.21v.02c.4 1.23-.68.88 0-.02zm17.63.24c.63.17-.46.38 0 0zm-58.48.17c.07 0 .06.33 0 .85a10 10 0 0 0-.68 3.78c-.13.53-.25 1-.36 1.31-.82.1.18-3.2.14-3.44.52-1.8.79-2.49.9-2.5zm-2.74.31-.62 1.64c-.24.09.2-.89.62-1.64zm58.01.08.03.08-.05-.06q.02 0 .02-.02zm-36.56.04q.14-.02.24.45c-.1.68-.05 1.25.05 1.6l-.14.63c-.65-1.37-.41-2.65-.15-2.68zm40.3.05c1 .88-1.23.27 0 0zm-39.14.11q.09.33.33.57c.56 1.6.2 7.58-1.16 8.27l.16-.71c1.52-2.1.51-5.15.67-8.13zm38.21.08q.6.51 1.27.92c-.22 0-.36.17-.23.71l-.19-.24q.06-.27-.1-.46l-.06.21q-.3-.47-.69-1.14zm-35.92.36q-.02.01-.04.27.02.28.04.28a2 2 0 0 0 0-.55zm28.1.22c-.7.44.7.43 0 0zm5.92.17q.27.3.51.45c.8 1.01.41 2.15-.5-.45zm-16.47.02q.52 2.06.65 3.8c-.63-.83-.41-2.15-.65-3.8zm17.87.49q-.24.21-.34.48l-.23-.39q.3.1.57-.09zm-7.32.28c-.56.85-.43 1.57-.17 1.87l.01.06h.01l.01-.02c.36.37.9-.05.14-1.91zm11.08.79q.2.2.4.43-.24-.23-.4-.43zm-2.05.04.05.03zm-58.42.07c.1 1.55-.77 3.4-1.65 4.48q-.06-.07-.16.18-.3.36-.6.55a5.8 5.8 0 0 0 1.63-3.51q.31-.51.78-1.7zm58.15.17c.7.7-.49.71 0 0zm-.4.18q-.13.4-.06.6c-.11-.18-.07-.41.05-.6zm.66.7-.07.2a2 2 0 0 1-.34-.07q.2 0 .4-.13zm1.02.02c.08.28.27.43.45.41l-.05.31c-.32-.01-.42-.34-.4-.72zm-16.58.13q.13-.01.12.34-.15.25-.53.07c.17-.25.32-.42.41-.41zm-24.55.28q.05 0 .08.2a4 4 0 0 0-.15 2.02c-.79 1.67-.2-2.2.07-2.22zm19.74.19c.08 0 .11.2.03.76-.87 1.02-.26-.76-.03-.76zm-43.21.09.02.08c-.25 1.53-.54 1.23-.02-.08zm47.88.37c-.37 1.4-.92.6 0 0zm17.31.28q.08.04.13.13c-.65.3-.67.03-.5-.11.1.03.25.02.37-.02zm-55.98.14c-1.3 1.06 1.02.63 0 0zm37.16.01q.06.97-.1 1.44l.12-.17q-.14.73-.42 1.47c-.15-.1-.18-.36.03-.8-.58.47-1.4-.98.37-1.94zm-.37 1.93q.16-.13.28-.49-.19.28-.28.5zm-45-1.76c.25.39.3.74.35 1.17-.15.68-.34 1.45-.27 2.11-1.27.7.48 1.77.23.44l.39-.74q.14.42.38.95c.29.05 0 .95-.44 1.8.2-1-.39-.5-1 1.07l-.12-.08c-.59.36-.33.52-.05.52l-.01.03c-.42.2-.66-.33-.37-2.35l.1-1.73c-.08.11-.46-.13-.26-.57q.25.3.28.44.11-1.41.17-2.82c.15.19.34.17.62-.24zm-.8 3.06v.13q.04-.04 0-.13zm46.6-2.5a2 2 0 0 1 .23.5c-.58.75-.54.29-.27-.44zm-26.47.65q.27.1.57 0 .58.64.84 1.29c.1.73.03 1.6-.12 2.56-.56.65-1.51-.05-1.29-3.85zm24.38.12q-.01.7-.1 1.4c-1.18.42-.33-.3.1-1.4zm17.77.02.29.82.05.44c-.37.98-.44-.7-.34-1.26zm-53.31.04c-1.5 2.9 1.56 3.55 0 0zm33.31.12q.1.2.11.43c-.07.12-.26.03-.11-.43zm22.25.02.07.42-.2.65c.32.32.05.33-.07.23-.36 1.23-.52 2.17-.1 2.48-.31.57-.71-2.97.3-3.78zm-.2 1.3.07-.23c-.15.09-.14.18-.07.23zm-62.36-.45c.08 0 .1.13.12.27a.4.4 0 0 1-.28-.15q.1-.13.16-.12zm6.34.73c-.07 0-.11.23.05.76l.08.1c.13-.5-.03-.86-.13-.86zm12.89.01c-.02.01-.02.12.04.43.43.72.04-.44-.04-.43zm41.25.39q.07.08.2.07v.14c-.31.12-.29-.08-.2-.21zm-20.47.1q.05.7.1.95-.19.7-.3.95c.05-.9.09-1.6.2-1.9zm5.05.25c-.81.72.7.68 0 0zm-23.72.66c-.46 5.7-.9 11.59.05 17.17l-.36-.2c.09-.9-.06-2.12-.7-3.17.3-3.07.1-6.85.33-10.52.25-1.22.52-3.27.68-3.28zm20.78.3c-.3 1.48-.73 3-1.24 4.73-.2 1.08-.9 3.61-1.32 3.97.25-1.09.53-2.24.84-3.34.21-.3.44-.9.57-1.88l.36-1.03a2 2 0 0 1-.13-.35c.19.03.47-.07.07-.32l-.1.07c.01-.62.52-1.12.95-1.84zm-44.56.11c.41 1-.33 4.59-.38 6.1-1.36 3.45-.52-.81-.24-3.36l.04-1.4q.23-.66.58-1.34zm20.27.02q-.02 0-.05.15.03.15.05.16c.04-.03.04-.29.01-.31zm23.47.02q.07 0 .17.13c-.35.34-.34-.12-.17-.13zm-42.66.2c-1.1.74 1.07.66 0 0zm64.07.37c.12 1.31.04 2.1-.14 2.62.1-.77.16-1.73.14-2.62zm-42.72.07c.1.06.16.6.2 1.91l-.05.17c-.52 3.4-.23-1.35-.22-1.79zm-20.34.2c.95.64-1.1 1.43 0 0zm41.42.99q0 .06.06.1v.16c-.47.53-.2-.25-.06-.26zm19.65.04.04.35q0 .13-.03.22zm1.47.04c-.13.4-.2.24-.2.04q.1 0 .2-.04zm-62.74.27q-.03.24-.11.51v-.27zm41.32.38q.03 0-.02.26c-.7 1.14-.88 1.99-.81 2.37-1.07 2.24.66-2.61.83-2.63zm-41.48 0 .03.17h.01c-.32 1.16-1.01 2.42-.26.35zm61.4.67q.03.15.04.41c-.06.53-.1.73-.13.74zm-62.72.11-.15.6c-.17-.02-.25-.2.15-.6zm63.82.16.11.65q-.15.12-.25.26-.07.53-.1 1.22c.02-.92.1-1.7.24-2.13zm-65.7.2-.05.16q-.02-.1.05-.16zm3.97.37c-1.12 1.05 1.12 1.16 0 0zm-1.55.6c.6 1.42-.9.58 0 0zm-.86.04-.02.14-.12.3c-.06-.07-.05-.21.14-.44zm.2.04c.14.26 0 .42-.14.45zm-2.2.14q.03 0 .06.03l-.06.19c-.04-.07-.05-.21 0-.22zm23.97.38q.07 0 .12.25c-.4 1.46-.26 3.78-.02 4.95-.13 3.15-.68.32-.62-2.64.2-1.85.38-2.56.52-2.56zm-19.65.18c-.96 1.4 1.1.77 0 0zm-1.83.24a6 6 0 0 0-.48 1.72 4 4 0 0 1-.12-.81q.21-.22.6-.91zm40.79 1.45h.02q-.37.48-.54.97.28-.99.52-.97zm-19.09.1v.16c-.1 0-.2-.07 0-.16zm-.01.4v.14c-.05-.02-.08-.07 0-.14zm23.22.25q-.02.02-.05.27l.04.35c.03-.03.04-.58.01-.61zm-46.6.07c.08 0 .12.23-.02.9-.82.6-.21-.9.01-.9zm42.58.14.13.08-.02.15c-.18.02-.5-.08-.1-.23zm-44.48.08a74 74 0 0 1-1.74 4.03c-.48.3 1-1.9.8-2.16.4-1.06.72-1.64.94-1.87zm.3.26q0 .24-.1.59-.19.47-.23.47c-.03-.05.1-.5.34-1.06zm2.65.22c-.28 2.87-.23 6.31-1.1 5.7-.02-.73-.05-1.56-.01-2.36.16-.1.33-.7.34-2.06q.25-.79.77-1.28zm40.75.19c-.07.67.05 1.36.21 2.04l-.15.37c-.5 1.65-.4-2.44-.13-1.95zm.46.46c.16.96-.6 1.4 0 0zm-42.68.38c.18 0 .24.6-.22 2.25l-.08.28c-.5-1.19.04-2.54.3-2.53zm2.78.27c-.73.57.74.58 0 0zm62.91.85c.08.65.18.97.26.64.02.75 0 1.08-.03 1.1-.05 0-.14-.7-.23-1.74zm-25.02.1q.2.2.41.88c-.44.3-.71.25-.85.05q.23-.47.44-.93zm.03.42c-.65.01.55.44.16 0zm23.26.35c.08 0 .04.35-.26 1.4q-.16.21-.27.31.04-.6.18-1.17c.14-.3.28-.54.35-.54zm-64.92.58q.09-.01.24.13c-.37.34-.44-.12-.24-.13zm43.73.02c.25 1.16.3 2.23-.68 3.06q.15-.38.37-1.15c-.01-.03.1-.77.3-1.91zm-19.25.63c.03 0 .08.1.13.38-.27.82-.26-.37-.13-.38zm-24.22.06c.07 0 .11.25.14.88a8 8 0 0 0-1.12 1.74l-.05.09.02.02c-.55 1.24-.81 2.67-.04 3.43.24 1.11-.11 1.37-.68 1.39a3 3 0 0 0 .11-1.13v-.37c.12 0 .2-.1-.03-.37l-.1-1.04c-.51.98-.9.52-.18-2.19.33.72.64.65.9.26-.06-.06-.1-.2.02-.22l.03.13c.47-.8.8-2.62.98-2.62zm38.92.06q-.03 0-.23.23l-.1.19h.01c.04 0 .32-.38.32-.41zm3.27.3c.07 0 .1.16.13.39q-.18-.04-.43.18.21-.58.3-.56zm-3.63.25q-.08 0-.36.31.4-.25.37-.3zm-12.6.19c.27.35-.45.22 0 0zm-1.9.44c.06-.01.14.14.29.57-.21.92-.43-.55-.28-.57zm-27.69.32-.46.93c.18-.55.34-.83.46-.93zm42.37.07c-.02 0-.18.24-.56.9-.22.49-.3.68-.28.69.05.01.9-1.6.84-1.6zm2.1.08c.1 0 .19.12.28.23l-.02.08.03-.06q.09.11.17.18c-.04.1-.23.08-.2-.12a9 9 0 0 0-1.11 3.81c-.4.78-.53-1.5.33-2.41.17-1.36.35-1.71.52-1.7zm25.7.02c.1 0 .21.35.34.78q-.17-.15-.38-.44c-.14 1.45-.14 3.21-.24 4.65l-.03-.13c-.12 1.3-1.22-.06.1-2.76.03-1.57.1-2.1.22-2.1zm-69.84.34q.03.35 0 .83c-.5 1.27-1.45.96 0-.83zm67.41.42c.7.85.36 2.53-.09 4 .22-1.3.13-2.67.09-4zm-39.92.02q.08.7.2 1.18-.15.13-.3.31.13-.6.1-1.49zm13.53.96q-.09 0-.35.3.38-.24.36-.3zm-36.78.02c.03.18-.02.17-.06.1zm64.87.12q.1.03.22.03c-.16.34-.23.13-.22-.03zm-44.51.6q.03.18.01.71-.11.58-.18 1.9c-.38 1.66-1.33 2.93-1.41 2.66q.21-.5.41-1.13l.54-.99c.16-.9.38-1.99.63-3.14zm42.2.54c.46.79.11 2.12-.33 3.07.25-.86.3-2.02.34-3.07zm-19.95.35c-.98 3.08 1.11.92 0 0zm-3.33.04-.07.26c-.08-.02-.12-.14.07-.26zm-16.7.2c-.14.51-.22 1.1-.25 1.68-.02.03-.06.22-.11.72q.02.3.05.32.02-.01.05-.18c.01.75.1 1.49.27 2.1-.71.37-.84-1.98-.63-4.61.1.22.36.22.62-.04zm-26.36.5c.05 0 .02.07-.17.31-.6.34.06-.3.17-.31zm38.71.09a3.2 3.2 0 0 0-1.73 2.34l-.17.2c-.07.39.03.4.2.25.13.5.71.3 1.4-1.64.05-.4.51-.72.3-1.15zm-42.7.04q-.08 0-.36.3.4-.24.37-.3zm4.32.07q.1.04.2.01l.02.03c-.15.44-.23.18-.22-.04zm68.55.05.03.33zm-68.76.14c.05 0 .11.12.19.48-.32.47-.32-.47-.19-.48zm41.69.58c.3.3-.34.37-.06.02zm-.6.1c-.5.68-.9 1.71-1.1 2.27l-.03-.04.27-1.07c.33-.88.6-1.1.86-1.16zm-42.49.56q.06 0 .17.15a1 1 0 0 0-.23.2q0-.36.06-.35zm69.4.01c.02.08.13.12.24.12.09.53-.3 0-.24-.12zm-29.9.04c-.26.63-.64.5-.6.29l.03-.05c.06-.1.23-.21.57-.24zm-12.94.44q.05 0 .2.07c-.08.21-.33-.06-.2-.07zm16.29.1c-.73.57.73.57 0 0zm-46.13.21c.51.75-1.08.54 0 0zm28.98.17.02.02-.04.06zm2.15.03c.26 2.06-.45 1.36-.06.01q.02.31.04.32zm-28.21.01a4 4 0 0 0-.02 1.23q-.3.68-.57 1.05c-.34-.45-.84-1.1.59-2.28zm66.13 0q.36.35.44.54l-.02.08h.05c.14.44-1.05-.08-.47-.61zm2.32.41c.48.9-1.11.47 0 0zm-67.4.36c-1.43.37 1 .73 0 0zm68.95.03.09.01a.5.5 0 0 1-.36.1q.1-.1.27-.1zm-67.83.1q-.02 0-.2.5c-.13.87.24-.43.2-.5zm66.71.05c.39 1.1.09 2.26-.37 3.11.75-1.92.61-3.04.06-2.56zm-29.66.06c-1.83.13.74.9 0 0zm-15.82.05c.58.22-.59.22 0 0zm17.12.48c.5.3-.83.48 0 0zm27.59.24a1.3 1.3 0 0 1-.17.68c-.18.32-.39.25.17-.68zm-42.04.21q.1 0 .2.2c-.55.8-.74 2.42-1.09 3.47h-.02c-.24-.3.39-3.69.91-3.67zm2.18.18q.09.18.19.33l-.23-.2zm37.54.1c.03.13-.07.23-.18.28zm-.23.06-.18.22q-.01-.06.18-.22zm-69.13.11c-1.3.06.36.98 0 0zm26.19.29c-.26 2.13-1.3 2.81-1.23 2.11q.64-1.13.9-1.7zm-24.89.44v.06zm30.22.47q-.02 0-.05.21l.04.28c.03-.04.04-.46.01-.49zm39.47.1-.1.32v-.06zm-2.74.12a1 1 0 0 1-.29.51l.08-.23zm-.28.18-.08.13zm1.62.18c-2.47.45-.07 1.53 0 0zm-38.2.25q-.02 0-.05.15.03.15.05.16c.03-.02.04-.29 0-.31zm-.35.72c-1.08.5.84.64 0 0zm-2.72 1.3a.5.5 0 0 1-.6.13z" style="fill:#000;stroke-width:.2;stroke:#000;stroke-opacity:1;stroke-dasharray:none;fill-opacity:.98196721"/></svg>