<?xml version="1.0" encoding="UTF-8" standalone="no"?>
<!-- Created with Inkscape (http://www.inkscape.org/) -->

<svg
   width="153.02699mm"
   height="230mm"
   viewBox="0 0 153.02699 230.00001"
   version="1.1"
   id="svg1"
   xml:space="preserve"
   sodipodi:docname="ghost.svg"
   inkscape:version="1.4.4 (dcaf3e7, 2026-05-05)"
   xmlns:inkscape="http://www.inkscape.org/namespaces/inkscape"
   xmlns:sodipodi="http://sodipodi.sourceforge.net/DTD/sodipodi-0.dtd"
   xmlns="http://www.w3.org/2000/svg"
   xmlns:svg="http://www.w3.org/2000/svg"><sodipodi:namedview
     id="namedview1"
     pagecolor="#ffffff"
     bordercolor="#000000"
     borderopacity="0.25"
     inkscape:showpageshadow="2"
     inkscape:pageopacity="0.0"
     inkscape:pagecheckerboard="0"
     inkscape:deskcolor="#d1d1d1"
     inkscape:document-units="mm"
     inkscape:zoom="2.6973306"
     inkscape:cx="270.45258"
     inkscape:cy="563.70548"
     inkscape:window-width="1920"
     inkscape:window-height="1009"
     inkscape:window-x="2552"
     inkscape:window-y="143"
     inkscape:window-maximized="1"
     inkscape:current-layer="svg1" /><defs
     id="defs1" /><path
     style="fill:#000000;stroke:#000000;stroke-width:1.114;stroke-dasharray:none;stroke-opacity:1"
     d="m 77.654436,226.06506 c 5.078867,-9.12133 -12.039957,-7.26065 -11.127824,-15.5562 -0.456767,-7.04677 11.341959,-7.75583 9.693726,-14.40034 -2.17061,-4.46482 -3.869779,-0.97161 -3.191532,2.02821 -2.661421,1.64872 1.391821,-3.71076 -2.766579,-4.20307 -3.457106,-2.68264 -5.587671,0.69741 -4.936113,2.47967 -9.014653,-0.72268 -4.455143,-13.18717 -10.055393,-18.00045 -5.253938,-3.50574 3.114494,10.8715 -1.857481,6.70117 -5.103411,-5.11174 -3.068222,-13.5187 2.532146,-17.33087 -1.591514,-3.84264 -1.309219,-7.96652 2.782952,-10.81528 2.528799,-1.62993 6.311891,-8.90291 3.029279,-9.03438 -4.414681,1.12789 3.341787,-13.83422 -2.149523,-8.01294 -2.466379,4.07794 -3.158684,13.12621 -6.483414,14.20977 -0.78557,-5.99041 -4.070282,11.18183 -6.629116,2.55246 -7.556303,2.834 -0.677232,11.24222 -2.708927,16.10391 -2.43343,2.81772 -1.543826,-4.4803 -3.79821,-5.76714 -1.856327,-3.11942 -3.967377,-12.93284 -6.084549,-5.52462 -1.820368,-4.86272 2.711247,-10.67034 0.712711,-16.08538 1.14445,-2.62281 -1.889496,3.30505 -3.802163,9.42748 -1.861724,2.536 1.344899,11.63258 -2.557983,10.13005 -2.178699,-3.54566 1.538955,-10.65303 -1.440941,-12.21868 -2.178458,2.94813 -0.711788,8.71704 -3.315761,9.84687 -1.085132,6.68106 -3.742841,-5.40898 -1.760254,-7.69516 1.999218,-5.7897 7.407402,-23.7017 11.69475,-27.85958 6.4702,-2.89557 12.568251,8.66321 18.848336,2.09432 5.478801,-3.06878 -3.855744,-12.92118 -4.965378,-5.83194 -3.223845,4.61664 -2.611597,-7.8614 2.141133,-7.25619 2.394056,-1.1545 10.250563,-0.38448 6.603761,-4.24658 -2.313454,3.38376 1.778646,-4.78053 2.025669,-6.60249 2.057491,-5.833278 1.443603,-17.397708 11.042182,-14.537439 7.130856,2.485284 5.915281,12.401969 13.988273,14.183849 1.939451,4.87428 10.618932,-0.29895 9.890859,-4.92606 -3.718383,-6.828423 6.367887,0.53616 5.066491,4.26557 2.737567,5.31444 -7.621599,5.87734 -2.520386,10.82761 3.879794,3.4971 12.295203,-4.79917 11.209053,1.82962 -5.14871,-4.09451 -4.53309,5.27887 -5.51211,5.88355 -7.694533,1.48426 0.60425,7.82911 4.04852,2.62168 5.39898,-1.17418 5.06078,7.49414 11.16987,6.88657 4.09428,0.94928 6.44872,5.51431 1.04294,3.49856 -4.18149,7.33231 9.17609,3.12192 8.63915,10.16419 -2.44668,3.47911 2.3421,8.29049 0.78425,12.85185 -0.61596,3.91722 -2.05137,10.18722 -6.56679,10.58297 0.3846,-2.83559 3.80052,-10.74436 -2.20006,-6.56211 -7.02215,5.99119 0.0923,14.65154 -1.13719,21.81554 0.19636,3.52479 -5.06163,10.95023 -7.24449,7.62205 1.82869,-3.8743 7.3228,-11.60731 1.43323,-13.86935 -1.31783,2.4197 -2.09132,7.50506 -3.50964,1.85513 -0.0496,-4.86894 3.44203,-10.21013 -0.69615,-14.15333 1.0307,-2.54833 3.15426,-10.95798 0.1346,-4.06023 -1.00792,-0.58363 0.65423,-4.44855 -1.387,-0.70609 -3.63074,5.36475 0.84853,-4.88373 -0.95848,-7.06865 -1.10945,-5.67369 -4.07706,-0.66525 -2.56363,2.5531 0.21022,2.61462 -0.98895,12.84388 -3.571277,10.07592 -0.484627,-5.07952 2.438867,-9.21422 -3.783786,-2.43628 -3.328012,-7.10841 1.839827,-0.0495 -2.90049,-7.20084 -1.244543,-3.77135 1.840579,-13.24659 -1.075135,-13.30024 0.04802,4.61333 -5.483193,3.38623 -4.34858,2.86237 2.08076,3.88016 -1.221163,14.033 -3.821342,12.28194 2.676484,-5.53806 -3.557171,-4.64121 -3.92053,-0.0739 -0.0551,5.65953 -2.692054,11.93586 -1.87942,16.90663 4.148227,3.38619 7.266401,-1.70302 6.182923,-5.3304 1.390211,-4.0507 11.70349,-2.69321 4.506353,-0.67644 -1.489237,3.76555 3.040803,6.31341 -0.714918,8.83386 5.206856,2.55992 8.768551,7.46565 6.392849,13.5616 -0.510131,3.45787 -6.550373,9.40598 -3.396491,2.59208 2.691004,-3.8069 -3.457307,-11.76084 -5.1568,-5.74925 2.236564,5.68664 3.946824,12.40515 -1.366882,17.10059 -3.370423,4.39159 -4.930098,1.59647 -4.332855,-1.54027 -5.60301,0.15789 -5.326819,10.8675 0.626128,8.9511 1.379143,3.40325 3.900669,12.1932 -2.026561,12.45035 z m 2.000188,-1.22249 c 2.255702,-2.60634 -0.03781,-9.89842 -1.063308,-10.31698 -6.193054,2.59008 -3.968908,-8.80628 -3.730074,-8.0094 -1.217511,2.67046 -3.882927,4.76653 -1.443272,0.87055 2.235189,-1.89831 9.845914,-7.73133 8.99757,-6.64324 -2.801247,2.44031 -2.290622,9.28854 1.62474,3.83405 4.716748,-4.87837 1.48475,-11.89857 -1.013336,-16.39902 2.503647,-2.24185 6.346115,-2.88778 0.862909,-3.44097 -8.186823,-2.11799 3.605523,-2.03482 4.601212,1.81347 2.473736,2.13199 3.020491,12.01066 4.557989,4.4735 2.481425,-5.93123 -4.536304,-10.83302 -7.586585,-11.18833 1.465009,-2.66435 3.501842,-4.66179 0.532573,-6.42248 -0.71411,-3.03889 5.952922,-7.45395 -0.08266,-4.57706 -1.960961,3.57995 -3.941075,13.85034 -9.223836,6.88637 -0.935814,-1.8754 -2.482729,-6.6232 -3.546983,-2.05398 0.690689,-4.91997 8.414533,-9.28332 3.854808,-14.60585 0.705815,-2.5377 3.8498,-5.77634 3.508256,-4.52508 3.570439,-3.58895 3.480984,7.89939 5.04759,1.24308 1.003527,-2.48508 1.25792,-11.01998 -0.850865,-9.69911 -4.302634,6.5242 1.265246,-3.78639 1.576156,-6.07579 1.112956,-4.35484 -1.706038,-4.61475 -0.748799,-9.30532 -2.852999,-0.46544 -4.149574,9.60936 -2.621877,2.41582 0.268498,-2.09493 1.152884,-11.70796 2.639831,-4.89273 1.681841,6.64318 0.568022,-5.60907 1.682644,0.41234 2.115089,5.46347 -3.049759,13.59516 1.19697,17.46134 3.158262,-2.74151 1.095594,-9.32025 4.519289,-10.9218 -2.098301,2.00068 -1.138043,12.56857 2.012751,8.57125 0.472718,-2.67995 5.703303,-10.56996 2.895028,-3.77839 -1.549051,4.31419 -8.133448,11.65317 -4.42137,14.93039 0.276995,-2.07417 0.204669,-1.05281 1.581926,2.37501 0.56622,1.40925 2.029542,18.95695 2.836456,12.10112 1.558931,-11.47407 0.115209,-7.84352 3.197073,-7.90635 1.5321,-3.7038 -3.084666,-12.38081 3.30551,-12.23019 0.72288,2.76561 1.67526,11.03803 2.80304,3.74793 -0.50754,-1.99355 -4.41399,-11.25636 -0.82078,-5.49923 1.64319,2.61983 1.06185,10.93595 1.85588,10.37502 2.30114,-6.12773 -3.32725,-11.6283 -3.1134,-16.90503 1.14187,-2.52821 -6.888622,-9.16449 -1.24764,-5.81079 1.83432,7.69093 9.92241,12.09869 11.59043,19.69808 0.0555,2.31411 1.91454,5.96432 1.98014,1.57523 5.14836,-5.57711 6.71772,7.34801 4.25138,10.56528 2.56604,1.78174 5.34356,-7.24217 4.88201,-10.37032 -1.52723,-4.38932 -1.89393,-9.53876 -1.92027,-12.84219 -2.64178,-3.45877 -12.88222,-2.20042 -8.04145,-8.45504 2.71255,-1.6783 4.18435,-0.30486 0.58664,-1.98909 -3.99552,-1.21426 -7.9335,-1.66719 -7.60132,-5.28586 -2.31389,-4.90785 -7.14325,-0.8449 -6.50182,0.91086 -7.855348,-2.7459 9.38447,9.10213 1.49292,4.40812 -1.98003,-3.16274 -7.853572,-4.35468 -9.126403,-5.09773 3.032073,-0.39954 -1.560339,-1.66532 1.635152,-1.94291 -2.184141,-1.1858 -7.834807,-6.86413 -2.354347,-2.93396 1.873456,0.11691 3.397661,-2.28905 5.718108,-0.81577 0.84875,-3.23997 0.30588,-8.56332 5.5712,-7.304 -4.73279,-2.59035 -7.326304,5.74802 -11.529117,0.16955 -4.24928,-4.47806 2.042548,-6.86471 3.388499,-9.74754 0.279656,-3.07254 -6.093594,-11.032243 -3.538806,-3.48484 -2.19166,4.1723 -4.88366,3.8655 -8.523754,5.82803 -3.805062,0.2545 -0.974352,-3.59341 -4.904645,-3.16172 -6.184264,-2.90635 -6.116831,-10.269017 -12.575625,-12.846006 -7.768652,-1.816357 -9.487366,11.711276 -7.557811,11.705146 1.89665,-4.483736 3.638725,4.1701 0.942512,5.20603 0.605334,6.02915 6.662003,12.0319 1.810717,18.05932 0.668327,-3.96272 1.786304,-10.89722 -1.548938,-13.17977 1.52419,2.82497 -2.199349,11.93847 -0.457467,4.22046 0.138713,-3.9871 -0.788753,-3.62703 -1.087156,-0.1238 -1.615627,3.38786 -5.049743,0.58893 -1.231282,-0.85794 2.46703,-2.47535 1.931069,-15.59651 -1.949776,-8.07741 0.522803,2.40755 2.519929,6.33065 -2.209491,6.96337 -4.018666,-0.47078 -10.006986,1.73132 -8.525594,6.57431 0.489934,-2.96119 7.680772,-4.82629 4.697612,-0.82464 0.901896,2.88487 7.965559,-0.40454 4.008595,3.87031 -1.965065,1.4245 -0.479961,4.74247 1.280371,1.87018 -1.26697,2.55279 -7.410981,4.0745 -5.781727,4.94143 0.32993,2.07577 4.199724,7.72222 0.518856,2.41897 -1.83185,-2.34211 -9.452263,-5.50961 -7.221802,-0.42649 -0.567168,-0.0301 -5.825441,-11.58684 -10.816779,-5.98268 -3.719569,5.56813 -12.501112,23.30614 -10.854786,31.10718 1.339704,-1.33165 3.40767,-11.8967 6.60926,-7.69229 -1.132192,2.36544 -0.110025,12.82911 0.728304,5.41359 -0.648602,-4.99564 7.606779,-24.2311 7.940042,-16.36798 -0.128775,7.01498 2.629376,-3.03257 0.840917,-5.43845 0.08908,-6.09143 5.423834,4.0725 3.891714,6.54092 -0.01589,2.52789 -1.600668,12.86907 1.376931,5.74134 1.309677,-2.05866 0.137249,-9.88178 2.957962,-4.16301 2.558893,6.33574 -1.17487,-7.8951 1.319136,-0.58677 0.910758,1.91133 1.052991,12.26589 -0.08901,4.94237 -0.700786,-5.09594 -4.461038,-3.89195 -1.423768,0.21407 1.201846,2.31378 1.108826,14.04639 3.958039,7.08653 1.35108,-3.04674 3.150009,-12.07615 4.086495,-11.33814 -1.175215,1.92552 -1.615171,11.89843 0.496051,5.65774 2.906175,-4.92705 3.552261,-12.73036 5.483014,-16.43118 1.629311,2.60601 -3.371866,5.08797 0.466979,3.11091 0.560867,-2.97194 1.922613,-6.79617 1.367381,-1.52847 -0.18756,5.49552 2.573456,0.66541 2.180538,0.79962 0.296111,3.0457 -5.896746,11.12509 -2.128124,10.68077 2.352374,-1.20042 1.426011,5.80687 0.423628,7.25139 -1.373075,3.42941 -11.070609,9.40869 -4.622525,11.06489 -0.451854,2.3187 -1.22272,11.30208 -1.053859,4.61616 -5.593826,1.05729 -8.436501,10.32838 -3.766002,14.42431 1.756624,1.18736 -3.831593,-7.76413 1.867809,-7.40573 -0.03279,1.74186 3.694668,8.60109 3.355821,3.69196 1.090829,2.57019 4.197773,6.33789 0.766675,7.06579 -1.395518,3.82152 4.026576,11.83185 6.580341,5.39821 5.243107,-0.0716 13.140966,0.53164 11.566145,7.36275 0.675681,-3.03326 2.266291,-5.38502 1.117907,-0.80771 -2.671465,5.0715 -12.089724,4.95354 -11.336406,12.20894 -0.02949,3.16822 3.896794,6.21579 1.944967,0.9414 0.864494,-1.96182 1.278839,5.7974 4.571361,4.63814 3.088267,1.43976 7.035321,4.30629 5.851882,8.26166 z m 3.010655,-30.06148 c -0.534527,-2.09762 -6.118406,-7.49529 -1.131788,-3.40951 0.751912,0.92129 1.671937,2.14594 1.131788,3.40951 z m -14.95307,-3.18385 c -4.103802,-0.87457 -3.346743,-3.0972 0.176881,-0.80351 0.915842,-0.0952 2.193124,2.19082 -0.176881,0.80351 z m 7.056315,-3.12613 c -3.725965,1.30494 -5.701187,-8.20502 -2.132595,-2.40252 0.145192,0.82522 4.751676,2.68823 2.132595,2.40252 z m -5.543679,-2.71479 c -6.949847,-1.56991 -3.799775,-14.40847 -3.115252,-14.80253 -1.063126,2.37018 -0.434445,8.65805 0.971497,7.22788 0.620185,2.54995 1.369916,5.06775 2.143755,7.57465 z m -1.253988,-1.78471 c 0.430675,-3.28322 -4.210245,-5.14183 -1.667004,-0.97513 -0.300207,-0.33345 2.144071,2.28278 1.667004,0.97513 z m -4.701672,-1.3291 c -5.438466,0.029 -2.480191,-15.41595 -1.363804,-5.23037 0.466208,1.70819 1.602206,3.40089 1.363804,5.23037 z m -1.41773,-2.41497 c 0.263511,-5.96744 -3.199457,-3.44283 0,0 z m 11.673141,1.31056 c -4.076639,0.48809 -2.295529,-9.84235 -1.805402,-2.9884 1.68506,-3.29831 1.772894,2.21009 1.805402,2.9884 z m -12.92239,-14.022 c -2.79032,-3.76194 3.726169,-10.77151 5.023177,-10.28929 -1.734263,3.36323 -1.04931,8.42859 -5.023177,10.28929 z m 1.143324,-1.39133 c 2.841924,-1.88247 1.363388,-9.82879 -0.542207,-3.21975 -0.267396,0.88074 -1.402639,3.48314 0.542207,3.21975 z m 6.654086,0.22408 c 1.963265,-4.59263 6.519186,-15.91325 10.061456,-14.2884 -0.630212,2.22431 -3.834352,7.48804 -2.005524,2.11658 -4.476458,0.19613 -4.171476,8.27486 -3.25,6.45109 -2.189621,1.34861 -3.262505,3.77408 -4.805932,5.72073 z m 5.037222,-12.18363 c 0.627907,-2.7485 4.052249,-3.82157 1.021535,-0.75517 0.178968,-0.35884 -1.582473,2.41107 -1.021535,0.75517 z m 42.291332,-3.73927 c 0.28113,-2.69628 -5.641,-8.14219 -0.45828,-6.49489 -0.88401,-1.39636 -8.37722,-5.04934 -5.48792,-5.19438 2.3001,2.48437 10.54461,6.65417 9.41862,7.54781 -5.76368,-4.91484 -3.43263,6.77277 -3.47242,4.14146 z m -47.811925,-0.17358 c -4.425001,-4.17909 4.457781,-12.13499 3.638848,-6.45346 -0.855877,2.10498 -1.608791,5.46181 -3.638848,6.45346 z m 0.08531,-1.09458 c 3.504794,-1.00096 1.796907,-10.11763 0.141263,-3.40396 -0.397827,0.98084 -1.387591,2.61746 -0.141263,3.40396 z m -4.010298,-3.8808 c -1.036098,-3.93869 3.23518,-3.98958 0,0 z m 15.904568,-0.16066 c 0.905099,-3.45773 4.238582,-4.66892 0.916904,-0.70605 l -0.401691,0.42777 z m 23.356655,-1.60484 c -1.49224,-2.15344 -0.5376,-7.30258 -0.19791,-2.06859 -0.35029,0.0414 1.39502,2.34455 0.19791,2.06859 z m -30.474242,-0.71318 c 2.470941,-8.75211 3.032486,-18.0406 1.689962,-27.00957 2.797,5.7853 4.448523,14.78694 0.76823,21.21509 -1.394519,1.67118 -0.974979,4.14819 -2.458192,5.79448 z m 2.790389,-8.95532 c 3.845742,-1.61577 -0.353968,-12.96673 -0.168935,-4.93007 -0.0031,1.64534 0.161839,3.28498 0.168935,4.93007 z M 36.39646,131.16035 c -1.150997,-2.51244 -1.714614,1.08761 -5.361774,3.72192 1.47888,-1.76929 2.197121,-4.84253 5.361774,-3.72192 z m 29.415783,1.783 c 1.429601,-2.19993 -0.474075,-11.10305 0.860168,-9.02943 0.474765,3.00033 0.61404,6.26405 -0.860168,9.02943 z m 8.061113,-3.95523 c -0.466958,-2.30316 -0.116856,-8.73033 0.357588,-2.79346 -0.0406,0.93035 0.238803,1.97052 -0.357588,2.79346 z m 6.928531,-3.98561 c 2.139476,-4.10843 -6.732351,-13.21214 0.819335,-13.40569 1.997318,2.68205 -3.202565,5.77765 -0.319481,9.19365 0.174302,0.58356 -0.337928,7.8691 -0.499854,4.21204 z m -0.461932,-7.97715 c 0.709364,-2.7344 -2.081562,-7.89293 -1.168872,-2.39834 0.30167,0.747 0.221812,2.09203 1.168872,2.39834 z m -11.408913,7.52973 c -1.49628,-4.64945 -6.892648,-12.543 -3.716619,-15.75068 5.159994,3.0503 5.504089,10.78781 4.22761,15.71325 z m 14.654569,-1.26531 c -1.394896,-2.54175 1.711266,-7.56593 0.278446,-2.18598 -0.261098,0.41795 0.74108,2.05175 -0.278446,2.18598 z m 9.457003,-2.40942 c 0.261734,-3.47365 -8.670617,-7.00256 -2.790867,-9.13692 -2.850668,-0.61821 -10.352617,-4.5455 -3.228095,-2.05885 2.386228,-0.72946 3.952347,-1.73801 3.074057,0.87311 2.556852,2.04266 0.582628,3.34212 -0.186821,3.55819 1.368953,3.10049 6.817392,5.23953 3.579145,6.2356 0.61544,0.33773 0.966215,1.90192 -0.447419,0.52887 z m -14.840959,-2.73192 c -1.396151,-2.49658 -0.758496,-7.14405 -0.02689,-1.90855 0.160889,0.59343 0.624507,1.36783 0.02689,1.90855 z m -6.770043,-1.57009 c -0.784332,-3.03522 -3.179124,-11.26539 -0.464157,-3.74381 0.401089,1.18215 0.962851,2.4822 0.464157,3.74381 z m -7.849637,-2.9246 c -2.086635,-4.73184 0.0037,-2.69553 0,0 z m 10.594372,-1.9859 c -0.699226,-2.16843 -3.708114,-10.38939 -1.701469,-8.69868 0.97356,2.80754 1.197403,5.78954 1.701469,8.69868 z m 4.231676,-2.57763 c -2.331484,-1.91212 -5.136224,-10.76201 -1.386593,-4.0339 3.21009,2.91138 1.414613,2.42109 0.901695,2.29303 -0.105781,-0.13912 2.017192,2.96394 0.484898,1.74087 z m -10.406464,-2.50521 c -5.015672,-1.55837 -0.55236,-10.421268 2.093001,-3.61928 2.286061,3.7134 -4.817501,2.56567 -2.205944,3.04463 0.461242,-0.36845 0.685651,1.15997 0.112943,0.57465 z m 43.070031,86.11703 c 6.36979,-3.68714 7.34046,-13.38524 3.03752,-18.91977 -1.01582,-2.15227 -1.04443,-5.70869 0.16432,-5.07126 -0.64578,-5.63729 9.30813,-7.36564 6.08717,-12.39888 -3.83645,-2.87592 -3.98608,10.01219 -5.0438,2.25859 0.22561,-6.75222 -4.93705,-12.03685 -9.57224,-16.30643 0.6098,3.6623 2.67794,6.2522 2.80153,4.44068 1.76729,5.61097 0.99489,11.7857 -0.0774,17.78781 -0.10013,2.06475 -1.26692,4.79358 0.97175,2.69403 2.56229,4.43107 -2.64921,10.13876 -0.17365,13.79444 0.81374,-8.44977 9.4434,1.47063 4.378,3.60407 -0.92542,2.6771 -2.10052,5.31053 -2.57325,8.11672 z m 1.16134,-24.81189 c -2.23241,-2.81605 3.36685,-10.56653 0.91689,-3.40708 -0.0604,1.16222 0.0409,2.52818 -0.91689,3.40708 z m -68.705749,4.54557 c 0.251296,-5.44716 -4.557646,-16.06435 3.188027,-17.07117 2.494355,-3.35855 -3.177944,-12.30024 -3.954856,-4.5067 -2.97087,6.93797 -0.9886,-3.44734 -1.017254,-5.80218 0.72405,-2.70678 -2.085973,-10.78673 -2.180267,-3.74932 -1.273642,5.87312 -5.768123,11.99102 -5.485971,17.60197 3.200137,-5.2582 5.050792,5.81605 6.591307,8.44273 0.545904,1.94817 2.613076,3.06817 2.859014,5.08467 z m 56.571039,-5.97301 c 2.30281,-4.94265 -2.288005,-1.43261 -0.398705,1.34507 l 0.164518,-0.15444 z m 5.19787,-4.83475 c 2.24024,-2.21042 -0.0526,-5.08583 -0.0183,-0.94415 -0.12464,-0.34791 -0.78008,3.44012 0.0183,0.94415 z M 35.206693,146.19877 c 4.348753,-1.34253 -0.916827,-12.00789 0.11724,-3.76896 -0.08136,1.03672 -1.84032,3.31017 -0.11724,3.76896 z m -10.54772,11.43319 c 0.456951,-3.11321 3.072048,-7.72781 -0.0063,-2.42782 -0.139614,0.39893 -1.222488,5.64613 0.0063,2.42782 z m 60.956599,50.69534 c 1.505303,-2.69726 7.085616,-10.97553 4.970678,-3.2321 -0.568401,2.17783 -2.728025,3.6967 -4.970678,3.2321 z m 2.062304,-1.01952 c 3.554746,0.15867 1.587873,-6.83848 0.86334,-1.54796 -0.311135,0.40369 -3.305092,2.80947 -0.86334,1.54796 z m 16.720994,-32.20781 c 1.26579,-4.95202 5.40838,-1.45301 0.49386,-0.0713 l -0.34304,0.0495 z M 47.956899,167.0629 c -2.935138,-2.73078 3.294003,-8.02972 0.373123,-2.18318 -0.124917,0.45161 0.902018,2.47784 -0.373123,2.18318 z M 88.41414,155.19498 c -3.231799,-1.86801 2.723788,-7.71976 0.392869,-2.31153 -0.267435,0.47185 1.018063,3.68513 -0.392869,2.31153 z M 84.780559,98.852799 c -1.117924,-4.135086 2.485102,-0.184788 2e-6,2.79e-4 z m 1.49673,-0.538395 c 2.108934,-2.774301 4.748853,0.239313 0,0 z M 67.989058,95.703801 c -0.261098,0.41795 0.74108,2.05175 -0.278446,2.18598 z m -3.439583,2.116667 c -0.261098,0.41795 0.74108,2.05175 -0.278446,2.185982 z m -36.5125,46.302082 c -0.261098,0.41795 0.74108,2.05175 -0.278446,2.18598 z m 3.439583,-6.08542 c -0.261098,0.41795 0.74108,2.05175 -0.278446,2.18598 z m 48.683333,-2.64583 c -0.261098,0.41795 0.74108,2.05175 -0.278446,2.18598 z m -10.054166,18.52083 c -0.261098,0.41795 0.74108,2.05175 -0.278446,2.18598 z M 52.378641,138.30172 c -0.261098,0.41795 0.74108,2.05175 -0.278446,2.18598 z m 40.216667,-7.14375 c -0.261098,0.41795 0.74108,2.05175 -0.278446,2.18598 z m 7.14375,2.64583 c -0.261098,0.41795 0.741082,2.05175 -0.278446,2.18598 z m -29.897917,34.39583 c -0.261098,0.41795 0.74108,2.05175 -0.278446,2.18598 z"
     id="path1"
     sodipodi:nodetypes="sccccccccccccccccccccccccccccccccccccccccccccccccccccccccccccccccccccsssccccccccccccccccccccccccccccsccccccccccccccccccccccccccccccccccccccccccccccccccccccccccccccccccccccccccccccssccccccccccccccccccccccccccccccccccccccccccccccccccccccccccccccccccccccccccccccccccccccccccccccccccccccccccccccccccscccccccccccsccccccccccccccccccccccccccccccccccccccccccccccccccc" /></svg>
