<svg xmlns="http://www.w3.org/2000/svg" xml:space="preserve" width="578.37" height="230mm" viewBox="0 0 153.03 230"><path d="M77.65 226.07c5.08-9.13-12.04-7.27-11.12-15.56-.46-7.05 11.34-7.76 9.69-14.4-2.17-4.47-3.87-.97-3.2 2.03-2.65 1.65 1.4-3.71-2.76-4.2-3.45-2.69-5.59.7-4.93 2.47-9.02-.72-4.46-13.18-10.06-18-5.25-3.5 3.12 10.87-1.86 6.7-5.1-5.1-3.06-13.51 2.54-17.33-1.6-3.84-1.31-7.96 2.78-10.81 2.53-1.63 6.31-8.9 3.03-9.04-4.42 1.13 3.34-13.83-2.15-8-2.47 4.07-3.16 13.12-6.49 14.2-.78-5.99-4.07 11.18-6.62 2.55-7.56 2.84-.68 11.25-2.71 16.1-2.44 2.82-1.55-4.47-3.8-5.76-1.86-3.12-3.97-12.93-6.09-5.53-1.82-4.86 2.72-10.67.72-16.08 1.14-2.62-1.9 3.3-3.8 9.43-1.87 2.53 1.34 11.63-2.56 10.13-2.18-3.55 1.54-10.66-1.44-12.22-2.18 2.95-.72 8.72-3.32 9.85-1.09 6.68-3.74-5.41-1.76-7.7 2-5.79 7.4-23.7 11.7-27.86 6.46-2.9 12.56 8.66 18.84 2.1 5.48-3.07-3.85-12.93-4.96-5.84-3.23 4.62-2.61-7.86 2.14-7.25 2.4-1.16 10.25-.39 6.6-4.25-2.31 3.38 1.78-4.78 2.03-6.6 2.06-5.84 1.44-17.4 11.04-14.54 7.13 2.49 5.92 12.4 13.99 14.18 1.94 4.88 10.62-.3 9.89-4.92-3.72-6.83 6.37.53 5.07 4.26 2.73 5.32-7.63 5.88-2.52 10.83 3.87 3.5 12.29-4.8 11.2 1.83-5.14-4.1-4.53 5.28-5.5 5.88-7.7 1.49.6 7.83 4.04 2.63 5.4-1.18 5.06 7.49 11.17 6.88 4.1.95 6.45 5.52 1.04 3.5-4.18 7.33 9.18 3.12 8.64 10.17-2.44 3.47 2.34 8.29.79 12.85-.62 3.91-2.05 10.18-6.57 10.58.38-2.84 3.8-10.74-2.2-6.56-7.02 5.99.1 14.65-1.14 21.81.2 3.53-5.06 10.95-7.24 7.63 1.83-3.88 7.32-11.61 1.43-13.87-1.32 2.42-2.09 7.5-3.5 1.85-.06-4.87 3.43-10.2-.7-14.15 1.03-2.55 3.15-10.96.13-4.06-1-.59.65-4.45-1.39-.7-3.63 5.36.85-4.9-.96-7.08-1.1-5.67-4.07-.66-2.56 2.56.21 2.61-.99 12.84-3.57 10.07-.48-5.08 2.44-9.21-3.78-2.43-3.33-7.11 1.84-.05-2.9-7.2-1.25-3.78 1.84-13.25-1.08-13.3.05 4.6-5.48 3.38-4.35 2.86 2.08 3.88-1.22 14.03-3.82 12.28 2.68-5.54-3.56-4.64-3.92-.07-.05 5.65-2.7 11.93-1.88 16.9 4.15 3.39 7.27-1.7 6.18-5.33 1.4-4.05 11.7-2.7 4.51-.67-1.49 3.76 3.04 6.3-.71 8.83 5.2 2.56 8.76 7.46 6.39 13.56-.51 3.46-6.55 9.4-3.4 2.6 2.7-3.81-3.46-11.77-5.16-5.76 2.24 5.69 3.95 12.4-1.36 17.1-3.37 4.4-4.93 1.6-4.34-1.54-5.6.16-5.32 10.87.63 8.95 1.38 3.4 3.9 12.2-2.03 12.46zm2-1.23c2.26-2.6-.03-9.9-1.06-10.31-6.2 2.59-3.97-8.81-3.73-8.01-1.22 2.67-3.88 4.76-1.44.87 2.23-1.9 9.84-7.73 9-6.65-2.8 2.44-2.3 9.3 1.62 3.84 4.72-4.88 1.49-11.9-1.01-16.4 2.5-2.24 6.34-2.89.86-3.44-8.19-2.12 3.6-2.04 4.6 1.81 2.47 2.13 3.02 12.01 4.56 4.47 2.48-5.93-4.54-10.83-7.59-11.18 1.47-2.67 3.5-4.67.54-6.43-.72-3.04 5.95-7.45-.09-4.57-1.96 3.58-3.94 13.85-9.22 6.88-.94-1.87-2.48-6.62-3.55-2.05.7-4.92 8.42-9.28 3.86-14.6.7-2.54 3.85-5.78 3.5-4.53 3.58-3.6 3.49 7.9 5.05 1.24 1-2.48 1.26-11.02-.85-9.7-4.3 6.53 1.27-3.78 1.58-6.07 1.11-4.36-1.7-4.62-.75-9.3-2.85-.47-4.15 9.6-2.62 2.4.27-2.09 1.15-11.7 2.64-4.89 1.68 6.65.56-5.6 1.68.42 2.11 5.46-3.05 13.6 1.2 17.46 3.15-2.74 1.1-9.32 4.52-10.92-2.1 2-1.14 12.56 2 8.57.48-2.68 5.71-10.57 2.9-3.78-1.55 4.31-8.13 11.65-4.42 14.93.28-2.07.2-1.05 1.58 2.37.57 1.41 2.03 18.96 2.84 12.1 1.56-11.47.12-7.84 3.2-7.9 1.53-3.7-3.09-12.38 3.3-12.23.73 2.76 1.68 11.04 2.8 3.75-.5-2-4.4-11.26-.81-5.5 1.64 2.62 1.06 10.93 1.85 10.37 2.3-6.13-3.33-11.63-3.11-16.9 1.14-2.53-6.9-9.17-1.25-5.81 1.83 7.69 9.92 12.1 11.59 19.7.06 2.3 1.92 5.96 1.98 1.57 5.15-5.58 6.72 7.35 4.25 10.57 2.57 1.78 5.35-7.25 4.88-10.38-1.52-4.38-1.89-9.53-1.92-12.84-2.64-3.46-12.88-2.2-8.04-8.45 2.71-1.68 4.19-.3.59-2-4-1.2-7.93-1.66-7.6-5.28-2.32-4.9-7.15-.84-6.5.91-7.86-2.74 9.38 9.1 1.49 4.41-1.98-3.16-7.85-4.35-9.13-5.1 3.03-.4-1.56-1.66 1.64-1.94-2.19-1.18-7.84-6.86-2.36-2.93 1.88.11 3.4-2.3 5.72-.82.85-3.24.3-8.56 5.57-7.3-4.73-2.6-7.32 5.75-11.53.17-4.25-4.48 2.05-6.87 3.4-9.75.27-3.07-6.1-11.03-3.55-3.49-2.19 4.18-4.88 3.87-8.52 5.83-3.8.26-.98-3.6-4.9-3.16-6.19-2.9-6.12-10.27-12.58-12.85-7.77-1.81-9.49 11.72-7.56 11.71 1.9-4.48 3.64 4.17.94 5.2.6 6.04 6.67 12.04 1.81 18.07.67-3.97 1.8-10.9-1.54-13.18 1.52 2.82-2.2 11.93-.46 4.22.14-4-.8-3.63-1.09-.13-1.61 3.39-5.05.6-1.23-.86 2.47-2.47 1.93-15.6-1.95-8.07.52 2.4 2.52 6.33-2.21 6.96-4.02-.47-10 1.73-8.53 6.57.5-2.96 7.69-4.82 4.7-.82.9 2.88 7.97-.4 4.01 3.87-1.96 1.42-.48 4.74 1.28 1.87-1.27 2.55-7.41 4.07-5.78 4.94.33 2.08 4.2 7.72.52 2.42-1.83-2.34-9.45-5.5-7.22-.43-.57-.03-5.83-11.58-10.82-5.98-3.72 5.57-12.5 23.3-10.85 31.1 1.33-1.32 3.4-11.89 6.6-7.68-1.13 2.36-.1 12.83.73 5.41-.65-5 7.6-24.23 7.94-16.37-.13 7.02 2.63-3.03.84-5.44.1-6.09 5.43 4.08 3.9 6.54-.02 2.53-1.6 12.87 1.37 5.75 1.31-2.06.14-9.89 2.96-4.17 2.56 6.34-1.17-7.9 1.32-.58.91 1.9 1.05 12.26-.09 4.94-.7-5.1-4.46-3.9-1.42.21 1.2 2.32 1.1 14.05 3.95 7.09 1.36-3.05 3.15-12.08 4.1-11.34-1.18 1.93-1.62 11.9.49 5.66 2.9-4.93 3.55-12.73 5.48-16.43 1.63 2.6-3.37 5.09.47 3.1.56-2.96 1.92-6.79 1.36-1.52-.18 5.5 2.58.67 2.19.8.3 3.05-5.9 11.12-2.13 10.68 2.35-1.2 1.42 5.8.42 7.25-1.37 3.43-11.07 9.41-4.62 11.07-.45 2.32-1.22 11.3-1.06 4.61-5.59 1.06-8.43 10.33-3.76 14.43 1.75 1.18-3.83-7.77 1.87-7.4-.04 1.73 3.7 8.6 3.35 3.68 1.1 2.57 4.2 6.34.77 7.07-1.4 3.82 4.02 11.83 6.58 5.4 5.24-.07 13.14.53 11.56 7.36.68-3.03 2.27-5.38 1.12-.8-2.67 5.06-12.09 4.95-11.33 12.2-.03 3.17 3.9 6.22 1.94.94.87-1.96 1.28 5.8 4.57 4.64 3.1 1.44 7.04 4.3 5.85 8.26zm3.02-30.06c-.54-2.1-6.12-7.5-1.14-3.4.76.91 1.68 2.14 1.14 3.4zM67.7 191.6c-4.1-.88-3.34-3.1.18-.8.91-.1 2.2 2.18-.18.8zm7.06-3.13c-3.73 1.3-5.7-8.2-2.13-2.4.14.82 4.75 2.69 2.13 2.4zm-5.55-2.71c-6.95-1.57-3.8-14.41-3.11-14.8-1.06 2.36-.43 8.65.97 7.22.62 2.55 1.37 5.07 2.14 7.58zm-1.25-1.79c.43-3.28-4.2-5.14-1.67-.97-.3-.34 2.15 2.28 1.67.97zm-4.7-1.33c-5.44.03-2.48-15.41-1.36-5.23.46 1.71 1.6 3.4 1.36 5.23zm-1.42-2.41c.26-5.97-3.2-3.45 0 0zm11.67 1.3c-4.07.5-2.3-9.83-1.8-2.98 1.68-3.3 1.77 2.21 1.8 2.99zM60.6 167.53c-2.79-3.77 3.73-10.78 5.03-10.3-1.74 3.37-1.05 8.44-5.03 10.3zm1.15-1.4c2.84-1.88 1.36-9.82-.55-3.21-.26.88-1.4 3.48.55 3.21zm6.65.23c1.96-4.6 6.52-15.91 10.06-14.29-.63 2.22-3.83 7.49-2 2.12-4.48.2-4.18 8.27-3.25 6.45-2.2 1.35-3.27 3.77-4.81 5.72zm5.04-12.18c.62-2.75 4.05-3.83 1.02-.76.18-.36-1.58 2.41-1.02.76zm42.29-3.74c.28-2.7-5.64-8.15-.46-6.5-.88-1.4-8.38-5.05-5.49-5.2 2.3 2.5 10.55 6.66 9.42 7.55-5.76-4.91-3.43 6.78-3.47 4.15zm-47.81-.18c-4.43-4.18 4.45-12.13 3.64-6.45-.86 2.1-1.61 5.46-3.64 6.45zm.08-1.1c3.5-1 1.8-10.11.14-3.4-.4.98-1.38 2.62-.14 3.4zm-4-3.87c-1.04-3.94 3.23-4 0 0zm15.9-.16c.9-3.46 4.23-4.67.91-.71l-.4.43zm23.35-1.6c-1.49-2.16-.54-7.31-.2-2.08-.35.04 1.4 2.35.2 2.07zm-30.47-.72a65 65 0 0 0 1.69-27.01c2.8 5.78 4.45 14.79.77 21.21-1.4 1.68-.98 4.15-2.46 5.8zm2.79-8.96c3.84-1.61-.36-12.96-.17-4.93 0 1.65.16 3.29.17 4.93zm-39.17-2.68c-1.15-2.51-1.72 1.09-5.37 3.72 1.48-1.77 2.2-4.84 5.37-3.72zm29.41 1.78c1.43-2.2-.47-11.1.86-9.03.48 3 .62 6.27-.86 9.03zm8.06-3.95c-.46-2.3-.11-8.73.36-2.8-.04.94.24 1.98-.36 2.8zM80.8 125c2.14-4.1-6.73-13.21.82-13.4 2 2.68-3.2 5.77-.32 9.19.18.58-.34 7.87-.5 4.21zm-.46-7.97c.7-2.74-2.08-7.9-1.17-2.4.3.74.22 2.09 1.17 2.4zm-11.4 7.53c-1.5-4.65-6.9-12.55-3.73-15.76 5.16 3.05 5.5 10.8 4.23 15.72zm14.65-1.27c-1.4-2.54 1.7-7.57.27-2.19-.26.42.75 2.06-.27 2.19zm9.45-2.41c.26-3.47-8.67-7-2.79-9.14-2.85-.61-10.35-4.54-3.23-2.06 2.39-.72 3.96-1.73 3.08.88 2.55 2.04.58 3.34-.19 3.56 1.37 3.1 6.82 5.24 3.58 6.23.62.34.97 1.9-.45.53zm-14.84-2.73c-1.4-2.5-.76-7.15-.03-1.91.17.6.63 1.37.03 1.9zm-6.77-1.57c-.78-3.04-3.18-11.27-.46-3.75.4 1.19.96 2.49.46 3.75zm-7.85-2.93c-2.08-4.73 0-2.7 0 0zm10.6-1.98c-.7-2.17-3.71-10.4-1.7-8.7.97 2.8 1.2 5.79 1.7 8.7zm4.23-2.58c-2.33-1.91-5.14-10.76-1.39-4.03 3.21 2.9 1.42 2.42.9 2.29-.1-.14 2.02 2.96.49 1.74zm-10.4-2.5c-5.02-1.56-.56-10.43 2.08-3.62 2.3 3.7-4.81 2.56-2.2 3.04.46-.37.68 1.16.11.58zm43.06 86.11c6.37-3.69 7.34-13.38 3.04-18.92-1.02-2.15-1.05-5.7.16-5.07-.64-5.64 9.31-7.36 6.1-12.4-3.85-2.87-4 10.01-5.05 2.26.22-6.75-4.94-12.04-9.58-16.3.61 3.66 2.68 6.25 2.8 4.43 1.77 5.62 1 11.8-.07 17.8-.1 2.06-1.27 4.79.97 2.69 2.56 4.43-2.65 10.14-.17 13.8.81-8.46 9.44 1.46 4.37 3.6-.92 2.67-2.1 5.3-2.57 8.11zm1.16-24.81c-2.23-2.82 3.37-10.57.92-3.4-.06 1.16.04 2.52-.92 3.4zm-68.7 4.55c.25-5.45-4.56-16.07 3.19-17.08 2.49-3.35-3.18-12.3-3.96-4.5-2.97 6.94-.99-3.45-1.02-5.8.73-2.71-2.08-10.8-2.18-3.75-1.27 5.87-5.77 11.99-5.48 17.6 3.2-5.26 5.05 5.81 6.59 8.44.54 1.95 2.61 3.07 2.86 5.09zm56.57-5.98c2.3-4.94-2.29-1.43-.4 1.35l.16-.16zm5.2-4.83c2.24-2.21-.06-5.09-.02-.95-.13-.34-.78 3.44.02.95zM35.2 146.2c4.36-1.34-.91-12 .12-3.77-.08 1.04-1.84 3.31-.11 3.77zm-10.54 11.43c.46-3.11 3.07-7.73 0-2.43-.15.4-1.23 5.65 0 2.43zm60.96 50.7c1.5-2.7 7.08-10.98 4.97-3.23a4.33 4.33 0 0 1-4.97 3.23zm2.06-1.02c3.55.16 1.59-6.84.86-1.55-.31.4-3.3 2.8-.86 1.55zm16.72-32.21c1.26-4.95 5.4-1.45.5-.07l-.35.05zm-56.44-8.04c-2.94-2.73 3.3-8.03.37-2.18-.12.45.9 2.48-.37 2.18zM88.4 155.2c-3.23-1.86 2.73-7.71.4-2.3-.27.47 1.02 3.68-.4 2.3zm-3.63-56.34c-1.12-4.13 2.49-.18 0 0zm1.5-.54c2.1-2.77 4.75.24 0 0zm-18.3-2.6c-.25.41.75 2.05-.27 2.18zm-3.43 2.11c-.26.42.74 2.05-.28 2.19zm-36.51 46.3c-.26.42.74 2.05-.28 2.19zm3.44-6.08c-.26.42.74 2.05-.28 2.18zm48.68-2.65c-.26.42.74 2.05-.28 2.19zm-10.05 18.52c-.27.42.74 2.05-.28 2.19zm-17.73-15.6c-.26.41.74 2.04-.28 2.18zm40.22-7.15c-.27.42.74 2.05-.28 2.18zm7.14 2.64c-.26.42.74 2.06-.28 2.19zm-29.9 34.4c-.26.42.74 2.05-.28 2.19z" style="fill:#000;stroke:#000;stroke-width:1.114;stroke-dasharray:none;stroke-opacity:1"/></svg>