<?xml version="1.0" encoding="UTF-8" standalone="no"?>
<svg
   xml:space="preserve"
   width="481.39"
   height="703.56"
   viewBox="0 0 127.37 186.15"
   version="1.1"
   id="svg1"
   sodipodi:docname="goblin_priest.svg"
   inkscape:version="1.4.4 (dcaf3e7, 2026-05-05)"
   xmlns:inkscape="http://www.inkscape.org/namespaces/inkscape"
   xmlns:sodipodi="http://sodipodi.sourceforge.net/DTD/sodipodi-0.dtd"
   xmlns:xlink="http://www.w3.org/1999/xlink"
   xmlns="http://www.w3.org/2000/svg"
   xmlns:svg="http://www.w3.org/2000/svg"><defs
     id="defs1"><pattern
       inkscape:collect="always"
       xlink:href="#pattern6-7"
       preserveAspectRatio="xMidYMid"
       id="pattern14"
       patternTransform="translate(190,350)" /><pattern
       patternUnits="userSpaceOnUse"
       width="28.28"
       height="23.44"
       patternTransform="translate(190,350)"
       preserveAspectRatio="xMidYMid"
       style="fill:#000000"
       id="pattern6-7"
       inkscape:label=""
       inkscape:collect="always"
       inkscape:isstock="true"><path
         style="paint-order:stroke markers fill;stop-color:#000000"
         d="M 0,0        A 20,20 0,0,1 14.14,5.86        A 20,20 0,0,0 28.28,11.72        L 28.28, 23.44        A 20,20 0,0,1 14.14,17.58        A 20,20 0,0,0 0,11.72        L 0,0 "
         id="path4-2"
         sodipodi:nodetypes="cc" /></pattern></defs><sodipodi:namedview
     id="namedview1"
     pagecolor="#ffffff"
     bordercolor="#000000"
     borderopacity="0.25"
     inkscape:showpageshadow="2"
     inkscape:pageopacity="0.0"
     inkscape:pagecheckerboard="0"
     inkscape:deskcolor="#d1d1d1"
     inkscape:zoom="4.713173"
     inkscape:cx="236.35882"
     inkscape:cy="464.76121"
     inkscape:window-width="1920"
     inkscape:window-height="1009"
     inkscape:window-x="2552"
     inkscape:window-y="143"
     inkscape:window-maximized="1"
     inkscape:current-layer="svg1" /><path
     id="path1"
     style="display:inline;fill:url(#pattern14);stroke:#000000;stroke-opacity:1"
     d="m 33.263667,66.229472 c 2.098687,2.008417 3.118596,12.158095 -2.162972,7.221255 -1.788582,-1.259581 -4.996744,-1.715176 -1.419818,0.223383 4.259487,1.400948 2.697577,6.609639 -1.517248,4.837515 -2.74682,2.193651 -6.676536,-0.857869 -3.525261,-3.404172 1.763293,-1.24125 4.512215,-4.157423 0.5957,-1.696381 -2.406716,2.031459 -5.011831,3.871582 -5.059502,-0.861843 -0.570993,-2.170316 3.223372,-8.367572 -0.459638,-3.62995 -3.237575,3.546181 -0.578598,7.998758 -0.01911,11.06205 1.227406,3.074722 -0.149769,6.408381 1.500425,8.830793 -0.497886,3.390199 -2.272678,8.644263 -1.813076,10.756984 3.076997,-2.762621 -0.430286,5.458044 1.803018,8.050294 3.826613,1.87516 5.432768,-1.69477 3.056781,-4.973 0.0887,-2.38028 -0.04549,-2.39787 1.056221,-2.987892 -0.416359,-2.872556 -3.203717,-9.169145 -1.4471,-10.225316 -1.099696,1.48714 3.759309,0.575339 3.526634,3.425038 0.263839,3.004503 0.826917,6.342927 1.660243,9.47231 1.972811,3.83009 -1.636086,7.67411 1.7711,10.70775 1.288431,2.91165 -0.208323,4.64601 -1.678041,6.48236 1.147436,2.73494 -0.119574,5.38883 1.933973,7.92574 2.089445,1.55518 3.848336,3.49966 2.929033,6.88045 1.343652,5.16217 1.978496,10.49002 3.253299,15.68977 -0.238929,2.82894 0.435507,5.35986 1.45557,7.96668 0.513725,5.51969 1.995784,10.9408 2.193216,16.48004 -2.468989,0.8042 -7.41492,3.83773 -2.224341,3.67754 1.54845,1.9275 7.006447,0.17567 10.2514,0.12653 2.469952,-1.42357 5.248027,-1.85331 8.09471,-1.61899 6.223743,0.86878 3.648258,-4.59664 1.736189,-7.60379 -0.646041,-3.83271 1.931928,4.72419 3.43657,0.98584 1.171811,0.20391 1.437118,-3.15229 1.419984,0.46808 0.659335,1.74337 2.882845,8.77936 3.736897,3.49603 0.704415,-4.13095 3.019488,5.65434 4.514719,0.51076 2.086056,-2.18681 4.527808,0.0105 5.723548,-1.59609 0.166588,2.2877 2.067475,4.72647 2.071274,0.80628 0.331918,-1.28233 1.890331,-3.63645 2.228841,-4.08303 1.448589,1.51099 2.164785,3.54589 3.593183,1.45479 3.888991,1.50924 1.292973,5.95455 -1.20157,7.56891 -3.231942,0.21781 -5.422382,6.49019 -1.430412,4.49354 3.010707,-1.70003 1.663463,2.85709 4.592352,0.65414 2.169175,0.22581 5.662029,1.4058 7.73002,-1.78591 -0.50909,-2.86178 3.633858,-4.38091 0.300042,-7.19787 -1.419851,-3.12638 6.010294,4.05892 3.053873,0.0193 -1.467501,-2.05127 -3.945227,-6.36523 -2.998836,-6.40644 5.636327,2.59306 -1.537258,-4.16747 -0.778777,-6.97028 0.333974,-3.23523 -2.312549,-6.98431 -0.567006,-8.33769 0.703359,-1.68173 -1.581673,-7.97075 1.031435,-4.58851 0.605372,-0.44624 1.685107,8.14443 1.977233,2.42536 1.88,-4.63322 0.202884,-9.74224 1.502912,-14.53999 0.666661,-5.00411 -0.449145,-10.1004 -1.973076,-14.87371 -2.598957,-2.4748 -6.309298,-9.32998 -7.246716,-10.05537 -1.587012,-1.50027 2.711159,-0.23301 -0.879031,-2.44848 -2.540831,-2.35223 -2.532658,-5.82643 -6.314403,-7.15717 0.46285,-4.102667 -9.150892,-1.916919 -3.411876,-5.212998 1.602926,-1.17397 5.927479,-3.962793 2.688859,-4.811514 1.826264,-2.256669 4.885542,-1.121327 7.00739,-4.292954 4.828042,-2.474799 -4.688059,-0.352428 -6.46116,0.04249 -4.746155,0.761193 -8.568276,3.81251 -12.944139,5.526891 -1.470826,-3.759864 -4.906222,-6.048454 -8.812698,-5.756285 -4.553524,0.131762 -10.535537,1.145936 -12.869961,4.95086 -1.648617,-1.446414 -5.542174,-3.799635 -2.691473,0.166181 3.277192,3.026041 -3.256127,5.341287 0.715886,7.659376 -1.537134,2.47329 -4.167052,9.92754 -0.136538,10.17775 1.539682,-2.33647 2.372974,-4.83149 3.957103,-1.3447 -2.039727,4.91179 7.345413,1.34206 3.233749,5.07401 0.636479,1.79566 -0.504519,5.99236 -2.448039,8.1656 -2.036401,1.81396 -4.170843,2.5518 -7.017186,2.23132 -4.952816,0.44584 -4.093609,-3.59756 -5.931007,-6.70979 -4.88957,0.80264 -1.570025,-7.09005 -3.950221,-10.31996 -0.863182,-2.37325 -0.934459,-10.333512 1.062481,-4.32384 0.129587,2.27968 2.632016,4.14701 1.468004,0.30551 -0.518691,-3.672664 -5.064893,-5.031918 -3.744407,-9.407444 0.170537,1.898973 1.150226,4.972923 0.527457,1.019669 -0.136662,-2.383027 -1.024707,-4.950467 0.849743,-3.986465 0.568714,-2.86957 2.614123,-5.439899 2.711509,-8.930877 1.285225,-2.7181 -1.141402,-4.587744 1.352342,-7.496805 0.43736,-3.257295 -1.660497,-6.532703 -4.170275,-8.383666 z m 0.706429,0.919857 c 2.813809,1.585921 2.960627,6.770925 3.036526,7.518014 -0.584095,1.795388 -1.644718,2.618384 -1.611817,1.597863 -1.71111,-0.441351 1.794625,-6.264558 -1.140519,-8.49007 L 33.96696,67.153458 c 1.19e-4,-0.0019 0.002,-0.0029 0.0031,-0.0041 z m -13.534294,1.451616 c -2.280177,2.963359 1.945939,8.664789 -0.179832,8.819771 0.10318,1.856899 -1.082036,-0.791482 -0.547263,-1.421127 -0.365447,-2.933015 -0.527828,3.27389 -0.920377,-0.270269 -0.537945,-2.453739 0.03279,-5.183457 1.647472,-7.128375 z m 8.712799,4.29387 c 2.846291,0.02248 5.017089,5.001241 2.032568,1.325871 -0.683018,-0.415287 -1.480993,-0.809306 -2.032568,-1.325871 z m -2.696007,0.182938 c -1.423676,1.474236 -5.444496,4.927042 -2.194219,1.247491 0.699351,-0.467995 1.432887,-0.888691 2.194219,-1.247491 z m 10.02437,1.536884 c -1.235993,1.275658 -0.559344,1.728295 0,0 z m -2.905817,0.665604 c -0.361393,1.788236 -1.802288,1.476101 0,0 z m 0.369493,0.239266 c 3.25471,2.988324 0.871634,3.037973 0,0 z m -11.783983,0.365875 c 1.895229,0.966854 0.896898,2.412039 0,0 z m -0.345204,0.275957 c 0.285716,1.774951 -0.805795,3.947112 0.4899,1.017527 -0.257723,3.319779 -1.757193,1.98523 -1.450636,1.280082 -1.643501,1.496325 0.87922,-1.838897 0.960736,-2.297609 z m 11.648071,0.09715 c 3.112785,1.284438 1.958466,5.65453 0.51935,1.074884 0.322204,0.352548 -0.973672,-0.963739 -0.51935,-1.074884 z m -0.249085,0.697644 c 1.411554,1.489848 -1.03857,0.563732 0,0 z m -0.716764,0.540545 c 2.017112,1.439462 2.156723,3.514003 0.219112,0.4036 l -0.238233,-0.38758 0.01912,-0.01602 z m -9.238357,0.570001 c -0.786611,2.344296 -2.579998,2.660733 -0.205154,0.223757 l 0.205159,-0.223762 z m 9.339644,0.124542 c 2.969821,2.495625 -2.800876,3.105873 -0.769992,0.510572 z m -3.568836,0.555531 c 2.665575,0.704621 3.061683,2.06661 3.128542,4.891777 -4.010614,-0.782306 -0.593628,7.017767 -3.02421,7.809705 -1.553303,-1.805468 -1.114775,-4.446643 -2.782689,-6.844166 -2.732649,0.560748 -1.769846,-3.695297 -1.129789,-4.788216 0.987657,-1.186997 2.499913,-0.775803 3.808146,-1.0691 z m -5.596139,0.08992 c 4.114485,1.529879 -2.121467,2.368381 0,0 z m 12.647511,0.299212 c 1.99566,0.526976 -3.846153,2.367124 0,0 z m -3.070667,0.117307 c -1.892206,1.303814 -0.736861,1.232668 0,0 z m -11.090473,0.0615 c -0.930906,1.98408 -2.235545,1.102869 0,0 z m 0.640799,0.552948 c 4.032618,2.062874 0.01687,2.020172 0,0 z m 11.160754,0.260454 c 3.366513,2.039631 -1.47785,8.673737 -3.016406,7.654963 -0.160781,-3.15971 2.470643,-3.845543 1.978206,-6.484984 l 0.43868,-0.678546 0.599518,-0.491428 z M 19.949002,80.23093 c 5.201303,0.715726 -0.115105,1.506733 0,0 z m 15.736265,0.220146 c 0.738695,2.09577 -1.555683,8.885958 -2.3384,6.431244 1.967395,-1.598878 1.053725,-5.323419 2.3384,-6.431244 z m -13.244384,0.493518 c 2.733644,0.672097 0.532982,4.220239 3.482542,4.091699 1.369363,3.314185 1.545569,4.385008 -1.629454,2.341046 -1.288823,-1.221161 -4.145737,-5.093586 -1.853088,-6.432745 z m -1.788553,0.198441 c 0.19479,2.689534 0.680241,-1.681729 0.768643,1.687607 1.141139,3.497104 -1.11433,2.956071 -0.768643,-1.687607 z m 10.60884,0.04238 c -1.944383,2.389126 -2.623642,-0.276136 -2.77484,0.913095 0.634616,1.482391 1.352878,2.290419 0.832271,0.716341 3.584126,0.699194 0.353081,0.302899 2.118771,-0.103349 -0.594151,-1.59923 1.103068,-0.538423 -0.176202,-1.526087 z m -3.948665,0.142112 c 0.955534,2.312707 -4.016322,-0.60468 -2.219543,1.72138 2.369177,0.854142 -1.90645,0.292573 1.461951,0.543658 1.517611,-1.105085 0.960294,0.605023 1.74824,-1.651608 -0.241762,-1.756799 -0.05617,1.517883 -0.990648,-0.61343 z m 3.146116,0.659403 c 1.426299,0.895725 -1.653459,0.582685 0,0 z m -4.20085,0.374661 c 1.516175,0.679389 -1.179784,0.947229 0,0 z m 4.410144,2.396795 c 1.006778,2.47251 -1.103178,1.791607 0,0 z m -2.518754,0.166918 c -1.013559,2.041207 0.975463,4.073905 0,0 z m 0.800482,0.04806 c -0.504909,2.523026 1.829721,3.332459 0,0 z m -6.704617,0.08579 c -1.756315,3.035031 0.432266,-0.790934 1.223653,1.820522 -1.916322,-0.609936 2.960369,2.574007 -0.584471,1.006161 -1.157107,-1.587817 -3.560116,-1.238094 -0.639182,-2.826683 z m 4.306272,0.235132 c 0.893339,1.017178 -0.606469,2.191 0,0 z m -5.874679,0.01499 c 0.607472,1.264216 -1.210848,3.117232 0,0 z m 6.282413,1.205632 c 1.169488,1.732547 -0.159234,2.248685 0,0 z m 62.164217,0.276991 c -2.398504,2.984562 -6.16415,2.523052 -8.066788,5.006062 2.729356,1.051607 -1.704999,5.452144 -1.77563,2.445889 -0.441776,2.831021 -3.979683,4.285741 -6.979541,5.88346 -1.462489,1.69164 -2.076722,2.61056 -3.811204,1.73843 1.114899,2.61006 -2.789278,0.57667 -2.477276,0.23221 -0.110227,2.24412 -2.704776,6.79791 -4.457955,5.01046 -1.326023,1.78552 -3.615898,2.24387 -5.512337,3.1818 1.808935,-1.2188 -6.600028,4.31533 -6.158388,-0.43416 -0.727894,-2.14499 -2.105971,-3.08887 1.141766,-2.85634 2.551502,-0.71241 5.793222,-1.26809 7.937426,-0.99666 -0.0673,-1.39613 -7.037338,-4.18946 -3.137297,-2.09771 0.355342,3.05803 -8.083778,3.9979 -6.611999,1.24228 1.536522,-0.31473 5.907008,-2.85294 1.498998,-3.71753 -1.95048,0.45941 -3.348987,2.6789 -0.682096,0.56478 2.709169,-1.64687 2.304104,2.68507 1.429395,1.91826 -2.731147,-2.18181 -5.149959,7.21027 -7.329605,5.71433 -2.68304,-3.9246 3.127829,-10.254879 3.528221,-9.57151 0.186967,-0.186522 5.42312,-0.272917 1.5353,0.50643 1.901779,-0.724001 3.211729,-0.869349 3.077898,-0.694552 1.00324,0.439402 3.256035,3.028082 4.578612,1.578282 4.021473,-1.645329 -3.303888,0.70024 -2.870159,-0.7099 3.856175,0.71683 -3.362711,-1.259717 0.324308,-0.45451 3.720067,0.0833 5.241227,-2.888791 2.074037,-2.811979 1.919394,-0.593658 6.332677,0.333463 1.947721,-0.659968 -1.37037,-0.612434 -6.384126,3.153221 -3.76936,0.01552 -1.232655,2.437791 -5.303563,3.176377 -5.892183,1.871075 2.831404,2.913362 -2.849253,-0.174902 -1.678104,-0.296129 -0.363655,1.970651 -4.733728,-1.107578 -0.762164,-2.013135 0.484701,-3.64004 3.180796,-2.513929 2.432405,-5.180816 2.88908,-1.361166 6.732261,-3.557023 10.936611,-3.410097 2.787124,-0.725713 4.574348,1.799325 5.008282,1.088115 2.474322,-0.09974 0.260644,2.134454 2.56236,1.878762 3.72104,1.89688 -1.175355,4.281695 -1.331289,4.482021 2.30218,-1.760008 -1.576488,2.811347 1.245927,-0.273051 4.232167,-2.431697 8.604594,-4.855088 13.254987,-6.410246 2.873197,-0.8177 5.821273,-1.43214 8.789121,-1.769873 z m -1.162223,0.439774 c -3.657011,1.042838 -7.403293,2.090071 -10.600992,3.286128 -2.194135,2.925671 -10.633789,4.85784 -8.99247,8.512843 -2.690425,2.886006 0.948995,0.781444 2.60562,1.094016 -1.065886,1.22623 1.392415,-0.946586 1.259987,-0.794857 3.532018,-3.966279 -1.747171,1.917717 -3.475378,0.839887 -1.812238,1.3229 -0.09101,-2.457808 0.497511,-2.760541 2.309319,-0.730411 0.170296,3.730401 1.576344,0.252699 -4.455385,-1.711083 4.231769,-3.799723 3.590308,-3.206721 -1.210908,-2.106671 4.418055,-4.246667 6.218246,-4.395121 0.214904,0.933163 2.666583,-2.336902 4.725677,-1.44482 0.73923,-0.61036 1.989289,-0.801108 2.595147,-1.383513 z m -55.400687,0.101288 c 2.744928,1.522365 0.879172,2.087965 0,0 z m 29.156352,0.17932 c 2.496338,0.456618 -1.503866,0.316834 0,0 z m -29.490188,0.272856 c 2.186219,1.577752 0.247776,1.270089 0,0 z m -7.425516,0.11059 c 0.0234,2.397225 -1.426583,2.456389 1.5e-5,-3.3e-5 z m 0.599457,0.269755 c -0.09787,2.63948 -1.923529,2.368596 0,0 z m 6.336675,0.02067 c 2.773186,0.833546 0.24473,2.575322 1e-6,10e-6 z m -0.53331,0.148831 c 1.856529,1.679099 -0.505128,3.331982 0.161236,0.688441 l -0.205159,-0.674389 0.04393,-0.01395 z m -8.077685,0.05168 c 1.739228,0.738682 0.364432,0.906575 0,0 z m -1.209766,0.12506 c 0.44347,1.634086 0.46343,9.251793 0.140981,3.507974 2.01e-4,-1.152306 -0.253967,-2.397804 -0.140981,-3.507974 z m 3.804485,0.158132 c 1.839028,1.047918 2.420894,0.577732 2.574048,2.828302 0.03516,-1.899692 -1.619323,-1.394733 -1.747727,-1.421127 1.683451,1.756988 -2.779779,-0.547184 -0.826321,-1.407175 z m 5.126909,0.05788 c 0.857007,1.472946 -1.751415,4.038341 -0.526381,0.309869 0.531361,-0.07357 0.305191,0.93394 0.526381,-0.309869 z m -8.524694,0.09715 c 0.177369,0.426617 0.932406,6.084483 0.777195,2.720877 0.586452,1.44042 1.368109,8.555528 0.06775,3.786398 -1.015405,-1.939625 -0.682701,-4.376051 -0.844943,-6.507275 z m -0.843374,0.189139 c 1.312434,1.639973 -0.568236,11.639176 -1.119207,6.370666 0.04551,-2.154086 0.300642,-4.379629 1.119207,-6.370666 z m 11.671326,0.661987 c 0.133086,1.439151 -1.002174,0.662065 0,0 z m -5.860209,0.876448 c 1.749893,1.752628 -0.637838,1.230577 0,0 z m 16.985306,0.03152 c 2.437334,0.410079 3.853904,3.305716 1.833465,4.234959 -0.375937,-2.086456 -0.973297,-2.708992 -1.833465,-4.234959 z m -13.554448,0.06408 c 1.579559,0.975221 -0.856872,1.091739 0,0 z m 0.228414,0.951379 c 2.708116,0.64457 -3.462818,0.558413 0,0 z m -2.146677,0.27079 c -1.017606,1.357423 3.197585,-0.122232 2.180784,1.028896 -1.689249,0.202772 -4.629041,1.511226 -1.983381,-0.191208 -1.026564,-0.828009 -3.103382,-0.590309 -0.197403,-0.837688 z m 32.74431,0.202575 c -0.953116,1.840332 1.94336,3.588069 0.183454,1.26248 -0.511846,-0.0282 0.274019,-1.194547 -0.183454,-1.26248 z m -29.666924,0.0677 c 0.612885,1.84575 -0.46733,1.579632 0,0 z m -3.629816,0.357607 c 0.614305,0.714006 -1.377447,0.430161 0,0 z m 2.98695,0.712114 c 0.61399,1.238894 -2.493717,0.448949 0,0 z m -1.461952,0.294044 c 1.617454,0.84136 -2.543165,3.267676 1.382364,1.076956 0.943818,0.858644 -1.310073,0.763828 0.28428,1.391463 0.476296,0.954644 -2.931858,0.981516 -0.06362,1.592901 -0.5872,-2.0132 1.956985,1.477804 -1.491144,0.711321 0.644911,-2.096484 -0.824209,0.766452 -1.509357,-0.403238 2.965984,-0.849427 -1.971343,-0.557611 1.750946,-1.415 3.431375,-0.99058 -5.062993,0.574106 -0.234099,-0.516725 -3.41256,-0.183844 -0.09525,-1.594286 -1.130696,-1.496575 -2.552803,-0.977056 1.281433,0.05703 1.011331,-0.941103 z m 28.443205,0.308514 c -4.921241,0.307449 4.748505,0.877401 1.551359,0.337388 -0.489742,-0.204479 -1.018686,-0.337831 -1.551359,-0.337388 z m -35.84495,0.983419 c 1.66192,1.357713 -1.537372,0.774625 0,0 z m -0.384996,0.577753 c -0.947398,1.54371 -0.507689,5.812896 -0.289964,1.451127 0.201465,-1.243838 1.241824,2.703179 1.095147,-0.714721 0.720421,0.292634 1.792866,7.01027 0.426039,6.24328 1.781726,0.88248 2.074338,6.00072 1.06452,4.21509 0.565642,2.97797 -1.708516,-1.19346 -1.28351,0.87896 -0.151326,-3.63735 -1.975111,1.60306 -1.993025,-1.81218 -0.05565,-3.09429 -0.31935,-4.83007 0.309889,-8.815554 0.157688,-0.414279 0.05508,-1.317313 0.670904,-1.446002 z m 57.091053,0.02636 c 1.09145,0.489907 -0.834497,0.652346 0,0 z m -26.741988,0.340037 c -2.183456,0.57957 -3.870833,1.75568 -0.64392,0.441561 l 0.65839,-0.434326 c -5.52e-4,-0.0066 -0.01165,-0.0051 -0.01447,-0.0072 z m -5.749103,0.624262 c 0.816779,1.068346 2.352175,0.143174 0,0 z m -26.78798,0.774644 c 2.345359,1.342402 -2.487743,3.373083 -2e-6,6e-6 z m 41.271586,0.588088 c -2.761418,0.639977 -2.332381,1.022368 0.04496,0.01034 0.0044,-0.01752 -0.09607,-0.0015 -0.04496,-0.01034 z m -36.498668,0.151414 c 1.447607,2.384201 -0.759131,1.696515 -0.890389,0.685662 0.538245,-1.699729 0.639732,0.494218 0.890389,-0.685662 z m 31.69681,0.165368 c 4.563434,1.175118 -5.715026,3.278703 -2.127039,0.327634 0.665268,-0.302253 1.407943,-0.35406 2.127039,-0.327634 z m -25.313109,0.214978 c -1.131245,1.063987 -1.749677,2.197115 0.129385,0.948483 0.660659,1.346242 -1.267501,1.041972 -1.974785,1.031252 1.148541,-0.441163 -1.527864,-0.866187 0.612376,-1.464577 -3.728758,0.986645 0.711524,-0.817433 1.233024,-0.515158 z m 23.76744,0.197407 c -1.176975,0.886129 1.09765,0.667697 0,0 z m 21.250237,0.283709 c 1.90355,1.090086 6.524068,0.837535 5.765641,3.712499 -0.535434,-1.26268 -7.073727,2.46104 -4.355363,1.33528 2.838274,-2.98924 10.223016,1.03786 8.25298,2.88492 -1.676261,-2.27032 -6.538846,-1.1923 -7.018615,-1.42504 -2.774663,1.07235 -6.149791,3.67461 -7.75511,5.37368 1.960932,-1.65809 3.454207,-2.58458 0.83896,0.0691 -0.869657,1.46572 -5.90974,5.67691 -4.591373,3.52141 -1.956516,1.43291 -3.315718,5.91312 -4.743816,6.23675 1.075637,-4.87271 3.807664,-8.98751 7.388921,-12.37537 1.351309,-2.27048 6.010813,-5.95589 6.897804,-6.55346 -1.164661,1.03187 -3.1188,-2.460879 -2.169344,-2.122299 0.50044,-0.184445 0.927802,-0.639551 1.489315,-0.65742 z M 32.30867,99.131915 c 3.833525,1.285835 3.673011,8.407095 2.23246,3.952795 0.271326,-1.8476 -2.006157,-2.48624 -2.23246,-3.952795 z m -0.751389,0.276473 c 1.060941,1.097872 -0.298315,1.290572 0,0 z m 14.574559,0.09457 c 1.795038,-0.2495 -0.94806,1.249422 0,0 z m -23.560214,0.606692 c -1.718508,2.2925 -0.564119,3.36839 -0.06148,0.50076 1.327,2.75481 1.453567,0.63074 0.06148,-0.50076 z m 51.416365,0.13694 c 3.026681,2.37135 -2.927174,4.57572 -3.774407,6.93624 -1.191071,1.587 -2.763289,2.877 -0.955593,0.0794 0.427656,-2.75564 7.632305,-7.420603 1.855652,-4.68783 -0.597928,-2.910989 4.30358,-1.18224 2.874348,-2.32778 z m -44.034774,0.34418 c 3.437695,0.15751 -2.899394,0.70751 0,0 z m 18.658619,0.38603 c -1.820731,1.05162 -1.113144,2.1133 0,0 z m -16.976522,0.003 c 2.806511,0.52246 -6.469872,0.91878 -0.704209,0.0448 l 0.704209,-0.0448 z m 31.699911,0.03 c -1.27857,1.65129 -3.50911,1.20018 -2.638093,2.85413 0.720491,-1.30691 1.623922,-0.86565 2.643749,-2.85448 -7.83e-4,4.7e-4 -0.0066,-0.003 -0.0057,3.5e-4 z m -31.468913,0.61238 c 0.485836,1.51055 1.675333,9.68008 0.889367,7.90766 -0.954711,-4.20291 0.314575,3.61778 0.21231,4.50011 0.737088,3.39669 0.363655,1.32786 0.278342,-0.64064 0.861023,4.84634 -0.493458,-7.35572 0.798602,-1.28899 -1.085488,2.18155 1.79926,7.23308 -0.846021,5.40494 -1.34013,-1.46344 -1.665121,-7.70407 -1.07262,-2.22626 0.166911,5.6904 -1.205418,-5.60648 -1.521586,-3.83905 -2.519622,-2.09497 0.189747,-5.02596 0.541479,-0.66351 1.183095,3.30403 -0.511076,-3.80098 -0.233563,-4.47036 -0.7752,-1.67633 -0.323681,-7.14713 0.622307,-2.9282 -0.02874,0.65273 1.175679,7.30723 0.576692,2.95258 -0.04956,-1.46479 -0.626441,-3.42734 -0.245309,-4.70828 z m -2.112053,0.27699 c 1.002395,0.93973 1.613637,11.20363 0.826808,5.31347 -0.280081,-0.14725 -1.140738,-4.17525 -0.826801,-5.31344 z m 39.215863,0.0336 c 3.107882,3.03415 -2.151993,2.73705 -0.630442,2.30476 2.036346,0.93066 -0.273307,-2.22328 0.630442,-2.30476 z m -46.364389,0.64493 c -0.780341,2.45577 -0.393956,2.22698 0.396458,1.14724 1.359659,2.62304 0.229008,-0.58202 -0.396458,-1.14724 z m 47.865615,0.61289 c 2.335866,-0.16799 -2.566979,4.35051 -0.504887,1.3462 0.971506,-0.0101 -0.07913,-1.18787 0.504887,-1.3462 z m -4.185864,0.0925 c 4.465958,1.70249 0.619864,8.01809 -2.092415,9.93186 -2.105373,0.78536 -2.42729,2.77475 -0.351406,0.4744 2.030156,1.7951 -5.470977,5.96724 -4.779117,-0.006 3.019262,1.67094 1.991364,0.98445 0.128911,-0.77165 0.748751,-2.63133 1.94152,0.83692 2.157812,-0.51822 2.211593,1.09232 -5.119886,-3.10723 -0.963265,-2.33795 0.108483,-0.72373 3.909957,-3.70182 3.848907,-1.8797 0.596435,-1.72302 1.636863,-3.02511 2.050573,-4.89306 z m -10.154596,0.82993 c 1.946596,1.76693 -1.786086,2.60868 0,0 z m 0.740536,0.3819 c 2.935048,0.88079 -0.25354,1.65194 -0.07993,0.11099 l 0.07993,-0.11093 z m 10.032121,0.19431 c -0.735053,2.73454 0.783982,2.74599 0,0 z m 2.201455,0.53072 c 0.08816,2.01205 -2.06986,4.99979 -0.407222,0.99376 0.554596,-0.14604 -0.101438,-0.99461 0.407222,-0.99376 z m -9.484342,0.0925 c -0.772594,2.47463 0.943114,1.48785 2e-6,0 z m 21.671924,0.2093 c 3.835019,0.15391 5.218784,3.23393 8.105074,4.74341 -3.401894,-1.02473 -2.053033,-0.20439 -5.293827,0.35967 0.64202,2.26883 -3.695527,-0.55938 -4.358461,2.9053 -1.523649,2.78981 -2.920321,3.24197 -3.581147,7.3686 -1.038886,-2.30857 -2.513971,4.70494 0.07381,0.41346 1.293148,-1.68434 0.799351,-6.47688 3.255672,-2.3787 1.071186,1.14889 -3.845021,-0.90315 -0.0012,0.7521 -1.591412,2.75809 1.7055,-1.59002 1.748993,2.07887 0.712773,2.69346 0.871448,1.28381 1.203986,4.9546 1.845256,1.92858 -2.922352,2.12556 -0.441496,0.51121 -0.445404,1.8791 -8.403924,4.39147 -6.49722,2.4634 2.267082,-1.51272 6.357931,-6.7594 2.143117,-2.26508 -1.782545,2.46532 -6.664469,4.936 -8.501495,3.48367 4.285403,-3.24153 -4.669001,3.60782 -6.599203,-0.0619 -2.355025,-1.67809 -2.715291,-1.82605 -0.620121,0.18283 -3.123144,1.09202 -6.096655,-4.72489 -3.700092,-4.22617 0.816909,0.55788 -2.849234,-4.92398 -2.560459,-7.26104 -0.278334,-2.51725 -1.265849,-4.58028 -0.445095,-0.51278 -1.384818,-0.45948 -3.472081,-6.85621 0.0036,-6.9439 0.0339,4.11392 5.154253,6.79195 4.325634,10.7244 -1.714491,1.74664 1.81694,2.94508 1.522245,5.3873 0.667028,-0.0196 0.988614,-3.12154 1.969352,0.35838 -0.09328,-2.73608 1.296144,-3.69571 1.677502,-5.40708 -3.209608,-1.92937 1.909634,-5.64472 2.843936,-8.08315 4.420448,-2.6793 6.524058,-8.64645 12.127613,-9.38108 l 0.627712,-0.0935 0.971534,-0.0724 z M 22.184563,106.267 c 0.650787,1.51569 -0.820702,1.66204 0,0 z m 29.203379,1.64954 c -3.101963,0.17111 1.207095,0.35111 0,0 z m 10.992803,0.0646 c -0.676971,1.25239 -4.471695,2.73608 -1.315656,0.98917 -2.647375,1.30522 0.915662,-0.83988 1.315656,-0.98917 z m 1.920846,1.43663 c -0.893715,1.28786 -0.26519,2.52246 0,0 z m 1.183411,0.62995 c -1.641482,3.41421 0.654829,2.21626 0,0 z m 22.095162,0.18655 c 1.963668,1.37759 2.425192,3.36431 2.61952,3.57897 2.29294,3.26936 5.575779,6.23356 6.660779,10.11688 -2.07889,-3.09979 1.441245,2.93357 0.961699,3.79968 0.77737,2.69758 1.118547,8.06334 -0.849609,2.58283 -2.022244,-4.70143 2.127,5.39237 1.107009,6.65204 -0.09806,1.49932 -0.330252,6.17008 -0.829956,1.92741 0.39159,3.32913 0.863297,11.08799 -0.784975,11.80258 -0.725597,-4.84653 -2.138441,-6.74149 -2.500287,-11.12846 -1.357377,3.60916 -2.939593,-6.66062 -4.462217,-0.47479 -1.101359,2.62919 -0.376876,-2.30121 -0.972554,1.31326 -0.713094,2.10545 -1.310187,0.004 -0.398432,3.05362 0.346496,3.20321 -1.653875,1.59706 -1.145675,2.82192 -0.208048,0.70971 0.468523,7.00743 -2.75699,6.54467 0.374734,-0.86258 1.265337,-9.87404 -0.571811,-4.1535 0.775035,3.12058 -4.197169,7.44681 -3.246079,3.1138 0.991322,-3.24085 2.744594,-8.24396 -2.299641,-5.40085 -0.847923,1.0033 -2.265961,4.1078 -2.677436,0.85523 -0.344375,-3.32591 8.269447,-5.07001 7.536623,-5.73772 -1.525133,1.00121 -4.606557,1.98381 -1.2909,0.0658 0.346208,-1.47767 6.543777,-2.00527 1.954471,-1.61898 0.179241,-1.97185 2.692656,-5.59398 4.340381,-4.6675 0.938342,2.51608 3.957567,1.39153 0.502801,0.2883 -0.227923,-3.14984 -2.679192,1.49489 -4.41064,0.0253 -3.943482,4.72651 0.28875,-3.52987 0.683726,-5.36601 2.460007,-3.82768 -1.883991,2.66462 -0.639868,-1.85549 0.598,-2.64604 9.424255,-5.48229 3.073251,-3.50941 -4.977739,4.1379 0.779071,-2.74816 1.558075,-4.49747 -1.432734,2.52478 -4.230725,4.13072 -4.651945,7.13622 -2.118203,-1.2732 -0.91648,-4.4017 -1.56808,-6.51571 -0.11799,-1.41361 -0.851375,-4.69052 -0.37639,-1.09084 1.323497,6.12277 -4.495641,-4.1764 -2.306608,-6.01927 0.958126,-1.91886 3.599384,-2.94298 4.646301,-1.55677 -0.81985,-2.92272 2.272768,-1.17588 3.095457,-2.08569 z m -30.222456,0.15193 c 0.02723,2.86703 2.9301,8.06388 3.247059,10.31695 -1.771365,-3.06939 -6.080456,-6.72749 -4.414965,-10.02445 -0.224852,1.06267 1.55454,5.64259 0.45025,1.76047 -0.01145,-0.60971 -0.483454,-2.26858 0.717656,-2.05297 z m 0.736402,0.12713 c 1.923762,1.12049 -1.151647,4.16342 0,0 z m 19.58416,4.11662 c -1.78253,2.82199 0.181354,1.93779 0,0 z m 1.323973,0.94724 c 0.285334,1.65335 1.789834,4.79574 -0.659403,1.86711 -1.313071,-2.47605 0.627398,0.57299 0.659403,-1.86711 z m -12.606686,0.46923 c -0.404227,1.92599 -4.779027,6.73485 -1.652635,2.17393 0.399129,-0.81111 0.974321,-1.57613 1.652635,-2.17393 z M 53.32946,116.3353 c 0.654568,2.54679 2.245705,3.07909 2.845348,7.10618 1.078288,3.05523 0.742379,5.88152 2.236089,8.41511 -1.245951,1.64238 -3.065284,6.35897 -4.937774,6.29585 1.101308,-4.09214 -1.27808,2.51958 -2.100199,2.90626 -0.691616,2.21327 -0.909921,-4.10222 -1.98718,0.0715 -1.765304,0.7903 -1.36138,4.15249 -2.721031,2.83582 -0.50111,2.36014 -2.581098,7.06857 -2.25071,1.84942 -0.201011,-1.98135 0.161118,-4.38034 -0.408684,-3.37284 -0.449861,-2.02873 0.764778,-6.56953 -0.52257,-5.97714 -0.230456,-2.53369 0.418416,-5.065 -0.557999,-4.42393 0.05228,-3.13678 -1.369852,-6.215 -2.383357,-7.9056 1.711244,-0.29318 5.183677,2.9994 3.311486,0.90804 2.722497,-2.24153 6.721685,8.05763 4.049033,2.03816 -2.682728,-3.1881 2.385528,1.72412 -0.525538,-1.54151 -3.27405,-1.95163 4.16619,-0.99041 3.794557,1.67166 3.890298,4.90502 -4.446734,-5.60543 0.520498,-1.58829 0.320715,-0.12924 3.581267,2.96679 2.912535,2.01083 0.112689,-2.12374 -6.218706,-3.28905 -4.463061,-3.53204 4.44232,-0.62667 -4.259789,0.63974 -0.19155,-1.37928 1.692739,-0.8796 2.27032,-1.23126 1.254728,-1.17359 1.071161,-2.35283 1.741006,-3.00771 2.125379,-5.21463 z m 6.309802,0.093 c 1.771185,1.57806 1.736529,2.10377 3.494916,0.15532 -0.485222,2.3996 -1.887634,6.20379 -2.893315,1.55296 -0.21317,-0.56348 -0.456243,-1.1214 -0.601601,-1.70828 z m -28.167765,1.05422 c 3.890841,-0.0559 3.189157,3.81143 0.220153,2.32854 -1.647836,0.24531 1.674639,1.02893 -1.160673,1.30692 -1.798222,-2.91148 -0.979509,-1.61995 0.94052,-3.63546 z m 4.773436,0.29042 c 2.873636,0.48056 1.445198,7.42422 2.365133,6.87422 0.08482,2.14074 1.2803,-1.99128 2.410369,1.61636 1.607755,1.90018 1.801213,5.52189 -1.897587,2.77234 -1.60584,-0.81506 -0.920434,0.14139 -0.426231,-2.15351 -0.602609,-4.37454 -0.20997,4.2755 -2.077721,1.11586 1.12911,-2.51123 0.09382,-3.44338 -0.143868,-6.31004 -2.73146,-0.65299 2.848033,-1.06661 0.739423,-2.46159 0.515646,2.0325 -4.033975,-0.69617 -0.969518,-1.45364 z m -2.093449,1.10021 c 3.343886,1.27296 -1.879032,1.06711 0,0 z m 1.960638,0.55347 c 1.546347,1.25542 -1.428985,0.77396 0,0 z m 18.354756,0.25322 c -0.189293,0.96566 0.991831,1.08835 5e-5,3e-5 z m 4.928467,0.16175 c 1.274649,0.74763 0.07181,1.35454 -4e-6,0 z m -24.683162,0.61392 c 0.602725,1.04158 -1.661165,-0.12434 0,0 z m -2.024718,0.20516 c 2.926973,-0.71917 5.151477,3.86895 1.184961,2.56014 -3.532731,0.17844 -3.633737,1.91082 0.05685,0.42089 6.165201,0.66168 -0.986697,2.84797 -1.805661,3.11253 1.120258,-0.91783 7.451547,-0.52197 2.85052,1.58756 -3.025239,1.69274 -4.155525,-2.07371 -4.295005,-3.86311 -2.160238,-2.53323 -0.06915,-2.43223 2.008337,-3.81801 z m 29.007005,0.36743 c 2.084764,1.21558 2.676294,3.11387 1.539713,4.72224 0.371999,1.62106 -1.516561,-0.82863 -1.521628,0.69611 -0.645142,-1.50948 -1.083576,1.36003 -1.470734,-1.63922 -1.9331,-1.19898 0.333382,-1.30824 0.245466,-0.24431 0.662661,-0.37472 0.261543,1.34208 0.597582,0.25862 0.760861,0.5671 0.953157,-0.51667 -0.05994,-0.52351 0.52802,-1.10933 -2.439538,-0.85765 -0.53848,-2.77869 l 0.558043,-0.35322 0.650173,-0.13823 z m 1.845397,1.79579 c 0.836222,-0.0684 1.544411,1.60009 0,0 z m -0.439257,0.29869 c -3.348323,0.50249 0.933721,2.60518 0.218031,0.17207 l -0.218029,-0.17238 z m 28.88763,1.10331 c -2.888934,0.23344 -3.505988,0.75826 -0.217445,0.21736 0.841888,-0.0181 1.867412,0.0914 0.217445,-0.21736 z M 50.7828,124.6114 c 1.9211,0.88572 0.830856,0.92087 0,0 z m 12.116268,1.85315 c 0.782867,2.05026 -0.807674,1.36596 8e-6,-2e-5 z m -26.759557,1.75083 c 1.095355,4.52974 1.030241,9.28372 2.228374,13.81129 -2.008922,-3.14821 -1.516058,-8.89364 -2.506378,-11.24119 0.294386,5.64193 2.194268,10.99282 2.726525,16.59186 -0.0074,-1.45011 -1.105793,-8.55525 0.282489,-2.96331 0.431005,1.61219 1.706796,10.64713 0.134159,4.7155 0.243062,1.51647 1.132863,8.43926 1.450644,7.70303 -0.51607,-2.28851 -0.298845,-8.07603 0.429952,-2.74717 -0.22051,1.81473 1.628086,9.26679 0.476466,8.03169 -1.120373,-5.19221 0.167623,1.95527 0.09342,3.04058 0.261952,2.74556 0.59743,3.3601 0.211394,0.32787 0.01763,-5.68387 1.224674,3.7137 1.525063,5.27206 1.895033,2.24067 -1.177314,5.65136 -1.176918,1.66909 -0.246427,-1.75792 -1.302606,-8.33004 -1.454897,-6.97165 0.790668,2.37942 0.814751,6.35729 1.202336,6.84064 0.524035,5.6051 -1.204913,-3.3872 -1.259696,-4.80839 -0.51018,-3.14925 -1.28826,-7.44308 -1.293098,-9.96992 0.610208,1.97214 1.432234,6.95544 0.783014,1.83641 -0.831616,-3.30875 -0.625451,-4.12854 -0.781913,-2.04134 -1.920285,-2.53842 -1.1377,-5.63843 -1.789999,-8.51088 -1.138431,-5.29574 -2.298224,-10.63002 -2.973104,-15.97849 -0.248822,-1.9018 -0.65706,-6.14806 0.27885,-1.91967 0.374116,2.90095 1.218293,9.2252 1.851888,10.50592 0.04389,-4.06952 -2.966031,-9.86226 -1.013357,-12.83569 0.654339,2.49457 -0.04396,0.62794 0.574783,-0.35824 z m 36.587036,0.0238 c -1.923741,1.06796 -1.905791,1.92694 -0.06614,0.0758 z m 10.222811,0.15659 c -0.926997,2.15693 -1.390799,-0.25217 0,0 z m 8.270957,0.13642 c -2.824108,0.65228 -6.206688,5.19196 -2.165067,1.70125 0.721689,-0.56708 1.443378,-1.13417 2.165067,-1.70125 z m -9.243525,0.22997 c -0.784561,2.33234 -2.446951,0.57636 0,0 z m -44.268872,0.37724 c 3.146774,2.76553 2.628814,9.28501 3.861575,13.60813 0.692433,4.71377 1.424473,-4.81506 2.269681,0.64755 0.19426,2.16839 0.359284,9.98688 1.939709,3.8903 0.936541,-3.25904 1.910231,-0.37692 2.528585,-4.21481 0.916133,-1.6199 2.438037,-3.72771 2.669308,-0.52238 0.496106,-2.42475 6.982633,-8.01176 3.559273,-2.65426 -2.390652,4.1656 -4.158572,8.45641 -6.338137,12.71984 0.471815,4.40601 -1.64925,9.98049 -1.663461,13.34361 2.482305,-3.56254 0.703188,5.49347 2.741999,0.43512 1.851637,-0.65232 0.417582,6.89709 2.142028,1.74153 1.856613,-0.39171 -1.16222,4.12038 -3.38643,4.0509 -5.653337,5.0051 -4.275582,-4.4529 -5.575589,-7.8589 -0.822467,-5.04723 -0.692468,-10.30521 -2.44249,-15.07991 -0.549225,-5.79891 -2.485525,-11.34542 -2.674981,-17.18597 0.02452,-0.8104 -1.433147,-3.23325 0.36893,-2.92075 z m 43.006912,0.008 c 0.01349,1.65801 -2.752014,1.27883 0,0 z m 2.3446,0.15813 c 1.33022,1.0484 -1.878662,0.13542 0,0 z m -43.455471,0.31989 c 1.849059,1.78093 1.656992,6.42026 1.452466,1.15323 1.286648,0.55225 1.400014,0.80278 1.869882,2.33338 -0.102717,3.74426 1.105282,4.7204 0.5355,8.36363 -0.909005,-2.8086 -1.321758,4.37444 -1.71478,0.10008 -0.148912,-4.09817 -2.065353,-7.79624 -2.165801,-11.94573 0.0052,-0.005 0.0242,-0.003 0.02273,-0.005 z m 40.027197,0.0351 c -0.527986,1.55292 -2.917648,1.12362 0,0 z m 2.678953,0.19069 c -0.143568,1.50709 -3.817119,0.75687 -4.9e-5,-2.6e-4 z m 1.133801,0.30076 c 0.661129,2.22682 -0.700723,5.11542 -1.626286,1.29762 -0.930266,-0.74697 1.402518,-0.87564 1.626286,-1.29762 z m -5.264887,0.032 c -0.215525,1.22466 -1.80107,0.67224 0,5e-5 z m -1.037681,0.2279 c -0.187828,1.42984 -4.298474,1.49831 -0.728084,0.13821 l 0.728134,-0.13901 z m -24.257341,0.032 c 0.204264,2.68019 0.816473,1.88618 0,0 z m 27.352813,0.0548 c -0.636631,1.65563 -4.740032,1.42786 -1.156492,0.551 -0.687273,-0.19971 1.180166,-0.45071 1.156492,-0.551 z m -5.361006,0.36691 c 0.222357,1.54474 -3.144888,0.91942 0,0 z m -14.621586,0.18139 c 2.202994,0.91386 -0.09375,1.31897 -1.8e-5,4.2e-4 z m 13.26919,0.18759 c -1.370097,1.90853 -4.587372,0.39154 4e-6,-7e-5 z m -12.22014,0.0816 c 2.442117,0.88971 0.799371,1.7551 0,0 z m 19.541268,0.009 c 4.014914,2.01911 -0.783678,6.62367 2.076395,7.58417 -1.15059,4.41355 -8.992333,4.30269 -8.412447,10.09769 1.488943,4.24459 3.403601,-4.87859 6.557135,-2.36775 0.407859,2.06515 -3.506134,9.20105 -0.248991,8.32516 2.962251,-0.84464 3.709482,-10.73045 3.361515,-3.93544 -2.374663,5.14368 2.923926,2.65236 3.069483,-1.01223 -0.67366,-4.14368 3.134855,-7.57468 3.5142,-2.05696 -0.0985,2.45388 0.787309,6.18766 0.530267,1.80443 0.426721,-2.20216 1.810265,4.92461 1.877492,6.09939 0.778383,2.11302 1.876533,6.68134 -0.664053,2.55441 -0.541418,2.05938 1.818454,6.35787 0.615424,2.22522 -0.587213,-2.80762 2.135388,3.77347 2.310929,4.94292 0.845802,2.00282 3.459587,3.78699 -0.05864,2.40521 -3.255045,-1.36777 3.591322,7.17784 2.333249,7.12672 -3.083064,-0.44544 -3.865692,-6.28927 -4.24232,-6.03869 -0.0041,1.74706 -3.240701,-2.39254 -3.118731,0.36433 -1.261144,-1.80112 -4.044136,-6.68964 -3.394167,-1.51311 0.290127,1.41344 1.571305,6.23893 -1.157304,2.85859 -2.035154,1.20345 -2.686033,-0.30743 -4.280702,-2.24203 -0.625791,2.66638 -2.633323,4.38085 -2.785653,6.36915 -0.523964,-4.3278 -2.761651,-1.51982 -5.484774,-1.86588 -2.472103,3.87952 -4.08129,0.54283 -5.655064,-1.03109 -0.804722,1.58155 -0.870084,5.10658 -2.319279,1.42268 -1.533892,-2.64042 -1.192131,-7.86113 -3.206034,-4.07654 -2.824865,2.76941 -3.697202,-5.42364 -4.171628,-7.90091 -0.634525,-0.54367 -1.659071,4.28867 -2.166653,-0.54335 -0.980594,1.20252 -3.176421,-1.57319 -4.660771,-2.0294 -3.95499,-2.4244 2.665913,2.85343 4.364167,2.71355 -0.714782,2.36789 -0.149461,7.33558 -1.97149,3.18437 -0.848046,0.29828 -2.446906,3.94233 -2.661432,3.34405 -0.89657,-3.27177 -1.791286,-4.79335 -2.307911,-0.87645 0.140608,-2.01757 -0.512241,-3.22768 -1.819573,-2.1218 1.03619,-2.21794 2.120891,-7.70313 2.021585,-8.54999 -0.953408,-0.44197 0.956148,-7.55709 2.840046,-9.39306 0.242235,-0.63047 4.929109,-6.27316 2.309019,-3.44621 -3.586163,4.46742 1.104751,-3.6666 1.755404,-4.52432 0.54633,-0.88228 2.112255,-3.50267 0.462753,-1.19408 0.928248,-1.41416 1.381425,-6.87193 3.913007,-5.07058 -1.3325,3.01824 -0.936796,1.18862 0.819724,0.24386 2.572905,0.80164 6.202626,0.13641 3.022072,3.19066 -0.945203,1.4201 -4.61631,4.81924 -0.878171,1.45729 0.856253,-2.5016 6.067407,-6.45623 4.924941,-1.17244 -0.592637,5.16056 -1.236685,10.35571 -1.600448,15.50837 0.441271,1.58311 0.567201,5.36331 2.256749,5.38736 1.621728,-1.37263 2.624739,-3.28218 3.541749,-5.40145 0.793332,-5.17748 -0.585171,-10.43547 -0.711338,-15.53415 -2.396116,-4.7866 5.238224,-3.30301 2.180746,-0.49547 0.135062,-2.47535 3.136675,-4.66599 2.142325,-0.73778 -0.22425,5.12156 -0.353484,-5.08986 3.316371,-3.39077 l 0.895033,-0.31674 0.965333,-0.37001 z m -3.400886,0.0935 c -0.516058,1.02243 -2.24423,-0.10749 0,0 z m -7.624474,0.0543 c 1.432365,1.45304 -1.153289,1.08352 0,0 z m -10.463626,0.13023 c 1.037818,0.65831 -0.343611,1.40191 0,0 z m 9.296235,0.0119 c 1.124385,0.48942 -1.78511,1.04296 0,0 z m -6.012141,0.0109 c 3.456863,0.80982 0.210063,1.38714 0,1e-5 z m 12.942072,0.2341 c 3.818303,0.60453 -3.721071,0.64224 0,-9e-5 z m -15.595703,0.0527 c 2.837437,1.01515 0.08078,1.73473 0,0 z m 6.81314,0.19017 c 3.097006,0.6077 -2.74194,0.6535 0,3e-5 z m -2.131173,0.0724 c 2.902103,0.44751 0.04032,0.89089 0,0 z m 4.05512,0.11369 c 0.843369,1.04154 -2.343584,1.8075 0,0 z m 5.06903,0.0124 c 3.562312,0.60421 -3.233231,0.44242 0,0 z m -12.593767,0.0341 c 2.579709,0.54152 2.399425,2.52842 0,0 z m 9.355665,0.19741 c 1.399133,1.05557 -1.253762,0.56389 0,0 z m 1.368933,0.0848 c 2.439135,0.54734 -1.502615,0.73089 -0.07135,0.3145 -0.873729,0.0571 0.06816,-0.56765 0.07135,-0.3145 z m -9.044051,0.12558 c 3.217132,0.6723 -0.13999,1.36704 0,0 z m 1.345678,0.19224 c 3.781698,0.0446 2.442223,1.7201 0,0 z m 2.764738,0.14314 c 3.129135,0.16348 -2.806777,0.52004 0,0 z m 3.16627,0.18811 c 1.620963,0.19132 -2.11341,2.14221 0,0 z m -1.529132,0.16071 c 2.271054,1.95514 -1.552165,-0.006 0,0 z m -0.09044,1.15241 c 1.108622,0.57167 -0.897437,1.84627 -2e-6,-3.8e-4 z m 1.472804,0.10387 c 1.315173,0.0738 0.606613,7.51038 0,0 z m 20.73088,0.10077 c -1.907873,1.84698 2.104509,2.62471 0,0 z m -21.154634,0.64183 c 0.549076,4.54798 1.118726,9.1733 1.205153,13.7552 -5.762431,1.20446 -0.789825,-6.59834 -1.725944,-9.67858 0.160587,-1.35374 0.104748,-2.77046 0.520791,-4.07662 z m -0.575169,0.14315 c 0.396734,2.31596 -2.486603,3.058 0,0 z m 14.697034,1.41699 c 1.609572,-0.71848 -0.638883,4.44201 -1.11202,0.57453 0.455973,-1.56951 0.802384,2.03519 1.11202,-0.57453 z m 10.283273,0.11576 c -1.101067,2.28801 1.360245,3.57486 0,0 z m -25.090896,0.12764 c -0.638858,3.25759 -1.551769,1.93933 0,0 z m 2.088281,0.36898 c 0.314036,2.39614 -1.498586,1.87579 0,0 z m -2.231944,1.0289 c -0.284495,3.01547 -2.447171,3.19371 0,0 z m 22.011961,0.20774 c 0.518481,0.17946 0.778129,0.0539 0.597306,0.66027 0.956697,-1.39815 1.762566,4.45747 2.360117,1.03671 -0.797529,1.97273 2.873419,6.8758 0.933807,7.02915 -2.763202,-6.70797 0.461387,6.95068 -1.257757,4.89838 -1.946183,-2.56866 -2.531117,-9.02172 -4.570464,-8.18649 -0.92232,-1.59534 0.952275,-6.18455 1.931805,-4.78954 0.155024,-0.15301 -0.2529,-0.50408 0.0052,-0.64848 z m -19.737642,0.10129 c 0.427959,1.30321 -1.700689,3.66015 0,0 z m -2.448989,1.24542 c 0.304908,2.49924 -1.71447,3.99135 -0.503519,1.79792 -1.363578,1.66079 0.359057,-1.87725 0.503519,-1.79792 z m 6.522714,0.0202 c -1.814426,2.48016 -0.692306,5.55599 0,0 z m -3.992074,0.0718 c 0.192765,2.74921 -1.599853,3.31566 0,0 z m -23.808265,0.077 c -1.524888,1.71383 -0.68962,5.10354 0.260453,1.43147 -0.312062,-0.40819 -0.100127,-1.02132 -0.260453,-1.43147 z m -0.151932,1.46454 c 0.204289,1.5424 -1.217715,1.90889 0,0 z m 24.040813,0.1018 c 0.886972,1.81419 -1.039307,1.29961 0,0 z m 14.440198,0.51161 c -1.866741,2.57062 -1.661023,4.6873 -0.144697,0.42949 l 0.152965,-0.42634 c -9e-5,-0.004 -0.0091,1e-5 -0.0083,-0.003 z M 59.94002,142.8225 c -1.323282,1.21565 -3.503395,5.77581 -1.391045,2.244 0.463682,-0.748 0.927363,-1.496 1.391045,-2.244 z m 8.343306,0.2248 c 0.236104,1.83083 -2.501093,1.95501 0,0 z m 2.521854,0.0279 c 0.761691,0.934 -0.677985,1.06681 6e-6,2e-5 z m 8.085953,0.0605 c -0.746789,1.78507 -2.080953,0.53748 0,0 z m 2.542008,0.27182 c -1.612632,1.1805 -0.70734,1.29443 0,0 z m -10.05641,0.0398 c 0.721277,3.10799 -1.504143,1.8565 0,0 z m -3.235001,0.76173 c 0.05348,1.75568 -2.269906,2.7356 -0.264069,0.20206 l 0.23036,-0.17627 z m -30.896328,0.55811 c 0.392863,2.15347 1.040594,9.49695 1.328629,8.83011 -0.422258,-2.94318 -0.513582,-5.9594 -1.328629,-8.83011 z m 34.439843,0.34314 c 0.407908,1.29295 -1.512856,2.71074 0,0 z m -3.865981,0.60618 c 0.114506,2.42675 -0.03233,0.41548 -0.810389,1.24281 l 0.351567,-0.70359 0.458734,-0.53925 z m 4.008094,0.54829 c 0.764959,1.83962 -1.871935,2.45515 0,0 z m -4.343997,0.74467 c -0.705492,1.70679 1.226313,1.4624 -0.62521,3.00508 0.510078,-1.03138 -0.510733,-2.24809 0.62521,-3.00508 z m 4.548122,0.64494 c 0.405097,3.34745 -1.817853,1.52731 0,0 z m 3.467033,0.0202 c 1.172119,1.7537 -2.130108,3.1148 0,0 z m -9.841949,1.10228 c -0.20448,0.15233 -0.855025,0.68139 0,0 z m -0.414452,0.32195 c -0.541044,0.1618 -0.415467,0.49706 0,0 z m -0.345205,0.26872 c -0.397122,0.30422 -1.329016,1.04005 0,0 z m 4.08406,-0.1385 c 1.936345,-1.03033 3.552716,3.76915 2.495962,3.06802 -0.515326,-1.55027 -0.647146,1.03248 -0.390164,1.9994 -2.248882,0.0318 -1.035674,2.4806 -3.172996,2.38288 -0.412521,-0.8605 -2.183985,-4.61227 -0.286094,-2.56656 0.968344,1.42234 1.18835,-1.01906 -0.188854,-1.10557 -2.181499,0.0368 0.06146,-4.0116 1.542146,-3.77817 z m -14.360098,0.0238 c 1.219796,0.85712 1.886006,1.16817 0,0 z m 1.394771,0.93019 c 1.991681,1.65077 5.288347,3.40437 0,0 z m 3.150768,2.10068 0.218078,0.14521 z m 11.330255,0.46303 c -2.328694,-0.69046 -2.182838,1.71646 -0.881098,1.30877 0.661229,0.33439 1.475186,-0.95373 0.881098,-1.30877 z m 14.305837,0.0734 c 0.880479,0.97601 -1.842569,1.84646 0,0 z m -3.960551,0.62478 c 1.637729,1.17283 -2.520323,2.12019 0,0 z m -24.939482,0.64442 c -1.807486,1.9433 0.627578,4.82975 0.387587,1.39682 l -0.265621,-1.09815 -0.121959,-0.29869 z m -0.07648,0.95603 c 0.858929,1.69852 -0.963245,2.37075 -4.4e-5,3e-5 z m 33.568563,1.11468 c -2.01657,2.32885 -6.35e-4,7.80707 -0.187518,2.58479 0.06251,-0.86159 0.125012,-1.72319 0.187518,-2.58479 z m -12.226341,0.23823 c -2.554462,1.3675 -3.628104,4.80089 -0.991807,1.14947 0.330602,-0.38315 0.661205,-0.76631 0.991807,-1.14947 z m -2.886696,3.34559 c -0.738854,0.6248 -0.553537,1.05315 0,0 z m -13.468147,-2.47224 c 0,1.22733 0,0.25408 0,0 z m 0,0.55553 c 0.268828,1.2705 -0.658221,5.75613 0.714698,4.20808 0.40463,-1.44185 -0.439639,-2.83224 -0.714698,-4.20808 z m -5.34447,0.0667 c -2.065741,3.12678 1.367282,4.44206 0,0 z m -0.01499,0.92244 c 0.62169,1.48564 -0.816018,1.75141 0,0 z m 37.439712,1.97924 c 0.839618,1.05782 -0.405771,0.81606 0,0 z m -37.245922,1.01908 c 0.434248,4.84841 1.663148,0.74007 1.966435,0.88981 0.992087,1.87587 0.149322,2.69711 0.03503,3.37052 0.587557,1.47314 1.087769,6.07699 2.965764,8.10096 -0.369208,3.46923 -8.390357,1.83835 -6.435794,1.53472 -0.744271,0.0995 -4.078585,1.93552 -2.24188,0.40734 -3.751126,2.71516 -5.466544,1.37262 -9.200235,2.48703 -2.897306,-0.21371 1.637928,-3.39087 1.841405,-2.85537 1.367879,0.51793 0.516375,-0.94401 2.679937,-1.22292 -2.795642,0.13356 -7.351853,3.48486 -8.570686,2.70531 1.896847,-3.22519 7.301277,-1.92129 10.195422,-4.63908 -3.608548,1.5172 2.181006,-1.68389 2.829836,-1.78732 1.132849,-0.73648 2.56355,1.10515 0.459929,-0.92968 0.97935,-0.31239 -0.762636,-4.69189 1.637655,-3.91046 1.913921,4.9056 1.209495,-2.60935 1.83718,-4.15086 z m 31.188305,0.5576 c -1.235148,3.2099 2.185363,3.34562 0,0 z m 0.06977,0.73382 c 1.136181,1.28875 -0.606951,1.40587 0,0 z m -23.249117,0.44339 c -2.086846,1.87598 1.448201,5.19623 0.463548,1.09605 l -0.283192,-0.83046 -0.180354,-0.26562 z m 17.08401,0.0734 c -0.606758,0.88436 -3.845274,5.21606 -2.022186,3.00467 0.538931,-1.0918 1.4192,-1.95464 2.022186,-3.00467 z m -2.851038,3.96314 c -0.428264,0.59667 -0.134824,0.189 0,0 z m -0.212394,0.29611 c -0.02651,0.0368 -0.484755,0.67291 0,0 z m -14.003524,-3.43396 c 1.219152,2.19414 -1.065721,2.17761 0,0 z m 4.681966,2.11205 c 1.499124,3.39659 1.514518,3.05423 0,0 z m 1.307437,2.73787 c 1.074702,2.40788 1.656763,3.13738 0,0 z m 17.746514,-2.59472 c 1.778204,1.41168 3.054523,4.75954 4.121267,2.56474 2.975744,-0.0587 4.464346,10.55723 1.53585,4.21584 0.126573,1.01714 1.775053,4.30187 1.989267,1.79906 2.49893,2.11227 0.30685,4.13452 -0.403806,3.94341 -0.391934,1.29024 0.701613,4.04575 -1.948215,4.20083 -0.549554,-0.85587 -1.840707,-1.91189 0.557083,-2.40349 -2.279022,-1.19267 -2.452691,5.17419 -3.643065,1.23727 -1.52382,0.41049 2.401892,-3.44692 -0.146209,-1.50723 -0.546656,1.51266 -2.838198,4.32433 -2.64717,1.27089 -3.806419,0.91577 2.009844,-2.60977 0.977735,-1.98263 1.931037,0.21589 -2.136759,-0.10148 0.27234,-1.14773 -2.172748,0.76161 -3.049552,4.22424 -5.044744,3.50365 1.811573,-3.00213 -4.372139,0.10909 -0.203608,-2.42522 0.153441,-0.99289 2.926482,0.13334 0.944181,-0.63819 0.468132,1.00467 3.026864,-2.6239 3.119765,-2.346 -1.622896,-0.42177 5.614224,-5.16938 1.024245,-2.5725 0.925968,-1.7949 -0.249802,-4.2673 -0.632453,-6.98933 0.351508,-0.13918 -0.13736,-0.57785 0.127537,-0.72337 z m -45.512746,1.38185 c 0.04709,1.98483 2.121274,8.39801 0.760171,2.7699 -0.238923,-0.92568 -0.514676,-1.85066 -0.760171,-2.7699 z m 14.950253,1.217 c 0.740251,2.62039 -0.771392,4.83817 0.893901,1.57689 l -0.448959,-0.995 z m -1.710003,1.97666 c 0.666835,1.73315 1.25081,1.21309 0,0 z m -4.720725,1.30899 c -1.304463,0.51051 -3.152842,1.94398 -0.380036,0.32414 l 0.394506,-0.31846 c -3.66e-4,-0.006 -0.0115,-0.009 -0.01447,-0.006 z m 40.471622,1.17772 c 1.124493,0.86459 1.800695,0.35164 0,0 z m -48.007728,0.82322 c -0.325189,0.34398 -3.853202,0.69589 0,0 z m -2.191635,0.27906 c 0.256157,0.63963 -2.580091,1.05552 0,0 z m -1.95392,1.26144 c 1.234414,1.51855 -4.700853,1.53539 -0.450109,0.0919 l 0.45011,-0.092 z m 50.66911,0.13747 c -0.90341,1.13097 -1.457243,3.2002 -0.207627,0.58426 l 0.19379,-0.45321 0.01395,-0.13126 z M 41.89895,176.8138 c 1.581383,1.69098 -5.40647,2.12772 -0.575169,0.13281 z m 40.527433,4.08613 c 2.530538,1.11199 -3.501221,4.02415 -0.856406,0.4319 l 0.542725,-0.34457 0.313681,-0.0873 z m 3.896988,1.12656 c 2.108965,1.30815 -3.031536,2.81767 -0.278541,0.0816 l 0.278541,-0.0816 z m 3.277893,0.41756 c 1.636309,1.46296 -2.469213,1.9138 0,0 z m 2.651564,0.0935 c 1.308408,0.75634 -1.689017,2.34327 -0.43564,0.28733 z" /><path
     style="fill:#000000;fill-opacity:0.09221312;fill-rule:evenodd;stroke-width:1.30358"
     d="m 244.48779,495.45935 c -1.83056,-0.39046 -3.83558,-1.13094 -4.4556,-1.64552 -1.54191,-1.27967 -1.41847,-4.94015 0.22795,-6.75942 0.83211,-0.91947 1.56923,-3.87976 1.90954,-7.66875 0.51052,-5.68402 0.72177,-6.21019 2.67599,-6.66529 1.71857,-0.40023 2.17135,-1.08564 2.38297,-3.60723 0.298,-3.55093 -1.00801,-6.57973 -2.83717,-6.57973 -2.37664,0 -1.25644,-4.20754 2.63249,-9.88792 2.13162,-3.11355 4.9572,-7.79563 6.27907,-10.40464 1.83462,-3.62105 3.72914,-5.7136 8.00546,-8.84226 3.08114,-2.25423 8.46022,-7.46741 11.95351,-11.58483 12.13466,-14.30269 19.85861,-19.2752 31.28288,-20.13921 6.0401,-0.45682 6.8399,-0.31128 11.85371,2.15701 6.69862,3.29772 8.60955,5.2783 7.88356,8.17089 -0.32444,1.29265 -1.14242,2.15591 -2.04285,2.15591 -0.82597,0 -2.99994,0.76382 -4.83105,1.69737 -1.83111,0.93355 -3.9656,1.69737 -4.7433,1.69737 -0.7777,0 -1.88944,0.57286 -2.47052,1.27303 -0.58109,0.70016 -1.80295,1.27302 -2.71526,1.27302 -1.71687,0 -4.37461,2.50754 -8.71245,8.22003 -2.01498,2.65352 -2.961,3.24875 -4.7468,2.98665 -1.85409,-0.27212 -2.46748,0.17251 -3.63646,2.63593 -0.77339,1.6298 -1.40616,4.67189 -1.40616,6.76019 0,6.06277 -0.91422,9.27723 -2.77708,9.76438 -1.91488,0.50075 -5.40223,7.72322 -6.23068,12.90403 -0.44383,2.77554 -0.26788,3.48274 0.98623,3.96398 1.09933,0.42185 2.15558,-0.16786 3.77493,-2.10759 1.23667,-1.48134 2.71756,-2.69334 3.29085,-2.69334 0.5733,0 1.60086,-1.33668 2.28347,-2.9704 0.95251,-2.27968 1.73802,-2.97039 3.37807,-2.97039 1.17533,0 2.3664,0.5979 2.64682,1.32867 0.39437,1.02771 1.24189,1.20501 3.74153,0.78269 3.09856,-0.5235 3.30105,-0.40999 4.91611,2.7558 1.13239,2.21965 1.42772,3.70156 0.90111,4.52159 -0.43083,0.6709 -0.56351,2.26642 -0.29484,3.54561 0.46723,2.22455 0.37158,2.30241 -2.19716,1.78867 -2.49049,-0.4981 -3.21994,-0.0146 -10.03771,6.65315 -9.72047,9.5066 -12.57789,11.72254 -15.11607,11.72254 -1.73359,0 -2.06974,-0.36315 -1.85476,-2.00372 0.27104,-2.06832 -1.38463,-4.78576 -2.91584,-4.78576 -0.47824,0 -2.4365,1.28243 -4.35168,2.84986 -4.26742,3.49254 -14.48874,8.92403 -18.41137,9.78358 -1.59124,0.34869 -4.39089,0.3145 -6.22144,-0.076 z"
     id="path3"
     transform="matrix(0.26458796,0,0,0.26458796,0,-0.00175083)" /><path
     style="fill:#000000;fill-opacity:0.0922131;fill-rule:evenodd;stroke-width:1.30358"
     d="m 359.99919,541.08784 c -1.34022,-1.01603 -1.54262,-2.52763 -1.55555,-11.61752 -0.008,-5.74722 -0.37855,-11.12906 -0.82306,-11.95963 -0.87255,-1.63036 -3.71438,-2.0419 -4.56755,-0.66143 -0.28849,0.46678 -1.84594,0.84869 -3.461,0.84869 -2.66129,0 -2.88941,-0.18754 -2.43422,-2.00118 0.27625,-1.10065 -0.0908,-3.42053 -0.81561,-5.15529 l -1.31787,-3.15411 -4.59981,0.5747 c -4.18867,0.52334 -4.65044,0.4152 -5.16621,-1.20984 -0.51386,-1.61903 -1.44229,-2.16421 -3.21024,-1.88506 -0.35008,0.0553 -0.63651,-1.16825 -0.63651,-2.71895 0,-2.54297 0.75045,-3.4058 7.65299,-8.79886 l 7.653,-5.97941 -1.61493,-1.99435 c -1.24886,-1.54227 -1.87745,-1.77789 -2.77306,-1.03944 -2.15722,1.7787 -13.31645,7.05255 -14.92286,7.05255 -1.40147,0 -1.60747,-0.72316 -1.68761,-5.9245 l -0.0913,-5.92449 4.61826,-2.88874 c 3.98707,-2.49393 5.6292,-2.96917 12.01524,-3.47728 9.17442,-0.72997 11.21608,-1.19703 11.21608,-2.56587 0,-2.1587 -2.33884,-2.88712 -10.63299,-3.31161 -7.73186,-0.39571 -8.48599,-0.58453 -8.73541,-2.18722 -0.15014,-0.96476 0.54435,-3.07658 1.54331,-4.69293 2.21967,-3.5915 2.03484,-7.64254 -0.34869,-7.64254 -0.98147,0 -2.26699,1.17571 -3.24786,2.9704 -2.70702,4.95302 -11.77247,13.53787 -14.31894,13.55984 -2.1926,0.0189 -2.22889,-0.0834 -3.22869,-9.10424 -0.55614,-5.01785 -1.44261,-10.58835 -1.96992,-12.37888 -0.95331,-3.23698 -0.97897,-3.25248 -4.50964,-2.72302 l -3.55087,0.53249 -1.41058,-5.61556 -1.41058,-5.61555 3.47583,-4.15149 c 4.02101,-4.80266 7.88801,-6.14536 11.13955,-3.86789 3.43662,2.4071 4.95544,1.7919 4.95544,-2.00719 0,-4.12731 1.50212,-5.1268 6.80651,-4.52891 3.29738,0.37166 4.17548,0.91723 6.35801,3.95033 1.39274,1.93552 2.43039,3.82735 2.30589,4.20408 -0.1245,0.37672 1.63716,2.85913 3.91481,5.51645 2.27766,2.65732 6.05845,7.69581 8.40177,11.19663 2.34332,3.50083 6.21192,8.79604 8.59688,11.76714 3.17986,3.96135 4.21303,5.89318 3.87405,7.24377 -0.27508,1.09602 0.61278,4.23508 2.19277,7.75262 1.46026,3.25097 2.96584,7.56842 3.34574,9.59434 l 0.69073,3.6835 -2.87513,-0.53938 c -2.72157,-0.51057 -2.87514,-0.41014 -2.87514,1.88034 0,1.33085 0.73429,4.68985 1.63176,7.46445 4.91081,15.1822 5.3818,17.45137 4.80031,23.12704 -0.36758,3.58787 -1.04916,5.9017 -1.92767,6.54407 -1.16848,0.85442 -1.27409,2.26178 -0.75324,10.03733 l 0.60579,9.04358 -2.39064,-0.027 c -1.31486,-0.0149 -3.08396,-0.5526 -3.93134,-1.19499 z"
     id="path4"
     transform="matrix(0.26458796,0,0,0.26458796,0,-0.00175083)" /><path
     style="fill:#000000;fill-opacity:0.0922131;fill-rule:evenodd;stroke-width:1.30358"
     d="m 269.7625,650.90194 c 0.4143,-2.07152 -0.49233,-4.59938 -4.55959,-12.71304 -4.94062,-9.85592 -5.13198,-10.10222 -7.13847,-9.18801 -2.41156,1.09879 -2.37293,1.25664 2.84947,11.64348 1.89833,3.77561 3.45152,7.10428 3.45152,7.39706 0,0.47216 -2.9343,0.24286 -8.06251,-0.63007 -1.23075,-0.2095 -2.04733,0.4731 -2.9704,2.48301 -1.0732,2.33682 -1.67269,2.73648 -3.81908,2.54605 -2.29658,-0.20374 -2.59227,-0.57211 -3.0177,-3.75934 -0.2594,-1.9434 -0.87569,-4.0439 -1.36953,-4.66777 -1.67038,-2.1102 -2.10579,-10.64265 -0.71317,-13.97565 1.67246,-4.00276 1.61867,-5.32633 -0.40866,-10.0559 l -1.68998,-3.94255 -3.78123,0.56703 -3.78124,0.56703 0.16693,-5.8182 c 0.10799,-3.76383 -0.42866,-7.84096 -1.51984,-11.54683 -1.453,-4.9347 -1.95878,-5.72863 -3.64944,-5.72863 h -1.96267 l 0.2547,12.73155 0.2547,12.73155 -2.70814,-0.001 c -3.25103,-0.002 -3.53567,-0.39039 -4.14272,-5.65952 -0.95719,-8.30835 -0.86541,-8.16539 -4.85745,-7.56646 l -3.56802,0.53532 0.12531,-5.32473 c 0.0689,-2.9286 0.54631,-6.39983 1.06086,-7.71386 1.16779,-2.98224 1.1805,-6.03025 0.0422,-10.12897 -2.13759,-7.6971 -8.38798,-0.63419 -7.37693,8.33589 0.595,5.27878 -1.44503,10.54735 -4.08401,10.54735 -1.0519,0 -4.70001,-1.71858 -8.10691,-3.81908 -3.40691,-2.10049 -6.63451,-3.81908 -7.17245,-3.81908 -1.0302,0 -1.25137,-2.0193 -1.20845,-11.03291 0.0235,-4.93074 0.52728,-6.55272 4.74492,-15.27633 2.81792,-5.8285 7.45616,-13.42865 11.5147,-18.86781 6.40189,-8.57968 6.76447,-9.29489 6.25145,-12.33142 -0.46859,-2.77356 -0.0482,-4.0808 3.01152,-9.36578 1.95587,-3.37826 3.66479,-7.13213 3.79759,-8.34193 0.1328,-1.2098 0.71002,-3.33083 1.2827,-4.71341 0.94632,-2.28463 1.35705,-2.48893 4.50562,-2.24116 3.27453,0.25769 3.54785,0.0963 4.98757,-2.94558 1.89682,-4.00762 3.00044,-4.44536 6.99729,-2.77537 1.74522,0.7292 4.46316,1.32581 6.03987,1.32581 1.57671,0 2.86675,0.32699 2.86675,0.72664 0,1.0054 -5.48359,8.21695 -9.90648,13.02814 -4.21892,4.58931 -4.68778,6.61367 -1.5318,6.61367 2.56687,0 8.03581,-4.83032 14.10594,-12.45876 3.75208,-4.7153 4.62015,-5.36363 7.18147,-5.36363 2.57607,0 2.8664,0.22114 2.50691,1.90954 -0.22362,1.05025 -0.78447,5.34672 -1.24633,9.54771 -2.9024,26.39942 -4.75861,38.62855 -5.80246,38.22798 -0.59774,-0.22937 -2.27867,0.6479 -3.73541,1.94949 -2.28778,2.04414 -2.51729,2.61191 -1.68468,4.16765 0.79239,1.4806 1.49231,1.71537 3.93313,1.31928 2.9098,-0.4722 2.96919,-0.42359 2.96919,2.42987 0,1.60144 -0.41984,3.33155 -0.93299,3.8447 -0.56103,0.56103 -0.67055,1.72832 -0.2747,2.92796 0.36205,1.09723 0.56344,3.21576 0.44753,4.70784 -0.15326,1.97275 0.26899,3.01247 1.54773,3.81106 1.27417,0.79573 1.75849,1.98022 1.75849,4.30069 0,3.937 3.12646,9.09642 5.51645,9.1035 0.93356,0.003 3.51144,-1.54986 5.72863,-3.45027 3.02726,-2.59474 4.03125,-4.04731 4.03125,-5.83236 0,-1.84325 0.57418,-2.61488 2.55685,-3.43614 1.66774,-0.69079 2.71127,-1.8333 3.00093,-3.28553 0.24424,-1.22454 1.00509,-3.94503 1.69078,-6.04553 0.68567,-2.1005 1.2448,-5.06029 1.2425,-6.57731 -0.004,-2.38914 0.28431,-2.75823 2.15187,-2.75823 1.18584,0 3.23932,0.80088 4.56329,1.77972 2.91897,2.1581 5.49082,1.84412 5.85612,-0.71494 0.16664,-1.16739 1.36733,-2.40922 3.14505,-3.2528 1.894,-0.89876 3.481,-2.61529 4.64939,-5.02886 1.86324,-3.84894 3.00414,-4.66471 6.52387,-4.66471 1.35896,0 1.99884,0.38816 1.74885,1.06086 -0.21684,0.58347 -0.85208,3.16135 -1.41164,5.72862 -0.55955,2.56727 -1.649,6.38636 -2.42098,8.48685 -0.901,2.4515 -1.35294,6.03219 -1.2621,9.99935 0.0778,3.39915 -0.17899,5.98218 -0.57073,5.74008 -0.39172,-0.2421 -2.92837,0.32228 -5.637,1.25418 -5.31022,1.82698 -7.74225,4.07639 -12.82466,11.86169 -1.67598,2.56727 -3.82608,5.52706 -4.77801,6.57731 l -1.73077,1.90954 h 3.44044 c 3.08219,0 3.77908,-0.41978 6.69243,-4.03125 1.78858,-2.21719 5.47536,-6.5608 8.19283,-9.65247 4.8782,-5.54991 4.9872,-5.61598 8.59428,-5.20941 3.18323,0.3588 4.0405,0.0719 6.66125,-2.22913 3.21295,-2.82101 7.45153,-3.5991 7.45153,-1.3679 0,1.62571 0.14801,1.61108 4.52735,-0.44745 5.54476,-2.60635 9.49606,-7.21173 11.60364,-13.52448 1.07508,-3.22014 1.63394,-6.47163 1.35342,-7.87424 -0.26619,-1.33094 0.11956,-3.88219 0.87091,-5.76 1.12746,-2.8178 1.74312,-3.37083 3.75256,-3.37083 1.3221,0 2.67476,0.43839 3.00591,0.9742 0.33115,0.53582 0.91823,4.40024 1.30462,8.58761 0.95227,10.32004 2.14862,13.50189 4.95452,13.17717 2.01855,-0.2336 2.18193,0.0368 2.66966,4.41894 0.28573,2.56727 0.93327,6.13611 1.43899,7.93074 0.8817,3.12897 0.84294,3.24374 -0.94387,2.79439 -1.83991,-0.46269 -1.85999,-0.35972 -1.59814,8.19428 0.31634,10.33401 2.45817,16.12363 6.12303,16.55132 1.80936,0.21115 2.41672,1.07393 3.88341,5.51645 0.95623,2.8964 2.00186,5.84306 2.32362,6.54816 0.45726,1.00202 -0.0202,1.28004 -2.18603,1.27303 -2.21858,-0.007 -2.82439,0.36615 -3.03858,1.87249 -0.33068,2.32572 -5.4387,3.60609 -8.00142,2.00565 -0.89852,-0.56112 -2.66636,-0.79341 -3.92856,-0.51619 -2.0835,0.45761 -2.64235,-0.0206 -6.06688,-5.19179 -2.43486,-3.67671 -3.67688,-6.42167 -3.50367,-7.74337 0.14757,-1.12615 -0.22159,-3.70672 -0.82035,-5.7346 -1.17291,-3.97241 -3.6649,-5.48926 -5.69044,-3.46372 -1.81048,1.81048 -2.27113,7.8084 -0.77507,10.09169 1.05824,1.61506 1.13236,2.78648 0.40812,6.44935 -0.7184,3.63334 -0.63827,4.99319 0.42567,7.22431 0.72087,1.51166 1.13005,3.69331 0.90929,4.84811 -0.37951,1.98533 -0.68659,2.09105 -5.64068,1.9421 -2.88163,-0.0866 -5.50202,-0.19763 -5.82309,-0.24664 -0.32108,-0.049 -1.81798,-1.8077 -3.32644,-3.9082 -4.22915,-5.88897 -6.40599,-5.14466 -8.96457,3.06522 -0.85407,2.74053 -1.98349,4.98605 -2.50981,4.99004 -0.52631,0.004 -1.45105,0.60263 -2.05497,1.33031 -0.80976,0.9757 -1.9369,1.18133 -4.29329,0.78322 -2.11473,-0.35728 -4.14628,-0.0959 -6.00753,0.77304 -1.56945,0.73268 -4.77504,1.26037 -7.25362,1.19406 -3.08919,-0.0827 -4.91818,0.3127 -6.00762,1.29863 -0.86146,0.77961 -2.6342,1.41747 -3.93943,1.41747 -2.19227,0 -2.33373,-0.19707 -1.85601,-2.58563 z m 26.25215,-15.26064 c 0.81058,-0.9467 3.61857,-4.83518 6.23995,-8.64109 3.65016,-5.29953 4.56994,-7.23148 3.92815,-8.2508 -1.72863,-2.74545 -3.34039,-1.55197 -9.32996,6.90873 -5.73821,8.10561 -6.04012,8.75287 -4.74841,10.18019 1.74462,1.92777 2.10658,1.90953 3.91027,-0.19703 z m 43.64002,-37.53043 c 0.48699,-7.11835 0.76459,-13.07803 0.6169,-13.24375 -0.55627,-0.62417 -5.93063,6.16065 -6.88591,8.69308 -1.28429,3.40463 -1.38871,11.39246 -0.19371,14.82042 0.73898,2.11984 1.41219,2.6727 3.2545,2.6727 h 2.3228 z M 225.36481,576.18454 c 0.52102,-0.97353 0.82089,-1.86918 0.66637,-1.99033 -0.15451,-0.12115 -2.66785,-1.82126 -5.58521,-3.77802 -2.91735,-1.95676 -5.30428,-4.11638 -5.30428,-4.79915 0,-0.72604 -0.80244,-1.24141 -1.93288,-1.24141 -1.06308,0 -2.80649,-0.6119 -3.87425,-1.35979 -1.80206,-1.26221 -2.02683,-1.24699 -3.13224,0.21217 -0.65498,0.86458 -1.20302,1.82487 -1.21786,2.13398 -0.0278,0.57883 9.0619,7.31728 14.37497,10.65658 3.75488,2.35996 4.8155,2.38927 6.00538,0.16597 z m -2.99536,-25.01347 c 6.19434,-10.09667 6.45579,-10.72146 4.95991,-11.85286 -0.86851,-0.6569 -1.96102,-1.08393 -2.42779,-0.94896 -0.46678,0.13496 -2.73961,3.08182 -5.05074,6.54858 -3.68798,5.53205 -4.24517,6.95211 -4.55447,11.60746 -0.19382,2.91736 -0.15295,5.30429 0.0908,5.30429 0.24378,0 3.3858,-4.79633 6.98226,-10.65851 z"
     id="path5"
     transform="matrix(0.26458796,0,0,0.26458796,0,-0.00175083)" /><path
     style="fill:#000000;fill-opacity:0.0922131;fill-rule:evenodd;stroke-width:1.30358"
     d="m 218.27538,393.2687 c -4.99752,-3.62671 -5.42283,-6.49205 -1.22415,-8.24713 4.15298,-1.73596 5.13317,-3.34613 4.46056,-7.32732 -0.5124,-3.03285 -0.38822,-3.42409 1.08677,-3.42409 2.4406,0 8.91758,-2.4298 9.68136,-3.6319 0.92503,-1.45589 0.84159,-3.15759 -0.15483,-3.15759 -1.77396,0 -4.25312,-3.02453 -4.25312,-5.18871 0,-2.71647 2.44194,-3.60626 7.62322,-2.77774 3.2082,0.51301 3.40968,0.42122 3.40968,-1.55342 0,-1.15426 -0.74318,-2.77121 -1.6515,-3.59324 -0.90833,-0.82202 -1.76763,-2.84756 -1.90955,-4.50118 -0.28669,-3.34047 -2.54362,-5.4758 -4.12073,-3.89869 -0.51646,0.51646 -1.15012,2.51289 -1.40813,4.43652 -0.50304,3.7504 -1.04927,4.01661 -5.24227,2.55492 -1.62,-0.56473 -4.56251,-0.71035 -7.34047,-0.36327 -4.47842,0.55954 -4.63659,0.66777 -4.63659,3.17276 0,2.52619 0.0834,2.58012 3.21484,2.07938 1.76817,-0.28274 4.63248,-0.12264 6.36514,0.35577 2.71248,0.74895 3.1503,1.21264 3.1503,3.33648 0,2.34704 -0.17489,2.46328 -3.60691,2.39718 -1.9838,-0.0382 -7.92997,0.15344 -13.21371,0.42589 l -9.60681,0.49536 0.55087,-2.50809 c 0.70581,-3.21352 -0.61987,-3.2733 -8.5779,-0.3868 -7.20007,2.61157 -11.37454,2.25013 -11.37454,-0.98485 0,-3.17252 2.35324,-7.07723 4.26522,-7.07723 1.40717,0 1.67558,-0.58153 1.67558,-3.63024 0,-1.99664 0.58795,-4.46967 1.30656,-5.49563 1.12709,-1.60914 1.82655,-1.7941 5.09211,-1.3465 2.66473,0.36524 3.78555,0.21767 3.78555,-0.4984 0,-1.37127 9.79293,-5.73024 16.34356,-7.27475 6.30741,-1.48717 17.90686,-1.64978 23.16883,-0.3248 3.69062,0.92931 3.77055,1.02287 3.77055,4.41316 0,2.69401 0.22632,3.23741 1.01842,2.44531 1.65792,-1.65792 5.51028,-1.25864 6.0021,0.62209 0.30828,1.17886 1.31516,1.71622 3.57802,1.90954 2.68396,0.2293 3.46061,0.79827 5.25885,3.85264 l 2.10983,3.58361 -4.8211,2.28268 c -5.64695,2.67371 -7.24012,5.13589 -5.46698,8.44903 1.06174,1.9839 1.50172,2.13382 4.80729,1.63812 3.25584,-0.48824 3.63859,-0.36689 3.63859,1.15365 0,0.9346 -0.38191,1.93531 -0.84868,2.2238 -1.16828,0.72203 -1.06766,4.10932 0.15849,5.33547 0.77712,0.77712 0.55955,1.48367 -0.95248,3.09315 -1.44263,1.53562 -1.81655,2.65618 -1.41723,4.2472 0.46248,1.84268 0.27658,2.13105 -1.26132,1.95652 -1.88492,-0.21391 -2.76356,0.77709 -4.14513,4.67524 -0.66321,1.87126 -1.35255,2.33389 -3.47757,2.33389 h -2.65039 l 0.59101,-5.09211 c 0.54606,-4.7049 0.46349,-5.09211 -1.08578,-5.09211 -0.92224,0 -2.17312,0.59804 -2.77975,1.32898 -0.60663,0.73095 -2.2765,1.92996 -3.71083,2.66448 -1.43433,0.73452 -2.79882,1.5764 -3.03221,1.87086 -0.23339,0.29445 -1.47459,0.99679 -2.75823,1.56075 -1.6275,0.71504 -2.33388,1.65165 -2.33388,3.09457 0,1.13805 0.33143,2.19649 0.7365,2.35208 0.40508,0.15559 0.97964,1.06645 1.2768,2.02413 0.94211,3.03616 -4.30612,2.46325 -9.06383,-0.98942 z"
     id="path6"
     transform="matrix(0.26458796,0,0,0.26458796,0,-0.00175083)" /></svg>
