<svg xmlns="http://www.w3.org/2000/svg" xml:space="preserve" width="210mm" height="297mm" viewBox="0 0 210 297"><g style="stroke-width:1.3;stroke-dasharray:none"><path d="M87.24 128.37c-1.5 1 4.48 4.18 0 0zm-.56.54c-.15 0-.84 1.05-.61 1.49.6-1.11.7-1.5.61-1.49zm.07 2.07c-.26.15.26.79 0 0zm2.29.2c1.27 3.97 2.08 3.84 0 0zm-3.17.25c-.05.3-.17 1.4-.48 2.68q.2-.3.5-.63c0-1.89.03-2.36-.02-2.05zm-.48 2.68q-.46.78-.37 1.33.22-.68.37-1.33zm-.37 1.33c-.64 1.95-1.74 3.83-3.61 3.66-5.28 2.92-9.73 7.14-12.09 12.03-.04-.17-.26.23-.28.62q-.78 1.78-1.18 3.66c-5.2-.36 2.5 5.77-3.13 3.42-3.1-.94-9.46-4.29-3.6-.12 3.42 2.94 7.79 5.9 1.96.85-4.11-3.26 5.53.9 4.77 3.44 4.41 1.58 1.32 5.89 1.74 9.76.08-.44.37-.95.98-1.56-1-2.84 6.75-11.36.68-8.28-3.86 2.6-3.83-4.8 1.46-3.86 7.27-1.23 17.94-4.59 23.31 2.09.47 4.2 8.37 10.91.01 13.27-3.82 2.8-10.65 7.46-13.47 5.66 2.17 4.48 8.97-3.81 8.1 1.21q.25-.69.81-1.78c3.5-8.16 4.67 2.88 5.34 2.77-1.47-3.9-.05-8.2 1.12-1.78.01-.17 0-1.52.14-2.36.11.44.84.1.13-.49.21-.46.6-.12 1.3 2.42.43 2.5 2.01 5.44 4 7.54l-.42-.17c0 .77.78.84.87.62 2.67 2.56 5.92 3.54 8.13.08-.6.5-2.4-.6-.05-1.21.22.43.26.74.21.95q.43-.72.8-1.69c1.77-3.04 2.9-11.58.14-4.52 3.38-.2-6.88 12.53-10.28 3.84-1-.19-5.4-10.84-.73-4.48 1.91 5.06 5.85 3.44 8.93-.05a10 10 0 0 1-3.7 1.84l-.06-.06-.01.08c-2.52.58-4.8-.18-4.73-3.06 6.76 2.95-3.56-4.62 2.91-1.27 3.52-1.16-8.2-1.26-6.29-2.74-3.19 1.3 1.21-4.52 2.05-1.05a32 32 0 0 0-3.03-10.62c.1.07.24-.5-.07-.56q-.01.34.02.46a35 35 0 0 0-4-6.51c-8.2-.92-16.8-.74-24.75 1.48-1.46 1.05-1.82.26-1.54-1.37a1 1 0 0 1-.38.16q0-.06-.06-.19-.22.08-.19.17c-.17-.08-.19-.32.25-.78q.35.15.44.31c.65-3.18 3.33-8.98 5.15-11.3 2-2.87 10.47-7.99 10.25-6.72 1.66-1.57 2.3.51 5.48-1.58-8.45.06 5.18-1.93 3.27-.35 8.56.39 16.82 5.33 21.05 12.72.5 1.51-2.2-1.78-.74 1.45 4.08-1.53 5.79-1.18 1.18-2.25 3.29.65-4.86-4.75-6.19-6.8-4.7-4.98-12.9-2.94-17.1-8.3.34.83.16 1.46-.3 1.91a.3.3 0 0 0-.12.11c-1.38 1.12-4.63.88-4.87-.72zm-17.05 21.83-.06.33q.16-.13.06-.33zm31.26 18.5q.38-.15.9-.44-.64.24-.9.44zm11.88 5.2a8 8 0 0 0 1.98-2.31l-.33.15q-.76 1.16-1.65 2.17zm1.98-2.31c4.6-2.42 3.37-13.4 5.67-16.6 3.77 3.46.55 1.22 1.83-1.1 4.31 2.37 1.2 1.18 4.59.78-5.7-.12-2.2-2.95.08-4.31-5 2.33-9.5 5.26-14.7 8.32-7.95 6.86-11-10.4-3.32-12.14 4.74-.63 4.5-3.28 1.95-2.2-2.4 3.37-7.61.82-6.5 5.34-.02 4.7.15 11.24 1.02 15.1-.57-6.34 6.84.34 6.07-4.62 1.56 4.25.8-2.48 3.26-1.62 1.35-1.05 1.18.13 2.05-2.31 4.39.66.21 16.64-3.86 7.68-.61 1.1-.25 1.72.42 2.2-.1.3.75.67.04.03 1.54 1.07 4.61 1.43 1.72 4.72q-.14.38-.32.73zm-1.86-7.68c.34-.89-1.08-3.73 0 0zm14.03-13.55q.74-.35 1.5-.68c.1-.17-.6.14-1.5.68zm-13 30.45zm-21.58-6.59q-.2.55-.2.91zm-.2.91-.11.4c1.62 2.44 5.87 7.85 7.54 13.32-.24-1.85-.38-3.73-.67-5.13.16.04.31.04 0-.16h-.03c-.35-1.53-.9-2.45-2.04-2.04-.48-3.4-2.3-1.2-1.91-4.84 2.64 2.24 4.27 3.55 1.24-.29-2.04-.5-4.09.24-4.03-1.26zm7.43 13.72c.16 1.18.35 2.34.66 3.36q-.13-1.66-.66-3.36zm-28.3-23.16q-.1.56.18.99-.14-.49-.19-.99zm.18.99c.3 1 .9 1.95 2.02 2.8 1.43-1-1.22-1.5-2.02-2.8zm18.58-42.03c-.18.57.63.6 0 0zm-1.8.49c-.26.15.26.79 0 0zm3.28 2.3c-1.3 1.38.65.94 0 0zm-3.61.11c-.78 1.48.16.98 0 0zm.6 1.46c-.54.15.27.53 0 0zm4.91 1.6c.33.66 1.37.36 0 0zm2.75 1.31c-1.39.55 3.42.02 0 0zm1.87.48c-.35 0 .32.33.23.02zm-6.89.46c-2.19 1.5 2.95 3.57 0 0zm6.54.21c-.15.6.63.9 0 0zm6.55.31c.04.49 1.45.7 0 0zm-13.79.02c-.23 0-.67.42.09.27.06-.2 0-.27-.09-.27zm-6.41.09c-7.75 4.7-.26 1.8 0 0zm16.76.45c-.54.14.26.52 0 0zm-18.35 1.48c-1.75.66-.28.45 0 0zm9.98.45c.01.41.32 8.69 2.1 8.19.16-.05-1.58-7.61-2.1-8.2zm10.65.52c-.55.18.54.4 0 0zm.7.07c.22.51 2.03 1.14 0 0zm42.1.47c-.24-.01-.71.04-1.02.04 1.12.02 1.98.2 1.91.54.39-.34-.02-.52-.89-.58zm.9.58c-.32.27-1.17.65-2.75 1.17 1.92-.49 2.69-.88 2.74-1.17zm-1.92-.54h-.24zm-.24 0c-3.04.05-8.32.76-10.1 1.56-4.6 1.41-9.62 2.14-14.02 3.85 6.34-1.5 12.74-3.66 19.15-4.37-4.07 2.03-.17 6.63-.34.93 5.05-.03 2.9-.8 2-1.43.9-.37 2.2-.53 3.31-.53zm-57.12.04-.44.3zm18.14.25c-2.31 1.2 2.19 1.33 0 0zm-25.82.08c-.6.4-.27.94 0 0zm24.73.1c-.93.06-.34.79 0 0zm-27.3.15c-.88.33-.2.82 0 0zm67.5.04c-.54.06-.6.58 0 0zm-34.35.06c-.4.74 1.13.88 0 0zm-.48.19c-.6.3.65.48 0 0zm-3.58 0c1.94 2.78 3.39 2.49 0 0zm-1.96.12c-.5.01.15.2.2.15 0-.02-.04-.07-.2-.15zm-26.82.06c-.68-.04-2.18 1.72 0 0zm-1 .19-.44.3zm23.56.2c-.38.1-.52.14-.53.16.05.02.74-.1.53-.15zm-1.18.1c-1.59.22.12.49 0 0zm-19.93.1c-.23.03-.53.63-.49.68.03.03.17-.13.5-.69zm8.66.07c-.55.3-4.88 4.4-4.74 4.4.15-.01 4.81-4.16 4.74-4.4zm-10.62.1c-1.2.51.28.42 0 0zm-1.67.89c-2.34 1.02.12.85 0 0zm13.47.23c-.71.12.28.63 0 0zm44.93.12c-3.23 1.44-14.8 3.83-12.22 4.93 3.7 2.66 1.23-3.37 6.36-1.85 2.04-2.36 10.34-1.21 5.86-3.08zm1.19.06c-1.01.22 1.33.2 0 0zm1.47.3c-1.47.56 3.26.24 0 0zm-60.33.14c-.5.33.3.53 0 0zm31.84.21c-1.84.2 1.45.38 0 0zm28.51.1c-.49-.01.27.36.3.03zm-36.56.22c-.94.33.42.4 0 0zm13.28 0c-.15 1.01.8.67 0 0zm-10.43.19c-1.24.46.14.49 0 0zm-25.46.02c-1.66 2.05 2.54 1.9 0 0zm30.47.07c.02.6.92.58 0 0zm-3.97.16c-1.17.68-.84 1.15-.15 1.37h-.13c.5.55 1.63.33 1.2.15 1-.02 1.62-.5-.92-1.52zm6.87.21c-.54.15.27.53 0 0zm-36.9.06a7 7 0 0 0-1.1 1.5c.03.02.33-.36 1.1-1.5zm41.02.24c1.77 1-.75.83 0 0zm-3.78.01c-.13.43.53.52 0 0zm27.17.17c-1.63.39-1.85.63-1.58.68-2.6-.28-2.05 3.74.08.01.39.03 1.31-.18 1.5-.69zm-62 .27c-1.21.97.2.49 0 0zm32 .05c-5.84.92 1.9 1.34 0 0zm1.01.21c.12.6 1.28.32 0 0zm2.42.2q-.51.02-.51.05c.04.05.84.1.51-.04zm7.82.09-.43.3zm-43.2.31c-.3.07.29.5 0 0zm-.55.06c-.85.73.76.26 0 0zm-2.8 0c-.43.24-.3.73 0 0zm36.82.11c.09.2.48.46.52.46v-.01c0-.03-.12-.15-.51-.45zm-4.32.05c-3.4 1.57-3.45 2.98 0 0zm-33.67.39c-.04.96-1.18 1.25 0 0zm5.08.2c-2.57 3.5 4.12 1.93.27 1.99l.58-.56c-.06 0-1.35.92-.85-1.44zm8.41.01c-.3.07.29.5 0 0zm15.68.15c-.72.12.28.63 0 0zm7.45.15c-2.2.14.82.53 0 0zm-3.57 0c-.72.13-.23.43 0 0zm-29.38.18c-.41.23-.29.73 0 0zm.6.05c-2.8 1.65-1.14 4.3 0 0zm55.74.04c-.7.1.29.62 0 0zm-46.83.35c-1.43.78-1.03 1.4 0 0zm.9.01c-1.16 1.32 3.37.6 0 0zm48.18.13c-3.62-.1-9.37 5.47-4.24 1.47 1.47-.87 3.4.16 4.58-1.45zm-14.9.27c-5.05 1.47-14.38 7.51-9.45 10.75 4.48-1.94-2.57-.7 2.1-4.7h.05c-.37.3 1.03.15.2-.02 2.72-.18 4.19.24.61-1.77 2.53-2.01 7.04-.66 6.5-4.26zm-27 .09c-5.9.64 5.13.5 0 0zm-9.97.24c-.43.01-.6.03-.61.05.02.05.98.09.61-.05zm12.13.05c.27.64 4.22.3 0 0zm-22.16.28c-1.56.86.04 1.8 0 0zm26.46.13q-.41-.01-1.12.05c.68.99 3.06 0 1.12-.05zm-17.2.09c-.72.1.28.62 0 0zm19.19.14c-.3.86 4.13-.04 0 0zm-2.65.21c-.71 1 .65.55 0 0zm-.92.15c-.55.16.26.66 0 0zm-19.92.06c-.5.31.23.7 0 0zm8.15.22c-2.66.61-.27 2.72 0 0zm-11.91.02c-1.99.42-1.9 1.17 0 0zm29.77.19c-.26 5.08-1.31-1.22-2.37 1.56q-.52.3-.5.34h.01c.03.02.2-.05.42-.15l-.16.53c-5.8 1.21 7.53 2.48 2.6-2.28zm-3.76.02c-1.07.7.32.69 0 0zm26.79.03-.44.3zm-23.56 0c-.66.01.63.42 0 0zm-8.13 0c-3.8 0 .39 3.3 0 0zm-19.34.15c-2.44 1.84 1.99.34 0 0zm-16.16.23c-.5 0-.54.23.53.93 6.84 1.32 1.01-.91-.53-.93zm.53.93c-.44-.14-.9.01.42.4 0-.2-.21-.34-.42-.4zm16.46-.78q-.34.5-.54.88l-.42-.06c-.52.32-.16.42.24.4-.3.7.08.62 1.2-.64zm-3.8.04c-.9.33-.22.82 0 0zm47.88.18c-.4.39.44.63 0 0zm-14.49.15c.08.48-1.3.79 0 0zm-46.54.25.16.1zm3.39.16c3.26 1.13 6.37.43 1.2.03zm12.19 0c-.1.01-.27.52.02.63.07-.48.03-.63-.02-.63zm47 .05c-.5.32.3.53 0 0zm6.63.11.3.33zm-40.37.1c-.36 0-.5.01-.51.03v.01c.05.05.84.1.51-.04zm6.41.09c2.64 1.66 3.89 1.55 0 0zm26 .02c-.3.07.29.5 0 0zm-40.1.3c-.71.1.29.62 0 0zm14.22.11c-1.21.1 1.87.32 0 0zm6 .03.02.02zm-14.97.1c-.35 0 .32.34.22.03zm5.56 0c-.36 0 .31.34.22.03zm-6.55.03c-.97 0-1.32.01-1.34.03.05.03 2.04.08 1.34-.03zm-7.58.14c-.6.01.56.44.37.02zm16.46.17c.65.3 2.88-.02 0 0zm-14.96.23q-.51.02-.51.05c.01.05.85.1.51-.04zm-4.23.07c-.84.15-.27.75 0 0zm3.08.11-1.58.26zm-4.02.1c-.72.1.28.62 0 0zm30.4.5c-1.24.47.13.5 0 0zm2.1.2a1 1 0 0 0 .52.45c0-.03-.12-.15-.52-.45zm-7.85.03c.01.62.91.58 0 0zm-.44.74c.16.86 1.04.63 0 0zm11.26.32c-1.5.43-.84.83 0 0zm-30.5.16c-1.73 1.41.49.1 0 0zm11.92.02q-.35 0-.96.07c-1.04 1.04-8.82 1.49-7.65 2.71-1.52 1.17-2.91-.15-3.14-.39.1.12.43.52 1.05 1.47-8.4-2.63 8.79 3.62 6.18 1.9-1.9-.74 2.73-.6-1.14-1.21 3.07.41 8.92-2.12 2.8-3.37 2.38.44 5.84 1.23 1.61-.28.85 0 2.92-.91 1.25-.9zm10.45.04c-.37 3.35 3.03.96 0 0zm18.93.17c-.28.03-.74.62-.7.67.02.02.2-.13.7-.67zm-21.42.18c0 .27.44.7.48.66.02-.02-.09-.2-.48-.66zm18.79 1.02c-.87.27.92.15 0 0zm-41.01.09c-.26.18.22.95 0 0zm17.72.05c-1.96.59-1.32 1.1 0 0zm20.46.47a12 12 0 0 0-1.72.18c2.15.2 2.86-.18 1.72-.18zm16.4.04a9 9 0 0 0-2.32.18c-2.4 3.44 8.72-2.06 1.28 2.03-2.45 1.63 2.91-.61 7-.76-2.02-.51-3.8-1.35-5.97-1.45zm5.97 1.45c.83.2 1.71.36 2.68.4l.14.03a6 6 0 0 0-2.82-.43zm2.82.43q.34.17.6.41c5.81 2.06-3.8 1.48-1.23.84-2.53-.6-10.58 4.4-2.34 1.28 4.45-2.65 13.31 4.04 15.72 6.4 2.35 1.84 4.7 1.11-.45-1.1-6.34-3.8-6.14-6.25-12.3-7.83zm-39.6-1.87c-.06.57.72.14 0 0zm-12.18.03c6.26 2.07-8.58 3.2-1.12.1zm19.85.1c-.5.33.3.53 0 0zm-14.97.45c-.5-.02.26.36.29.03zm9.7.01c-.3.07.29.5 0 0zm-2.54.2c.05.9.88 1.16 0 0zm13.44.1c-.75.28.5.57 0 0zm-27.7.31q-.13 0-.42.13c.13.96.92-.12.42-.13zm47.46 0c5.78.47-3.37.76 0 0zm-28.73.01c.13 1.24.4.4 0 0zm8.49.08c-.61.4-.28.94 0 0zm.7.02c-.54.15.27.52 0 0zm-20.68.1c-.36 0 .31.33.22.02zm-8.83.44c-.06.7-1.09.72 0 0zm-14.96.04c-.08.02.57.52 2.63 1.84a11 11 0 0 0-2.63-1.84zm65.35 0c-2.65.24-.69.6 0 0zm-61.03.1c.78.1-.53.47 0 0zm9.3.34c-.09.74-1.19.5 0 0zm-2.43.12c-1.96.27.72.44 0 0zm-5.4.13c1.1 1.26-3.94.67 0 0zm62.41.08c-.3 0-.41.03-.43.05.04.05.7.1.43-.05zm-10.7.04c-.93.75-.6 1.34 0 0zm-17.05.03c-3.1.34 2.64.6 0 0zm18.93.05c-.96-.05-2.57 1.84.1.01zm-24.43.08c-.99 0-2.6 1.87.1 0zm-33.2.06.4.28zm20.56.01c-.32.07-.96.78-.92.82.03.02.27-.17.92-.82zm-18.11.28c.93.57 1.12 1.53 0 0zm44.28.14c-.13.5.82.57 0 0zm4.72.04c0 2.82 1.43.89 0 0zm.48.07q-.05 0-.11.1c.31.69.3-.1.11-.1zm-37.52.12c.87.28-.93.15 0 0zm43.19.03c-2.77 2.8-2.25 5.2 0 0zm-34.03.02c-.7.15.48.53 0 0zm23.9.27c-.19.8.87 1.04 0 0zm-42.95.01c-.54.15.27.53 0 0zm35.96.01c0 .6.7.53 0 0zm-23.25.08c-.5-.01.26.36.3.03zm38.38.03c-.9.17.8.46 0 0zm-52.93.06c.06 2.04-1.05.21 0 0zm43.54.02v.01l.11.17c.07-.01-.06-.18-.1-.18zm-11.69.04c.67.2.1.82 0 0zm-3.49.03.12.05zm23.44.19c-2.1 2.75-5.63 15.32-2.4 6.01.57-2.1 1.63-4 2.4-6.01zm-20.77 0c-.93.7.49.35 0 0zm-.56.07c-.61.37-.05.92 0 0zm35.52.09c-1.26.1.53.4 0 0zm-41.5.07c-3.87 1.62-1.3 3.34 0 0zm-20.79.08c-1.05.05.11.45 0 0zm28.25.1c.87.15-.37.38 0 0zm-23.55.15c-.16.13.34.28.62.32 1.54 2.48 3.83.6 0 0 .28.04.35-.03-.62-.32zm64.12.05.45.33zm-65.18.14c-1.26.1.53.41 0 0zm61.8.45c-2.95 1.5 1.8 1.21 0 0zm-19.41.01c-1.71 3 .02.86 0 0zm-21.07.2c-.1.77.75.2 0 0zm41.8.01c-.35 0 .32.33.23.02zm-50.09.15c-.16.5 1.28.08 0 0zm45.71.15c-1.5.06.67.6 0 0zm-1.33.07c-.75.28.49.57 0 0zm-27.2.05c.34.56-.37.1 0 0zm-19.62.02c-.54.18.54.4 0 0zm-6.57.07 1.06.56zm59.2.07c-.24.25-.18.34-.06.34-1.16.59 1.53 1.75.27-.1.07-.08.06-.17-.21-.24zm-11.69 0c-.54.15.27.53 0 0zm-39.67.06c.15.67 1.5.29 0 0zm36.6 0-.44.3zm-26.87.25c-.25.19.22.95 0 0zm-18.77.01c-.92 2.85.34.68 0 0zm47.14.12c-.24.05-5.53 4.71-5.7 5.5-3.03 3.72 2.07 17.76 2.52 8.38.54-.29 1-.3 1.4-.11-.51 1.25.12.76.23.13.59.42 1.03 1.31 1.39 2.42.05-.85.65-1.43 2.2-1.22 2.57.52 1.61 2.67 1.35 3.07q.05.58.03 1c-.57.33-.4.73-.02.17-.1 1.1-.61 1.3-1.21 1.01q.15-.14.53-.55c-.2.02-.48.32-.62.5a5 5 0 0 1-1.74-2.01c.66 2.86 1.08 6.03 2.09 6.32 3.54 2.6 11.07 4.02 6.84 5.33 5.9 3.28-5.9 3.45-8.12 1.04-1.14-.2.69.69.75 1.14 3.11.24 4.7 2.08-.67 2.32-3.26.65-11.12-2.47-6.58.48-5.84 1.04-7.77-3.46-3.02-3.76-3.13-2.23 5.06.64-.57-2-.74-4.6 4.18-9.07 3.93-11.43-1.97 1.69-3.12 8.7-5.63 8.94 2.93 1.58-.36 5.85-3.23 4.82l-.1-.06.05.04-.13-.05q-.18-.03-.52.04c.15.85.9.32.73.06 5.17 3.45-6.4 4.15-2.4.34q.09.01.1-.1.17-.16.4-.33l1.17.03.34-.13c-.66-.35-1.28-1-1.77-2.08-.7-1.75.9-3.42 2.7-3.14q.78.01 1.38.13a7 7 0 0 1-1.43-1.56c-.4-2.21-2.32 4.18-4.23 2.06 1.21 2.2 1.03 2.93.16 2.78.02-.06-.05-.19-.3-.38q0 .24.1.34c-1.95-.56-6.5-4.56-7.8-7.2-2.81-3.02 4.62 1.5-.13-2.07-1.71-.05-2.65-1.6-2.7-1.6-.02.02.2.44.65 1.66 1.64 1.42 3.03 4.24 1.52 3.76 4.8 3.1 6.38 9.76 6.49 16.52.42-3.35 0-6.93-.77-10.43l.24-.52.36-.2c2.81 3.21 1.26 5.88 7.32 6.78-.09 1.04-.57 2.1-.9 2.91.06-.5-1.78 1.06-1.83 2.44 1-1.11 1.52-1.8 1.73-2.17-.47 1.22-.41 1.76 2.34.62 5.28-.67-.83 11.56 2.78 4.04 1.91.84-.77 13.82-3.17 7.78.23-2.04.92-4.58 1.27-6.72.06.21.57.06.23-.43a1 1 0 0 0-.2.27c.56-3.61.06-5.97-5.5-2.62-1.88 4.16-8.74 10.85-9.39 11.63 4.44-3.28 4.6-5.44 9.52-8.09-5.09-.23 10.32-6.52 3.63 1.22.4 6.13-8.23 6.02-11.78 6.89-3.02.6-5.44 12.36-9.15 6.5 3.64-2.55 2.76-9.51 2.06-8.31 1.24 5.17-.54-1.08-.57 3.93-.1 4.25-2.68-6.62-7.39-3.68-4.25-3.25 9.44-2.1 1.32-3.62.36-3.88 4.75-4.67 7.96-3.56-1.77-1.22-3.7-2.12-5.43-1.03.95-1.47-1.3-1.09 1.88-2.75a4 4 0 0 1 1.97-.14c-2.42-.5-3.8-1.35.06-4.07 2.5-3.58 1.37-5.1-.56-.68-4.95 3.42-4.79 14.45-10.3 15.02 2.52-3.64-1.1-7.21.3-3.41-.45.08-.13.19.09.2q.09.24.22.53c-1.6 5.38-10.3 13.56-10.78 15.2 2.87-2.26 3.42-3.58 8-3.16 5.85-.77-.91.63 1.44 1.56-3.75 1.1-1.7 2.67-1.9 3.24a5 5 0 0 1-2.69-.83 5 5 0 0 1-.84-.66 20 20 0 0 1 1.35 1.78c3.65 4.15 15.3-1.33 9.88 5.76-1.35 4.23 1.72-5.02 4.31.42q1.35.37 2.64.96c-.8-.51-1.13-1.4-.27-2.1-4.02 1.55-5.82-2.84-.63-4.16 2.94-1.19 5-4.23.9-4.4a62 62 0 0 1 5.1-1.8c-1.12-.01-2.08-.38-2.72-1.2.35-1.36 6.3-7.74 3.6-3.34 2.17-3.36 6.77-1.16 9.66-4.02.3 2.64-3.1 5.98-6.63 7.6 4.26-.78 8.22-.43 8.19 3.58 2.47-.35 3.11.39 2.73 1.63-3.49.49-1.32 1.57-.09.25-1.12 2.85-6.89 7.9-8.73 8.84-.77 1.24-5.68.59-.93 2.86 1.57 2.02 3.29 2.19 4.74 1.61.23.1.6.15.55-.11l-.21-.04q.72-.36 1.31-.9a2.6 2.6 0 0 1-1.83 0 1 1 0 0 1-.5.52c-.2-.07-.72-.22-1.67-.42-.46-.56-.3-1.46 1.77-2.12.16-2.33 2.4-8.01 3.53-2.38 2.7-6.48 1.65 4.62 3.9 1.18 1.3 2.54 1.19 9.08 3.74 4.26 1.04 5.22 5.55 5.97 4.32 2.78-2.32 6.55-4.39-11.4-5.64-1.87-2.49-3.87-1.62-8.71-3.62-6.92-3.02-6.91 2.1-7.66 4.29-6.04-.86-2.4-.82-4.52 1.03-3.3l.1-.2c.34.15.32.33.2.42l.34.28c-1.4-3.46 8.73-10.78 6.2-2.09-.95 2.84-4.57.74-3.23 2.64 2.48-.9 2.93 2.47 3.49-2.48.15-2.35 2.16-7.1.88-2.18.56-1.71 1.68-4.04 2.4-4.74a.4.4 0 0 0 .22-.18c.46-.23.63.6.1 3.45-.52 2.98.7-2.17 1.54-4.07.04.12.28.23.08-.12h-.03c.44-.95.77-.89.63 2-1.24 6.88-.14 13.66-2.18 18.58-1.9-7.24-5.85 3.18-1.07 4.15 2.18-.38 1.3-11.33 4.43-4.54q.3-.53.59-.93c-.65.54-1.54-.17-1.23-4.06 1.98.78 2.06 2.56 1.6 3.54 2.84-3.65 3.04 2.6 4.62 5.78 1.77-5.39-5.29-9.6-.07-16.1 2.3-4.24 6.51-4.34 10.17-.1-3.8-7.18-10.58-2.9-12.98 2.29-1.83 2.07-2.88 7.91-2.65.9-1.1-3.73-1.84-7.38.39-9.88a7 7 0 0 1 .52-2.44c.1.05.29-.16.27-.59 1.33-2.64 4.14-4.8 6.88-6.64.35-.14.74-.36.92-.6l2.61-1.67c-4.39 2.72-1.92-1.16.32-1.47q-.2.25-.18.27c.04.01.28-.21.29-.29.83-.07 1.6.37 1.98 1.84-1.3-5.25 1.87-5.94 2.04-.44 1.4 8.19 8.5 5.35 9.6 11.97-.04 3.84 5.87 8.7.36 7.18-1.22 2.78 4.03 12.67-1.88 6.17-3.83-2.26-1.75-13.6.26-4.84 1.35 3.6-1.6-6.97.74-2.43-1.13-2.89-3.15-10.32-3.75-4.25-1.22 2.02 1.86 13.55-2.84 4.67-4.52-1.67 2.87 3.04-.36 6.74.64 3.5 3.42 1.38 3.86-1.14 2.7 1.58 7.15 8.43 5.06 1.15-1.12-3.49-1.01-5.71 2.47-3.46.07-3.21-5.44-12.61-4.04-14.8-.85-2.42-.62-4.16-1.68-1.53l-.43-.15q.12.13.4.24-.08.17-.16.38c-2.55.73 1.6-3.48-2.48-.98l-.14.17-.29-.05c-.3.22-.13.29.08.27-2.4 2.27-2.44-7.54-4.06-5.26l-.23-.41c.18-.12.6-.45 1.41-1.11-.3.07-1.16.8-1.43 1.06-.49-1.08-.23-1.95.2-2.75q.12-.05.26-.2l-.15.01c.91-1.58 2.3-2.87-.73-4.93-.62-2.76 1.74-.38 3 1.06l-1.04-1.31c-1.64-3.7 5.47 4.28 4.6 5.14 2.75 2.38 2.53 9.25 3.68 8.25.49-3.92-7.31-13.78.62-7.8 7.25-.6-6.72-1.13-3.12-5.87-3.93 3.67-4.48-5.76.13-.8 3.42-.58 6.24 9.88 3.43 1.5-3.31-3.89-15.78-4.51-8.75-10.14 3.16-2.4-3.36-7.1-.5-9.1-3.63-3.16-3.71-6.85-2.04-7.68-.87-.64-2.52-1.42-1.96-2.8.13 0 .4-.13.16-.27-.2.14-.24.21-.21.24-5.07-1.81-8.94 0-12 2.22l.35-.18c.03.47-.77.54-.45.26-.7.5-1.4 1.02-2 1.53-3.04 2.41-1.7 3.27-4.54 5.87-2.8-.14-5.09-2.17-7.67-3.21l-.12-.11-.13.01a8 8 0 0 0-1.67-.44l-.07-.02v.01a6 6 0 0 0-1.34-.04c-2.16-3.97 3.14-6.59 4.47-10.6.68-.66.92-.92.86-.9zm12.21 7.9.07-.04zm20.67 32.18a3.1 3.1 0 0 0-2.1-.79c1.27.8 1.9 1 2.1.8zm-2.1-.79c-2.45-1.6-2.74-.21 0 0zm-6.56 4.62c-.7 1.09.56.33 0 0zm-13.08 28.7-.38.52q.21-.19.38-.52zm-14.43-8.96q.24.64 1.06 1.05-.6-.64-1.06-1.05zm-.34-.29-.3-.21c-.14.34.15.34.3.21zm-1.33 3.08q.36.99.89 1.95c.15-.8-.24-1.48-.9-1.95zm-10.12 11.01q.23-.47.05-1.4c-.69.69-.54 1.17-.05 1.4zm1.83 0c.73-.25 1.35-.79 1.36-1.67a6 6 0 0 1-1.36 1.68zm1.36-1.67c.4-.77.37-1.35-.3-1.17q.3.66.3 1.17zm-8.92-16.05c-1.31.24-2.65.59-3.91.97a9 9 0 0 0 3.9-.97zm-9.28 11.32q.57-.22 1.2-.6-.8.26-1.2.6zm1.2-.6c1.65.32.66-1.5 0 0zm-.93 2.7q.27.18.6.3zm.6.3c5.17 2.59 9.58 7.65 10.3 11.36 3.67.36-4.62 5.8-.59 4.34-2.3 1.42-9.42 2.09-2.72 1.64 6.15-.07-.58 2.71-.97 3.09h-.01q-.5.08-.64.13c.24-.72-2.62 1.46-.03.08.29.07 1.77-.04.85-.19.34-.07 1.21-.32 2.91-.84 3.44-.22-2.77 2 1.41 1.84-2.23.98-6.78 2.8-2.02 1.53-.17 0-.27-.06.06-.25.27.05.31.11.25.16l.37-.1c2.48-.88.5 1.39 4.67 3.08 5.63 4.1-4.24-2.6-4.7.66-3-3.9-12.55 1.45-13.25.64l.3-.16c-1.64.62-2.4.8 1.3.66 1.87-.77.5.29-1.63 1.64q.6-.24 1.83-.67c3.06-1.86 7.1-3.73 11.94-1.7 4.21-1.77 7.64 13.73 5.46 4.13-4.88-4.45-.53-3.88-.15-3.18 5.7-.02-5.97-3.43-3.86-7.75-1.69-2.95.99-2.28 2.86-1.88q-.35-.2-.8-.58c-1.33-1.57-5.35.42-1.99-1.64 2.83-5.27-5.33-11.62-5.38-14.3.18.06.5.1.09-.12h-.08q.01-.32.22-.56c-2.47.8-3.85-.8-3.57-1.36-.78.52-1.7.54-2.43.3zm2.43-.3.21-.16a.3.3 0 0 0-.2.16zm3.57 1.36q.56-.18 1.18-.53-.86.15-1.18.53zm7.94 17.2c.64.39.98.38 1.12.18a8 8 0 0 1-1.12-.18zm1.12.18c.55.02.67-.21-.14-1.08.2.42.28.86.14 1.08zm-.14-1.08c-.25-.51-.67-.99-1.04-.99q.67.59 1.04 1zm-19.06 11.95c-.67.26-.84.38-.7.44zm-.7.44c-2.03 1.23-4.45 2.57-5.53 2.9-3.98 1.31-7.7.99-10.86 1.61-.48 0-1.38.1-1.27.32-1.6.5-3 1.38-4.2 3.02q.34-.37.83-.76c-1.01 1.86-1.6 2.29-1.6 2.01q-.3.56-.57 1.2c3.52 2.46 5.08 1.18 7.5-1.14 2.55 1.81-5.04 4.2 1 3.33 2.11.23 9.4-.77 10.89-1.42l.81.48q.1.05.23.06-.12-.11-.23-.22l-.67-.4.04.03.14.04.46.29h.01l.06.01q-.04-.01-.06-.01l-.05-.06-.04-.07-.15-.3-.15-.26q-.2-.27-.48-.44l-.87-.34c.19.12.38.23.52.42l.08.11.11.23q-.52-.08-1.68-.1c3.35-3.13-10.6 5.17-9.24.06 4-2.34-3.05-1.8-5-.44 2.06-2.34-5.79 2.66-.48-1.93-.42.17.32-.88 1.06-1.8.16-.02.53-.15.65-.32l-.56.21c.86-1.05 1.66-1.84.56-.21 5.15-1.5 6.36-.18 7.44-1.86 6.35-.11 11.65-4.9 16.55-3.26-1.38-1.26-4.82-.82-5.25-1zm-2.96 11.36.06.01a3.6 3.6 0 0 0 1.93-.36l.19-.13.06-.07-.26.2a3.66 3.66 0 0 1-1.94.36zm2.24-.55.08-.08zm.08-.08h.03c.16-.04.34.07.5.03.08-.02.1-.13.13-.2.08-.17.1-.25.15-.43l.01-.05c5.18-2.07 10.48-1.27 15.6-2.17-3.23.2-3.99-2.3-7.39.07 2.96-4.89-4.08-6.94.36-2.1-.34 2.28-6.85 2.95-8.73 3.6-.5-.37-.57-.41-1.08-.44.03.07.14.16.1.23h-.01.02l.35.16-.02-.08c-.01-.03-.07-.09-.08-.1h.01l.62.26-.14.05-.16-.02-.23-.1q.01.13 0 .28c-.05.19-.05.24-.14.42-.03.06-.12.11-.11.18.03.15.2.25.22.4zm-.33-1.46h-.2c.07.01.15.05.2 0zm-.2 0-.07-.02q-.56 0-1.1.08l-.62.08-1.12.1-.38.05h-.04l.05.01.38-.04 1.12-.1.62-.1a7 7 0 0 1 1.16-.07zm-3.33.3h-.1v.01zm-.1.01c-.18-.07-.33-.19-.5-.26-.05-.02-.1.02-.15.01l.8.57c.28-.1.02.1-.14-.31zm20.38-1.67a9 9 0 0 0 2.77-.68q-1.38.44-2.77.68zm-18.8 3.44.02.04zm.1.09q.07.06.1.06zM71.9 280.7q.37-.7.78-1.25c-.54.58-.79 1.07-.78 1.25zm23.65-11.84c.99-.37 2.3-.9 3.14-1.61-1 .55-2.14 1.08-3.14 1.6zm3.14-1.61c1.66-.92 2.89-1.89 2.27-2.91.2-.03.3-.18-.26-.43l-.05.05q-.3-.28-.78-.56c6.07-.12-2.74-.69 1.43-1.78-2.48-.1-2.86-2.4-1.05-2.19-1.79-.65-.7-.6-3.34-2.8.38 5.6 2.44 3.21 2.64 8.94.07.65-.29 1.2-.86 1.68zm-1.78-10.63a6 6 0 0 0-.35-1.4c1.82-.03-4.27-6.95.07-3.58-2.76-2.23-8.5-11.97-5.23-3.82 3.2 1.64 2.85 4.42 4.67 7.3-.15.5 0 1.57.84 1.5zm3.34 2.81q.47.18 1.3.45-.78-.39-1.3-.45zm7.92 5.31zm-9.04-51.13c1.07.75 2.08 1.6 2.97 2.22a5.4 5.4 0 0 0-2.97-2.22zm2.97 2.22c.63 1.12.59 2.53-.62 4.13-2.08-3.02-1.83 5 1.09-.07a15.1 15.1 0 0 0 6.33-10.15c-1.38 1.82-2.94 5.24-3.86 5.48-.25 1.15-.73 1.5-1.4 1.38.03-.1-.06-.4-.4-1 .03.48.19.85.3.98-.42-.1-.9-.38-1.44-.75zm6.8-6.09.12-.16v-.63zm-6.37-17.31q-.57-.37-1.2-.67.77.54 1.2.67zm14.16 2.21q.7.5 1.28.43a5 5 0 0 0-1.28-.43zm-2.31 5.09.18.09.07.01-.2-.12zm16.13.79a9 9 0 0 0-2.14.1c1.7.26 2.18.14 2.14-.1zm-1.56-13.83q-.23-1.05-.52-1.97a4 4 0 0 0 .52 1.97zm-24.81-18.24c1.55.32-1.07.35 0 0zm12.42.05c-.16.01-.65.89-.18.86.26-.66.26-.87.18-.86zm17.3.11c-.35 0 .32.33.23.03zm-9.61.03c-5.5 6.68 3.67-.52-.78 1.67l.77-1.59zm-22.07.39c-.3.07.29.5 0 0zm-21.73.04c-4.03 1.52-4.73 4.06 0 0zm6.18.12c.41.58 2.59 1.26 0 0zm47.24.13c-.52.2.56.39 0 0zm-42.51.3c.08.19.46.45.51.44 0-.03-.12-.15-.51-.45zm9.36.17c-.12.4.55.55 0 0zm8.53 0c-.68 3.15 1.03.63 0 0zm10.6.01c-1.01 1.07.52.35 0 0zm12.1.05c-.3.07.3.5 0 0zm-21.68.2c-.25.21.24 1.1 0 0zm33 .28c-.24.36.98.45 0 0zm-40.77.38c-3.86 3.2 1.94 2.27 0 0zm2.1 0c0 .6.7.53 0 0zm-3.72.12c-.4.4.45.63 0 0zm14.86.02c-1.47.3-1.44 1.54 0 0zm11.65.04c-.23.04-.53.63-.5.69h.01c.03.02.17-.14.5-.69zm19.62.04c-.5.01.16.21.2.15q.03-.03-.2-.15zm-27.47.06c-.59 1.07.21.62 0 0zm-9.87.25c-.55.18.54.4 0 0zm-31.24.13-.63.3.64-.3zm-1.6.12c-.41-.01-1.1.51-2.1 2.04 2.29 2.04 3.24-2.02 2.1-2.04zm35.4.4c-.98-.01.9.4 0 0zm-7.02.05c-.12.3.78.7 0 0zm26.59.02c-2.64.04 2.26.47 0 0zm12.87.15c-.16.54.79.47 0 0zm-66 .14c-.22.65.72.71 0 0zm30.56.05c-.83 1.55 1.57 1.64 0 0zm-17.42.02c1.25 3.16 1 .58 0 0zm-5.8.1q-.02.06-.03.13H86zm0 .13c.2 3.02 7.86.8 1.7.31a3.3 3.3 0 0 0-1.7-.3zm-.03 0c-2.2.2-4.42 2.26-7.05 2.3.2.14-.57.46-.36 0a5 5 0 0 1-1.74-.4c1.45 2.05 7.47 9.6 3.63 3.13q.51-.15.78-.3c-.07.38 1.01.1.06-.04 2-1.1-7.22-.84-.58-2.21 2.91.19 4.87-.62 5.26-2.48zm-9.15 1.9.02-.01q.01-.03-.1-.07c-.01.05.05.07.08.07zm1.74.4h.36q-.07-.04-.33-.05zm51.67-2.42c-1.91 2.42 3.6 1.96.25 1.07zm-24.56.13c-.54.16.26.66 0 0zm-2.66.07c1.99 2.23 2.33 1.22 0 0zm40.93.09c-.26 0-.82.44-.78.49.03.02.25-.1.82-.49zm6.28.12c-.5 0 .26.37.3.04zm-46.23.06c.7 1.22 1.8.45 0 0zm27.5.05c-1.67.15.71.62 0 0zm-5.5.04c-.87.7.33.3 0 0zm22.22 0c-.36 0 .31.33.22.03zm-26.84.07c-.24.22.26 1.08 0 0zm-19.66.1c-.49.32.23.71 0 0zm31.03.11c-.42.32-1.93 1.47 0 0zm-58.07.11c-.2.01-.82.45-1.96 1.7 1.5-.63 2.28-1.72 1.96-1.7zm12.94.07c1.54.22-1.14.45 0 0zm-9.22.11c-.71.11.29.63 0 0zm27.34.13c-1.48.81 2.04.3 0 0zm-21.14.13c.62.27-.63.5 0 0zm-1.37.1c1.76.57-1.28.9 0 0zm2.66.17c-1.45 0 .97 1.43.88.1q-.57-.1-.88-.1zm61.1.05c1.8 2.04 2.72 4.71 3.29 7.63q.05-.39.18-.85c1.42 2.1.66 3.2.13 2.76.55 3.8.7 7.85 1.5 11.36-1.5 5.43 4.76 13.03-3.85 14.55-3.44 2.1 3.38-1.14-.4 2.18-1.46 2.25-3.02 3.1-4.24 2.96l.36-.41q-.34.2-.54.39c-1.27-.25-2.12-1.6-2.03-3.53-.12-.14-.5-.27-1-.39.55 1.4-2.44 1.25-.05 0-2.17-.5-6.4-.64-1.47 1.1 5.53.97 3.52 8.15.5 6.78q.06 0-.06-.23c-.13.03-.1.13-.03.19a4 4 0 0 1-1.03-.85c-.14-2.35-7.35-4.86-3.68-2.62-1.16.26.38.5.06.04l1.05.6c2.6 1.82 2.47 3.46 1.6 4.39l-.09.09c-.5.48-1.19.74-1.75.7-1.28-.9-2.36 4.55-5 1.35 1.72 4-4.57 4.68-3.86 3.44-3.17-.04 1.08 4.81-3.21 2.64-1.46-1.63-2.6-6.05-1.53-1.43-6.5-.76 4.54 1.21-.35 5.46-.47-.79-12.93-6.24-8.04-6.85 4.5-.45 2.22.26 2.33-1.25 1.8-.53 3.71-2.53 4-2.6a19 19 0 0 1 4.27-3.48c-.06.8.28.14.08-.05 1.5-.94 2.72-1.68 3.5-3.12.44.22.93-2.94 4.1-2.05-3.77-3.58 4.34-3.18 4.21-7.22q.95-.42 1.7-.87c-.7.76.22.33.36-.23 6.4-4.34-.88-11.18-.72-18.27 3.2-2.07-5.15-2.18.25-5.54 1.87-3.86 6.57-4.53 9.46-6.77zm-6.65 36.64.05.01-.01-.03zm10.25-27.1q-.14-.96-.31-1.91c-.17 1.08.04 1.7.31 1.91zm-47.39-9.51c-3.48 2.3-.15 3.37 0 0zm-3.54.03c-.36.38.22.76 0 0zm41.46.04c-.54-.03-1.73 1.08.05 0zm-31.47.08c-.38.51.52.65 0 0zm-27.54 0c.74.68-3.39.37 0 0zm67.43 0c2.64.93 6.07 2.84 3 3.45-1.8 2.52 7.38 6.88 2.27 8.43-1.06 3.2 6.02 3.8 1.89 7.2.7.38-.41.97-.22.18l-.54.4c-3.59 4.61-1.6.63-.72-1.4-.03.2.37.46.1-.1l-.08.05c.56-1.3.62-1.73-1.64 1.57-1.54-1.84-1.25-5.02-1.18-8.3-.15.9-2.16.26-.7-1.46.48.55.68.97.7 1.27.04-1.9.02-3.8-.53-5.52.91 2.04 1.24 3.11-.04-1.29.06-1.34-2.5-4.29-2.31-4.48zm2.89 11.29v.2zm4.05 7.97.22-.18-.14-.06q-.06.14-.08.24zm-52.1-19.14c-.17.95 1.5.66 0 0zm35.2.03c-.9.03.64.32 0 0zm-32.68.08c-1.6.27-.81 1 0 0zm.23.09-.22.03q.12.49.25.7c-6.02-1.09 5.59 4.4.44.09.09-.28 0-.82-.47-.82zm14.46.13c0 3.57-2.62 7.08-2.72 5.8-.4 3.17-2.1 5.86-2.56 8.98.45-.87 1.05-2.17 1.68-3.63.16.29 1.27.24.63-.57q-.36.15-.5.27l.67-1.6c.07.1.31-.03.2-.44l-.04.05.65-1.64c.1.05.51-.18.3-.38l-.23.2c1.3-3.36 2.3-6.52 1.92-7.04zm-2.72 5.8zm-30.07-5.72c-.5.37.37.69 0 0zm21.15.06c-1.18 1.56.77 1.62 0 0zm-12.42.04c0 .45-1.29.36 0 0zm1.46.03c-1.67.32-.08.53 0 0zm-6.99.12c-2.7.61-.47.66 0 0zm25.54.08c-.76.9.59.7 0 0zm27.62.37c-.94.14.7.52 0 0zm-6.5.26c-1.94 1.61-3.33 3.51-.41.48zm-33.08.14c-.1 0 .02.46.07.47.02-.02.02-.14-.03-.45zm20.17.2c-1.5 1.25.95.8-.08 1.5l-.05-.04c-.7.05-.46.18-.2.2l-.52.28a5 5 0 0 0-.94-.58c.27 1.17 1.62 1.24 1 .64 1.7.72 2.89-1.36.8-2zm-8.54.08c-.98 4.55.11 5.98 0 0zm12.45.17c-1.58 1.23 1.22.87 0 0zm-25.4.13c-2.57.14-.58.54 0 0zm-21.2.04c-.14.39 1.04.45 0 0zm49.84.19c-.67.33-.36.84 0 0zm-49.19.15c2.65 1.26 2.57.14 0 0zm10.04.05c-.3.07.29.5 0 0zm29.76.2c-.91.35.45.4 0 0zm8.25.1c-.99 0 .35.65 0 0zm6.77.14c-1.82.94.42.6 0 0zm-25.77 0c-1.39.56-1.17 1.17 0 0zm-19.14.04c-.42.23-.3.72 0 0zm39.28 0c-.36 0-.34.98 0 0zm-7.98.06v.07zm17.33.03c-.72.1.28.62 0 0zm-23.59.07c-1.47 1.97-4.3 11.87-1.79 5.04-.9 5.84 1.21-3.08 1.67-4.2zm-23.53.23.01.82zm47.95.12c-.6.12-.52.53 0 0zm-35.58.09c-1.47 3.48.86.94 0 0zm-16.28.01c1.5 1.25-2.55.17 0 0zm10.96.02c2.99.65-.55 2.24 0 0zm8.4.05c-4.12 2.01-2.34 2.92 0 0zm20.8.03c-.75.28.49.57 0 0zm-22.32 0c-.5.32.3.52 0 0zm34.59.14c-1.45-.02-1.2 1.37 0 0zm-17.74.33c-.83.22.78.5 0 0zm-32.45.28c.1 2.15 2.82 1.13 0 0zm38.14.01c-.54.15.26.53 0 0zm-4.68.1c-.62.28.63.52 0 0zm-34.65.06c-.6.57.18.67 0 0zm38.62.3c-.72 1.58 1.52.72 0 0zm7.92.05c.14.91 1.27.64 0 0zm-17.52 0c-.36.02-.08 1 .27.1q-.17-.1-.27-.1zm22.22.14c-.6.9 1.26.66 0 0zm-14.96.16c.96 1.14 2.57 1.13 0 0zm4.23.29c.09.2.48.46.52.45 0-.03-.13-.16-.52-.45zm2.74.08c-.23.65.51.14 0 0zm-.9.11c-.26.1-.9 1.07-.88 1.12.03.02.26-.26.87-1.12zm-2.57.19c-1.12 3.02 2.05 1.3 0 0zm1.34.16c-.54.15.27.53 0 0zm-12.92.17c-.93.33.43.41 0 0zm9.83.03c.17.25.82.42.86.37.02-.03-.19-.14-.86-.37zm-.75.01c-.67.17.53.65 0 0zm-28.27.2c.05.45 1.36.21 0 0zm42.63.03c-1.2 1.08.2.48 0 0zm-61.45.08c-.3.07.28.5 0 0zm41.92.07c1.47 2.84-3.64 1.73 0 0zm-30.29.13c-.19.77.77.9 0 0zm18.91.01c-2.28 1.74-2.83 4.49 0 0zm-14.43.27c-.2.66.73.7 0 0zm16.67.1c-1.16 1.29-.88 4.18 0 0zm-32.55.12c-1.07 1.85 1.76 1.52 0 0zm39.13.22c-.66.01.63.42 0 0zm10.25.13c-.7.44.56.74 0 0zm2.82.27c-.5.32.3.53 0 0zm18.77.32c-.3.07.28.5 0 0zm-54.53.14c-.3.07.29.5 0 0zm-74.8.33c-.06 0-.07.06.07.2q.12-.05.08-.12a.2.2 0 0 0-.16-.08zm.15.08c11.52 6.88 23.04 13.7 34 21.47 7.41 4.5 14.37 9.72 21.89 14 2.57 3.64 6.22-4.19 1.46-.51-6.89-1.4-12-7.58-18.34-10.66-9.66-5.97-18.58-13-28.58-18.42-3.53-1.56-6.84-5.26-10.43-5.88zm-.08.13c.91 7 5.39 13.47 9.99 18.72 9.61 5.47 19.1 11.43 28.68 17.1 4.38 3.02 12.82 5.62 11.28 11.17 1.01-1.6 3.13-3.06 2.55-3.69.1.1.5.12.13-.16q-.22.07-.14.15c-.2-.2-.68-.3-1.56-.31-.28.78-.67.28-1.04-.46l.06.04c1.2.49.3-.1-.2-.35-.45-.96-.83-2.05-.9-1.29q-.86-.39-1.73-.82c.16 0 .3-.14-.08-.42q-.2.22-.12.32c-6.27-3.11-12.26-7.44-18.55-10.76a342 342 0 0 0-16.56-10.27c-6.37-4.17-9.41-12-11.81-18.97Zm49.95 46.99q-.42.62-.5 1.25.33-.65.5-1.25zm-.5 1.25q-.28.52-.64 1.07c.16.71 1.03 1.24 1.7.85-.87-.6-1.14-1.25-1.06-1.92zm24.73-48.38c1.54 4.46 2.96 4.05 0 0zm49.7 0c-.3.08.28.5 0 0zm-33.2.22c-1.08 2.58 1 2.91 0 0zm14.92.34c.5.46 2.44.06 0 0zm-3.59.13c-.24.26.22 1.25 0 0zm-15.43.4c-2.9 1.24.96 1.39 0 0zm-10.8.03c-.6.8.76.96 0 0zm.75.26c-.3.07.28.5 0 0zm-3.6.03c-.04 1.49 1.66 6.19 3.03 5.58a9.7 9.7 0 0 0-3.03-5.58zm29.22.35c.09 2.8 1.4 4.24 0 0zm18.9.04-.64.37.65-.37zm8.37.07c-.83 1.39.64 1.18 0 0zm-53.3.22c-.4.39.45.63 0 0zm45.9.17c-1.13 1.41.55.44 0 0zm-.52.06c-.88.32-.22.83 0 0zm-30.3.01c-1.9 3.93-1.57 5.48 0 0zm14.87.08c.16.2.73.37.78.33 0-.03-.2-.13-.78-.33zm-22.33.04c-.1.7 1.2.43 0 0zm27.03.14c.65.02-.68.36 0 0zm5.83.04c.14.88 1.02.94 0 0zm-19.53.18c.1 3.17-4.94 2.65-.93 3.48a2.44 2.44 0 0 0 .93-3.48zm-7.86.02c-.92.7.5.34 0 0zm21.6.1c.93.61-2.15.21 0 0zm.61.01c.34.59-1.22.61 0 0zm-27.34.08c-1.3.7 1.97.27 0 0zm11.59.16c-.71.15.48.53 0 0zm16.55.32c-.1.58-1.13.03 0 0zm-1.01.1c.54.15-.27.53 0 0zm-1.53 0c4.19 1.05 1.33 4.04 1.93 4.2 2.8-.39-.77 2.48 1.58 2.4 1.52 2.74-2.43 3.2-1.6.6-5.04.15-6.2-2.13-4.94-4.38-.4.2-1.04.02.12-.67q.12.15.13.27a8 8 0 0 1 2.78-2.42zm-2.78 2.42q-.14.2-.25.4c.16-.08.28-.22.25-.4zm-29-2.09c-.47.38.53.46 0 0zm42.7.03c-.86.27.93.15 0 0zm-26.8.06q-.03 0-.1.02c.5.79.4-.02.1-.02zm35.34.04c-1.25.16-.03.8 0 0zm-40.47.14c-2.08 3.55.38 2.28 0 0zm33.08.25c-.58.33-.18.89 0 0zm1.77.38c-.54.15.26.53 0 0zm-37.67.3c1.85 2.65-3.23 1.33 0 0zm-7.2.04q-.09-.01 0 .2c.5.11.14-.2 0-.2zm50.28.32c-.99.64-.62 1.33 0 0zm-17.83.08c-2.53 1.29-1.93 2.85 0 0zm-22.38.57c-2.3 2.13 1.56 1.15 0 0zm-14.94.05c-.52.2.56.38 0 0zm22.78.1c-.85.87.4.32 0 0zm-4.67.02c-.07.01-.44.8-.91 2.42.74-1.6.98-2.43.9-2.42zm-10.61.2c.33.66.77 1.16 1.04 1.4-2.57-.65.81 2.5 2.77 2.97-.03.08.37.43 1.54 1-.77-.76-1.45-1.07-1.53-1-3.29-2.87.96-1.46 2.15-1.03a151 151 0 0 1-4.04-1.65c.15.01.23-.18-.19-.63-.14.3-.03.51.1.6q-.31-.13-.57-.2a7 7 0 0 0-1.27-1.46zm28 .12c-1.62 1.74.13.66 0 0zm-15.29.04c-.5.32.3.52 0 0zm-13.22.36c.08.2.47.46.51.45 0-.04-.12-.16-.51-.45zm45.83.06c-1 1.04.25.42 0 0zm1.83.05c-.71.12.29.63 0 0zm-120.42.08c.17.24.81.67.86.67 0-.03-.22-.2-.86-.67zm71.28.23c-.1.54.9.38 0 0zm7.73.03c-2.04.78.77 1.1 0 0zm2.5.04c-.86.66.15 1.1 0 0zm2.61 0c-.26.17.27.79 0 0zm36.4.02c-.53.59.7.84 0 0zm-37.65.13c-.3.07.28.51 0 0zm3.05.17c-.4.5.5.68 0 0zm32.47.04c-.47.3-3.9 4-4.79 4.93.86-.83 4.33-4.11 4.8-4.93zm-4.79 4.93-.2.22zm-13.51-4.83c-.55.15.26.53 0 0zm2.7.47c-1.58 1.4-1.84 2.25 0 0zm-101.4.04c1.73 1.86 5.13 4.37 1.13.88zm65.53.07c-.26.2.21.94 0 0zm12.21.05c-.92.17.42.6 0 0zm41.82.05c-.03.76.76 1.09 0 0zm-24.45.25c-.3.06.28.5 0 0zm24.69.9c-.07.58.7.15 0 0zm-36.14.03c-.59 1 1.16.7 0 0zm-10.93.13a2 2 0 0 0 .85.7c.01-.03-.2-.22-.85-.7zm-75.24.13.08.08.56.6c.25.3.31.39.55.7q.67.95 1.29 1.94l.35.52.19.23h.02l-.19-.22-.35-.52q-.62-.98-1.29-1.94c-.24-.31-.3-.4-.55-.7l-.56-.6-.08-.08zm80.66.51.5.53zm17.22.02.8.05zm-28.78.26c-.22.73.86 1 0 0zm29.05.2c-.65 0 .68.34 0 0zm23.93.2c.39 1.99-2.36 1.66 0 0zm-45.98 0 .55 1.01zm21.65.02c-.07.45 1.1.29 0 0zm-5.1.08c-.08.57.88.4 0 0zm1.17.18c-1.15.68.51.4 0 0zm-10.29.34c-6.46 4.1 7.94 6.08 2.42.38h-1.05zm-77.64.22 1.5.43zm96.85.04c.08.83 1.05.08 0 0zm-18.37.3c4.52 2.73 1.74 3.2-.35 2.65.26.3-.64.64-.33-.1a2.6 2.6 0 0 1-1.2-.7 1 1 0 0 0-.1-.2h-.02c-.19-.48.28-1.06 2-1.65zm-.68 2.55.33.1a1 1 0 0 0-.3-.17q0 .04-.03.07zm-4.59-2.23c.14.45 1.45.6 0 0zm-4.83.26c-.92 1.25.68 1.33 0 0zm31.9.5c-.36.01.3.34.22.03zm18.19.02c-.35.93 1.35.39 0 0zm-1.66 0c-.9 4.12-1.96-2.22-.77 1zm-21.82.12c.04.6 1 .34 0 0zm4.17.08c-1.53.02 1.26.51 0 0zm-1.57.23c-.7.14.49.52 0 0zm-18.55.04c-.42.22-.3.72 0 0zm21.76.04c-2.36.17.99.43 0 0zm-6 .3c-.06.49 1.32.26 0 0zm2 .03c-.68.67 1.36.4 0 0zm20.61.23.12.01c-2.55 3.95 2.82-1.6-.14 3.53-2.64 3.04-2.42-3.63.02-3.54zm-18.38.07c-3.74.4 1.66.4 0 0zm3.93.1c.55.18-.54.4 0 0zm-34.82.09c-.63.27.16.9 0 0zm22.08.27c-.67.17.53.65 0 0zm9.6.02c-.98.12-.32.62 0 0zm-10.08.44c-.36 1.19 1.34.55 0 0zm28.59.02c.56.12-.25.53 0 0zm-29.44.24c-.07.48 1.32.25 0 0zm-27.45.14c-.08 0-.06.75.26 2.18-.03-1.48-.19-2.2-.26-2.18zm44.86 0c-3 2.24.72.17 0 0zm-14.87.15q-.43 0-.43.04c.04.06.7.1.43-.04zm-16.99.28c.55.18-.53.4 0 0zm28.7 0c.55.18-.54.4 0 0zm-95.8.04c3.2 2.67 7.99 5.22 1.74 1.11l-.96-.64zm111.41.16c.59 1.33-1.12.88 0 0zm-17.43.22c-2.42.3 2.22.19 0 0zm14.78.03c-.91.34.46.4 0 0zm-13.59.1c.55.17-.53.4 0 0zm-34.78.1c-.27 1.04.7 1.43 0 0zm35.32.02c.33.55-.38.1 0 0zm16.74.13c3.29 2.32.15 2.06 0 0zm-19.49.1-.42.29zm16.96.08c-.84.88-.46 1.49 0 0zm-40.16.05c-1.7.27.72.45 0 0zm-7.31.2c-.87 3.36.45.82 0 0zm34.54.2c-.08 0-.25.14-.53.52.4.3.74-.53.53-.52zm1.55.05c-1.59.2-1.13.78 0 0zm-7.82.04c-.07.2-.58.45-.63.41 0-.03.15-.15.63-.41zm-95.85.03c-.12.41.55.56 0 0zm75.1.07c-.35 0 .32.33.23.02q-.15-.03-.22-.02zm-14.29.02c.21.85 1.07 1.14 0 0zm12.12.08c-.66.01.63.41 0 0zm-1.75.08.02.35zm1.86.28c-.67.28.65.67 0 0zm39.73.04c-.07.57.71.14 0 0zm-15.05.09c.5 1.18-2.02 2.08-3.84 2.34l.92-.37-.93.37c-1.87.26-2.97-.18.9-1.74.96-.28 1.94-.59 2.95-.6zm9.13.2c.1.32.7.94.75.93 0-.03-.18-.28-.75-.92zm14.83.09c-.42.54.93.43 0 0zm-34.84.02c-1.6.2 2.45.29 0 0zm-78.54.18c-.89.02.46.74 0 0zm111.38 0c.58-.02-.23.38-.14 0zm-45.91.04c-1.9.1 1.09.45 0 0zm-72.16 0c-1.74.09 2.25 1.67.42.01zm107.1.07c-1.25 2.2-1.79 4.67 0 0zm-13.24.05c-.07.48 1.32.24 0 0zm-18.6.04c2.84.26-.86.42 0 0zm34.47.33c-.54.96.5 1.92 0 0zm-29.72.15c-.65.02.68.35 0 0zm39.08.12c.1.85 1.43.6 0 0zm-29.27.05c1.15 2.41-2.89 1.82 0 0zm-12.47.01q1.34.58 1.83.98 0-.14.3-.34c1.31.56.45.74-.04.6.7.86-1.59.88-2.23.01q.14.11.16.1c.02-.03-.14-.24-.28-.32-.1-.28-.04-.62.26-1.03zm2.1 1.23-.27-.25q0 .18.26.25zm6.38-1.14c4.68.71-5.02.84 1.78 2.03 2.14 2.16 1.82 3.44.55 4.09l-.04-.05c-.21.04-.25.11-.22.17-2.76 1.12-8.9-.27-6.24-2.32-1.43-1.36-1.93-2.99 1.08-2.87-2.36-1.01.94.4 1.69-1.03zm-4.17 3.92.1.1q.05-.13.14-.26-.14.07-.24.16zm.1.1c-1.43 3.08 9.44 2.46 4.9-1.46-3.6-1.33-3.55-.96-.45.68.98 3.85-2.5 2.57-4.45.77zm23.62-3.9c-.33.38.45.43 0 0zm-20.54.02c-.5-.01.26.36.3.03zm-7.38.02-.18.01zm-1.59.18c1.96.77-.46.74 0 0zm-13 .07c-.28.1-.84.72-.81.76.03.01.25-.17.82-.76zm26.51.07.13.05zm-8.91.06c2.8.54-1.44.62 0 0zm42.11.03c.04 1.9 1.79 1.13 0 0zm-9.58.01c4.56 2.9.42 4.8 0 0zm-52.31 0c.03.5 1.44.7 0 0zm2.6.11c-.86.7.34.31 0 0zm21.4.25q-.21-.02-1.11.04c.35.23 1.57 0 1.11-.04zm-24.43.06c.45 1.07 1.66 1.42 0 0zm34.86 0a6 6 0 0 1-4 3.8q-.15 0-.15.04c-1.67.33-2.7-.7-.66-3.16 1.71.85 3.14-.7 4.81-.68zm-19.68.13c.71.11-.29.63 0 0zm-64.86.02c2.63 2.05 12.34 8.65 11.97 7.97-3.9-2.8-8.07-5.18-11.97-7.97zm52.34.17c-3.66 1.15.25.86 0 0zm46.58.02c-3.23 2.17.61 1.57 0 0zm-15.56.05c-.35 0 .32.33.23.02zm25.63 0c3.67 1.8.92 1.7 0 0zm-43.11.02c4.63.07 3.91 6.41-.8 2.17 1.77-.22.97-.45 1.82-1.32l-1.48-.84zm-10.24.16c-.28.56.82.5 0 0zm-62.85 0c.08.22.55.42.6.39 0-.03-.14-.14-.6-.38zm60.33.11c-.4 0-1.23 1.06 0 0zm47.98.35c-2.53 2.48-.07 1.01 0 0zm-29.23 0c-.5.02-.97.16-.64.5 2.43-.22 1.48-.52.64-.5zm7.73.04c-.36 0 .31.33.22.02zm7.86.5c-1.98.99.75 1.09 0 0zm25.47.04q-.25 0-.3.33c2.15.92.92-.36.3-.33zm-44.99.54c-.8.24.48.88 0 0zm-22.18.04c-1.3 1.14.64.76 0 0zm5.22.13c-.41.06-.63 1.45 0 0zm63.8.19c-.03.63 1 .45 0 0zm-17.15.01a4 4 0 0 0-.51.9c.04.02.55-.7.51-.9zm-16.8.04-.76.05c.04.01.82-.01.85-.04zm-23.97.1a4 4 0 0 0 .29 1.3c.01-.03-.05-.37-.29-1.3zm-60.18.34c-.15.38.96.3 0 0zm77.13 0c-.9.18.8.46 0 0zm13.49.04c-1.04.22.44.66 0 0zm-32.48.13c-.17.37.95.9 0 0zm37.72.19-.43.3zm-10.47.2c.77.7-1.76.64 0 0zm22.52.11c-.3.07.28.5 0 0zm1.18.02c-.6 1.24 1.38.66 0 0zm-21.65.08-.44.3zm-20.51.15c.62.04-.7.62 0 0zm-67.6.12c.04 1.42.57.6 0 0zm77.13.18c-.36 0 .32.33.22.02zm34.52.08c-.16.44.56.49 0 0zm-7.62.14c.85.95.56 2.08 0 0zm-55.22.03c-.87.28.92.15 0 0zm60.67.29c-.27.15.25.79 0 0zm-36.28.05c1.87 1.32-1.53 1.29 0 0zm24.7.13c-.53.14.27.52 0 0zm-11.12.15c1.96 1.48 3 .71 0 0zm28 .33c-.67.17.53.65 0 0zm-40.35 0c2.01.93-.69 1.7 0 0zm-23.78.04c4.06.93 9.07 4.82 3.19.54-.99-.21-2.15-.36-3.2-.54zm31.99.08c.48 2.84-2.86 3.87 0 0zm28.17.07c-.76 1.04 1.07.38 0 0zm-8.32 0c.04.45-1.17.97 0 0zm-2.96.06c-.24.04-.54.65-.49.69.03.02.17-.14.49-.69zm-29.7.13c2.4 1.5-5.36.31 0 0zm-14.34.13c-1.82.4.27.65 0 0zm21.41.04c2.33.39 1.58 2.19 1.21 2.82.2-.27.6-.8 1.38-1.7 2.73-1.42-2.37 6.19-4.6 6.64-1.5.74-1.6-.28-1.3-1.78.21-.02.74-.78.4-1.29l-.17.32c.24-.96.54-1.98.7-2.81.22.15.62.02.05-.3.1-.64.08-1.13-.15-1.35 2.81 1.63.26.06 2.48-.55zm1.21 2.82-.14.22q.02-.01.14-.22zm-12.08-2.59c.1 2-.75 1.14 0 0zm20.51.2c-4.65-.07 1.17.53 0 0zm-28.9.14c-.33.15.36.54 0 0zm-51.36.06c.1.22.56.41.6.38 0-.03-.14-.15-.6-.38zm92.36.1c-2.83 2.2-.36.85 0 0zm3.57 0c-2.43 1.13-.14.8 0 0zm-49.46 0c-.54.18.54.41 0 0zm30.99.02c-.54.14.26.52 0 0zm-30.42.1c-.1 1.1 1.58.43 0 0zm56.82.07c-.9.96 2.26.42 0 0zm-14.26.26c-.88 1.36-.34 1.25 0 0zm-12.44.24c-.6.02.57.44.38.02zm30.82.02c-.58.93 1.14.91 0 0zm-2.87.13c-.56.47.47.86 0 0zm-7.1.27c-.56.08-.57.57 0 0zm-36.16.18c-.97.61.97.99 0 0zm12.56.03c.62.05-.7.62 0 0zm10.08.06c-1.53.5.68.4 0 0zm-1.86.13c-.85.2.8.53 0 0zm-34.74.03c.09.21.54.41.6.38 0-.03-.14-.14-.6-.38zm42.2.1c-.77.34-.5.96 0 0zm-27.54.07c-.5.33.3.53 0 0zm-59.29.22h.02l.23.18 1.43 1.2h.02l-1.1-.91c-.13-.12-.33-.3-.5-.4zm40.58.46c.07.58 1.8.43 0 0zm36.44.08c.02.43 1.27.47 0 0zm10.37.15c-2.23.55-.38.69 0 0zm-21.43 0c.58.61 1.55.3 0 0zm2.38.17c-.17 0-.27.48.2 1.4.18-.95-.04-1.4-.2-1.4zm27.3 0c-.26.18.22.95 0 0zm-58.31.35c-3.2.47.44.89 0 0zm34.26.02c1.68 1.72 2.14.4 0 0zm-30.42.02c1.51 2.57 2.15 1.18 0 0zm56.4.14c.04.23.49.52.54.5.01-.04-.12-.18-.55-.5zm-58.86 0c-1.11.14 1.23.6 0 0zm-29.42.05c.5.75 1.48.7 0 0zm26.65.04-.1.1c.01.1.11-.07.1-.1zm3.61.15c-.13.39 1.05.45 0 0zm16.1.18c-.65.19-.13.82 0 0zm34.13.05c-.85.27.59.64 0 0zm-24.32.1c.05.68.85.8 0 0zm-55.22.03c.2.26.9.65.94.64.01-.03-.22-.2-.94-.64zm92.6 0c-1.82.14 3.63 1.26 0 0zm-19.79.07c-.11.32.78.68 0 0zm-42.18.03c.6 2.18 1.74.36 0 0zm-12.04.12c-.13 0-.62.46-1.44 1.67 1.14-.92 1.6-1.68 1.44-1.67zm42.79.1.7.32zm-10.3.01c-.7.15.49.53 0 0zm37.02.04c-.54 1.1.77.65 0 0zm-14.61.03c-.7.44.55.74 0 0zm-28.48 0-.43.3zm46.57.02c-.1.77.75.2 0 0zm-66.28.03c-.78.37-.5.93 0 0zm67.43.07.17.12zm-29.81.14c.37.9 1.54.8 0 0zm-25.94.12c-.26.18.21.96 0 0zm-2.55.1c-.1.33.77.69 0 0zm29.98.1c-.98-.01.9.4 0 0zm-44.98.08c-.55.39-1.54 2.83 0 0zm71.92 0c-.45.27-.25.64 0 0zm-73.18.1c-1.12.37 1.23.7 0 0zm-16.36.06c.17.24.81.67.85.67 0-.03-.22-.21-.85-.67zm88.96.04c-.26.16.26.77 0 0zm-57.84.29c-.93.02-2.68 1.7.24 1.34.43-1.02.18-1.35-.24-1.34zm30.96.16c1.2 2.07 2.36 1.6 0 0zm-36.45.13c-.98 0 .36.65 0 0zm-1.06.07c-1 .22-.85.4-.34.52q-.02.13.06.02c1.15.24 3.77.21.2-.31.08-.13.12-.24.08-.23zm-23.47.03c1.96 1.6 3.72 2.64 0 0zm75.24.04c-1.23.82.3.45 0 0zm-30.94.08c-.12 2.3.72.44 0 0zm17.82 0 .25.39zm9.38.15c-.96.94.5.35 0 0zm-26.53.22c-.12.4.55.56 0 0zm23.72 0c-.15.45.56.5 0 0zm-1.94.05c-.44.61.26 1.13 0 0zm-4.26.1c-.21 0 .4.78 2.5 2.42-1.2-1.6-2.29-2.43-2.5-2.43zm19.68.2.23.23zm12.74.02c-.45 1.54.41.31 0 0zm-45.79.1c-.3.07.28.51 0 0zm-1.52.06c-.58.95.33 1.44 0 0zm32.8.01c.33.94 1.14 1.1 0 0zm1.23 0c-.58.26-.36.7 0 0zm-87.27.03c-.07.57.71.14 0 0zm62.6.06c5.31 5.57 5.64 2.25 0 0zm-30.68.04c.09.22.55.41.6.38 0-.04-.14-.15-.6-.38zm5.27.01c-.93.77.97 1.08 0 0zm22.71.16c-.07.57.72.14 0 0zm-8.73.05c-2.49.43-.12.76 0 0zm39.05.22c0 .42 1.24.54 0 0zm-28.35 0c.3.53 2.27.6 0 0zm6.3.08c-.41.39.44.63 0 0zm-54.25.05c-.35.02-.34.9 0 0zm77.23.12c-.72 1.45-.67 4.65.04 1.29zm-82.9.02c.24.73 1.18.3 0 0zm22.2.11c1.06 1.27 1.43-.08 0 0zm54.92.04c-.07.57.71.14 0 0zm-59.5.03c-.5-.02.26.36.29.03zm-20.14.31c-.63.75.72.45 0 0zm4.13.06c.92.75 1.99.78 0 0zm57.9.06c-.84.31.64.57 0 0zm9.42.12c-.26.16.26.79 0 0zm-13.5.03c-.54.18.54.4 0 0zm-19.86.01c-.54.15.27.53 0 0zm27.41 0c-.1.32.78.69 0 0zm7.67.01c-1.96 2.21 2.12.84 0 0zm-18.82.1c-.36 0 .32.33.22.02q-.15-.03-.22-.02zm-35 .01c-1.4.1.7.57 0 0zm-8.05.03c.09.2.47.45.52.45 0-.03-.13-.16-.52-.45zm-7.84.02c.11.97 1.22 1.1 0 0zm76.63.1c.02 1.6.75 1.1 0 0zm-75.76.03c-.48 1.06 1.33 1.33 0 0zm2.29.04c-.18.63 1.12.33 0 0zm82.44.03c-.96 1.35.87.56 0 0zm-9.64.02c-1.16.52 1.98-.02 0 0zm-55.38.03a2 2 0 0 0 .48.46c0-.02-.13-.15-.48-.46zm1.66.05c.24 1.07 1.73 1.1 0 0zm-3.95.03c-.5 0 .26.37.3.03zm6.8.03c-.2.67.77.75 0 0zm29.72.02c.13.75 1.01.45 0 0zm12.6 0c.46 1.04 1.93.49 0 0zm-32.87.14c-.54.14.27.52 0 0zm2.87 0c-.54.14.27.52 0 0zm-28.64.1c-.87.7.33.3 0 0zm69.14.1c-.3.09-.8.74-.78.79.03.02.24-.16.78-.78zm-64.32.1c2.23.53 7.75 3.26 2.33.34 5.83.06 6.39 7.01 4.75 8.65 1.39.55 2.1 1.3 2.4 2.08-.14.48.01.67.16.67.24 2.45-3.07 4.66-2.23 1.24.09-3.39-3.72-6.07-2.05-5.14-.24-2.99-1.01-1.26.35-3.77-2.93 4.7-5.13-4.15-3.68 2.85-4.77-4.42 2.81 2.38-1.71 1.43 2.02-1.55-2.27-1.48-1.67-.79-1.97-1.77-1.84-7.16 1.35-7.57zm18.8.04c-.55.17.26.67 0 0zm23.76.17c-.3.07.29.5 0 0zm-54.07.02c-.1.6 1.07.5 0 0zm53.3.02c.02 1.29 1.04.3 0 0zm-46.92.18c-2.26 2.82-4.1 6.4-.5 1.21zm-7 .1c-.08.01-.15.59 0 1.83-.1.01-.34.31-.83 1.17.45-.07.88-.95.86-1.14.16-1.2.06-1.85-.03-1.85zm19.76.08c-.2.34 1.23.6 0 0zm-25.25.04c.62.8 1.7.88 0 0zm24.62.05c-.07.45 1.1.29 0 0zm-16.6.08c.18.67 1.08.73 0 0zm76.7 0c-.49.5.18 1.01 0 0zm-77.43.02c-.57.15-.63.92 0 0zm19.9 0c-.18.58.63.6 0 0zm54.02.02c-.35.04-.33.95 0 0zm-35.71.06c.21.77-.76.2 0 0zm23.5.02c.33.56-.38.1 0 0zm11.63.03c-.54.14.26.52 0 0zm-73.75.05-.04.02zm74.58.1c.09.22.54.42.6.39 0-.03-.14-.15-.6-.39zm-19.42.21h-.22c-.08.58 1.2.03.22 0zm-6.85.02c-.08.66 1.27.3 0 0zm-8.78 0c-1.27 4.7-5.89 3.44 0 0zm-38.68.03c-2.43.3.41 1.11 0 0zm75.94.05c-.24 1.14.84 1.28 0 0zm-53.33.04c-1.43.62.28.66 0 0zm52.6.07c-1.48.19-1 .83 0 0zm-29.32.28c-.86.14.75.4 0 0zm8.62.04c-.65 0 .64.41 0 0zm-13 .03c.47 1.08.86.64 0 0zm-47.08.07c-.53.61 1.26.44 0 0zm7.76.15c-.07.45 1.1.29 0 0zm-1.08.18c-.86.27.93.14 0 0zm-.6.03c-.32 0-.43.03-.44.05.03.05.7.1.43-.05zm45.8.07c.22.9 1.1 1.2 0 0zm-21.08.07c-.13 0-.81.7-.14.32.16-.24.18-.32.14-.32zm30.94.17c.37.63-.79.7 0 0zm-11.07.08c.09 1.72 3.56 1.58 0 0zm33.94.03c-.48.63.7.11 0 0zm-21.43.24c-.86.7.34.31 0 0zm-41.6.1c.07.55.15.74.18.73.04-.03.01-.38-.18-.73zm3.22.07c-.55.18.53.4 0 0zm12.96 0c-.25 0-.66.4-.64.46.02.02.19-.07.64-.46zm9.77 0c-.8 1.88 2.58.11 0 0zm18.78.06c1.13 1.1-1.07 1.13 0 0zm-8.18.26c-2.28.58-.03.9 0 0zm-5.03.27c-1.54 1.13 1.82.74 0 0zm-29.39.03c.6.3-.02 1.05 0 0zm37.13.18c.27 2.36-1.68 1.29 0 0zm14.36.02c-.75.28.49.57 0 0zm-18.4.03c-.68.28.64.67 0 0zm-2.63.24c-.15.95.75.25 0 0zm3.48.1c-1.24.46.14.49 0 0zm-55.23.11c.17.24.8.67.86.67 0-.03-.23-.21-.86-.67zm51.25.07c-.71.15.48.53 0 0zm-41.93.01.04.07c-.22.12-.45.61-.42.66.02.03.15-.11.45-.61 1.21 2.46-5.94 5.29-.07-.12zm73.46.06c-.57 1.5 1.62.5 0 0zm-39.52.17q-.12 0-.43.05c.1.2.79-.05.43-.05zm4.98.16c.27.92 1.33 1.13 0 0zm25.95.08c-.07.57.72.14 0 0zm4.15.12c-.08 1.5 1.1.5 0 0zm-.57.03c-1.32 1.78.88 1.18 0 0zm-27.25.4c-.47.38.53.45 0 0zm16.38.18c-.3.06.28.5 0 0zm-62.8.04c-.1.01-.35.2-.8.76.61-.19.95-.77.8-.76zm48.11.26c.8.1-.52.47 0 0zm31.08.06c-.92.83 1.34.6 0 0zm-17.82.05c-.3.07.28.5 0 0zm-49.63.07c1.24 1.21-.67 1.82 0 0zm.33 0c1.22.7.53 2.25 0 0zm20.62.1c.79.1-.52.46 0 0zm-26.5.05c-1.81 3.08-4.14 1.39 0 0zm46.45.33c-1.25 1 .88.9 0 0zm33.78.15c-.53.2.55.39 0 0zm-23.87.08c-.67.57.57.93 0 0zm-56.45.4q.17 0 .4.02c-.3 1.8-2.1.01-.4-.02zm71.37.13c-.18.52.59.61 0 0zm-25.9 0c-.5.34.3.53 0 0zm24.45.21c-.53.2.55.39 0 0zm-29.6.1a3 3 0 0 0-.76.37c.04.04 1.01-.3.76-.37zm-34.56.02c4.19.83-1.34.46 0 0zm51.12.13c-.26.16.26.78 0 0zm-19.67.08c-1.9.35.85.52 0 0zm38.83.01c.3 0 .47.78-.04.01zm-66.88.2-.03.05q.06.04.08.03c0-.02-.02-.08-.05-.07zm29.65.22c.44.75-.6.71 0 0zm-33 .09q.04.45.05.8c-.33.1-.45.14-.46.16.02.02.3-.03.46-.08 0 2.41-.97 1.42 2.29.42-1.15 3.77.75.92 1.22 1.19 1.24 2.97-7.66 7.04-3.44 2.73-4.9 2.88-5.78.15-3.14-.4-6.67 1.38 1.02-4.89 3.03-4.82zm74.48.03c.17 1.24 1.6.69 0 0zm-87.82.02-.43.3zm56.3.1c-.13.9.67 1.18 0 0zm28.57.01c-.26.18.22.95 0 0zm-33.77.06c-.86.7.33.3 0 0zm2.31.02c-1.26.1.53.41 0 0zm-1.51.25c-1.72.68.04 1.44 0 0zm2.03.22c-.55.55.6.6 0 0zm-22.82.06c-1.07 1.45.58 1.08 0 0zm28.3.13c-.25.28.24 1.4 0 0zm-60.4.02c-2.17 3.24-1.9 3.97 0 0zm44.12.09c.05.5 1.3 1.3 0 0zm28.47.04a3 3 0 0 0-.96.12c-.21.08-.36.2-.53.34q-.13.11-.22.23-.28.34-.41.74-.04.15-.04.28l.01.01q.01-.14.05-.28.13-.4.4-.74l.22-.23c.18-.13.32-.26.54-.34.4-.14.86-.14 1.28-.1l.47.08c.69.13 1.34.4 1.97.7l.78.38-.01-.02-.79-.38a8 8 0 0 0-1.97-.69l-.47-.08zm-3.4 0c-.37.1.33.56 0 0zm-2.6.03c-1.23.82.3.45 0 0zm16.98.14c-.25.53.56.13 0 0zm-38.34.42c-.18.36.95.91 0 0zm18.75.54c-.5.3.23.7 0 0zm-60.88.03c-.15 0 .03.22 1.1.83-.05-.4-.9-.83-1.1-.83zm86 .1c.55.17-.54.4 0 0zm-5.45.13c-.55.18.54.4 0 0zm6.48.02c3.2.54.38 2.29 0 0zm-85.17.1c-.3.06.29.5 0 0zm17.5.46c3 3-5.05 4.92-.48.16zm-8.73.05c-.09 0-.66.45-1.61 1.41 1.21-.91 1.7-1.42 1.61-1.41zm65.66.02c-.25.3.23.54 0 0zm-59.37.45-.44.64zm-3 .02.35.06zm-11.31.05 1.16.09zm32.36.1c.1.2.56.4.6.37.01-.03-.13-.14-.6-.38zm41.05.28c-.54 1.37.28 1.27 0 0zm-15.4.16c-.38.51.52.65 0 0zm-10.36 0-.43.3zm-2.22.03c-1.21.43.45.3 0 0zm-28.6.02c-.3.07.28.5 0 0zm64.58.2c.1 2.2 2.6 3.6 0 0zm-10.09 0q-.41.59-.94 1.07h.02c.33-.32.68-.66.94-1.05zm-1.1 1.25q-.18.14-.33.32.17-.14.33-.32zm-.33.32-.05.03q-.3.2-.63.33l-.04-.1q-.19.1-.2.21l-.03.01c-.14.27-.24.57-.42.81l-.05.06.06-.05c.3-.2.64-.32.95-.49.13-.25.21-.53.38-.76q0-.03.03-.05zm-1.42 1.35q-.24.19-.43.4.23-.19.43-.4zm-.43.4-.23.2-1.3 1.18h.02l1.3-1.17zm-24.73-3.2c-.18 2.07.7.97 0 0zm-12.78.06c-1.64.31.4.43 0 0zm19.73.2c-1.63 1.6.37.77 0 0zm-10.54.46c-.46.4.53.46 0 0zm19.24.26c.79 3.37-.59.86 0 0zm19.04 0c.7 1.6-.76.67 0 0zm-.56.12c1.22 2.66-.56.77 0 0zm-37.41.03c-.5.33.3.53 0 0zm-11.8.08c-2.01 1.29.04.74 0 0zm-10.07.03c-1.85 1.46 0 .63 0 0zm16.75.01c-1.82.46.24.24 0 0zm14.57.22c-.6.4-.27.93 0 0zm6.47.13c.33.55-.38.1 0 0zm-14.37.26c-.34.15.36.55 0 0zm31.39 0c-.27.15.26.78 0 0zm-9.47.3q-.11.54-.1 1.08-.04.82-.01 1.66.06.81.22 1.61.09.53.3 1.02c.07.14.12.21.2.34l.45.7q.2.32.44.62.13.16.24.33l.02.01q-.11-.17-.24-.33-.24-.3-.45-.62l-.44-.7c-.08-.13-.13-.2-.2-.34a5 5 0 0 1-.3-1.02q-.16-.8-.22-1.61-.04-.82 0-1.66.01-.55.1-1.08zm-14.58.05c-.92.34.45.38 0 0zm-22.4.24c-.55.14.26.52 0 0zm-9.14.03c-.26.2.21.95 0 0zm59.46.16c1.9 3.1-1.09 3.12-.19.46.06.11.27.2.08-.14l-.03.01q.06-.16.14-.33zm5.58.05c-.52 1.03.87.27 0 0zm-26.01.06c.32 0 .46.86 0 0zm21.12.02c.76.3-.26 1.24 0 0zm-47.68.18c-3 1.9.54.17 0 0zm25.78.08c.64 2.22-.66 3.06 0 0zm20.58.08c.34.55-.37.1 0 0zm-50.52.15c-.99 0 .35.65 0 0zm18.24 0c-1.22 2.32.67 1.84 0 0zm31.78 0c.56.14-.25.55 0 0zm-37.07.07c-.08 3.37.67 1.52 0 0zm-18.3.13c-1.84.24-2.14.84 0 0zm33.77.02c-1.82 1.4.3 1.78 0 0zm4.62.14c.96 1.66-.67 3.1 0 0zm.98.04c.34.55-.37.1 0 0zm-18.1.14c.02 1.61.75 1.1 0 0zm11.38.07c-.46.4.53.46 0 0zm7.23.05c2.3 2.29-1.84 1.14 0 0zm-25.66.2c.44.5-.7 1.15 0 0zm-13.14 0c-.99.42-.11.75 0 0zm36.68.09c.33.55-.38.1 0 0zm-29.6 0c-.42.08-.61 1.44 0 0zm6.9.08c1.63 2.14-2.32 2.64 0 0zm37.03.04c-.3.07.28.5 0 0zm2.6.27c-.28.3-.3 1.09-.25 1.39s.19.13.25-1.4zm-.25 1.39c-3.22 5.76 12.6 11.51 3.16 5.7-1.55-1.49-3.36-3.35-3.16-5.7zm-.37-1.32c-.26.19.22.95 0 0zm-53.51 0c-.61 1.04-.24 1.53 0 0zm26.6.14c-.25.18.22.95 0 0zm-17.03.08c-.61.41-.26.93 0 0zm20.02.06c-1.4 2.24.13 3 0 0zm-26.5.34c-4.42.9-2.4 2.02 0 0zm3.92.06c-.84.2.38.64 0 0zm3.59.3c-1.04.62.16.89 0 0zm12.05.05c-.3.07.28.5 0 0zm13.82.06c-.25.22.24 1.1 0 0zm-18.35.14c-.12 1.11.69 1.59 0 0zm-27.3.65c-.54.15.26.53 0 0zm45.84.38c-.25.26.2 1.25 0 0zm-33.68.09c-.49.33.3.52 0 0zm5.5.04c-.25.3.23.53 0 0zm41.4.1c-.2.5.59.61 0 0zm-57.13.03c.13.34.75.85.78.81.02-.02-.17-.24-.78-.8zm12.85.12c-2.25.95-1.71 1.18 0 0zm-9.03.26c.25.47 1.93.13 0 0zm26.4.23c-1.1 3.08 1.72 5.03 0 0zm-26.27.1c-.13.4 1.05.46 0 0zm14.77.09c1.97 1.3 2.48-.02 0 0zm17.3.05c-.76 1.52.25 1.13 0 0zm-35.23.08c-.08.57.7.14 0 0zm.76.07c-.06.43 1.08 1.1 0 0zm-5.74.03c-.12.02-.7 1.3-.6 1.84.56-1.38.67-1.84.6-1.84zm42.44.17.11.02c2.55 1.65.7 7.83-.8 2.17-1.12.56-.1-2.19.69-2.19zm16.64.38c.27.26 1.16.65 1.2.63-.01-.04-.31-.2-1.2-.63zm-37.3.03c1.08 1.79-3.27 2.18-.97.58-.86 1.04.46.8.19-.13q.31-.2.78-.45zm1.5.22c-.09.17.14.79.18.8h.01c.02-.03-.02-.24-.2-.8zm12.23.1c.23 1.02.7.71 0 0zm-15.19.08c.17 1.2-2.6 1.11 0 0zm-20 .23c-.7.3.5.7 0 0zm40.79.25c.33.55-.38.1 0 0zm1.77.13c-.3.06.28.5 0 0zm-4.23.17c-.5.3.23.7 0 0zm-35.3.09c-.91.64.9.2 0 0zm62 .04c.27 2.21.9.94 0 0zm-65.32.04c-.23.36.97.44 0 0zm9.24.01c-.37.7.56 1.03 0 0zm.66.05c-1.06 1.46.58 1.07 0 0zm5.08.04c-.23 0-.78.12-.8.14h-.01c.02 0 .23-.03.8-.14zm7.45.02c-.57.33-.21.85 0 0zm1.14.46c-.53 1.05 1.94.6 0 0zm13.35.04c-2.67 2.42-.87 1.89 0 0zm-31.85 0c-.95 1.04 1.25.9 0 0zm3.64.02c-.5.1-.77 1.75 0 0zm29.83.11c-.3.07.29.5 0 0zm-19.34.12c.59 0-.22.39-.13.01zm-7.41.16c-1.28 1.79.4 1.3 0 0zm49.56.2c-.57 1.01.3 1.75 0 0zm-5.37.06h-.07c-.32.85.7 0 .07 0zm-32.43.13c-.23.72 1.35.37 0 0zm-12.21.08c-.87.85-.24.22 0 0zm54.47.06c-.25.3.22.54 0 0zm-27.14.12c-1.92 2.35 1.67 4.72 1.21.27.05 1.01-1.52.7-1.21-.27zm15.26.21c-.29 1.18 1.55.8 0 0zm-48.49.25c.06.87.64.76 0 0zm14.65.13c.67.26 1.24.4 1.54.46-.53.17-1.2-.06-1.54-.46zm-13.7.12c-.84.8.55.53 0 0zm29.05.12c-1.4 3.35 2.35 1.08 0 0zm26.06.35c.55 3 1.9 2.98 0 0zm-8.46.3c-.06 0 .44.63 1.6 1.78a10 10 0 0 0-1.6-1.78zm-47.81.6c-.74.36-.67 1.17 0 0zm.97.36c-.84.77.58.55 0 0zm66.19.25c1.93 1.32 2.17 1.28 0 0zm-17.9.03c.18.24.83.68.87.67 0-.03-.23-.2-.86-.67zm3.47.02c-1.31.2.85.61 0 0zm-20.85.06c-.54.14.27.52 0 0zm-27.02.15c-.86 1.14.19.8 0 0zm55.02.12c-.4 1 1.02 1.16 0 0zm1.77.1c-.3.08.29.5 0 0zm-61.14.02c.85 2.29 1.44.2 0 0zm49.97.24c-.2.78.56.49 0 0zm2.72.03c-.88.43.6.77 0 0zm1.17 0c-.72.12.28.63 0 0zm-54.94.02c-.71.1-.27.47 0 0zm69.27.2c2.57 1.18 2.26 3.35 1.4 5.24-.14.06-.14.15-.1.22-1.38 2.81-3.83 4.88.51 1.82 1.84-5.33 3.12-2.43.47 1.44 5.65-5.08-5.8 6.88 1.24 1.68 3.55-1.54-2.15 8.69 2.06 2.13.95-1.57-1.06-11.21-5.58-12.52zm-10.63.18c-.3.07.28.5 0 0zm-7.87 0c-.13.03.47.66 2.3 2.54 2.21 6.29 9.98 12.85 11.98 16.55-.76.33-.54 5.1-1.16 7.27 2.91-3.69 10.13-1.85 9.83-4.19-5.36 2.46-10.01-1.05-6.88-.9-2.79-1.29 4.6.17-.7-1.4-4.32-3.2 1.8-4.3 6.39-5.75-1.77.5-7.57 2.16-9.09 1.14.67.17 2.8-.18-.06-.3q-.1.08-.11.14c-.28-.32-.27-.82.17-1.56 2.72.65 4.49.42 0 0l.09-.14c4.34-.75 6.03-1.46.5-.43a6 6 0 0 1-1.93-.38c.34.13.64-.07-.38-.4.05.22.21.34.37.4-3.48-1.23-7.12-4.93-.68-2.4 1.11-.04 2.8 1.05 3.65-.25-5.32 1.1-8.15-8.44-8.43-7.57-2.23.17-5.6-2.4-5.86-2.36zm13.12 26.36a5 5 0 0 0-.63 1.04c.28-.12.48-.5.63-1.04zm-2.78-25.93c-1.16.76.5.4 0 0zm-2.3.12c-.3.07.29.5 0 0zm-53.07.17c-.5.3.23.7 0 0zm49.6 1.06c-.35 0 .32.33.23.02zm11.81.1c-.66.01.63.42 0 0zm-57.97.32c-.67.88 1.28.48 0 0zm58.64.41c-.3 1 1.45.44 0 0zm-57.85.3c-.68.44.52.88 0 0zm2.74.17c-.92.34.45.39 0 0zm45.6.23c-1.5.05.67.59 0 0zm.41.4c-1.27.16 1.06.5 0 0zm-3.95.1c4.06-.22 8.43 9.34 2.42 3.95a9 9 0 0 1-2.42-3.96zm-42.54.08c-.8.27-.49.9 0 0zm-5.5.27c.1.22.56.42.6.38.02-.03-.13-.14-.6-.38zm6.2.22c-.08 0-.4.26-1.1 1.04.5-.02 1.27-1.04 1.1-1.04zm-10.98.93.04.12zm9.07.02c-.65-.02-1.87.28-3.8 1.21 3.42.98 5.46-1.16 3.8-1.21zm-3.8 1.21c-.02-.07-.1-.12-.22.03.21.21.27.07.23-.03zm-.22.03q-1 .06-1.52.22.81.1 1.52-.22zm-1.52.22c-1.63-.16-3.37-1.2-3.82-.81 2.93 1.32 1.7 3.38 5.86 1.5-2.16.73-3.76-.21-2.04-.7zm61.7-1.26c.07.21.55.42.6.38 0-.03-.15-.15-.6-.38zm-2.31.3c-.75.3.49.58 0 0zm-51.8.18c-2.54.92-3.4 2.8 0 0zm-2.85.22c1.12.03-.1.5 0 0zm55.08.09c-.45.64.72.1 0 0zm-54.98.58c-1.32.96.72.12 0 0zm50.54.78c-.16 1.03 2.42.16 0 0zm-49.22.57c-.12 0-.8.27-1.8.87 1.44-.55 1.94-.86 1.8-.87zm-9.38.18c.14.54.96.35 0 0zm11.2.37c-2.02 1.76-4.12.64 0 0zm54.24.11c-3.98 1.3-3.01 1.53 0 0zm-50.94.07c-.25-.02-.8 0-1.78.1.64.43 2.54-.03 1.78-.1zm-11.61.17c-.14.67 1.88.2 0 0zm63.2.32c-8.44 3.74.36 1.92 0 0zm-62.1.02c1.2.58 2.66.25 0 0zm-2.25.1v.01l.8.06zm5.52.12c.59-.02-.23.38-.13 0zm1.9.81c-.87.27.92.15 0 0zm-7.73.47c-.1 1.39 3.35-.1 0 0zm59.01.07c.6.76 1.85.42 0 0zm-2.15.03c-.93 0 .5.18.54.14 0-.03-.15-.06-.54-.14zm9.77.2c-1.66.33-.08.54 0 0zm6.62.24c-.14.95-.86 2.24-1.93 3.5q.01-.08-.06-.21c-.35.1-.12.3 0 .26-1.64 1.88-4.08 3.64-6.68 3.84 1.74.56 3.45-.42 4.76-1.27-.33.07-.78.07-.28-.24q.45.03.51.08c1.35-.9 2.2-1.54 2.09.12 3.43-1.11 3 .58.61-2.74-.03-1.31 4.37-3.25.98-3.34zm-1.6 6.08c-2.8 2.29-1.22 2.74 0 0zm-2.08-.12-.23.16c.17-.04.3-.1.23-.16zm-66.7-5.93c-1.12.13 1.22.59 0 0zm66.72.2c-3.21 1.5.77.17 0 0zm-71.76.03c-.09 0-.86.68-.52.59.42-.41.54-.57.53-.6zm5.45.35-1.59.25zm64.01.05c-5.54 1.68-4.53 2.87 0 0zm-69.23.04c-.3.02-.41.05-.42.07-.5-.13-1.21 1.2.02.01.08.01.3 0 .4-.08zm70.86.57c-.92.34.45.38 0 0zm-67.14.36q-.09 0-.16.07c.9.8.54-.09.16-.07zm-4.06.2c-.25.88 1.01.75 0 0zm67.08.61c-1.98.37.88.6 0 0zm-2.14.55c-1.5.4 1.19.66 0 0zM103.4 265c-.83.22.78.5 0 0zm68.75.07c.75.29-.5.57 0 0zm-2.91.14-.44.3zm-6.8 1c-.27 0-.62.12-.87.18l1.3.1q-.09-.32-.42-.29zm-60.22.02c.5 1.18 4.62.19 0 0zm8.26.11c-1.41.12-.4.55 0 0zm50.74.03q.06.1.35.02zm9.29 0c-.66 0-.06.2 0 0zm3.98.23c3.25 1.16 3.54.27 0 0zm-12.96.1c.07.88 1.3.83 0 0zm11.16.13c-1.65 1.03.84.86 0 0zm4.36.33c4.74 3.74-7.78-2.9-5.4 4.5.69-2.4 2.45-1.2 3.42-.25q-.4-.52-1.11-1.47c-.02-3.74 9.33 1.54 4.21-2.6zm-1.98 4.25c.43.54.63.75.66.76 0-.04-.27-.38-.66-.76zm-14.92-3.88.08.29zm-59.54 1.55a15 15 0 0 0 2.02.58c-.01-.04-.81-.3-2.02-.58zm65.77.15c-.62.27.63.5 0 0zm-56.01.3c-.44 1.1-.25 1.22-.04 1 .21-.23.45-.81.04-1zm-.04 1c-2.2 2.9-.6 6.21 0 0zm59.95-.87c-2.27 1.54.38.26 0 0zm-3.79.25q-.67-.01-2.07.06c2.72.12 3.44-.05 2.07-.06zm-65.23.23c.04.68 1.1.4 0 0zm72.06.54c-.07.57.72.14 0 0zm-70.5.08c-.55.15.26.53 0 0zm67.1.1c-.36 0 .31.33.22.03zm-73 0c-.35 0 .32.33.22.03zm75.77.26.9.47zm-73.74 0c-.65.02.68.36 0 0zm60.16.31c-1.4 0 .46.78.81.06a8 8 0 0 0-.81-.06zm12.47.56c.68 2.28 3.4 2 0 0zm1 .02c0 .59.7.52 0 0zm-10.52.11c2.49 1.04-2.6 1.29 0 0zm-58.45.2c-.25.93.89 1.06 0 0zm70.54.13c-.28.01-.22.87.55 3.03 5.97 4.9-3.53 7.89-3.75 13.25 2.17-2.54 4.01-5.66 6.16-7.89.61-3.18-2.26-8.43-2.96-8.4zm-3.2 16.28-.13.15.13.01zm-.13.15c-3.19-.08-5.41 5.2-6.18 2.92-3.41 1.6 1.99-3.26-2.15-.35 1.63-2.99 2.66-4.95.56-2.48.3.12-.07.25-.17.2l-.86 1.05c-2.01 2.22.3-.05-1.87 2.45 0-.07-.26-.07-.99.13.2.22.73.08.92-.05 4.87 1.45 8.06-.75 10.74-3.87zm-7.94.29.17-.2-.04-.02c-.17.13-.18.2-.13.22zm9.19-16.09c-.7.44.55.74 0 0zm-71.79.53c-.4.93 1.05.31 0 0zm63.68.17q-.43.04-.64.15l.04-.06c-1.01.16-.8.6-.35.32-.15.43.88.83.95-.41zm-69.74.12c-1.24.82.34.45 0 0zm12.63.12c-.3.06.28.5 0 0zm62.12.36c1.54 1.42 1.53.52 0 0zm-68.4.17c-.25.3.23.53 0 0zm-7.8.33c-3.33 1.11-.52.92 0 0zm13.96.04c-.5.33.3.53 0 0zm-1.2.08c-.7.15.5.53 0 0zm-4.44.05h-.06c-.03 0-.12.02.06 0zm-.06 0h-.03zm71.76.01c-.07.57.71.14 0 0zm-8.5.16c-.51.44.46.7 0 0zm-75.19.06c-.48.02-.63.61 0 0zm85.12.2-.16.27zm-86.21.05c-1.02.03.37.66 0 0zm15.95.06c-.13.43.53.52 0 0zm56.85.05c-1.24.46.14.49 0 0zm-73.75.02c-.36 0 .31.32.22.02zm13.27.02c-.52.2.56.38 0 0zm70.31.22c.19.91 1.23 1.13 0 0zm-84.88.01c-1.4.51-1.5 1.08 0 0zm4.09.26-.72.3q.46-.15.72-.3zm-9.64.01c2.19.22-.45.6 0 0zm83.65.25c1.03-.2-2.14.4-2.4.58l1.66-.38zm-84.8.02c1.8.41-1.41.69 0 0zm10.07.03c-3.7 1.32-16.21 3.5-6.22 3.53-4.3-2.41 5.12-.86 4.12-2.6l1.17-.54zM82.9 280c.09.37.96-.07 0 0zm23.22-3.4c-.3.07.28.5 0 0zm64.4.03c-.13.93.93.91 0 0zm3.92.02c-.54 1.17.42 1.78 0 0zm-9.97.11c1.81 2.97 5.55 2.08 0 0zm3.25.08c-.65.01.64.42 0 0zm-9.2.06c-2.18.2-1.31.84-.6.75.35-.05.66-.25.6-.75zm-.6.75c-1.68 7.69-14.06 5.37-15.13 13.63.96 1.83 1.27-2.76 3.2-3.64-1-.1-1.55-.23.3-1.08 4.17-1.55 10.14-3.97 13.94-8.96 3.64-1.49-2.02.33-2.3.05zm-11.94 10c.66.06 1.5.1 2 .32-.82-.53-1.47-.57-2-.33zm2 .32.11.08c-.83 1.32-2.04 2.38-2.74 3.07-.1-.12-.56-.17-.21.16l.07-.01c-.83.86-.63 1.04 2.73.29 2.96 2.22 4.8 1.44 8.39 1.34 0 2.25 2.7-4.12 1.1.36 2.54-.1.5-1.6.81-2.12-1.44-.07-1.89-.85.86-2.59 5.58-.4-3.22-3.1-3.06 2.49-3.15 2.5-2.23 2.05-1.95-.66q.06-.03.01-.16c-.1-.27-.54-.76-.93-.53.5.52.78.7.89.7-.67 2.25-4.45 3.43-2.18.46 2.88-3.42-4.25 3.55.4-2.29 2.81-2.42 6.94-4.9 1.21-1.84-.71.9-2.43 2.56-3.98 3.63.24-.26.53-.77.46-1.2-.66.96-.8 1.33-.71 1.37-1.47.96-2.72 1.29-2.67-.28 2.04-1.38 2.05-1.98 1.38-2.27zm10.26 3.17q.6.03 1.34-.1c-.88-.13-1.24-.07-1.34.1zm-43.11-14.24c-4.1 3.38-.58 2.23 0 0zm-2.43.28c-.7.15.49.52 0 0zm55.22.54c3.36 3.32 4.22 2.12 0 0zm-91.36.12c-.07.48 1.32.25 0 0zm-2.37.47c.81.18-.83.66 0 0zm97.38.07c-1.18 3.26.87 2.03 0 0zm-13.37.05c-.2 1.09-.82.17 0 0zm8.7.71c-.13.4.54.56 0 0zm9.52.23c-.54.15.27.53 0 0zm-101.32.22c-.72 1.92 1.04.02 0 0zm3 .25-.28.2zm83.53.35c-.54.15.26.53 0 0zm-79.1.73c-.17 0-.47.12-.96.45.68.77 1.53-.46.97-.45zm78.4.27c-2.62 2.16-3.18 4.02 0 0zm-3.74 1.36c-.42 1.14 1.14.65 0 0zm-80.67 1.04c-.45-.02.02 1.63.47.34q-.32-.34-.47-.34zm86.73.15c-1.22.81.3.45 0 0zm5.3.12c-.24.26.22 1.24 0 0zm-10.04.09c-1.37.33.2.49 0 0zm-3.9.1c-.43.54.92.44 0 0zm5.33.42c-.26.2.22.95 0 0zm2.9 0c-.35.03-.34.9 0 0zm-3.5.42c.13 1.24.4.4 0 0zm8.94.12c.04.93.9.84 0 0zm-4.11.17c-.07.57.71.14 0 0zm-2.07.13c-.8 0-2.35 1.48.15.02zm1.7.14c-.06.57.72.14 0 0zm2.83.4c-3.84 1.09 1.03.3 0 0zm1.52.43c.44 1.87 1.08.58 0 0zm-12 .86c-.62.28.62.51 0 0zm-1.44.21.97.3zm10.37.03-.1.02zm4.7.17c-.29.07.3.5 0 0zm-17.67.38-.18.19zm13.99.2c.18.87 1.42.74 0 0zm-20.18.68c-.99 0 .35.65 0 0zm22.25.38c-.24.3.23.53 0 0zm-3.35.98c-.14.38.96.29 0 0zm.09.41a1 1 0 0 0-.2.06c.13 1.45.74-.06.2-.06zm-12.34.46a.3.3 0 0 0-.3.17c1.42.69.8-.17.3-.17zm-1.07.76c-.3.06.28.5 0 0zm-7.61.3c-.15.02-.2.41.06.03zm-39.45-56.82c-2.02 1.29.03.74 0 0zm1.06-3.18c-2.02 1.3.03.74 0 0z" style="fill:#000;stroke:#000;stroke-width:1.3;stroke-dasharray:none;stroke-opacity:1"/></g></svg>