<svg xmlns="http://www.w3.org/2000/svg" xml:space="preserve" width="481.39" height="703.56" viewBox="0 0 127.37 186.15"><path d="M79.04 179.41c-.68-1.16-3.3.07-3.67-1.16-2.22.05-4.34 1.36-3.07-1.18 1.48-2.78 7.32-2.47 7.6-5.85 1.52-.98 1.2-3.11.48-2.82 1.5-1.27-.24-2.65-.93-3.92-.52.94-1.35 2.31-1.4.58-2.44.6 3.03-1.46-.46-2.3-2.06-1.53-2.69-4.4-5.87-5.58-.82-1.32-1.54-4.43-2.5-3.15-1.57-1.13-.47 4.67-2.05 2.16-.64 2.84.13 5.21 1.23 7.72-2.22 1.78-4.75-.23-2.72-2.25.43-1.59-2.15-1.18-.29-1.7.13-.37-1.27-3.4-.63-1.3-.55-3.73-2.5 3.98-3.07.83-.08-.87-.2-4.73-1.52-2.67.5-1.25-1.2-4.6-1.68-1.6-.9 4.23-.64-4.76-2.32-1.06-.06-2.48-.94-1.88-1.53-1.25.6-2.6 1.8-.44 1.75.6 1.69-2.36 1.16 4.57 2.05 1.22.6-1.66.26-1.94 1.05-1.05.45-.32-.6-3.6.27-.64.58 1.22.01 4.07 1.5 2.94.83 1.31.06 5.69 1.8 2.6-.41 2.38 1.17-3.26 1.99-1.97 1.04-.07 1.13-3.99.38-3 .96-.07.96-2.57 1.02-1.88.85-1.53 1-3.53 1.51-4.85 1.3-.32 1.6-2.06.54.18.23 1.99.04 2.49-.36.8-1.36 2.07-.6 6.04-1.33 7.33.46-1.49-.24-4.92-.3-1.34.37 1.54-.5-1.24-.5 1.16.6 3.06-2.8.74-.8 3.74 1.74 2.75.42-4.71 1.9-2.73.2-1.03 1.23 1.61.9-.98-.1-.86 1.23-4.08 1.38-1.53.46-1.87 1.03-2.9 2.14-3.07-.17-2.16 3.45-.76 3.52-.02.44 2.75 1.96-.73 2.36 2.36.94 1.14 1.54 2.98 1.17.14.1-2.5.7.09.32 2.11.33 1.76 4.46 1.68 4.47 3.98 1.89.77.78 2.85 1.4 4.12.54 1.12 5.3 1.36 4.59 1.8-2.68-.03-4.5-.66-3.07 1.42.74.7 3.48 2.4 1.27 1.8.96 1.8 1.02 2.25 1.82 4.45a42 42 0 0 1-3.17 4.84c-1.83.51-3.7 2.64-4.8 1.25-.66.54-1.78.34-2.37.72zm.38-.33c1.48-1.56-1.2-.25 0 0zm0-.4c.23-.25.11.25 0 0zm3.35-.39c-1.24-.06.14 1.44 0 0zm-5.87.31c.96-2.1-1.86 1.16 0 0zm-.46.18c.14-.2.04.3 0 0zm4.06.14c1.68-.67 1.1-2.4 2.42-2.43 1.76-.6-1.06.64-1 1.96.86-1.66 1.67-.15 1.46.31 1.57-2.25 2.08-.72 3.7-2.64-.1-1.71.65-2.27 1.96-2.82.61-2.65-2.41-2.37-1.24-4.5-.7-1.08-3.14-.86-.53-1.05 1.68 1.05-1.75-2.68-2.57-.47.99-.68 2.18-2.3-.2-.98-1.28.8-5.4.25-1.65 1.24-.33.47 3.76-.6-.2.51-.4-1.17-2.74-.48-.25 0-3.11-.32-.59.93.61.77 2.22-.59 4.13.16.93.11.44.35-1.95.09-2.02.35-.91.53-.98 1.62-1.8 2.16 2.72-1.31 3.87-.02 5.67.84 1.68 2.02-2.28-1.76-1.8 0-.1-2.39-3.04.66-1.68-1.3-2.38.2-2.16 2.08-4.24 3-.49.5-2.31.5-2.16 1.36-.34-.78-5.42 2.23-1.5.68 1.73.87-3.14 2.53.39 2.1 1.66-.36 1.86-2.37 3.09-2.42.77.05 4.09-3.56 2.03-.86-1.7.6-5.95 4.47-2.23 2.5.47.81-1.32 2.27 1.02.86.45-.94.26-1.27 1.44-1.93 2.35-1.57-1.51 1.57-1.02 1.96 3.19-2.18-.14 1.08 1.37.7zm-2.38-.52c.34-.27.12.27 0 0zm3.12-.25c.09-.37.23.37 0 0zm2.84-.03c.12-.26.24.25 0 0zm-8.54-.6c0-.58.35.5 0 0zm1.84-.5c.42-.1.04.14 0 0zm3.07-.07c.53-.11.1.12 0 0zm3.25-.1c.11-.25.23.26 0 0zm-2.75-.25c-.9-.51 1.25.4 0 0zm5.31-.2c.1-.33.06.43 0 0zm-7.66-.24c.24-.26.37.25 0 0zm6.11-.11c.14-.19.05.3 0 0zm.13-.32c-.46-.47.74.47 0 0zm-1.38-.03c.8-1.05 1.2-.18 0 0zm-2.04-.08c.42-.1.04.14 0 0zm-1.32-.16c.09-.31.09.32 0 0zm-5.35 0c.24-.13.38.23 0 0zm6.59-.08c1.01-.9 1 0 0 0zm-2.4-.06c.37-.23.38.12 0 0zm-1.74-.39c.3-.25.19.35 0 0zm1.35-.1c.28-.14.22.24 0 0zm-1.64-.07c-.15-.26.49.27 0 0zm5.16-.05c.63-1.05.21.57 0 0zm2.84-.04c.13-1.53.28.45 0 0zm-.59-.1c.14-.52.33.16 0 0zm3.07-.66c.05-.72.14.67 0 0zm-4.74-.2c.53-1.06-.17.74-.01.05zm-1.9.03c.81-.82.4-.07 0 0zm7.33-.35c.14-.18.04.3 0 0zm.67.03c.28-.53.06.32 0 0zm-7.5-.37c.6-1.4.32.36 0 0zm4.32-.39c.28-.13.23.24 0 0zm3.15-.06c.02-.32.23.3 0 0zm-8.63-.28c.46-.51-.25.5 0 0zm1.73-.14c.24-.25.12.25 0 0zm5.63-.05c-.12-.3.34.32 0 0zm-1.2-.23c.24-.25.24.25 0 0zm1.15-.14c-.31-.9.45.48 0 0zm-1.52-.3c-.4-.52 1.1.23 0 0zm.8-.62c-1.44-1.35-.5-1.13-.19-.62-.56-2.7-.44-1.33.53.26-.63-.14 1.35 1.64-.35.36zm-2.45.34c.92 0 .13-.03 0 0zm1.56-.2c-.86-.74 1 .3 0 0zm-4.88-.13c.34-.27.12.27 0 0zm2.09-.23c-1.45-.49 1.7.28 0 0zm-1.08-.05c.52-.26.35.26 0 0zm3.54-.23c-2.07-1.19 1.28.62 0 0zm-2.73-.05c.53-.26.36.26 0 0zm4.64-.25c.22-.36.08.37 0 0zm-.3-.01c-1.1-.18 1.13-.51 0 0zm-5.12-.22c1.92-.61 2.36-.2 0 0zm3.15-.3c-1.37-.84 1.6.75 0 0zm1.55 0c.3-.38.32.26 0 0zm.3-.97c-.8-.33.88.21 0 0zm-3.22-.19c.42-.1.04.14 0 0zm1.45-.54c-.22-.58 1.16-.19 0 0zm.73-.4c1.06-1.03.08.3 0 0zm-4.43-.4c.25-.13.39.22 0 0zm1.4-.13c2.13-.52.76.17 0 0zm-10.49 11.65c-.3-.25-.18.35 0 0zm8.06-.22c.57-1.4-2.59.06 0 0zm-7.18-.62c3.79-2.43-2.5-.38-.75.62l.09-.09zm.08-.4c.1-.73.55.06 0 0zm10 .91c-.2-1.23-2.15.22 0 0zm-5.59-.17c.48-1.23-2.48-.23-.18.08zm2.23-6.22c-.04-.44-.29.64 0 0zm1.16-2.24c2.03-1.24-.62-1.23 0 0zm1.38-2.93c2.34-.3 3.61-2.96 3-2.58-.04-.47-4.2 3.2-1.77.85 1.89-1.52-.03-.56.42-1.46 1.25-1.75-1.43 1 .24-1.22-.9.44-.75.76-2.23 1.05-3.81 1.11-.55 1.12 1 .27-.23.82-5.16.55-2.53 1.7 1.93-.05 2.55-1.01 1.65.14 2.28-.03-3.94.03.02.51-2.68-.53-.72.16-1.3.14-1.18.34.94.8 1.5.6zm-.54-.24c.43-.1.05.13 0 0zm2.68-1.21c1.65-1.42-1.37 1.47 0 0zm-4.39-.14c.38-.26.38.25 0 0zm.24-.28c.12-.28.35.26 0 0zm.56-.04c.54-.19.16-.1 0 0zm2.34-.16c.36-1.07.55.45 0 0zm-1.44-.09c1.53-.49-.09.32 0 0zm3.45 1.49c.06-.61-1.19-.11-.51.17zm-6.72-.49c1.25-1.59-.8-.42 0 0zm-.57-.5c2.48-1.42-2.34.31 0 0zm4.5-.14c-.12-.26-.24.25 0 0zm4.97-.1c4.28-.33-5.04-.59 0 0zm-20.7-.12c-.1-.86-1.21.42 0 0zm12.75-.42c-.33-.97-1.06.48 0 0zm-12.94-.06c-.25-.26-.37.25 0 0zm-1.06-.03c-.05-.19-.57.06 0 0zm1.15-.22c2.67-.2-.35-.13.74-1.67-1.51-2.1-2.72 1.62-1.75 1.36-2.31.26.45.54 1.01.3zm.63-.66c.11-.26.24.25 0 0zm-1.74-.93c-.08-.87.55.5 0 0zm1.5-.19c.23-.48.23.49 0 0zm13.18 1.64c2.31.39 5.54-3.91 2.93-2.3 1.5-1.26.28-3.55-.15-.57-2.06 1.8-.1 1.3-2.9 2.54-2.95-.48 2.76-.6 1.28-1.51 1.86-.59 2.44-3.74.18-4.38-1.86-1.45-4.23-1.96-4.25-2.8.6 4.23-.4-5.62-1.8-2.26.46-1.74-3.78-4.67-4.1-1.58-.22 1.3-1.3-.93-1.5 1.21-.04 1.09 1.2 3.58 1.28 2.31-.88 1.94 1.9 4.62 3.95 3.28.43.43-1.85.56-.43 1.02 1.59.19 2.6-.45.75.33 1.65 1.3 1.07.87-.49 0 .8 2.43 3 2.97 4.54 3.54 3.68-.47-3.33.21-3.04-.7 1.46 1.31 2.6 1 2.36 1.81.45.08.94.18 1.39.06zm-1.06-.24c-.16-.26.49.26 0 0zm3.65-1.65c.21-.4.38-.26 0 0zm-2.69-.83c.08-.37.23.36 0 0zm-2.9-.37c-.33-.3.63.36 0 0zm2.78 0c-.55-.72.8.42 0 0zm-1.32-.06c.3-.24.05.35 0 0zm3.79-.3c-.18-1.36.48-.24 0 0zm-5.47 0c.24-.13.38.22 0 0zm2.6-.19c-.14-.5.35.33 0 0zm4.22-.1c.24-.24.12.26 0 0zm-7.7-.76c.25-.13.4.22 0 0zm5.16-.21c-.2-.48.56.39 0 0zm-4.71-1.16c.14-.19.04.3 0 0zm2.22-.07c.1-.33.06.42 0 0zm-5.99-.07c-2.92-1.91 1.44.66 0 0zm2.6-.07c.33-1.45 1.3-2.58 0 0zm-1.44-.1c.28-.14.23.23 0 0zm4.44-.14c.09-.32.09.31 0 0zm-.97-.07c.17-.47.3.38 0 0zm-3.58-.05c.42-.1.04.14 0 0zm-2.38-.98c.34-.57.51.4 0 0zm3.46.05c.35-1.25.14.35 0 0zm3.7-.28c-.12-.35.3.26 0 0zm-7.26-1.28c.32-.29.45-.2 0 0zm2.8-.19c-1.45-.8 1.45.62 0 0zm.37-.14c-.3-.6.47.51 0 0zm2.27-.05c-.12-.3.33.33 0 0zm-5.44-.08c.49-.63.3.2 0 0zm-.16-.46c.42-.75.46 0 0 0zm.18-.63c.1-.33.05.42 0 0zm-4.83 8.2c-.54-.3-.24.33 0 0zm.19-.28c-.35-1.59-1.16.63 0 0zm-.67-.4c.1-1.98-1.14-.56 0 0zm1.02-.24c.22-2.16-.91.75 0 0zm-.31-.19c-.2-1.22-1.65.67 0 0zm-.2-.71c.03-.95-.88.54 0 0zm-4.03-.12c-.03-.34-.3.23 0 0zm3.75-.36c.86-.92-.28-4.74-.05-1.49.25-.02-.24 1.84.05 1.5zm-2.07-1.84c-.27-.12.26.6 0 0zm14-2.5c-1.97-3.22.35 1.92 0 0zm-9.4-1.36c.92-1.97-1.65 1.49 0 0zm.99-.2c-.16-1.21-.55.57 0 0zm7.21-.64c-.35-.25-.11.46 0 0zm-40.22 21.21c-.34-2.3-4.32.34-2.1-2.69 1.84-1.62 5.62-.94 3.89-3.7-.59-3.56-2.03-7-2.91-10.53.17-3.31-1.72-6.45-1.32-9.75-1.02-3.46-1.83-6.97-3.07-10.4.18-2.94-5-3.13-4.5-5.9-1.77-1.15.14-2.36-1.34-3.6 2.04-.83 3.5-.76 1.96-2.82 1.03-3.54-2.28-6.64-2.08-10-1.76-1.9.59-4.6-2-6.38-1.42-2.99.91 2.73-.55 3.6-.12 1.9.54 4.62.88 5-.67.8 1.25 1.62-.53 1.15 1.09 1.65.4 5.89-.32 6.25-2.88-1.8.07-6.43-1.28-6.45.85-1.06-1.41-1.45.65-1.42.23-2.48-.8-5.13-.24-7.5.1-1.66.3-4.16-1.92-5.13-3-3.3.78-6.2 4.19-8.12 1.72-1.7 4.15-.23 2.96.52-.66 1.86 1.66 5.44.17 6.48-.62 1.33 2.26 3.47 1.91 3.7-1.2-.34-.33 2.51-1.22.05-1.43-1.75.58 2.96.12 3.95-1.3 1.93 5.02 3.8 3.15 3.8-1.84.2 1.41 4.83.18 5.5-1.06-1.47-.62-1.08-.12-.5.43-2.46-1.65-4.4-.79-1.01-.46-1.51-.5-3.88-.12-4.26 2.47.09-2.46-1.73-1.09-.08 2.02 3.32-1.14-2.25-.78.85.43 3.41 2.7 6.53 1.95 9.99-.01 2.56 4.88 1.81 4.66 4.83 1.26.52 3.38 1.34 5.46.55 2.54 1.12 4.68-.98 6.36-1.97-.03-2.01 3.59-6.37 1.66-7.1.45-1.46 2.81-5.67.37-3.48-.6-.23-3 2.25-2.56 1.78-1.08-.92-2-.75-2.56-2.42-1.36-.96-2.21-3.15-3.7-.5-3.6.82.56-4.66-.43-5.52-1.54-.67.62-2.92-2.8-3.53-.65-.85 5.3 1.65 4.36-1.75.6-2.3 9.07-4.75 9.66-4.29-4.04.52-9.55 3.35-9.88 5.6-.34.1-2.68 4.46-1.24 3.44 1.52.07 1.35-.18 2.73.05-1.62-1.98.65.61 1.12-.35.62.05 3.02-1.27 4.69-1.28 2.7.25-2.37.3.55.7-1.95-.12-3.06-.36-.33.26-1.4.64-4.42 1.24-2.32 1.22.14.15-.76.34.07.53-1.43.1-2.57-1.39-1.92-.25-2.22.08 0-.97-3.32-.45-.14.9-2.26 2.02-2.22 4.16-.36 3.98 2.95-1.58 4.1-.42-2.23.65 1.37 1.67 1.16.86 1.64-.37 3.18-.89 4.53-.59 1.32.93-3.34.64-4.8 1.14-2.68.58 5.25 1.01.72.67-.46-.16.27 2.13.78 1.22-.04 1.18 2.65.16 3.48-.78 1.41-.17 5.27-3.4 2.85-1.13-.16.26.81.33 2.03.23-1.76.93 2.22.43 2.1 1.13 3.01 2.08-2.32-1.41-.07.97 2.26 1.99-2.62-1.32-.69.8 2.25 1.46 4.26-1.78 3.27-3.2-.56 3.46 3.27-.44.51-.8 3.24 1.18.32-2.61 1.82-2.12.72-1.37-.04-3.03-.77-2.5 1.52 2.48-.95-1.14-.64.36-.63.6.51 1.56-.7.38-.16 1.14-.2 3.45-.45 4.15-.8-1.61-.58-3.29-1.36-3.25-1.64.27-.4.2-1.03.07-.4 2.2 1.47-.93.2 1.44-1.18-1.6-.14 1.97-1.43 1.1-.8 1.07-.8.44-1.43.67 2.4-.76 2.13-4.11 2.08-4.33-.43-.6 2.12 1.14 2.6.52-.3-.38 1.8-1.89 3.85-2.6 1.11-1.36 4.55-2.57 3.35-2.86a4.6 4.6 0 0 1 3.39-1.51c1.14-1.46 2.45-2.5-.9-2.03-.74.44 1.18-.34-.2.37.5.47-3.2-.45-2.08 1.64-.29-2.11-3.63.38-1.9.56-1.62-1.45-3.24 1.2-1.62.22-.97.67.58 2.47-.6.52-1.33.8-1.16-.3-.95.79 2.25-1.26-.4 1.4-1.23-.33-2.6.42 1.61 1.66.16 1.92-.22-.58-.58-.74-1.61-.15-.72 1.72.4 1.03 1.05 1.02-2.54 1.57-1.77.01-2.11-.83-.73-.1 2.63-2.66 4.49-3.22 2.07-1.22 6.15-3.29 8.47-2.67.27.8 3.31-1.95-.08-.98-2.2.54-6.62 1.7-9.82 2.81-2.75.76-6.1 4.32-3.99 1.69 3.3-1.34 5.1-2.08 2.06-3.57-.67-1.09-8.54-.38-7.06-1.19 2.08.33 6.41.28 7.5.97-1.25-.12.92.27.54.73 1.68.52.25 1.32 3.47.45a36 36 0 0 1 13.46-2.45c4.16.17-1.29.95-2.37 1.32-1.2 1.26-4.28.15-4.26 2.36-1.1.82-3.6.17-3.07 2-1.68 1.1-3.44 1.13-.24 1.37 2.29 1.38 6.74-.37 8.14 2.66 4.74.3 3.75 4.51 7.9 5.82 1.67 0 .07 2.2 1.3 2.37-3.79-.6 1 3.97 3.28 3.9-2.6.73 1.52 2.64-.48 2.71 1.2 1.3 3.7 5.03 2.79 5.2-2.64.02-.77 5.1-1.07 7.03 1.3 2.01-.83 1-.5.28.44.38-.04-4.46-.16-5.49-.26 1.52-.05-4.02 1.92-1.88-1.32-2.34-1.44-.63-1.47-3.06-1.6-.82-3.02-4.6-3.74-3.05-1.34-.36-3.43-.08-3.27-1.06 1.3 1.16 4.15.56 3.89.02-.44-.55 3.3 3.14.97.26 1.3-1.32-1.37-1.4-2.9-2.78.22 1.24-1.64-1.63-.59-.46-.86-1.44-2.74-2.26-2.76-2.54-2.49.12-1.27 2.01-3.97 1.1-.86.99-3.37 3.81-1.53 1.05.68-1.5 2.96-1.07 3.3-1.26-.22-2.12 5.53-.74 4.53-.98-1.04-.01-.43.3-.88.55 1.3 1.6.17-.34 2.36.2-1.99-1.5.25-1.98-2.37-2.55-1.4-.98-.41 1.46-1.27-.89-1.86-1.52-4.17-3.68-6.7-1.9-1.72-.5-5.92 4.71-5.1 4.36.05-.7.74-2.42-1.23-.09-1.07 1.84-1.74 3.05-1.6 3.8-.62 2.1.11-1.25-.84.12-1.36 1 .58 2.86-.65 4.5-.04 2.2-2.1 2.43-1.75.05-.52-1.12-.9.82-.56-.88 1.1-2.27-.43-2.66-2.3-.68-2.43-.84 2.25-1.5 1.3-3.46 1.03-1.5-1.19.67-1.59 1.14 1.93-1.26 1.16 0-.12.06.15-1.67-.92-.06-.1.42-.35.64-.97-1.53-.95.75 1.77-.5.18.52-.23.32.86 1.1 1.9 1.4 2.83 2.82-1.24-.08.15 3-1.97 2.28-1.92-2.47.16-4.7-1.26-3.44.4 2.75-1.66-5.33-1.22-1.07 1.73 1.92.65 3.73 2.75 5.73 2.4.72-1.56.04-1.6-1.38-.26 1.89-.1-1.86-.57.5-.6 1.52 1.18-.31 1.15 1.4-1.26.56 1.92 1.73.36.13 1.24 0 .88 3.67 2.77.84 2.13-.14 2.1-1.38 3.3-2.1 2.1.58.93-2.5 1.93-2.51 1.22.49.8-3.26 2.63-3.15 1.9.98 1.71-.5 2.6-2.43 2.21-1.19 2.56.4 2.13 1.22.5-2.55-3.15-.7-1.85.88-.2 1.93.49 2.77.72 3.13-.22 1.4-1.27 5.57-.09 5.58 1.62-.98-1.84.62.58-1.1.8.2 1.49-2.53 2.2-1.52.88-1.86 1.83-3.2 2.73-4.49 1.23.89 3.63-2.39 2.9-.78-.47 1.32-2.54 1-3.7 2.8-2.45 2.98 4.55-1.64 3.82-1-3.18.9 3.33.11-.55.6-2.2-.08-5.26 4-3.46 3.52.36-2.41 3.38-2.22 5.5-1.8 2.48 1.25.64 2.58.94.84-2.07-.6-3.05-1.46-5.3-.16-3.06 2.27.4 2.1 1.8 3.69-1.55 2.42 6.45-1.72 2.37-.87 2.29 0 1.55-3.26 1.94-.4 0 1.46-.57 2.98.36 1.7-1.32 2.05-.82 2.84-.64 5.06.92-1.8.92-2.74 1.03-.44.3.18 2.2 3.32 2.05.4-.06.53 1.45-1.93.4.02-.92 2.49.9 5.16-.44 7.77-.45.42-1.33-4.68-.64-6.23-1.07-.5-.95-1.45-1.53-1.48-.2-1.99-.61.63-.72.28-.08 3.32 1.7 6.04 1.09 9.42 1.25 1.7-.1 5.43.4 6.04-1.11-2.07-.32 3.51-1.04-.18.64-2.24-1.54-.01-1.32-2.5-.7-.57-1.42 1-1.2-1.1-1.08-3.83-1.73 2.2-.76 3.33-.98-.5-.84-5.06-1.06-5.27.79-1.6-1.36-4.2-1.5-4.84.42 1.59-.4-.73-.03 1.32-.36-1.51-.27-4.8-2.32-4.78.89 2.06-1.33.6-.02.74-.57-4.08-1.79.81.35 2.25-.2 1.55-2.95 6.24-3.4 2.06-1.02-1.02-.77-2.44-1.75-.08-1.58 2.1-.7.11.14-1.2 1.3-1.17 2.17-3.99 2.66-4.7-1.26 1.4 1.7-2.32-.64-.22 1.44-3.7-2.81 2.56-3.45 1.13-.8-.55 3.27-4.65.14-1.7-1.43 2.27-4.79 1.97-5.67 1.92.76.34 3.61-1.66 3.83-3.01.23-.53-3.3 2.77-.95.67.73-1.47 1.72-2.04.82-2.86.13 2.3 2-.4 1.73.48 2-.93-3.77 3.58-2.46 3.9 1.42 1.16 4.05-3.7 4.67-3.12-.16.8-3.57 4.75.38 2.2.02-.44 1.12-1.99 2.37-2.06 1.21-1.43.95-2.26-.45-2.6-.3-1.77-3.7-1.08-5.7-.86-2.62.13-3.72 1.73-5.23 3.03-2.37 1.38 1.04 4.32.99 1.15.8-1.17 2.8-2.63 3.95-2.8-.43.6-2.83 1.58-3.28 3.63.82-1.63.95-2.62-.45-.59-.35 2.12-3.14 3.1-2.28.16.07-1.7 1.77-2.2-.58-2.07.36 1.27-1.86-2.84-1.08.16.88 1.74 1.68 3.16.18 1-1-1.2-.67-3.72-1.53-1.53.28 2.77 1.61 4.8 2.6 7.22.54 1.84.82 2.85-.09.32-.83-1.33-2.06-5.9-2.76-5.67-.49.27.13 2.6.5 2.98 1.97 2.15-2.02 5.3-.48 7.18-1.04-.78-1.9 4.54-.37 1.53-.02-2.2 1.6-.82.64-.92-.46-.36-.2 1.46-.33 1.62-.89 1.09 1.96 1.62 2.5 1.9 1.12-.52.44-1.35 1.38-2-.47-.42-1.6-1.9.1-.82-.48 1.2 1.44-1.54.24.4.63.49-.7 1.4-.67 1.92-.24 1.54.85 1.44-1.14.6-.77.9-2.5-1.95-2.33.4-.62-2.13-1.28-1-.67-2.28-1.37 1.52-1.63 4.45-1.13 1.67.02-1.54 2.5-6.61-.95-3.52-.58-.49.56-2.67-1.6-2.26 1.47-1.15 1.24-4.68.52-4.27.9-2.15.93 1.18.68-1.32-1.33-1.82-7.5 5.03-3.26 1.92-.72.46-4.58 4.01-4.82 5.76-.14.27-3.56 2.77-.22 1.07-.17 1.05 2.9-.94 1.85.03-.58-.55-2.68 1.65-2.18.58-.94 2.36-2.34 2.68-2.19 4.83-1.81.62 2.85 2.04 2.44 1.91-1.35.48.13.12.23 1.22 1.5 1.91-1.52-1.72-.14.46.41 2.21 3.18 3.07 5.17 2.26 4.13-1.45-1.48-5.06-1.3-5.74.48-2.04-1.75 1.55-.1-.97 1.1-1.04 3.91-3.02 1.6-2.73-.5.15-.6-2.67-2.05-.75-1.66 1.8-1.5.85-1.43-.6-.3 2.96 1.9-.7 3.12-.37-.47 2.13 2.38 1.13 1.95 3.4.25.9-.29 3.44.78 1.18-2 4.54.42-4.45-2.97-.78-2.09 2.59 4.04 4.67 2.42 7.24.58 1.67.78 2.68 1.34 4.07.67.75 2.38 3.4 1.1 2.3.85 1.9 3.48 6.8-2.52 6.07-4.35-1.14-7.71 1.65-11.86 1.42-1.8 1.9-3.97-.48-5.1.75zm.73-.75c2.8-2.3-2.45.76 0 0zm-.52.3c.14-.18.04.3 0 0zm.67-.79c.4-.38.4.16 0 0zm1.92.98c2.07-.26 4.47-1.96 4-.7 2.95-.69 1.29-.27 2.55-.68 1.38-1.2 1.83-.5 3.7-1.06-1.17.9.56-.42 1.68.13 4.89 1.56 7.58-1.82 4.62-4.53-.77-2.7-2.16-1.32-1.3.5.07 1.48-2.2.02-1.26.45 3.1-2.33-3.05-2.36-1.35-.9-.3-.88 2.48 2.35-.42.49 2.73 2.07-.64 1.12 0-.43 1.09-2.54-3.24-1.46-2.7-.6-.75.59-4.19 1.1-.9 1.06.8.52 2.08.98.09.43.04 1.91-.44-2.07-2.42.2-1.03.95-3.2 1.23-5.69 1.82-2.54.69 2.96-1.05-.88-.03-2.1-.08-5.49 2.58-1.72.5 2.08-.18 5.27-.38 1.43.05-1.02.42-2.92.07-2.55 1.56-2.37 1.34 1.4.54 1.58-.57 2.34.05 3.55-1.03 5.77-1.5 3.7-1.58-1.6.91-2.15 1.19-2.79-.7-.75 1.51-3.5 1.83-.52.2.4 1.08 1.42.79zm.43-.43c.12-.25.24.25 0 0zm1.22-.45c.1-.33.06.42 0 0zm2.46.06c.53-.11.1.12 0 0zm-7.19-.2c.51-.54.2.19 0 0zm11.16-1.18c1.85-1.31-.6.55 0 0zm-3.17-.1c.13-.51.33.17 0 0zm5.39-.4c.45-.3-.12.38 0 0zm-5.4-.17c-.3-.62.52.45 0 0zm-1.9-.19c.64-.1.13.12 0 0zm13.16-.01c.37-.37.2.16 0 0zm1.4-.07c0-1.05.23.41 0 0zm-15.92-.56c.42-.36.33.18 0 0zm13.08-.02c.23-.87.33.37 0 0zm-12.36-.2c.8-.26.59.26 0 0zm.73-.1c1.96-.77 1.61-.32 0 0zm1.86-.24c.87-.52.3 0 0 0zm4.87-.13c1.9-1.68.12.6 0 0zm4.62.14c-.28-.45.15-.21 0 0zm-10.78-.12c1.54-.7 1.52-.43 0 0zm2.6-.4c1.6-.83 1.03-.42-.15.21zm8.56-.12c.16-.37.14.25 0 0zm-5.1-.15c.27-.38.03.45 0 0zm-3.76-.2c1.54-.78-.82.53 0 0zm8.18.03c1.04-.31-.63.37 0 0zm-3.98-.08c-.47-.46.7.27 0 0zm3.16-.17c.12-.25.24.25 0 0zm-2.14-.25c-.39-1.24.5.82 0 0zm-3.39-.45c.7-.29-.24.28 0 0zm5.92 0c.12-.25.24.25 0 0zm-2.91-.29c-.44-.65.8-.08 0 0zm-1.9-.27c.24-.24.12.26 0 0zm5.15-.28c.23-.24.11.26 0 0zm1.57-.24c-.52-1.07.72.94 0 0zm-4.46.1c-1.09-.45.09-.4.2.14zm-1.13-.46c.64-.1.12.11 0 0zm1.32-.02c-.38-.36.73.27 0 0zm4.59-.2c-.3-.3.42.07 0 0zm-.17-.37c-.29-.6.47.52 0 0zm-20.75 7.03c1.77.1 2.49-2.22 0-.49.1-.96-.53 1.7 0 .5zm.65-.58c.29-.49.17.37 0 0zm4.07.57c1.85-1.66-4.4-.2 0 0zm-4.1-1.17c1.1-1.05-1.7.81 0 0zm1.73-.98c.75-.87-1.2.67 0 0zm1.1-.46c.36-.44-1.67.24 0 0zm.73.03c-.38-.15-.09.15 0 0zm.94-.46c2.75-.48-.62-4.57-.12-6.26a54 54 0 0 1-2.34-9.35c-.35 1.13.46-3.09-.19-4.12-.14-3.02-1.24-4.76-1.63-7.52-1.72-2.82-.88-6.87-3.21-9.1-.28 1.32-1.76-.03-1.52 1.19.98 2.66 1.1 3.36 2.1 6.58.5 2 1.17 3.97 1.73 6.33.97 1.86-.17-.4.14 1.9.34 3.06 1.23 6.15 1.53 9.25a63 63 0 0 1 2.79 10.45c.77-1.14-.5 1.44.72.65zm-.12-.34c.08-.31.08.32 0 0zm.77-.49c.08-.31.08.32 0 0zm-1.17-1.05c-.19-.32-.1-.95 0 0zm.73-.53c-.26-.65.3-.08 0 0zm-1.1-1.56c.08-.32.08.31 0 0zm-.29-1.44c.1-.33.06.42 0 0zm-.1-.38c.09-.32.09.31 0 0zm.62-.47c-.12-.3.33.33 0 0zm-.15-.41c.14-.19.05.3 0 0zm-.08-.38c.08-.44.08.44 0 0zm-.98-.32c-.28-.97.42.72 0 0zm.85-.3c-.24-1.8.28.45 0 0zm-.44-1.38c-.68-1.31.58.63 0 0zm-1.26-.8c.08-.31.08.32 0 0zm.95.1c-.28-.45.15-.22 0 0zm-.43-1.19c-.15-.48.38.33 0 0zm-.9-.86c-.38-1.58.53 1.3 0 0zm.04-.5c-.15-.84.33.7 0 0zm.63-.27c.08-.32.08.31 0 0zm-1.06-1.36c.1-.34.06.42 0 0zm-.1-.53c.22-.84.19.76 0 0zm.78-.24c.1-.33.05.42 0 0zm-.89-.32c-1.42-2.8.9.63 0 0zm.25-.24c.23-.37.09.37 0 0zm.16-.53c.08-.68.08.69 0 0zm.27-.01c.1-.79.26.98 0 0zm.4-.82c.08-.32.08.31 0 0zm-1.41-.18c-.16-.99.34.83 0 0zm-.13-.73c.08-.44.08.43 0 0zm-.06-.53c-.25-.51.36.33 0 0zm-.03-.52c.07-.56.07.56 0 0zm.96-.63c.08-.44.08.44 0 0zm-.01-1.1c-.23-2.5.2 1.47 0 0zm.28.15c.14-.19.04.3 0 0zm-1.6-.52c-.15-1.1.35.95 0 0zm.25-.53c.26-.74.18.85 0 0zm-.08-.7c.1-.32.06.43 0 0zm-.1-.35c.13-.18.04.3 0 0zm-.25-.44c-.08-.4.3.18 0 0zm1.01-.12c.14-.18.05.3 0 0zm-1.04-.3c.08-.44.08.43 0 0zm-.11-.47c.14-.18.04.3 0 0zm1.11-.07c-.2-.47.53.28 0 0zm-.19-.42c-.32-.46.4.06 0 0zm-.25-.62c.14-.19.04.3 0 0zm-1-.22c-.31-.56.37.02 0 0zm.71-.62c.14-.19.05.3 0 0zm-1-.36c-.13-.3.33.33 0 0zm.68-.37c-.55-2.26.63 1.38 0 0zm-1.06.16c-.3-.31.42.06 0 0zm-.4-.72c-.13-.36.3.26 0 0zm1.2-.6c.14-.19.05.3 0 0zm0-.28c.14-.19.05.3 0 0zM33 139c-.59-2.08.31.22 0 0zm-.23-1.35c.09-.32.09.31 0 0zm-.19-.63c.08-.32.08.31 0 0zm.86-.32c.14-.19.04.3 0 0zm-.16-.39c-.11-.35.32.27 0 0zm.44-.1c.18-.34.3.26 0 0zm-1.58-.21c-.15-.49.38.32 0 0zm.95-.1c-.15-.6.38.44 0 0zm-1.96-1.36c-.27-1.06.21.27 0 0zm1.8-.15c-.46-.93.43 0 0 0zm9.12 34.78c2.65-.65 6-2.31 6.97-3.67-1.26.3 2.41-2.12.46-3.25-.07-1.68-2.04 2.73-1.73.21-3.55 1.25 3.52-2 0-2.75.3-2.86-4.53-4.42-3.9-7.22 1.19-1.72 2.8-4.32 1.06-3.75 2.8-2.12 1.52-4.85.2-6.04-1.11-.07-1.16 3.24-1.45.48-.4-1.79-1.35-2.87-1.92-2.25a10 10 0 0 0-1.45-5.44c-1.38.96 3.4-3.76.16-4.93-2.18-.14.05.74-.06 2.68-.51-2.6-2.3 3.98-.13.56 1.07-.01-1.96 1.48-.37 3-1.03-3.46-2.85-.34-1.87 1.47-.92 4.45-1.24-1.89-1.51-3.32-1.43.65-2.83-2.04-2.55.16.5 3.36 1.95 6.62 2.65 9.94 1.77 5.03.58 10.32 2.56 15.34 1.69 2.53.64 7.07 2.88 8.78zm-1.21-35.2c.13-.68.59-.33 0 0zm-.09-.7c.14-.18.04.3 0 0zm-.23-2.17c-.32-.46.4.06 0 0zm14.27 35.16c-1.15-.97.82 1.7 0 0zm-.15-.57c-.26-2.06 3 .81 1.18-1.17-.7-.56-3.64.57-.66-.77.32-.8-5.68.96-2.04-.01 3-.86.24-.77.27-.4-.57-.83-4.04-.06-3.19.34 2.43-.17 1.9.3.12.32.36.31-2.92 2.08.2.86.6.94 3.6-.12 4.12.83zm-3.65-.7c-.39-.35.87.26 0 0zm1.34-.22c.7-.27.62.21 0 0zm2.31 0c.37-.25.25.26 0 0zm-3.6-.08c-1.52-.76 3.02.33 0 0zm1.82-.48c-.84-.24 1.12.15 0 0zm-2.5-.88c-.15-.39.6.41 0 0zm4.46 0c-.06-.38-.33.38 0 0zm-6.19-1.04c1.4-2.2-3.15.79-.52.16-.23.86.13.42.52-.16zm-.38-.52c.96-.89.47.32 0 0zm3.85 1.07c1.5.1 3.36-.63 2.01-1.43-1.73.78-6.97 1.43-2 1.43zm-1.87-.08c-.14-.43.84.22 0 0zm2.92-.22c.36-.4.2.22 0 0zm.39-.18c.41-.36.44.03 0 0zm.33-.56c-.73.49-.39.25 0 0zm-3.18.46c-.83-.9.83.17 1.32-.22 2.15-.6-.69-.44 1.94-1.36 0-1.06-3.02.95-.26-.55 1.28-1.88-3.01.8.02-1.11 1.17-2.15-1.11.64-2.25.9.87-.99-2.95.84-3.5-.58-1.27-.26 2.81 1.26 2.76 1.05-3.42-.17-.68.67.7.4 1 .46-3.25.08-1.24.76-2.5-1.58-.18.8.51.7zm1.05-.84c-2.27-.12 1.48-.68.12.12zm1.8-.62c.34-.66.06.42 0 0zm-4.46-.27c-.3-.32.42.06 0 0zm2-.45c.57-.33.13.29 0 0zm2.71 1.22c.97-.83-1.74.39 0 0zm.52-.97c-.17-.47-.3.38 0 0zm29.78-7.76c.05-.88-1 .4 0 0zm-1.3-.55c.8-.47 1.7-.06 1.14-1.62 1.17 0-.6-4.14-.47-5.7.4.99-2.16-.07-1.98 1.65-2.19-3.54-2.93 4.46-1.35 1.55 1.4-1.2.1 3.96 1.99 2.6.3.2.29 1.87.66 1.52zm.28-1.44c.46-1.64.46.15 0 0zm.29 0c.25-.25.25.25 0 0zm-1.5-.66c-1.02-1.72.85.6 0 0zm1.71-1.88c-.17-.58.5.39 0 0zm-.4-.22c.22-.6.22.6 0 0zm-2.76-.64c-.32-1.36.6.52 0 0zm.1.9c-.5-.53.17.59 0 0zm-33.8-.86c-.29-.15-.51.5 0 0zm9.25-.55c1.55-1.79 3.67-3.41 2.53-5.9-.52 1.53-.33-.87.33-.4.2-1.43-1.67.23-2.16-.52-.17.46 1.52 3.96.25 1.26-1.17-.47-.56 4.37-1.5 5.83zm-.4.07c.16-.32.33.12 0 0zm.39-1.65c.18-.45.44-.16 0 0zm1.1-1.07c.54-2.12.2.67 0 0zm.96-.53c.18-2.2.64-.83.08.33zm-.72-.67c.23-1.37.13 1.47 0 0zm1.25-.45c.24-.37.24.36 0 0zm-.31-.64c.03-.73.23.63 0 0zm-1.61-.37c.15-.33.33.12 0 0zm17.02 4.6c.9-.64-2.17-.7-.66.29l.18.13zm-25.62-1.77c.22-2.17.15 1.66 1.14-.72 1.06-1.9 3.97-4.96 4.09-5.59 1.44-1.14 1.27-3.16 1.74-4.82-.32.25-1.24 2.1-.2-.29.9-.55.6-5.13.18-4.3-.38 0 .15.78-.47-.97-1.46-.6 2.29-.5-.37-.83-1.13 1.24-1.26 4.82-.9 1.33.82-1.53.19-4.78-1.08-4.02-.08-1.82-1.62-2.01-2.35-3.02.13 1.76-1.3 3.63-1.41 5.06 1.25-.58-2.86 1.69-.45 1.96 2.5-.61-1.53.45 1.62.26-3.04-.14-2.42.5-2.18.88 1.93.4.55.61 1.72 1.33-2.19-2.59-4.37-1.06-3.18-.43 2.14.65 3.59 4.93 2.03 1.73-.52-.34-3.27-2.68-4.03-1.51-2.93 0-.51 1.23-3.4-.21-1.1.36 2.98 1.86 1.85 2.41.85 2.53.32 2.01-.27-.16-1.58-2.3.65 2.18-1.36 2.77 2.44 1.44 2.7-2.72 2.77.54.6 1.69.26 5.75 1.17 5.95 1.19-1.69.8 3.01 1.72 2.06.39 1.83.53 3.99 1.62.59zm-2.89-3.7c.02-.48.3.35 0 0zm3.27-.64c.3-.76-.07.57 0 0zm.71-.84c.4-1.6.49.35 0 0zm-.26-.56c.09-.45.06.54 0 0zm.65-.72c.33-2.2-.7-1.63-.4-3.5.27.76 1.02 3.62.4 3.5zm1.45-.38c.05-.75.38 0 0 0zm-6.94-.5c.23-.61.23.6 0 0zm6.89-.25c.37-1.87.6-.6 0 0zm-1.77-.07c.08-.32.08.31 0 0zm-4.85-.19c.16-.43.06.45 0 0zm.04-.51c.08-.31.08.32 0 0zm9.55-.84c.43-1.05-.11.78 0 0zm-11.78.07c.68-.21-.17.25 0 0zm2.12-.18c.14-.19.05.3 0 0zm9.83-.76c.1-.33.05.42 0 0zm-9.3-.02c-.12-.3.33.33 0 0zm6.66-.12c0-.82.2.73 0 0zm-7.47-.19c-1.1-2.63.18-.57 0 0zm.33-.03c-.14-.5.35.33 0 0zm9.88-.41c.09-.46.06.54 0 0zm-3.3.04c-.3-.75.45.52 0 0zm-3.44-.74c.1-.46.06.54 0 0zm.27.01c-.85-.94-.8-1.84 0 0zm1.03-.14c-.21-.67.33.34 0 0zm-5.85-.13c-.3-.44.7.52 0 0zm5.48-.46c-.3-.32.53.43 0 0zm3.28-.38c1.34-1.32 1.2-.83 0 0zm-.69-.25c-1.83-1.82-.06-.96 0 0zm.62-.5c2.04-.79-.6.38 0 0zm1.1-1.15c.58-.82-.4.84 0 0zm1.96-.08c.14-.19.05.3 0 0zm-.8-1.87c-.02-1.22.27.84 0 0zm-2.96-.31c.2-.4.44 0 0 0zm-1.44-1.55c.7-.3-.24.27 0 0zm.34-.21c.34-.27.12.27 0 0zm2.66-1c.3-.63.04.5 0 0zm.08-.33c.17-.37.15.26 0 0zm21.26 21.17c-.3-.25-.18.35 0 0zm8.08-.27c.86.03 2.42-1.76 2.15-2.25-1.3-2.39-1.52-1.76-2.23-.13-2.03-2.27-1.76.47-1.62.02-1.73-1.41-.94-.68-2.69-2.12-.47-.35.51 5.25 2.82 4.14-1.56-1.48.66-.5-.2-.27 3.13.48-2.44.56.92.82zm-.38-.1c.14-.17.97.07 0 0zm-1.98-.15c-.57.41-.31.21 0 0zm-.77-.45c-.43-.73.8.7 0 0zm4.57-.38c.53-.34.5-.06 0 0zm-3.69-.64c-.25-.51.36.33 0 0zm-1.12-.1c.28-.14.23.24 0 0zm5.2.05c-.74-.96.83-.05 0 0zm-5.63-.47c-.5-.57.72.4 0 0zm0-.3c-.55-.73.78.56 0 0zm.77.09c-.12-.36.3.26 0 0zm4.68-.07c.09-.31.09.32 0 0zm-5.56-1.58c-.33-.65.39.4 0 0zm-.55-.06c.02-.47.3.36 0 0zm-4.13 4.21c-.19.03.14.31 0 0zm-.36-.26c.85.64.75-.22 2-.74-.7-1.62 1.29-.57 0-2.75-1.82-.16-1.5.58-1.06-.85-.73.35-2.59 1.63-2.16 2.72-.18.4 1.22 2.5 1.22 1.62zm0-.56c.43-1.23.81.68 0 0zm1.02-.33c-1.26-1.12 2.25-.47 0 0zm.14-.16c-.58-.15.35.32 0 0zm-2 .04c-.76-1.51 2.01.41 0 0zm.27 0c-.23-.24-.28.13 0 0zm2.3-1.23c.22-.49.07.49 0 0zm11.3 2.07c1.03-1.95-.55-6.8-.8-2.96.22.27.54 4.04.8 2.96zm-30.28-.24q-.18-2.29.13-1.76c.54-3.28-1-1.16-.82.95-.52 1.05-.82.96.44 1.19l.2.17zm-.54-1.18c.29-.64.04.43 0 0zm.4-1.32c-.57-1.05.88.54 0 0zm-.7 2.06c-.33-.12-.15.33 0 0zm1.2-.25c.54-2.6-.81.78 0 0zm-11.88-.6c.26-1.58-.44-4.04-.56-5.13-.12-1.03-.13-3-.8-1.47-.54-3.13-.98 2.49-1.38-.99-.68-.83-.2 2.2.27 1.67.51 1.07-.37 4.53 1.14 2.8.34.5 1.2 4.28 1.33 3.12zm-1.14-3.3c.14-.2.05.3 0 0zm-.25-.46c-.12-.35.31.27 0 0zm-.66-1.92c.09-.37.23.37 0 0zm1.21-.77c.1-.33.06.42 0 0zm38.78 5.86c.83-.7-2.17-3.26-.67-1.51.05.54.97.98-.1 1.02-.53-.1 1.2.86.77.49zm-1.15-1.93c.66-.35.54.2 0 0zm-24.66.86c-.43-.83-.2 2.4 0 0zm-10.76.53c-1.06-2.22-1.13 1.54 0 0zm35.52-.43c-1.67-.71 1.18-2.2 1.06-.47.9-.9.52-2.3-.17-1.4 1.12-3.6-7.2 0-2.31-1.75.4-1.76-2.83-5.27-1.66-1.87.08 2.67-1.85 2.9.9 5.12.55.46 1.44.4 2.18.37zm-.92-.22c.42-.1.04.14 0 0zm-.85-.1c.28-.13.23.25 0 0zm-.34-.13c-.1-.38.45.3 0 0zm.47-.15c-1-1.16 1.07.09 0 0zm.02-.27c-.37-.25-.25.26 0 0zm-.96-.2c.11-.26.23.24 0 0zm.1-.68c-.96-1.23.83.18 0 0zm-.52-.44c-.99-1.1.98.15 0 0zm1.83-.27c-.67-.39 2.08-.7 0 0zm-.5-.6c.64-.23-.13.33 0 0zm1.35-.03c.38-.62.59-.09 0 0zm-1.92-.75c.14-.19.04.3 0 0zm-.33-.59c-.5-.82.65.66 0 0zm-5.9 3.88c1.66-.77 1.12-1.08.88-2.33.17.32-2.29 3.07-.87 2.33zm-16.4-.86c.34-2.17-.67 1.88 0 0zm-.33.31c.04-.91-.72.6 0 0zm21.84-.18c.06-.5-1.5.16 0 0zm-.1-.43c-.03-1.1-.48.48 0 0zm-21.64 0c-.52-.25-.35.27 0 0zm21.02-.1c-.13-1.45-3.3-2.88-1.38-.88 1.4 1.81.5-.3 1.38.87zm-2.87-.04c-.42-.5-.6.44 0 0zm-36.52-.3c1.31-1.76-.97-4.1-.58-.93.05.09.61 2.07.58.94zm-.21-.78c.08-.58.06.67 0 0zm-.07-1.48c-.06-.5.48.42 0 0zm48.59 2.45c-.38-1.05-1.2.75 0 0zm-28.97-.3c-.96.05-.17.62 0 0zm.9.28c.33-1.05-1.15 0 0 0zm-.3-.12c-.05-.41.48.15 0 0zm8.93-.05c1-1.55-1.92.88 0 0zm-.64.1c.24-.25.12.25 0 0zm-9.8-.15c.23-.9-1.04.71 0 0zm-2.15-.37c2.04-1.07-1.16-.07-.82.4zm20.22.15c.26-.85-.75.67 0 0zm8.08-.35c.99-.03.18-3.45.2-4.07.04-.54.08-2.14.2-2.88-.64.84-1 2.63-.93.54 0 1.65-.38-.58-.39.67-.73-1.38-1.35 1.29-2.02.08.5.54.2 4.47 1.1 1.9.77.52 1.45 5.4 1.84 3.76zm-.78-3.17c-.2-2.17.33-1.51.24-.67l-.14.43zm.6-1.07c.16-.33.33.12 0 0zm-.1-.19c.2-.7.53-.1 0 0zm-12.12 4.63c.82-1.13-1.66.82 0 0zm-14.24.1c-.26-.4-.34.23 0 0zm1.06.01c-.16-.51-.46.16 0 0zm.75-.16c.92-.4 1.44-.89.46-1.5-1.96-.12-1.3 1.58-.46 1.5zm-.65-.93c.21-.46.3.37 0 0zm1.34.93c-.11-.25-.23.25 0 0zm-2.02-.14c-.35-.43-.32.5 0 0zm-.64-.26c-.62-.82.02 1 0 0zm18.91-.14c-.23-.2-.48-.68-.16.34zm3 .2c.77-1.45-1.57-3.54-2.21-1.45.5.49 1.21 2.24 2.22 1.45zm-23.92.14c-.03-.34-.3.23 0 0zm3-.42c-.26-2.26-1.13 1.12 0 0zm5.71.32c1.59-1.93-1.32-1.36 0 0zm-8.3-.27c1.06.3 1.9-1.42.04-1.12 1.16.7-1.77.77-.03 1.12zm.86-.18c-.13-.5.49.23 0 0zm.77-.24c.85-1.11-.18-.54 0 0zm22.3-.33c.92-2.77-1.73-2.96-.34-.23-.02.24.24 1.46.33.23zm-2.74.35c-.33-1.4-.74.46 0 0zm-.73-.26c.7-.86-.82.16 0 0zm5.98-.34c-1.05-2.78-.16 1.1 0 0zm1.05.18c-.57-1.55-1.63-2.82-.74-.11.1.09.76.56.74.1zm-7.4-.2c-.58-2.05-1.4.38 0 0zm-.37-.19c-.63-.86.57.32 0 0zm-.3-.45c.11-.26.23.25 0 0zm-16.26.6c3.16-3-3.96.3 0 0zm-.66-.09c.04-.63 1.12-.38 0 0zm1.45.06c-.43-.33-.5.38 0 0zm-2.64-.43c-.95-1.65-.08 1.52 0 0zm19.35.12c-.64-.39-.23.85 0 0zm-16.55-.08c-.23-1.08-1 .64 0 0zm16.9 0c-.25-.38-.25.36 0 0zm-19.11-.44c.59-1.25 2.05-2.84.1-2.22 1.86-.18.81-2.22 1.5-.97 1.43-1.94.64-.87.05-1.53.11-1.3-.53 1.88-.56-.62-.85-2.58-1.02-.55-.58.64-.25.52-1.62 5.42-.51 4.7zm1.52-3.9c.09-.58.06.67 0 0zm-.99-.97c.25-.5 1-.92 0 0zm.72 4.37c-1.34.6-1.2 1.24 0 0zm17.41.75c.98-.88-1.35-.05 0 0zm1-.2c1.68-.77 1.54-2.83.47-.6.27-1.77-2.06 1.39-.47.6zm-37.79.07c-.37-.26-.37.25 0 0zm36.35-.26c.13-.52-.63.72 0 0zm-16.15-.04c-.26-1.12-.64.74 0 0zm-20.15-.02c-.55-.38-.6.39 0 0zm30.57-.08c1.54-1.53-1.58.16 0 0zm-13.14-.21c1.13-2.97-1.3-.86-.12.2zm-13.15-.2c-.2-1.47-.22 1.38 0 0zm14.52.29c1.73-.37 1.1-3.23-.14-.44-.06-.14-.28.88.14.44zm.69-1.13c.14-.19.04.3 0 0zm22.45 1.16c-.04-.34-.3.24 0 0zm-3.18-.12c.11-.48-.42.43 0 0zM37.72 136c-.07-.88-.51.63 0 0zm20.61-.16c.29-1.45-.94 1.29 0 0zm16.08.26c1.73-.66.58-2.97.37-.25-.16.02-1.19.4-.37.25zm-37.13-.04c.79-.97-.7-1.14 0 0zm20.57-.2c-.27-.66-.62.52 0 0zm21.7.1c-.87-1.44 0-.93-.99-2.41-.39.72.52 2.13 1 2.4zm-.94-1.58c-.28-.45.51.02 0 0zm-20.75 1.05c-.29-.9-.65.55 0 0zm-14.69-.1c-.41-.79-.98.61 0 0zm14.98.01c-.24-.25-.24.25 0 0zm19.34 0c-.11-.26-.24.25 0 0zm-.15-.18c.52-.52-1.08.13 0 0zM58.29 135c-.09-.65-.5.4 0 0zm17.74-.06c1.06-1.7-.83-2.17.7-1.93-.56-2.23.5 2.75.74.28-.21-1.49-3.6-2.28-1.51-1.1-.65.52-2.32-1.96.41-.44 1.84 1.23 1.17 1.5 1.5 2.46 1.17-1.46.05-3.18-2.02-3.28-2.28-.41-1.73.06-.66.15.2-.05-2.45.09-.27.9-2.47-.54 2.78 1.71.84 3.1l.13.02zm1.8-.94c.24-.25.11.26 0 0zm-.5-2.12c-.12-.5.58.51 0 0zm-40.3 3.08c.1-.66-.6.28 0 0zm1.55-.6c.87-1.57-.93-4.2-.54-2.77-1.05-2.4-.08.2-2-1.78.33.24 1.75 2.5.79 1.97 1.49 2.24-3.52 2.8-.8 2.88 1.3-.15 1.5-3.23 1.14-.64 1.62-1.97-1.42 1.39.78.4-1.1.7.66.78.63-.05zm-1.88-.5c.24-.25.12.26 0 0zm21.16.52c-.62-.1.34 1.17 0 0zm17.88.42c1.86-2.76-7.96-3.94-2.25-2.16 1.25.87 1.8 1.7 2.25 2.16zm-.36-1.35c-.18-.5.41.45 0 0zm-.52-.26c-.15-.48.37.32 0 0zm-.93-.65c-.34-.35.55.25 0 0zm-.96-.56c-.37-.28.78.25 0 0zm5.44 2.66c-.94-.95.36.93 0 0zm-17.5.15c-.55-.61-.37.45 0 0zm2.12-.1c-.74-.58-3.98.13 0 0zm14.32.01c0-.94-1.32.2 0 0zm-14.3-.65c.04-.38 4.2-1.1 2.73-1.6-3.3-.51-7 2.87-2.74 1.6zm-1.34-.32c.57-.72.44.2 0 0zm1.5-.75c-.07-.3.47.39 0 0zm-2.65 1.2c.84-1.93-1.3-.17 0 0zm-2.75-.3c1-2.04-1.1.8 0 0zm-27.27.2c-.13-.7-.89.26 0 0zm8.57 0c-.12-.26-.24.24 0 0zm2.33-.15c-.26-.49-.01.6 0 0zm13.95.03c.05-.81-.83.54 0 0zm2.86.05c0-.62-.62.35 0 0zm-24.3-.08c1.09-1.6.72.04 1.35-.5-1.29.81 1.35.46 1.1-.22.35-.16.87-3.12-.88-2.93.1-.42-2.17 2.33-.45.1.24-1.45-.87-3.09-2.16-3.7-2.37-1.54-4.07 1.6-1.6 1.55-1.28.95-1.35 1.72.56.5-.3-2.1.55-1 .58-.53 1.41-.1-.33.08-.1 1.24.78 1.01 1.13 1.9 1.32 2.19-.67-.66-.98 2.62.28 2.3zm.6-1.22c-.25-.52.35.32 0 0zm.14-.4c.14-1.68.36 1 0 0zm.44.04c-.3-.59 1.21-.06 0 0zm-.94-.63c-.56-.54.85.56 0 0zm.82-.2c-.14-.84.45-.1 0 0zm.35-.05c.07-.37.28.5 0 0zm-.87-.92c.04-.19.57.06 0 0zm1.35-.08c.14-.19.05.3 0 0zm-1.25-.13c.32-.28.45-.2 0 0zm.08-1.14c-.3-.33.53.42 0 0zm-3.45-.2c.45-.3-.11.38 0 0zm-.31-2.6c.53-.1.1.13 0 0zm-1 7.49c-.52-.5-2.5-2.33-1.12-.28.32.13.72.4 1.12.28zm9.48-.22c1.53-2.13-1.2-3.63-.53-2.2-1-2.23-2.04-1.79-.33-.07.68.2.1 3.16.86 2.27zm19.1-.15c-.45-.53-.01.8 0 0zm1.53.05c0-2.3-2.54-.26-.02.14zm-.9-1.11c.27-.13.22.24 0 0zm-28.77 1.1c4.03-.92 1.64-2.57-1.2-.92-.59.48.58 1.22 1.2.92zm-.82-.4c-.12-.35.31.26 0 0zm2.3-.41c.19-.86.16.94 0 0zm29.6.73c-2-1.2-1.33.07 0 0zm-5.94-.21c-.39-.8-.41.73 0 0zm27.01-.06c-.34 0 .16.57 0 0zm-24.73.02c-.12-.25-.24.25 0 0zm4.32-.28c2.45-.84-3.1-.55-.37.28zm-3.6-.26c-2-1.57.25 1.08 0 0zm-2.93-.1c-.46-.77-.3 1.05 0 0zm4.33.3c-.12-.26-.24.24 0 0zm.77-.2c-.67-.68 2.56-.7-.23-.77-.55.15-.16 1.5.23.76zm21.45-.53c-.38.24-.2.71 0 0zm-23.76.37c-.25-.25-.25.25 0 0zm6.35-.24c-2.94-1.03-1.8.54 0 0zm-35.17-.04c2.64.54 4.09-2.51 1.37-1.34-2.96-.93-4.78 1.65-1.37 1.34zm1.9-.7c.08-.3.08.32 0 0zm-.15-.3c.08-.38.23.36 0 0zm1.63 1.1c1.14-1.12-1.65-.03 0 0zm29.77-.13c-.24-.49-.24.49 0 0zm3.21.08c1.89-.67-2.4.32 0 0zm-10.2-.83c-.08-2.54-.63 2.72 0 0zm4.3.78c-.76-.53-1.5-.27 0 0zm2.3-.06c-.75-.7-.52.58 0 0zm5.97-.04c2.91.14 2.02-1.1 1.57-.8-.15-.4-1.25.17-2.22.6.04.13.06.5.65.2zm-.01-.28c1.6-.18-1.36.3 0 0zm.68 0c-.2-.4 1.45-.31 0 0zm-1.85.22c.9-.63-1.48.27 0 0zM27.6 132c.7-2.32-1.4-.4 0 0zm37.57 0c1.99-.6-1.87-.46 0 0zm1.07-.06c2.24-1.14-1.92.22 0 0zm-6.04-.13c.05-.79-1.19.23 0 0zm3.84-.13c2.23-.86.91-1.97 2.23-1.13.95-.26-2.56 1.12.45.65 1.6 1.25 4.06-2.29 2.77-.33 2.23-.95.25-2.26 1.27-4.16.25-1.26-2.24-3.78-2.45-2.44-.57-1.84-3.27 2.22-2.04 3.37.96.63-1.07-.4-.76-.01-.45-1.38-1.12 2.85-2.64 1.77.29 2.11-4.12 1.07-.8 2.47l1.02.03zm4.02-.49c.51-.55.2.18 0 0zm-.96-.81c2.05-.35-.44.27 0 0zm.15-2.03c.37-.25.24.26 0 0zm.91 0c.36-.4.2.23 0 0zm-1.5-.07c.13-.28.57.33 0 0zm.2-.28c.12-.27.35.27 0 0zm1.59-.05c-.16-.7.5.15 0 0zm-.39-.06c.4-.54.66-.2 0 0zm.97-.68c.32-.29.45-.2 0 0zm-.36-2.53c.09-.46.05.54 0 0zm-10.85 7.03c.83-1.3-1 .9 0 0zm1.81.1c-.41-.37-.01.37 0 0zm7.77-.1c.9-.67-1.45.27 0 0zm6.56-.04c-.83-.34-.67.28 0 0zm-1.16-.15c.68-.32 2.8-1.3 2.4-2.85-.13-.7-.57 1.65-.3-.33-1.33.89-.43 2.38-1.78 2.17.74-2.3-.3.28-.96.51-.2.34.05.8.64.5zm1.52-1.32c.14-.19.05.3 0 0zm-.04-.94c.31-.92.1.38 0 0zm.33-.3c.22-.77.07.56 0 0zm-41.9 2.4c1.62-.61-1.57-.42 0 0zm27.42-.07c-.35-.27-.12.27 0 0zm-30.06-.62c1.74.37 2.53-1.95-.17-1.13-1.94-1.71-5.36.06-2.07 1.1.53-.33 1.86.5 2.24.03zm.13-.5c.18-.82.17.82 0 0zm25.59.33c.07-.82-.65.49 0 0zm1.6.02c-.27-.4-.35.23 0 0zm-24.95-.3c.62-.53-.79-.66-1.02.03.2.3.8-.05 1.02-.03zm23.4-.19c-.29-.4-.28.42 0 0zm-29.43-.52c.09-.65-.43 1 0 0zm5.48-.32c-.11-.26-.24.25 0 0zm-2.41-.35c1.38-1.61-3.4-1.7-1.03-2.05-2.26-.82-3.66 1.63-1.33 1.7.05.1 3 .95 2.36.35zm-1.23-.45c.22-.82.11.26 0 0zm2.4.43c1.92-1.43-2.09-.17 0 0zm45.69.02c-.12-.26-.24.25 0 0zm-46.53-.34c-.11-1.02-.34 1.06 0 0zm-2.85.23c-.38-.15-.09.16 0 0zm28.66-.44c.72-3.25-1.13-1.05 0 0zm2.25-.2c1.26-.53-.52-.24.95-1.38-.89-4.84-3.6 1.41-.95 1.38zm-.66-.48c-.47-1.32.77 1.1 0 0zm-.3-.66c.25-.52.4.56 0 0zm1.4-.04c-.4-.65.67.17 0 0zm-1.28-1.4c-.02-.5.5.41 0 0zm1.12-.03c.36-.43.33.5 0 0zm-.19-.28c.28-.13.23.24 0 0zm17.29 2.85c-.17.07.15.39 0 0zm-19.12-.57c-.33-.51-.26.67 0 0zm-26.2-.34c1.27-1.21.4-3 .47-4.9.16-2.53-1.91-5.97-2.07-8.22-2-1.57-2.08 1.86-2.55.3-.61 2.5 2.56 5.43 1.86 6.55-.13 2 1.1 7.67 1.71 5.84-.23-1.03.5 1.76.58.43zm-1.24-1.02c-.62-.87.68.67 0 0zm.52.1c.13-.2.04.3 0 0zm-.95-1.24c-.4-.75.52.3 0 0zm.46-.16c.14-.2.05.3 0 0zm1.2-.26c0-1.5.33-.04 0 0zm-1.28-.05c.08-.32.08.31 0 0zm.95-.87c-.33-3.29.2-.37 0 0zm.39-.36c.13-.19.04.3 0 0zm-1.44-1.08c.08-.32.08.31 0 0zm1.34-.06c-.32-1.13.44.65 0 0zm.47-.08c.24-.25.12.26 0 0zm-1.85-.25c-.98-2.91.18-.9 0 0zm1.25-.45c.22-.49.07.49 0 0zM28 121.1c.02-.88.26.68 0 0zm1.83-.13c-.28-.72.34.37 0 0zm-1.4-.63c.13-.18.04.3 0 0zm-.53-.37c-.67-2.58-.14.74.04-.57.05-.77.21.86-.04.57zm-.13-1.26c-.39-1.36.48 1.02 0 0zm1.14-.05c.14-.18.04.3 0 0zm-.2-.7c-1.07-2.1.16-.45 0 0zm.2-.44c-.31-1.14.22.2 0 0zm-2.54-.47c-.3-.53.3-.05 0 0zm1.63-.63c-.57-2.16.38.65 0 0zm.26-.27c.08-.7.06.8 0 0zm-2.3-.31c.24-.25.12.25 0 0zm2.19-.35c.08-.32.08.31 0 0zm-1.66-.85c.07-.9.22 1.01 0 0zm1.03-.79c-.13-.64.31.4 0 0zm34.44 13.3c.73-1.38.58-1.87 1.14-3.1 1.5-.16-2.71-2.66-2.36.48 1.64.5-.07 2.14 1.22 2.61zm-.2-1.63c.23-.37.09.37 0 0zm.06-.63c-.82-.4.68-.46 0 0zm-.66-.37c-.88-1.15 1.47-.13 0 0zm1.07-.11c-.73-1.04 1.96.15 0 0zm-1.04-.7c.23-.37.08.36 0 0zm-5.07 3.31c-.27-.47-.28.48 0 0zm-1.4-.31c-.34-.37-.23.38 0 0zm1.47-.26c.2-1.08-.73.93 0 0zm14.92-.03c-.3-1.44-.37.53 0 0zm-15.9-.1c1.54-.54-1.73-3.3-1.25-.53-.99.58.28.82 1.26.52zm-1.5-.14c.52-.22.52.12 0 0zm1.39-.38c-.1-.46.43.4 0 0zm-.74-1.06c-.09-.38.78.04 0 0zm22.45.7c1.36-1.8-2.04.98 0 0zm-13.9-.3c-.43.02-.05.35 0 0zm14.75-.03c1.6-.9-1.2.35 0 0zm-19.8-.28c-.2-.48-.6.36 0 0zm-3.94-.24c-.38-1.42.83.7.47-1.57.5-1.02-1.52-2.82-.86-1.26-1.21-1.45-1.86-4.02-2.17-3.63.33-3.8-2.32 1.1-1.15 1.18 1.17 1.02-.47 1.47.78 2.51 1.14-1.85.73 2.87 2 1.37.32.14.49 2.2.93 1.4zm-1.34-2.22c-.72-1.65.88 1.2 0 0zm1.35.07c-.42-.74.51.57 0 0zm-1.7-.87c.11-.25.24.25 0 0zm-1.2-.7c-.44-.74.76.76 0 0zm19.43 3.82c-.76-1.8-1.64-.68 0 0zm-14-.09c-.15-.54-.5.42 0 0zm1.78-.04c-.56-.76-2.06.4 0 0zm-.1-.2c-.23-.24-.11.26 0 0zm-3.36-.06c-.25-.25-.25.25 0 0zm.15-.23c-.27-.43-1 .35 0 0zm1.58.03c-.35-.51-.46.17 0 0zm14-.34c-.13-4.43-1.3 1.05 0 0zm14.47.15c-.3-.26-.18.35 0 0zM57 123.88c-.25-.25-.25.25 0 0zm-33.8-.79c.25-1.06 1.16-5.19-.53-4.4-.45 2.78.05-1.72-.73 1.1-.6 1.48.82 4.76 1.27 3.3zm-.81-.82c.08-.44.08.44 0 0zm-.2-1.3c.26 1.67.13.87 0 0zm.85-2.06c.25-.25.25.26 0 0zm35.86 4.7c1.91-2.36-.87.02-.46.17.01.24.52-.2.46-.17zm-2.19.13c-1.96-1.89-1.23.12 0 0zm-1.83-.1c-.28-.53-.25.35 0 0zm1.68-.37c-.65-1.3-.8.3 0 0zm-1.79-.1c-.5-.74-.2.69 0 0zm-.08-.34c-.24-.25-.11.25 0 0zm.9-.11c-.49-1.86-1-.16 0 0zm1.03-.03c-.16-.5-.62-1.16-1.85-2.66.3.76.62 2.67 1.85 2.66zm5.5-.05c.7-.86 1.52-.96-.3-.28l.12.4zm.42-.07c-.47 0 .26.36 0 0zm-.98-.01c-1.56-1.37-1.47.11 0 0zm-6.87-.22c-.28-.7-.1.69 0 0zm5.51.09c.44-.96-1.02.46 0 0zm1.45-.26c2.3-.2 3-4.77.78-1.25 1.42-1.4-2.53 1.73-.78 1.25zm-1.78-.2c-.39-.72-.46.83 0 0zm-5.18-.08c-.35-.46-.28.36 0 0zm5.76-.03c.24-.67-.7 0 0 0zm.92-.54c.98-1.39 3.7-5.34 1.31-1.6.63-.11-.66 1.14 1.04-.48 1.1-.55 3.97-5.24 2.28-2.32a30 30 0 0 1 6.95-5c1.65-.77.26.38 2.98-.14 1.3.54-1.5.05 1.71 1.39.14-2.24-2.98-1.64-3.38-2.71-2.52.3-1.95.8-1.43-.1 1.41.55-1.12-1.84-2.11-1.8-1.81-1.22-5.63.9-1.31.22.64 0 1.44.48-.89 2.22-.72.72-2.74 2.93-.67 1.23-1.61 1.23-3.81 5.48-2.13 1.48.2.77 3.03-3.56 3.45-3.6 1.52-1.67-4.01-.83-3.37-1.9-1.75-2.17-3.61 1.61-1.5.24.82 0 1.07 2.48-.48 4.27-.93 2.97-3.75 6.12-3.02 9.1l.13-.03zm.09-2.51c.88-1.84 1.54-3.03.44-.44-.09.39-1.2 1.44-.44.44zm2.67-.21c.18-.45.44-.16 0 0zm.72-.8c1-1.17-.85 1.21 0 0zm-.73-.84c1.08-1.71 1.21-1.35 0 0zm-.82-2.17c.39-1.4.51-.77-.01.2zm2.09-.35c.08-.31.08.32 0 0zm.56-1.35c.31-.72.23.17 0 0zm-1.66-1.03c.22-.3.02.32 0 0zm5.11-.16c.95-.6.36 0 0 0zm.64-.6c.34-.27.12.27 0 0zm.49-.02c1.21-1.46.94-.14 0 0zm4.32.02c.11-.3.74.35 0 0zm-8.52-.37c.28-.53.07.32 0 0zm.58-.61c.5-.62.3.2 0 0zm2.39-.54c.42-.1.04.14 0 0zm-14.18 11.87c-.08-1-.87-.08 0 0zm2-.06c-1.46-.09 2.6-1.73-.05-.9-1.84-.36 1.63-.78-.22-1.17-1.91.84-2.88-4.24-3.28-1.18.1.01 2.12.8.5.44-.6.27 1.4.77 2.1 1.92-2.14-1.93-.29 1.25.94.9zm-1.27-1.8c.33-.6.4.31 0 0zm4.18 1.85c-.24-.6-.51.2 0 0zm-5.42-.37c.6-1.13-.79.32 0 0zm-.37-.17c-1-1.13-1.33-4.58-1.88-4.72.02 2.81.14.84-.43-.22-1.47 1.7.67 1.35 1.02 3.53-2.8-3.36.94 2.74 1.29 1.4zm-.77-.53c-1.13-1.25.41-.02 0 0zm6.7.69c-.27-.49-.47.39 0 0zm-.2-1.53c.78-2.23-3.53 2.09-1.25 1.03q.67-.48 1.25-1.03zm.44.98c.46-2.22-.87.97 0 0zm-10.1.05c.16-3.35-2.4.51 0 0zm13.61.05c-.05-.82-.74.48 0 0zm-9.23-.4c-.73-.6-.3.7 0 0zm9.71-.56c1.24-2.5-1.61 1.9 0 0zm-10.03.24c.64-1.7-.87.35 0 0zm1-.1c-.55-.28.32.46 0 0zm2.6-.03c-.8-.76-.24.55 0 0zm.55-.42c.48-.68-1.67-1.05.07.13zm-.7-.1c-.25-1.92-.4 1.35 0 0zm2.78-.2c1.07-.92-.2-1.2-.17.43l.14-.1zm-6.88.05c-.48-.51.25.74 0 0zm5.64-.01c3.24-2.82-1.64-.71 0 0zm-.34-.66c.81-1.85-1.4.59 0 0zm6.02-.02c.38-1.25-1.12 1.1 0 0zm-4.35-.29c.03-1.45-.53 1.4 0 0zm19.51-.14c-1.7-1.91.83 1.55 0 0zm-22.11.32c2.1-1.56-1.27-.04 0 0zm-11.48-.05c-.25-.6-.41.15 0 0zm6.81-.17c-.48-1-.3.47 0 0zm-30.19-.22c-.39-.72-1.57.7 0 0zm38.06-.3c.64-1.3-1.24 1.2 0 0zm-5.54.02c-.81-1.55-1.33-.07-.69-.17.09.18.63.74.69.17zm-2.18.13c.66-2.1-.9-1.07 0 0zm-31.3-.4c-.7-.09-.58.67 0 0zm37.23.24c-.18-.73-.53.4 0 0zm-36.51.01c.43-.6-1.13.11 0 0zm30.15-.3c-.3-1.31-.1 1.25 0 0zm7.7.1c-.1-1.3-.52.92 0 0zm-36.93.11c-.58-.58-.77.05 0 0zm33.09.02c-.67-.82-.64-.16 0 0zm2.98-.66c1.64-1.96-.77-.86-.27.53zm.36.48c1.32-2.78-1.24.59 0 0zm1.05-.18c1.54-1.27 1.65-5.96 1.9-3.84 1.43-1.49 1.56-5.2.13-4.31-.57-1.39-2.77.17-.88-.15.4 2.34-.47 4.27-1.21 6.47-1.17 2.6 1.84-1.87.05.9-.17-.1-.9 1.5.01.93zm1.19-2.94c.17-.37.15.25 0 0zm-.29-.72c-.1-.21.86-.67 0 0zm1-.76c.35-2.2.1.65 0 0zm.15-3.01c-.3-.45.54.45 0 0zm-41 7.33c.03-.92-.11.6 0 0zm.59-.08c-.2-.71-.68.55 0 0zm.3.03c-.12-.26-.24.25 0 0zm0-.21c-.24-.25-.12.25 0 0zm58.68-.18c-.7-.2.23.55 0 0zm-21.12.06c.38-2.18-.7.47 0 0zm-38.62-.09c-1.37-1.2-.32.44 0 0zm.77-.3c-.8-.17-.42.78 0 0zm.1.3c-.24-.25-.12.25 0 0zm.62-.14c.46-.66-1.03.57 0 0zm-.74-.42c-.63-.47-.75.5 0 0zm28.5-.26c.3-.33-.52.42 0 0zm9.44-.06c-.26-.32-.26.33 0 0zm-37.81-.1c.4-2.27-2.32.36 0 0zm-.32-.05c.42-.1.04.14 0 0zm8.18-.26c-.3-.6-.76.65 0 0zm31 .06c-.36-.26-.12.45 0 0zm-.88-.15c-.75-1.72.76.46.34-1.91.42-.02-1.77 2.19-.34 1.9zm-16-.02c-.01-.39-.81.3 0 0zm2.15-.07c-.15-1.86-1.71-.16 0 0zm-1.46-.15c-.29-.35-.52.44 0 0zm2.14-.34c-.36-.26-.53.26 0 0zm-25.02-.2c-.36-.98-.61.6 0 0zm31.66-.08c-.12-.25-.24.25 0 0zm-31.76-.47c.18-1.79-.84.07 0 0zm2.9-.21c2.29-.05 4.27-3.29.81-1.06-2.34.98.62-.03-1.1 1.24zm32.65-.91c-.35-2.91-.68 1.26-.12.9l.07-.37zm-29.67.68c.09-1.41-3.01-.04 0 0zm33.35-.34c.19-2.28-2.52.52 0 0zm-.63-.56c-.15-.34.47.15 0 0zm-38.6-.07c-.29-2.05-.38 1.75 0 0zm2.6.38c2.1-.52-1.07-.97-.35-.42-.66-.14.35.74.36.42zm3.7-.26c.2-1.1-.94.72 0 0zm-1.6-.65c-1.06-1.03-4.24-1.29-1.01.23.23.51.66-.41 1.01-.23zm-1.46-.03c-1.98-.63-.06.41 0 0zm35.92.07c-.05-.89-1.19.38 0 0zm-4.24-.37c-.11-.57-.1.71 0 0zm-35.06.11c.63-.94-1.08.06 0 0zm5.64-.2c-.26-.8-1.82.52 0 0zm33.95 0c-.24-.37-.24.37 0 0zm-34.86-.17c1.05.05.76-4.16-.18-2.75-.48-1.67-2.5-.4-2.09-.66-1.76-.58.77 2.23-.22 1.55-.1 1.14.93 2.02 2.49 1.86zm.33-.67c.3-.26.18.35 0 0zm-2.45-.56c-.15-.74.37.57 0 0zm1.81-.02c-.67-.79.44-.05 0 0zm-1.67-.4c.14-.56.09.57 0 0zm.35.01c-.35-.72.41.26 0 0zm.92-.47c-.39-1.07.5.85 0 0zm1.13.11c.24-.36.24.37 0 0zm-2.26-.31c-.15-.86.33.71 0 0zm-.14-.53c.14-.19.05.3 0 0zm1.02-.08c-.3-.45.35.02 0 0zm-.15-.41c.14-.19.04.3 0 0zm35.4 3.33c1.49-.4-.14-.21 0 0zm-38.97-.3c-.22-.98-.55.56 0 0zm39.57-.31c-1.26-3.1-.92 1.59 0 0zm-40.06-.19c.19.24 1.1-1.62.37-1.06-.43-1.7-1.5 1.14-.37 1.06zm-.12-.78c.23-.36.08.37 0 0zm1 1c1.08-1.27-.9-3.47-.02-.64-.04.1-.57 1.16.02.65zm39.44-.06c-.33-.12-.16.33 0 0zm-21.66-.16c-.38-.34-.5.04 0 0zm4.05-.08c-.45-.3.11.38 0 0zm17.7-.47c-.95-.5.18 1.19 0 0zm-18.26.18c.3-.28-.94.39 0 0zm.7.01c-.09-.37-.23.37 0 0zm1.9-.15c2.43-1.41-1.88-.39-1.7-.23-.76-.62 1.25 1.42 1.7.23zm-1.41.05c.84-.89.79.1 0 0zm16.79-.42c-.18-.35-.3.26 0 0zm-1.25-.08c1.74-.08-.7-.32 0 0zm-.14-.32c-.7.08-.32.44 0 0zm1.2-.02c.37-.28-.78.26 0 0zm-39.54-.77c.4-1.67-.9.73 0 0zm17.15-.16c-1.66-1.5-.52.38 0 0zm.43-.58c1.15-.96-3.8-1.63-2.46-.78.55.01 2.62 1.81 2.46.78zm-12.68-.04c-.02-.7-2.75-1.32-2.96-.66-1.9 1.16 1.35.15 3.2.84zm35.74.15c-.12-.27-.34.27 0 0zm-40.56-.24c.21-2.36-.91-1.09 0 0zm1.1-.2c.63-.83 4.64-4.46 2.6-2.37 1.52-.32 1.68-4.06-.13-1.33-1.44.93-3.79 3.26-2.47 3.7zm-.03-.8c.34-.66.07.42 0 0zm1.1-1.2c.24-.25.12.25 0 0zm-.23-.14c.16-.32.33.12 0 0zm.69 0c.3-.4.32.25 0 0zm.46-.88c.46-.3-.1.38 0 0zm.87-.31c.46-.5-.25.5 0 0zm1.03 2.9c-.38-.16-.1.15 0 0zm-.24-.14c.93-1.03-1.96-1.58-1.63-.61 3.8.39-2.48-.2.44.67h.43zm-4.13-.46c.52-.88-1.33.3 0 0zm5.33-.23c-.15-.87 1.74-.11-.5-1.3-.19-.39 0 1.94.5 1.3zm-6-.28c-.43-1.4-.41 1.05 0 0zm-.22-.23c.14-.18.04.3 0 0zm1.05-.23c-1.11-2.87-.54 2.02 0 0zm.63.2c.48-1.06-1.24.53 0 0zm2.52-.14c2.56-1.34-2.1.52 0 0zm34.25-.1c-.63-.1.17.47 0 0zm-38.66-.12c-.66-.2.13.62 0 0zm.4-.36c1.18-1.48 1.48 1.15 2.08-.92.26 1.32.69-2.26-.44-.66 1.7-2.1 4.67-1.06 4.3-4.22-1.75-1.93-3.7-3.26.27-3.96.1-1.14-4.48.01-4.9.67-.76.94-2.55 2.9-1.48 1.16-3.84.82-3.68 5.58-1.67 6.39.25-.7-2.1-2.03.09-1.65-.7-.38.16-3.12-.71-1.57.6-2 1.12 1.86.79 2.27-.07.78.71 3.06 1.67 2.49zm-.38-.02c-.28-.45.15-.22 0 0zm-.23-.47c-.13-.65.3.4 0 0zm1.9-.11c.48-.26.26.27 0 0zm-2.33-.3c-1.67-2.32 2.34.54.17-.43-.13.07.24.65-.17.43zm1.82-1.1c1.98-1.42-.19.58 0 0zm-3.19-.52c-.38-.77.51.58 0 0zm3.3-.06c1.4-.75-.7-.14.86-.86-.18-.42-.94-.26-1.16.33-.64.63-2.02-.31.26-1.19 2.2-.38 1.26 1.83.04 1.72zm-1.21-.03c-.3-.31.42.06 0 0zm4.72-1.08c.87-.9-.38.8 0 0zm-1.3-.06c-1.64-2.28-.4.14 1-.3 1.17-.44-.83.66-1 .3zm-6.18-.24c.08-.37.23.36 0 0zM20.73 99c.17-.37.15.26 0 0zm5.01-.4c.14-.18.05.3 0 0zm-.38-.67c-.34-.43.7.51 0 0zm-1.04-.43c.85-.88-.18.44 0 0zm.5-.33c1.35-2.03 1.52-1.83.3-.17 1.03-.25.01.19-.3.17zm1.21-.42c.18.56.05.27 0 0zm.82-1.5c.86-.4-.4.4 0 0zm1.1 9.58c-.34-.59-.26.71 0 0zm-3.08-.1c-.6-.48-.17.32 0 0zm.67-.49c.27-.55-.73.37 0 0zm.79-.54c2.87-2.79-1.7-.68 0 0zm.28-.76c.19-1.14.08.68 0 0zm46.1-.72c-1.57-1.04 6.2-.92 3.45-1.56-2.5-.06-7.14.9-1.85.38-.01.4-3.48.1-3.56 1.06-1.12.42 1.85.14 1.96.12zm-3.4.06c-.24-.25-.24.25 0 0zm1.57-.45c-.54.03-.5.5 0 0zm-5.93 57.46c-.34-.72.42.26 0 0zm-14.12-.8c-.29-.32.53.43 0 0zm-1.5-.32c-.24-.71.62.66 0 0zm.94.03c-.24-.5.45.5 0 0zm2.86-.04c.2-.6.06.61 0 0zm-.6-.16c1-.92-.22.56 0 0zm-.9-.47c.13-.19.03.3 0 0zm-.35-.31c-.04-.45.53.1 0 0zm12.57-.53c.39-.57-.2.6 0 0zm20.04.04c.12-1.74.21.14.62-1.62.04.16-.4 2.13-.62 1.62zm-32.18-.07c.24-.25.12.26 0 0zm12.32-.28c.3-1.46.19.34 0 0zm-14.43-.6c.14-.19.04.3 0 0zm-2.2-.34c.1-.34.06.42 0 0zm36.52-.13c.05-.46.14.43 0 0zm-22.86-.05c.08-.31.08.32 0 0zm4.28-.04c-.55-.59.68.18 0 0zm19.09-.52c-.01-1.03.2.87 0 0zm-37.5-.07c.55-.81-.24.95 0 0zm-2.2.06c-.73-.6.84.6 0 0zm2.7-.25c.36-1.26.13 1.24 0 0zm-2.02.12c.11-.25.24.25 0 0zm4.96.04c.07-.4.33-.1 0 0zm-.58-.09c0-.67.77-.81 0 0zm-5.35-.16c-.1-.38.45.3 0 0zm18.04-.03c.24-.37.24.37 0 0zm2.6-.17c.17-.37.15.25 0 0zm-18.56-.13c.55-.44-.32.4 0 0zm.38-.24c.06-1.15.1 1.25 0 0zm-1.73-.18c.76-.12.76.2 0 0zm21.57-.3c.08-.56.08.56 0 0zm-1.7-.01c.54-1.15-.03.82 0 0zm-20.67.1c-.56-.71.57.11 0 0zm14.19-.55c-.6-2.2.6 1.07 0 0zm9.7.14c.14-.18.05.3 0 0zm-9.23-.38c.45-.92-.13.68 0 0zm4.53-.04c-2.48-1.03 1.14-1.04-.02.25zm1.72.03c.14-.66.33.33 0 0zm-.64-.1c-.49-.27.8.3 0 0zm-18.23-.15c-.34-.3.62.36 0 0zm15.84-.07c-.01-.71.26.54 0 0zm1.68-.26.44-.64-.4.68zm-5.58-.28c.14-.2.05.3 0 0zm-8.94-.07c.18-.45.44-.16 0 0zm2.2-.17c.17-.37.15.26 0 0zm7.81-.07c.08-.32.08.31 0 0zm-9.44-.42c.46-.5-.25.5 0 0zm5.51-.03c.46-.87.03.55 0 0zm21.14-.36c.14-.19.05.3 0 0zM61 150.44c.12-.26.24.25 0 0zm8.53-.21c.09-.32.09.31 0 0zm-4.23-.18c.69-1.15 1.28-1.3 0 0zm.92 0c-.13-.58.45-.33 0 0zm4.26-.17c.23-.49.23.48 0 0zm-3.56-.1c.18-.35.3.25 0 0zm-7.69-.22c.14-.19.04.3 0 0zm18.57-.1c.09-.32.09.31 0 0zm-15.64 0c.12-.28.34.27 0 0zm4.2-.04c.18-.9.46-.12 0 0zm4.22 0c.14-.19.05.3 0 0zm3.66-.1c.92-1.35.11.6 0 0zm-20.71-.04c0-.81.2.74 0 0zm5.59-.09c.04-.58.14.56 0 0zm15.74-.15c-.16-.61.35.45 0 0zm2.66-.1c.1-.34.06.42 0 0zm-4.73-.04c.24-.26.37.25 0 0zm-6.64-.06c1.25-1.51 1-.65 0 0zm-7.2-.19c.13-.19.03.3 0 0zm13.12-.09c-.08-.41.3.18 0 0zm-3.99-.12c.14-.19.04.3 0 0zm6.15-.06c.29-.53.25.35 0 0zm-7.89-.05c.28-.54.07.32 0 0zm.96-.26c.16-.33.34.12 0 0zm-15.2-.56c-1.98.04 1.42-1.54 0 0zm.1-.4c-.24-.36-.24.38 0 0zm14.85.34c1.3-2.06-.2.77 0 0zm-6.94-.17c-.65-.56.86.3 0 0zm-11.14-.06c.03-.52.33.25 0 0zm14 .05c1.58-1.15.78-2.64 1.66-.93 2.9-1.28 1.17-1.3 4.1-3.28-1.29.45 1.46-.97 1.54-2.13-.24 2.08 3.33-4.45 1.88-1.34-1.73 2.27-3.45 3.75-5.37 5.63-.93 1.66-2.57.77-3.8 2.05zm15.83-.05c.12-.25.24.25 0 0zm-18.6-.35c.08-.31.08.32 0 0zm17.36.08c-.08-.4.29.18 0 0zm-9.96-.25c.07-.4.33-.1 0 0zm9.9-.09c-.86-2.18.24-.97 0 0zm-14.12-.3c-.18-.5.76.41 0 0zm4.5-.1c.5-1.62.41.38 0 0zm-9.52-.15c.14-.18.05.3 0 0zm-8.56-.24c.36-.25.24.26 0 0zm.29-.24c.6-.45.32.2 0 0zm14.54-.08c.75-.11.15.1 0 0zm-.5-.1c-.39-.35.73.28 0 0zm4.23-.06c.27-.6.58-.27 0 0zm-4.38-.25c-.39-.4.87.4 0 0zm6.5-.02c.24-.37.43.02 0 0zm-8.56-.53c-.39-.88.51.6 0 0zm.78-.15c-1.54-1.23.99.43 0 0zm7.3-1.36c.17-.37.15.26 0 0zm-5.56-.21c-1.07-.7 1.2.48 0 0zm1.42 0c.13-.13 3.26-1.38.4.04zm1.2-.07c.25-.25.25.25 0 0zm-1.87-.35c.68-.21-.17.25 0 0zm-3.9-.19c-.11-.3.34.33 0 0zm2.82.01c-3.64-1.7 1.13.42 0 0zm1.89.05c.68-.67.27.34 0 0zm-12.93-.15c.24-.25.24.25 0 0zm17.73-.35c1.3-2.14-.21.93 0 0zm-9.46-.28c-.3-.61.51.46 0 0zm6.64.01c.24-.37.42.02 0 0zm.36-.32c1.08-1.18.21.1 0 0zm3-.27c.33-.29.46-.2 0 0zm3.33-1.04c-.6-1.43.4-.44 0 0zm-3.08-.29c.34-.32-.12.3 0 0zm-9.2-.2c-.3-.44.54.46 0 0zm1.01-.02c-.49-.29.8.3 0 0zm3.89-.57c.42-.1.04.13 0 0zm-6.37-.35c-.3-.32.43.06 0 0zm3.94-.23c.34-.11.37.2 0 0zm1.87 0c.23-.25.11.25 0 0zm-2.69-.34c-1.1-.99 1.58.83 0 0zm6.7-.06c-.3-.32.42.06 0 0zm-5.42-.19c-.02-.46.46.25 0 0zm3.92-.29c.2-.6.27-.03 0 0zm2.1-.03c.24-.25.12.25 0 0zm-2.98-.78c.28-.13.23.24 0 0zm-2.28-.32c-.53-.47.8.16 0 0zm-5.64-.14c-.3-.31.42.06 0 0zm.29-.06c.06-.38.33.38 0 0zm1.86-.1c-.24-.28.7.3 0 0zm9.96 0c.9-1.37.85-.66 0 0zm-2.2-.25c-.27-.62.35.36 0 0zm-3.86-.03c.12-.28.34.27 0 0zm.33-.06c.24-.37.43.02 0 0zm16.94-.17c.37-.7 0 .54 0 0zm1.93-.19c.09-.31.09.32 0 0zm-19.73 0c-.85-.24 1.12.16 0 0zm4.9-.22c1.04-1.11 1.23-.17 0 0zm-3.94-.13c.24-.25.12.26 0 0zm3.27-.13c.17-.37.15.25 0 0zm15.51-.29c.08-.44.08.44 0 0zm-20.73 0c.22-.49.07.49 0 0zm5.36-.07c.24-.25.12.26 0 0zm.5-.18c.54-.12.1.12 0 0zm.51-.15c.88-.5.92-.2 0 0zm14.4-.4c.2-1.5.04 1 0 0zm-16.67.26c.8-.34.58.13 0 0zm.78-.4c.19-.73.14.82 0 0zm-1.44-.08c2.97-1.05-.19.15 0 0zm15.54-.43c-.07-1.8.6-1.08 0 0zm-13.76 0c1.54-.72.3.36 0 0zm-3.75-.23c.45-.4-.08.49 0 0zm1.4.07c.23-.25.1.26 0 0zm3.38 0c.52-.21-.23.21 0 0zm-3.1-.2c.12-.26.24.24 0 0zm15.75-.08c.08-.31.08.32 0 0zm-4.25-.65c2.18-.9.49.15 0 0zm6.73.05c.09-.46.38 0 0 0zm-4.36-.34c.84-.63-.52.6 0 0zm-23.34-.12c-1.25-1.15 1.14-.09 0 0zm25.4-.51c.4-2.23-.04 1.76 0 0zm2.52.28c.09-.45.06.54 0 0zm-.3-.21c.13-.19.04.3 0 0zm.2-.21c-.46-.83.56.23 0 0zm-4.05-.1c.09-.32.09.31 0 0zm.87-.18c.1-.33.06.42 0 0zm-24.42-.17c-3.2-.68 3.56-.17 0 0zm27.59-.32c.13-.19.04.3 0 0zm-7.73 0c.43-.11.05.13 0 0zm5.23-.21c-2.1-3.1.93.5 0 0zm-4.75.13c.53-.11.1.12 0 0zm.4 0c-.24-.08 2.84-.59.2.05zm2.23-.13c.14-.19.04.3 0 0zm-22.33-.03c1.71-.26-.75.23 0 0zm16.16-.29c.28-.13.23.24 0 0zm-14.33-.01c.78-1.04.41-.88 1.37-1.44-.34.52-.7 1.11-1.37 1.44zm14.2-.15c.66-.4-.43.53 0 0zm2.76.06c.3-.3.3.36 0 0zm8.16-.21c.13-.19.04.3 0 0zm-5-.1c.08-.32.08.31 0 0zm-3.43-.14c.37-.25.25.26 0 0zm2.07-.31c.08-.37.23.36 0 0zm-3.75-.3c1.58-1.22.49.07 0 0zm6.5-.08c-.76-.84-4.61-1.17-.66-.63-.08-.55 1.16 1.17.65.63zm1.3-.22c.09-.31.09.32 0 0zm-20.9-.67c1.42-1.78-.86 1.37 0 0zm20.84.32c.12-.25.24.25 0 0zm-6.1-.1c1.58-.59 1.78-.16 0 0zm6.48-.11c-.12-.35.31.26 0 0zm-8.98-.32c.14-.18.04.3 0 0zm8.65-.27c-.11-.38.45.3 0 0zm-.5-.32c-.76-.48.95.42 0 0zm-19.74-.03c.42-1.63.36-.04 0 0zm8.2-.23c0-1.7 0-1.02.6-2.37-.18.74-.29 1.81-.6 2.37zm-12.02-.14c.87-.9-.02.42 0 0zm21.27-.09c-.72-.22 1.74.22 0 0zm4.32.06c-.25-.68.27.14 0 0zm-3.76-.31c.42-.1.04.13 0 0zm2.4-.62c-.72-.62.98.61 0 0zm-8.82-.52c.35-1.25.14.34 0 0zm-16.75-.14c.64-.46 2.52-2.2.5-.02l-.35.09zm13.49-.1c.1-.34.06.41 0 0zm7.8-.02c1.05-.1.22.1 0 0zm-4.36-.31c.07-.82.72.45 0 0zm2.99-.27c.23-.25.11.25 0 0zM66 123.46c.18-1.33.08 1.1 0 0zm9.34-.12c-.33-.64.66-.11 0 0zm-9.1-.08c.15-.33.33.12 0 0zm-.04-.64c.35-1.3.07.74 0 0zm13.03.1c.76-1.5 1.73-.35 0 0zm2.7-.06c.27-.38.75.3 0 0zm-6.87-.22c-.35-.4.37-.1 0 0zm-16.29-.28c.87-.4-.4.39 0 0zm24.07.06c.35-.2.35.2 0 0zm-.06-.66c-.3-.44.53.46 0 0zm-11.68-.06c.32-.92.11.38 0 0zm8.25-.15c-.04-.86.89.95 0 0zm-11.53.08c.35-.26.12.28 0 0zm4.5-.24c.1-.46.06.54 0 0zm-3.58-.09c.8-.66 2.04-1 0 0zm13.05-.16c-.67-.71 1.13.68 0 0zm-1.32-.26c.13-.6.2.4 0 0zm.35-.2c.27-.35.37.45 0 0zm-3.9-.9c-.46-.2.45-.06.03.1zm-.43-.3c-.08-.42.3.17 0 0zm-6.21-.2c.17-.46.45-.14 0 0zm-3.27-.06c.2-.6.27-.03 0 0zm3-.1c.08-.32.08.31 0 0zm.51-.3c.54-.84.17-.3 0 0zm-13.5-.2c.08-1.38 1.16-.01 0 0zm10.18-.24c.07-.63.16.6 0 0zm6.73-.17c1.54-.77-.82.53 0 0zm7.02-.14c-.23-.5.46.5 0 0zm-34.14-.18c.14-.19.04.3 0 0zm27.9-.07c.85-1.77.43.14 0 0zm1.05-.1c.25-.25.25.25 0 0zm1.18-.61c.63-.1.12.12 0 0zm-.6-.1c.68-.2-.18.26 0 0zm4-.34c-.84-.97 1 .92 0 0zm-4.72.14c.23-.25.11.25 0 0zm-19.7-.05c.43-.1.05.14 0 0zm22.46-.14c1.62-.94-.14.48 0 0zm-24.16-.4c-.76-.49 1.82.38 0 0zm-5.2-.22c1.35-.4-.61.38 0 0zm19.14.08c.91-1.57.4-.21 0 0zm-15.3-.11c.24-.25.12.26 0 0zm-7.21-.21c.24-.25.11.26 0 0zm11.21-.11c-.15-.73.33.59 0 0zm-8.71.08c.1-.17.77.07 0 0zm3.36-.17c.54-.45-.3.43 0 0zm1.34-.01c1.22-.44-.96.48 0 0zm2.51.07c.24-.25.12.26 0 0zm-5.18-.55c-.9-1.64.48.36 0 0zm22.14.12c.35-.37.32.3 0 0zm1.3-.03c-.33-.76.91 0 0 0zm.22-.17c-.12-.25-.24.25 0 0zm-15.1.04c-.37-.59.5.38 0 0zm-15.3-.17c-.3-.6.39.16 0 0zm7.6-.01c.27-.14.22.24 0 0zm21.32-.13c-.43-2.13 3.65.3 0 0zm1.16-.17c.08-1.69-2.3.73 0 0zM42.38 114c2.73-2.13 1.77-.51 0 0zm6.42-.45c-1.32-.98 1.62.9 0 0zm25.15.1c.35-.36.33.32 0 0zm-20.32-.15c.24-.37.24.37 0 0zm3.35.02c.67-.08-.12.24 0 0zm-12.36-.44c1.07-1.8-4.2-.93-.06-1.16 2.3.87 1.96.64.46.57.13.25-.17.44-.4.59zm3.43.1c-.16-.26.49.27 0 0zm-18.28-.1c-.3-.5.66.41 0 0zm17.56-.15c-1.04-.6 1.53.55 0 0zm24.53.11c.13-.28.57.34 0 0zm-30.74-.33c.54-.45-.3.42 0 0zm12.67-.1c-.13-.63.48.53 0 0zm-3.08-.06c-.8-.7.02-1.15.68-1.16.8-.69 1.75-1.5.9-.24.21-.7-1.79 1.46-1.58 1.4zm5.33-.15c.2-.51.4-.2 0 0zm-6.91-.12c.06-.32 1.02.1 0 0zm7.97-.08c-.56-.47.89.45 0 0zm2.69.07c.28-.13.22.24 0 0zm-18.23-.2c1.19-.78-.74.75 0 0zm8.08-.08c-.06-.41.6.34 0 0zm-8.22-.15c.34-.59.4.13 0 0zm17.26.02c.24-.25.12.25 0 0zm-9.86-.08c.28-.13.23.24 0 0zm-8.37-.06c.16-.32.34.12 0 0zm7.46-.14c.12-.26.24.24 0 0zm10.73 0c.15-.32.33.12 0 0zm2.02-.14c.24-.26.24.25 0 0zm-13.78-.05c.42-.1.04.13 0 0zm2.52-.16c.25-.25.25.25 0 0zm-1.35-.25c1.27-.88-1.04.87 0 0zm-5.58.05c.7-.42.25.1 0 0zm7.36-.15c.24-.25.12.25 0 0zm3.32.03c.28-.9 1.75-2.71 0 0zM42 110.56c-.42-.4 1 .4 0 0zm6.54-.02c-.68-.04 1.26-.82 0 0zm-8.76-.34c-.3-.33.53.42 0 0zm13.1-.02c.46-.5-.25.5 0 0zm2.21.03c.14-.19.05.3 0 0zm1.6.03c-.32-.43 1.5.15 0 0zm-8.63-.12c.73-2.06.13.99 0 0zm-.24-.08c.24-.25.12.25 0 0zm1.45-.42c.71-.43 1.08-.1 0 0zm-8.41-.18c.13-.19.04.3 0 0zm-.64-.03c.24-.25.12.25 0 0zm18.33-.07c.64-.46-.16.38 0 0zm-9.3-.02c1.4-.8.24.25 0 0zm1.34-.03c.74-.1.14.11 0 0zm3.55-.1c.08-.3.08.32 0 0zm-13.77-.03c.23-.36.08.37 0 0zm.66-.07c.77-.83-.1.3 0 0zm15.12.07c.17-.47.45-.15 0 0zm-5.73-.17c.35-.27.12.27 0 0zm-8.7-.12c.55-.44-.32.4 0 0zm.67.06c.96-1.24.8-.38 0 0zm1.65-.33c.89-1-.48.9 0 0zm15.23.18c1.17-.62.97-.06 0 0zm-18.33-.1c.08-.33.57-1 0 0zm12.17-.04c.12-.28.35.27 0 0zm-.84-.12c-.6-.32.65 0 0 0zm-10.67-.14c.18-2 .6.41 0 0zm17.24.1c.5-.55.2.17 0 0zm1.63-.12c1.77-1.09 1.47-.36 0 0zm-18.12-.17c.23-.37.09.36 0 0zm9.2-.15c.41-.67-.2.74 0 0zm3.54-.03c.38-.12.37.23 0 0zm2.98.02c.36-.47.26 0 0 0zm4.4 0c.23-.7.8-.26 0 0zm-19.5-.16c.56-.58-.29.46 0 0zm8.03-.17c-.92-1.77.58.83 0 0zm-7.07.18c.24-.36.42.02 0 0zm-2.68-.15c.08-.31.08.32 0 0zm4.04-.13c1.15-.93-.9.95 0 0zm-.98.06c.86-.77.27.3 0 0zm7.56-.27c-.49-1.1.6.35 0 0zm2.16-.08c.2-.91.1.54 0 0zm-12.53-.04c-.1-.74.6.03 0 0zm8.56-.24c-.76-.95 1.1.91 0 0zm-8-.03c-.23-1.05.77.5 0 0zm6.73-.53c-.26-.27.83.3 0 0zm15.15 0c1.37-.93.58.06 0 0zm-19.22-.13c.43-.39-.12.46 0 0zm14.6.1c.32-.28.45-.19 0 0zm1.06-.2c.32-.29.45-.2 0 0zm-15.4-.15c1.46-.7.34.16 0 0zm19.34-.03c.5-.44.68-.07 0 0zm-3.32-.22c.73-.5-.5.5 0 0zm-15.54-.3c.83-.67-.46.57 0 0zm10.01-.19c-.16-.25.49.27 0 0zm9.1-.07c.23-.24.1.26 0 0zm-7.17-.02c.32-.29.45-.2 0 0zm3.84 0c.68-.53.88-.52 0 0zm3.66-.15c.78-1.26.4-.13 0 0zm-6.78-.24c.66-.5.27.17 0 0zm3.41-.03c.33-.28.46-.2 0 0zm-10-.2c.42-1.26 1.31.68 0 0zm.7-.07c-.13-.9-1.13.45 0 0zm10.57.05c.72-.33-.42.33 0 0zm-12.9-.14c.23-.37.23.37 0 0zm12.5.09c.2-.33.66-.02 0 0zm-13.2-.38c-.64-1.54 2.65-.02 0 0zm.7-.16c.4-1.1-1.66.4 0 0zm17.07.04c1.07-.54-.75.57 0 0zm-4 .03c.34-.49.29.1 0 0zm4.66-.22c.9-.56.65 0 0 0zm-8.94-.8c-.5-.28.79.3 0 0zm6.79.08c1.28-.6 1.26-.34 0 0zm-18.19-.18c.78-.26-.37.28 0 0zm5.96-.26c-.27-.32.71.38 0 0zm15.63.06c.87-.52.3 0 0 0zm-1.6-.86c.9-.45-.78.54 0 0zm-14.8-.37c-.6-.38 1.08.39 0 0z" style="fill:#000;stroke:#000;stroke-width:.395651;stroke-dasharray:none;stroke-opacity:1"/></svg>