<svg xmlns="http://www.w3.org/2000/svg" xml:space="preserve" width="210mm" height="297mm" viewBox="0 0 210 297"><path d="M85.5 140.53c-.07 0-.43.3-.96.73q.05.03.09.15c-.26.25-.3.12-.26-.01-1.07.86-2.68 2.09-3.91 2.46 1.64-3.56-.4-.5-2.35 1.28 2.85-2.1 2.33.02 5.5-2.89-.31 1.12-2.15 2.14 1.5.67q1.63-.1 2.4-.24c-.66.87-.48.56-1.07 1.84l1.2-1.87c.89-.18.85-.37.3-.45l.62-.97-.69.96c-.82-.11-2.6 0-4.23.63 1.46-1.7 1.96-2.3 1.86-2.3zm-7.39 4.61q-.42.3-.96.76.46-.3.96-.76zm6.26-3.74.17-.14c-.07-.04-.14.05-.17.14zm7.12-.08c-3.77.93-2.18 1.39-.4 1.83-.65.42-1.16.92-1.98 1.74-.04.04.01.1.02.16l2.36-1.8c.76.2 1.5.38 1.78.62 1.01-.06 2-.26 3-.38v.02-.02l.44-.05-.38-.02.05-.07.8-1.2-.85 1.27c-1.08-.07-3.01-.21-4.45-.47l.73-.55q-.64.27-1.1.5c-1.5-.3-2.18-.8-.02-1.58zm4.77 2.2-.58.81a5 5 0 0 1-.9-.42c0 .24.29.47.7.69-.7.94-.45.47-.94 1.46l.98-1.45c1.43.74 4.35 1.36 3.27 1.88l.68.27c1.53-.74-1.2-.38 1.5-1.34-.7-.03-3.56-.48-5.27-1.08zm4.7 1.9h.15v-.01l-.04-.02zm-23.14-1.71c-.05 0-.23.29-.65 1.08-.39 1.62.8-1.1.65-1.08zm4.26.37q-.03-.01-.23.28-.1.28-.07.28c.04.03.33-.5.3-.55zm-3 1.2-.07.08q.03.2.06.2c.04 0 .08-.3.02-.28zm4.38.42c-.23-.01-1.04.54-1.9 1.8 1.72-1.13 2.14-1.78 1.9-1.8zm8.99.57c-.23 0-.18-.01-.56.2a4.7 4.7 0 0 0-2.16 2.35zm-15.35.08q-.03 0-.08.09.03.2.06.2c.04-.01.08-.3.02-.29zm10.42.22c-.25.12-.55.57-.73.78l-.44.48q-.1.12-.18.26c-.12.15-.25.28-.28.48zm-10.8.11c-3.86-.03-5.63 8.52-10.01 9.88.8.3.99.81-.03 1.78-2 .89-6.27-1.46-7.74-3.42-.44.65 5.78 4.6 6.41 6.89q.75-.02 1.29.12c-1.29-1-3.46-3.3-4.19-3.99 3.8.6 2.88 2.31 5.08 3.84q.15.47.04.57c2.4 1.8-.48 7.66-.33 11.11-.12 2.12.4 2.98 1.17 3.07-2.56-3.65.8-7.1.01-8.73.28-3.92 6.25-5.44 2.6-8.06 1.2 2.05-1.46 1.88-2.78.54 1.12 1.84-.04 3.08-1.48-.6 2.88-4.01 6.11-11.5 9.97-13zm-8.31 29.85.07.1.09-.1zm.16 0c1.18-.03 2.81-1.76 3.5-3.58.42 1.08 3.27 6 3.52 6.64.95 4.01 1.07-.1 1.85 2.85.84 1.95-.82-2.7.95-1.16-1.43-3.76-.1.65-2.26-1.52-.25-2.27-3.88-5.71-.97-5.1.62-.36 3.67-.04 6.03-.42-.94.02-.66-1.17-.2-1.87-.68.1-1.4.37-2.8.82q-.45.36-.94.57c.4-.13.72-.13.15.37-1.15.22-.94-.02-.51-.22-3.13 1.1-6.15-1.75-1.93-2.61-.6-2.07-4.73 3.39-6.4 5.23zM81 172.37q.42-.07.9-.04c-.1-.75-.56-.5-.9.04zm.9-.04c.05.35.02.92-.13 1.79l-.07.02a4 4 0 0 0 1.7-.73c4.32 1.83.4-1.94.73-.77a18 18 0 0 0-2.23-.31zm-.2 1.8zm-14.14-11.78a3 3 0 0 0-.92-.42c.45.35.8.53.92.42zm-8.62-7.43.01-.02-.11-.12zm.01-.02c.72.67 2.3.92 3.91 1.09l-.63-.38c-2.14-.73-3.09-.9-3.28-.71zm3.91 1.09c1.5.8 2.75.9 3.85.57-.84-.32-2.35-.41-3.85-.57zm64.31-9.13c-1.3.03-2.72.46-3.14 1.4.36-2.37-1.33 1.63-2.3 2.42-4.33-1.58-9.38.15-12.9 2.67-1.04.51-9.47 3.5-7.9 6.89-3.25 2.16-.22 4.5 2.03 1.42 5.66-.04.43-.95-2.15.6 1.22-.88.59-4.18 2.44-3.58-.1-.6.95-.93 1.66-.7-.64-.96-1.25-1.97-.11-2.19 1.68.9 2.94-1.24 4-1.09-1.55-2.5 6.06-.93 3.93-1.89-1.92-1.7 5.05-.69 3.44-1.97 4.57.5 1.28-1.08 4.84.1 2.76-.61 1.38.37.02 1.79 3.42.22 2.22-.3 2.53-3.06-1.6-.3 3.72-3.23 3.7-.21 3.85-1.62 2.07-2.66-.09-2.6zm-6.14 5.86H121v.04zm-.04.04c-.67.7-1.33 1.51-1.47 2.27-2.1-.27-5.15-.56-4.6 2.93-4.33 0-3 3.28-4.4 2.1-2.01 3.19-6.85 2.86-8.46 6.84-3.4 3.28-5.15-3.9-5.2-1.76-.46.23-.95 7.18.34 4.46-1.39-2.3 2.73-3.56 3.7.3.7-2.34 2.93-4.6 4-4.29-.4-1.75 2.04 1.35 1.39-.51 4.61-1.29 5.48 1.36 4.59 3.49-2.92 4 1.11-.3.49-1.07 2.05 1.96-.41-7.05-4.03-2.88q.08-.5.27-.8c-4.04 1.39.16-1.58 3.11-2.58.96-2.78 4.5-1.6 4.6-4.3 1.23-4.04 5.37.74 5.67-4.2zm-13.38 11.08q.53-.18 1.23-.46l.38-.22c-.67-.05-1.27.12-1.6.68zm1.6-.68c1.61.1 3.68 1.42 3.9 1.69 3.7-.6 6.68 2.37 10.68 2.33-3.17-.9-4.76-2.88-8.22-2.32-3.94-.1-3.05-3.55-6.35-1.7zm14.58 4.02.54.14q-.03-.1.02-.16zm.54.14c.13.44 1.3 1.48 2.94 3.05-1.67-.91-5.08-2.3-5.15-1.95-1.13.31-1.72.9-3 .22 1.17 1.06-3.19 2.25-3.06 5.76.58 8.34-.54-2.49 2.83-4.1 3.63-.89 3.05-.8 5.44-.65 1 .27 5.71 3.35 5.8 7.91.31-2.25 1.43.45 2.71 2.98 3.14 3.3-1.58 12.76-3.87 7.84 2.9-.25-1.69-2.52 1.44-4.66-1.8-.35-2.45 2.23-1.67 5.65.55 4.94-1.9 11.44-.64 15.39 1.4 4.48-1.9 5.27-4.77 7.65 4.08-2.55-2 4.38-4.76 6.02.52-2.77-4.32-5.58-3.9-4.86 2.94 1.67 5.51 6.85 1.49 7.29-2.11-5.63.67 1.15-2.02 1.85l.03.02c-.16.38-.28.19-.28.03q-.25.03-.6-.02c-.84 1.22-3.43 1.08-3.15 3.16 1.4-1.67 3-2.37 2.61.43 2.9-1.67-1.93.35 1.2-3 .6 3.26 1.23-4.3 1.93.98l.02.08c-.06-1.52.1-3.22 1.07-2.56 1 4.3.12 1.22.4-1.1 2.03-1.47 3.66-4.79 4.83-3.6.16-1.06 1.86-4.14 3.77-5.65 3.07-2.88 1.23 1.6 2.15-.16a14 14 0 0 1-1.09 2.87l1.01-1.57c.61-3.45 4.05-3.95 3.77-.84q.32-1.46.1-2.96c3.41.15.88.53 2.73-1.49 2.95 3.38 4.5 8.66 1.88 1.64 2.05 1.88-2.87-3.46.28-2.36-.43-1.1 1.74.41 2.57 2.6-.2-1.09-.05-1.57.88-.65 1.87 3.76 1.52 1.57 3.88 1.85 1.54-.01-1.18-5.54-4.57-5.4a4.7 4.7 0 0 1-2.5-2.68c-1.58.2-.82-1.3-.28-1.07a5.7 5.7 0 0 1 .98-4.12c2.82 2.13 1.47-1.14 0-3.38-2.91-4.95-1.52-10.8-2.86-13.9 2.33-.9-.32-1.69-3.22-4.53-.37-1.17-2.07-2.8-3.52-4.26q.08-.11-.42-.42c-1.57-1.61-2.63-2.93-.9-3.04q-1.28 0-2.51-.29zm12.45 33.94q.09.54.28 1.07l.1-.02c-.02-.68-.18-.98-.38-1.05zm2.59 7.94q.1.52.28 1.17a5 5 0 0 0-.28-1.17zm.28 1.17c-1.39 2.28 2.32 4.45 1.63 8.97-1.35 1.7.05 7.02 1.86 11.6-1-2.01-3.63 1.8-2.04 5.99-.23 8.52-2.14-7.15-3.24-.35-.47 2.95-2.06-5.82-3.2-4.13-1.57.05-1.48 4.08-2.78-.25-1.44-5.34-4.35 7.25-6.16 1.88-1.08-5.26-4.96-.83-5 2.7-.2.91-1.3-2.54-1.57 1.99-.34-1.87-3.9-3.6-4.72 2.39-.13-4.9-1.67 1.9-2.18 3.32-.55 5.9-.73-2.2-1.86-1.44.43-2.42-3.07-2.95-1.01-1.73.53 3.7 1.17 1.49 1.88 4.51.84 7.66 1.49-8.87 3.18-3.4.23-4.14 2.02-2.55 3.02-.74-.4-1.33-.7-3.55-.4-3.7.14 3.6.4-.68.57 2 .02-1.77 1.62-1.62.63 2-.16 1.1-.46.77-.73-.06.7 5.81 1.32-5.46 3.53-2.42 1.24 3.82 1.7-2.08 1.88 2.11-.67 3.3.22 5.7 1.57 7.87a6 6 0 0 1-.17-4.98c-1.43 2.42-1.18-5.99-1.34-9q.17-1.01.35-1.56c-.67.35.56-3.16.02-.08.4-1.15.83-.8 1.37-.14.14-.71.97-1.8.36.42l-.02.01q.35.5.8.89c1.62 2.7 1.04.45 3.47-1.51 2.62-4.97 3.61 6.34 4.59-.08 2.51 1.1 1.15 1.05 1 4.48-1.65 2.33-.45 13.6-.76 6.92.56 2.43 4.49 3.27 6.92 6.92 2.55 5.92-1.41 7.17-4.73 9.63-1.15.6-2.45-.49-2.95-1.63.09 5.26-8.58-11.17-2.34-3.66.95.37-2.77-2.78-.23-2.65a8.3 8.3 0 0 1-5.86-3.21c1.74 2.54 4 4.86 5.09 8.07-.7 3.91 6.2 4.65 3.3 8.53-.55 6.74 3.15-3.62.48 1.5.23-4.45.97-2.32 2.62.2.8 2.44 4.02 1.01 6.58.05q-.51 0-.45-.16c-.8.66-1.8 1.12-2.86 1.01-1.32.37-3.7-.24-3.02-1.61-2.34.77 8.04-3.48 5.84-2.67.05-1.52 2.43-1.6 1.01-.19 1.72-.9 1.12 1.42-.51 3.05 1.15-.73 3.83-1.66.58.35 1.45-.51 2.58-.74 2.76.22q.3-.1.67-.1c-2.5-1.41-2.6-6.66-1.41-6.6-3.79-2.06-1.06-7.33-4.13-10-3.29-3.75-10.43-8.8-5.7-13.91 1.97 4 1.6-.4 2.71-1.17 1.44 2.14 1.2 1.35 2.77 4.51.49-2.98-2.17-14.08 3.09-8.5-3.42-4.85-3.08-10.94-2.88-16.42-.1-.83-1.26-3.88-1.88-6.04zm7.42 58.13q.69.38 1.46.35c-.5-.2-1.01-.33-1.45-.35zm1.46.35c2 .8 3.82 2.62.54 1.86-.07-1.47-1.02-1.3-2.1-.65.93.34 3.6 2.79 2.76 1.34 2.6.3 1.1-2.07-.55-2.64q-.35.07-.65.09zm-1.56 1.2c-.22-.07-.35-.04-.3.2zm-.3.2c-1.18.78-2.43 2-2.83 2.23-.03.2-.33.36-.8.47a9 9 0 0 1 1.82-.17c1.6-4.57 4.24 2.52 2.77 3.48.4 1.27.5 1.7.53 1.7.04-.03-.14-1.26.36-1.94a5 5 0 0 1 1.39 1.36c-.6-1.62-1.47-3.27-2.03-4.99a8 8 0 0 1-1.21-2.14zm3.24 7.13q.3.81.5 1.66a3.3 3.3 0 0 0-.5-1.66zm.5 1.66c.07 2.11-1.8 4.04-2.02 4.1-1 .43.12 5.11-1.96 6.34-1.17-2.06-.55 2.44-3.06 2.76q.36-.77.46-1.18-.36.23-.6.27.05.18-.15.9c-1.25 1.28-.49-.43-.06-.88-.25-.03-.32-.26-.28-.48-.84.52-1.65 1.04-.48-1.3 2.21-4.54-1.4-.84-.97 2.24-2.42 1.93-1.33.67-1.37-.53q-.52.34-.82.36-.13.53-.3 1.04-.41.46-.6.58c.93.22 1.93.2 3.18-.96 2.34 2.1 7.45-3.54 6.98-7.28 2.22-1.97 2.51-3.95 2.06-5.98zm-12.21 14.22-.23-.05c-.01.13.05.18.23.06zm-.23-.05a5 5 0 0 1 .78-1.65c-.46-.38.29-1.85 1.08-.73q-.14-.46-.75-.73c-4.24 5.88 2.79-6.67-.47-2.22-1.1-1.21-.3 3.45-2.78 4.84.74-.01 1.42.29 2.14.49zm-2.14-.49q-.2 0-.4.05h.33zm-.4.05c-.65 0-.95 0-1.02-.03q-.24.3-.6.65l-.12.25a3 3 0 0 1-.25-.5q.04.41-.02.96c.74-.85 1.4-1.22 2-1.33zm-2 .36a3 3 0 0 0-.12-.57q0 .27.13.57zm-.12-.57c-.08-1.7 2.78-1.96 1.14.13.39-.15 2.3-.5 1.2-1.16l-.03-.98c-.15.4-.53.74-1.45.2.17-1.33.11-1.62-.98 1.16.37-4.38 2.93-5.38 4.4-7.87-.16-.4-2.73 2.84-3.64 3.88-.16-2.99-.6 2.61-3.05 3.55 1.08-.13 2.05.1 2.41 1.1zm-2.4-1.1q-.38.05-.74.14.39 0 .73-.13zm-.74.14q-.7 0-1.6-.56a8 8 0 0 0-1.16 1.57c-.74.85.59-1.81.66-2.06-1.61 3.04-1.18-.53-.06-2.08-2.06 1.64 1.69-3.69 4.28-3.9-.52-.13 3.81-3.02 4.65-6.37 1.3-.53 5.4-1.89 6.21 2.45-.59-3.6 1.26-1.4 2.33-.22l-.07.12c.16.22.21.13.2.02.59.63.86.81.16-.84-.87-.37-4.37-3.17-7.96-2.17-3.9 2.71-2.37 1.14-.3-1.43-.74-.32.47-1.3 2.29-2.13.29-.06.6-.15.62-.18l-.25.02c.8-.34 1.68-.63 2.56-.82-2.21.4-6.77.04-5.13-1.23-1.05-1.05 2.14-.07 1.55-.8-2.63-2.26-1.92.5-3.04 2.57 1-.6 2.27-.88.26.57 1.76-.28-.56 3.25-1.55 5.52-.76 5.43-10.4 6.21-7.84 13.33a10 10 0 0 1 3.2-1.38zm6.2-17.47q-.35.06-.94.34.41-.41.68-.9c-.52.3-.97.7-.9 1a17 17 0 0 0-1.2.7 4 4 0 0 0 1.23-.64l.04.06.78-.34zm-4.09 10.44h.15zm-4.28 3.9q.2-.16.49-.42l-.14.03a2 2 0 0 0-.35.39zm.49-.42c1.02-.18 1.59-.15 1.84.03-.23-.68-.7-1.14-.9-.95q-.55.56-.94.92zm1.84.03q.09.26.11.54.13-.36-.11-.54zm.11.54c-.2.6-1.08 1.54-1.86 2.42 1.56-.57 1.94-1.57 1.86-2.42zm5.18 1.93c.1-.27.08-.55.05-.58-.03.02-.06.18-.05.58zm-1.17 2.14q-.06.02-.06.04l.02.01zm5.39-1.86q.07.22.08.46l.13-.1zm-1.1.73q.13.1.36.08c.12-.6-.08-.46-.35-.08zm4-.7c.27-.16.55-.33.76-.41-.37-.3-.7.06-.76.42zm.76-.41q.18.14.36.52c.13-.55-.05-.63-.36-.52zm.36.52-.03.09.05-.03zm-.84.38.22-.02c-.02-.14-.11-.1-.22.02zm.63-22.97-.59.22.26-.02zm-.58-.35c-.25.15-.43.3-.46.4q.24-.19.46-.4zm.51-3.05q-.59.3-1.56 1.16a9 9 0 0 0 1.56-1.16zM125 250.25q-.25-.38-.48-.77.21.4.48.77zm.09-16.1-.34-.43c-.06.3 0 .53.34.43zm-1.7-.29-.03.08h.01zm-5.85 8.06-.01-.13-.06-.1zm14.28-30.14c-.15.72-.37 1.42-.63 2.22a7 7 0 0 0 .63-2.22zm-9.61 5.35c-.05.3.02.45.25.35a2 2 0 0 0-.25-.34zm-6.3 7.26c.03 1.05.17 2.02.2 2.04.03-.03-.02-.6-.2-2.04zm-5.76 1.5-.04.05.05.05zm-.04.05a6 6 0 0 1-.74-.85l.1.4c-.86 1.95-1.2-.95-.95-1.73-1.7-2.97-2.98-7.37.56-6.39-1.64-.98-.31-1.99 1.4-1.94-1.2-.46-1.94-1.13-.12-2.55 6-.37.01.39 2.76-2.86.38-3.14 7.95-6.96 6.52-6.65-.48-1.79-.97-11.92-.95-16.93.96.1.38-.27-.6-1.48.31 1.07-3.28-1.37-.68.53 1.37 3.66-1.4 1.64-2.46-.92.93 3.37 4.22 5.3 3.41 7.43-1.07 2.61 4.15 13.69-3.31 12.58-8 .72 4.73-2.72 1.1-1.95-.89-.93-2.75 1.3-3.38.48-.14.18-4.59 3.75-7.98 2.77a2 2 0 0 1 .35.4c-2 .6-1.76-.62-1-.65l-.42-.24q-.36.13-1.43.15c-4 1.45-5.14-3.23-4.67-5.73-2.52 3.92 3.17 8.23-.96 11.55-.59-2.76-.93 3.62-3.74 3.96-1.3 1.16-.78-3.48-2.1-3.84 1.65 2.51.74 7.48-.56 5.26-2.34-6.38.8 3.9-1.63 1.12-.72 1.34-.75.27-.92-1.37-1.72-2.22.42.63-.75 3.5l-.37.57-.33.2c1.27-2.3-1.26-4.03-3-5.28.4.54.77 1.23 1.05 1.92-.2-1.76 1.77.08 1.55 3.03-.86.9-1.23.83-.73-.6q-.15-.3-.26-.59c.09.65-.05 1.01-.52.74-3.84-6.37 1.79 2.4-.47 2.36-.28.93-.62-5.38-3.04-5.96-3.14-.93-1.86-.93-.4-.9.35.28.48.12.4.02 1.25.02 2.35.01.49-.64q.34-.44.73-.35c-.43-.48-.35-.84.78-1.1 6.02.42-2.28.08.73-1.29 2.57.46 2.19.7 2.5.54-1.3-.66-2.43-1.5-1.29-1.88-.68-.24 1.18-1.93 3.82-.63q.57.03 1.08.3c-2.09-1.4-4.64-.54-3.43-2.46q-.47.55-.91 1.14c-2.27 1.87-4.5 7.78-8.55 5.74-3.25-3.24-6.03.49-8.33-2.44-3.94-4.53-10.6-7.87-12.53-13.3-.12-4.56 4.32-9.42 6.93-13.3q-.36-.33-.83-.33c.12.03-.13.35-.92 1.1 1.76-1.29-.48 1.94-2.29 4.36-4.57 6.56 3.04-5.05 1.62-2.98-2.75 3.88-4.75 5.26-5.1 8.62-.54 2.73-1.56.38-2.71-.36-.08-.65.4-1.56.94-2.35l-.38.42c-3.22 3.6-.95-2.27 1.12-2.64-1.23.07 6.88-6.07 7.68-6.17-2.84-.01-8.85 7.13-12.03 9.09-3.33-.86-6.33 2.41-6.83 5.63.3-1.17 3.39-5.24 4.1-5.37 1.4 2.97-.41-1.09 1.5.83-.16 2.13-2.6 1.03-4.26 4.1-1 .8-1.37.91-1.37.6a4.7 4.7 0 0 0 .65 3.27c-5.05 8.9-8.5 19.15-7.28 29.5q.27-.06.5-.27c-.83-3.49-.46-11.25 1.74-15.43-1.69-.24 2.45-7.2 2.93-7.63-2 .38 4.04-8.22 3.79-5.72 1-.85.59.56-1.12 3.04-1.15 1.8-4.84 10.62-2.81 6.54 1.24-1.97 2.75-8.08 5.08-9.17.16.27.19.11.16-.06.96-.35 2.05.15 3.33 2.11-1.03-.57-1.34-.78-1.36-.77 0 .05 1.06.95-.1 1.7 1.45-.82.95-.42-.46 1.4-.88-.88-1.6 4.12-2.88 2.6.01 3.82-2.33 1.79-2.5 6.22-2.61 4.9-4.2 9.78-5.65 15.01 1.75-1.96 2.65-9.6 4.8-12.53 2.74-4.57 4.69-11.36 9.78-13.32a271 271 0 0 1 14.93 12.6c-4.06 4.3 1.31 9.23 5.2 10.73 1.31 1.18 2.6 1.16 3.82.92l-.27-.04c-4.6-.7 2.49-2.15 3.03-5.11.57-.02 1.8-.54.36.74 1.48-.84.14 3-1.88 4.12 1.62-.38 3.1-.56 4.36 1.98-1.58 1.52-1.35 2.5-.65 3.32-.22-.52.04-1.4 1.15-2.84.12 1.12 5.94-2.32 6.5-4.32-.5.26-4.76-.77-1.26-1.89q.39-.16.78-.28l-.36.31q-.26.32-.26.34c.05 0 .58-.53.67-.66 3.7-.98 7.66 2.1 10.68-.75l.2.11c-.26-.5-.31-.99-.02-1.42 2.05-.78 4.17.53 5.36 2.28-.26-.78-.33-1.9.55.2q-.1.38-.22.33c.8 1.44.96 3.06-.02 4l-.21.2-.21-.24c-.84-1.25-2.82-2.66-4.15-4 .67 1.6.36 3.52 1.39 2.24 4.4 1.9-2.03 4.7-2.51 8.05-2.11.85-3.98 4.11-6.7 5.05 1.9-.4 2.48 2.28 2.55 2.83.36.64 3.12 4.2 4.61 7.72-.12 5.64-3.41 3.43-5.48 5 1.2-.15 2.47-.17 2.74.31.07-.22 5.93-6.45 2.97-.59-1 .77.33.84-1.18 1.48-1.39 2.56 2.3-1.04 4.98 3.11.3.9-.88-.69-1.52-.1 2.12-2.53-4.3-.39-5.3-1.47.78-1.91-.47.45-2.62.95 3.84-.4 7.98-1.07 3.42 1.84-7.3 2.33 6.15.1 1.43 2.53-3.8 1.33-3.23 1.34-1.68 1.37.2-.23.75-.5 1.33-.67-.78.09 3.08-1.8.8-.23l-.4.13c.78-.15 1.5-.03 1.32.78l-.56.1-.18.04c1.26.2 2.3.7 1.98 1.93.93.94 1.48 1.48 1.75 1.73-.64-.56-2.6-2.19-3.64-2.03-3.56 1.78-7.38-1.15-10.55 1.87-3.57.47-2.27.25-.56-.4a4 4 0 0 1-.76-.1c-5.07 1.1-.51 1.7 1.95.72-2.84 2.1-5.33 4.3-8.75 5.75-4.62-.12-10.64 1.83-10.04 7.6q.1-.12.2-.21c-.05-.66.14-2.12.2-1.6 2.28-3.34 2.83-.41.75 1.26.78.13 1.48 1.14 2.14 1.6-.47-.59 1.35-4.1 1.93-3.48-.26-.6 1.62-1.33 2.4-1-.11-.6.02-1.14.5-1.4-1.8.58-3.48 1.22-4.57 3.3-3.6 2.69.8-1.78-1.48-2.18.1-.84 1.07-1.33 2.23-1.66l.1.14q.3.23.33.21c.01-.04-.22-.27-.36-.37 2.27-.63 5.2-.64 3.79-1.32q.8.06 1.58-.14l-.16.14c-.12.55.31-.02.34-.19 3.87-1.1 7.15-6.06 9.6-2.16.79-3.75 1.41 4.06 3.02 1.2 2.56 3.13-.66 5.47-3.31 4.84 1.11-1.09-2.35 1.62-4.62 2.34l.5.1a26 26 0 0 1 7.89-2.31l-.04.01q.08 0 .14-.03c2.51-.35 5.1-.47 7.91-.73 7.41-.42-3.65-11.5 2.5-9-1.27-.98-3.88-4.55-4.13-7.64-1.17-5.19 1.1-1.1 3.3-1.4 1.97-2.54-5.23-1.98-3.54-5.6 2.15-4.1-3.19-8.21-3.95-12.29a5.2 5.2 0 0 0 5.74 3.58c-.34-.93-.54.45-2.34-1.2-1.41-1.7-6.19-5.23-4.7-4.81-.1-.5 1.09-2.51 2.7-2.07-.5-.52-.6-.85-.05-.88q.09.1.1.09t-.02-.09q.3 0 .83.11c.08-.31 1.01.55 2.21 1.7-2.07-3.07 5.57-8.02 4.97-2.04 2.16-7.27 1.46 10.4 3.17 2.47-.95.34-.94-.51-1.54-3.66-.4-6.17-1.43 2.04-1.68-2.5.06-5.5-4.86.18-1.73-4.09 2.53 1.92.3-.2 2.9-2.62.8 1.75 1.36.3 1.89.35.12-1.2.96-2.75 1.9-3.87zm-1.9 3.87c-.08.76.13 1.39.77 1.7-.27-1.29-.52-1.67-.77-1.7zm-7.98 12.1q.27.4.77.75zm.77.75a43 43 0 0 0 3.12 2.85 6 6 0 0 0-1.6-2.16 6 6 0 0 1-1.52-.7zm3.12 2.85.1.07zm0 0c-1.73-1.3.48.85-.37 2.45.55-.61.76-1.45.37-2.45zm-.37 2.45c-.5.57-1.33.95-2.25 1.09l.07.2c1.26-.27 1.9-.75 2.18-1.29zm-6.59-6.99c.4.4 1.02.91 1.78 1.48-.62-.89-1.22-1.33-1.78-1.48zm-2.7 2.07q.04.16.24.07zm-9.28 41.32q-.75-.1-1.48.02c.32.23.85.18 1.48-.02zm-1.48.02q-.26-.18-.31-.61c-.76-1.01-1.08.19-4.23 1.81-4.02.57-4.65-1.6-.3-2.55q-.22-.3-.39-.63-.1.34-.47.84c-1.3-.08-1.93-.29-2.15-.53q.1.2.11.64c.6-.02.39.27-1.58 2.72q-.27.15-.4.1c.49.3.96.23 1.43-.83 2.98 2.06 5.42-.51 8.29-.96zm-9.73 1.8-.11-.08a.2.2 0 0 0 .11.07zm1.88-3.47-.06-.1zm2.62-.3c.14-.43 0-.68-.28-.8q.08.4.28.8zm.22-2.2.43-.13q-.23.03-.43.14zm.43-.13q.6-.1 1.62.21c.3-.46 5.42-2.8 1.57-1.59a13 13 0 0 1-3.19 1.38zm1.62.21q-.07.11.2.07zm-9.02 4.2c-.3-.05-.62.03-.95.34.02.3.1.43.27.1q.38-.2.68-.44zm16.45-13.41c.89.02 1.44-.31 1.8-.85-.5.33-1.18.61-1.8.85zm1.8-.85q.59-.35.8-.76c.07-2.59 2.36-.88 1.07-3.2.15.1.5-.23-.04-.06l-.5-.85c5.14 1.1-2.49-1.07 1.89-.52-3.2-1.34-1.85 3.4-3.21 5.4zm9.22-2.26c-.78-.13-1.63-.14-2.3-.15-.29.32.16.53 2.3.15zm-5.48-5.9-.9.1q.47 0 .9-.1zm-.9.1-.26-.03.07.04zm-.26-.03a2.5 2.5 0 0 0-1.13-.35q.6.29 1.13.35zm-1.13-.35a5 5 0 0 1-.8-.5c3.56-.02.79-.25-1.01-1.41.32 1.05-.1 2.46-.44 3.46.73-.94 2.32-2.47.46.14q-.49.37-.66.42c-.32.94-.3 1.1 1.38-.77 2.2 3.1-.51-1.28 1.07-1.34zm-2.45 2.11.2-.56c-.29.37-.44.65-.2.56zm.64-4.02c-.16-.52-.5-.95-1.12-1.2.2.48.62.87 1.12 1.2zm-1.12-1.2c-.19-.47-.16-1.02.22-1.66 3.68 3.84-.71-1.27-1.2-4.4 2.47.07-2.87-2.92-3.68-5.84-.48-4.35 2.16-4.94 4.73-4.27l-.1-.2c2.66-1.2 3.01-1.4-.71-.63-5.53-.5 2.41-3.29-.48-2.68-1.21.86-2.17.98-2.83.72 1.84 1.62-1.58 4.33-.87 7.1 1.25 3.66 6.64 7.56 4.26 11.67a3 3 0 0 1 .66.18zm-4.05-18.96a3 3 0 0 0-.58-.38q.24.25.58.38zm-.58-.38c-.78-.8-.6-2.36.83-2.73-1.11.16-2.84.42-3.68-.04.76.74 1.7 1.4 1.72 2.35q.69.19 1.13.42zM81 236.57l-.41-.44q.12.3.41.44zm3.68.04.61-.09q-.3 0-.61.09zm.61-.09q.2 0 .4.02-.08-.05-.4-.02zm3.26 5.99c.28.46.92.82 1.41.56l.2.02a10 10 0 0 0-1.61-.58zm1.6.58.61.3q.43-.29.8-.43a5 5 0 0 1-1.4.13zm1.4-.13zm2.08 15.43c-2.08.26-3.96.92-.12.1zm.87-12.72-.04-.07.04.17zm5.27-18.16a3 3 0 0 0-1.08-1.36 6 6 0 0 0 1.08 1.36zm4.6.03-.34-.53c.1.28.22.5.33.53zm-16.13 1.43q.08-.03.02-.11zm-11.36 1.86q-.6.16-1.24.3.65.05 1.24-.3zm-39.77 1.9-.16.15.06.22zm4.51-22.91.05-.01v-.01q-.02 0-.05.02zm1.47-9.43q0-.09.03-.17zm10.47-6.5a12 12 0 0 0 1.42-1.67c-.05-.03-.78.74-1.42 1.67zm32.68 14.1q.52-.64 1.06-1.26l-.14.05q-.63.75-.92 1.2zm1.06-1.26c4.67-1.85 3.53-6.67 3.24-11.12q-.11.47-.3.95c1.68 4.52-.51 7.32-2.94 10.17zm3.24-11.12c.3-1.17.28-2.27.07-3.33a16 16 0 0 0-.07 3.33zm.07-3.33q.09-.6.27-1.18c-1.5-1.55-2.89-9.35-1.16-4.15 1.03-1.15 3.22 4.55 3.12 8.54.07-.87.3-1.4.61-1.65-1.31.96-.4-4.1-1.59-6.86-2.07-5.84 1.42 4.14-1.3-.88-.57-5.34-2.6 2.47-2.66-2.12-.62-5.81 1.6-2.35.42 1.02 1.87-3.68-1.34-5.58-.26-6.9 3.17-5.44 1.95 2.64 2.29 1.89-.19-3.94 1.18-4.2 1.24-1.41.35-1.68 1.4-1.48 1.27 1.61.18.72.33 2.43.5 4.21l.09-.48c1.56 1.83 4.69 6.92 6.58 9.98-.4-.47-2.22.02.73.45 5.37 3.65-2.16-1.73.21-1.04 4.38-1.95 2.31-6.13 3.77-8.6 3.22-4.91 1.05-1.32 1.17 2.07.96-4.79 1.52-9.18 3.86-13.7.87-5.22-.33 1.75-2.55 4.45 1.3-.41-1.45 5.26-2.07 6.29-3.53 3.78-.17 3.25-2.14 7.12-4.04-4.08.36.45-.6.95-2.7 1.71-3.3-3.04-3.89-1.55-3.74-3.55-3.64-7.4-5.28-9.88 2.85-.07.31.55 1.28-2.09 3.06.77.31 3.22 3.1 3.6 1.58 1.96-4.89-7.1.47-2.19-1.46-1.8-2-2.48-4.59-2.21-4.2-1.58 1.46-1.73-1.22-1.69-3.58.45-1.86.04-.86-.71-.1.01-.03-.22.5-.7a2 2 0 0 1-.25.49c.33-.33.45-.7-.01-1.08-3.9 2.19-7.76 5.2-11.61 6.69-3.52-1.23.66 3.35-.36 1.3 1.68-.75 3.23-1.93 5.84-3.7 6.65-5.35-2.28 5.84 2.08 2.24-1.12 4.47 2.23 7.9 3 11.87zm1.06-17.32-.25.2q.08 0 .25-.2zm15.55 2.57q-.35.09-1.17.9.61-.22 1.17-.9zm-13.86 6.87c-.11.9.02 1.7.25 2.35q-.13-1.13-.25-2.35zm.25 2.35c.3 2.43.71 4.1 1.41 2.05a4.5 4.5 0 0 1-1.4-2.05zm1.41 2.05c.22.15.3.1.06-.2zm-3.43-10.22q-.16.66-.1 1.7.11-.98.1-1.7zm-1.92 31.86q.6.39 1.08 1.03l.05.01a3 3 0 0 0-1.13-1.04zm-4.9.34q.25.1 1.04-.18-.69.06-1.04.18zm1.28 1.88c1.88.96 4.12 1.53.48-.2zm-4 1.85c.26.28.7.6 1.2.97-.39-.53-.8-.91-1.2-.97zm2.8 4.73a8 8 0 0 0-.55-1.84q.06.6.56 1.84zm12.76-19.43.1-.15.04-.38q-.09.24-.14.53zm.14-.53c.17-.5.42-.85.75-.92 3.05 4.37-.6-1.8-2.42-4.69.15.32-.04 1.51-1.78-.82q-.49.72-.8.95c1-.71 2.74 1.1 2.92 3.12.42-1.05 1.38.79 1.33 2.36zm-1.33-2.36q-.17.4-.19 1.49.26-.74.19-1.5zm-.34-3.25-.02-.04zm7.63 11.72c.65-.24-.15-.7-1.12-1.1q.24.33.5.6c.36-.1.24.05.1.09a4 4 0 0 0 .52.4zm-.52-.41-.1-.1-.06.03q.06.11.16.07zm-.6-.7-.16-.23c-3.72-1.01-1.52-.47.16.23zm1.54 1.35q.32.16.65.25a1 1 0 0 0-.65-.25zm8.63-2.52v-.01zm2.18-18.54a7 7 0 0 1-.22-1.36l-.12-.86c-.12.7.04 1.49.34 2.22zm-.34-2.22q.05-.23.12-.45c-1.2-5.71 2.26 2.97.65-2.21.84-5.46-1.54-2.67-1.76 1.83.34-.1.68-1.04 1 .83zm3.48 2.6c-.08-.26-.41-.76-1.15-1.6q.61.97 1.15 1.6zm-7.6 30.48c.76.3 1.71.5 2.3.78a4 4 0 0 0-2.3-.78zm2.3.78q.32.24.57.54-.05-.3-.56-.54zm-3.7 1.16q.53.35 1.58.65a9 9 0 0 0-1.59-.65zm-.57 6.39q.42.75.85 1.33c-.45-1.58-.73-1.73-.85-1.33zm5.38-1 .25-.05c-.17-.19-.25-.08-.25.05zm16.24-45.2a11 11 0 0 0-.07 1.17q.09-.6.07-1.17zm-17.01-12.71-.1.01q.1.04.12.03zm-4.32-10.15q.27.45 1 1.1c-.31-.75-.65-1.05-1-1.1zm-3.9 3.29q.36.5.62.94c.06-.52-.22-.82-.61-.95zm.62.94q-.04.4-.42.98c.8.03.74-.39.42-.98zm-6.37-12.04c3.61 2.97 3.68 5.84-.06 7.42 2.5-.92 5.03-2.28 7.61-2.67 3.92-2.24 9.87-2.75 13.37-3.36 7.2-1.93.1-.55-2.98.15-3.9.06-12.78 3.96-13.53 3.44-4.23-2.57 2.07-1.93-1.03-2.53-4.63-1.96 1.4-2.08-3.38-2.45zm-.06 7.42zm-1.03-7.4q-.09 0-.2.14c.44.39.41-.16.2-.14zm-21.8.17c-.05 0-.29.33-.82 1.28.47-.32.93-1.3.83-1.28zm50.46.08c2.04 0 5.12.5-.46.67-1.62-.51-.77-.68.46-.67zm1.67.76c.24 0 .27.18-.29.74-1.72.19-.23-.74.3-.74zm-28.57.27q-.03.02.1.27c.16.16.23.2.24.2a1.3 1.3 0 0 0-.34-.47zm21.03.08q-.08-.01-.42.35.46-.28.44-.34zm2.53.12q.05-.01.11.14c-.27.38-.23-.14-.1-.14zm-26.59.45-2.44 2.24c1.04-.64 1.68-1.38 2.44-2.23zm-16.5-.43c-.65.4-1.38.87-1.65 1.63zm8.56 1.15c.05.3.2 1.22.35 1.84-.31-1.83-.39-2.14-.35-1.84zm9.44.3-.24.06c.06.2.43-.05.24-.05zm-13.32.18c-1.35.67-.94.2-1.47 1.15zm5.34.38q-.03.02.02.17.15.2.18.19c.02-.04-.16-.37-.2-.36zm.08.8q-.09 0-.43.35.47-.28.44-.34zm10.06.04-1.76 1.04c1.47-.8.9-.42 1.76-1.04zm20.96.35q-.15 0-.3.06c.11.2.56-.07.3-.06zm1.25.27c.14 0 .38.12.72.47-.77.44-1.1-.47-.72-.47zm-34.44.3c-.72.35-.9.41-1.43 1.23zm5.85.06c-.59.26-1.35.48-1.43 1.23zm10.7.31q-.06 0-.21.15c.14.43.38-.15.21-.15zm13.86.98q-.13-.02-.9.33c.43.2 1.19-.34.9-.33zm-45.81.25q-.03 0-.26.11-.09.1-.07.12c.04.03.35-.19.34-.23zm8 .23c-1.02.6-.98.98 0 0zm16.98.02q-.16 0-.33.06c.12.18.53-.05.33-.06zm.37 1.11c-.1 0-.5.42-1.09 1.42.9-.87 1.2-1.42 1.1-1.42zm-9.58.37a3 3 0 0 0 .64 1.08c.02-.05-.6-1.09-.64-1.08zm21.25 1.2q-.03 0-.08.08.03.2.06.2c.04 0 .08-.3.02-.29zm-34.78.39c-.04 0-.13.1-.3.38-.15.77.4-.39.3-.38zm15 .07q-.03 0-.07.17.03.24.05.25c.04-.03.06-.38.02-.42zm22.57.45q-.13-.01-.17.14c.6.09.37-.14.17-.14zm-.75.33q-.08-.01-.42.35.47-.28.44-.34zm-28.34.56q-.1 0-.2.02c-1.76-.33-5.2 4.1-8.66 2.07-.47-4.55-1.38.38 1.04.97-2.64 0 .63.18.3.72 1.26-.22 2.01 1.88 2.19 1.03-.4-1.28.33-1.04 1.46.17.39-.26 3.98.8.69-.29-.64-.05-.12-.27.82-.58-6.07-.83 5.2-4.11 1.85-.6 1.55-.5 3.11-1.07 3.05-1.51-2.35-.83-1.68-2.02-2.54-2zm-.5 3.51-1.86.6.44.05 1.08-.32q.2-.17.33-.33zm-3.37 1.47c-.1.06 0 .2.4.45zm.4.45q.4.47.85 1.07c1.63.61-1.78-1.01.47-.36a15 15 0 0 1-1.32-.71zm-4.04-1.65q-.34.05-.73.38c.45-.14.66-.27.73-.38zm9.08-3.71q-.09-.01.01.17c.66.34.13-.17-.01-.17zm-2.4.76c.2 0 .8.2 1.99.74.12.99-2.63-.74-2-.74zm26.05.47c-.06 0-.45.25-1.48.94-.76.78 1.62-.95 1.48-.94zm-20.82.33c-.06 0-.35.13-1.04.47-1.28.92 1.24-.5 1.04-.47zm-15.49.08c-.06 0 .05.2.49.76 1.7 1.39-.3-.75-.49-.76zm2.77.28q-.03.03.02.17.15.2.18.19c.02-.05-.16-.36-.2-.36zm12.53.66-.23.05c.05.21.43-.05.23-.05zm-8.02.26c-.27-.01-.35.12.07.55 2.48.46.62-.52-.07-.55zm5.08.02zm-15.29.1q.12 0 .23.13c-1 1.2-.67-.13-.23-.12zm3.65.51a1.4 1.4 0 0 0 .69.28 3 3 0 0 0-.7-.28zm22.96-3.93c-.33-.73.42 1.16-.24 2.72-.92 2.17-.98 2.79-1.34 3.04.53.5 1.04-1.26 1.37-3.24.14-.83-.01-1.82.2-2.52zM69 162.37c.04-.01.21.22.62.92.06.8-.73-.89-.62-.92zm31.75.13q.05 0 .1.15c-.27.37-.22-.14-.1-.15zm2.88.02q-.09-.01-.43.35.47-.28.44-.34zm-32.95.03c.26 0 .36.21-.14.8l-.3.33-.39-.35c-.27-.34.46-.78.83-.78zm32.98.31q-.13 0-.17.14c.6.09.37-.14.17-.14zm-11.04.13c-.1 0-.76.96-1.66 2.83 1.31-1.9 1.76-2.84 1.66-2.83zm-22.8.72c.05 0-.1.27-.65 1.06-1.72 1.85.5-1.04.65-1.06zm1.3.02q-.05 0-.27.11-.08.1-.07.12c.04.03.35-.19.34-.23zm28.35.46q-.16 0-.13.17c1.93.87.57-.18.13-.17zm7.09.2q.08-.01.2.14c-.43.38-.4-.14-.2-.15zm-23.8.12c-.15 0-.47.04-1.05.19.27.26 1.46-.19 1.04-.2zm5.1.02q-.06 0-.17.14c.29.38.35-.16.17-.14zm-14.97.4q-.05 0-.15.14c.14.4.28-.15.15-.14zm-.4.19q-.07-.01-.18.23c.35.18.33-.25.19-.23zm4.96.41-1.16.3c1.28.01 2.73.55 1.86 2.95.6-.37.9-1.22.5-1.86 3.7 1.81.84 0-1.2-1.39zm-1.16.3c-1.46-.01-2.68.65 0 0zm30.4-.18.21.21q.4.27.42.26c0-.05-.58-.48-.62-.47zm-33.87.22q-.03-.01-.33.2-.16.15-.15.17c.04.02.47-.32.48-.37zm17.63.06c-.32 0-1.49 1.06-1.76 2.46l.25-.4c1.5-1.47 1.74-2.06 1.5-2.06zm16.17.36c-.01.02 0 .1.09.32.41.47-.02-.33-.09-.32zm12.55.1-.48.06c.16.13.61.02.61-.03q0-.03-.13-.02zm-10.84.1-.2.03c.27.33.47-.02.2-.03zm-19.5.85q-.03-.01-.43.35-.29.34-.26.34c.04.02.68-.64.69-.7zm6.86.42q-.01.02.1.16.25.27.26.26c0-.04-.32-.4-.36-.42zm5.33.1c.23.74-.25.13 0 0zm21.68.04q-.11 0-.2.13c.8.51.5-.13.2-.13zm-25.18.43c-.04 0-.13.12-.3.47.17.38.42-.47.3-.47zm-20.54.12c-.24 0-1.05.45-2.7 1.8a5 5 0 0 0 1.1-.38l-.08.18c.15.34.21-.13.15-.22 1.11-.55 1.86-1.39 1.53-1.38zm5.42.03c0 .02.21.17.87.56.76.26-.78-.57-.87-.56zm31.74.2c-.05.01-.28.37-.83 1.43.37-.26.92-1.45.83-1.43zm-27.56.43q-.01.01.1.16l.26.26c0-.05-.32-.42-.36-.42zm-17.48.25-.23.05c.05.21.43-.05.23-.05zm26.74.07q-.06-.01.1.21.26.14.27.12c.03-.05-.3-.34-.37-.34zm-11.53.25q0 .02.16.15.39.2.4.17c-.01-.04-.5-.32-.56-.32zm42.4.24.1.15q.32.23.33.22a2 2 0 0 0-.43-.37zm-9.74.34c-.07.01-.42.38-1.25 1.42.62-.35 1.38-1.44 1.25-1.42zm-20.72.28c-.51.02-2.7 2.34-3.83 3.6-.6.6.78.71.15.21.96-1.4 1.91.52 2.29-1.35.66-.62 1.43.64 1.13-1.33.42-.82.46-1.14.27-1.13zm-24.72.06q-.06-.01.01.3c.42.47.08-.3-.01-.3zm47.94.4c-.16.02-.84.45-1.89 1.5 1.54-.89 2.09-1.5 1.89-1.5zm-4 .46c-.1 0-1.01 1.22-2.08 3.1l.01.17.35-.46c1.36-1.98 1.81-2.81 1.72-2.8zm-28.86.43c-.02 0 .09.43.48 1.67.52.93-.4-1.69-.48-1.67zm-11.5.06q-.02.02-.05.31c.01.27.03.37.04.39h.01a3 3 0 0 0 0-.7zm26.33.08q-.03 0-.08.08.03.2.06.2c.04 0 .08-.3.02-.28zm27.54.54c.15 0 .8.82 1.93 2.79v.31c-1.5-1.86-2.11-3.1-1.93-3.1zm-10.86.12c-.04.01-.27.38-.82 1.41.38-.46.84-1.38.82-1.41zm-43.54.05q-.08-.01-.42.34.47-.28.44-.34zm19.7.02q.08-.01.03.23c-.5.45-.15-.23-.02-.23zm-11.57.16q.13-.01.4.25c-.39.77-.72-.25-.4-.25zm6.2.1q-.02 0-.05.25.03.23.05.24a1 1 0 0 0 0-.48zm37.57.12q-.05 0-.07.27c.31.56.17-.29.07-.27zm-47.93.14q.21-.02.66.46c-.7 1.02-1.16-.48-.66-.46zm1.55.12q.06-.01.18.14c-.28.37-.34-.13-.18-.14zm10.83.04q-.02 0-.17.2-.05.14-.03.15c.05.02.23-.3.21-.34zm6.18.37.1.16q.25.27.26.26c0-.04-.32-.41-.36-.42zm-23.7.07c.14 0 .4.12.81.48-.7.32-1.15-.48-.8-.48zm-5.42.02a1 1 0 0 0-.06.24q.03.32.05.32c.04-.02.05-.54.01-.56zm22.68.05q-.09-.01-.42.34.46-.28.43-.34zm12.25.16q-.07-.01.26.22c.57.24.78.3.8.3.01-.05-.97-.54-1.06-.52zm1.36.5q-.06-.01.18.28c1.23.8-.06-.3-.18-.28zm-20.6.05q-.04 0-.12.23c.17.38.22-.25.13-.23zm7.51.02c.06-.01.1.08.04.35-.7.66-.22-.33-.04-.35zm-23.07.3q-.02 0-.07.1.03.19.05.19c.05-.01.08-.29.03-.28zm48.83 0q-.02 0-.07.1.03.19.05.19c.05-.01.08-.29.03-.28zm-24.86.18q-.08-.01-.42.34.47-.28.44-.34zm6.79.1q-.03 0-.08.08.03.2.05.2c.05-.02.08-.28.03-.29zm-13.4.12q-.15 0-.21.12c.85.1.5-.14.22-.12zm46.1.45c.4-.01 2.06 1.42 3.44 2.76-2.3-.98 1.27 4.61-.24 7.07-.24.06 1.34.56 1.32 5.85.8.52 3.83 6.19 2.11 5.02-1.43 1.76-3.05 4.56-5.44 3.95 3.87-4 .8-2.95-2.88 2.06-2.58 1.26-1.67-.07-.92-1.58-1.46-.84.24-8.1.61-10.65 4.37.16 5.42-5.75 4.08-9.92 1.27 3.56.23-1.17-.7-2.04-1.37-1.84-1.67-2.52-1.39-2.52zm4.52 15.68c-.23-.14-.28.1-.03.98zm-42.38-15.44q-.07 0 .09.15.38.16.39.13c.01-.05-.39-.29-.48-.28zm-16.3.04c-.36 0-1.12.11-2.21.42 2.2-.15 2.78-.43 2.2-.42zm35.79.53c-.03 0-.07.4-.15 1.47.09 3.68.25-1.49.15-1.47zm-11.4.01c-.01 0-.01.24.04.86.41 1.96.04-.88-.03-.86zm-22.91.1q-.09 0 .17.21c1.63.63.02-.23-.17-.2zm53.1.4c.09 0 .34.29.87 1.2-.34.45-1.05-1.16-.86-1.2zm-55.91.01q-.06-.02-.22.38c.2.33.32-.38.22-.38zm48.93.28q0 .02.09.16.25.27.27.26c0-.04-.32-.4-.36-.42zm-40.2.03q-.02-.01-.27.26-.11.22-.1.24c.04.04.39-.45.37-.5zm14.58.14c-.02 0 0 .18.1.63.58 1.43-.02-.65-.1-.63zm-7.29.23c-.04 0-.08.3-.09 1.14.37 1.24.22-1.16.1-1.14zm32.56.43q-.07 0 .01.14c1 .5.17-.15 0-.14zm-18.99.08q-.03-.02-.4.36c-.58.92.45-.29.4-.35zm27.24.3c.05 0 .16.13.34.5-.04 1.1-.5-.49-.34-.5zm-6.32.22c-.06 0-.14.1-.19.38.3-.1.28-.38.19-.38zm-42.02.01c-.07 0-.02.11.29.41 1.32.6-.08-.42-.3-.4zm9.33.03q.06-.01.18.2c-.27.56-.34-.18-.18-.2zm35.87.1q-.03 0-.06.3.03.31.05.32h.01a2 2 0 0 0 0-.62zm-35.1.01c-.04 0-.17.14-.3.48.31-.28.37-.49.3-.48zm7.61.02q-.05 0-.08.21c.26.56.19-.22.08-.2zm-4.03.17q-.04 0 .2.4c.74.74-.11-.41-.2-.4zm6.03.12q-.03 0-.34.18-.17.17-.15.19c.04.02.52-.33.5-.37zm-4.48.02c-.11 0-.36.58-.67 2.24.7-.91.84-2.24.67-2.24zm3.14.34q-.34-.02-1.23.28c1.37.03 1.74-.3 1.23-.28zm-13.81.03q-.06 0-.17.2c.28.57.34-.22.17-.2zm-1.43.01c.06 0 .03.13-.17.46-1.16.93 0-.46.17-.46zm38.6.08q-.1 0-.18.38c.31-.11.27-.39.17-.38zm-17.33.14q-.02 0-.06.17l.06.18c.04-.02.04-.33 0-.35zm20.68.05q-.02-.02-.18.46-.01.28 0 .28c.05.03.21-.7.18-.74zm-28.56.16c-.02 0-.37.59-1.3 2.29.5-.68 1.31-2.23 1.3-2.29zm-8.66.17c-.03.01-.13.21-.32.8.05.46.4-.81.32-.8zm16.4.13c-.02-.02-.06.22-.12.94.03 1.45.17-.9.12-.94zm4.27.3q-.03 0-.07.1.02.19.05.19c.05 0 .08-.29.02-.28zm3.23 1.2c-.05 0-.05.13.11.5.14-.24-.03-.51-.1-.5zm-2.56.3q-.05 0-.18.32c.08.54.28-.34.18-.32zm19.26.65q-.03 0-.06.17.03.17.06.18c.04-.03.04-.33 0-.35zm-42.15.46q-.06-.01.01.3c.42.47.08-.3-.01-.3zm22.31 1.44a8 8 0 0 0 .18 1.5c-.78.13-1.9-3.57.3 2.18.7 1.81-.37-3.68-.48-3.68zm-6.64.26q-.02 0-.07.09.03.2.05.19c.05 0 .08-.29.02-.28zm-6.55.13q-.02 0-.07.09.03.2.05.2c.05-.01.08-.29.02-.29zm20.97.21c-.04 0-.02.2.15.73.35.23-.06-.74-.15-.73zm-31.1.4q.07-.03.35.29c.02 1.14-.6-.29-.36-.3zm30.2.04q-.02.01.27.3l.31.3c.2.03-.53-.6-.58-.6zm4.72.22q-.1-.02-.53.32c.48-.08.66-.32.53-.32zm-3.13.07c-.05 0 0 .14.29.52 1.02.62-.13-.54-.29-.52zm2.98.47q-.02 0-.2.24-.09.25-.06.26c.04.04.3-.46.27-.5zm-19.18.04c-.04 0-.17.23-.4.87.27-.18.47-.9.4-.87zm12.92.99c.04 0 .09.08.13.34-.3.7-.26-.33-.13-.34zm-17.92.1c-.14 0-.13.18.37.7.53-.23-.13-.7-.37-.7zm-40.75.05q-.03 0-.26.12l-.07.11c.06.02.35-.18.35-.22zm57.8.23q.03-.01.23.13l-.03.1.02.03q-.23-.21-.22-.26zm17.23.06q-.02 0-.05.25.03.23.05.24h.01a1 1 0 0 0 0-.49zm-3.45.18c-.08 0-.12.09-.02.35.64.16.22-.35.02-.35zm-13.4 0 .54.42c.06.23-.26 0-.54-.25zm-58.98.1-.7.6-.1.1-.47.47c.03 0 1.18-1.05 1.27-1.16zm54.34.13a1 1 0 0 0-.06.24q.03.23.05.24h.01c.04-.03.04-.45 0-.48zm2.08.14c-.6.05-1.13.75-.9 2.9-.7-3.7-.41-1.1-.2.96l.23.04.12-.45c-.2-4.27 2-2.29 1.86-2 .84-.2-.23-1.52-1.11-1.45zm1.1 1.44-.14.02q.12.04.15-.02zM96 189.14c-.2 0-.37.5-.1 1.87.78-.85.4-1.88.1-1.87zm3.02.2q-.07 0-.15.06c.51.38.4-.06.15-.05zm14.38.22c-.07 0 0 .8.43 3.18a8 8 0 0 0-.43-3.18zm-56.15.36c.05-.08-.17.11-.95.84-1.97 2.08.77-.6.95-.84zm60.28.2q-.01 0 .2.21c.3.2.4.26.42.25a4 4 0 0 0-.62-.46zm-20.18 0zm35.6.01c-.07 0-.2.2-.38.75.4.2.53-.76.38-.75zm-41.58.39q-.02-.01-.18.19-.04.15-.02.16c.05 0 .23-.31.2-.35zm12.89.05c-.06 0-.14.1-.19.38.3-.11.28-.38.19-.38zm28.3 0c-.15 0-.67.16-1.73.58 1.13-.18 1.95-.58 1.72-.57zm-32.83.37c-.1 0 .01.06.52.25 2.88.63-.16-.25-.52-.25zm-1.87 0a2.78 2.78 0 0 0 .74 1.02 6 6 0 0 0-.74-1.01zm6.06.18c-.08 0-.2.23-.32.89.5.14.5-.9.32-.89zm25.9.15q-.05 0 .02.15.25.17.27.15c.03-.04-.22-.3-.3-.3zm-9.87.1-.06.18.06.18h.01c.04-.03.04-.33 0-.35zm-3.22.03q-.06-.01.08.29c.76.63.04-.3-.08-.3zm-21.74.05c-.02 0 .04.2.23.7.25.45.35.61.37.6a7 7 0 0 0-.6-1.3zm39.01.6c-.05 0-.13.1-.17.38.3-.11.27-.4.17-.38zm-16.65.07c-.03 0 .02.1.2.4.74.74-.11-.41-.2-.4zm18.5.07q-.02-.01-.05.4.06.39.09.37c.04-.04 0-.73-.03-.77zm-31.2.04c-.05 0-.21.15-.58.54-.64 1.15.73-.55.58-.54zm28.93.77c-.25 0-1.86 1.02-2.6 2.77.42-.72 1.75-1.64 1.59-1.86.92-.62 1.15-.9 1.01-.91zm-5.73.32c-.1 0-.53.64-1.29 2.24.98-1.27 1.4-2.25 1.29-2.24zm-13.88 0c-.04.01-.14.53-.34 2.02.09 1.6.43-2.01.34-2.01zm-57.05.57c.05 0 .02.2-.1.72l-.45 1c-2.18 5.02.3-1.74.55-1.72zm49.86.27q-.01-.01-.28.35l-.1.23h.01c.04 0 .4-.54.38-.58zm-57.22.7c.37 0-.12 2.56-.12 2.63l.15-.62c1.24-2.99 2.06-.7 5.47 1.86 2.7 2.27-2.08 5.87-3.64 7.92a19 19 0 0 1-1.68-1.31c-1.04-2.3-6.9-1.17-5.33-2.7-2.9.79 5.35-3.75 4.7-7.2q.32-.59.45-.57zm57.1.15q-.09-.02-.17.38c.32-.12.28-.4.18-.38zm-.29 1a6 6 0 0 1-.28.69c.37-.27.55-.52.28-.7zm-.28.69c-1.13.8-4.05 1.8-1.67 1.71.63.1 1.28-.9 1.67-1.71zm28.1-.6q-.02 0-.07.08.02.2.05.2c.05 0 .08-.29.02-.28zm-82.72.23q-.02.01.27.3l.32.3c.18.04-.54-.6-.59-.6zm-4.02.05c-.23 0-.64.13-1.1.55 1.32-.12 1.47-.53 1.1-.55zm56.31.27q-.02 0 .3.32l.53.37a6 6 0 0 0-.83-.7zm-53.26 0q-.07-.01-.24.24c.32.33.4-.24.24-.24zm46.4.12q-.03 0-.08.08.02.2.05.2c.05 0 .08-.29.02-.28zm4.21.13c-.14 0 2.78 2.86 4.43 4.5 1.93 1.63-2.03-2.38-2.28-2.66a23 23 0 0 0-2.15-1.84zm-48.71.27c-.18 0-.47.22-.86.84 1.06.11 1.25-.86.86-.84zm44.64.14q-.02 0-.08.08.03.2.06.2c.04 0 .08-.29.02-.28zm-50.02.55c.6-.01-1.37 1.97-.47 1.63-1.03 1.9-2.2-.3-.58-1.16.58-.33.9-.47 1.05-.47zm49.64.07q-.05-.01.03.42c.53.77.07-.44-.03-.42zm-43.19.2q-.05 0-.08.21c.27.56.19-.22.08-.2zm80.45.2q.07-.03-.15.38c-.83.73.02-.38.15-.39zm-21.08.45q-.02 0-.08.09.03.2.06.2c.04-.01.08-.3.02-.29zm-16.74.14a3 3 0 0 0-.2.77c.03.92.28-.8.2-.77zm38.24.2q-.02 0-.06.16.02.25.05.25c.04-.02.06-.38.02-.41zm-1.29.08q.04 0-.08.25c-.28.38-.4.5-.41.5-.02-.04.43-.74.5-.75zm-78 .3c-.17 0-.42.2-.52.78.88-.3.79-.78.52-.78zm40.76.09c-.02.02-.1.46-.25 1.7-.06 1.57.3-1.65.25-1.7zm16.55.15q-.04-.01-.23.22c-.13.6.33-.22.23-.22zm-7.59.07q0 .02.22.14c.45.18.61.23.62.22a5 5 0 0 0-.84-.36zm-57.45.39c-.25-.01-1.23.74-1.43 1.68 1.39-1.2 1.63-1.68 1.43-1.68zm-1.43 1.68-.13.11q-.06.07.1.25 0-.18.03-.36zm-.04.36.03.25c.36.25.5.35.53.35-.01-.05-.37-.36-.56-.6zm-1.48-1.75c.69.03 1.4.32.09.77-1.43-.58-.77-.8-.09-.77zm91.28.04q.09 0 .16.06c-.11 1.04-.5-.07-.16-.06zm-2.42.36c.08 0 .12.05.03.2-.93.34-.28-.18-.03-.2zm2.06.14c.23 0 .12.5-.9 2-1.48.08.42-2 .9-2zm-2.02.18c1.05 0 1.09 2.2-1.5 3.45.24-2.39.65-2.48-1.04.57l-.92.49c-.2-1.55-1.62 1.18-1.38-2.22.99 1.27 1.88-.83 2.82-1.38l-.13.29c.17.3.29-.22.24-.35q.3-.14.6.01c.5-.6.97-.85 1.31-.86zm-78.17.15q-.05 0-.2.2c.08.6.35-.22.2-.2zm-6.16.42c-.18 0-.55.28-1.1 1.1 1.08-.13 1.44-1.1 1.1-1.1zm6.82 0c2.4.78 8.53 7.4 12.22 10.7 2.64 2.39 2.4 2.51 1.64 3.8 1.67 3.19.97 2.79-.7 3.7-1.2-1.1-1.6-1.47-1.63-1.47.02.06 1.9 1.92 1.04 1.6 1.05 1.48-2.85-2.45-2.35-2.02-2.89-2.9-5.58-4.34-8.9-7.72-1.21-1.08-7.15-4.86-3.03-3.3 5.07 4.08 1.32.92-1.23-1.33.3-.24 3.13.94 1.82.2-3.3-4.31 5.02 2.27 1.41-.9-3.18-3.47 1.98-.91-.29-3.25zm-8.84.08a1 1 0 0 0-.22.05c.47.37.55-.06.22-.05zm81.77.1q-.05-.01-.13.22c.17.38.22-.23.13-.23zm7.19.45c.56 0 1.42 3.66.4 2.26-1.2 2.84-1.17.7-1.51 1.47-1.13 2.06-1.8 1.13-.64-.22-.42-2.33.93-3.11 1.38-2.46.07-.77.2-1.05.37-1.05zm-.37 1.05q-.04.53-.04 1.4c.26-.68.22-1.15.04-1.4zm-84.62-.2q-.04 0 .02.31c.42.47.07-.32-.02-.3zm86.23.03q.05 0 .2.15c.25 1.35-.43-.14-.2-.15zm-26.84.5q-.03 0-.27.12-.09.1-.07.11c.04.03.34-.18.35-.22zm12.3.07c-.02 0 .02.13.16.48.24.4.34.53.36.5s-.47-1-.52-.98zm-73.29.06q-.06 0-.17.14c.29.38.35-.15.17-.14zm82.92.04q-.05 0-.24.16c-.13.6.4-.16.24-.16zm-38.1.22q-.07 0-.22.14c.15.43.38-.15.21-.14zm39.07.12c.82-.01 1.07 3.64-1.7 4.26-2.25 1.28.4-1.55.6-1.98.35-1.67.77-2.28 1.1-2.28zm-39.05.14c-.03 0-.23.13-.73.52.1.1.75-.47.74-.52zm-41.73.14c-.08 0-.24.12-.44.45.52-.1.6-.45.44-.45zm-5 .05c-.05 0 .07.17.56.63.8.36-.43-.63-.56-.63zm90.4.05c.24 0 .6.38.86 1.47-1.47-.19-1.34-1.49-.87-1.47zm-86.87.12c-.06.01-.03.16.18.56 1.24.97.02-.58-.18-.56zm43.42.06q-.03-.02-.53.47c-.27.34-.36.47-.35.48.05.02.91-.9.89-.94zm31.86.37a19 19 0 0 0-1.19 3.37c.07.03.5-.67.56-.68v.01c.55-1.97.7-2.7.63-2.7zm-.63 2.7-.01.05zm5.96-2.56c.97.05.14 1.95-2.24 4.13-1.15 1.73-.07-4.1.27-3.24.94-.64 1.6-.9 1.97-.9zm-19.34 0c1.19 0 2.85.17 3.66.04 0 1.01-3.26 4.88-5.89 3.08-.1.66-3.9-.86-2.77.46-3.63-1.77-1.13.37-3.64-1.16-2.35-2.53-.42-.72 1.18-1.12 1.3-.6 3.23.63 3.81.75.12-3.43 2.48 2.15 2.87-1.04-1.11-.83-.4-1 .78-1zm28 .03c.84-.04 1.6.5.92 2.35-2.42.6-1.93-.39-1.57-.86-1.63-.42-.43-1.43.65-1.49zm-.65 1.49h.02q.2-.23.2-.24a1 1 0 0 0-.22.24zm-40.99-1.45c1.04-.04 3.35 1.17 3.01 1.77l-.07.64c.5-.2 2.09-.46.3.16l-.31-.01c-.1 1.15-.16 2.33-.38 3.44.5-.88 1.3.32 1.98 1.29-.76-1.32 3.07-.19 3.11.2-.74-.18.32 6.75-3.7 8.61-1.86 2.87-4.62 3.1-6.3 3.35-1.25.63-.35-1.91-1.8-1.06 1.17-1.41 2.88-5.53 5.43-5.7-2.34-.66-.12-3.8 1.44-3.32 2.77 5.07 1.22 1.53-.55-1.5l.07-.68a5 5 0 0 1-1.9 2.54c.53 3.46-7.73 9.62-5.66 10.07 1.18 2.84-6-.4-8.32 2.1-.76-.24-3.17-2.07-2.4-3.22a47 47 0 0 1 8.41-6.42c2.92-3 8.86-6.14 7.37-11.26-.42-.7-.2-.98.27-1zm2.23 7.2q.2-.6.32-1.2-.2.34-.32 1.2zm-.96 5.5q.39.1.95.12a3 3 0 0 0-.95-.12zm3.26-5.41.17.25zm.17.25c.31.44.59.78.77.75a6 6 0 0 1-.77-.75zm-1.77-4.98.01-.15c-.15.06-.2.12-.01.15zm-5.26-2.54c-.03.01.05.15.32.52 1.04.97-.24-.53-.32-.51zm-46.38.18.1.15h-.07zm73.33.02q-.06 0-.18.14c.3.39.35-.15.18-.14zm-63.03.35q0 .03.27.3l.32.3c.19.04-.53-.6-.58-.6zm63.63.02c-.13 0-.35.27-.5 1.03.66-.51.67-1.03.5-1.03zm-11.8.12q-.09 0-.15.06c.5.37.4-.07.15-.06zm-59.09.1q.08-.01.21.17c-.3.19-.34-.15-.2-.16zm-2.55.1.4.62c-.57.44-.4-.13-.4-.62zm6.77 0v.01q-.01.02.1.15c.22.16.3.22.33.21 0-.04-.4-.38-.43-.36zm34.38.24c-.02 0-.07.17-.14.62.09 1.03.22-.65.14-.62zm38.23.18c-.03 0-.1.17-.23.65.12.53.32-.66.23-.65zm-86.5.1q-.03-.01-.22.28-.1.27-.07.27c.04.02.33-.52.3-.55zm14.36 0q-.03 0 .36.61c.37.47.52.63.54.63a10 10 0 0 0-.9-1.24zm84.85.03c.32 0 .63.18.86.65.38 2.08 1.56 2.6-1.07 2.59-1.4-.15-1.55-1.15-1.2-2l.02-.04c.28-.64.85-1.19 1.39-1.2zm-1.39 1.2-.01.04c-.03.12.09.4.2.08q-.15-.18-.19-.12zm-.15-1.12q-.03 0-.08.09.03.2.05.2c.05 0 .08-.28.03-.29zm-34.41.15q-.08 0 0 .15c1 .47.19-.15 0-.15zm-14.12.08a5 5 0 0 0-.96.87c.04 0 .96-.83.96-.86zm38.19.33q-.06 0-.22.15c.15.42.38-.16.22-.15zm-33.46.13c-.05.01-.27.84-.42 2.22.4-1.56.47-2.24.42-2.22zm9.6.2q-.05 0 0 .21.14.16.17.13c.04-.03-.12-.35-.18-.34zm6.58.02c-.04 0-.12.14-.22.53.26-.03.3-.54.22-.53zm-56.27.07a12 12 0 0 0 1.42 1.47c.03-.02-1.33-1.43-1.42-1.47zm4.24 0v.01q-.01.02.1.15.31.23.32.22c0-.05-.37-.38-.42-.37zm1.2.07h-.01q-.01.01.27.3l.32.3c.19.03-.54-.6-.59-.6zm68.68.18q-.06 0-.22.15c.15.42.38-.16.22-.15zm-73.93.07q-.07-.01-.16.23c.27.3.28-.25.16-.23zm59.6.04h-.01q-.04.03.1.17.3.14.3.12c.03-.04-.31-.29-.4-.29zm-13.86.03q.44-.01 1.1.29c-.76 1.27 3.1-.05.8 1.4-2.77-.11-3.13-1.7-1.9-1.7zm-41.26.16q-.02.01.1.15c.22.16.3.22.32.21 0-.03-.38-.37-.42-.36zm65.6.17q0-.01-.27.26-.12.2-.1.21c.03.01.38-.42.38-.47zm-10.86.06q-.05-.01-.04.28c.38.4.15-.29.04-.28zm.7.02q-.06 0-.16.14c.14.39.28-.15.15-.14zm-8.1.28c.44.01.92.33 1.14.9.69-1.33 2.82-1.18.6 1.99l-.12.33-.31-.24a3 3 0 0 1-.22-.47q-.09.24-.22.5l-.05.81-.03.05c-.77.7-.68-1.8-1.6-1.76-.4-1.49.17-2.13.81-2.11zm1.09 2.51c.23-.65.2-1.2.05-1.61-.22.4-.3.96-.05 1.61zm14.56-2.45c-.04 0-.12.14-.22.53.26-.03.3-.53.22-.53zm-65.4.07q0 .01.09.16.25.27.27.26a2 2 0 0 0-.36-.42zm42.8.09c.24 0 .69.22 1.43.84-.5 2-2.3-.84-1.43-.84zm10.87.02c.15 0 .13.25-.35 1.02-1.34.46 0-1 .35-1.02zm21.96.01q-.12.01-.24.05c.05.21.43-.05.24-.05zm-26.04 0q-.05 0-.15.14c.14.4.27-.14.15-.13zm-1.7.08c.18.01.13.21-.42.76-2.78.88-.14-.79.42-.76zm-3.62.06q-.06 0-.17.14c.29.38.35-.15.17-.14zm30.63.18q-.03.02.01.22c.36.4.06-.23-.01-.22zm-13.16.08q-.03-.01-.35.28l-.18.27c.04.02.54-.51.53-.55zm-63.45.02q0 .01.09.16l.27.26c0-.04-.32-.4-.36-.42zm5.19.09c0 .02.21.23.75.74l.96.91c-.4-.5-1.67-1.65-1.71-1.65zm-2.9.02q-.04-.02.22.39c.4.47.55.63.57.63a7 7 0 0 0-.79-1.02zm49.38.08q-.1 0-.31.15c.43.18.53-.16.31-.15zm-1.97.05c.1 0 .2.11.24.42-.79.38-.5-.43-.24-.42zm12.3.32q-.12-.02-.53.32c.48-.08.66-.32.52-.32zm-14.33.56c1.54.01 3.37.24 1.27 1.09-1.11.09-2.06-.2-.76-.86-3.28-.03-2.04-.24-.5-.23zm6.62.25c.1 0 .09.17-.11.64-1.6 1.28-.2-.66.11-.64zm-52.77.14a3 3 0 0 0 .97.58c0-.04-.93-.59-.97-.58zm34.12.07q-.02 0-.07.08.02.2.05.2c.05 0 .08-.29.02-.28zm-4.74 0c-.08-.08.1.14.82.92 2.14 2.17-.55-.69-.82-.92zm-47.26.13c-.09 0-.26.44-.55 1.71.47.9.78-1.7.55-1.7zm93.44.12q-.04.03.21.24c.97.44-.09-.25-.2-.24zm-67.74.34q-.02 0 .35.3c.36.23.5.31.53.31 0-.04-.83-.62-.88-.61zm26.98.15q-.08-.01-.2.24c.35.17.33-.23.2-.24zm13.82.18c.4-.01 0 2.9-1.14 4.85 2.12-3.46 1.16-.73-.76 1.75-1.02.62.2-4.18.68-3.84.62-2 1.02-2.76 1.22-2.76zm14.97.17q-.02-.01-.23.28c-.27.74.29-.24.24-.28zm-60.7.02.1.16.26.26c0-.04-.31-.4-.36-.42zm60.32.75a19 19 0 0 1-1.45 1.35c1.45-1.42 1.7-1.61 1.45-1.36zm-13.78.05.2.03c.17 1.8-.82 0-.2-.03zm-40.28.01q-.02.02.1.16.3.23.32.21c0-.04-.38-.37-.42-.37zm59.06.02q-.03-.02-.19.37c.05.62.28-.39.2-.37zm-15.88.2q-.23 0-.43.05c.55.34.87-.02.43-.05zm-24.46.01c-.06.01.3.92 1.38 2.88-.73-1.86-1.3-2.9-1.38-2.88zm-19.82.13a6.13 6.13 0 0 0 1.25.97c0-.04-1.2-.97-1.25-.97zm-4.05.24c0 .02.11.17.43.53 1.4 1.3-.36-.54-.43-.53zm10.08.07c2.14.08 4.92 1.9 6.1 3.72.61.26-.4-3.11 2.45.51.4.5 2.1 6.4.42 2.95.45 2.05-.46-.62.01 3.28-.57.64-4.1-2.64-3.8-3.56-1.1.03-3.47-3.02-3.33-3.46-3.44-4 2.81 4.04-1.83 3.91 3-.33-.57-4.39.96-2.07-1.27 4.17-1.6-1.77-2.12-.24 1.83 4.61-.3.28-1.67-1.27-.15-2.85 1.14-3.83 2.8-3.77zm5.19 6.9q.25-.01.39-.23-.33.02-.4.23zm29.78-6.8c.09 0 .2.2.3.76-.6.72-.54-.75-.3-.75zm-21.94.3q-.01.02.1.22.27.28.28.26c0-.05-.35-.49-.38-.48zm51.24.06c-.03 0-.08.14-.18.53.13.51.27-.54.18-.53zm-5.65.03q-.03 0-.06.17.03.17.06.18c.04-.03.04-.33 0-.35zm-29.97.02c-.16 0 .04.27.97 1.03 3.61 1.57-.45-1.04-.97-1.03zm-33.24.25a5 5 0 0 0 .92.8c0-.02-.88-.8-.92-.8zm-24.79.4q.08-.01.14.34c-.5 1.13-.33-.32-.14-.33zm19.89.05q-.01.03.1.16.31.22.32.21c0-.04-.38-.37-.42-.37zm26.68.1q-.02 0-.07.08.03.2.05.2c.05 0 .09-.3.02-.29zm10.02.28c-.17 0-.07.12.79.48.9-.05-.45-.49-.79-.48zm-33.41.56c-.19-.16-.02.02.91.9 3.48 3.08-.34-.43-.91-.9zm15.63.03q-.03.02.22.29c.87.54-.12-.3-.22-.3zm-42.28.3c-.11.03-1.38 3.5-1.84 5.77.4-.8.55-1.7.86-2.55.8-2.36 1.03-3.23.98-3.22zm92.9.6q-.06 0-.16.14c.14.39.28-.15.15-.14zm-13.35 0q-.07 0-.26.28c.21.33.4-.28.26-.27zm15.13.13q-.06-.01-.16.22c.34.37.32-.24.16-.22zm-2.66.02q-.04 0 .02.3c.42.48.07-.31-.02-.3zm-47.29.11c-.02.01-.05.14-.06.48.22 1.31.15-.5.06-.48zm-18.86.1q0 .01.3.35c1.04.96-.24-.33-.3-.35zm66.98.17q-.07 0-.18.14c.29.39.35-.15.18-.14zm-19.2 0c-.01.01.03.13.18.44.31.47.44.63.46.63a5 5 0 0 0-.63-1.06zm5.2.15q-.08-.01-.42.35.47-.28.44-.34zm-11.49.17q-.03-.02.17.48c.74 1.16-.1-.5-.17-.48zm1.1.06c-.2-.13.27.22 1.8 1.81q.26.36.27.34c.02-.05-.5-1.02.22-.98-1.2-.4-2.08-1.03-2.29-1.17zm11.63.12q-.03.02-.05.32.03.3.05.3c.04-.03.04-.6 0-.61zm-78.99.09q-.03-.01-.17.19-.05.15-.03.16c.05 0 .23-.31.2-.35zm58.5.21q-.06 0 .04.15c.83.46.11-.16-.03-.15zm11.21.06a9 9 0 0 0 1.79 2.56c-1.24-1.94-1.73-2.58-1.79-2.56zm21.57.1q-.09-.01-.42.34.46-.28.43-.34zm-2.27 0c-.04 0-.07.16-.07.58.39.75.18-.6.07-.58zm4.18.04q-.04 0 0 .21.15.15.17.13c.04-.04-.12-.35-.17-.34zm-47.52.2q-.03 0-.07.07.02.21.05.2c.05 0 .08-.3.02-.28zm44.48.03q-.14-.01-.45.1c.46.15.72-.08.45-.1zm-17.08.18c-.07 0-.05.26.24 1.06.42-.02-.1-1.07-.24-1.06zm20.9.3q-.09 0-.24.24c.37.59.45-.23.24-.23zm-54.85.02q-.02 0-.07.08.02.2.05.2c.05 0 .08-.29.02-.28zm25.35.12c.78-.02 1.34 2.68 1.97 3.64.03.4-.2.37-.55.12.88 1.26 1.36 2.71.91 3.33l-1-.76c.57.6 1.3 1.72.06 2.38-2.47-2.1-.83-1.14-4.52-2.86-3.75-1.55-.97-1.08 0-2-1.37.48-.71-1.37.04-.04.28-.3.38-.73.04-1.4.73-1.09 1.73-1.04 2.69-.44l-.59-.69c.36-.92.67-1.28.95-1.28zm-.36 1.97c.53.6 1.28 1.43 1.78 1.8a7 7 0 0 0-1.78-1.8zm-2.73 1.84-.05.04.06-.02zm4.42 2.52a2 2 0 0 0-.47-.41q-.01.03.47.41zm-5.77-6.24c0 .01.2.26.77.93 1.1 1.02-.75-.98-.77-.93zm-20.26.02q-.07-.01-.07.36c.37.28.19-.38.07-.36zm39.91.03c-.25.01-.77.3-1.02.93 1.23-.6 1.3-.94 1.02-.93zm-45.42.07q.09-.01.5.3c.29 1-.77-.28-.5-.3zm49.38.15c-.04 0-.15.1-.33.4.25.02.42-.4.33-.4zm-23.76.09c-.01.01 0 .17.1.59.52 1.3-.03-.61-.1-.6zm-30.78.11c2.12 0 2.65 3.81-1.3 4.74a2 2 0 0 1-.6.41q.26-.03.56-.02c1.74.04 3.85-4.13 5.83-2.82-.15-.49.64-1.63 1.06-1.53-.15-.35-.08-.57.63.25 0 .5-.2.41-.4.17q.05.34-.07 1.06-.67.32-.96.26.27.24.52.63c1.11-.18-2.77 4.6-5.49 4.93q.2.1.5.3c2.15 1.1 6.33-7.24 6.1-4.72.4-1.73 2.08.95.5.73 2.87.72-3.15 6.58-5.28 5.63-.82.57-2.46-1.38-2.45-1.96a2 2 0 0 1-.51-.19c-2.35.02-2.92-2.08-1.04-2.62-.9.02-1.8-.74-1.94-1.67-.28 2.42-1.94-3.43 1.2-3.34-.1 1-1.34 1.75 1.05.8.78-.74 1.5-1.04 2.09-1.04zm-4.34 3.58.04-.68q-.1.35-.04.68zm1.94 1.67q.26 0 .5-.1zm1.54 2.81q.3.06.64.02c-.45-.25-.63-.21-.63-.02zm5.61-5.54-.26-.2q.05.16.26.2zm1.04-1.32q-.05-.4-.24-.42.08.22.24.42zm53.5-1.1c-.07 0-.38.52-.8 1.41l.35.07c.4-1.05.53-1.5.46-1.49zm-58.13.18c.02 0 .09.06.23.28q.1.26.07.27c-.04.03-.32-.5-.3-.55zm-4.58 0q-.06-.01-.17.22c.34.37.32-.23.17-.22zm15.83.14c.03 0 .11.16.3.64.13 1.08-.38-.62-.3-.64zm22.5.1c-.03.01.1.13.56.45 1.59.75-.44-.47-.55-.44zm5.97.01c-.22 0-.22.74.44 2.24 0 .95.31-.01.41-.22-.23-1.34-.64-2.02-.85-2.02zm-2.71.35q-.08-.01.18.34c1.01.7-.05-.35-.18-.34zm26.93.03q-.04-.01 0 .41c.37.54.1-.42 0-.4zm-11.09.21c-.08 0-.33.32-.65 1.14.6-.65.76-1.14.65-1.14zm-.52.02q-.04 0-.13.23c.17.38.22-.23.13-.23zm6.07.03c-.04 0-.08.21-.08.79.4.96.21-.82.08-.79zm-17 .15c-.05 0-.05.17.07.62.7.9.07-.63-.08-.62zm18.17.3a4 4 0 0 0-.79 1.27c.63-.93.82-1.25.8-1.26zm-53.9.03c.56-.01 3.73 2.21 4.39 4.18 3.4 1.79 6.36 5.19 3.62 4.44l-1.08-.84c.97 1 2.12 2.67-.56 2.86-1.06-1.1-1.42-1.48-1.44-1.48-.03.03 2.2 2.6.32 1.83.71 1.93-5.52-4.24-3.09-2.47-.1-.51.09-.64.48-1.76.44-.42.2-1.67-.2-2.86-1.3-.1-.71-.92-.07-.22a13 13 0 0 0-.82-1.9l-.47-.4c.22.42-1.15-.73-.48-.46-.66-.65-.79-.92-.6-.92zm.6.92.48.45-.25-.34zm1.77 2.76.07.22h.1zm4.56 4.1c-.42-.43-.8-.73-.85-.74 0 .03.24.25.85.74zm25.94-7.73a.3.3 0 0 0-.15.06c.29.4.38-.06.15-.06zm13.55.15c-.1.01-.37.52-.74 1.86.68-.98.87-1.87.74-1.86zm-20.17.11c-.04 0 0 .11.22.38 1.22.85-.06-.39-.22-.38zm8.8.18c-.01.02.07.2.39.68.34.18-.31-.69-.38-.68zm22.86.07c-.05 0-.08.09-.07.35.42.41.2-.35.07-.35zm-24.94 0c-.03.01.13.32.66 1.2 1.24 1.53-.58-1.2-.66-1.2zm-7.03.11c-.02 0 .02.14.19.5.76 1.02-.11-.51-.2-.5zm31.02.7q-.08-.02-.47.3c.24.14.62-.33.47-.3zm6.31.06q-.03 0-.08.09.03.2.06.2c.04-.01.08-.29.02-.29zm-10.21.12q-.07 0-.3.16c.15.23.46-.17.3-.16zm4.38.1q-.03.02.01.23.14.17.16.14c.03-.04-.12-.37-.17-.37zm-30.96.1q-.02 0 .1.15.31.23.32.21a2 2 0 0 0-.42-.37zm29.1.28c-.1.01-.16.23-.05.86.81.38.28-.88.04-.86zm-.99.04c-.09 0-.27.17-.54.66.55-.2.69-.65.54-.66zm-27.29.05c-.04 0 .1.4.61 1.53.78.81-.5-1.56-.6-1.53zm-66.54.01q-.05 0-.08.27c.26.74.17-.28.08-.27zm72.61.1q-.03 0-.06.17.03.17.06.18c.04-.02.04-.33 0-.35zm-72.75.8-.06.18q.04.18.06.17c.04-.02.05-.32 0-.35zm57.07.01c-.17.5.07.73.43.85q.05-.05.1.03c.93.23 2.41-.15.45 1.04-2.83 1.03-3.4.41-.98-1.92zm.53.88-.1-.03c-.08.09-.1.46.15.12zm-2.06-.72q.06 0 .19.14c-.29.38-.35-.13-.2-.14zm7.07.04q-.04-.01.11.35c.58.64-.02-.36-.1-.35zm17.05.09c-.08 0-.16.25-.2.95.65.95.43-.96.2-.95zm-11.63.29q-.05 0 .06.17.39.25.4.21c.01-.04-.38-.39-.46-.38zm-67.7.44q-.04 0-.12.23c.17.38.22-.23.13-.23zm97.67.02q-.06-.01.02.36c.5.61.09-.38-.02-.36zm-21.71.6c-.25 0-.22 2.7.31 3.17 1.5-.71 1.24-4.17.2-.9-.21-1.69-.4-2.28-.51-2.27zm-44.77.3c-.04 0 .05.17.37.64 1.33 1.23-.25-.67-.37-.64zm-31.8.2q-.03 0-.06.18.03.18.06.17c.04-.02.04-.32 0-.35zm69.01.06q-.01 0 .1.21c.18.19.26.25.28.26 0-.05-.34-.48-.38-.47zm-4.96.05c-.01.02.1.19.43.63q.34.34.34.3c.02-.05-.73-.95-.77-.93zm-64.15.02c-.02-.02-.1.63-.33 2.54-.24 3.6.38-2.49.33-2.54zm67.2.01c.54.62.9 1 1.12 1.23-.2-.1-.38-.02-.08.9-.25 1.2-1.23-1.8-1.03-2.13zm21.72.04q-.05-.01-.07.28c.31.56.18-.29.07-.28zm-19.03.44q-.02 0-.18.2l-.03.15c.05.02.24-.3.22-.34zm-23.87.11q-.01.02.1.15.31.24.33.22c0-.04-.39-.38-.43-.37zm32.47.12q-.07 0-.17.2c.28.57.34-.22.17-.2zm20.2.04c-.05 0-.03.16.15.6.55.38-.02-.6-.15-.6zm-25.97.06q-.02.01-.06.37c.02.33.04.45.05.46.04-.03.04-.78.01-.83zm-17.83.16-.23.05c.05.21.43-.05.23-.05zm-7.99.39q-.07-.01.1.16.37.14.38.12c.02-.04-.38-.28-.48-.28zm23.4 0c.13-.01.12.32-.2 1.33-1.26 1-.11-1.3.2-1.33zm33.67.01q-.04 0-.1.15c.27.38.22-.15.1-.15zm-10.36.02q-.01-.02-.18.4c-.2 1.1.23-.32.19-.4zm-27.93.38c-.01.01.12.2.51.72q.26.25.27.24c.04-.03-.74-.96-.78-.96zm-18.88.05q-.02.01.07.27.23.36.24.34a2 2 0 0 0-.31-.61zm-11.78.02q-.02.02.09.27c.2.3.3.4.31.39.02-.05-.35-.66-.4-.66zm59.32.05q-.02 0-.07.09.03.19.05.2c.05-.01.08-.3.02-.29zm7.12.14q-.02 0-.07.08.02.2.05.2c.05-.01.08-.28.03-.28zm-58.62.12c-.06-.04.02.05.37.41 1.2 1.11-.2-.26-.37-.4zm20.94.1q.08-.02 0 .29c-.62.56-.15-.28 0-.29zm-16.32.24q-.02 0 .3.34c.28.23.4.3.4.3a5 5 0 0 0-.7-.64zm51.37.17a.3.3 0 0 0-.16.06c.29.4.38-.06.16-.06zm2.72.16c-.03 0-.01.36.13 1.34.75 2.5-.01-1.37-.13-1.34zm-28.7 0q-.01.02-.05.24.02.32.05.32c.04-.03.05-.51.01-.55zm16.71.3q-.05 0-.04.4c.35.58.15-.41.04-.4zm-46.66.28q-.01.03.1.17l.26.26c0-.05-.33-.42-.36-.43zm23.2.12q-.04 0-.1.15c.28.38.23-.15.1-.15zm35.22.39q-.03 0-.07.08.02.2.05.2c.05 0 .08-.29.02-.28zm-101.78.06q-.03 0-.07.17.03.25.05.25h.01c.04-.03.05-.39.01-.42zm78.38.28c-.06 0-.15.1-.32.38.26.21.45-.4.32-.38zm-34.28.15c0 .02.14.16.5.51 1.58 1.37-.46-.52-.5-.51zm16.95.28q0 .02.27.3l.32.3c.19.04-.54-.6-.58-.6zm11.1.49c-.06 0 .02.38.46 1.5.16-.39-.36-1.5-.46-1.5zm-23.9.23c-.09 0-.34.26-.8.97.62-.43.9-.98.8-.97zm16.64.26c-.17 0-.57.18-1.26.73 1.07-.15 1.55-.73 1.26-.73zm36.55.28c-.05.01-.03.28.23 1.02.18-.33-.14-1.03-.23-1.02zm1.17.05c-.12 0-.05 1.7.3 3.56l.16.44-.02-1.5c-.2-1.8-.36-2.5-.44-2.5zm-29.3.54c-.01 0-.04.16-.09.57.02.46.03.62.05.61.05-.05.1-1.2.05-1.18zm6.4.07-.07.08q.03.2.05.2c.05-.01.08-.28.03-.28zm-.1.45c-.06 0-.25.23-.55.86.49-.38.66-.87.56-.86zm-12.48.37q.05 0 .11.15c-.27.37-.22-.13-.11-.15zm-2.3.32c1.58.02 2.43.94-1.4 3.75-4.25 3.72-1.04-1.57.25-3.63q.61-.12 1.16-.12zm-15.56.03a9 9 0 0 0-.94.36c.04 0 .95-.35.94-.36zm35.72.06q.07 0 .19.14c-.28.38-.35-.13-.19-.14zm-20.46.05c-.03 0-.23.19-.74.68-.95 1.24.77-.61.75-.68zm34.5.26q.05 0 .02.15-.26.27-.28.23c-.03-.05.2-.39.27-.38zm-20.04 0q-.03-.02-.26.4c-.1.63.32-.35.27-.4zm-28.84.76c-.07 0-.18.25-.32 1 .4.14.46-1 .32-1zm22.93.34q-.04 0 .09.4c.39.52-.03-.42-.1-.4zm-5.31.6q.06 0 .19.15c-.29.38-.35-.13-.2-.14zm16.18.11c.36-.02 1.05 1.9 1.06.5.14 2.34.38.82.44.78.02 0 0 .24-.04.98-.27 1.74-1.22-.35-1.65-.81-.05-1.09.04-1.44.2-1.45zm15.53.08q.02 0 .06.53c-.03 2.1-.11-.49-.06-.53zm-.83.13c.37.7-.68 0 0 0zm-25.24.12c-.11 0-.1.29.3 1.08.27-.48-.13-1.08-.3-1.08zm26.62.17h.03a6 6 0 0 1-.3 1.26c-.04-.04.14-1.24.27-1.26zm-41.36.2c-.05 0-.24.3-.68 1.2.32-.12.76-1.21.68-1.2zm-6.89.26a9 9 0 0 0-1.43.42c.04 0 1.36-.38 1.43-.42zm27.71.38c.44 1.86-.51 1.58 0 0zm12.77.3q-.06 0-.17.15c.29.38.35-.16.17-.14zm-7.27.31q-.02 0-.05.3.02.39.04.4c.04-.03.05-.66.02-.7zm-5.84.14c.37.7-.69 0 0 0zm-5.56.2q-.02 0-.07.09.02.2.05.2c.05-.02.08-.29.02-.29zm-21.27 0q-.09 0-.31.48c.32-.28.37-.48.31-.48zm41.14.18q0 .03.1.16.31.22.32.21c0-.04-.38-.38-.42-.37zm-36.03.42q-.04-.02-.2.37c.06.63.3-.4.2-.37zm-2.84.05c-.04 0-.48.2-1.65.74-1.1.62 1.63-.68 1.66-.74zm26.42.09q-.02 0-.06.3.03.39.05.39a3 3 0 0 0 .01-.7zm-7.13 1.54q-.03 0-.07.17l.06.18h.01c.04-.02.04-.33 0-.35zm-17.18.18q-.08-.01-.42.35.47-.28.44-.34zm-7.95.07.19.04c-.25.56-.53-.04-.19-.04zm25.27.43q-.03 0-.07.09.02.19.05.2c.05-.01.08-.3.02-.29zm-18.44 0c-.17 0-.35.04-.44.11 1.54.12.97-.11.44-.1zm2.71.24q-.03 0 .2.33.3.29.31.26c.04-.03-.46-.6-.5-.6zm15.88.36q-.03 0-.07.17.03.24.05.25h.01c.04-.03.05-.38.02-.41zm-23.33.15c-.03.01.03.17.26.61 1.08 1.24-.15-.64-.26-.6zm8.6.77q-.02.03.1.16c.22.16.3.22.32.21 0-.04-.38-.37-.42-.37zm27.87.04q-.05-.01-.14.23c.17.37.23-.24.13-.23zm-28.98 0c0 .02.14.16.5.52 1.58 1.36-.43-.5-.5-.51zm32.72.96c-.04 0 .12.15.63.53 2.23 1.32-.5-.53-.63-.53zm-31.38.15c0 .01.1.18.43.62q.22.22.23.18c.04-.04-.62-.83-.66-.8zm2.47.2q-.01.02.1.15.3.23.32.22c0-.04-.38-.38-.42-.37zm1.94.05c-.14.01.26.55 1.75 1.72-.77-1.12-1.59-1.74-1.75-1.72zm-17.26.55q-.02.01.27.3l.32.3c.18.03-.54-.6-.6-.6zm15.9.2c-.06 0 .27.38 1.33 1.45 2.62 2.03-1.16-1.47-1.33-1.46zm-1.24.56c-.02.02.2.31.9 1.11 1.42 1.32-.85-1.15-.9-1.1zm-9.76.28c-.16 0-.51 1.18.03.92.08-.69.05-.92-.03-.92zm14.9.06q-.03 0-.08.09.03.2.06.2c.04-.02.08-.3.02-.29zm-3.77.32q-.01.01.1.15.31.23.32.21c0-.04-.37-.37-.42-.36zm-5.7.01q-.1-.02-.44.58c.43-.32.53-.58.45-.58zm32.17.17q-.05 0-.15.2c.05.71.28-.21.15-.2zm-32.15.26c-.06 0-.13.1-.17.39.36 0 .3-.4.18-.4zm8.73.04q-.02 0-.06.17.04.17.06.18c.05-.03.05-.33.01-.35zm-2.68.01q-.01.01.31.33c.3.25.42.33.44.33-.01-.04-.72-.67-.75-.66zm24.4.52c-.06 0-.1.08-.02.32.94.54.26-.33.03-.32zm5.56.26c-.04 0 .03.24.34.9 1 1.23-.22-.92-.34-.9zm-44.59.15-.2.05c.47.32.5-.06.2-.05zm4.08.28q-.03 0-.08.08.03.21.06.2c.04 0 .08-.29.02-.28zm43.81.12c-.05.01-.04.78.14 3.03.34.08-.03-3.05-.14-3.03zm-8.45 1.38c-.03 0 .03.1.27.38 1.26.93-.15-.38-.27-.38zm5.99.26c-.03 0 0 .18.14.7.5.73-.05-.72-.14-.7zm-38.42.38c-.06 0-.14.1-.16.44.32-.12.26-.44.16-.44zm39.17.76q-.03 0 .01.21.15.16.17.13c.03-.05-.13-.35-.18-.34zm1.74.85q-.02 0-.06.18.04.18.06.17c.04-.02.04-.33 0-.35zm-1.76.42c-.04 0-.24.14-.73.53.1.1.75-.47.74-.52zm7.25.78c-.05 0-.03.14.13.53.49.35-.03-.54-.13-.53zm-43.21.3q-.03 0-.08.08.03.2.06.2c.04-.01.08-.3.02-.29zm35.77.4-.3.07c.11.2.56-.07.3-.06zm10.94.41c.97 2.34.65 3.76-.12 5.98a26 26 0 0 1-1.28 1.17c.38-.16.88-.15.93.86-3.97 2.79-.11 1.4 1.36-1.58 3.43.17-1.41 4.4-5.3 5.62l-1.24.18-1.04-.07c-3.84-3.2 3.34-1.27 1.54-1.93-4.05-.25-.38-.9-.51-.54 4.79-2.5-2.85 1.48-3.42-1.86-5.52-3.5.07-.64 3-.96a10.4 10.4 0 0 0 4-2.4c-.19.04.03-.54.18-.2a7 7 0 0 0 1.74-3.35c-.06-.05-.14-.23.01-.26l.03.1q.08-.37.12-.76zm-.12.75-.04.17c.05.04.09.02.04-.17zM140.7 259l-.18.2q.05-.02.2-.15zm.5 2.88c-.25.1-.45.29-.46.32q.03.04.46-.32zm-48.94-5.99c-.05 0-.05.07.08.25.43.08.04-.26-.08-.25zm6.1 2.16c-.1 0-.55.23-.84.56.68-.36.9-.53.87-.56zm34.67 1q-.02 0 .07.27.22.3.23.28c.03-.05-.24-.56-.3-.56zm-39.77.02c-.2 0-.54.2-1.02.72 1.15.09 1.45-.74 1.02-.72zm48.8.03q-.05-.01-.13.23c.17.38.22-.24.13-.23zm1.42.69c.13 0 .06.51-.46 2.01-1.82 1.96.1-2 .46-2.01zm-4.34 1.45c-.85.02-4.73 1.5-2.45 1.85.25.63.46-.82.87-.75 1.73-.83 1.97-1.12 1.58-1.1zm-48.09.97q-.12-.02.2.37c1.96 1.12.08-.38-.2-.37zm44.04.18q-.15 0-.42.14c.56.18.7-.14.42-.14zm1.67.16q.06 0 .18.12c-.22.55-.37-.11-.18-.12zm-37.42.3c.13 0 .1.2-.32.8q-.47.28-.71.36c.91-.21 1.6-.12.37.9-3.59.5-2-.44-.6-.83-.38-.01.93-1.2 1.26-1.22zm-1.27 1.23q.12-.01.24-.07zm45.64-1.17q-.05 0-.52.3c-.63.76.7-.3.52-.3zm-49.96.68q-.08 0-.44.17c-.3.43.67-.2.44-.17zm48.93.12q-.09-.02-.18.38c.3-.1.28-.38.18-.38zm-47.04.95q.11 0 .27.08c-.61.54-.65-.08-.26-.08zm43.45.16q-.17 0-.33.06c.11.18.53-.06.33-.06zm-45.1.1q-.08 0-.47.18c-.27.43.64-.17.46-.18zm41.63.63q-.08 0-.03.21c.77.5.22-.22.03-.2zm2.53.21-.24.06c.06.2.44-.06.24-.06zm-1.65.14q-.09 0-.2.14c.44.39.41-.16.2-.14zm8.7.95q.05 0 .2.12c-.05.56-.39-.1-.2-.12zm-6.43 1.33q-.18 0-.36.05c.11.14.46.03.46-.03q0-.02-.1-.02zm-45.74.54c-.28 0-.37.1.03.31 3.49.35.84-.33-.03-.3zm52.9.13q-.04-.01-.3.28c-.36.74.35-.23.3-.28zm-1.08.25c-.24.02-.95.54-1.52 1.61 1.52-1.07 1.79-1.63 1.52-1.61zm-52.27 1c.45 0 1.03.23 1.8.79 1.4.78 4.3-2.43 5.5 1.55-2.4 4.67 1.63 2.06-.35-1.74 2.36-.1 1.6 4.26 3.53 5.42 2.65 4.68-2.67 5.7-6.04 5.16-.24-.98-.3-.77-2.78.63l-.5.18c.94-.79.91-6.85-1.6-4.6.48-2.46-2.03-2.55-2.76-3.73-4.52.76-3.76.49.08-1.28 1.54.23 1.52-2.42 3.12-2.38zm52.22.83q-.1-.01-.23.24c.44.17.4-.24.23-.24zm-2.83.27c-.12 0-.48.09-1.18.4.76 0 1.4-.38 1.18-.4zm-49.68.14c-.05 0 .04.07.38.26.6.26.84.34.86.33 0-.05-1.12-.59-1.24-.6zm52.19.19q-.06-.01-.5.22c-.63.7.68-.23.5-.23zm-5.23.55q-.13-.02-.7.05c.2.12.74.02.77-.03q0-.02-.07-.03zm-1 1.21c.2 0 .46.1.76.4-1.72 2.36-1.77-.37-.76-.4zm4.08.5c-.34 0 .04.29 1.87.72l.57.21a6 6 0 0 0-2.44-.93zm-47.87.83q-.02 0-.07.08.03.2.05.2c.05 0 .08-.29.02-.28zm46.64 0-.49.06c.17.13.63.02.62-.03q-.01-.03-.13-.02zm-2.01.43q-.05 0-.15.13c.14.4.28-.14.15-.13zm8.66.12q-.02-.01-.34.28-.2.26-.18.27c.03.02.54-.51.53-.55zm-48.54.51q-.13-.01-.55.26c.54-.12.67-.26.55-.26zm-13.26.19c-.08 0-.35.14-.83.56.67-.24.95-.56.83-.56zm55.05.11-.24.05c.06.21.43-.05.24-.05zm-.7.14q-.05 0-.15.14c.14.4.28-.15.15-.14zm.94.26q-.25 0-.49.05c.17.13.63.02.62-.03q0-.03-.13-.02zm-47.25.1c-.05 0-.06.13.11.5.14-.24-.03-.51-.1-.5zm2.85.25q-.06-.01-.18.13c.22.55.37-.12.18-.13zm-12.65.11c-.1 0-.67.25-1.63.85 1.25-.5 1.77-.85 1.63-.85zm62.78.35a3.68 3.68 0 0 0 .78 1.17 8 8 0 0 0-.78-1.17zm.68.09q-.13-.01-.17.13c.6.1.37-.13.17-.13zm-50.66.01q-.1-.02-.19.38c.3-.1.28-.38.19-.38zm46.22.39a1 1 0 0 0-.22.05c.28.4.5-.06.22-.05zm-61.09.05q-.15 0-.56.14c.6.16.9-.15.56-.14zm-3.34.1c.08 0 0 .13-.38.45-1.83.72.11-.47.38-.45zm-3.26.58c.11 0 .08.07-.25.3-2.03.6-.12-.29.25-.3zm1.05.12q.08 0 .33.06c-.11.18-.53-.06-.33-.06zm.97.26q.11 0 .18.07c-.86.4-.49-.05-.18-.07zm-1.4.15q.17-.01.3.14c-1.08.41-.69-.13-.3-.14zm66.67.13q.05 0 .11.15c-.27.37-.22-.14-.1-.15zm-68.74.29c.02.52-1.64 1.42 0 0zm11.42.16q-.01 0 .08.27.22.34.24.34c.02-.05-.27-.61-.31-.61zm.41.98q-.03 0-.09.24c.07.7.17-.26.1-.24zm9.14.15c-.05 0-.17.1-.38.4.21.25.5-.4.38-.4zm40.9.32c-.07 0-.36.18-.85.62.67-.33.96-.63.85-.62zm-63.87.01q.1-.01.11.19c-2.26 2.62-.58-.17-.11-.19zm73.03.03q-.03.02 0 .28c.1.17.16.21.17.2.04-.05-.12-.49-.17-.48zm-.18.84c-.05 0-.05.1.1.37.4.08.01-.38-.1-.37zm-6.54.4c-.06.02-.23.24-.43.8.43-.47.52-.8.43-.8zm6.63.76q-.03 0-.06.24.03.23.05.24h.01a1 1 0 0 0 0-.48zm-73.8.2q-.1-.02-.17.38c.3-.11.27-.38.18-.38zm69.84.5c-.03.01-.07.12-.12.42.11.9.2-.43.12-.41zm-6.75.35q-.03.02.02.17.15.2.18.19c.02-.05-.16-.36-.2-.36zm10.84.22q-.02 0-.06.18.03.18.06.17c.04-.02.04-.32 0-.35zm-4.24.36q-.02 0-.18.18-.04.15-.02.17c.05.01.23-.31.21-.35zm-66.28.01q-.07-.01-.17.22c.33.37.32-.22.17-.22zm64.1.4q-.05-.01.02.26c.48.64.08-.27-.02-.26zm2.06.3c-.15 0-.5.19-.99.73.97-.3 1.23-.75 1-.74zm4.43.03q-.03.01.27.4a2 2 0 0 0 .4.34c.03-.03-.63-.75-.67-.74zm-13.71.15q-.06-.01.25.26c.36.22.5.3.51.28.02-.04-.7-.56-.77-.54zm12.28.06c-.03 0-.17.2-.48.75.15.07.53-.7.49-.75zm.52.18q-.05-.01-.38.17c-.26.4.44-.11.4-.17zm-14.35.12q-.07 0-.3.16c.15.23.46-.17.3-.16zm15.26.15c-.01.01.04.12.23.4q.3.29.31.26c.04-.04-.48-.67-.54-.66zm-6.9.27q-.03 0-.07.09.02.2.05.2c.05-.01.08-.3.02-.29zm-2.2.96q-.24 0-.48.05c.16.13.62.02.61-.03q0-.03-.13-.02zm7.04.52 1.46.48c0-.03-1.63-.55-1.46-.48zm-3.45.07h-.06c-.02.03.25.11 1.1.27-.03-.15-.8-.27-1.04-.27zm-.33.5q-.05-.01-.15.13c.14.4.28-.14.15-.14zm-6 .75q.07 0 .16.04c-.23.56-.43-.04-.15-.04zm-4.32.06q-.03 0-.26.11-.09.1-.06.12c.03.03.34-.19.34-.23zM83.18 152.09c-.22 0-.18-.01-.55.2a4.7 4.7 0 0 0-2.16 2.35zm-5.6-.44c-.22 0-.18-.01-.55.2-.98.57-2.4 2.21-2.16 2.35.78.44 2.71-2.55 2.71-2.55z" style="fill:#000;stroke:#000;stroke-width:1.306;stroke-dasharray:none;stroke-opacity:1"/></svg>