<svg xmlns="http://www.w3.org/2000/svg" xml:space="preserve" width="210mm" height="297mm" viewBox="0 0 210 297"><path d="M85.5 140.525c-.069.004-.434.31-.962.738.03.02.06.064.088.144-.253.257-.299.124-.259-.007-1.066.857-2.672 2.088-3.909 2.462 1.643-3.566-.403-.51-2.346 1.28 2.849-2.097 2.331.018 5.49-2.888-.305 1.12-2.141 2.132 1.514.663 1.1-.063 1.879-.149 2.394-.24-.658.873-.482.56-1.069 1.844l1.205-1.873c.88-.175.842-.364.29-.45l.621-.967c-.276.393-.5.705-.684.956-.826-.107-2.609-.002-4.235.637 1.464-1.708 1.96-2.305 1.862-2.299zm-7.388 4.617q-.423.31-.958.76c.305-.192.63-.458.958-.76zm6.255-3.742.171-.137c-.071-.047-.142.045-.17.137zm7.122-.077c-3.764.928-2.18 1.385-.398 1.828-.651.416-1.16.916-1.982 1.738-.038.038.015.107.023.16l2.357-1.794c.76.19 1.5.38 1.785.613 1.008-.056 2.002-.26 3.004-.38l-.017.027.018-.026q.214-.026.43-.046l-.38-.025.049-.07c.274-.395.536-.798.805-1.196l-.857 1.266c-1.081-.072-3.01-.208-4.442-.464l.722-.55c-.43.173-.783.333-1.093.5-1.503-.313-2.184-.8-.024-1.58zm4.772 2.192q-.35.497-.58.815c-.37-.133-.685-.273-.906-.418.009.237.293.465.71.683-.7.94-.452.475-.948 1.467l.983-1.452c1.432.736 4.345 1.36 3.27 1.883l.678.27c1.533-.74-1.2-.388 1.496-1.342-.687-.036-3.557-.48-5.26-1.084zm4.703 1.906q.133.007.15-.007v-.004q-.003-.01-.046-.025zm-23.146-1.713c-.048.005-.233.29-.65 1.085-.385 1.615.8-1.102.65-1.085zm4.26.376c-.021.004-.088.08-.228.28-.067.184-.083.261-.07.274.04.029.328-.504.305-.551l-.002-.002zm-2.993 1.193c-.017.004-.04.028-.071.084.015.14.035.193.054.195.045.002.08-.293.017-.28zm4.37.423c-.23-.014-1.038.537-1.89 1.795 1.719-1.126 2.133-1.78 1.89-1.795zm8.99.569c-.228 0-.18-.01-.552.207-.984.57-1.728 1.277-2.163 2.346zm-15.35.083c-.017.002-.041.026-.074.085.015.143.036.194.054.194.045-.002.08-.284.02-.279zm10.427.216c-.252.126-.555.57-.736.782-.024.027-.403.44-.437.483-.066.08-.12.17-.184.253-.12.154-.25.279-.276.483zm-10.795.115c-3.866-.032-5.636 8.512-10.017 9.875.798.304.986.814-.032 1.781-1.998.89-6.267-1.457-7.741-3.422-.442.649 5.778 4.608 6.415 6.892q.744-.019 1.287.119c-1.286-.989-3.464-3.297-4.189-3.986 3.804.603 2.879 2.312 5.08 3.838.109.321.113.502.035.57 2.397 1.801-.478 7.658-.324 11.11-.118 2.116.408 2.982 1.164 3.066-2.556-3.647.798-7.092.015-8.724.283-3.924 6.246-5.445 2.596-8.06 1.201 2.05-1.459 1.873-2.774.542 1.119 1.839-.042 3.073-1.48-.609 2.874-4.006 6.108-11.489 9.965-12.992zm-8.322 29.843.073.103.087-.096q-.082.003-.16-.007zm.16.007c1.182-.033 2.818-1.76 3.5-3.588.424 1.08 3.274 6.003 3.527 6.643.947 4.013 1.069-.1 1.852 2.856.84 1.947-.82-2.696.95-1.162-1.436-3.76-.113.651-2.26-1.526-.253-2.265-3.884-5.707-.97-5.095.612-.362 3.669-.041 6.025-.426-.943.022-.658-1.165-.194-1.869-.688.103-1.402.374-2.801.821-.309.24-.627.428-.947.574.4-.131.72-.127.153.364-1.15.225-.936-.015-.514-.219-3.129 1.108-6.145-1.746-1.927-2.607-.602-2.073-4.732 3.39-6.394 5.234zm12.43-4.167c.29-.043.575-.056.905-.04-.103-.747-.555-.49-.905.04zm.905-.04c.048.35.02.921-.132 1.79l-.065.02c.687-.152 1.287-.382 1.705-.73 4.311 1.833.4-1.935.72-.765-1.014-.183-1.682-.29-2.228-.315zm-.197 1.81q-.251.056-.514.1.212-.004.514-.1zM67.565 162.35a2.5 2.5 0 0 0-.926-.422c.455.35.799.535.926.422zm-8.628-7.433.015-.018a2 2 0 0 1-.113-.118q.046.067.098.136zm.015-.018c.723.675 2.307.92 3.908 1.088a10 10 0 0 1-.631-.372c-2.143-.733-3.085-.91-3.277-.716zm3.908 1.088c1.496.803 2.754.912 3.85.57-.84-.319-2.352-.411-3.85-.57zm64.31-9.128c-1.294.035-2.72.465-3.145 1.398.365-2.368-1.324 1.637-2.304 2.426-4.32-1.585-9.369.15-12.89 2.665-1.04.512-9.467 3.508-7.908 6.89-3.241 2.164-.217 4.495 2.041 1.424 5.653-.045.425-.954-2.15.592 1.212-.873.586-4.175 2.438-3.575-.11-.602.945-.932 1.656-.694-.643-.967-1.247-1.977-.112-2.19 1.683.9 2.94-1.24 4.003-1.093-1.549-2.5 6.061-.933 3.93-1.891-1.92-1.698 5.048-.69 3.443-1.972 4.563.5 1.275-1.075 4.841.11 2.76-.623 1.38.364.019 1.776 3.413.226 2.22-.291 2.526-3.053-1.6-.3 3.725-3.237 3.702-.216 3.85-1.621 2.066-2.656-.09-2.597zm-6.138 5.866-.036-.003-.002.042zm-.038.04c-.674.703-1.334 1.508-1.472 2.27-2.11-.278-5.15-.563-4.6 2.929-4.333-.007-2.996 3.273-4.402 2.102-2.01 3.184-6.852 2.855-8.456 6.832-3.406 3.28-5.158-3.903-5.203-1.759-.465.233-.953 7.186.338 4.463-1.387-2.3 2.736-3.559 3.705.302.7-2.342 2.924-4.608 3.99-4.294-.403-1.748 2.044 1.35 1.396-.512 4.612-1.285 5.477 1.365 4.588 3.49-2.919 4.001 1.114-.293.488-1.072 2.053 1.967-.407-7.05-4.021-2.871.047-.33.14-.597.27-.807-4.045 1.388.155-1.575 3.105-2.581.964-2.776 4.496-1.594 4.594-4.3 1.238-4.033 5.372.745 5.68-4.192zm-13.38 11.073q.517-.179 1.224-.456.2-.123.38-.225c-.673-.044-1.264.127-1.604.68zm1.604-.681c1.604.104 3.671 1.427 3.9 1.69 3.686-.59 6.668 2.37 10.674 2.335-3.174-.907-4.76-2.882-8.223-2.32-3.94-.11-3.05-3.552-6.35-1.705zm14.574 4.025q.262.075.538.14-.032-.106.017-.164a8 8 0 0 1-.555.024zm.538.14c.134.437 1.296 1.481 2.942 3.051-1.67-.915-5.077-2.3-5.154-1.956-1.13.317-1.718.91-2.994.226 1.165 1.058-3.19 2.25-3.066 5.76.587 8.334-.535-2.49 2.831-4.108 3.63-.88 3.055-.802 5.44-.647 1.003.277 5.715 3.35 5.806 7.915.309-2.256 1.43.445 2.708 2.974 3.135 3.308-1.581 12.767-3.874 7.841 2.892-.248-1.684-2.52 1.441-4.66-1.805-.345-2.446 2.232-1.667 5.655.546 4.939-1.897 11.435-.64 15.387 1.389 4.478-1.894 5.272-4.77 7.65 4.074-2.545-2 4.38-4.762 6.023.517-2.769-4.322-5.585-3.909-4.862 2.95 1.669 5.52 6.85 1.494 7.287-2.107-5.624.67 1.154-2.012 1.852l.022.024c-.156.377-.273.184-.272.022q-.267.03-.6-.016c-.845 1.218-3.438 1.077-3.159 3.156 1.408-1.669 2.997-2.37 2.615.434 2.903-1.67-1.932.352 1.2-3 .602 3.26 1.23-4.304 1.934.976l.012.085c-.054-1.516.101-3.218 1.077-2.565.99 4.303.118 1.223.39-1.101 2.039-1.467 3.665-4.78 4.834-3.59.168-1.065 1.858-4.145 3.771-5.654 3.067-2.878 1.236 1.602 2.15-.157-.278 1.155-.752 2.218-1.086 2.871.22-.358.548-.872 1.01-1.57.608-3.457 4.05-3.954 3.77-.84a8.4 8.4 0 0 0 .102-2.961c3.408.143.872.523 2.724-1.491 2.953 3.381 4.5 8.657 1.884 1.638 2.053 1.883-2.867-3.462.28-2.361-.435-1.105 1.738.414 2.568 2.595-.206-1.08-.054-1.56.875-.649 1.878 3.763 1.526 1.578 3.886 1.855 1.54-.014-1.179-5.54-4.576-5.41-1.212-.532-2.058-1.514-2.495-2.674-1.58.195-.817-1.29-.28-1.071a5.66 5.66 0 0 1 .975-4.116c2.82 2.135 1.477-1.138.009-3.38-2.916-4.951-1.524-10.805-2.868-13.892 2.333-.912-.318-1.697-3.22-4.537-.37-1.166-2.063-2.795-3.513-4.256.058-.074-.108-.227-.419-.425-1.572-1.612-2.636-2.93-.912-3.036a11.6 11.6 0 0 1-2.502-.292zm12.45 33.934q.086.553.28 1.071l.096-.013c-.016-.68-.181-.98-.375-1.058zm2.59 7.949c.064.337.163.732.284 1.161l.003-.005a4.7 4.7 0 0 0-.287-1.157zm.284 1.161c-1.393 2.288 2.32 4.453 1.631 8.97-1.353 1.71.043 7.021 1.852 11.607-.998-2.016-3.631 1.79-2.036 5.983-.232 8.528-2.144-7.15-3.237-.345-.477 2.945-2.062-5.817-3.202-4.126-1.575.043-1.48 4.079-2.78-.256-1.44-5.338-4.357 7.25-6.159 1.879-1.086-5.256-4.962-.832-4.996 2.695-.198.92-1.308-2.535-1.58 1.993-.339-1.864-3.898-3.588-4.72 2.394-.13-4.907-1.668 1.909-2.181 3.317-.551 5.895-.722-2.201-1.861-1.434.431-2.418-3.066-2.955-1.009-1.732.53 3.69 1.17 1.486 1.888 4.514.839 7.656 1.485-8.87 3.179-3.409.225-4.133 2.015-2.544 3.015-.734-.392-1.335-.698-3.556-.404-3.697.142 3.599.4-.684.571 1.997.028-1.77 1.621-1.624.634 1.994-.158 1.102-.455.77-.728-.058.69 5.817 1.315-5.454 3.53-2.414 1.236 3.813 1.699-2.088 1.881 2.107-.67 3.301.213 5.693 1.565 7.865-.712-1.382-.888-3.07-.163-4.975-1.436 2.414-1.186-5.991-1.341-8.992.11-.685.225-1.196.343-1.567-.668.35.56-3.166.027-.082.392-1.15.831-.802 1.366-.142.144-.712.974-1.79.36.425l-.021.007c.246.315.51.643.799.89 1.622 2.695 1.044.454 3.472-1.51 2.62-4.967 3.614 6.342 4.587-.08 2.517 1.095 1.15 1.049 1.01 4.484-1.655 2.33-.456 13.594-.771 6.92.565 2.43 4.495 3.269 6.924 6.914 2.551 5.918-1.413 7.17-4.734 9.635-1.15.601-2.443-.489-2.944-1.636.089 5.267-8.581-11.164-2.337-3.657.944.373-2.776-2.785-.232-2.651-2.19-.193-4.526-1.356-5.862-3.209 1.74 2.537 4.005 4.858 5.088 8.074-.7 3.907 6.196 4.65 3.294 8.526-.543 6.74 3.16-3.617.49 1.491.223-4.442.97-2.315 2.617.2.81 2.454 4.02 1.022 6.58.056-.352.012-.476-.052-.449-.158-.808.662-1.8 1.118-2.858 1.013-1.325.367-3.706-.241-3.022-1.615-2.343.77 8.044-3.48 5.837-2.667.055-1.518 2.43-1.608 1.014-.189 1.72-.895 1.116 1.418-.515 3.045 1.15-.726 3.837-1.659.58.355 1.45-.515 2.585-.745 2.765.223.192-.077.418-.107.664-.1-2.502-1.414-2.6-6.665-1.409-6.612-3.782-2.056-1.061-7.323-4.128-9.99-3.284-3.753-10.43-8.793-5.689-13.914 1.96 4.005 1.587-.401 2.705-1.166 1.434 2.137 1.197 1.352 2.762 4.511.49-2.978-2.169-14.081 3.092-8.5-3.42-4.854-3.08-10.946-2.876-16.42-.095-.834-1.267-3.878-1.878-6.046zm7.421 58.138a2.7 2.7 0 0 0 1.451.345c-.498-.198-1.008-.332-1.45-.345zm1.451.345c1.998.794 3.827 2.62.542 1.864-.07-1.47-1.02-1.304-2.1-.654.934.343 3.608 2.788 2.763 1.345 2.6.288 1.104-2.078-.547-2.642q-.345.077-.658.087zm-1.558 1.21c-.222-.082-.345-.045-.3.19q.15-.1.3-.19zm-.3.19c-1.18.784-2.432 2.004-2.828 2.235-.026.197-.333.353-.802.467a8.5 8.5 0 0 1 1.82-.173c1.593-4.565 4.239 2.527 2.769 3.482.4 1.266.511 1.702.538 1.695.04-.027-.147-1.26.36-1.94.636.429 1.082.89 1.381 1.364-.605-1.618-1.47-3.273-2.025-4.985-.804-1.181-1.155-1.835-1.213-2.145zm3.238 7.13a13 13 0 0 1 .51 1.66 3.25 3.25 0 0 0-.51-1.66zm.51 1.66c.064 2.111-1.804 4.04-2.027 4.099-1 .43.118 5.113-1.955 6.339-1.178-2.052-.55 2.447-3.062 2.763.237-.517.384-.901.461-1.18-.242.153-.438.24-.594.274.018.13-.024.406-.162.895-1.251 1.281-.486-.424-.06-.88-.246-.033-.318-.255-.278-.483-.843.526-1.65 1.041-.474-1.292 2.21-4.541-1.4-.843-.973 2.234-2.422 1.933-1.336.675-1.375-.523-.35.229-.618.335-.819.358a10 10 0 0 1-.304 1.04c-.273.307-.467.491-.598.582.931.22 1.932.196 3.186-.963 2.336 2.09 7.45-3.543 6.975-7.283 2.223-1.966 2.514-3.946 2.059-5.98zm-12.22 14.226a6 6 0 0 1-.227-.058c-.01.137.054.179.227.058zm-.227-.058c.022-.323.447-1.172.778-1.644-.46-.38.292-1.85 1.088-.734-.107-.295-.331-.557-.756-.727-4.238 5.879 2.787-6.671-.473-2.225-1.098-1.21-.293 3.45-2.775 4.847.737-.017 1.42.285 2.138.483zm-2.138-.483q-.201.004-.408.043l.337-.004zm-.408.043c-.645.007-.94 0-1.017-.025q-.236.293-.594.644l-.12.252a3 3 0 0 1-.256-.505q.047.419-.018.965c.742-.843 1.396-1.214 2.005-1.331zm-1.987.366a2.5 2.5 0 0 0-.126-.568q.01.262.126.568zm-.126-.568c-.083-1.712 2.783-1.963 1.14.122.386-.144 2.302-.49 1.209-1.154-.029-.425-.04-.745-.042-.982-.145.39-.53.74-1.447.192.174-1.325.11-1.615-.975 1.164.366-4.378 2.929-5.38 4.394-7.87-.158-.39-2.729 2.847-3.635 3.886-.167-2.99-.595 2.612-3.053 3.544 1.08-.122 2.052.104 2.41 1.098zm-2.409-1.098q-.361.043-.73.13c.262.002.504-.044.73-.13zm-.73.13c-.468-.007-.997-.173-1.593-.557-.513.58-.98 1.138-1.173 1.568-.739.851.595-1.812.668-2.06-1.616 3.043-1.182-.53-.068-2.079-2.052 1.638 1.694-3.686 4.28-3.895-.513-.134 3.817-3.025 4.658-6.376 1.3-.53 5.395-1.887 6.209 2.45-.592-3.607 1.258-1.4 2.328-.221a.3.3 0 0 0-.066.123c.161.221.211.134.201.024.583.63.851.807.155-.846-.868-.365-4.366-3.172-7.96-2.171-3.898 2.713-2.368 1.14-.296-1.422-.74-.326.471-1.311 2.282-2.131.294-.068.61-.158.625-.184v-.004h-.001c-.013-.007-.086-.002-.248.024.794-.335 1.68-.63 2.553-.824-2.205.396-6.765.042-5.13-1.23-1.045-1.05 2.149-.067 1.556-.79-2.634-2.264-1.926.489-3.046 2.567 1.012-.609 2.272-.879.269.569 1.76-.285-.568 3.253-1.55 5.517-.761 5.435-10.409 6.213-7.846 13.327.295-.264 1.742-1.042 3.193-1.38zm6.203-17.465c-.238.038-.549.146-.948.335.285-.27.504-.579.68-.904-.513.308-.961.704-.89 1.007a17 17 0 0 0-1.213.693 3.5 3.5 0 0 0 1.236-.632.3.3 0 0 0 .04.061l.782-.339zm-4.09 10.442q.046.012.148-.006-.073 0-.148.006zm-4.279 3.895q.202-.16.481-.416l-.132.024a2.3 2.3 0 0 0-.349.392zm.481-.416c1.026-.184 1.591-.153 1.84.026-.228-.683-.702-1.142-.89-.952-.373.38-.688.686-.95.926zm1.84.026c.055.168.096.349.114.537.075-.232.052-.417-.115-.537zm.114.537c-.198.612-1.083 1.543-1.862 2.424 1.564-.574 1.944-1.573 1.862-2.424zm5.177 1.935c.1-.267.086-.553.056-.58h-.003l-.001-.001h-.005v.001c-.023.017-.05.177-.048.58zm-1.167 2.136q-.061.023-.065.038v.007h.001q.005.007.02.012l.044-.056zm5.385-1.858c.053.146.077.3.082.456l.133-.09a2.7 2.7 0 0 0-.215-.366zm-1.088.733c.08.066.195.1.352.081.125-.601-.082-.466-.352-.08zm3.992-.696c.272-.17.549-.34.763-.416-.37-.306-.701.062-.763.416zm.763-.416c.117.097.238.26.355.515.129-.541-.051-.623-.355-.515zm.355.515-.024.095.052-.034q-.013-.031-.028-.061zm-.84.384a.7.7 0 0 0 .222-.015c-.02-.14-.109-.107-.223.015zm.629-22.968q-.287.102-.586.216a4 4 0 0 0 .264-.02zm-.58-.355c-.25.158-.428.307-.456.413q.24-.197.456-.413zm.515-3.045c-.393.204-.906.576-1.557 1.16.748-.46 1.244-.847 1.557-1.16zm-18.59-14.731c-.173-.252-.322-.514-.482-.77.14.27.304.524.481.77zm.087-16.1c-.117-.15-.23-.298-.34-.432-.06.299 0 .533.34.431zm-1.705-.29-.027.082.014-.008zm-5.842 8.058-.015-.128-.058-.108q.037.124.073.236zm14.28-30.133c-.148.711-.373 1.417-.628 2.218.38-.877.574-1.615.629-2.218zm-9.614 5.35c-.048.302.026.443.251.341a1.7 1.7 0 0 0-.251-.34zm-6.301 7.256c.037 1.052.175 2.015.208 2.04h.003c.02-.03-.023-.595-.21-2.04zm-5.76 1.505-.038.045.051.045zm-.038.045a6 6 0 0 1-.738-.852q.052.187.108.402c-.87 1.952-1.217-.95-.962-1.734-1.687-2.968-2.977-7.371.566-6.383-1.638-.985-.315-1.992 1.407-1.944-1.202-.463-1.946-1.125-.124-2.549 5.986-.367.01.385 2.758-2.861.377-3.143 7.945-6.958 6.52-6.65-.482-1.785-.968-11.917-.956-16.929.967.1.386-.273-.6-1.485.318 1.079-3.273-1.363-.681.536 1.374 3.654-1.399 1.643-2.452-.919.927 3.366 4.213 5.291 3.408 7.43-1.074 2.612 4.151 13.687-3.314 12.582-7.994.711 4.73-2.72 1.104-1.954-.887-.93-2.756 1.295-3.385.475-.134.184-4.582 3.758-7.981 2.775q.178.145.357.399c-2.007.602-1.764-.62-1-.648a4 4 0 0 1-.426-.246c-.246.09-.697.146-1.422.156-4.014 1.445-5.149-3.235-4.673-5.733-2.518 3.921 3.169 8.236-.966 11.554-.582-2.766-.923 3.617-3.735 3.96-1.3 1.159-.782-3.483-2.11-3.839 1.662 2.507.75 7.475-.555 5.258-2.34-6.38.8 3.894-1.627 1.117-.723 1.341-.752.27-.92-1.368-1.717-2.225.426.626-.748 3.491l-.372.58-.325.202c1.262-2.296-1.264-4.03-2.998-5.28.395.538.763 1.231 1.048 1.915-.208-1.76 1.768.083 1.546 3.032-.859.893-1.232.827-.734-.592q-.142-.316-.258-.598c.09.647-.045 1.01-.522.74-3.836-6.373 1.793 2.395-.463 2.358-.281.93-.625-5.38-3.042-5.957-3.138-.935-1.856-.93-.403-.895.348.274.482.11.395.009 1.26.028 2.36.015.495-.64.221-.288.47-.388.732-.348-.43-.476-.347-.841.785-1.105 6.02.432-2.289.088.724-1.282 2.572.463 2.188.696 2.495.544-1.3-.66-2.424-1.503-1.284-1.887-.681-.236 1.185-1.93 3.818-.623a2.7 2.7 0 0 1 1.083.287c-2.091-1.393-4.637-.532-3.435-2.453-.31.373-.615.75-.906 1.137-2.271 1.876-4.509 7.782-8.545 5.747-3.257-3.241-6.035.487-8.337-2.442-3.938-4.529-10.6-7.873-12.529-13.297-.116-4.565 4.318-9.42 6.931-13.312a1.22 1.22 0 0 0-.829-.322c.115.027-.133.354-.92 1.108 1.76-1.297-.485 1.93-2.286 4.355-4.57 6.555 3.04-5.055 1.62-2.98-2.75 3.879-4.75 5.255-5.099 8.613-.55 2.73-1.57.384-2.72-.357-.074-.644.403-1.557.947-2.35l-.385.418c-3.216 3.598-.948-2.27 1.119-2.634-1.23.067 6.879-6.068 7.686-6.174-2.847-.009-8.85 7.131-12.028 9.09-3.332-.855-6.338 2.414-6.839 5.635.307-1.178 3.391-5.247 4.11-5.372 1.386 2.965-.42-1.09 1.492.825-.157 2.129-2.592 1.03-4.262 4.1-.989.811-1.368.913-1.367.609-.15 1.17.026 2.324.656 3.263-5.057 8.909-8.503 19.155-7.288 29.51a1.16 1.16 0 0 0 .494-.275c-.825-3.491-.455-11.257 1.745-15.433-1.684-.242 2.45-7.2 2.93-7.632-1.998.382 4.048-8.22 3.79-5.715 1.003-.856.59.552-1.112 3.038-1.154 1.802-4.84 10.614-2.814 6.54 1.238-1.97 2.746-8.078 5.082-9.168.162.268.184.111.154-.064.96-.351 2.058.151 3.33 2.113-1.023-.57-1.332-.783-1.352-.774h-.001v.001c-.002.05 1.062.955-.112 1.7 1.458-.822.962-.424-.446 1.396-.887-.878-1.609 4.125-2.885 2.596.012 3.831-2.326 1.794-2.496 6.23-2.616 4.892-4.206 9.783-5.653 15.01 1.75-1.958 2.646-9.609 4.79-12.53 2.75-4.57 4.695-11.36 9.785-13.319 5.12 4.025 10.114 8.212 14.93 12.596-4.059 4.295 1.317 9.236 5.196 10.734 1.323 1.177 2.607 1.161 3.828.92a2 2 0 0 1-.267-.047c-4.605-.692 2.487-2.142 3.03-5.107.57-.017 1.8-.54.355.742 1.485-.838.147 3-1.873 4.121 1.613-.385 3.087-.562 4.36 1.98-1.589 1.52-1.352 2.492-.659 3.32-.22-.523.042-1.405 1.154-2.846.118 1.12 5.943-2.313 6.497-4.312-.503.258-4.756-.775-1.256-1.892q.385-.173.775-.279a8 8 0 0 0-.354.308c-.186.22-.259.317-.26.338v.004h.002c.05-.003.572-.53.67-.665 3.7-.973 7.652 2.11 10.68-.75q.105.053.2.114c-.265-.51-.314-.99-.021-1.425 2.05-.78 4.163.534 5.36 2.282-.267-.775-.334-1.898.544.204-.058.256-.134.346-.214.33.797 1.442.954 3.054-.02 4.004l-.213.202-.214-.246c-.838-1.254-2.816-2.667-4.143-3.994.665 1.594.353 3.513 1.384 2.235 4.412 1.893-2.022 4.7-2.508 8.048-2.109.852-3.983 4.11-6.707 5.052 1.91-.395 2.487 2.272 2.554 2.825.361.642 3.128 4.203 4.615 7.726-.12 5.636-3.414 3.428-5.482 4.997 1.204-.151 2.476-.17 2.742.312.071-.223 5.934-6.456 2.974-.593-1.006.774.33.837-1.183 1.482-1.39 2.559 2.305-1.04 4.978 3.11.307.903-.883-.692-1.516-.11 2.117-2.52-4.313-.382-5.309-1.467.784-1.907-.464.457-2.619.952 3.845-.392 7.986-1.068 3.424 1.838-7.304 2.335 6.147.108 1.43 2.532-3.792 1.33-3.234 1.342-1.675 1.37.196-.225.747-.504 1.33-.671-.783.092 3.074-1.789.8-.226q-.243.082-.413.133c.787-.15 1.5-.029 1.332.773l-.56.108-.183.033c1.26.202 2.305.695 1.978 1.937.932.94 1.481 1.473 1.75 1.727-.636-.565-2.59-2.187-3.635-2.036-3.568 1.782-7.38-1.15-10.551 1.87-3.57.478-2.272.25-.561-.389a4.3 4.3 0 0 1-.76-.098c-5.072 1.085-.514 1.696 1.947.711-2.837 2.1-5.324 4.296-8.747 5.75-4.625-.12-10.637 1.827-10.045 7.6q.102-.12.203-.212c-.054-.655.137-2.115.205-1.605 2.275-3.334 2.83-.405.746 1.266.779.13 1.477 1.144 2.135 1.607-.463-.592 1.355-4.109 1.933-3.487-.257-.597 1.625-1.326 2.406-.995-.117-.603.012-1.14.494-1.398-1.792.577-3.481 1.215-4.572 3.292-3.59 2.692.794-1.778-1.48-2.179.107-.837 1.076-1.333 2.232-1.661q.028.047.095.139c.219.161.315.217.339.213l.001-.001h.001v-.001h.001l.001-.001v-.003c.007-.038-.228-.268-.365-.368 2.272-.627 5.205-.633 3.786-1.315a4.8 4.8 0 0 0 1.58-.14 3 3 0 0 0-.157.14c-.124.553.31-.016.341-.19 3.865-1.096 7.146-6.065 9.604-2.162.784-3.747 1.408 4.063 3.01 1.21 2.565 3.12-.656 5.459-3.31 4.833 1.117-1.09-2.347 1.62-4.612 2.34q.248.037.5.103c2.7-1.31 5.26-1.942 7.884-2.316l-.04.015a.3.3 0 0 0 .139-.03c2.518-.352 5.097-.472 7.917-.733 7.411-.423-3.658-11.505 2.499-8.998-1.273-.983-3.882-4.55-4.134-7.642-1.165-5.187 1.104-1.098 3.298-1.402 1.969-2.543-5.223-1.983-3.535-5.603 2.152-4.103-3.192-8.207-3.952-12.283.964 2.893 3.636 3.874 5.741 3.573-.34-.926-.54.45-2.344-1.19-1.407-1.705-6.186-5.234-4.69-4.82-.116-.488 1.08-2.508 2.698-2.067-.505-.521-.601-.852-.05-.876.054.062.083.085.095.083h.002v-.001h.001c.007-.01-.002-.042-.02-.083q.301 0 .83.11c.075-.315 1.01.544 2.21 1.706-2.076-3.08 5.566-8.03 4.963-2.05 2.169-7.265 1.46 10.408 3.176 2.476-.955.337-.945-.515-1.543-3.662-.4-6.168-1.43 2.04-1.68-2.502.064-5.506-4.854.175-1.724-4.089 2.528 1.916.301-.196 2.888-2.618.806 1.744 1.366.298 1.894.35.12-1.21.966-2.75 1.901-3.873zm-1.901 3.873c-.076.755.13 1.382.775 1.696-.267-1.288-.518-1.67-.775-1.696zm-7.974 12.094c.18.267.433.52.772.751zm.772.751c1.056 1.03 2.207 2.142 3.118 2.853-.253-.657-.762-1.383-1.595-2.158-.632-.194-1.134-.43-1.523-.695zm3.118 2.853v.002l.088.067zm0 .002c-1.735-1.313.479.844-.37 2.448.55-.615.754-1.453.37-2.448zm-.37 2.448c-.512.573-1.328.952-2.252 1.085q.03.084.065.197c1.262-.26 1.9-.739 2.188-1.282zm-6.588-6.992c.388.4 1.016.912 1.778 1.484-.618-.892-1.223-1.333-1.778-1.484zm-2.698 2.067c.023.098.098.134.233.078a3 3 0 0 0-.233-.078zm-9.283 41.326a4.9 4.9 0 0 0-1.487.016c.32.23.857.184 1.487-.016zm-1.487.016c-.168-.122-.276-.32-.307-.613-.758-1.01-1.076.19-4.226 1.815-4.027.573-4.652-1.6-.307-2.55-.15-.2-.28-.413-.387-.628-.072.227-.221.504-.468.84-1.295-.081-1.929-.29-2.147-.533.062.13.1.337.105.639.595-.023.388.274-1.577 2.723-.181.096-.316.124-.412.1.497.299.97.23 1.44-.836 2.978 2.063 5.416-.507 8.286-.958zm-9.726 1.793a2 2 0 0 1-.115-.076.2.2 0 0 0 .115.076zm1.884-3.462a.4.4 0 0 0-.066-.101.4.4 0 0 0 .066.1zm2.615-.307c.137-.427-.001-.673-.275-.79.05.257.144.526.275.79zm.219-2.187.435-.139a1.4 1.4 0 0 0-.435.14zm.435-.139c.397-.061.93-.006 1.62.213.303-.464 5.412-2.792 1.568-1.586-1.015.67-2.113 1.03-3.188 1.373zm1.62.213c-.045.066.01.094.205.068zm-9.023 4.2c-.304-.052-.62.032-.951.338.024.305.102.434.27.105q.38-.2.681-.444zm16.45-13.413c.888.027 1.444-.31 1.807-.842-.516.325-1.188.61-1.806.842zm1.807-.842c.375-.236.667-.494.795-.768.071-2.582 2.354-.872 1.07-3.192.143.088.497-.237-.038-.069a17 17 0 0 0-.514-.842c5.151 1.104-2.48-1.073 1.899-.524-3.198-1.336-1.854 3.402-3.212 5.395zm9.213-2.267c-.776-.124-1.634-.139-2.306-.15-.282.322.168.534 2.306.15zm-5.485-5.89q-.45.046-.888.085c.31.013.607-.02.888-.085zm-.888.085a3 3 0 0 1-.27-.023l.076.039zm-.27-.023c-.51-.26-.873-.36-1.127-.35.39.195.766.304 1.128.35zm-1.127-.35a4.7 4.7 0 0 1-.792-.506c3.548-.013.777-.24-1.022-1.406.326 1.054-.095 2.465-.438 3.466.727-.946 2.323-2.475.459.133-.329.25-.537.38-.653.425-.324.936-.307 1.09 1.376-.77 2.193 3.103-.512-1.278 1.07-1.342zm-2.446 2.112c.056-.164.124-.353.194-.558-.284.37-.435.65-.194.558zm.632-4.024c-.16-.518-.5-.95-1.118-1.205.193.484.618.88 1.118 1.205zm-1.118-1.205c-.185-.464-.157-1.01.222-1.649 3.678 3.84-.713-1.275-1.2-4.403 2.472.073-2.87-2.922-3.683-5.837-.48-4.358 2.163-4.948 4.732-4.274a1 1 0 0 1-.1-.205c2.661-1.196 3.012-1.402-.713-.62-5.527-.507 2.418-3.29-.48-2.683-1.207.856-2.169.974-2.83.72 1.844 1.616-1.577 4.328-.862 7.095 1.244 3.663 6.64 7.562 4.252 11.672q.374.063.662.184zm-4.052-18.952a2.8 2.8 0 0 0-.574-.38c.154.161.346.293.574.38zm-.574-.38c-.778-.81-.598-2.358.823-2.734-1.108.163-2.837.428-3.674-.035.758.734 1.698 1.407 1.72 2.348.456.125.829.267 1.13.421zm-2.851-2.77a6 6 0 0 1-.416-.439c.08.191.225.334.416.44zm3.674.036c.24-.035.45-.066.616-.083a2.6 2.6 0 0 0-.616.083zm.616-.083a3 3 0 0 1 .39.013c-.04-.036-.18-.035-.39-.013zm3.258 5.986c.281.457.924.82 1.415.565q.096.01.19.016a10 10 0 0 0-1.605-.58zm1.605.581q.315.145.608.303c.284-.196.548-.338.792-.434a4.5 4.5 0 0 1-1.4.131zm1.4-.13q.197-.051.387-.117a2.4 2.4 0 0 0-.387.116zm2.074 15.431c-2.08.261-3.962.92-.115.093q.057-.049.115-.093zm.867-12.723a1 1 0 0 1-.036-.073 1 1 0 0 0 .038.171l.001.001h.001a.4.4 0 0 0-.005-.099zm5.277-18.16c-.222-.533-.553-1.029-1.078-1.357.227.434.612.89 1.078 1.357zm4.59.034a7 7 0 0 0-.33-.534c.096.278.217.51.33.534zm-16.126 1.431c.05-.026.063-.065.027-.118a1 1 0 0 1-.027.118zm-11.352 1.859c-.406.097-.822.207-1.245.29.43.044.851-.071 1.245-.29zm-39.774 1.89a2 2 0 0 1-.16.161q.027.114.055.22zm4.514-22.903.045-.01a.02.02 0 0 0-.005-.01q-.01-.007-.04.02zm1.464-9.434c.007-.054.019-.108.027-.162a.7.7 0 0 0-.027.162zM61.983 185.5zm-8.42 8.389c1.065-1.165 1.43-1.639 1.413-1.673-.043-.026-.775.741-1.413 1.673zm32.673 14.1c.353-.425.713-.844 1.069-1.263l-.144.056c-.424.494-.726.889-.925 1.207zm1.069-1.263c4.664-1.844 3.524-6.666 3.24-11.117q-.118.466-.309.95c1.687 4.52-.51 7.321-2.931 10.167zm3.24-11.117c.296-1.168.273-2.267.067-3.328-.158 1.046-.141 2.174-.068 3.328zm.067-3.328a7.6 7.6 0 0 1 .27-1.183c-1.502-1.55-2.89-9.345-1.164-4.15 1.033-1.151 3.22 4.557 3.123 8.541.07-.867.301-1.39.613-1.647-1.314.958-.404-4.104-1.592-6.857-2.073-5.845 1.42 4.14-1.294-.888-.581-5.339-2.602 2.478-2.666-2.113-.626-5.818 1.59-2.35.417 1.016 1.868-3.683-1.34-5.584-.258-6.893 3.165-5.443 1.949 2.635 2.287 1.882-.188-3.94 1.187-4.204 1.24-1.413.356-1.68 1.4-1.476 1.27 1.615.186.722.336 2.434.507 4.212q.03-.236.083-.48c1.567 1.826 4.69 6.914 6.582 9.975-.408-.467-2.22.027.729.448 5.375 3.657-2.163-1.721.216-1.036 4.375-1.946 2.305-6.128 3.769-8.597 3.216-4.915 1.044-1.326 1.162 2.065.966-4.786 1.52-9.181 3.865-13.69.867-5.228-.327 1.74-2.55 4.438 1.304-.41-1.452 5.266-2.068 6.291-3.528 3.781-.168 3.258-2.138 7.125-4.048-4.082.36.448-.6.95-2.708 1.713-3.296-3.039-3.895-1.551-3.742-3.547-3.64-7.396-5.282-9.877 2.85-.072.314.543 1.281-2.09 3.063.767.316 3.22 3.106 3.602 1.58 1.95-4.89-7.099.462-2.193-1.455-1.794-1.997-2.48-4.587-2.213-4.2-1.581 1.462-1.727-1.222-1.686-3.577.447-1.861.032-.86-.717-.101.016-.028-.214.51-.703a1.8 1.8 0 0 1-.262.493c.33-.323.458-.693-.006-1.074-3.904 2.187-7.764 5.198-11.61 6.683-3.524-1.228.664 3.354-.361 1.302 1.68-.749 3.231-1.924 5.843-3.706 6.652-5.345-2.284 5.85 2.08 2.251-1.121 4.466 2.226 7.902 3 11.868zm1.054-17.324a3 3 0 0 1-.249.21c.051-.008.147-.078.25-.21zm15.554 2.57c-.24.074-.617.356-1.17.91.415-.142.806-.47 1.17-.91zm-13.855 6.876c-.115.897.014 1.69.249 2.348-.091-.74-.172-1.55-.25-2.348zm.249 2.348c.3 2.432.706 4.103 1.407 2.05-.338-.233-1.018-.958-1.407-2.05zm1.407 2.05c.217.15.294.096.064-.194zm-3.433-10.225c-.094.444-.14 1.018-.104 1.705.084-.656.113-1.225.104-1.705zm-1.917 31.866c.386.257.756.59 1.084 1.032l.045.01c-.292-.441-.665-.806-1.129-1.042zm-4.901.337c.173.06.511.026 1.044-.176-.462.034-.804.095-1.044.176zm1.284 1.886c1.876.952 4.121 1.523.476-.212-.258.101-.392.17-.476.212zm-4.004 1.844c.257.285.697.61 1.206.976-.393-.535-.813-.915-1.206-.976zm2.808 4.732c-.069-.499-.271-1.166-.554-1.842.049.41.215 1.013.554 1.842zm12.754-19.431q.049-.075.1-.15.028-.186.036-.379-.082.243-.136.529zm.136-.529c.17-.505.425-.85.75-.923 3.05 4.369-.605-1.792-2.414-4.687.148.316-.045 1.512-1.787-.821-.327.477-.586.785-.794.953.994-.713 2.736 1.102 2.916 3.113.418-1.046 1.386.79 1.329 2.365zm-1.329-2.365c-.11.277-.182.755-.187 1.493.181-.486.232-.996.187-1.493zm-.335-3.245a.2.2 0 0 0-.027-.042zm7.623 11.715c.65-.235-.145-.695-1.118-1.102q.24.337.509.602c.348-.098.23.055.096.093q.248.231.513.407zm-.513-.407-.096-.093-.063.019c.021.083.092.092.159.074zm-.605-.695a5 5 0 0 1-.157-.23c-3.724-1.016-1.52-.47.157.23zm1.544 1.348q.314.155.643.249c-.23-.189-.453-.256-.643-.249zm8.624-2.526q.001-.003.003-.005v-.002h-.002q-.003 0-.006.002zm2.187-18.533a6.6 6.6 0 0 1-.225-1.358q-.059-.508-.117-.866c-.121.706.04 1.488.342 2.224zm-.342-2.224q.039-.232.12-.451c-1.197-5.71 2.256 2.972.646-2.212.84-5.454-1.539-2.671-1.755 1.833.332-.108.68-1.04.989.83zm3.475 2.607c-.08-.271-.407-.765-1.142-1.606.397.65.795 1.18 1.142 1.606zm-7.598 30.474c.765.294 1.716.507 2.31.784-.7-.534-1.544-.763-2.31-.784zm2.31.784q.303.23.563.54c-.017-.216-.236-.388-.564-.54zm-3.717 1.16c.37.222.89.443 1.592.65-.615-.313-1.142-.525-1.592-.65zm-.566 6.383c.28.495.572.949.854 1.332-.445-1.582-.726-1.727-.854-1.332zm5.388-1.001q.133-.015.25-.046c-.177-.185-.249-.079-.25.046zm16.241-45.193c-.04.3-.067.686-.078 1.172q.092-.6.078-1.172zm-17.016-12.715-.094.015q.098.04.112.026l.002-.002q.006-.01-.02-.04zm-4.32-10.146c.188.304.512.669 1.006 1.105-.32-.753-.652-1.056-1.006-1.105zm-3.891 3.283c.222.333.448.661.609.95.066-.52-.22-.82-.61-.95zm.609.95c-.035.266-.161.59-.414.977.799.032.74-.391.414-.977zm-6.37-12.042c3.613 2.965 3.684 5.84-.06 7.413 2.496-.913 5.033-2.277 7.613-2.664 3.921-2.24 9.872-2.755 13.373-3.36 7.195-1.933.092-.547-2.985.147-3.89.062-12.773 3.96-13.531 3.443-4.222-2.568 2.076-1.928-1.022-2.535-4.637-1.956 1.402-2.072-3.389-2.444zm-.06 7.413c-.623.228-1.245.453-1.862.598q1.05-.255 1.861-.598zm-1.027-7.399c-.055.004-.12.045-.195.146.44.385.41-.16.195-.146zm-21.792.17c-.058.004-.298.33-.825 1.28.465-.316.926-1.29.825-1.28zm50.448.079c2.042.009 5.124.5-.458.677-1.618-.514-.767-.683.458-.677zm1.677.761c.235-.003.27.182-.288.748-1.72.184-.231-.74.288-.748zm-28.576.274h-.002l-.002.002c-.01.016.018.093.114.269.154.154.222.204.238.195l.002-.002c.02-.045-.299-.47-.35-.464zm21.034.079c-.049.003-.21.104-.421.346.322-.18.445-.309.436-.34v-.002h-.001v-.001h-.001v-.001a.02.02 0 0 0-.013-.003zm2.53.118c.033-.002.071.036.11.144-.273.375-.226-.137-.11-.144zm-26.589.457-2.439 2.231c1.037-.632 1.68-1.376 2.439-2.23zm-17.022.621c-.66.407-1.392.876-1.656 1.633zm9.084.096c.041.301.2 1.216.35 1.838-.316-1.829-.391-2.14-.35-1.838zm9.435.306a1 1 0 0 0-.237.051c.055.21.431-.051.237-.051zm-13.32.173c-1.347.673-.94.201-1.472 1.15zm5.338.38-.002.002h-.001c-.01.013-.006.061.025.165.109.139.161.189.179.188h.001l.002-.001v-.001h.001c.02-.038-.162-.365-.205-.352zm.079.806c-.05.003-.21.104-.422.346.325-.18.448-.31.437-.34l-.001-.002-.001-.001q-.005-.003-.013-.003zm10.065.036-1.756 1.04c1.464-.805.898-.427 1.756-1.04zm20.959.345a1.5 1.5 0 0 0-.304.061c.117.192.562-.073.304-.061zm1.253.273c.14 0 .374.12.716.465-.766.445-1.101-.466-.716-.465zm-34.443.292c-.718.36-.904.419-1.431 1.236zm5.855.065c-.593.264-1.353.485-1.431 1.236zm10.695.315c-.042.002-.11.042-.214.147.146.426.38-.155.214-.147zm13.863.973c-.112.003-.383.09-.897.337.427.19 1.183-.346.897-.337zm-45.813.251c-.028.002-.106.034-.262.116-.056.068-.074.103-.067.116l.002.002c.039.028.343-.187.34-.228v-.004h-.001l-.003-.002zm8 .233c-.033.005-.192.106-.562.37-.238.225-.32.318-.31.33.041.026.89-.657.878-.699h-.001zm16.984.017a1.3 1.3 0 0 0-.33.062c.112.185.528-.054.33-.062zm.368 1.113c-.093-.004-.5.416-1.089 1.418.896-.865 1.195-1.414 1.09-1.418zm-9.584.369c-.01.014.061.177.278.593.248.365.35.493.363.486.02-.048-.598-1.086-.64-1.079zm-8.31.02c-.049.003-.21.104-.421.346.325-.18.447-.31.436-.34l-.001-.002-.001-.001a.02.02 0 0 0-.013-.004zm-2.28.108c-.14 0-.642.17-.704.377.705-.271.814-.376.705-.377zm31.84 1.067c-.017.002-.04.026-.074.085.015.136.034.189.052.194h.003c.044-.002.079-.284.02-.279zm-34.782.395c-.032.002-.122.103-.303.382-.145.77.413-.387.303-.382zm15 .07c-.015.006-.036.054-.064.169.017.17.035.241.049.252l.002.001h.006c.033-.03.049-.383.014-.418l-.002-.002-.002-.001zm22.575.45c-.079 0-.154.035-.174.136.604.09.376-.136.174-.136zm-.748.33c-.05.003-.21.104-.422.346.322-.18.445-.308.437-.34l-.001-.002h-.001l-.001-.001zm-28.345.56a1.4 1.4 0 0 0-.194.022c-1.768-.33-5.203 4.106-8.665 2.068-.465-4.55-1.375.378 1.042.973-2.64.006.63.176.308.72 1.248-.221 2.003 1.881 2.18 1.032-.4-1.289.327-1.047 1.46.166.388-.256 3.979.793.69-.29-.634-.046-.115-.27.824-.582-6.076-.833 5.202-4.113 1.851-.596 1.545-.503 3.106-1.073 3.048-1.513-2.347-.825-1.684-2.024-2.544-2zm-.504 3.513c-.663.216-1.323.42-1.85.596q.203.028.433.052l1.085-.322q.185-.171.332-.326zm-3.364 1.468c-.093.061-.004.196.4.45a13 13 0 0 0-.4-.45zm.4.45q.406.474.847 1.073c1.633.607-1.775-1.013.473-.366a15 15 0 0 1-1.32-.707zm-4.04-1.649c-.227.04-.47.157-.73.382.448-.144.664-.27.73-.382zm9.076-3.716c-.045-.002-.054.043.018.175.656.344.128-.169-.018-.175zm-2.403.766c.211 0 .798.19 1.994.734.122.99-2.628-.731-1.994-.734zm26.053.472c-.054.004-.45.246-1.475.938-.758.78 1.62-.95 1.475-.938zm-20.814.323c-.059.005-.35.133-1.04.478-1.28.914 1.24-.496 1.04-.478zm-15.49.086c-.06-.002.05.198.486.76 1.703 1.386-.291-.755-.486-.76zm2.766.282-.003.001-.002.002c-.01.013-.005.062.026.164.11.141.162.19.18.187l.002-.001.001-.002v-.002c.015-.044-.16-.357-.205-.35zm12.536.657a1 1 0 0 0-.237.051c.055.21.432-.051.237-.051zm-8.022.257c-.268-.01-.356.124.066.548 2.48.46.619-.52-.066-.548zm5.082.02c-.028.124-.118.5-.187.756.18-.753.215-.88.187-.756zm-15.289.11c.074 0 .15.037.224.126-1.004 1.193-.67-.132-.224-.126zm3.644.505h-.004v.001h-.001v.004c.007.017.097.071.322.183.255.078.358.1.371.092l.002-.003v-.002c-.02-.04-.626-.283-.69-.276zm21.3.056c-.029.004-.075.06-.143.203.101.568.255-.218.143-.203zm-25.472.26c.041-.012.214.219.619.926.068.793-.725-.892-.619-.925zm31.749.135c.033-.002.071.036.11.144-.274.375-.227-.137-.11-.144zm2.88.016c-.05.003-.21.104-.422.346.322-.18.445-.308.436-.34v-.002h-.001v-.001h-.001a.02.02 0 0 0-.013-.004zm-32.943.03c.257.001.353.21-.138.794l-.302.336-.39-.351c-.268-.343.453-.78.83-.779zm32.98.312c-.08 0-.154.035-.174.136.603.09.376-.136.174-.136zm-11.044.126c-.104.009-.76.964-1.656 2.835 1.312-1.909 1.76-2.845 1.656-2.835zm-22.798.72c.047-.006-.108.269-.649 1.058-1.721 1.855.498-1.038.65-1.058zm1.29.018c-.028.002-.105.033-.261.115-.057.069-.075.104-.068.116l.002.002c.04.028.343-.187.341-.227v-.002l-.001-.003h-.002l-.01-.003zm28.357.466c-.093.002-.147.05-.124.17 1.923.866.57-.18.124-.17zm7.088.192c.057-.002.128.037.208.146-.432.378-.411-.14-.208-.146zm-23.804.123c-.14-.001-.457.047-1.045.19.277.267 1.463-.186 1.045-.19zm5.112.018c-.044.003-.103.041-.177.14.29.385.35-.151.177-.14zm-14.973.406c-.032.002-.082.04-.153.137.14.393.28-.145.153-.137zm-.395.185c-.05.005-.117.067-.185.236.351.175.325-.25.185-.236zm4.95.418q-.67.18-1.158.297c1.278.013 2.73.547 1.86 2.95.594-.374.9-1.226.495-1.86 3.7 1.812.849 0-1.197-1.387zm-1.158.297c-1.453-.014-2.679.646 0 0zm30.408-.182-.001.001c-.001.013.056.074.21.212.278.186.393.254.413.254h.002v-.003c-.008-.04-.58-.47-.623-.464zm-33.88.218c-.023.002-.117.056-.33.199-.108.11-.15.163-.149.177v.002l.002.002c.038.015.473-.33.483-.375v-.004h-.001q-.002-.002-.004-.001zm17.631.064c-.313.006-1.483 1.06-1.753 2.46l.25-.394c1.488-1.482 1.739-2.071 1.503-2.066zm16.176.355-.003.001-.002.002c-.012.017.007.108.09.32.417.47-.017-.33-.085-.322zm12.55.11a4 4 0 0 0-.486.056c.162.13.615.018.617-.034v-.004c-.007-.012-.046-.02-.13-.018zm-10.839.09a.6.6 0 0 0-.203.036c.266.323.474-.025.203-.035zm-19.513.85c-.024.005-.144.101-.423.353-.198.234-.267.33-.26.342.038.016.687-.644.688-.693v-.002zm6.868.426h-.001v.003c-.001.012.025.06.095.16.178.185.254.254.268.257h.002l.001-.001c-.007-.039-.324-.41-.363-.419zm5.332.096c.228.74-.249.132 0 0zm21.675.044c-.07 0-.143.034-.202.124.808.516.511-.123.202-.124zm-25.171.427c-.042 0-.135.122-.3.475.166.378.411-.475.3-.475zm-20.545.118c-.24.003-1.05.455-2.705 1.796.387-.075.762-.21 1.104-.374a1 1 0 0 0-.078.18c.154.343.214-.13.153-.216 1.11-.552 1.854-1.39 1.526-1.386zm5.425.033-.003.001c-.01.02.208.17.866.56.764.258-.775-.572-.863-.56zm31.738.2c-.048.01-.282.372-.832 1.429.372-.256.92-1.444.832-1.429zm-27.565.426h-.001v.002c-.001.012.025.06.095.16.175.183.25.252.267.258h.004v-.003c-.007-.038-.324-.408-.363-.417zm-17.473.254a1 1 0 0 0-.237.051c.055.21.431-.051.237-.051zm26.736.066c-.03 0-.012.058.107.217.172.104.248.132.264.118q.001 0 .002-.002c.026-.044-.304-.337-.373-.334zm-11.532.253h-.003v.001h-.001v.001l-.001.003c.003.015.052.06.17.148.271.134.378.177.392.17h.001V170c-.01-.037-.501-.323-.558-.32zm42.406.242-.002.001-.001.001c-.005.012.024.058.105.151.215.161.305.217.322.215h.002v-.001l.001-.001v-.002c-.01-.043-.385-.373-.427-.364zm-9.74.342c-.074.012-.429.375-1.252 1.416.613-.347 1.381-1.438 1.251-1.416zm-20.72.278c-.518.023-2.702 2.341-3.835 3.599-.608.592.781.71.149.21.96-1.408 1.916.524 2.29-1.347.662-.627 1.431.636 1.13-1.333.421-.82.462-1.137.267-1.129zm-24.727.055c-.03 0-.037.08.014.305.415.467.08-.307-.014-.305zm47.941.413c-.163.007-.838.44-1.887 1.494 1.536-.89 2.084-1.502 1.887-1.494zm-3.996.453c-.111.002-1.016 1.22-2.078 3.097l.01.176.345-.46c1.361-1.982 1.815-2.815 1.723-2.813zm-28.859.426c-.027.007.082.433.473 1.67.521.932-.404-1.686-.473-1.67zm-11.502.067q-.001 0-.002.002c-.012.015-.03.103-.053.303.018.266.034.374.047.387l.001.001.002.001.003-.002c.03-.042.04-.657.006-.691l-.001-.001h-.003zm26.324.074c-.016.003-.04.028-.072.084.016.139.035.19.054.194l.003.001c.044-.006.078-.292.016-.28zm27.545.54c.145.006.804.824 1.926 2.79l.006.314c-1.5-1.859-2.113-3.11-1.932-3.104zm-10.865.118c-.034.013-.261.38-.815 1.415.38-.464.84-1.378.818-1.414zm-43.532.049c-.05.003-.21.105-.422.347.322-.18.445-.309.437-.34l-.001-.002h-.001v-.001a.02.02 0 0 0-.013-.005zm19.705.026c.037.001.054.062.023.228-.51.454-.149-.232-.023-.228zm-11.575.156c.083 0 .21.068.39.249-.38.776-.717-.25-.39-.249zm6.2.107h-.001c-.014.01-.033.078-.055.243.022.164.04.232.054.241l.002.001h.005v-.001c.032-.034.033-.448 0-.482l-.001-.002h-.004zm37.564.113c-.03.005-.056.08-.07.272.316.562.175-.29.07-.272zm-47.923.14c.14.005.355.128.66.459-.702 1.022-1.16-.476-.66-.46zm1.541.12c.045-.004.108.033.187.139-.285.378-.347-.13-.187-.14zm10.836.046c-.019.003-.071.054-.176.187-.03.102-.036.15-.026.164l.002.002h.003c.044.009.226-.313.205-.35l-.002-.002-.002-.001zm6.18.366-.001.001v.002c0 .012.026.06.095.16.176.183.252.252.268.258h.003v-.002c-.006-.038-.323-.41-.363-.418zm-23.697.067c.137 0 .395.122.809.481-.707.318-1.157-.48-.809-.48zm-5.421.027h-.002l-.003.003c-.013.014-.032.083-.055.234.018.221.035.31.048.32h.003c.035-.016.047-.536.01-.556zm22.676.042c-.048.003-.21.104-.421.346.322-.18.445-.308.436-.34v-.002h-.001v-.001q-.005-.003-.014-.003zm12.248.161c-.033.006.032.068.266.222.563.237.773.307.789.292.022-.043-.958-.531-1.055-.514zm1.36.506c-.028.006.015.08.187.273 1.221.809-.068-.296-.186-.273zm-20.592.047c-.03.006-.072.069-.128.229.172.382.227-.25.128-.229zm7.509.016c.06-.008.089.083.04.358-.702.655-.226-.334-.04-.358zm-23.07.31c-.016.002-.04.027-.073.086.015.136.034.189.052.194h.003c.044-.006.078-.284.019-.28zm48.83 0c-.016.002-.04.027-.073.086.015.138.035.19.053.194h.003c.044-.006.077-.284.018-.28zm-24.86.17c-.05.003-.21.104-.423.347.325-.182.447-.31.437-.34l-.001-.003-.001-.001h-.001zm6.783.1c-.017-.001-.041.023-.076.085.015.138.035.19.053.194h.004c.042-.01.075-.277.02-.28zm-13.39.124c-.096.005-.185.038-.222.122.852.102.509-.138.222-.122zm46.085.446c.41-.008 2.066 1.422 3.45 2.766-2.31-.979 1.267 4.612-.244 7.073-.235.051 1.343.56 1.317 5.845.808.52 3.832 6.19 2.117 5.017-1.432 1.768-3.057 4.567-5.443 3.95 3.87-3.99.795-2.944-2.881 2.066-2.583 1.258-1.664-.074-.919-1.578-1.463-.846.243-8.104.61-10.656 4.369.162 5.416-5.747 4.082-9.915 1.267 3.561.228-1.173-.699-2.04-1.369-1.843-1.67-2.523-1.39-2.528zm4.523 15.684c-.222-.142-.278.103-.023.984q.02-.517.023-.984zm-42.38-15.442c-.039 0-.026.043.092.157.26.109.368.138.389.125l.002-.003c.015-.043-.387-.282-.482-.28zm-16.305.04c-.347.005-1.113.117-2.205.423 2.195-.153 2.783-.434 2.205-.424zm35.799.532c-.028.005-.074.398-.147 1.468.087 3.684.246-1.485.147-1.468zm-11.392.01c-.022.006-.02.236.028.858.415 1.964.047-.877-.028-.857zm-22.922.101c-.046.006-.01.065.178.21 1.622.632.013-.233-.178-.21zm53.111.408c.081-.012.332.28.862 1.185-.336.454-1.045-1.158-.862-1.185zm-55.92.006c-.039.002-.108.098-.217.372.194.334.323-.378.217-.372zm48.929.276h-.001l-.001.003c0 .012.026.06.096.16.178.185.253.254.268.258h.002v-.003c-.007-.038-.318-.404-.362-.418h-.002zm-40.2.028c-.02 0-.096.068-.267.258-.08.157-.104.227-.095.242.033.038.384-.45.367-.496l-.001-.002-.002-.001zm14.587.143c-.02.005 0 .174.1.63.581 1.432-.024-.647-.1-.63zm-7.288.225c-.043.006-.082.305-.095 1.148.37 1.235.219-1.165.095-1.148zm32.559.438c-.042.003-.049.04.008.135.995.498.172-.146-.008-.135zm-18.992.08c-.028.001-.143.098-.4.358-.578.92.444-.29.407-.356l-.007-.003zm27.24.3c.05-.003.154.13.338.502-.043 1.088-.506-.492-.337-.502zm-6.325.217c-.056-.001-.137.094-.184.378.305-.108.278-.377.184-.378zm-42.02.012c-.067.003-.013.11.291.407 1.323.593-.08-.416-.29-.407zm9.334.028c.044-.004.104.05.182.205-.277.555-.338-.191-.182-.205zm35.865.094c-.014.006-.032.093-.054.312.021.21.039.298.052.31l.002.001h.004c.032-.038.033-.591 0-.622h-.003zm-35.09.015c-.049.007-.173.144-.309.48.315-.28.374-.489.31-.48zm7.604.023c-.027.005-.057.062-.083.206.268.563.19-.224.083-.206zm-4.026.163-.003.001c-.017.013.029.124.196.402.746.74-.107-.411-.193-.403zm6.03.12c-.03.002-.132.053-.346.183-.118.122-.154.175-.143.186.04.028.513-.328.5-.367q-.004-.003-.01-.003zm-4.484.024c-.112-.002-.36.576-.673 2.237.7-.91.842-2.234.673-2.237zm3.144.336c-.232.004-.646.077-1.232.282 1.372.032 1.743-.29 1.232-.282zm-13.814.031c-.043.004-.1.06-.172.205.282.566.34-.221.172-.205zm-1.425.016c.053.002.024.123-.171.459-1.16.929-.011-.466.171-.46zm38.59.08c-.055.006-.131.106-.177.378.313-.112.277-.392.177-.379zm-17.322.135h-.002c-.015.006-.035.055-.06.176.025.12.045.17.06.174h.007c.036-.021.036-.327 0-.348l-.002-.001h-.002zm20.674.048c-.018.007-.07.132-.172.464-.018.189-.016.27-.003.281.044.03.21-.703.18-.743l-.002-.002zm-28.554.167c-.025.003-.368.583-1.295 2.283.486-.677 1.305-2.229 1.296-2.282zm-8.667.171c-.03.006-.123.209-.32.79.057.467.395-.805.32-.79zm16.401.126c-.016-.016-.053.223-.121.94.034 1.445.17-.892.121-.94zm4.275.307c-.017.002-.04.026-.074.085.015.136.034.188.052.194h.003c.044-.002.08-.284.02-.279zm3.231 1.188c-.051.005-.057.139.112.499.135-.239-.037-.507-.112-.5zm-2.56.306c-.031.005-.09.09-.185.316.087.542.286-.333.184-.316zm19.257.646h-.003c-.015.01-.034.06-.057.175.023.114.042.164.056.173l.003.001h.008c.035-.025.036-.323 0-.348h-.002l-.002-.001zm-42.151.46c-.03.001-.036.081.014.306.415.467.08-.307-.014-.305zm22.312 1.444c-.03 0 .013.412.182 1.497-.781.133-1.909-3.57.288 2.185.704 1.806-.361-3.684-.47-3.682zm-6.637.259c-.017.002-.042.025-.075.085.016.142.037.193.055.194.045-.002.08-.285.02-.28zm-6.55.134c-.016.001-.04.026-.073.085.015.136.034.188.052.194h.003c.044-.006.078-.284.019-.279zm20.964.21c-.039.004-.017.19.153.726.35.228-.065-.736-.153-.726zm-31.106.387c.06-.003.17.077.355.298.024 1.138-.601-.286-.355-.298zm30.205.044-.001.003c.002.017.076.102.27.293l.319.302c.187.036-.533-.597-.586-.598zm4.725.225c-.075.003-.25.084-.528.315.478-.078.661-.32.528-.315zm-3.131.068c-.054.006.004.143.289.52 1.025.619-.13-.54-.29-.52zm2.981.474c-.023.005-.084.07-.207.24-.058.172-.07.247-.058.262.04.037.309-.467.273-.5zm-19.186.035c-.04.01-.164.235-.401.871.272-.183.476-.89.4-.87zm12.928.992c.039-.003.085.085.13.34-.31.706-.259-.329-.13-.34zm-17.921.1c-.143.004-.135.182.371.695.526-.223-.133-.702-.371-.695zm-40.75.05c-.028.002-.106.034-.262.116-.054.065-.073.1-.068.114l.001.003q.001 0 .002.002.001 0 .002.002c.05.018.34-.19.338-.23v-.003l-.002-.002zm57.802.232c.018-.005.086.031.224.129a1 1 0 0 0-.024.108l.013.026c-.14-.135-.238-.248-.215-.262zm17.23.06-.002.002c-.014.011-.032.08-.054.242.022.16.04.23.053.241l.002.001h.008c.032-.035.033-.449 0-.483l-.001-.002h-.006zm-3.45.177c-.083 0-.124.089-.027.356.646.151.222-.355.027-.356zm-13.406.002q.2.15.538.422c.065.223-.258-.003-.539-.25a.5.5 0 0 0 .001-.172zm-58.974.107c.042-.051-.13.087-.713.597l-.089.09c-.344.332-.474.464-.473.474.034 0 1.181-1.047 1.275-1.16zm54.334.118v.001h-.003l-.002.002c-.013.013-.031.083-.052.24.022.165.04.233.053.243h.008c.034-.03.034-.455 0-.484l-.001-.001zm2.08.146c-.608.047-1.13.744-.897 2.9-.71-3.7-.412-1.105-.205.963h.001l.236.038.119-.45c-.21-4.269 1.996-2.293 1.854-2.008.846-.19-.222-1.511-1.109-1.443zm1.108 1.443a1 1 0 0 1-.146.02c.084.023.13.012.146-.02zm-20.455-.937c-.205.006-.37.5-.102 1.87.78-.849.4-1.88.102-1.87zm3.02.208a.26.26 0 0 0-.15.057c.508.377.399-.063.15-.057zm14.38.212c-.068 0 0 .811.431 3.187.14-1.073-.322-3.186-.43-3.187zm-56.156.36c.059-.079-.166.114-.944.844-1.968 2.078.767-.605.944-.843zm60.28.2h-.001c-.002.013.055.075.21.213.287.192.4.257.414.253v-.004c-.024-.05-.58-.469-.623-.463zm-20.179.006c-.02 0-.177.038-.591.152.09.01.571-.132.593-.15v-.001zm35.6.01c-.07.004-.195.194-.377.747.404.196.535-.758.377-.748zm-41.577.386c-.02.003-.072.053-.176.187-.031.102-.036.15-.027.163l.002.002.004.002c.046.003.225-.314.205-.35v-.001h-.001l-.002-.002zm12.886.05c-.056-.001-.136.094-.184.378.306-.109.278-.377.184-.378zm28.295.006c-.14.003-.658.15-1.718.574 1.127-.184 1.95-.58 1.718-.574zm-32.822.36c-.1-.002.011.067.522.257 2.882.628-.164-.255-.522-.258zm-1.867.01h-.002c-.01.016.073.168.317.549.29.347.409.471.426.467.028-.04-.687-1.018-.741-1.017zm6.063.177c-.08.006-.199.23-.326.884.497.144.503-.898.326-.884zm25.892.151c-.027.002-.029.042.019.145.174.124.25.158.27.146h.001c.03-.037-.219-.297-.29-.29zm-9.864.104h-.002c-.015.009-.035.06-.058.175.023.117.043.166.058.175h.01c.035-.025.035-.324 0-.348l-.002-.001h-.005zm-3.223.019c-.035.004-.023.083.08.292.76.634.044-.306-.08-.292zm-21.735.056c-.02.005.035.191.227.694.246.457.349.617.366.607.038-.043-.54-1.314-.593-1.301zm39.008.595c-.056.007-.132.107-.177.38.313-.112.277-.392.177-.38zm-16.653.067c-.026.003.018.11.193.402.747.74-.107-.41-.193-.402zm18.502.076c-.016.005-.034.115-.048.404.04.267.068.365.085.364l.003-.001c.039-.04.006-.731-.036-.766zm-31.205.038c-.043.003-.21.147-.582.538-.632 1.152.73-.55.582-.538zm28.937.769c-.258-.007-1.86 1.024-2.605 2.773.42-.719 1.75-1.637 1.589-1.86.918-.62 1.151-.91 1.016-.913zm-5.738.32c-.092.01-.522.64-1.285 2.237.976-1.268 1.401-2.249 1.285-2.236zm-13.88.01c-.036.002-.135.517-.334 2.016.086 1.602.432-2.019.335-2.015zm-57.043.557c.043.003.018.212-.112.726l-.444.997c-2.177 5.018.31-1.742.556-1.723zm49.861.277c-.019.006-.1.1-.284.349-.073.147-.097.213-.092.227v.002h.002c.04.006.391-.54.38-.576h-.001v-.001h-.005zm-57.225.706c.367-.015-.122 2.555-.115 2.619.009-.015.05-.195.145-.618 1.243-2.988 2.064-.7 5.47 1.858 2.708 2.274-2.077 5.875-3.637 7.92a19 19 0 0 1-1.679-1.31c-1.043-2.297-6.895-1.167-5.338-2.696-2.897.787 5.352-3.748 4.698-7.198.22-.407.365-.572.456-.575zm57.11.139c-.055.007-.131.106-.177.378.313-.111.277-.391.178-.378zm-.298.995a6 6 0 0 1-.283.694c.374-.266.554-.512.283-.694zm-.283.694c-1.132.807-4.048 1.797-1.664 1.714.625.104 1.277-.893 1.664-1.714zm28.104-.6q-.024-.002-.074.085c.016.143.036.193.055.194.044-.002.079-.285.019-.28zm-82.722.237h-.001v.002c-.001.015.072.1.268.294l.32.302c.187.036-.533-.597-.586-.598zm-4.023.051c-.225-.009-.64.125-1.105.545 1.327-.122 1.48-.53 1.105-.545zm56.315.264-.001.001c-.005.013.074.103.296.316.372.277.52.375.537.371h.002v-.003c-.01-.051-.786-.695-.833-.685zm-53.261.001c-.054 0-.136.06-.245.238.325.332.408-.233.245-.238zm46.392.119c-.017.002-.04.025-.074.084.015.139.035.191.053.195h.003c.044-.006.077-.285.018-.28zm4.22.135c-.145 0 2.778 2.857 4.427 4.502 1.932 1.625-2.03-2.389-2.276-2.668-1.482-1.325-2.09-1.834-2.151-1.834zm-48.714.263c-.177.009-.474.223-.862.84 1.065.117 1.252-.86.862-.84zm44.637.14c-.017 0-.041.025-.074.084.016.143.036.194.054.195.045-.002.08-.285.02-.28zm-50.02.554c.595-.015-1.362 1.972-.462 1.625-1.038 1.904-2.208-.29-.58-1.151.572-.336.89-.47 1.041-.474zm49.644.07c-.03.007-.03.118.034.417.523.774.07-.437-.034-.416zm-43.19.205c-.028.005-.057.062-.082.206.267.563.189-.224.082-.206zm80.447.187c.04-.002.012.099-.15.389-.825.732.02-.382.15-.39zm-21.08.461c-.016.001-.04.026-.074.085.016.138.035.19.054.194h.003c.043-.006.077-.284.018-.279zm-16.735.134c-.026.01-.09.21-.211.769.035.921.29-.795.211-.769zm38.238.197v.001c-.015.007-.036.055-.063.167.017.165.034.236.048.251l.002.002.003.001h.006v-.001c.034-.03.05-.382.014-.418q0 0-.003-.002h-.006zm-1.287.087h.004c.012.01-.01.082-.088.25-.278.376-.39.505-.41.501-.022-.038.429-.742.494-.75zm-78.004.3c-.173.003-.417.206-.522.782.882-.307.79-.787.522-.782zm40.761.087c-.019.019-.091.466-.252 1.71-.054 1.56.295-1.658.254-1.71zm16.548.147c-.028 0-.096.06-.227.22-.132.598.331-.22.227-.22zm-7.584.074-.003.001v.002c.002.012.066.054.222.139.449.177.61.231.616.222v-.003c-.039-.042-.774-.367-.835-.361zm-57.455.388c-.253-.009-1.23.746-1.43 1.682 1.386-1.206 1.627-1.675 1.43-1.682zm-1.43 1.682-.13.112c-.051.039 0 .137.094.253q-.003-.186.035-.365zm-.036.365q.003.12.026.242c.36.254.507.351.531.353h.002v-.001h.001v-.004c-.013-.04-.371-.353-.56-.59zm-1.482-1.754c.685.032 1.397.321.086.771-1.426-.578-.77-.803-.086-.77zm91.279.037a.34.34 0 0 1 .163.058c-.117 1.045-.51-.063-.163-.058zm-2.422.365c.082-.005.119.047.036.205-.933.328-.282-.191-.036-.205zm2.057.14c.23.002.12.501-.892 1.992-1.48.086.42-1.995.892-1.992zm-2.011.182c1.042-.007 1.083 2.19-1.497 3.447.228-2.39.646-2.486-1.05.565l-.915.494c-.193-1.551-1.618 1.175-1.38-2.217.983 1.27 1.878-.834 2.82-1.383-.036.059-.08.152-.135.288.17.293.29-.218.246-.344a.65.65 0 0 1 .594.008c.51-.609.97-.856 1.317-.858zm-78.172.144c-.037.004-.1.061-.2.21.075.595.343-.224.2-.21zm-6.163.425c-.178.006-.547.28-1.103 1.09 1.086-.127 1.443-1.101 1.103-1.09zm6.824.003c2.406.774 8.53 7.4 12.219 10.697 2.633 2.387 2.39 2.508 1.635 3.806 1.673 3.177.969 2.78-.705 3.692-1.196-1.1-1.6-1.473-1.62-1.474v.001c.022.06 1.9 1.925 1.033 1.594 1.056 1.486-2.848-2.442-2.35-2.016-2.883-2.9-5.58-4.34-8.898-7.712-1.207-1.088-7.15-4.866-3.031-3.313 5.075 4.09 1.321.926-1.228-1.324.31-.236 3.132.947 1.82.208-3.289-4.32 5.026 2.269 1.414-.896-3.18-3.482 1.975-.923-.29-3.263zm-8.842.07a.6.6 0 0 0-.224.053c.47.37.552-.055.224-.053zm81.764.096c-.029.002-.072.064-.13.23.17.378.225-.237.13-.23zm7.192.46c.567.002 1.42 3.653.408 2.255-1.211 2.843-1.174.7-1.52 1.474-1.126 2.054-1.793 1.126-.633-.217-.42-2.33.93-3.114 1.382-2.467.067-.762.204-1.047.363-1.046zm-.363 1.045c-.031.358-.047.822-.043 1.411.26-.685.22-1.158.043-1.411zm-84.621-.191c-.028.006-.032.088.017.305.42.472.073-.323-.017-.305zm86.222.021c.04-.002.106.042.21.154.245 1.35-.436-.144-.21-.154zm-26.84.502c-.026 0-.104.03-.266.116-.058.07-.075.105-.067.117l.002.002c.039.028.34-.185.341-.227v-.004l-.001-.001-.004-.003zm12.304.07c-.018.006.02.136.161.478.244.398.342.528.356.512.027-.051-.466-1.007-.517-.99zm-73.285.057c-.044.003-.103.041-.177.14.29.385.35-.15.177-.14zm82.914.048c-.036.002-.109.045-.234.155-.13.6.392-.163.234-.155zm-38.105.213c-.042.002-.11.042-.213.147.145.426.38-.154.213-.147zm39.078.124c.817-.011 1.071 3.637-1.708 4.261-2.243 1.277.403-1.554.6-1.984.352-1.664.776-2.273 1.108-2.277zm-39.048.137c-.037 0-.236.13-.73.52.097.105.747-.465.736-.517v-.002h-.001l-.005-.002zm-41.73.143c-.085.003-.243.119-.44.453.513-.106.593-.458.44-.453zm-5.005.053c-.053.002.068.163.563.63.8.354-.43-.636-.563-.63zm90.396.045c.25.01.597.381.863 1.467-1.463-.184-1.34-1.486-.863-1.467zm-86.867.123c-.061.008-.032.157.183.558 1.243.969.022-.584-.183-.558zm43.424.063c-.028.003-.178.13-.533.467-.271.338-.361.47-.348.482.05.02.911-.907.885-.948zm31.86.362c-.1.01-.657 1.564-1.156 3.22-.035.1-.044.147-.034.158l.003.002c.062.02.492-.677.553-.691h.005v.001l.001.002.001.015c.545-1.973.697-2.713.627-2.706zm-.628 2.706-.014.052a.3.3 0 0 0 .014-.052zm5.96-2.563c.969.048.14 1.95-2.245 4.13-1.152 1.729-.071-4.1.268-3.241.944-.643 1.598-.908 1.977-.89zm-19.341.004c1.185-.004 2.849.166 3.66.035-.01 1.013-3.267 4.882-5.89 3.077-.11.662-3.908-.855-2.772.468-3.628-1.77-1.135.37-3.637-1.168-2.357-2.522-.425-.72 1.181-1.118 1.297-.607 3.23.632 3.809.749.121-3.422 2.473 2.158 2.863-1.036-1.106-.826-.4-1.003.786-1.007zm27.995.03c.84-.042 1.608.497.921 2.35-2.414.6-1.933-.389-1.567-.867-1.63-.416-.434-1.43.646-1.484zm-.646 1.483.016.004c.143-.154.199-.226.2-.239h-.003a1.3 1.3 0 0 0-.214.235zm-40.99-1.443c1.043-.04 3.351 1.17 3.012 1.766a23 23 0 0 0-.069.64c.493-.205 2.083-.46.295.163-.14 0-.24-.005-.309-.015-.104 1.149-.157 2.332-.377 3.44.496-.876 1.3.322 1.972 1.29-.753-1.319 3.07-.186 3.118.205-.742-.185.312 6.75-3.705 8.609-1.86 2.87-4.615 3.09-6.298 3.352-1.248.627-.348-1.915-1.796-1.063 1.168-1.412 2.875-5.533 5.427-5.696-2.338-.663-.125-3.802 1.434-3.322 2.774 5.066 1.228 1.527-.548-1.503q.03-.376.072-.678c-.351.98-.923 1.857-1.897 2.54.526 3.461-7.735 9.615-5.659 10.071 1.179 2.838-6.006-.397-8.325 2.09-.755-.234-3.164-2.06-2.398-3.216 2.444-2.23 5.2-4.59 8.41-6.412 2.921-3.001 8.861-6.149 7.368-11.26-.415-.708-.202-.984.273-1.001zm2.228 7.188c.138-.384.243-.784.324-1.193-.133.234-.244.617-.324 1.193zm-.958 5.503c.258.074.571.117.947.121a2.6 2.6 0 0 0-.947-.12zm3.254-5.406q.064.111.174.248zm.174.248c.314.444.588.786.77.758a6 6 0 0 1-.77-.758zm-1.769-4.98.014-.147c-.152.063-.2.121-.014.148zm-5.264-2.532c-.025.006.054.143.324.511 1.044.977-.24-.53-.324-.51zm-46.378.176.108.154q-.036 0-.078.003a2 2 0 0 0-.03-.157zm73.331.024c-.044.003-.103.041-.177.14.29.385.35-.151.177-.14zm-63.025.347-.001.001v.003c.004.02.078.105.268.292l.32.303c.187.035-.533-.598-.586-.598zm63.621.019c-.125 0-.347.273-.488 1.026.648-.509.66-1.025.488-1.026zm-11.798.12a.26.26 0 0 0-.149.058c.508.376.398-.064.15-.058zm-59.083.106c.047-.003.118.036.209.16-.297.19-.341-.15-.21-.16zm-2.556.094q.185.275.406.619c-.571.443-.4-.129-.406-.619zm6.771.005v.001h-.001l-.001.003c-.002.013.027.058.106.15.215.16.305.216.322.215h.001v-.001h.001v-.003c-.005-.04-.39-.379-.428-.365zm34.381.233c-.024.008-.068.175-.139.626.086 1.022.218-.65.14-.626zm38.228.181c-.032.004-.102.17-.228.647.123.53.315-.657.228-.647zm-86.494.097c-.022.004-.09.08-.229.28-.07.192-.084.268-.068.275.047.014.334-.52.302-.553zm14.353 0h-.001l-.001.001c-.007.017.091.189.368.616.37.464.516.63.532.626.019-.044-.846-1.241-.898-1.243zm84.851.037c.322-.006.633.179.864.65.38 2.073 1.555 2.587-1.068 2.585-1.395-.15-1.552-1.151-1.198-2a.1.1 0 0 1 .017-.041c.281-.64.849-1.183 1.385-1.194zm-1.385 1.194-.017.041c-.022.123.089.396.199.084-.098-.133-.154-.154-.182-.125zm-.158-1.113c-.017-.001-.041.022-.076.084.016.143.036.194.055.195.044-.002.078-.277.021-.28zm-34.41.145c-.048 0-.057.042.014.152.99.472.18-.153-.013-.152zm-14.12.085c-.02.003-.17.118-.537.425-.305.301-.418.423-.417.438v.001c.04.006.958-.825.956-.862v-.001h-.001zm38.193.324c-.043.002-.11.042-.214.147.145.426.38-.154.214-.147zm-33.457.13c-.055.015-.267.84-.418 2.225.388-1.563.47-2.24.418-2.225zm9.592.197c-.022.003-.025.06.013.214.098.11.147.142.164.13.041-.033-.124-.352-.177-.344zm6.59.025c-.042.003-.12.139-.223.534.258-.03.309-.54.224-.534zm-56.27.068c-.035-.02.178.227.869.974.38.366.535.504.549.501.024-.027-1.335-1.432-1.417-1.475zm4.237.01h-.002v.001h-.001v.001l-.002.002c-.002.013.028.058.107.15.214.16.304.217.321.215l.002-.001v-.002c-.004-.04-.379-.37-.425-.366zm1.192.06h-.001l-.001.001c0 .016.072.1.269.294l.32.303c.188.036-.541-.605-.587-.599zm68.685.182c-.042.002-.11.042-.213.146.145.427.38-.154.213-.146zm-73.93.065c-.04.005-.095.067-.16.23.276.295.287-.245.16-.23zm59.602.047-.011.003c-.014.013.01.062.102.167.207.104.29.13.303.114.023-.038-.317-.285-.394-.284zm-13.855.023c.285 0 .654.084 1.098.29-.767 1.274 3.095-.048.8 1.402-2.776-.11-3.131-1.692-1.898-1.692zm-41.268.16-.002.001-.001.003c-.004.011.025.057.106.15.218.164.307.219.322.215h.001v-.001h.001c0-.036-.385-.376-.427-.367zm65.607.176c-.017 0-.093.068-.27.254-.087.14-.116.202-.11.215v.001h.001c.04.008.387-.426.382-.467v-.003h-.003zm-10.86.06c-.034.003-.055.075-.039.276.38.397.146-.284.04-.276zm.691.017c-.032.002-.081.04-.152.137.139.393.278-.145.152-.137zm-8.09.28c.44.013.916.332 1.133.897.688-1.325 2.819-1.171.612 1.99l-.125.33-.318-.235a3 3 0 0 1-.22-.471q-.085.243-.22.504l-.051.807-.022.049c-.775.694-.682-1.809-1.61-1.755-.4-1.494.174-2.133.82-2.115zm1.082 2.511c.232-.653.211-1.2.052-1.614-.214.41-.289.964-.052 1.614zm14.566-2.448c-.043.003-.12.138-.224.533.258-.03.31-.539.224-.533zm-65.408.067v.001h-.001c-.002.011.024.06.095.162.179.185.254.254.27.257h.001v-.003c-.01-.043-.323-.408-.362-.417h-.002zm42.802.09c.241 0 .69.224 1.434.838-.504 2.001-2.295-.84-1.434-.838zm10.878.021c.15-.006.125.249-.35 1.019-1.34.466-.005-1.005.35-1.019zm21.952.01a1 1 0 0 0-.237.052c.055.21.431-.052.237-.051zm-26.038.006c-.032.002-.082.04-.153.137.14.393.279-.145.153-.137zm-1.703.076c.185.01.139.21-.417.755-2.778.886-.138-.785.417-.755zm-3.611.056c-.044.003-.103.041-.177.14.29.385.35-.151.177-.14zm30.624.186-.006.003c-.015.015-.013.076.02.21.355.398.06-.224-.014-.213zm-13.162.072c-.023.004-.12.082-.343.285-.135.176-.185.255-.182.271v.002l.002.001c.041.012.54-.518.529-.557zm-63.45.02v.001h-.001v.003c0 .012.026.06.095.16.178.185.254.254.269.258h.002v-.003c-.007-.038-.319-.404-.362-.418h-.003zm5.194.093h-.001v.001c.005.019.212.228.752.742l.961.908c-.411-.495-1.67-1.646-1.712-1.651zm-2.9.025c-.017.003.04.108.217.382.4.475.555.639.571.633.017-.04-.736-1.024-.788-1.015zm49.384.076c-.07.002-.176.042-.315.152.426.18.527-.157.315-.152zm-1.97.046c.096.003.19.114.231.428-.785.38-.5-.437-.232-.428zm12.29.325c-.075.003-.25.083-.528.315.479-.078.662-.32.528-.315zm-14.32.56c1.534.01 3.363.24 1.265 1.089-1.111.089-2.06-.205-.758-.863-3.278-.027-2.04-.236-.506-.225zm6.617.247c.09.005.087.177-.112.646-1.59 1.275-.196-.662.112-.646zm-52.77.146h-.001v.001c-.002.014.124.11.475.343.345.18.482.241.494.234v-.001c-.004-.043-.926-.59-.969-.577zm34.12.062c-.016.002-.04.026-.073.085.016.14.035.192.054.194.044.002.08-.284.02-.279zm-4.739.005c-.087-.078.096.136.819.923 2.143 2.167-.556-.689-.819-.923zm-47.258.134c-.09 0-.266.432-.554 1.705.469.899.775-1.706.554-1.705zm93.438.12q-.006 0-.01.002c-.012.016.043.084.219.232.971.44-.088-.245-.21-.235zm-67.74.332h-.001c-.005.012.089.097.349.303.362.23.507.312.525.31h.001c-.001-.036-.829-.619-.874-.613zm26.977.158c-.051-.002-.12.058-.193.237.344.17.326-.233.193-.237zm13.825.173c.4-.012.002 2.9-1.146 4.854 2.121-3.46 1.158-.73-.763 1.748-1.02.617.212-4.176.684-3.837.617-2.005 1.023-2.76 1.225-2.765zm14.968.172c-.02 0-.087.076-.23.28-.268.74.283-.243.234-.28zm-60.702.016h-.001v.001h-.001v.003c0 .013.028.061.095.16.179.184.254.253.269.257h.002v-.001c-.002-.034-.318-.405-.362-.42zm60.32.75a19 19 0 0 1-1.446 1.352c1.448-1.42 1.688-1.612 1.446-1.353zm-13.776.05a.6.6 0 0 1 .195.035c.169 1.79-.818-.009-.195-.035zm-40.288.016h-.002l-.001.001-.001.001-.001.002c-.002.013.028.058.106.15.215.16.305.217.322.215h.001l.001-.001v-.003c-.004-.039-.379-.369-.425-.365zm59.066.015c-.028.003-.087.102-.192.373.049.623.284-.385.192-.373zm-15.887.205a1.6 1.6 0 0 0-.43.048c.554.338.87-.022.43-.048zm-24.452.01c-.066.011.3.916 1.379 2.88-.73-1.861-1.307-2.893-1.379-2.88zm-19.826.13h-.001c-.002.015.144.151.541.486.502.36.696.487.711.482.007-.039-1.197-.972-1.251-.969zm-4.043.242h-.001c-.005.019.109.166.425.528 1.406 1.293-.355-.542-.424-.528zm10.075.068c2.145.081 4.919 1.894 6.095 3.716.617.264-.389-3.111 2.456.517.396.498 2.104 6.394.417 2.947.455 2.05-.459-.623.014 3.274-.57.649-4.106-2.633-3.795-3.555-1.101.031-3.476-3.024-3.336-3.461-3.436-3.997 2.813 4.037-1.831 3.912 3.003-.33-.566-4.39.958-2.074-1.264 4.169-1.594-1.769-2.118-.242 1.828 4.615-.302.28-1.673-1.268-.142-2.843 1.145-3.829 2.813-3.766zm5.187 6.899a.45.45 0 0 0 .392-.233c-.223.017-.347.1-.392.233zm29.786-6.795c.086 0 .195.192.303.752-.607.722-.541-.752-.303-.752zm-21.943.299h-.001l-.001.003c-.004.014.026.077.11.214.18.19.257.257.271.254h.001v-.001l.002-.002c.005-.041-.347-.482-.382-.468zm51.242.057c-.03.003-.086.14-.18.525.13.514.264-.535.18-.525zm-5.651.025h-.001l-.003.001c-.015.01-.034.06-.057.174.023.114.042.164.056.174q0 0 .003.002h.006l.002-.001c.035-.025.036-.323 0-.348h-.001l-.003-.002zm-29.966.02c-.165.002.033.274.961 1.035 3.619 1.567-.447-1.046-.961-1.036zm-33.241.254-.001.001c.005.016.116.13.405.404.351.288.494.397.512.4h.002c0-.03-.884-.807-.918-.805zm-24.793.406c.05-.004.101.086.144.335-.504 1.124-.338-.32-.144-.335zm19.888.047-.001.001v.001l-.001.002c-.002.013.027.058.106.15.214.16.304.217.321.215h.002v-.001l.001-.003c-.005-.04-.385-.373-.427-.365zm26.684.091c-.017.004-.04.028-.071.085.015.136.034.189.052.194h.002c.045-.002.08-.292.017-.279zm10.02.282c-.174.003-.069.126.788.487.902-.058-.453-.492-.787-.487zm-33.413.56c-.188-.157-.015.025.913.9 3.478 3.084-.347-.43-.913-.9zm15.634.03q-.004 0-.006.003c-.01.017.045.1.219.287.869.548-.117-.303-.213-.29zm-42.285.307c-.11.023-1.381 3.5-1.843 5.762.4-.805.556-1.704.864-2.543.794-2.36 1.035-3.23.98-3.219zm92.893.595c-.032.002-.081.04-.152.137.14.394.278-.145.152-.137zm-13.34.01c-.047.003-.132.076-.265.276.215.323.408-.288.265-.277zm15.133.12c-.045.004-.102.063-.166.217.337.378.32-.235.166-.218zm-2.66.025c-.028.006-.032.088.017.305.419.472.073-.323-.018-.305zm-47.294.111c-.023.005-.046.135-.065.476.229 1.31.152-.495.065-.476zm-18.86.1c.001.013.085.109.304.342 1.032.961-.249-.324-.303-.342zm66.975.17c-.044.003-.104.041-.178.14.291.385.35-.151.178-.14zm-19.186.004c-.02.002.022.12.17.432.313.467.44.632.461.63l.002-.002c.024-.047-.574-1.065-.632-1.06zm5.194.142c-.05.003-.21.104-.422.346.325-.181.447-.31.437-.34l-.001-.002h-.001v-.001h-.001zm-11.489.173c-.017.005.023.134.17.48.738 1.152-.105-.498-.17-.48zm1.095.06c-.208-.138.266.22 1.805 1.81.18.242.251.335.267.336h.002v-.001c.021-.047-.503-1.02.212-.977-1.187-.394-2.077-1.03-2.285-1.167zm11.631.121v.001l-.003.001c-.013.015-.03.103-.05.31.02.215.038.301.051.31l.002.002h.002l.003-.002c.032-.038.032-.598-.001-.621h-.003zm-78.99.085c-.019.003-.071.053-.175.187-.031.102-.036.15-.027.163l.002.002.001.001.004.001c.048-.002.224-.315.204-.35v-.001h-.001l-.001-.001-.002-.001zm58.506.21c-.037 0-.038.042.034.15.834.457.114-.155-.034-.15zm11.204.063c-.092.032.974 1.829 1.785 2.557-1.24-1.938-1.728-2.576-1.785-2.557zm21.567.095c-.049.003-.21.104-.42.346.324-.181.446-.31.435-.34v-.001l-.001-.002-.001-.001a.02.02 0 0 0-.013-.003zm-2.27.002c-.04.006-.069.158-.065.576.385.75.182-.596.064-.576zm4.178.037c-.021.003-.024.061.014.214.1.113.149.143.165.13.038-.037-.126-.351-.179-.344zm-47.517.194c-.017.004-.04.028-.072.084.016.141.036.192.054.195.045.002.081-.292.018-.279zm44.483.043c-.089-.004-.237.017-.455.087.46.163.721-.075.455-.087zm-17.08.172c-.072 0-.05.267.237 1.067.422-.026-.093-1.068-.237-1.067zm20.898.31c-.059 0-.139.061-.24.236.375.587.448-.23.24-.235zm-54.848.013c-.016.002-.04.025-.074.084.016.139.036.19.054.195h.002c.044-.006.078-.285.018-.28zm25.35.118c.78-.012 1.334 2.68 1.967 3.641.034.405-.198.374-.545.125.874 1.26 1.36 2.709.908 3.328a32 32 0 0 1-1.003-.76c.567.602 1.301 1.719.06 2.382-2.47-2.097-.833-1.144-4.522-2.864-3.746-1.546-.97-1.08-.003-1.997-1.36.478-.705-1.373.042-.042.282-.297.38-.73.046-1.403.73-1.087 1.733-1.033 2.687-.438-.293-.337-.517-.606-.588-.688.356-.922.668-1.28.95-1.284zm-.363 1.972c.527.606 1.279 1.431 1.785 1.794-.501-.724-1.131-1.386-1.785-1.794zm-2.733 1.841-.041.041q.026-.008.053-.02zm4.423 2.521c-.236-.25-.444-.41-.469-.413h-.001v.001h-.001v.002c.008.021.139.146.47.41zm-5.764-6.243c-.006.017.19.264.768.929 1.098 1.028-.75-.981-.768-.93zm-20.262.02c-.043.007-.078.104-.077.364.37.275.195-.384.077-.364zm39.91.032c-.248.01-.772.3-1.021.933 1.228-.6 1.301-.945 1.02-.933zm-45.426.075c.068-.003.224.076.51.297.28 1-.78-.285-.51-.297zm49.382.147c-.043 0-.145.097-.327.392.25.022.414-.391.327-.392zm-23.754.087c-.016.011.004.172.094.588.518 1.311-.03-.609-.094-.588zm-30.788.113c2.12.005 2.657 3.813-1.3 4.737a1.6 1.6 0 0 1-.598.415q.258-.03.56-.028c1.745.044 3.847-4.129 5.83-2.814-.15-.49.637-1.63 1.058-1.536-.142-.348-.079-.567.63.254-.002.504-.204.41-.39.168.027.235.008.578-.076 1.06-.454.221-.761.292-.956.265q.26.238.516.625c1.11-.18-2.768 4.607-5.488 4.928q.205.112.49.312c2.154 1.093 6.339-7.246 6.101-4.725.416-1.734 2.09.946.5.726 2.88.726-3.144 6.579-5.273 5.63-.821.568-2.462-1.379-2.455-1.958a1.6 1.6 0 0 1-.51-.186c-2.344.013-2.92-2.085-1.031-2.624-.899.02-1.803-.745-1.946-1.675-.277 2.424-1.936-3.424 1.203-3.335-.095.99-1.341 1.75 1.046.798.778-.742 1.495-1.038 2.09-1.037zm-4.338 3.574c.02-.179.034-.402.037-.677-.062.23-.07.458-.037.677zm1.946 1.675q.25-.005.494-.097-.27.032-.494.097zm1.54 2.81c.203.038.417.04.638.015-.453-.25-.635-.207-.637-.015zm5.61-5.538a2 2 0 0 0-.266-.211c.035.112.118.19.266.21zm1.032-1.325c-.03-.27-.12-.396-.24-.422.056.14.146.3.24.422zm53.509-1.106c-.08.012-.381.533-.813 1.421l.359.063c.405-1.041.53-1.495.454-1.484zm-58.132.185c.017-.005.084.068.231.28.067.183.083.261.07.274-.04.029-.328-.504-.305-.551l.001-.002.003-.002zm-4.58.003c-.047 0-.105.059-.171.218.334.374.32-.223.17-.218zm15.83.143c.025-.007.11.157.296.639.133 1.083-.376-.617-.297-.64zm22.502.104c-.035.008.1.127.555.444 1.59.745-.436-.47-.555-.444zm5.96.006c-.217.003-.213.738.448 2.242.001.947.31-.015.407-.222-.228-1.34-.645-2.024-.855-2.02zm-2.71.35c-.038.004 0 .095.184.34 1.013.706-.048-.35-.183-.34zm26.937.032c-.029.004-.037.112.004.41.365.538.085-.423-.004-.41zm-11.09.207c-.084.002-.334.322-.651 1.134.6-.646.754-1.137.65-1.134zm-.525.021c-.029.002-.072.063-.13.229.17.378.226-.236.13-.229zm6.072.026c-.044.008-.08.216-.084.791.411.956.215-.816.084-.79zm-17.006.155c-.046.005-.04.167.076.616.708.894.066-.632-.076-.616zm18.178.303c-.066.015-.773.986-.79 1.262.631-.927.817-1.25.793-1.262zm-53.896.022c.55-.009 3.726 2.213 4.383 4.178 3.4 1.79 6.358 5.192 3.624 4.443a61 61 0 0 1-1.083-.842c.974.994 2.12 2.669-.556 2.865-1.066-1.1-1.425-1.481-1.444-1.48-.025.03 2.203 2.595.32 1.825.711 1.932-5.52-4.234-3.088-2.469-.11-.51.085-.634.479-1.758.435-.417.202-1.668-.196-2.865-1.309-.09-.714-.919-.074-.215a13.4 13.4 0 0 0-.82-1.892q-.26-.225-.474-.418c.227.426-1.143-.723-.479-.45-.658-.646-.783-.919-.592-.922zm.592.922q.204.2.48.45a2.4 2.4 0 0 0-.248-.34 3 3 0 0 0-.232-.11zm1.773 2.76.074.215.093.005a1.7 1.7 0 0 0-.167-.22zm4.559 4.097c-.418-.426-.804-.727-.846-.734h-.002v.003c.003.025.235.241.848.73zm25.944-7.726a.3.3 0 0 0-.155.057c.287.393.377-.06.155-.057zm13.544.15c-.097.009-.368.514-.74 1.854.685-.973.87-1.866.74-1.854zm-20.165.113c-.043.004.001.106.214.38 1.226.845-.058-.394-.214-.38zm8.806.174-.002.001c-.02.016.068.194.383.679.34.183-.314-.688-.381-.68zm22.851.067c-.045 0-.08.092-.072.356.426.408.204-.355.072-.356zm-24.944.013c-.03.005.133.315.665 1.19 1.242 1.531-.577-1.203-.665-1.19zm-7.026.105c-.021.005.022.137.187.491.759 1.023-.11-.507-.187-.49zm31.02.688c-.06.006-.203.087-.467.305.24.142.62-.322.467-.305zm6.312.07c-.017 0-.042.024-.077.086.016.142.037.193.055.194.044-.002.078-.277.022-.28zm-10.212.12c-.05.004-.144.046-.301.156.153.232.464-.166.3-.155zm4.383.1q-.002 0-.004.002c-.016.012-.018.075.012.222.094.12.14.154.155.14.037-.037-.113-.37-.163-.364zm-30.967.092-.002.001-.001.002c-.004.012.025.057.106.151.219.164.308.218.322.215h.001v-.001l.001-.001v-.002c-.01-.043-.38-.369-.426-.365zm29.097.29c-.098.009-.15.23-.045.857.815.379.287-.879.045-.857zm-.982.04c-.087 0-.275.164-.54.653.546-.188.685-.65.54-.652zm-27.288.043c-.047.01.089.402.61 1.53.775.817-.493-1.556-.61-1.53zm-66.546.015c-.025.003-.052.076-.074.27.257.743.172-.281.074-.27zm72.614.096h-.001c-.015.007-.035.056-.06.175.025.118.045.167.06.174h.007c.037-.02.037-.327 0-.348h-.001l-.003-.001zm-72.747.806h-.001c-.015.007-.035.056-.06.175.025.118.045.168.06.175h.006c.036-.021.037-.328 0-.35h-.005zm57.062.009c-.165.5.076.732.439.846.027-.027.061-.027.098.028.923.23 2.41-.145.445 1.04-2.825 1.029-3.403.418-.982-1.914zm.537.874-.098-.028c-.089.089-.1.461.144.126a.5.5 0 0 0-.046-.098zm-2.063-.713c.045-.003.107.034.187.14-.285.377-.347-.13-.187-.14zm7.075.036c-.026.003-.005.097.108.353.58.634-.022-.365-.108-.353zm17.048.09c-.081.004-.164.251-.21.955.661.95.44-.969.21-.956zm-11.637.29c-.03.002-.017.05.068.172.27.18.375.23.388.212.022-.043-.376-.39-.456-.384zm-67.69.444c-.028.002-.072.063-.13.229.17.378.226-.237.13-.23zm97.665.018c-.033.005-.037.101.019.357.504.614.088-.375-.02-.357zm-21.71.596c-.248.01-.22 2.695.312 3.172 1.499-.713 1.235-4.173.2-.895-.216-1.693-.395-2.282-.512-2.277zm-44.772.298c-.037.007.052.179.375.642 1.329 1.23-.251-.667-.375-.642zm-31.799.208h-.002c-.015.007-.035.057-.06.175.025.119.045.168.06.175h.006c.037-.021.037-.328 0-.349zm69.011.052h-.001v.001h-.001v.001c-.006.013.023.076.11.216.173.182.25.25.269.253h.002l.001-.001.001-.003c0-.046-.342-.475-.38-.467zm-4.961.058c-.014.012.094.183.427.631.235.234.332.313.343.3.024-.053-.728-.95-.77-.931zm-64.149.015c-.016-.018-.106.633-.326 2.537-.245 3.604.373-2.482.326-2.537zm67.205.012c.536.615.89 1 1.114 1.233-.208-.11-.383-.026-.08.9-.248 1.204-1.227-1.803-1.034-2.133zm21.715.044c-.03.003-.057.076-.07.272.313.56.175-.283.07-.272zm-19.033.44c-.02.003-.072.053-.177.187-.03.102-.035.15-.026.163l.002.002.003.001c.045.008.226-.314.206-.35l-.003-.003zm-23.868.107h-.001l-.002.003c-.003.011.025.056.106.15.219.163.308.219.323.215l.001-.001v-.001c.001-.036-.384-.375-.427-.366zm32.468.117c-.043.004-.1.06-.172.205.282.566.34-.221.172-.205zm20.206.04c-.05.001-.032.157.147.606.548.38-.02-.613-.147-.607zm-25.976.06-.002.003c-.012.016-.03.123-.051.371.02.328.036.452.048.459h.003c.031-.036.038-.783.006-.83l-.002-.002h-.002zm-17.825.163a1 1 0 0 0-.236.051c.054.21.43-.051.236-.051zm-7.988.388c-.04.001-.027.043.091.158.26.108.368.137.389.124l.002-.003c.015-.043-.387-.281-.482-.279zm23.4 0c.123-.011.119.323-.209 1.334-1.258.987-.107-1.303.209-1.333zm33.67.015c-.032 0-.069.04-.105.144.275.378.225-.148.105-.144zm-10.36.02c-.018.001-.073.105-.186.386-.201 1.102.235-.313.191-.383l-.002-.002zm-27.938.378c-.011.012.12.203.518.72.175.174.253.239.267.234.04-.028-.74-.956-.785-.954zm-18.88.046-.001.001c-.009.014.01.092.078.27.157.252.226.343.241.343h.002c.022-.031-.276-.614-.32-.614zm-11.775.026h-.002c-.01.012.012.087.09.261.209.295.296.396.312.392h.001v-.001c.017-.042-.355-.66-.401-.652zm59.323.048c-.017.002-.04.026-.074.085.015.136.034.189.052.194h.004c.044-.005.078-.284.018-.279zm7.12.135c-.016 0-.041.023-.076.084.015.139.035.191.053.195h.004c.043-.01.076-.277.02-.28zm-58.627.126c-.058-.047.02.042.376.406 1.194 1.113-.203-.263-.376-.406zm20.942.099c.045-.003.06.07.004.285-.623.56-.152-.275-.004-.285zm-16.315.238-.001.001c-.002.013.08.108.302.337.279.229.39.31.404.307v-.003c-.012-.049-.673-.653-.705-.642zm51.364.172a.3.3 0 0 0-.156.058c.287.392.378-.061.156-.058zm2.723.153c-.036.008-.013.365.125 1.347.758 2.499-.007-1.372-.125-1.347zm-28.693.012h-.003c-.014.011-.033.08-.057.237.018.216.034.306.048.319h.002l.002.001h.002l.002-.001c.032-.036.043-.515.01-.554q0 0-.003-.002h-.004zm16.706.3c-.032.007-.054.111-.047.395.35.58.15-.414.047-.394zm-46.667.277h-.001l-.001.001v.002c0 .012.026.06.096.16.175.183.25.252.267.258h.003v-.001l.001-.001c-.007-.039-.328-.415-.364-.419zm23.209.12c-.032 0-.069.04-.106.144.276.379.226-.148.106-.144zm35.214.385c-.017.002-.04.026-.074.085.015.136.034.188.052.193l.003.001c.044-.002.08-.284.02-.28zm-101.781.062c-.015.002-.036.048-.065.168.018.174.035.244.05.253h.006l.001-.001c.034-.035.049-.388.013-.418l-.002-.002zm78.376.275c-.051.004-.15.102-.313.38.257.215.443-.39.313-.38zm-34.278.152c.004.018.142.162.503.514 1.583 1.365-.462-.525-.503-.514zm16.957.286v.001l-.001.002c.002.017.075.102.268.293l.32.302c.188.036-.54-.604-.586-.598zm11.095.485c-.06.002.022.382.456 1.501.162-.386-.355-1.504-.456-1.5zm-23.908.231c-.077.008-.332.264-.786.967.613-.429.901-.98.786-.967zm16.648.263c-.165 0-.574.18-1.258.723 1.072-.143 1.552-.722 1.258-.723zm36.549.28c-.053.01-.027.273.23 1.013.18-.326-.14-1.031-.23-1.013zm1.173.05c-.12.002-.049 1.701.302 3.557l.161.438-.02-1.505c-.211-1.797-.366-2.492-.443-2.49zm-29.296.538c-.017.006-.046.16-.093.566.013.465.031.624.05.612.046-.045.093-1.196.043-1.178zm6.401.067c-.017-.001-.041.022-.076.084.015.139.035.19.053.195h.004c.043-.01.075-.277.02-.28zm-.1.45c-.069.008-.258.235-.557.86.49-.38.662-.87.557-.86zm-12.486.376c.034-.005.073.032.113.144-.27.37-.227-.128-.113-.144zm-2.291.316c1.57.02 2.42.943-1.4 3.748-4.262 3.718-1.051-1.565.245-3.629.391-.08.792-.123 1.155-.119zm-15.565.03c-.003-.005-.18.054-.68.236-.178.075-.255.111-.265.12h-.001v.001c.037.003.952-.348.946-.358zm35.72.062c.044-.003.107.033.186.14-.285.377-.347-.13-.187-.14zm-20.463.049c-.032.004-.236.185-.738.682-.954 1.239.77-.617.742-.68zm34.508.255c.026.001.035.043.01.152-.18.191-.257.245-.276.23l-.002-.002c-.03-.044.192-.383.268-.38zm-20.049.006c-.026.005-.103.111-.262.398-.102.629.32-.35.268-.396zm-28.838.762c-.068-.002-.18.247-.323.995.404.137.465-.992.323-.995zm22.924.333-.001.001c-.018.012 0 .123.094.408.388.518-.03-.426-.093-.409zm-5.308.61c.044-.002.107.034.187.14-.285.378-.348-.13-.187-.14zm16.186.103c.355-.018 1.043 1.894 1.06.506.14 2.338.377.818.432.772l.003-.001c.018.008.01.24-.04.986-.268 1.732-1.22-.355-1.651-.814-.045-1.09.046-1.442.196-1.45zm15.524.083h.001c.012.008.032.155.06.526-.032 2.1-.11-.486-.061-.525zm-.83.125c.375.696-.683-.004 0 0zm-25.235.124c-.113.002-.112.286.294 1.08.274-.485-.13-1.083-.294-1.08zm26.618.165q.012-.001.024.011c-.186.96-.271 1.266-.294 1.252-.041-.041.14-1.245.27-1.263zm-41.365.195c-.047.002-.24.304-.674 1.201.316-.118.762-1.206.674-1.201zm-6.882.267c.032-.017-.19.039-.894.235-.378.122-.53.175-.54.184v.001c.044.006 1.362-.384 1.434-.42zm27.71.376c.435 1.86-.516 1.589 0 0zm12.768.31c-.044.003-.102.041-.177.14.291.385.35-.151.177-.14zm-7.27.305h-.001c-.013.01-.031.097-.055.306.018.265.035.373.048.387l.002.001h.002c.033-.026.042-.658.009-.692l-.002-.001zm-5.847.14c.374.696-.683-.004 0 0zm-5.552.204c-.017.002-.042.026-.075.085.016.14.036.192.054.194h.003c.044-.009.077-.284.018-.279zm-21.274 0c-.05.008-.173.144-.309.48.315-.28.373-.488.31-.48zm41.139.178h-.001v.001l-.002.003c0 .014.03.06.107.15.215.16.304.216.321.214h.003v-.003c-.005-.04-.39-.379-.428-.365zm-36.03.417c-.03.007-.088.106-.191.372.049.627.286-.394.19-.372zm-2.834.051c-.045.006-.486.197-1.658.736-1.096.626 1.63-.68 1.661-.734v-.002zm26.411.086c-.012.006-.03.091-.054.305.018.27.035.377.048.388h.005c.031-.034.04-.658.007-.692l-.003-.001h-.002zm-7.13 1.541h-.001c-.015.008-.036.057-.06.175.025.12.044.168.06.175h.007c.036-.02.037-.328 0-.349h-.004zm-17.172.181c-.05.003-.21.105-.422.347.323-.18.445-.309.437-.34v-.002h-.001l-.001-.001-.001-.001zm-7.952.07a.5.5 0 0 1 .188.042c-.253.56-.532-.041-.188-.042zm25.266.434c-.016.003-.04.028-.072.084.015.136.035.19.053.195h.003c.044-.002.08-.292.017-.279zm-18.435.003c-.177.002-.35.03-.44.107 1.536.119.97-.113.44-.107zm2.71.23c-.015.01.033.1.195.332.213.202.301.27.316.262.033-.03-.46-.601-.51-.594zm15.876.367c-.015.005-.036.053-.064.168.017.165.034.236.048.25l.003.002.002.001h.006l.002-.002c.033-.034.048-.381.013-.416l-.002-.001-.003-.002h-.004zm-23.329.15c-.032.007.027.172.258.611 1.084 1.236-.144-.64-.258-.612zm8.596.771h-.001l-.002.002-.001.002c-.002.013.028.058.106.15.219.163.308.219.322.215h.001l.001-.003c-.004-.04-.38-.37-.426-.366zm27.87.034c-.03.002-.073.063-.131.229.17.378.225-.237.13-.23zm-28.972.009c-.001.013.135.155.503.514 1.575 1.358-.441-.506-.503-.514zm32.717.958c-.036.002.122.142.629.525 2.229 1.321-.496-.53-.629-.525zm-31.376.141c-.011.014.094.182.424.625.155.145.223.195.235.184.034-.047-.622-.83-.659-.809zm2.465.203h-.001v.001l-.002.002c-.003.012.026.057.106.15.211.158.302.215.32.216h.002l.001-.001.001-.001c.001-.036-.384-.375-.426-.366zm1.943.049c-.144.015.26.555 1.748 1.72-.77-1.119-1.59-1.737-1.748-1.72zm-17.264.549h-.001v.003c.001.017.076.102.269.293l.32.302c.186.036-.534-.597-.587-.598zm15.902.198c-.057.006.271.387 1.331 1.458 2.619 2.027-1.159-1.475-1.331-1.458zm-1.245.57c-.016.013.214.305.911 1.11 1.415 1.318-.86-1.15-.91-1.11zm-9.752.275c-.167-.007-.514 1.176.025.916.086-.682.048-.913-.025-.916zm14.894.063c-.017.001-.041.026-.075.085.016.14.036.192.055.195h.003c.043-.01.076-.285.017-.28zm-3.765.313h-.002v.001h-.001l-.001.003c-.002.013.027.058.106.15.215.16.305.216.321.214h.003v-.003c-.004-.04-.379-.37-.425-.365zm-5.696.018c-.064.005-.234.166-.448.578.431-.317.533-.585.448-.578zm32.166.17c-.03.004-.08.057-.155.192.048.715.284-.207.155-.192zm-32.148.255c-.06.003-.133.102-.179.39.364.001.302-.395.18-.39zm8.73.039h-.002l-.003.001c-.015.01-.034.06-.057.174.023.114.042.164.056.173l.003.002h.008c.036-.025.036-.323.001-.348h-.002l-.003-.002zm-2.682.014v.002c.003.016.088.11.31.328.302.244.42.331.433.328v-.001c-.007-.041-.712-.666-.742-.656zm24.406.515c-.07.003-.099.088-.026.322.934.541.256-.33.026-.322zm5.547.263c-.04.006.037.243.346.903.997 1.228-.223-.921-.346-.903zm-44.582.152a.6.6 0 0 0-.205.05c.467.323.51-.057.205-.05zm4.072.278q-.024-.002-.074.085c.016.142.036.193.055.194.044-.002.079-.285.02-.28zm43.815.121c-.053.012-.044.777.14 3.034.337.071-.032-3.059-.14-3.034zm-8.449 1.384c-.033.002.029.102.267.374 1.258.929-.144-.38-.267-.374zm5.988.252c-.03.006-.007.188.136.7.498.734-.047-.716-.136-.7zm-38.417.379c-.06-.002-.139.11-.163.447.318-.123.264-.444.163-.447zm39.17.762c-.023 0-.027.058.012.214.097.108.145.14.163.131l.004-.004c.029-.047-.127-.344-.18-.341zm1.739.854h-.001c-.015.006-.036.054-.06.175.024.121.045.17.06.175h.006c.037-.021.037-.328 0-.349h-.001l-.002-.001zm-1.762.423c-.037 0-.236.131-.73.521.097.105.747-.465.736-.517l-.001-.002q-.002-.002-.005-.003zm7.246.774c-.041.004-.023.142.135.534.488.35-.027-.545-.135-.534zm-43.208.294c-.017.002-.041.026-.074.085.016.143.036.193.055.194.044-.002.078-.285.019-.28zm35.773.416c-.06.003-.157.02-.304.061.117.192.562-.073.304-.061zm10.937.405c.97 2.332.655 3.76-.116 5.972a26 26 0 0 1-1.285 1.176c.384-.162.88-.147.933.858-3.97 2.79-.113 1.399 1.363-1.584 3.425.177-1.413 4.405-5.31 5.624l-1.234.176-1.037-.067c-3.839-3.19 3.335-1.273 1.54-1.924-4.052-.254-.384-.9-.513-.541 4.787-2.496-2.845 1.476-3.415-1.86-5.52-3.507.062-.646 2.998-.968 1.581-.56 2.954-1.34 3.998-2.401-.189.043.03-.537.18-.19a7.23 7.23 0 0 0 1.741-3.351c-.064-.055-.138-.23.01-.259l.028.087q.075-.363.118-.748zm-.12.748-.037.172c.047.04.09.017.038-.172zm-1.778 3.523a8 8 0 0 1-.18.19c.043-.01.107-.052.198-.144zm.497 2.877c-.25.106-.45.286-.454.32v.003h.001l.001.001c.023.005.155-.076.452-.323zm-48.933-5.992c-.05.002-.053.066.074.248.433.083.046-.254-.074-.248zm6.104 2.156c-.11.009-.556.236-.845.567.676-.36.889-.53.867-.562l-.001-.002q-.007-.004-.021-.004zm34.667.998h-.002c-.015.008 0 .085.068.275.15.216.217.288.233.28l.002-.002c.022-.045-.249-.552-.3-.553zm-39.775.025c-.194.009-.537.193-1.017.72 1.152.09 1.444-.74 1.017-.72zm48.799.03c-.03.001-.073.062-.131.228.17.379.226-.237.13-.229zm1.424.69c.132-.002.061.515-.463 2.016-1.819 1.953.098-2.011.463-2.016zm-4.338 1.449c-.852.027-4.738 1.506-2.45 1.85.247.635.458-.817.868-.745 1.73-.83 1.97-1.118 1.582-1.105zm-48.092.971c-.07.003-.035.103.195.37 1.963 1.12.08-.38-.195-.37zm44.037.182c-.094 0-.235.038-.423.142.565.173.705-.146.423-.142zm1.67.158c.042-.002.103.031.185.123-.227.552-.373-.115-.186-.123zm-37.422.31c.138-.005.101.199-.312.792-.323.185-.556.3-.717.364.917-.217 1.601-.127.377.896-3.592.5-2.004-.445-.612-.835-.377-.008.936-1.202 1.264-1.216zm-1.264 1.217a.7.7 0 0 0 .235-.061 6 6 0 0 0-.235.061zm45.641-1.161c-.046.003-.2.084-.526.299-.63.761.699-.312.526-.3zm-49.962.672c-.057.005-.19.052-.442.169-.298.433.665-.189.442-.169zm48.932.126c-.056-.001-.136.094-.184.379.305-.11.278-.378.184-.38zm-47.04.949c.073 0 .16.023.261.08-.61.54-.65-.086-.26-.08zm43.445.153a1.3 1.3 0 0 0-.33.062c.112.184.528-.055.33-.062zm-45.107.11c-.05-.001-.187.046-.458.175-.273.425.638-.175.458-.176zm41.64.63c-.049.005-.072.062-.036.208.774.495.22-.223.036-.207zm2.529.209a1 1 0 0 0-.237.051c.054.21.431-.051.237-.051zm-1.653.131c-.055.004-.12.044-.195.146.44.385.41-.161.195-.146zm8.694.959c.042-.003.11.03.216.119-.057.556-.395-.108-.216-.12zm-6.422 1.324a2 2 0 0 0-.364.055c.115.14.46.023.461-.032-.001-.014-.03-.025-.097-.023zm-45.737.545c-.287.006-.376.089.028.311 3.489.341.835-.33-.028-.311zm52.894.122c-.027.005-.115.084-.3.288-.361.737.352-.234.308-.286q-.003-.002-.008-.002zm-1.073.255c-.246.015-.957.537-1.527 1.611 1.524-1.072 1.789-1.628 1.527-1.611zm-52.273.995c.449.012 1.024.234 1.797.79 1.394.78 4.311-2.425 5.497 1.557-2.39 4.666 1.63 2.055-.347-1.743 2.36-.104 1.594 4.26 3.533 5.425 2.65 4.676-2.67 5.696-6.038 5.158-.24-.985-.302-.772-2.787.623l-.497.186c.936-.787.911-6.855-1.596-4.601.48-2.46-2.03-2.554-2.76-3.733-4.52.764-3.765.493.076-1.273 1.544.226 1.522-2.429 3.122-2.389zm52.22.832c-.065-.002-.148.059-.23.24.44.17.397-.236.23-.24zm-2.835.274c-.119-.007-.476.086-1.178.39.765.007 1.405-.376 1.178-.39zm-49.68.138c-.045-.002.047.069.383.264.61.254.844.337.864.326l.001-.002c0-.046-1.127-.584-1.248-.589zm52.19.186c-.047 0-.193.062-.494.226-.637.69.682-.23.494-.226zm-5.223.551c-.1-.007-.315.005-.705.053.2.122.742.022.771-.03l.002-.004q0-.002-.002-.004-.009-.011-.067-.016zm-1.004 1.218c.21-.006.464.104.76.4-1.715 2.36-1.767-.37-.76-.4zm4.08.499c-.34.005.039.284 1.875.721l.57.208c-1.044-.664-2.105-.934-2.445-.93zm-47.866.823c-.017.002-.04.026-.074.085.016.143.036.194.055.195.044-.003.079-.285.019-.28zm46.634.013a4 4 0 0 0-.486.056c.164.13.626.015.617-.035l-.002-.004c-.009-.012-.049-.02-.13-.017zm-2.008.417c-.032.002-.081.04-.152.137.14.393.278-.145.152-.137zm8.661.12c-.023.004-.121.083-.343.286-.138.18-.187.258-.182.272h.001c.035.02.54-.517.53-.556h-.001v-.001zm-48.544.517c-.081.002-.28.07-.545.257.534-.122.664-.26.545-.257zm-13.254.184c-.083-.003-.356.142-.828.559.665-.238.95-.555.828-.559zm55.046.114a.9.9 0 0 0-.237.05c.054.211.431-.05.237-.05zm-.699.14c-.032.002-.081.04-.152.137.14.394.279-.145.152-.137zm.94.256a4 4 0 0 0-.485.055c.164.132.625.016.617-.035l-.001-.003c-.008-.012-.048-.02-.13-.017zm-47.246.1c-.052.004-.058.138.111.498.136-.239-.036-.506-.111-.499zm2.849.255c-.044-.002-.105.032-.186.124.227.551.373-.116.186-.124zm-12.648.111c-.113.001-.674.244-1.633.845 1.253-.497 1.77-.847 1.633-.845zm62.772.346c-.01.012.077.18.333.61.31.417.434.566.449.561.018-.044-.744-1.187-.782-1.17zm.687.09c-.08 0-.155.035-.175.136.604.09.377-.136.175-.136zm-50.667.012c-.056 0-.136.095-.184.379.305-.108.278-.377.184-.379zm46.221.386a.6.6 0 0 0-.212.058c.273.395.495-.061.212-.058zm-61.083.049c-.112.003-.294.043-.559.148.598.155.894-.158.559-.148zm-3.344.106c.081.006.006.124-.382.444-1.823.72.116-.463.382-.444zm-3.26.578c.112-.004.08.074-.254.3-2.022.591-.113-.289.253-.3zm1.053.117c.055-.002.158.014.33.062-.113.185-.528-.054-.33-.062zm.964.263a.21.21 0 0 1 .184.075c-.862.398-.49-.058-.184-.075zm-1.392.146c.11-.004.219.034.295.145-1.082.41-.687-.132-.295-.145zm66.669.136c.032-.002.07.036.11.144-.274.375-.227-.137-.11-.144zm-68.739.286c.02.525-1.647 1.418 0 0zm11.42.159-.002.001c-.01.011.01.088.079.27.151.243.22.337.24.343h.003l.001-.002c.013-.046-.278-.613-.32-.613zm.409.984c-.019.005-.049.071-.093.238.065.694.168-.26.093-.238zm9.136.149c-.05 0-.166.103-.378.398.21.25.507-.402.378-.398zm40.904.32c-.076.008-.36.179-.85.624.671-.332.955-.633.85-.623zm-63.874.01c.066-.003.108.051.11.186-2.264 2.628-.576-.168-.11-.186zm73.03.033-.004.002c-.017.013-.02.092.011.28.1.163.148.209.164.191.037-.05-.119-.481-.171-.472zm-.182.835c-.051.004-.05.1.093.37.412.083.024-.38-.093-.37zm-6.537.407c-.066.011-.236.239-.429.793.429-.465.514-.807.43-.793zm6.624.751h-.001c-.014.01-.033.079-.055.243.022.165.04.233.054.242l.002.001h.004q.001 0 .002-.002c.032-.034.033-.448 0-.482l-.002-.002h-.004zm-73.786.2c-.056 0-.137.096-.184.38.305-.11.278-.378.184-.38zm69.828.51c-.024.005-.062.118-.117.415.113.907.203-.434.117-.415zm-6.75.347-.002.001-.002.001c-.01.012-.006.06.026.164.106.137.159.187.177.188h.003l.002-.001.001-.001.001-.002c.018-.04-.158-.353-.204-.35zm10.845.22-.002.001c-.015.007-.035.056-.06.175.025.119.045.168.06.175h.008c.036-.021.036-.328 0-.35h-.005zm-4.24.353c-.02.003-.072.054-.177.187-.031.104-.036.152-.025.164l.003.003c.043.012.224-.31.207-.35v-.002h-.003v-.001h-.002l-.004-.001zm-66.285.016c-.046.001-.105.06-.17.218.333.374.32-.222.17-.218zm64.104.396c-.027.002-.03.074.014.266.486.64.082-.275-.014-.266zm2.06.293c-.15.005-.5.197-.99.737.97-.298 1.224-.746.99-.737zm4.424.042-.001.002c-.005.017.067.128.276.393.275.26.387.35.403.344.025-.035-.637-.756-.678-.739zm-13.71.144c-.024.005.038.078.253.267.363.218.503.287.516.274.02-.039-.704-.554-.77-.541zm12.289.062c-.035.008-.173.2-.484.752.152.072.528-.703.49-.75q-.001-.002-.006-.002zm.515.18c-.039 0-.15.044-.38.169-.262.398.441-.11.394-.164a.03.03 0 0 0-.014-.005zm-14.348.126c-.05.003-.144.045-.301.155.153.232.464-.167.301-.155zm15.262.144h-.002c-.013.015.044.126.229.4.21.202.298.269.314.259.036-.038-.487-.67-.541-.66zm-6.903.274c-.016 0-.04.025-.074.084.015.139.035.19.053.195h.003c.044-.006.078-.285.019-.28zm-2.195.954a4 4 0 0 0-.487.055c.163.13.62.017.617-.034v-.004c-.009-.012-.048-.02-.13-.018zm7.033.526c.067.03.416.155 1.262.442a1 1 0 0 0 .201.04c-.004-.037-1.63-.558-1.463-.482zm-3.445.064q-.054 0-.064.01c-.017.026.248.106 1.098.264-.031-.15-.802-.274-1.034-.274zm-.329.498c-.032.002-.081.04-.152.137.139.394.278-.144.152-.137zm-5.995.752q.059-.001.148.042c-.224.557-.422-.043-.148-.042zm-4.325.06c-.029.002-.107.033-.263.115-.06.073-.077.108-.065.118.039.029.347-.19.34-.228v-.003h-.001l-.002-.002z" style="fill:#000;stroke:#000;stroke-width:1.106;stroke-dasharray:none;stroke-opacity:1"/></svg>