<?xml version="1.0" encoding="UTF-8" standalone="no"?>
<!-- Created with Inkscape (http://www.inkscape.org/) -->

<svg
   width="153.02699mm"
   height="230mm"
   viewBox="0 0 153.02699 230.00001"
   version="1.1"
   id="svg1"
   xml:space="preserve"
   sodipodi:docname="hag.svg"
   inkscape:version="1.4.4 (dcaf3e7, 2026-05-05)"
   xmlns:inkscape="http://www.inkscape.org/namespaces/inkscape"
   xmlns:sodipodi="http://sodipodi.sourceforge.net/DTD/sodipodi-0.dtd"
   xmlns:xlink="http://www.w3.org/1999/xlink"
   xmlns="http://www.w3.org/2000/svg"
   xmlns:svg="http://www.w3.org/2000/svg"><sodipodi:namedview
     id="namedview1"
     pagecolor="#ffffff"
     bordercolor="#000000"
     borderopacity="0.25"
     inkscape:showpageshadow="2"
     inkscape:pageopacity="0.0"
     inkscape:pagecheckerboard="0"
     inkscape:deskcolor="#d1d1d1"
     inkscape:document-units="mm"
     inkscape:zoom="0.67433264"
     inkscape:cx="543.50031"
     inkscape:cy="518.2902"
     inkscape:window-width="1920"
     inkscape:window-height="1009"
     inkscape:window-x="2552"
     inkscape:window-y="143"
     inkscape:window-maximized="1"
     inkscape:current-layer="svg1" /><defs
     id="defs1"><linearGradient
       id="swatch2"
       inkscape:swatch="solid"><stop
         style="stop-color:#000000;stop-opacity:1;"
         offset="0"
         id="stop2" /></linearGradient><linearGradient
       id="swatch1"
       inkscape:swatch="solid"><stop
         style="stop-color:#669955;stop-opacity:1;"
         offset="0"
         id="stop1" /></linearGradient><linearGradient
       inkscape:collect="always"
       xlink:href="#swatch1"
       id="linearGradient2"
       x1="46.169907"
       y1="157.42834"
       x2="111.88632"
       y2="157.42834"
       gradientUnits="userSpaceOnUse"
       gradientTransform="matrix(1.2160358,0,0,1.087652,-15.488509,-15.376441)" /></defs><path
     style="fill:#000000;stroke:url(#linearGradient2);stroke-width:0.115005;stroke-dasharray:none"
     d="m 78.154634,228.8892 c 1.359054,-1.00105 1.791254,-3.62669 2.887452,-5.41445 1.15954,-3.78786 -3.024901,3.58689 -0.491278,-0.93773 0.03749,-1.7477 -1.965452,1.10883 -3.198198,-0.54066 1.632903,-1.60403 -1.252888,-1.13872 -2.255345,-1.00979 -3.184581,-0.55811 -2.318172,-0.8895 -1.846392,-4.66495 0.383337,-1.79413 -0.647422,-1.14427 -1.09901,-2.75193 -0.154169,7.37968 -0.762431,-0.53269 -1.083653,-4.06151 -0.108369,4.53663 -0.254766,-0.2412 -0.737963,0.79418 0.664253,3.48836 0.217538,1.23302 0.131611,3.05559 0.402057,2.91372 0.499505,2.16505 -0.147736,2.42864 1.22993,3.74028 1.468584,7.83583 -4.321281,6.73104 -1.976451,1.80703 -10.368402,0.50464 -7.83567,1.05684 3.088742,-0.57425 3.973725,-2.15843 4.624089,-1.95248 -3.391273,4.21368 3.937425,-1.66568 -0.131689,0.71877 0.943382,-2.43676 0.802728,-2.87455 0.278618,-3.11347 1.35017,-1.89153 -5.808105,4.94741 -1.454136,0.99786 0.864045,-2.01577 3.58658,-2.76095 1.939225,-3.16462 2.317428,-0.93402 1.918506,-0.99234 2.183849,0.21957 1.15526,-1.71456 -1.43488,-2.96345 0.375881,-2.70949 0.64644,1.987 -0.862461,3.21529 0.691095,1.05103 0.652415,2.12106 -0.642038,-1.07015 -0.560627,2.11832 2.138226,-1.85461 -0.368614,-3.92302 1.563811,-3.61647 1.517907,-0.4402 0.135668,-1.72732 -0.548591,-0.094 0.286675,-1.62863 -1.596033,0.42404 0.08903,-1.71903 -2.399844,-0.6142 3.406717,0.44757 0.740561,-0.73386 1.943042,-2.9099 -0.87506,1.26139 -0.566425,-0.91108 -1.104458,1.4234 -0.615485,-0.61785 -1.482676,1.33087 -1.56973,-1.29215 3.928723,-3.59766 2.800798,-2.99038 -1.730599,-0.66218 -2.078942,1.71178 -2.080417,-0.50905 -1.049207,-1.21461 -0.581709,2.7139 -0.918107,-1.2499 -1.095004,0.23217 -0.41717,6.12534 -1.311289,3.07714 -0.468565,2.50728 -1.483093,6.00606 -0.655367,1.09808 1.207121,-1.75058 0.309938,-10.03195 0.462832,-4.84755 0.104578,3.3965 -0.195912,-2.54723 -0.644985,1.31203 0.726059,-3.60575 0.533041,-8.07303 0.856892,-8.06737 0.319607,-1.91401 0.36789,-8.0725 0.03424,-2.73562 -0.195384,4.32725 -0.109682,-3.30604 -0.400434,1.72343 -0.888097,6.13697 -0.04792,-0.87699 0.119045,-3.06005 0.194874,-2.79931 -1.115269,0.69503 -0.908695,1.40004 -0.280788,1.95816 -0.738493,0.88153 -0.737538,4.11111 -0.01611,-2.46627 -0.265669,-8.58273 -0.247099,-9.15905 0.571164,0.43771 0.312988,-5.72865 -0.13352,-1.67717 -0.314914,-1.46503 -1.060781,4.3252 -0.520778,0.30092 0.117928,-2.97859 1.039861,-3.01415 0.957091,-3.21389 0.09477,-0.88515 0.624954,-5.55268 0.03481,-2.4443 -0.892852,-2.18007 0.821243,-0.59408 0.453386,-5.05441 -0.753996,-1.83281 0.367996,-5.55214 0.209194,-1.89376 0.392002,-3.938 -0.777356,-1.46008 0.233856,-5.25452 0.700854,-4.43664 1.147535,2.73081 0.803545,-1.79344 0.731986,-2.41565 -0.07124,-0.7955 0.267565,-3.5288 -0.240808,-4.46713 -0.702547,3.46584 -0.893532,3.95902 -0.628268,2.66713 -0.360442,-3.86894 0.125605,-4.80891 0.795829,-6.72707 -0.84641,0.74615 -0.892899,3.58678 0.121028,4.00528 -0.02714,3.9376 -0.583181,8.15241 0.875673,-0.56373 -0.561263,-9.04999 -0.848018,-2.5554 -0.382636,-0.25512 0.270848,-9.3283 -0.249387,-7.79688 0.41643,-6.02913 -0.280244,-3.56924 -0.224517,-3.54423 -0.315321,-2.76297 0.16763,3.61056 -0.382881,0.32423 -0.681397,2.64481 -0.81179,6.09431 -0.635318,1.33099 1.089876,-3.18836 0.38279,-8.45934 0.173797,-9.89839 -0.07248,-3.24867 -0.978156,3.23292 -0.539629,-0.86186 0.336894,-2.3633 0.986606,-3.43684 0.02646,-5.2093 0.231092,0.30737 -0.147577,-5.2586 -0.690088,-0.38543 -0.237787,-1.00711 1.260677,-8.48311 -0.514177,-2.77693 -0.370881,2.02243 -0.0061,7.00917 -0.293792,2.04044 0.508238,-3.53678 -0.425689,-5.89076 -3.388544,-3.0563 -1.963089,0.92818 1.612267,4.05314 -0.307039,3.4602 1.782723,4.45653 -4.61149,-1.94505 0.231874,2.2046 0.935854,2.64499 0.602385,3.25284 -0.360698,5.92178 -0.58958,-0.67166 -0.972097,2.88286 -0.73392,-1.00354 -0.106642,-1.41841 -0.61679,2.11125 -0.318659,-0.54772 0.714215,-5.66108 -0.131176,-1.11873 -0.46843,-2.57774 -0.294623,1.7564 -0.638457,-4.22068 -1.165216,-3.29086 -0.365883,-4.6872 -0.502365,4.98321 -0.603355,-0.87293 -1.335866,2.98454 0.402321,-2.93966 1.478,-2.42791 0.661808,-0.35908 -4.14483,-0.51729 -1.194524,-0.93576 1.009047,0.64118 4.275899,-2.74568 -0.04546,-0.499 -2.447772,-0.83129 -0.967089,-1.46582 -0.422817,-0.68847 2.127155,0.27153 -0.300249,-1.10086 -0.698478,-2.06269 2.380055,1.20413 1.715258,-0.81218 2.373287,-0.54492 -0.65178,1.76427 1.192398,-2.9495 1.669497,-1.82383 -0.803105,0.139 1.401258,2.87615 0.670768,1.6321 1.485458,-0.7432 -0.04897,-0.95343 1.482619,-2.43287 2.745131,1.98178 1.610645,-0.44754 1.377664,-0.9271 3.057607,1.41793 1.246283,-0.73067 0.84118,-0.97779 1.273027,-0.14166 3.288149,2.62072 1.977177,0.67163 -0.481714,-0.41578 0.71463,-0.74669 0.691208,-1.43776 0.703088,0.96151 -0.0618,0.58372 0.759353,2.96534 0.133999,-3.44112 0.259584,-3.42557 0.576109,-0.13034 0.188196,2.76534 0.118742,3.83083 -0.06761,7.60663 0.632656,-2.72124 0.673929,-7.50414 -0.236409,-10.7931 -0.197766,-2.42482 1.712135,3.31061 0.36435,-0.91571 0.341252,-0.51662 1.273416,3.17841 0.692013,0.30035 0.550731,-0.27086 0.01704,-2.2516 0.388228,-3.7365 -0.53931,0.84477 0.638284,-7.64856 -0.847255,-1.37502 -1.176684,2.47821 1.917494,2.46856 -0.764237,2.94307 -0.920814,0.70617 1.154087,-2.91667 0.118779,-1.73363 0.935086,-2.07148 1.282318,-7.80251 0.90612,-2.63305 0.752631,-2.52835 0.219692,-9.20627 0.732798,-6.2421 1.262396,-3.67515 -0.441387,0.85131 0.167036,-2.2976 -0.579805,2.15637 0.469121,-2.72707 -0.652888,0.13724 -0.925487,3.09246 0.915915,-8.98018 -0.355985,-2.0592 -0.154901,1.8473 -1.406012,9.13106 -1.270964,6.96641 0.861326,-3.71105 0.954023,-8.16865 1.772616,-11.45781 0.27479,-2.30017 0.371204,-4.87251 -0.254954,-2.44431 -0.05749,0.18361 0.848676,-10.81509 -0.214084,-3.15217 -0.08538,2.05209 -1.936498,2.35633 -0.74847,6.11538 0.958894,5.94789 -0.143337,-1.20327 -0.799409,-1.86324 0.343345,-2.38051 2.338579,-6.03241 1.891045,-9.4547 -0.363049,0.47674 -1.219464,3.06338 -1.325677,3.12169 0.502786,-2.05501 1.400874,-7.741648 0.782675,-7.634318 -0.130646,5.954798 0.09376,-4.749929 -0.275025,-3.946502 -0.586992,7.2843 -0.5576,-3.765531 0.636747,-2.707449 -0.263423,2.608603 0.776883,-2.995716 -0.745157,0.272486 0.237447,-2.146654 -0.378935,-0.858999 -0.655552,-1.958206 3.683771,-0.511208 0.373838,-0.892295 1.656313,-4.316445 0.581106,-0.874746 1.28053,2.105435 1.546299,0.591661 0.225526,-1.927659 1.670159,-1.145167 1.635652,-0.699516 0.995307,0.560876 2.238084,2.328587 2.027424,2.402755 -1.122414,-1.305967 0.385104,1.836811 0.828437,1.078302 1.095671,2.50232 -1.121514,-0.619829 -1.118765,-0.210192 -0.11744,-0.432369 -0.601599,-1.971077 -0.806719,-1.227019 -1.016345,-1.908964 -2.377363,-1.279592 -1.100001,-0.129459 -3.967871,-2.123215 2.763287,2.723217 0.151263,1.34199 -0.589743,0.123243 2.185371,4.05712 0.08832,1.568131 -2.24079,-0.745958 -0.135411,-2.16872 -2.299509,-2.360274 -1.31396,3.969464 0.494109,7.391519 0.485232,11.006689 0.505497,1.716176 2.712755,-3.094903 1.352876,1.285336 -1.213858,0.9227 2.637567,0.6091 2.127868,-0.0322 -2.74977,-2.780812 1.166561,0.81309 -0.599627,-3.032364 C 67.636218,95.520846 67.37328,99.121364 66.8798,97.692222 63.309897,97.347872 66.71281,94.51356 65.640858,94.626067 65.23992,95.717046 64.939974,87.225702 67.8068,92.746 c -2.33007,-1.119471 2.15919,2.182456 0.121526,-1.663921 0.151147,-1.171382 -0.843477,1.313138 -0.246988,-1.047189 2.458835,1.475867 0.168784,0.704551 3.935322,2.358387 -3.650002,-0.933107 2.734265,0.795537 0.329617,3.95552 -1.30859,1.103239 -3.371454,-8.569918 -1.866407,-2.259151 1.717893,4.184176 -4.270567,-3.935973 -1.569634,0.849001 2.048247,4.13535 -2.276532,-2.92471 0.303011,1.404571 1.354421,2.478694 1.54825,6.102902 -0.01168,2.560627 -1.872124,-6.436879 0.627216,2.997455 -0.05534,2.199875 0.303977,0.47538 1.858838,6.10826 1.510073,7.578 0.02971,-2.55254 -0.428766,-5.43455 0.384631,-1.19326 0.215779,2.56788 0.199505,7.70955 0.348573,2.17747 -0.189382,-3.16079 0.200131,1.40289 0.333575,-0.64573 -0.193052,0.20656 0.733026,-13.481028 0.03518,-6.63375 -1.771271,-2.41166 -1.327974,-3.500747 -1.075641,-3.602138 -2.028591,-3.063807 0.450547,-0.580992 -1.192379,-3.706207 0.110737,2.489353 -1.693583,-3.529579 0.8692,0.355749 2.600611,1.656146 -0.191527,0.262091 1.818194,3.322113 1.077063,3.053853 0.744273,8.452833 0.864774,3.838933 0.859031,2.59627 1.027613,5.81991 1.26805,1.28288 0.534361,-1.97777 -0.604107,0.98727 -0.321657,-0.57414 -0.601695,3.99877 -0.901208,-5.78839 -1.343327,-3.34586 -1.378579,-2.430326 3.325617,1.59374 2.653923,0.02284 0.121587,2.43227 -0.222623,0.19716 0.212805,3.73084 -0.43432,0.0245 0.921668,-2.06836 0.498096,-1.13651 0.32951,2.74954 3.747552,1.13522 1.871736,4.07993 0.462225,-1.33958 -1.160143,2.24152 -0.0701,0.92638 -1.311375,1.67977 -0.676777,7.34953 -0.108515,2.51453 -1.033229,4.26494 0.71433,-6.37006 0.40274,-0.0138 0.6549,2.01723 -0.660382,-6.65672 1.615212,-5.27395 -2.755039,2.99088 0.945026,-1.4093 1.102727,0.61118 -0.871034,-0.0683 0.866067,3.2881 -0.39576,1.5805 0.12198,-2.32038 -3.706018,4.19144 -1.013579,3.28305 -1.62963,4.09938 0.683636,-2.05707 0.373748,1.7519 0.291255,-3.10887 0.330309,-1.93692 2.238004,-2.70321 -0.07321,1.03382 2.247621,1.18783 1.27741,-0.61621 1.286655,0.17846 2.049023,0.95436 0.55579,-0.83283 2.262663,-1.8669 0.224506,1.71881 1.540594,0.15343 1.820875,0.66773 -0.118729,-1.13948 -0.530762,-2.49228 0.193428,1.93323 -2.429437,1.20633 -0.513691,0.5859 1.233986,-1.23315 -1.653835,-1.72334 0.09243,-1.9086 -0.414152,-0.70987 1.622327,-1.60335 0.384707,-1.69158 -1.653407,2.08425 -0.408718,0.089 -1.927079,-0.55096 0.585509,-1.29233 -2.744539,-0.4598 -4.628512,-0.39398 -0.371762,0.38485 -0.331454,0.50942 -0.759219,2.45597 -1.318107,-0.49022 -1.684001,-2.94066 -2.520855,-4.50342 -2.019828,1.64867 -0.321612,-2.305866 -0.352661,-1.030018 -1.911612,-3.953766 3.003551,1.774428 0.05909,-1.854131 0.02628,-6.560345 -0.366981,5.015439 -1.678639,-0.926189 0.654663,2.235809 0.418636,6.036198 -0.341062,1.39152 0.62223,0.08234 -1.840975,-4.345859 1.305889,-1.699793 -4.864891,-2.820868 3.855807,-3.01014 -0.502332,-6.387615 2.34847,-1.387678 6.315644,-2.298247 7.562154,0.10212 2.634193,3.79535 -2.541276,-2.071392 -2.568321,-1.100416 -1.564086,0.006 1.57822,2.161884 -1.05119,0.169685 1.287335,1.354736 2.235323,2.98505 2.982778,3.097114 0.488686,-0.199517 1.069522,-0.339643 1.567215,0.594686 1.157387,-1.064922 0.47641,3.184045 1.019839,2.885485 -1.288111,-0.257882 3.095019,3.977815 1.371907,3.449074 0.439875,0.237229 -2.813261,-4.329159 -1.344405,-0.186727 2.08835,1.381165 4.338676,2.644095 1.283131,1.903586 0.468285,2.234809 2.191835,4.179899 1.901015,0.708879 -0.394926,2.678 -0.28321,5.00315 0.559851,4.54499 0.36582,2.45371 3.710342,2.08691 4.576356,3.01179 0.122658,1.13914 4.305958,5.18599 0.729494,1.61161 1.45508,2.37866 -4.492148,-5.29108 -1.913779,-0.32296 2.063796,3.08655 -0.773044,5.26428 0.563085,9.32584 2.035982,3.66916 -0.956329,-0.93758 0.300457,3.43877 -1.170737,-0.46732 0.539805,1.18146 0.468491,3.82196 -0.923371,-4.84482 -0.990146,-0.40959 -0.134103,0.66718 1.410439,1.64385 -0.710785,3.70275 0.121599,3.67721 1.776015,1.1451 1.249102,-3.19709 1.637112,-1.11838 1.370716,-0.28316 -0.581047,1.00257 -0.261764,2.75976 -0.192145,-1.34398 -2.87026,-0.14517 -0.620761,-0.14163 1.872749,1.58524 0.527236,1.51843 1.357241,4.08448 -0.900773,-2.58233 0.20892,2.69019 0.744822,2.59201 0.06039,0.56483 1.037394,2.16425 0.947791,2.60595 1.285857,2.81092 -0.992407,-0.90881 -1.123789,-0.0865 -2.531596,-3.88049 1.791861,6.66656 -0.003,0.84114 -1.40858,-0.77736 5.062159,2.35426 2.316207,1.62409 0.739544,1.1117 -1.679417,-1.09469 0.272721,1.71954 0.754143,-0.52891 2.106526,4.21897 0.09188,0.19641 1.179971,2.66932 1.209733,5.97777 0.9897,8.83695 0.765726,2.80992 0.888848,4.21002 -0.154283,0.48462 0.225079,3.66517 -1.547691,1.95586 0.706659,4.32681 1.563959,1.52937 2.014667,4.19526 -0.188782,0.73174 0.55238,3.61211 -1.151164,-1.93439 -0.178641,1.78012 0.378496,0.87758 0.500518,4.22879 1.813219,3.6109 0.342014,-3.17608 -0.91518,-6.03268 2.092266,-1.69504 0.93152,0.87428 0.0485,2.98035 0.38147,3.577 -0.47151,-4.65365 -2.938646,-5.89388 -2.597586,-0.55463 -0.40294,1.86706 -0.457293,-0.17516 -0.69179,-1.42081 -1.71468,-2.76374 1.398126,7.32002 -0.271214,1.44103 -0.304118,1.06504 1.289917,6.33892 2.67153,9.11015 0.74422,3.33428 0.58613,3.47453 -0.19813,0.0117 -1.342918,-3.43807 -1.687713,-1.66268 -1.670986,-1.74023 -0.699441,-2.53568 -1.065394,-8.25462 -1.880845,-8.19083 -2.112388,-5.14306 1.04601,8.89175 0.09315,4.56762 -1.195284,-3.85059 -0.569222,2.05461 -0.197302,0.44322 -0.09353,2.6019 -1.267776,-1.43605 0.141121,2.23937 1.378801,4.24329 4.078602,10.31445 1.461334,5.94907 -0.257191,1.09096 0.405386,2.77699 0.245828,1.62101 -0.0359,1.89003 3.33943,7.69208 1.13293,4.13319 0.91638,2.67336 1.60724,4.49126 -0.071,1.09657 -1.578369,-2.0919 1.56936,0.76838 -0.695127,-1.11408 1.974567,3.30213 -1.973251,-2.10427 0.118971,1.20302 2.510376,2.40615 3.916096,9.57412 3.767786,6.75372 0.46607,1.42128 -0.14044,3.18331 2.07794,5.29666 0.91596,3.68172 -2.16306,-3.69935 -2.01074,-1.99963 -0.24461,-1.7338 -1.13249,-5.34685 -2.1088,-5.65502 6.4e-4,0.82025 -0.73241,-2.5508 -1.07061,-1.6273 -0.94695,-3.21622 -1.247489,-1.74015 -0.832691,-0.63368 -1.344046,-0.62287 2.360661,4.93953 1.367661,5.72038 2.20256,3.54883 0.36367,1.18482 1.3082,3.94289 -0.69628,-2.23727 2.19674,3.78807 -0.0418,0.75125 1.3458,2.59886 2.28602,4.09181 1.19142,1.38257 2.00882,3.88954 2.79738,4.36546 -0.53597,1.09706 -2.777669,-4.37392 -0.26056,1.59501 -0.35378,0.0307 1.06424,0.008 6.78573,8.48086 1.89995,2.90293 1.34022,1.23731 1.27916,2.17909 2.47837,2.83482 1.10224,1.993 0.60527,-0.0345 1.91571,4.09997 0.9839,0.0944 1.12768,5.41477 0.2741,4.29563 0.70268,0.23761 -0.3336,-5.39658 -2.42268,-6.84576 1.70592,5.07923 -3.31848,-7.9378 -2.01057,-1.17447 -1.35221,-3.29755 0.84758,2.74605 -0.18159,1.1542 1.26009,3.238 0.17801,-1.29886 1.77082,2.38699 -1.9117,-2.68582 1.97546,4.17441 0.6369,2.47485 1.08316,3.06701 2.25768,5.40736 4.22869,6.5452 1.94963,0.50754 -1.46377,-1.224 0.82782,-0.90478 -2.70184,-0.98594 -0.92953,-3.18368 -1.58023,-1.47927 -2.27747,-0.0115 -4.3936,-6.16452 -1.27992,-1.57944 1.17899,1.01311 1.18677,-0.46942 2.68177,2.22284 0.21245,2.41216 1.67622,2.74304 2.25057,3.22834 2.50085,1.6607 -2.44923,0.0894 1.43323,1.48157 3.47172,1.08564 3.44776,1.55462 4.0111,0.70544 2.60458,1.17635 -0.17703,1.3123 -2.26998,0.81025 -0.64799,-1.70621 -4.73801,-0.26529 -1.90764,0.33626 -2.46274,0.22838 -3.06978,0.31168 -1.37458,-0.89761 -3.34132,1.29901 -1.15598,-0.2906 -4.22348,0.41926 -2.62218,-1.30209 -4.65032,-6.78452 -2.31577,-1.32079 0.42934,1.24622 1.70078,2.54785 1.75032,2.47226 -1.24687,-2.60391 2.61125,2.82712 0.80291,0.0763 3.46965,-1.25009 -0.97067,0.1419 2.04417,0.9652 1.74786,0.54014 -6.42732,-0.83534 -7.02936,-1.61946 1.71522,0.0279 -1.55437,-3.48718 -1.49544,-4.82779 -1.53075,-2.16495 0.30917,1.22104 0.65019,2.71935 2.63286,2.41449 -2.19517,1.22284 -1.05498,2.26665 -0.96463,-0.0805 -6.020248,-0.21428 -3.784537,-0.90981 2.053117,0.012 -3.626852,-1.71468 -0.87079,-0.34439 -2.330995,-1.31658 -1.120661,2.38263 -2.954134,-0.62196 2.764904,1.59998 -0.66519,-2.30989 1.007061,-0.4214 -0.93573,0.60397 -2.71982,-1.24633 -0.600492,1.52669 -2.672355,-2.65072 -1.435687,-3.76343 -1.073083,-3.00176 -0.496791,-1.64524 -0.590475,-0.92108 -0.96841,-2.53018 -0.856127,-1.80035 0.358666,1.96473 -0.141144,1.47575 1.921599,4.77073 -1.917044,-1.23395 -1.559845,-0.58496 0.614895,2.16203 1.18289,2.98978 1.728228,2.80368 0.815509,0.11612 1.475775,3.74792 2.577973,3.62096 0.386344,-1.99882 6.310163,2.2391 0.949953,0.15738 0.04948,1.52566 -7.142554,-3.27664 -4.525051,-0.53503 1.732907,0.74632 -3.997297,0.0941 -1.213834,-1.06993 -3.138478,-1.43065 -4.322329,0.1205 -6.191616,1.80743 -0.503392,2.29873 -4.834692,2.7637 -6.988655,2.75229 z m 1.831192,-0.40197 c -0.03574,-1.97984 0.592641,1.53721 0.826394,-2.13626 1.015091,-0.43438 2.177149,-6.01873 -0.02596,-1.85731 0.317846,0.38838 -2.405765,4.77492 -0.800431,3.99357 z m 1.550932,-0.18706 c 0.968827,-3.43179 0.909269,-1.72979 0.772244,-0.29978 0.627544,-0.16762 1.616943,-3.43636 1.28851,-0.75543 -0.297541,-2.734 1.40664,0.17247 0.09367,-2.46035 0.471574,0.57399 -1.262887,-0.20696 -0.794618,-0.0709 0.126221,-0.72207 -0.29409,-0.10507 -0.499158,-0.70319 -0.164154,0.53661 -2.744551,5.35718 -0.860662,4.28967 z m 26.284352,-3.16276 c -1.96668,-0.21654 -2.53981,-2.31608 -2.47537,-0.84129 0.50964,0.50135 1.79736,1.39525 2.47537,0.84129 z M 91.669278,223.9295 c -0.404131,-1.25965 -0.726814,-3.54238 -1.165497,-4.3997 0.25628,1.18468 0.364753,3.95602 1.165497,4.3997 z m 19.837052,-1.09993 c 2.91945,-0.0672 -3.76484,-0.66311 -5e-5,-5e-5 z M 83.319819,222.2796 c 1.006838,0.0158 -0.09657,-2.65214 -0.286693,-0.46586 0.819668,-3.78202 -1.045688,-3.75521 -0.670667,-0.66757 0.974658,1.2515 -1.761801,-1.03203 0.95736,1.13343 z m 26.808771,-0.23846 c -3.02594,-2.15399 -3.02994,-4.17057 -4.78334,-4.69597 -3.74411,-4.30763 2.76574,3.00221 -0.29321,0.70824 -0.78282,0.69173 3.32517,1.91999 4.67389,4.08268 0.25181,0.083 1.4254,0.14233 0.40266,-0.095 z m -29.865046,-0.37359 c 2.516235,-0.26688 0.243071,-0.008 2.346802,-2.96957 -0.31579,-2.02243 -2.448976,2.66856 -0.705908,0.83173 -1.339732,3.18754 -2.25085,0.42864 -1.787443,1.30524 -0.05256,0.30614 -0.943243,2.09299 0.146549,0.8326 z m -11.216567,0.007 c 3.356192,-0.78312 -1.014441,-3.88001 -1.140666,0.0557 2.411238,-2.43521 -0.234053,0.4232 1.140666,-0.0557 z m -4.7744,-0.67897 c 2.519301,-2.07851 -3.513225,-0.47059 0,0 z m 26.752737,-1.31854 c -0.462896,-2.16045 1.420062,0.87749 0.03167,-2.36882 -0.997445,-2.24495 -0.601006,-2.78016 -1.189817,-1.55956 -0.263637,-4.48286 1.685007,-0.10116 0.453349,-3.55124 -0.55435,0.64304 -0.548583,4.47164 -1.097666,1.30836 0.341223,0.97403 1.038085,6.00363 0.800796,2.72479 1.168513,2.71838 -0.01633,1.10081 1.14041,4.23262 l -0.139211,-0.78614 z m 10.966176,-1.07566 c -0.82484,-3.79666 1.98095,2.29696 -0.0713,-2.43904 -1.17801,-2.2503 -0.39392,-3.0389 -1.50998,-5.09167 0.65741,3.59509 -0.734855,-0.50926 0.29336,3.75647 0.95701,3.86855 -0.907282,-4.73261 0.68335,0.40012 -0.0403,-0.0905 0.69182,4.79563 0.60456,3.37412 z m 2.13766,0.20994 c 0.76696,-0.4654 -2.06488,-3.20078 -1.22124,-1.16604 0.39258,0.31134 0.45227,1.27491 1.22124,1.16604 z m -27.473766,-2.02189 c -0.08749,-1.89576 -0.02055,-3.71345 0.388086,-4.36605 0.554415,-1.50357 -0.464537,-4.59034 -0.427826,-0.41751 -0.317634,-2.46095 0.108212,-7.12059 -0.386347,-1.90838 -0.05101,2.69269 0.177139,3.94293 0.302134,8.07301 l 0.0773,-0.52565 0.04682,-0.85552 z m 5.440957,0.65244 c 1.057193,-0.52549 -0.61189,-0.45563 2.034975,-0.12335 -1.605726,-1.02874 0.800242,-1.63916 -0.811631,-3.24643 0.418432,4.8156 0.684806,-0.2292 -1.05789,0.27982 0.03925,0.3282 -1.112758,3.84859 -0.165454,3.08996 z m -13.505803,-1.74311 c 0.793175,-2.60282 -2.359509,0.007 -3.7e-5,-2e-5 z m 35.847182,-0.39744 c -0.45588,-1.29803 -1.63639,-2.32444 -0.92448,-0.81231 -0.0578,0.2893 1.43889,1.86277 0.92448,0.81231 z m -22.172739,-1.25701 c 3.181343,-1.51416 -0.856585,-2.1703 0,0 z m 5.977083,-1.75567 c -0.02074,-2.67182 0.25138,-3.26704 -0.520974,-5.19409 0.285688,1.41714 0.229838,4.75319 0.520974,5.19409 z m -5.32986,-0.58238 c 1.560923,-1.70774 -1.045598,-1.61591 -0.466739,-0.18779 -0.137759,-0.1069 -0.793875,0.33176 0.466969,0.18783 z m 0.89854,-0.01 c 0.969417,-2.03271 -0.373786,-2.43182 -0.707915,-2.65741 0.493861,0.74877 0.143528,3.32943 0.707915,2.65741 z m 16.244806,-0.61761 c 0.15238,-2.48983 -0.195995,0.86571 -0.804366,-2.46725 -1.237774,-5.57879 -0.415033,-0.46305 0.105789,1.99691 -0.162688,-1.80295 0.887287,1.57836 0.698507,0.47038 z m -2.10236,-1.75574 c -0.240757,-3.31586 -0.889561,-9.55704 0.216177,-11.16454 0.103433,1.38078 0.624457,-1.58099 0.589467,-1.1477 -0.595727,-2.78855 2.694646,2.66046 -0.0067,-1.21326 -1.280261,-1.50962 -0.781087,0.66318 -1.353577,-0.9804 -0.56681,1.43044 -0.28253,-3.84082 -0.660453,-3.12145 -1.116834,-3.16529 1.006523,0.70933 -0.412698,-2.1082 -0.105295,2.21142 1.224718,9.5129 3.6e-5,3.11648 0.603839,0.14313 -1.391065,10.04181 0.0044,3.97198 0.51527,3.5553 0.839681,-3.2847 0.593553,1.04368 -1.019303,2.71839 0.998675,-1.21584 0.271047,2.89491 0.03616,2.95094 0.284832,6.821 0.759185,8.7085 z m -17.068422,-0.29856 c -0.249374,-3.41674 2.779136,-0.46539 2.078476,-0.52332 2.375097,-2.75722 -0.491136,0.11199 0.903596,-2.89962 -1.845851,1.64048 -0.405349,-1.9935 -1.541406,-0.68642 1.438835,-2.13603 1.906413,-5.99212 0.450797,-4.21965 1.081608,-2.73551 -0.534243,-0.77923 -0.707476,-0.60865 1.223207,2.88778 -2.735163,-3.13699 -0.992851,0.0979 1.30976,0.6396 1.267679,3.49445 1.284512,3.82461 -0.100763,1.34679 -1.226577,-1.60753 -0.56322,0.23025 -0.899119,-2.58514 -0.119069,3.61942 -0.197459,0.42954 0.365439,1.94656 0.901882,3.84923 0.345889,0.13465 1.447232,2.81746 -0.416052,2.89251 -0.515259,1.69494 -0.230094,0.0473 -1.131712,4.07573 -0.545599,2.52573 z m 1.727366,-5.98037 c -1.254952,-2.86159 2.644324,-0.6787 0,0 z m -15.259861,5.22255 c 3.246891,-1.83576 1.348788,-1.68776 0.155712,-0.43916 0.192713,-2.69169 -1.171325,-0.72949 -0.202894,-2.30691 1.741745,-0.38366 2.93857,-2.06336 0.792357,-0.69994 -0.589276,-1.00261 0.14325,0.67201 -0.597379,-0.0419 0.02719,-0.51654 -1.335107,-4.12644 -0.816543,0.24989 -0.179603,-0.2964 -0.761026,2.39757 0.172484,3.33606 l 0.495971,-0.0982 z m -2.121922,-0.79013 c 1.230109,-4.73884 -1.513882,-3.54466 -0.284308,0.5654 l 0.284174,-0.56536 z m 7.741089,-1.5295 c -0.12288,-1.55911 0.646314,-4.86709 -0.343554,-4.05659 1.263037,-1.11101 -1.216879,-4.53872 -0.193113,-0.78203 0.351043,0.65157 0.373845,7.19354 0.536667,4.83862 z m -5.174706,-2.29767 c 0.931539,-1.72232 -2.704742,-0.39065 -0.356201,-2.95401 1.864088,-2.26694 1.190197,-0.29038 3.006357,-3.25551 -1.821674,3.84611 -2.028202,-5.16117 -1.706765,0.26503 -0.02678,3.49262 -0.62905,-5.27689 -0.543953,0.3612 0.267374,2.24829 -0.88539,2.54876 -0.405835,-0.34634 -0.159297,2.22981 -0.223182,0.51594 -0.609428,1.12547 0.127341,-3.84575 1.260534,-6.07737 0.505733,-8.27869 -0.44364,2.98269 -1.093027,4.21312 -0.391353,0.29017 0.33808,-2.26017 -0.720723,-3.11133 0.500374,-4.98369 -1.781265,0.1828 -0.222929,-2.01867 -0.975552,-2.25031 -1.212197,0.3089 0.565077,11.22875 -1.074865,4.92614 1.405769,1.61857 -0.969853,-1.49374 0.56385,-1.68325 -1.156031,-1.8179 -0.303056,-1.60945 -0.661098,-4.7438 0.03345,0.92826 -1.385473,5.21089 -0.924199,1.28748 0.02903,-3.42203 -0.509372,4.25162 1.005095,5.95428 0.224059,3.40467 0.895607,9.28985 0.305281,9.89619 1.581131,-1.30309 1.937408,3.04663 0.401791,-0.0172 0.707106,2.27687 -0.894045,1.5696 -0.06591,2.5278 0.254423,0.11195 0.925055,2.11445 1.426678,1.87908 z m 22.743224,-0.4197 c -0.148182,-1.12536 -0.538895,-4.03111 0.187087,-3.07302 -0.985582,-2.55928 -3.430605,-6.74726 -2.674913,-4.86477 0.701336,1.56952 2.463237,3.52151 1.828017,6.88215 0.659301,0.33499 0.124488,2.60181 0.659809,1.05564 z M 68.971461,202.1802 c 0.3352,-1.12264 -1.390909,-0.86183 -1.284734,-0.44196 -2.428127,0.11157 0.762296,0.40303 1.284734,0.44196 z m 8.518804,-1.26371 c 1.297252,-2.78473 2.717075,-10.73695 1.173361,-3.76039 -0.116383,0.17336 -2.359989,6.17599 -1.173361,3.76039 z m 15.311216,-0.0896 c 2.182997,-2.29803 -0.300016,-2.09238 -0.167692,-0.79019 1.59937,-0.0706 -3.88914,0.69031 0.167692,0.79019 z m -5.981534,-2.57434 c -0.93485,-2.41713 -1.02876,-5.26132 -0.755718,-6.23373 -1.432642,-2.54212 -0.276017,3.88172 0.411198,5.5245 0.144688,-0.10288 0.333178,2.22079 0.34452,0.70923 z m -4.926574,-0.39075 c 3.510485,0.54892 0.445064,-1.93766 0.474297,0.23673 0.569187,-2.59747 -1.335495,-3.4515 -0.971112,0.22439 l 0.245241,-0.24165 0.25172,-0.21944 z m -7.933686,-0.5444 c -0.321099,-2.12031 -0.09464,-8.58358 0.58035,-6.36777 0.119021,-2.60519 -0.793282,-0.88905 -0.450099,-2.21787 0.919987,-0.97094 0.08447,-1.6278 -0.391212,-0.37213 0.23455,-2.28406 0.143481,-7.14496 -0.549756,-1.82774 0.89449,-3.28331 -0.480331,4.49591 0.305989,2.66683 0.153762,2.50235 -0.549245,4.71406 0.194031,4.19997 0.002,0.3053 0.238875,6.62413 0.310697,3.91871 z m -4.411388,-0.61107 c 0.323908,-2.97401 0.04012,-2.8346 -0.0408,-1.63925 0.218485,-2.57057 -1.078643,-6.01832 -0.494772,-1.08004 -0.05427,0.11376 0.612954,5.16148 0.535568,2.71929 z m -0.583854,-1.62556 c -0.642611,-5.44913 -0.311394,0.36661 -0.622284,-0.14657 0.571329,0.93789 1.166765,3.55941 0.622284,0.14657 z m 12.072681,1.07243 c 0.532758,-2.38285 0.416022,-6.39547 0.60882,-1.35181 1.540543,-0.003 0.153121,-3.45284 0.315914,-5.95538 0.5187,-1.2009 -0.105991,-5.48952 0.318236,-5.0849 0.599442,-3.38114 -1.112226,1.39692 -1.85472,-3.122 -0.96189,-2.28799 -1.369151,-6.64601 -0.186614,-6.82006 -0.924388,-3.33759 -0.946912,1.11709 -1.495858,-2.96067 0.153589,-1.80561 -1.032231,-0.67721 -1.145871,-2.21456 2.10484,1.6656 -2.218341,-2.45547 -0.906129,-0.2251 -0.266469,-1.27493 2.407187,2.37962 1.19737,2.43389 -0.992991,-0.91417 0.26272,3.00944 -0.859081,0.89731 1.411612,1.90334 -0.8303,0.68962 0.847165,3.61952 -0.444836,-3.01849 2.688555,0.65316 0.356358,0.47655 1.778615,0.72347 1.342905,3.07945 2.239694,6.20688 -1.700072,0.49398 -1.285346,0.43992 -1.586562,2.14076 0.563467,1.29474 1.468537,-1.06792 0.868008,-1.26461 0.396947,-1.08317 1.208577,0.40796 0.964717,2.24459 -1.646306,0.54529 -0.906874,1.58155 -1.511387,1.88156 1.422361,1.66904 1.529671,3.87192 1.927146,6.54072 0.690258,5.91908 -1.969496,-6.64008 -0.755021,-0.32953 0.332865,0.0155 -0.545996,2.75807 0.65768,2.88719 z m -0.09693,-5.55066 c 0.373973,-1.34745 0.446297,-1.70683 -0.108313,-4.16703 -0.04226,1.46567 1.187019,-2.85093 -0.09422,-3.19352 0.200413,-2.64401 1.166356,2.57903 0.974172,3.18805 -0.332146,0.55989 0.770134,3.11309 -0.771613,4.1725 z m -2.423632,-16.20047 c -1.803097,-1.63862 0.639866,-6.30217 0.582945,-1.38845 0.107875,0.10105 -0.08849,2.73507 -0.582945,1.38845 z m 4.635442,21.27703 c 1.178596,-2.33774 1.258719,-1.85324 -0.141108,-1.49507 0.01292,-1.70569 -1.907905,3.2619 0.141108,1.49507 z m -19.965555,0.1106 c 0.681186,-1.5951 1.05737,-5.5529 0.750574,-4.5525 0.01612,0.61826 -0.648738,-1.8937 -0.451968,0.25861 -0.327858,-6.33411 -1.42861,4.98954 -0.298606,4.29389 z m 26.258699,-0.60727 c -2.164675,-1.23839 0.165331,-0.9852 0.661014,-1.49416 -3.026983,0.0298 -1.029935,-1.35621 -1.94184,-1.41279 -1.255882,-0.0839 -1.238793,1.46122 1.280826,2.90695 z m -18.373108,-1.87561 c 0.02062,-2.98565 0.890632,-5.62815 0.08749,-4.52037 0.03298,0.32486 -0.832268,8.00184 -0.08749,4.52037 z m 11.961268,-0.29516 c -1.239416,-3.89424 -0.213307,2.54611 -4.9e-5,-3e-5 z m 1.502971,-0.10256 c 1.131263,-0.97182 -1.20332,-5.2481 1.630206,-2.07237 -1.485976,-1.7604 -2.23622,-5.25236 -1.5575,-1.67727 -1.546567,-3.06882 0.788399,3.84418 -1.666868,1.03951 0.351614,2.56579 2.293081,-0.44838 1.38235,3.41703 l 0.107214,-0.13281 0.1047,-0.57414 z m 10.186002,-1.71332 c 0.05801,-3.08211 0.675498,-2.39541 0.920917,-2.499 -0.487252,-3.35184 1.326088,-2.95394 -0.24322,-5.69386 -0.51333,-2.46793 1.55707,4.03643 0.144887,-0.44712 -2.056734,-5.51171 0.829691,4.36289 -0.307983,5.36126 0.198099,-2.77307 -0.927124,4.18333 -0.514601,3.27872 z m -24.427665,-1.45575 c 0.02363,-1.76744 0.484046,-7.44479 0.879815,-2.59706 0.05398,-3.1663 0.530892,-6.96717 1.160194,-1.89441 -0.370377,-4.13657 -0.208536,-4.84714 -0.579721,-8.83315 -0.350046,-0.0422 0.03709,-1.57124 0.490403,0.46141 -0.302731,-1.6186 -0.233793,-4.51025 -0.902638,-1.22216 0.323258,-3.55916 1.258594,-6.75806 1.600165,-8.81265 0.440188,1.4335 1.456636,-2.04624 0.945836,-1.96916 0.207295,-0.0741 -2.200094,-3.33822 -0.04444,-5.88268 0.595909,-2.32417 -0.353716,-6.69655 -0.120091,-2.58443 -0.432774,3.68869 -1.012911,4.80678 -1.237941,4.51546 -0.430284,4.1087 -0.810303,5.56854 -1.847057,10.45588 -0.740195,2.57616 -0.265162,7.48975 -0.07434,2.01186 0.293931,-5.29477 0.664879,-0.0449 0.737591,-1.21811 0.07382,3.35541 -0.402749,9.09552 -1.031349,13.19991 -0.246607,1.20757 0.04169,4.2653 0.02357,4.36929 z m 1.815298,-21.26542 c -0.333154,-2.07756 1.28457,-8.9747 0.45318,-2.41375 -0.128196,0.0682 -0.334889,4.18074 -0.45318,2.41375 z m 20.156,19.14194 c 0.107976,-2.26693 -0.12634,-7.80582 0.422809,-5.91569 -0.194412,-1.9506 0.44048,-5.71642 1.44738,-3.15133 1.383628,-0.97902 -1.555647,-1.34729 -1.039565,-3.69821 0.330388,-2.53935 -1.052491,0.7193 -0.591053,-2.84694 0.01713,2.75467 0.478678,5.213 -0.168871,8.05042 0.193282,-1.54077 0.127483,-5.37847 -0.829021,-2.66358 0.242593,1.98511 0.86814,-0.033 0.391302,3.87316 0.269469,0.63866 0.05818,7.28899 0.367019,6.35217 z m -6.305304,-1.07166 c -1.413832,-2.49783 -3.870434,-1.80302 -3.050621,-1.39298 -0.249036,-1.30746 3.23869,2.37941 3.050621,1.39298 z m -18.415597,-0.68518 c 1.628551,-5.34467 -1.039405,-1.21023 0,0 z m 11.201101,-0.88607 c -0.322376,-4.39418 -1.684855,-0.90236 0,0 z m -5.315768,-0.97772 c -0.05092,-2.33191 0.622033,-2.89783 0.554591,-1.75796 0.852975,-1.71478 0.682436,-3.71915 0.342175,-5.61832 -0.209394,-4.8686 0.219585,-2.87661 -0.807642,-0.25607 0.725064,-1.17512 0.340076,2.38496 0.03579,0.47474 -0.287578,2.14919 -0.153852,6.14361 -0.124911,7.15761 z m 24.611687,-0.54996 c -0.803212,-2.65233 2.451645,0.37614 1.299116,-0.56789 -2.686794,-3.99466 -1.826375,-2.5435 -1.335789,1.07385 l 0.03635,-0.50598 z m 0.539007,-2.56653 c -0.910042,-3.13889 -2.813957,-5.95537 -1.734607,-2.33756 -0.07975,-4.20739 0.807468,1.67078 0.440271,0.74532 0.383565,-1.48787 1.240398,2.74875 1.294336,1.59224 z m -21.076949,-0.39984 c 1.013123,-1.26658 -0.02968,-7.47409 -0.652,-5.35441 -0.247372,0.77769 1.244389,2.29823 0.174851,2.17911 -0.795854,-0.22267 1.260028,4.31164 -0.377907,1.40604 -0.07047,0.16589 0.834004,3.13309 0.855056,1.76926 z m 1.934955,-0.22859 c -0.03939,-0.14007 0.263178,-1.42036 -0.556172,-2.23456 -1.795461,-1.32359 0.708219,1.48935 -0.806748,0.65196 -0.125665,0.74017 1.488211,1.01244 1.36292,1.5826 z M 65.81653,179.73448 c 0.500843,1.01383 0.650094,-5.7306 -0.322955,-4.94543 1.059989,2.78824 -0.947954,-1.24012 -0.05744,2.43874 0.237142,0.35695 -0.897713,-1.27539 -0.239533,1.60435 1.586576,-2.8464 -0.463032,1.35273 0.621114,0.90215 z m 2.085988,-1.91043 c -0.241269,-1.78329 1.249998,-9.98642 0.145546,-5.69137 -0.414309,-0.46466 0.853881,-4.98163 0.50429,-2.39021 1.371552,-3.11628 0.33786,-4.62459 1.25543,-9.10392 -0.913703,2.51366 -2.117556,5.08911 -0.879418,3.71143 -0.380533,1.32759 -0.862257,4.38548 -1.275586,1.65175 -1.057501,-0.16051 0.466274,1.61394 -0.399954,1.38393 -1.361866,-2.29652 1.308086,-2.56356 0.668131,-1.79372 -0.200668,-2.42632 -1.333929,-6.48424 0.380479,-2.4089 -0.394622,-1.51245 -0.419064,-3.97607 -0.739555,-4.02701 0.115811,-3.56906 0.819276,2.4014 1.551444,-1.16102 1.109149,-2.18207 1.784525,-11.76406 0.892831,-5.58292 -0.991356,2.38713 -0.922821,4.39559 -1.462248,5.62768 -0.699484,-2.75527 -0.745633,-2.77935 -1.227618,-0.70927 -0.159443,-3.13836 -0.153101,4.75126 -0.37706,6.58584 -0.621915,3.38287 0.243327,4.60672 0.549592,5.292 1.307184,-2.6238 -0.01427,1.74463 0.316096,3.037 0.187849,0.87913 -0.382788,7.04325 0.09759,5.57871 z m 14.143225,0.11874 c -0.08009,-0.90743 -0.292115,-1.75945 -1.34658,-3.23505 0.24293,-3.42732 -0.561052,0.43646 0.373763,0.80773 -0.578925,-0.23422 1.104073,3.22889 0.972817,2.42732 z m 12.149655,-1.79576 c -0.12172,0.51337 -0.03723,-3.3216 -0.714428,-1.86958 0.04564,0.32024 0.615312,3.66605 0.714428,1.86958 z m -19.092344,-1.82879 c 0.504052,-2.11692 -0.938727,-6.25791 -0.18981,-5.63998 1.298299,3.21624 -0.311353,-8.84465 -0.194213,-3.7784 -0.277698,2.26511 0.64443,-0.24454 0.11384,3.28983 -0.832345,-3.14806 -0.06578,2.813 -0.424616,3.32494 0.946079,-1.96728 -0.177341,2.69992 0.694795,2.80361 z m 18.408994,-1.22573 c 0.10276,-1.2306 1.208279,0.66314 0.251451,-1.11774 -1.056069,-1.41862 0.947586,-1.45195 -0.836073,-2.06412 0.173266,0.48253 -0.794781,2.1051 0.584622,3.18186 z m -31.640764,-1.79035 c 1.389023,-2.33101 -0.298215,-5.58927 1.008601,-8.17211 -0.227746,2.64845 -0.187582,1.54058 0.121838,2.36986 0.2427,-3.46294 1.184775,-0.34781 1.213745,-4.41765 0.345486,1.1712 0.465007,-3.54679 -0.19433,0.0901 -1.266725,3.65467 -0.618214,0.94329 -0.317349,-0.67606 -0.642808,0.95039 -1.518278,4.84432 -1.906784,3.1654 0.271808,2.88994 -0.405093,7.24712 0.07448,7.641 z m 23.96579,-2.05896 c 1.203277,-2.53398 1.500994,-4.02995 1.387145,-6.37807 -1.31123,-2.19888 1.579425,-1.66593 -0.485977,-5.06682 -1.612912,-1.58234 0.237901,-4.87292 -0.577957,-4.94598 2.534651,0.5722 -1.852571,-1.61398 -1.243469,1.53365 -1.116821,2.91002 -2.640725,8.20598 -1.091941,9.74299 -0.462026,-3.19047 0.03161,-1.37464 0.288201,-3.00987 0.04572,-0.899 0.689706,-5.03647 1.718006,-1.36172 -0.480498,-0.88212 1.43449,6.64809 -0.145612,9.0702 l 0.05753,0.6653 0.09485,-0.24952 z m -7.013608,-0.44334 c -0.08593,-1.48206 -5.8e-5,-0.8958 -0.886525,-1.26373 1.024087,3.81429 -2.54586,-6.41255 -0.193222,0.65832 0.04426,0.4598 0.535694,1.22386 1.079747,0.60541 z m -1.927379,-3.97598 c 1.034141,-2.77685 -0.375604,-3.11766 -0.110736,-1.18973 -1.772557,-3.76751 0.99331,3.33207 -0.504118,0.2211 0.403373,1.55793 -0.589944,3.88749 0.614954,0.96854 z m 11.374336,0.97759 c 1.326247,-1.79599 -0.439275,-5.80511 -0.242927,-2.66575 0.241753,-1.06722 -0.578334,3.37541 0.242927,2.66575 z m -16.823076,-2.59313 c 0.02311,-2.81245 0.503867,-2.26658 0.530537,-0.87645 0.09652,-2.24776 0.330809,-7.21347 -0.204434,-7.68543 -1.025192,4.92363 0.445217,-5.37222 -0.365965,-0.50149 -1.126007,2.49853 1.202932,-3.7649 0.293481,-5.051 -0.5445,2.63183 -1.06199,7.61373 -0.770227,7.65061 -0.871223,5.10468 0.806982,2.54923 0.282205,8.19509 0.335355,-0.52591 0.120055,-1.1699 0.234403,-1.73133 z m -6.026223,1.13202 c 1.341548,-0.48574 -0.895804,-2.50008 -0.607633,-2.43286 -0.513417,0.84301 -0.07725,3.24726 0.607633,2.43286 z m 28.640729,-0.96667 c -0.238152,-4.59083 -2.06186,-2.87681 0,0 z m -18.27315,-0.85118 c 0.494023,-4.20175 -0.405352,1.93409 -0.482692,-1.85999 -0.07409,-3.53268 -1.058812,3.43664 0.482692,1.85999 z m -1.866638,-0.72266 c 0.417994,-1.37706 0.791846,-5.14155 1.332888,-3.05465 -0.271938,-3.91274 -0.04709,-4.37487 -0.640514,-2.7177 0.606301,-4.15046 -0.105868,-2.83686 -0.177067,0.21756 0.246089,0.74435 -1.257059,4.31739 -0.536114,4.25022 -0.636298,0.0491 -0.637537,3.39121 0.02081,1.30457 z m 3.338844,-0.45915 c -1.382253,-1.35919 1.227514,-3.13919 1.466206,-3.17433 -1.58725,-0.68185 0.99203,-0.90995 -0.723634,-1.71041 -0.722093,1.7143 -0.318104,3.98402 -1.027489,1.51089 0.09923,2.13336 -0.52967,-2.56355 0.528477,-0.82691 1.378359,-1.46255 0.935202,-2.30773 -0.06612,-1.4603 -0.596263,-3.15644 -0.516592,2.11649 -1.035017,-0.13831 0.07725,2.00481 0.02548,2.68739 -0.290056,3.64483 1.77144,-1.16686 -1.159186,1.9005 0.829829,1.68029 -2.134622,-0.43802 1.623167,2.1529 0.3178,0.47425 z m 11.009514,0.4415 c 0.910065,-1.76127 -0.426945,-4.99628 -0.434258,-1.85171 0.320337,0.72802 0.243391,1.24036 0.434258,1.85171 z m -26.876871,-1.90332 c 0.80103,-1.4413 -0.629266,-5.43683 -0.331199,-1.02875 -0.727061,-0.94744 0.160779,2.06588 0.331199,1.02875 z m 1.759873,-0.66721 c 1.349016,-0.56858 1.293244,-3.69582 1.760259,-2.72256 0.331265,-0.45302 0.301384,-2.26751 -0.97689,-0.0848 0.101144,-2.03504 -1.503335,0.30573 -0.623476,-0.0894 -0.244835,0.42506 -0.984433,3.48672 -0.159893,2.89687 z m -2.504232,-1.17019 c 0.404923,-1.98805 -0.303807,-6.23655 -0.129994,-1.75637 -0.165783,-0.30651 0.01807,3.69608 0.129994,1.75637 z m 26.758257,-0.69724 c -0.251764,-1.10149 -0.08617,-7.32067 -0.230177,-1.66039 -1.667082,3.06299 0.87298,-4.05916 -1.200403,0.15685 -0.07054,0.38016 1.680781,3.29203 1.43058,1.50354 z m 8.957515,0.52821 c -0.26221,-1.55172 -1.130287,-4.27296 -0.652817,-1.52788 -2.800536,-3.89248 -0.899534,2.0518 0.305077,0.51023 -0.924891,-0.0686 0.496117,1.4366 0.34774,1.01765 z m 0.157366,-1.83322 c 1.41387,-0.66124 -0.21289,-3.43965 0.731592,-4.0942 0.890827,-2.74923 -2.803352,-11.60033 -2.257689,-5.24288 0.506315,1.62975 1.415351,5.64163 1.416788,8.7871 -0.257256,-0.33771 0.04926,1.87288 0.1093,0.54998 z M 64.622581,155.287 c -0.0765,-0.97946 1.272238,-1.7574 0.237115,-2.24278 -0.35638,0.38285 -0.593841,-0.70113 -0.645787,2.15879 l 0.198716,0.26804 0.209786,-0.18406 z m 29.3579,0.047 c -0.213267,-1.78797 -1.910738,-4.45857 -2.395627,-4.1223 0.486067,2.24139 0.453409,4.91966 0.995325,2.04764 0.574965,0.64226 1.262182,1.6391 1.400302,2.07466 z m 1.807333,-0.91416 c 1.020044,-1.28248 -0.615886,-6.27109 -0.803289,-5.00081 -0.934386,-1.83083 1.207774,5.00171 0.803289,5.00081 z m -20.4057,-0.0793 c 0.573314,-2.08729 0.634628,-7.04761 -1.128129,-5.03188 -0.743903,0.46003 -0.723603,0.64038 0.150904,0.50682 2.444114,0.24855 0.298344,3.08275 0.946801,4.69294 l 0.03087,-0.16773 z m -2.739655,-0.38237 c -0.714897,-0.59487 2.460805,-1.33771 0.07677,-3.15956 -1.25153,0.57486 -0.91601,3.67362 -0.07677,3.15956 z m 7.132815,-0.0857 c 2.126852,-0.94718 -0.0292,-2.76704 -0.06371,-1.10241 -0.333704,-0.43314 -0.474979,0.25181 0.06371,1.10241 z m -2.785487,-0.49042 c 0.344597,-0.35068 0.817957,-3.13164 0.465339,-3.86308 -0.568856,-0.24518 0.03105,-1.20083 -1.100093,-1.56739 -0.614909,-1.83734 0.50805,2.52227 -0.230566,3.09827 -0.503391,1.55106 1.873577,-1.08315 0.217658,0.90886 -0.619102,0.10159 0.393821,3.17195 0.647662,1.42334 z M 60.74991,151.64053 c 0.195016,-3.02382 -0.249781,-5.21892 -0.179002,-0.86559 -0.278441,1.28689 0.11575,3.613 0.179002,0.86559 z m 24.764177,0.62309 c 3.672172,0.72192 1.701291,-1.73687 1.493119,-1.16116 -3.226251,0.1222 2.923855,1.05069 -1.549007,0.98746 1.043281,-2.27805 0.69859,-2.3243 3.108649,-0.74976 -1.473305,-1.70294 -2.520537,-3.00334 -2.561993,-1.40728 -0.357418,0.43978 -1.449918,4.17911 -0.490768,2.33074 z m -4.581147,-0.13965 c 1.315703,-2.20261 1.174511,-1.58256 0.114534,-0.92462 -1.716065,-2.46257 -0.05616,1.73845 -0.114534,0.92462 z m -1.281798,-1.4813 c 0.973431,-1.96539 0.384176,-2.8502 -0.286657,-0.35585 0.334395,0.88432 -1.816346,-1.28289 -1.120662,0.45145 0.479568,-2.0276 0.594433,2.41352 1.407319,-0.0956 z m -13.743576,0.56614 c 1.178505,1.50327 3.283665,-2.60615 3.797631,-3.99988 0.660755,1.05042 0.434971,-2.35008 2.287948,-3.88018 0.168397,1.49418 2.01769,-6.16824 -1.113428,-2.13541 -1.516647,1.38782 0.857475,-4.03152 -0.8297,-0.17413 -0.912856,4.43974 -4.645381,-2.23357 -3.508409,2.27703 -0.59163,0.6444 -1.175207,1.46658 -0.340703,0.48093 0.179686,4.36674 0.666347,-5.0456 1.057678,-0.0637 0.582876,2.48657 -0.30896,-2.16894 0.735361,0.60564 1.615879,-2.712 0.42005,3.20813 1.137609,-1.30021 0.137503,-0.29937 2.32919,-1.42328 1.82357,-1.68981 1.247635,1.38987 -0.398241,0.58955 1.434323,-0.83673 -0.05747,1.04416 -0.651727,2.93691 -2.678787,4.54946 2.685675,-1.20115 -1.070222,0.46488 -0.404966,0.42571 1.172538,2.00194 -2.805759,3.69902 -1.942788,-0.0495 -0.155031,2.15097 1.532824,0.50303 0.377824,-0.27923 -1.744136,-2.16276 -0.818597,4.18168 1.475695,2.40123 -0.931033,2.65794 -2.386305,3.20958 -2.260173,2.91659 -0.258368,-0.0764 -1.844026,2.30048 -1.048685,0.75228 z m -1.288681,0.0945 c 1.292546,-2.66202 1.177771,-1.20163 1.084739,-4.54535 0.392078,-2.73138 0.112516,-1.63231 -0.824399,0.49679 0.165325,-0.10398 1.174332,1.80895 -0.624142,3.95693 0.766195,-3.25641 -0.194519,1.78811 0.363802,0.0916 z m 21.386018,-2.44412 c 4.385616,0.50691 1.778606,-1.1115 0.03929,-1.51723 -0.0654,0.74911 -1.231892,3.65453 -0.03929,1.51723 z m 3.83483,-0.85569 c -0.941423,-3.81959 -2.347211,-2.93399 -0.17567,-0.67319 0.07815,0.28104 0.259052,2.66351 0.17567,0.67319 z m -28.778044,-1.68544 c -6.67e-4,-2.57887 -0.503656,0.73213 -0.08756,-2.90696 -0.447661,-3.31919 -0.119046,2.87849 -0.156676,4.2836 0.293371,2.00592 0.213817,-1.72358 0.244229,-1.37664 z m 17.017433,1.72444 c 0.750524,-2.32465 0.389257,-4.48837 0.9312,-1.08052 -0.06002,-1.78268 0.939799,-3.55347 -0.124907,-3.02867 -1.208655,-1.28134 -1.378348,2.10243 -0.84011,1.31414 -0.677423,2.13916 -1.961143,2.31948 0.03382,2.79505 z m -0.24379,-0.21572 c -0.626858,-0.43589 1.057782,-3.58724 0.1562,-1.85338 0.688912,0.31216 0.289203,1.60356 -0.1562,1.85338 z M 58.750339,146.0922 c 1.17313,-4.21705 -0.759998,-2.91995 -0.486865,0.58348 -0.62384,0.93123 1.809313,-0.2862 0.486865,-0.58348 z m 17.925486,0.33439 c 1.522918,-0.95686 -1.812018,0.52212 -0.404151,-0.71549 -0.0822,-0.0471 -3.425748,0.6232 0.404151,0.71549 z m -1.997643,-0.47253 c 0.173338,-0.25194 2.439968,-3.39495 1.834523,-2.84994 -0.660836,0.55607 -1.389726,-0.0841 -0.81264,0.8222 -0.958989,0.0904 -1.563806,1.06154 -1.640129,1.84622 -1.048602,-0.6827 0.53052,1.05395 0.618246,0.18152 z m -19.272464,-0.58648 c 1.757731,-3.19906 -2.592918,-0.28168 -0.128034,-0.25552 0.115823,0.24425 -0.693158,1.06888 0.128034,0.25552 z m 32.840844,-0.58819 c -1.717505,-0.01 1.079113,-2.46878 0.05308,-2.34721 -1.139241,2.98655 -0.77215,0.38185 -1.875163,-0.51557 1.337378,1.25558 -1.970364,0.99217 0.251767,1.96243 0.04061,0.42186 0.893592,1.54221 1.570316,0.90035 z m -8.236867,-1.6849 c 2.254726,-2.64116 -2.147864,1.88982 -0.507524,-1.28946 -2.444977,-0.82436 -0.680348,-1.08789 -1.142855,1.52384 0.209908,-3.19041 0.924459,1.31792 1.650379,-0.23438 z m 6.19585,-1.69039 c 1.56256,-2.59629 4.766525,2.17471 2.463043,-1.51955 0.778506,-0.44564 -2.023879,1.5121 -0.901702,-1.41035 -0.879559,-1.00717 -0.376887,2.28766 -1.164319,1.5224 0.24727,-1.88637 -0.867142,-0.71262 -0.716851,-1.12577 -0.09013,-0.94279 -1.169492,3.16088 0.149863,2.23515 -1.640785,-0.2403 -0.361803,2.39252 -0.370733,1.07292 l 0.540578,-0.77481 z m -21.719129,0.28993 c 0.300789,-2.56127 1.098263,-12.08437 -6.08e-4,-10.58091 0.100808,0.0287 0.212221,5.34897 -0.210688,0.61438 0.135489,-2.13356 0.498294,-2.69906 0.105924,-2.39903 -0.515157,-1.1853 0.623869,-3.93105 -0.360482,-4.37689 -0.351556,2.65894 -0.08028,4.07464 0.07216,7.68304 0.350264,4.40242 -4.96e-4,1.98905 0.751232,2.27949 -0.200079,-1.60705 -0.85395,11.87204 -0.357527,6.77992 z m 8.781821,-0.028 c 3.292912,-2.04643 2.618531,-5.72857 4.917943,-1.9327 1.822189,1.38735 -2.612516,-2.25325 -0.391203,-2.05953 -2.039716,-1.46682 -3.58677,5.43205 -3.587315,1.19441 -2.097046,0.43668 0.367097,1.68782 -0.744165,1.76033 0.153515,-1.47864 -0.544981,0.46986 -0.737643,1.70549 l 0.542858,-0.66787 z m -15.396921,0.37142 c -0.261841,0.0959 -0.602288,-3.33394 -1.405409,-1.6639 0.30799,0.068 0.480547,1.72658 1.405409,1.6639 z M 68.957792,141.068 c 0.147022,0.96005 0.525591,-0.19563 0.707454,0.47062 -1.458403,-3.26454 2.797498,-3.94845 0.578192,-3.37725 -1.652705,3.86485 0.970775,-0.15588 0.77849,1.52838 -0.562564,2.14931 1.545359,-2.06065 0.923514,0.21534 0.714458,-1.69942 0.843512,-5.18156 0.390291,-3.48961 0.271105,-0.39566 -1.704266,4.29837 -0.997842,0.97267 -2.271263,1.46937 -2.974421,1.45691 -2.59192,3.73708 -0.01951,1.76161 0.148142,0.90275 0.211821,-0.0572 z m 8.100744,1.18692 c 1.289961,-2.55947 -1.126056,0.2469 -0.673927,-0.32713 0.378467,-0.27095 0.33802,0.91596 0.673927,0.32713 z m -9.024699,-1.28029 c 0.58856,1.06741 0.416348,-2.51709 -0.07493,-0.76213 1.008523,-5.70233 -0.79441,1.29828 -0.103994,1.32438 0.06546,-0.26986 -0.01646,-1.7381 0.178915,-0.56225 z m 7.199551,-0.22591 c 1.722098,-0.34879 1.46666,-3.35995 0.533571,-0.84244 -0.214105,0.0288 -2.026358,1.62108 -0.533571,0.84244 z m -7.664272,-0.16342 c 0.525538,-4.76879 -0.981219,-2.4876 -0.25499,0.17167 l 0.254845,-0.17166 z m 25.090052,-0.32846 c -0.871187,-2.52531 -2.702688,-9.72312 -1.780423,-5.11631 -0.428494,0.15425 0.849137,1.87103 0.587461,2.71824 0.42726,1.53615 0.466553,1.56388 1.193459,2.39811 z M 72.99908,139.27659 c 1.279838,-3.50446 0.462163,-0.5221 0.635988,-0.61938 0.505207,0.65997 1.210476,-3.58129 0.255318,-2.73447 0.266651,-5.55748 -1.57324,4.49523 -0.952688,2.84075 -0.06063,0.25015 -0.08862,1.24432 0.06139,0.5131 z m -4.06956,-0.78058 c 0.15453,0.54717 -0.122284,-6.59855 -0.143225,-2.48081 -0.115968,0.39449 -1.420455,4.11472 0.143225,2.48081 z m 17.954268,-0.11067 c -0.56188,0.61197 1.675292,-3.89798 -0.309409,-1.88598 -0.191541,0.0991 -0.959591,2.99026 0.309409,1.88598 z m -17.098119,-0.72193 c 3.174774,-1.49141 -0.547698,-1.15802 -0.05542,-3.00717 -0.693025,3.75252 0.449537,1.51011 0.05542,3.00717 z m 20.414662,-0.0285 c 1.123615,-0.50153 -2.724258,-2.34242 0,0 z m -5.28624,-0.27052 c 2.106438,-3.35518 -0.830528,-4.35048 -0.210302,-0.36002 0.08937,0.0681 0.03827,0.84311 0.210302,0.36002 z m -4.298857,-0.92598 c 0.76707,-3.70282 1.415649,-7.01694 2.081792,-10.78296 -0.810557,-0.0597 -1.68138,11.94004 -2.328355,8.98259 -0.326744,0.25968 0.234196,3.32593 0.246563,1.80037 z m 5.390029,0.56591 c 0.19029,-2.53405 2.414058,-1.92526 1.106799,-3.36941 1.081563,2.29657 -1.291913,-0.32683 -0.53565,-1.41996 -1.501132,2.85633 -0.484401,3.74702 -0.571149,4.78937 z M 74.72472,135.07863 c 0.157543,-0.89182 -0.617935,-7.42123 0.558768,-8.13176 0.115288,-1.4527 -1.414749,0.63743 -0.772218,-2.31567 -0.942269,3.30115 0.727833,-6.87938 -0.410765,-0.39463 -0.388935,-2.94605 0.612131,-10.89522 0.411032,-3.72062 -1.096542,4.14074 1.471095,-3.65941 1.265021,-3.45865 0.446174,-2.16361 -0.452682,-5.89291 0.476853,-1.47115 -0.28513,-2.11811 -0.649875,-6.49244 -1.113281,-2.07516 1.307728,0.89064 0.422319,5.49311 0.257921,3.72506 -1.216729,3.73243 -0.559117,-1.13388 -0.795589,-1.35728 0.438915,-3.387 0.587178,-5.13247 -0.219983,-1.6063 0.26387,0.15455 -0.263377,5.9061 -0.669538,0.51948 -1.20052,-6.42229 0.965995,7.88197 -0.321767,0.26807 0.09585,3.12826 0.980853,6.59077 0.188931,3.90007 -0.267934,1.46322 0.08969,1.57851 0.285783,2.1762 -0.150286,2.81499 0.100528,3.74438 -0.06835,5.44946 -0.245474,4.6684 0.444835,-2.57698 0.664356,1.91939 0.224875,1.24159 -0.181001,9.27417 0.262834,6.57349 z m -3.606373,-0.15162 c -0.820679,-1.04645 -0.30591,-5.91875 -0.818211,-2.41004 0.534103,0.0614 -0.175189,4.54149 0.818211,2.41004 z m 1.194477,0.18457 c 1.011482,1.35242 0.186519,-2.44926 0.09913,-0.92479 1.247524,-1.93607 1.824605,-3.25706 1.891702,-5.92619 -0.883057,3.5385 -1.218268,3.68948 -1.692916,4.90197 0.03763,0.0407 -1.485529,3.66239 -0.297916,1.94901 z m -2.144917,-0.42934 c -0.137005,-3.44097 -0.396494,-4.91802 -0.569641,-0.93473 -0.301501,-0.27185 0.638691,1.6382 0.569641,0.93473 z m 18.01332,-0.16207 c 0.445241,-2.40948 -0.935121,-3.84374 -0.330289,-0.32903 -0.07893,-0.0701 0.413348,0.93005 0.330289,0.32903 z m -16.574301,-0.87672 c 1.466842,-2.48163 1.814419,-4.03314 0.227399,-1.71204 0.167152,1.03468 -1.081409,1.20022 -0.227399,1.71204 z m 13.927878,-0.16446 c -0.173096,-0.46804 2.090053,-3.72576 0.04514,-1.06897 -0.05298,-2.64592 -0.628798,-4.45949 -0.148928,-0.75257 -1.471194,-2.34341 -0.204621,-0.35652 -0.242552,1.11153 -1.273207,-4.4787 -0.17554,2.66501 0.34634,0.71001 z m -5.688032,-1.26357 c 0.344697,-3.35537 -0.106585,-2.09954 -0.391441,-5.32077 -0.292403,1.91603 0.426766,3.14278 0.212423,6.07029 l 0.178714,-0.74948 z m -11.947088,-0.92357 c -0.497021,-2.12229 1.352335,-7.56846 -0.691622,-2.50484 -0.01191,1.08994 0.924228,0.46799 0.625725,3.32946 l 0.06603,-0.82421 z m 19.342871,0.16636 c 1.106432,-0.10927 -0.338018,-1.75899 -0.05995,-1.69501 -1.142225,-0.35693 -0.03825,0.9886 -0.295625,1.76609 l 0.35447,-0.071 z m -15.465178,-0.2352 c 0.619973,-0.69521 -1.67176,-2.87553 -0.414753,0.14598 l 0.414803,-0.14598 z m 4.75813,-1.01766 c 0.123255,-4.20751 -0.06341,-8.63448 0.172556,-12.9961 1.144109,0.52043 0.346744,4.23972 0.94096,6.57935 0.171643,-0.786 -0.256919,-6.51363 1.068854,-5.63587 -0.422092,-2.43131 0.182312,-3.04795 1.083087,-1.40553 -0.04427,-1.33183 -0.933238,-1.72924 -0.969041,-2.28888 0.157869,-0.52585 0.564428,-4.08376 -0.367753,-1.8315 -1.123384,-2.50209 -1.415519,2.73415 -1.6033,0.35381 -0.156587,4.00742 1.681289,-1.56343 1.002718,2.47403 -0.160327,1.12084 -0.379691,0.67207 -1.052527,-0.16736 -0.466885,2.17541 -0.442902,6.27027 -0.308193,10.32093 -0.156026,0.54092 -0.106372,6.72021 0.03265,4.59712 z m -6.41966,-0.32002 c 0.912766,-2.1878 -0.254185,-1.84394 -0.502113,-3.56124 -0.781804,-5.60115 -0.15786,2.93502 0.502113,3.56124 z m 15.594734,-0.45829 c 0.179626,-2.91143 1.221901,-3.99916 1.385187,-0.58054 1.2276,-0.6695 -1.15791,-4.57527 -0.593303,-5.93795 0.364322,5.17832 -1.168472,1.04713 -1.477083,0.88716 1.624766,4.08741 -1.654075,-3.77923 -0.01588,1.38427 1.893533,-0.73228 0.08871,5.55449 0.701082,4.24706 z m -13.198669,-0.61627 c -1.004755,-2.64548 0.0451,-5.26904 -0.750415,-1.37394 -3.164601,-2.59106 2.001106,3.38197 0.750415,1.37394 z M 71.7099,126.6128 c 0.0786,-3.08297 0.569577,-3.85612 0.992443,-3.74222 -0.261645,-3.26336 -0.201976,2.37349 -0.493784,-2.04946 0.447245,-2.92336 -0.07075,-2.76539 -0.405085,-3.76817 2.285122,-1.05514 0.397782,-4.3673 1.588137,-7.23619 -1.795123,6.6971 0.970908,-4.3448 -0.05322,-2.37618 0.30263,-3.26755 -0.886998,7.04554 -0.735993,0.99565 -0.646021,0.31311 0.585929,-3.35878 0.724161,-2.26095 -0.642127,-3.19318 -1.167365,3.33087 -0.867581,-1.28328 -0.587523,1.64737 0.369154,7.15105 -1.167753,6.23947 -0.320411,2.56898 1.954073,-2.46489 1.290172,1.91027 -0.821922,4.53419 0.312836,-1.90487 -1.405871,1.86808 0.947486,-0.0986 0.444617,-0.19984 0.275127,2.44389 -0.589754,-3.28227 -2.03429,4.017 -2.304643,3.28125 -0.228502,-1.75882 -0.303293,-0.48227 -0.102233,-2.69776 -1.045839,2.63878 0.689875,-1.78824 -0.173686,-0.41821 0.07815,-1.60161 0.971606,-0.1619 1.573124,-1.02429 1.931193,-2.81295 -2.540176,0.43887 -1.037132,-1.73617 -0.639792,2.87552 -0.09603,-2.82119 -0.998427,1.27601 -0.438434,2.10434 -1.073066,5.4451 0.348807,5.72411 0.279788,0.0661 -0.572194,2.60207 -1.127032,-1.32498 -0.589746,-0.43669 -0.46456,-3.92192 -1.250243,-0.75978 -2.393763,3.14862 -0.303542,7.43874 -0.464622,3.35428 1.583077,3.44133 1.892622,1.62384 0.24751,0.62471 2.436903,1.26579 -0.734505,-1.86723 1.718343,-0.18376 -0.453967,1.39948 1.703579,3.17382 1.046867,-0.32552 -0.470672,3.14328 -0.777502,-2.5045 0.882108,1.2419 1.176608,-0.89513 1.676182,-3.6845 2.009908,-1.2302 -0.08857,-6.10567 0.357928,5.72415 -0.45359,-0.79969 -0.363272,0.20018 0.507701,3.96032 0.344188,4.25719 z m -2.052096,-2.8903 c -1.645292,-2.50419 1.534627,-4.07151 0.74647,-4.76032 3.316462,-3.41255 -0.53701,1.45473 -0.533798,3.8957 1.290318,-1.62084 -0.624875,1.25512 0.91796,-0.31633 -0.2171,0.44173 -0.488136,2.58661 -1.130632,1.18095 z m 13.331277,1.0442 c 0.666597,-1.54362 0.436151,-5.43509 1.294617,-2.53935 -0.730935,-3.58364 -0.724856,-6.49723 -1.022176,-1.51596 0.663168,-0.0818 -1.36136,4.66045 -0.272441,4.05531 z m 5.146531,-1.68564 c -1.565708,-3.30094 1.820345,1.70078 0.392233,-0.73075 -2.454389,-2.71549 -1.142566,1.35263 -0.392233,0.73075 z m 2.232532,-1.44349 c 0.352895,-3.28643 -2.253122,-1.63063 -0.588609,-0.5212 0.250282,0.0789 0.535048,1.51237 0.588609,0.5212 z m -8.778355,-1.25446 c -0.20274,-1.50836 1.475259,-4.73751 -0.199831,-3.52674 -0.338867,-0.36955 1.228139,-2.52546 -0.607964,-0.89335 -0.61044,1.46547 2.176124,1.72509 -0.258005,1.3998 -0.969347,1.63912 -0.136888,-2.40569 -0.646098,1.2543 -0.422624,1.71756 1.123449,-2.47472 1.263412,1.17373 0.294849,0.56983 0.331338,3.44886 0.448486,0.59226 z m -17.189322,0.36237 c -0.139127,-2.16843 0.799443,-4.12798 0.342618,-3.75384 0.467117,-2.0255 0.382224,-3.38522 -0.347482,-4.55374 0.427013,-1.42017 0.372736,-6.33362 0.730497,-2.44682 0.122204,-3.27634 0.171965,-2.36869 -0.607458,-2.38445 -1.038339,-2.75918 0.171411,-2.61285 -0.626831,-5.00508 0.140803,2.90991 -0.587554,-0.28562 0.05789,3.3152 0.921412,3.4877 0.07588,7.29911 0.753231,8.18899 -0.161518,1.98027 -0.47562,4.1727 -0.302453,6.63974 z m 1.093375,-2.85682 c 0.40815,-0.50178 -0.545372,-2.65418 0.183444,-5.40023 -0.539983,1.87879 -0.929656,11.05199 -0.183286,5.40017 z m -1.73166,1.7857 c 0.719636,-3.88364 -0.272456,-6.01106 -0.230272,-1.17485 0.03834,-0.43623 -0.07107,3.23639 0.230272,1.17485 z m 25.347341,-3.10663 c 0.178337,-2.80093 -0.610682,-3.01218 -0.328612,-0.36263 -0.03772,0.0487 0.252257,0.8876 0.328612,0.36263 z m -5.669268,-0.78237 c 0.538567,-2.59944 0.175428,-5.32618 -0.188114,-5.37124 0.597367,2.29796 -0.676766,1.60256 -0.18623,2.91452 -0.131849,-0.48668 0.251763,3.77879 0.374344,2.45672 z m 6.328796,-0.41596 c 1.990966,-2.44294 -1.962583,-4.05673 -1.280083,-2.34974 -1.256496,-3.12059 1.252308,3.99333 1.280083,2.34974 z m -19.496274,-1.19075 c 1.163897,-0.46278 1.209528,-0.52838 1.844665,-1.8312 -0.976162,-0.33711 -1.705661,2.88167 -1.698449,-0.85546 -0.142513,-1.46291 -0.343926,3.53946 -0.146216,2.68666 z m 19.927554,-1.89949 c 0.682087,-2.46204 -3.125019,-5.3673 -2.045165,-3.21666 -0.431496,0.37648 -0.338227,2.47854 1.98209,3.55376 l 0.06287,-0.33707 z m -14.6431,-1.87263 c -0.56441,-2.43105 0.131054,-9.82416 -0.439625,-3.50083 0.14757,0.5732 -0.270644,4.27071 0.439625,3.50083 z m -6.220145,-1.2061 c -0.305681,-1.61841 -1.909394,-8.79829 -1.943055,-4.57698 0.06568,-3.02139 1.924626,5.12069 1.943055,4.57698 z M 79.885295,98.264743 c 0.507495,-2.727081 -0.835209,-0.347658 -1.168513,-1.831399 -1.728347,-1.692224 -1.279317,-3.420455 -0.602676,-2.657243 -1.33438,-1.763173 -1.084364,-0.160777 -0.759198,1.550632 -2.810934,-0.777736 -0.477503,-2.65729 -1.905029,-1.908969 -2.426276,-1.37291 -2.695224,-0.01403 -0.03342,0.483003 0.478391,1.245644 -0.275645,1.541769 1.262658,2.445727 -0.49968,2.986997 3.117135,-0.05972 3.206176,1.918249 z m -1.138475,-0.91453 c -2.161234,-0.148466 -1.500144,-0.742965 -1.830341,-1.755417 -1.969852,0.917957 0.953361,-1.183637 0.781461,0.443631 -0.909205,-0.252943 2.530801,1.677117 1.04888,1.311786 z M 67.008305,96.378884 c 0.781391,-0.934825 -1.863716,-5.533812 -0.589395,-4.787722 -1.112726,-1.099576 -0.703164,2.616193 0.06796,3.157397 1.113179,0.343568 -0.369725,2.225706 0.521449,1.630325 z m 15.192116,-2.058141 c -0.688146,-3.142401 -0.301563,-1.105731 -0.576559,-1.468631 -0.520599,-1.120911 -2.836633,-1.444342 -1.156476,0.347399 0.913895,-0.658311 0.05322,2.362166 1.661764,1.991875 l 0.07102,-0.870589 z m -4.70855,-2.168531 c -0.257033,-2.877328 1.353738,-0.08416 -0.926255,-2.537759 -0.06516,-1.978861 -1.556612,-0.850545 0.251075,0.982209 0.182492,-0.71116 0.975496,3.850238 0.67518,1.55555 z m -1.09943,136.485048 c 1.213941,0.4499 2.077654,-3.95315 2.313033,-3.1644 1.2568,-0.96242 -0.721747,4.57063 -2.313033,3.1644 z m 25.219449,-1.41071 c -2.624897,-1.05989 1.25358,-1.36918 2.66958,0.12452 -1.36728,-0.53483 -1.90594,-0.13112 -2.66958,-0.12452 z m 14.06452,-0.68833 c -2.91617,-0.53038 -4.86375,-1.16909 -2.33783,-1.46594 4.31072,-0.48185 -2.91058,0.45375 1.32153,0.83689 1.2785,-0.65005 3.95434,0.92966 1.0163,0.62905 z m -0.52268,-4.43918 c -3.50227,-3.44042 -2.83495,-3.0484 -0.43198,-3.25472 0.26861,-0.26065 1.74223,2.22222 2.71058,2.16426 4.63055,0.32113 -3.94388,0.36428 -2.2786,1.09046 z m -0.0325,-1.81652 c 1.62712,-0.995 -5.22775,-0.89173 0,0 z m -57.057827,1.57279 c 0.950967,0.0905 -0.314651,-8.03845 0.402311,-3.70538 -0.07308,-0.90823 0.515371,-5.90427 0.03273,-3.35824 -0.389166,1.65069 -0.23612,-7.83452 -0.385908,-1.52293 -0.06152,1.06813 -0.499631,-1.18577 -0.07138,2.10601 -0.571667,-4.74382 -0.0782,-3.65407 -0.930364,-2.95338 0.37412,-3.70939 2.347557,-1.6049 0.944081,-4.62392 -0.281214,4.5331 0.557769,-5.57551 -0.492955,-0.15461 0.474501,1.63354 -0.207593,4.74317 -0.285587,0.82667 -0.847307,1.1927 0.424027,-4.8681 0.109939,-3.87131 -0.762507,4.70884 2.301575,-2.33244 0.485249,0.61777 1.289021,-1.08207 -1.07687,-5.14066 0.519819,-3.87128 0.440549,-0.89147 -1.421223,-3.821 -0.976197,0.40312 0.09968,-3.74458 -1.659324,3.03097 -0.346896,-2.09861 1.784481,-4.84999 0.995235,-1.91691 -0.172608,-1.02194 -0.108212,-3.27945 -0.839572,-4.95902 -1.974732,-7.45777 0.475329,1.04348 0.671215,-3.72664 0.808011,0.16663 0.127799,-2.53642 0.351818,2.79555 0.579839,-0.33533 1.054409,2.04869 -0.304692,-1.98507 -0.448271,-1.59585 0.735687,-1.08417 -0.86389,-4.55709 -0.385419,-0.36737 0.177758,-2.55077 -1.362872,0.36774 0.146723,-3.58151 1.760594,-4.89811 1.777564,-1.51934 1.888762,1.56495 -0.0046,3.7911 0.978227,7.65291 0.966566,9.04008 1.561911,3.30075 1.485201,12.02555 0.629513,5.55773 0.09027,6.39501 0.344428,12.7279 0.657893,19.13355 -0.808986,-0.087 -0.968953,1.06153 -1.701125,1.10292 z m -1.812076,-33.90143 c 1.096822,-0.75941 -0.528195,-4.82231 0.06004,-0.6886 -0.439284,-4.72293 -0.504336,1.42776 -0.06004,0.6886 z m -0.706323,-3.53006 c -0.08712,-1.30797 0.413157,-7.68791 -0.358826,-4.45522 -0.713873,1.08493 0.472671,3.56209 -0.111499,2.98455 -2.268361,-0.15169 0.871202,-5.2737 -0.312157,-6.50381 0.791036,2.34817 -2.976087,-3.79809 -2.321619,-5.20201 -1.034369,-4.07077 0.844608,2.61786 0.0522,-2.15486 -0.05398,-1.88119 -0.35996,-4.30389 0.860294,-5.93536 -1.60471,-1.88784 1.963381,-3.52364 -0.92304,-1.80162 1.209412,-0.10733 1.927756,-4.07063 3.346991,-6.28363 0.103074,-1.28738 0.694138,8.47496 0.214169,4.72149 -0.745876,-6.12309 -0.555349,2.0886 -0.541771,4.42837 0.895481,3.91395 1.223533,8.11416 1.278384,11.99463 0.284256,3.26299 1.129741,6.14321 0.07475,6.42499 -0.500313,0.091 -1.240265,3.53042 -1.25786,1.78248 z m 0.340988,-7.83873 c 0.979133,-1.72759 1.337839,-3.92404 0.06309,-0.808 -0.141226,-3.30798 -0.354172,3.57081 -0.440714,-0.70274 0.368258,-4.65271 -1.876985,0.32043 -0.538805,1.22314 l 0.606234,0.57959 0.3101,-0.29195 z m -1.614469,-2.83564 c 1.505893,-2.82284 0.841503,-1.92758 1.104198,-4.27752 -0.443465,3.46781 -0.582996,1.12609 -1.086658,3.87303 -0.402302,-3.00537 -0.214067,-2.50401 -0.107405,-4.35502 -0.763543,1.91633 -1.339819,-6.07301 -1.491891,-0.16192 -0.255978,0.49862 0.685904,8.77874 1.581768,4.92143 z m 0.624981,-4.84696 c -0.331821,-1.9194 -0.423603,-6.97067 -0.511573,-1.94128 0.11232,0.58807 -0.201043,1.09533 0.511573,1.94128 z m -0.231386,-5.31063 c -1.474479,-0.28039 -0.712991,-2.50202 -1.216705,-2.24125 -1.884195,1.31288 2.362414,3.31447 1.216705,2.24125 z m 6.475049,17.30079 c 0.05267,-2.69388 0.255291,-5.04441 0.704875,-0.97202 -0.127477,0.32829 -0.790006,0.39495 -0.668904,3.06716 -0.08337,-0.69624 -0.03346,-1.39712 -0.03598,-2.09514 z m 38.454699,-30.35874 c -1.588023,-1.45663 -2.758069,-2.28579 -2.447662,-3.9418 0.62337,2.05556 1.265923,1.41194 2.447662,3.9418 z m -51.903445,-2.38792 c -0.216736,-1.90027 0.59329,-1.58726 -0.317537,-3.03717 -0.205939,-0.53882 1.090733,-0.10757 0.557314,-1.30012 0.428586,-0.0814 -0.03446,5.5063 -0.239777,4.33729 z m 0.06871,-4.72623 c 0.196205,-1.9648 0.149006,-8.19764 0.240629,-3.1568 0.816362,-2.7534 0.452092,-2.68383 1.816132,-4.78499 0.655189,-1.97057 -0.7581,-2.66272 -1.538778,-5.58342 1.106639,0.75882 1.997723,-1.46398 0.598739,-0.8346 -1.430117,-0.0155 -0.39363,-3.49807 0.783851,-0.46817 0.918679,0.31866 0.411422,5.19515 0.61788,0.81892 -1.264465,-2.69513 -0.488354,-1.89916 -0.503361,-6.40834 -0.723753,4.20874 0.168899,1.41173 -0.691369,-1.11721 -1.423193,-0.23428 0.08512,4.43948 -0.915062,4.55099 -1.326361,-1.88083 -0.519018,2.92065 -0.956671,-1.13226 -0.554794,-0.44712 -1.170426,4.45926 -0.609035,0.36507 0.944773,-2.43818 -1.136446,-2.48861 -1.410857,-4.78418 -0.236215,1.55612 3.09441,3.26296 2.134337,-0.10452 0.941357,-1.33387 5.072725,3.703 3.975804,3.66639 -1.656694,-3.49503 -0.480632,5.39726 -0.552143,3.3151 -0.07554,2.68528 2.20277,5.42212 1.25393,6.65338 0.109592,2.10538 -1.529301,0.96395 -0.979423,3.06911 1.132278,-1.51002 2.199093,-6.95175 2.075399,-6.72262 1.826044,-6.29731 -1.63828,4.79425 0.853377,2.97311 -1.340352,-1.3099 -0.656087,5.36995 -1.19771,2.44421 0.501823,2.19793 0.451237,3.92502 -1.393247,5.91129 -1.373199,-2.03756 -0.718126,-1.88039 -0.925629,-3.24749 0.180749,1.86158 2.171409,0.28614 1.792977,0.14578 -0.283248,1.39396 -2.497419,-1.11299 -0.323525,0.20858 -2.133704,-0.66269 -2.534263,-1.46323 -1.613157,-2.6114 -0.576858,-3.17309 -1.708268,4.74609 -1.977031,3.10685 -0.452764,1.20469 -0.225007,2.51852 -0.556057,3.72722 z m 4.723825,-5.40788 c 0.04494,-1.1108 -2.208005,0.36524 -1.728219,-2.11625 -0.803644,0.0586 -0.354582,3.34948 1.728219,2.11625 z m -4.363579,-14.25517 c -1.213043,-2.68275 0.349611,4.71217 0,0 z m 46.332784,15.11144 c -1.121206,-3.33626 -1.216313,-6.34851 -0.02233,-1.39857 -0.043,0.15516 0.255302,1.761 0.02233,1.39857 z m -48.888842,-1.66554 c -0.684324,-2.55383 -1.353992,0.59166 -0.122355,-3.51338 0.78635,-3.21581 -1.822179,1.42923 -0.152056,-2.17643 -2.681417,4.89532 0.2717,-0.67608 -0.193167,-1.96351 0.382498,-4.48257 -0.03974,2.16772 1.212971,-1.86377 -0.764029,3.20562 -0.268636,5.05063 0.05819,6.31498 0.404722,1.41745 -0.235828,1.33905 -0.664188,-0.0209 -0.414151,1.53278 0.186603,2.27318 -0.139393,3.22296 z m 4.23409,-15.44916 c -3.073638,-1.40579 -0.118534,-3.10223 -0.16752,-4.25229 -0.918609,0.53378 -2.130154,2.56385 -1.860328,1.37622 -2.037024,-0.76128 2.826408,-1.69395 1.037242,-1.82162 -1.495723,2.1225 -0.454276,-0.22126 -1.424514,0.052 0.111499,-1.2056 -0.247466,-2.91864 -0.748083,-3.44344 -3.643183,-5.72958 -1.452679,4.99107 -2.082338,5.242 -0.534098,-3.49639 0.201006,-3.67793 -0.167299,-7.57736 -0.0092,-2.38008 -1.52671,-7.49931 -1.315522,-3.15058 2.225339,2.91333 -1.668361,1.42796 0.100191,0.51942 0.658274,-2.20834 -2.080715,-5.40223 -1.599308,-2.42739 -1.489525,-2.60035 2.887407,-4.61262 3.163924,-2.60034 -0.330642,1.70583 -0.03364,1.07325 0.438929,0.42799 0.586773,2.62258 2.168591,0.89201 1.815443,0.61295 0.172684,-0.31169 -0.348175,-3.89406 -0.443707,-0.49546 -1.042727,-2.15094 2.857613,-4.274987 -0.645312,-7.100194 -2.800962,-2.586219 0.280272,-9.714332 -4.489057,-10.053026 2.191891,9.84e-4 3.392712,0.133253 1.94115,-0.750684 2.433391,-1.481419 4.074538,-1.443982 4.835726,1.739929 1.250557,1.800952 -0.472743,0.388428 -0.816713,0.324182 -0.326973,-0.09234 -1.033905,-3.791873 -1.474962,-1.706051 -0.933679,2.027205 1.004823,-0.519522 0.633798,0.690628 -1.800375,2.147947 0.05208,1.510355 1.821903,2.099008 1.295699,0.756874 3.995121,5.137697 1.641038,0.705934 1.415054,2.53393 3.770143,7.954135 0.629847,2.505534 -2.886838,-1.908582 -1.114754,-0.592051 -1.253768,-1.739925 -2.202189,-3.129091 -4.498764,1.324868 -3.673026,-1.82545 -0.389156,-0.795901 -1.145683,-0.424352 -1.0356,1.94073 0.670065,-0.930581 0.02348,0.07587 0.85525,-0.162543 0.644736,0.25363 -0.09208,2.829101 0.48217,0.786971 0.888536,-2.985799 1.411709,-0.365391 1.264823,-0.353977 0.08244,-1.467052 0.969252,0.30076 2.336087,1.227696 1.277411,-0.129246 0.610044,1.229929 2.140396,2.859243 1.655647,1.666576 2.743068,7.104155 3.429586,8.497885 -1.132278,-1.61345 -1.931493,-2.68612 -1.031763,-0.0895 -1.831956,-2.39586 2.345371,5.432 -0.03913,4.47268 -0.928131,-0.88281 -3.222069,-6.8865 -3.604195,-3.36127 0.08534,2.16361 -1.60224,-3.08448 -2.478428,-0.04 0.33632,2.19221 0.398548,2.86678 1.743249,2.96402 1.08219,0.87812 -1.340245,2.976 0.404708,5.23281 1.075161,-2.29024 1.741182,-6.1088 0.850729,-0.95533 1.333245,0.48603 -2.019603,3.10419 -0.493081,3.42871 1.270978,2.61913 -1.029025,-1.43909 0.180545,2.25272 -0.339228,-1.79463 0.183846,4.1452 -0.903088,3.94718 z m -1.887932,-4.94946 c 2.011872,-2.15054 -0.221373,-0.17745 0.08379,-0.72306 0.793296,-1.38449 -1.441288,1.14513 -0.08379,0.72306 z m 1.168512,-2.69528 c -0.288137,-1.75819 0.58077,-1.21354 -1.386158,-0.92477 0.407228,0.4344 -0.857238,1.09266 1.386462,0.92473 z m -1.690958,-1.15809 c 2.478059,-3.01031 -2.512163,1.52292 0.503159,-1.19905 2.591061,-2.62026 0.05966,-1.87474 0.101291,-1.17817 -0.563135,1.61025 -0.688275,2.47288 -1.380575,-1.02943 -1.729753,-5.098 -2.323452,2.63168 -0.199483,3.69874 0.579904,0.30571 0.404305,0.87443 0.975603,-0.29209 z m -2.248157,-2.83357 c 0.0055,-5.20031 -1.23478,-0.74436 -0.06424,1.61935 l 0.04602,-0.47568 0.0182,-1.14367 z m 2.83718,-0.75298 c -1.072323,-1.35212 -0.384347,-3.34165 -1.44263,-2.93221 -0.520209,-0.12365 1.322958,2.97688 0.753917,2.5853 0.483973,0.0784 0.678526,1.50599 0.688713,0.34691 z m 0.594169,-0.21672 c 2.366619,-0.44742 -1.381873,-2.09863 -1.113416,-2.33014 0.219521,0.33568 1.054021,3.47215 1.113416,2.33014 z m -4.279888,-3.27728 c 0.42676,-3.22301 -2.274546,-3.21197 -1.074124,-1.76738 -0.516908,0.42908 1.779325,-0.66664 0.752337,2.34182 l 0.321897,-0.57446 z m 8.192154,-2.18705 c -1.729012,-1.47096 -3.830095,-3.61726 -3.053247,-1.36486 -2.464003,0.21109 4.214394,1.94602 3.053247,1.36486 z m -4.292838,-0.77666 c 1.922588,-3.484204 1.157094,-3.739084 -0.735143,-0.66742 0.316842,0.27727 1.298201,-1.47245 0.453434,0.81894 l 0.281832,-0.15109 z m 32.166918,6.78642 c -0.897295,-1.6311 -0.230625,-1.93692 0.252103,-1.17523 0.159731,-1.0332 1.622863,-3.61731 2.079497,-1.36021 0.533409,0.64977 -1.923353,1.23173 -1.421033,1.8945 -0.444904,-1.55689 -0.178445,1.15456 -0.910567,0.64094 z m -9.433859,-1.88072 c -0.510738,-3.59439 -0.897973,-3.28496 -0.81664,-7.03453 2.257171,3.16039 0.306994,6.2036 0.816591,7.03448 z m 11.715337,-1.24311 c -1.654683,-2.57743 1.670243,-0.46422 0.02193,0.0773 z m -2.255965,-1.9141 c 0.458003,-1.06945 -3.231689,0.50405 -0.68046,-2.5042 2.66876,1.44423 0.155496,-1.50484 2.148871,-0.25761 -0.05771,0.82848 -2.573837,1.79058 -1.39129,1.30246 1.208142,0.38927 1.351982,1.31659 1.607491,1.19198 -0.416861,0.0385 -1.6037,0.72583 -1.684612,0.26737 z m -2.338437,-0.24145 c -0.572246,-0.61645 0.896719,-4.33088 0.457132,-0.36052 l -0.18269,0.35897 -0.27454,0.001 z M 45.49207,104.29475 c 0.421911,-2.12413 -0.02618,-5.594891 0.629821,-1.67281 -0.722536,0.37735 -0.284284,1.53323 -0.629821,1.67281 z m 37.169737,-0.26589 c -2.602779,-1.52979 1.778556,-1.60151 -6e-5,7e-5 z m -12.851294,-0.12963 c -1.043922,-2.9935 -1.067368,-6.267664 0.126319,-1.92451 -0.02281,0.45875 0.209923,2.32623 -0.126319,1.92451 z m -28.120996,-0.68734 c -1.1937,-2.37786 1.439205,-2.09249 0.506587,-3.774822 1.426951,-0.01186 1.477745,-4.408993 0.980199,-0.224295 -0.09184,1.490597 0.265409,3.814687 -0.797296,2.811987 -0.27326,3.16686 0.06357,-2.329614 -0.613913,0.91208 -0.103433,0.002 0.05662,0.58714 -0.07558,0.27505 z m -0.149038,-2.71928 c -1.800718,-3.103362 0.345983,-3.725184 0.187247,-0.643627 0.384438,0.776397 -0.285682,0.864097 -0.187247,0.643627 z m 30.724177,-7.908054 c -1.072864,-2.290379 1.302354,-0.986345 -0.928128,-2.037759 1.704424,5.163442 -2.194717,-3.561417 -0.418134,1.085222 -1.35457,-2.945127 -1.874837,-4.271927 -0.436751,-0.382234 -2.252464,-2.310214 -1.16903,-4.363454 -0.841656,-4.853103 -4.696906,-1.611241 0.394782,-0.238261 0.953884,0.335556 4.988538,-0.325295 -1.098403,-3.872144 1.94466,-1.150979 -2.043841,-0.735441 -0.223153,1.779679 -2.720479,-0.316008 1.252514,-2.340871 3.194033,-1.279077 4.775361,-1.325888 -2.201393,0.588561 0.107976,0.648782 -0.74025,1.524928 2.58937,-1.458007 1.855274,1.233342 2.754138,1.829084 1.176612,-0.903426 -2.300694,2.386834 -2.542937,-0.733289 1.424833,3.368194 -1.657716,0.221097 -1.169596,0.206407 1.867481,3.960412 -1.961737,-0.903182 -1.0915,0.559312 -0.356029,-1.45516 1.570681,3.592384 -0.841509,0.122816 -0.176533,-0.529676 0.651252,2.201377 -1.921468,0.336646 2.067042,1.925528 4.741418,0.01514 4.49866,3.701093 0.981253,0.622941 -0.194795,0.778598 -1.274295,1.098196 z m -7.225611,-0.898452 c -1.400718,0.337675 -0.174138,-3.778343 0,0 z m 4.909524,-5.443177 c -3.625686,-0.0091 -1.653624,-3.667551 -1.264129,-3.186442 -2.130786,2.810763 1.80944,-0.723148 2.153928,0.444424 -1.87683,2.110686 -1.825635,2.123315 -0.889799,2.742018 z m -1.044416,-1.284594 c 1.084765,-0.250133 1.41674,-0.896387 1.016368,-1.132007 -3.361804,1.208977 -0.329832,0.202597 -1.016393,1.131982 z"
     id="path2" /></svg>
