<svg xmlns="http://www.w3.org/2000/svg" xmlns:xlink="http://www.w3.org/1999/xlink" xml:space="preserve" width="578.37" height="230mm" viewBox="0 0 153.03 230"><defs><linearGradient id="a"><stop offset="0" style="stop-color:#695;stop-opacity:1"/></linearGradient><linearGradient xlink:href="#a" id="b" x1="46.17" x2="111.89" y1="157.43" y2="157.43" gradientTransform="matrix(1.21604 0 0 1.08765 -15.49 -15.38)" gradientUnits="userSpaceOnUse"/></defs><path d="M78.15 228.89c1.36-1 1.8-3.63 2.9-5.42 1.15-3.78-3.03 3.6-.5-.93.04-1.75-1.96 1.1-3.2-.54 1.64-1.6-1.25-1.14-2.25-1.01-3.19-.56-2.32-.9-1.85-4.67.38-1.8-.65-1.14-1.1-2.75-.15 7.38-.76-.53-1.08-4.06-.11 4.53-.26-.24-.74.8.66 3.48.22 1.23.13 3.05.4 2.91.5 2.16-.15 2.43 1.23 3.74 1.47 7.83-4.32 6.73-1.97 1.8-10.37.5-7.83 1.05 3.09-.57 3.97-2.15 4.62-1.95-3.39 4.22 3.94-1.66-.13.72.94-2.44.8-2.87.28-3.11 1.35-1.9-5.81 4.94-1.46 1 .87-2.02 3.6-2.77 1.94-3.17 2.32-.93 1.92-1 2.19.22 1.15-1.71-1.44-2.96.37-2.7.65 1.98-.86 3.2.7 1.04.65 2.12-.65-1.07-.57 2.12 2.14-1.85-.37-3.92 1.57-3.62 1.52-.44.13-1.72-.55-.1.29-1.62-1.6.43.09-1.71-2.4-.61 3.4.45.74-.73 1.94-2.91-.88 1.26-.57-.91-1.1 1.42-.61-.62-1.48 1.33-1.57-1.3 3.93-3.6 2.8-3-1.73-.66-2.08 1.72-2.08-.5-1.05-1.22-.58 2.71-.92-1.25-1.1.23-.42 6.12-1.31 3.07-.47 2.51-1.48 6.01-.66 1.1 1.21-1.75.31-10.03.47-4.85.1 3.4-.2-2.54-.65 1.32.73-3.6.54-8.08.86-8.07.32-1.91.37-8.07.03-2.74-.2 4.33-.1-3.3-.4 1.73-.88 6.13-.04-.88.12-3.06.2-2.8-1.11.7-.9 1.4-.29 1.96-.74.88-.74 4.1-.02-2.46-.27-8.57-.25-9.15.57.44.31-5.73-.13-1.68-.32-1.46-1.07 4.33-.53.3.12-2.98 1.04-3.01.96-3.21.1-.89.63-5.55.04-2.45-.9-2.18.82-.59.45-5.05-.75-1.83.37-5.55.2-1.9.4-3.93-.77-1.45.24-5.25.7-4.43 1.15 2.73.8-1.8.74-2.4-.06-.79.27-3.52-.24-4.47-.7 3.47-.89 3.96-.63 2.67-.36-3.87.13-4.81.8-6.73-.85.75-.9 3.59.12 4-.02 3.93-.58 8.15.88-.56-.56-9.05-.85-2.56-.38-.25.27-9.32-.25-7.8.42-6.02-.28-3.56-.22-3.54-.32-2.76.17 3.61-.38.33-.69 2.64-.82 6.1-.64 1.33 1.09-3.19.38-8.46.17-9.9-.07-3.25-.97 3.23-.54-.86.34-2.37 1-3.44.03-5.21.23.3-.15-5.26-.69-.39-.24-1 1.26-8.48-.51-2.77-.37 2.02-.01 7-.3 2.04.51-3.54-.42-5.9-3.39-3.06-1.96.93 1.62 4.05-.3 3.46 1.78 4.46-4.61-1.94.23 2.2.93 2.65.6 3.26-.36 5.93-.6-.67-.97 2.88-.74-1-.1-1.43-.61 2.1-.31-.55.71-5.67-.14-1.12-.47-2.58-.3 1.75-.64-4.22-1.17-3.3-.36-4.68-.5 4.99-.6-.87-1.34 2.99.4-2.94 1.48-2.42.66-.36-4.15-.52-1.2-.94 1.01.64 4.28-2.75-.04-.5-2.45-.83-.97-1.46-.43-.69 2.13.27-.3-1.1-.7-2.06 2.39 1.2 1.72-.81 2.38-.54-.65 1.76 1.2-2.95 1.67-1.83-.8.14 1.4 2.88.67 1.63 1.48-.74-.05-.95 1.48-2.43 2.75 1.98 1.61-.45 1.38-.93 3.06 1.42 1.25-.73.84-.97 1.27-.15 3.29 2.62 1.98.67-.48-.42.71-.75.69-1.44.7.96-.06.58.76 2.96.13-3.44.26-3.42.57-.13.2 2.77.12 3.84-.06 7.61.63-2.72.67-7.5-.24-10.8-.2-2.42 1.71 3.32.36-.9.35-.52 1.28 3.17.7.3.55-.28.01-2.26.38-3.74-.53.84.64-7.65-.84-1.38-1.18 2.48 1.92 2.47-.77 2.94-.92.71 1.16-2.91.12-1.73.94-2.07 1.28-7.8.9-2.63.76-2.53.23-9.2.74-6.24 1.26-3.68-.44.85.17-2.3-.58 2.15.47-2.73-.65.14-.93 3.09.91-8.99-.36-2.06-.16 1.84-1.4 9.13-1.27 6.96.86-3.7.95-8.17 1.77-11.46.28-2.3.37-4.87-.25-2.44-.06.18.84-10.81-.22-3.15-.08 2.05-1.93 2.35-.75 6.11.96 5.95-.14-1.2-.8-1.86.35-2.38 2.34-6.03 1.9-9.45-.37.47-1.22 3.06-1.33 3.12.5-2.06 1.4-7.74.78-7.64-.13 5.96.1-4.75-.27-3.94-.59 7.28-.56-3.77.63-2.71-.26 2.6.78-3-.74.27.24-2.15-.38-.86-.66-1.96 3.69-.5.38-.89 1.66-4.31.58-.88 1.28 2.1 1.55.59.22-1.93 1.67-1.15 1.63-.7 1 .56 2.24 2.33 2.03 2.4-1.12-1.3.38 1.84.83 1.08 1.1 2.5-1.12-.62-1.12-.21-.12-.43-.6-1.97-.8-1.23-1.02-1.9-2.39-1.28-1.1-.13-3.98-2.12 2.75 2.73.14 1.35-.59.12 2.19 4.05.1 1.56-2.25-.74-.14-2.17-2.3-2.36-1.32 3.97.49 7.4.48 11.01.5 1.72 2.71-3.1 1.35 1.29-1.21.92 2.64.6 2.13-.04-2.75-2.78 1.16.82-.6-3.03-.15-2.52-.42 1.08-.91-.35-3.57-.34-.17-3.18-1.24-3.06-.4 1.09-.7-7.4 2.17-1.88-2.33-1.12 2.16 2.18.12-1.67.15-1.17-.85 1.32-.25-1.05 2.46 1.48.17.7 3.94 2.36-3.65-.93 2.73.8.33 3.96-1.31 1.1-3.38-8.57-1.87-2.26 1.72 4.18-4.27-3.94-1.57.85 2.05 4.13-2.28-2.93.3 1.4 1.36 2.48 1.55 6.1 0 2.56-1.88-6.43.62 3-.06 2.2.3.48 1.86 6.11 1.5 7.58.04-2.55-.42-5.43.4-1.2.2 2.58.19 7.72.34 2.19-.19-3.16.2 1.4.33-.65-.19.2.74-13.48.04-6.63-1.77-2.42-1.33-3.5-1.08-3.6-2.03-3.07.45-.59-1.19-3.71.11 2.49-1.7-3.53.87.35 2.6 1.66-.2.27 1.82 3.33 1.07 3.05.74 8.45.86 3.83.86 2.6 1.03 5.82 1.27 1.29.53-1.98-.6.99-.32-.58-.6 4-.9-5.78-1.34-3.34-1.38-2.43 3.32 1.6 2.65.02.12 2.43-.22.2.21 3.73-.43.03.92-2.07.5-1.14.33 2.75 3.75 1.14 1.87 4.08.46-1.33-1.16 2.25-.07.93-1.3 1.68-.67 7.35-.1 2.52-1.04 4.26.7-6.37.4-.02.65 2.02-.66-6.65 1.61-5.27-2.75 2.99.95-1.41 1.1.6-.87-.06.87 3.3-.4 1.59.13-2.32-3.7 4.2-1 3.28-1.63 4.1.68-2.05.37 1.75.29-3.1.33-1.93 2.24-2.7-.08 1.04 2.24 1.19 1.27-.61 1.3.17 2.05.95.56-.84 2.26-1.86.22 1.72 1.54.16 1.82.66-.12-1.14-.53-2.5.2 1.94-2.43 1.21-.51.59 1.23-1.23-1.66-1.72.09-1.9-.42-.72 1.62-1.61.38-1.7-1.65 2.08-.4.09-1.92-.55.58-1.3-2.75-.46-4.63-.4-.37.39-.33.51-.76 2.46-1.32-.49-1.69-2.94-2.52-4.5-2.02 1.65-.32-2.3-.36-1.03-1.9-3.96 3 1.77.06-1.86.03-6.56-.36 5.02-1.67-.92.65 2.23.41 6.03-.35 1.39.63.08-1.84-4.35 1.31-1.7-4.86-2.82 3.86-3.01-.5-6.39 2.35-1.39 6.31-2.3 7.56.1 2.63 3.8-2.54-2.07-2.57-1.1-1.56 0 1.58 2.16-1.05.17 1.29 1.36 2.24 2.99 2.98 3.1.5-.2 1.07-.34 1.57.6 1.16-1.07.48 3.18 1.02 2.88-1.29-.26 3.1 3.98 1.37 3.45.44.24-2.81-4.33-1.34-.19 2.09 1.38 4.34 2.65 1.28 1.9.47 2.24 2.2 4.19 1.9.71-.4 2.68-.28 5 .56 4.55.37 2.45 3.71 2.09 4.58 3.01.12 1.14 4.3 5.19.73 1.61 1.45 2.38-4.5-5.29-1.92-.32 2.07 3.09-.77 5.26.57 9.33 2.03 3.66-.96-.94.3 3.43-1.17-.46.54 1.19.47 3.83-.93-4.85-1-.41-.14.66 1.41 1.65-.7 3.7.12 3.68 1.78 1.15 1.25-3.2 1.64-1.12 1.37-.28-.58 1-.26 2.76-.2-1.34-2.87-.14-.62-.14 1.87 1.59.53 1.52 1.36 4.08-.9-2.58.2 2.7.74 2.6.06.56 1.04 2.16.95 2.6 1.28 2.81-1-.9-1.13-.08-2.53-3.88 1.8 6.66 0 .84-1.4-.78 5.06 2.35 2.32 1.62.74 1.11-1.68-1.1.27 1.72.75-.53 2.1 4.22.1.2 1.17 2.67 1.2 5.98.98 8.83.77 2.81.89 4.21-.15.49.22 3.66-1.55 1.95.7 4.33 1.57 1.53 2.02 4.2-.19.73.56 3.61-1.15-1.94-.17 1.78.37.88.5 4.23 1.81 3.6.34-3.17-.92-6.02 2.1-1.69.92.88.04 2.98.37 3.58-.47-4.65-2.94-5.9-2.6-.55-.4 1.86-.45-.18-.69-1.42-1.71-2.77 1.4 7.32-.27 1.44-.3 1.06 1.3 6.34 2.67 9.1.75 3.34.59 3.48-.2.02-1.34-3.44-1.68-1.66-1.66-1.74-.7-2.54-1.07-8.26-1.89-8.2-2.1-5.14 1.05 8.9.1 4.57-1.2-3.85-.57 2.06-.2.45-.1 2.6-1.27-1.44.14 2.24 1.38 4.24 4.08 10.31 1.46 5.95-.25 1.09.4 2.77.25 1.62-.04 1.89 3.34 7.69 1.13 4.13.92 2.67 1.6 4.5-.07 1.1-1.58-2.1 1.57.77-.7-1.12 1.98 3.3-1.97-2.1.12 1.2 2.51 2.41 3.92 9.58 3.77 6.76.47 1.42-.14 3.18 2.08 5.3.92 3.68-2.16-3.7-2.01-2-.25-1.74-1.13-5.35-2.11-5.66 0 .82-.73-2.55-1.07-1.63-.95-3.21-1.25-1.74-.83-.63-1.35-.62 2.36 4.94 1.36 5.72 2.2 3.55.37 1.19 1.31 3.94-.7-2.23 2.2 3.8-.04.76 1.35 2.6 2.29 4.09 1.2 1.38 2 3.89 2.79 4.36-.54 1.1-2.78-4.38-.26 1.59-.36.03 1.07 0 6.79 8.48 1.9 2.9 1.34 1.24 1.28 2.18 2.48 2.83 1.1 2 .6-.03 1.92 4.1.98.1 1.12 5.42.27 4.3.7.24-.33-5.4-2.42-6.85 1.7 5.08-3.32-7.93-2.01-1.17-1.35-3.3.85 2.74-.18 1.15 1.26 3.24.17-1.3 1.77 2.39-1.91-2.69 1.97 4.17.63 2.47 1.09 3.07 2.26 5.41 4.23 6.55 1.95.5-1.46-1.22.83-.9-2.7-1-.93-3.19-1.58-1.48-2.28-.02-4.4-6.17-1.28-1.58 1.18 1 1.19-.47 2.68 2.22.21 2.41 1.68 2.74 2.25 3.23 2.5 1.66-2.45.09 1.44 1.48 3.47 1.08 3.44 1.55 4 .7 2.61 1.18-.17 1.32-2.26.81-.65-1.7-4.74-.26-1.91.34-2.46.23-3.07.31-1.38-.9-3.34 1.3-1.15-.29-4.22.42-2.62-1.3-4.65-6.78-2.31-1.32a6 6 0 0 0 1.75 2.47c-1.25-2.6 2.6 2.83.8.08 3.47-1.25-.97.14 2.04.97 1.75.54-6.42-.84-7.03-1.62 1.72.02-1.55-3.5-1.5-4.83-1.52-2.17.32 1.22.66 2.72 2.63 2.41-2.2 1.22-1.06 2.26-.96-.08-6.02-.21-3.78-.9 2.05 0-3.63-1.72-.87-.35-2.33-1.32-1.12 2.38-2.96-.62 2.77 1.6-.66-2.31 1.01-.42-.93.6-2.72-1.25-.6 1.52-2.67-2.65-1.44-3.76-1.07-3-.5-1.64-.6-.92-.97-2.53-.86-1.8.36 1.97-.14 1.48 1.92 4.77-1.92-1.24-1.56-.59.61 2.16 1.18 3 1.73 2.8.81.12 1.47 3.75 2.57 3.63.39-2 6.31 2.24.95.15.05 1.53-7.14-3.27-4.52-.53 1.73.75-4 .1-1.21-1.07-3.14-1.43-4.33.12-6.2 1.8-.5 2.3-4.83 2.77-6.99 2.76zm1.84-.4c-.04-1.98.59 1.53.82-2.14 1.02-.43 2.18-6.02-.02-1.86.31.4-2.41 4.78-.8 4zm1.55-.19c.97-3.43.9-1.73.77-.3.63-.17 1.62-3.44 1.29-.76-.3-2.73 1.4.18.1-2.46.46.58-1.27-.2-.8-.07.12-.72-.3-.1-.5-.7-.17.54-2.75 5.36-.86 4.29zm26.28-3.16c-1.97-.22-2.54-2.32-2.47-.84.5.5 1.8 1.4 2.47.84zm-16.15-1.21c-.4-1.26-.73-3.54-1.17-4.4.26 1.18.37 3.96 1.17 4.4zm19.84-1.1c2.92-.07-3.77-.66 0 0zm-28.19-.55c1 .02-.1-2.65-.29-.47.82-3.78-1.04-3.75-.67-.66.98 1.25-1.76-1.04.96 1.13zm26.8-.24c-3.02-2.15-3.02-4.17-4.77-4.7-3.75-4.3 2.76 3-.3.71-.78.7 3.33 1.92 4.68 4.09.25.08 1.42.14.4-.1zm-29.86-.37c2.52-.27.25-.01 2.35-2.97-.32-2.02-2.45 2.67-.7.83-1.35 3.19-2.26.43-1.8 1.3-.05.31-.94 2.1.15.84zm-11.21 0c3.35-.78-1.02-3.88-1.14.06 2.4-2.43-.24.42 1.14-.06zm-4.78-.67c2.52-2.08-3.51-.48 0 0zm26.76-1.32c-.47-2.16 1.42.87.03-2.37-1-2.25-.6-2.78-1.2-1.56-.26-4.48 1.7-.1.46-3.55-.55.64-.55 4.47-1.1 1.3.34.98 1.04 6 .8 2.73 1.17 2.72-.01 1.1 1.14 4.23zm10.96-1.08c-.82-3.8 1.98 2.3-.07-2.44-1.18-2.25-.4-3.04-1.51-5.09.66 3.6-.73-.5.3 3.76.95 3.87-.91-4.74.68.4-.04-.1.69 4.8.6 3.37zm2.14.21c.77-.46-2.07-3.2-1.22-1.16.39.3.45 1.27 1.22 1.16zm-27.47-2.02c-.1-1.9-.03-3.71.38-4.37.56-1.5-.46-4.59-.42-.41-.32-2.47.1-7.12-.4-1.91-.04 2.69.19 3.94.31 8.07l.08-.53zm5.44.65c1.05-.52-.62-.45 2.03-.12-1.6-1.03.8-1.64-.81-3.25.42 4.82.68-.23-1.06.28.04.33-1.11 3.85-.16 3.1zm-13.5-1.74c.78-2.6-2.37 0 0 0zm35.84-.4c-.46-1.3-1.64-2.32-.93-.81-.05.29 1.44 1.86.93.81zm-22.18-1.26c3.19-1.51-.85-2.17 0 0zm5.98-1.75c-.02-2.67.25-3.27-.52-5.2.29 1.42.23 4.76.52 5.2zm-5.33-.58c1.56-1.71-1.04-1.62-.46-.2-.14-.1-.8.34.46.2zm.9-.01c.97-2.04-.37-2.44-.7-2.66.49.75.14 3.33.7 2.66zm16.25-.62c.15-2.5-.2.86-.8-2.47-1.25-5.58-.42-.46.1 2-.17-1.8.88 1.58.7.47zm-2.1-1.76c-.25-3.31-.9-9.55.2-11.16.11 1.38.63-1.58.6-1.15-.6-2.79 2.7 2.66 0-1.21-1.29-1.51-.79.66-1.36-.98-.57 1.43-.28-3.84-.66-3.12-1.12-3.17 1 .7-.41-2.11-.11 2.2 1.22 9.51 0 3.11.6.15-1.4 10.05 0 3.98.52 3.55.84-3.29.6 1.04-1.03 2.72 1-1.22.26 2.9.04 2.95.29 6.82.76 8.7zm-17.08-.3c-.24-3.41 2.78-.46 2.08-.52 2.38-2.76-.49.11.9-2.9-1.84 1.64-.4-2-1.53-.69 1.43-2.13 1.9-5.99.45-4.21 1.08-2.74-.54-.78-.71-.61 1.22 2.88-2.74-3.14-1 .1 1.32.63 1.27 3.49 1.29 3.82-.1 1.35-1.23-1.6-.56.23-.9-2.59-.12 3.62-.2.43.37 1.95.9 3.85.35.13 1.44 2.82-.42 2.9-.52 1.7-.23.05-1.13 4.07-.55 2.52zm1.73-5.98c-1.25-2.86 2.65-.67 0 0zm-15.26 5.23c3.25-1.84 1.35-1.7.16-.44.2-2.7-1.17-.73-.2-2.31 1.74-.38 2.93-2.06.79-.7-.6-1 .14.67-.6-.04.03-.52-1.34-4.13-.82.25-.18-.3-.76 2.4.18 3.33zm-2.12-.8c1.23-4.73-1.51-3.54-.28.57zm7.74-1.52c-.12-1.56.65-4.87-.34-4.06 1.26-1.11-1.22-4.54-.2-.78.36.65.38 7.2.54 4.84zm-5.17-2.3c.93-1.72-2.7-.4-.36-2.95 1.86-2.27 1.2-.3 3-3.26-1.81 3.85-2.02-5.16-1.7.26-.03 3.5-.63-5.27-.54.37.26 2.24-.89 2.54-.41-.35-.16 2.23-.22.52-.6 1.13.12-3.85 1.25-6.08.5-8.28-.45 2.98-1.1 4.2-.4.29.34-2.26-.72-3.11.5-4.99-1.78.19-.22-2.02-.97-2.25-1.21.31.57 11.23-1.07 4.93 1.4 1.62-.97-1.5.56-1.68-1.16-1.82-.3-1.61-.66-4.75.03.93-1.39 5.21-.93 1.29.03-3.42-.5 4.25 1 5.95.23 3.4.9 9.3.31 9.9 1.59-1.3 1.94 3.05.4-.02.71 2.28-.89 1.57-.06 2.53.25.11.93 2.11 1.43 1.88zm22.74-.42c-.15-1.13-.54-4.03.19-3.07-.99-2.56-3.43-6.75-2.68-4.87.7 1.57 2.47 3.52 1.83 6.88.66.34.12 2.6.66 1.06zm-21.57-1.05c.34-1.12-1.39-.86-1.28-.44-2.43.11.76.4 1.28.44zm8.52-1.26c1.3-2.79 2.72-10.74 1.17-3.76-.11.17-2.36 6.17-1.17 3.76zm15.31-.1c2.18-2.3-.3-2.09-.17-.78 1.6-.07-3.89.69.17.79zm-5.98-2.57c-.93-2.41-1.03-5.26-.76-6.23-1.43-2.54-.27 3.88.42 5.52.14-.1.33 2.22.34.71zm-4.93-.39c3.51.55.45-1.94.48.24.57-2.6-1.34-3.45-.97.22l.24-.24zm-7.93-.54c-.32-2.12-.1-8.59.58-6.37.12-2.6-.8-.89-.45-2.22.92-.97.08-1.63-.4-.37.24-2.28.15-7.15-.54-1.83.9-3.28-.48 4.5.3 2.67.16 2.5-.54 4.71.2 4.2 0 .3.24 6.62.31 3.92zm-4.41-.61c.32-2.98.04-2.84-.04-1.64.22-2.57-1.08-6.02-.5-1.08-.05.11.62 5.16.54 2.72zm-.59-1.63c-.64-5.45-.3.37-.62-.15.57.94 1.17 3.56.62.15zm12.08 1.07c.53-2.38.41-6.4.6-1.35 1.55 0 .16-3.45.32-5.95.52-1.2-.1-5.5.32-5.09.6-3.38-1.11 1.4-1.85-3.12-.97-2.29-1.37-6.65-.2-6.82-.92-3.34-.94 1.12-1.49-2.96.16-1.8-1.03-.68-1.14-2.22 2.1 1.67-2.22-2.45-.9-.22-.28-1.28 2.4 2.38 1.19 2.43-1-.91.26 3.01-.86.9 1.41 1.9-.83.69.85 3.62-.45-3.02 2.68.65.35.48 1.78.72 1.35 3.08 2.24 6.2-1.7.5-1.28.44-1.58 2.14.56 1.3 1.46-1.06.86-1.26.4-1.08 1.21.4.97 2.24-1.65.55-.9 1.59-1.51 1.89 1.42 1.66 1.53 3.87 1.92 6.54.7 5.91-1.97-6.64-.75-.33.33.01-.55 2.75.66 2.88zm-.1-5.55c.37-1.34.45-1.7-.1-4.16-.05 1.46 1.18-2.86-.1-3.2.2-2.64 1.16 2.58.97 3.19-.33.56.77 3.11-.77 4.17zm-2.42-16.2c-1.8-1.64.64-6.3.58-1.39.1.1-.09 2.74-.58 1.4zm4.63 21.28c1.18-2.34 1.26-1.85-.14-1.5.01-1.7-1.9 3.27.14 1.5zm-19.96.11c.68-1.6 1.05-5.55.75-4.55.01.62-.65-1.9-.45.26-.33-6.34-1.43 4.99-.3 4.29zm26.26-.6c-2.17-1.25.16-1 .66-1.5-3.03.03-1.03-1.36-1.95-1.41-1.25-.09-1.23 1.46 1.29 2.9zm-18.38-1.88c.02-2.99.9-5.63.09-4.52.03.32-.83 8-.09 4.52zm11.96-.3c-1.24-3.9-.21 2.55 0 0zm1.5-.1c1.14-.97-1.2-5.25 1.64-2.07-1.49-1.76-2.24-5.26-1.56-1.68-1.55-3.07.79 3.84-1.67 1.04.35 2.56 2.3-.45 1.38 3.42l.11-.14zm10.2-1.71c.05-3.09.67-2.4.91-2.5-.48-3.36 1.33-2.96-.24-5.7-.51-2.47 1.56 4.04.14-.44-2.05-5.52.83 4.36-.3 5.36.2-2.78-.93 4.18-.52 3.28zm-24.44-1.46c.03-1.77.49-7.44.88-2.6.06-3.16.54-6.96 1.16-1.9-.37-4.13-.2-4.84-.58-8.82-.35-.05.04-1.58.5.46-.3-1.62-.24-4.51-.9-1.23.32-3.55 1.25-6.75 1.6-8.8.43 1.43 1.45-2.05.94-1.98.2-.07-2.2-3.34-.05-5.88.6-2.32-.35-6.7-.12-2.58-.43 3.68-1 4.8-1.23 4.51-.43 4.11-.81 5.57-1.85 10.46-.74 2.57-.27 7.49-.08 2 .3-5.29.67-.04.74-1.2.08 3.35-.4 9.09-1.03 13.2-.25 1.2.04 4.26.02 4.36zm1.82-21.27c-.33-2.07 1.28-8.97.45-2.4-.13.06-.33 4.17-.45 2.4zm20.16 19.15c.1-2.27-.13-7.8.42-5.92-.2-1.95.44-5.72 1.45-3.15 1.38-.98-1.56-1.35-1.04-3.7.33-2.54-1.06.72-.6-2.85.02 2.76.48 5.22-.16 8.05.19-1.54.12-5.37-.83-2.66.24 1.99.87-.03.39 3.87.27.64.06 7.3.37 6.36zm-6.3-1.08c-1.42-2.5-3.88-1.8-3.06-1.39-.25-1.3 3.24 2.38 3.05 1.4zm-18.42-.68c1.62-5.34-1.04-1.21 0 0zm11.2-.89c-.33-4.4-1.69-.9 0 0zm-5.32-.97c-.05-2.34.62-2.9.55-1.76.86-1.72.69-3.72.35-5.62-.21-4.87.22-2.88-.81-.26.72-1.17.34 2.39.04.48-.3 2.15-.16 6.14-.13 7.16zm24.61-.55c-.8-2.66 2.45.37 1.3-.57-2.69-4-1.83-2.55-1.33 1.07zm.54-2.57c-.9-3.14-2.81-5.96-1.73-2.34-.08-4.2.8 1.67.44.75.38-1.5 1.24 2.75 1.3 1.59zm-21.08-.4c1.02-1.27-.03-7.47-.65-5.35-.25.77 1.25 2.3.18 2.17-.8-.22 1.26 4.32-.38 1.41-.07.17.83 3.13.85 1.77zm1.94-.23c-.04-.14.26-1.42-.56-2.23-1.8-1.33.71 1.49-.8.65-.13.74 1.48 1.01 1.36 1.58zm-13.62-.52c.5 1.02.65-5.73-.33-4.94 1.06 2.79-.94-1.24-.05 2.44.23.35-.9-1.28-.24 1.6 1.58-2.84-.47 1.35.62.9zm2.08-1.9c-.24-1.79 1.25-10 .15-5.7-.42-.46.85-4.98.5-2.39 1.37-3.11.34-4.62 1.26-9.1-.92 2.51-2.12 5.09-.88 3.71-.38 1.33-.86 4.39-1.28 1.65-1.05-.16.47 1.62-.4 1.39-1.36-2.3 1.31-2.57.67-1.8-.2-2.42-1.33-6.48.38-2.4-.4-1.52-.42-3.98-.74-4.03.12-3.57.82 2.4 1.55-1.16 1.11-2.19 1.79-11.77.9-5.59-1 2.39-.93 4.4-1.47 5.63-.7-2.76-.74-2.78-1.22-.7-.16-3.15-.16 4.74-.38 6.58-.62 3.38.24 4.6.55 5.29 1.3-2.63-.02 1.74.31 3.04.2.87-.38 7.04.1 5.57zm14.15.11c-.08-.9-.3-1.76-1.35-3.23.24-3.43-.56.43.37.8-.58-.23 1.1 3.23.98 2.43zm12.15-1.8c-.13.52-.04-3.31-.72-1.86.05.32.62 3.66.72 1.87zm-19.1-1.82c.5-2.12-.94-6.26-.19-5.64 1.3 3.21-.3-8.85-.2-3.78-.27 2.26.65-.24.12 3.29-.83-3.15-.06 2.81-.42 3.32.94-1.96-.18 2.7.7 2.8zm18.41-1.23c.1-1.23 1.21.67.25-1.12-1.05-1.41.95-1.45-.83-2.06.17.48-.8 2.1.58 3.18zm-31.64-1.79c1.39-2.33-.3-5.59 1.01-8.17-.23 2.65-.19 1.54.12 2.37.24-3.46 1.19-.35 1.22-4.42.34 1.17.46-3.54-.2.1-1.27 3.65-.62.94-.32-.68-.64.95-1.51 4.84-1.9 3.16.27 2.9-.4 7.25.07 7.64zm23.97-2.06c1.2-2.53 1.5-4.03 1.38-6.37-1.3-2.2 1.58-1.67-.48-5.07-1.61-1.58.24-4.87-.58-4.95 2.53.57-1.85-1.61-1.24 1.54-1.12 2.9-2.64 8.2-1.1 9.74-.46-3.2.04-1.38.3-3.01.04-.9.68-5.04 1.71-1.36-.48-.88 1.44 6.65-.14 9.07l.05.66zm-7.02-.44c-.08-1.48 0-.9-.88-1.26 1.02 3.81-2.55-6.42-.2.65.05.46.54 1.23 1.08.61zm-1.92-3.98c1.03-2.77-.38-3.11-.11-1.19-1.78-3.76.99 3.34-.5.23.4 1.55-.6 3.88.6.96zm11.37.98c1.33-1.8-.44-5.8-.24-2.66.24-1.07-.58 3.37.24 2.66zm-16.82-2.6c.02-2.8.5-2.26.53-.87.1-2.25.33-7.21-.2-7.68-1.03 4.92.44-5.38-.37-.5-1.13 2.5 1.2-3.77.3-5.06-.55 2.64-1.07 7.62-.78 7.65-.87 5.1.8 2.55.28 8.2.34-.53.12-1.17.24-1.73zm-6.03 1.14c1.34-.49-.9-2.5-.6-2.43-.52.84-.08 3.24.6 2.43zm28.64-.97c-.24-4.59-2.06-2.87 0 0zm-18.27-.85c.5-4.2-.4 1.94-.48-1.86-.08-3.53-1.06 3.44.48 1.86zm-1.87-.72c.42-1.38.8-5.14 1.33-3.05-.27-3.92-.04-4.38-.64-2.72.61-4.15-.1-2.84-.17.22.24.74-1.26 4.31-.54 4.25-.64.04-.64 3.39.02 1.3zm3.34-.46c-1.38-1.36 1.23-3.14 1.47-3.17-1.59-.69.99-.91-.73-1.71-.72 1.71-.31 3.98-1.02 1.5.1 2.14-.53-2.56.52-.82 1.38-1.46.94-2.3-.06-1.46-.6-3.16-.52 2.12-1.04-.14.08 2 .03 2.69-.29 3.65 1.77-1.17-1.16 1.9.83 1.68-2.13-.44 1.63 2.15.32.47zm11.01.44c.91-1.76-.43-5-.43-1.85.32.73.24 1.24.43 1.85zm-26.88-1.9c.8-1.44-.63-5.44-.33-1.03-.72-.95.16 2.07.33 1.03zm1.76-.67c1.35-.57 1.3-3.7 1.76-2.72.33-.45.3-2.27-.97-.09.1-2.03-1.5.31-.63-.09-.24.43-.98 3.5-.16 2.9zm-2.5-1.17c.4-1.99-.3-6.24-.13-1.75-.17-.31.02 3.7.13 1.75zm26.76-.7c-.25-1.1-.09-7.32-.23-1.66-1.67 3.07.87-4.06-1.2.16-.07.38 1.68 3.3 1.43 1.5zm8.95.53c-.26-1.55-1.13-4.27-.65-1.53-2.8-3.89-.9 2.06.3.51-.92-.06.5 1.44.35 1.02zm.16-1.83c1.42-.66-.21-3.44.73-4.1.9-2.74-2.8-11.6-2.25-5.24.5 1.63 1.41 5.64 1.41 8.79-.25-.34.05 1.87.11.55zm-31.9-.75c-.07-.98 1.27-1.76.24-2.25-.36.39-.6-.7-.65 2.16l.2.27zm29.36.04c-.21-1.78-1.91-4.45-2.4-4.12.5 2.24.46 4.92 1 2.05a8 8 0 0 1 1.4 2.07zm1.8-.91c1.03-1.28-.6-6.27-.8-5-.93-1.83 1.21 5 .8 5zm-20.4-.08c.58-2.09.64-7.05-1.13-5.03-.74.46-.72.64.15.5 2.45.25.3 3.09.95 4.7zm-2.74-.38c-.71-.6 2.46-1.34.08-3.16-1.25.57-.92 3.67-.08 3.16zm7.14-.09c2.12-.94-.03-2.76-.07-1.1-.33-.43-.47.25.07 1.1zm-2.79-.49c.34-.35.82-3.13.47-3.86-.57-.25.03-1.2-1.1-1.57-.62-1.84.5 2.52-.24 3.1-.5 1.55 1.88-1.08.22.9-.62.11.4 3.18.65 1.43zm-16.24-1.74c.2-3.02-.25-5.22-.18-.87-.28 1.3.12 3.62.18.87zm24.76.62c3.68.73 1.7-1.73 1.5-1.16-3.23.12 2.92 1.05-1.55.99 1.04-2.28.7-2.32 3.1-.75-1.47-1.7-2.51-3-2.56-1.4-.35.43-1.45 4.17-.49 2.32zm-4.58-.14c1.32-2.2 1.18-1.58.12-.92-1.72-2.46-.06 1.74-.12.92zm-1.28-1.48c.97-1.96.39-2.85-.29-.35.34.88-1.81-1.29-1.12.45.48-2.03.6 2.41 1.41-.1zm-13.74.57c1.18 1.5 3.28-2.6 3.8-4 .66 1.05.43-2.35 2.28-3.88.17 1.5 2.02-6.17-1.11-2.14-1.52 1.4.86-4.03-.83-.17-.91 4.44-4.65-2.23-3.5 2.28-.6.64-1.18 1.46-.35.48.18 4.36.67-5.05 1.06-.07.58 2.49-.31-2.17.73.6 1.62-2.7.42 3.22 1.14-1.3.14-.29 2.33-1.41 1.83-1.68 1.24 1.39-.4.59 1.43-.84-.06 1.05-.65 2.94-2.68 4.55 2.69-1.2-1.07.47-.4.43 1.17 2-2.81 3.7-1.95-.05-.15 2.15 1.54.5.38-.28-1.74-2.16-.82 4.18 1.48 2.4-.93 2.66-2.39 3.21-2.26 2.92-.26-.08-1.85 2.3-1.05.75zm-1.3.1c1.3-2.67 1.19-1.2 1.1-4.55.39-2.73.1-1.63-.83.5.16-.1 1.17 1.8-.62 3.95.76-3.25-.2 1.79.36.1zm21.4-2.45c4.38.5 1.77-1.11.03-1.52-.06.75-1.23 3.66-.04 1.52zm3.83-.86c-.94-3.82-2.35-2.93-.18-.67.08.28.26 2.66.18.67zm-28.78-1.68c0-2.58-.5.73-.09-2.9-.44-3.33-.11 2.87-.15 4.27.3 2.01.21-1.72.24-1.37zm17.02 1.72c.75-2.32.39-4.49.93-1.08-.06-1.78.94-3.55-.12-3.03-1.21-1.28-1.38 2.1-.84 1.32-.68 2.14-1.97 2.32.03 2.8zm-.24-.21c-.63-.44 1.05-3.59.15-1.86.69.32.3 1.6-.15 1.86zm-19.09-1.74c1.17-4.21-.76-2.92-.49.59-.62.93 1.81-.3.49-.59zm17.93.34c1.52-.96-1.82.52-.4-.72-.1-.05-3.43.62.4.72zm-2-.48c.17-.25 2.44-3.4 1.83-2.85-.66.56-1.39-.08-.81.83-.96.09-1.56 1.06-1.64 1.84-1.05-.68.53 1.06.62.18zm-19.27-.58c1.75-3.2-2.6-.28-.13-.26.11.25-.7 1.07.13.26zm32.84-.6c-1.72 0 1.08-2.46.05-2.34-1.14 2.99-.77.38-1.88-.51 1.34 1.25-1.97.99.26 1.96.04.42.89 1.54 1.57.9zM80 143.1c2.25-2.64-2.15 1.9-.5-1.28-2.45-.83-.69-1.1-1.15 1.52.2-3.2.92 1.32 1.65-.24zm6.2-1.69c1.56-2.6 4.76 2.18 2.46-1.52.78-.44-2.03 1.52-.9-1.4-.88-1.01-.38 2.28-1.17 1.52.25-1.89-.86-.72-.71-1.13-.1-.94-1.17 3.16.15 2.24-1.65-.24-.37 2.39-.38 1.07zm-21.72.3c.3-2.57 1.1-12.09 0-10.59.1.03.2 5.35-.21.62.13-2.14.5-2.7.1-2.4-.51-1.19.62-3.93-.36-4.38-.35 2.66-.08 4.08.07 7.68.35 4.4 0 2 .75 2.28-.2-1.6-.85 11.88-.35 6.78zm8.78-.03c3.3-2.05 2.62-5.73 4.92-1.94 1.82 1.4-2.62-2.25-.4-2.06-2.03-1.46-3.58 5.44-3.58 1.2-2.1.43.36 1.69-.75 1.76.16-1.48-.54.47-.73 1.7zm-15.4.37c-.26.1-.6-3.34-1.4-1.67.3.07.48 1.73 1.4 1.67zm11.09-.97c.14.96.52-.2.7.47-1.45-3.27 2.8-3.95.58-3.38-1.65 3.87.97-.15.78 1.53-.56 2.15 1.55-2.06.93.22.71-1.7.84-5.19.39-3.5.27-.39-1.7 4.3-1 .98-2.27 1.47-2.98 1.46-2.6 3.74-.01 1.76.15.9.22-.06zm8.1 1.18c1.29-2.55-1.13.25-.68-.32.38-.27.34.91.68.32zm-9.03-1.28c.6 1.07.42-2.51-.07-.76 1-5.7-.8 1.3-.1 1.33.06-.27-.02-1.74.17-.57zm7.2-.22c1.73-.35 1.47-3.36.54-.84-.22.03-2.03 1.62-.54.84zm-7.66-.16c.52-4.77-.98-2.5-.26.17zm25.09-.33c-.87-2.53-2.7-9.73-1.78-5.12-.43.15.85 1.87.59 2.72.42 1.53.46 1.56 1.19 2.4zM73 139.28c1.28-3.5.46-.53.64-.62.5.66 1.2-3.58.25-2.74.27-5.55-1.57 4.5-.95 2.84-.06.25-.1 1.25.06.52zm-4.07-.78c.15.54-.12-6.6-.14-2.48-.12.39-1.42 4.11.14 2.48zm17.95-.11c-.56.6 1.68-3.9-.3-1.9-.2.1-.97 3 .3 1.9zm-17.1-.73c3.18-1.49-.54-1.15-.05-3-.7 3.75.45 1.5.06 3zm20.42-.03c1.12-.5-2.72-2.34 0 0zm-5.29-.27c2.11-3.35-.83-4.35-.2-.36.08.07.03.85.2.36zm-4.3-.92c.77-3.7 1.42-7.02 2.09-10.78-.81-.06-1.68 11.94-2.33 8.98-.33.26.23 3.32.25 1.8zm5.4.56c.19-2.53 2.4-1.92 1.1-3.37 1.08 2.3-1.29-.32-.53-1.42-1.5 2.86-.49 3.75-.57 4.8zm-11.29-1.92c.16-.9-.61-7.42.56-8.13.12-1.46-1.41.63-.77-2.32-.94 3.3.73-6.88-.4-.4-.4-2.94.6-10.89.4-3.71-1.1 4.14 1.47-3.66 1.27-3.46.44-2.17-.46-5.9.47-1.47-.28-2.12-.65-6.5-1.11-2.08 1.3.9.42 5.5.26 3.73-1.22 3.73-.56-1.14-.8-1.36.44-3.39.59-5.13-.22-1.6.27.15-.26 5.9-.67.51-1.2-6.42.97 7.88-.32.27.1 3.13.98 6.6.19 3.9-.27 1.46.09 1.58.29 2.18-.15 2.81.1 3.74-.07 5.45-.25 4.66.44-2.58.66 1.92.23 1.24-.18 9.27.26 6.57zm-3.6-.15c-.82-1.05-.3-5.92-.82-2.41.53.06-.18 4.54.82 2.4zm1.2.18c1 1.35.18-2.45.1-.92a9.8 9.8 0 0 0 1.88-5.93c-.88 3.54-1.21 3.69-1.69 4.9.04.04-1.48 3.66-.3 1.95zm-2.15-.43c-.14-3.44-.4-4.92-.57-.93-.3-.27.64 1.64.57.93zm18.01-.16c.45-2.4-.93-3.84-.33-.33-.08-.07.41.93.33.33zm-16.57-.88c1.46-2.48 1.81-4.03.22-1.7.17 1.03-1.08 1.2-.22 1.7zm13.92-.16c-.17-.47 2.1-3.73.05-1.07-.05-2.65-.63-4.46-.15-.75-1.47-2.35-.2-.36-.24 1.1-1.27-4.47-.18 2.67.34.72zm-5.68-1.26c.34-3.36-.11-2.1-.4-5.33-.29 1.92.43 3.15.22 6.07zm-11.95-.93c-.5-2.12 1.35-7.57-.7-2.5 0 1.09.93.47.63 3.33zm19.34.17c1.1-.11-.34-1.76-.06-1.7-1.14-.35-.04 1-.3 1.77zm-15.46-.24c.62-.7-1.67-2.87-.42.15zm4.76-1.01c.12-4.21-.07-8.64.17-13 1.14.52.34 4.24.94 6.58.17-.79-.26-6.52 1.07-5.64-.42-2.43.18-3.05 1.08-1.4-.04-1.33-.93-1.73-.97-2.3.16-.52.57-4.08-.37-1.82-1.12-2.5-1.41 2.73-1.6.35-.16 4 1.68-1.56 1 2.47-.16 1.13-.38.68-1.05-.16-.47 2.17-.44 6.27-.3 10.32-.16.54-.11 6.72.03 4.6zm-6.42-.32c.9-2.2-.26-1.85-.5-3.57-.79-5.6-.16 2.94.5 3.57zm15.6-.46c.17-2.91 1.21-4 1.38-.58 1.22-.67-1.16-4.58-.6-5.94.37 5.18-1.17 1.05-1.47.89 1.62 4.08-1.66-3.78-.02 1.38 1.9-.73.09 5.55.7 4.25zm-13.2-.62c-1.01-2.64.04-5.27-.76-1.37-3.16-2.6 2 3.38.75 1.37zm-.81-2.2c.08-3.08.57-3.85 1-3.74-.27-3.26-.21 2.37-.5-2.05.45-2.92-.07-2.76-.4-3.77 2.28-1.05.4-4.36 1.58-7.23-1.8 6.7.97-4.35-.05-2.38.3-3.27-.89 7.05-.74 1-.64.3.59-3.36.73-2.26-.65-3.2-1.17 3.33-.87-1.29-.59 1.65.37 7.15-1.17 6.24-.32 2.57 1.96-2.46 1.3 1.91-.83 4.54.3-1.9-1.41 1.87.94-.1.44-.2.27 2.44-.59-3.28-2.03 4.02-2.3 3.28-.23-1.75-.3-.48-.1-2.7-1.05 2.65.68-1.78-.18-.41.08-1.6.97-.16 1.57-1.03 1.93-2.8-2.54.44-1.03-1.73-.64 2.87-.1-2.82-1 1.27-.44 2.1-1.08 5.45.35 5.73.28.06-.58 2.6-1.13-1.33-.59-.43-.47-3.92-1.25-.76-2.4 3.15-.3 7.44-.47 3.36 1.59 3.44 1.9 1.62.25.62 2.44 1.27-.73-1.86 1.72-.18-.45 1.4 1.7 3.17 1.05-.33-.47 3.15-.78-2.5.88 1.25 1.18-.9 1.68-3.69 2-1.23-.08-6.11.37 5.72-.44-.8-.37.2.5 3.96.34 4.25zm-2.05-2.89c-1.65-2.5 1.53-4.07.74-4.76 3.32-3.41-.53 1.46-.53 3.9 1.3-1.62-.62 1.25.92-.32-.22.44-.49 2.59-1.13 1.18zm13.33 1.05c.67-1.55.44-5.44 1.3-2.54-.74-3.59-.73-6.5-1.03-1.52.66-.08-1.36 4.66-.27 4.06zm5.15-1.69c-1.57-3.3 1.82 1.7.39-.73-2.46-2.72-1.14 1.35-.4.73zm2.23-1.44c.35-3.29-2.25-1.63-.59-.52.25.08.53 1.5.59.52zm-8.78-1.26c-.2-1.5 1.48-4.73-.2-3.52-.34-.37 1.23-2.53-.6-.9-.62 1.47 2.17 1.73-.27 1.4-.97 1.64-.13-2.4-.64 1.26-.42 1.71 1.12-2.48 1.26 1.17.3.57.33 3.45.45.6zm-17.19.37c-.14-2.17.8-4.13.34-3.76.47-2.02.39-3.38-.34-4.55.42-1.42.37-6.34.73-2.45.12-3.28.17-2.37-.61-2.38-1.04-2.76.17-2.62-.63-5 .14 2.9-.59-.3.06 3.3.92 3.5.08 7.3.75 8.2-.16 1.98-.47 4.17-.3 6.64zm1.1-2.86c.4-.5-.55-2.66.18-5.4-.54 1.88-.93 11.05-.19 5.4zm-1.74 1.78c.72-3.88-.27-6-.23-1.17.04-.44-.07 3.24.23 1.17zm25.35-3.1c.18-2.8-.61-3.01-.33-.36-.04.04.25.88.33.36zm-5.67-.78c.54-2.6.18-5.33-.19-5.38.6 2.3-.67 1.6-.18 2.92-.14-.49.25 3.78.37 2.46zm6.33-.42c1.99-2.44-1.96-4.06-1.28-2.35-1.26-3.12 1.25 4 1.28 2.35zm-19.5-1.2c1.17-.45 1.21-.52 1.85-1.82-.98-.34-1.7 2.88-1.7-.86-.14-1.46-.34 3.54-.15 2.69zm19.93-1.9c.68-2.45-3.12-5.36-2.04-3.2-.44.37-.34 2.47 1.98 3.55zm-14.64-1.86c-.57-2.43.13-9.83-.44-3.5.15.57-.27 4.27.44 3.5zm-6.22-1.21c-.3-1.62-1.91-8.8-1.95-4.58.07-3.02 1.93 5.12 1.95 4.58zm10.55-10.94c.5-2.72-.84-.34-1.17-1.83-1.73-1.69-1.28-3.42-.6-2.65-1.34-1.77-1.09-.16-.77 1.55-2.8-.78-.47-2.66-1.9-1.91-2.43-1.38-2.7-.02-.03.48.47 1.25-.28 1.54 1.26 2.45-.5 2.98 3.12-.06 3.2 1.91zm-1.14-.91c-2.16-.15-1.5-.74-1.83-1.76-1.97.92.95-1.18.78.45-.91-.25 2.53 1.68 1.05 1.31zM67 96.38c.78-.94-1.87-5.53-.6-4.79-1.1-1.1-.7 2.62.08 3.16 1.11.34-.37 2.22.52 1.63zm15.19-2.06c-.69-3.14-.3-1.1-.58-1.47-.52-1.12-2.83-1.44-1.15.35.91-.66.05 2.36 1.66 2zm-4.7-2.17c-.27-2.88 1.35-.08-.93-2.54-.07-1.97-1.56-.85.25.99.18-.71.97 3.85.67 1.55zm-1.1 136.49c1.2.45 2.07-3.96 2.3-3.17 1.26-.96-.72 4.57-2.3 3.17zm25.21-1.41c-2.62-1.06 1.26-1.37 2.67.12-1.37-.53-1.9-.13-2.67-.12zm14.07-.7c-2.92-.52-4.87-1.16-2.34-1.46 4.3-.48-2.91.46 1.32.84 1.28-.65 3.95.93 1.02.63zm-.53-4.43c-3.5-3.44-2.83-3.05-.43-3.26.27-.26 1.74 2.23 2.71 2.17 4.63.32-3.94.36-2.28 1.09zm-.03-1.82c1.63-1-5.23-.89 0 0zm-57.06 1.58c.95.09-.31-8.04.4-3.71-.07-.9.52-5.9.04-3.36-.4 1.65-.24-7.83-.39-1.52-.06 1.07-.5-1.19-.07 2.1-.57-4.74-.08-3.65-.93-2.95.37-3.7 2.35-1.6.94-4.62-.28 4.53.56-5.58-.49-.16.48 1.64-.2 4.75-.28.83-.85 1.2.42-4.87.1-3.87-.76 4.7 2.3-2.33.5.62 1.28-1.09-1.09-5.14.51-3.88.44-.89-1.42-3.82-.97.4.1-3.74-1.66 3.04-.35-2.1 1.78-4.84 1-1.9-.17-1.01-.11-3.28-.84-4.96-1.98-7.46.48 1.04.67-3.73.8.17.14-2.54.36 2.8.59-.34 1.05 2.05-.3-1.98-.45-1.6.74-1.08-.86-4.55-.38-.36.17-2.55-1.37.37.14-3.58 1.76-4.9 1.78-1.52 1.9 1.56-.01 3.8.97 7.65.96 9.04 1.56 3.3 1.48 12.03.63 5.56.09 6.4.34 12.73.65 19.13-.8-.08-.96 1.06-1.7 1.1zm-1.8-33.9c1.09-.77-.54-4.83.05-.7-.44-4.72-.5 1.43-.06.7zm-.71-3.54c-.1-1.3.4-7.68-.36-4.45-.72 1.08.47 3.56-.12 2.98-2.26-.15.88-5.27-.3-6.5.78 2.35-2.98-3.8-2.33-5.2-1.03-4.07.85 2.62.05-2.16-.05-1.88-.36-4.3.86-5.93-1.6-1.9 1.97-3.53-.92-1.8 1.21-.11 1.93-4.08 3.35-6.29.1-1.29.7 8.48.21 4.72-.74-6.12-.55 2.1-.54 4.43.9 3.92 1.22 8.12 1.28 12 .28 3.26 1.13 6.14.07 6.42-.5.1-1.24 3.53-1.25 1.78zm.34-7.83c.98-1.73 1.33-3.93.06-.81-.14-3.31-.36 3.57-.44-.7.37-4.66-1.88.31-.54 1.22l.6.58zm-1.62-2.84c1.5-2.82.84-1.93 1.1-4.28-.44 3.47-.58 1.13-1.08 3.87-.4-3-.22-2.5-.1-4.35-.77 1.92-1.35-6.07-1.5-.16-.26.5.69 8.78 1.58 4.92zm.63-4.85c-.34-1.92-.43-6.97-.52-1.94.12.59-.2 1.1.52 1.94zm-.23-5.3c-1.48-.29-.72-2.51-1.22-2.25-1.89 1.31 2.36 3.32 1.22 2.24zm6.47 17.3c.05-2.7.26-5.05.7-.98-.12.33-.78.4-.66 3.07-.09-.7-.04-1.4-.04-2.1zm38.45-30.37c-1.58-1.45-2.75-2.28-2.44-3.94.62 2.06 1.26 1.41 2.44 3.94zm-51.9-2.38c-.22-1.9.6-1.6-.32-3.04-.2-.54 1.1-.1.56-1.3.43-.08-.03 5.5-.24 4.34zm.07-4.73c.2-1.97.15-8.2.24-3.16.82-2.75.45-2.68 1.82-4.78.65-1.97-.76-2.66-1.54-5.59 1.1.76 2-1.46.6-.83-1.43-.02-.4-3.5.78-.47.92.32.41 5.2.62.82-1.27-2.7-.49-1.9-.5-6.4-.73 4.2.16 1.4-.7-1.12-1.42-.24.09 4.43-.91 4.55-1.33-1.88-.52 2.92-.96-1.14-.55-.44-1.17 4.46-.6.37.94-2.44-1.14-2.49-1.42-4.79-.23 1.56 3.1 3.27 2.14-.1.94-1.33 5.07 3.7 3.97 3.67-1.65-3.5-.48 5.4-.55 3.31-.08 2.69 2.2 5.42 1.25 6.66.11 2.1-1.53.96-.98 3.06 1.14-1.5 2.2-6.95 2.08-6.72 1.83-6.3-1.64 4.8.85 2.97-1.34-1.3-.65 5.37-1.2 2.45.5 2.2.46 3.92-1.39 5.91-1.37-2.04-.72-1.88-.92-3.25.18 1.86 2.17.29 1.79.15-.28 1.4-2.5-1.11-.32.2-2.14-.66-2.54-1.46-1.62-2.6-.57-3.18-1.7 4.74-1.97 3.1-.46 1.2-.23 2.52-.56 3.73zm4.72-5.4c.05-1.12-2.2.36-1.72-2.12-.8.05-.36 3.35 1.72 2.11zm-4.36-14.26c-1.21-2.69.35 4.7 0 0zm46.33 15.1c-1.12-3.33-1.21-6.34-.02-1.39-.04.15.26 1.76.02 1.4zm-48.89-1.66c-.68-2.55-1.35.6-.12-3.51.79-3.22-1.82 1.43-.15-2.18-2.68 4.9.27-.67-.2-1.96.39-4.48-.03 2.17 1.22-1.86-.76 3.2-.27 5.05.06 6.31.4 1.42-.24 1.34-.67-.02-.41 1.53.19 2.27-.14 3.22zm4.24-15.45c-3.08-1.4-.12-3.1-.17-4.25-.92.53-2.13 2.57-1.86 1.38-2.04-.76 2.83-1.7 1.04-1.82-1.5 2.12-.46-.23-1.43.05.11-1.2-.24-2.92-.74-3.45-3.65-5.73-1.46 5-2.09 5.25-.53-3.5.2-3.68-.16-7.58-.01-2.38-1.53-7.5-1.32-3.15 2.23 2.91-1.67 1.43.1.52.66-2.21-2.08-5.4-1.6-2.43-1.49-2.6 2.89-4.61 3.16-2.6-.33 1.7-.03 1.07.44.43.6 2.62 2.17.89 1.82.61.17-.31-.35-3.9-.44-.5-1.05-2.15 2.85-4.27-.65-7.1-2.8-2.58.28-9.7-4.49-10.05 2.2 0 3.4.14 1.94-.75 2.44-1.48 4.08-1.44 4.84 1.74 1.25 1.8-.47.39-.82.33-.33-.1-1.03-3.8-1.47-1.71-.94 2.03 1-.52.63.69-1.8 2.15.05 1.51 1.82 2.1 1.3.76 4 5.14 1.64.7 1.42 2.54 3.77 7.96.63 2.51-2.88-1.9-1.11-.6-1.25-1.74-2.2-3.13-4.5 1.33-3.67-1.82-.4-.8-1.15-.43-1.04 1.94.67-.93.02.07.86-.17.64.26-.1 2.83.48.8.89-3 1.41-.37 1.26-.36.09-1.47.97.3 2.34 1.22 1.28-.12.6 1.23 2.14 2.86 1.65 1.67 2.74 7.1 3.43 8.5-1.13-1.61-1.93-2.68-1.03-.09-1.83-2.4 2.34 5.43-.04 4.47-.93-.88-3.22-6.88-3.6-3.36.08 2.17-1.6-3.08-2.48-.04.33 2.2.4 2.87 1.74 2.97 1.08.88-1.34 2.97.4 5.23 1.08-2.29 1.74-6.1.85-.96 1.34.5-2.02 3.1-.49 3.43 1.27 2.62-1.03-1.44.18 2.26-.34-1.8.19 4.14-.9 3.94zm-1.89-4.95c2.01-2.15-.22-.17.08-.72.8-1.38-1.44 1.15-.08.72zm1.17-2.7c-.29-1.75.58-1.2-1.39-.92.41.44-.85 1.1 1.39.93zm-1.7-1.15c2.49-3.01-2.5 1.52.51-1.2 2.6-2.62.06-1.87.1-1.18-.56 1.61-.69 2.48-1.38-1.03-1.73-5.1-2.32 2.64-.2 3.7.58.3.4.88.98-.29zm-2.24-2.83c0-5.2-1.23-.75-.06 1.62l.04-.48zm2.84-.76c-1.08-1.35-.39-3.34-1.45-2.93-.52-.12 1.33 2.98.76 2.59.48.08.68 1.5.69.34zm.6-.21c2.36-.45-1.4-2.1-1.12-2.33.22.33 1.05 3.47 1.11 2.33zm-4.29-3.28c.43-3.22-2.27-3.21-1.07-1.77-.52.43 1.78-.66.75 2.34zm8.2-2.19c-1.74-1.47-3.84-3.61-3.06-1.36-2.46.2 4.21 1.94 3.05 1.36zm-4.3-.77c1.92-3.49 1.16-3.74-.73-.67.31.28 1.3-1.47.45.82zm32.17 6.78c-.9-1.63-.23-1.93.25-1.17.16-1.04 1.62-3.62 2.08-1.36.53.65-1.92 1.23-1.42 1.9-.45-1.57-.18 1.15-.91.63zm-9.44-1.88c-.5-3.6-.9-3.28-.81-7.03 2.25 3.16.3 6.2.81 7.03zm11.72-1.24c-1.66-2.58 1.67-.47.02.08zm-2.26-1.92c.46-1.06-3.23.5-.68-2.5 2.67 1.44.16-1.5 2.15-.26-.06.83-2.57 1.8-1.39 1.3 1.2.4 1.35 1.32 1.6 1.2-.4.04-1.6.72-1.68.26zm-2.34-.24c-.57-.61.9-4.33.46-.36l-.18.36zm-32.55-.12c.42-2.12-.02-5.59.63-1.67-.72.38-.28 1.54-.63 1.67zm37.17-.26c-2.6-1.53 1.78-1.6 0 0zm-12.85-.13c-1.04-3-1.07-6.27.13-1.93-.03.46.2 2.33-.13 1.93zm-28.12-.69c-1.2-2.38 1.44-2.1.5-3.77 1.43-.01 1.48-4.41.99-.23-.1 1.5.26 3.82-.8 2.81-.27 3.17.06-2.32-.61.92-.1 0 .05.58-.08.27zm-.15-2.72c-1.8-3.1.35-3.72.19-.64.38.78-.29.86-.19.64zm30.72-7.9c-1.07-2.3 1.3-1-.92-2.04 1.7 5.16-2.2-3.56-.42 1.08-1.36-2.94-1.88-4.27-.44-.38-2.25-2.31-1.17-4.36-.84-4.85-4.7-1.61.4-.24.95.33 5-.32-1.1-3.87 1.95-1.15-2.05-.73-.22 1.78-2.72-.31 1.25-2.35 3.2-1.28 4.77-1.33-2.2.59.11.65-.74 1.52 2.6-1.45 1.86 1.24 2.76 1.83 1.17-.9-2.3 2.39-2.55-.73 1.43 3.37-1.65.22-1.17.2 1.87 3.97-1.96-.9-1.09.57-.35-1.46 1.57 3.59-.84.12-.17-.53.65 2.2-1.92.34 2.07 1.92 4.74.01 4.5 3.7.98.62-.2.77-1.28 1.1zm-7.22-.9c-1.4.33-.18-3.78 0 0zm4.9-5.45c-3.62 0-1.65-3.66-1.26-3.18-2.13 2.8 1.81-.73 2.16.44-1.88 2.11-1.83 2.12-.9 2.74zm-1.04-1.28c1.09-.25 1.42-.9 1.02-1.13-3.36 1.2-.33.2-1.02 1.13z" style="fill:#000;stroke:url(#b);stroke-width:.115005;stroke-dasharray:none"/></svg>