<svg xmlns="http://www.w3.org/2000/svg" xml:space="preserve" width="578.37" height="230mm" viewBox="0 0 153.03 230"><g style="stroke:#000;stroke-opacity:1;stroke-width:.3;stroke-dasharray:none"><path d="M65.2 232.02c2.27-.18.86-1.98 1.98-.5-.5.5-1.34.74-1.98.5zm-.72-.68c.05-.54.4.21 0 0zm.49-.13c-.82-.41 1.04.29 0 0zm-9.85-.68c.15-1.25 1.78.94 0 0zm.78-.06c-.53-.41-.7.4 0 0zm9.51.17c-.4-.4.77.39 0 0zm.43.04.18.02zm16.47.03c.46-.4.5.26 0 0zm-5-.16c-.06-1.56 3.92.2.26-1.63.89-2.16 5.74 2.97-.26 1.63zm.73-.57c-.49-.04-.14.61 0 0zm-10.14.43c-2.34-.61-1.08-.38-3.59-.89-.7-2.14 10.77.88 3.92.53 1.4.7 1.39.31-.33.36zm.13-.46c.1-.46-.94.63 0 0zm2.46.33c1.63-1.17-.13.9 0 0zm-11.9-.22c-.03-1.03.73.98 0 0zm11.06 0c.96-.5.96.5 0 0zm2.3.05h.23zm-22.15-.33c-.55-1.04 3.22.3 0 0zm.8.1h-.23zm.3-.23-.18-.24zm5.52.31c-1.28-.88 2.07-.02 0 0zm25.28.03h.24zm2.93 0c-2.78-2.3 3.12-.39 0 0zm-8.35-.11c.38-.25.1.24 0 0zm.26-.14c-1.2-.6 1 .23 0 0zm19 .02.3.01zm-20.56-.14c.36-.25.47.43 0 0zm19.74 0c.73-.33.27.41 0 0zm-1.67-.05c-2.8.68-2.72-1.46-3.23-1.76-2.2.47-5.63-3.03-2.94-4.02.37 2.47.89-.79 2.1 0 .41-3.52 6.16-.77 1.33-.74-1.6 2.62.2.87.78.68-1.3 4.72 2.18-3.47.93 1.34 2-1.99 3.8 1.22 3.4-.13 1.5 0 1.72-.45 2.55.11 4.26.34-6.45-2.43-3.25-2.49-1.92-1.96-9.25-1.33-7.28-2.42 3.43-.5-2.5-1.93-2.48-.35-.95-.13.5-2.58-2.52-.88-1.75.95-4.28 6.23-1.11 2.33.41-.65.48 2.72 1.41-.45-1.33 5.33 2.53 1.41 1.18.64 2.07-2.69-1.9 8.46 3.76 6.16.71 1.28-3.15-.59-2.5.7-.94-.73-2.66-1.97-5.04-1.41-2.92-3.46.5-9.27 4.93-9.16-4.04-1.39-1.41-2.25.7-1.2-1.75-.84-4.37-2.84-3.46-3.21-5.23.47 2.76-3 2.4 1.39 1.97 1.6 4.44 3.52 2.66.7-1.99-4.77-7.06-6.82-10.97-3.99 1.51-2.25 7.23-2.58 1.5-2.33-1.95 1.2.22-2.6-2.54.08-2.3.14 1.25-3.58 3.1-1.2 4.94.02-1.05-6.02-3.28-1.91.43-.04-1.35.73 0 .99-2.95 1.24-2.45 5.4-2.64 6.44 1.85-1.83.93-4.55 2.75-1.63-1.25 1.6-2 4.46-1.22.65-2.39.74-.05 7.19.3 2.3 3.17-4.99-1.36 2.1.49 4.28-1.7-.39 1.95 9.55-3.94 7.26-2.62-.1.94 1.86-.7 1.43-2.2.07-7.53-1.25-2.45-.9 3.04-1.15-4.83-.48-5.96-1.67-3.3-.93-3.1.14-2.53-2.12 0 1.61-8.5-.24-3.12 1.8 2.82-.69 9.65 3.2 3.16 1.38-2.97-.93-5.55-.64-7.72-2.87 2.89 1.7 1.8-2.39 1.4-2.26-.95-4.68.68-3.04 1.4-1.96-1.49-1.52-2.74-10.95-1.1-5.2 4.61 4.15-.31-3.33-1.19-4.47-1.66-2.77-2.18-10.98-2.44-11.38-2.42 5.88 2.58 11.43 1.55 17.37-.12 4.34-.89-4.9-1.7.1-1.88 1.44.64 6.9-1.74 3.62-2.6.6-9.16 4.93-3.41 2.97 1.2-1.55 6.4 1.36 3.69-.99 6.9 1.5-2.14 6.49-2.56 3.47 2.12.13 6.14-.88 1.43-.86-2.14.3-11.54-.74-5.1-2.43 4.92-1.23 9.02-5.98 7.45-11.24-1.26-3.49-.38-9.93-1.46-9.8-.56-6.01 1.72-11.82 4.04-17.25 5.1-9.9 14.43-16.49 20.49-25.62 2.62-3.23 4.04-11-.9-11.37-3.85-4.74-3.56 7-3.77 1.4-.5 4.82.54-.59-1.6-.67-1.8 1.67-2.66 8.22-1.65 2.3-.78-2.07-1.07 7.2-1.05 1.15-2.2.05-4.77 4.73-3.6-.35 1.42-2.25-2.15-8.07-3.27-6.69.77 1.74 3.57 3.1-.6 1.54-4.34-5.23.76 6.93 3.01 1.69.63 1.66.63 9.38.37 7.83-.03-2.42-.4 4.36-.29-.4-2.3 1.03.32-1.41-2.42.78-2.94.2-.8 5.15-2.12 1.49-1.86.17-2.23 4.16-1.29.43.08-4.34 4.96-3.06 5.38-5.92-2.41 3.17-3.8-3.98-4.66-1.32-2.83.09-6.09-5.6-5.56.36-.3 3.21 5.98 4.66 1.9 1.18-1.56-2.92-.8-1.33.86-.05-1.6-.72 5.46 1.35 1.13 2.14 4.39 1.53-4.01 1.88-3.74-2.14-1.9-1.25-5.1-5.86-5.53-6.05-.3 1.89 1.72 7.82 1.21 4.63 1.48 2.72 1.95 1.46 3 2.39.59-.03 1.94.55-.44 1.12-.19 1.34 1.15 9.16.16 4.65.37 2.62.02 5.39 0 1.07.48-5.28-3.4-6.06-3.78-10.3-.73-1.95-.25-6.87.95-2.07 3.3 4.83 2.01-1.85 2.6-.92 1.3 2.41 2.8 5.4 1.6.91-.66-.8-2.47-2.63.04-1.33-3.2-2.92 3.59-1.95.24-6.23 1.79-1.52-.85-7.71-2.1-8.17-1.02 3.87-.97-6.47-1.33-.2-.2 5.44.03.35-.43-2.1-.88 1.25-1.03-3.76-1.2-2.64 3.43-2.23-1.24-3.9-.77.65-.55 2.33 1.7-1.8.15 1.43-.87 2.7-.28 3.5-.47.27.44-2.29.13-6.1-1.35-1.69-.67 2.24-.3 12.68-.9 5.63.16-2.51-.7-7.43.84-10.58-1.48 2.18-.89 2.32-1.46-.08-1.78 2.13-3.05 8.67-2.9 2.24-.12-3.57 3.26-7.48 4.87-8.88-5.06 2 2-3.81 3.17-5.94 4.15-4.99 10.96-3.68 16.63-3.6 5.02-1.39 9.41 2.15 14.29 2.25 4.03 1.92 7.63 3.3 10.97 7.13 2.75.97 8.05 9.82 8.75 10.05 1.98 3.14 3.62 7.7 5.25 11.5 1.65 5.69 1.82 10.73 1.54 16.17-.41 1.67.11 9.97-2.2 9.44-.49 5.27-2.28 6.7-4.33 11.41-.18 1.91-.7 2.92-.71.37-1.34 2.32-1.83 6.68-3.27 5.75-2.47 3.68-5.45 8.65-5.84 12.32.25-4.34-1.27-1.11-1.77 1.12-3.42 1.59-2.48 10.92 3.34 6.63 1.79-1.14 11.94-3.3 5.1-1.11-3.11 1.17-2.87 3.4-.08.58-1.37.63-2.6 4.26.52 1.33-1.85 2.45.43 4.16 2.32 2.14-1.05 3.37.95 2.2.69-.25 3.03-3.95-.4 1.92 1.27.53-.55 1.09.5 2.2 2.39.12-3.55-.76 5.24-5.5 7.7-2.8 5.07 1.76-3.77-2.27-5.82-2.17-2.13-1.73-10.12 2.06-4.44-.56 8.85-1.4 18.68 4.79 20.33 13.79-.3 1.18.4 8.7-2.16 8.28-1.13 2.11 8.36 2.97 2.43 3.02-3.27.68-1.64 2.58-5.6 1.6-2.67.06 1.68 1.1-2.15.07-4.17-1.81-3.5.49-2.9 1.36-1.57.87 2.3.23-1.03.48-3.56.85 2.49 1.65-1.08 1.55-3.24-.26-10.34.32-10.31 1.57-.3-.3-2.1 0-1.43.85zm-2.66-.75c-.74-.46-.63.44 0 0zm.15-.93c-.12-.42-.22.43 0 0zm1.03-.65c-1.12-.81-1.93.87 0 0zm-1.6.01c-.33-.29-.14.28 0 0zm-5.62-.94c-2.37-1.69-6.8.49-1.77.17.57-.2 1.24.2 1.77-.17zm-1.66-.21c.38-.25.1.24 0 0zm4.94.37c-.08-.35-.53.21 0 0zm-.49-.12c-.38-1.05-1.16.05 0 0zm-26.3-.18c-.34-.45-.26.46 0 0zm37.8-.07c.95-.87-1.15.36 0 0zm.86-.18c2.82-1.4-2.46-.81 0 0zm-.14-.43c.23-.44.24.43 0 0zm-6.2.38c-.64-.98-1.02.73 0 0zm-3.1-.32c-1.08-1.33.1.79 0 0zm12.4.05c-1.98-1.23-1.9.6 0 0zm-5.76 0c-.47-.5-.47.5 0 0zm-29.12-.2-.22.17zm15.6.13c-.34-.29-.14.28 0 0zm-13.7-.18c3.36-.03 3.03-.63-.24-.26-.83-.08-1.98.86.24.26zm1.4.1c-.08-.36-.54.2 0 0zm17.92-.6c-.58 0 .11.91 0 0zm-42.3.18c-1.02-.59-.32.48 0 0zm15.9 0c-.22-.43-.11.42 0 0zm-.34-.12c-.76-.56-.46.52 0 0zm-.96-.07c-.33-.29-.14.28 0 0zm5.45.02c-.16-.41-.31.25 0 0zm-14.2-.52c-.23-.43-.23.43 0 0zm29.33-.05c-1.22-1.38-1.43-.16-.07.21l.17-.17Zm23.7.05c-2.36-1.32-3.3.14 0 0zm-41.4-.11c-3.56-.95-4.07.02 0 0zm8.72 0c-2.2-1.67-7.01-3.38 0 0zm16.05-.12c.07-.8-.38.85 0 0zm-15.35.02c-1.13-.29-.3.35 0 0zm29.78.03c-.33-.3-.14.27 0 0zm-34.58-.28c.18-1.28-1.8.49 0 0zm-1.12-.1c-1.4-2.46-4.55.07 0 0zm34.94.06c-.74-.36-.72.24 0 0zm-37.61-.15c-.2-1-1.18.57 0 0zm27.41-.16c.1-.61-.46.52 0 0zm13.02-.1c-1.74-2.4-3.6 1.86 0 0zm-.78-.42h.24zm-57.47.19c-.23-.44-.24.43 0 0zm10.67-.03c1.65-1.61-3.74-.35 0 0zm55.1-.25c3.45-.87-7.18-.87-.7.06zm-57.28-.47c.67-2.18-.92.24 0 0zm6.44-.27c.28-2.3-3.03.9 0 0zm1.61.03c3.97-1.06-1.46-2.74-1.05-.18l.35.14zm.3-.73c.13-.43.23.43 0 0zm-.63-.23c.35-.47.36.46 0 0zm.98-.23c.32-.43.4.25 0 0zm52.55 1.18h-.24zm-18.75-.15c-1.57-.78-3.34.47 0 0zm19.12-.11c-.35-.47-.36.46 0 0zm1.38 0c-.4-.64-.18.45 0 0zm-16-.46c1.36-4.25 1.73 2.57 2.82-1.9.91-2.56-2.08-4.9-1.47-1.3-2-4.53-1.63 3.72-1.92 3.47l.56-.27Zm1.61-.23c-.1-.46.46.5 0 0zm11.36.44c1.83-.97-3.12.92 0 0zm-16.75-.21c1.79-1.83-4.05-2.13 0 0zm-.48-.35c.47-.47.63.42 0 0zm-28.72.34c-.46-2.58-9.29-3.57-7.85-1.95 3.39-.2 6.16 1.16 7.85 1.95zm-7.24-2.51c.23-.43.12.42 0 0zm-7.9 2.35c-.41-.68.1.61 0 0zm-.66-.19c.29-1.58-.91.1 0 0zm54.44-.35c2.89-2.94-1.68-.87 0 0zm-48.87.24c-.36-.42-1.1-.02 0 0zm-15.6-.34c.65-.58-1.68.98 0 0zm16.63.22c-.33-.47-.13.47 0 0zm34.65-.05c-.25-.56-.25.56 0 0zm5.5.05c2.68-.99-.36-4.67 0 0zm-39.18-.14c-1.7-1.2-.72.13 0 0zm34.22-.03c.12-.76-.45.66 0 0zm-.36-.17c-.24-.43-.24.43 0 0zm-3.79-.1c-.1-1.45-8.07-5.33-3.06-1.72.98.58 1.91 1.5 3.06 1.72zm-42.52-.25c-.48-.66.1.81 0 0zm58.66-.1c-.5-1.28-.39.98 0 0zm-54.28 0c.02-.58-.35.38 0 0zm19.02-.4c-.06-2.36-.01-7.87-.46-2.62.13.28-.32 3.88.46 2.62zm-.14-.59c.2-.27-.03.54 0 0zm24.4.7c.51-1.35-.58.61 0 0zm2.66-.08-.02.21zm12.24-.25c2.23-7.46-2.08 1.07 0 0zm-54.64.03c.5-1.54-1.12-7.76.57-4.97.38-2.54 1.75-5.28-1.63-5.56.54-1.68-1.77 2.45.2 2.91.5 2.4-1.19 5.86.86 7.62zm-.53-.56c.4-.25.32.42 0 0zm-.28-1c.48-.96.16.68 0 0zm.58-1.02c.2-.27-.03.54 0 0zm-.03-.73c-.36-3.41.4.92 0 0zm-.64-2.87c-.2-1.18.43 1.08 0 0zm1.02-.27c-.01-2.79.66 1.6 0 0zm41.33 6.57c-.23-.43-.12.43 0 0zm.5 0c-.36-.45-.46.41 0 0zm-39.57-.34c-.76-.64.56.94 0 0zm32.9.09c-.74-2.17-1.15-.17 0 0zm20.93-.35c.14-1.14-.6 1.6 0 0zm-53.35.2c-.54-.83-.22.57 0 0zm53.78-.04c1.4-2.43-1.22-.36 0 0zm-41.8-.35c-.23-.97-2.4-.31-.79-.08zm38.11.08c1.08-2.08-2.66-.46 0 0zm-49.45-.23c-1.22-1.59-2.3.55 0 0zm47.1-.2c-.92-4.26-4.23-2.91 0 0zm5.5 0c.35-2.73 2.17-7.02-.12-4.96.04.9-1.24 4.64.12 4.96zm-.17-2.12c-.12-.6.5.62 0 0zm.2-1.8c.22-1.01.13 1.32 0 0zm-44.99 3.51c-1.53-2.5 3.07-1.55.06-3.28-2.09.48-3.46 3.19-.06 3.28Zm27.45.24c1.23-3.88-3.16-1.33-.25.07zm-.3-.4c.23-.44.24.43 0 0zm-.39-1.84c.23-.43.12.43 0 0zm5.43 2.17c.1-.8-.76.71 0 0zm-9.94-.36c-.94-3.38-3.38-.88 0 0zm6.57.17c.58-2.92-1.63.23 0 0zm-38.16-.28c2.15-.34-2.7-.29 0 0zm3.05-.12c1.57-1.04-7.85-1.18-2.69-.68.84.34 1.74.98 2.69.68zm-.55-.2c.36-.49.47.49 0 0zm49.3-.12c3.2-4.45-3.39-.16 0 0zm-.02-1.22c-.39-1.05.58.3 0 0zm-9.92.88c-.5-.23.28.9 0 0zm15.62-.2c-.47-.45.04 1.13 0 0zm.24-.22c1.35-2.97-1.82-6-.32-1.3.15-.31.11 3.09.32 1.3zm-47.35.23c-.01-1-.84.6 0 0zm31.59-.15c-.1-.66-.5.44 0 0zm-8.91-.13c1.18-1.27-1.26-1.7 0 0zm9.36.08c-.15-.42-.32.23 0 0zm.79 0c-.2-.44-.4.26 0 0zm-18.08-.36c-.97-.72.17.66 0 0zm13.44-.28c-1.55-3.63 3.53 2.12 2.08-2.46-.53-1.6-1.57-1.81-.09-1.56-.52-5.03-5.89-6.88-8.86-9.75-.45 5.05 7.28 7.77 6.2 13.62l.25.22zm-.73-2.98c-1.34-1.4-.07-4.85.7-1.57-1.46-1.2.76 2.08-.7 1.57zm2.4-1.43c-.34-.75.52.6 0 0zm-1.06-.52c.1-.51.09.53 0 0zm.58-.23c-.65-1.18.85 1.11 0 0zm-3.2-.66c-.18-.8.55.32 0 0zm2.47-.43c-.32-.87.39.47 0 0zm-2.82-.05c.4-.25.32.42 0 0zm.15-.34c.12-.43.23.42 0 0zm.4-.06c-1.29-2.57 1.36.22 0 0zm1.85-.08c-4.44-3.92.44-1.6 0 0zm-.4-.82c-1.37-1.14 1.3 1.46 0 0zm-.62-.7c-.58-.75.08.61 0 0zm.42 1.42c-.8-.5 1.1.39 0 0zm-2.98-1.2c-1.15-3.16 2.2-.9 0 0zm.79-1.67c-.83-.77 1.43.92 0 0zm-2.13-.56c.5-.27.32.43 0 0zm.5-.28c-.52-.65 1.29.8 0 0zm-.85-.48c-.2-.56.74.75 0 0zm-.9-.7c.39-.24.1.25 0 0zm-.26-.21c.19-.27-.03.54 0 0zm.3-.35c-.44-.68.62.21 0 0zm-.7-1.07c.1-.65.2.4 0 0zm-31.15 13.39c2.32.44 6-.74 1.53-.23-.82-1.06-4.37-1.3-1.53.23zm11.63-.95c-1.54-1.4-1.02 2.23 0 0zm-13.15.66c-.45-.47-.4.35 0 0zm54.14-.38c-.3-1.45-.33 1.29 0 0zm-16.52-.17c-.28-4.35-2.57-3.7-.4-.09zm-37.73.18c-.12-.42-.23.43 0 0zm9.56 0c-.12-.42-.23.43 0 0zm22.4-.22c-.91-3.75 1.73-3.44-1.2-6.73-2.09-3.23.6 4.48.91 5.8-.04-.66.28 2.23.29.93zm-.78-3.24c-.67-1.12.78-.35 0 0zm18.4 3.41c.95-3.43-4.55-.92 0 0zm-.51-.53c-.08-.61.46.52 0 0zm-43.63.4c3.29 1.95 8.2-6.35 2.95-2.2-3.05.06-2.26 1.7-.76 1.37-.3.47-5.3.53-2.19.83zm1.19 0h.24zm1.4-.72c.58-.9 2.11-.57 0 0zm.1-.74c.8-1.6.15 1 0 0zm.69-.3c.69-1.06 1.8.72 0 0zm.07-.65h.24zm35.14 2.18c.48-2.82-4.3-8.05-.99-2.73.36.9.71 1.84.99 2.73zm-.6-2.45c.08-.53.08.51 0 0zm-7.62 2.45c-.05-2.7-2.76-8.09-1.5-2.44.25.9.52 2.07 1.5 2.44zm21.97-1.47c.32-3.06-2.8-4.15-.76-.56.04 1.58.88 3.05.76.56zm-.22-.83c-.1-.5.33.56 0 0zm-15.11 1.4c-.68-4.75-.16 2.75 0 0zm-30.33.37c-.52-3.32-2.65 2.04 0 0zm35.62.33c-.12-2.13-1.41.32 0 0zm5 .08c-.33-.29-.14.28 0 0zm1.01-.16c-.12-.4-.21.44 0 0zm-20.69-.11c-.23-.43-.12.42 0 0zm2.76-.17c-.16-.41-.31.25 0 0zm-28.18-.17c-.4-.63-.18.45 0 0zm5.16-.17c-.4-.46-.16.6 0 0zm38.98-.08c-2.16-2-1.4-2.99.78-1.15-1.12-.26-1.82-4.7-1.84-1.85-2.09-3.63 1.36-2.5 2.1-.11 2.73 1.03-1.27-5.57 1.38-1.54 2.67 4.41 1.1-3.17-1.74-2.48-2.19-3.17-5.53-2.96-8.1-2.96 1.67-2.41 10.92 3.82 8.35-.48-4.72-3.55 5.32 1.7-.27-1.56-.9-.56-5.65-2.61-2.23-.77-3.87-1.23.46 1.92-2.66.01-2.15-1.06-8.43 3.88-5.16 2.6 1.43.06 2.8 2.43.41.72 3.03 1.48-6.24-.97-1.26 1.25.07.98-4.91-2.02-2.86 1.49 3.44 2.86 1.36.93-.19-1.42 2.94 2.14 7.56 9.88 7.78 4.4.65 4.49 4.5 1.3 1.2-1.36-2.21-1.8-3.4-4.38-.64-1.56 2.8 3.9-.09-2.78 2.24.07-2.31-4.56 1.53 2.04.62 3.91-.1 1.1.58 3.45 2.09 2.79zm-7.39-1.93c-.8-1.9 1.44 1.06 0 0zm3.76-1.04-.13-.6zm1.83-.18c-.4-.48.47.05 0 0zm5.61-.1c.1-.6.23.62 0 0zm-9.97-.42c-1.65-1.98.62.03 0 0zm3.95.14c.13-.47.33.47 0 0zm-2.32-.24c.31-.24.16.41 0 0zm5.94-.3c-.39-1.1.42.7 0 0zm-3.5-.07c-.38-1.2.38.4 0 0zm-2.69-.88c-1.99-1.34-3.52-4.17-.8-1.02.23.06 1.95 1.98.8 1.02zm-2.9.18c.32-.42.4.25 0 0zm-.5-.41c-.12-.47.7.61 0 0zm-.34-.35c.4-.27.19.44 0 0zm8.62 0c-1.09-1.03 1.13.25 0 0zm-10.15-.38c.68-1.5-.01 1.08 0 0zm3.75.1c-.09-.64.58.76 0 0zm.86-.14c-1.18-1.2 1.54 1.15 0 0zm-3.08-.03c.3-.23.27.4 0 0zm7.9-.36c-3.6-2.15.87-.37 0 0zm-6.44-.53c-.92-1.3 1.17 1.3 0 0zm-.33.12c-1.85-.5-1.4-1.06 0-.15zm-4.28-.3c-.36-.75.8.45 0 0zm7.44.02c-1.5-.28-.18-.93 0 0zm-6.48-.1c-.77-.53 1.26.46 0 0zm2.58-.28c-1.47-.73 1.6.54 0 0zm3.8-.13c.2-.27-.02.54 0 0zm-5.43-.36c-.25-.52.57.78 0 0zm.62-.1c.44-.85.75.66 0 0zm3.57.06c-.15-.58.34.44 0 0zm2.6-.08c-.28-.49.68.7 0 0zm.14-.26c-.37-1.07 1.11.78 0 0zm-3.87-.22c.39-.54.38.65 0 0zm1.34-.33c.25-.39.32.4 0 0zm.39-.02c.12-.42.22.43 0 0zm2.6-.05c-.7-.65 2 .83 0 0zm-3.92-.08c-1.04-.49 1.3.4 0 0zm1.38-.33c-.68-.94 1.2 1 0 0zm4.22-.45c-.62-.84 1.57.16 0 0zm-7.45-.09c-.39-1.08.43.62 0 0zm6.45-.22.18.02zm-6.39-.5c-.28-.5.85.61 0 0zm-.34-.11c.23-.43.12.42 0 0zm2 .04c.38-.25.1.24 0 0zm4.39 0c1.9-1.37 1.24.35 0 0zm-5.85-.16c-.16-.51.72.55 0 0zm9.9-.1c-1.34-.87.86.16 0 0zm-3.94-.25.17-.12zm-.62-.27c-.3-.98.96.84 0 0zm-.6-.18c-.1-.45.45.5 0 0zm-3.38-.08c.39-.24.1.25 0 0zm.67-.14c.15-.93.3.33 0 0zm1.85-.12c-1.54-1.5 1.9.82 0 0zm2.87.11c.14-.46.32.48 0 0zm-4.31-.07h.24zm4.34-.35c.39-.24.1.25 0 0zm-1.6-.33c-.63-.63 1.5.84 0 0zm-56.45 12.42-.02.21zm45.61-.51c-.45-2.69-1.73-2.36 0 0zm-.55.2c-.48-1.58-.06 1.02 0 0zm5.73-.17c-.54.25.63.77 0 0zm-30.26.34c-.1-1.96-1.84.13 0 0zm22.93-.38-.01.34zm-2.64-.47c.33-3.13-.68 1.54 0 0zm14.1.6c-.4-.25-.32.42 0 0zm-23.53-.35h-.29zm-12.96-.27c.12-.83-.53.9 0 0zm17.98-.14c-.42-.12.44.51 0 0zm7.02-.18c-.6-1.75.1 1.13 0 0zm-31.47-.2c-.65-2.6-1.95 1.1 0 0zm9.39-.12c-.91-.61-.24 1.24 0 0zm15.53.24c1.52-3.78-2.39-3.1 0 0zm-27.82-.07c-1.3-5.56 1.44-8.91 6.64-10.87-2.2 1.2-5.55 2.14-2.8.2-1.2-1.04 1.12-3.4 3.06-2.69-1.1-1.54 2.44-.41.16-1.2 2.63-1.34-2.02-1.1-.58-3.26-4.27-2.93 4.51 1.42-.18-1.38-3.25-2.18-1.58-.91.68-1.9 1.92-2.42-2.45.05.58-3 2.73-2.92-5.13-3.86-3.79-4.45 1.64-.6 3.08 1.62 3.88-.2-1.09 3.53 4.42 1.13.88-1.16-1.33-1.25-7.83-2.76-2.5-2 2.06 1.9 6.12 1.51 4.18-.58 3.46 3.13.87-3.89 3.27-1.19-1.6-1.1 1.54-1.48-1.12-3.07-.84-.06-1.46-.02-3.4-1.48-2.43-1.69 4.38-.08 5.27 1.78 2.07 1.71 3.22-1.94.85-.92 2.44-.04-.97-3.31 1.97-.68.18-.76 2.01 1.88 2.2-1.32 1.93-1.04 5.15-3.71 1.1-1.52-2.68-.52-.92-4.4-4.16-4.14-.45-1.46-2.33-6.31-.38-2.02 1.63 3.49 8.18 4.58 7.87 2.67-3.45-.85.65-3.71 2.55-1.4 2.07-3.74-4.86-.4-6.25-3.38-1.48-1.1-4.1-2.99-3.93-1.37-1.6-5.22 7.64 4.97 7.85 1.9 2.64-.28 6.95-2.36 3.24-3.3 2.01-1.67-.48-1.67 2.21-2.21-.36-3.69-8.38 1.51-5.2-2.24-3.04-1.17-4.41-1.32-6.31-.4-2.01-2.24-2 1.84-2.22-1.98-3 2.24.74 7.3-.9 8.46-.96-2.08-1.29-6.34-2.67-1.59-1.63 1.08-5.04 7.26-4.37 6.06.95-3.23-2.83 2.07-3.66 2.72-1.6 1.42-6.7 6.88-1.94 3.34.66 1.7 4.6-.77.8 1.02 2.95-.73 5.37-.34.98.1-6.31.29-7.9 6.68-11.22 10.76 2.45-.94 3.06-5.42 4.5-4.46.68-2.4 6.3-7.2 2.24-2.38-2.45 3.6-5.91 7.84-8.48 11.8-1.68 2.21.3 9.38.32 3.36-.12-2.75 2.78-7.68.92-2.1-.81 2.03-.89 6.73.77 2.08 1.28-2.8.97-1.76 1.7.03 1.5-1 9.54-2.58 4.47-.6-2.2.04-7.17 2.83-5.4 3.09-4.02.18-1.81 9.87-1.74 9.02.25-6.07 1.61 4.07 2.17 5.63-2.15-.53 2.26 4.18.84.29-1.12-1.32.33-4.44 1.68-2.18-.02-3.76-2.6-1.65-2.84-1.58.26-2.9.87-5.74-1.51-7.3.03-2.15-.92-2.4 1.26-2.8-.61.82.65 2.04.3 2.62 1.84-1.45 3.6-3.2 1.42.55-2.63 1.39 4.1.05 3.46 2.58 4.2-1-1.3 4.47-.16 5.97 2.41-2.81-.65 4.92 1.44 4.27zm-.02-4.7c.13-.45.32.48 0 0zm-3.75-.12c-.15-.58.34.44 0 0zm-.08-.53c-.4-.48.47.06 0 0zm3.92-1.64c.23-.43.13.43 0 0zm-.34-.61.3-.3zm-6.4-.25c.44-1.4 1.06.31 0 0zm6.62-1c.48-.83.23.53 0 0zm2.1-.09c.12-.4.21.44 0 0zm-1.23-.03c.69-.97.4.04 0 0zm1.8-1.3c.51-.45.37.36 0 0zm-1.14-.12c.39-.24.1.25 0 0zm-.8-.38c.19-.81.19.81 0 0zm.49.1c-.41-.84 1.04.12 0 0zm.74-.17c.19-.27-.03.54 0 0zm-10.06-.21c.31-.64.23.62 0 0zm9.89-.35c1.1-.85.55.65 0 0zm-1.81-.51c-.6-1.21.86 1.26 0 0zm1.1.1c.51-1.3.29.43 0 0zm-4.95-.45c.31-.25.16.41 0 0zm1.54-.38c.36-1.23.54.63 0 0zm-5.56-.08c.1-.51.09.53 0 0zm4.05-.14c.02-2.15.54 1.07 0 0zm6.48.04c.36-.55.97.39 0 0zm-4.02-.1c-4.26-1.51 1.49-1.4 0 0zm2.47-.18c-.5-1.03.56.34 0 0zm2.11.06c.4-2.42 3.33-.02 0 0zm-7.36-.22c.09-1.18.53.26 0 0zm6.87.01c-.17-1 .7.43 0 0zm-6.32-.44c.5-.77.13.58 0 0zm9.5.05c.31-.24.16.41 0 0zm-4.67-.2c.32-.38.32.38 0 0zm1.3-.14c.34-.62.06.8 0 0zm2.27-.25c1.46-1.41 1.13-.05 0 0zm-6.62-.03c.09-.6.22.62 0 0zm.53.04c.23-1.13.35.13 0 0zm4.33.01c.11-.65.92.29 0 0zm-3.34-.18c.2-.27-.03.54 0 0zm4.1-.2c-1.65-1.47 2.65 1.25 0 0zm-7.36.23c.08-.36.55.2 0 0zm3.51-.04c-.26-.55.46.15 0 0zm-2.23-.16c.32-.23.15.42 0 0zm.22-.47c.94-1.08.2.65 0 0zm1.03.03c.4-1.4.25.55 0 0zm2.22-.04c-.95-1.27 1.33.65 0 0zm6.43.03c.16-.44.16.44 0 0zm-13.15.07c.09-.35.54.22 0 0zm5.51-.18c-1.74-.96.47-.66 0 0zm-2.9-.17.3.06zm-3.3-.1c.76-1.5.87.28 0 0zm9.73.01c-1.07-.62 1.51-.6 0 0zm-3.23-.09c-1.46-2.24.93.2 0 0zm2.2-.02c.63-.41.61.45 0 0zm1.82-.33c.53-.41-.2.37 0 0zm2.93.01c.25-.45.33.46 0 0zm-5.57-.12c.32-.42.4.25 0 0zm-.79-.12c-.7-.64 2.42-.04 0 0zm2.42-.1c-.01-.58.35.4 0 0zm.9.03c-.4-1.28.63-.21 0 0zm-9.97-.26c-.46-.45 1 .45 0 0zm8.43 0c.24-.43.24.43 0 0zm-.4-.12c-.07-.45.46.53 0 0zm-2.66-.2c.48-.6.47.61 0 0zm2.15.13h.24zm3.15 0c.1-.74.96.6 0 0zm-6.04-.16c.14-.41.22.44 0 0zm-3.75-.44c.75-.81-.43.71 0 0zm3.85.1c.23-.43.13.42 0 0zm1.15 0c-1.4-.48 1.02 0 0 0zm-5.53-.23c.23-.42.12.43 0 0zm8.92-.03c.33-.57-.09.49 0 0zm2.36.02c-.16-.58.33.43 0 0zm-10.3-.1c1.4-1.02-.24.49 0 0zm5.5-.02c.52-.4-.2.38 0 0zm4.95-.21c-.07-.49.8.67 0 0zm-12.12-.05c.32-.42.4.25 0 0zm.69-.11.3-.3zm12.89-.5c.38-.24.09.25 0 0zm-8.2-.2c-1.82-.02.8-1.08 0 0zm1.99.1.18.01zm2.38-.04c-.28-.53.67.54 0 0zm.96-.05c-1.86-.88-.45-1.33.25-.11zm-3.84-.38c1.76-1.45 1 .36 0 0zm-1.35-.25c.1-.65.2.4 0 0zm-6.9-.54c.2-.27-.02.54 0 0zm8.96.08c-.72-.44 1.08.19 0 0zm-.53-.23c.48-.91.46.3 0 0zm3.2-.36c.32-.24.15.42 0 0zm-.93-.5c-1.12.08 1.8-.88 0 0zm-1.48-.43c.48-.18.3.38 0 0zm-6.96-.15c.1-.6.23.62 0 0zm7.47.1.18.01zm-.03-.38c1.1-.56.76.56 0 0zm2.81-.03c.53-.63.48.74 0 0zm-6.1.02c-1.25-.9 1.95-.44 0 0zm-7.88-.3c.19-.27-.03.54 0 0zm14.77.07c.44-.52.33.39 0 0zm-9.76-.23c.47-.37.36.33 0 0zm1.62-.06c.9-.76-.28.64 0 0zm5.68.06c.24-.43.23.44 0 0zm-9.84-.22c.2-.46.25.37 0 0zm1.2 0c-1.11-1.28 1.58-.46 0 0zm5.19-.01c.31-.24.15.41 0 0zm-1.78-.1c.22-.44.14.41 0 0zm7.76.03c-.84-.81.85.27 0 0zm-12.78-.27c.23-.43.12.43 0 0zm6.45 0c.13-.42.23.43 0 0zm5.67-.11c-.1-.46.46.5 0 0zm-11.39-.13c-.95-.33 2-.63 0 0zm11.86-.03c-.07-.89 2.33-.36 0 0zm-6.8-.09c.53-.41-.2.38 0 0zm2.6 0c.27-.67.16.5 0 0zm3.1-.09c.32-.62 1.53.27 0 0zm-9.51-.06c.07-.72.52-.21 0 0zm8.35-.07c.53-.41-.2.38 0 0zm.44.06c-.37-.61 1.35.53 0 0zm-6.9-.34c0-2.24 2.4-1.08 0 0zm2.89.07c.32-.48.14.46 0 0zm-6.75-.07c.94-1.61 1.4-1.18 0 0zm7.1-.11c.2-.27-.02.52 0 0zm6.5-.16c-.3-.53.67.54 0 0zm-11.33-.09c-1.24-1.51 1.08-.64 0 0zm8.91-.03c.21-.47.5.63 0 0zm.33-.2c.39-.23.09.25 0 0zm-4.26-.14c1.36-1.59.6-.21 0 0zm3.46-.08c-.4-.48.47.05 0 0zm-3.91-.14c.26-.7.3.34 0 0zm1.97-.19c-1.27-1.9.68.61 0 0zm5.32-.06c-2.23-1.44 1.2-.07 0 0zm.6 0c-.1-.45.45.52 0 0zm-13.16-.1c-1.83-1.1.99-.67 0 0zm-1.35-.37c.01-.83 1.8-2.04.61-.6zm4.99-.03c2.22-1.94.16.7 0 0zm-.54-.09c.28-.97.27.4 0 0zm-2.44-.26c.13-.52.02.73 0 0zm10.23-.01c.2-.27-.03.54 0 0zm-6.98 0c.58-2.35 2.26-.62 0 0zm4.5-.01c.38-.24.09.24 0 0zm3.53 0c-1.2-.72 1.03.24 0 0zm-3.17-.15c.1-.43.22.42 0 0zm-8.63-.23c.69-.59-.1.45 0 0zm1.59-.08c.56-.77-.29.64 0 0zm9.75-.17c.58-.8-.12.71 0 0zm-10.87 0c.53-.4-.2.38 0 0zm12.9.06c-.39-.49.48.06 0 0zm-12.28-.08.3-.3zm5.54-.3c.63-.82-.2.65 0 0zm5.84 0c-.87-.4.47-.03 0 0zm-6.3-.25.1-.3zm5.54.05c.39-.24.1.25 0 0zm-9.53-.21c.2-.27-.02.52 0 0zm-1.88-.51c.56-1.12-.18.8 0 0zm5.98-.06c.46-.43.17.4 0 0zm2.23 0c.38-.64.34.37 0 0zm5.98 0c-.12-.6.5.62 0 0zm-5.12.01c.31-.42.4.25 0 0zm-4.44-.18c-.28-.52.68.56 0 0zm7.93-.11c-.36-.77.68.75 0 0zm-7.48 0c-.04-.55.29.37 0 0zm1.52 0c.3-1.22.45.41 0 0zm-4.63-.1c.04-.55.4.2 0 0zm.5-.08c.2-.27-.02.52 0 0zm-1.29-.4c.63-.88-.26.82 0 0zm1.64-.05c1.47-3.03-.03.86 0 0zm4.15.1c0-.8.5.19 0 0zm-4.88-.12c-1.1-1.1.68.12 0 0zm3.5-.05c.53-.42-.19.37 0 0zm7.32-.1c.32-.43.4.25 0 0zm-11.19-.12c.23-.43.13.42 0 0zm2.91.07.3-.3zm2.61-.18c.13-.43.23.43 0 0zm5.09-.6c-.34-1.47 2.88 1.1 0 0zm-2.25.06h.28zm.69-.11c-1.05-.98 1.56.75 0 0zm-6.34-.21c.6-1.1 1.39-.65 0 0zm3.24-.02c.38-.25.1.24 0 0zm-3.95-.12c-.68-.87 1.03.39 0 0zm7.07-.15c.25-.46.34.45 0 0zm-1.25-.08c.39-.24.1.25 0 0zm-2.49-.16c.93-.17.22.31 0 0zm-3.05-.27c1.04-.57-.58.67 0 0zm-1.78-.1c2.85-2.43 3.02-1.26 0 0zm2.68.02c.53-.41-.2.38 0 0zm1.7-.03.3-.3zm2.15-.15c.39-.24.1.25 0 0zm-3.33-.38c.23-.43.12.43 0 0zm.52-.07h.29zm1.72-.52c.55-.5.05.34 0 0zm4.32-.32c-1.31-.73 2.5.59 0 0zm-4.74-.13c.85-.51.78.45 0 0zm-1.96-.1c1.35-1.2 2.5.37 0 0zm1.52-.24c-.23-.43-.12.42 0 0zm9.3.05c-.04-.8.64.81 0 0zm-12.45-.38.32-.65zm1.5.15c.72-.62-.38.52 0 0zm4.4-.25c-.3-.49.67.68 0 0zm-1.72-.26c.33-.47.15.46 0 0zm2.45 0c-1.03-.53 3.61.16 0 0zm2.58 0c.67-.38.6.24 0 0zm-11.48-.15.3-.3zm15.15-.12c2.26-.18-.9.37 0 0zm-4.11-.05c1.33-.74 1.86 0 0 0zm1.43 0c-.04-.8.42.17 0 0zm-11.58-.06.3-.3zm13.06-.37c-3.39-.9.97-.32 0 0zm-.85-.4c-.22-.42-.1.43 0 0zm.35-.1c-.33-.47-.26.44 0 0zm3.4.5c.23-.62.1.6 0 0zm-13.16-.05c.33-.49.15.46 0 0zm-2.95-.26c.34-.57-.09.49 0 0zm14.59-.05c-.1-.5.33.57 0 0zm-9.65-.18c1.07-1.29.53.15 0 0zm5.5-.1c.27-.41.43.42 0 0zm-1.32-.1c-.28-.71.84.63 0 0zm4.46-.16c-.18-.88.57.62 0 0zm-3.04-.18c.24-.43.24.43 0 0zm.57.03.29.02zm.64-.13c-.14-1.31.82.54 0 0zm-5.45-.12c.31-.66.53.09 0 0zm3.61-.2c-1.58-1.13 1.66.91 0 0zm-3.06 0c.2-.27-.02.54 0 0zm5.76.08c.13-.47.33.47 0 0zm-3.94-.24c-.12-.56.44.51 0 0zm-3.4-.05c.9-.95.45.07 0 0zm-1.53-.17c.23-.43.13.42 0 0zm6.1-.1c1.36-.28.35.33 0 0zm1.44-.13c-3.28-1.43 3.85.4 0 0zm1.37-.24c-3.15-.76-4.1-1.2-.5-.63.1-.18 1.76 1.57.5.63zm2.43.17c-.86-.52 1.26.5 0 0zm-12.96-.22c1.02-1.14-.5 1 0 0zm4.22-.06c1.07-1.29-.72 1.2 0 0zm2.39.2c.79-1.08.66.02 0 0zm5.16-.14c-.46-.47.84.56 0 0zm-4.03-.09c.33-.57-.1.49 0 0zm3.2.03c.31-.25.15.41 0 0zm-8.58-.1c.12-.65.2.4 0 0zm5.1-.09c.39-.24.1.25 0 0zm.37-.26c-.4-.4.76.37 0 0zm-1.56-.2c-1.74-.03-.22-.5 0 0zm8.85-.08c-.5-.81.9.68 0 0zm-4.7-.5c-1.5-1.02 1.68.6 0 0zm-3.6-.05c-.8-2.11.73.69 0 0zm1.65-.33c.32-.23.15.42 0 0zm6.2-.04c-3.38-1.83 1.83.44 0 0zm-5.06-.18c.3-.23.26.4 0 0zm-5.18-.23c.69-.59-.1.45 0 0zm14.23-.08c-.45-.44.5-.07 0 0zm-6.54-.31c-.18-.6.45.53 0 0zm4.83-.18c-.95-1.14 1.26 1.14 0 0zm.98 0c.24-.43.24.43 0 0zm.74-.06c-3.22-.42 2.6-.81 0 0zm.64-.04c.5-.7.6.37 0 0zm-9.26-.13c-.28-.5.85.61 0 0zm-.85-.16c.93-.75-.32.44 0 0zm2.63-.02c.2-.27-.03.54 0 0zm.53-.05c-.08-.48.82.65 0 0zm-8.9-.35c1.11-1.17-.8 1.19 0 0zm3.48.24c-.4-.4.77.39 0 0zm8.48-.16c-2.91-.75-5.38-2.57-1.13-.83-.1 0 2.11.91 1.13.83zm-3.99-.07c-.36-.56.56.41 0 0zm.7-.1c-.05-.6.7.37 0 0zm4.22-.14c.32-.24.16.43 0 0zm-11.95-.12c.53-.42-.19.37 0 0zm7.42.02c.22-.44.13.4 0 0zm.94-.12c-.1-.49.81.65 0 0zm2.36 0c.15-.46.32.48 0 0zm5.72 0c.37-.48.45.21 0 0zm-18.13-.11c.67-.85.44.12 0 0zm2.12-.1c.93-1.01.47.06 0 0zm7.17.02.18.02zm4.37-.16c-.13-.76.46.65 0 0zm-12.98.01c1.03-1.49.68-.06 0 0zm.75-.53c.83-3.54 5.05 1.3 1.4-.75-.23-.33-1.58 1.41-1.4.75zm10.69.18c.12-.42.22.43 0 0zm-9.96-.2c2.25-1.3-.53.86 0 0zm1.22.13c.38-.25.1.24 0 0zm13.81-.04c-.28-.5.85.61 0 0zm-16.73-.14c.26-.68.25.53 0 0zm10.38.02c.64-2.45 3.41.03 0 0zm1.97 0c.13-.4.21.44 0 0zm.67-.04c-.32-1.33 1.1.67 0 0zm.87 0c-.24-1.2.6.58 0 0zm-4.2-.07c.12-.42.22.43 0 0zm4.65-.07c-.47-.6.44-.4 0 0zm1.5-.04c.07-.46.62.5 0 0zm-13.4-.13c.32-.23.15.42 0 0zm2.9-.04c.94-.81.21.4 0 0zm1.73.04c.46-.4.5.26 0 0zm.54 0c-.15-.58.34.44 0 0zm6-.12c-1.8-3.4 4.48.5.56-1.35 2.18.65-1.24 1.35-.56 1.35zm1.64-.9c-.34-.45-.25.46 0 0zm4.42.95c.39-.24.1.25 0 0zm-12.99-.15c-.12-.47.7.61 0 0zm-.4-.31c-.3-.5.66.67 0 0zm1.29.08c.31-.25.15.41 0 0zM63.2 170c.14-.59.43.08 0 0zm6.63-.2c.31-1.47.2.6 0 0zm-6.87-.16c.5-.76.13.58 0 0zm8.22.13c.16-.47.43.04 0 0zm2.65-.27c-.24-.5.8.8 0 0zm-4.35.01h.24zm-5.54-.37c.2-1.27 1.64-.35 0 0zm1.06-.42c1.39-1.01-.94.98 0 0zm4.7.2c.36-.4.36.4 0 0zm.4-.37c.23-.43.23.44 0 0zm3.61-.1c.32-.9.55 1.12 0 0zm1.46.1c-.44-.72.57.3 0 0zm-4.26-.07c-.31-.6.82.1 0 0zm1.83 0c.38-.25.1.24 0 0zm-6.38-.08.4-.22zm4-.15h.24zm10.3-.27c-.48-1.56.65 1.23 0 0zm-15.04.09c.58-1.4.66.09 0 0zm11.37-.03c-.2-1.02.86.88 0 0zm2.35-.18c-.82-.77 1.05.75 0 0zm-8.67.04c.38-.24.09.25 0 0zm.84-.17c.83-.3-.3.37 0 0zm.75.09.4-.25zm1.23-.07c.15-.46.33.49 0 0zm-2.86-.22c-1.22-.43.3-.1 0 0zm-3.31-.3c.84-1.5.58-.22 0 0zm3.56-.05c.72-.92-.16.51 0 0zm1.26.04h.24zm6.08-.04c.13-.42.23.43 0 0zm-12.56-.11c.37-.87.42.2 0 0zm15.13 0c.21-.44.13.4 0 0zm-3.95-.52c-.66-1.02 1.07 1.07 0 0zm-2.02.05c.31-.24.17.42 0 0zm-6.9-.22c.23-.43.13.42 0 0zm-1.26-.45c1.57-1.54-1.1 1.54 0 0zm14.12.1c-2.08-.29.24-.3 0 0zm5.08-.04c-.5-.7.69.05 0 0zm-17.56-.13c1.46-.91 1.19-.13-.04.14zm7.85-.05c.14-.47.33.47 0 0zm.83-.16c.05-.75.15.72 0 0zm2.32.18c-.62-1.23 1.3.77 0 0zm-8.7-.25c.8-.93-.12.61 0 0zm3.69.12c-.05-.56.48.23 0 0zm4.43-.11c-.39-.67.87.24 0 0zm1.84-.24c.08-.53.08.51 0 0zm1.85.11c-.08-.45.46.51 0 0zm-8.66-.45c-1.99-3.01 1.7 1.39 0 0zm1.72 0c-1.95-.93 1.1-.14 0 0zm-6.76.1c.56-1.65 2.04-1.96 0 0zm2.37.07c.66-.79.62-.03 0 0zm6.41-.13c.2-.27-.03.54 0 0zm3.28-.02c-.38-.82 1.08-.1 0 0zm4.65-.1c-.4-.54.75.55 0 0zm-13.58-.12h.24zm.57-.04c.23-.43.12.43 0 0zm5.84-.08c.4-1.27 1.04.35 0 0zm1.18.05c-1.6-1.43 1.26.3 0 0zm-11.33-.1c.53-.4-.2.38 0 0zm9.48.02c.99-.83.3.48 0 0zm-5.4-.34c-1.37-.54 1.7.08 0 0zm5.25-.14c-2.03-1.57 2.26.48 0 0zm-1.05-.4c.39-.24.1.25 0 0zm2.02-.05c-.95-.8 1.1.29 0 0zm-9.22-.12c.53-.4-.2.38 0 0zm.82-.05c.1-2.55 1.44-.1 0 0zm.78-.16c-.28-.52.68.56 0 0zm.47-.16c.52-.9-.1.76 0 0zm7.37.16c.12-.42.22.43 0 0zm4.26-.18c-.94-.82 1.07.6 0 0zm-9.91-.2c-.87-1.21.86.8 0 0zm-.77-.06c.76-.81-.43.71 0 0zm11.04.04c-.42-.57.79.6 0 0zm-5.21-.29c.12-.42.22.43 0 0zm2.44-.45c-1.78-1.43 2.58 1.28 0 0zm1.99.22c.35-.46.58.44 0 0zm1.57-.06c.88-.76-.3.62 0 0zm-12-.07c.54-.4-.18.39 0 0zm1.58.06c-.5-.67.47-.07 0 0zm8-.13c-.28-.49.67.69 0 0zm-10.4-.31c.61-1.53.34.58 0 0zm12.58.17c-.34-.57.57.42 0 0zm-11.43-.11c.22-.44.13.4 0 0zm.6-.12c.1-.51.1.53 0 0zm6.4.05c-.25-2.02.7.58 0 0zm-8.65-.16c1.07-.92-.63.8 0 0zm14.17.11c.69-.58-.12.45 0 0zm1.28.06.78-.32zm-.7-.17c-.08-.46.46.51 0 0zm-.59-.37c1.23-.68-.53.86 0 0zm-12.1-.04c.18-.27-.03.53 0 0zm3.3-.3c.2-.56.56.97 0 0zm4.46-.01c-.23-.73.71.98 0 0zm-8.67.06c-.9-1.3 1.53-1.41 0 0zm6.19.01c-.18-.91.63.37 0 0zm5.15-.18c-.66-.53 1.72.38 0 0zm1.07-.12c.85-.6 1.21.07 0 0zm-11.51-.26c.2-1.01.06 1 0 0zm7.27.1c.38-.25.1.24 0 0zm2.46 0h.24zm3.17-.15c-.35-.57.7.06 0 0zm-13.22-.08.18.02zm10.94 0 .18.02zm.41-.14c.26-.58.46.22 0 0zm1.26.02c.39-.24.1.25 0 0zm-6.95-.32c-.2-.96 2.13.58 0 0zm3.38.06c.3-.23.26.4 0 0zm4.28-.2c.45-.46.38.38 0 0zm-5.44-.11c.39-.24.1.25 0 0zm-.5-.11c-.19-.75.7.5 0 0zm5.15-.21c-.37-.75.59.46 0 0zm-.49-.06c.35-.47.35.47 0 0zm-11.97-.11c-.21-1.06.5.23 0 0zm6.4-.12c-.6-1.07 1.11.96 0 0zm3.63.05c-.02-.45 1.32.65 0 0zm-.87-.05c-1.18-.34 2.06.3 0 0zm1.73.03c-1.03-.18.73-.63 0 0zm.27-.05c.55-.5.05.34 0 0zm.5-.17.17.02zm-2.56-.12c.38-.24.08.25 0 0zm2.38-.38c-.68-.87 1.7.75 0 0zm1.07.2c2.25-2.13 1.55-1.19 0 0zm-8.05-.38c-2.73-3.93 5.68-.31 0 0zm-2.22-.32c-1.74-2.95 1.32-1.12 0 0zm13.04.25c.18-.94.2.41 0 0zm-.1-.62c.23-.48.32.85 0 0zm-7.55-.1c-1.37-1 1.23-.17.63.12zm1.3-.17c1.07-.49-.28.45 0 0zm.74 0c.36-.49.47.49 0 0zm-8.43-.8c.23-.43.12.42 0 0zm5.72 0c-.48-.54 1.09-.11 0 0zm-.9-.12c.13-.42.23.43 0 0zm-2.01-.5c.11-.61.34.4 0 0zm-2.75-.25c.19-.27-.02.53 0 0zm6.89-.05c-.14-.47.7.6 0 0zm-6.8-.46.3-.7zm.6-.36c.34-1.46.03 1.27 0 0zm11.87 57.37c-.06-1.32-1.5.28 0 0zm12.26-.08c-.23-.42-.12.43 0 0zm-8.77-.12c-.28-1.01-.64.51 0 0zm26.55-.3c.77-3.75-3.83-9.42-5.13-9.64 2.4 1.03 5.07 9.5 1.97 3.96-2.4-3.65 1.62 3.94-2.07.15 1.2 1.9 3.34 3.58 3.43 3.07.57 2.77 1.4 1.74 1.8 2.46zm-.6-1.8c-.7-2.75.48 1.15 0 0zm-1.89-2.2c-1.26-2.44 1.62 2.21 0 0zm-1.75-.42c-.8-.93.92.88 0 0zm.24-2.23c-.95-1.22.66.52 0 0zm-46.2 6.2c.94-.9-6.88 1.37-1.88.56.17 1.08 1.89-1.24 1.88-.56zm46.31.5c-.37-2.23-.44.46 0 0zm-40.08-.16c.98-6.1-3.49 1.53 0 0zm-1-1.37c.2-.27-.03.54 0 0zm32.2 1.2c-.6-.44.54 1 0 0zm-33.67.06c1.49-2.2-1.34-.26 0 0zm15.41.04c-.67-2.4-4.68-4.2-1.4-1.06.4.25.77 1.4 1.4 1.06zm-35.22-.02c-.1-2.63-1.25-5.47-.43-1.2.15.36-.17 1.12.43 1.2zm-.48-2.81c.09-.53.1.51 0 0zm19.8 2.75c-.24-.44-.25.43 0 0zm-5.23-.23c-.12-.43-.23.43 0 0zm-8.81-.22c-.46-.52.08.61 0 0zm44.33-.2c-.6-1.66.11 1.56 0 0zm-39.76.07c-.38-1.24-.54.94 0 0zm52.38.12c-.13-.42-.23.43 0 0zm-51.59-.16c2.88.26-2.44-1.06 0 0zm33.54-.41c-.57-1.36-.02.8 0 0zm-30.24-.26c1.74-2.65-2.85-3.6-1.32-.16.37.37.89.38 1.32.16zm-1.1-1.14c-.22-1.5 1.42.78 0 0zM54.5 210l-.01.21zm38.88-.17c-.51-2.32-.15 1.27 0 0zm14.67.12c-.39-.46.38.87 0 0zm-16.79-.36v.4zm-40.92.04c-.73-.88.54 1.19 0 0zm17.84-.22c3.87-1.76-3.73.18 0 0zm23.94-.29c-.28-1.44-2.44-3.13-.73-.68zm17.13.48c-.45-.83-.2.43 0 0zm-46.88-.15c-.47-.53.05.4 0 0zm45.67.06c-.15-.41-.31.25 0 0zm-36.11-.63c2.87-3.24-1.6-.12 0 0zm.05-.9c.07-.94.51.3 0 0zm17.74.86c-1.2-1.54 1.06 1.6 0 0zm-22.24-.02c-.15-2.29-3.65 1.5 0 0zm22.88.1c-2.5-3.98-2.52-1.2 0 0zm-32.67-.21c-.32-.64-.24.62 0 0zm29.15-.5c-1-3.69-.22 1.95 0 0zm-16.3.33c.66-2.81-2.33-.68.29-3.3-.18-1.82-3.49 4.02-.29 3.3zm-11 .04c-.34-.29-.14.28 0 0zm8.6-.05c-.13-.42-.23.43 0 0zm7.88 0c-.45-.4-.52.55 0 0zm8.27-.03c-1.46-4.76-6.51-8.11-11.32-8.38 4.15.23 1.3-1.28 1.79-4.2-3.79-.99.37-1.57-3.16-2.35-3.53-3.31-2.71 2.04-2.76 1.67-2.68-1.13.07 2.41 1.5.86-2.78 1.1 2.57.6-.67 1.46 1.74 3.53 5.56-3.38 4.12 1.46-3.31-1.1-4.61 2.83-.45 1.76 5.13-.26 8.32 3.98 10.95 7.72zm-12.6-7.76c.22-.42.1.43 0 0zm.11-.53h.34zm0-.56c-.17-.63.99.84 0 0zm-.71.02c.46-.4.5.26 0 0zm2.46-.17c-.97-.62 1.95.2 0 0zm-.93-.13c.24-.43.24.43 0 0zm-.82-1.97c-.2-.81 1 .55 0 0zm-.78-.26c.82-.9.5.58 0 0zm1.32-.18c-.54-.87 1.05.97 0 0zm.4.05c-2.46-1.85 1.5-.05 0 0zm-1.01-.28c-.28-1.12.69.7 0 0zm-.63-.46c-.57-.58 1.56.43 0 0zm2.74-.14c.67-.08.26.35 0 0zm-5.23-.16.17.02zm1.78-.11c-.44-3.46 1.31-.05 0 0zm1.54.07c.12-.42.22.43 0 0zm.35-.04c-1.78-1.6 2.03.29 0 0zm-4.15-.42c-.28-.5.85.61 0 0zm3.18-.42.3.02zm-2.76-.78c-.52-.86.8.58 0 0zm2.78-.22c-.3-.67.9.79 0 0zm.55.05c.4-.25.32.42 0 0zm-2.32-1.1c-.46-.46.85.58 0 0zm-.84-.11c.27-.4.65.64 0 0zm17.45 15.43c-1.94-.92-2.28-7.33-1.95-2.9-.22.96.72 3.33 1.95 2.9zm-1.63-2.53c-.02-.58.35.38 0 0zm8.56 2.46c-.7-.94.46.97 0 0zm-28.02.05c-.13-.4-.22.44 0 0zm-.2-.31c-.1-.96-.56.97 0 0zm27.67-.1c-.56-.6.42.94 0 0zm-25.72.1h-.39zm26.23-.26c-.47-.85.24.8 0 0zm-25.47 0c-.3-.23-.27.4 0 0zm14.56-.08c-.55-.9-.6.44 0 0zm-8.36-.44c-.23-.44-.41.87 0 0zm18 .23c-.83-3-7.84-3.37-2.77-.73-1.1-1.35 2.94-.16 2.77.73zm-2.9-2.44c.3-.24.8.45 0 0zm-7.72 2.31c.73-.97-1.36-.17 0 0zm-23.97-.45c-.33-.96-.27 1.2 0 0zm15.66.17c-.4-.2-.04.55 0 0zm9.21-.04c-1.05-.8.48.8 0 0zm-17.98-.06c.65-1.02 2.8-.8 3.21-.99 4.5.24-1.35-6.4-3.14-2.61-4.1 1.55-1.94 2.38-.06.79-.95.94-1.29 2.55-.01 2.81zm-.78-1.54c.12-.6.33.43 0 0zm4.8-.02c-.26-1.65 2.24.53 0 0zm.52-.43c-.1-.35-.55.22 0 0zm-1.82.4c.22-.31.93.17 0 0zm-2.57-.24c.14-.46.32.48 0 0zm.4-.23c.22-.43.11.42 0 0zm3-.16c.17-.47.43.04 0 0zm-.62-.26c.15-2.43.65-.08 0 0zm-1.25-.5c-.3-.86 1.08.7 0 0zm.98-.28c.72-1.38.88.71 0 0zm-1.6-.42c.53-.42-.19.37 0 0zm-.66-.08c.35-.4.35.4 0 0zm1.67.05c.1-.35.54.21 0 0zm20.3 3.6c-.05-2.3-2.56-4.62-1.03-.8 0 .5.54.97 1.03.8zm-29.2-.5c.24-1.57-1.7.36 0 0zm9.77-.03c-.32-1.04-.6 1.23 0 0zm.9.25c-.08-.35-.53.21 0 0zm6-.05c-.43-.5-1.19.66 0 0zm15.7-.16c-.6-.25.32.58 0 0zm-17.24.02c1.45-1.19 3.56-2.02 5.17-3.07-1.07-1.5-5.8-.24-2.74-1.73-2.69-1.02-5.92 3.8-2.57 2.94-.68.71-1.73 2 .14 1.86zm.45-.58c.53-.42-.19.37 0 0zm1.08-.69c.53-.41-.2.38 0 0zm-.4-.15c.03-1.86.8.22 0 0zm.8-.03c.39-.24.1.25 0 0zm-.32-.37c.38-.5.59.51 0 0zm-.9-.15c-1.03-.87 1.1.34 0 0zm1.44-.1c.32-.22.15.43 0 0zm-3.75-.08c.36-.87.75.36 0 0zm3.4-.36c.47-.5.38.48 0 0zm-2.36-.11c1.24-1.5.94.4 0 0zm1.08 0c2.3-2.32 2.84-.57 0 0zm1.88-1.15c-.13-.43-.23.43 0 0zm.78 1.14c.4-.27.19.44 0 0zm-.14-.3c.2-.27-.03.54 0 0zm-3.85-.2c1.23-1.13.72.27 0 0zm.58-.5c.38-.23.08.25 0 0zm.72-.53c.45-.54-.17.54 0 0zm.57.04c.28-.63.6.15 0 0zm8.48 4.07-.39-.25zm-30.23-.31c-.42-.1.44.51 0 0zm11.35.08c-.49-.77-.1.63 0 0zm-7.59-.1c-.78-1.13-.03.61 0 0zm18.73.05c-.3-.23-.26.4 0 0zm-16.34-.3c.05-1.28-.43.94 0 0zm3.04-.17c0-.73-.62.67 0 0zm37.8.03c-.47-.92-.7.1 0 0zm-3.56-.14c-.43-.54-.33.39 0 0zm-23.74-.57c-.23-.44-.24.43 0 0zm11.69-1.3c-.34-2.34-.91-2.86-1.33-2.46-1.78-1.27 1.18 4.4 1.33 2.47zm-.3-.27c-.51-.77.44-.18 0 0zm-1.1-1.44c-.17-1.03.38.5 0 0zm7.56 2.16c-2.06-1.94 3.48-7.65-1.53-4.68-3.76-1.25-4.38 5.55-1.72 1.9 2.97-4.95-2.05 5.41 1.35.35-.83 2.9-.35 2.23 1.1.95 1.14 1.1-2.24 1.56.8 1.48zm-1.91-1.28c.2-1.81.6-.24 0 0zm1.26-.52c-.52-.79.62.24 0 0zm-1.78-1c.9-1.46 2.48-1.76 0 0zm-1.09 2.73c.65-.61-1.24-.74 0 0zm-6.13-.34c-1.37-.8.38.79 0 0zm-9.83-.12c-.32-.47-.14.46 0 0zm33.88-.05c-.43-.68.1.6 0 0zm-45.78-.09c.46-2.73-2.01-.05 0 0zm12.52.04c2.58-1.7-2.24.2 1.54-1.88-.25.03-5.42-2.66-2.2.64l.33.64zm-.03-1.4c-.15-.58.34.44 0 0zm-.51-.3.28.01zm.05-.8c.39-.24.1.25 0 0zm-1.36 2.03c-.71-.3.34.54 0 0zm-19.9-.37c-.04-1.79-.2 1.62 0 0zm7.36.35c.6-1.2-1.05.3 0 0zm13.82-.54c-.27-.7-.3.34 0 0zm29.42-.23c.73-.76-1.07.46 0 0zm-31.1-.31c.23-2.23-2.04.82 0 0zm12.62-.6c-.37-2.68-5.87-7.34-2.13-2.2 1.26.18.6 3 2.13 2.2zm-3-3.76c-.39-.49.48.06 0 0zm13.44 3.86c-.23-.44-.24.43 0 0zm9.92 0c2.57-.92 6.93-2.13 1.64-1.35-.87-.1-4.43 1.63-1.64 1.35zm.82-.12c-.4-.63-.17.46 0 0zm-9.58-.75-.25.4zm-23.77-.4c-.34-.45-.25.47 0 0zm-20.15-.24c-.42-.2-.05.55 0 0zm21.33.02c-.33-.46-.25.45 0 0zm-16.46-.12c-.37-.47-.46.5 0 0zm10.57-.07c-.33-.29-.14.28 0 0zm6.23-.1c-.88-3.64-2.71.44-.17.15zm-1.08-.5c.28-.61.44.45 0 0zm-4.83.34.02-.15zm.75-.21c-.54.04.4.56 0 0zm16.1-.35c.73-1.82-.01-8.94-.34-3.4.73 2.14-1.8 3.38.34 3.4zm-.13-.9c-.4-.5.49.04 0 0zm-.02-2.23c-.15-.58.34.44 0 0zm-13.05 2.92c-.4-1.94-.55 1.43 0 0zm.35.05c-.36-1.26-.32 1.4 0 0zm-14.44-.2c-.36-.48-.37.45 0 0zm20.5-.19c-.09-.84-2.19.19 0 0zm1.57.02c-.09-.35-.54.22 0 0zm1.32-.3c-1.16-1.52-1.16-.22 0 .25zm-28.22-.53c-.4-.37 0 .83 0 0zm6.06.19c-.14-.46-.32.48 0 0zm20.7 0c-.47-.53.04.4 0 0zm-7.64-.29c-.37-.64-.35.67 0 0zm-19.29-.18c1.1-1.97-.27-6.34-.44-1.7.2-.36-.3 2.56.44 1.7zm25.2.2c-.24-.35-.9.27 0 0zm-4.7-.64c-.97-.74-.15 1.45 0 0zm12.35.2v.28zm-32-.22c1.16-2.12-1.18 1.3 0 0zm29.17-.36c-1.62-4.4-1.09-1.3 0 0zm.6-1.13c-.56-.96.59 2.67 0 0zm1.2.73c.07-1.9-.86-1.32-.2.06zm-13.71-.77c-.66-.65.25.93 0 0zm8.89.25c-1.4-.87-5.8-4.9-1.8-2.45 3.91 1.27-.3-4.57-4.23-4.33-.75 1.94-.92 3.84 1.83 2.87-3.65 1.25 3.54 3.25 4.2 3.91zm-1.29-2.83c-.26-.84.72.94 0 0zm-3.8-.1c.08-.64.5.61 0 0zm-1.12-.9c-.67-.67 1.36.51 0 0zm2.54-.21-.22-.88zm-2.74-.35c.71-.61-.39.54 0 0zm4.02-.05c-2.11-2.31.88-.2 0 0zm-1.63-.1c.22-.44.13.4 0 0zm.45-.17c.08-.48.7.55 0 0zm-1.32-.03c-.48-.72.73.16 0 0zm-1.05-.36c.1-.65.32.49 0 0zm2.44-.21h.24zm-2.58-.3c.1-.54.8.57 0 0zm1.03-1c.54-.43.61.54 0 0zm9 5.93c.05-3.66-.47 2.21 0 0zm-11.92-.26c-.23-.62-.1.6 0 0zm.27-.31c-.41-.11.44.51 0 0zm-15.44-.28c2.29-1.79-1.19-1.19 0 0zm15.24-.5-.51-.06zm-.11-.4c1.2-2.1.54-4.7-.72-1.3-.99.2.46 1.96.72 1.3zm9.75-.2c.61-2.3-1.7-1.93 0 0zm-.22-.4c-.4-.48.47.06 0 0zm5.25-.21c1.84-3.85-1.71-2.02-.88.41zm-.69-.73c.12-.82.33.62 0 0zm-2.73 1.03c.24-5.54-2.75.55 0 0zm-8.14-.77c-.7-.12-.27.61 0 0zm-2.04.08c-.13-.6-.33.43 0 0zm8.96-.69c-.35-2.36-.3 1.65 0 0zm1.49.2c-.04-4.01-.52-.36 0 .05zm-2.84.1c.32-.83-1.47 0 0 0zm3.37-1.39c.02-3.3-1.38.92 0 0zm-4.28.12c-.83-1.6-1.2-.45 0 0zm1.92-.32c1.22-.65-.76-.66 0 0zm1.22-.02c-.4-.6-.2.9 0 0zm2.7.14c-.18-1.16-.27.5 0 0zm-14.21-.26c-.23-.62-.1.6 0 0zm13.65-.05c.96-1.06-1.29-.3 0 0zm-11.63-.35c-.13-.43-.23.43 0 0zm8.95-.34c-.7-2.07-.45 1 0 0zm-8.99-.3c.06-1.78-.91 1.14 0 0zm4.62.3c1.42-2.08 2.56 1.02.79-2.36-1.19-3.6-4.9-4.95-5.03-.94 2.41-.17 3.47-1.29 2.75 2.43 1.33 1.8.04-.15 1.49.87zm-.97-.94c-1.64-.83.92.17 0 0zm1.13.07c-.48-1.34.9.61 0 0zm-4.26-2.4c-.38-.57.75.54 0 0zm.1-.29c.13-.42.23.43 0 0zm2.37-.58c-.15-.58.34.44 0 0zm-1.94-.35c.53-.41-.2.38 0 0zm1.6-.37c.17-.34.71.24 0 0zm-.81-.46c-.63-.8.67.46 0 0zm.49-.15h.24zm.61-.04c.31-.24.16.41 0 0zm-4.18 5.27c-.14-.41-.22.44 0 0zm11.38-.54c2.28-.6-3.99-7.1-1.2-2.85.04.29.4 4.76 1.2 2.85zm-.4-.64c1.26-1.9-.03.58 0 0zm-.62-1.3c-.4-.48.47.05 0 0zm5.58 2.43c2.16-1.44 3.17-5 .84-1.16-.53.52-3.75 1.28-.84 1.16zm-12.17-.43c-.12-3.7-6.32.63 0 0zm-.52-.09c.95-.45-.31.46 0 0zm-1.46-.42h.24zm.82-.2c-.7-1.46 1.05.66 0 0zm.49 0c.33-.4.5.27 0 0zm5.96.12c-.65-1.14.16 1.09 0 0zm-26-.64c1.4-3.75-1.8 2.59 0 0zm25.22.46c-.5-.28.16.54 0 0zm9.92-.52c.07-.76-.8 1.18 0 0zm-9.88-.12c-2.23-1.67-.96-6.27-.3-3.54.01-2.4 1.52 1.05 1.93-.25 1.21-2.8-6.68-3.66-4.04 1.39.24 1.14 1.1 2.48 2.41 2.4zm-1.92-2.46c.14-.46.32.48 0 0zm-.05-1.04c.32-.23.15.42 0 0zm.6-.28c.33-.43.12.6 0 0zm2.23-.47c-.4-.5.48.04 0 0zm-2.27-.33c-.34-.87.37.46 0 0zm1-.13c0-1.16.55-.41 0 0zm.8-.13c-.3-.48.67.69 0 0zm7.43 4.67c1.6-1.16-2.69.6 0 0zm-16-.23c.3-.5-.84.6 0 0zm.8-.23-.2.41zm2.9-.18c-.39-.5.23.86 0 0zm12.17.01c0-.63-.73.84 0 0zm-6.3-.34c-.68-.7.28.78 0 0zm4.65-.18c-1.36 0 2.89-1.7-.48-.94.98-.17-2.48 1.7.48.94zm.4-.5c.27-.4 0 .52 0 0zm1.92.53c-.25-.53-.26.68 0 0zm-9.34-1.21-.3-.3zm-5.86-.25c-.93-.64.31.58 0 0zm15.98-.14c-.85-1.07-1.95.94 0 0zm-1.25-.16c-.25-.59-.34.9 0 0zm-7.9-.55c-.44-.73.2.77 0 0zm4.05-.22c-.58-2.17-3.57-1.78 0 0zm-7.09-.04c1.92-3.68-3.18-1.17-.39.15l.24.03zm-.2-.25c.14-.59.43.08 0 0zm-.55-.2c-.07-.99.63.6 0 0zm.55-1.24c-.34-.57.57.42 0 0zm14.12 1.72c1.19-1.96-5.6-.94 0 0zm1.67-.64c.45-1.26-.9 1.31 0 0zm-18.48-.13v.34zm-15.24-.43c.7-.82-.83.16 0 0zm27.32-.4c4.3-2.47-4.99-.7 0 0zm4.3-.15c3.18-2.11-3.15.75 0 0zm-15.46-.14c-.16-.41-.31.25 0 0zm7.56-.17c-.3-1.72 4.63-.17 1.34-3.07-1.8-1.13-.41-3.16.84-.89 2.35-1.56-3.08-2.36-.1-3.47.85 3.75 1.8-2.56-1.37-.39-.26 2.31-2.6 5.06-2.66 5.43-3.15.43.6 1.41 1.95 2.39zm.62-1.5c-1.5-1.33 2.43-.49 0 0zm-3.5-.45c.12-.43.23.42 0 0zm1.8-.54c.39-.24.1.25 0 0zm1.5-.72c.4-.25.32.42 0 0zm-.99-.96c.32-.43.4.25 0 0zm1.16-1.99c.9-1.33-.37.72 0 0zm.86-.83c.34-.46.26.46 0 0zm-.7-.21c-.42-.7.59.13 0 0zm8.67 7.14c-.13-.66-.48.8 0 0zm-33.05-.17c.62-1.56-.73.7 0 0zm14.9-.08c-.4-.48.36.9 0 0zm1.9-.22c.28-1.3-1.07 1.18 0 0zm12.57.13c-.16-.41-.31.24 0 0zm-10.74-.29c.61-.98-1.55-1.57 0 0zm-.7-.35c-.11-.42-.22.44 0 0zm14.37.05c-.33-.29-.14.28 0 0zm.77-.05c-.15-.46-.33.49 0 0zm-15.99-.4c-.84-.5.17 1 0 0zm12.68-.06c-1.46-2.15-4.28-2.37-1.02-.05l.52.15zm-12.9-.45c-.23-.43-.13.42 0 0zm18.42-.43c3.03-3.58.8-1.8 0 0zm.58-.1c-.5-.1-.39 1.15 0 0zm-16.11.13c-.25-1.94-2.43-1.03 0 0zm14.6-.06c-.13-.42-.23.43 0 0zm-8.28-.46c-.43-.48-.27.48 0 0zm8.87-.12c1.74-.9-.65-.35 0 0zm-13.75-.5c4.94-2.7-3.79.03 0 0zm7.57-.36c.25-1.63-1.9-.97 0 0zm4.06-.05c.84-1.14-2.17-3.14-1.1-.24.03-.21 1.25.7 1.1.24zm-7.88-.4c-.24-.62-.24.62 0 0zm2.85-.32c1.2-.12 7.26-2.7 2.3-2.03-2.11-.16-4.12-1.7-2.3 2.03Zm1.65-1.23c.4-.85-.11.81 0 0zm-.86.07.3-.3zm.5-.05c.04-.55.4.2 0 0zm1.08-.48c-.09-.45.46.52 0 0zm1.08-.24c.46-.4.5.26 0 0zm-8.08 1.8c-.15-.42-.32.24 0 0zm-2.03-.57c.79-.99-1.12.05 0 0zm17.41-.83c.41-1.97-1.69 2.48 0 0zm-22.02-.1c-.94-1.15-.19.47 0 0zm-1.24-.3c-.85-.68-1.44.45 0 0zm18.08-.21c-.12-.43-.23.43 0 0zm5.6-.04c-.2-.55-.2.55 0 0zm-24.67-.36c-.22-.62-.08.6 0 0zm19.74-.07c.33-.78-1.32.94 0 0zm-20.18 0c-.36-.45-.35.48 0 0zm22.07-.1c-.13-.47-.33.47 0 0zm.2-.56-.22.17zm-6.55-.26c3.6-1.26 5.32-3.61 2.37-2.26.16-2.63-2.12.35-1.62 1.47-.54-.05-1.96 1.56-.75.79zm.34-.33c.23-.43.13.42 0 0zm-1.23.4c-.16-.41-.31.25 0 0zm-1.77-.28c1.35-1.92-1.65.08 0 0zm7.52-.08c3.87-1.73-3.41-.64-.8-.02zm-8.5-.09-.16-.25zm3.2-.48c2.63-2.77-1.5-.83 0 0zm7.04-.3c-.67.07-.38.95 0 0zm1.34.05c-.89-.13.18.32 0 0zm-7.55-.25c.28-.51-.85.6 0 0zm6.21-.35c1.86-1.5 2.53-2.64-.44-1.11-1.76-.2.38.51.44 1.11zm-8.22-.05c2.32-.57 1.24-4.6.23-1.04.33-2.06-.97 1.4-.23 1.04zm.88-2.16c.34-.56-.09.49 0 0zm.25.07c-.07-.86.47.16 0 0zm-3.57 1.55c-1.12-4.5-4.87 1.44 0 0zm15.64-1.33c.96-2.54-.01-2.29 0 0zm-.55.21c1.5-2.72-.77-1.15-.05.12zm-8.96-.62c2.99-1.6-.96-3.77-.14-.55-1.18.6-.11.98.14.55zm-.28-.19c.08-.51.08.53 0 0zm.55-1.68h.24zm3.75 1.8c1.54-1.04 5.56-3.41 1-1.95-3.21 2.13.76-3.98 2.65-4 1.8-2.29-4.23 2.25-5.7 1.93-2.5 4.01 3.66-2.15.04 1.92 2.03 1.07-3.05 2.98 1.47 2.18l.3-.05zm-2.45-.12c.34-.45.26.46 0 0zm.94-2.4c.25-.46.34.45 0 0zm1.43-1.08c.92-.93.5.27 0 0zm-1.68-.24c.23-.62.1.6 0 0zm-2.89 3.7-.01.21zm8.3-.7c.1-.98-1.98 2.59 0 0zm-8.8.45c2.13-1.98-.93-1.09 0 0zm-.6-.85c-.49 0 .06.56 0 0zm-1.28.1c.72-1.5-.84-.34 0 0zm.65-.27c-.26-.35-.18.45 0 0zm11.56-.05c1.01-1.8-1.3.55 0 0zm-12.9-.37c-.25-.47-.34.45 0 0zm8.57-.12c-.11-.42-.22.43 0 0zm.52-.3c2.75-2.51-.83-1.25 0 0zm2.88-.2c-.33-.42-.5.27 0 0zm1.97-.42c-.8-.26-.18.96 0 0zm-1.3.02c-.37-.44-.66.82 0 0zm-7.69-.43c-.92-.31.06.67 0 0zm6.04.03c-.08-.36-.55.2 0 0zm-7.87-.51c-.27-1.01-.38 1.25 0 0zm8.2.14c-.18-.41-.12.63 0 0zm-6.74-.3c.28-1.68-1.56 1.03 0 0zm11.27-.32c-1.03.81.08.49 0 0zm-3.27-.47c3.67-4.71-1.88.94 0 0zm3.07.24c-.15-.61-.15.8 0 0zm-3.78-.4c-.4.15.03.59 0 0zm4.01.15-.01.21zm-1.04-.78c.83-2.47-1.95 3.06 0 0zm-23.84.43c-.34-.2.4.64 0 0zm13.68.03c-.6-1.05-.42.63 0 0zm-2-.31c-.67-.5-.47.38 0 0zm3.43-.06c.46-.96-1.8.59 0 0zm1.28.02c-.22-.46-.48.64 0 0zm1.6-.66c.57-1.86 3.73-5.1-.28-2.33-.65 1.38-3.58 3.06.28 2.33zm-1.7-.02c.23-.43.13.42 0 0zm.36-.15c.69-.97.4.04 0 0zm.58-.81.3-.3zm.5-.25c.46-.53-.18.58 0 0zm-.6-.09c.53-.73.78.06 0 0zm-2.9.86c-1.22-.01.16 1.2 0 0zm1.46.19c3.64-4.7-2.67 1.53 0 0zm5.97-.01c-.5-.01-.07.64 0 0zm2.86-.09c1.57-1.08 3.66-9.67 1.24-4.9-.75 2.31 1.4-2.73.22.82-.24.32-2.47 4.96-1.46 4.08zm-8.52 0c-.13-.42-.23.43 0 0zm5.94-.96c-.1-1.72-.6 1.7 0 0zm-2.3.31c3.48-2.9-1.93-.46 0 0zm-4.58-.7c-.61-.08-.17 1.19 0 0zm-15 .19-.02.21zm20.03.07c-.1-.6-.23.62 0 0zm-7.35-.42c2.3-2.1-1.2.56 0 0zm.8-.1c.71-.9-1.37.9 0 0zm1.82-.05c1.75-1.94-.8.5 0 0zm5.77-.25c1.48-1.6 3.48-5.94.53-1.88.14.13-1.8 2.11-.53 1.88zm1.86-.08c2.6-3.35-3.24 1.74 0 0zm-5.65.3c.34-1.83-1.6-1.24 0 0zm9.17-.88c.01-2.28-.39 3.27 0 0zm-11.44.12c2.88-1.15 1.15-6.66.52-2.38.9.58-2.63 3.4-.52 2.38zm.98-2.38c.26-.73 1.15-.06 0 0zm-.1-.37c.09-.35.54.22 0 0zm.44-.3c.14-.41.22.44 0 0zm.25-.4c.59-.74-.09.62 0 0zm.94 3.21c.37-.66-.9.68 0 0zm-3.77-.43c.14-1.07-.7.58 0 0zm13.32-.95c-.38-2.03-.22 2.46 0 0zm-7.67.2c5.35-2.37-1.35-3.52-2.2-.18.59.57 1.54.2 2.2.18zm-1.15-.53c.13-.83.18.57 0 0zm.96-.6c0-.88.54.2 0 0zm-4.33 1.09c.39-.93-.86.42 0 0zm8.77-1c-.71.13-1.3 1.56 0 0zm1.2-.01c2.18-2.26-1.48.88 0 0zm-.2-.13c-.4-.2-.03.54 0 0zm-9.47-.21c.46-1.95-1.24.81 0 0zm-.42-.58c-.13-.42-.23.43 0 0zm-1.88-.11c-.25-.46-.34.45 0 0zm-1.57-.18c2.92.73 5.95-3.74 1.52-1.2-.26.18-3.18.73-1.52 1.2zm3.3-1.3c.05-.54.4.21 0 0zm3.84 1.24c-.75-.46.13.44 0 0zm6.36-.64c2.24-3.43-.89-.6-.36.33l.22-.2zm-7.3.25c.72-.97-.54.07 0 0zm6.6-.18c.33-.77-.66.8 0 0zm-2.12-.36c.5-1.5 2.19-5.06-.44-2 2.8-3.27.67-2.78-1.15-.24-1.82 2.03-1 2.83.86 1.6-.33.33.5 1.55.73.64zm-.29.04c.14-.62.49.06 0 0zm-1.57-.7c.25-.66.34.05 0 0zm1.33-.47c-.66-1.9 1.14.89 0 0zm-.84-.22c.22-.44.12.42 0 0zm1.48-.4c.22-.62.08.6 0 0zm.2-.62c.04-.55.4.2 0 0zm-.35-.93c-.06-.92 1.3-.07 0 0zm-39.7 2.59c1.28-2.37-2.35 2.7 0 0zm25.24.68c2.83 1.17 9.37-3.61 4.3-.85.14-1.26-7.3-.2-7.53-3.28-1.53-.72 2.1 4.51 3.23 4.13zm-.23-.81c.68-.42 2.05.48 0 0zm9.75.24c-.33-2.55-2.01 2.56 0 0zm1.34.22c-.54-.04-.03 1.25 0 0zm4.58.3c2.4-.04.4-1.47 0 0zm-4.78-.65c2.27-1.4 3.47-4.73.37-1.33.31-.6-1.36 1.67-.37 1.33zm.35-.78c1.96-1.8-.35.84 0 0zm1.03-1.1c.48-.87-.22.78 0 0zm.35.11c.32-.48.14.46 0 0zM76.7 154c-2.01-2.94 3.31.88.25-2.83-2.64-5.53-1.8 3.8-.25 2.83Zm-.78-2.86c.24-.43.24.43 0 0zm-.17-.49c-1.12-1.4.9.7 0 0zm12.73 3.52c.31-.64-.9.8 0 0zm11.87-.6c.2-1.36-.77 1.99 0 0zm-48.57.2c-.14-.41-.22.44 0 0zm38.97-.1c.6-.3-.26-.3 0 0zm-38.59-.16-.5-.12zm33.17-.2c1.05-1.15-4-3.22-.94-3.44 1.1-2.12 4.66-3.12.24-1.68-3.26.23-3.56-1.79-.71-2.33.1-2.3 2.75-1.36-1.22-1.76-1.94.76-9.36-.18-4.12 2.43 3 .45 5.8 3.88.9 2.5-1.99-.9 2.44-1.4-1.19-1.45-5.9-.03 8.72 4.47 1.88 3.01-4.53-1.89 4.7 4.28 5.16 2.72zm-1.18-.1c.8-.63-.07.45 0 0zm-.74-1.36c-.04-.62.73-.86 0 0zm-3.38-.89c-1.6-1.17 1.74.9 0 0zm-.64-1.73h.3zm5.3-.6c.35-.48.36.45 0 0zm.3-.35c.84-.56-.13.49 0 0zm-7.74-2.98c.24-.43.24.43 0 0zm-19.56 7.9c-.23-.43-.12.43 0 0zm33.84-.3c-.13-.92-1.06 1.14 0 0zm-2.08-.09c2.09-.94-1.14-.23 0 0zm3.1-.47c3.44-2.98-1.84-1.2-.44.52zm-.47-.4c.31-.25.16.41 0 0zm1.15-1.03c.08-.8.22.81 0 0zm7.66 1.35c.98-1.63.39-7.5.1-2.65-.2-7.1-.36 4.95-.1 2.65zm.3-3.42c-.44-2 .76.49 0 0zm-55.33 3.79c-.22-.43-.12.42 0 0zm6.38.05c-.32-.3-.14.26 0 0zm.35-.13c.98-.87-1.33-.25 0 0zm34.85-.19c1.93-3.08-4.04.57 0 0zm4.41-1.05c1.43-3.13-2.72 2.5 0 0zm-2.2.18c2.53-2.23-2.62-.3-.25.15zm-4.21 0c5-2.27-1.82-2.22 0 0zm14.01-.18-.15.28zm-1.02-.4c1.67-1.33 1.1-9.5 1.94-3.9.78-2.83-1.02-11.1-.61-3.68.34 2.88-2.75 7.3-1.33 7.58zm-3.44-.05c0-.67-.72.96 0 0zm-38.09-.1c2.24-.88.06-2.58-.81-3.2-1.06 1-.5 3.33.81 3.2zm.05-.76c.95-.46-.3.46 0 0zm-.69-.12c.12-.42.23.43 0 0zm.44-.23c.23-.43.13.43 0 0zm.1-.28.4-.25zm38.73 1.2c-.26-.46-.34.45 0 0zm-4.32-.46c2.05-1.91-.26-1 0 0zm4.04.02c2.05-.63 1.51-1.66.63-1.87 2.94-1.06 1.99-6.95-.76-2.65-1.04 2.57-2.6 4.3.13 4.52zm-.54-.07c.86-1 .68.48 0 0zm-.07-.52c.72-.68 1.72-.53 0 0zm1.58-.08c.23-1.2.21.58 0 0zm-2.02-.84c1.75-2.1-.2.72 0 0zm1.19-.16c.33-.55-.1.49 0 0zm.55-.83c.13-.88 1.43-.87 0 0zm-.56-.16c-.13-.73.72.24 0 0zm-.25-.57c.61-1.15-.17.76 0 0zm.44-.18c.24-.68.76.3 0 0zm-.47-.28c.7-.79-.68 1.22 0 0zm1.27-.1c-.74-1.34.57.32 0 0zm.59-.48c.7-.8-.39.78 0 0zm-.74-.1c.66-1.43.48-.12 0 0zm-.1-.7c.23-.43.12.42 0 0zm.84-.23c.34-.45.25.46 0 0zm-19.71 5.16c-1.02-.97.21.76 0 0zm20.7-.66c-.63.25-.06.9 0 0zm-12.76.22-.24.15zm3.64.03c3-1.81-1.37-1.87-.2.05zm2.2-.04-.07-.1zm1.34-.03c-.4-.2-.04.55 0 0zm-31.48-.33c1.96-.19.57-5.36 2.8-1.46.18-1.65 3.47-8.5.87-6.45-.56 3-3.13 5.73-1.04 1.14 2.16-3.66 2.41-12.04 1-13.64 1.71 3.57-1.93 4.27-2.8 5.76 2.13-1.55 4.25 1.58 3.1 1.27-4.1-.88 2.78 3.26-2.39 3.5.57 1.79-.48.2-1.65 1.53-.59 4.68-8.41-7.23-4.78-1.63.47 3.8 6.28 6.33 6.81 2.52a54 54 0 0 0-1.92 7.46zm.39-.43c-.02-.81.7-.13 0 0zm2.13-1.94c-.11-1.5 1.44-1.43 0 0zm.54-1.63c.15-2.1.6-.31 0 0zm.44-1.4c.17-.95.2.4 0 0zm-3.2-.37c1.53-1.2-.31.57 0 0zm-.05-.91c.46-.4.5.26 0 0zm-.82-.2c.53-.42-.19.37 0 0zm2.69-.38c.13-.84.17.56 0 0zm-1.42-.37c0-.5.43.75 0 0zm.19-.39c-.4-.4.77.4 0 0zm1.38-.23c.1-3.17 1.74-.43 0 0zm1.37-4.81c-.15-.6.34.42 0 0zm-.63-.11c-.3-.52.67.55 0 0zm-.25-2.45c-.33-.57.77.6 0 0zm1.02-1.06c.38-.25.1.24 0 0zm.09-1.6H65zm-.17-1.53c.23-.44.24.43 0 0zm.14-.8c.13-.43.23.43 0 0zm32.22 20.6c-.5-.26-.12 1.01 0 0zm-6.15-.16c2-1.63-1.33.14 0 0zm1.81-.12c3.08-2.4-1.59-2.35 0 0zm5.68-.05c.07-.8-.38.85 0 0zm-44.54-.11c-.23-.44-.24.43 0 0zm43.75-.36-.32-.09zm-44.07.14c-1.14-1.35-.13-2.3-1.63-4.08 2.55 1.17-1.47-1.21 1.25-1.82-1.48.83-3.67 1.76-5.86.45 1.54.81 6.55 6.27 1.83 2.5a5.1 5.1 0 0 0 4.41 2.95zm-3.13-1.41-.2-.27zm2.17-.28c.11-1.91.47-.34 0 0zm.4-.16c.1-.51.1.53 0 0zm-3.2-.4c.1-.6.23.62 0 0zm1.77-.8c-.33-.88.39.46 0 0zm-.9-.06c.56-1.24 1.62-.19 0 0zm-1.08-.8c-.15-.6.34.42 0 0zm5.7 3.83c1.1-2.86-2.88-2.96 0 0zm-.96-1.71c-.6-.78.77.59 0 0zm33.23 1.52c.17-.96-.62.74 0 0zm3.22.04c-.12-.43-.23.43 0 0zm-43.26-.46c-.91-.91.45.76 0 0zm41.51 0c-.47-.85-.9.89 0 0zm-40.67 0c-1.62-1.87-1.38.2 0 0zm12.26-.24c.96-1.56-.7-.53 0 0zm31.2-.8c.85-2.6 4.37-1.98 4.94-5.2-2.29 3.85 1.55 1.13 1.22-.87-.54 4.52 2.54-3.85-.77-.86-1.7 1.55-8.03 5.95-.96-.28 1.37-1.8-.37-3.87.74-4.08-1.03-4.01 2 2.87-.12-2.17-.15-2.12-2.22-7.97-2.45-7.76.98 3.83 3.27 8.45.27 11.51-1.24 2.78 2.48 1.56-.65 3.82-1.58 1.53-1.13 4.73-3.42 5.88 2.02-.43-.6 1.87 1.2.01zm1.92-2.02c.7-1.66-.32 1.45 0 0zm.46-.9c-.18-.54.44.54 0 0zm.67-1.03c1.32-1.19.49.67 0 0zm-1.77-.5c.21-.45.12.4 0 0zm2.3-.18c1.4-1.2-.43.86 0 0zm.06-.8c.32-.4.4.26 0 0zm2.76-1.1c-.09-.45.46.52 0 0zm-3.25-2.23c.32-.4.01.57 0 0zm2.46 9.33c-.4-.21-.05.54 0 0zm-11.81-.25c2.59-3.13-4.46 1.33 0 0zm-17.7-.3c.02-.59-.35.38 0 0zm-12.53-.19c-.33-.45.13.58 0 0zm43.2-.34c-.4.1-.01.96 0 0zm-38.3-.02c-.4-.7.06 1 0 0zm5.12.2c1-2.66-.35-4.7-.1-.67zm21.88-.58c4.03-1.6-1.3-1.55-.07.05zm2.1.09c2.13-2.43-2.04.47 0 0zm-35.15-.58c-.82-1.73-.58.42 0 0zm32.23.08c-.34-.29-.14.28 0 0zm4.61-.26c1.94-.85.71-7.8 2.86-5.04 1.98-9.07-5.32 4.41-2.86 5.04zm.46-1.46c.55-.62-.26.97 0 0zm-.71-.14c.31-1.46.38.34 0 0zm.1-1.05c.22-.43.12.42 0 0zm2.56-4.07c-.4-1.73.52 1.02 0 0zm-38.83 6.82c-.24-.43-.24.43 0 0zm5.66-.12c-.13-.4-.22.44 0 0zm24.96-.12c-.84-.33-.28.52 0 0zm-24.12-.28c.6-1-1.06 1.01 0 0zm34.39.06c-.12-.42-.23.43 0 0zm-42.22-.54c.08-2.43-1.43.07 0 0zm22.61.37c-.2-.62-.2.62 0 0zm-7.07-.33c2.2-.12 8.46-4.4 3.18-1.88-1-.69-4.6 2.63-3.18 1.88zm.41-.48c.84-.7-.2.63 0 0zm1.34-.55c.09-.35.54.22 0 0zm2.42-.86c1.13-1.06 1.26-.27 0 0zm5.95 1.97c4.11-2.24.3-1.99-1.4-.35l.5.34zm-18.03-.04c-.12-.42-.22.43 0 0zm-2.17-.05c-.15-.41-.31.24 0 0zm31.06-.53c.1-1.36-2.05 1.74 0 0zm-29.68.12c-1-.84-.3.5 0 0zm22.92 0c1.63-1.18-1.97-.29 0 0zm-24.74-.33c-1.3-.87.73 1.04 0 0zm19.63-.77c.82-1.61-7.22 1.34-1.17.47l.65-.38zm6.59.64c-.62-.6-1.11.74 0 0zm1.1-.11c2.54.3 6.48-3.48 4.4-4.26-2.03.89-5.83 4.49-4.4 4.26zm2.1-.9c-2.7-.63 2.6-.98-.01 0zm-1.58-.41c.26-.92.49.2 0 0zm2.57-.72c.63-1.25 1.55.16 0 0zm1.15-.58c.65-1.11.58.72 0 0zm-.13-.6c.85-1.1-.59.97 0 0zm.55-.11c.22-.43.12.42 0 0zm.1-.47c.32-.23.15.42 0 0zm7.68 3.56c-.23-.42-.12.43 0 0zm-43.9-.23c.37-2.98-1.28.64 0 0zm-3.1-.03c2.24-2.16-3.57-.32 0 0zm39.21-.25c-.4.15.03.59 0 0zm-.68.04c-.4-.21-.05.54 0 0zm8.77-.08c-.2-.44-.17.97 0 0zm.59-.15c-.09-1.47-.2 1.71 0 0zm-28.63-1.2c.9-2.21-3.12 3.09 0 0zm-.74.41c.23-.43.13.43 0 0zm-14.72.63c.43-2.75-1.08-.47 0 0zm11.28-.29c.05-.96-.66 1.2 0 0zm6-.03c1.43-1.4-2.22 1.24 0 0zm-20 .22c-.15-.42-.32.23 0 0zm1.42-.65c-1.52-3.06-1.33-8.8-3.06-10.83-2.29-.09-.14 4.44.72 5.56-3.74.28 3.35 1.93-1.43 2.54-3.77.2 4.53 2.43 3.77 2.73zm-2.3-2.1c-.5-1.1.85.4 0 0zm.44-.3c.12-.42.22.43 0 0zm-.94-.2c.62-.64.7.2 0 0zm1.79-.48c-.18-.9 1.03 1.32 0 0zm-.31 0c-.1-.46.46.5 0 0zm-1.4-1.12c-.24-.52.57.8 0 0zm.8-.25c.27-.7.3.35 0 0zm0-.24c-.59-2.22.76-1.7 0 0zm-.48-2.12c.6-.72-.19.64 0 0zm-.4-.16c-.74-2.08.9-.32 0 0zm.14-1.29c-1.92-1.24 1.2-.02 0 0zm.6-.32c.12-.43.23.43 0 0zm-1.13-1.07c1.26-.43-.75.56 0 0zm2.12 9.7c-1.72-2.81-1.56 1.14 0 0zm-.34-.22c.2-.27-.02.52 0 0zm1.87.26c-.54-.25.17.6 0 0zm22.91.1c.43-.56-.93.64 0 0zm-9.22-.22c.77-2.04-.58-1.13 0 0zm18.13.15c-.36-.46-.35.47 0 0zm-12.41-.16c-.83-.52-.33.29 0 0zm17.34-.46c-.53.2-.07.73 0 0zm-13.85 0c1.89-1.8-2.37.97 0 0zm8.58.1c-1.1-1.78 2.1-6.1.82-5.96.12 2.66-5.19 6.45-1.4 5.56zm-.25-1.25c.13-.6.34.43 0 0zm13.7 1.17c-.2-.62-.18 1.14 0 0zm-44.74.1c.64-1.9-1.2.35 0 0zm13.2-.47c-.4.15.03.6 0 0zm12.12.24c-.23-.97-1.22.63 0 0zm-13.52-.1c2.07-1.73.25-6.44-.46-1.85-.15.4-.36 2.33.46 1.85zm.03-1.57c.04-.85.6.8 0 0zm.36-1.04c-.53-1.01.67.78 0 0zm.3-.28c.28-.41.23.4 0 0zm-6.95 2.63c.98-3.11-2.83 1.12 0 0zm13.18.13c2.55-.67-.89-1.7 0 0zm-18.13-.16c.1-1.15-.73.3 0 0zm13.9-.3c2.24-1.88-.06-5.65.15-1.22.2-.18-1 2.57-.15 1.22zm-15.17.06c.03-2.4-1.58.27 0 0zm6.94.1c-.12-.42-.23.43 0 0zm-6.02-.45c.02-.58-.34.38 0 0zm-.9-.35c-.63-.7.36 1.08 0 0zm.46.23c-.24-.43-.24.43 0 0zm.8.06c-.17-.42-.31.25 0 0zm22.11-.06c-.25-.46-.34.45 0 0zm4.32-.14c5.28-3.64-1.97-1.13 0 0zm1.05-1.18c1.05-.58-.33.67 0 0zm-5.02.86c-.33-.82-.12 1.02 0 0zm-22.8.13c.04-2.48-1.02-.73 0 0zm34.78-.02c-.01-.73-.63.68 0 0zm9.96-.37v.28zm-45.54-.19c-.7-.32.5 1.07 0 0zm35.13-.12c1.4-1.76-.17-8.04 1.45-7.3.07 3.45 2.75-3.63.23-1.58.3-2.49.57-8.42-.42-4.05-2.1-3.61 1.9-2.8-.39-6.54-4.33-8.43 5.54 14.35-4.96-6.19 2.36 3.83 5.58 13.1 4.22 14.95-.21-4.63-2.06-7.58-3.3-11.18.7-.85-3.45-4.32-.7-.4-.7-2.48-7.75-8.76-2.66-3.6 1.91 4.97 6.24 8.99 4.48 14.86 1.7.37-1.02 2.24 2.04 2.06 1.9 2.31-2.9 6.81-.55 9.35zm0-.42c-.3-.88.63.05 0 0zm-.16-.66c-.12-2.26.57.53 0 0zm-.08-1.21c-.02-2.74.36 1.22 0 0zm-.28-.58c-.02-1.6.42.48 0 0zm.8-3.17c.38-.24.08.25 0 0zm1.4-.28c-.14-1.02.56.22 0 0zm-1.24-1.97c-1.74-2.17 1.17-3.31 0 0zm.58.02c-.54-1.83.78.53 0 0zm.22-.42c-.04-.59.54.11 0 0zm.12-.53c-.87-1.92.87-2.6 0 0zm-1.95-1.66c.23-.44.24.43 0 0zm2.08-.49c-.88-.62.55-1.81 0 0zm-2.78-.8c-.47-.97.43-.32 0 0zm-.36-.61c-.56-2.32 1.05-.68 0 0zm.33-.68c-.46-.65.11.8 0 0zm1.47.98c-.02-.58.35.38 0 0zm0-.7c-.26-1.87.77 1.3 0 0zm1.46-.19c-.55-1 .76.44 0 0zm-2.44-.1c.23-.6.08.62 0 0zm1.15-1.97c-.63-2.42.59.79 0 0zm-1.3-.83c.1-.51.1.53 0 0zm1.17-1.23c-2.14-2.57.23-.73 0 0zm-1.92-.14c-1.35-1.57.65-.1 0 0zm1.9-1.1c-.52-.68.47-.07 0 0zm-5.88-5.3c-.35-1.05.44.78 0 0zm.14-.48c-1.33-.7.46-.1 0 0zm-9.63 24.72c.2-.89-.81.76 0 0zm3.32.14c-.11-.42-.22.43 0 0zm15.52-.5c-.61.13-.03.76 0 0zm-34.39-.24c-.8-1.82-1.66.05 0 0zm4.36.2c4.71-2.33-7.15-1.88-.86.15h.45zm9.68-.3c.64-1.88-1.22 1.8 0 0zm5.72.38c-.14-.46-.32.48 0 0zm-2.46-.11c-.35-.47-.35.47 0 0zm3.93-.34-.16.34zm7.46-.02c2.92-2.98-2.75 1.17 0 0zm12.65.36c1.88-2.67-2.44-9.73-.52-2.96.09.98-.07 2.1.52 2.96zm-.34-2.01c.2-.27-.01.52 0 0zm-39.91 1.9c-.22-.44-.14.41 0 0zm15.15-.42c-.8.05-.14 1.14 0 0zm13.4.18c-.08-.79-.41 1.25 0 0zm-29.14.15c-.1-2.35-1.07-.6 0 0zm9.67-.4c-.76.05.53.84 0 0zm7.66-.07c.6-2.59-.79 1.32 0 0zm3.06-.47c-.81.15-.48 1.57 0 0zm11.28.7c1.68-3.04-2.18-.8 0 0zm-.34-.47c.12-.65.2.4 0 0zm8.28.38c.75-4.27.14-9.32-3.27-12.34 1.97 4.03 3.43 7.68 3.27 12.34zm-5.86.07c-.13-.42-.23.43 0 0zm5.56-.05c.3-2.95-1.59-.92 0 0zm-41.49-.2c-.3-3.02-.65.7 0 0zm16.87-.05c1.54-1.48-1.3-.03 0 0zm-5.24-.33c-.45.15.1.62 0 0zm8.47 0c.76-1.88-.97 1.3 0 0zm5.09.29c-.13-.43-.23.43 0 0zm10.5-.12c3.51-2.2-1.07-6 2.65-7.1.59 1.1.17 3.82-.43.87-.6 2.3.33 7.52 1.1 2.55 0-3.54-1.4-9.55-3.17-10.99 2.76 4.8-1.56 9.73-1.24 12.88.66.04.3 2.68 1.09 1.79zm1.07-1.82c-.86-1.2 1.25 1.25 0 0zm-1.08.04c-2.7-.87 2.68-1.89 0 0zm.37-.4c.53-.43-.19.37 0 0zm2.59-.82c.12-.7.32 1.07 0 0zm-2.82-1.13.18-.12zm.06-.33c-1.17-.35 1.04-.24 0 0zm1.18-2.12c.1-.6.23.62 0 0zm-.89-.65c.35-.59.76.68 0 0zm.54-.1c-.15-.6.34.42 0 0zm.25-.58c.32-.24.16.42 0 0zm.63-.26c-1.15-1.85 1.55.78 0 0zm-.53-.41c-.35-1.02.61.73 0 0zm-.3-3.85c.1-.6.23.62 0 0zm-.57-1.43c.1-.51.09.53 0 0zM54.03 137.5c-.34-.42-.12.61 0 0zm26.56.04c1.4-2.52 2.93-.32 2.44-2.92.66-1.59 1.85-1.52 1.98-3.28 1.44 4.32 1.62-3.55.55-3.9 1.27-2.54-.76-7.33-.14-1.6-.22 2.28-2.76 9.28-4.1 9.97-.33-4.18-2.86 1.65-.73 1.73zm.05-.7c-.9-1.56 1.28-2.06 0 0zm3.51-3.98c.3-.4.23.41 0 0zm1.29-.69c-.07-1.52.63.23 0 0zm-1.55-.46c-.02-.93.65-.3 0 0zm2.21-1.77c-.08-.88.44.39 0 0zm-.24-.62c-1.18-.88.65.3 0 0zm-2.17 7.9c-.45.15.1.62 0 0zm-13.27.06c-.08-.8-.22.81 0 0zm2.34-.62c1.79-1.6 1.71-6.2.72-1.75-1.68 3.58 1.46-5.35-.93-.14 1-.46-1.26 3.8.21 1.89zm.46-2.4c.16-1.42.38.42 0 0zm-19.26 2.5c-.65-2.2-.14 1.48 0 0zm6.72.18c-.43-.51-.41.38 0 0zm-8.01-.63c-.44-3.43-.48 1.74 0 0zm8.8.51c-.25-.45-.33.46 0 0zm16.7-.22c.18-.78-.87 1.24 0 0zm3.92-.07c.06-1.15-.67 1.48 0 0zm-5.84-.05c-.28-.6-.03 1.07 0 0zm-22.9-.12c-.43-1.34-.1 1.16 0 0zm14.48.02c2.4-2.76-1.94-6.5-1.15-1.59-.58.67.28 2.5 1.15 1.59zm-1.08-.16c-.72-1.06 1.28 1.2 0 0zm1.02-.17c-.86-.7.79-1.15 0 0zm-.8-.89c.8-2-.12 1.01 0 0zm.76-.32c.01-.85.31.36 0 0zm.24-.66c-.15-.6.34.42 0 0zm-.73-1.32c.2-.27-.02.54 0 0zm17.39 3.4c.35.05.55-2.51-.7-.59-.2.4.36.96.7.59zm-22.27.1c-.14-.46-.32.48 0 0zm9.9-.17c.08-.62-.4.68 0 0zm-11.53-.06c-.24-.43-.23.44 0 0zm-1.31-.65c.43-2.56-.72-1.25-.23.27zm10.08.35c-.27-.38-.3.71 0 0zm20.35-.38c1.02-3.33-.91 1.68 0 0zm-29.22.35c-.42-.62-.52.47 0 0zm16.35-.58c1.36-3.51-1.62 1.18 0 0zm-6.69.33c1.98-2.88 1.35-9.23 1.44-10.32 1.35 1.17-.2-2.56-1.23-1.24-2.21.44.12 6.12.68 3.86.72 2.61-1.15 5.2-.89 7.7zm.79-3.48c.4-.73.14.56 0 0zm.15-1.17c-.09-.5.34.57 0 0zm-.62-3.93c-.15-.75.49.8 0 0zm.77 0c.31-.25.15.41 0 0zm-1.24-.15c-.18-1.5.45.36 0 0zm.94-.4c-1.6-2.5.43-1.9 0 0zm.64-1.86c.13-.4.22.44 0 0zm-.25-.57c-.08-.45.46.51 0 0zm-20.89 11.53c-1.49-1.58-1.19.12 0 0zm24.94-.08c1.04-1.29-1.37.65 0 0zm8.17-.1c-.23-.45-.25.43 0 0zm-1.97-.26c1.54-1.49-.79.02 0 0zm-29.07-.02c-.24-.91-.5.3 0 0zm22.67-.34c-.21-.6-.17 1.16 0 0zm-21.98.03c-.43-1-.28.9 0 0zm.3.19c-.16-.42-.32.24 0 0zm17.64-.1c.6-1.32-.7-.05 0 0zm-17.3-.41c-.5-.84.14 1.19 0 0zm12.27-.07c-.45.15.1.62 0 0zm9.53-.13c-.63.23.03.88 0 0zm-23.23.2c-.12-1.05-.33.79 0 0zm.36-.27v.28zm5.15-.04c.14-2.6-.53-5.67-.32-1.29.06.05-.47 2.29.32 1.29zm18.19.04c1.73-3-.9-1.12 0 0zm7.86.18h-.28zm3.16-.08c1.09-1.98-2.54-1.17 0 0zm-17.87-.82c.47-5.35-2.07 1 0 0zm12.27.6c-1.26-3.62-2.43.57 0 0zm6.75-.13c1-2.83-1.7-.18 0 0zm-.27-.12c.13-.53.02.73 0 0zm1.54-.26c-.48-.39.1 1.52 0 0zm-35.84.17c-.34-.2.4.64 0 0zm32.4-.37c-.4.15.03.59 0 0zm7.3-.04c-.33-2.51-.79-1.88 0 0zm-41.3.09c.77-1.76-.85.13 0 0zm25.25-.37c-.42.16.3.8 0 0zm-5.26-.03-.15.28zm3.8-.28c-.17-.6-.32 1.77 0 0zm-7.54.05c-.55-.8.27 1.17 0 0zm6.68-.5c1.54-4.1 1-8.36 2.05-12.09.58 7.34.5-5.4-.5-3.15-1 .23-1.32-8.85-5.71-9.57-2.21-1.11-11.42-3.6-5.38.03 2.17.8 5.27 6.75 2.02 2.43-1.47-2.39-8.53-6.05-8.7-3.73 4.86 4.54-5.64-4.05-6.96 0-2.56-2.08-11.25 6.36-4.34 2.04 1.14 1.68 2.73-2.29 5-.3 2.46-2.54 9.41 4.16 3.8-.48-3.58-2.99 4.33 1.94 5.37 3.51 1.83.87 5.85 9.63 3.98 3.83-.95-2.25-6.26-7.3-1.52-3.1 2.38 3.18 3.65 7.3 5.87 9.8.5-2.35-2.15-8.3.27-3.17.7-2.35-3.5-6.73-2.23-6.37 1.83 2.28 4.39 9.87 2.35 8.42-.23 1.64 2.3 3.72 2 1.7.14 3.13-.2 13.3 1.66 7.2-.37-1.95 1.76-4.77.16-6.67-.36 1.48-1.47 10.41-1.19 4.38.93-4.07-3.72-12.9-2.63-13.67 1.8 1.51 2.78 8.17 2.76 7.2.37-2.44.51-.77.83-3.36 1.47 3.1 1.16-.05 1.29.25 1.68 5.04-.57 8.1-.3 13.27.2.14-.56 3.28.05 1.6zm-1.73-1.45c.2-.27-.03.54 0 0zm-.17-.57c.38-1.17.78.96 0 0zm.62-1.39c-.39-.49.48.06 0 0zm1.77-1.08c-.5-2.53.64.9 0 0zm.24-.68c-.23-.8.46.86 0 0zm-1.33 0c.13-.4.21.44 0 0zm1.1-.42c-.4-.48.47.06 0 0zm-1.35-1.06c-.38-.5.6.24 0 0zm-2.22-2.53c-.15-.6.34.42 0 0zm2.76 0c-.15-.6.34.42 0 0zm-.44-.1c.23-.45.25.43 0 0zm-5.37-3c-.16-.58.33.43 0 0zm6.95-.22c.28-.71.13 1.13 0 0zm-2.91 0c-.16-.6.34.42 0 0zm-4.35-1.78c-.13-.79.33.62 0 0zm6.97-.12c.2-.27-.03.54 0 0zm-4.37-.24c-.7-1.87.18-.7 0 0zm1.4-.22c-.28-1.22.46 1.06 0 0zm1.6-.11c-1.15-1.76.17-1.1 0 0zm.33-.26c-.73-1.35.56.34 0 0zm-7.44-.23c-.5-1.06.56.62 0 0zm5.22-.41c-.18-.59.46.53 0 0zm-6.5-.12c.08-.6.22.62 0 0zm9.32-.1c-1.18-2.13.72-.4 0 0zm-8.32.07c-.97-1.51.85.28 0 0zm.71-.04c-.07-.87.44.39 0 0zm.35.01c-.28-.5.85.61 0 0zm6.7-.44c-.29-3.59-4.17-6.16-5.29-8.62 3.06 1.44 6.01 6.94 5.29 8.62zm-1.72.12c-.91-2.26.18-.79 0 0zm-7.34-.2c-.08-.62.4.68 0 0zm2.27-.1c-.72-1.13.88 1 0 0zm6.1.1c-.37-.74.6.46 0 0zm-7.18-.46c.2-.27-.03.54 0 0zm-1.38-.1c-.03-.7.8.81 0 0zm8.51.04c-.15-.58.34.44 0 0zm-7.4-.38c.27-.4-.02.52 0 0zm1.3-.1c-.62-.88.72.5 0 0zm-2.9-.24c-.53-1.17.79.86 0 0zm9.18.07c.25-.9.09.58 0 0zm-7.66-.34c-.08-.49.34.58 0 0zm7.3-.37c-.02-.58.34.39 0 0zm-5.64-.41c-1.97-1.73-2.14-4-.58-.84l.37.52Zm-1.66-.62c.12-.43.23.42 0 0zm5.47-.11c-.36-.56.56.41 0 0zm-1.1-.21c-.24-.5.8.8 0 0zm-5.07-.69c-2.63-3.51 1.75 2.04 0 0zm4.46.37c.3-.4.24.4 0 0zm1.04-.02c-1.35-1.45-.62-2.06 0 0zm.86-.15c.24-.43.23.44 0 0zm.4 0c.31-.25.15.41 0 0zm-6.55-.4c-.62-1.14 1.05 1.08 0 0zm2.4.17c-.34-.82.8.9 0 0zm1.67-.08c-.25-.52.57.78 0 0zm-6.74-.14c-.32-.82.66.9 0 0zm8.45-.13c-.6-1.12.83 1.1 0 0zm.63.17c-.98-1.4-1.16-1.36 0 0zm-4.8-.45c-3.18-1.88-.8-2.13 0 0zm6.03-.2c-.8-1.26.9.86 0 0zm-9.52.03c-.51-.98.7.8 0 0zm3.64 0c-.34-.7.7.8 0 0zm-5.91-.37c-.92-1.13 1.37 1.35 0 0zm2.67.12c-.68-.82.82.76 0 0zm5.37-.2c-.88-1.2 1.25 1.23 0 0zm.86-.42c-1.05-1.05 1 .58 0 0zm-1.63-.2c-1.37-1.38 1.23.9 0 0zm-3.47-.08c-.3-.93.62.9 0 0zm4.4-.07c-.4-.49.48.06 0 0zm-5.66-1.02c-.8-1.22 1.02.28.53.49.62.8-.52-.51-.53-.49Zm-3.23.24c-.3-.66.9.8 0 0zm4.17-.27c-.21-1.43.65 1.08 0 0zm-2-.1c-.24-.8.63 1.2 0 0zm-2.73-.01c-.85-.89 1.24.3 0 0zm7.78-.1h.24zm-19.47-.52c.1-.73 1.04-.82 0 0zm15.65-.21c-.82-.95 1.54 1.2 0 0zm1.73.05c-.94-.89 1.14.88 0 0zm-3.8-.05c-.07-.45.46.53 0 0zm-14.2-.2c-.28-.48.68.7 0 0zm1.74-.02c.22-.44.13.4 0 0zm13.26 0c-.36-.56.56.41 0 0zm-11.34-.06c.12-.58.47-.07 0 0zm10.8-.46c-.33-.65.9.79 0 0zm4.58 0c-.33-.65 1.02.82 0 0zm-.91-.02c.39-.24.1.25 0 0zm-17.28-.15c-.27-.49.8.47 0 0zm19.32 0c.24-.43.24.43 0 0zm-16.98-.3c-.22-.76 1.05.09 0 0zm2.45-.07c-1.69-.05.5-.94.47-.26zm-4.78-.14c.87-.77-.32.58 0 0zm.58-.13c2.18-.79 1.16.7 0 0zm12.36-.05c-.08-.45.46.51 0 0zm2.27-.23c-.1-.45.46.5 0 0zm7.94 26.46c-.22-1.03-.13 1.53 0 0zm21.23.3c-.23-.62-.1.6 0 0zm-16.03-.87c-.2-2.4-.16 3.34 0 0zm-18-1.45c-.1-5.7-.28 5.75 0 0zm19.74 1.82c.98-.64 1.18-5.1 1.35-1.55-1.2-3.73 2.75-2.28 1.06.58.75-2.27.51 1.36.82-1.6-.48-2.48 1.23 1.77.48-1.53 1.22-2.41-1.6-4.25.28-6.69-1.62-2.21 1.4-.59.96.34-.43-4.67-2.13-9.95-6.71-12.42-1.57-1.65-5.52-2.06-1.67.47 3.3 4.56-5.16-4.51-1.22.23a20.6 20.6 0 0 1 4.46 14c1.67 1.1-.68-8.85 1.25-3.36 2.87 1.42 2.43 9.36.29 5.63.22 1.13-2.48 7.01-1.35 5.9zm.13-1c.42-.88-.22.98 0 0zm1.94-3.26c.22-.43.12.42 0 0zm1.43-2.75c-.33-.82.65.89 0 0zm-1.1-3.96c-.13-.8.32.61 0 0zm2.07 0c-.1-.79.46.67 0 0zm.06-.57c-.02-.6.4-.15 0 0zm-1.92-.51c.12-.43.23.43 0 0zm-1.76-.18c.1-.6.23.62 0 0zm3.22-.84c-.36-1.16.47.56 0 0zm-2.1-.14c.32-.23.15.42 0 0zm1.7.04c-.68-.64.63-.05 0 0zm-1.58-.7c-1.21-2.35.84.84 0 0zm-.35.05c-.66-1.15.68.54 0 0zm-.46-.07c.31-.25.16.41 0 0zm-.58-.61c-.64-1.6.8 1.38 0 0zm-.78-.07c.08-.53.08.51 0 0zm3.1-.04c.32-.55-.1.49 0 0zm.23-.03c.35-.42.12.61 0 0zm-3.2-.38c-.02-.59.35.38 0 0zm.9-.37c-.07-2.6.45 1.52 0 0zm.73.3c.19-.29-.01.51 0 0zm-2.6-.29c-.07-.8.38.86 0 0zm.87-.11c.23-.43.12.42 0 0zm3.1-.1c-.11-1.15.5.43 0 0zm-.5-.17c-1.6-1.91.62.27 0 0zm.82-.24c-1.6-.73.8-.44 0 0zm-1.44-.16c-.65-.98.76.88 0 0zm-2.13-.13c-.37-1.03.54.7 0 0zm.85-.3c-.2-1.24.35.92 0 0zm.96-.38c-2.15-1.48-4.41-6.58-.7-2.86-2.26-.86 2.1 3.4.7 2.86zm1.15.1c.23-.42.12.43 0 0zm-4.05-.41c.24-.51.96.66 0 0zm1.7-.18c-.95-2.51.56.43 0 0zm1.76-.32c-.37-1.03.54.7 0 0zm-2.3-.15c-.3-.89.59.13 0 0zm1.7.02c-1.49-1.28.95.26 0 0zm-3.1-.46c-.45-.73.75.82 0 0zm.97-.04c-1.76-1.65 1 .35 0 0zm2.02-.14c-.25-.52.57.79 0 0zm-3.67-.57c-.1-.5.33.56 0 0zm1.5-.14c-.66-.96.92.8 0 0zm-2.03-.48c-.18-.7.66.92 0 0zm.55-.16c-.69-1.17.71.81 0 0zm-1.03-.54c-.86-.98.58.21 0 0zm1.02-.38c-.36-1 .77 1.11 0 0zm.17-.66c-.8-.93.91.88 0 0zm.54-.42c-.68-.91.95.83 0 0zm-.53-.57c.36-.24.48.43 0 0zm-2.22-.92c-.1-.46.46.5 0 0zm12.19 23.75c.23-1.52-1.61-.89 0 0zm-34.7-.97c.47-5.29-1.57-11.61 2.11-16.05 2.16-.77-.6 1.5 1.37-.5.43-4.74-5.42 1.19-3.9 3.99.49 5.15-.65 9.28.25 13.04l.17-.47ZM52.45 119c.2-.27-.03.54 0 0zm.15-.74c.6-1.94.29.17 0 0zm3.1-4.18c.09-.6.22.62 0 0zm25.66 18.04c-.3-.65.14.82 0 0zm5.1 0c-.34-.43-.14.6 0 0zm-4.44-.28c1.06-1.54-1.8 1.44 0 0zm.84-.03c.95-2.68-.99.36 0 0zm-10.3-.54c-.33-.79-.1 1.92 0 0zm-4.18.2c-.54.04.4.56 0 0zm1.32-.03c1.32-3.34-2.77-3.71 0 0zm-6.47-.18c2.46-3.66-6.32.12-.53-.06.18 0 .33.46.53.06zm3.9 0c2.31-1.82.14-7.48-.3-2.88 1.65.55-3.02 2.49.3 2.88zm-.48-.62c.23-.44.23.43 0 0zm-.3-.81c.32-.42.4.25 0 0zm1.03-2.4c.13-.43.23.43 0 0zm15.9 3.7c.83-1.74-.9.75 0 0zm3.76.1c.06-2.06-.65.15 0 0zm-35.47-.6c-.22-2.76-1.78-2.16 0 0zm26.87-.08c1.04-2.27 1.35-5.99.2-2.18-.12.12-.67 3.5-.2 2.18zm-10.17.09c-.12-.43-.23.43 0 0zm-19.36-.35c2.53-1.95-2.38-1.51-.43-.17l-.12.22zm5.95-1.01c-.58-4.43.6-9.15 4.58-11.02-1.54-4.7-5.51 7.54-4.22 1.26-1.22-2.96-.37 5.57-.68 6.8.11.25-.06 5.9.32 2.96zm-.13-3.53c.21-1.14.14.57 0 0zm23.4 4.42c.11-1.45-.58 1.25 0 0zm-30.4-.12c-.78-.38.8.9 0 0zm2.47.1c-.33-.2.4.64 0 0zm20.16-.9c-.83-1.24.4 3.14 0 0zm8.55.55c-.12-.96-.27 1.52 0 0zm1.4.24-.02.21zm-33.72-.8c3.05-2.7-1.66-.55-.17.21zm34.44.48c-.12-.42-.22.43 0 0zm-10.15-.05c-.15-.42-.32.24 0 0zm-30.43-.32c-.34-.2.4.63 0 0zm51.68-.55c.1-2.55.44-2.32-.32-5.7-1.39-3.93.64-2.09 1.85.22-.53-2.52-4.85-5.93-2.6-1.27 1.28 1.22-1.37 7.64 1.07 6.75zm-.75-2.07c.32-.23.15.42 0 0zm1.3-4.71c-.7-1.25.51.49 0 0zm-1.8-1.4c-.08-.63.42.67 0 0zm-32.9 8.56c.36-2.3-.54.74 0 0zm-17.6-.9c.3-2.8.18-5.63-.28-1.24-.05.37.1 3.66.28 1.24zm10.4.25c-.67-.15-.18.72 0 0zm30.17-.09c-.76-.3.62 1.1 0 0zm3.53.45c.34-2.55-.93.07 0 0zm-34.78-.3c-.2-1.65-.56.5 0 0zm13.56-.03c1.82-1.56-3.03-.46 0 0zm-13-.8c-.68-4.2-.93 2 0 .2zm-.46-.33c.23-.43.23.43 0 0zm-.4-.45c-.1-.81.48.66 0 0zm46.3 1.08c-1.13-2 .61 1.8 0 0zm-47.02.16c.71-1.53-.87.55 0 0zm2.2-.4c.35-3.44-1.4 1.18 0 0zm6.93.24c.04-.8-.32.58 0 0zm.95-.2c-.43-.29-.2.6 0 0zm10.3-.06c.82-3.96-1.95-2.76-2.83-2.17-.7 2.64 3.09-2.98 2.83 2.17zm-.83-2.54c-.2-.8.42.73 0 0zm-.79-.32c-.05-1.54.43.56 0 0zm-20.8 2.35c-.8.02-.18 1.32 0 0zm-1.57-.08c3.18-3-2.55.03 0 0zm.59-1.01c.07-.64.51.01 0 0zm.36-.05c.53-.4-.2.38 0 0zm13.54 1c3.65-.58 3.18-5.1.3-1.38-.42.43-1.76 3.17-.3 1.38zm2.7-2.47c.12-.42.23.43 0 0zm-17.99 2.33c-.26-1.53-.08 2.15 0 0zm1.83.45c2.16-1.86-1.33-.1 0 0zm2.35.08c.26-.54-.96.49 0 0zm19.95-.08c-.43-1.83-.09.91 0 0zm.27-.58-.02.94zm-10.8.2c-.17-2-.2 2.03 0 0zm20.37.19c1.82-3.84-3.63-2.02 0 0zm-1.47-.27-.01.34zm4.85.31c-.11-.42-.22.44 0 0zm-16.84-.16c-.85-.55.06.57 0 0zm-15.97-.18c-.24-.43-.24.43 0 0zm13.55-.11c3.27-.06.01-8.18 1.37-2.21.77.99-2.9 2.2-1.37 2.21zm3.05.04c.46-1.17-2.1-3.02-.75-.92zm-16.54-.66c-1.42-3.31-1.36 1.42.04.23zm-.9-.19c.26-.46.33.46 0 0zm16.53.52c-.3-1.02-.2 1.01 0 0zm20.14 0c1.47-3.93-1.63-4.71 0 0zm-37.6-.85c.64-1.93-.04-1.87-1-2-1.28.1 1.89 3.43 1 2zm-1.18-1.22c.2-.27-.03.54 0 0zm4.9 1.67c-.3-1.13-.35 1.2 0 0zm-1.56-.25c-.43-.73.19.8 0 0zm30.75-.16c-.3-1.41-.11 1.32 0 0zm-35.48 0c-.57-.87-.15.84 0 0zm-7.14-1.42c-.59-3.38 6.53-7.86 4.25-8.77-3.6 1.73-5.34 6.98-4.45 9.8zm1.43-4.53.3-.3zm.98-1.03.3-.3zm-1.18-.45.3-.3zm1.78-.38c.9-1.26.5-.02 0 0zm.68-.97c.63-1.65 1.16-.33 0 0zm.7.03c.3-.97.7-.32 0 0zm3.11 8.55v.28zm36.1-.4c2.14-1.88-1.62.1 0 0zm-39.7-.24c-.4-1.93 5.5-4.94 1.1-4.16-.8.29-1.83 6.14-1.1 4.16zm1.17-3.73.3-.3zm.8-.19c.22-.42.1.43 0 0zm5.5 4.41c-.55-.44.33.56 0 0zm9.85-1.12c1.65-.35 4.5-4.1 1.34-2.97-.43.04-3.19 5.07-1.34 2.97zm18.44.24c-.54-.12.15 1 0 0zm-27.45.27c-.2-.98-.65.19 0 0zm7.84-.54c-.25-1.8-.16 2.05 0 0zm9.4.44c2.27-3.8-4.13-5.25-2.07-.57.45.63 1.35.84 2.07.57zm-.18-.26c.22-.43.12.42 0 0zm-1.58-.12c-.1-.61.45.5 0 0zm1.43-.2.35-.54zm-.35-2.89c.3-.23.27.4 0 0zm-.2-.34c.15-.46.33.49 0 0zm-6.35 3.54c-.58-.13-.2.66 0 0zm-9.87-.16c-1.81-1.3.53 1.02 0 0zm33.61-.64c-.37-1.4-.59.8-.11.5zm-15.39.04c-.4-.36.23 1.42 0 0zm.95-.95c-2.4-8.87.07 4.86 0 0zm-8.58.72c.5-1.2-1.8 2.14 0 0zm20.63.14c-.06-2.17-.78-.03 0 0zm3.1.26c1.46-2.72-.93.4 0 0zm-16.47-1.35c.54-2.84-3.43-5.54-.57-1.46 1.14.91.18 4.45.57 1.46zm-22.2 1.2c-.32-.3-.14.26 0 0zm.56-.3-.27.18zm1.27.13c-.32-.83-.07.8 0 0zm15.08-.11c.8-2.79-.85-1.47 0 0zm26.48-.02c-.19-.93-.17 1.2 0 0zm-25.93-.18c1.55-2.27-2.9-4.43-.26-1.54.2-.14-.29 2.49.26 1.54zm-.3-2.18c-1.02-1.93.64.58 0 0zm6.96 2.14c.17-2.51-.95-.96 0 0zm20.36.13c-.74-1.24.08.8 0 0zm-39.18-.23c-.97-.97.25.74 0 0zm6.97-2.15c-.64-.62.09 3.53 0 0zm-11.82 2.2c-.57-.3-.2.25 0 0zm1.98-.08c-.3-2.13-1.7-.1 0 0zm22.44-.18c-.11-2.38-1.25 1.24 0 0zm3.4-.26v.28zm-27.26-.2c-1.11-.8.62.91 0 0zm41.9-.03c-.41-.1.46.51 0 0zm-42.58.03c-.34-.46-.26.46 0 0zm16.35 0c-.1-.43-.22.42 0 0zm22.64-.54v.34zm-43.91-.85c1-3.42-2.01 3.55 0 0zm34.65.18c-.37-5.34-1.46 3.27 0 0zm-.52-.17c.13-.42.23.43 0 0zm0-.7c-.08-.6.46.52 0 0zm-31.38 1.62c-.12-.42-.23.43 0 0zm3.18-.11c-.23-.8-.34.8 0 0zm9.4-.2c1.4-1.9-.88 1.02 0 0zm22.21-.02c.48-2.07-.64-1.17 0 0zm-39.66-.38c.68-1.74-1.22 1.9 0 0zm1.78.34-.02.21zm5.84-.2c-.01-.69-1.04.71 0 0zm17.32.04c-.33-.29-.14.28 0 0zm-22.14-.29c-.4-.2-.04.55 0 0zm20.7.08c-.2-.42-.39.27 0 0zm-14.32-.25c-1.17-1.3-.49.76 0 0zm11.98-.14c2.74-.87-.98-3.12.97-2.74.1-1.03-1.96-4.18-.84-1.32-.62-3.27-3.56-1.13-.39.14 1.09.41-1.17 5.44.26 3.92zm.31-.82c.23-.43.13.43 0 0zm-1.52-4.53c.2-.27-.03.54 0 0zm5.42 5.42c3.63-2.07-2.11-.05 0 0zm20.84-.34c-.47-2.4-1.57-4.27 0 0zm-39.27.3c-1.35-2.34-4-1.16-.37.03zm1.48-.11c-.45-1-.44.87 0 0zm2.3.19c.03-.59-.34.38 0 0zm15.59-.21-.34.29zm-22.8-.12c.28-.48-.68.7 0 0zm2.34-.08c-.9-1.02-.09.82 0 0zm-2.89-.2-.01.21zm17.41.18c.13-.82-.72.46 0 0zm1.94-.1c-.1-.6-.23.62 0 0zm-20.89-.07c1.01-.44-.55-.2 0 0zm1.93-.03c.76-1.73-.69.4 0 0zm11.83-.13c-.14-.72-1.66-.08 0 0zm29.5-.3c-.55-.57.32 1.38 0 0zm-17.74.12c-.45-.22-.26.57 0 0zm4.7-.13v.28zm-25.2.16c-.18-1-.58.16 0 0zm-2.61-.25c.02-4.74 5.04-5.85 5.9-9.8-1.74.3-1.8 3.87-2.84 1.07-3.6 1.41-2.74 5.75-3.06 8.73zm1.93-5.41c.69-.97.4.04 0 0zm1.15-1.02c.53-.4-.2.38 0 0zm.4-.13c.1-.84.21.36 0 0zm-.86-.47.3-.3zm.39-.41c.23-.43.12.42 0 0zm1.78-.4c.48-1.35.62.18 0 0zm-1.43-.47c.24-.53.27.69 0 0zm17.29 8.33c-.6-.25-.6.38 0 0zm-17.17-.15c-.83-2.88-1.35-3.95-.71-.34l.3.26zm28.3.08c-.15-.41-.31.25 0 0zm.18-.58c.75-1.58-.58.21 0 0zm-33.04-.29c2.32-1.45-2.93 1.37 0 0zm21.78.58c4.54-3.29-4.33-4.86-.92-.07zm-1.33-2.96c.04-.55.4.2 0 0zm-15.54 2.78c.55-1.03-.6.3 0 0zm22.08.09c-.21-1.1-.64.43 0 0zm9.39-.28v.28zm-36.04.03c-.23-.44-.23.43 0 0zm2.75-.6c-.5-.6.56 1.83 0 0zm7.1-.27c-.75-2.69-.22 2.93 0 0zm-.29-.1c.06-1 .22 1.01 0 0zm7.6.97-.4.03zm-14.79-.3c-1.3-1.33-1.19-.43 0 0zm23.27-.01c-.4-.46.38.87 0 0zm-25.98-.44c1.34-2.18-2.24 2.06 0 0zm36.28-.03v.35zm-33.52.08c1.8-2.3-1.35-.18 0 0zm3.99.02c-.12-1.03-.33.8 0 0zm18.08-.23c-1.31-2.77-6.7-7.91-2.42-2.74.9 1.46 1.68 2.55 2.42 2.74zm.64-.24c-.22-.43-.12.42 0 0zm-18.8-.2c-1.28-4.05 8.49-7.36 1.72-7.75-2 1.73-2.49 5.49-1.72 7.75zm-.1-1.24c.19-.27-.03.54 0 0zm.1-.62c.08-.53.08.51 0 0zm2.84-3.83.4-.25zm1.1-1.4c.19-.27-.03.54 0 0zm4.46 7.18c1.2-2.89-1.88.06 0 0zm-12.62-.3c-.08-.61-.32.66 0 0zm13.94-.06c.21-1.06-.7.82 0 0zm-14.08-.67c1.83-3.06-1.84 1.88 0 0zm-1.32.37c-.48-.04-.12.61 0 0zm18.5-.58c-.6-1.05.52 2.34 0 0zm-6.95.25c-.58-.08-.32.57 0 0zm33.23-.62c-1.43-1.98.94 1.98 0 0zM56 116.1c.34-1.61-.86 1.62 0 0zm-1.5-.02-.02.21zm2.54-.1c-.13-.42-.23.43 0 0zm30.5-.27c-2.11-1.68.28.8 0 0zm-41.93.04c.1-.61-.46.5 0 0zm11.95-.53c2.57-3.12-4.34-5.04-3.37-4.5.65-2.65-7.65-3.09-2.13-.67 1.06 2.16.58 3.3 3.3 1.84 1.86.05 1.06 4.51 2.2 3.33zm-.18-1.43c-.27-.72.55.8 0 0zm-.85-1.09c-.42-1.28.92 1.1 0 0zm-3-.73c-.9-.28.56-.18 0 0zm2.18.12c.07-.47.62.5 0 0zm-.27-.39c.5-.6.56.37 0 0zm-.42-.18c-.1-.46.46.5 0 0zm-1.43-1.04c.13-.4.22.44 0 0zm-.36-.07c.38-.25.09.24 0 0zm.53-.18c-.56-.86.8.46 0 0zm-1.45-1.07c-.31-.64.9.8 0 0zm9.07 6.1c.94-.85-2.09-6.56-3.31-4.63-.73-3.43-4.55-.58-.66.26 1.09 2.51 1.43 3.46 3.7 3.36-.35.49-.99 1.6.27 1.01zm-2.47-1.45c.25-.46.34.45 0 0zm1.61-.78c-.28-.49.68.7 0 0zm-.61-.16c.36-.2.18.35 0 0zm-1.1-.16c.42-.87 1.16.4 0 0zm1.48-.28c.23-.43.12.43 0 0zm-.76-.2c.39-.23.09.25 0 0zm.26-.15c-.15-.58.34.44 0 0zm-1.62-.18c.25-.72.56-.23 0 0zm1.36-.87c.1-1.21.25.82 0 0zm-.72.04c0-.55.92-.35 0 0zm-2.36-.7c-.05-.51.95.72 0 0zm-.34-.41c.2-.27-.03.54 0 0zm.38.06.47-.1zm-.13-.55c.4-.66.79-.09 0 0zm20.62 5.7c-1.13-4.13-1.68-1.7 0 0zm-36.15-.02c-.5-.24.07.88 0 0zm45.82.06c-.63-1.5-1.05-.33 0 0zm-40.13-.37c-.39-.43-.2.7 0 0zm4.2-1.06c4.16-.46-1.96.61 0 0zm-9.94.59c3.02-.46 2.53-3.9.28-.75-.02-.08-1.23 1.67-.28.75zm12.17-.23c-.4-.21-.05.54 0 0zm.3-.4c.08-.62-.42.7 0 0zm.63-.28c-.11-.42-.22.43 0 0zm7.84-.11c-.23-.43-.12.42 0 0zm1.15-.06c-.45-2.73-3.29-1.86 0 0zm-.56-.98c.31-.24.16.41 0 0zm-9.66.92c-.22-2.23-.87-.2 0 0zm31.24-.16c-.16-.42-.32.24 0 0zm-.48-.45c-2-2.26-.18.66 0 0zm-40-1.2c2.41-2.65-2.11 1.37 0 0zm25.39-.38c-1.94-2.03 1.39 2.13 0 0zm-14.87.07c.03-.68-.51.57 0 0zm27.6-.06c-.52-.65.28.77 0 0zm-37.09-.28c2.76-1.8-1.41.4 0 0zm16.3.1c-.51-.92-1.86-.65 0 0zm-15.67-.16c-.13-.42-.23.43 0 0zm1.05-.07c2.64-.6.09-1.46 0 0zm12.4-.26c-1.08-.49.16.82 0 0zm-2.51-1.67c.17-2.44-5.65-.18-.82.42l.52-.1zm-.7.3c.05-.54.4.21 0 0zm-1.57-.56c.4-.97.45 0 0 0zm-.3-.08c1.14-1.31 1.02-.07 0 0zm18.77-.86c-.42-.5-.28.47 0 0zm1.39 0c-.5-.27-.32.42 0 0zm-7.25-1.84c-.24-.43-.23.44 0 0zm27.67 123.87h.24zm-33.7-.23c.39-.24.1.25 0 0zm12.46 0h.34zm-11.92-.1c1.43-.36.91.27 0 0zm15.07-.13h.34zm-13.3-.11h.29zm.57-.01c.67-.32.99.36 0 0zm-6.4-.14c.54-.23 1.54.5 0 0zm25.7.04c.38-.25.09.24 0 0zm11.1-.03c.37-.4.46.46 0 0zm-40.06-.13c-.3-.52.68.56 0 0zm2.24.04h.24zm-.86-.15c-.3-.52.68.56 0 0zm7.3.07c.08-.35.53.22 0 0zm3.41-.08c.53-.42-.19.37 0 0zm33.83.01c2.13-.56 1.94.62 0 0zm2.04.04h.24zm-39-.15c-2.23-1.05 3.38.41 0 0zm35.97 0c1.99-2 6.2.38 1.46-.38-.6-.2-.88.55-1.46.38zm4.14 0c.52-.55.45.4 0 0zm-50.57-.08c.38-.25.1.24 0 0zm24.8-.04c-.08-.49.82.65 0 0zm-27.04-.1c.78-.84 1.07.67 0 0zm1.35.02h.44zm1.58 0h.44zm26.63.04c.33-.42.5.27 0 0zm-26.12-.2c1.19-.2 1.32.4 0 0zm1.6.04h.3zm9.93-.01c.98-.37.98.37 0 0zm8.85 0c.39-.23.09.25 0 0zm-25.7-.15c-1.3-.35 3.16.17 0 0zm15.03.04c1.27-1.07 1.9.39 0 0zm11.56 0c.39-.24.1.25 0 0zm2.73-.14c-1.41-.94 2.9.97 0 0zm5.66.12c.36-.52.82.3 0 0zm-38.13-.13c.5-.47 1.95.6 0 0zm2.2.03.38-.18zm8.47 0h.34zm20.3 0h.34zm4.55-.03c-2.97-.07.86-.68 0 0zm29.5-.02c.07-.42.68.52 0 0zm-60.32-.05h.24zm3.16 0h.24zm.67-.02c.34-.24 1.05.45 0 0zm19.13-.07c-3.86-1.04 3.87.59 0 0zm1.56.05c.32-.48.14.46 0 0zm-15.34-.08c.38-.24.09.24 0 0zm3.09-.11c-.88-.9 1.66.8 0 0zm21.74.1c.38-.22.09.25 0 0zm-39-.07c.73-.36.71.24 0 0zm1.34-.05c.37-.24 1.27.44 0 0zm.8.01c.39-.24.1.25 0 0zm2.76-.1h.24zm9.92-.05c.52-.24.55.42 0 0zm43.86.01c.53-.69 1.75.35 0 0zm-56.37-.12c-.37-.48 1.54.63 0 0zm-2.24-.08h.24zm.64 0h.29zm.93 0c.15-.96 2.15.42 0 0zm7.94 0h.34zm.74 0 .18.02zm4.95-.03c-1.13-.4 2.29.2 0 0zm46.09.03h.24zm-46.68-.15c.24-.43.24.43 0 0zm25.78.04c-.83-.82.86.27 0 0zm24.47-.14c-3.66-2.25 1.62-.26.1.03zm-60.1-.02c-.56-.39 1.2.44 0 0zm1.27 0c2.3-.25 1.45.38 0 0zm4.81.04c.39-.24.1.25 0 0zm2.19-.04c.15-1.71 2.74.27 0 0zm49.47-.03c-1.15-.47 1.54.17 0 0zm-67.2 0c.33-.38 1.39.26 0 0zm1.64-.05h.4zm26.3-.02c-1.99-.24.46-.56 0 0zm8.5-.14c.88-.7-.45.83 0 0zm1.44.13c.8-.63-.08.46 0 0zm-35.5-.08h.34zm6.11 0h.34zm5.08 0h.39zm23.47-.03c.6-.51.6.5 0 0zm-31.26-.09h.64zm5.82 0c.39-.23.09.25 0 0zm-3.16-.1h.24zm16.66 0 .18.01zm12.73-.05c-5.17.25-2.28-9.1-.14-4.72.51-2.46 1.34-4.77.63-.92-.28 1.72 1.1 4.42-.49 5.64zm.45-1.15c-.35-.91-.96.56 0 0zm0-1.34c-.36.51.25.92 0 0zm34.68 2.5c.32-.48.15.46 0 0zm-72.13-.12c2.47-.45-.79.39 0 0zm44.4.02c.04-.55.4.2 0 0zm27.26.02h.24zm-72.67-.12.29.02zm5.86 0h.59zm67.16-.15c-.77-.7 1.04.48 0 0zm4.16-.11c.23-.43.13.42 0 0zm-63.03-.08c.38-.24.09.25 0 0zm24.53-.06c.26-1.74.45.38 0 0zm27.2.06h.24zm6.6 0c.39-.24.1.25 0 0zm-57.48-.5c.33-.47.14.47 0 0zm4.88-.34c.38-.53 1 .7 0 0zm52.52 0c.46-.4.5.25 0 0zm-74.64-.12c.11-.47 1 .54 0 0zm4.06.05h.24zm1.14-.12h.34zm1.77-.12h.34zm40.34-.46c2.45-6.98.12 1.88 0 0zm.33-.62c-.4-.2-.04.55 0 0zm-44.73.82c.99-.83.3.48 0 0zm55.7-.14c-.02-.56.76.88 0 0zm19.75.18h.24zm-78.03-.17c1.49-.32-.17.47 0 0zm3.25.05c.38-.24.09.25 0 0zm.49 0c.39-.24.1.25 0 0zm2.28-.03c-2.23-.8 3.93.55 0 0zm-5.02-.12c.22-.43.12.42 0 0zm9.3-.06c-2.87-.72.92-.03 0 0zm41.85-.08c.25-1.11.1.74 0 0zm26.9.16c-2.71-.06.49-.93 0 0zm-33.6-.1c-.87-1.14.21-1.64 0 0zm-42.46-.12c-1.02-.68 1.73.38 0 0zm-2.65-.19c1.15-.66 2.11-.2 0 0zm7.5.05c.33-.49.15.46 0 0zm69.87 0c.23-.43.13.42 0 0zm-78.88-.44c-2.23-.48 1.97 0 0 0zm1.08-.03c-.84-.5.91.2 0 0zm-2.45-.1c-.36-1.07 1.3.57 0 0zm2.63-.2c-.63-.59 1.03.43 0 0zm50.52-.01c-.43-1 1.11-.85 0 0zm.45.05.3-.3zm-51.74-.25c.36-.44.57.86 0 0zm77.93.1.18.02zm-77.6-.33c.3-.72 1.1.25 0 0zm-1 .02c.33-.38 1.37.27 0 0zm14.52-.56c-2.14-1.35-2.05-5.74-.33-1.64.86-.37-1.57-3.56.92-.2.85 2.6-2.77-6.4-.15-1.82.9-6.61 2.7 6.55-.44 3.66zm1.62-4.73c-.33-.43-.13.6 0 0zm34.79 5.22c.23-.44.24.43 0 0zm1.72-.33c-.3-.94 1.2.31 0 0zm30.4-.06c.32-.42.4.25 0 0zm-33.25-.58c.77-1.03-.34.9 0 0zm1.47-.11c.93-.75-.33.44 0 0zm-43.5-.04c.4-.49.36.3 0 0zm.69-.14c.23-.44.24.43 0 0zm.75-.17c.07-1.14.32.39 0 0zm37.68.07c.04-.55.4.2 0 0zm4 0c-.4-.77.67.13 0 0zm-8.31-.86c.63-.68 1.63.85 0 0zm-31.97-.05c-.28-.48.67.7 0 0zm29.83.03c-1.12-1.37 1.2.7 0 0zm1.66-.4c.65-3.48.32 1.56 0 0zm4.4.42c.45-.82.29.41 0 0zm2.46-.05c.73-.73.69.4 0 0zm-37.38-.44c-.77-2 .8.97 0 0zm34.04.2c.52-.43.77.48 0 0zm-41.8-.06c.6-.37.61.25 0 0zm.69-.23c-2.99-.86-.97-1.93 0 0zm39.13-.02c-1.56-.95-1.1-1.18 0 0zm2.85-.03c.95-.92.98.33 0 0zm3.23-.04c.55-.49.05.34 0 0zm-10.37-.32c.32-.48.14.46 0 0zm-39.27-.34c-.56-2.52 1.9.96 0 0zm5.93-.05c-.83-1.09 2.55 1.42 0 0zm35.03-.02c-.18-.98.53.86 0 0zm3.19-.22c-.36-.76.51.6 0 0zm3.72.04c.53-.41-.2.38 0 0zm-7.82-.29c-1.29-1.43 1.87-.4 0 0zm3.16-.04c.32-.47.15.46 0 0zm1.4-.4c1.79-2.06.01.95 0 0zm-31.59-.26c-.05-.94.48.6 0 0zm28.67.05c.82-1.56 1.43-1.16 0 0zm2.17-.02c.73-2.42 1.96-.95 0 0zm.29.12c.57-.48.29.22 0 0zm-.7-.22c.18-.34.72.25 0 0zm-4.67-.18c.12-.43.23.42 0 0zm8.62-.06c-.06-.68.56.75 0 0zm-5.81-.2c.24-.94.3.4 0 0zm4.43.02 1.17.08zm-6.83-.3c-.22-1.57.86.41 0 0zm.72-.28c.56-.63.73.48 0 0zm5.88-.04c.13-.5.5.77 0 0zm-32.98 0c.17-.47.43.05 0 0zm27.94-.37c.32-2.06.2.81 0 0zm2.61.18c1.12-.68 1.72.56 0 0zm-3.15-.14c.08-.35.53.21 0 0zm-25.22-2.03c.09-5.93 1.38 3.77 0 .98zm26.8 1.65c1.34-2.3 1.77-1.48 0 0zm.68-.15c.28-.64.6.15 0 0zm1.33 0c.33-.49.15.46 0 0zm.64-.06c-.65-.5 1.7.79 0 0zm-35-.25c-1.8-3.76 3.04.15 0 0zm29.2-.2c1.13-1.95-.04 1.16 0 0zm2.06-.04c-.06-.85.47.17 0 0zm4.37-.18c.37-1.15 2.6.18 0 0zm-3.95-.79c.49-.52-.07.81 0 0zm-30.04-.1c-.62-1.32.56.25 0 0zm32.15-.04c1.1-1.07.5.07 0 0zm-.66-.06c.72-.52-.15.5 0 0zm6.21-.23c-1.8-.51.95-.63 0 0zm-9.07-.23c.23-.43.13.43 0 0zm.5-.04c.08-.35.53.21 0 0zm1.78-.15c.56-.77-.29.64 0 0zm.29-.5c.22-.42.1.43 0 0zm-2.76-.15c.38-1.47.72-.43 0 0zm2.85-.19c-.08-.45.46.51 0 0zm5.13-.11c-.1-.46.46.5 0 0zm-.05-1.12c-.6-1 .75.9 0 0zm-5.68.12c.38-.24.08.25 0 0zm.63-.11c-.5-.66 1.53.41 0 0zm4.36-.35c-2.78-.38-.94-1.52 0 0zm-7.12-.29c.5-.7-.32.8 0 0zm3.25.18h.3zm.58.03c1.83-.6 1.28.4 0 0zm-2.17-.1.5-.12zm-1.78-1.11c.21-.81.06.8 0 0zm-.46-.1c.75-.8-.36.68 0 0zm.4-.37c-1.15-.49.52.1 0 0zm-2.36-.45c.6-.5.6.5 0 0zm.3-.7c.65-.5 1.65.7 0 0zm5.2-.93c-2.92-1.06-1.7-3.62.23-1.01.44.04.4 1.42-.23 1.01zm-1.93-.71c-.14-.94 1.19.56 0 0zm2.3-.8c-.18-.6.45.53 0 0zm-29.66-.28c-.5-1.06.55.62 0 0zm0-.75c-.52-.96.57.37 0 0zm43.35-2.59c.24-.43.23.44 0 0zm3.6-.11c.75-.87-.47.8 0 0zm-2.86-.32c.68-2.05 4.13-3.12.89-.68.04-.25-1.03 2.14-.89.68zm3.8.27c.08-.35.53.21 0 0zm-4.73-.23c.12-.84.17.56 0 0zm-43.46-.26c.3-.62.34.74 0 0zm43.8.12c-.84-1.6 1.12.86 0 0zm2.22-.44c.86-1.77 1.24-.23 0 0zm3.22-.53c.53-.42-.19.37 0 0zm-2.21-.54c.1-1.35.24 1.68 0 0zm3.03.28c.09-.35.54.22 0 0zm-1.32-.47c1.1-.35.59.63 0 0zm.96-.15c.3-.63 1.1-.58 0 0zm-4.78-.32c1.94-1.11-1.17 1 0 0zm3.42.09c2.2-2.79-2.75.01.82-1.71 3.59-.68.37 1.05-.82 1.71zm.68-.82c.47-.46-1 .44 0 0zm.74-.7c.3-.49-.86.6 0 0zm.99-.3c-.5-.25-.46.4 0 0zm-6.73 1.66.6-.17zm6.8-.28c.4-.25.1.24 0 0zm-6.67-.16c1.82-.81-.28.5 0 0zm6.3-.08c.57-1.03.98-.78 0 0zm-5.91-.88.3-.3zm.44-.3c.33-.47.14.47 0 0zm-42.7-21.33c-.62-2.28-.03-2.3 0 0zm.38-.2c.74-2.52-.66-8.29.45-2.5.02.57.86 2.6-.45 2.5zm-.69-2.84c.02-2.4.64-5.15.16-1.16-.11.04.28 1.58-.16 1.16zm.48-4.52c-.5-1.97.12-7.98.07-2.8-.01.16.05 5.45-.07 2.8zm-4.28-3c-1.35-2.56 1.82.47 0 0zm.56-1.33c.1-.51.1.53 0 0zm-.63-1.26c.1-3.35.18 1.67 0 0zm.53.74c.2-.27-.03.54 0 0zm-.16-.82c-.48-3.24.45 1.02 0 0zm3.7-.1c.2-.27-.02.54 0 0zm-.04-2.37c1.57-3.83-5.95-8.14-3.7-1.6.38 3.05-2.73-7.73 1.6-4.35 1.4 2.48 3.22-1.88 2.36 1.6-1.25-.2.64 8.97-.26 4.35zm-1.13-4.58c-.34-.2.4.64 0 0zm-.13-.63c-1.97-2.03.55 1.57 0 0zm-.6-.65c-1.02-1.78-.35 1.2 0 0zm-2.44-.12c-.56-.46.31.55 0 0zm10.1 7.34c-.87-2.93.91-.75 0 0zm-5.31-.75c.33-3.88.12.88 0 0zm5.88.02c-.4-3.49.51 1.26 0 0zm-10.18-.08c.07-1.41.2 1.42 0 0zm-.61-.5c-.37-2.75.37.91 0 0zm10.39-1.46c.13-.52.02.75 0 0zm.3-.06c.08-.71.08.72 0 0zm-6.13-.99-.05-.41zm5.98-.68c.1-2.36.16 1.4 0 0zm-6.17-.16c.1-.51.1.53 0 0zm7.39-.16.36-.57zm-3.14-.24c.13-.52.02.73 0 0zm1.98-1.49c.1-1.13.04 1.35 0 0zm-6.76-.25h.24zm-.52-.6c.13-.43.23.43 0 0zm-.54-.24c.24-.43.23.44 0 0zm.6-.22c.5-.26.45.4 0 0zm-2.09-.11c-.28-.52.68.56 0 0zm.3.05c.34-.82.57-.05 0 0zm.55-.4c.64-.46.93.2 0 0zm-2.14-.37c-.18-.8.76 1.52 0 0zm.76.2c-.14-1.05.91.53 0 0zm6.41-.24c.13-3.78 1.72-1.56 0 0zm-3.2-.43c-1.68-1.07 1.6-.18 0 0zm3.09-.64c.23-.44.24.43 0 0zm2.03-.09c1.07-1.3.32.55 0 0zm-5.92-.28c-1.56-1.89.25-.85 0 0zm4.92-.02c.15-.59.43.08 0 0zm-1.57-.52c-.18-1.58.68.33 0 0zm.63-.02c-.15-.58.34.44 0 0zm1.14.06c.18-.93.73.17 0 0zm-3.15-.4c-.88-.78 1.7.96 0 0zm-6.85 0c.31-.22.27.4 0 0zm9.7.08c.1-.35.55.22 0 0zm-.65-.25c-.1-1.54.4.52 0 0zm-8.95-.05c.12-.43.23.42 0 0zm18.1-.17c.13-.53.03.73 0 0zm-8.84.05c.23-.43.12.43 0 0zm-9.72-.38c.05-.75.15.71 0 0zm13.22-2.87c.09-.35.54.22 0 0zm-10.5-1.21c.3-.23.27.4 0 0zm9.39-.36c-1.33-.9 1.42.68 0 0zm-11.1-1.68c-1.51-1.22.66-.16 0 0zm10.73-1.06c.08-.8.22.81 0 0zm-16.6-1.04c-.67-1.75 1.2-.3 0 0zm.1-1.3c-1.54-2.73 1.54 1.02.34-3.01-.64-4.5 1.27 2.67-.34 3.01zm4.65-.17c.67-.6-.34.71 0 0zm-.27-.06c-.16-1.93.36-2.22 0 0zm.32-1.27c-.16-2.91.28 1.9 0 0zm-5.11-.8c.15-4.27.57-1.97 0 0zm4.99-1.56c.1-4.05.14 4.23 0 0zm1.13.36c.53-1.3 1.02.32 0 0zm-.14-.46c-.25-1.84.32-2.87 0 0zm.6-.64c.19-.27-.03.54 0 0zm-.16-.57c-.2-1.25.4.89 0 0zm-.45-1.2c.08-.8.22.81 0 0zm.3.05c.2-.27-.02.54 0 0zm-1.28-.45c.2-.27-.01.52 0 0zm1.12-.29c-.88-3.38.73 1.49 0 0zm-2.26-9.04c.33-.49.15.46 0 0zm-3.5-1.84c.08-1.63.23.7 0 0z" style="fill:#000;stroke:#000;stroke-width:.3;stroke-dasharray:none;stroke-opacity:1"/></g></svg>