<svg xmlns="http://www.w3.org/2000/svg" xml:space="preserve" width="578.37" height="230mm" viewBox="0 0 153.03 230"><g style="stroke:#000;stroke-opacity:1;stroke-width:.3;stroke-dasharray:none"><path d="M11 521.9c-.09.17 3.26-.95.77-.9 2.77-.67.71 1.46-.78.9zm-.72-.68c.12-.52.37.2 0 0zm.49-.13c-.84-.4 1.01.26 0 0zm-9.85-.68c.09-1.15 1.82.68 0 0zm.78-.06c-.56-.35-.77.33 0 0zm9.51.17c-.45-.38.74.31 0 0zm.43.04c.44-.15.03.21 0 0zm16.47.03c.52-.35.53.2 0 0zm-5-.16c-.96-1.57 1.73.07 2.09-.81-.35.27-2.67-.86-1.56-1.17-.68-1.02 3.05.7 1.78.7.33.38 2.45 1.41-2.3 1.28zm.73-.57c-.45 0-.24.6 0 0zm-10.14.43c-4.75-.53 1.87-.5-2.54-.71-.6-.04.7.98-1.05-.18 1.63-1.16-1.62-1.22 1.67-.33 2.24-.35 8.26.85 2.25.86.15.37 2.5.52-.33.36zm.13-.46c.3-.4-.96.41 0 0zm2.46.33c1.64-.86-.27.8 0 0zm-11.9-.22c-.08-1.01.77.9 0 0zm11.06 0c1.04-.42 1.04.43 0 0zm2.3.05c.53-.18.09.2 0 0zm-22.15-.33c-1.3-.71 3.91-.12 0 0zm.8.1c-.53-.18-.09.2 0 0zm.3-.23c-.26-.43-.21-.2 0 0zm5.52.31c-1.3-.92 2-.08 0 0zm25.28.03c.54-.18.1.2 0 0zm2.93 0c-1.62-1.92.05-.89.73-.7.46-.08-.32 1.2-.73.7zm-8.35-.11c.44-.16.03.21 0 0zm.26-.14c-1.14-.62 1.03.28 0 0zm19 .02c.66-.16.12.19 0 0zm-20.56-.14c.34-.21.56.36 0 0zm19.74 0c.82-.2.22.35 0 0zm-1.67-.05c-4.5-.07-2.75-1.18-2.26-1.65-2.47-.17-6.26-1.32-4.43-4.12 1-1.08.58 3.1 1.27.37 1.13-2.08.12 1.75 1.9-1.2.74-2.21 1.85-.53 3.27-.4.05.4-4.07-.54-2.93 2.51.72-1.36 1.67-3.2.98.46.38-.51 2.14-4.48 1.17-.47 1.04-.77 2.58.23 2.59-.7.33-.4 1.11 3.23.81.57 1.77 1.07 1.24-1.6 1.88-.28.57 2.07.19-.83 1.77.86-.31-2.24-8.05-2.58-4.35-2.96-1.84-1.38-4.11-.97-5.62-2.05-3.15 1.98-2.4-1.23-1.5-.68-.93 1.1 2.71-.01.18-.64-1.82-1.38-3.03 1.78-2.82.6-2.2.24.9-.98-.43-1.33-1.33-.2-3.3.87-2.8 1.56-2.72 1.02-2.94 5.34-.4 1.22.89-2.14-.5 3.9 1.41-.45-.75 3.95.92 4.58 1.54.52-1.5 1.55.24-1 .86-.7-1.61 1.34-.76 4.11-.41 5.58-.34 2.54 3.56.78 2.9 1.6 2.02-.2-1.92 1-1.28-.07-3.71-.11 1.67.55-2.24.62.63-.65-.04-2.05-3.08-1.25-2.8-.13-2.1-4-1.03-6.26.36-3.73 9.06-1.9 2.84-4.22-1.21-.4 1.65-1.35 1.37-.38 5.5 1.71-5.31-2.82-1.26-2.67-1.68-1.04-3.77 1.19-1.98-1.01.45-1.48 4.31 1.08 3.74 2.15 1.29.74 5.12 4.49 2.63 1.05 1.57 1.7-3.72-6.98-6.77-5.85-3 1.35-6.09 3.09-2.79.04 2.06-.87 5.27-.44 1.1-1.2-3.12 1.04-2.11 1-1.39-.46-1.56-.55-1.5 1.12-3.02 1.15-.34-.47 1-1.14.85-2.27 1.05.03 5.7 2.17 4.83-.14 1.43-2.6-3.86-2.86-4.97-.97 3.18-1.1-3.98 1.58.36.5.58.33-4.12 2.14-1.82 3.05-2.6-1.1.99 3.3-1.85 3.58-.24 1.22 1.24.33 2.35-2.27-1.92.6.67-1.6.2.01 2.26.82.13.75-.24 2.77.05 1.46-1.13 1.88-.11-1.19-1.89-.4-.63 8.33.3 2.3.48-.42 2.4-4.44.88-.64-2.37 1.87 1.39 6.37-1.53 4.67.54.8 2.68 8.14-1.95 7.8-1.25.04.38-.6-1.97-.1 2.42.21-2.5.6 1.56 1.15-1.04.24-4.32-.02-6.24-.85 1.82.28 6.67-.14 1.74-.84-3.35.48-4.68-1.3-8.64-1.43 2.74-.4.37-2.82.7-.56-2.31-.59-7.78-.58-2.76.88 3.16-.1 8.34 1.93 5.65 1.99-2.81-.02-3.46-2.08-6.47-1.03.9-.34-1.2-1.51-3.49-1.54-1.12-2.7 1.34 1.86 1.96-1.79-.68.4.03-1.98-.85-.22.22-2.99-.78-7.24.88-3.5 2 3.33-.96-3.25-1.19-4.2.06-1.62-.64-4.62.31-2.22-.6 2.3 4 4.19 2.18 2.54.3.02-1.1-4.09-3-4.35.15-2.87-1.69-5.32-2.17-8.1-.3-2.44.71-8.2-.74-2.81-1.3 5.29 2.87 9.78 1.92 15.13.5 4.2-.7 1.31-.82-.93-1.14 2.53-2.24 3.99-1.33 6.78-1.28-3.8-4.09 1.18-6.9 1.1-1.48 2.6.95.01 2.37.51-.8-.12 2.97-.7 3.59-.45.9 1.3 1.58.29 0-.6 2.31.15 3.85 3.56 1.59 3.41-1.83 1.86-7.55.27-2.85-.14.75.32 5.03-.44.83-.72-3.87.37-5.42-.29-8.1-.92-2-.06 3.8-1.8 4.75-2.65 4.21-1.32 6-6.08 5-10.04-.7-3.05-1.35-9.2-.73-10.07-1.12 4.35-.8-5-.49-6.03 1.7-4.95 2.4-10.15 6.04-14.15a65 65 0 0 1 8.56-11.21c4.28-4.32 9.09-8.43 11.08-14.37 2.04-2.05.85-9.2-1.33-7.8.25 1.37-3.22-3.84-4.18.03-.5-.57 0 6.48-.55.96-.24 2.65.03 3.88-.49-.13-1.92-3.77-4.38 9.9-2.84 2.5.59-4.74-1.53 3-.88 2.8.93-5.62-3-.17-3.87.03-.16-2.4 1.44-7.31-1.13-7.73-.32-.56-1.92-4.1-1.96-1.73 1.6 1.17-.78.9 1.4 1.59 2.7 1.84-4.41-.44-3.15-1.38-1.48-1.51-.22 1.8-.14 1.72.96 3.13 4.32 3.29 4.3 1.3.62 2.13.66 9.57.37 8.68.02-5.42-.32 3.92-.3-.54.38-2.7-2.3 1.86-.72-1.34-.4 1.38-5.12 2.12-3.1 4.57-.82-3.92-2.33-.21-2.64.76.6-1.43.87-4.12 2.85-5.43-.1-1.84 2.06.85 2.98-1.5 1.18-1.47-.46-.84-.65-.97-.93 2.35-1.9-1.14-2.5-.49-1.3-4.1-.62-.13-1.32-.85-3.38.4-5.73-6.4-5.37.04-1.47 1.55 4.26 5.7 3.12 2.84-1.08 0-3.13-4.47-2.1-2.98-.4.3 2.76 2.64 1.04 1.03 1.11 1.72 5.6.95 1.64 2.7 1.4.01 2.83 1.84.19.46 1.52 2.04-3.67-.57-3-.35-.67-3.65-3.98-4.23-5.82-7.53-1.4-4.7-.16 4.02.25 4.51 1.95 2.4-1.33-3.06.93.2.28.18 2.23 3.01 1.32.73 2.76.85-.97 1.52 2.25.62.12 1.75-1.3.7-1.34 1.16-1.1-.4.77 6.13.18 6.7-.87-6.67.5 6.51-.4.14.58-1.94-1.51-9.62-2.46-7.66-.2 1.8-2.7-8.8-1.03-7.9-.02 3.12 5.15 6.22 3.06 1.64-1.36-3.06 3.05 3.14 1.94 3.31 2.45-2.34-4.25-5.66 0-4.07-2.82-3.44-.49-1.52 1.11-2.27.6-2.25-2.47-3.75.2-4.88-1.31-3.04-1.43-5.23-2.68-7.68-1.6.97-.79 3.72-1.27-.4-.7-6.07-.54 6.82-.69 2.85-.26-1.93.44-5.79-1.03-3.79.05-1.2.32-4.31-.97-2.72 1.33-1.22 3.03-2.2 1.26-2.35.11-3.69-3.02 6.65-.9 2.46.72-.33-1.71 2.9-.81 4.48-.66-2.68 1.21-10.63-1.48-4.38-.76 2.36-.11 8.78-.7 8.74-.08-1.75-.43-5.27-.05-3.82.07-1.9-.97-5.7.13-7.72 1.54-3.4.18-2.34-.65.05.4-6.44-2.64 2.74-2.76 3.4-1.78-3.8 2.16-11.76 4.16-11.68 1.61-.03-.06-1.73-2.06.15 3.42-3.78 5.87-8.9 11.29-10.18 4.46-1 8.97.42 13.38-.4 4.5-.22 7.82 2.67 11.8 2.5.5-1.11 5.27 4.06 4.82 2.18 2.49.5 7.1 6.8 6.65 4.77 2.93 3.69 6.44 6.83 8.4 11.18-.87-3.88 2.27 3.7 2.88 5.61 2.1 3.45 2.8 6.71 3.03 9.05.78 2.38 1.47 7.23.5 6.3.23 2.55.82 6.88-.02 5.5.29 4.21-.27 7.55-.94 9.36-.4 2.28-.67-2.54-1.2 1.46-.22 1.27-.73 6.44-1.38 3.72-.38 2.16-1.7 4.31-2.37 6.27-.65-1.26-.72 5.87-1.1.67-1.42 1.54-1.94 8.48-2.8 4.71-1.04 2.75-3.82 5.55-5.45 9.74-.6 2.93-.97 6.37-.88 1.23-1.4-1.05-1.02 4.97-2.09 3.17-1.8 2.7-2.64 7.57-.45 7.94 3.17-.04 7.98-2.99 11.98-3.12 1.2.03-6.89 1.58-4.95 3.48 1.49-2.5 3.7-2.06 1.38-1.2-3 3.88 1.35.75 1.26.67-1.4 2.83-.2 3.75 1 2.78 2.83-1.91.1.4.9 1.75 3.07-1-.89.04.96-2.12.07-1.31 3.04-3.5.86-.04-.75 1.7 2.18-2.03.15 1.36.41.9 5.35-2.51 1.38-1.34.23-1.73 3.7-2.48 4.03-2.86 2.48-1.86 6.04 1.07 7.33.96-3.38-2.08-7.15-2.72-10.83-3.5-1.37.1-6.27 2.54-3.15.48 3.82-1.54 8.64-.4 12.43 1.45 3.37 1.78 6.16 4 7.83 7.68 1.34 2.1 2.12 5.26 1.1 3.99 1.18 2.34-.6 10.82-.99 7.58-2.36 2.9-1 1.68 1.38 2.43.52 1.45 4.55 1.03 2.1 1.68-.8.1-.01-1.05-1.21-.3-1.32.26-4.34 1.03-2.46 1.77-1.08.28-7.53-.6-3.7.57-2.4-.42-7.47-2.67-5.7.2 4.07.22-2.8 1.04 1.39 1.1-2.59-.52-4.63 1.37-1.38 1.3-2.15.29-.56.31-3.66.12-2.43.32-7.66.36-8.22 1.3 3.01 1.22-2.31-.6-1.33 1.24zm-2.66-.75c-.82-.38-.67.37 0 0zm.15-.93c-.11-.41-.24.4 0 0zm1.03-.65c-1.3-.59-2.02.54 0 0zm-1.6.01c-.38-.22-.1.25 0 0zm-5.62-.94c-2.9-1.58-7.52.35-1.77.17.55-.2 1.26.2 1.77-.17zm-1.66-.21c.44-.16.03.21 0 0zm4.94.37c-.03-.3-.58.1 0 0zm-.49-.12c-.5-1-1.18-.1 0 0zm-26.3-.18c-.38-.4-.26.42 0 0zm37.8-.07c.91-.87-1.14.37 0 0zm.86-.18c2.79-1.36-2.57-.9 0 0zm-.14-.43c.25-.41.25.4 0 0zm-6.2.38c-.7-.87-1.09.58 0 0zm-3.1-.32c-1.16-1.11.36.84 0 0zm12.4.05c-2.78-1.21-1.6.72 0 0zm-5.76 0c-.51-.42-.51.42 0 0zm-29.12-.2c-.4.11-.2.33 0 0zm15.6.13c-.39-.22-.1.25 0 0zm-13.7-.18c2.56-.16 4.4-.34.74-.37-1.13.02-3.5.65-.74.37zm1.4.1c-.03-.31-.58.09 0 0zm17.92-.6c-.48-.06-.08.94 0 0zm-42.3.18c-1.18-.38-.12.41 0 0zm15.9 0c-.24-.4-.1.41 0 0zm-.34-.12c-.87-.43-.44.45 0 0zm-.96-.07c-.38-.22-.1.25 0 0zm5.45.02c-.21-.38-.3.22 0 0zm-14.2-.52c-.24-.4-.24.4 0 0zm29.33-.05c-2.48-1.95-.11.93.1.04zm23.7.05c-2.69-1.32-3.26.02 0 0zm-41.4-.11c-3.3-.96-4.91-.18 0 0zm8.72 0c-1.68-1.7-5.31-2.12-2.73-1.42-.2-.84 1.8 2.13 2.73 1.43zm16.05-.12c.1-.8-.4.81 0 0zm-15.35.02c-1.23-.13-.21.28 0 0zm29.78.03c-.38-.23-.1.25 0 0zm-34.58-.28c.18-1.2-1.82.26 0 0zm-1.12-.1c-.57-2-4.83-.59-.6.02l.42.06zm34.94.06c-.79-.33-.78.2 0 0zm-37.61-.15c-.25-.98-1.2.48 0 0zm27.41-.16c.11-.6-.47.48 0 0zm13.02-.1c-1.35-2.23-4 1.5 0 0zm-.78-.42c.54-.18.1.2 0 0zm-57.47.19c-.25-.41-.25.4 0 0zm10.67-.03c2.28-.89-3.66-1.45-.37.14zm55.1-.25c3.53-1.02-2.12-.06-2.9-.85-.36.74 2.44 1.06 2.9.85zm-57.28-.47c.29-2.13-.74.42 0 0zm6.44-.27c.78-1.97-3.56.3 0 0zm1.61.03c1.56-1.02 2.76-1.3-.44-1.58.25.17-1.96 1.67.44 1.58zm.3-.73c.12-.42.25.4 0 0zm-.63-.23c.38-.42.38.41 0 0zm.98-.23c.38-.38.4.2 0 0zm52.55 1.18c-.54-.18-.1.2 0 0zm-18.75-.15c-2.7-.8-2.78.52 0 0zm19.12-.11c-.38-.42-.38.41 0 0zm1.38 0c-.49-.54-.08.44 0 0zm-16-.46c2.35-3.65.53-.8 1.72.06 2.07-1.63.45-2.16 1.25-4.31-3.23-3.85-.14 3.64-2.16.24-1.97-2.94.23 3.03-1.92 4.21.32.48.75-.23 1.1-.2zm1.61-.23c-.15-.45.48.43 0 0zm11.36.44c1.97-.9-2.9.71 0 0zm-16.75-.21c1.6-1.8-.83-.04-1.12-1.95-.42.45.79 2.75 1.12 1.95zm-.48-.35c.5-.4.7.33 0 0zm-28.72.34c.17-1.4-4.52-2.72-7-2.76-2.98.29-1.27.84.26.99 1.7-.97 3.66 1.06 5.86 1.43-1.23-1.65 1 .77.88.34zm-7.24-2.51c.25-.4.11.41 0 0zm-7.9 2.35c-.43-.63.13.62 0 0zM-.5 511c.03-1.59-.8.14 0 0zm54.44-.35c1.12-.53 1.45-2.8-.1-1.19-.1.2-.7 1.97.1 1.19zm-48.87.24c-.44-.38-1.14-.14 0 0zm-15.6-.34c.8-.58-1.52.78 0 0zm16.63.22c-.36-.42-.11.45 0 0zm34.65-.05c-.26-.53-.26.53 0 0zm5.5.05c2.18.25.3-5 .06-.7-.05.09-.51 1.12-.05.7zm-39.18-.14c-1.93-1.08-.41.18 0 0zm34.22-.03c.12-.75-.45.64 0 0zm-.36-.17c-.25-.4-.25.4 0 0zm-3.79-.1c1.09-.7-3.03-1.72-3.36-2.86-5.04-2.4 3.2 3.38 3.36 2.86zm-42.52-.25c-.48-.65.1.8 0 0zm58.66-.1c-.6-1.17-.3.98 0 0zm-54.28 0c-.02-.56-.33.38 0 0zm19.02-.4c-.4-2.47.56-8.38-.5-3.53.15.28-.21 5.26.5 3.54zm-.14-.59c.15-.3.04.5 0 0zm24.4.7c.38-1.3-.54.75 0 0zm2.66-.08c-.2.06.15.5 0 0zm12.24-.25c.79-2.47.43-4.57-.43-.88-.34.2-.2 2.24.43.88zm-54.64.03c.43-.47-.89-9 .26-4.86.55 1.07.44-3.48 1.18-4.4-.46-1.15-2.45-.39-2.5-1.27 1.87-2.66-2.53 2.34 0 1.95.84 2.11-.92 8.29 1.06 8.58zm-.53-.56c.4-.2.38.37 0 0zm-.28-1c.57-.85.05.7 0 0zm.58-1.02c.15-.3.04.5 0 0zm-.03-.73c-.25-2.28.17-1.22.07.28zm-.64-2.87c-.2-1.17.43 1.08 0 0zm1.02-.27c.1-2.62.63 1.7 0 0zm41.33 6.57c-.25-.4-.11.42 0 0zm.5 0c-.38-.39-.5.34 0 0zm-39.57-.34c-.75-.66.53.93 0 0zm32.9.09c-.98-2.12-1.1-.2 0 0zm20.93-.35c.22-1.17-.63 1.45 0 0zm-53.35.2c-.66-.69-.09.56 0 0zm53.78-.04c.99-2.56-1.1-.08 0 0zm-41.8-.35c-1.13-1.13-2.58-.1 0 0zm38.11.08c1.21-1.95-2.82-.83 0 0zm-49.45-.23c-1.27-1.6-2.58.45 0 0zm47.1-.2c-.37-1.38-.81-1.95-1.4-2.85 0 2.22-1.33-2.31-.62 1.01.96.08 1.4 3.32 2.02 1.83zm5.5 0c-.22-1.84 2.42-5.37.37-6.02 1.4 3.17-1.64-1.1-.55 2.88-.7.36-.6 3.74.19 3.15zm-.17-2.12c-.17-.59.53.55 0 0zm.2-1.8c.17-1.04.18 1.25 0 0zm-44.99 3.51c.75-1.62-1.64-2.03.98-1.8 1.21-.63-1.8-2.62-1.85-.67-3.3.6.46 3.2.87 2.47zm27.45.24c.87-3.78-2.69-2.33-.55.15zm-.3-.4c.25-.41.25.4 0 0zm-.39-1.84c.25-.4.11.42 0 0zm5.43 2.17c.17-.76-.8.6 0 0zm-9.94-.36c-1.48-3.62-3.03-.68 0 0zm6.57.17c.23-3.31-1.56.81 0 0zm-38.16-.28c2.2-.26-2.57-.37 0 0zm3.05-.12c1.42-2.06-1.03.65-1.94-.79-1.5-1.16-4.3.25-1.17.13.27-.44 1.85 1.1 3.11.66zm-.55-.2c.37-.43.52.41 0 0zm49.3-.12c2.83-3.56-2.5-1.32-.48.17zm-.02-1.22c-.22-1.04.51.43 0 0zm-9.92.88c-.4-.34.1.9 0 0zm15.62-.2c-.33-.54-.15 1.06 0 0zm.24-.22c1.1-1.83-1.22-7.32-.6-2.02.5.34.4 3.89.6 2.02zm-47.35.23c-.05-.96-.84.52 0 0zm31.59-.15c-.14-.63-.5.4 0 0zm-8.91-.13c1.2-1.13-1.21-2.1 0 0zm9.36.08c-.21-.39-.3.2 0 0zm.79 0c-.23-.4-.4.21 0 0zm-18.08-.36c-1.01-.54.33.62 0 0zm13.44-.28c-.36-2.38-.76-1.93 1.52-.23 2.55-1.1-2.18-5.92.28-3.46.81-.81-.97-2.24-.74-2.7-.78-4.17-6.15-4-6.86-6.99-2.7-2.1-.82 4.3.77 3.85 1.34 1.41 2.94 4.52 4.06 5.93.57.99-.44 4.25.97 3.6zm-.73-2.98c-1.55-3.46.25-4.08.7-1.57-1.88-1.4 1.3 2.15-.6 1.31l-.01.35zm2.4-1.43c-.33-.75.52.61 0 0zm-1.06-.52c.09-.51.09.52 0 0zm.58-.23c-.66-1.18.85 1.1 0 0zm-3.2-.66c-.08-.79.5.35 0 0zm2.47-.43c-.26-.84.37.54 0 0zm-2.82-.05c.4-.2.38.37 0 0zm.15-.34c.11-.42.24.4 0 0zm.4-.06c-.84-1.8.34-1.15.42.03l-.2.05zm1.85-.08c-1.59-1.13-3.02-3.95-.25-.86.3-.25 1.12 1.5.25.86zm-.4-.82c-1.37-1.17 1.26 1.45 0 0zm-.62-.7c-.62-.66.17.62 0 0zm.42 1.42c-.83-.48 1.06.34 0 0zm-2.98-1.2c.26-1.5-.25-1.06-.2-2.06 2 1.59 1.02 1.86.2 2.06zm.79-1.67c-.9-.76 1.35.8 0 0zm-2.13-.56c.54-.2.36.38 0 0zm.5-.28c-.64-.61 1.22.62 0 0zm-.85-.48c-.3-.54.74.61 0 0zm-.9-.7c.44-.15.04.22 0 0zm-.26-.21c.14-.3.04.5 0 0zm.3-.35c-.37-.68.6.24 0 0zm-.7-1.07c.17-.6.15.42 0 0zM4.96 505.84c2.62.35 6.8-.73 1.53-.23-.96-.82-4.56-1.74-1.53.23zm11.63-.95c-1.38-1.5-1.4 2.28 0 0zm-13.15.66c-.53-.4-.38.3 0 0zm54.14-.38c-.33-1.4-.3 1.29 0 0zM41.06 505c-.89-2.67.08-1.94-1.29-3.9-.27.85.13 4.05 1.29 3.9zm-37.73.18c-.11-.41-.25.4 0 0zm9.56 0c-.11-.41-.25.4 0 0zm22.4-.22c-.09-1.78-.95-4.29.77-3.27-.57-.6-3.8-7.43-2.63-3.59.48 3.4 1.35 4.1 1.74 6.9l.08.3zm-.78-3.24c-.44-1.26.68-.23 0 0zm18.4 3.41c.19-3.62-1.02-.6-1.13-1.3-.36-2.04-1.5.97.5 1.04 0 .28.43.64.63.26zm-.51-.53c-.1-.6.47.48 0 0zm-43.63.4c2.45 1 5.94-2.45 5.55-3.6-.14.39-1.5-.03-2.6 1.4-3.16.35-3.1 1.77-.53 1.09.03.87-5.74.78-2.42 1.1zm1.19 0c.54-.19.1.2 0 0zm1.4-.72c.9-1.03 1.89-.46 0 0zm.1-.74c.89-1.4.06.98 0 0zm.69-.3c.8-1.05 1.79.62 0 0zm.07-.65c.55-.18.1.2 0 0zm35.14 2.18c.4-.1-1.52-6.43-2.55-5.09.73-.51 2.58 5.11 2.55 5.1zm-.6-2.45c.08-.52.08.51 0 0zm-7.62 2.45c-.4-1.87-1.75-7.65-1.96-4.55.4 1.79.66 4.12 1.96 4.55zm21.97-1.47c.69-2.22-3.18-5.35-.83-1.15.13 1.42.72 4.45.83 1.15zm-.22-.83c-.13-.5.34.52 0 0zm-15.11 1.4c-.6-4.2-.45.23-.03.91zm-30.33.37c-.42-3.32-2.95 1.96 0 0zm35.62.33c-.48-2.34-1.32.59 0 0zm5 .08c-.38-.22-.1.25 0 0zm1.01-.16c-.1-.4-.24.41 0 0zm-20.69-.11c-.25-.4-.11.41 0 0zm2.76-.17c-.21-.38-.3.22 0 0zm-28.18-.17c-.49-.53-.08.44 0 0zm5.16-.17c-.4-.42-.19.56 0 0zm38.98-.08c-.46-1.33-1.15-.7-1.6-2-.26-1.71 3.7 2.75 1.98.2-1.75-.86-.97-4.1-1.44-1.2-1.77-3.09.26-3.18 1.07-1.67.22 2.08 3.17 2.4 1.78.18-1.72-5.37 2.72 4.84 2.07.34-1.61-1.86.88-.25-1.41-2.1-2.46-.23-4.35-5.13-8.02-3.9.7 1.66-4.4-.62-.41-.45 2.14-.82 9.75 4.72 7.16-.25-.38 1.46-3.55-3.4 0-.29 6 1.8-8.6-4.93-2.75-1.76-2.53-.3-2.75-.83-1.03.97-1.18-1.37-3.16-1.28-5.3-.31-1.48 1.25-.55 1.37-3.18 2.17 2.07-1.44 5.58 2.65 2.1.5 4.27 1.64-6.76-1.04-1.46.88 1.02.04-.44.57-.15 1.15-1.26-2.67-5.44-.74-1.34 1.54 3.58 3.48-3.07-3.54-.93-2.05 2.09 1.8 1.83 2.3 3.74 3.74.72 2.38 4.05 4.38 3.09 1.64.84-2.24-.39-2.2 1.34.14.52 2.42-.27.05 1.8.95.44-2.55-2.8-4.88-4.26-6.75 1.48 1.06 1.65.27 2.2 1.56 2.54 3.07.36-.05 1.74.65 0-.95-1.8-2.4.5-.58-.03-.81-2.86-3.71.08-.51.93 1.88-.33 2.26.54 4.42-.15.98.6 3.5 2.1 2.8zm-7.39-1.93c-.83-1.68 1.57.88 0 0zm3.76-1.04c-.58-2.41.23.82 0 0zm1.83-.18c-.33-.51.45.1 0 0zm5.61-.1c.08-.6.24.6 0 0zm-9.97-.42c-1.34-2.04.65.41 0 0zm3.95.14c.11-.45.36.42 0 0zm-2.32-.24c.3-.21.21.38 0 0zm5.94-.3c-.34-1.06.42.77 0 0zm-3.5-.07c-.24-1.14.33.58 0 0zm-2.69-.88c-2.34-1.8-3.96-4.57-.8-1.02.26.07 1.95 2.03.8 1.02zm-2.9.18c.38-.37.4.2 0 0zm-.5-.41c-.24-.44.72.46 0 0zm-.34-.35c.4-.22.22.4 0 0zm8.62 0c-.97-1.06 1.12.33 0 0zm-10.15-.38c.75-1.37-.13 1.14 0 0zm3.75.1c-.17-.63.62.65 0 0zm.86-.14c-1.22-1.2 1.52 1.1 0 0zm-3.08-.03c.29-.2.34.35 0 0zm7.9-.36c-1.8-.15-1.52-2.2-.24-.38-.4.02 1.4.61.24.38zm-6.44-.53c-.94-1.3 1.16 1.26 0 0zm-.33.12c-3.55-1.44.54-.3 0 0zm-4.28-.3c-.37-.73.8.4 0 0zm7.44.02c-1.54-.54-.23-.83 0 0zm-6.48-.1c-.83-.5 1.2.37 0 0zm2.58-.28c-1.48-.73 1.6.53 0 0zm3.8-.13c.15-.3.05.5 0 0zm-5.43-.36c-.3-.53.54.69 0 0zm.62-.1c.48-.77.79.55 0 0zm3.57.06c-.13-.57.33.44 0 0zm2.6-.08c-.34-.49.65.59 0 0zm.14-.26c-.42-1.03 1.13.67 0 0zm-3.87-.22c.37-.5.44.58 0 0zm1.34-.33c.25-.35.36.34 0 0zm.39-.02c.11-.41.24.4 0 0zm2.6-.05c-.91-.57 1.83.57 0 0zm-3.92-.08c-1.07-.48 1.26.36 0 0zm1.38-.33c-.75-.93 1.18.89 0 0zm4.22-.45c-.63-.75 1.5-.02 0 0zm-7.45-.09c-.32-1.04.42.7 0 0zm6.45-.22c.44-.15.03.21 0 0zm-6.39-.5c-.38-.47.83.47 0 0zm-.34-.11c.25-.4.11.41 0 0zm2 .04c.44-.16.03.21 0 0zm4.39 0c2.05-1.1 1.35.12 0 0zm-5.85-.16c-.26-.47.74.41 0 0zm9.9-.1c-1.18-.92.92.32 0 0zm-3.94-.25c.41-.22.05-.1 0 0zm-.62-.27c-.37-.95.98.74 0 0zm-.6-.18c-.16-.44.47.43 0 0zm-3.38-.08c.44-.15.03.22 0 0zm.67-.14c.31-.85.14.43 0 0zm1.85-.12c-1.25-.93.39-.39.65.11l-.15.1zm2.87.11c.11-.44.36.43 0 0zm-4.31-.07c.54-.18.1.2 0 0zm4.34-.35c.44-.15.03.22 0 0zm-1.6-.33c-.76-.6 1.4.65 0 0zm-56.45 12.42c-.2.06.15.5 0 0zm45.61-.51c-1.49-4.87-.63.34 0 0zm-.55.2c-.55-1.46.05 1.11 0 0zm5.73-.17c-.49.1.45.9 0 0zm-30.26.34c-.24-1.95-1.75.11 0 0zm22.93-.38c-.17.15.14.75 0 0zm-2.64-.47c.17-2.9-.63 1.68 0 0zm14.1.6c-.4-.2-.38.37 0 0zm-23.53-.35c-.65-.2-.12.2 0 0zm-12.96-.27c.16-.83-.55.83 0 0zm17.98-.14c-.4-.18.35.53 0 0zm7.02-.18c-.63-1.62.2 1.23 0 0zm-31.47-.2c-.8-2.54-1.85 1.1 0 0zm9.39-.12c-.93-.56-.29 1.2 0 0zm15.53.24c1.44-3.27-2.25-3.89 0 0zm-27.82-.07c-.8-2.31.98-5.04-.1-6.6 1.79-1.2 4.02-2.84 6.74-4.27-1.05.06-6.21 3.26-3.2.8-.75-1.1.47-.73.72-.33-1.43-1.75-.1-1.77.03-2.6 1.74-1.39 1.77.83 2.71-.36.36-.56-1.28-.94 1.02-.84-2.4-.84.05.32.2-1.27-.4-.98-2.6.18-1.62-1.13 1.37-1.7-2.12-1.33-1.14-2.29-.78-.88 1.7.93 1.43.1 3.05 2.8-1.36-1.55-2.85-1.92 1.52-.59 1.12.59 1.88.11 1.92-.08 2.4-3.11 1.03-1.41-2.04.5 2.52-3.2.57-3.36 2.55-1.52-4.75-2.8-4.54-3.05 1.33.1 2-1.24 3.04.37 1.47 1.19 1.26-1.65 1.73-.7-1.33 1.74 1.18 1.56 1.54 2.25 1.35-2.63-.52-3.6-3.21-4.65-.18-.72-5.01-1.02-.77-.92 2.19.2 4.44 2.37 5.05 1.46 2.28-.58-2.49-3.19.85-1.4 2.3 1.14.87-2.6 1.12-2.46 3.4 2.29-1.44-1.26 1.43.15-.86-1.75 1.03-1.27-2.33-2.98 1.65 2.34-2.62-1.82-3.55-1.16 3.36-2.84 7.7 5.68 8.91 1.08-.8-.13-3.26.52-.3-.45-1.18-1.03-1.41-2.36.66-.22.27-1.97.19.93 1.45.6 1.1-2.64.17-1.5 2.22-2.95.8.08 3.24-2.4.88-1.17-1.62 2.03-3.73-1.05-2.9-1.74-.38-2.28-3.26-.7-2.33-2.13-1.53-1.95-2.38-6.27-.56-1.61 1.2 2.51 5.72 4.13 5.5 3.06 1.12 3.55 3.78-2.62 2.37-.39-1.54.06-.96-.09-1.34-1.5 1.49.32-1.37-.89 1.91-.6 1.83-.5 1.35 1.76 2.73.05-.07-1.97-2.43-1.66-3.79-.92-2.31-.9-6.93-4.55-6.96-4.04.59 2.72-.86.05-.63-1.42 2.1 1.32 3.28 2.34 5.85 4.18 3.1 1.49 1.9-.32 1.38-.35 3.5 1.24 1.54-.27 2.7-.12 1.7-.2 2.57-1.08 3.84-1.98-2.52-.12-3.48.1-.96-2.07-2.57-1.73 1.08.64 1.1-1.65-1.28-1.86-3.94-.2-4.96.1-1.23.54-1.92-2.14-.8-.46-.24-.05 1.77-1.12-.75-1.75-1.26.6-4.24-2.08-3.11-.14-2.02-1.31-.51 1.94-2.72-.35-1.67-1.85-1.14 3.79-1.36-1.12-1-1.86-2.23 6.2-.77 4.59-.4 1.51.96 6.58-.86 2.5-.84-2.4-.22-4.65-1.92-1.04-.36 1.6-2.46 2.72-3.79 4.81-.15 2.62-2.58 3.89-.06.9-1.17-1.17-3.59 2.65-2.76 2.2-2.78 2.36-2.64 2.65-5.3 5.13.18-.31-1.63 2.38.56.37 2.35-2.2-.17 1.07 3.36-.43 2.15-.23-4.4 1.48.4.34 5.68-.02-.74.02-3.07 1.18-2.98.55-4.46 2.9-5.69 4.9-.37 2.28-6.04 7.77-1.59 3.75 1.52-1.11 1.7-5 2.37-2.38 1.26-1.8 2.06-3.01 1.66-2.86 1.54-2.1 4.97-4.25 1.17-.7-.65.9 1.1.8-1.47 2.16-2.04 3.46-.9 1.76-3.96 5.22-.92 2.58-1.76 2.43-2.28 4.05-3.06 1.36-.69 12.3-.59 4.26.08-2.55 2.15-7.25 1.51-4.17-.7 1.98-2.03 8.14-.68 6.03 1.08-2.3 2.66-6.2 2.04-2.24.92 1.82 6.1-3.32 7.07-.7-2.53.7-6.3 1-8.22 3.55 2.57-1.29-.28 1.19-.93.5-.7 2.22-1.13 7.78.14 9.48-.8-2.46.41-5.37.6-1.34.24 1.66 1.95 7.27 1.2 6.5-2.28-2.5 2.51 5 1-.17-1-3 .64-3.84 1.68-2.18-.35-3.07-2.47-3.44-2.28-.95-2.13-1.65 1.2-3.56-.54-3.43-.28-.45 1.12-4.17-.52-3.33-1.98.77-.24-5.19-1.45-2.6.58-2.11 2.7-2.2 1.13-.33 2.73-.67-1.43 3.58 1.75.87 1.1.8.55-2.53 1.8-1.1-.4.55-.55 2.69-2.3 2.72 1.5.71 2.61.64 3.93.74-.28 3.36 4.71.18 1.57 2.4-.14 2.33-2.59 7.44-.62 4.2 1.2.66-.61 5.43.51 5.22zM5 497.38c.1-.44.36.43 0 0zm-3.75-.12c-.13-.57.33.44 0 0zm-.08-.53c-.33-.5.45.1 0 0zm3.92-1.64c.25-.4.12.42 0 0zm-.34-.61c.36-.5.44-.3 0 0zm-6.4-.25c.5-1.37 1.12.22 0 0zm6.62-1c.6-.7.1.53 0 0zm2.1-.09c.1-.4.24.41 0 0zm-1.23-.03c.9-.94.18.15 0 0zm1.8-1.3c.6-.37.35.31 0 0zm-1.14-.12c.44-.15.03.22 0 0zm-.8-.38c.19-.8.19.8 0 0zm.49.1c-.39-.8 1.01.02 0 0zm.74-.17c.14-.3.04.5 0 0zm-10.06-.21c.34-.6.22.6 0 0zm9.89-.35c1.29-.64.42.57 0 0zm-1.81-.51c-.63-1.22.85 1.22 0 0zm1.1.1c.66-1.12.13.46 0 0zm-4.95-.45c.3-.22.21.38 0 0zm1.54-.38c.5-1.13.47.61 0 0zm-5.56-.08c.09-.51.09.52 0 0zm4.05-.14c.15-2 .48 1.15 0 0zm6.48.04c.32-.47 1.08.22 0 0zm-4.02-.1c-.56-1.1-2.47.11-.83-1.38-.35.92 2.58.89.83 1.39zm2.47-.18c-.36-1.02.52.47 0 0zm2.11.06c-.18-1.99 3.82-.6.26-.29l-.1.25zm-7.36-.22c.36-1.13.31.4 0 0zm6.87.01c-.05-.98.65.45 0 0zm-6.32-.44c.58-.66.03.58 0 0zm9.5.05c.3-.21.21.38 0 0zm-4.67-.2c.35-.33.35.33 0 0zm1.3-.14c.32-.62.1.77 0 0zm2.27-.25c1.69-1.36 1.07-.12 0 0zm-6.62-.03c.08-.6.23.6 0 0zm.53.04c.5-1.08.06.37 0 0zm4.33.01c.06-.56.98.1 0 0zm-3.34-.18c.15-.3.04.5 0 0zm4.1-.2c-1.74-1.54 2.58 1.18 0 0zm-7.36.23c.03-.31.59.09 0 0zm3.51-.04c-.19-.56.43.18 0 0zm-2.23-.16c.3-.2.21.39 0 0zm.22-.47c1.05-.86.07.6 0 0zm1.03.03c.57-1.24.02.7 0 0zm2.22-.04c-.9-1.26 1.31.66 0 0zm6.43.03c.16-.43.16.43 0 0zm-13.15.07c.03-.3.59.1 0 0zm5.51-.18c-1.54-1.27.5-.4 0 0zm-2.9-.17c.56.13.22.02 0 0zm-3.3-.1c1-1.42.71.3 0 0zm9.73.01c-1.03-.56 1.4-.72 0 0zm-3.23-.09c-1.08-2.24.85.5 0 0zm2.2-.02c.68-.34.67.38 0 0zm1.82-.33c.53-.35-.26.37 0 0zm2.93.01c.25-.42.37.41 0 0zm-5.57-.12c.38-.37.4.2 0 0zm-.79-.12c-.8-.45 2.18-.32 0 0zm2.42-.1c.02-.56.33.39 0 0zm.9.03c-.13-1.41.5 0 0 0zm-9.97-.26c-.54-.41.95.33 0 0zm8.43 0c.25-.4.25.4 0 0zm-.4-.12c-.14-.44.49.44 0 0zm-2.66-.2c.51-.53.51.54 0 0zm2.15.13c.54-.18.1.2 0 0zm3.15 0c-.04-.66 1.05.4 0 0zm-6.04-.16c.12-.4.25.41 0 0zm-3.75-.44c.74-.76-.48.73 0 0zm3.85.1c.25-.4.12.41 0 0zm1.15 0c-1.3-.53 1.08.07 0 0zm-5.53-.23c.24-.4.11.42 0 0zm8.92-.03c.34-.53-.12.5 0 0zm2.36.02c-.14-.57.32.44 0 0zm-10.3-.1c1.39-.82-.57.55 0 0zm5.5-.02c.52-.35-.26.38 0 0zm4.95-.21c-.24-.44.85.47 0 0zm-12.12-.05c.38-.37.4.2 0 0zm.69-.11c.35-.49.44-.3 0 0zm12.89-.5c.43-.15.03.22 0 0zm-8.2-.2c-1.75-.2.78-1 0 0zm1.99.1c.44-.16.03.2 0 0zm2.38-.04c-.34-.51.67.46 0 0zm.96-.05c-2.92-2.14 1.3-.08 0 0zm-3.84-.38c1.97-1.2.9.25 0 0zm-1.35-.25c.17-.6.15.42 0 0zm-6.9-.54c.15-.3.05.5 0 0zm8.96.08c-.76-.4 1.04.12 0 0zm-.53-.23c.7-.81.28.33 0 0zm3.2-.36c.3-.21.2.39 0 0zm-.93-.5c-1.12.14 1.58-.9 0 0zm-1.48-.43c.51-.12.35.34 0 0zm-6.96-.15c.08-.6.24.6 0 0zm7.47.1c.44-.16.03.2 0 0zm-.03-.38c1.23-.45.8.47 0 0zm2.81-.03c.54-.56.55.66 0 0zm-6.1.02c-1.34-.66 2.03-.83 0 0zm-7.88-.3c.14-.3.04.5 0 0zm14.77.07c.53-.44.29.35 0 0zm-9.76-.23c.54-.3.36.28 0 0zm1.62-.06c.9-.64-.4.64 0 0zm5.68.06c.25-.4.25.41 0 0zm-9.84-.22c.24-.42.24.35 0 0zm1.2 0c-1-1.29 1.47-.48 0 0zm5.19-.01c.3-.21.2.38 0 0zm-1.78-.1c.25-.41.12.4 0 0zm7.76.03c-.76-.83.85.33 0 0zm-12.78-.27c.25-.4.11.42 0 0zm6.45 0c.12-.41.25.4 0 0zm5.67-.11c-.15-.45.48.43 0 0zm-11.39-.13c-.95-.2 1.75-.78 0 0zm11.86-.03c-.26-.6 2.23-.75 0 0zm-6.8-.09c.53-.35-.26.38 0 0zm2.6 0c.33-.61.1.5 0 0zm3.1-.09c.17-.49 1.65 0 0 0zM.03 479c.16-.75.49-.26 0 0zm8.35-.07c.53-.35-.25.38 0 0zm.44.06c-.43-.54 1.28.34 0 0zm-6.9-.34c.05-2.3 2.57-1.35 0 0zm2.89.07c.36-.43.11.44 0 0zm-6.75-.07c.94-1.61 1.42-1.2 0 0zm7.1-.11c.15-.3.04.49 0 0zm6.5-.16c-.35-.51.66.46 0 0zm-11.33-.09c-1.13-1.9 1.2-.33 0 0zm8.91-.03c.1-.45.6.51 0 0zm.33-.2c.44-.14.03.22 0 0zm-4.26-.14c1.34-1.55.58-.17 0 0zm3.46-.08c-.33-.51.45.1 0 0zm-3.91-.14c.4-.62.17.36 0 0zm1.97-.19c-1.07-1.82.76.92 0 0zm5.32-.06c-1.91-1.54 1.22.13 0 0zm.6 0c-.16-.44.47.44 0 0zm-13.16-.1c-1.58-1.34.93-.51 0 0zm-1.35-.37c.77-1.93 2.02-1.83 0 0zm4.99-.03c2.38-1.56-.35.74 0 0zm-.54-.09c.44-.86.1.48 0 0zm-2.44-.26c.1-.54.05.69 0 0zm10.23-.01c.15-.3.04.5 0 0zm-6.98 0c.93-2.52 2.03-.48 0 0zm4.5-.01c.43-.15.02.21 0 0zm3.53 0c-1.13-.74 1.06.3 0 0zm-3.17-.15c.1-.42.24.4 0 0zm-8.63-.23c.72-.46-.24.44 0 0zm1.59-.08c.56-.72-.33.66 0 0zm9.75-.17c.6-.72-.18.72 0 0zm-10.87 0c.53-.34-.25.38 0 0zm12.9.06c-.32-.51.46.1 0 0zm-12.28-.08c.36-.5.44-.3 0 0zm5.54-.3c.65-.74-.27.67 0 0zm5.84 0c-.77-.46.53.09 0 0zm-6.3-.25c.12-.54.14-.25 0 0zm5.54.05c.44-.15.03.22 0 0zm-9.53-.21c.15-.3.04.49 0 0zm-1.88-.51c.57-1.04-.25.85 0 0zm5.98-.06c.53-.33.1.37 0 0zm2.23 0c.5-.55.25.36 0 0zm5.98 0c-.17-.59.53.55 0 0zm-5.12.01c.37-.37.4.2 0 0zm-4.44-.18c-.34-.5.67.47 0 0zm7.93-.11c-.39-.77.68.7 0 0zm-7.48 0c-.01-.53.27.38 0 0zm1.52 0c.54-1.1.22.52 0 0zm-4.63-.1c.12-.53.37.19 0 0zm.5-.08c.15-.3.04.49 0 0zm-1.29-.4c.64-.83-.3.83 0 0zm1.64-.05c1-2.24.6-.12.19-.17.02.02-.4.82-.19.17zm4.15.1c.15-.78.41.23 0 0zm-4.88-.12c-.88-1.17.7.38 0 0zm3.5-.05c.53-.35-.25.37 0 0zm7.32-.1c.38-.38.4.2 0 0zm-11.19-.12c.25-.4.12.41 0 0zm2.91.07c.36-.49.44-.3 0 0zm2.61-.18c.12-.42.25.4 0 0zm5.09-.6c-.5-1.27 2.8.64 0 0zm-2.25.06c.65-.17.11.19 0 0zm.69-.11c-1.1-.95 1.53.67 0 0zm-6.34-.21c.75-1.17 1.37-.67 0 0zm3.24-.02c.43-.16.03.21 0 0zm-3.95-.12c-.66-.86 1.02.37 0 0zm7.07-.15c.25-.42.37.4 0 0zm-1.25-.08c.44-.15.03.22 0 0zm-2.49-.16c1-.03.15.25 0 0zm-3.05-.27c1.02-.5-.64.66 0 0zm-1.78-.1c1.24-1.56 4.06-1.97.78-.48-.04-.17-.99.95-.78.48zm2.68.02c.53-.35-.25.38 0 0zm1.7-.03c.36-.49.45-.29 0 0zm2.15-.15c.44-.15.03.22 0 0zm-3.33-.38c.25-.4.11.42 0 0zm.52-.07c.65-.17.12.19 0 0zm1.72-.52c.62-.36-.1.32 0 0zm4.32-.32c-1.37-.7 2.3.44 0 0zM7.27 470c.93-.44.84.37 0 0zm-1.96-.1c.9-1.14 3.3.02 0 0zm1.52-.24c-.25-.4-.11.41 0 0zm9.3.05c-.1-.79.68.72 0 0zm-12.45-.38c.34-.96.5-.78 0 0zm1.5.15c.7-.57-.44.54 0 0zm4.4-.25c-.35-.49.64.58 0 0zm-1.72-.26c.37-.42.12.44 0 0zm2.45 0c-1.14-.39 3.15-.09 0 0zm2.58 0c.72-.34.65.19 0 0zm-11.48-.15c.36-.5.44-.3 0 0zm15.15-.12c2.06-.05-1.03.31 0 0zm-4.11-.05c1.52-.75 1.8 0 0 0zm1.43 0c.14-.78.31.25 0 0zm-11.58-.06c.35-.5.44-.3 0 0zm13.06-.37c-1.98.06-1.55-1.5.19-.05l.09.22zm-.85-.4c-.24-.4-.1.42 0 0zm.35-.1c-.37-.42-.25.41 0 0zm3.4.5c.24-.6.08.6 0 0zm-13.16-.05c.37-.43.12.44 0 0zm-2.95-.26c.35-.53-.12.5 0 0zm14.59-.05c-.13-.5.34.53 0 0zm-9.65-.18c1.42-1.2.06.34 0 0zm5.5-.1c.26-.37.49.34 0 0zm-1.32-.1c-.35-.68.85.52 0 0zm4.46-.16c-.15-.87.56.62 0 0zm-3.04-.18c.25-.4.25.4 0 0zm.57.03c.65-.16.12.2 0 0zm.64-.13c-.01-1.27.76.53 0 0zm-5.45-.12c.43-.64.5.04 0 0zm3.61-.2c-1.57-1.13 1.66.92 0 0zm-3.06 0c.15-.3.05.5 0 0zm5.76.08c.11-.45.36.42 0 0zm-3.94-.24c-.14-.55.45.47 0 0zm-3.4-.05c1.06-.88.35.07 0 0zm-1.53-.17c.25-.4.12.41 0 0zm6.1-.1c1.45-.13.27.27 0 0zm1.44-.13c-2.84-1.56 3.9.38 0 0zm1.37-.24c-2.56-.81-5.44-1.27-1.03-.68.45-.47 2.37 1.69 1.03.68zm2.43.17c-.9-.5 1.2.44 0 0zm-12.96-.22c1.02-1.05-.57 1.03 0 0zm4.22-.06c1.06-1.24-.76 1.23 0 0zm2.39.2c.96-1.03.64-.06 0 0zm5.16-.14c-.51-.46.8.48 0 0zm-4.03-.09c.34-.53-.13.5 0 0zm3.2.03c.3-.22.2.38 0 0zm-8.58-.1c.18-.6.15.42 0 0zm5.1-.09c.44-.15.04.22 0 0zm.37-.26c-.45-.38.73.3 0 0zm-1.56-.2c-1.9-.37.27-.24 0 0zm8.85-.08c-.53-.8.9.62 0 0zm-4.7-.5c-1.49-1.02 1.68.6 0 0zm-3.6-.05c-.58-1.99.68.83 0 0zm1.65-.33c.3-.2.21.39 0 0zm6.2-.04c-2.33-1.12-.6-.93.47.15zm-5.06-.18c.28-.2.33.35 0 0zm-5.18-.23c.72-.46-.24.44 0 0zm14.23-.08c-.38-.48.47-.03 0 0zm-6.54-.31c-.2-.59.46.5 0 0zm4.83-.18c-.98-1.14 1.24 1.09 0 0zm.98 0c.25-.4.25.4 0 0zm.74-.06c-3.41-.66 2.73-.63 0 0zm.64-.04c.63-.62.57.3 0 0zm-9.26-.13c-.38-.47.83.47 0 0zm-.85-.16c.9-.64-.46.48 0 0zm2.63-.02c.15-.3.04.5 0 0zm.53-.05c-.25-.43.85.46 0 0zm-8.9-.35c1.1-1.14-.83 1.2 0 0zm3.48.24c-.45-.38.74.31 0 0zm8.48-.16c-1.9-.84-5.82-1.9-3.28-1.63-.03-.24 4.67 1.84 3.28 1.63zm-3.99-.07c-.36-.56.56.4 0 0zm.7-.1c-.1-.55.74.25 0 0zm4.22-.14c.3-.21.22.39 0 0zm-11.95-.12c.53-.35-.25.37 0 0zm7.42.02c.25-.41.11.4 0 0zm.94-.12c-.26-.44.84.46 0 0zm2.36 0c.12-.44.36.43 0 0zm5.72 0c.45-.43.44.16 0 0zm-18.13-.11c.84-.78.33.12 0 0zm2.12-.1c1.09-.94.37.06 0 0zm7.17.02c.44-.15.03.21 0 0zm4.37-.16c-.13-.75.46.63 0 0zm-12.98.01c1.25-1.42.5 0 0 0zm.75-.53c-.06-.54 1.16-1.35 1.97-1.7-.73 2.1 3.57 1.06-.1 1.36-.33-1.37-2.17 1.14-1.87.34zm10.69.18c.11-.41.24.4 0 0zm-9.96-.2c2.15-1.02-.74.82 0 0zm1.22.13c.43-.16.03.21 0 0zm13.81-.04c-.38-.47.83.47 0 0zm-16.73-.14c.32-.63.2.53 0 0zm10.38.02c.54-2.26 2.68-.57 1.63-.54-.27.28-.86.06-1.63.54zm1.97 0c.11-.4.24.41 0 0zm.67-.04c-.24-1.3 1.07.64 0 0zm.87 0c-.11-1.16.53.66 0 0zm-4.2-.07c.11-.41.24.4 0 0zm4.65-.07c-.37-.69.38-.4 0 0zm1.5-.04c-.05-.42.7.35 0 0zm-13.4-.13c.3-.2.21.39 0 0zm2.9-.04c1.13-.58-.16.39 0 0zm1.73.04c.52-.35.53.2 0 0zm.54 0c-.13-.57.33.44 0 0zm6-.12c-1.23-1.48.2-.48.1-1.55 1.22-1.18 3.28 2.69.46.2.56 1.35.48.61-.57 1.35zm1.64-.9c-.37-.4-.25.42 0 0zm4.42.95c.44-.15.03.22 0 0zm-12.99-.15c-.24-.44.72.46 0 0zm-.4-.31c-.35-.5.64.58 0 0zm1.29.08c.3-.22.2.38 0 0zM9 459.88c.25-.57.38.06 0 0zm6.63-.2c.45-1.33.01.76 0 0zm-6.87-.16c.59-.65.03.58 0 0zm8.22.13c.23-.46.42-.01 0 0zm2.65-.27c-.34-.5.77.65 0 0zm-4.35.01c.54-.18.1.2 0 0zm-5.54-.37c.26-1.2 1.62-.57 0 0zm1.06-.42c1.36-.95-1 1 0 0zm4.7.2c.39-.35.39.35 0 0zm.4-.37c.24-.4.24.41 0 0zm3.61-.1c.22-.89.66 1.01 0 0zm1.46.1c-.37-.72.55.35 0 0zm-4.26-.07c-.32-.56.8 0 0 0zm1.83 0c.43-.16.03.21 0 0zm-6.38-.08c.45-.4.63-.18 0 0zm4-.15c.55-.18.1.2 0 0zm10.3-.27c-.44-1.53.64 1.27 0 0zm-15.04.09c.88-1.35.45.17 0 0zm11.37-.03c-.25-1 .88.8 0 0zm2.35-.18c-.84-.77 1.03.72 0 0zm-8.67.04c.43-.15.03.22 0 0zm.84-.17c.81-.19-.4.33 0 0zm.75.09c.55-.56.51-.1 0 0zm1.23-.07c.12-.44.37.43 0 0zm-2.86-.22c-1.11-.53.53.12 0 0zm-3.31-.3c1.02-1.47.45-.15 0 0zm3.56-.05c.73-.8-.3.57 0 0zm1.26.04c.54-.18.1.2 0 0zm6.08-.04c.12-.41.25.4 0 0zm-12.56-.11c.58-.8.25.25 0 0zm15.13 0c.24-.41.11.4 0 0zm-3.95-.52c-.71-1.02 1.05 1 0 0zm-2.02.05c.3-.21.22.38 0 0zm-6.9-.22c.25-.4.12.41 0 0zm-1.26-.45c1.55-1.48-1.14 1.56 0 0zm14.12.1c-1.98-.5.55-.08 0 0zm5.08-.04c-.4-.74.65.1 0 0zm-17.56-.13c2.9-1.37-.54.7 0 0zm7.85-.05c.12-.45.37.42 0 0zm.83-.16c.05-.74.15.72 0 0zm2.32.18c-.64-1.2 1.3.7 0 0zm-8.7-.25c.84-.78-.28.64 0 0zm3.69.12c0-.54.46.2 0 0zm4.43-.11c-.4-.63.86.16 0 0zm1.84-.24c.08-.52.08.51 0 0zm1.85.11c-.14-.44.49.43 0 0zm-8.66-.45c-1.25-2.05-.24-.87.5.28l-.11.01zm1.72 0c-1.73-1.02 1.14-.02 0 0zm-6.76.1c.22-1.07 2.18-2.46 0 0zm2.37.07c.78-.72.67-.17 0 0zm6.41-.13c.15-.3.04.5 0 0zm3.28-.02c-.35-.76 1.03-.25 0 0zm4.65-.1c-.44-.53.73.48 0 0zm-13.58-.12c.55-.18.1.2 0 0zm.57-.04c.25-.4.11.42 0 0zm5.84-.08c.6-1.2.98.26 0 0zm1.18.05c-1.43-1.43 1.29.38 0 0zm-11.33-.1c.53-.34-.25.38 0 0zm9.48.02c1.2-.6-.01.45 0 0zm-5.4-.34c-1.4-.5 1.65.03 0 0zm5.25-.14c-1.86-1.75 2.3.51 0 0zm-1.05-.4c.44-.15.03.22 0 0zm2.02-.05c-.91-.8 1.1.3 0 0zm-9.22-.12c.53-.34-.25.38 0 0zm.82-.05c-.8-.64 1.86-2.5.24-.18.64.04.07.35-.24.18zm.78-.16c-.34-.5.67.47 0 0zm.47-.16c.54-.84-.16.78 0 0zm7.37.16c.11-.41.24.4 0 0zm4.26-.18c-.93-.82 1.07.6 0 0zm-9.91-.2c-.81-1.19.87.86 0 0zm-.77-.06c.75-.76-.48.73 0 0zm11.04.04c-.47-.56.77.53 0 0zm-5.21-.29c.11-.41.24.4 0 0zm2.44-.45c-1.87-1.4 2.5 1.15 0 0zm1.99.22c.34-.4.66.34 0 0zm1.57-.06c.88-.65-.41.63 0 0zm-12-.07c.54-.34-.24.38 0 0zm1.58.06c-.34-.75.42.07 0 0zm8-.13c-.34-.49.64.59 0 0zm-10.4-.31c.78-1.32.17.6 0 0zm12.58.17c-.35-.56.57.4 0 0zm-11.43-.11c.25-.41.11.4 0 0zm.6-.12c.1-.51.1.52 0 0zm6.4.05c0-1.9.58.7 0 0zm-8.65-.16c1.05-.85-.7.82 0 0zm14.17.11c.71-.46-.25.44 0 0zm1.28.06c1.62-.8.45-.06 0 0zm-.7-.17c-.14-.45.49.43 0 0zm-.59-.37c1.22-.56-.62.83 0 0zm-12.1-.04c.14-.3.03.49 0 0zm3.3-.3c.01-.57.7.8 0 0zm4.46-.01c-.31-.73.72.85 0 0zm-8.67.06c-1.6-.39 1.97-2.35.1-.43-.13.03.1.76-.1.43zm6.19.01c-.06-.9.57.4 0 0zm5.15-.18c-.7-.47 1.56.22 0 0zm1.07-.12c.97-.59 1.23.03 0 0zm-11.51-.26c.21-1 .06 1 0 0zm7.27.1c.44-.16.03.21 0 0zm2.46 0c.54-.18.1.2 0 0zm3.17-.15c-.32-.55.67.01 0 0zm-13.22-.08c.44-.15.03.21 0 0zm10.94 0c.44-.15.03.21 0 0zm.41-.14c.36-.53.43.18 0 0zm1.26.02c.44-.15.03.22 0 0zm-6.95-.32c-.36-.77 2.1.2 0 0zm3.38.06c.28-.2.33.35 0 0zm4.28-.2c.52-.39.38.33 0 0zm-5.44-.11c.44-.15.03.22 0 0zm-.5-.11c-.2-.73.7.45 0 0zm5.15-.21c-.34-.74.58.47 0 0zm-.49-.06c.38-.42.38.42 0 0zm-11.97-.11c0-1.04.38.38 0 0zm6.4-.12c-.64-1.06 1.11.88 0 0zm3.63.05c-.21-.37 1.33.42 0 0zm-.87-.05c-1.27-.3 1.87.21 0 0zm1.73.03c-.98-.24.7-.61 0 0zm.27-.05c.62-.36-.1.32 0 0zm.5-.17c.43-.15.03.21 0 0zm-2.56-.12c.43-.15.02.22 0 0zm2.38-.38c-.73-.81 1.62.57 0 0zm1.07.2c.7-1.52 3.07-1.95.64-.54-.38-.08-.43.35-.64.54zm-8.05-.38c-1.87-3.19 1.05-.89 1.6-1.19-1.45-1.84 2.31 1.32-.04.6-.94 1.18-.82.5-1.56.59zm-2.22-.32c-1.26-3.42 1.29 0 0 0zm13.04.25c.29-.85.08.5 0 0zm-.1-.62c.1-.5.45.74 0 0zm-7.55-.1c-1.62-1.46 2.42.64 0 0zm1.3-.17c1.05-.32-.46.4 0 0zm.74 0c.37-.43.52.41 0 0zm-8.43-.8c.25-.4.11.41 0 0zm5.72 0c-.53-.4 1.02-.3 0 0zm-.9-.12c.12-.41.25.4 0 0zm-2.01-.5c.17-.58.31.4 0 0zm-2.75-.25c.14-.3.04.49 0 0zm6.89-.05c-.25-.44.71.46 0 0zm-6.8-.46c.52-1.56.26-.3 0 0zm.6-.36c.36-1.41 0 1.3 0 0zm11.87 57.37c-.16-1.29-1.43.2 0 0zm12.26-.08c-.24-.4-.11.42 0 0zm-8.77-.12c-.43-.94-.55.5 0 0zm26.55-.3c.4-3.78-3.22-9.36-5.71-9.94 3.07 1.04 6.32 11.18 2.55 4.26-2.4-3.85.45 2.25-.43 1.12 1.47.94-3.33-2.69-1.04.08 1.23.1 1.98 2.64 2.64 2.46-.75-3.81 1.64 4.45 1.56 1.18.24.5.59 2.07.43.84zm-.6-1.8c-.56-2.56.49 1.49 0 0zm-1.89-2.2c-1.26-2.44 1.62 2.21 0 0zm-1.75-.42c-.8-.93.92.87 0 0zm.24-2.23c-.83-1.18.7.66 0 0zm-46.2 6.2c1.18-2.2-2.09 1.72-3.87.32 1.3.16 2.73.59 3.87-.33zm46.31.5c-.64-2.05-.18.67 0 0zm-40.08-.16c-.6-1.6.24-4.26-1.16-.61-1.18.82.24.8 1.16.61zm-1-1.37c.15-.3.04.5 0 0zm32.2 1.2c-.56-.52.41.98 0 0zm-33.67.06c1.36-2.6-1.5.26 0 0zm15.41.04c-.6-1.84-4.87-5.17-1.8-1.35.44.02 1.3 1.84 1.8 1.35zM-4 501.34c-.26-2.04-1.04-6.69-.6-1.52.38.17-.01 1.63.6 1.52zm-.48-2.81c.09-.52.09.51 0 0zm19.8 2.75c-.26-.41-.26.4 0 0zm-5.23-.23c-.11-.42-.25.4 0 0zm-8.81-.22c-.47-.48.1.6 0 0zm44.33-.2c-.62-1.61.14 1.58 0 0zm-39.76.07c-.49-1.16-.47.93 0 0zm52.38.12c-.12-.41-.25.4 0 0zm-51.59-.16c3.12.23-2.66-1.13 0 0zm33.54-.41c-.64-1.22.12.89 0 0zm-30.24-.26c1.16.38-.2-4.65-1.61-2.07.76.44-.58 1.58.64 2.14l.45.1zm-1.1-1.14c-.36-1.4 1.68.55 0 0zm-8.54 1.03c-.19.06.15.5 0 0zm38.88-.17c-.63-2.13.02 1.45 0 0zm14.67.12c-.36-.51.3.82 0 0zm-16.79-.36c-.16.18.16.9 0 0zm-40.92.04c-.72-.91.5 1.17 0 0zm17.84-.22c2.12.4.17-2.49-.83.3l.34-.13zm23.94-.29c-1.61-3.65-2.3-1.85 0 0zm17.13.48c-.58-.7-.02.46 0 0zm-46.88-.15c-.5-.44.14.4 0 0zm45.67.06c-.2-.38-.3.22 0 0zm-36.11-.63c2.55-3.45-1.73.5 0 0zm.05-.9c.26-.9.38.36 0 0zm17.74.86c-1.2-1.53 1.06 1.6 0 0zm-22.24-.02c1.07-2.33-4.89 1.21 0 0zm22.88.1c-1.88-3.25-3.26-2.11 0 0zm-32.67-.21c-.35-.6-.23.6 0 0zm29.15-.5c-1.12-3.34-.07 2.08 0 0zm-16.3.33c-.13-.44.83-2.61-1.15-1.36.2-.77 2.13-1.8 1.21-2.53.2.04-3.44 3.73-.05 3.9zm-11 .04c-.39-.22-.1.25 0 0zm8.6-.05c-.12-.41-.25.4 0 0zm7.88 0c-.43-.35-.61.46 0 0zm8.27-.03c-1.16-4.32-5.22-6.67-9.05-8.23-3.91 0-2.19-.47.58-.56-1.13-.02-1.42-2.47-.99-3.32.41-1.1-1.53.15-1.88-1.6-1.62-1.17 2.92.75-.73-.86-1.69-.9-3.22-2.38-3.92-.46.13 1.82 2.94 2.79-.46 1.33-.98 2.92 4.61.43 1.66 1.67-.08 1.38 3.05-.38.17 1.09.78 2.15 4.5.44 3.49-.35 1.06-1.68 2.16 3.13-1.02 1.72-2.84 1.04-1.36.86-1.08 2.01 2.86-.51 6.74.16 8.18 1.87 2.27 1.3 3.5 3.94 5.05 5.69zm-12.6-7.76c.24-.4.1.42 0 0zm.11-.53c.77-.18.15.18 0 0zm0-.56c-.34-.58 1.01.62 0 0zm-.71.02c.52-.35.52.2 0 0zm2.46-.17c-1-.55 1.8.06 0 0zm-.93-.13c.25-.4.25.4 0 0zm-.82-1.97c-.28-.75 1.02.4 0 0zm-.78-.26c1.02-.72.34.53 0 0zm1.32-.18c-.61-.86 1.03.86 0 0zm.4.05c-2.09-1.95 1.5.16 0 0zm-1.01-.28c-.22-1.09.66.72 0 0zm-.63-.46c-.61-.51 1.44.26 0 0zm2.74-.14c.72 0 .28.31 0 0zm-5.23-.16c.43-.15.03.21 0 0zm1.78-.11c.3-.07-.46-3.27.61-.6-.6-.45.24 1.2-.61.6zm1.54.07c.11-.41.24.4 0 0zm.35-.04c-1.47-1.46 1.76.2 0 0zm-4.15-.42c-.38-.47.83.47 0 0zm3.18-.42c.66-.16.12.2 0 0zm-2.76-.78c-.51-.85.79.58 0 0zm2.78-.22c-.4-.64.9.64 0 0zm.55.05c.4-.2.38.37 0 0zm-2.32-1.1c-.51-.45.8.5 0 0zm-.84-.11c.1-.38.8.49 0 0zm17.45 15.43c-2.34-.37-1.48-8.07-2.37-3.34 1.05-.13-.19.59.76 2.17.22.46 1.1 1.7 1.6 1.17zm-1.63-2.53c.02-.56.33.38 0 0zm8.56 2.46c-.7-.92.47.98 0 0zm-28.02.05c-.11-.4-.25.41 0 0zm-.2-.31c-.06-.95-.6.9 0 0zm27.67-.1c-.54-.64.36.92 0 0zm-25.72.1c-.88-.18-.16.2 0 0zm26.23-.26c-.47-.82.26.81 0 0zm-25.47 0c-.28-.2-.34.35 0 0zm14.56-.08c-.73-.79-.5.4 0 0zm-8.36-.44c-.06-.47-.56.73 0 0zm18 .23c-1.68-3.37-3.62-1.87-5.1-2.65.3.1 3.4 3.06 2.03 1.46 1.19-.01 1.83-.5 3.06 1.2zm-2.9-2.44c.21-.2.92.34 0 0zm-7.72 2.31c.68-.96-1.32-.24 0 0zM3 496.74c-.27-.97-.34 1.14 0 0zm15.66.17c-.37-.19-.12.53 0 0zm9.21-.04c-1.04-.7.56.8 0 0zm-17.98-.06c.17-2.24 2.5 1.06 2.44-1.54 2.1 2.08 4.07-1.03 1.4-2-.17.4-1.63-2.42-2.06-1.15.66.05-6.86 3.5-3.64 2.75.87.6.68-1.12 1.43-.4 1.74-2.07-.39.38-.49 1.28 1.35 1.34-1.09.35.92 1.06zm-.78-1.54c.16-.57.31.42 0 0zm4.8-.02c-.58-1.35 2.59.04 0 0zm.52-.43c-.04-.3-.6.1 0 0zm-1.82.4c.15-.25 1 .03 0 0zm-2.57-.24c.11-.44.36.43 0 0zm.4-.23c.24-.4.1.41 0 0zm3-.16c.24-.46.42-.01 0 0zm-.62-.26c.56-2.47.33.34 0 0zm-1.25-.5c-.4-.8 1.1.54 0 0zm.98-.28c.84-1.3.89.65 0 0zm-1.6-.42c.53-.35-.25.37 0 0zm-.66-.08c.38-.35.38.35 0 0zm1.67.05c.04-.3.59.1 0 0zm20.3 3.6c-.01-2.33-2.82-4.94-.96-1.39-.29.82.23 1.55.96 1.4zm-29.2-.5c.22-1.64-1.82.24 0 0zm9.77-.03c-.23-1.03-.71 1.12 0 0zm.9.25c-.03-.3-.58.1 0 0zm6-.05c-.26-.43-1.37.45 0 0zm15.7-.16c-.58-.24.3.57 0 0zm-17.24.02a8.4 8.4 0 0 0 3.81-2.27c.64-.65 2.88-.8-.31-1.15-.23-2.34-4.67 1.26-1.07-1.38-2.82-.57-4.02 1.81-4.3 3.14 3.03-1.52 1.31.71.8.84-.28.47.69 1.17 1.07.82zm.45-.58c.53-.35-.25.37 0 0zm1.08-.69c.53-.35-.25.38 0 0zm-.4-.15c.36-1.8.6.32 0 0zm.8-.03c.44-.15.03.22 0 0zm-.32-.37c.36-.44.67.41 0 0zm-.9-.15c-.97-.88 1.1.38 0 0zm1.44-.1c.3-.2.21.4 0 0zm-3.75-.08c.48-.8.73.28 0 0zm3.4-.36c.53-.42.38.42 0 0zm-2.36-.11c1.5-1.38.76.39 0 0zm1.08 0c.72-1.97 3.83-.8.86-.51-.45-.1-.51.96-.86.5zm1.88-1.15c-.12-.42-.25.4 0 0zm.78 1.14c.4-.22.22.4 0 0zm-.14-.3c.15-.3.04.5 0 0zm-3.85-.2c1.4-.95.62.2 0 0zm.58-.5c.43-.14.02.22 0 0zm.72-.53c.46-.5-.2.54 0 0zm.57.04c.37-.59.59.08 0 0zm8.48 4.07c-.48-.44-.55-.23 0 0zm-30.23-.31c-.4-.17.35.53 0 0zm11.35.08c-.55-.67-.03.63 0 0zm-7.59-.1c-.88-.95.2.67 0 0zm18.73.05c-.28-.2-.33.35 0 0zm-16.34-.3c0-1.24-.4.98 0 0zm3.04-.17c.05-.7-.67.58 0 0zm37.8.03c-.64-.89-.65.05 0 0zm-3.56-.14c-.53-.45-.28.35 0 0zm-23.74-.57c-.25-.41-.25.4 0 0zm11.69-1.3c-.45-2.46-1.16-3.9-.93-1.76-.4-.99-1.59-2.09-.61.7.68-.08 1.4 2.93 1.54 1.07zm-.3-.27c-.33-.89.38 0 0 0zm-1.1-1.44c-.07-.98.32.59 0 0zm7.56 2.16c-2.26-2.76 4.18-7.65-1.53-4.68-2.52-.32-5.76 3.47-2.38 3.01.1.52.94-2.61 2.16-2.56-2.16 1.41-2.03 5.92-.15 1.8-.26.75-1.12 4.31.65.91.6-.45 1.46 1.5-.04.95-.73.55 1.44 1.07 1.3.57zm-1.91-1.28c.5-1.91.4.02 0 0zm1.26-.52c-.42-.8.59.31 0 0zm-1.78-1c1.85-2.27 1.73-1.07 0 0zm-1.09 2.73c.61-.54-1.11-.9 0 0zm-6.13-.34c-1.32-.61.44.73 0 0zm-9.83-.12c-.36-.42-.11.44 0 0zm33.88-.05c-.45-.63.15.61 0 0zm-45.78-.09c.24-2.82-1.9.11 0 0zm12.52.04c3.25-2.61-2.2 1.08.66-1.39 3.18-1.78-.73.67-1.03-1.6-2.18-.32.44.32-1.65.29 1.46 1.1 1.49 1.9 2.02 2.7zm-.03-1.4c-.13-.57.33.44 0 0zm-.51-.3c.65-.16.11.2 0 0zm.05-.8c.44-.15.03.22 0 0zm-1.36 2.03c-.7-.24.36.52 0 0zm-19.9-.37c-.05-1.76-.19 1.64 0 0zm7.36.35c.48-1.2-.98.31 0 0zm13.82-.54c-.4-.62-.18.36 0 0zm29.42-.23c.75-.74-1.06.42 0 0zm-31.1-.31c.28-2.22-2.21.72 0 0zm12.62-.6c.05-1.8-5.86-7.75-2.88-3.49 1.2 2.43 1.51 1.59 1.9 2.87-1.17-1.71.99 2.69.98.62zm-3-3.76c-.32-.51.46.1 0 0zm13.44 3.86c-.25-.41-.25.4 0 0zm9.92 0c1.83-1.15 8.03-1.8 2.35-1.55-1.93.56-3.63.78-3.37 1.61zm.82-.12c-.48-.53-.07.45 0 0zm-9.58-.75c-.41.36-.26.7 0 0zm-23.77-.4c-.37-.4-.26.43 0 0zm-20.15-.24c-.38-.19-.13.53 0 0zm21.33.02c-.37-.41-.25.42 0 0zm-16.46-.12c-.37-.42-.52.42 0 0zm10.57-.07c-.38-.22-.1.25 0 0zm6.23-.1c-.78-.93-1.51-3.09-1.23-.48-1.2-.15 1 1.1 1.23.48zm-1.08-.5c.34-.56.43.4 0 0zm-4.83.34c.03-.23.02-.16 0 0zm.75-.21c-.5 0 .3.6 0 0zm16.1-.35c.66-2.23.07-9.85-.34-3.4.7 2.96-1.73 2.78-.15 3.27.3-1.24-.05 1.32.48.13zm-.13-.9c-.33-.52.46.09 0 0zm-.02-2.23c-.13-.57.33.44 0 0zm-13.05 2.92c-.53-1.79-.45 1.37 0 0zm.35.05c-.33-1.26-.36 1.36 0 0zm-14.44-.2c-.39-.42-.39.4 0 0zm20.5-.19c.14-.62-2.17-.19 0 0zm1.57.02c-.03-.3-.59.1 0 0zm1.32-.3c-2.43-2.3.32 1.2 0 0zm-28.22-.53c-.3-.42-.13.78 0 0zm6.06.19c-.11-.44-.36.43 0 0zm20.7 0c-.5-.44.13.4 0 0zm-7.64-.29c-.38-.6-.38.62 0 0zm-19.29-.18c.82-.91.14-7.51-.44-1.7.07.16-.17 2.52.44 1.7zm25.2.2c-.14-.28-1 .12 0 0zm-4.7-.64c-.94-.7-.25 1.4 0 0zm12.35.2c-.17.11.16.63 0 0zm-32-.22c1.04-2.06-1.18 1.42 0 0zm29.17-.36c-1.41-4.06-1.61-2.46 0 .47zm.6-1.13c-.5-1.13.4 2.45 0 0zm1.2.73c-.46-3.43-.62.7 0 0zm-13.71-.77c-.65-.64.22.92 0 0zm8.89.25c0-1.51-3.74-1.23-3.73-3.44 1.21-.73 2.95 3 2.91 1.07 1.56.74-1.05-2.36.94-.48-.79-1.9-7.3-6.4-6.29-2.6-1.54 3.04 1.28 1.01 1.97 1.54-.54.59-2.58.88.18 1.77 1.63.23 2.37 2.54 4.02 2.14zm-1.29-2.83c-.32-.84.73.85 0 0zm-3.8-.1c.04-.62.54.54 0 0zm-1.12-.9c-.76-.6 1.3.36 0 0zm2.54-.21c-.5-1.69-.08-.65 0 0zm-2.74-.35c.7-.56-.44.55 0 0zm4.02-.05c-1.67-2.5.87.3 0 0zm-1.63-.1c.25-.41.11.4 0 0zm.45-.17c-.08-.43.78.38 0 0zm-1.32-.03c-.41-.73.7.18 0 0zm-1.05-.36c.15-.62.3.48 0 0zm2.44-.21c.54-.18.1.2 0 0zm-2.58-.3c-.07-.48.9.38 0 0zm1.03-1c.55-.36.7.45 0 0zm9 5.93c-.03-4.04-.42 2.59 0 0zm-11.92-.26c-.24-.6-.08.6 0 0zm.27-.31c-.39-.18.35.53 0 0zm-15.44-.28c2.3-2.45-1.55-.63 0 0zm15.24-.5c-1.32-.02-.04-.15 0 0zm-.11-.4c1.32-.33.18-5 .2-2.93.53 1.97-2.88 1.35-.33 3.1zm9.75-.2c-.03-3.75-1.32.1 0 0zm-.22-.4c-.33-.5.45.1 0 0zm5.25-.21c2.03-7.05-3.35 2.44 0 0zm-.69-.73c.17-.78.3.62 0 0zm-2.73 1.03c.8-1.9-1.8-3.45-.92-.6-.12.4.5 1.54.92.6zm-8.14-.77c-.73-.03-.33.57 0 0zm-2.04.08c-.17-.57-.31.42 0 0zm8.96-.69c-.39-2.25-.3 1.74 0 0zm1.49.2c-.02-3.6-.66-2.1 0 .36zm-2.84.1c.33-.73-1.42-.22 0 0zm3.37-1.39c.08-1.43-.88-2.15-.48.24l.14.04zm-4.28.12c-.85-1.56-1.3-.63 0 0zm1.92-.32c1.13-.77-.71-.64 0 0zm1.22-.02c-.34-.61-.3.84 0 0zm2.7.14c-.32-1.06-.12.61 0 0zm-14.21-.26c-.24-.6-.08.6 0 0zm13.65-.05c.86-1.06-1.2-.32 0 0zm-11.63-.35c-.12-.42-.25.4 0 0zm8.95-.34c-.89-1.81-.29 1 0 0zm-8.99-.3c.05-1.74-1 1.14 0 0zm4.62.3c-.26-.52 1.25-.21 1.16-1.31 2.05 3.47-1.02-2.81-1.9-2.98-.26-.5-.8-2.23-2.13-2-.21 1.64-3.3 3.7-.62 2.77.48 1.08.68-.9 1.07.3 3.2-2-.97 1 1.61 3.2.06-1.2.22.45.8.03zm-.97-.94c-1.48-.86 1.04.33 0 0zm1.13.07c-.35-1.32.84.68 0 0zm-4.26-2.4c-.43-.55.74.47 0 0zm.1-.29c.12-.41.25.4 0 0zm2.37-.58c-.13-.57.33.44 0 0zm-1.94-.35c.53-.35-.26.38 0 0zm1.6-.37c.09-.28.79.1 0 0zm-.81-.46c-.58-.8.67.5 0 0zm.49-.15c.54-.18.1.2 0 0zm.61-.04c.3-.21.21.38 0 0zm-4.18 5.27c-.12-.4-.25.41 0 0zm11.38-.54c2.21.38-1.33-2.95-1.53-4.67-1.1.42-.14 1.95.33 1.82 0 .7.6 4.8 1.2 2.85zm-.4-.64c1.3-1.66-.27.7 0 0zm-.62-1.3c-.33-.51.45.1 0 0zm5.58 2.43c2.2-1.36 3.5-5.67 1.21-1.54-.67 1.1-4.29 1.49-1.21 1.54zm-12.17-.43c.55-2.27-3.45-1.56-2.76-.46.7.06 1.56 1.01 2.76.46zm-.52-.09c.93-.32-.44.42 0 0zm-1.46-.42c.55-.18.1.2 0 0zm.82-.2c-.65-1.43 1.1.66 0 0zm.49 0c.37-.36.54.2 0 0zm5.96.12c-.67-1.08.2 1.1 0 0zm-26-.64c1.4-4.06-1.8 2.77 0 0zm25.22.46c-.5-.25.14.53 0 0zm9.92-.52c.23-.76-.86.98 0 0zm-9.88-.12c.46.48-2.85-3.83-.9-3.12-.57-4.65 1.03 1.69.6-.42.16-3.55 1.23 2.4 1.52-.75 1.23 1.94 1.48-1.43-1.05-1.52-1.53-1.25-1.47.88-1.96-.53-1.51 1.94-.74 6.44 1.8 6.34zm-1.92-2.46c.11-.44.36.43 0 0zm-.05-1.04c.3-.2.21.39 0 0zm.6-.28c.31-.42.16.57 0 0zm2.23-.47c-.33-.52.45.09 0 0zm-2.27-.33c-.27-.84.36.53 0 0zm1-.13c.13-1.24.5-.46 0 0zm.8-.13c-.35-.48.64.59 0 0zm7.43 4.67c1.68-1.2-2.6.52 0 0zm-16-.23c.39-.47-.82.47 0 0zm.8-.23c-.35.7-.2.4 0 0zm2.9-.18c-.35-.54.16.82 0 0zm12.17.01c.15-.6-.81.66 0 0zm-6.3-.34c-.68-.66.31.78 0 0zm4.65-.18c-1.52.13 2.64-1.4-.48-.94 1.47.48-1.24.11-.65.8-.69.2 1.08.84 1.13.14zm.4-.5c.26-.4.01.51 0 0zm1.92.53c-.2-.53-.32.63 0 0zm-9.34-1.21c-.36-.5-.45-.3 0 0zm-5.86-.25c-.93-.52.43.57 0 0zm15.98-.14c-.94-1.04-1.98.81 0 0zm-1.25-.16c-.14-.6-.45.8 0 0zm-7.9-.55c-.44-.71.2.77 0 0zm4.05-.22c-.92-2.44-3.48-1.65 0 0zm-7.09-.04c.95-3.89-1.2-1.4-1.11-1.16-.84-.04.88 1.95 1.11 1.16zm-.2-.25c.25-.57.38.06 0 0zm-.55-.2c0-.96.59.6 0 0zm.55-1.24c-.35-.56.57.4 0 0zm14.12 1.72c1.43-1.41-3.33-.17-1.46-1.44-1.78.57.56 1.98 1.46 1.44zm1.67-.64c.5-1.26-.91 1.24 0 0zm-18.48-.13c-.16.15.15.75 0 0zm-15.24-.43c.59-.84-.8.21 0 0zm27.32-.4c4.42-2.19-5.2-1.15 0 0zm4.3-.15c3.39-2.34-3.35.83 0 0zm-15.46-.14c-.21-.38-.3.22 0 0zm7.56-.17c-.8-1.18.47-.69 1.5-1.03 2.26.92.05-1.93-1.18-3.21.66-1.72.34-.54 1.86.28 2.56-2.3-2.4-1.14-.69-2.73.54-2.27.86.11.56.56 2.8-.02.13-3.22-1.34-1.69-1.33 1.32-.48 3.5-1.52 3.78-.28 1.46-.23.1-1.88 1.23 3.03 1.44-3.16.05.26 1.55 1.35.2.7.67 2.43 1.26zm.62-1.5c-1.23-1.48.45-.06.42-.75.9-.24-.15 1.24-.42.75zm-3.5-.45c.11-.42.24.4 0 0zm1.8-.54c.44-.15.03.22 0 0zm1.5-.72c.4-.2.38.37 0 0zm-.99-.96c.38-.38.4.2 0 0zm1.16-1.99c.86-1.21-.48.83 0 0zm.86-.83c.38-.41.26.42 0 0zm-.7-.21c-.31-.73.54.19 0 0zm8.67 7.14c-.04-.65-.56.7 0 0zm-33.05-.17c.46-1.51-.68.86 0 0zm14.9-.08c-.37-.53.27.85 0 0zm1.9-.22c.35-1.27-1.1 1.07 0 0zm12.57.13c-.21-.38-.3.21 0 0zm-10.74-.29c.54-.88-1.32-1.79 0 0zm-.7-.35c-.1-.41-.24.41 0 0zm14.37.05c-.38-.22-.1.25 0 0zm.77-.05c-.12-.44-.37.43 0 0zm-15.99-.4c-.82-.47.12.97 0 0zm12.68-.06c-1.19-.88-3.86-3.86-2-.5.57.17 1.37.87 2 .5zm-12.9-.45c-.25-.4-.12.41 0 0zm18.42-.43c4.42-5.44-1.8 1.29 0 0zm.58-.1c-.28-.23-.66 1.12 0 0zm-16.11.13c-.18-1.9-2.7-1.38 0 0zm14.6-.06c-.12-.41-.25.4 0 0zm-8.28-.46c-.48-.41-.26.44 0 0zm8.87-.12c1.5-1.1-.69-.11 0 0zm-13.75-.5c4.54-2.58-3.7.06 0 0zm7.57-.36c.06-1.71-1.71-1.04 0 0zm4.06-.05c1.26-.66-.6.07-.54-1.84.08-1-2.05 1.48.04 1.81.07-.01.72.35.5.03zm-7.88-.4c-.25-.6-.25.6 0 0zm2.85-.32c.46-1.88 2.7.93 3.92-1.79 2.57-1.05-3.29.4-3.47-.58-1.4-1.61-1.28 2.45-.45 2.37zm1.65-1.23c.4-.82-.13.82 0 0zm-.86.07c.36-.49.45-.29 0 0zm.5-.05c.12-.53.37.19 0 0zm1.08-.48c-.15-.44.48.44 0 0zm1.08-.24c.52-.35.52.2 0 0zm-8.08 1.8c-.2-.39-.3.21 0 0zm-2.03-.57c.68-1.02-1.07.07 0 0zm17.41-.83c.5-1.94-1.7 2.22 0 0zm-22.02-.1c-1.05-.93.01.46 0 0zm-1.24-.3c-.93-.6-1.55.34 0 0zm18.08-.21c-.11-.42-.25.4 0 0zm5.6-.04c-.2-.53-.2.53 0 0zm-24.67-.36c-.23-.6-.07.6 0 0zm19.74-.07c.39-.73-1.28.74 0 0zm-20.18 0c-.38-.4-.38.42 0 0zm22.07-.1c-.11-.45-.36.42 0 0zm.2-.56c-.4.12-.2.34 0 0zm-6.55-.26c1.26-.09 7.32-4.14 2.93-2.63-.1 1.55-1.23.82-.07-.46-3.5-.59-.9 1.42-2.07 1.39.88 1.22-.55.58-1.34 1.9.08-.04.59 0 .55-.2zm.34-.33c.25-.4.12.41 0 0zm-1.23.4c-.21-.38-.3.22 0 0zm-1.77-.28c-.94-.23 2.23-1.93-.78-.29.17.23.46.59.78.29zm7.52-.08c4.46-2.37-5.15.04 0 0zm-8.5-.09c-.36-.5-.08-.17 0 0zm3.2-.48c.5-.24.45-.15.98-1.66-.95-.57-2.1 2.65-.98 1.66zm7.04-.3c-.63.13-.53.96 0 0zm1.34.05c-.86.04.34.2 0 0zm-7.55-.25c.38-.48-.83.46 0 0zm6.21-.35c.61-1.77 1.81-.08 1.85-2.2-1.65.8-1.9 1.18-2.98 1.13.54.42 1.23.9 1.13 1.07zm-8.22-.05c2.58-1.4 1.31-4.56.23-1.04.29-2.16-.93 1.65-.23 1.04zm.88-2.16c.35-.52-.12.5 0 0zm.25.07c.12-.85.35.25 0 0zm-3.57 1.55c.44-2.24-4.46-2.02-1.52.29.5 0 1.12.1 1.52-.3zm15.64-1.33c1.37-5-.55.15 0 0zm-.55.21c.5-1.19.81-3.01-.25-.28-.3-.06.32.7.25.28zm-8.96-.62c2.4-.35.6-4.33-.32-1.74-.09 1.06 1.12-.43-.2 1.9l.24.02zm-.28-.19c.08-.51.08.52 0 0zm.55-1.68c.54-.18.1.2 0 0zm3.75 1.8c1.23-1.96 1.88-.82 3-1.49 1.14-1.39-.8-1.49-2-.46-.48 1.57-2.83.1-.61-.42 1.09-1.37-.38-2.12 2.39-2.79 1.05-.9 3.06-2.76-.1-.93-1.47 2-5.3.75-5.4 3.5.41 1.45 1.37-2.26 2.03-1.04.18.52-2.44 1.4-.76 2.05 1.5.19-3.87 2.11.3 1.74zm-2.45-.12c.38-.4.26.42 0 0zm.94-2.4c.25-.42.37.4 0 0zm1.43-1.08c1.14-.8.31.27 0 0zm-1.68-.24c.24-.6.08.6 0 0zm-2.89 3.7c-.19.07.15.5 0 0zm8.3-.7c.33-1-1.96 2.13 0 0zm-8.8.45c2.2-2.76-1.44-.22 0 0zm-.6-.85c-.45.03-.03.56 0 0zm-1.28.1c.48-1.62-.75-.27 0 0zm.65-.27c-.25-.33-.22.42 0 0zm11.56-.05c.8-1.77-1.21.6 0 0zm-12.9-.37c-.25-.43-.37.4 0 0zm8.57-.12c-.1-.41-.24.4 0 0zm.52-.3c.2-.53 1.93-2.4.87-1.5-.25.32-2.12 1.18-.87 1.5zm2.88-.2c-.37-.37-.53.2 0 0zm1.97-.42c-.76-.2-.32.92 0 0zm-1.3.02c-.18-.43-.85.67 0 0zm-7.69-.43c-.95-.13.14.58 0 0zm6.04.03c-.03-.31-.59.09 0 0zm-7.87-.51c-.2-1.02-.45 1.17 0 0zm8.2.14c-.13-.43-.18.58 0 0zm-6.74-.3c.44-1.59-1.85.83 0 0zm11.27-.32c-.96 1 .1.35 0 0zm-3.27-.47c3.28-4.63-2.2 1.69 0 0zm3.07.24c-.11-.63-.19.76 0 0zm-3.78-.4c-.36.17-.06.62 0 0zm4.01.15c-.19.06.15.5 0 0zm-1.04-.78c.91-2.42-1.92 2.76 0 0zm-23.84.43c-.31-.28.3.62 0 0zm13.68.03c-.79-.9-.24.63 0 0zm-2-.31c-.78-.4-.46.32 0 0zm3.43-.06c.52-.85-1.74.33 0 0zm1.28.02c-.1-.44-.59.52 0 0zm1.6-.66c.36-1.61 1.33-1.24.55-1.86.16.3 3-2.7.5-1.34-1.83.63-.77.77-2.85 2.72-.87.79 1.58.79 1.8.48zm-1.7-.02c.25-.4.12.41 0 0zm.36-.15c.9-.94.17.15 0 0zm.58-.81c.36-.5.44-.3 0 0zm.5-.25c.46-.5-.2.58 0 0zm-.6-.09c.62-.7.8-.02 0 0zm-2.9.86c-1.17.12.03 1.16 0 0zm1.46.19c1.77-1.72.77-2.58-.04-.4-.41-.4-1.55 1.56.04.4zm5.97-.01c-.47.02-.18.63 0 0zm2.86-.09c1.14-2.74.36.84 1.28-2.6 2.46-3.65.73-6.77-.23-1.4 1.75-4.3.24 1.51-.64 1.6.53.36-1.52 3.56-.4 2.4zm-8.52 0c-.12-.41-.25.4 0 0zm5.94-.96c-.09-1.71-.62 1.66 0 0zm-2.3.31c4.01-4.11-2.81.78 0 0zm-4.58-.7c-.44-.18-.44 1.18 0 0zm-15 .19c-.2.06.14.5 0 0zm20.03.07c-.08-.6-.24.6 0 0zm-7.35-.42c1.99-2.02-1.26.75 0 0zm.8-.1c.8-.87-1.33.76 0 0zm1.82-.05c1.5-1.84-.85.68 0 0zm5.77-.25c1.52-2.48 3.87-5.32 1-2.79-.33 1.02-2.27 3.1-1 2.79zm1.86-.08c2.85-3.99-3.56 2.15 0 0zm-5.65.3c.13-2.03-1.46-1.11 0 0zm9.17-.88c.08-2.37-.43 3.03 0 0zm-11.44.12c1.39-1.24 2.92-4.81.91-4.06-1.47.96.71 2.54-.83 2.9-.38.1-1.3 2.51-.08 1.16zm.98-2.38c.3-.66 1.2-.24 0 0zm-.1-.37c.03-.3.59.1 0 0zm.44-.3c.12-.4.25.41 0 0zm.25-.4c.62-.65-.17.63 0 0zm.94 3.21c.45-.63-.9.56 0 0zm-3.77-.43c.05-1.04-.64.6 0 0zm13.32-.95c-.32-2.07-.29 2.37 0 0zm-7.67.2c2.23-.71 2.78-3.12 1.51-2.13-1.11-.53-3.44.8-3.7 1.55-.3.63.63.9 2.19.57zm-1.15-.53c.18-.78.13.6 0 0zm.96-.6c.18-.86.43.26 0 0zm-4.33 1.09c.34-.92-.84.41 0 0zm8.77-1c-.53.07-1.5 1.5 0 0zm1.2-.01c1.52-.84.25-1.74-.2.37zm-.2-.13c-.36-.2-.11.52 0 0zm-9.47-.21c.27-1.89-1.14.82 0 0zm-.42-.58c-.12-.41-.25.4 0 0zm-1.88-.11c-.25-.42-.37.4 0 0zm-1.57-.18c1.48.67 5.98-2.39 3.41-2.11-.53.87-5.6 1.58-3.41 2.11zm3.3-1.3c.12-.52.37.2 0 0zm3.84 1.24c-.77-.32.26.4 0 0zm6.36-.64c2.26-3.78-.34-1.31-.59.54zm-7.3.25c.51-1.03-.5.3 0 0zm6.6-.18c.37-.77-.66.75 0 0zm-2.12-.36c.67-1.54.46-2.07.97-2.45 1.24-3.01-2.85 2.46-.9-.4 3.99-5.04-3.6 1.42-2.67 3.06 1.8-.64 1.87-1.8 1.97-.02.4-.37.05.72.63-.19zm-.29.04c.25-.6.45.03 0 0zm-1.57-.7c.39-.64.25.08 0 0zm1.33-.47c-.48-1.84 1.05.91 0 0zm-.84-.22c.24-.41.11.41 0 0zm1.48-.4c.23-.6.07.6 0 0zm.2-.62c.12-.53.37.19 0 0zm-.35-.93c-.06-.8 1.3-.32 0 0zm-39.7 2.59c1.36-2.5-2.3 2.6 0 0zm25.24.68c.36 1.51 10.43-3.15 5.15-1.56 1.42.15-2.11 1.8-.38-.16-3.08 1.16-8.97-1.33-7-1.7-3.48-2.64-.08 1.15-.11 1.24-1.48-.3 1.9 2.38 2.34 2.18zm-.23-.81c.41-.35 2.24.29 0 0zm9.75.24c0-2.53-2.47 2.42 0 0zm1.34.22c-.32-.26-.33 1.27 0 0zm4.58.3c3.02-.6-.46-1.2 0 0zm-4.78-.65c.87-.81 3.55-3.16 2.3-3-.83.1-3.55 3.36-2.3 3zm.35-.78c1.91-1.5-.58.87 0 0zm1.03-1.1c.48-.83-.25.8 0 0zm.35.11c.36-.43.11.44 0 0zm-17.4 1.37c-2.44-4 3.2 1.86.56-2.2-1.7-3.63-2.5-2.91-1.65 1.14-.27.11 1.2 2.1 1.1 1.06zm-.78-2.86c.25-.4.25.4 0 0zm-.17-.49c-1-1.36.93.82 0 0zm12.73 3.52c.41-.62-.89.65 0 0zm11.87-.6c.3-1.4-.8 1.79 0 0zm-48.57.2c-.12-.4-.25.41 0 0zm38.97-.1c.52-.43-.27-.2 0 0zm-38.59-.16c-.38-.26-.93-.07 0 0zm33.17-.2c1.52-.5-.87-1.05-1.32-1.83.93-1.2-2.77-.86.63-1.37-1.92-1.22 6.31-3.81.77-2.24-1.76 1.32-6.52-1.43-1.94-1.4 1.69-1.82-.94-2.04 1.96-1.95.01-.74-4.97-.5-6.92.37-3.07-.77-2.18.45-.66 1.21 1.35 1.08 8.3 2.88 2.65 3.33-3.41-1.21-.89-1.12-.42-1.58-2.3-.34-5.6-1.07-1.74 1.35 2.29.83 6.81 2.49 1.83 1.39-4.08-2.16 2.4 3.16 4.1 2.78zm-1.18-.1c.84-.47-.26.43 0 0zm-.74-1.36c.04-.72.7-.83 0 0zm-3.38-.89c-1.59-1.17 1.74.9 0 0zm-.64-1.73c.66-.17.12.19 0 0zm5.3-.6c.38-.42.38.4 0 0zm.3-.35c.87-.4-.29.45 0 0zm-7.74-2.98c.25-.4.25.4 0 0zm-19.56 7.9c-.25-.4-.11.42 0 0zm33.84-.3c-.04-.86-1.14.94 0 0zm-2.08-.09c1.85-1.05-1.18-.1 0 0zm3.1-.47c2.1-1.14 1.23-3.35-.1-.74-.4-1.2-1.35 2.83.1.74zm-.47-.4c.3-.22.21.38 0 0zm1.15-1.03c.07-.8.23.8 0 0zm7.66 1.35c.9-1.7.51-8.4.1-2.65-.31-5.09-.32 1.03-.05 1.12-.14.25-.62 3.28-.05 1.53zm.3-3.42c-.17-1.9.64.62 0 0zm-55.33 3.79c-.24-.4-.11.41 0 0zm6.38.05c-.38-.23-.1.24 0 0zm.35-.13c1.03-.88-1.4-.37 0 0zm34.85-.19c2.05-2.16-3.24-.78-.7.21zm4.41-1.05c1.41-3.35-2.95 2.62 0 0zm-2.2.18c2.44-1.69-1.7-1.47-.72.21l.21.1zm-4.21 0c-.36-.73 4.06-2.28.4-1.55-.96.37-1.16 1.55-.4 1.54zm14.01-.18c-.26.19-.14.55 0 0zm-1.02-.4c1.78-1.3 1.03-10.7 1.94-3.9.61-2.26-.77-11.84-.66-4.86.32 3.2-1.02 5.98-1.92 8.59.8-1.19 1.22-.3.64.17zm-3.44-.05c.16-.66-.8.78 0 0zm-38.09-.1c-1.02-.64 2.96-1.3.73-1.32 1.2.12-3.12-3.29-1.54-1.88-.52 1.49-1.25 1.56.26 2.96.16.07.31.68.55.25zm.05-.76c.93-.33-.44.42 0 0zm-.69-.12c.11-.41.25.4 0 0zm.44-.23c.25-.4.12.42 0 0zm.1-.28c.55-.56.51-.1 0 0zm38.73 1.2c-.26-.42-.37.4 0 0zm-4.32-.46c2.91-3.38-1.23.46 0 0zm4.04.02c1 .26 2.66-2.56.69-1.17-.5-1.51.89-.13 1.69-2.75-.27-.43.27-2.44-.05-2.28-.88.08-.43-.3-1.72 1.2-2.36 1.2-1.56 3.12-1.42 2.68-2.15 2.1-.89 1.47-.05 1.49-1.35.33.25 1.52.86.83zm-.54-.07c1.08-.86.57.42 0 0zm-.07-.52c.92-.72 1.78-.65 0 0zm1.58-.08c.35-1.09.08.68 0 0zM40 438.5c1.73-1.82-.46.83 0 0zm1.19-.16c.34-.52-.13.5 0 0zm.55-.83c.34-.97 1.3-1.02 0 0zm-.56-.16c-.09-.7.71.18 0 0zm-.25-.57c.63-1.05-.26.82 0 0zm.44-.18c.27-.62.8.19 0 0zm-.47-.28c.68-.84-.6 1.18 0 0zm1.27-.1c-.53-1.33.53.57 0 0zm.59-.48c.7-.75-.42.79 0 0zm-.74-.1c.91-1.47.23.1 0 0zm-.1-.7c.25-.4.11.41 0 0zm.84-.23c.37-.4.25.42 0 0zm-19.71 5.16c-1.06-.8.38.76 0 0zm20.7-.66c-.59.3-.18.94 0 0zm-12.76.22c-.53.1-.12.29 0 0zm3.64.03c2.51-1.2.09-3.06-.5.12zm2.2-.04c-.16-.17-.04-.1 0 0zm1.34-.03c-.37-.19-.12.53 0 0zm-31.48-.33c2.19 1.08 0-4.5 2-2.77 1.01 3.74 1-.82 1.8-2.27 1.44-2.29 1.51-3.17.42-3.62-.38-1.15-.94 3.78-2.6 4.9.2-.97 1.78-5.05 2.15-6.01 1.36-3.2.1-6.4.6-8.73-.03-4.56-1.32-2.05-.63.78.2 2.37-1.75 1.25-1.96 2.02.43-.25-2.76.84-.25 1.23 2.41-.76 2.3-1.18 2.64 1.82-.39-2.6-3.23.34-1.3.04 1.55.76.83 1.83-.38 2.53-3.52.55 1.56.76-1.52 1.57 1.28-1.48-2.55-.14-.6.39-1.75 2.47-4.9-1.27-6.23-3.82.67-.77-.9.97.61 1.5 1.05.97 1.18 4.08 4.24 4.91 1.34-.02 2 1.17 2.46-1.97 1.25-1.42-.3 4.22-.67 2.64-.77 1.58.83 1.77-.85 3.87 1.27-.62-1.82 2.29.07 1zm.39-.43c.1-.82.66-.19 0 0zm2.13-1.94c.2-1.63 1.26-1.7 0 0zm.54-1.63c.52-2.3.3.22 0 0zm.44-1.4c.28-.86.08.5 0 0zm-3.2-.37c1.47-1-.48.59 0 0zm-.05-.91c.52-.36.52.2 0 0zm-.82-.2c.53-.35-.25.37 0 0zm2.69-.38c.18-.79.12.6 0 0zm-1.42-.37c-.1-.5.48.64 0 0zm.19-.39c-.45-.37.73.32 0 0zm1.38-.23c-.38-1.42 1.17-1.84.8-1.1-.23-.1-.1 1.48-.8 1.1zm1.37-4.81c-.13-.58.33.43 0 0zm-.63-.11c-.35-.5.66.47 0 0zm-.25-2.45c-.39-.55.76.5 0 0zm1.02-1.06c.43-.16.03.21 0 0zm.09-1.6c.54-.19.1.2 0 0zm-.17-1.53c.25-.41.25.4 0 0zm.14-.8c.12-.42.25.4 0 0zm32.22 20.6c-.32-.35-.35.96 0 0zm-6.15-.16c1.73-1.67-1.34.29 0 0zm1.81-.12c2.97-2.8-1.66-1.99 0 0zm5.68-.05c.1-.8-.4.81 0 0zm-44.54-.11c-.25-.41-.25.4 0 0zm43.75-.36c-.6-.13-.26-.1 0 0zm-44.07.14c1.11-.84-2.54-.83-.13-1.96-.83-1.48-1.52-1.16-1.5-2.12-1.61-.74 3.11 1.5.12-.42-.08-1.38 2.46-1.22.25-1.64-1.29 1.42-.02 1.4-2.12 1.46-1.86-.35-4.2-1.73-1.96.02-.11-1.07 1.73 2.62 3.14 2.43.98 3.07-4.48-3.62-1.08.9 1.18 1.3 2.4.94 3.28 1.33zm-3.13-1.41c-.34-.51-.2-.22 0 0zm2.17-.28c.4-2.1.26.11 0 0zm.4-.16c.1-.51.1.52 0 0zm-3.2-.4c.08-.6.24.6 0 0zm1.77-.8c-.26-.85.37.53 0 0zm-.9-.06c.7-1.2 1.66-.36 0 0zm-1.08-.8c-.13-.58.33.43 0 0zm5.7 3.83c.4-.93-.31-1.18.35-1.2-1.26-2.06-1.82-.84-.8 1.06l.28.19zM0 436.6c-.6-.78.77.59 0 0zm33.23 1.52c.15-.95-.61.73 0 0zm3.22.04c-.11-.42-.25.4 0 0zm-43.26-.46c-.9-.83.53.78 0 0zm41.51 0c-.39-.77-1.05.71 0 0zm-40.67 0c-1.76-1.74-1.5.1 0 0zm12.26-.24c.71-1.74-.62-.32 0 0zm31.2-.8c1.01-2.37.87-1.8 2.36-1.82 1.4-.53 2.97-4.96 2.5-2.89-2.36 3.17 1.54 1.42 1.07-1.32.94-.64-.95 3.47.96.4 1.14-2.81-.87-1.4-1-1.88-1.37 1.74-2.46 1.9-4.5 3.57a10 10 0 0 1 3.04-3.27c1.68-1.74-.35-2.92.3-3.96 1.46 2.87-.97-5.21.99-.13.72.34-.87-2.21-.96-3.03.55-1-2.8-8.5-2.31-7.57.73 3.67 2.55 6.72 1.76 10.43-.64-.95-2.55 4.33-1.13 3.94 2.14-1.28-1.05 2.04-1.71 2.27-.35 2.76-.8 4.13-2.3 4.69-1.26 1.35 1.87-.22 0 1.27.34-.07 1.07-.14.93-.7zm1.92-2.02c.7-1.6-.36 1.49 0 0zm.46-.9c-.21-.54.45.5 0 0zm.67-1.03c1.52-.94.31.6 0 0zm-1.77-.5c.24-.42.1.4 0 0zm2.3-.18c1.39-1-.64.88 0 0zm.06-.8c.38-.36.4.21 0 0zm2.76-1.1c-.15-.44.48.44 0 0zm-3.25-2.23c.31-.4.04.55 0 0zm2.46 9.33c-.37-.2-.12.52 0 0zm-11.81-.25c2.46-1.12-1.35-1.93-1.6.08 0 .86 1.55-.4 1.6-.08zm-17.7-.3c-.02-.57-.33.38 0 0zm-12.53-.19c-.32-.45.12.57 0 0zm43.2-.34c-.3-.01-.2 1 0 0zm-38.3-.02c-.35-.73 0 .97 0 0zm5.12.2c1.18-5.12-.7-3.75 0 0zm21.88-.58c4.55-2.03-1.29-1.72-.32.23zm2.1.09c1.76-2.23-1.9.42 0 0zm-35.15-.58c-1.12-1.54-.3.48 0 0zm32.23.08c-.39-.22-.1.25 0 0zm4.61-.26c1.5-1.58-1.08.35 1.01-1.23-.1 1.6.23-2.96.76-4.33-.17-2.22.84 3.07 1.28-.4.69-4.89-1.34-.9-2.69 1.43.31 1.32-1.6 2.2-.7 4.74zm.46-1.46c.52-.65-.2.95 0 0zm-.71-.14c.51-1.31.2.42 0 0zm.1-1.05c.24-.4.11.41 0 0zm2.56-4.07c-.3-1.65.49 1.14 0 0zM.33 435.18c-.25-.4-.25.4 0 0zm5.66-.12c-.11-.4-.25.41 0 0zm24.96-.12c-.93-.18-.24.45 0 0zm-24.12-.28c.65-1-1.05.93 0 0zm34.39.06c-.11-.41-.25.4 0 0zM-1 434.18c-.35-2.81-1.26.61 0 0zm22.61.37c-.2-.6-.2.6 0 0zm-7.07-.33c1.9-.38 7.23-3.16 5.23-2.88-1.53 1-2.76 1.26-3.53 1.2-.23-.17-3.51 3.14-1.7 1.68zm.41-.48c.86-.58-.32.62 0 0zm1.34-.55c.03-.3.59.1 0 0zm2.42-.86c1.12-1.03 1.38-.37 0 0zm5.95 1.97c1.54-.54 3.66-3.29.26-1.04-2.8.12-1.55 1.37-.26 1.04zm-18.03-.04c-.11-.41-.24.4 0 0zm-2.17-.05c-.2-.38-.3.21 0 0zm31.06-.53c.27-1.25-2.1 1.35 0 0zm-29.68.12c-1.2-.6.02.46 0 0zm22.92 0c1.67-1.03-2.04-.6 0 0zm-24.74-.33c-1.28-.79.79 1.03 0 0zm19.63-.77c3.56-1.43-8.15.66-2.16.5.29.85 1.62-.75 2.16-.5zm6.59.64c-.56-.5-1.29.57 0 0zm1.1-.11c1.02-1.1 2.88-.12 3.72-1.56 1.17.54-.56-.45 1.18-1.17.47-3.14.05-1.72-1.38-.87-1.72.63-4.54 3.09-3 3.05-.51-.08-2.6.8-.51.55zm2.1-.9c-2.98.81 1.68-2.57.41-.4 1.06 0-.63 1.01-.42.4zm-1.58-.41c.47-.87.34.25 0 0zm2.57-.72c.76-1.17 1.61-.03 0 0zm1.15-.58c.76-1.02.55.68 0 0zm-.13-.6c.84-1.05-.62 1 0 0zm.55-.11c.24-.4.11.41 0 0zm.1-.47c.3-.2.2.39 0 0zm7.68 3.56c-.24-.4-.11.42 0 0zm-43.9-.23c0-2.85-1.1.81 0 0zm-3.1-.03c-1-.15 2.32-1.13-.79-1-1.1.37.1 1.52.79 1zm39.21-.25c-.36.17-.06.62 0 0zm-.68.04c-.37-.2-.13.52 0 0zm8.77-.08c-.08-.5-.29.85 0 0zm.59-.15c-.06-1.5-.22 1.66 0 0zm-28.63-1.2c1.8-2.74-4.36 3.75 0 0zm-.74.41c.25-.4.12.42 0 0zm-14.72.63c.7-.38-.66-2.6-.37-.51l.37.69zm11.28-.29c.15-.96-.72 1.07 0 0zm6-.03c1.52-1.37-2.17 1.1 0 0zm-20 .22c-.2-.39-.3.2 0 0zm1.42-.65c-.26-1.02-1.19-.1-.9-1.44.58-1.98.36-1.54-.44-3.83-.96-2-.44-3.96-.86-4.42-.6 2.12.23-2.22-2.08-1.18-.1.87 1.48 1.73.15 2.91.26.71 3.38 3.62 1.2 2.42-.04.47-1.98.85.42 1.69 2.34-.56-1.24 1.71-2.53 1.14 1.1 2.16 3.72.98 3.62 1.69.18.07 1.52 2.68 1.42 1.02zm-2.3-2.1c-.38-1.1.8.45 0 0zm.44-.3c.11-.41.24.4 0 0zm-.94-.2c.72-.6.72.12 0 0zm1.79-.48c-.24-.88 1.03 1.13 0 0zm-.31 0c-.15-.45.48.43 0 0zm-1.4-1.12c-.29-.53.55.69 0 0zm.8-.25c.4-.62.18.37 0 0zm0-.24c-.53-2.24.7-1.93 0 0zm-.48-2.12c.62-.65-.25.65 0 0zm-.4-.16c-.4-2.18.76-.07 0 0zm.14-1.29c-1.68-1.3 1.23.1 0 0zm.6-.32c.11-.42.25.4 0 0zm-1.13-1.07c1.22-.35-.83.54 0 0zm2.12 9.7c-2.1-2.78-1.15 1.37 0 0zm-.34-.22c.15-.3.04.49 0 0zm1.87.26c-.52-.23.13.59 0 0zm22.91.1c.5-.54-.9.52 0 0zm-9.22-.22c.52-2.18-.38-1.37 0 0zm18.13.15c-.38-.41-.38.42 0 0zm-12.41-.16c-.96-.39-.22.25 0 0zm17.34-.46c-.5.26-.16.75 0 0zm-13.85 0c2.01-1.97-2.54 1.03 0 0zm8.58.1c.68-1.15-.65-2.92.45-4.17 1.13-.55 1.61-3.95-.21-.95.72 1.93-3.76 5.14-1.86 4.92-1.48-1.17 1.33-.28 1.62.2zm-.25-1.25c.17-.57.32.42 0 0zm13.7 1.17c-.1-.67-.28 1.02 0 0zm-44.74.1c.37-1.89-1.09.4 0 0zm13.2-.47c-.36.17-.06.63 0 0zm12.12.24c-.25-.92-1.27.5 0 0zm-13.52-.1c1.17-1.73.48-.91 1.13-3.06-.76-3.05-1.8 1.4-1.72 2.48-.28.23.69 1.1.6.58zm.03-1.57c0-.83.65.73 0 0zm.36-1.04c-.51-1 .67.8 0 0zm.3-.28c.31-.37.23.37 0 0zm-6.95 2.63c1.35-2.4-2.84.04-.16.29l.16-.05zm13.18.13c2.53-.87-.98-1.55 0 0zm-18.13-.16c-.12-1.13-.6.37 0 0zm13.9-.3c2.14-1.67.22-6.3.23-1.8.19.21-1.09 3.27-.23 1.8zm-15.17.06c-.34-2.65-1.5.59 0 0zm6.94.1c-.11-.41-.25.4 0 0zm-6.02-.45c-.02-.56-.32.38 0 0zm-.9-.35c-.6-.74.3 1.06 0 0zm.46.23c-.25-.4-.25.4 0 0zm.8.06c-.22-.38-.3.22 0 0zm22.11-.06c-.25-.42-.37.4 0 0zm4.32-.14c2.38-1.73 2.43-2.13.65-1.43.1-1.11-2.16 2.67-.65 1.43zm1.05-1.18c1.05-.43-.45.63 0 0zm-5.02.86c-.3-.83-.17.98 0 0zm-22.8.13c-.13-2.63-.94-.6 0 0zm34.78-.02c.05-.7-.68.58 0 0zm9.96-.37c-.17.12.17.64 0 0zm-45.54-.19c-.62-.43.33 1.07 0 0zm35.13-.12c1.62-1.63-.33-4.46.94-7.21 1.88-2.52-.93 2.08 1.26.67.62-.35 1-4.26-.28-2.18-.94.2.84-5.09-.16-6.38-.43 1.69-.13 4.2-.91.37-1.65-3.23 2.14.73.5-2.87.04-2.06-3.4-6.93-.98-1.79a35 35 0 0 1-4.46-6.27c1.27 2.95 3.28 5.78 3.53 8.65 1.1 2.46.32 4.84 1.74 6.58-1.59.63-1-1.4-1.62-3.47-.47-.47-.33-5.13-1.47-4.95-.27 1.53-2.08-4.3-.98-2.79-.29-1.74-3.74-5-.98-.65-.8-1.76-4.66-6.55-5.05-5.87 3.14 2.2 3.09 3.8 3.74 5.62 1.3 3.15 2.63 2.1 3.13 5.63.89 1.63-1.15 7.35.86 6.04.3 1.33-1.1-.1-.54 1.82.58-.54 2.47-.4 1.96 1.62 1.28-1.1-.66 1.61-.44 2.76-.68.97-1.76 2.6-.67 2.72.35.84-1 3.46.88 1.95zm0-.42c-.12-.92.54.13 0 0zm-.16-.66c.13-2.06.43.6 0 .03zm-.08-1.21c.1-2.5.29 1.36 0 0zm-.28-.58c.16-1.47.3.58 0 0zm.8-3.17c.43-.15.02.22 0 0zm1.4-.28c.08-1.01.42.33 0 0zm-1.24-1.97c-1.6-2.75 1.07-2.9 0 0zm.58.02c-.32-1.75.7.63 0 0zm.22-.42c.03-.57.52.07 0 0zm.12-.53c-.6-3.03.83-1.32 0 0zm-1.95-1.66c.25-.41.25.4 0 0zm2.08-.49c-.74-.48.24-1.96 0 0zm-2.78-.8c-.29-1.1.36-.19 0 0zm-.36-.61c-.26-2.5.92-.5 0 0zm.33-.68c-.46-.64.1.79 0 0zm1.47.98c.02-.56.33.38 0 0zm0-.7c-.17-1.81.72 1.36 0 0zm1.46-.19c-.46-1 .73.5 0 0zm-2.44-.1c.24-.59.08.61 0 0zm1.15-1.97c-.42-2.24.52.96 0 0zm-1.3-.83c.1-.51.1.52 0 0zm1.17-1.23c-2.07-2.62-.34-1.43.2.2zm-1.92-.14c-1.04-1.67.62.21 0 0zm1.9-1.1c-.35-.76.42.07 0 0zm-5.88-5.3c-.32-1.02.44.82 0 0zm.14-.48c-1.15-.79.52.06 0 0zm-9.63 24.72c.25-.86-.84.67 0 0zm3.32.14c-.1-.41-.24.4 0 0zm15.52-.5c-.57.18-.14.77 0 0zm-34.39-.24c-1.26-2-1.61.15 0 0zm4.36.2c4.47-1.75-3.64-2.33-2.77-.95.03.21 1.75 1.58 2.77.95zm9.68-.3c.67-1.88-1.23 1.74 0 0zm5.72.38c-.11-.44-.36.43 0 0zm-2.46-.11c-.38-.42-.38.42 0 0zm3.93-.34c-.58.76.15.15 0 0zm7.46-.02c3.03-3.32-2.85 1.4 0 0zm12.65.36c1.94-2.05-2.59-10.48-.57-3.99.1 1.18-.03 3.36.57 3.99zm-.34-2.01c.15-.3.05.49 0 0zm-39.91 1.9c-.25-.41-.12.4 0 0zm15.15-.42c-.71.08-.35 1.15 0 0zm13.4.18c.03-.82-.49 1.11 0 0zm-29.14.15c-.44-2.3-.94-.73 0 0zm9.67-.4c-.7-.01.38.9 0 0zm7.66-.07c.46-2.43-.77 1.44 0 0zm3.06-.47c-.7.16-.72 1.51 0 0zm11.28.7c1.14-2.06-.33-1.43.06-1.25-.58-1.78-.95 2.28-.06 1.25zm-.34-.47c.18-.6.15.42 0 0zm8.28.38c.79-4.1.06-9.56-3.27-12.34.32 1.43 1.43 3.4 2.09 4.29 1.2 2.37.75 6.5 1.18 8.05zm-5.86.07c-.12-.41-.25.4 0 0zm5.56-.05c-.23-3.84-1.33-.14 0 0zm-41.49-.2c-.66-2.78-.34.95 0 0zm16.87-.05c1.28-1.55-1.23.07 0 0zm-5.24-.33c-.4.17 0 .65 0 0zm8.47 0c.68-1.84-.96 1.38 0 0zm5.09.29c-.12-.42-.25.4 0 0zm10.5-.12c1.38-1.9.76-.72 1.62-2.16.87-2.8-1.55-.83-.74-2.12-.15-2.13 1.53-2.37 1.28-3 .72-1.43 1.3 5.39.06 1.05.06 1.8-.65 7.97 1.12 3.35 0-4.23-1-8.69-3.13-12.27-.53.8 2.1 5.82.57 5.83-.85 2.69-.5 4.2-1.67 5.32.36 3.27-.64-1.87-.2 2.21.77.54.06 1.16.93 2.02zm1.07-1.82c-.9-1.21 1.23 1.18 0 0zm-1.08.04c-2.7-.47 2.55-2.45 0 0zm.37-.4c.53-.36-.25.37 0 0zm2.59-.82c.02-.72.4.96 0 0zm-2.82-1.13c.42-.23.05-.1 0 0zm.06-.33c-1.12-.39 1.04-.21 0 0zm1.18-2.12c.08-.6.24.6 0 0zm-.89-.65c.25-.53.9.52 0 0zm.54-.1c-.13-.58.33.43 0 0zm.25-.58c.3-.21.21.39 0 0zm.63-.26c-.93-1.81 1.4.79 0 0zm-.53-.41c-.32-1 .6.75 0 0zm-.3-3.85c.08-.6.24.6 0 0zm-.57-1.43c.09-.51.09.52 0 0zM-.17 427.38c-.31-.41-.17.58 0 0zm26.56.04c1.87-2 1.41-2.17 2.42-1.03 1.01-1.62-1.44-.1.58-2.68-.8-1.17 1.93.31.78-1.47.85-2.07.43-.9 1.3.76.9-1.67 1.1-5.57-.4-5.05 1.77-3.17-.42-8.96.15-2.23a25 25 0 0 1-3.57 9.23c-.48 2.51-.68-.37-.7-.54-1.94-.9-1.47 3.86-.56 3.01zm.05-.7c-.96-1.3 1.19-2.75 0 0zm3.51-3.98c.32-.36.24.38 0 0zm1.29-.69c.19-1.46.48.32 0 0zm-1.55-.46c.1-.97.6-.36 0 0zm2.21-1.77c.04-.84.37.44 0 0zm-.24-.62c-1.05-.87.74.43 0 0zm-2.17 7.9c-.4.17 0 .65 0 0zm-13.27.06c-.07-.8-.23.8 0 0zm2.34-.62c1.95-1.43 1.57-6.91 1.1-2.45-2.29 4.2-.23.4-.22-1.39-1.32 1.91-1.36 2.64-.72 1.95-.15.37-1.31 3.9-.16 1.9zm.46-2.4c.33-1.3.25.5 0 0zm-19.26 2.5c-.69-2.05-.1 1.55 0 0zm6.72.18c-.51-.44-.4.33 0 0zm-8.01-.63c-.6-3.14-.36 1.87 0 0zm8.8.51c-.25-.42-.37.41 0 0zm16.7-.22c.32-.79-.89 1.04 0 0zm3.92-.07c.16-1.17-.72 1.35 0 0zm-5.84-.05c-.2-.65-.13.98 0 0zm-22.9-.12c-.47-1.28-.06 1.18 0 0zm14.48.02c.57-2.94 1.24-.74.36-4-.6-.86-2-.01-1.46.8.2 3.16-1.05 1.6.55 3.48zm-1.08-.16c-.79-1.05 1.25 1.07 0 0zm1.02-.17c-.75-.69.6-1.3 0 0zm-.8-.89c.85-1.81-.3 1.19 0 0zm.76-.32c.13-.8.22.44 0 0zm.24-.66c-.13-.58.33.43 0 0zm-.73-1.32c.15-.3.05.5 0 0zm17.39 3.4c0-2.36.34 1.86.4-1.33-1.46-.48-1.32 2.01-.4 1.33zm-22.27.1c-.11-.44-.36.43 0 0zm9.9-.17c.12-.62-.43.63 0 0zm-11.53-.06c-.25-.4-.25.41 0 0zm-1.31-.65c.11-4.5-.8 1.58 0 0zm10.08.35c-.15-.4-.43.62 0 0zm20.35-.38c1.06-3.73-.97 2.08 0 0zm-29.22.35c-.49-.55-.53.4 0 0zm16.35-.58c.97-3.86-1.53 1.68 0 0zm-6.69.33c1.16-2.62.54-1.6 1.53-4.57-.86-1.88.75-3.98.05-3.79-.57-2.15-.8-3.66.17-1.23.71-2.22-.98-2.81-1.14-1.57-2.36-2.94-.76 7.44.05 2.82.32.49.65 2.59-.01 4.3-.07.8-1.16 4.04-.65 4.04zm.79-3.48c.47-.64.06.56 0 0zm.15-1.17c-.12-.5.35.52 0 0zm-.62-3.93c-.19-.75.5.75 0 0zm.77 0c.3-.22.2.38 0 0zm-1.24-.15c.01-1.4.34.48 0 0zm.94-.4c-1.72-3.82.72-.78 0 0zm.64-1.86c.11-.4.25.41 0 0zm-.25-.57c-.14-.44.49.43 0 0zM-3.62 425.4c-1.68-1.36-1.24-.1 0 0zm24.94-.08c.98-1.28-1.35.67 0 0zm8.17-.1c-.25-.42-.25.4 0 0zm-1.97-.26c1.25-1.55-.78.25 0 0zm-29.07-.02c-.44-.85-.37.33 0 0zm22.67-.34c-.1-.66-.28 1.03 0 0zm-21.98.03c-.48-.93-.24.89 0 0zm.3.19c-.21-.39-.3.21 0 0zm17.64-.1c.34-1.37-.59.06 0 0zm-17.3-.41c-.45-.87.07 1.15 0 0zm12.27-.07c-.4.16 0 .65 0 0zm9.53-.13c-.58.27-.1.92 0 0zm-23.23.2c-.17-1-.29.81 0 0zm.36-.27c-.17.12.17.63 0 0zm5.15-.04c.06-2.46-.45-6.5-.32-1.83.18.24-.55 2.92.32 1.83zm18.19.04c1.96-4.8-1.42.81 0 0zm7.86.18c-.65-.2-.11.2 0 0zm3.16-.08c1.23-1.75-2.67-1.7 0 0zm-17.87-.82c1.32-1.16-1.47-3.27-.63-.97.05.53.31 2.7.63.97zm12.27.6c-.2-.33-1.7-3-1.54-.7.42.37.89 1.43 1.54.7zm6.75-.13c.67-3.33-1.71.44 0 0zm-.27-.12c.1-.55.05.69 0 0zm1.54-.26c-.36-.46-.1 1.4 0 0zm-35.84.17c-.31-.28.3.62 0 0zm32.4-.37c-.36.17-.06.62 0 0zm7.3-.04c-.78-4.6-.35 1.57 0 0zm-41.3.09c.45-1.76-.72.28 0 0zm25.25-.37c-.35.04.13.88 0 0zm-5.26-.03c-.26.19-.14.55 0 0zm3.8-.28c.02-.77-.46 1.52 0 0zm-7.54.05c-.51-.84.2 1.14 0 0zm6.68-.5c2.34-2.72-.72-7.94 2-8.36-.66-1.9.3-6.57.03-1.63 1.07 2.9.3-5.2-.45-6.17-.12 5.86-.87-4.1-2.4-5.46-.9-2.43-5.78-4.67-6.7-4.24.92.33-8.27-2.67-2.94.26 2.6 2.42 4.08 2.91 4.54 5.33-2.17-3.64-8.43-8-11.02-6.2 4.15 2.16 2.48 2.99-.02.74.44-.15-4.81-1.95-5.17-1.31-1.69.82.5 1.58-2.42.43-1.26.48-3.3 1.79-5.58 3.12-1.92 2.86 3.37-1.82 3.45-.44-1.23 1.37 1.34.28 2.12-1.09.42-.58 2.14 1.63 2.1.36 3.34-.23 1.55-1.22 4.59.8 2.47 2.15-.28-.43 1.73.68-1.38-1.13-6.98-3.86-2.5-2.33 2.05 1.54 3.75 2.75 5.29 4.2 1.34.79 1.71 1.82 2.35 2.6.84 3.07 3.95 5.65 1.63 1.23-.37-1.37-4.27-5.45-3.86-5-.2-.57 2.92 2.7 2.7 2 1.76 2.06 1.85 5.9 3.98 7.16.38-1.5 0 2.98 1.53 2.54.47-2.87-2.43-9.15-.01-3.53 1.11 1.76-.92-3.31-.15-2.55-.82-1.72-2.2-2.45-2.47-4.12 1.84 1.28 3.33 6.74 3.37 6.56.65 1.12.9 5.01-.25 1.72-.58 2.2 1.63 3.86 1.7 3.52.32-4.95.37 6.7.4 7.82.53-1.3-.19 2.18.6.03 1.67 1.8.23-5.18 1.2-3.17-.38-2.37.67-.35.26-3.85.5-1.33-.3-2.18-.9-.51-.03.55.83 1.32-.22 1.57.5 2.85-1.28 7.58-.51 2 .17-4.51-1.03-5.48-1.76-10.24-1.53-2.3-2.54-7-.11-1.98 1.57 2.06 1.54 4.33 2.04 6.67-.24-3.07.7-.83.14-3.03 1.24 2.8-.48-3.84 1.6-.05.74 1.84-.22-4.12.55.23.25 1.13 1.14 6.22.02 4.82-.44 1.99-.36 7.12-.73 9.44zm-1.73-1.45c.15-.3.04.5 0 0zm-.17-.57c.42-1.1.8.88 0 0zm.62-1.39c-.32-.51.46.1 0 0zm1.77-1.08c-.29-2.34.56 1.06 0 0zm.24-.68c-.25-.8.47.82 0 0zm-1.33 0c.11-.4.24.41 0 0zm1.1-.42c-.33-.5.45.1 0 0zm-1.35-1.06c-.37-.5.6.22 0 0zm-2.22-2.53c-.13-.58.33.43 0 0zm2.76 0c-.13-.58.33.43 0 0zm-.44-.1c.25-.42.25.4 0 0zm-5.37-3c-.14-.57.32.44 0 0zm6.95-.22c.19-.75.23 1.04 0 0zm-2.91 0c-.14-.58.33.43 0 0zm-4.35-1.78c-.11-.77.32.63 0 0zm6.97-.12c.15-.3.04.5 0 0zm-4.37-.24c-.57-1.93.07-.85 0 0zm1.4-.22c-.27-1.2.46 1.07 0 0zm1.6-.11c-1.1-2 .15-.97 0 0zm.33-.26c-.53-1.33.53.58 0 0zm-7.44-.23c-.43-1.03.55.69 0 0zm5.22-.41c-.2-.58.47.5 0 0zm-6.5-.12c.07-.6.23.6 0 0zm9.32-.1c-.79-2.34.61 0 0 0zm-8.32.07c-.72-1.48.77.37 0 0zm.71-.04c.04-.83.37.44 0 0zm.35.01c-.38-.47.83.47 0 0zm6.7-.44c-.3-2.28-1.17-3.43-1.29-2.63.04-.69-1.34-3.86-2.71-3.94-.23.36-3-3.8-.62-1.46 2.8 1.6 4.53 4.94 4.91 8.17l-.06.34zm-1.72.12c-.78-2.48.19-.45 0 0zm-7.34-.2c-.12-.62.43.63 0 0zm2.27-.1c-.72-1.13.88 1 0 0zm6.1.1c-.34-.73.59.47 0 0zm-7.18-.46c.15-.3.04.5 0 0zm-1.38-.1c-.17-.67.88.64 0 0zm8.51.04c-.13-.57.33.44 0 0zm-7.4-.38c.26-.4 0 .51 0 0zm1.3-.1c-.57-.87.72.54 0 0zm-2.9-.24c-.5-1.16.78.88 0 0zm9.18.07c.3-.83.02.63 0 0zm-7.66-.34c-.12-.49.35.53 0 0zm7.3-.37c.01-.56.32.39 0 0zm-5.64-.41c-1.65-1.6-3-4.7-.57-1.08-.45-.04 1.22 1.71.57 1.08zm-1.66-.62c.11-.42.24.4 0 0zm5.47-.11c-.36-.56.56.4 0 0zm-1.1-.21c-.34-.5.77.65 0 0zm-5.07-.69c-2.9-3.94 2.26 2.77 0 0zm4.46.37c.32-.36.24.37 0 0zm1.04-.02c-1.82-2.44-.18-1.47 0 0zm.86-.15c.25-.4.25.41 0 0zm.4 0c.3-.22.2.38 0 0zm-6.55-.4c-.66-1.14 1.05 1.02 0 0zm2.4.17c-.4-.81.8.8 0 0zm1.67-.08c-.3-.53.54.69 0 0zm-6.74-.14c-.36-.82.66.83 0 0zm8.45-.13c-.62-1.13.83 1.08 0 0zm.63.17c-1.17-1.58-1.29-1.57 0 0zm-4.8-.45c-1.83-1.26-2.16-2-.52-1.05-.21-.07.1.54.53 1.05zm6.03-.2c-.75-1.24.91.9 0 0zm-9.52.03c-.5-.97.69.8 0 0zm3.64 0c-.39-.7.69.73 0 0zm-5.91-.37c-.97-1.14 1.32 1.25 0 0zm2.67.12c-.69-.82.82.75 0 0zm5.37-.2c-.92-1.2 1.23 1.17 0 0zm.86-.42c-.98-1.04 1.01.64 0 0zm-1.63-.2c-1.3-1.35 1.26.96 0 0zm-3.47-.08c-.32-.93.63.87 0 0zm4.4-.07c-.33-.51.46.1 0 0zm-5.66-1.02c-1.72-1.92 2.27 1.23.18-.02l.53.77zm-3.23.24c-.4-.63.9.65 0 0zm4.17-.27c-.16-1.4.63 1.1 0 0zm-2-.1c-.3-.83.62 1.07 0 0zm-2.73-.01c-.84-.87 1.22.27 0 0zm7.78-.1c.55-.18.1.2 0 0zm-19.47-.52c.17-.77 1.05-.9 0 0zm15.65-.21c-.91-.94 1.46 1.03 0 0zm1.73.05c-.96-.89 1.12.85 0 0zm-3.8-.05c-.14-.44.49.44 0 0zm-14.2-.2c-.34-.48.65.59 0 0zm1.74-.02c.25-.41.11.4 0 0zm13.26 0c-.36-.56.56.4 0 0zm-11.34-.06c.2-.58.45-.12 0 0zm10.8-.46c-.42-.63.88.65 0 0zm4.58 0c-.45-.62 1 .65 0 0zm-.91-.02c.44-.15.03.22 0 0zm-17.28-.15c-.36-.44.79.34 0 0zm19.32 0c.25-.4.25.4 0 0zm-16.98-.3c-.25-.66 1.04-.1 0 0zm2.45-.07c-2.23-.43 1.94-.83 0 0zm-4.78-.14c.87-.66-.43.6 0 0zm.58-.13c2.26-.48 1.35.5 0 0zM7.9 396c-.14-.44.49.43 0 0zm2.27-.23c-.15-.44.48.43 0 0zm7.94 26.46c-.15-1.08-.2 1.42 0 0zm21.23.3c-.24-.6-.08.6 0 0zm-16.03-.87c-.13-2.48-.23 3.12 0 0zm-18-1.45c.12-5.1-.46 1-.08 2.03q.06-1 .08-2.03zm19.74 1.82c.86.08 1.16-5.88 1.35-1.55-.95-3.5 2.1-3.2 1.18-.08-.55 2.35.77-2.42.41.64.84-2.54-.58-3.47.95-1.46-.79-3.17 1.06-1.72.01-4.35-2.35-1.55 1.35-3.2-.3-4.49-1.28.18 1.42-2.73.85 1.06 1.87-.09-.92-4.6-.23-4.28-.64-1.95-1.3-4-2.46-5.52-2.2-1.7-5.3-4.55-5.7-3.94-4.21-1.83 3.15 3.19.96 2.65 1.63 2.43-4.79-5.15-2.32-1.49 3.67 3.3 4.23 8.17 5.5 12.52-1.11-.1-.56 2.46 0 2.59.67-2.14-.09-1.94.14-3.58-.32-3.88.05-1.7.72-.25 2.27.1 1.27 3.64 1.97 5.52 1.23 1.6-.22-.41-1.06 1.5.3-.84.16-1.92-.62-1.39-.15 1.94-.85 2.63-1.57 5.99-.68.45.5.31.22-.1zm.13-1c.42-.88-.21.97 0 0zm1.94-3.26c.24-.4.11.41 0 0zm1.43-2.75c-.37-.82.65.83 0 0zm-1.1-3.96c-.11-.78.31.63 0 0zm2.07 0c-.1-.78.46.65 0 0zm.06-.57c.07-.62.37-.17 0 0zm-1.92-.51c.11-.42.25.4 0 0zm-1.76-.18c.08-.6.24.6 0 0zm3.22-.84c-.25-1.12.43.67 0 0zm-2.1-.14c.3-.2.21.39 0 0zm1.7.04c-.55-.7.6.04 0 0zm-1.58-.7c-.99-2.2.83 1 0 0zm-.35.05c-.55-1.13.67.64 0 0zm-.46-.07c.3-.22.21.38 0 0zm-.58-.61c-.62-1.58.8 1.4 0 0zm-.78-.07c.08-.52.08.51 0 0zm3.1-.04c.33-.52-.13.5 0 0zm.23-.03c.32-.41.17.58 0 0zm-3.2-.38c.02-.57.33.38 0 0zm.9-.37c.06-2.45.36 1.71 0 0zm.73.3c.15-.31.04.48 0 0zm-2.6-.29c-.1-.8.4.82 0 0zm.87-.11c.25-.4.11.41 0 0zm3.1-.1c.07-1.1.38.54 0 0zm-.5-.17c-1.35-1.86.67.53 0 0zm.82-.24c-1.39-.91.78-.3 0 0zm-1.44-.16c-.65-.98.76.88 0 0zm-2.13-.13c-.32-1.01.53.74 0 0zm.85-.3c-.16-1.2.34.97 0 0zm.96-.38c-1.08-1.41-4.57-5.13-2.48-4.08.16-.84 3.08 1.91 1.07 1.27.15.25 2.43 3.84 1.41 2.81zm1.15.1c.24-.4.11.42 0 0zm-4.05-.41c0-.45 1.12.43 0 0zm1.7-.18c-.68-2.39.5.74 0 0zm1.76-.32c-.32-1.01.53.74 0 0zm-2.3-.15c-.12-.91.5.23 0 0zm1.7.02c-1.27-1.32 1.01.5 0 0zm-3.1-.46c-.49-.73.73.76 0 0zm.97-.04c-1.5-1.62 1.02.51 0 0zm2.02-.14c-.3-.53.55.69 0 0zm-3.67-.57c-.13-.5.34.52 0 0zm1.5-.14c-.67-.96.92.79 0 0zm-2.03-.48c-.26-.7.68.8 0 0zm.55-.16c-.64-1.14.72.86 0 0zm-1.03-.54c-.7-1 .59.4 0 0zm1.02-.38c-.41-1 .78 1.03 0 0zm.17-.66c-.8-.93.91.87 0 0zm.54-.42c-.7-.91.94.8 0 0zm-.53-.57c.34-.2.57.36 0 0zm-2.22-.92c-.15-.45.48.43 0 0zm12.19 23.75c.22-1.59-1.7-1.22 0 0zm-34.7-.97c.23-4.74-.8-9.76.83-14.37 1.67-2.65.95-1.2 2.38-1.93-2.46 2.18 1.99-.68.19-2.15-4.91-.06-3.62 7.43-3.86 10.8.54 1.93.32 6.85-.54 4.96.78.47.7 4.65 1 2.7zm-.05-12.54c.15-.3.04.5 0 0zm.15-.74c.79-1.84.02.46 0 0zm3.1-4.18c.08-.6.23.6 0 0zM27.16 422c-.29-.67.12.8 0 0zm5.1 0c-.32-.42-.18.57 0 0zm-4.44-.28c1.14-1.52-1.78 1.32 0 0zm.84-.03c.52-2.62-.81.65 0 0zm-10.3-.54c-.15-.93-.29 1.69 0 0zm-4.18.2c-.5 0 .3.6 0 0zm1.32-.03c-.03-1.84.86.23-.1-2.3-1.2-2.18-.73 3.25.1 2.3zm-6.47-.18c3-3.65-7-.34-.53-.06l.28.2zm3.9 0c.9-1.64 1.03-.75.9-2.46.32-.81-.33-3.76-.23-2.08-2.69.22.4 3.41-.86 2.42-1.05-.13-1.05 2.7.2 2.12zm-.48-.62c.24-.41.24.4 0 0zm-.3-.81c.38-.37.4.2 0 0zm1.03-2.4c.12-.42.25.4 0 0zm15.9 3.7c.65-1.7-.86.93 0 0zm3.76.1c-.3-2-.41.38 0 0zm-35.47-.6c-1.06-4.47-1.02.14 0 0zm26.87-.08c.54-1.15.84-2.83.94-3.37.84-2.56-.93.48-.45.76-.34-.48-.99 4.18-.5 2.61zm-10.17.09c-.11-.42-.25.4 0 0zm-19.36-.35c3.12-2.2-2.98-1.4-.6-.6 1.1 0-.86.95.6.6zm5.95-1.01c.24-3.44-.74-8.03 3.1-9.75 2.68.19 1.35-4.92-1.08-.98-1.45 1.44-2.47 5.83-1.66.97-1.15-4.15-.23 3.58-.82 5.6.28.09.1 7.84.46 4.16zm-.13-3.53c.3-1.04.04.67 0 0zm23.4 4.42c.09-1.43-.57 1.25 0 0zm-30.4-.12c-.76-.45.7.9 0 0zm2.47.1c-.3-.28.3.62 0 0zm20.16-.9c-.71-1.3.12 2.83 0 0zm8.55.55c-.03-1.01-.34 1.38 0 0zm1.4.24c-.2.06.15.5 0 0zm-33.72-.8c3.36-3.19-1.67-.69-.36.45zm34.44.48c-.11-.41-.24.4 0 0zm-10.15-.05c-.2-.39-.3.21 0 0zm-30.43-.32c-.31-.28.3.61 0 0zm51.68-.55c.2-1.14-.5-3.14.42-1.47-.52-2.86-.68-4.18-1.23-6.74.18-1 3.94 5.54 1.55 1.26-1.64-2.8-3.63-3.85-1.81.2.95 1.1-.96 8.92 1.07 6.75zm-.75-2.07c.3-.2.21.39 0 0zm1.3-4.71c-.57-1.2.52.65 0 0zm-1.8-1.4c-.12-.63.44.62 0 0zm-32.9 8.56c.16-2.12-.44.9 0 0zm-17.6-.9c.06-1.59.54-7.12-.18-2.08-.25.31-.01 4.83.19 2.09zm10.4.25c-.66-.07-.27.68 0 0zm30.17-.09c-.68-.43.43 1.12 0 0zm3.53.45c-.13-2.54-.66.35 0 0zm-34.78-.3c-.43-1.5-.4.54 0 0zm13.56-.03c1.61-.85-.24-.26-.37-1.12-.84.18-1.01 1.53.37 1.12zm-13-.8c-.21-3.37-1.66-.48 0 .81zm-.46-.33c.24-.4.24.4 0 0zm-.4-.45c-.1-.8.48.65 0 0zm46.3 1.08c-1.13-1.93.67 1.84 0 0zm-47.02.16c.97-1.07-1-.35-.03.22zm2.2-.4c.12-3.34-1.29 1.38 0 0zm6.93.24c0-.77-.3.6 0 0zm.95-.2c-.4-.26-.29.55 0 0zm10.3-.06c.8-2.43-1.7-5.09-2.31-1.75.58.04-1.86-1.35-.33.58 1.65-2.63 2.41.1 2.64 1.17zm-.83-2.54c-.2-.8.42.72 0 0zm-.79-.32c.16-1.44.27.75 0 0zm-20.8 2.35c-.67.01-.44 1.33 0 0zm-1.57-.08c3.1-3.03-1.9-.72-.24.41zm.59-1.01c.18-.64.47-.02 0 0zm.36-.05c.53-.34-.25.38 0 0zm13.54 1c2.75-.65 4.65-4.77.87-2.12-.38.25-2.85 4.3-.87 2.12zm2.7-2.47c.11-.41.25.4 0 0zm-17.99 2.33c-.2-1.59-.15 2.01 0 0zm1.83.45c1.74-1.97-1.25.12 0 0zm2.35.08c.38-.47-.95.31 0 0zm19.95-.08c-.52-1.67.06 1.08 0 0zm.27-.58c-.2.4.15 2.1 0 0zm-10.8.2c-.17-2-.2 2.02 0 0zm20.37.19c.09-2.08 1.15-1.34-.7-2.48-.46.45-.65 3.37.7 2.48zm-1.47-.27c-.17.15.14.75 0 0zm4.85.31c-.1-.41-.24.41 0 0zm-16.84-.16c-.9-.37.2.51 0 0zm-15.97-.18c-.25-.4-.25.4 0 0zm13.55-.11c.73-.78 2.19.57 1.05-2.84.78-1.5-.07-3.41-.08 0 1.82 1.75-2.83 2.93-.97 2.84zm3.05.04c-.19-2.5-2.6-2.84 0 0zm-16.54-.66c-.94-2.97-2.33.22.05.45l.05.08zm-.9-.19c.26-.42.37.41 0 0zm16.53.52c-.32-1-.2 1 0 0zm20.14 0c1.12-1.64-.47-5.76-.13-1.63-.9-1.9-.43 2.86.13 1.63zm-37.6-.85c.68-2.22.42-2.09-.4-1.1.65-3.02-2.07.54-.55.23.57-.9 1.12 3.01.95.87zm-1.18-1.22c.15-.3.04.5 0 0zm4.9 1.67c-.28-1.12-.38 1.16 0 0zM-5 415.8c-.43-.72.19.8 0 0zm30.75-.16c-.32-1.38-.1 1.33 0 0zm-35.48 0c-.63-.78-.09.82 0 0zm-7.14-1.42c-.06-1.42.86-2.84 2.32-5.1 1.25-.67 3.07-2.8 2.54-4.29-1.43 1.68-4.65 2.96-4.9 6.33-.43.64-.58 7.02.04 3.06zm1.43-4.53c.36-.49.44-.29 0 0zm.98-1.03c.36-.49.45-.29 0 0zm-1.18-.45c.36-.5.44-.3 0 0zm1.78-.38c1.05-1.2.4-.02 0 0zm.68-.97c.9-1.59 1.15-.61 0 0zm.7.03c.36-.98.72-.41 0 0zm3.11 8.55c-.17.11.17.63 0 0zm36.1-.4c1.75-2-1.37.31-.13-.1zm-39.7-.24c.06-3.57 4.52-2.65 2.35-4.65-2.11-.14-2.3 3.3-2.66 5.31zm1.17-3.73c.36-.49.45-.3 0 0zm.8-.19c.24-.4.1.42 0 0zm5.5 4.41c-.55-.42.34.56 0 0zm9.85-1.12c1.82-2.3 3.78-1.13 2.54-3.34-1.25-1.22-4.53 5.92-2.54 3.34zm18.44.24c-.4-.25-.08 1.01 0 0zm-27.45.27c-.4-.94-.55.19 0 0zm7.84-.54c-.22-1.82-.19 2 0 0zm9.4.44c1.97-3.5-3.4-6.12-2.18-1.2-.23.91 1.2 1.6 2.18 1.2zm-.18-.26c.24-.4.11.41 0 0zm-1.58-.12c-.11-.6.46.47 0 0zm1.43-.2c.48-1.09.46-.36 0 0zm-.35-2.89c.29-.2.34.35 0 0zm-.2-.34c.12-.44.37.43 0 0zm-6.35 3.54c-.56-.07-.31.63 0 0zm-9.87-.16c-1.76-1.08.65 1.01 0 0zm33.61-.64c-.7-1.74-.29 1.98 0 0zm-15.39.04c-.31-.43.06 1.3 0 0zm.95-.95c-.5-2.8-1.69-3.95-.57-.1-.26 1.35 1.42 1.96.57.1zm-8.58.72c.55-1.16-1.67 1.78 0 0zm20.63.14c-1.39-1.71 1.44.17-.38-1.22-.74.3 1.05 2.59.38 1.22zm3.1.26c1.07-2.65-.84.73 0 0zm-16.47-1.35c.17-2.5-1.89-3.79-.71-3.32-3.35-1.81 2.02 2.68.54 4.75.08-.47.19-.94.17-1.43zm-22.2 1.2c-.38-.23-.1.24 0 0zm.56-.3c-.8.34.07.14 0 0zm1.27.13c-.34-.8-.05.8 0 0zm15.08-.11c.53-4.22-.8.1 0 0zm26.48-.02c-.14-.95-.22 1.14 0 0zm-25.93-.18c1.28-3.62-3.15-3.75-.49-2.09.57.2-.11 3.1.5 2.09zm-.3-2.18c-.82-1.81.63.73 0 0zm6.96 2.14c-.31-3.65-.61.4 0 0zm20.36.13c-.8-1.1.23.86 0 0zm-39.18-.23c-.99-.82.4.75 0 0zm6.97-2.15c-.37-2.02-.26 5.2 0 0zM-8.42 413c-.65-.2-.12.21 0 0zm1.98-.08c-.73-2.4-1.64.08 0 0zm22.44-.18c-.2-2.3-1.2 1.23 0 0zm3.4-.26c-.16.12.17.63 0 0zm-27.26-.2c-1.1-.74.67.91 0 0zm41.9-.03c-.39-.17.36.53 0 0zm-42.58.03c-.38-.41-.26.42 0 0zm16.35 0c-.1-.42-.24.4 0 0zm22.64-.54c-.17.15.15.75 0 0zm-43.91-.85c1.19-3.57-2.25 3.71 0 0zm34.65.18c.26-4.59-1.64.87-.72.54-.44-1.27 1.3 1.8.72-.54zm-.52-.17c.12-.41.25.4 0 0zm0-.7c-.1-.59.47.48 0 0zm-31.38 1.62c-.11-.41-.25.4 0 0zm3.18-.11c-.22-.78-.36.77 0 0zm9.4-.2c1.28-1.8-.97 1.19 0 0zm22.21-.02c.25-3.14-.57-.04 0 0zm-39.66-.38c.74-1.75-1.22 1.8 0 0zm1.78.34c-.2.07.15.5 0 0zm5.84-.2c.2-.6-1.13.46 0 0zm17.32.04c-.38-.22-.1.25 0 0zm-22.14-.29c-.37-.19-.12.53 0 0zm20.7.08c-.24-.38-.4.22 0 0zm-14.32-.25c-1.36-1.07-.34.7 0 0zm11.98-.14c2.87-1.87.09-.64.57-2.1-1.2-3.28 1.81 2.5.34-.2.52-.75-2.07-5.38-.78-1.76-.52-2.48-2.94-2.5-1.59-.55 2.47.14 1.04 3.95.95 4.91l.1.03zm.31-.82c.25-.4.12.42 0 0zm-1.52-4.53c.15-.3.04.5 0 0zm5.42 5.42c3.66-2.62-2.47.46 0 0zm20.84-.34c-1.81-6.72 0 1.44 0 0zm-39.27.3c-1.03-2.57-4.06-.82-1.77-1.07.46.31 1.39 1.42 1.77 1.08zm1.48-.11c-.52-.92-.41.84 0 0zm2.3.19c-.01-.57-.32.38 0 0zm15.59-.21c-.56.26-.35.5 0 0zm-22.8-.12c.34-.48-.65.59 0 0zm2.34-.08c-.96-.85-.02.77 0 0zm-2.89-.2c-.19.07.16.5 0 0zm17.41.18c.11-.79-.72.41 0 0zm1.94-.1c-.08-.6-.24.6 0 0zm-20.89-.07c.88-.57-.6-.03 0 0zm1.93-.03c.53-1.66-.62.54 0 0zm11.83-.13c.03-.53-1.72-.41 0 0zm29.5-.3c-.44-.69.13 1.3 0 0zm-17.74.12c-.42-.18-.36.53 0 0zm4.7-.13c-.18.12.16.63 0 0zm-25.2.16c-.4-.98-.44.21 0 0zm-2.61-.25c1.33-1.46.3-5.6 4.14-6.41 2.23-1.56 2.3-5.68.65-2-1.1-1.7-.59 3.02-1.3.44.16-2.2-3.14.8-3.3 3.28-.08 1.63 0 4.13-.2 4.7zm1.93-5.41c.9-.94.18.15 0 0zm1.15-1.02c.53-.34-.25.38 0 0zm.4-.13c.2-.77.11.44 0 0zm-.86-.47c.35-.49.44-.3 0 0zm.39-.41c.25-.4.11.41 0 0zm1.78-.4c.81-1.29.34.32 0 0zm-1.43-.47c.19-.53.33.63 0 0zm17.29 8.33c-.65-.2-.65.34 0 0zm-17.17-.15c-.4-.4-1.17-3.2-.78-3.17-.46.85-.46 3.26.78 3.17zm28.3.08c-.2-.38-.3.22 0 0zm.18-.58c.5-1.55-.5.4 0 0zm-33.04-.29c2.39-1.44-2.85 1.29 0 0zm21.78.58c2.62-.76 1.81-3.62-1.09-3.62-2.11 1.46.58.34-.23 2.26.96.57-.7 1.5 1.32 1.36zm-1.33-2.96c.12-.53.37.19 0 0zm-15.54 2.78c.4-1.03-.56.44 0 0zm22.08.09c-.42-1.04-.5.46 0 0zm9.39-.28c-.18.12.16.63 0 0zm-36.04.03c-.24-.41-.24.4 0 0zm2.75-.6c-.45-.64.37 1.64 0 0zm7.1-.27c-.83-2.92-.28 3.12 0 0zm-.29-.1c.06-1 .22 1 0 0zm7.6.97c-.7.06-.38.03 0 0zm-14.79-.3c-1.13-1.2-1.4-.6 0 0zm23.27-.01c-.37-.51.3.82 0 0zm-25.98-.44c1.38-2.31-2.22 2.05 0 0zm36.28-.03c-.16.16.15.76 0 0zm-33.52.08c1.7-2.64-1.57.34 0 0zm3.99.02c-.17-.99-.3.82 0 0zm18.08-.23c-1.07-2.1-3.09-4.09-4.5-5.62 1.13 2.1 1.96 2.22 3.76 5.55.63-1.16.1.32.74.07zm.64-.24c-.24-.4-.11.41 0 0zm-18.8-.2c-.21-2.98 3-5.97 4.03-6.24 1.48 1.4-.88-4.44-3.16-.43-.2-.34-1.06 1.63-1.06 3.48-.14.76-.42 3.14.2 3.19zm-.1-1.24c.14-.3.03.5 0 0zm.1-.62c.08-.52.08.51 0 0zm2.84-3.83c.55-.56.51-.1 0 0zm1.1-1.4c.14-.3.03.5 0 0zm4.46 7.18c.9-.67-.79-2.3-.34-.12-.13.62.33-.04.34.12zm-12.62-.3c-.05-.61-.35.62 0 0zm13.94-.06c.2-1.05-.7.8 0 0zm-14.08-.67c1.65-2.49-1.24.58-.34.5zm-1.32.37c-.44-.01-.23.6 0 0zm18.5-.58c-.56-1.08.35 2.1 0 0zm-6.95.25c-.58-.02-.4.54 0 0zm33.23-.62c-1.42-1.93.98 2 0 0zm-31.14-.11c.37-1.62-.87 1.57 0 0zm-1.5-.02c-.2.06.14.5 0 0zm2.54-.1c-.12-.41-.25.4 0 0zm30.5-.27c-2.08-1.36.56.8 0 0zm-41.93.04c.11-.6-.47.47 0 0zm11.95-.53c1.25-1.57-.12-2.66-.54-3.28 1.02 1.25-2.01-2.77-3.53-.77 2.52-1.26-.6-1.92-1.77-2.75-2.43-.45-2.21.82-.35.8 2.26 2.4.94 3.22 1.7 2.65-.65 2.6 2.24-1.46 2.5.5.56.35 1.47 1.22 1.29 1.52-.67-.22.5 2.93.7 1.33zm-.18-1.43c-.3-.72.55.74 0 0zm-.85-1.09c-.43-1.27.92 1.06 0 0zm-3-.73c-.82-.36.6-.09 0 0zm2.18.12c-.06-.42.7.35 0 0zm-.27-.39c.6-.52.56.3 0 0zm-.42-.18c-.15-.45.48.43 0 0zm-1.43-1.04c.11-.4.25.41 0 0zm-.36-.07c.43-.16.02.21 0 0zm.53-.18c-.52-.85.79.47 0 0zm-1.45-1.07c-.41-.62.89.66 0 0zm9.07 6.1c1.34.74-.58-2.4-.8-2.94-.23-1.43-1.5-3.13-2.63-1.4.63-.51-1.4-3.4-2.65-1.35 1.74 1.48 2.9 1.1 3 2.84.91 4.08.98-.22 2.45 1.82 1.33-.59-1.44 1.78.63 1.02zm-2.47-1.45c.25-.42.37.4 0 0zm1.61-.78c-.34-.49.65.59 0 0zm-.61-.16c.37-.15.21.32 0 0zm-1.1-.16c.45-.77 1.24.21 0 0zm1.48-.28c.25-.4.11.42 0 0zm-.76-.2c.44-.14.03.22 0 0zm.26-.15c-.13-.57.33.44 0 0zm-1.62-.18c.3-.73.57-.3 0 0zm1.36-.87c.16-1.15.2.88 0 0zm-.72.04c.02-.48.9-.52 0 0zm-2.36-.7c-.27-.45 1 .48 0 0zm-.34-.41c.15-.3.04.5 0 0zm.38.06c.87-.19.38-.09 0 0zm-.13-.55c.47-.65.81-.16 0 0zm20.62 5.7c-.43-1.98-1.97-3.9-.38-.25.26.72.11 1.13.38.25zm-36.15-.02c-.39-.31-.11.86 0 0zm45.82.06c-.87-1.44-1.06-.59 0 0zm-40.13-.37c-.33-.42-.3.65 0 0zm4.2-1.06c4.32.42-1.11-1.07-.38.6zm-9.94.59c2.78-.3 3.3-4.4.59-.94-.17-.23-1.61 1.96-.59.94zm12.17-.23c-.37-.2-.12.52 0 0zm.3-.4c.12-.62-.44.64 0 0zm.63-.28c-.1-.41-.24.4 0 0zm7.84-.11c-.25-.4-.11.41 0 0zm1.15-.06c.09-2.1-3.45-2.4-.34-.29l.33.46zm-.56-.98c.3-.21.21.38 0 0zm-9.66.92c-.57-2.24-.65.01 0 0zm31.24-.16c-.21-.39-.3.21 0 0zm-.48-.45c-1.47-1.66-1.3-.68.1.19zm-40-1.2c2.57-2.97-2.3 1.65 0 0zm25.39-.38c-1.93-1.98 1.43 2.15 0 0zm-14.87.07c.05-.66-.53.52 0 0zm27.6-.06c-.52-.64.28.77 0 0zm-37.09-.28c2.43-1.77-1.5.58 0 0zm16.3.1c-.62-.9-1.95-.8 0 0zm-15.67-.16c-.12-.41-.25.4 0 0zm1.05-.07c3.23-1.33-.62-.9 0 0zm12.4-.26c-1.12-.29.26.73 0 0zm-2.51-1.67c1.43-.44-1.72-1.26-2.4-1.23-2.02.81 2.02 2.4 2.4 1.23zm-.7.3c.13-.52.37.2 0 0zm-1.57-.56c.58-.95.34.04 0 0zm-.3-.08c1.33-1.2 1.11-.3 0 0zm18.77-.86c-.48-.42-.26.43 0 0zm1.39 0c-.54-.2-.36.37 0 0zm-7.25-1.84c-.25-.4-.25.41 0 0zm27.67 123.87c.54-.18.09.2 0 0zm-33.7-.23c.44-.15.03.22 0 0zm12.46 0c.76-.17.14.19 0 0zm-11.92-.1c1.27-.35 1.14.24 0 0zm15.07-.13c.77-.17.15.19 0 0zm-13.3-.11c.65-.17.12.19 0 0zm.57-.01c.76-.28 1.01.33 0 0zm-6.4-.14c.4-.19 1.65.37 0 0zm25.7.04c.43-.16.02.21 0 0zm11.1-.03c.37-.35.53.38 0 0zm-40.06-.13c-.35-.5.67.47 0 0zm2.24.04c.54-.18.1.2 0 0zm-.86-.15c-.35-.5.67.47 0 0zm7.3.07c.02-.3.58.1 0 0zm3.41-.08c.53-.35-.25.37 0 0zm33.83.01c1.54-.58 3 .52 0 0zm2.04.04c.55-.18.1.2 0 0zm-39-.15c-2.22-.93 3.14.22 0 0zm35.97 0c1.93-2 7.2.34 1.46-.38-.97-.04-.67.47-1.46.38zm4.14 0c.61-.46.43.35 0 0zm-50.57-.08c.44-.16.03.21 0 0zm24.8-.04c-.25-.44.85.46 0 0zm-27.04-.1c.85-.73 1.17.52 0 0zm1.35.02c.98-.17.2.17 0 0zm1.58 0c.98-.17.19.17 0 0zm26.63.04c.37-.37.53.2 0 0zM-.96 518c1.31-.13 1.52.3 0 0zm1.6.04c.66-.17.13.19 0 0zm9.93-.01c1.05-.33 1.05.33 0 0zm8.85 0c.44-.14.03.22 0 0zm-25.7-.15c-2.08-.27 3.65.07 0 0zm15.03.04c.33-.69 2.96-.16 0 0zm11.56 0c.44-.15.03.22 0 0zm2.73-.14c-1.6-.85 2.66.7 0 0zm5.66.12c.37-.45.9.17 0 0zm-38.13-.13c-.01-.38 2.23.32 0 0zm2.2.03c.8-.36.22-.12 0 0zm8.47 0c.76-.17.14.19 0 0zm20.3 0c.76-.17.14.19 0 0zm4.55-.03c-2.72-.38 1.06-.45 0 0zm29.5-.02c-.1-.37.77.34 0 0zm-60.32-.05c.55-.18.1.2 0 0zm3.16 0c.54-.18.1.2 0 0zm.67-.02c.26-.2 1.15.33 0 0zm19.13-.07c-4.14-1.16 4.07.68 0 0zm1.56.05c.36-.43.11.44 0 0zm-15.34-.08c.43-.15.02.21 0 0zm3.09-.11c-.98-.85 1.6.63 0 0zm21.74.1c.43-.14.03.22 0 0zm-39-.07c.78-.33.77.2 0 0zm1.34-.05c.3-.2 1.36.32 0 0zm.8.01c.44-.15.03.22 0 0zm2.76-.1c.54-.19.1.2 0 0zm9.92-.05c.55-.19.62.37 0 0zm43.86.01c.44-.57 1.83.08 0 0zm-56.37-.12c-.6-.39 1.43.38 0 0zm-2.24-.08c.54-.18.1.2 0 0zm.64 0c.65-.17.12.19 0 0zm.93 0c-.03-.77 2.16.04 0 0zm7.94 0c.76-.18.14.18 0 0zm.74 0c.44-.15.03.21 0 0zm4.95-.03c-1.26-.3 2.05.04 0 0zm46.09.03c.54-.18.1.2 0 0zm-46.68-.15c.25-.4.25.4 0 0zm25.78.04c-.75-.83.86.33 0 0zm24.47-.14c-2.7-.99-.8-1.94-.4-.93.41 1.02.6.28 1.08 1.13zm-60.1-.02c-.64-.35 1.1.32 0 0zm1.27 0c2.1-.2 2.3.37 0 0zm4.81.04c.44-.15.03.22 0 0zm2.19-.04c-.44-1.2 2.84-.34.5-.06l-.23.17zm49.47-.03c-1.19-.43 1.48.11 0 0zm-67.2 0c.18-.3 1.5.08 0 0zm1.64-.05c.87-.16.18.18 0 0zm26.3-.02c-1.83-.52.6-.33 0 0zm8.5-.14c.88-.65-.49.82 0 0zm1.44.13c.85-.46-.26.44 0 0zm-35.5-.08c.76-.18.15.18 0 0zm6.11 0c.76-.18.15.18 0 0zm5.08 0c.86-.17.17.17 0 0zm23.47-.03c.65-.43.65.42 0 0zm-31.26-.09c1.42-.16.28.17 0 0zm5.82 0c.44-.14.03.22 0 0zm-3.16-.1c.54-.19.1.2 0 0zm16.66 0c.44-.16.03.2 0 0zm12.73-.05c-4.63 1.22-3.05-10.6-.43-3.98.03.92 1.86-7.76 1.03-2.41-.5 1.73.95 5.9-.6 6.4zm.45-1.15c-.38-.83-1.02.41 0 0zm0-1.34c-.32.57.2.97 0 0zm34.68 2.5c.36-.43.12.44 0 0zm-72.13-.12c2.26-.3-.97.34 0 0zm44.4.02c.12-.53.36.19 0 0zm27.26.02c.55-.18.1.2 0 0zm-72.67-.12c.65-.16.12.2 0 0zm5.86 0c1.3-.16.27.16 0 0zm67.16-.15c-.79-.68 1.03.45 0 0zm4.16-.11c.25-.4.12.41 0 0zm-63.03-.08c.43-.15.03.22 0 0zm24.53-.06c.5-1.6.24.52 0 0zm27.2.06c.54-.18.09.2 0 0zm6.6 0c.44-.15.03.22 0 0zm-57.48-.5c.37-.42.12.45 0 0zm4.88-.34c.2-.47 1.18.49 0 0zm52.52 0c.52-.36.53.19 0 0zm-74.64-.12c-.16-.38 1.11.29 0 0zm4.06.05c.54-.18.1.2 0 0zm1.14-.12c.76-.18.14.18 0 0zm1.77-.12c.76-.17.14.19 0 0zm40.34-.46c.74-2.59 1.8-3.17.4-.55.23.17-.64 1.99-.4.55zm.33-.62c-.37-.19-.12.53 0 0zm-44.73.82c1.2-.6-.02.45 0 0zm55.7-.14c-.2-.54.83.68 0 0zm19.75.18c.54-.18.1.2 0 0zm-78.03-.17c1.45-.08-.35.34 0 0zm3.25.05c.43-.15.03.22 0 0zm.49 0c.44-.15.03.22 0 0zm2.28-.03c-2.32-.77 3.6.39 0 0zm-5.02-.12c.24-.4.11.41 0 0zm9.3-.06c-2.58-.77 1.12.12 0 0zm41.85-.08c.3-1.04.04.8 0 0zm26.9.16c-2.54-.5.66-.64 0 0zm-33.6-.1c-.83-1.29.13-1.7 0 0zm-42.46-.12c-1.1-.6 1.64.24 0 0zm-2.65-.19c1.44-.67 2.19-.34 0 0zm7.5.05c.37-.43.12.44 0 0zm69.87 0c.25-.4.12.41 0 0zm-78.88-.44c-2.17-.5 2.01.03 0 0zm1.08-.03c-.82-.5.91.2 0 0zm-2.45-.1c-.36-1 1.3.44 0 0zm2.63-.2c-.67-.56 1 .36 0 0zm50.52-.01c-.32-.98 1.01-1.05 0 0zm.45.05c.36-.5.44-.3 0 0zm-51.74-.25c.17-.45.76.72 0 0zm77.93.1c.44-.15.03.21 0 0zm-77.6-.33c.3-.63 1.18.06 0 0zm-1 .02c.17-.3 1.49.09 0 0zm14.52-.56c-2.13-1.73-2.52-6.28-.33-1.64 1.79 1.07-2.27-3.95.44-1 3.13 5.16-2.98-4.13.05-2.1.6 2.7.07-.34 1.01-.88.64 1.01 1.18 7.94-1.17 5.62zm1.62-4.73c-.31-.42-.17.57 0 0zm34.79 5.22c.25-.41.25.4 0 0zm1.72-.33c-.33-.86 1.2.14 0 0zm30.4-.06c.38-.37.4.2 0 0zm-33.25-.58c.77-.96-.4.92 0 0zm1.47-.11c.9-.65-.47.48 0 0zm-43.5-.04c.49-.42.32.26 0 0zm.69-.14c.25-.41.25.4 0 0zm.75-.17c.25-1.05.16.53 0 0zm37.68.07c.12-.53.37.19 0 0zm4 0c-.28-.79.62.17 0 0zm-8.31-.86c.39-.58 1.83.57 0 0zm-31.97-.05c-.34-.48.64.59 0 0zm29.83.03c-1.02-1.36 1.2.78 0 0zm1.66-.4c.78-3.55.16 1.84 0 0zm4.4.42c.61-.69.11.43 0 0zm2.46-.05c.87-.64.68.32 0 0zm-37.38-.44c-.6-1.92.76 1.16 0 0zm34.04.2c.52-.36.88.38 0 0zm-41.8-.06c.66-.33.66.2 0 0zm.69-.23c-1.31-.85-1.32-.24-1.7-1 .95-.14 2.1.69 1.7 1zm39.13-.02c-2.48-1.78-.18-.47 0 0zm2.85-.03c1.1-.85 1 .23 0 0zm3.23-.04c.62-.35-.1.32 0 0zm-10.37-.32c.36-.43.11.44 0 0zm-39.27-.34c-.49-2.61 2.04 1.03 0 0zm5.93-.05c-.91-1.02 2.35 1.1 0 0zm35.03-.02c-.18-.97.53.85 0 0zm3.19-.22c-.35-.75.51.61 0 0zm3.72.04c.53-.35-.25.38 0 0zm-7.82-.29c-1.4-.92 1.64-1.17.11.18zm3.16-.04c.36-.42.12.44 0 0zm1.4-.4c.9-.78 1.06-.7.03.15zm-31.59-.26c.02-.9.44.61 0 0zm28.67.05c1.5-2.27 1.04-.68 0 0zm2.17-.02c1.34-2.95 1.86-.75 0 0zm.29.12c.69-.39.19.2 0 0zm-.7-.22c.1-.28.8.11 0 0zm-4.67-.18c.11-.42.24.4 0 0zm8.62-.06c-.13-.67.6.66 0 0zm-5.81-.2c.4-.84.15.47 0 0zm4.43.02c.63-.16 2.5.36 0 0zm-6.83-.3c0-1.52.75.44 0 0zm.72-.28c.62-.55.78.38 0 0zm5.88-.04c-.02-.49.6.63 0 0zm-32.98 0c.24-.45.42 0 0 0zm27.94-.37c.42-1.85.09.92 0 0zm2.61.18c1.26-.6 1.8.48 0 0zm-3.15-.14c.03-.3.58.1 0 0zm-25.22-2.03c-.25-5.38 1.75.53.08 1.96-.13-.65-.05-1.3-.08-1.96zm26.8 1.65c.6-1.4 2.35-2.32 0 0zm.68-.15c.37-.6.59.08 0 0zm1.33 0c.37-.43.12.44 0 0zm.64-.06c-.8-.48 1.53.6 0 0zm-35-.25c-1.58-3.83 3 .33 0 0zm29.2-.2c1.18-1.72-.16 1.2 0 0zm2.06-.04c.13-.84.35.26 0 0zm4.37-.18c.28-.98 2.6-.22 0 0zm-3.95-.79c.46-.53-.02.79 0 0zm-30.04-.1c-.38-1.32.48.51 0 0zm32.15-.04c1.24-.98.41.05 0 0zm-.66-.06c.74-.4-.25.48 0 0zm6.21-.23c-1.63-.7.93-.51 0 0zm-9.07-.23c.25-.4.12.42 0 0zm.5-.04c.03-.3.58.1 0 0zm1.78-.15c.56-.72-.33.66 0 0zm.29-.5c.24-.4.1.42 0 0zm-2.76-.15c.56-1.46.7-.64 0 0zm2.85-.19c-.14-.44.49.43 0 0zm5.13-.11c-.15-.45.48.43 0 0zm-.05-1.12c-.6-1 .75.89 0 0zm-5.68.12c.43-.15.02.22 0 0zm.63-.11c-.55-.58 1.44.22 0 0zm4.36-.35c-3.74-1.13 0-1.03 0 0zm-7.12-.29c.5-.7-.32.79 0 0zm3.25.18c.66-.17.12.19 0 0zm.58.03c2-.42 1.53.22 0 0zm-2.17-.1c.38-.26.93-.07 0 0zm-1.78-1.11c.22-.8.06.8 0 0zm-.46-.1c.74-.74-.42.7 0 0zm.4-.37c-1.04-.5.64.2 0 0zm-2.36-.45c.65-.42.65.42 0 0zm.3-.7c.5-.42 1.8.48 0 0zm5.2-.93c-.6-1.37-3.67-1.6-1.2-2.26.93-.14 2.48 2.72 1.2 2.26zm-1.93-.71c-.15-.88 1.2.42 0 0zm2.3-.8c-.2-.59.46.5 0 0zm-29.66-.28c-.43-1.03.54.69 0 0zm0-.75c-.4-.95.54.47 0 0zm43.35-2.59c.25-.4.25.41 0 0zm3.6-.11c.74-.83-.51.81 0 0zm-2.86-.32c1.88-3.19 3.9-2.8.89-.68-.16-.01-.93 2.05-.9.68zm3.8.27c.03-.3.58.1 0 0zm-4.73-.23c.17-.79.12.6 0 0zm-43.46-.26c.27-.6.4.68 0 0zm43.8.12c-.73-1.57 1.09.94 0 0zm2.22-.44c1-1.75 1.23-.28 0 0zm3.22-.53c.53-.35-.25.37 0 0zm-2.21-.54c.05-1.38.28 1.6 0 0zm3.03.28c.03-.3.59.1 0 0zm-1.32-.47c1.2-.23.63.55 0 0zm.96-.15c.47-.7 1.07-.68 0 0zm-4.78-.32c1.88-1-1.3 1.02 0 0zm3.42.09c-.22-1 2.28-2.2-.9-.86 1.93-1.64 6.27-1.18 1.45.3-.29.39-.06.59-.55.56zm.68-.82c.54-.42-.94.33 0 0zm.74-.7c.39-.46-.83.47 0 0zm.99-.3c-.52-.19-.52.36 0 0zm-6.73 1.66c1.08-.3.51-.15 0 0zm6.8-.28c.45-.16.04.21 0 0zm-6.67-.16c1.75-.58-.51.45 0 0zm6.3-.08c.61-1.07.97-.78 0 0zm-5.91-.88c.36-.49.44-.29 0 0zm.44-.3c.37-.42.12.45 0 0zm-42.7-21.33c-.76-3.76.14-1.17 0 0zm.38-.2c.91-1.29-.9-9.6.33-3.36-.06.7 1.1 3.58-.33 3.36zm-.69-2.84c.13-2.6.57-5.9.23-1.34-.23-.27.2 1.92-.23 1.34zm.48-4.52c-.43-1.23.03-9.54.07-2.8 0 .34.03 5.6-.07 2.8zm-4.28-3c-1.24-2.72 1.94.7 0 0zm.56-1.33c.1-.51.1.52 0 0zm-.63-1.26c.2-3.78.08 2.34 0 0zm.53.74c.15-.3.04.5 0 0zm-.16-.82c-.42-3.87.45 2.03 0 0zm3.7-.1c.15-.3.05.5 0 0zm-.04-2.37c1.35-2.84-4.99-8.84-3.76-2.7.43 7-1.12-4.61-.36-3.7 1.52.01 2.61.64 3.74 1.63.58-2.74 1.53-.4.64.42-1.25-1.2.69 9.96-.26 4.35zm-1.13-4.58c-.31-.28.3.62 0 0zm-.13-.63c-1.94-1.8.66 1.6 0 0zm-.6-.65c-1.16-1.55-.24 1.15 0 0zm-2.44-.12c-.56-.43.33.55 0 0zm10.1 7.34c-.7-3.9 1.06.83 0 0zm-5.31-.75c.4-4.5.18.3-.03.55l.01-.3zm5.88.02c-.33-3.63.47 1.64 0 0zm-10.18-.08c.07-1.41.2 1.41 0 0zm-.61-.5c-.2-2.56.3 1.34 0 0zM3.4 449.2c.1-.54.06.7 0 0zm.3-.06c.08-.71.08.72 0 0zm-6.13-.99c-.28-.71.15-.39 0 0zm5.98-.68c.17-2.21.1 1.57 0 0zm-6.17-.16c.1-.51.1.52 0 0zm7.39-.16c.2-.36.75-1.15 0 0zm-3.14-.24c.1-.54.05.69 0 0zm1.98-1.49c.08-1.15.06 1.3 0 0zm-6.76-.25c.54-.18.1.2 0 0zm-.52-.6c.12-.42.25.4 0 0zm-.54-.24c.25-.4.25.41 0 0zm.6-.22c.52-.2.51.36 0 0zM-5.7 444c-.34-.5.67.47 0 0zm.3.05c.47-.82.54-.1 0 0zm.55-.4c.72-.43.97.15 0 0zm-2.14-.37c-.3-.86.76 1.3 0 0zm.76.2c-.09-1.01.9.47 0 0zm6.41-.24c.03-.74.03-2.26.96-2.04-.72.78-.11 1.9-.96 2.04zm-3.2-.43c-1.63-1.04 1.64-.26 0 0zm3.09-.64c.25-.41.25.4 0 0zm2.03-.09c1.24-1.06.09.53 0 0zm-5.92-.28c-1.38-2.22.34-.4 0 0zm4.92-.02c.26-.57.38.06 0 0zm-1.57-.52c.07-1.5.54.4 0 0zm.63-.02c-.13-.57.33.44 0 0zm1.14.06c.34-.9.67.13 0 0zm-3.15-.4c-.98-.76 1.58.8 0 0zm-6.85 0c.29-.19.34.36 0 0zm9.7.08c.04-.3.6.1 0 0zm-.65-.25c.04-1.42.31.61 0 0zm-8.95-.05c.11-.42.24.4 0 0zm18.1-.17c.1-.55.06.69 0 0zm-8.84.05c.25-.4.11.42 0 0zm-9.72-.38c.05-.74.15.71 0 0zm13.22-2.87c.03-.3.59.1 0 0zm-10.5-1.21c.29-.2.34.35 0 0zm9.39-.36c-1.32-.9 1.42.68 0 0zm-11.1-1.68c-1.24-1.35.67.09 0 0zM2.68 433c.07-.8.23.8 0 0zm-16.6-1.04c-.47-1.8 1.13-.25 0 0zm.1-1.3c-1.24-4.22.32 1.98.53-1.96-1.26-6.44 1.24.83-.52 1.96zm4.65-.17c.67-.56-.36.71 0 0zm-.27-.06c-.16-2.11.37-2.96 0 0zm.32-1.27c-.11-2.76.26 2.08 0 0zm-5.11-.8c.17-4.1.65-3.1.04.23zm4.99-1.56c.1-4.08.15 4.2 0 0zm1.13.36c.77-1.22.94.24 0 0zm-.14-.46c-.2-3.06.32-2.22 0 0zm.6-.64c.14-.3.03.5 0 0zm-.16-.57c-.16-1.21.38.94 0 0zm-.45-1.2c.07-.8.23.8 0 0zm.3.05c.15-.3.05.5 0 0zm-1.28-.45c.15-.3.05.49 0 0zm1.12-.29c-.9-3.81.78 1.95 0 0zm-2.26-9.04c.37-.43.12.44 0 0zm-3.5-1.84c.2-1.5.11.88 0 0z" style="fill:#000;stroke-width:.3;stroke:#000;stroke-opacity:1;stroke-dasharray:none" transform="translate(54.2 -289.88)"/></g></svg>