<?xml version="1.0" encoding="UTF-8" standalone="no"?>
<svg
   xml:space="preserve"
   width="153.02705mm"
   height="230mm"
   viewBox="0 0 153.02999 230"
   version="1.1"
   id="svg1"
   xmlns="http://www.w3.org/2000/svg"
   xmlns:svg="http://www.w3.org/2000/svg"><defs
     id="defs1" /><path
     style="fill:#000000;stroke-width:0.490056"
     d="m 108.4559,230.9891 c -2.31027,-1.72295 -4.90495,-3.36063 -1.12299,-0.29687 -2.63655,-1.13168 -7.641834,-3.29632 -1.87312,-0.46205 0.90974,0.28284 2.01157,1.07125 2.99611,0.75892 z m -3.38373,-2.91135 c 1.47488,-1.66939 -3.75531,-4.48787 -3.35911,-6.22111 1.09691,0.37117 -3.218932,-6.84517 -0.56098,-0.94866 -0.75084,2.04479 4.04443,5.31451 3.92009,7.16977 z m -3.36166,-0.73252 c -2.055756,-0.56868 -9.042271,-6.38016 -7.319848,-4.12486 3.738655,1.61138 4.103556,4.00748 7.319848,4.12486 z m 28.21058,-1.06477 c 6.7131,-2.97976 -7.44385,2.00375 -0.33028,-1.66274 0.95564,-5.97521 -8.29133,-10.18664 -12.42504,-8.73409 2.05356,2.83522 -5.59122,-2.28494 -0.58481,0.96218 3.34794,2.53957 -0.72062,-3.94612 4.32936,-0.9156 3.11983,2.10801 9.52696,2.92291 7.98799,8.88376 -5.28479,0.76811 -1.98874,1.89593 1.02278,1.46649 z m -35.270803,-0.13522 c -2.152528,-4.51353 -1.471456,-3.56901 -1.712546,-0.9653 -3.051276,-2.12676 -6.131369,-2.52477 -1.119467,-0.35776 0.819423,0.50072 1.803587,1.46741 2.832013,1.32306 z m -10.517139,-0.84515 c -3.673836,-2.57347 0.727246,1.20577 0,0 z m -1.393589,-1.52242 c -2.752041,-2.73736 -5.025387,-1.61336 0,0 z m -3.65443,-0.34328 c -2.217768,-1.93203 -2.054995,0.66584 -5.400902,-2.30036 -2.407399,-3.48104 2.240715,4.30113 5.400902,2.30036 z m 54.797451,-0.61498 c 0.90794,-4.12748 -2.96373,-7.32348 -0.1164,-1.4072 0.35802,0.10332 -1.37243,2.85993 0.1164,1.4072 z m -45.458358,0.12058 c -2.367978,-2.99192 -2.521841,-0.6729 0,0 z m -29.100074,-0.66335 c -3.068491,-1.10823 -6.142774,-5.17024 -2.022066,-0.31534 0.377987,0.4444 4.28367,0.93784 2.022066,0.31534 z m 17.786244,-0.33979 c -2.261025,-1.8973 -0.8733,-5.15285 -5.485278,-5.32821 4.706267,0.71185 2.343454,3.91932 5.485278,5.32821 z m 9.349293,-0.8961 c -2.496208,-2.10697 4.007821,-0.81694 -0.417198,-4.57162 -1.573714,-4.04219 -12.994358,-6.07882 -5.643184,-3.93549 2.422935,0.0396 10.037513,8.76791 4.050955,6.36597 0.378291,0.89696 1.055596,1.81351 2.009427,2.14114 z m -25.114726,-1.17429 c -1.924442,-5.18986 -0.08534,2.51354 0,0 z m -4.321746,-0.0137 c -0.516343,-2.70011 -4.614852,-4.34312 -1.8842,-4.47448 -1.681917,-4.44376 -1.973464,-9.26737 -3.79008,-11.54319 1.37931,-2.57096 -3.03532,-10.45426 -2.044222,-11.78002 -3.396668,-11.94643 -5.471139,-24.34413 -9.443368,-36.08765 2.78329,2.81058 -0.552549,-3.17637 -1.353528,-5.41441 -0.43475,4.00125 6.500647,13.31484 0.833467,13.29235 -1.706623,1.69149 -6.575433,8.35784 -3.044511,2.59451 1.590363,-3.47315 -0.480936,-3.04404 -0.796479,-3.48902 1.542771,-1.96749 4.775976,-5.66581 0.859789,-1.8322 -2.251507,2.69839 -1.885273,3.27567 -0.128564,3.084 -0.222511,3.4216 -4.781122,8.92631 0.644659,3.69402 2.892955,-9.031 8.441199,0.5327 6.641897,5.3113 2.365984,1.09136 2.312027,10.48531 2.292347,9.49034 2.6512,1.68341 1.988103,10.28243 4.143992,14.2685 1.631368,5.98694 0.50158,7.02051 3.2331,12.96049 0.385364,4.28523 -7.328841,-6.41876 -2.797638,-0.0559 1.113799,0.271 5.405809,4.39116 3.373564,5.03527 -1.891979,-1.75858 2.484567,5.66075 3.259775,4.94613 z m 3.158147,-0.50021 c 0.551874,-2.31419 -4.45273,-7.84555 -0.180457,-6.82102 -4.638203,-0.12269 -2.862919,-7.89069 -4.554143,-9.36922 0.869876,4.15813 1.50593,10.17918 3.66761,12.36844 0.438084,2.07816 -1.441867,3.69953 1.06699,3.8218 z m 12.420566,-0.58538 c -2.16769,-1.88485 -7.488054,-0.15872 -8.276581,-3.62053 4.588095,0.47456 -7.112903,-9.32637 -0.46735,-2.32108 1.135081,1.47989 -5.217325,-2.98833 -0.81616,0.39731 2.678591,0.88697 2.74005,2.1321 0.415246,1.6684 2.057174,3.62275 5.894146,3.31707 9.144845,3.8759 z m 37.478164,-0.27907 c -2.96799,-3.68304 0.74604,-3.61075 3.48481,-3.27589 -2.75465,-0.76482 -8.85387,-4.64894 -9.35115,-4.47558 1.81521,1.9278 10.77271,4.60448 3.56546,3.83887 1.98641,1.61479 0.40725,3.73533 2.30088,3.9126 z m -4.46652,-0.4871 c -4.14478,-2.15296 2.96806,-2.11921 -2.12724,-1.96394 4.83633,2.44194 -7.525593,0.605 -1.61058,0.91296 1.26471,-0.15188 2.65693,1.41749 3.73782,1.05098 z m 25.60245,-0.97799 c -3.21007,-3.48497 2.12468,3.01577 0,0 z m 0.1739,-1.62557 c 0.78263,-4.71657 -11.22761,-5.67535 -2.93805,-3.60635 2.9012,2.08919 1.28741,1.93667 0.64478,1.60152 0.9135,-0.4845 2.66612,3.81778 2.29327,2.00483 z m -3.30838,-0.9985 c -0.47686,-2.86358 -2.06758,0.0445 0,0 z m -83.104405,-2.01449 c -3.46787,-3.44877 -1.686578,-0.56984 0,0 z m 79.585325,-0.47922 c -1.87654,0.0398 -10.72038,-2.30356 -7.5092,-7.03681 -3.05992,3.95194 2.45908,7.84655 7.5092,7.03681 z M 79.890788,211.0449 c -1.520584,-1.74896 0.63446,-0.38618 -2.310169,-3.28407 -2.09353,-2.40338 -4.854905,-8.44523 -1.656811,-1.94058 3.019549,4.14632 0.641785,1.76286 3.96698,5.22465 z m -2.023805,-0.16546 c -1.445296,-2.19963 -3.65655,-2.57501 -0.575234,-0.47379 z m -35.870422,0.0156 c -2.28114,-2.74294 -1.686666,0.009 -2.619169,-2.88419 4.827863,2.4807 -5.543357,-3.3317 -1.889093,-4.17294 -3.26534,-3.11875 -4.302267,-2.34672 -0.820694,-0.17827 -3.059301,3.30804 3.075863,4.2871 3.492298,6.5967 0.567042,0.11128 1.179486,0.93863 1.836658,0.6387 z m -5.109231,-4.17618 c -2.741534,-2.31012 1.918958,-0.0498 -2.1e-5,0 z m 35.971735,4.06116 c -3.693134,-3.99295 -0.981042,-3.50776 1.285826,-2.0277 -4.683258,-4.7621 -2.908824,0.53602 -3.123945,1.30479 -2.88799,-0.33943 -8.389548,-7.12456 -3.760841,-1.56913 1.541945,1.29823 3.592421,2.21001 5.59896,2.29204 z m 48.488255,-0.39192 c -2.13707,-2.4327 -5.02662,-3.28107 0,0 z m -18.77911,-1.25953 c -4.532575,-3.2519 0.0626,0.71276 0.10783,0.10508 z m 34.31437,-0.32266 c 0.50662,-3.30507 -2.21348,-6.64886 -0.9736,-7.57968 -2.95665,-3.16406 -4.8833,-7.63815 -9.45165,-8.93509 3.57345,2.21799 8.40655,6.7137 8.43297,9.41215 1.07898,3.09014 2.90188,8.33847 0.16226,2.61869 -0.1756,-4.16186 -9.64576,-7.08199 -5.26272,-3.95512 -1.08125,-5.03415 7.04386,6.51377 7.09274,8.43905 z m -16.3806,0.0888 c -1.74251,-5.74778 9.1761,-2.55546 4.18573,-8.25071 4.14462,5.26484 -7.75108,3.43994 -4.18574,8.25075 z m -72.547165,-0.94207 c -1.845368,-2.33201 -5.074761,-5.74808 -1.66758,-1.07373 0.522636,0.0596 0.962371,1.44922 1.66758,1.07373 z m 50.795826,-0.84656 c -3.36793,-0.7918 -7.384904,-9.32827 -3.67398,-2.2939 -0.109833,0.75721 7.109719,4.44396 3.67398,2.2939 z M 61.007486,206.1838 c -0.951289,-1.39496 -2.714221,-5.33462 0.356773,-2.85676 -0.317595,-2.82957 -0.470859,-3.95837 -0.593221,-0.58193 -4.772737,-3.64942 1.513967,5.96047 0.236448,3.43869 z m 48.600784,0.45362 c -2.50199,-0.63367 -4.06523,-0.4965 -2.21524,-1.33268 -7.957041,-1.26087 -0.96926,1.56457 2.21524,1.33268 z m -1.15237,-0.57179 c 3.71934,-1.29542 2.29583,-2.09873 0.4844,-4.86818 -3.17808,-6.66632 12.3451,5.57859 4.53836,-1.02382 -5.59047,-3.3118 -7.00715,-0.12318 -3.6016,3.54322 -3.65333,0.21583 -9.991334,-6.95893 -9.84508,-5.88063 2.77438,2.2492 9.50404,8.88891 6.51599,5.02798 2.71336,0.39181 5.72903,2.25067 1.31078,2.76077 l 0.25223,0.26443 0.34494,0.17638 z m -43.042364,-0.8753 c -1.507117,-4.00811 -4.825717,-5.20181 -0.793546,-1.05126 0.111385,-0.59144 0.775344,2.13157 0.793546,1.05126 z m -34.05716,-0.0136 c -2.687626,-3.42856 -1.94912,-2.90395 -1.838248,-1.17676 -3.497268,-2.73044 -4.828021,-7.75889 -5.053002,-11.51514 -0.725647,4.67052 2.267914,11.31219 6.89125,12.6919 z m 4.54784,-1.09373 c -3.270136,-3.74412 -2.564948,-0.57717 0,0 z m 19.407963,-0.11219 c -2.79497,-8.21841 -4.69805,-17.05805 -6.773914,-25.60945 0.761304,-0.50328 -2.449835,-6.47275 -0.720577,-1.23893 2.413457,8.97514 4.04531,18.29359 7.378189,26.95096 l 0.116316,-0.10266 z m 20.761559,-1.21215 c -3.140285,-3.57404 -6.512371,-13.13239 -3.387132,-4.38938 0.319155,0.70364 4.729611,6.75482 3.387132,4.38938 z m -30.965371,0.4545 c 1.132989,-0.752 -0.138715,-7.27114 -1.120432,-7.87638 0.568601,2.32379 -5.854733,-5.89008 -5.320377,1.49061 -1.506754,-2.76723 -3.163318,-6.85374 -1.540691,-1.86324 2.325849,3.96978 1.238988,1.50055 2.957721,-0.79825 3.646273,-0.55201 6.508955,7.61231 4.326617,7.94173 l 0.697156,1.10664 z m 50.489365,-2.07669 c -0.866014,-3.28086 -8.914636,-6.9413 -2.495496,-2.78975 1.306962,-0.007 1.980212,3.80791 2.495496,2.78975 z m -64.155518,-0.0375 c -1.280385,-1.98774 -2.965266,-6.25485 -1.296451,-1.17727 -3.765916,-4.10528 -1.498392,0.94814 1.296451,1.17727 z m 92.904826,-0.15414 c -1.19935,-3.05449 -2.14982,-1.37837 0,0 z m -64.215141,-0.63946 c -3.05661,-6.01338 0.819848,-0.31131 0.237658,-1.51051 -2.077547,-3.66411 -3.598739,-5.78111 -1.171255,-0.33293 l 0.53189,1.26629 z m 59.150061,-0.9937 c -2.04856,-3.22482 -5.12389,-6.69625 -1.35161,-1.4548 -2.07588,-2.98269 -13.06883,-2.5172 -4.56356,-2.06843 2.26228,0.61091 4.04936,2.20141 5.91517,3.52323 z m 4.17943,-0.73493 c 0.85655,-1.82791 4.54053,0.25078 -0.0734,-1.16409 -0.30332,0.4141 -0.76128,0.95843 0.0734,1.16409 z m -48.978136,-1.75353 c -1.259516,-2.56413 -6.051853,-9.42579 -2.088423,-2.99497 3.695469,4.4726 -1.725592,0.45019 2.088423,2.99497 z m -45.123755,-0.5924 c 1.622188,-4.01704 -0.459514,-2.24131 -0.133436,0.5092 l 0.133428,-0.5092 z m 90.330391,0.11589 c -3.39805,-3.94232 -2.2867,-0.45504 0,2e-5 z m -30.528014,-0.36652 c -4.750534,-3.361 -8.686291,-8.4598 -11.565587,-13.08846 2.521126,5.15743 6.693542,10.05015 11.565587,13.08846 z m -43.710557,-0.30207 c -1.126109,-2.90617 -2.341087,-9.86094 -1.086141,-2.598 0.770458,1.43398 0.01078,2.13881 1.086141,2.598 z m 52.385589,-0.71424 c -2.435311,-2.94961 -5.903505,-6.02001 -1.36489,-1.26987 l 0.698244,0.70416 z m -72.098506,-1.76482 c 1.266154,-5.42722 -1.70002,2.25706 0,0 z m 5.230089,-0.0699 c 2.695767,-0.60872 -0.102427,-4.08854 2.487945,-4.30494 -2.630291,-0.68206 -1.450298,5.05956 -2.487945,4.30494 z m 84.692039,-0.0496 c -3.83098,-1.35045 -11.44495,-7.16183 -11.91712,-7.81548 2.89494,4.10916 7.69728,5.59272 11.91712,7.81548 z m 9.97738,-0.96573 c -0.236,-1.97531 -3.73094,-0.98942 -2.96991,-3.04991 -2.68643,-1.59757 -9.57716,-2.227 -9.13422,-4.68225 4.31583,0.38909 -6.68952,-5.58831 -8.4244,-7.50888 -5.698226,-5.33114 0.78847,-6.16744 3.6421,-0.7551 0.21065,-5.67374 -10.634957,-11.64397 -10.715641,-10.51927 4.025981,0.63946 9.868711,7.00047 9.426641,8.53725 -2.70633,-2.87592 -7.51622,-3.72948 -4.64268,0.60411 2.07166,4.42545 9.89298,6.40574 11.08395,9.48413 -4.87178,-0.45209 4.84552,5.07235 6.90583,4.30425 0.75087,1.09384 4.55322,4.40878 4.82833,3.58567 z m -88.917078,-0.95729 c -0.715207,-3.10236 -4.832203,-3.8994 -0.669972,-0.78861 -1.242774,-0.70362 0.972787,1.82103 0.669972,0.78861 z m 26.383933,0.0741 c -2.022422,-3.07185 -2.919864,-11.451 -3.223647,-12.29074 0.07418,4.29594 1.269512,8.48886 3.223647,12.29074 z m 73.221975,-0.81226 c 4.1977,-0.90942 3.9394,-6.719 1.98844,-1.37367 -2.8908,2.63843 -8.76416,-0.67778 -3.27022,1.52457 l 1.28178,-0.14979 z m -110.465326,-0.6716 c 2.181165,-0.24531 3.387306,-8.35873 1.19105,-2.04566 -0.244099,0.24741 -2.404922,2.38268 -1.19105,2.04566 z m 103.207336,-0.0137 c 1.99678,-3.43848 7.54773,0.70537 3.25743,-2.59777 3.86818,-7.31109 -2.20829,2.96983 -1.42425,0.47119 -0.37787,-0.3747 -3.47082,2.31934 -1.83318,2.12658 z m -4.17995,-0.36862 c 0.96686,-0.75034 1.94506,-3.19726 3.11754,-4.57306 -2.05078,1.18907 -2.58516,4.77942 -2.58827,0.29714 0.80274,0.95205 -2.00011,5.4762 -0.52927,4.27592 z M 20.666796,187.91442 c 1.711946,-2.2662 9.096877,-6.05946 2.656219,-2.57642 -3.717547,2.70869 -0.36146,-2.53001 -3.114688,2.51437 l 0.112447,0.50379 0.34601,-0.44179 z m 50.240715,-1.27417 c -1.296948,-3.14389 -3.332602,-5.45434 -0.714758,-0.74434 -2.820789,-3.82278 -1.390178,2.71299 -1.584906,-0.98371 0.23067,-0.19474 2.763238,2.83418 2.299664,1.72805 z m 21.712537,-0.12158 c -0.497737,-2.36969 -2.789619,-8.55688 -3.465946,-6.64851 2.427672,0.66388 -0.04918,4.33133 1.875283,1.67574 2.274434,5.4956 -0.999543,3.40317 -3.037095,0.41184 -0.09276,-5.26456 -1.124887,3.16483 2.663233,3.05558 0.522324,-3e-5 1.363959,1.76725 1.964525,1.50535 z m 48.886902,-0.50913 c 2.40947,-6.06104 -1.87034,-1.01559 -3.59691,-0.18108 -3.69333,-0.6753 3.35213,-5.58182 -1.37857,-2.09423 -0.78808,6.40084 7.67445,-3.78628 4.97546,2.27529 z m -12.6075,-0.29974 c 2.42247,-2.63463 -0.62103,-7.7626 0.66923,-1.95663 0.0669,2.17415 -1.55328,-1.46758 -0.66923,1.95663 z m -3.86644,-1.15503 c 1.60307,-2.37173 5.36676,-2.82468 1.75294,-5.88934 -0.0608,-3.12773 -0.35773,-7.14802 -0.52414,-1.4246 1.25323,2.74955 1.94868,4.95082 -1.31261,6.13492 -0.46269,-0.18347 -0.20301,3.19057 0.0838,1.17902 z m 7.69583,-0.15531 c -0.77936,-4.38021 1.98473,-4.25115 2.32072,-4.96026 -2.22638,-0.77372 -4.67699,4.48897 -3.43919,2.06507 3.48786,-1.22535 -0.58001,3.87183 1.11847,2.89519 z M 23.473885,183.93975 c 0.571106,-4.20818 10.385078,-5.12505 10.041206,-5.13018 -4.144943,-0.92549 -9.275568,2.10265 -10.822089,5.47388 l 0.05812,0.24642 0.722768,-0.59002 z m 80.849825,0.062 c -1.0737,-2.27242 -6.662069,-6.25037 -1.97898,-2.06559 0.52239,-0.0795 1.91744,3.08485 1.97898,2.06559 z M 90.720661,183.6912 c -1.885565,-2.36041 -3.154547,-1.54475 0,0 z m -22.929654,-0.43475 c -0.948456,-2.06519 -2.275963,-7.05202 0.0028,-1.86238 -1.597799,-2.91904 -4.591507,-14.50851 -2.341469,-5.42049 0.578014,1.92798 1.59327,7.33476 2.338685,7.28287 z m 11.429471,0.0345 c -1.287917,-3.20883 -6.645706,-9.96994 -2.072591,-3.10895 0.678133,0.71164 1.46852,2.74827 2.072591,3.10895 z m 60.549152,-0.66173 c -0.77951,-2.58873 9.20912,-7.16674 3.49261,-4.93431 -0.78068,0.82051 -6.06064,5.08103 -3.49261,4.93431 z m -9.33055,-3.14875 c -1.21802,-3.84472 -1.73214,1.64359 -0.60752,-1.02306 0.7083,0.28988 -0.55483,1.57139 0.60752,1.02306 z m -9.6974,-0.62485 c 1.13437,-3.53406 -2.17181,-9.31542 -0.035,-2.24484 0.16279,1.72714 -3.62574,-6.29298 -5.84248,-6.17376 -0.79932,-0.29375 5.83822,4.97318 5.8775,8.4186 z m -33.275589,0.17307 c -2.810133,-2.385 -0.644397,-3.60111 -2.276509,-4.06372 0.143238,1.6058 0.292211,3.19665 2.276509,4.06372 z m 9.849674,-1.80155 c -5.974859,-6.10513 4.440165,4.53545 0.07435,0.0725 z m -61.331851,1.10583 c 3.598248,-2.14093 -0.961203,-2.3964 4.284002,-3.68018 6.339293,-1.94615 -3.618152,1.56447 0.642659,-2.56104 -0.532792,-1.87021 -0.271024,-3.14966 -2.016081,0.0829 6.225919,-1.85699 -6.483115,5.70768 -1.26881,4.32501 -0.0034,0.73993 -4.549096,2.72267 -1.64177,1.83331 z m 52.240554,0.0156 c -0.612204,-3.72656 -3.253612,-4.4597 -0.07776,-0.88021 0.03505,0.61978 -1.088793,-0.0258 0.07776,0.88021 z m 45.159152,-0.11414 c 2.93591,-3.79116 -5.53529,-0.38356 -0.43612,-2.0304 3.1428,1.26567 -2.8784,2.25956 0.43612,2.0304 z m -4.86036,-0.13483 c 1.87929,-3.21478 -3.30713,-1.10625 -1.23985,-1.08612 -0.0581,-2.16504 2.28741,0.78659 1.23977,1.08606 z m 10.85993,-0.40133 c -0.99721,1.14805 -1.48547,-4.76939 -1.54074,-4.26363 1.53943,1.51577 -2.3406,4.97461 1.54074,4.26363 z m 1.42696,-0.28061 c 1.90873,-2.72808 5.04925,-5.45564 1.23305,-2.843 0.50827,0.76199 -2.86954,3.95657 -1.23305,2.843 z M 54.30258,175.6358 c 1.804038,-5.29271 2.862149,-16.46342 7.519447,-17.50436 0.04926,0.38117 2.125798,-4.94643 2.856759,0.71774 2.145742,3.09062 1.840906,-1.22781 0.185739,-0.3662 -1.609172,-2.43134 -0.81608,-9.13588 -1.72224,-2.88658 -2.743859,2.43502 -6.48225,6.55968 -3.065786,0.25762 3.902666,-1.03424 -1.681327,-3.036 2.351021,-4.9922 2.39663,0.80389 -0.04639,-4.43966 2.653462,-6.68554 1.934675,-7.07178 -1.550908,3.56222 -2.439666,5.72479 -2.509566,2.91911 -3.550474,7.31457 -4.314538,11.36819 -0.62166,3.36227 -7.214051,11.53167 -1.732402,4.85968 -0.957732,1.53839 -3.12712,11.80475 -2.291796,9.50686 z m 93.64648,-0.0176 c 1.63065,-2.0251 1.14124,-3.64374 -0.0389,-0.57133 -0.80469,-4.47353 -1.62689,-2.14216 -0.41614,-0.59434 0.15089,0.35485 -0.94758,2.59494 0.45501,1.16567 z m -97.868997,-1.0189 c 2.496953,-3.18084 3.096463,-4.29498 -0.173459,-0.36079 -0.402882,0.41401 -1.101404,3.66772 0.173459,0.36079 z m 46.458014,0.68653 c -1.670734,-1.38423 -6.825756,-8.84509 -6.412073,-7.52607 1.619395,2.87804 4.259079,5.0621 6.412073,7.52607 z M 60.60115,173.87742 c 1.264046,-5.78675 0.616442,-2.91266 -0.368107,-0.50256 -0.717065,-2.81125 -0.336538,-7.3689 -0.676422,-1.75302 0.0039,0.53817 1.024433,5.44609 1.044529,2.25558 z m -31.740869,0.42287 c -2.24525,-1.96172 -2.95467,0.0496 -4.949245,-0.97533 1.298054,1.50861 4.943773,0.36255 4.949245,0.97533 z m 57.122168,-0.0195 c -1.365022,-2.41841 -2.872292,-8.30229 0.225751,-6.84744 0.102549,-5.30078 -5.130324,3.4013 -0.677354,4.88313 0.435055,0.89606 -0.827504,1.04718 0.451603,1.96431 z m -1.212656,-0.22897 c -1.902258,-2.61068 -2.588257,-7.38908 -3.373957,-4.8266 2.400872,0.78741 0.703332,4.59023 3.373957,4.8266 z m -37.638066,-0.90453 c -0.384525,-3.04755 -3.025431,-11.44479 -1.13594,-3.40041 0.151172,0.20421 0.990766,4.62563 1.13594,3.40041 z m 80.120863,-0.86223 c 1.87083,-5.39364 10.01445,-0.55765 9.90035,-0.70914 -2.31725,-5.19862 -12.53038,0.36287 -9.90035,0.70914 z m -8.1355,0.0704 c -3.00111,-2.98937 -0.12115,-10.53338 -2.09981,-4.40069 -0.5527,0.96512 2.85216,5.7124 2.09981,4.40069 z m 29.61605,-0.65252 c 1.89151,-2.13497 -1.70046,-7.49926 0.32555,-1.74574 -0.38919,0.26199 -0.84169,4.17935 -0.32555,1.74574 z m -123.584662,0.52833 c -0.905164,-2.54669 -9.119982,-3.43328 -5.378933,-9.16721 3.817116,-0.8016 3.973176,-7.10733 0.336694,-7.3935 -3.006044,-2.85684 2.648918,-0.82777 -1.545443,-2.63268 1.380953,-6.76217 -1.598365,5.1473 2.98934,3.48245 4.358177,5.09119 -7.431027,7.33413 -1.281534,12.86084 0.928761,1.5934 4.032035,2.14553 4.879876,2.8501 z m -1.125418,-0.88012 c -1.105275,-1.40523 2.53021,1.332 0,0 z m -2.325985,0.0589 c -1.878257,-0.61374 -5.943998,-3.35632 -1.821678,-0.23823 -1.026982,-0.42895 3.375083,1.33783 1.821678,0.23823 z m 122.746865,-0.85579 c -1.01861,-3.95095 -2.97927,-6.23662 -0.79396,-1.54848 0.27335,-0.0283 0.7437,3.09323 0.79396,1.54848 z m -95.744703,-0.56874 c 3.104729,-2.36783 -3.192859,1.76718 0,0 z m 1.769335,-1.00905 c 1.45958,-1.975 7.031463,-12.82098 1.490174,-6.8068 2.747497,-6.09091 -3.294902,4.77391 1.416554,-0.90932 2.080364,0.7884 -5.94885,9.55867 -2.906728,7.71612 z m 62.856248,-1.01758 c 2.02381,-1.81072 -4.81201,-11.60368 -4.4871,-9.22853 3.97263,1.64793 4.24131,10.10996 4.4871,9.22853 z m -34.578065,0.29758 c 0.887663,0.72405 -3.536348,-5.18941 -2.948117,-7.08176 0.459597,3.73932 5.855448,5.27775 4.180916,2.63548 -2.352696,2.92245 -9.660035,-12.85514 -5.901526,-4.55885 1.540024,1.29051 3.038117,8.89646 4.668727,9.00513 z m -19.285631,0.22469 c 2.01727,-4.17363 0.01017,-1.89751 0,0 z m 2.468497,-0.49526 c 1.645968,-4.62436 -1.441889,1.81339 0,0 z m 85.910819,-0.49018 c -1.0753,-3.36158 -2.18613,-3.51149 0,0 z m -56.709232,-0.25548 c -2.849368,-5.89997 -8.189661,-10.52 -9.635851,-17.14539 -1.52067,1.35056 8.693917,15.03398 1.534017,6.61392 -4.018777,-3.37178 -6.117444,-9.28992 -8.795898,-13.59424 -1.514182,-0.96825 4.211988,7.61412 2.077002,5.73806 2.977184,2.94122 -0.503606,0.74046 3.007125,4.13355 1.59663,3.24114 -2.828577,-0.79274 -0.914046,3.0591 0.0096,-3.07694 5.86498,1.56078 4.946771,2.3496 2.676206,0.98384 5.724495,5.80861 7.78088,8.8454 z m -74.42246,-0.21779 c -1.478162,-3.36964 3.93129,-8.35242 0.04812,-10.39921 -1.407414,-0.66232 -2.34821,-0.83903 -1.012751,1.94062 0.975202,-4.39991 3.80376,4.9556 0.01436,5.27377 -0.313766,0.84576 -0.0426,2.98618 0.950271,3.18482 z m 126.258212,-1.75897 c -0.96704,-4.45715 -10.96502,-4.57559 -4.29586,-3.27428 1.87113,0.20296 3.32781,2.40513 4.29586,3.27428 z m -3.65291,-0.14341 c -0.12303,-1.77161 -3.15003,-4.23403 -0.80801,-1.26893 -2.85241,-2.29139 -4.93445,-2.66921 -0.78357,-0.17945 0.64137,0.0322 0.84907,1.74035 1.59158,1.44838 z m -55.629123,-0.18633 c -2.49696,-2.39878 -4.400092,-2.18783 0,0 z m -36.699216,-0.26967 c 2.604413,-2.20508 3.857303,-13.17967 2.275586,-4.87437 -0.542838,1.70495 -2.463503,2.92606 -2.275586,4.87437 z m 37.919432,-0.15102 c -1.11336,-2.39758 -2.482601,-7.37288 -1.111436,-1.78422 l 0.664549,1.16396 z m 37.559397,-0.22251 c 3.73326,-0.87489 -8.00068,-3.86822 -0.45747,-0.67448 -0.72873,0.29974 -8.64782,-1.04457 -2.98304,0.0538 0.95368,1.15517 2.1774,0.39904 3.44051,0.6207 z m -39.124821,-0.57886 c -0.144248,-3.34808 -0.569544,-1.32404 -0.103622,0.58721 l 0.103555,-0.58721 z m -38.362584,0.39257 c 0.409988,-3.37302 -2.50097,-7.09463 -2.644067,-12.24327 -0.109116,3.48818 1.381751,9.64891 2.644067,12.24327 z m 50.896213,-0.12682 c -1.957179,-3.10653 -6.678814,-6.43737 -1.779385,-1.63438 0.1426,0.0325 2.063802,2.21708 1.779385,1.63438 z m -33.381385,-0.35974 c 3.662632,-3.39754 -2.841212,0.92738 0,0 z m 84.758987,-0.1116 c -0.386,-4.18256 -8.21301,-5.68507 -2.45517,-3.18136 0.77821,-0.18047 2.39512,4.4618 2.45517,3.18136 z m -39.2011,-0.84459 c -1.02451,-2.56454 -0.17294,-7.21453 -0.89085,-1.60483 -1.39129,1.35236 -4.21113,-13.45509 -4.79715,-5.41531 -1.64284,-3.77847 -4.153335,-9.16252 -7.562107,-12.75451 0.128574,-5.251 -8.162266,-9.3023 -7.831219,-8.08601 2.079758,1.81787 2.336565,1.42004 0.521587,6.04884 -2.477151,3.89722 0.04603,2.31217 1.927582,6.89259 0.857232,3.2085 5.652079,6.6234 1.303094,2.04138 -4.060556,-3.93874 -4.003629,-10.11136 -0.712507,-13.32807 4.472296,3.7752 5.790681,10.03049 9.646104,13.72198 0.132161,3.29618 4.465196,10.37318 3.116866,2.92661 2.5099,3.28044 1.73975,7.98817 5.2786,9.55733 z m -26.630982,-0.27314 c -1.225562,-3.74025 -2.885767,-6.51462 -0.822009,-0.93791 0.01354,1.15906 0.334418,0.21107 0.822009,0.93791 z M 60.77834,162.10308 c 2.478536,-4.60223 0.203892,-1.35089 0,0 z m 73.12321,-0.15706 c -3.96844,-0.72975 -10.87315,-9.39997 -4.92972,-2.2049 1.39267,1.05653 3.13632,2.19844 4.92972,2.2049 z m -119.469018,0.0195 c -3.426529,-2.60877 1.289007,-1.30915 -2.017983,-5.24275 -2.012669,-2.20262 -3.0933488,-0.7301 -3.1204575,-0.59632 0.062107,2.24894 2.5399635,-2.68964 3.4303225,2.48127 -0.451219,1.02611 -0.869273,1.90551 1.708118,3.3578 z m 99.906308,-0.84955 c -0.34787,-3.54781 -4.75247,-8.31536 -0.8656,-2.14274 -0.20878,0.35615 1.28692,3.89985 0.8656,2.14274 z m 4.53035,-0.14497 c -1.30387,-2.44662 -3.85816,-6.55989 -1.34493,-7.93459 -0.36416,-4.58261 -3.21191,5.81026 0.75016,6.9305 l 0.67039,1.33532 -0.0757,-0.33128 z m -39.513362,-0.0712 c -1.662234,-1.08362 -0.743322,-3.93422 -1.771577,-3.51119 0.08367,1.23671 0.425751,3.75246 1.771577,3.51119 z m 0.588678,-0.77349 c -1.126214,-3.26329 -1.42531,-0.70922 0,0 z m 16.066458,-0.57527 c 1.61406,-4.05232 -5.234408,-11.11291 -0.530729,-3.66237 3.217463,6.58138 -8.789763,-8.35593 -3.164721,-0.5256 2.055704,-1.04109 2.600039,3.13696 3.69545,4.18797 z M 53.75231,158.7249 c 2.820949,-5.87293 5.576855,-5.42989 7.97742,-10.53481 -5.254286,7.45833 2.12218,-6.32538 2.602239,-7.84186 -1.630021,3.76448 -0.996932,-9.42462 0.05988,-7.4581 -2.110888,-2.68728 -0.88154,8.45288 -1.683877,1.01265 -2.561739,-2.62122 3.408998,9.12482 -1.12025,11.0808 -0.882187,5.24558 -6.890189,10.46017 -7.835412,13.74132 z m -22.090136,0.45559 c 3.060791,-0.11412 10.577513,-1.84083 3.382462,-0.65184 -1.928335,-0.21283 -3.807978,0.57456 -1.88239,-0.68005 -0.751775,-0.37532 -4.171685,2.75873 -1.500072,1.33189 z m 109.296716,-0.70402 c -2.16046,-2.80367 -7.21318,-1.52112 -1.28664,-0.86881 -0.12134,0.63626 2.89504,2.08855 1.28664,0.86881 z m -50.355531,-0.49356 c -1.6424,-2.20693 -4.40989,-14.3759 -2.411081,-5.71442 0.05386,2.25009 1.387801,5.25761 2.411081,5.71442 z m -18.223767,0.0974 c -0.29446,-4.45483 -0.08232,0.54344 -2.549448,-1.74817 1.49691,-2.32981 -2.013281,-6.34028 2.452014,-6.07373 4.540014,0.47669 4.332468,-0.40255 0.276814,-0.23976 -1.673013,-0.70328 -6.050347,2.37971 -1.802847,-1.34622 1.776475,-2.45588 6.911548,0.91227 1.252843,-2.15359 3.234978,3.35738 -8.108965,-1.21473 -1.777874,1.81272 -1.921666,2.44723 -4.068281,0.80577 -0.629124,3.9554 -1.686118,0.46043 1.881268,3.27978 -1.383562,4.60249 1.710902,-0.70695 2.708028,1.13155 4.161184,1.19086 z m 5.079551,-0.34576 c -1.01357,-3.48417 -6.925358,-7.01335 -2.381172,-2.83226 -1.813377,0.9014 2.176188,0.0717 2.381172,2.83226 z m 57.728227,-0.2126 c -3.6076,-0.62477 -2.72849,-5.10772 -3.65461,-1.96566 -2.07909,-0.71653 5.38826,3.58447 3.65461,1.96566 z m -99.887705,-0.0287 c 1.834429,-1.88595 2.294559,-3.13659 0.247329,-1.18421 1.853863,-0.11709 -2.952226,1.97716 -0.247329,1.18421 z m 13.42586,-0.36869 c 1.017442,-1.55625 0.643226,-12.13574 -0.330825,-6.9317 -5.688343,-0.12006 -4.314951,-3.68124 -7.048073,-0.94909 0.522906,-2.71952 -1.446024,-5.16028 0.09464,-7.65568 -1.529542,3.68415 -3.606433,-0.88428 -5.938467,1.65592 5.620349,-1.14221 5.323288,2.78538 1.788564,1.89581 6.457999,-1.25664 1.300374,3.04624 0.816912,2.15513 6.957175,-1.06892 -3.981289,5.87517 -3.022649,-1.59604 -2.174928,-2.50773 0.314407,-7.69616 3.951289,-4.18031 3.681758,-3.99615 2.98625,5.76361 7.912514,3.54166 4.570694,3.86497 -5.465997,-3.17171 0.210437,-1.50146 2.721414,2.84945 1.186145,-1.55572 4.202019,2.88089 1.912384,4.48519 -0.478892,-3.27673 -2.053441,-2.90113 1.191539,-2.58292 5.447089,2.17495 3.662761,-0.43176 3.566943,0.94012 -1.159772,-2.56966 3.94564,-2.41895 2.108125,-0.62699 -2.020138,0.27926 0.76782,-3.04051 1.965161,-2.28734 5.612526,-6.24401 0.949053,-2.17392 0.141553,-0.33558 3.689354,-5.79555 -1.366748,-3.62239 -1.332639,-1.2507 -8.847816,-4.52823 -2.85406,-1.6335 -0.469028,2.25795 4.310646,0.89493 5.19714,2.63873 -1.491562,2.40302 -2.716913,3.85157 -1.005244,3.52996 -2.007255,4.21878 -5.967362,6.42579 -9.902632,7.09079 -3.457129,-0.36608 -5.75967,1.46016 -7.088311,-3.12846 -2.458553,-1.02337 -3.964194,-0.34232 -3.36552,0.5102 -3.170717,-0.8452 -4.987736,-6.20902 -2.480032,-0.75293 -4.265863,2.00259 0.308853,11.37048 2.818325,9.29839 3.424678,-3.34507 2.86484,5.3265 3.317073,0.0985 5.520457,-1.73348 9.121475,3.01425 6.412455,7.91663 l 0.409577,-0.29463 z m 74.047805,-1.38193 c 0.30706,-5.60164 -1.45862,-9.21025 -6.70868,-13.54604 -3.22251,-3.14538 4.2061,4.5465 5.00044,6.06983 0.84003,1.77036 2.61683,9.40639 -0.15709,2.98857 -1.87534,-4.19097 -4.78686,-0.69762 -1.41311,-1.48569 1.5015,1.54814 2.71002,4.65305 3.27844,5.97333 z m -11.70197,-0.32933 c -1.54002,-2.12843 -4.00659,-6.87895 0.0606,-3.65666 -1.56771,-2.9513 -3.53081,-4.89726 -0.78125,-0.59924 -4.46149,-3.88664 -0.35046,4.24843 0.72061,4.2559 z m -42.856853,0.049 c 1.594768,-1.73967 -2.69592,-1.84776 0.165729,-0.77193 0.326021,0.14618 -1.13978,1.29697 -0.165729,0.77193 z m -3.184846,-0.30206 c -1.697437,-3.20792 -1.091197,0.48446 0,0 z m 62.104429,-0.0117 c -0.84522,-2.92664 -0.99041,-5.03724 -0.68314,-0.87186 -1.16559,-2.90759 -1.01314,1.14714 0.68314,0.87186 z m 4.33061,-0.4545 c -0.91184,-3.23261 -0.30897,-7.05643 -0.93024,-1.44193 -0.39846,-1.53978 0.69492,2.62751 0.93024,1.44193 z M 22.566412,154.2852 c 2.559963,-2.1032 6.011026,-4.25495 4.494932,-7.08641 2.341386,3.58671 -8.700721,8.19279 -4.494932,7.08641 z m 110.566128,0.10321 c 2.70586,-1.38342 2.60796,-3.26423 -0.12509,-1.45936 0.29536,-0.25487 -0.60432,1.63443 0.12509,1.45936 z M 10.704102,153.4731 c 2.315954,-1.08048 -2.8694466,-2.024 0.563785,-0.42959 -0.402117,0.0418 -2.0724587,0.54419 -0.563785,0.42959 z m 128.549888,-0.30237 c 4.62416,-3.32897 -1.68142,-3.14576 0.52302,-2.11735 3.12293,0.24703 -6.16785,3.40961 -0.52315,2.11722 z M 7.9253215,152.74805 c -2.0183543,-2.24521 -0.5755913,-11.82358 -1.3549846,-3.48252 -0.6847587,1.27616 0.7517017,3.31528 1.3549846,3.48252 z m 76.1465175,-0.32826 c -1.398386,-2.62862 -7.501712,-13.19042 -3.174914,-5.09825 1.848829,2.47132 1.79279,4.15403 3.174914,5.09825 z m 6.788669,-0.0396 c -1.460071,-3.40309 -5.108586,-4.7217 0,0 z m -76.63863,-1.09937 c 1.998462,-4.0378 -4.5660097,-1.29262 -1.776463,-0.34563 -0.505162,-4.18342 2.694253,-0.34049 1.776463,0.34563 z m 124.442182,-0.6311 c -0.3605,-3.03967 -1.75004,-2.17233 -0.23306,-0.23558 l -0.15967,0.44515 0.39276,-0.20961 z m -12.70511,-0.46581 c 3.26111,-3.5054 0.25896,-3.84089 0,0 z m -109.675843,0.0215 c -1.645873,-3.2705 -2.596198,-4.13486 0,0 z m 115.778713,-1.16654 c 3.68456,-1.13834 5.13482,-3.39496 0.39769,-0.91082 -0.48417,-0.53713 -1.63584,2.82963 -0.39769,0.91082 z m -109.881431,0.09 c 4.15201,-1.49465 4.407214,-5.81687 3.020758,-9.79199 1.406787,4.06785 2.133596,4.40894 0.469519,0.23971 -0.888283,-4.90512 -1.456922,3.90876 0.285154,3.98485 0.188397,3.64733 -4.947194,6.55945 -6.015319,3.66513 -0.04148,1.14263 0.95368,2.5372 2.239888,1.9023 z m 43.293381,-0.23621 c 1.276455,-1.8862 1.680618,-1.74427 -0.643685,-0.48052 l 0.290626,0.53495 0.353052,-0.0545 z m 71.85544,-0.43578 c 0.20997,-4.19825 3.53158,-1.54529 0.76418,-3.33472 -0.29377,0.37338 -1.83408,3.85553 -0.76418,3.33472 z m -121.372209,-0.0117 c 0.827716,-5.76938 0.09453,-3.02279 0,0 z m 124.641329,-0.17761 c 2.49279,-3.2847 3.33253,2.38049 3.75765,-2.99006 -0.54255,4.169 -2.43063,-1.48885 -3.27327,2.10292 -0.16861,-0.74615 -1.01193,1.78653 -0.48438,0.88714 z m -32.01138,-0.2926 c -2.16357,-3.93187 -2.76142,-7.92119 0.27155,-9.06824 2.58751,-2.15838 -2.69752,1.46104 -1.62398,-2.77563 -1.19524,-4.5106 4.06044,-6.56984 5.10905,-7.34291 0.55724,-1.51794 5.91992,-5.64169 3.74484,-5.78978 -1.01679,2.65759 -4.48767,5.76358 -5.27316,5.50547 -1.48587,2.7453 -5.48155,3.61134 -8.1877,3.95129 -2.830054,-2.59035 -9.525236,-5.83616 -6.824103,-8.92049 2.712126,0.45014 7.141843,-6.15396 1.467061,-2.23794 -0.424541,0.9099 4.095882,-2.06742 0.430954,0.9822 -1.553204,1.18303 -3.663056,1.6375 -3.249275,2.6686 -1.23706,-4.56225 -11.43448,-2.4865 -4.398516,-2.91913 4.695338,0.81168 5.45122,6.76594 2.783634,4.61655 6.561953,1.05024 5.299985,5.09844 2.489209,3.34505 5.693036,0.29727 8.934556,3.88227 3.811623,4.13745 4.323533,-1.70971 -4.264465,6.51604 1.132913,0.81045 5.62798,-4.63863 1.30806,1.65731 1.30071,3.38337 0.64688,-5.02193 3.65215,-5.41089 5.88261,-7.4728 2.93453,-0.9015 -3.10583,4.54622 -0.0123,7.34797 0.10214,4.10145 -2.10773,-3.75113 -1.28564,2.4603 0.31424,2.5089 0.64774,5.37979 2.43049,7.31822 z m 31.7382,-0.78195 c 1.9382,-1.68049 -2.25082,0.36027 0,0 z M 17.131388,145.93205 c 1.728451,-3.87857 5.456092,2.80154 1.865601,-2.54636 -5.184079,-3.71273 3.442656,1.64485 -2.240154,1.6555 2.765387,-1.80682 -1.378751,2.54437 0.374553,0.89086 z m 11.133448,-0.0683 c -0.871137,-5.45598 -1.423704,-1.32594 0,0 z m 100.363754,-0.53712 c 2.7968,-0.97723 6.16705,-2.7625 3.93139,-6.51636 0.89288,-1.59518 4.80618,5.79042 2.05729,-0.67532 -5.88968,-6.16918 3.98168,6.40452 -0.63895,0.48109 -1.9134,-2.87006 -5.19527,-1.32311 -3.20166,0.18289 0.26448,-4.84565 4.98758,6.77636 -0.75342,5.07818 -0.54741,-0.5197 -3.25592,3.47251 -1.39465,1.44952 z M 7.5264435,144.667 c 0.8949128,-4.74269 13.7170685,-2.28891 4.7976885,-3.50393 -1.567064,-0.82894 -6.4649891,4.16869 -4.7976885,3.50393 z m 134.9484965,0.0576 c -0.0172,-2.73339 1.7928,1.31547 0.89733,-1.71805 -0.37859,-0.18776 -2.4302,2.32478 -0.89733,1.71805 z m -3.34887,-0.49882 c -3.87281,-2.25768 -3.56721,-0.23586 0.0112,0.12637 0.74683,0.4757 0.20541,0.0626 -0.0112,-0.12637 z m 6.68621,-0.3259 c 2.96411,-2.68912 0.21913,-10.8106 0.87973,-2.97006 1.21101,0.9421 -2.28339,3.01552 -0.87973,2.97006 z M 75.16,143.22432 c -2.935395,-8.15581 -0.544424,1.02507 0,0 z m 65.63034,-1.11872 c 2.56446,-3.7556 -6.39437,-0.29939 -0.45806,0.36471 l 0.45806,-0.36473 z m -1.39381,0.14165 c -3.48049,-3.56054 5.34681,-0.94532 0,0 z m -59.363956,0.0781 c -1.886581,-3.2529 -2.710544,-9.23055 -2.874382,-11.55047 -0.542083,4.09252 1.163495,7.95141 2.874382,11.55047 z m -52.506999,-1.37097 c 1.21961,-3.27936 -2.219974,-9.63568 -0.202291,-3.0174 0.939563,4.57302 -3.972961,-7.27928 -1.012955,-0.27596 0.715675,-0.0676 0.569432,4.92781 1.215246,3.29336 z m 90.675465,0.14887 c -4.46875,-4.44407 -4.45258,-9.8113 1.0828,-12.38246 3.72779,-2.37368 8.59689,-1.12354 11.50614,-4.59112 2.90927,-6.63379 -1.10944,-0.81613 -4.01109,0.0983 2.95582,-3.77043 -2.472,-10.96302 -1.33013,-2.99983 -2.15963,3.983 -3.997,2.97457 -3.2098,-1.00022 -2.02712,-5.33414 -4.24018,-3.84981 -2.00768,0.93457 -1.14541,7.7719 -3.35328,-3.4819 -4.94023,-2.09407 0.84127,3.85533 0.29089,1.96632 0.49084,0.10827 1.38284,2.72053 3.7895,8.59564 4.62751,1.97642 -1.63284,-4.19926 -0.15935,-5.45423 1.50827,-0.96673 0.52367,4.04463 -2.39455,5.97296 2.67271,3.20838 1.99979,-2.16394 1.01846,-9.11889 2.74716,-2.58734 0.37131,4.41956 -5.95679,5.72889 0.26727,3.60482 2.35848,-1.30665 5.46502,-5.54572 2.75417,-0.2542 -3.17482,2.91799 -7.21259,2.18757 -9.38331,3.04021 0.36411,0.45469 -9.88946,4.83924 -4.84231,4.14805 -1.37318,1.31031 -6.8747,4.04016 -2.24568,2.26754 2.7358,4.87984 2.76658,6.89472 0.99226,5.57706 1.20666,0.40607 2.34566,1.75825 3.3211,1.91237 z M 67.493611,139.0977 c 1.508267,-3.90202 3.907632,-4.51621 5.168218,-0.3405 0.620797,0.73613 -1.848195,-5.11333 0.815044,-6.42597 -0.642544,-0.0876 -2.221953,4.09358 -3.669825,2.89002 -0.992399,-0.6764 -1.973905,-2.953 -0.07972,-2.72194 -3.296658,-1.37773 1.981704,-4.32085 4.140321,-2.9041 2.418922,-1.43995 -2.672071,3.87922 1.422126,-0.14907 -0.9156,-0.29436 6.009174,-5.17069 0.817645,-1.48575 1.183968,-3.16309 6.485542,-9.12637 6.802527,-8.50558 -3.521304,-0.80993 -6.055259,9.83944 -5.000374,2.6887 -0.539407,3.58359 -3.227694,9.27627 -7.831979,6.78713 -3.146643,3.63075 -2.088991,-6.64642 -2.477641,-0.0504 0.467796,3.15208 1.919937,5.65155 6.8e-4,9.00446 -0.209125,-0.33817 -0.717929,3.51691 -0.107024,1.21296 z m -28.594544,0.31411 c 1.305735,-5.11425 -4.457606,-9.24887 -1.636476,-13.98192 -3.30491,-3.93173 -3.824575,-2.888 -0.318608,0.43674 -2.880504,5.80278 2.437241,7.54064 1.856871,13.66883 l 0.182625,0.1349 -0.08441,-0.2586 z m -3.457888,-2.48891 c -0.32972,-2.45387 -5.371152,-11.18553 -0.830534,-6.59806 -0.777132,-2.39561 -3.867458,-7.27433 -5.202251,-9.89449 2.566724,1.08502 -1.688882,-7.32467 -0.883775,-2.40864 -4.025929,1.10179 -8.318112,1.94853 -10.301496,-1.40112 -8.6049339,-2.23377 -3.168775,11.7668 -2.621659,7.30185 -4.668653,0.22616 -0.166779,-11.30297 3.667316,-5.9726 1.696971,3.01622 7.262146,0.85147 10.139209,-0.1648 -0.611277,3.15553 0.07121,5.45261 3.06521,8.03961 -1.024127,4.8921 1.385678,6.81966 2.96798,11.09825 z m 48.2317,-0.49586 c 1.139242,-1.71323 -1.400824,-9.56555 1.459854,-5.3699 0.912636,-3.84235 -1.856079,-6.34703 -1.851802,-4.79092 1.753176,2.70814 2.396632,4.31103 -0.516973,2.09643 0.675366,0.95221 1.590801,10.84535 -0.528911,4.39109 1.892495,-3.93084 -5.518268,-2.91346 -2.462805,-3.12742 1.031217,1.88727 2.853882,0.50657 2.731114,4.45445 0.922647,0.0152 0.358056,3.39138 1.169523,2.34627 z m 63.086841,-0.19775 c -1.46451,-6.04859 -12.7283,-4.75587 -12.78353,-1.89206 3.49303,-4.04747 10.14121,-2.18093 12.78353,1.89206 z M 24.567161,134.64245 c -2.682464,-2.57262 -2.881631,-1.48933 0,0 z m 1.460193,-0.95216 c 1.532026,-3.37755 -4.70047,-6.35194 -7.375576,-5.86217 4.271565,0.49169 7.051904,2.16926 7.375576,5.86217 z m -4.600978,-0.21472 c -1.088762,-1.0826 -9.124672,-6.13907 -6.93429,-1.70885 2.04837,4.08288 -7.1125663,-3.94543 -4.6712148,-2.65511 -3.6754551,0.39771 10.7494978,7.83284 5.1722418,2.29724 -2.39633,-4.2 5.129659,2.77401 6.433263,2.06672 z m 50.728489,-0.65148 c 0.609959,-2.33053 -2.121024,-0.95803 0,0 z m -7.812716,-2.14204 c -2.109175,-1.96276 1.530414,-7.16493 -1.271428,-2.48433 -0.313657,0.47631 1.524604,3.50369 1.271428,2.48433 z m -18.418693,0.12526 c 6.998843,-1.80413 3.556889,-1.00854 0.991289,-1.25975 6.264563,-2.73084 -4.299061,1.01099 -0.991289,1.25975 z m 11.190725,-2.63196 c 2.196955,-0.80548 -6.959729,-0.65022 -0.942136,0.008 z m -47.1229695,-0.0425 c -2.2338899,-4.38206 -3.9745751,-4.25345 0,0 z m 42.5809525,-0.21464 c -3.513495,-2.54448 -1.926872,-1.35383 0.137125,-1.32098 -4.997951,-1.79138 -3.374376,0.0608 -1.324639,1.0415 -1.696334,-0.009 1.445375,0.95945 1.187514,0.27948 z m 6.295613,-0.40654 c 1.668882,-2.37281 8.688549,-2.33708 3.827406,-2.47574 2.361108,-2.76875 -6.721404,4.02534 -3.827406,2.47584 z m -40.825131,-0.11102 c -2.428513,-3.09713 -2.532296,-0.85277 0,0 z m 61.648941,-2.28356 c 2.456568,-4.18862 -2.13935,1.51858 0,0 z m -7.563814,-0.30408 c -0.254983,-4.93683 0.0067,-2.50358 -1.646065,-1.45861 -2.495778,-4.51012 0.430572,3.28499 1.646065,1.45861 z M 71.26499,124.5883 c -0.550114,-2.52889 1.940008,-0.23653 0,0 z m 2.641655,0.30022 c 3.293711,0.30235 2.315244,-3.29739 2.956913,-4.0197 -0.474832,1.63454 -2.199976,4.10426 -2.956913,4.0197 z M 6.5713875,123.75977 c 0.091807,-4.26033 1.1774005,1.91375 0.571008,-3.30327 -1.7340416,9.29213 -1.2318751,-9.61023 -1.7006116,0.5025 -0.049641,0.52459 1.1847812,5.9701 1.1296036,2.80077 z m 50.6851935,0.71375 c 4.948722,-3.27473 -1.853323,0.90288 -0.452668,-0.91712 -2.420267,0.74594 -2.916551,1.0914 0.452668,0.91712 z m 55.301729,-1.11246 c -3.05783,-0.49361 -2.9972,-4.7401 -3.77248,-2.32964 0.8369,0.95807 2.33459,2.79307 3.77248,2.32964 z m 2.16358,-0.0513 c -2.13565,-1.57122 -3.36609,-0.29825 0,0 z m -37.88688,-0.25105 c 2.019776,-3.78143 0.690429,-3.50686 -0.420217,0.23207 z m -22.321539,-0.25599 c -2.866786,-0.95866 -5.019214,-4.96258 -2.347355,-0.60362 0.657006,0.44129 1.532312,0.92042 2.347355,0.60362 z m 20.883389,-0.29874 c 1.492579,-3.77146 -2.610781,-4.95267 -1.581298,-2.45212 3.002157,-2.06962 -2.996233,4.08109 1.333075,0.73002 0.146045,0.0921 -0.184421,2.37469 0.248223,1.7221 z m -17.053996,0.16214 c -1.3721,-1.47011 -5.912098,0.11134 -0.784248,-0.24598 0.280376,0.0814 0.37209,0.71116 0.784248,0.24598 z m 23.398724,-0.84751 c 1.754083,-2.70853 -2.031176,1.54575 0,0 z m 14.175538,-0.22844 c -5.496915,-0.52555 3.590072,-9.87123 -3.040323,-4.57488 -3.047591,0.50735 -4.389945,-0.0538 -4.172167,-1.92452 -5.134132,3.88532 2.527625,-2.77063 1.011766,-5.80429 3.536864,-3.25306 1.921643,-4.47585 -0.762111,-0.83865 4.016439,-4.53395 -1.114131,3.30657 -0.181867,4.9066 -3.986984,3.47468 -2.928858,5.29665 -0.278246,3.10128 -1.778591,4.28252 11.548482,-3.78992 4.829866,2.46836 0.220878,1.51073 0.437349,3.15504 2.593082,2.6661 z m -20.242967,-0.91704 c 1.115792,-1.89356 0.865834,-1.31777 1.16308,-5.11684 -0.619041,-0.63143 -1.443986,3.16442 -1.16308,5.11684 z m 0.296865,-2.52034 c 1.241069,-4.81813 0.262748,2.76429 0,0 z m -16.242177,2.99556 c -5.083979,-2.00954 6.472407,0.20437 3.926472,-0.71894 2.347136,-0.91574 2.835614,0.9531 2.134238,-0.99211 -2.07937,0.92022 -4.635374,1.31524 -1.265606,-0.50669 -3.218894,1.20062 -10.39384,1.89231 -4.795116,2.21788 z m -25.418553,-0.5959 c 0.230249,-1.02874 5.340418,-4.49225 2.443841,-4.38729 -2.636007,-5.55512 4.923636,-5.85079 7.916091,-6.96195 1.610243,-2.85118 9.540363,-3.35048 6.858953,-8.20884 -1.510966,-1.414806 1.135595,-6.202483 -1.002728,-2.738517 1.349208,3.577897 1.112599,8.862687 -4.312181,8.622097 -2.444019,4.47575 -9.90913,1.49863 -10.713552,8.0005 2.836191,2.34998 0.818223,3.04696 -1.536418,4.55265 -0.363551,-0.006 0.515022,3.09886 0.345994,1.12135 z m 21.291752,0.37852 c -3.095508,-2.05399 -2.230635,-0.0724 0,0 z m 15.62243,-0.43477 c -0.762512,-4.11067 -0.784393,-5.1697 -1.647599,-0.15878 0.890465,-3.00931 0.284758,-2.34283 1.647599,0.15878 z m 39.024684,-1.16073 c -2.42968,-3.97119 -1.2252,-1.60172 -3.4743,-2.77438 -2.4689,0.13831 3.26553,1.58464 3.4743,2.77438 z m 19.65959,-0.10185 c 1.28059,-1.14893 3.13838,-5.83683 0.46257,-1.13033 0.49625,0.53768 -2.29364,1.69945 -0.46257,1.13033 z m -76.859248,0.0607 c 3.506898,-4.66593 -13.846232,0.80458 -4.027366,-0.78739 5.790839,0.89863 -6.825463,-0.52815 0.642966,-1.0725 2.385823,-0.44334 3.97966,0.88151 3.3844,1.85989 z m 18.927774,-0.35068 c -1.159809,-2.50524 1.742799,-2.60493 2.239396,-1.13369 0.585105,0.83801 0.01584,-3.9154 -0.687411,-2.54159 1.954577,-1.50887 0.16724,-5.44796 -0.455016,-2.16282 2.262629,-2.12799 -0.754336,3.6762 -0.985116,1.55607 -0.733642,1.58225 -1.091592,0.82559 -0.851624,4.02461 -0.04702,-2.9992 0.912208,1.7698 0.739771,0.25742 z m 12.538687,-0.39643 c 1.171832,-2.82559 4.705534,-8.07956 0.524543,-4.74524 -4.982376,2.554 -1.253531,-6.81252 -6.321338,-8.04615 1.852336,1.10726 2.922947,4.75165 -0.317615,0.64214 4.045432,1.27878 1.621887,9.33682 5.86997,7.96181 4.825842,-1.885 -0.67619,2.83184 0.24444,4.18744 z m -19.008946,-0.3799 c 2.2384,-2.25773 1.99689,-6.55482 0.584192,-1.13448 0.02386,0.2267 -2.293371,2.71415 -0.584192,1.13448 z m -2.494607,-0.7853 c 4.443525,-2.84141 -3.341704,-3.13355 0.911612,-1.51011 0.305495,0.77531 -4.605733,2.08043 -0.911612,1.51011 z m 52.54921,-0.67408 c -2.85394,-2.31796 -5.31766,-3.09185 -2.16658,-0.97547 2.55199,1.54659 -5.42656,-1.1029 1.10967,1.02405 l 1.05695,-0.0486 z M 6.3344335,116.67673 c -0.1331859,-2.94649 9.2770905,-8.21166 2.439243,-3.60183 -0.4327874,-2.00446 -3.3438258,3.59916 -2.439243,3.60183 z m 55.0199535,-0.43112 c -0.834921,-0.32651 -3.991942,-4.56549 -1.216647,-0.0961 l 0.516819,0.15682 0.699833,-0.0608 z m -29.346148,-0.221 c 0.359421,-2.06719 -0.278603,-1.4787 0.793601,-4.48028 1.452704,-2.55533 -3.701081,6.16366 -0.793601,4.48028 z m 103.232051,-0.38225 c 3.63195,-2.18522 -0.80437,-3.88466 4.39787,-6.17875 1.05726,-4.08588 1.61383,-7.05279 -0.10189,-7.08313 0.59938,1.24404 -0.87389,5.95152 0.58868,2.22587 0.80521,4.63863 -5.78887,7.76732 -4.31528,10.11666 -2.43206,0.98216 -5.45084,1.67781 -0.56938,0.91935 z m -107.452501,0.3457 c -1.799311,-5.30814 3.140547,0.59529 0.715871,-3.15494 0.507847,-3.18144 -0.644395,-4.7121 0.772977,-4.28984 -2.382924,-4.49101 0.888103,6.1037 -5.481642,3.67838 3.505743,0.72965 6.618745,-2.93522 3.237059,1.88769 -0.166443,0.29212 0.121871,2.53863 0.755735,1.87871 z m 97.926901,-0.249 c 3.75419,-0.55936 5.1725,-8.07182 2.09153,-1.46784 -2.08764,2.33628 2.57116,-4.0958 0.22327,-3.40158 2.75267,-4.88102 -4.44142,-9.78497 -6.50994,-8.3897 3.20304,0.60861 7.60361,5.18531 2.72099,0.73258 0.96603,-0.85816 4.69074,3.66106 3.38154,4.1057 0.22833,4.03331 2.22504,5.29661 -2.74991,8.55101 l 0.0625,0.0891 0.78002,-0.21938 z m -56.963316,-0.98767 c 4.181135,-7.29614 -0.47308,-0.80485 0,0 z m 8.366988,-0.14907 c 2.47736,-0.5296 1.3331,-2.4805 0,0 z m 45.819908,-0.71638 c 2.70008,-1.87977 1.74199,-1.80585 1.04458,-1.37188 2.99548,-3.44414 -5.04444,-9.72682 0.0348,-3.58902 1.95508,1.69788 -2.49749,5.32901 -1.07937,4.9609 z m -14.27142,-0.2634 c -3.07155,-2.35838 1.66182,-12.11752 -1.77883,-4.66924 0.12724,0.90652 2.16363,7.1929 -1.0327,1.77469 -0.70809,0.7164 2.85171,4.28731 2.81153,2.89455 z m -42.079116,0.0866 c 2.090819,-3.19114 2.031745,-7.12292 0.364991,-1.43873 0.917393,-0.35075 -1.279765,1.76842 -0.364991,1.43873 z m 38.822816,-1.62282 c 1.05624,-5.44759 -1.30253,-0.42241 -0.0339,1.32192 l 0.0338,-1.32192 z m -81.175679,1.08969 c 1.654141,-1.04953 -4.183133,0.54524 0,0 z m 60.588117,-0.26699 c 0.613337,-4.43808 -2.639435,0.0132 0,0 z m -6.093609,-0.61937 c -0.336919,-5.49724 -1.367148,-3.51761 0,0 z m -57.438354,0.19472 c -3.49299,-3.86455 -1.087662,1.04131 0,0 z m 51.514926,-0.80947 c -1.752125,-2.04219 3.352147,-6.0477 -1.127745,-1.68949 -2.222327,0.64228 0.07349,2.88697 1.127745,1.68949 z m -1.451804,-0.10497 c 0.542696,-3.2451 2.81492,1.12489 0,0 z m 3.38951,-0.0332 c -1.525512,-5.38102 -1.189703,-2.62556 0,0 z m 58.597023,-0.0868 c 1.11751,-2.84038 4.18503,-8.79834 0.64344,-2.98504 0.12424,0.27664 -1.1715,3.54179 -0.64344,2.98504 z M 87.4193,110.90047 c 2.857382,-7.39694 -1.699428,2.62223 0,0 z m 41.7872,0.0472 c 1.60789,-0.38421 0.0551,-2.36072 0,0 z m -3.8231,-0.6277 c 1.38144,-1.78811 -1.62844,-4.84359 -0.22436,-1.50915 -0.4853,-0.71907 0.27002,2.35337 0.22436,1.50915 z m -13.46978,0.11454 c -0.15707,-3.5855 0.35368,-2.99148 -0.78665,-2.26693 -0.64884,-1.53152 0.83335,3.98928 0.78665,2.26693 z m -79.963498,-0.0931 c 2.335846,-3.82165 1.523763,-2.68034 0.60007,-5.57222 1.962833,2.84407 -2.549853,5.29643 -0.60007,5.57222 z m -20.39603,-0.0402 c 4.884677,0.2039 4.40818,-4.95936 3.572769,-5.51987 4.309304,0.0575 -5.2974382,-0.61319 0.2088,1.49167 2.162129,2.87192 -5.32555,3.2649 -3.781569,4.0282 z m 21.488672,-0.23934 c 1.289452,-2.49739 4.43828,-4.23765 -0.04738,-1.25437 l -0.02948,0.88989 0.07685,0.36443 z m -13.425738,-0.15883 c 4.814567,-1.9666 -7.344712,-6.86077 -0.06801,-2.94661 1.213609,1.17971 0.625045,2.87232 0.06801,2.94661 z M 136.9916,109.41805 c 3.18146,-2.96663 0.63194,-2.5236 0,0 z m -69.42935,-0.58928 c 3.344714,-1.15508 5.160842,-5.91873 9.432914,-4.48236 1.770297,-0.55621 -6.419987,-1.00239 -7.049463,2.54928 -0.815432,-0.72643 -4.184526,3.50011 -2.383451,1.93308 z m -31.414528,-0.22756 c 2.579125,-3.45697 -1.295296,-0.66193 0,0 z m -4.299458,-1.25665 c 0.38746,-4.40305 -1.265497,-6.86165 0.875175,-6.59877 3.88491,-2.607285 -1.18425,4.30656 2.26591,0.35858 -0.941151,-3.161922 -5.873658,-0.56247 -3.966553,0.64859 -1.934759,0.18297 -2.639689,4.12934 -0.835664,1.27438 2.297738,-1.85401 1.29184,4.51624 1.268483,4.22131 l 0.262174,0.37817 0.130632,-0.28237 z m 64.155513,0.004 c 5.254163,-0.88975 5.192633,-8.727175 3.416492,-2.4487 -3.297007,2.62133 -3.968962,2.54341 -1.571073,-1.20605 -1.155799,-5.131254 7.898134,-3.934065 7.541144,-5.265967 -3.74675,0.586821 -8.367804,0.884273 -8.414479,6.647687 -0.04542,1.31804 -4.346994,2.79145 -0.972084,2.27303 z m 15.213543,-0.60926 c 1.60009,-2.20254 2.76379,-3.00687 1.44751,-0.60509 4.59766,-3.56353 1.02221,-2.73194 -1.49684,0.01 l -0.38807,1.24764 0.4374,-0.65215 z m -82.076041,-0.15083 c -1.221212,-3.68502 -0.313377,-3.84936 -2.43626,-2.98543 -2.452944,-1.41212 2.786106,2.44116 2.43626,2.98543 z m 8.032722,-0.24839 c 1.683658,-0.66128 8.905825,-2.37438 2.596339,-0.7497 0.448661,-1.58127 -3.725363,0.36727 -2.596339,0.7497 z m 80.079599,-0.35119 c 3,-0.29347 5.36618,-0.50858 0.8121,-0.57649 5.84677,-1.49822 -3.45703,0.21593 -0.8121,0.57649 z m 17.85037,-0.8643 c 0.11262,-6.1995 -0.68137,-0.90459 0,0 z m -11.48896,0.67588 c -2.23034,-2.47001 -5.2367,-0.74137 0,0 z m 17.91631,-0.81152 c 0.47117,-7.320264 -5.20878,-5.869739 -2.91584,-6.168327 2.60498,1.05103 2.61331,5.170837 2.91584,6.168327 z M 37.713396,104.70018 c 0.213998,-1.98105 -3.314447,-1.70448 -2.234337,-0.88898 0.831164,0.29604 1.429527,0.35753 2.234337,0.88898 z m 95.843934,-0.2401 c 3.87583,-5.919278 -2.35409,1.58115 0,0 z m -1.6613,-1.18653 c -0.74276,-2.89524 -7.0809,-5.677755 -4.87595,-7.632807 -3.5,-2.855548 -2.02753,-1.510097 -0.86265,0.378789 0.4682,3.87549 5.48357,5.696558 5.7386,7.254018 z m -22.14922,-0.36469 c 1.47145,-1.43935 5.42498,-1.19974 6.55179,-3.703915 -1.02055,1.361995 -8.86638,3.478695 -6.55179,3.703915 z m -65.280699,0.29041 c 2.027502,-2.49213 -2.947887,-9.32133 1.939693,-6.720227 -0.754339,-4.205717 -0.14733,-1.948569 -0.836005,-0.29416 -4.444013,-4.202503 0.131997,6.549177 -1.103688,7.014387 z m -7.339985,-0.37265 c 1.120458,-3.336632 -0.860196,-2.34199 0,0 z m -12.62968,-0.26635 c 0.678787,-0.68296 -0.750902,-6.747064 -4.456597,-5.571607 -4.332177,-1.872679 -2.87329,-8.556008 -0.703753,-10.47925 -2.056892,3.274435 2.411929,9.891845 -0.150323,2.8534 2.550196,-9.635518 -5.422111,3.984415 -1.159906,5.805999 2.761381,2.727361 6.506212,2.661791 6.361638,7.571338 l 0.108921,-0.18011 z m 111.421684,-1.62795 c -0.56033,-2.463101 -4.94973,-8.63201 -1.57669,-2.540647 1.61265,0.623608 0.36964,4.115037 1.57669,2.540647 z m -97.311324,0.33207 c 1.071823,-4.67793 -9.524762,-5.614909 -2.213278,-9.958897 2.636523,-3.572045 0.617661,-9.797402 -4.725708,-10.37978 -0.368716,-0.248281 3.740724,6.194463 2.909674,6.38355 0.662293,-3.62265 -5.27953,-8.220036 0.704399,-3.99934 4.410693,2.480627 0.485537,9.321319 -1.720559,10.29358 -1.718982,4.485544 6.295786,2.905057 4.476603,7.442507 0.151624,0.16121 0.519393,1.05385 0.568869,0.21838 z m -11.678129,0.0981 c -1.530642,-3.38684 3.125651,2.32936 -0.511456,-1.848957 -0.126495,0.349259 -0.200231,2.534077 0.511456,1.848957 z m 74.723593,-0.37895 c 3.93318,-1.105933 4.5787,1.09953 6.05639,-3.610162 5.91016,-4.440174 -2.74941,0.352778 -2.15752,2.953062 -0.61701,-1.726041 -5.44859,1.00066 -3.89887,0.6571 z M 25.814566,99.907583 c 2.174965,-3.229127 -4.256892,0.316247 -0.112414,-0.981286 0.383979,-0.218343 -0.278208,1.620443 0.112414,0.981286 z m 89.962414,-0.97389 c 3.78941,-1.033438 0.82471,-1.498565 -0.75732,0.214395 l 0.19894,0.04524 z m -85.072279,-0.66799 c 0.512022,-3.325042 -4.791504,0.454486 -0.439487,-1.253081 1.080604,0.344664 -0.707085,2.486729 0.439487,1.253081 z m 92.231489,0.0802 c -2.75723,-1.039915 -5.89053,-0.303745 -0.77618,0.13926 l 0.63947,0.01967 0.13671,-0.158993 z m 10.53024,-0.48788 c -1.31482,-2.518979 -1.23573,-4.275443 -1.18137,-0.685216 0.0629,-0.187566 1.59995,1.731409 1.18137,0.685216 z m 3.59075,-1.70391 c 1.93811,-3.151172 -3.75739,-5.725244 0.0979,-1.74884 -0.18669,3.005865 -2.70636,-4.997327 -0.66462,0.57153 -0.70087,0.662312 0.82624,3.21127 0.5667,1.17731 z m -14.25913,0.35616 c -4.12053,-2.756822 -5.47245,-4.033706 -6.05076,-3.40887 -5.61431,1.074348 5.88484,0.51764 6.05076,3.40887 z m -73.083696,-1.0114 c -0.738162,-4.654787 -10.659045,-3.717134 -5.745281,-3.25858 -0.794073,-1.825185 5.318941,2.340942 5.745281,3.25858 z M 24.10299,95.292033 c 2.632168,-3.289853 0.855222,-2.828534 4.946129,-4.363392 6.74896,2.329836 -4.276552,-3.256266 -4.71984,3.394156 -1.371401,-0.234255 -7.251657,-1.671083 -1.462846,0.241422 1.601721,-1.411614 0.575361,1.780935 1.236557,0.727814 z m 17.964133,-0.77095 c 2.448628,-1.772809 -3.35709,-0.0072 0,0 z m 91.293027,-0.35739 c 0.14519,-1.194692 3.48435,-3.609741 0.50917,-4.06916 2.80756,3.224055 -3.46862,1.113837 -0.50917,4.06916 z m -11.47084,-1.0742 c 0.66465,-4.53006 -17.50709,0.425259 -6.00303,-1.16294 -7.87836,-1.45725 9.163,-0.0095 6.00303,1.16294 z m 9.51978,-0.48853 c -2.13747,-5.357424 -0.90514,1.434193 0,0 z m -98.285655,-2.37011 c 3.678605,-1.59312 -1.135239,-1.401286 -0.957486,0.802249 l 0.957493,-0.802169 z m 95.711485,-1.36134 c -2.11734,-3.416985 1.17708,2.838479 0,0 z m -1.47038,0.12975 c -2.13531,-1.98424 -2.90366,-3.242496 -0.92039,-0.04298 -0.61502,0.554778 3.01966,0.507008 0.92039,0.04298 z m 1.05125,-1.8935 c 3.69421,-3.558291 -15.87209,-3.65546 -5.34148,-2.103338 3.37877,0.83187 -5.31346,-1.809456 1.1855,-0.66423 3.25932,0.158178 4.22108,2.322045 4.15598,2.767568 z m -92.770662,-1.16809 c 0.628385,-2.444741 -1.523535,-2.054206 -0.353142,0.649924 l 0.353148,-0.649844 z"
     id="path2" /></svg>
