<svg xmlns="http://www.w3.org/2000/svg" xml:space="preserve" width="578.37" height="230mm" viewBox="0 0 153.03 230"><path d="M91.44 228.37c-.14-2.53.27 2.18 0 0zm-23-.1c.13-.73.16.5 0 0zm.46-.69c.03-2.13.24 1.67 0 0zm-.55.13c.09-.45.09.46 0 0zm3.4-.2c.08-.8.08.8 0 0zm-4.11-.14c-.93-3.53-.64-15.53-.98-6.4-.22-4.82-1.33-10.53-1.08-14-.03-1.56-.96-2.28-.33-4.62 1.25 4.11 0-11.2-.4-3.38.36 2.33-1.06 7.5-1.14 2.88 1.71 1.45-.46-8.81.87-3.91-.51-4.64-.5-15.1-.94-16.51.1 2.38-.74-5.38-1.68-.2.02 4.2-2.93 4.32-2.08.37-.61-2.35 6.97-10.38 1.72-5.99-1.56 5-4.96-.48-.6-1.04 1.94-.88 2.2-3.86 3.46-4.73-2.88 1.07-7.42-1.25-2.1-.42 8.09-1.25-7.44-.04-2.45-6.31.85-1.44.83-10.94 1.64-5.8-1.14-5.63 4.34-10.15 3.22-2.9-.03-3.9 7.51-12.07 1.3-8.29-.63 2.45-4.62 4.24-3.72 1.7 2.71-.64 4.3-2.54 1.48-2.2-4.76.65-6.17 9.22-9.83 10.62-.36-2.8-3.41 5.07-3.8 7.3-1.47 5.1-4.34 7.04-5.65 12.02.2-1.93 3.08-6.1.45-6.67-1.8 6.63 1.83-4.69-2.22-1.04-.07.5-3.4 4.09-1.6 1.24-2.86 4.29-1.17 2.5-.42-1.04-.34-5.58 6.77-7.7 8.33-11.98-3.66 3.05 4.99-4.9.62-1.77-2.3 2.26-5.62 2.93-1.29.46 1.97-1.44 3.05-4.7.08-1.94a56 56 0 0 0 5.9-5.04c-3.57 2.26 4.62-5.64.42-5.71-1.27-.02.1-6.84-1.86-9.23 1 .91 3.12 4.88 1.72-.28-2.78-2.99-3.87-14.48-2.34-13.07 2.58-3.33.73-3.94-.92-1.36-1.18-4.38 2.8-5.81 4.35-7.33-3.22 1.94-3.86 1.18-3.53.33-2.71 2.75-2.3 1.4-1.35-.53.6.03 3.8-1.5-.47-1.37-.46-2.21 5.37 2.1 2.24-1.55 2.65 1.18 1.88-1.86 1.13-2.13 1.88 2.9-1.9-4.62-.45-2.5-.1-3.73 1.2-8.23.12-1.97-.78 2.84 5.52 12.28 1.57 5.28-.37-1.15.65-.54.12-3.45 1.55-6.9-1.05 2.8 2.86 3.31-.98-2.45-2.37-10.39.73-5.58 1.61-.4 4.27 2.52 4.78 2.17.06 4.45-5.11.48-1.5 4.79.4-2.04 3.15 2.83 3.6-.24.8-1.37 3.13 2.53 4.38-1.69 6.17 2.3-.42-8.2-.45-1.9-1.1-1.93-4.74-1.23-1-2.9 2.12-1.66 4.24-7.75 5.1-1.76-.88 1.24-2.2 3.03.43 5.13.87-2.54 2.72-6.54 2.04-1.08.11 4.46 1.75 1.5-.15 5.42 3.23-2.38 1.38-14.27 2.54-5.21.53-1.75.8-6.27.51-1.18-.55 2.99 1.16-2.67.05 2.18.27 1.2-1.79 3.28 1.93 1.96 4.15.1 4.64 9.23 5.19 5.76.29 3.14 1.15 6.78 3.2 9.15-1.45-2.61-3.04-9.45-.8-3.7 2.62-2.01-2.52-14.55 2.16-8 4.6.42 1.21 7.43.91 1.73-3.67-1.78.83.9-1.92 1.47.33 1.58 4.44 2.02.9 1.74-2.49 1 5.95 1.49 2.97-.58 2.82-2.4 6.1 3.22.93 3.29-2.27.68-6.07 4.44-1.19 1.57 1.78.32 8.1-2.92 3.85-.18 1.56-.53 4.97-.32 2.7-1.04 1.37-.13 4.64-.27 1.49-.9-1.65-.23 3.88-1.15.21-1.58-5.54-.32-.28-.06 1.62-1.2-.81-1.87-3.89-1.51-1-2.06 2.05-4.55 1.77 12.87 2.58 4.13-.34-2.66-1.17-7.8.33-1.82.32 3.35-.24 6.83.64 1.35 1.06-5.3-5.88-10.56-8.4-8.09-2.27 3.23-7.93 2.43-2.4 1.17 2.73-4.8-4.67-7.49-5.2-12.5-5.75-1.61-.17-.22 1.03-3.36-3.97-2.93.05-2.4.53-2.17-2.07-.43 3.01.93 1.19 3.2 2.83-4 3.22 8.12 4.34 1.05.38-2.82-5.55-4.28-.4-1.98 2.18 1.69 4.03 2.8.5 3.17 3.76 4.04 4.16-3.17 5.44 2.27-5.92-1.75-1.38 1.78-.55 1.48.23 1.17 1.59-2.83 2.35 1.34.05 2.57-2.6-2.16-.4 1.31-3.04-3.57 1.94 4.34.85-.07 1.58 1.77 3 4.92 1.06 3.27 1.55 3.72-1.1 1.05 2.1 5.23-.05 4.84-3.84-4.42-1.7 1.92.08 3.39.06 9.16.64 2.46 1.3-4.9-.3 1.2 2.78-.27 1.11-.16 4.42.29 1.24.6 2.8 1.8-6.36-1.72-1.74.9-5.53.06 4.68 5.55.8 5.85 2.19 2.87 1.86 4.5-.04.49.02-.96-2.98-5.77-1.55-2.34-1.95-4.2 1.99 6.47-1 .6.1-.34-1.25-1.05.06 1.51-1.82-2.5.54 9.5-1.8 2.49-.61-5-1.57 3.02-1.64-1.62.29 1.05-2-5.62-4.72-1.94-.48 2.74-.23 7.06-1.56 1.5-1.91-.26-.21 5.94-1.53 1.07.3 6.3-3.66-6.27-3.62 1.03-.38-5.02-3.2-1.52-2.78-1.05.63 1.76.46 4.68-.69 1.15a33 33 0 0 0-.23 11.21c-.2-4.63-2.93 1.18-2.28-3.65 1.17-4.97 2.14-8.8.97-12.04.47 1.55-.3 6.44-.33 1.92-2.17.73-4.87 5.97-3.46.88-.24-3.73.5-14.12.75-5.43 6.35-1.05-4.2 6.7 1.8 5.16 1.91-4.72-2.1-10.1-2.9-14.87-1.58-2.23-3.54-.8-2.1-.64-1.19-.87-6.34.94-2.5.72-2.64.34-3.33 1.75-2.14 2.8 1.82 5.47-1-.17-3.37.98 2.43.86 4.83 3.63 4.72 2.44.38 6.49 1.94 12.82 2.35 19.28 2.13-3.98-2.18 9.32 1.75 3.7 1.48-2.76-1.34 4.85 1.16-.24 1.49-3.56 2.55-4.68 1.07 0-1.87 3.88 3-3.3 1.08 1.72 1.55-3.5 2.65 1.64.21.27 2.28 6.43-9.6 1.32-8.8 4.18 3.34-.12 7.58-.76 10.01-.3.19.63-1.19.91 2.4 1.5 1.5 3.65-6.9-3.14-3.25.35 2.17.59 8.1 6.4 2.94 3.25 5.04 1.92-8.67-6.35-1.77-.64 2.27 2.37 6.25 5.73 2.43 3.05-2.86-3.26.33 1.87-1.27.53 1.42 1.92 3.33 7.99.83 2.86-.1 3.75-.85-2.65-2.02-3.12-2.61-1.12-4.58-11.07-3.3-3.53.4 2.44-1.7-3.54-.72.47 1.11 3.2 1.91 7.67.2 1.84-1.55-2.94.21 3.75-1.05-1.24-1.57-5.56-7.98-4.36-3.04-.84-.44.76-.1 4.12-1.22.7-.3-.54-4.45-7.35-1.67-1.47 1.7 2.55 1.01 7.52-.31 1.94.7 2.6 1.03 12.12 1.43 10.77 1.65-.01-.5 10.95 1.05 9.44-.73 5.2-.36 10.13-.85 14.85.19-2.55 2.79-15.98 3.12-7.4 1.6 5.84-1.93 7.2 2 11.18.94-.85.72 4.56 2.8.61 3.4-1.89-3.32 4.1-.36 3.76 1.72-.89 9.45-3.08 3.65-.8-3.92.88-8.28 5.9-10.72 6.64 3.3-1.59 2.21-6.23.39-7.84-1.07 2.04-1.32 4.35-1.22.42 1.33 1.8-1.15-11.27-2.26-6.54-1.27 1.49 0-7.07-2.57-8.17.45 2.85-.58 4.36-.44 5.08-.3-6.03.14 8.64-.4.17.06 5.2-.55-3.54-.57 1.23.22 3.15.03 9.69-.25 2.83-1.6-4.02.7 8.1-1.38 7.23-.35 5.2 1.01-2.1.72 2.93-.22 4.55.71 3.32 1.04 8.11 1.7 2.88.62 7.1.12 1.47-.76-2.3.04 9.06-.47 1.78-.27-.93-.2-7.15-.63-2.95-.28-3.04-1.21-12.44-1.35-4.6.37 4.81.2 17.15 1.08 17.08.07-1.2.73 7.7.04 9.7-.95-9-.62-18.2-2.08-27.16-.23 1.8.03 4.74-.4 1.36-.16 8.99.82 17.95.66 26.94-.06-2.53-.84-9.4-.68-2.93.18.16.55 4.53.27 3.31zm2.06-6.41-.02.17zm.02-2.1c-.17-1.62.02 2.25 0 0zm-2.32-.49v.24zm0-1.53v.5zm-1.1-.64-.01.18zm.95-1.34c-.37 1.01.28 2.06 0 0zm.35.84v.24zm-.22-2.12c.03-2.65-.67-15-.68-6.35.18 1.96.05 4.91.68 6.35zm-.8-1.1c-.37-4.98-.02 4.83 0 0zm-.19-4.83c-.84-3.6-.02 2.65 0 0zm-.23-.15c.08-.45.08.45 0 0zm-.85-3v.24zm3.46-.92c1.24-2.47-.87.65 0 0zm-.06-.9h-.19zm-1.8-.5v.29zm.1-2.3c.42-2.39-.8-9.44-.46-2.95 0 .83.51 7.33.45 2.95zm1.62 1.01c-.05-3.6-.27 3.76 0 0zm-.3.37c-.24-.4-.24.4 0 0zm-1.72-.78c0-3.53-1.24-11.94-.83-3.8.23 1.15-.24 3.1.83 3.8zm-.7-6.61c-.4-.6.48-.3 0 0zm2.63 3.61c.56-5.4-.8.59-.04.88zm-.96-.54c-.18-2.46-.14 2.3 0 0zm2.23-.52c-.32-3.96-.18 4.18 0 0zm-1.72.28c-.12-4.02-.56 1.67 0 0zm.84-.14c-.31-.8-.43.28 0 0zm12.77-1.01-.3.05zm-16.86-1.65c.39-5.32-.54 2.1 0 0zm16.2.96c-.18-.37-.13.54 0 0zm-13.15-1.66c.04-2.28-.55-9.47-.82-3.12-.06 1.42 0 4.73.22 1.3-.19.62.87 5.1.6 1.82zm-1.2-1.64c-.55.73.5 1.92 0 0zm13.01.82c.59-1.2-.56.62 0 0zm2.25-.35c-.2-.81-.2.97 0 0zm-17.73-.46v.5zm15.87-.1c2.01-1.7-2.05-5.25-.33-.75zm-.33-1.64c-.22-.94.38.46 0 0zm-15.65 1.2-.02.18zm1.93-.02c-.2-.39-.29.22 0 0zm3.4-.22c.75-1.71-.25-7.19-.28-2.5-.2-4.58-.88 1.5.28 2.5zm-1.4-.86c-.21-.84-.1 1.1 0 0zm.5-.42c.1-3.97-.85 1 0 0zm1.36-.76c-.58-3.73.11 4.05 0 0zm11.6.82c-.23-1.4-.63.35 0 0zm-.4-.96c-.5-1.79-.45 2 0 0zm-2.45.36c-.02-.5-.31.35 0 0zm-11.74-.57v.34zm10.9-.35c-.16-.55-.2 1.04 0 0zm3.89-.42c-.24-.55-.24.56 0 0zm.4.05c-.36-.42-.36.42 0 0zm-3.1-.45c1.26-1.03-2.13-2.85 0 0zm1.02-1.75c-.4-.05.23.66 0 0zm-2.84-.25c.61.3-1.09-6.12-.7-2.22.12-.36.54 3.56.7 2.22zm3.72.31c-.31-.38-.16.54 0 0zM64.41 185l-.02.17zm5.59-.38c-.3-1.25.01 1.04 0 0zm8.18-.52-.02.18zm-17.6-1.04c.65-2.1-.98 1.54 0 0zm.46-.03c-.43.18.1.72 0 0zm4.17-.22v.4zm4.63-.72c-.36-1.37.24 2.07 0 0zm.36.28v.29zm9.37-.15-.02.18zm-19.41-.18c-.14-.38-.22.4 0 0zm4.16-.96v.74zm10.96.45-.02.17zm.47-.47c-1.02-2.06.89 2.27 0 0zm3.8.35c-.47-.43.15.65 0 0zm-18.5 0c-.19-.39-.28.22 0 0zm.38-.37c-.32.06.18.53 0 0zm8.37-.31v.24zm8.68-.05-.01.3zm-8.65-1.02c-.33-2.24-.05 2.45 0 0zm-6.21.03v.34zm-.86-.51c.03-1.2-.6 2.12 0 0zm12.52.11c-.44-1.15.4 1.67 0 0zm4.23.28c-.25-.4-.25.4 0 0zm-5.32-.53-.01.25zm-13.52.05c.25-.45-.59.7 0 0zm17.16-.39c-.23-.96-.23.85 0 0zm-10.22-.05-.02.18zm6.6-.47-.35-1.07zm-12.1-.05c-.04-.86-.37 1.5 0 0zm15.14-.3c-.31-.8-.4 1.24 0 0zM64 177.46c1.37-3.26-1.04.97 0 0zm13.24-.23c-.22-.55-.1.53 0 0zm2.62-.27-.02.18zm-15.21-.55c.28-.43-.7.62 0 0zm10.66-.07c-.4-.45-.23.27 0 0zm-10.11-1.33c.8-2.61-1.67 3.92 0 0zm-4.27.43c-.3-.5-.04 1.88 0 0zm12.27.24c-.83-2.18.15 1.42 0 0zm.96-1.48c-1.25-4.22 1.65-1.58 2.18-2.99-4.06-8.06-1.88 7.72-2.18 3zm1.65-2.67c-.34-.5.57.4 0 0zm-13.79 3.14c-.28-.54-.3.9 0 0zm14.71-.53c-.4-1.68-.4 2 0 0zm-.43.26c-.24-.4-.24.4 0 0zm-2.42-.3c.12-.97-.84.32 0 0zm.8-.22c0-1.27-.88.71 0 0zm.58-.07c-.16-.42-.31.44 0 0zm-10.89-.39c.73-2.4-.82 1.1 0 0zm6.2-.52c.5-4.04 2.49-7.56 2.68-4.32.71 2.61-.76-9.53.96-3.8-.18 1.7-.36 5.82 1.64 2.63-3.12-.9.07-1.14-.6-2.43-1.26-2.53.37-12.85.3-4.84-.02 4.27.92-7.22-.61-7.34.35-.5.24-4.43-1.26-3.62.08 6.51-2.53-3.12-.03-5.31-1.51.26-1.46 4.49-2.92 1.31 2.09 2.6.8 8.3.53 9.38.67-3.05-1.53-10.99-2.48-6.51.43 2.18-2.02 9.69.05 3.57 2.44-2.68-1.06 8.06 1.13 1.14 2.4 3.03-1.58 12.83-.46 11.9 1.55-7.64 3.03.4 1.3 4.03 1.18-3.24-1.12 5.94-.24 4.2zm.85-4.1c.18-.25 0 .45 0 0zm2.9-1.73c.1-.45.1.45 0 0zm-2.2-1.04c.1-.54.21.55 0 0zm.2-.4c.18-.25 0 .45 0 0zm-.4-.2c.23-.55.23.56 0 0zm.1-.69c-.92-2.95 1.8-12.82 1.3-4.82-.6 2.56-.53 5.15-1.3 4.82zm.46-3.15v.45zm1.86 1.66c.1-1.32.05 1.52 0 0zm-.02-1.21c-.04-2.15.61 1.01 0 0zm-2.68-1.21c.08-.63.08.62 0 0zm-1.17-.3c-.3-1.85 1.07.05 0 0zm.71-.05c.1-.53.22.55 0 0zm3.23-.6c.1-.53.22.55 0 0zm-3.64-.33c.03-.51.32.34 0 0zm.65-.86c.18-.25 0 .45 0 0zm2.39-.34c.13-.58.13.58 0 0zm.5-.35c.15-1.04.66-.05 0 0zm-2.17-.74c.08-.63.08.62 0 0zm-.87-.2c.24-.4.24.4 0 0zm-.29-.64c0-.68.32.5 0 0zm1.83-.39c.32-.8.44.28 0 0zm1.2-.25.3.05zm.6.02c-.01-.64.42.01 0 0zm-1.1-.38c.19-.25 0 .45 0 0zm1.17-.1c-.61-1.68.38-.5 0 0zm-.87-1.23c.14-.88.15.67 0 0zm.6-.06c.18-.25 0 .45 0 0zm-1.12-.27c-.46-1.07.43.16 0 0zm-.38-.67c-1.2-1.64 0-.73 0 0zm-2.18-.2c.09-.44.09.46 0 0zm3.08-.36c.16-.7.27 1.03 0 0zm-3.18-.18c.17-.25 0 .45 0 0zm3.99 0c.17-.25 0 .45 0 0zm-.65-.1c-.2-1.26.47.34 0 0zm1.05-.3c.17-.25 0 .45 0 0zm-4-.71c.13-.74.22 1.18 0 0zm3.16-.26c.07-.63.46.17 0 0zm-4.16-1.85c.29-.23.2.38 0 0zm.2-.9c-.01-1.32.47.52 0 0zm-.95-.4c.04-.5.63.64 0 0zm3-1.6c.34-.52-.08.43 0 0zm3.93 27.13c-2.68-2.08-.5.43 0 0zm0-.64c-.24-.4-.24.4 0 0zm-12.99-.35c-.98-.72 0 .63 0 0zm11.96-.17-.01.18zm-11.7.04c-.2-.34-.2.33 0 0zm-17.39-.81c-.13-.38-.22.39 0 0zm31.74-1.24c-.2-1.23-.07 1.22 0 0zm-1.75-.3c-.3-.47-.27.57 0 0zm.03-.34c-.16-.54-.31.39 0 0zm-29.45-.32-.02.18zm29.6-.06c-.47-1.66-1.78 1.02 0 0zm-10.32-.12c-.36-.76-.43.77 0 0zm-23.77-.41-.02.17zm.36-.67c1.07-1.93-1.18 1.6 0 0zm5.06-.19c0-1.56-.77 1.86 0 0zm15.96.32-.3.05zm-21.25-.67c-.5.05-.22 1.2 0 0zm33.81.43c-.36-.42-.36.43 0 0zm-11.56-.35c-2.9-3.9-6.2-.1 0 0zm-2.57-1.64c-.01-.62.26.53 0 0zm4.96 1.46-.3-.26zm8.23-.16c.17-1.83-.99.83 0 0zm-14.79-.12c.8-1.46-1.15-.28 0 0zm.57.02-.3.06zm12.5-.05c-.21-.55-.1.53 0 0zm-24.93-.5c1.04-2.35-1.6 1.54 0 0zm27.84.09c.24-1.72-1 .39 0 0zm-12.56-.04c.3-.52-.9.09 0 0zm1.89-.47c-1.62-3.31-5.88-3.2-1.37-.31.38.1.94.72 1.37.31zm3.04.23c-.23-.52-.22.57 0 0zm-23.73-.2c.43-1.57-.96.86 0 0zm1-.35c.18-2.04-1 1.63 0 0zm28.05-.17c-.08-2-.2 2.26 0 0zm-6.35.21c1.23-4.36-9.43-6.18-2.7-1.81.8.75 1.58 1.68 2.7 1.81zm-2.04-1.72c.34-.37.13.3 0 0zm-.65-.57.13-.18zm1.53-.47c.24-.56.24.55 0 0zm-2-.1.25-.15zm5 2.65c-.22-1.32 0 1.4 0 0zm-1.16.03c2-3.9-1.97-2.14 0 0zm.05-1.59c.32-.59.36.5 0 0zm-2.37 1.5c-.17-1.2-.3.14 0 0zm-3.54-.23h-.18zm3.07-.13-.35-.22zm-3.59-.1c-.2-.46-.24.21 0 0zm13.7-.63c1.36-1.6-2.2.35 0 0zm-29.23-.13c1.92-2.38-1.92.68 0 0zm23.51-.13c-.24-.4-.24.4 0 0zm-20.3-.92c1.77-2.32 2.53-9.63 1.23-4.66.06 1.24-1.82 4.44-1.23 4.66zm1.8-5.69c0-1.16.57.08 0 0zm9.87 5.42-.3.05zm7.41-.23c.15-2.16-.84.61 0 0zm-8.17-.12c-.22-.55-.1.53 0 0zm16.66-.1c.58-2.57-.68.68 0 0zm-29.77-.3c.67-1.36-1.16 1.38 0 0zm19.11.25c-.3-.44-.16.42 0 0zm1.7-.2c-.26-.4-.35.42 0 0zm-.26-.6c3.76-2.6-1.76-3.35 0 0zm.03-1.38c.08-.62.08.62 0 0zm-4.21 1.04c-.72-.67.25.5 0 0zm3.1-.05c2.07-3.29-7.87-6.24-2.46-1.6 1.16-.27 1.76 2 2.45 1.6zm-.61-1.68c.22-.4.13.38 0 0zm-.33-.57c-.56-1.17.84.1 0 0zm-1.32-.72c.31-.44.16.42 0 0zm11.42 2.68c-.57.03 0 .83 0 0zm-14-.35c-.48-.64.14.69 0 0zm6.68-1.04c.64-1.75-2.42-.46 0 0zm.05-.74-.25-.38zm-.05-1.2c.36-5.22-2.48 1.57 0 0zm-.76-.2c-.27-.71.9.44 0 0zm-2.45.3c-.48-.58.06.52 0 0zm-3.93-.23c-.19-.4-.18.87 0 0zm5.14.1c2.74-2.15-1.45-7.93-1.75-1.81.4.66.72 2.2 1.75 1.8zm.55-1.6c.22-.39.13.38 0 0zm-.95-.4c.24-.4.24.4 0 0zm-.75-.7c.33-.54.15.71 0 0zm.01-.44c.18-.25 0 .45 0 0zm10.66 1.7c-.32.71.4 1.02 0 0zm-11.97-.1c-.53.04.15.8 0 0zm25.94 0c-.11-1-.4.06 0 0zM70 155.86l-.02.18zm-17.05-.35c-.38-.29-.23 1.22 0 0zm11.4.37c-.14-.38-.23.4 0 0zm5-.33c-.35.27.16.74 0 0zm-20.26.23c-.36-.42-.36.43 0 0zm-1.45-.2c-.16-.42-.3.45 0 0zm20.8-.34c-.2-.38-.3.23 0 0zm-3.86-.84c-.04-1.58-.36 2.48 0 0zm3.95.12c.23-.83-.72 1.08 0 0zM54.86 154c3.13-.74 1.15-4.88 3.5-4.08 2.77-6.71-7.15 4-5.6 3.9.66.17 1.46.98 2.1.18zm-2.3-.17c-.86-1 2.23.49 0 0zm.97-.02c.15-.61.5.33 0 0zm1.1-.16c.38-.4.19.55 0 0zm.94-.34c.11-.56.2.35 0 0zm-2.1-.15c.18-1.42.57.62 0 0zm.7-.4c.35-.96.53.47 0 0zm-.32-.22c-.99-1.31.74.07 0 0zm2.33-.38c.17-.25 0 .45 0 0zm-1.3-.13c.45-1.17.45.38 0 0zm-1.28-.4-.27.77zm.77-.1.84-.78zm1.35-.5c.3-.45.16.42 0 0zm.45.01c.31-.66.32.13 0 0zm.7-.15.3-.25zm1.1-2.89c.45-.52-.14.5 0 0zm.33-.59c.72-1.9.1 1.39 0 0zm-8.96 6.84c.31-.59-.93.75 0 0zm26.77-.1c-.31-.4-.16.53 0 0zM51.1 152.5c-1.98.16-1.11 2.37 0 0zm17.14 1.35c.22-.59-.5.35 0 0zm-16.89-.41c-.5-.14 0 .54 0 0zM89 153.3c-.2-2.81-.99 1.02 0 0zm-37.44-.13-.02.17zm20.1-.23c-.08-.7-.15.9 0 0zm-4.61-.24c-.24-.5-.46.26 0 0zm-14.66-.44-.23.35zm10.92-.32c.55-1.74-.88 1.5 0 0zm4.69-.24c-.62-.73.21 1.36 0 0zm-15.78.1c.28-1.18-.8 1.02 0 0zm-.78.12c2-1.52-.68-.56 0 0zm-.05-.57c.06-.58-.58.73 0 0zm-.8-.35c-.55-.17-.43.7 0 0zm22.6-.12v.24zm-5.3-.07c-.46-.73-2.08.56 0 0zm19.8-.39c-.5-1 .34 1.23 0 0zm-34.8.02c.29-.43-.68.62 0 0zm2.3-.12c.8-1.05-1.3.76 0 0zm15.98-.01c-.3-.59.13.69 0 0zm-4.42 0c-.13-.38-.22.4 0 0zm.5-.08c-.59-1.84-.56.54 0 0zm19.95.08c-.14-.38-.23.4 0 0zm2.69.06-.3-.25zm-21.96-.66c1.03-4.58-1.42 1 0 0zm-13.09-.62c1.8-2.54-1.5 2.3 0 0zm20.46.7-.02.18zm-7.95-.07c-.22-.4-.14.38 0 0zm6.28-.73c-.53-.82-.25 2.54 0 0zm-5.38.63c-.25-.4-.25.4 0 0zm17.6-.1c-.44-.5.07.56 0 0zm-30.23-.13c2.12-3.27 1.58-3.76 0 0zm.86-1.95c.65-.82-.25.7 0 0zm29.57 1.29c-.76-1.79.54 2.13 0 0zm-31.83-.18c-1.23.05-.92 1.53 0 0zm-.34.18c.71-.58-.09.41 0 0zm20.39.02c1-3.47-.74.69 0 0zm-11.52-.25c-.14-.54-.2 1.04 0 0zm24.03-.02c-.94-1.25.5 1.2 0 0zm-31.94.04c-.05-.67-.61.67 0 0zm23-.22c-.47.15.39.47 0 0zm-1.52-.02c-.61-.6.12.53 0 0zm-4.69-.37c-.2-.62-.03.95 0 0zm4.7-.02c-2.57-4.68-3.04-1.96 0 0zm-3.2-.25c-.21-.72-.08.69 0 0zm9.09-.11c-.37-.47.37.93 0 0zm.56.09-.02.17zm-26.96-.04c-.19-.37-.14.54 0 0zm-.59-.24c-.13-.38-.22.39 0 0zm33.16-.3c-.31-.4-.16.53 0 0zm-11.13-.15c-.31-.59-.1.56 0 0zm-12.54-.37v.24zm20.68.17c-.58-.7.05.57 0 0zm-14.98-.24c.78-1.89-2.07.38 0 0zm4.26 0c-.35-.43-.26.4 0 0zm12.42-.2c-.72-.93-.03.78 0 0zm-5.59-.4c-.4-.42-.31.55 0 0zm-25.66-.91c-.33-.96-.54 1.87 0 0zm.42.2c0-1.01-.87 1.14 0 0zm.38-.1c.59-1.29-.87 1.32 0 0zm2.73.24c-.51-.2-.1.33 0 0zm-1.88-.37c.8-1.05-1.6.9 0 0zm.47.3c2.42.99-.29-1.31 0 0zm11.09-.03c.28-.42-.7.63 0 0zm-8.36-.08c-2.08-1.39-2.34-.25 0 0zm1.6-.25-.42.15zm25.4.06c-2.2-1.96-.25.61 0 0zm-26-.1c-.57-1.45-2.63.37 0 0zm1.83-.1c-1.85-.48.77.55 0 0zm8.26.05c-.14-.38-.22.4 0 0zm16.3-.16c-1.22-1.14-.05 1.2 0 0zm-25.53-.04c1.06-.98-2.72.03 0 0zm2.22-.13c4.57.13-.4-1.5-1.83-.26l.55.1zm.57.13c.12-.44-.72.6 0 0zm14.76-.21-.24.23zm-11.08-.14c-1.83-.7 6.16-.07.64-1.07-2.42-.42-4.38 1.26-.64 1.07zm2.09-.9.18.01zm-12.71.48c.35-1.74-1.53 1.12 0 0zm-1.42.13c2.07-.9-1.97.1 0 0zm2.1-.29c3.05-1.42-1.38.3 0 0zm15.27.25c3-.93-2.05-1.83 0 0zm-1.86-.23c.83-1.06-.5-.75 0 0zm-12.1-.08c2.4-.1 1.23-.95-.22-.17zm2.15-.06c-.05-2.26-.82.81 0 0zm17.62.02c.25-.6-1.15.76 0 0zm-13.63-.4c.44-1.24-3.77.58 0 0zm-10.06-.2c-.54-.8-.2.97 0 0zm16.97-.1c-.26-.5-.26.5 0 0zm2.23.05c-.26-.41-.35.42 0 0zm-19.5-.42c-.57-.06-.22.82 0 0zm1.17-.34c-1.56.9-.09.64 0 0zm.62.62c1.54-1.48-1-.33 0 0zm1.6-.35c2.2-1.65-2.67.68 0 0zm9.73.34c-2.27-.8-2.95.04 0 0zm-12.61-.27c.21-.65-.55.8 0 0zm14.78.05c2.71.26 13.06-.85 5.04-1.4-1.7-.1-11.48 1.21-5.04 1.4zm1.04-.5h.4zm1.68-.2.77.02zm1.21.01h.25zM61.9 142c1.28.43 7.31-1.08 2.13-.68.14-.08-4.43.79-2.13.68zm1.55-.64.4-.21zm-2.45.82c2.38-1.9-2.56 1 0 0zm-.44-.12.24-.07zm3.34.23-.44.08zm19.3-.35c4.28.54-.4-1.99-2.12-.3.63.06 1.72.52 2.12.3zm-15.58-.32c3.8-1.4 8.55-.3 11.65-1.45-4.06-.34-10.54-.04-13.42.93l1.02.25zm10.17-1.08.18.02zm.32-.43c-.11-.44.72.6 0 0zm-15.86 1.3c.13-.4-.89.39 0 0zm-6.88-.49c-.37-1-.2.73 0 0zm6.75-.28c-1.7-4.7-.4-10.54-2.96-14.68 3.78 5.23-.48-6.74 1.71-8.3 2.2-3.04 1.68-.6 1.45 1.06.47 1.95 1.74-4.65 2-.26-.51 4.11-2.28 9.13-2.76 12.83 4.88-.23 1.67 5.33 1.53 5.37 4-3.44.23.87.7 1.93.7-1.39.8 3.95 1.29-.19.6-2.47 2.93-2.22 1.13.23 2.07-.16 5.45-4.39 3.04-.55-4.52 4.19 3.65-.82 2.88 1.44 2.63-.84 4.6-4.8 3.25-.23 2-1.57 1.87-2 2.44-.61 1.44-4.07.83-7.95-.1-10.17 2.69-3.88-4.3 2.32-2.58-3.37 5.1-.38 1.75-5.68-.13-8.64-1.74-3.63 3.08 1.34.25-2.36-1.72-1.77-6.54-.72-9.4 2.41-.27-4.27-4.32-.74-4.09-1.3.77-5.3-3.02 7.21-2.21.74-2.19 1.64-1.5 2.9-1.55.5-1.35.9-7.07.4-4.03 4.8 1.45 2.53 1.65 8.57 2.25 9.59.11-7.37 2.88 8.75 2.89 3.79 2 2.45 1.3 5.73 3 5.97zm6.31-.96.34-.06zm.5-.2.3-.25zm-7.87-1c.18-.25 0 .44 0 0zm12.66-.02c.1-.72.63.09 0 0zm3.95-.14c1.12-1.02-.39.7 0 0zm-7.93-.05c.18-.24 0 .46 0 0zm-8.96-.58c-.22-1.18.5 1.17 0 0zm3.45.28.18.01zm8.2-.22c.45-1 .5.57 0 0zm2.04-.21c.22-.4.13.38 0 0zm-13.64-.26c-.4-.47.46-.15 0 0zm17.27-.36c0-.59.8.75 0 0zm-2.83.02c.22-.39.13.38 0 0zm-4.9-.14c.32-1.9 1.8.34 0 0zm1.44.08.18.01zm1.56-.04c.31-.44.16.42 0 0zm-1.44-.23c.33-.72.79.74 0 0zm-5.89-.15c.12-.5.35.2 0 0zm2.4-.06c.21-.55.1.53 0 0zm6.35 0c.08-.65.28.5 0 0zm-14.63-.11c.24-.43.32.77 0 0zm16.25.01c1.17-2.05 2.75-2.71 0 0zm-4.72-.26c-5-2.72 7.11-7.95 2.55-.93-.49.72-1.79 1.48-2.55.93zm.12-.86c2.29-1.7-.79-1.78 0 0zm-.58-.76c2.11-1.59-1.54.78 0 0zm1.9.53c.78-.77-.3-.77 0 0zm-.73-1.93-.25.34zm4.51 3.19.24-.07zm-8.24-.61c-.14-1 .6.17 0 0zm-1.43-.04c.16-.54.31.39 0 0zm1.9-.35c.6-1.98 1.26.28 0 0zm-9.37.01c-.18-.65.48.4 0 0zm.7-.06c.09-.45.09.45 0 0zm14 0c.23-1.3.95.1 0 0zm3.87.02c-.37-1.02.6.2 0 0zm-3.22-.27.16-.26zm-9.55-.17c.26-.6.24.48 0 0zm11.5.02c.21-.39.13.38 0 0zm-1.35-.17c.01-1.63.44.8 0 0zm-7.78-.12c.11-.56.2.36 0 0zm-2.19-.1.5-.56zm-6.32-.17c-.34-.44.44.07 0 0zm9.42-.02c-.1-.72.49.25 0 0zm1.03-.01c.22-.4.14.38 0 0zm-.6-.3c.83-1.77 1.2.43 0 0zm-9.2 0c-.47-.79.53.44 0 0zm15.24.08c.25-2.16 1.21-.25 0 0zm-5.09-.28c.13-2.04.61 1.3 0 0zm7.63-.2c.22-.38.13.39 0 0zm-18.15-.3c.28-.43.44.46 0 0zm9.84-.19c.08-.45.08.45 0 0zm-8.93-.25c.1-.53.22.55 0 0zm4.73.01c-1.09-.16 1.62-2.1 0 0zm12.47-.21c.17-.25 0 .45 0 0zm-18.91-.14c-.11-1.04.66.6 0 0zm7.39-.03c.33-.52-.09.42 0 0zm-3.28-.26c-1.85-2.13.52-7.27 1.93-8.17.77 2.66-1.13 9.04.45 3.13-.36 3.49 1.38-2.16.94 2.73-.85 1.27-1.72 2.38-3.32 2.3zm.86-1.6c1-2.35-1.78 1.93 0 0zm-.38-1.41c-.82-2.85-.3 1.72 0 0zm-.61.37c-.22-.55-.1.54 0 0zm.93-1.16-.02.18zm.03-1.92c-.64-2.19.35 2.3 0 0zm1.16-1.3v.34zm1.84 7.05c.17-.25 0 .45 0 0zm8.78-.14c-.41-1.29.5.85 0 0zm.65.22c.48-1.16.4.15 0 0zm-11.63-.06c.59-.88.87.02 0 0zm-6.25-.2c-.04-.72.63.54 0 0zm19.42-.06c.58-.9-.23.6 0 0zm-8.2-.05c-.59-.88.68-.6 0 0zm-2.93-.37c1.08-2.67.28 1.22 0 0zm-8.87.03c.05-.53.38.4 0 0zm14.3-.3c.25-.4.25.4 0 0zm3.49.02c-.78-1.08.68-.18 0 0zm-9.62-.27c.95-.66-.34.4 0 0zm6.63.05c.2-.56.56.3 0 0zm-11.07-.2c.2-.53.38.42 0 0zm5.25.01c-1.34-.29 1.11-1.03 0 0zm-8.87-.16c.1-.53.22.55 0 0zm10.71-.1c.18-.25 0 .45 0 0zm4.45.08c-.05-1.19 1 .1 0 0zm4.17-.03c.38-.25.2.39 0 0zm-11.1-.2c.54-.82-.08.74 0 0zm8.4.1c.27-.4.35.42 0 0zm-6.07-.36c-.57-1.34.97.32 0 0zm-10.87-.1c-.09-.44.33.53 0 0zm11.91-.43c-.45-3.98.89 1.13 0 0zm7.08.4c.22-1.6.63.03 0 0zm-18.5-.1c.14-.38.22.39 0 0zm8.75-.32c-1.26-1.03 1.45.05 0 0zm-9.53-.13c.1-.53.22.55 0 0zm.47 0c.28-.62.39.8 0 0zm18.66.03c-.48-1.93 1.7-.42 0 0zm-17.88-.67c-.07-1.6.48 1.22 0 0zm-1.52.09c-.3-.84.49.73 0 0zm18.26.02c.33-.36.24.35 0 0zm-8.22-.43c.57-2.39.12 1.15 0 0zm.34.14c.1-.79.17.54 0 0zm8.38-.02c.7-.58-.1.42 0 0zm-13.67-.07c.15-.75.77-.1 0 0zm4.68-.18c-.89-2.1.66.08 0 0zm6.25-.23c-.16-1.36.6.42 0 0zm-4.5-.23c.83-.98 1.56.68 0 0zm6.34.12c.36-.44.49.45 0 0zm-16.54-.28.13-.22zm4.13.03c.22-.55.1.53 0 0zm7.67.05c.03-.5.32.35 0 0zm3.3-.08c-.2-1.07.55-.02 0 0zm1.2-.09c-.5-.92.94.28 0 0zm-4-.14c-1.51-.13.94-.37 0 0zm1.74-.11c.13-.84.32.26 0 0zm-9.67-.07c.16-.54.31.38 0 0zm11.27-.05c.17-.95.71-.26 0 0zm-4.48-.3c1-1.81 1.05-6.74 1.78-2.88.53-2.2-2.02-9.12 1.23-4.01 1.36 3.15-1.9 4.64-3.01 6.88zm2.19-4.12c-.3-.54-.03.66 0 0zm-.33-2.8-.02.19zm.03-.46c-.16-.54-.32.39 0 0zm-14.74 7.32c.31-.44.31.44 0 0zm6.24.05c-.21-.5.83-.6 0 0zm-6.16-.44c.22-.4.13.38 0 0zm11.9-.05c-.1-.74.62.43 0 0zm4.55-.04c.03-.67.3.53 0 0zm-4.09-.1c.09-.7.22.7 0 0zm5.19 0-.07-.5zm-18.3-.27c-.11-.67.43.64 0 0zm3.28-.5c-.6-2.07.23-1.83 0 0zm9.9-.02c-1.12-2.47 2.45-2.32 0 0zm-3.44-.01c.08-.46.08.45 0 0zm.24-.03c.33-.52-.09.43 0 0zm6.97-.6c-.67-2.45.78-1.6 0 0zm-1.28.1c-.06-.65.5.28 0 0zm2.83.05c.36-.36.36.36 0 0zm-18.89-.17c.1-.53.22.55 0 0zm11.11-.2.23-.36zm3.2-.02c0-.75.41.2 0 0zm-1.65-.15c.34-.52-.08.43 0 0zm-11.62-.13c.18-.25 0 .45 0 0zm10.68-.04c.09-.45.09.45 0 0zm1.25-.26c-.6-1.38 1.12 1.13 0 0zm-1.03-.05c-.13-1.74.97-.3 0 0zm4.95.08c-.7-.07.43-.66 0 0zm-5.44-.39c-2.41-1.03 3.24-10.61-.69-5.8-3.53 1.6 6.78-7.43 2.83-.28 1.05 4.2-1.73-2.02-1.9 3.26-1.4.4 1.15 2.3-.24 2.82zm1.26-4.87c-.2-.39-.3.22 0 0zm.28-1.78c1.53-1.68.45-1.9-.17-.1zm6.6 7c.05-.65.52.28 0 0zm2.26-.07c-.14-1.28.74.6 0 0zm-9.46-.23c-.25-.46.59.7 0 0zm-12.24-.12c.09-.46.09.45 0 0zm3.58.06.3-.26zm17.25-.07c.29-.23.2.38 0 0zm-11.67-.47c-2.42-2.19 1.85-6.96.62-2.08-1.6.74.8 1.24-.62 2.08zm.44-2.86c.64-2.13-1.3.46 0 0zm2.89 3.18c-.11-.68.32.54 0 0zm-13.05-.3c-2.43-3.68 2.37-.4 0 0zm4.94.16c.24-.4.24.4 0 0zm8.48-.06c.18-.24 0 .45 0 0zm7.94 0c.04-.71.46.32 0 0zm-16.42-.24c.22-.39.13.38 0 0zm7.88-.04c-.24-1.08.45.48 0 0zm4.58.1.3-.18zm-3.49-.26c.35-.42.26.41 0 0zm.4-.3c-.76-2.73.73-.3 0 0zm-10.67.2c.22-.39.13.39 0 0zm14.16-.09c.1-.83 1.14.12 0 0zm-17-.47c-.08-.44.34.53 0 0zm17.7.01c.18-.24 0 .45 0 0zm-5.48-.23c.12-.5.35.2 0 0zm-1-.17c.18-.24 0 .46 0 0zm-7.16-.33c-.42-1.64.49 1.16 0 0zm13.05.1c-.95-2.6.6-2.65 0 0zm3.08.2c.71-.88.51.17 0 0zm-20.64-.35c.1-.54.22.54 0 0zm18.15 0c.22-.55.1.53 0 0zm-3.98-.23c.43-.64.08.97 0 0zm-15.07.03c-.55-.99.76.31 0 0zm10.73.02c.33-.52-.09.43 0 0zm.84-.12c.26-2.04.25.81 0 0zm7.35-.02c-.57-1.16.59-.03 0 0zm-9.23-.23c.09-.45.09.45 0 0zm4.97-.05c.32-.4.16.53 0 0zm1.6 0c.18-.25 0 .45 0 0zm-5.09-.25c.32-.74.06.71 0 0zm2.2.01c-.36-1.58.97.66 0 0zm5.88.1c.16-.54.31.39 0 0zm-14.15-.31c-.4-1.46.53.96 0 0zm8.67-.03.24-.19zm5.85-.45c-.98-2.85 1.12.97 0 0zm-20.15.02c-.34-.44.44.07 0 0zm13.7-.09c.31-.38.16.54 0 0zm7.23.07c.03-.51.32.35 0 0zm-6.33-.16c.45-.52-.14.5 0 0zm7.31 0c.08-.88.59.72 0 0zm-2.97-.8c-1.68-3.83 3.76.67 0 0zm-6.53.7c.1-.9.48-.35 0 0zm1.89-.15c.21-.7.08.7 0 0zm-8.87-.15c.17-.25 0 .45 0 0zm10.46 0c.22-.54.1.54 0 0zm-16.21-.1c-1.2-1.65.62-.83 0 0zm18.85.04c-.02-.87.88.51 0 0zm-18.46-.14c.31-1 .5.17 0 0zm14.42-.24c.13-.5.27.38 0 0zm1.5-.25c.33-.83.03 1.02 0 0zm5.44.2c-1.45-2.13.72.21 0 0zm-20.05-.05c0-.8.67.03 0 0zm17.05-.1c-.06-.57.44.5 0 0zm-15.1-.1c.24-.4.24.4 0 0zm16.87-.88c-1.72-4.6 1.8 2.43 0 0zm-18.27.53c.32-.57.24.57 0 0zm2.6.07c.11-.51.34.2 0 0zm16.71-.5c-.85-1.93 1.02 1.48 0 0zm-5.14.17c-2.43-2.6 3.4-2.48.14-.93zm-.2-1.32c-.51-.82.25 1.25 0 0zm.39.25c-.13-.38-.22.39 0 0zm-16.6 1.09c.48-.45.36.43 0 0zm11.21-.04.3-.25zm-5.98-.17c.05-.86.65.05 0 0zm5.74 0c-1.13-1.74 1.13-1.08 0 0zm-9.9-.25c.72-.56-.38.46 0 0zm.37-.3c.3-.37.05.52 0 0zm16.69.1c-.81-.87.55-.11 0 0zm.32-.23c-.3-1 .68 1.07 0 0zm.94-.2.31-.04zm-10.17-.5c-.08-4.07 2.33 1.09 0 0zm8.9.16c.5-.66 1.07.18 0 0zm2.72-.13c-.08-.44.34.53 0 0zm-9.77-.12c.03-.55.37.46 0 0zm.39-.11c-.12-.51.32.38 0 0zm-1.04-.42c-.08-1.73.56 1.8 0 0zm7.29-.09c-.89-3.04 3.9-1.47.29-.2l.04.28zm1.88.22c.22-.4.14.38 0 0zm-8.44-.15c.32-.35.32.34 0 0zm7.78-.2c.5-1.8.27.82 0 0zm-2.09-.65c-.11-.5.33.39 0 0zm-9.02-.18c.12-1.36.52.5 0 0zm12.88-.78c-.28-.68.57.79 0 0zm6.36 26.37c3.37.42 6-.25 1.03-.57-2.13-.53-3.67-.16-.85.91zm-21.9-.2c-3.18-7.37-.9 1.76 0 0zm4.88.31c-.07-.86-.2.88 0 0zm-8.8-.35c-.32-.99-.35.85 0 0zm.47-.02c.64-.44-1.68-.7 0 0zm1.04-.5c-.4-.12.38.45 0 0zm17.94-.22c-.1-.53-.22.55 0 0zm-17.95-.05c-.03-.59-1.13-.76 0 0zm28.1-.25-.15.23zm-10.24-.02c.28-.43-.7.62 0 0zm-3.2-.03c-.14-.38-.22.4 0 0zm15.55-.36c-.3-.96-.1 1.3 0 0zm-1.39-.03c-.24-.4-.24.4 0 0zm-27.1-.45c-.65-1.14.5 1.2 0 0zm20.67-.15c-.67-.29-.67.48 0 0zm-23.76-.12c-.6-1.9-.67 1.14 0 0zm.3.07c-.43-.62.1.53 0 0zm6.9-.56c-.33-.76-.64.69 0 0zm-6.6-.23c-.1-.53-.21.55 0 0zm-.3-.15c-.15-.53-.15.7 0 0zm1.65-.23c-1.66-2.85-3.22-2.83 0 0zm9.94-.67c-.23-.5-.65 1.04 0 0zm13.66-1.26c-.05-1.23-.35 2.86 0 0zm-24.13.22c.03-3.37-1.12 2.12 0 0zm6.93-.12c-.77-.1.14 1.02 0 0zM62.3 134c.16-1.08-.75-.04 0 0zm1.78.09c1.66-3.06-1.32.32 0 0zm-.18-.18c.31-.6.1.56 0 0zm-.9.2c.5-1.54-.85.4 0 0zm-6.75-.42c.86-2.48-.34-1.26 0 0zm7.2-.25c-.4-.12.38.45 0 0zm24.49-.13c-.06-1.49-.8.77 0 0zm-24.5-.27c-.47-1.8-.39.65 0 0zm24.12-.47-.16.46zm-25.62.36c-.2-.39-.28.22 0 0zm.3-.2c.05-.62-.4.43 0 0zm1.7-.17c-.36-.2-.12.5 0 0zm-1-.09c-1.14-.59-.36.27 0 0zm-7.68-.8c.06-.63-.73 1.02 0 0zm1.5-.34c-.24-.87-.24.88 0 0zm-2.4 0c-.24-.55-.24.56 0 0zm-.26-1.88c-.32-.4.1.5 0 0zm24-.44c-.37-.13-.02.97 0 0zm-24.02-.4c-.06-1.04-.2 1.05 0 0zm-.93-1.3c.16-4.85-1.05 2.3 0 0zm8.96.09v.39zm16.15.3c.44-.66-.77.72 0 0zm-1.94-.5c1.64-4.33-1.19 2.07 0 0zm-.4.1c.4-1.75-.85 1.47 0 0zm.84-.33c-.24-1.07-.28 1.9 0 0zm-1.12.06c1.46-3.66-1.11 1.38 0 0zm.56-.73c-.15-.58-.35 1.12 0 0zm30.6-.6c-.56-1.5-.32 2.83 0 0zm-44.88.42c-.32.06.18.53 0 0zm13.62.16c-.18-.38-.13.54 0 0zm-13.36-.33c-.36-.97.18 1.21 0 0zm.57-.23c-.32-1.89-.3 1.9 0 0zm-1.46.42c-.19-.55-.58.25 0 0zm28.39-.97c-.33-.9.27 1.9 0 0zm16.53.24c.08-4.2-1.11.69-.3-.51-.42-.06.23 1.43.3.51zm-44.37 0c.84-2.23-.79.81 0 0zm.83-.44c1.04-1.12-1.75.45 0 0zm-1-.08c1.1-3.18.95-6.95-.02-1.33zm1.37.13c-.4-.42.02.68 0 0zm-9.93-.7c-.46-1.64-.22 1.57 0 0zm8.23 0c-.53.03.15.79 0 0zm23.12 0c-.5-1.15-.77 1.3 0 0zm-21.52-.2c-.42-1.37-.47 1.23 0 0zm-1.65-.57c1.34-2.75-1.48 2.23 0 0zm28.2.43c-.32-.56.22.93 0 0zm9.01.02c-.18-.87-.18.87 0 0zm-9.87-.5c1.04-3.03-1 1.55 0 0zm6.41.22c-.08-2.22-1.49.3 0 0zm-31.74-.84c-.34.45.35 1.73 0 0zm26.04.56-.02.17zm9.24-.08c.06-2.09-1.42 1.3 0 0zm-45.61.1c-.14-.39-.22.39 0 0zm57.2-.23c-.08-1.08-.61.2 0 0zm-48.83-1.1-.49.88zm44.09.58c-.22-.54-.1.54 0 0zm.46-.32c-.44-.04.2.49 0 0zm-17.21-1.15c-.84-.35.87 3.05 0 0zm17.62.6c-.3-1.75-.43 1.95 0 0zm-9.2.13c-.3-.65-.3.65 0 0zm13.61-.1c-.33-2.26-1.73-1.17 0 0zm-4.88-.3c-.22-.7-.09.7 0 0zm-2.45-.24c-.6-.6-1.1.58 0 0zm1.75.05c.12-.4-.89.39 0 0zm-12.77-.16c1.6-.54-3.38.65 0 0zm12.27-.01c-.59-.63-.61.17 0 0zm-9.88-.13c3.55-1.41-4.5 0 0 0zm8.03-.16c.4-.9-.92.52 0 0zm2.34.02c.74-1.5-.93.36 0 0zm.46-.12c1-.9-.6.16 0 0zm-2.1.05c-.04-.69-.82.03 0 0zm6.33.03c-.44-2.39-.72.46 0 0zm-25.23-.34c3.06-.86-1.14-3.49 0 0zm.35-.87c.22-.39.14.38 0 0zm11.92 1.08c2.47-.23 2.28-.97 0 0zm7.18-.38c.75-1.97-1.08 1.16 0 0zm3.79.3c-.35-.43-.26.4 0 0zm-44.2-.27c.3-3.9-1.77.37 0 0zm-1.85-.4c-.98-.38.36 1.09 0 0zm37.87.44c-1.47-.47-.4.4 0 0zm1.61-.15c-1.51 0 .75.17 0 0zm4.6-.15c1.39-2.93-1.64 1.23 0 0zm-10.72.16h-.19zm-1.47-.14-.41.06zm6.53-.1c-.13-.37-.22.4 0 0zm-2.57-.05h-.18zm.6-.03c.54-.62-1.23.45 0 0zm6.6-.06c-.14-.7-.32.55 0 0zm-4.18-.05c.11-.44-.72.6 0 0zm-5.36-.4c2.8-.5.78-.41 0 0zm2.54.24h-.18zm-33.88-.22c1.01-1.44-.74.35 0 0zm42.39-.07c.82-2.44-.76.85 0 0zm.5-.11c-.4-.41.34.74 0 0zm-7.04-.15-.77.17zm-10.82-.46c-.22-1.9-.33 1.4 0 0zm8.28.28c1.34-.35-.93-.33 0 0zm-9.88-.25c-.14-.7-.32.55 0 0zm3.16-.13-.27.07zm5.77.08c-.13-.38-.22.39 0 0zm5.9.04h-.18zm-39.7-.26-.01.18zm34.55.06-.4.05zm4.74-.03c1.06-.28-2.36.2 0 0zm-38.3-.63c-1.39-4.04.46 1.83 0 0zm13.04.06c.24-1.21-.84.94 0 0zm.47.21c-.57-.43.31.51 0 0zm13.62.05c3.6-1.34.98-1.64-.4-.26l.03.2zm-29.39-.4c.89-1.9-.86 1.26 0 0zm16.61-.9.03.96zm12.01-.18-.2.32zm-34.36-.59c2.54-2.7 2 1.64 3.87-2.3 5.22-3-7.03 3.14-3.16-.91-2.5.24-1.74 1.9-.39 2.71-.2.6-2.3 1.76-.32.5zm.63-1.14c.24-.58.32.57 0 0zm-1.56-.55c.26-.41.35.42 0 0zm.5-.78c.8-1.05.95.7 0 0zm3.74-.11c.38-.26.2.38 0 0zm1.1-.15c2.44-1.12-.18.8 0 0zm34.08 3.25h-.3zm-18.37-.28c-.28-.71-.03.83 0 0zm14 .1c-.19-.38-.14.54 0 0zm-30.56-.79c1.34-3.07-1.7 3.16 0 0zm16.26.65c-.15-.88-.33.71 0 0zm15.1-.24c.2-1.97-1.4 1.1 0 0zm-.14-.32c.18-.25 0 .45 0 0zm2.52.69h-.3zm-35.73-.35c-.7-.14-.51.63 0 0zm34.98.24h-.35zm1.67-.23c-1.59-.45 1.02.68 0 0zm-.89-.66c-1.24-.17.53.82 0 0zm-35.49.24c1.45-1.08-2.2.76 0 0zm17.73-.07c-.41-.6.2.87 0 0zm18.8.15c3.1-.76-2.87-.4 0 0zm1.17.08h-.6zm-28.13-.16c-.64-.56-1.18.68 0 0zm43.96.03c-.49-.45-.36.43 0 0zm-44.23-.35-.37-.52zm-9.25-.2c1.4-1-1.44.02 0 0zm2.74-.26-.02.17zm6.74-.03c-.72-1.08-.45.76 0 0zm.62-.01c1.58-.9-1.63.13 0 0zm.05-.3c.46-.52-.14.51 0 0zm-2.9-.85c-1.27-1.01.95 2.83 0 0zm37.1.75c-.39-.36-.06.67 0 0zm-46.17.06c-.22-.4-.13.38 0 0zm8.74-.22-.02.18zm2.43.13c-1.67-1.25-.78.2 0 0zm2.78-.87c-.11-1.15-1.44 1.27 0 0zm-3.22.31c-1.1-.7.42.57 0 0zm2.1-.06-.02.17zm16.81-.5c-.6-.27.17.71 0 0zm-12.76-.79c.7-2.2-2.05 2.64 0 0zm-15.54.61-.24.06zm4.66-.16c-.41-.41.33.74 0 0zm12.45-.04c-.24-.4-.24.4 0 0zm-16.6-.21c-.83-.37.12.5 0 0zm13.97-.31c.24-.84-1.27 1.75 0 0zm21.18.42c-.13-.38-.22.4 0 0zm-34.66-.37c2.85-1.28-4.49.87 0 0zm26.93.07c0-1.28-.46.79 0 0zm17.8-.13c-.63-.48-.27.27 0 0zm.5-.06c-.24-.4-.24.4 0 0zm-51.96-.04-.3-.06zm.83-.3c-.1-.54-.21.54 0 0zm14.33.04c2.22-5-4.94-.87 0 0zm-.52-.95c-.13-.68.65.3 0 0zm.26-.38c-1.36-.91 1.72.49 0 0zm-15.05 1.23c-.13-.38-.22.4 0 0zm22.89 0c-.24-.4-.24.4 0 0zm-5.03-.24c5.12-4.63-4.56-1.5 0 0zm-.2-.63c0-.51.46.04 0 0zm3.44.77c-.14-.38-.23.4 0 0zm32.6-.05c-.23-.52-.22.58 0 0zm-48.2-.17c1.72.05-.28-.68 0 0zm6.6.06-.2.01zm6.15-.03c-.16-.42-.3.44 0 0zm4.74 0c-.76-1.3-.55.22 0 0zm-1-.1c-.13-.39-.22.39 0 0zm34.11 0c-.56-2.67-1.05.26 0 0zm-44.02-.15c.25-1.56-1.09.34 0 0zm1.24 0c-.2-.38-.3.23 0 0zm10.1-.1-.6-.08zm-1.13-.15c.13-.63-.66.83 0 0zm-11.32-.1c.81-2.87-3.79-.95 0 0zm2.29.04c.37-1.2-1.3.5 0 0zm-7.38-.13c-.12-.48-.3.34 0 0zm14.77-.58c3.85-3-1.75-2.6-.73.33l.43.08zm.77-.83c.35-.87.34.57 0 0zm.16-1.04c.47-2.07.13 1.87 0 0zm-.73 2.24c-.14-.38-.22.4 0 0zm3.19-.3-.6.22zm-7.52.1c.13-.73-.86.56 0 0zm-13.63-.1-.25.06zm4-.05c-1-.64.45.51 0 0zm6.18 0c-1.16-.9.05.73 0 0zm-5.65-.46c-4.2-7.08-.3.42 0 0zm-.74-.78c-.06-.56.44.5 0 0zm9.08 1.1c-.47-.47-.36.42 0 0zm.64-.1c.34-.54-.77.5 0 0zm8.24-.17c-.68.05 0 .4 0 0zm-.96-.92c.68-1.76-2.4 3.77 0 0zm15.66 1.06-.44-.29zm-30.61-.1-.24-.07zm-.1-.4c-2.56-2.26.34.96 0 0zm2.8 0c-.34-.2.39.55 0 0zm12.63.07h-.18zm-15.93-.08c-.2-.38-.29.23 0 0zm15.2-.67c2.06-2.43 1.98-7.22.1-2.37-1.12-.5-.7 4.4-.1 2.37zm1.29.46c-.31-.4.1.5 0 0zm-17.05-.6c-.41-1-.89.27 0 0zm36.16.18c-1.34-.88-1.22.37 0 0zm11.15-.69c-1.9-3.9.65 2 0 0zm-51.1.45c-1.12-2.06-2.87-.1 0 0zm16.07.02c-.45-.57-.44.67 0 0zm6.38 0c-.2-.46-.25.22 0 0zm-18.39-.22c-.34-.2.38.54 0 0zm30.65-.08c-.44-.25-.01.52 0 0zm6.26.08c1.9-2.22-1.32.4 0 0zm-35.02-.35c-.74-.84-.14-5.63-2.65-3.2.4 1.42 1.18 2.92 2.65 3.2zm-2.3-3.5c-.32-.33.67.23 0 0zm-.85 3.23c-1.26-.87.7.83 0 0zm19.7-.25c-.24-.4-.24.4 0 0zm-1-.64-.27.34zm-20.44.15c-.22-.4-.14.38 0 0zm2.2-.33c-.9-2.01-.65.06 0 0zm18.54-.4c-.25-.5-.05 1.25 0 0zm23.56-.49c.1-3.63.49-1.4-1.87-4.92-4.9-4.68.14 1.82 1.32 3.87-.08-.55.14 1.93.55 1.05zm-2.91-5.52c-.16-.32.44.21 0 0zm-.3-.34c-.46-.82.6.35 0 0zm7.29 5.87c-.7-.95.67 1.3 0 0zm-48.16-.53c-.27-1.12-.13.89 0 0zm22.27-.3c.47-1.5-.62 1.28 0 0zm.99-.07c.52-1.05-.89.85 0 0zm-3.75-.77c-.71.1-.03.89 0 0zm22.92.14c-.53-.8.5 1.1 0 0zm6.22.22-.3-.25zm-43.12-.12c-.37-.38-1.37.42 0 0zm.87-.1c.5-.71-.92.62 0 0zm36.78-.06c-.35-.2.38.54 0 0zm5.38-.25c-4.44-5.6-1.5-1.13 0 0zm-.5-.1c-.66-1.12-3-2.97-.9-.84zm-5.86-.18c-.31-.4.1.5 0 0zm-39.88 0c.07-1.4-1.65.2 0 0zm37.25-.09-.39-.22zm-40.19-.25c-.24-.71-.24.71 0 0zm3.24-.05c-1.14-.82.75.8 0 0zm35.95-.16c-1.55-1.36 1.32 1.39 0 0zm8.38-.14c-1.84-1.68 1.42 1.7 0 0zm-45.22-.15c-.3-1.31-.96.55 0 0zm40.3-.27v.3zm4.22-.08c-.22-2.65-.86.31 0 0zm-8.51-.42c-.66-.45.27.73 0 0zm-36.47-.54c-.07-1.33-.3.76 0 0zm44.7-.1c-.35-.2.38.54 0 0zm-9.1-.37c-.87-1.3.7 1.36 0 0zm7.83-.58c-1.4-2.15 1.3 2.91 0 0zm.72.4c-1.2-2.1.75 1.84 0 0zm-8.43-.04c-.34-.2.38.54 0 0zm7.27-.37c-2.17-3.52-3.25-2.81 0 0zm-1.6-1.56c-.27-.46.58.7 0 0zm-26.77 1.58c.68-.9-.84.76 0 0zm23.78-.16c-.12-1.13-.45.62 0 0zm5.79.1-.3-.25zm-9.18-.46c-.48-.76.23.7 0 0zm8.48 0c-.47-.75.21.7 0 0zm-28.1-.22c-.03-.94-.34.85 0 0zm-19.08-.62c-.21-.55-.1.53 0 0zm41.91-.07c-.4-.13.38.44 0 0zm-22.25-.43c-.35-.8.25 1.18 0 0zm-.26-.05c-.4-.6.2.88 0 0zm23.39-.23c-.53-.79-.23.62 0 0zm1.4-.65c-.62-1.04.16.66 0 0zm3.54-.5c-.81-1.15.41 1.03 0 0zm-6.3-.23c-.62-2.33-.54 1.2 0 0zm-1.43-1.01c-.22-.55-.1.53 0 0zm1.5-.2c-.58-.43.3.5 0 0zm-.66-.01c.67-.92-1.66-.17 0 0zm-1.43-.26c-.34-.2.38.54 0 0zm1.98-.16-.78-.2zm-1.64-.3c-1.42-1.47-.2 1.1 0 0zm-1.4.09c-.2-.47-.24.21 0 0zm2.05-.04-.3-.26zm-2-.31c-.71-.67.23.52 0 0zm2.45.05c-.35-.42-.26.4 0 0zm-.63-.62c-.57-.28.27.55 0 0zm-2.47-.96c-.04-1.73-.59.95 0 0zm2.74-.66c-1.04-1.24-.03.7 0 0zm-2.09-.52c-.99-.73-.84.23 0 0zM90.71 92c-.31-.4.1.5 0 0zm1.34-.16c.14-.62-1.97.11 0 0zm-.1-.46c-.38-.52-.49.54 0 0zm-22.3 135.79c.13-.46.03.63 0 0zm3.3-.15c.08-.8.08.8 0 0zm-6.16.17c-1.03-3.6.74.49 0 0zm-.5-.42c-.2-2.74-.53-14-.06-5.9.1 1.96.2 3.94.06 5.9zm5.3-.87c-.59-5.15.7 2 0 0zm19.54.53c-2.24-9.37.83 1.12 0 0zm-22.29-.16c.18-.25 0 .45 0 0zm-.1-1.29c-.53-4.07.14-4.41.1.1l-.03.71zm-25.33.48c.2-1.32.17.77 0 0zm29.44-.57c.11-.63.04.8 0 0zm-29.48-.4c-.5-2.2.04-2.57 0 0zm29.48-.5c.11-.62.04.81 0 0zm18.44-.36.52-1.04zm-19.94-1.94c.05-4.98.26 4.92 0 0zm1.5.87c.08-.62.08.62 0 0zm18.4-.94c.15-2.64.45 1.96 0 0zm-47.74.49c.3-2.23.74-1.78.1.01zm.99-.4c-1.28-1.8 1.37-2.03 0 0zm28.19-.06c-.25-2.7.73.89 0 0zm17.94 0c-.36-1.59-.14-4.8 0-1.34zm-.25-.11c-1.08-.83.2-1.58 0 0zm-47.25-.61c.1-.98.05 1.16 0 0zm29.02-.5c.1-.8.05.98 0 0zm-29.47.13c.02-3.1.78 0 0 0zm48.9-.03c-.3-.95.99-1.8 0 0zm-2.72-.06c-1.16-2.96 1.75-.54 0 0zm-20.4-.07c-.12-2.53-.47-11.2-.16-9.38.1 3.13.25 6.25.17 9.38zm-25.2-1.09c-.04-3.08.63.26 0 0zm29.42.45c-.74-1.5.21-6.74.58-2.2-.7-3.54-.33 1.67-.58 2.2zm.1-3.54c-.14-.38-.23.39 0 0zm-1.5 3.38c-.2-.49.45.06 0 0zm-28.5-.51c.14-1.74.1 1.05 0 0zm1.74-.01c-.42-2.89.44.04 0 0zm26.03.16c.13-.45.03.63 0 0zm15.81.2c-.67-1.7.46-.51 0 0zM44 219.2c.12-.5.35.2 0 0zm45.41-.29c-1.22-1.99.75.13 0 0zm2.67-.44c-1.54-3.76 2.19-.97 0 0zm-20.92-.91c-.51-2.74-.48-8.83-.08-2.58.11.16.39 5.76.08 2.58zm14.98.65c-1.23-.77.22-.75 0 0zm-43.38-.38c-1.02.35.35-1.53 0 0zm46.12.3c.15-.75.5.16 0 0zm8-.38c.12-.63.04.81 0 0zM43.37 217c.79-3.7.58 2.6 0 0zm41.36.57c.02-2.12 1.05-2.28 0 0zm-40.07-.2c-.56-1.04.9-.13 0 0zm45.82.1c.24-.56.24.55 0 0zm1.04.05c.14-.39.22.39 0 0zm-2.6-.28c-1.78-2.44-4.05-5.13-2.04-7.97.31 2.41 1.77 4.5 2.04 7.97zm-.94-3.04c-.2-.9-.1.83 0 0zm-.7-.2c-.19-.38-.28.23 0 0zm-.66-2.5c-.31-.51-.24.52 0 0zm.13-1.54v.24zm6.19 7.2c-.34-.45.44.06 0 0zm-46.68-.24c-1.43-2.49.73-1.28 0 0zm39.4.13c-.74-1.15.2-.9 0 0zm.55-.33c.08-.62.08.63 0 0zm5.26.05c.24-.55.24.56 0 0zm5.15-.3c-.48-3.11-1.66-2.5-1.71-2.83-.87-4.84 3 4.05 1.7 2.84zM95 212.92c-.55-.9.18 1.01 0 0zm-51.99 3.56c.14-.46.03.63 0 0zm2.04 0c.22-.55.1.53 0 0zm45.58-.23c.25-3.35.43.97 0 0zm-39.59-.44c0-2.53.28 2.19 0 0zm41.63.46c.17-.25 0 .45 0 0zm-50.07-.04c-.05-.64.4-.13 0 0zm47.48.03c-.4-.5.25-.4 0 0zm-.75-.32c-.21-.49.44.06 0 0zm-46.04-.29c.3-3.81 2.18-4.85.56-.51-.13-3.04-.18.86-.56.51zm42.4-.07c.14-.45.04.64 0 0zm.75-.2c-.4-1.06.39.37 0 0zm2.85-.04c.08-.46.08.45 0 0zm.7-.04c-1.56-2.77 1.77.61 0 0zm-18.27-.02c.18-.25 0 .45 0 0zm19.65-.01c.38-1.3.14.62 0 0zm1.12-.38c.11-.63.03.8 0 0zm-49.69.1c.18-.25 0 .45 0 0zm42.6-.05c.08-.45.08.45 0 0zm-40.16-.25c.4-2.31 1.05-.18 0 0zm43.79.03-.25-.98zm-46.63-.13c0-3.63 1.19-.8 0 0zm1.86-.05c.4-.76-.09.7 0 0zm25.33.08c-.04-1.07.52 0 0 0zm12.62-.18c.08-.62.08.63 0 0zm3.29-.05c.13-.45.03.64 0 0zm-19.74-.2c.11-.62.04.81 0 0zm25.68.23c-.18-1.08.42.28 0 0zm-20.19-.13c-.05-.88.42.55 0 0zm-20.4-.17c-.83-2.53-1.3-7.65-.22-2.08l.28 1.33zm45.32-.12c.13-.46.03.63 0 0zm-23.54-.1c.14-.46.03.63 0 0zm9.53-.95c1.48-2.75-1.58-11.08-.44-5.45.3 2.64-.96-1.84-1.45 2.08-.79-1.9 1.94-10.46 1.16-5.69.93-2.9 2.52-4.99 1.3-.56 1.28-2.06 1.47-4.8 1.02-3.97 1.53-4.54-4.28 4.99-1.6.13-1.06 2.1-2.9 3.87-2.29 1.9-2.93 3.53 2.27-3.27 1.03-2.03-3.3 2.5.43-2.69-3.06-.3-3.53 1.99 3.6-3.08 4.96-1.16 3.72-2.9-.08-1.32-.98-1.39 2.93-3.63 2.94 2.85 4.78-1.27-.27-.58 1.82-3.16-1.18-.96-2.58-.19 5.27-3.75 7.28-3.36 1.95-2.5 1.23 3.5 1.68 1.8-2.33-1.73-3.5-.17-.52 1.51-4.19-3.97 5.74 6.37.52 1.6-1.03-1.03.71 2.2-1.46-.77-3.74-5.03-2.73-1.14.33 2.1-.93-3.98 4.25 7.58 1.19 2.44-.9-2.47-1.66 2.2-.14 3.47-1.05 5.16-.07-3.6-1.3-.56-.39-1.54-.8-6.3-.74-2.74-.17-3.64-3.55-9.92-1.95-2.3-.3 3.48-.41 15.29-3.68 7.56-2.4-2.84.37 13.05-1 5.9-1.22-7.85-2.84 1.05-3.46 2.02zm3.35-3.76c-.32-.91-.1.92 0 0zm-2.6-.22c1.24-2.79-1.2.12 0 0zm-2.08-1.47c.45-2.37-.97 2.16 0 0zm4.79.45c.44-1.79-1.24-1.01 0 0zm-2.04-.45c-.37-.65-.3.76 0 0zm.97-.1-.02.17zm.29-.52c.41-3.4 2.77-8.54 2.83-7.97.93-3.01 1.4-9.33-.34-2.95-.83 3.57-2.68 8.57-2.49 10.92zm1.84-7.56c.18-.24 0 .46 0 0zm.74-1.92c.23-.39.14.38 0 0zm.36-1.74c.18-.25 0 .45 0 0zm.9 11.4c-.23-.54-.11.54 0 0zm-4.5-.32c-.1-1.18-.63.7 0 0zm3.92-.04c-.9-.7.42.76 0 0zm-2.6-.6-.15.23zm-.12-.42c-.24-.56-.24.55 0 0zm-1.97-1.29c-.47.54.2.87 0 0zm-1.09.2c-.1-.54-.21.54 0 0zm1.68-1.52c1.6-2.8 1-7.48.05-1.59 0-.17-.62 3.18-.05 1.6zm.43-2.23c-.02-1.46.54-.62 0 0zm.17-1.16c.08-.45.08.45 0 0zm3.77 3.28c1.22-1.74-1.3-4.7-.5-.7-.89.2.7 1.94.5.7zm-.14-1.06c-.47-1.32.73.5 0 0zm1.04.85c-.37-1.5-.56 1.24 0 0zm-1.4-.52c-.3-.89-.42.2 0 0zm-7.88-.17c-.13-.38-.22.39 0 0zm9.28-.39c-.46-1.16-.46.38 0 0zm-3.58-.72c-.43-.43.5 1.25 0 0zm-4.85 0c.66-1.29-.96.77 0 0zm6.53-.48c-.34-1.18-.22.83 0 0zm1.5-.2c-.37-.12-.02.98 0 0zm-3.32.09-.02.17zm.03-.94c.92-.44 1-4.22.02-.98-.17-3.53-.39 3.12-.02.98zm1.8.56c-.23-.4-.14.38 0 0zm-7.24-.2c-.13-.38-.22.39 0 0zm-.2-.26c.66-.65-.79.07 0 0zm9.46-2c-.35-1.16.08 1.2 0 0zm-.5-.43c1.08-4.25-1.02 2.04 0 0zm.6-.78c-.09-.7-.22.71 0 0zm-.83-.45c-.81-.93.52 1.54 0 0zm-3.99.2c-.24-.55-.24.56 0 0zm10.47 0c-.24-.55-.24.56 0 0zm-5.38-.45c-.66-1.55-.92-.68 0 0zm-2.5-.86c-.51-1.38 0 2.7 0 0zm5.98.07c-.43-.66.14.7 0 0zm-3.88-.99c-.22-.39-.13.38 0 0zm.1-1.49c-.33-.55-.15.7 0 0zm3.06 21.06c-.15-2.87 1.08-7.95 1.67-2.64-1.26-.25-.87 2.6-1.67 2.64zm.71-4.4c-.36-.39-.25.6 0 0zm-27.48 4.16c.08-1.15.08 1.14 0 0zm5.53.24c-.59-2.69.4-.66 0 0zm1.23 0c.18-.25 0 .45 0 0zm19.57-.24c.08-.8.08.8 0 0zm-46.3.04c.18-.25 0 .45 0 0zm50.28-.04c.08-.46.08.45 0 0zm-45.08-.3c.08-.63.08.62 0 0zm18.33-.03c.25-.7.49.23 0 0zm-17.93-.14c-.83-.63.58-1.66 0 0zm44.92-.08-.26-1.1zm-50.72.05c.24-.4.24.4 0 0zm.3 0c.1-.56.2.36 0 0zm41.98-.17c.24-1.14.18.82 0 0zm-44.9-.28c.13-1.92.1 1.05 0 0zm29.25.2c.18-.25 0 .45 0 0zm.3 0c.18-.25 0 .45 0 0zm-6.85-.89c.05-1.68.08 1.5 0 0zm26.3.6c.23-.88.23.87 0 0zm-45.39-.1c-.56-.98.43-.2 0 0zm49.23-.04c-.2-.49.44.06 0 0zm-5.14-.34c.17-1.5.11 1.06 0 0zm-39.68.03c.08-.45.08.45 0 0zm18.53-.05c.1-.53.22.55 0 0zm2.11-.25c.09-.45.09.46 0 0zm-25.38-.1c-.13-1.05.4.47 0 0zm-2.74-.32c.5-1.31-.23 1.45 0 0zm3.08.27c.07-.82.5-.27 0 0zm4.64-.15c-.14-2 .46-.57 0 0zm-10.02-.49c.33-3.25.1-1.86 1.71-4.06.16 2.84.78 2.75-1 2.6-.21-.55-.5 2.54-.7 1.46zm30.41.14c.18-.24 0 .45 0 0zm20.15-.14c.27-.56.49 1.03 0 0zm-48.56 0c.08-.45.08.45 0 0zm3.84.07c-.34-1.16.4.42 0 0zm-2.34-.55c.52-2.77.21 1.74 0 0zm6.16.42c.3-.37.05.52 0 0zm19.27-.04c.08-.45.08.45 0 0zm18.9-.26c-.32-1.96 1.12 1.17 0 0zm-40.96-.28c-2.59-.07 3.06-4.63.31-.04l-.2.57zm.54-1c.2-1-.55.72 0 0zm41.7 1.44c-1.08-3.71 1.62-3.18 0 0zm-20.84-.13c-.22-.94.38.46 0 0zm12.44-.05c-1.02-2.1.51-.06 0 0zm13.75-.17c.7-2.7.07 1.08 0 0zm-49.18.08c.22-1.06.22.51 0 0zm4.19.02c.17-2.69.3.54 0 0zm19.46-.2c.13-.45.03.64 0 0zm2.28-1.14c-.88-4.87 1.88 1.39.2-1.75-.23.55-.01 5.26-.2 1.75zm-20.34.93c-.43-3.13.48.83 0 0zm38.73.1c.28-1.16.14.9 0 0zm3.95.1c.18-.24 0 .46 0 0zm-51.06-.26c.22-.97.12.6 0 0zm38.29 0c-.06-.85.47.14 0 0zm-30.8-.17c.08-.45.08.45 0 0zm34.82-.27c.04-2.15.39 1.36 0 0zm3.26.22c-.04-1.34.86-.08 0 0zm5.8 0c.17-.25-.01.45 0 0zm.24-.1c-.19-1.09.38.77 0 0zm1.25-.2c-1.96-.69 1.22-.28 0 0zm-45.74.04c-.08-1.07.4.71 0 0zm-6.23.02c.16-.54.31.39 0 0zm5.83 0c.22-.4.14.37 0 0zm40.64-.35c.23-1.4.23 1.39 0 0zm-46.72-.45c.12-3.33.27 1.96 0 0zm25.63.59c-.12-.5.32.39 0 0zm-24.82-.15c-1.22-2.6 1.18-2.88.68-1.2zm-.01-1.13c-.14-.39-.22.39 0 0zm43.8 1.15c-.24-1 .37.48 0 0zm5.52-.02c.31-.39.16.54 0 0zm-49.07-.03c.8-1.47 1 .21 0 0zm22.8-.48c-.4-3.86-.05-4.84 0 0zm18.16.3c-.82-2.2.84-.43 0 0zm-34.67-.15c-.75-.46.28-.35 0 0zm-7.98-.14c.17-.24 0 .46 0 0zm45.17.06c.35-.42.26.41 0 0zm-39.55-.11c-.04-1.81.84.57 0 0zm32.57-.13c.23-1.1.25.84 0 0zm9.33.17c-1.13-3.36 3.03-4.63 0 0zm.84-2.72c-.34-.99-.19 1.46 0 0zm-44.88 2.6c.22-.4.14.37 0 0zm9.14-.53c-.17-2.83.28-5.29 0 0zm-12.83.46c.28-.94.44.05 0 0zm4.1-.03c2.32-4.46.38-2.04-1.16-2.55.1-1.95.1-13.15-.83-6.7.05-6.24-1.48 1.18-.82-.37-.09-3.34-3.05 4.04-1.12-1.35-1.7 5.16 3.81-7.25.47-.8.26-1.4.1-3.86-.5-2.51-2.58 2.05 6.75-7.11 3.2-1.9.35-2.38-1.46 4.24.45-.31 2.68-2.92 1.47-5.1-1.06-1.68-4.35 4.69-1.84-1 1.7-2.4-3 .74-4.25 2.59-3.61.39-.38-.74-1.96 2.08-1.87-.68 3.26 1.7 7.3-4.1 5.92-.26 1.89-1 9.6-4.95 3.02-2.47-1.82 2.12 2.54-5.1-.78-.98.42-2.41-1.86 3.93-4.42 1.97-2.1 1.22 1.47-3.6-1.1-2.5 3.08-3.7 2.12-2.7.84-.36 2.13-2.23 3.48 3.91 3.06-1.07 2.42-3.5 9.17-3.16 5.56 2.86.1 5.17 2.09-7.24 3.74-1.2.67 2.89-2.3 8.17.37 2.9 2.61-2.61-.36 5.47.76 5.2-3.23-3.47 2.97 4.05-1.31-.07 2.02 3.7-4.16-4.96-.96.62.58 4.23-.21 7.23-1.38 10.37.26 2.34-.59-5.75-1.58 0 .04-3.03-.45-5.35-1.73-.8-1.25 3.87-1.36-1.11-.1-1.3.57-2.82-.95-8.4.68-6.7.8-3.2-.06-5.05-1-1.16-.26-2.37 1.13-4.7-.34-2.65-1.01-2.44-.69 9.16-3.22 7.12-.31-3.9.8 4.83.44 6.41 1.01 2.4 2.3 3.47-.17 3.37.94 2.23-.71.58-1.16 1.56zm.83-.7c-.02-.5-.31.35 0 0zm1.55-1.1c-.22-.38-.13.39 0 0zm-1.94-1.45c-2.4-2.6-.65 1.12 0 0zm-.28-.04c.22-.44.04.46 0 0zm.66-.8c-.03-1.04-.56 1.04 0 0zm.35-.6c-.24-.63-.26.75 0 0zm4.1-3.8c-.3-.38-.15.54 0 0zm1.77-.21v.29zm-5.78-.5v.5zm4.28.45-.02.18zm3.3-.2-.01.24zm-3.53.07c-.1-.53-.22.55 0 0zm.4-.64c-.25-.78-.18 1.92 0 0zm1.06-.7c-.22-2.44-.22 2.45 0 0zm2.6.09c-1.27-1.86-.3-8.78-2.84-8.3.66 4.6.06 9.2 1.22 4.51 1.13-1.74.1 3.29 1.61 3.79zm-2.39-2.82c.18-.24 0 .46 0 0zm-.36-.07c0-1.18.44.37 0 0zm.46-1.12c.18-.24 0 .46 0 0zm.4-2.29c-.74-2.42.13-1.12 0 0zm-.14-.84v.24zm.61.65c-1.29-2.47.63-.16 0 0zm.73 6.1c-.48-.57.44 2.04 0 0zm-1.15.24c-.46-.7.3 1.33 0 0zm-8.14.04c-.16-.6-.2 1.01 0 0zm.29-.75c.21-1.73 3.65-7.24 1.81-2.68 2.44-2.95 1.53-9.3-1.17-3.14-2.7 4.56-1.66 1.95 0 1.48-1.9 3.96 1.69-2.58-.2 2.47.06-.07-1.36 4.16-.44 1.87zm1.12-3.54c.17-.25 0 .45 0 0zm.2-.56c2.1-3.7-1.05.24 1.12-4.2.9.56.13 3.94-1.11 4.2zm8.55 4.13c-.78-3.74 0 1.35 0 0zm-7.97-.81c.83-3.7-1.03 1.2 0 0zm5.42-.14c.02-.93-.51 1.26 0 0zm-1.72-.4c-.32-.38-.16.55 0 0zm0-.59c-.32-.38-.16.54 0 0zm3.94-1.44c.02-4.29-.39 2.6 0 0zm-10.92.19c-.16-.76-.17 1.2 0 0zm8.16.02c.71-3.93-1.95-.09-.33-1.11.35-.97-.1 1.75.33 1.11zm-8.82-.2c-.24-.48-.27.6 0 0zm11.13-.44c-.23-1.05-.23 1.04 0 0zm-11.41-.27.1-.38zm.87.21c-.18-.37-.13.54 0 0zm8.51-.26-.02.18zm4.9-.95c-.63-1.47-.02.57 0 0zm-6.87-1.32c.66-2.22-.77 1.02 0 0zm1.37-.26v.34zm4.46.08c-.7-.97.52 1 0 0zm-13.1-.06c.27-.72-.67.68 0 0zm.5-.54c-.14-.38-.22.39 0 0zm8.53-.1c-.22-2.91-1.38-.7 0 0zm1.15-.73c-.66.33.72.73 0 0zm2.38.13c-.58-.87-.36.47 0 0zm.6.01c-.36-.81-.3.39 0 0zm.21-.33c-.5-.27.1.57 0 0zm-1.6-.37c-1.6-1.8-2.74.26 0 0zm-1.93-.7c-1.62-2.7-8.04-.6-2.31-.34.73-.11 2.24.46 2.31.34zm-1.78-.86c-.28-.43.7.63 0 0zm-1.33-.22c-.5-.86.82.79 0 0zm-6.87 1.03c-.05-.88-.44.78 0 0zm11.78-.54c.15-.74-.8.86 0 0zm-.34-.6-.62.32zm-1.26 0c4.05-1.88-2.4.64 0 0zm.28.1c.36-.71-1.04.84 0 0zm-1.5-.66c1.73-.67-4.19-1.19-.21.76.19-.06-.14-1.1.2-.76zm-.54-.13c.28-.23.19.38 0 0zm5.48-.02c-.35-1-.07 1.52 0 0zm-2.8-.67c-.13-.38-.21.4 0 0zm-7.87-.5c-.24-.39-.24.4 0 0zm7.43 0c-.46-.42-.56.46 0 0zm-5.97-.32c-1.15-3.06-.15 1 0 0zm-.5-.14v.29zm-2.48-.14.01-.88zm.92.11c-.6-.8.06.7 0 0zm5.19-1c2.85-3.25-1.46-1.03-.24.52l.15-.34zm-.2-.83c.25-.77.56-.23 0 0zm-2.74.47c-.35.37.3.83 0 0zm4.2-.04c.39-1.25-.81 1.4 0 0zm-.02-.68c-.19-.47-.55 1.96 0 0zm-2.77-.61-.02.17zm44.66 26.37c-.44-.38.83.36 0 0zm-3.94-.1c.24-.4.24.4 0 0zm2.94 0c-.04-.55.5.48 0 0zm-44.01-.1c.25-.6.36.39 0 0zm17.71-.13c-.5-1.12.46.01 0 0zm25.56-.02c.3-.37.05.52 0 0zm-15.66.03c.98-2.95.7-.69 0 0zm3.59.03.02-.31zm12.54-.06c-.46-.64.4-.42 0 0zm-43.1-.39c-.1-3.84 1.28-6.44.18-1.45l-.07 1.39-.04.26zm35.1.17c-.06-1.06.3.72 0 0zm-42.69-.01c.03-.51.32.35 0 0zm-.7-.47c.7-3.03.2 1.2 0 0zm7.73.17c-.92-2.6.63.76 0 0zm18.76.03c.18-.24 0 .46 0 0zM41.6 207c.47-.75-.22.7 0 0zm2.21-.4c-.32-4.17 1.65-3.66 0 0zm42.21.5c.03-.61.59.59 0 0zm-39.34-.24.35-.19zm23-.1c0-.68.32.5 0 0zm-27.85-.19.97-.95zm7.12 0c-.07-.82 1.28.61 0 0zm45.55-.07c-.12-.5.32.39 0 0zm-5.18-.19c-.32-1.95 1.34.33 0 0zm-20.98-.35c.14-.45.03.64 0 0zm7.33-.27c1.41-2.18 1.62-1.04 0 0zm-24.95.32c-.27-.91.67.07 0 0zm22.2-.1c.1-.45.1.46 0 0zm21.4.14c-.57-.83.76.07 0 0zm-50.93-.14.13.45zm1.84-.31.17-1.45zm.54.04c-.12-.43.69.59 0 0zm44.4.02c.18-.25 0 .45 0 0zm-.42-.23c-.25-2.44 1.2-.07 0 0zm3.52-.28c-.34-3.01-.08-2.51 0 0zm-37.63.12c-.29-3 .92.5 0 0zm-4.76-.1c.05-1.73.32.5 0 0zm20.81 0c-.38-2.54.9-1.27 0 0zm8 .15c.12-.56.21.36 0 0zm11.68-.18c-.03-.8.45.28 0 0zm-11.27-.47c.88-1.87-.09.67 0 0zm-36.9.19.22-.35zm36-.14c1-2.12 1.59-1.07 0 0zm-28.56-.43c-.47-2.9.29-1.22 0 0zm.74.07c.32-2.02 0 1.65 0 0zm40.58.06c.14-1.67.4.7 0 0zm5.62-.55c-1.03-2.58 1.17 2.38 0 0zm-46.6.36c.14-2.16.28.94 0 0zm26.58-.11c.28-2.46.86-.25 0 0zm-34.03-.02c.26-2.93 2.38-4.67 0 0zm6.22-.05c.65-1.93.16.6 0 0zm27.05.04.3-.25zm-20.38-.9c.12-2.79 1.18-2.92 0 0zm-11.83.64.5-.89zm33.57-.23c.33-.51-.09.43 0 0zm13.5.03c.29-.23.2.38 0 0zm-42.12-.32c.63-.81-.41 1.06 0 0zm18.32-.17c.07-.97.07.97 0 0zm9.54.16.3-.25zM50 202.9c-.13-1.11.82.13 0 0zm41.48-.01c.24-.55.24.56 0 0zm-18.82-.25c.08-.62.08.63 0 0zm19.35.23c-.79-2.42.87-1.22 0 0zm-46.7-.45c.2-3.4.52 1.04 0 0zm.97.2c.57-1.48-.07.8 0 0zm34.2-.03c.04-1.82.82.57 0 0zm.53-.04c.12-.56.2.35 0 0zm-3.44-.3c.77-.78-.47.69 0 0zm-6.03.06c-.22-1.33.66-1.2 0 0zm25.15-.22c-1.65-2.44-1.97-3.53 0 0zM45.1 202c.17-.25 0 .45 0 0zm11.13-.1c-.1-2.06.79-.99 0 0zm21.73-.01c.17-.75 1.78-.16 0 0zm19.04-.29c-.25-.72.64 1.06 0 0zm-32.85-.04c.09-.45.09.46 0 0zm-19.36-.14c.14-.7.32.55 0 0zm20.25-.01c.18-.25 0 .45 0 0zm-9.08-.48c-.32-2.7.42 1.8 0 0zm16.33-.26c.81-3.99-.1 2.56 0 0zm6 .76.31-.26zm18.22-.14c-.09-.44.33.53 0 0zm-17.66-.12c.22-.4.13.38 0 0zm-13.7-.19c-.27-5.99.48-.85 0 0zm-14.88-.11c.22-.4.14.38 0 0zm28.52-.08c.56-.71-.26.61 0 0zm11.48.08c.11-.56.2.36 0 0zm-26.57-.25c.1-1.18.2.51 0 0zm29.36.1c.22-.55.1.53 0 0zm3.2.03c.24-.35.32.37 0 0zm-47.03-.07c-.38-1.77.71.43 0 0zm42.74-.06c.17-2.69.3.54 0 0zm-47.37-.2c.17-.25 0 .45 0 0zm45.67-.04c.13-.5.26.37 0 0zm-18.25-.16c.18-.25 0 .45 0 0zm-26.83-.17c.23-.97.13.6 0 0zm4.2-.13c.17-.25 0 .45 0 0zm14.35-.14c-.1-1.7.48.66 0 0zm-18.05.04c.18-.25 0 .45 0 0zm45.54.1c-.41-.91.34-.42 0 0zm-19.8-.04c-.16-2.11 0-3.3 0 0zm-21.93-.55c.12-.63.04.81 0 0zm.3.1c.13-.45.02.63 0 0zm22.44-.1c.12-.63.04.81 0 0zm18.6.12c-.05-.62.27.4 0 0zm5.28-.04c-2.47-1.57-.04-.92 0 0zm-50.38-.15c.32-1.2.17.81 0 0zm4.15-.32c-.1-1.2.3.07 0 0zm40.9-.1c.13-.46.02.63 0 0zm.3.05c.08-.46.08.45 0 0zm6.82-.2c-.88-1.4.97 1.11 0 0zm-48.32.1c-.1-.72.43-.18 0 0zm47.17-.22c-.4-1.65.53 1.1 0 0zm-2.05.13c.02-.4.6.14 0 0zm-43.04-.1c-.04-.99.7.1 0 0zm17.15-.01c.22-.39.14.38 0 0zm22.45-.06c.18-.24 0 .46 0 0zm-45.98-.44.12.45zm5.6-.1c.08-.45.08.46 0 0zm39.98-.66c-1.07-4.41 1.52 1.35 0 0zm-41.8.57c.24-.72.24.71 0 0zm.71.04c.18-.25 0 .45 0 0zm10.08-.15c-.34-1.24.49 1.01 0 0zm37.21-.03c-1.5-1.51 1.65 1.05 0 0zm-28.13-.11c.14-.46.03.63 0 0zm9.96.2.24-.06zm17.54-.23c-.63-1.26.64.8 0 0zm-17.04.08c.22-.4.13.38 0 0zm-28.43-.45c-1.35-2.71 2.67-6.32 0 0zm31.57.32c1.21-.4-1.05.48 0 0zm-10.4-.32c.12-.63.04.81 0 0zm7.66.28c.68-1.4.52-.04 0 0zm20.1-.19c-1.03-.83 1.19.8 0 0zm-48.57-.14c.47-1.62-.2 1.2 0 0zm31.84.23.18.02zm11.51-.05c-.67-1.06.5.43 0 0zm-15.08-.07c.12-.5.35.2 0 0zm2.8-.02c.32-.44.32.44 0 0zm-22.82-.24c-.95-2.07.57.56 0 0zm23.2.15c.23-.39.14.38 0 0zm-10.94-.44c.12-.63.04.8 0 0zm-13.66-.15c.08-.63.08.62 0 0zm35.86.02c-1.55-1.73.97.58 0 0zm-53.44 0 .7-.77zm43.03-.02c.23-.4.14.38 0 0zm13.44-.02c-1.68-.15-.03-.8 0 0zm1.57-.03c-2.01-1.06-2.02-1.8 0 0zm-47.06-.15c-.1-.72.43-.17 0 0zm20.55-.45c.14-.45.03.64 0 0zm13.65-.1c.96-.94-.67.86 0 0zm-27.57-.07c-1.75-4.71 2.55 2.11 0-1.36zm-7.67-.27c.39-.76-.07.7 0 0zm20.7-.15c.12-.63.04.8 0 0zm-29.04.2.24-.42zm16.99-.2c-.48-1 .7.9 0 0zm26.39.15c-.21-.8.86-.15 0 0zm6.44-.33c-1.15-1.6-.5-1.73.1-.1zm3.04-.27c-2.82-3.26 2.28.77.94.33.28.73-1.12-.39-.94-.33zm-52.96.15c.96-.94-.67.86 0 0zm22.05-.13c-.62-3.17.55 1.09 0 0zm20.83.3c.31-.85.56.17 0 0zm-23.94-.84c-2.58-4.9 1.23.92 0 0zm9.48.25c.16-.7.27 1.03 0 0zm19.85.12c.18-.25 0 .45 0 0zm-51.62-.52c2.13-1.85-1.88 1.86 0 0zm58.3.47c.28-.44 1.46.43 0 0zm-54.7-.34c.44-.63-.08.53 0 0zm27.79-.1c.13-.46.03.63 0 0zm1.01-.5c.09-1.32.05 1.52 0 0zm14.93.46c.91-1.78.93.4 0 0zm-44.47-.72c3.64-3-1.6 1.86 0 0zm17.05.45c.18-.24 0 .46 0 0zm13.38-.19c.12-.63.04.81 0 0zm21.86.13c-.67-.8.8.8 0 0zm-22.17-.08c.09-.45.09.46 0 0zm-12.06-.17c-.77-1.8.67.3 0 0zm-19.32-.03c.77-.77-.47.7 0 0zm16.88 0c-.01-.87.29.68 0 0zm1.15-.37c-.12-.86.8 1.15 0 0zm12.14.06c.42-.52.3.67 0 0zm1.2.06c.18-.25 0 .45 0 0zm-20.05-.57c-.76-2.66.72.33 0 0zm-10.9.09c.08-.76.7.28 0 0zm31.26-.37c-.8-2.1-.25-7 .02-2.05 1.23-.56.58 2.46.14.85q-.06.6-.16 1.2zm-13.88.23c-.73-.38.24-1 0 0zm-14.99-.13c.15-1.1.4.36 0 0zm49.93-.03c-1.37-.59.98.2 0 0zm-51.84-.36.77-.38zm46.85-.45c.72-.56-.38.47 0 0zm-45.52-.1c.7-1.82 1.2-.3 0 0zm-1.48-.13c1.73-1.9 2.02-1 0 0zm11.74-.06c.21-.88.07.87 0 0zm41.5.19h.24zm-5.54-.1h.34zm-17.75-.78c.1-.98.05 1.16 0 0zm18.02.45c.86-.38-.1.38 0 0zm-37.6-.16c.18-.25 0 .45 0 0zm-6.08-.04c.22-.37.97.2 0 0zm13.41-.2c-.34-.68.69.7 0 0zm-16.2-.19.46-.17zm52.52-.3c-1.94-1.32 1.81.24 0 0zm-18.1-.2c.08-.63.08.62 0 0zm11.48.15c.35-.39.17.51 0 0zm3.36.04c.6-.87 1.76-.26 0 0zm-15.24-.4c0-2.32.87-.5 0 0zm-33.2 0c1.1-.83-.6.68 0 0zm-.27-.17c3.15-1.75-.3.57 0 0zm29.79.12c-.62-.7.64-.19 0 0zm-25.56.02.3-.25zm46.1-.2c-.31-.74 1.1.8 0 0zm-3.17-.46c1.72-3.57 5.42.41 0 0zm-.4 0c.17-1.24.3.81 0 0zm-2.73.05c.6-1.76 2.18.4 0 0zm-26.22-.3c-1.44-2.95 1.29-2.65 0 0zm-15.57-.18.4-.22zm3.24-.26c.76-.77-.47.69 0 0zm40.44-.1c.68-1.47.33 1.4 0 0zm-60.63-.3c.13-2.48.16 1.26 0 0zm48.67.24c.18-.24 0 .46 0 0zm6.88.09c-.09-1.14.6.24 0 0zm-43.7-.27-.18.49zm47.98-.05c.28-1.19.87-.17 0 0zm1.14-.15c-1.36-4.05 3.32-5.2 1.36-.41-.28.36-.93.84-1.36.41zm1-2.13c-.17-1.5-.67 3.34 0 0zm.32.3c-.66-.86.18 1.64 0 0zm-.57-.6c.07-1.41-.97 3.23 0 0zm-5.76 2.2c-.3-.5.64-.76 0 0zm-43.3.04c.92-.8.56.03 0 0zm47.07-.26c-.29-.52.9.3 0 0zm.57-.17c.04-.72.46.25 0 0zm-17.2-1.37c-.4-5.5.44 2.48 0 0zm2.9.4c.1-1.32.05 1.52 0 0zm-32.5.45c.75-.35-.15.37 0 0zm44.34.02c.47-.9.4.06 0 0zm6.38 0c.2-.89.57.22 0 0zm-63.95-.08c.26-2.49 1.33-3.41 0 0zm64.7-.15c-1.18-1.76.58-.83 0 0zm-47.9-.05c.03-.56.63.4 0 0zm39.47.12.3-.25zm6.6-.12c.17-.25-.01.45 0 0zm-30.87-.19c0-.68.31.51 0 0zm3-.88c-.16-4.78.33 3.38 0 0zm21.13.95c.01-.55.5.14 0 0zm-41.25-.12c.22-.39.14.38 0 0zm2.33-.02c.57-1.72.68.67 0 0zm2.76.02c.43-.6.31.34 0 0zm33.08-.23c1.46-1.12.22.8 0 0zm10.64.05c.85-.62-.46.55 0 0zm-49.05-.02 1.11-.06zm17.7-.34c0-1 .27.83 0 0zm11.1-.35c.07-1.15.07 1.15 0 0zm13.73.41c.11-.54.7-.32 0 0zm5.69-.49c.15-.93.21 1.33 0 0zm-9.72.16c-.17-1.3.96-1.19 0 0zm-32.08-.08c.33-.57.28.26 0 0zm42.18-.08c-.28-.42.7.63 0 0zm-41.7-.13c.54-.39-.16.31 0 0zm9.62-.09c-1.32-.26.5-1.58 0 0zm26.02 0c.09-.45.09.46 0 0zm-34.68-.05c.9-.86-.03.63 0 0zm-22.36-.2c.13-.45.03.64 0 0zm62.9.08c-.94-1.1.69.45 0 0zm-5.17-.02c.16-.54.31.39 0 0zm.32-.02c.44-.8.58.5 0 0zm-58.51-.33c.87-3.25.64.72 0 0zm59.13-.13c1.54-4.17 2.38-1.9.08.23l-.15.04zm1.65-2.35c-.24-.56-.24.55 0 0zm-30.5 2.3c-.31-.96.86-.18 0 0zm13.4-.28c-.59-3.27.5-.07 0 0zm13.64.15c-.05-.88.42.55 0 0zm-48.6-.1c.18-.24 0 .46 0 0zm33.95.05c-.06-.68.41.38 0 0zm-20.58-.25c.18-.24 0 .46 0 0zm2.49.12.3-.25zm-15.8-.38c-.15-2.02.39.58 0 0zm45.32.16c-.18-2.03 1.3-2.36 0 0zm-52.96-.22.4-.67zm29.2-.26c-.14-.99.52.61 0 0zm27.85.2.5-.29zm4.3-.14c-.82-3.67 1 .75 0 0zm.38-.12c-.34-2.06.4.94 0 0zm-13.74-.1c.08-.44.08.46 0 0zm-48.8-.17c1-3.4.3.66 0 0zm26.5-.05c.33-.52-.09.43 0 0zm31.77-.27c.38-1.16.12.92 0 0zm3.43.13c.09-1.68.7-.17 0 0zm-31.8 0c-.44-.6.44 0 0 0zm-28.53-.37c1.3-.54.16-.57 0 0zm7.02-.16.3-1.36zm21.2.23c-.09-.44.33.53 0 0zm27.97.02c.22-.54.1.54 0 0zm-55.02-.1c-1.04-2.24 1.35-.99 0 0zm60.48-.17c-1.11.13.7-1.56 0 0zm-33.32-.04c-.33-.9.4.05 0 0zm25.76-.04c.29-.22.2.39 0 0zm.62-.14c.13-.46.03.63 0 0zm-29.02-.06c.31-.44.31.44 0 0zm31.28-.1c.43-1.07.13.6 0 0zm-57.53-.19c.47-.75-.21.7 0 0zm.5.14.23-.35zm51.86-.17c.06-.68.4.36 0 0zm1.8-.48c.2-1.9.12 2.17 0 0zm-36.33.17c.48-1.29.37.22 0 0zm33.87-.52c-.74-3.1 2.8-11.7 2.52-4.5.16 2.3-.64 6.22-1.53 3.2-.34.37-1.13 2.73-.99 1.3zm1.2-1.46c-.31-.38-.24.52 0 0zm-.62-.87c-.3-.65-.17 1.2 0 0zm1.7-.49c0-2.12-1.05 2.31 0 0zm-.12-2.76c-.27-.38-.13.5 0 0zm-26.98 6.05c.3-.45.16.42 0 0zm-19.93-.06c-.7-2.19 1.24-.2 0 0zm-6.65-.1.16-.25zM32 181c.34-2.69.2 1.01 0 0zm52.7.24c.22-.4.14.38 0 0zm4.2 0c-.27-1.05 1 .5 0 0zm.6-.1.12.45zm1.09 0c.24-.4.24.4 0 0zm-42.52-.07c.23-1.9 3.25-.83 0 0zm8.86-.03c.36-.78.64.5 0 0zm2.14-.2c.16-.53.31.4 0 0zm25.53-.1c.13-.58.13.58 0 0zm-53.35.05.24-.32zm55.35-.05c.25-.4.34.42 0 0zm-30.52-.2c.24-.4.24.4 0 0zm29.27.01c.03-.5.32.35 0 0zm5.63-.11c-.3-.84.49.73 0 0zm-60.82 0 .23-.58zm53.74-.19c.15-.88.15.67 0 0zm.66.11c.26-.65.56.22 0 0zm4.53-.01c.22-.4.13.38 0 0zm.6-.05c.1-.98.5.48 0 0zm-1.98-.33c.22-2.95.48 1.33 0 0zm-56.17.15c.05-.92.5.3 0 0zm18.55.03c.35-.42.26.4 0 0zm6-.07c.26-.76.25.62 0 0zM37.24 180c.17-.24 0 .45 0 0zm-6.2 0 .23-.35zm5.65-.07c.33-.52-.09.43 0 0zm.94-.05c-.04-1.24.92-1.15 0 0zm10.57.05c1.3-1.46.86-3.28-.17-1.47-.18-2.05 1.67-4.3-.46-3.8.93-4.43 2.8-1.15 2.5-.6-.01-6.46 5.53-6.44 5.27-3.52 1.5-1.26 1.22-8.12 3.98-6.31 1.3 5.92-4.25 6.43-4.7 9.82-2.25 1.66-4.23 4.7-6.42 5.88zm1.35-2.15c-.21-.83-.13 1.3 0 0zm.54-1.17c-.26-.61-.33.39 0 0zm.9-.42c3.1-2.26-2.7.16 0 0zm-1.15.1c-.13-.38-.22.4 0 0zm2.9-1.09c.58-3.27-.13-3.18-.98-.7 1.35-.7.1 1.2.98.7zm.12-1.07c-.58-.6.12.39 0 0zm1.41.01c1.49-2.73-.78-4.74 0 0zm1.9-3.26-.29.06zm2.37-1.97c-.05-.89-.45.77 0 0zm-1.8-.27-.02.18zm1.9-.79-.02.18zM46.4 179.7c.18-.24 0 .46 0 0zm11.23.1c-.34-.45.44.06 0 0zm31.8-.1c-.08-.45.34.52 0 0zm-5.23-.2c.18-.24 0 .46 0 0zm5.7-.14c-.03-1.71.6.5 0 0zm-59.24.1c.57-2.94.58-.5 0 0zm25.77.04c-.44-.61.45 0 0 0zm-25.99-.2c.18-.24 0 .46 0 0zm6.2-.4c-.3-2.56.45 1.9 0 0zm53.94.4c.18-.24 0 .46 0 0zm-53.46-.03c.16-.54.31.39 0 0zm12.98-.08c.55-1.1.4.68 0 0zm-18.57-.12c.47-.76-.21.7 0 0zm24.44.05c.16-.54.31.39 0 0zm31.52-.02c-1.07-1.42 1.1-1.84 0 0zm-40.85-.22c.14-2.18.35-1.35.04.16zm-16.24.01c-.15-1.34.46-.38 0 0zm5.76.04c-.16-2.42.72-.55 0 0zM84 178.9c.18-.25 0 .45 0 0zm.31-.09c.14-.46.03.63 0 0zm6.19-.05c.08-.62.08.62 0 0zm-52.09-.14c.34-4.06.28-.61 0 0zm12.43.23c.36-.4.28.31 0 0zm1.14.03c.31-.66.32.12 0 0zm-14.36-.18c.18-.24 0 .46 0 0zm20.96-.01c.44-.8.47.7 0 0zm-23.75-.3c-.4-1.38 1.58-.89 0 0zm23.13.22c.3-.38.05.51 0 0zm28.73.06c-.62-1.57 1.04-.82 0 0zm-31.06-.18c-.1-.44.33.53 0 0zm3.6.02c-1.2-.42.73-.6 0 0zm1.08.02c.34-.52-.08.43 0 0zm25.78-.16.3-.11zm3.93-.05c-.29-1.15.54.7 0 0zm-57.59.09c.4-1.76 2.24-5.15.61-1.2 2.59-1.68-.47.45-.6 1.2zm22.15-.1-.46-.1zm-1.37-.2c1.1-.4-.7.7 0 0zm27.95.13c.33-.52-.09.42 0 0zm-43.93-.33c.17-.25 0 .45 0 0zm47.06-.06c.19-.84.19.38 0 0zm8.39-.04c.17-.25 0 .45 0 0zm-63.29-.08c.02-1.86 3.05-1.9 0 0zm1.15-.06c.21-.71.08.7 0 0zm26.64 0c.09-.45.09.45 0 0zm26.82-.06c.1-1.75.2.77 0 0zm6.28-.06c-1.09-3.1.4-2.7.5.07-.43-2.67-.32.73-.5-.07zm-35.7.08c.15-.54.3.38 0 0zm-18.53-.03c-.98-1.12.22-.52 0 0zm15.23-.08c.6-.51-.12.59 0 0zm-19.15.01c.22-2.52 1.1-1.12 0 0zm25.33-.06c.3-.23.2.38 0 0zm27.73-.04c.16-.54.31.39 0 0zm7.3-.23c-.35-1.39.51 1.16 0 0zm-45.54-.18c.25-1.39.06 1.04 0 0zm10.88.2c.58-.85.06.7 0 0zm-22.86-.14c-.2-.88.4.59 0 0zm25.79.06c.06-.67.39.36 0 0zm20.5-.36c.43-2.3-.03 1.64 0 0zm-35-.05c.07-2.73 1.13-.18 0 0zm8.21.32c.18-1.15.7.31 0 0zm30.04-.22c.14-.46.03.63 0 0zm3.07-.04c.2-1.3.48.89 0 0zm.52.19c-.07-.77.43-.4 0 0zm-54.03-.1c-.66-.76 2.15-.27 0 0zm18.2-.2c.25-.4.25.4 0 0zm-21.23-.3c.42-.67-.17.7 0 0zm3.99.14.24-.32zm9.4-.24c.07-.62.07.63 0 0zm13.5.14c.33-.52.4.61 0 0zm-22.14-.09c.3-.59.1.57 0 0zm48.6-.52c.5-4.63-6.25-11-2.57-13.5 1.62-3.67 6.27 1.54 6.23 6.16.37 5.16-.92-1.85-1.32 2.33-3.08 5.8 6.69-2.67 1.58-.58-.3-4.57 2.2-5.15 2.23-.32.33 4.46 2.99 8.4-.5 2.78.38 1.93-3.8-1.22-4.64 2.67-.68-1.28-.71 1.92-1.01.46zm.7-2.43c.74-1.86-.03-4.2.88-2.77-1.29-6.38-2.34 2.8-.87 2.77zm-.14-.6c.33-.51-.09.43 0 0zm-.36-2.6-.08-.96zm-.19 1.5c-.11-1.39-1.08.3 0 0zm.98-.59c-.7-2.47.12 2.24 0 0zm-1.05-.33c-.4-2.17-.06 1.66 0 0zm-.4-.47c.48-3.77-.66 1.37 0 0zm-.5-.62c.34-2.24 2.43-10.66.63-4.37-1.41 3.5-1.1-4.36-1.24.93-.2.75.34 4.46.6 3.44zm-.63-2.46c.32-1.52.04 1.22 0 0zm7.64 2.51-.01.18zm-4.95-2.2c-.33-4-.08 2.59 0 0zm1.83.39c-.22-.55-.1.53 0 0zm1.83-.07-.02.18zm-6.95-.08c1.72-4.51-.71-2.65 0 0zm5-.34c-.14-.93-.3 1.13 0 0zm-5.37-.43c-.13-.97-.17 1.3 0 0zm-.05-.86c1.42-6.37-1.66 2.5 0 0zm4.53.81c-1.26-.7.63.84 0 0zm-1.8-.24c-.48-1.45-.38.61 0 0zm-1-1.68c-.4-.4.34.74 0 0zm1.58-.28c-.2-.38-.29.23 0 0zm-30.12 11.54c.22-.39.14.38 0 0zm-2.3-.09c.17-.54.32.39 0 0zm37.86 0c.13-.39.22.38 0 0zm-59.28-.2.47-.94Zm3.38.06.3-.26zm20.7-.11c.22-.55.1.53 0 0zm25.87-.1c.16-.54.32.39 0 0zm9.13-.02c-.08-.44.34.53 0 0zm-58.6-.05c.21-1.04.37.26 0 0zm3.35.03c.19-.53.4.39 0 0zm42.84-.23c.18-1.5.17.9 0 0zm7.89.07c.13-.46.03.63 0 0zm2.34.1c-.12-1.3.9.6 0 0zm-40.75-.15.39-.46zm6.44-.07c.37-.87.78-.34 0 0zm25.17-.09c.18-.24 0 .46 0 0zm7.58-.04c.52-1.4.64.73 0 0zm-28.03-.05c-.92-.7 1.11.1 0 0zm22.64-.02c.25-1.8.25.53 0 0zm8.15-.08c.22-.88.08.87 0 0zm.24.1c.17-.25 0 .45 0 0zm-51.01-.4c.16-1.92.1 1.24 0 0zm-2.53.09c-.33-.66 1.07-.63 0 0zm52.18-.3c.63-2.5.15 1.17 0 0zm-57.21.1c1.1-1.85.56-.08 0 0zm3.68.1c-.22-.9.64 0 0 0zm24.52-.12c.22-.33.22.34 0 0zm-21.65-.11c.13-.38.22.39 0 0zm50.06 0c-.08-.67.56.19 0 0zm-29.72-.1c.22-.39.14.38 0 0zm2.56 0c-.67-1.37 1.27-.03 0 0zm21.1-.1c.31-.74.06.7 0 0zm-49.84-.1c.22-.39.14.38 0 0zm1.2-.1c.47-.75-.21.7 0 0zm1.14-.18c.17-1.7 2.32-4.06.57-.94 1.07-2.32 5.65-5.1 1.97-1.5-.12 1.04-2.42 2.42-2.54 2.44zm12.93.22c.18-.24 0 .46 0 0zm12.76.12.3-.05zm-23.33-.32c.17-.24 0 .46 0 0zm2.04-.2c.84-1.47-.35 1.22 0 0zm-3.43.06c.09-.45.09.46 0 0zm22.42.05c.24-.55.24.56 0 0zm-10.3-.3c.13-2.1.28.57 0 0zm7.74.15c.19-.7.22.71 0 0zm-18.81.04c-.27-1.54.58-.33 0 0zm45.56-.04c.13-.38.22.4 0 0zm-49.8-.2c3.59-4.35 2.8-2.42 0 0zm27.38.1c.05-.88.64-.2 0 0zm24.72-.05c-.18-.7.4.43 0 0zm3.54.09c-.01-.65.42 0 0 0zm-39.7-.2c.18-.24 0 .46 0 0zm11.9.03c-.45-1.7 1.02-.54 0 0zm.31.03c-.09-.52.43.5 0 0zm-21.07-.1c.78-2.8 2.6-4.32 0 0zm-6.3-.2.3-.05zm46.68-.08c.05-.87.4.53 0 0zm8.43.02c-.09-.44.33.53 0 0zm-51.12 0c.25-.67.56-.07 0 0zm4.39-.15c-.06-.86.47.13 0 0zm6.78-.08c.6-2.52 2.84-8.38 1.67-2.48-.37 1-1.54 1.3-1.67 2.48zm1.09-2.6c.17-.87-.48 1.08 0 0zm-4.13 1.72c.14-3.42.18 3.14 0 0zm34.8.66c-.73-3.87 1.05-2.27 0 0zm.27-.92c-.26-.5-.26.5 0 0zm6.35.8c-.03-1.18.22.96 0 0zm5.12.03-.01-.25zm-43.88-.18c.08-.46.08.45 0 0zm-10.1-.5c1.25-2.86-.47 1.94 0 0zm3.9.43c-.87-.15 3.24-7.12 0 0zm20.6-.03c.3-.45.15.42 0 0zm19.4-.05c.15-.54.3.4 0 0zm-24.44-.4c.34-.63 1.2.42 0 0zm25.3.1c-.4-.48.47-.16 0 0zm1.32-.15c-.38-1.07.52.69 0 0zm-21.74.06.3-.05zm-14.07-.39c-1.23-2.1.88-2.07 0 0zm43.5-.31c-.79-2.86 1.62 1.68 0 0zm-45.77.18c.2-1.68.15 1.02 0 0zm13.61.22c.26-.6.23.48 0 0zm-9.13-.2c-.42-1.3.62.24 0 0zm28.58-.04c-.07-1.05.3.73 0 0zm-20.2-.04c.01-2.64 1.26-.69 0 0zm35.76-.54c-1.67-7.2 1.1-1.06 0 0zm-12.07.22c.22-.55.1.53 0 0zm-43.74-.17c.56-2.64 3.9-8.73 1.98-2.8-.29 1.2-1.2 2-1.98 2.8zm21.02-.24.18.01zm23.13-.57c-1.25-2.59 1.86 1.99 0 0zm-3.36.16c.24-1.15.32.86 0 0zm-42.92 0c.81-2.23.96-.16 0 0zm52.99.03c.13-.72.17.51 0 0zm-43.88-.29c.06-.67.39.36 0 0zm-8.92-.95c3.04-4.13 1.84-1.75-.58.64zm42.43.74c.24-.55.24.56 0 0zm12.17-.01-.05-.36zm-32.74-.25c.54-.38-.16.32 0 0zm23.06-.12c0-1.14.86-.12 0 0zm-26.22-.82c-.08-3.97.77 1.93 0 0zm23.85.24c.35-.72.14.64 0 0zm-27.55.03c.17-.82.4.2 0 0zm39.32-.36c-1.6-2.35-.6-14.07.2-6.19.5.4 3.6 4.48.62 3.32 1.53 2.4-1.38 2-.82 2.87zm.57-2.62c-.13-.38-.22.39 0 0zm.3-1.2c-.35-.98-.3 1.09 0 0zm-10.7 3.82c-.19-1.54 1.38.6 0 0zm-29.19-.37c.32-1 2.02-.2 0 0zm4-.29c.17-.84.18.38 0 0zm-6.64-.29c.46-2.26.17.88 0 0zm11.93.22c.34-.38.13.3 0 0zm-7.13-.16c.22-.54.1.54 0 0zm40.33 0c.18-.25 0 .45 0 0zm-40.64-.04c.03-.51.31.35 0 0zm-3.07-.07.19.01zm27.8-.47c.1-2 .45 1.3 0 0zm2.25.28c.18-.25 0 .45 0 0zm-28.39-.08c.27-1.76.39-.03 0 0zm28.64-.21c-.97-1.46 1 .16 0 0zm13.4-.1c-1.18-1.3.8-.35 0 0zm-55.49-.25c.9-1.04 3.02-2.88.86-.8zm54.5.04c.18-.24 0 .46 0 0zm-38.67-.06c.4-.85.34.53 0 0zm-4.7-.07c0-1.8 1.1-1.43 0 0zm38.92-.26c-.06-.88.42.55 0 0zm-33.59-.1c.38-.4.19.55 0 0zm.56-.06c.26-.6.25.47 0 0zm.58-.28c.16-.54.31.4 0 0zm23.93-.05c.4-.4.2.54 0 0zm-47.02-.12c1.16-2.49 1.56-1.64 0 0zm54.97 0c-.27-.79.93-.16 0 0zm5.13-.09c.17-.24 0 .46 0 0zm-54.8-.25c1.7-2.84 1.07-.06 0 0zm42.03-.03c-.42-.83.53.48 0 0zm8.51-.2c-.18-.98.5.73 0 0zm.51.15c.06-.53.38.4 0 0zm-39.24-.37c.92-1.93 1.2-1.65 0 0zm6.38-.08c.58-.71-.06.56 0 0zm31.21-.15c-.06-.71.38.76 0 0zm5.59.03c-.59-1.55.16-2.4 0 0zm-42.48.02.16-.26zm37.16-.16c.07-.64.24.87 0 0zm4.69.14c-.34-.44.44.07 0 0zm-4-.48c-.19-1.45.38 1.12 0 0zm-55.11 0c-.67-1.08 1.87-2.1 0 0zm46.37-.32c-.57-2.14 1.07 1.33 0 0zm-27.32.16c-.12-.95.5 0 0 0zm-2.16-.33c.64-3.45.14 1.2 0 0zm4.15.14c.29-.23.2.38 0 0zm-2.18-.15c.17-.25 0 .45 0 0zm-16.43-.39c1.53-2.98 6.62-1.23 8.74-4.5-3.72 1.23 6.13-4.8.75-.47-2.06 2.19-4.92 5.9-6.36 3.48-.5-.27-3.84 2.47-3.13 1.5zm1.31-.85c-.05-.67-.6.67 0 0zm7.48-4.04-.24.16zm8.06 4.8c.4-1.96.61-.47 0 0zm-18.1 0 .51-.33zm6.68-.12c.7-1.16.47.01 0 0zm.62.12.3-.25zm11.06-.12c.48-1.63.75-.12 0 0zm4.3.06c.28-.23.19.38 0 0zM78.2 163c.15-1.24.3 1.04 0 0zm10.52.09c.85-3.79-4.28-6.53-2.95-7.78 2.96 2.69 3.86 3.77 2.95 7.78zm-.18-3.49v.4zm5.32 3.56c-2.16-1.25.14-1.39 0 0zm-6.71-.03c-.4-.47.46-.15 0 0zm-29.44-.16c.33-.52-.09.42 0 0zm-23.45-.32c.96-.66-.33.4 0 0zm8.5-.08.72-.6zm37.65-.07c.2-.4.24.34 0 0zm12.21-.14c-.46-1.53.4.8 0 0zm-.95.07c-.32-1.1.98.3 0 0zm-56.46-.07.4-.21zm52.97-.12c.18-.24 0 .46 0 0zm-51.57-.04c.22-.39.13.38 0 0zm-.9-.14.4-.21zm16.6-.09c.21-4.47 1.55-2.69 0 0zm28.58.04c.12-.56.2.35 0 0zm-2-.2c.23-.4.14.38 0 0zm-36.1-.04.6-.6zm48.64-.12c-.36-.9.38.42 0 0zm1.65.04c-1.12-.84.37-.46 0 0zm-56.67-.03.6-.3zm1.43-.3c1.85-.9-.8.95 0 0zm49.85 0c-.25-.82.63.64 0 0zm1.49.1c.17-.25 0 .44 0 0zm-7.33-.2c-.34-.7.8.13 0 0zm-44.53-.09c1.16-1.48.66.43 0 0zm7.27-.05c.12-.5.35.2 0 0zm33.6-.16c.25-.55.25.56 0 0zm-36.94-.05c-1.73-.54 3.64-.91 0 0zm10.42-.04c.16-.54.31.39 0 0zm33.2.12c-.47-1.07 1.19-.69 0 0zm-32-.34c.03-1.52.34.77 0 0zm-8.03.04c.34-.52-.08.42 0 0zm8.43.03c.16-.98.39-.09 0 0zm31.21-.06c-.25-.42.62.43 0 0zm3.3 0c.3-.39.15.54 0 0zm4.22-.07c-.66-.8.8.81 0 0zm-13.95-.18c-.15-1.13.74.93 0 0zm1.65.2c.22-.38.13.39 0 0zm1.1-.1c.3-.71.1 1.05 0 0zm-21.35-.1c.22-.38.13.39 0 0zm22.5-.02c.52-1.3.4.46 0 0zm-42.55-.24c1.8-1.44 1.99-.45 0 0zm51.27-.03c.32-.55.14.7 0 0zm-34.38-.05c-.14-.63.48.43 0 0zm22.3.07c.08-.47.64.24 0 0zm12.95-.14c-1.29-2.05.7.72 0 0zm-7.86.03c.35-.8.52.57 0 0zm-26.25-.15c-.04-1.4.7-.14 0 0zm27.23-.1c0-1.06.27.84 0 0zm.36.1c.02-1.04.7.42 0 0zm-2.3-.28c-.1-1.14.5 1.25 0 0zm7.91.16c-.34-.44.44.07 0 0zm-34.17-.2c.9-1.25.83.52 0 0zm-10.67.03.3-.26zm13.06-.05c.48-1.59.57-.17 0 0zm26.32-.15c-1.78-1.94.72-1.58.36 0zm-39.99-.38c1.4-1.13-1.2 1.18 0 0zm.98.03c1.44-2.12 1.67-1.34.1.08zm10.18.04c-.05-1.23.98.38 0 0zm21.46.05c.24-.4.24.4 0 0zm1.9-.06c.06-1.2.24.45 0 0zm2.69.06c-.38-1.2 1.53.73 0 0zm-39.14-.1c2.16-2.05.2.85 0 0zm8.67 0c.03-.5.32.36 0 0zm34.99-.05c-.11-.68.32.54 0 0zm-44.81-.1c1.16-.68-.5.53 0 0zm10.47-.1c.24-1.03.38.85 0 0zm3.29.02c.06-.68.4.36 0 0zm1.55.04c-3.22-4.77 5.39-3.67 0 0zm.52-1.05c-.17-.7-.16 2.38 0 0zm-12.04.98c.53-1.37 1.32-.13 0 0zm12.54 0 .18.01zm24.56-.04c.5-.23.3.36 0 0zm4.6-.14c.14-.46.03.63 0 0zm-44.5-.15c2.45-1.18-1.59.99 0 0zm47.65 0c-.7-1.72.83.6 0 0zm-31.74.1c.08-1.1.78.33 0 0zm25.24-.3c-.6-1.3.77.6 0 0zm-30.33-.06c-.13-1.27.63.48 0 0zm2.41-.09c.2-.54.2.54 0 0zm24.1.03c-.5-.9.5.37 0 0zm-36.38-.05 1.08-.56zm.92-.14c.95-.66-.8.78 0 0zm-4.26-.04c2.03-1.18 1.86-.16 0 0zm6.15.01c.2-.84.46.2 0 0zm9.03-.08c.32-1.52 1.12.29 0 0zm4.35.1c-2.38.27 1.47-2.08 0 0zm17.48-.14c.17-.24 0 .46 0 0zm11.23-.1c-.34-.44.44.07 0 0zm1.05-.1c-.58-.62.59-.23 0 0zm.37-.34c-.27-1.6.55 1.46 0 0zm-1.39 0c.29-.23.2.39 0 0zm-46.38-.03.24-.07zm34.74-.23c-.57-.95.99.14 0 0zm17.82-.13c-.2-.7.47.77 0 0zm-49.86 0 .63-.18zm35.5-.05c-.23-1.55 1.1.63 0 0zm-24.35-.13c0-1.77.92-.21 0 0zm28.32-.33c-.14-1.97.5 1.24 0 0zm4.02.2c-.34-1.24.5 1.02 0 0zm-34.21.04c-1.3-.37 1.32-.15 0 0zm1.39.03.3-.05zm26.63-.14c.05-.87.4.53 0 0zm1.68.06c-.74-1.67.9-.02 0 0zm5.19.05c-1.18-1.1.91 0 0 0zm-7.97-.23c.44-.66-.13.7 0 0zm13.27-.08c-.81-1.22.97 1 0 0zm-7.29.04c.15-.7.33.55 0 0zm.41-.08c-.15-.8.89.56 0 0zm-7.36 0c-.95-1.23.67.3 0 0zm11.65-.03c.18-.25 0 .45 0 0zm-12.6-.01c-.35-.44.43.07 0 0zm1.77-.13c.22-.4.13.38 0 0zm-33.16-.15c.22-.55.1.53 0 0zm32.7-.14c-2.13-.9 1.95-1.38-.64-2.14-2.37 2.26-.66-4.6-.02-1.54.05-4.8 1.98 3.18 1.68-.99 1.7 1.71.5 4.5-1.03 4.67zm-1.09-1.74c-.23-.56-.23.55 0 0zm2.57 1.64c.04-1.02.47.47 0 0zm.45-.11c.38-.66 0 1.05 0 0zm-23.81 0c.13-.38.22.4 0 0zm27.36-.18c-1.5-3.06-1.48-6.03-.06-1.17l.19.71zm-28.8-.02c.21-.39.13.39 0 0zm19.7-.14c0-.68.32.5 0 0zm-18.88-.12c-.3-.76.71.36 0 0zm25.41-.09c.18-.25 0 .45 0 0zm7.75-.41c-1.55-2.13-1.04-3.16 0 0zm-34.48.32c.04-1.1.4.27 0 0zm22.08.04c-1.3-.14.27-.57 0 0zm5.34-.1c.24-.39.24.4 0 0zm9.17-.07c-.29-.42.69.63 0 0zm-5.36-.12c.08-.45.08.45 0 0zm-32.06-.2c.38-.75-.07.7 0 0zm27.06.03c-1.32-1.17.76-.67 0 0zm3.6-.08c-.02-.86.36.85 0 0zm6.46-.02c-.28-.43.69.62 0 0zm-14.42-.18c-.11-.68.32.54 0 0zm1.47-.1c.18-.25 0 .45 0 0zm12.58-.15c-2.65-2.97.6.2 0 0zm-16 .03c-.36-1.02.96-.98 0 0zm1.38-.17c.01-.86.8.6 0 0zm-30.83-.34c2.36-2.38-.63.92 0 0zm38.03.32.18.02zm-8.96-.32c.16-.54.32.38 0 0zm15.5-.15c-.55-1.19.69.84 0 0zm-34.5-.36c.96-1.72-.67 1.74 0 0zm2.16.34c-.41-1.47.5-.02 0 0zm23.34-.04c.09-.45.09.46 0 0zm-54.36-.3c.1-2.55.29.8 0 0zm32.28.08c.35-1.38.46.75 0 0zm26.06-.12c-.1-.55.42.63 0 0zm-10.04-.1c-.13-1.12.48.42 0 0zm6.17.03c-.53-1.07 1 .16 0 0zm-24.46-.1c.19-.84.19.38 0 0zm19.36-.14c.17-.24 0 .45 0 0zm15.95-.59c-4.18-4.3 2.47 2.28 0 0zm-36.5.36c.41-1.01.81.01 0 0zm19.1-.17c-.25-.72.63 1.06 0 0zm-16.81-.2c.3-.36.05.52 0 0zm18.8-.06c-.35-1.2.54.42 0 0zm7.66.04.46-.22zm-3.77-.22c-.5-1.73 1.2 1.14 0 0zm7.18-.07c-.29-1.5 1.04.6 0 0zm2 0c-.7-.9.8.8 0 0zm-44.54.03.8-.4zm12.87 0 .3-.24zm33.9-.23c-.26-.45.58.7 0 0zm-33.1-.17c1.31-2.74 3.54-.87 1.35-1.04-.57.17-.81.83-1.35 1.04zm17.8-.2c.14-1.48.72.1 0 0zm6.93.1c-.3-.69.51.55 0 0zm1.07.09c-.66-1.3.4-.36 0 0zm-57.9-.34c.08-.62.08.63 0 0zm50.25.17c.45-1.13.6.03 0 0zm14.6-.1c-.67-.79.8.82 0 0zm-45.32.09.4-.21zm1.5-.1.4-.21zm-1-.1.24-.06zm33.18-.02c-.3-.86.9.46 0 0zm-20.92-.07.3-.26zm30.63-.31c-.69-.9.43-.09 0 0zm-40.4-.05c-.29-.43.8.46 0 0zm.6-.2.6-.4zm8.28.06c.06-.67.39.36 0 0zm33.52-.4c-2.24-1.7 2.37 1.52 0 0zm-65.22-.16c.26-1.68.13 1.5 0 0zm55.7.37c-.13-.9.4.44 0 0zm9.06.03c-1.24-.43.47-.33 0 0zm-42.76-.11c.54-.39-.16.32 0 0zm13.78.1c-.48-.86.65-.22 0 0zm1.02-.06c-.23-.93.81.22 0 0zm-3.3-.06c.23-2.06.64.22 0 0zm18.84-.14c-1.25-1.55 1.18.13 0 0zm-30.02.03.34-.2zm26.96-.35c.07-.8.07.8 0 0zm-18.08.22c.1-.62.54.05 0 0zm29.91-.2c-.9-.93 1.07.94 0 0zm-38.99.07.3-.05zm15.16.01c.12-.56.2.35 0 0zm-3.84-.11c-.08-.69.35.36 0 0zm2.65.05c.8-3.52 4.91-3.37 0 0zm-35.7-.2c.17-.25 0 .45 0 0zm60.88-.04c.13-.38.22.39 0 0zm-5.03-.16c.18-.24 0 .46 0 0zm-8.63-.11c-.08-.44.33.53 0 0zm7.73.01c.18-.24 0 .46 0 0zm.3 0c.18-.24 0 .46 0 0zm8.16-.21c-.22-.44.81.73 0 0zm-12.08 0 .19.02zm-28.36-.12c-.26-.54.8.26 0 0zm27.15-.26c-.18-.7.4.43 0 0zm12.44.1c-3.02-2.12 1.8.14 0 0zm-39.22-.13c.11-.75.51.2 0 0zm1.1-.07c.74-.56-.37.46 0 0zm38.37-.31c-.28-.43.7.62 0 0zm-30.23-.14c.94-.66-.81.78 0 0zm-32.57-.19c.08-.45.08.46 0 0zm50.61-.08c-4.21-3.67 1.5-.73 0 0zm-28.8-.07c1.55-.67-.75.55 0 0zm10.88-.29c-.43-2.06 1.81.62 0 0zm-32.98-.25c.07-.8.07.8 0 0zm60.9.25c-.08-.55.44.63 0 0zm-37.74-.05c1.4-.6-.17.42 0 0zm29.07-.05c-.25-.43.62.42 0 0zm-18.26-.2c.37-1.95 2.31.25 0 0zm31.35-.06c-1.08-.86 1.32.81 0 0zm-41.32 0 .97-.36zm14.77-.23.4-.21zm21.05-.2c-.05-.81.36.65 0 0zm-59.42-.3c.11-.63.03.8 0 0zm50.71.17c-2.16-1.13-.35-1.45.36-.07zm10.31-.03c-2.43-.86 2.37.58 0 0zm-36.42-.1c-4.07-.6 2.23-.17 0 0zm13.67-.13.3-.25zm-38-.18c-.06-1.13.48.33 0 0zm56.29-.1c-.66-.8.8.8 0 0zm-56.47-.33c.13-.45.03.64 0 0zm51.15.1c.18-.25 0 .45 0 0zm10.31-.4c-2.35-1.42 3.3 1.7 0 0zm-6.77-.11c-.09-.44.33.53 0 0zm-55.24-.2c-1.15-1.3.82-3.1 0 0zm18.8-.03c.08-.62.08.62 0 0zm43.7.18c1.69-.64.5.42 0 0zm15.9-.37c-.35-2.08.4.94 0 0zm-23.3 0c.09-.46.09.44 0 0zm-54.56-.07c.17-.24 0 .46 0 0zm56.64-.19c-.53-.54 1 .64 0 0zm-38.14-.54c-.05-2.06.59-.37 0 0zm4.15-.05c.13-.46.03.63 0 0zm37.48.05c.32-.57.28.26 0 0zm-.9-.3c-2.25-.3 2.69.18 0 0zm-36.68-.47c-.73-1.56 2.03-5.9.1-3.96.35-1.1-.36-5.39-.64-1.86.02-.82-1.13-.38-1.85-.33-.72 1.3.13-6.1-.15-8.44-.29-6.12.2.27-.63 2.47.5-5.15-.9.08-1.17-.99.82-6.64-3.74-2.9-3.6.44.79-3.09-.03-6.37-.83-1.82-.45-7.07-1.8 4.37-2.54-.4-1.46 4.64-2.02-3.54-1.33-4.52-1.28-4.38 1.36-9.71 2.05-3.32 1.99-.48 1.2 8.51 2.81 3.56-2.1-2.22 3.71-.1-.03-2.74-1.13-3.26 5.5 4.66 2.09-.65-2.03-2.62-1.5-7.47.26-2.19 1.9 4.98 1.63-2.55 2.07 2.5.38-.03-1.23-10.87.62-9.37-1.3 4.88.2 11.2.78 8.54-.68 4.1.71 2.01 1.23 6.17.87 4.28 2.71 8.48 2.89 12.92-2.38-.98-.94 3.86-2.13 4zm.18-.45c-.15-.59-.35 1.13 0 0zm1.45-4.71c-.32-.48-.25.58 0 0zM49.49 136c.78-2-.6.55 0 0zm3.88-.2c-.64-.23.62 1.17 0 0zm-3.24-.6c-.3-.8-.3.82 0 0zm-.19-.8c.02-3.21-1.52.3 0 0zm2.1-1.27c-.91-2.34.5 2.25 0 0zm-2.55-2.38c-.08-.86-.21.88 0 0zm1.34-1.54c-.44-1.95-.09 1.85 0 0zm-11.02-.54c-.37-.3-.03 1.22 0 0zm1.7-.28c.7-1.49-.72.46 0 0zm2.69-.07c-.24-.71-.24.72 0 0zm-3.05-.55c.79-3.98-.94 1.9 0 0zm-1.44.06c-.25-.77-.38.76 0 0zm.03-.72c.96-1.54-1.02.63 0 0zm7.84-.52c-1.17.73 0 .53 0 0zm-3.31.23-.02.17zm-1.57-.73c-.24-.57-.32.58 0 0zm4.59-.38c-1.33-.71-.47.48 0 0zm3-.6c-.2-.86-.13 1.64 0 0zm-2.67.37h-.25zm-7.01-.47c4.02-.27-2.46-.18 0 0zm8.82-.51c-.54-2.06.02 1.8 0 0zm-4.67.22c-.04-.7-.9.3 0 0zm-2.7-.06-.28-.07zm-1.31-2.02c-.78-.94-1.32.54 0 0zm5.84.03c-.13-.38-.22.4 0 0zm-5.06-.26c-.07-.6-.43.38 0 0zm7.06-.83c-.14-.38-.22.4 0 0zm-8.8-.15h-.19zm1.16-.3c.03-.87-.43.66 0 0zm-.96-.04-.21-.03zm5.76-1.29c-.77-1.26.56 1.53 0 0zm2.34-6.14c-.24-.72-.24.71 0 0zm.2-1.64c-.32-.39-.16.54 0 0zm32.51 31.37c1.02-.7-.01.4 0 0zm25.89-.03c-.27-1.66.45.33 0 0zm-77.9-.53c-.18-1.08.39.78 0 0zm-.63-.8c.2-4.6.29 2.24 0 0zm59.7.45c.54-.38-.16.32 0 0zm-40.57-.21c.03-1.44.56.58 0 0zm.47-.67c.09-2.8.16 1.19 0 0zm58.8.4c.08-.63.08.62 0 0zm-78.12.05c.13-.72.17.51 0 0zm.3-.11c.18-.25 0 .45 0 0zm-3.88-.1c.18-.24 0 .46 0 0zm81.28-.04c-.28-2.5.8-.68 0 0zm.6-.2c.1-.45.1.45 0 0zm-78.1-.04c.13-.73.17.5 0 0zm-3.67-.2c.13-.46.03.63 0 0zm3.99 0c.13-.46.03.63 0 0zm2.7-.35c.08-.8.08.8 0 0zm15.84.04c.17-.25 0 .45 0 0zm-22.43-.3c.13-.45.03.64 0 0zm21.78-.24c.48-2.4 1.01.69 0 0zm3.74-.05c.24-1.8.95.42 0 0zm.6.26c-.2-.9.4.74 0 0zm-2.3-.26c-.56-3.13.79-1 0 0zm-17.33-.34c.08-.8.08.8 0 0zm-6.4.04c.14-1.87.22.6 0 0zm81-.14c.08-.63.08.62 0 0zm-78.02-.3c0-5.39 1.07-1.65 0 0zm.6.25c.16-.54.31.39 0 0zm19.36-.06c.1-1.25.57-.41 0 0zm-16.65-.46c-.43-.63.28-.5 0 0zm19.4.02.43-.99zm55.36-.05c.3-.73.17.72 0 0zm-80.86-.09c-.38-.68.45-.26 0 0zm65.14-.52c-.36-1.37.25-.79 0 0zm-43.3.06c.19-.25 0 .45 0 0zm-18.5-.21c-.37-1.36.74.1 0 0zm77.56-.08c.14-.46.03.63 0 0zm-76.45-.1c-1.02-4.44.3-5.28 0 0zm17.99.06c.16-.54.31.38 0 0zm-25.92-.27c.17-.24 0 .46 0 0zm3.93-.16.14-.93zm.5-.03c-.35-2.02.48-1.47 0 0zm54.27.02c.6-3.19 1.88-11.28 2.37-10.92 2.42 3.64-2.33 1.14-.93 6.05-1.36 1.32-.1 4.08-1.44 4.87zm26.53-.34c-.75-2.86.43 1.1 0 0zm-59.7-.04c-.77-1.7.39-.74 0 0zm-8-.38c.1-4.8.36 2.52 0 0zm14.72.59c-.12-.5.32.39 0 0zm52.2-.36c.19-2.48.22 1.55 0 0zm-84.35.2c.17-.24 0 .46 0 0zm9.66.07c-1-.94.48-.35 0 0zm16.32-.05c.22-.55.1.53 0 0zm42.25-.25c-1.52-2.49.84-1.56 0 0zm-36.37-.2c-.35-1.22.57 1.11 0 0zm-31.75 0c-.08-1.57.35-.06 0 0zm25.71-.15c.3-.38.05.51 0 0zm-19.92-.64c-.37-3.94.73.38 0 0zm3.49.4c.08-.63.08.62 0 0zm-.3-.15c.13-.46.02.63 0 0zm17.2-.25c.74-3.02-.15 1.83 0 0zm36.68.4c.22-.4.14.38 0 0zm1.25.03c-.01-.65.42 0 0 0zm.55-.06c-.59-1.74.4.07 0 0zm-61.33-.1c.33-.52-.09.42 0 0zm-3.14-.43c.17-.24 0 .46 0 0zm17.04-.09c-.8-3.31.48-1.63 0 0zm46.38-.04c.22-.75.24.53 0 0zm20.85-.1c-.2-4.46.45-.72 0 0zm.4.13c.18-.24 0 .46 0 0zm-87.32-.32c1.55-2.56.13.47 0 0zm6.54.12c.17-.24 0 .46 0 0zm2.19.06c-.16-.9.62-.1 0 0zm2.88-.04c.21-.66.41.64 0 0zm-7.13-.1c.5-1.92.89-1.4 0 0zm62.4-.02c.17-.24 0 .46 0 0zm-39-.01c.35-1.15.45-.05 0 0zm35.58-.16c.11-.67.39.47 0 0zm-54.94-.05c.12-.51.36.2 0 0zm2.63-.19c-.8-1.78.34-1.99 0 0zm8.9.13c.1-2.63.53-.64 0 0zm-8.47-.1c-.31-.74.39.4 0 0zm75.75-.05c.08-.46.08.45 0 0zm-21.11 0c-.9-.31 1.12-.78 0 0zm3.62-.09c-.42-.94.77.68 0 0zm-63.41-.24c.16-.6.2 1.01 0 0zm-3.38-.12c-.1-1.19.3.08 0 0zm60.07.01.02-.92zm24.1-.02c.18-.24 0 .46 0 0zm-77.97-.44c.07-.97.07.98 0 0zm61.12-.06c-.2-3.45.2 1.86 0 0zm13.44-.48c.08-4.2.27 2.53 0 0zm-76.77.64c.09-.45.09.46 0 0zm13.86-.2c-.9-2.42.84-.7 0 0zm-13.1-.44c-.11-2.07-.4-1.36-.04-4.87.6-3.29-1.16 3.5-.27-1.5.53 1.3-4.13 6.88-1.15 1.77.6-2.55-2.05 4.68-.36-.2-.78.25-3.3 4.84-.84.16 1.57-1.98 3-5.24.4-1.61 2.08-2.87 1.06-5.48-.37-.83-2.7 4.57-.62 2.86-1.29.5.16-1.97 3.1-2.81 1.43-3.03.74-2.34.09-.05.77-3.26-2.6.56-.01-.97-3.55-.25-2.56.9-5.97-.4-1.53-.36 1.46-1.07 4.32.46 4.74-.63-2.87.24 2.8-1.8-1.6-.26 1.48-1.8-8.37-.35-1.9-1.09 2.66-.98 1.4-1.09 5.01-.85-1.8 2.95 2.6 11.36.37 3.73-1.2-2.83 1.82-6.5.6-1.24-.17 3.88 1.62-7.22 1.07-.86-.67 3.05 2.67 9.93.79 3.2-1.61-4 3.6-9.7 1.37-4.24.55-.23-2.7 2.53.11 2.27-2.5 2.57 4.62-1.72 2.19 2.79-.44 5.87 1.04-5.74 1.3 1.01-.85 1.73 3.22 3.54 1.32 4.77-.84-5.24-1.32 2.6-1.76-2.58-5.22-3.27-.8 10.17-3.22 2.75-1.13 2.44-1.04.43-1.15 4.16.42-3.56-2.66-6.78-1.73-1.19-.43.61-.96 3.7-.72 1.74zm.42-1.65c-.36-1.22-.09 1.63 0 0zm-.05-2.72c.47-2.5-.67 2.37 0 0zm.49-.16c.74-2.72-.74-.58 0 0zm-1.86-.2-.02.18zm4.03-.14c-.4-.32.28.93 0 0zm-.61-.44c-.36-.52-.06.9 0 0zm-.84-.56c-.44-.04.2.49 0 0zm6.89-.35v.24zm-7.28-.1v.24zm1.23-.12c-.2-.38-.29.23 0 0zm-.4-.47c-.57-3.13-.62 1.3 0 0zm2.15.14c.82-.76-1 .1 0 0zm-.66-.46c-.62-.62.02.56 0 0zm-2.2-.5c-.94-4.41-.23 1.86 0 0zm2.5.17c-.33-1.54-.98-.37 0 0zm-3.34-.8c-.8-1.5.48 1.49 0 0zm1.55.23c-.58-.43.3.5 0 0zm3.48.04c1.66-.62-2.09.44 0 0zm-3.68-.53c-.72-.67.23.52 0 0zm-.46-.67c.28-4.27-1.72-3.3 0 .3zm-2.13-.7c-.52-.7-.09 1.53 0 0zm4.48-.2c2.43-1.04-.45-.7 0 0zm-4.18-.28c-.36-.46.38.93 0 0zm3.99-.93c2.07-.42.09-1.37-.39-.22zm.8.15c.92-1.3-1.33.46 0 0zm-1.12-.19c-.36-.39-.25.6 0 0zm-10.76-1.79c-.24-.4-.24.4 0 0zm5.69-.1c-.42-.23-.31.5 0 0zm-.97-1.7c3.51-.95-.41-1.24 0 0zm-5.26-.48c-.14-.38-.23.4 0 0zm9.32-2.18c-.13-.38-.22.4 0 0zm-.28 18.26c-1.66.93 1.63-3.38 0 0zm-3.6-.08c1.8-1.7.1-.69 0 0zm-3.3.04.34-1.27zm15.17-.14c.17-.25 0 .45 0 0zm-15.87.02.3-.26zm6-.22c.17-.25 0 .45 0 0zm27.67 0c-.08-.9.38.56 0 0zm-31.37-.2c.18-.24 0 .46 0 0zm1.65.03c.33-.52-.09.43 0 0zm6.34-.07c.09-.45.09.45 0 0zm5.54-.5.09-1.16zm16.08.08c.15-.77.04.84 0 0zm54.97-.37c.25-2.05-.03 2.11 0 0zm-78.66.45c-.8-2.59.8-1.71 0 0zm.27-.01c.17-.25 0 .45 0 0zm.4 0c.17-.25 0 .45 0 0zm59.93 0c.31-.39.16.54 0 0zm-63.6-.18c-.23-.78.63.4 0 0zm4.96-.02c.18-.25 0 .45 0 0zm7.99-.01c-.98-.1.13-1.69 0 0zm9.51.04c-.08-.95.47-.55 0 0zm58-.03c.18-.25 0 .45 0 0zm-80.88-.2c.17-.25 0 .45 0 0zm14.16 0c.18-.25 0 .45 0 0zm42.79-.07c-.33-1.03.51.6 0 0zm6.13.13c.02-.5.31.35 0 0zm2.43-.13c-2.9-.92 1.1-1.6 0 0zm-68.56-.02c-.7-1.44 2.33-2.4 0 0zm84.34-.29c-.6-3.2.78 1.51 0 0zm-53.64.16c-1.5-1.89.8-.14 0 0zM31 132.91c.2-1.13.13.78 0 0zm53.8.2c0-.64.43 0 0 0zm-59.13-.14c.32-2.78.87-.56 0 0zm4.72-.03.02-1.1zm9.34-.02c.18-.24 0 .46 0 0zm66.71-.09c.22-.88.08.87 0 0zm-82.18 0c.22-.54.1.54 0 0zm2.51-.37c.09-1.94.42.99 0 0zm26.88.36c-.4-.67.81-.12 0 0zm-30.28-.2c.18-.24 0 .46 0 0zm16.32-.01c-.2-.85.44.1 0 0zm43.32-.03c.24-.4.24.4 0 0zm2.6-.1c.22-1.51.32.46 0 0zm-36.93-.29c0-1.86.22 1.3 0 0zm32.45-.18c-.46-3.45.82 1.37 0 0zm7.07.34c.03-.96.67.73 0 0zm18.35-.02c.18-.25 0 .45 0 0zm-81.07-.14c.08-.46.08.45 0 0zm5.17-.06c.18-.25 0 .45 0 0zm.3 0c.18-.25 0 .45 0 0zm52.16.06.12.45zm24.55-.18c-1.33-2.59.3-.84 0 0zm-85.7-.22c1.2-1.49-.8 1.38 0 0zm16.43.17c-2.11-2.18-.46-4.85 0 0zm-.81-2.04c-.32-.47-.25.59 0 0zm66.59 1.84-.04-.16zm2.4.18c-.1-1.19.28.08 0 0zm5.47-.05c.1-.45.1.45 0 0zm-72-.1c.08-.45.08.45 0 0zm-3.7-.06c.17-.24 0 .46 0 0zm49.26.1c.53-2.67 1.2-.65 0 0zm21.42-.08c-.94-1.86.91.3 0 0zm-78.16-.14c-.85-.83 1.16-.87 0 0zm61.63-.02c-.11-1.02.83.5 0 0zm-59.61-.54c.1-.98.04 1.16 0 0zm6.2.46c0-.51.46.05 0 0zm74.86-.07c.17-.25 0 .45 0 0zm-89.17-.14c.48-.77-.23.69 0 0zm3.8.04c.17-.25 0 .45 0 0zm1.69.1.36-.97zm11.87-.1c.17-.25 0 .45 0 0zm13.26-.04c.24-.4.24.4 0 0zm43.3-.1c.08-.46.08.45 0 0zm-57.47-.11c-.3-.84.48.74 0 0zm50.7-.12c-1.1-1.25.85.74 0 0zm21.86-.14c-.45-2.14.39 1.28 0 0zm-85.42.16c-.6-.4.6.15 0 0zm.31 0c-.05-1.48.43-.2 0 0zm80-.05c-.1-.67.33.54 0 0zm-66.55-.09.16-.26zm49.07-.27c.19-.84.22 1.15 0 0zm7.37.15c-1.5-3.65.4-5.5 0 0zm-16.25-.07c.15-.7.33.55 0 0zm-61.23-.4c1.33-1.51-.93 1.47 0 0zm8 .24c.08-.45.08.46 0 0zm9.16.04c.17-.24 0 .46 0 0zm2.76.03c-.74-2.35.54-.03 0 0zm65.25 0c.3-.54.13.51 0 0zm-65.72-.12c.18-.25 0 .45 0 0zm44.02.01c-.12-.83.63.3 0 0zm25-.01c.17-.25 0 .45 0 0zm-.73-.12c-.41-1.34.63-.25 0 0zm-75.96-.17c.14-.46.03.63 0 0zm53.24.12c.13-.83.32.26 0 0zm2.2-.12c.31-.59.35.5 0 0zm17.96-.14.2.06zm-65.77.12c-.63-1.21.67-.14 0 0zm14.6-.02c-.5-.9.6.22 0 0zm53.52-.18c-.48-.82.42-.2 0 0zm-82.34-.3c.48-1.07-.17.84 0 0zm-2.5-.08c1.07-2.46.15.8 0 0zm64.84.15c-.1-.72.43-.17 0 0zm-66.43-.08c-1.19-.13 1.19-1.18 0 0zm83.7-.04c.31-.58.33.49 0 0zm5.12-.03c-.35-.91.38.41 0 0zm2.33-.05c-.32-.33.67.22 0 0zm-4.79-.76c-.51-2.99.8 1.49 0 0zm.82.37c.08-.46.08.45 0 0zm-18.47-.6c-.13-3.15.82 2.35 0 0zm.3-.34c-.2-.38-.29.23 0 0zm-68.68.71c-1.08-1.62-5.12-2.89-.42-3.2 2.53-.77 0 1.18 2.84-1.12 5.35.68-8.23 4.65-.98 2.9-2.47 1.66 3.1-1.22-.86 1.12-.2-.04-.35.57-.58.3zm-.29-1.56c-.27-.43-.44.45 0 0zm-1.54-.54c-.4-.45-.23.27 0 0zm5.99 2.23c.02-.8.56-.05 0 0zm14.1-.1c.12-.92.23.71 0 0zm65.7-.1c.08-.63.08.62 0 0zm6.76.05c.07-.87.21.88 0 0zm2.85-.61c-1.62-2.72 1.8 2.53 0 0zm-28.28.46c.47-.76-.21.7 0 0zm-63.48 0c1.12-1.72.76-.1 0 0zm86.28-.32c-.34-1.77.62 1.39 0 0zm-3.05.13c-.26-1.27.37.51 0 0zm6.23-.18c-.74-1.65.74 1.18 0 0zm-26.27-.49c-.04-4.63 1.74.02 0 0zm-63.04.5c-.1-.55.98-.39 0 0zm2.85-.17c.33-.51-.09.43 0 0zm81.9-.1c-.51-1.12.46.01 0 0zm-3.27-.07.04-.72zm3.65-.06c-.52-2-.22-5.68.06-1.27zm-69.57-.1c.24-.51.3.52 0 0zm41.8-.16c.54-.89-.18.78 0 0zm14.25-.22c-.83-4.32.6-1.9 0 0zm11.5.31c-.48-1.86.75-.35 0 0zm-68.13-.3c.13-.46.03.62 0 0zm42.2-.3c.09-2.7.41.54 0 0zm7.15.2c.16-.54.31.38 0 0zm17.76-.02c.17-.24 0 .46 0 0zm6.29-.14c.08-.45.08.46 0 0zm.35.14c-.39-.47.47-.15 0 0zm-74.26-.3c-1.28-2.9-.23-5.93.32-1.21-.01-.02-.16 1.63-.32 1.21zm45.17.17c.16-.54.31.39 0 0zm2.94-.18c.3-1.14.18.9 0 0zm20.9.11c.18-.24 0 .46 0 0zm5.45-.13c.04-.45.22.45 0 0zm-74.17 0c.24-.4.24.39 0 0zm67-.2c.2-1.06.07 1.03 0 0zm3.87.2c-.91-1.25.34-.3 0 0zm4.89-.06c-.31-.73.4.41 0 0zm-76.5-.04c.01-.52.43.25 0 0zm45.82-.2c.32-.56.14.7 0 0zm28.43.04c.18-.25 0 .45 0 0zm-73.04-.08c-1.28-1.42 1.04.05 0 0zm.13-.26c-.14-.38-.22.39 0 0zm-1.99.14c.18-.25 0 .45 0 0zm43.7-.1c.13-.45.02.64 0 0zm16.75-.04c.08-.62.08.62 0 0zm7.7.05c-.07-1.58 1.02-.98 0 0zm5.95.15c-.9-2.46-.5-4.8 0 0zm-5.37-.3c.08-.62.08.62 0 0zm-19.52.1c.35-.42.26.41 0 0zm20.53-.09c-.17-1.28.45.64 0 0zm5.06.03c.18-.24 0 .46 0 0zm.48-.01c-.28-.43.7.62 0 0zm1.2-.3c-1.56-1.95 1.3.97 0 0zm-4.17.11c.17-.24 0 .46 0 0zm2.2 0c.17-.24-.01.46 0 0zm-84.78-.14c.58-.9-.23.6 0 0zm87.17-.03c-.3-.57.58.7 0 0zM51.48 126c.3-.37.05.51 0 0zm52.38-.05c.08-.45.08.46 0 0zm-24.35-.15c.32-.71.14.88 0 0zm-60.84-.04c4.9-.65-6.21-2.94.3-2.51-4.91 1.73 10.75-3.52 4.14.53 4.08-3.52-3.67 3.25-4.44 1.98zm.4-2.06c-.72-.19-.84.73 0 0zm.97.23c3.2-.66-2.53.34 0 0zm-.28-.35c1.12-.74-1.7.57 0 0zm3.3-.9c-.22-.43-1.03.63 0 0zm-3.6 3.13c.59-.71-.05.56 0 0zm16.36-.17c.12-.93.2 1.14 0 0zm44.1.07c.14-.46.03.63 0 0zm24.76.1c-.22-.91.34.48 0 0zm-69.78-.13c-.79-1.72 1.33.2 0 0zm2.76.02c.15-1.04.47.87 0 0zm46.48.05c-.12-.5.32.39 0 0zm23-.1c.1-.45.1.46 0 0zm-89.7-.2c.51-.8-.12.73 0 0zm34.45-.05c.17-.24 0 .46 0 0zm58.1-.1c-.31-.72.39.42 0 0zm-59.4-.1c.18-.24 0 .46 0 0zm35.94-.06c-.15-1.66.61.57 0 0zm17.75.07c-.22-.9.34.48 0 0zm7.84-.05c-.21-.7.47.77 0 0zm2.32-.47c-2.94-2.1 1.15.47 0 0zm-78.7.37c.08-.45.08.46 0 0zm71.95-.12c-.25-1.06.72-.23 0 0zm-69.28.02c.25-.4.25.4 0 0zm4.7-.11c-.71-1.02.56-.03 0 0zm36.8-.02c.29-.72.42.57 0 0zm2.49-.03c.07-.74.55-.08 0 0zm3.14-.2c.15-1.24.64.28 0 0zm26.24-.1c-.09-.44.33.53 0 0zm-84.12-.13c.09-.45.09.45 0 0zm9.37-.1c.09-.45.09.45 0 0zm1.65.13c-.44-.6.45 0 0 0zm4.69 0c-.1-.7.74.12 0 0zm-.35-.43c.08-.45.08.46 0 0zm37.15.06c.1-2.32.93-.85 0 0zm-43.14-.26c.09-.45.09.46 0 0zm71.36.05c.17-.64.4.44 0 0zm-84.53-.09c.37-.32.1.35 0 0zm14.06-.11c.31-.39.16.54 0 0zm46.17.06c.31-.5.42.22 0 0zm28.08-.1c.13-.39.22.39 0 0zm-61.42-.15c-.35-.7.8.13 0 0zm56.55 0c.1-.54.21.55 0 0zm-69.24-.37c.16-1.21.67.98 0 0zm42.64.22c.24-.4.24.4 0 0zm30.35-.02c-.8-.83.56.2 0 0zm.86.02c-1.3-.95.62-.15 0 0zm.5-.57c-1.96-1.99 2.03 1.9 0 0zm-92.8.39c-.1-.93 1.2.2 0 0zm15.14-.09c-.66-2.74 1.25.78 0 0zm72.68.08c.16-.54.32.38 0 0zm8.66-.34c-2.13-1.61 2.37 1.5 0 0zm-30.63.13c.1-.75.36.76 0 0zm-40.66-.05c-.09-.54.43.64 0 0zm-7.43-.08c.34-.51-.08.43 0 0zm13.61-.02c.14-1.17.67.57 0 0zm-1.34-.07c.34-.52-.08.42 0 0zm57.1-.07c.1-.46.1.45 0 0zm.8.04c.17-.25 0 .45 0 0zm-90.75-.3c.14-.45.03.64 0 0zm4.01.12c3.14-2.16-.6 1.54 0 0zm17.02.03c.37-3.7 1.22.52 0 0zm6.18 0c.29-.23.2.38 0 0zm42.69-.1c.57-.97-.2.74 0 0zm24.6.06c.1-.57.3.59 0 0zm-93.95-.14c.87-.67 3.28-.3.98-.02zm61.65-.01c-.93-3.68.58-4.82.1-.3zm-29.2-.16c.18-.24 0 .46 0 0zm60.28-.04c-.52-.8.71.72 0 0zm-24.54.01c-.86-.72.6-.22 0 0zm28.64-.37c-.3-1.07 1.27 1.52 0 0zm-71.41.1c-.01-.96.56.92 0 0zm-23.1.02.24-.06zm92.51-.5c-.92-.84 1.08.58 0 0zm-90.21.1.24-.06zm84.98-.21c.18-.25 0 .45 0 0zm4.33-.35c-1.1-1.38 1.85 1.98 0 0zm1.6.1c-3.18-.69-7.7-6.9-1.92-3.29 4.88 1.84-4.5-2.96.87-1.11 2.39-.83 6.23.24 4.66-1.07 4.5 1.11-8.23 1.15-2.18 1.67 2.49.04 5.28-.87 1.81 1.89-1.77 2.1-7.44-1.22-2.62 2.19zm.1-1.77c.52-.42-1.37.48 0 0zm1.4-.2-1.18-.63zm-3.1-.46c-2.73-1.54-1.7-.18 0 0zm3.19-.25c4.02-.4-3.58-.24 0 0zm-1.2-1.08c-.66-.44-.55.43 0 0zm-81.68 3.5c-1.13-3.26 2.8 1.18 1.56-1.72-3.77-.41 4.51-2.75.48.72-.32.27-2.15 1.93-2.04 1zm.95.37c.74-1.31.72.33 0 0zm2.71-.1c.43-.66-.19.66 0 0zm2.58.12c.59-2.7.91-.44 0 0zm4.84-.1c-.2-.5.44.05 0 0zm39.94-.12c.22-.39.13.38 0 0zm-65.6-.15c-.42-2.3 1.15.9 0 0zm17.13.05c.28-.23.2.38 0 0zm3.4-.02c.15-.93.28.38 0 0zm-2.49-.57c.06-3.34.47 1.08 0 0zm14.64.4c.15-.7.33.55 0 0zm33.3-.01c-1.67-1.83 1.63-2.4 0 0zm29.74 0c-.12-.44.72.6 0 0zm-30.52-.25c-.25-.42.62.43 0 0zm-39.03-.08c-.04-.9.51.4 0 0zm8.24-.05c-.35-2.28.91-.12 0 0zm60.9-.08c-.13-.46.92.76 0 0zm-71.34-.3c-.47-2.59 1.06.96 0 0zm1.4.19c-2.75-1.1 1.04 0 0 0zm2.64-.05c-.3-.57.58.7 0 0zm-1.19-.18c-5.4-1.26 2.1-10.63.14-3.6a6.2 6.2 0 0 0-.14 3.6zm-1.02-1.72c-.36-.84-1.14.29 0 0zm.02-.47c-.57-.29.27.55 0 0zm.19-.81c-1.05-3.63.43 3.52 0 0zm-.4-.71c.18-.25 0 .45 0 0zm.1.9c-.5-2.05-.42 1.58 0 0zm.53-.65c.8-1.85-.98-.74 0 0zm.26-.04c-.2-.38-.29.23 0 0zm-23.54 3.41c.88-.47.72.39 0 0zm28.76-.7c.07-1.5.07 1.5 0 0zm-27.86.6c.24-.4.24.4 0 0zm21.84 0c.22-.39.14.38 0 0zm-23.86-.06h.25zm28.55-.04c.24-.4.24.4 0 0zm-2.95-.34c-.55-1.18.69.84 0 0zm-15.3.1.3-.25zm-6.68-.1.24-.06zm15.95-.4c.54-1.22.44.4 0 0zm-1.59-.08c-.17-1.23 2.06-1.65 0 0zm55.4 0c.34-.52-.08.43 0 0zm-51.45-.12c.38-.4.06.54 0 0zm3.3-.13c-.74-1.34.72.6 0 0zm3.74-.07c.13-.45.03.64 0 0zm1.94.05c-.22-.98 1.49-1.83 0 0zm-29 .04.18.01zm.44 0h.3zm-3.07-.14c.63-.45.47.45 0 0zm20.3 0c.22-.38.13.39 0 0zm2.7-.05c.17-.25 0 .45 0 0zm6.3-.2c-.87-2.82.57.7 0 0zm30.95-.35c-.17-1.87.79.4 0 0zm15.8.55c.18-.25 0 .45 0 0zm14.52-.03c-.55-.93.68.69 0 0zm-86.55.02.18.01zm71.73-.02c.12-.5.35.2 0 0zm-72.48-.08h.3zm71.98-.14.4-.05zm-67.47-.14c-.52-.57 1.15.68 0 0zm9.82.05c.16-.53.32.4 0 0zm13.47-.06c.18-.24 0 .45 0 0zm38.64.05c-.12-.5.32.39 0 0zm6.34.02.36-.16zm-52.61-.2c-1.02-1.5.82-.2 0 0zm-16.4.02c.13-.57.63.3 0 0zm58.24-.02c.1-.57.2.35 0 0zm-61.66-.08.18.02zm73.2-.29c1.81-1.36-1 1.25 0 0zm.4.3h.19zm-72.63-.14c.22-.39.13.38 0 0zm66.01-.55c.11-1.84.15 1.7 0 0zm-67.83.48h.5zm86.39-.07c-.3-.57.72.65 0 0zm-58-.37c.6-5.62 1.37-.14 0 0zm1.61.26c.18-.25 0 .45 0 0zm34.94.08c-1.44-1.86.74.03 0 0zm19.52-.13c.09-.45.09.46 0 0zm-83.42-.1c-.46-.94.93.65 0 0zm12.81-.04c1.72-1.74 2.6-1.6 0 0zm3.08.02c-.02-1.15.48.35 0 0zm1.8.03c1.58-4.96 4.4-3.15 0 0zm2.19 0c.24-.4.24.4 0 0zm43.09-.06c.18-.25 0 .45 0 0zm-47.88 0c1.77-2.45 2.43-1.03 0 0zm59.64-.08c-1.32-.58.94-.82 0 0zm-45.68-.1c.07-.67.4.36 0 0zm66.57.04c.23-.4.14.38 0 0zm-90.5-.12c-1.2-.62.13-.54 0 0zm54.6.02c.22-.4.13.38 0 0zm1.35-.1c.22-.39.13.38 0 0zm-53.24-.16c.83-.63-.25.44 0 0zm20.52.07c.17-.82.4.2 0 0zm-23.18-.16c-.31-.55.72.64 0 0zm70.17 0c.25-.58.3.5 0 0zm-10.34-.05c-.12-.51.32.38 0 0zm-56.62-.11c.54-.39-.16.32 0 0zm53.18.02c.17-.54.32.39 0 0zm-49.32-.2.45-.06zm64.98 0c.24-.4.24.39 0 0zm.4-.05c.32-.6.35.49 0 0zm13.44-.02h.25zm-80.5-.13c.16-.64.47.63 0 0zm18 0c.15-.54.3.39 0 0zm28.74.03c-1.03-.77.57-.02 0 0zm1.82-.3c.45-1.44.03 1.24 0 0zm34.16.25c-3.54 0-2-.4 0 0zm-33.25-.12c.26-.61.23.48 0 0zm-36.36-.17c-1.57-1.95 2.2-5.83.12-1.8-.58.21.46 1.48-.12 1.8zm-8.63.01c.47-.62.24.44 0 0zm9.82-.06c-.06-2.48 1.07-.23 0 0zm35.96-.04c.22-.39.13.38 0 0zm-51.89-.22c-1.2-.53 1.11.25 0 0zm18.47-.18c-.12-.5.32.39 0 0zm34.2-.02c.12-1.44.75.57 0 0zm4.67-.08c.08-.45.08.46 0 0zm27.11 0 .3.06zm1.75 0c.3-.44.15.42 0 0zm-78.67-.1c.54-.4-.16.31 0 0zm.92 0c.84-.68-.09.43 0 0zm78.6-.04c-1.97.65-1.22-.66.12-.26zm-5.22-.22h.25zm-72.78-.07.3-.25zm51.07-.05c.1-.57.2.35 0 0zm20.12.02.18.02zm-1.54-.1c-5.28-2.76 7.46-.75.55-.34.15.6-.3.33-.55.34zm-.03-.92c-1.95-.78.02.5 0 0zm1.93-.44c-.9-.72.29.55 0 0zm1.2 1.33c.23-.39.14.38 0 0zm3.2 0c-.3-.42.82.41 0 0zm-66.88-.15c.44-2.93 1.29-.86 0 0zm31.33 0c.18-.25 0 .45 0 0zm2.64.05c.36-.42.36.43 0 0zm-3.74-.14c-.14-.52.45.53 0 0zm18.17 0c-1.51-.85 1.29.1 0 0zm-46.83-.02c-.36-.93.56.23 0 0zm37.36-.17c-1.32-2.26 1.04-.11 0 0zm-47.8.06c-3.04-.28 1.8-.38 0 0zm77.5-.03c.28-.23.19.38 0 0zm-67.6-.21c.27-.97.3.8 0 0zm36.88.06c.18-.25 0 .45 0 0zm28.97.07c-4.74-.49 4.4-.92 0 0zm-69.56-.26c.25-2.04.25.8 0 0zm50.38.16c-.11-.58.71.58 0 0zm-15.63-.12c-.09-.57.48.28 0 0zm10.53-.05c.18-.25 0 .45 0 0zm21.54.06c1.94-.78-.03.5 0 0zm-35.11-.1c-.16-.32.44.21 0 0zm2.29.07c-.4-.72.39-.22 0 0zm2.48-.04.18.02zm-32.03-.18c.3-.6.1.56 0 0zm31.2.05c-5.05 1.03 1.98-5.25.36-1.24l-.36.86zm9.2.03.19.02zm8.7-.03c.5-.45.36.43 0 0zm-59.11-.15c-.03-.6.54.07 0 0zm50.02.08.18.02zm10.59-.07c.16-.54.31.38 0 0zm-54.66-.1c.22-.56.1.53 0 0zm4.66.01c.1-.75.53 0 0 0zm39 .06.19.02zm10.7-.09c.18-.24 0 .46 0 0zm-16.96-.01c-.02-.8.46.27 0 0zm-40.99-.18c1.52-.73-.56.54 0 0zm54.96.05c.22-.39.13.38 0 0zm-52.85-.27c.57-.68-.3.56 0 0zm66.86-.15c.55-1.16 1.69 1.64 0 0zm-65.28.17c1.23-2.89.98-.34 0 0zm39.73-.41c.18-1.14.1 1.45 0 0zm8.3.37c.13-.39.22.38 0 0zm22.43-.04c-.89-1.15.52-.05 0 0zm-3.35-.03.18.01zm-25.52-.22c.12-.5.36.2 0 0zm10.7-.02c.48-.52.92.6 0 0zm9.51-.02c1.24-1.51 2.21-.6 0 0zm-33.77-.07c-.33-.5.57.4 0 0zm3.96-.06c-1.9-.47.51-.5 0 0zm34.6 0c-1.85.4 1.1-1.39 0 0zm3.14-.1c-.5-1.25.9.31 0 0zm-32.66-.09c.22-.55.1.54 0 0zm13.85.05c.13-.38.22.39 0 0zm12.31-.15c.24-.92.6.64 0 0zm5.87.08.18.02zm-29.15-.12c.03-.51.32.35 0 0zm10.06-.16c-.34-1.68-1.47.4-1.9-1.67-3.39-.04 3.9-2.69 2.17.67 1.7-4.04 2.17.46 3.5-.35 1.36 2.1-3.44-2.12-3.77 1.35zm.36-.25c-.33-.55-.15.7 0 0zm-1.1-1.1c.98-1.4-.96.84 0 0zm-2.05-.1c-.44-.24-.02.53 0 0zm2.85-1.02-.36-.19zM93.82 112c-.96-.37 1.07.08 0 0zm5.58-.03c.42-.8.9.42 0 0zm-21.58-.18c-.88-.83 1.26.73 0 0zm17.04.14c.64-.47.28.27 0 0zm19.23-.02h.24zm1.72-.07.34-.06zm-32.36-.26c-.17-.53.5.08 0 0zm2.64 0c-.26-.64.7.52 0 0zm1.76.03c-1.48-2.17.46-1.85 0 0zm-38.4-.18c.18-.55.37.4 0 0zm41.75.08h.3zM49 111.28c.22-.39.13.38 0 0zm6.5-.09c.79-.88.11.86 0 0zm24.61.09c.35-.42.26.41 0 0zm1.2.06.24-.07zm7.55-.1c-.01-.69.3.5 0 0zm-5.25-.22c.18-.24 0 .46 0 0zm2.39.01c.12-.6.57.65 0 0zm.6.1.16-.26zm1.86-.15c0-2.02.37.92 0 0zm-3.04-.07c-.6-.9.85-.28 0 0zm-6.54-.27c-1.36-.81 1.46-.15 0 0zm1.58.05c.24-.4.24.4 0 0zm3.22.03c-.01-.81.37-.06 0 0zm2.33-.1c-.36-.62.55.42 0 0zm.34-.03c.22-.4.13.38 0 0zm-8.77-.16c.03-.8.8.4 0 0zm-.8-.17c.03-.94 1.03 1 0 0zm4.42.05c-.28-.42.7.63 0 0zm21.85-.03c-.68-.27.73.13 0 0zm-21.87-.37c-2.28-2.63 1.13-1.3 0 0zm4.4.1c-.47-.92.67.5 0 0zm-7.66-.03c-3.23-1.1 3.67-.93 0 0zm-.14-.66c-.44-.04.21.5 0 0zm-25.34.57.25.06zm44.98 0c.2-.72.45.23 0 0zm-9.24-.07c-1.92-4 .8-1.66 0 0zm-3.04-.25c-.73-1.8.85.1 0 0zm-37.14-.13c1.04-.69 1.62 0 0 0zm34.46-.04c.13-.38.22.39 0 0zm.35-.1c.14-.7.32.55 0 0zm5.75.13c-.44-.61.44 0 0 0zm-6.6-.14c-.13-.51.47.3 0 0zm14.11 0c.22-.38.14.39 0 0zm-4.99-.47c-2.92-.62 1.84-1.63 0 0zm-.2-.36c-.54-.87-.22.7 0 0zm7.34.3c.62-1.02-.23.68 0 0zm-16.92-.03c-.28-.43.7.62 0 0zm3.28-.04c.22-.44.03.46 0 0zm-36.3-.15.18.01zm36.33-.3c-1.85-1.5 1.2.82 0 0zm-34.62.18.6.29zm-3.66-.09h.5zm52.23-.12c.48-.76-.22.69 0 0zm-12.3-.2c.02-.5.3.35 0 0zm-37.76-.2c-.34-.63 1.24.72 0 0zm6.22.08c-1.21-1.47.4.04 0 0zm23.26.03c.5-.69 1.53.84 0 0zm7.88-.18c-.13-.69.6.44 0 0zm-1.6-.32c-1.6-2.02 1.85.06 0 0zm-2.4-.1c-.45-.28.7.14 0 0zm-20.55-.23c-.15-1.62.4.6 0 0zm-7.2-.15c-1.27-1.85.75.75 0 0zm31.64.08c.38-.26.2.38 0 0zm1.05-.05c.58-.7-.06.56 0 0zm-35.25-.3c-.52-.66.74.57 0 0zm35.72.04c.54-.39-.16.32 0 0zm.42-.09c-.15-.32.44.22 0 0zm-4.53-.1.25.06zm-4.24-.1c1.7-1.95 5.04-1.94 1.18-.4.91.5-1.05.06-1.18.4zm1.17-.75c-.67-.02-.24.87 0 0zm1.43-.81c-1.2-.17.1.6 0 0zm2.28 1.56c1.21-1.33 1.27.01 0 0zm-18.66-.16.18.01zm41.2-.2c-.27-.46.58.7 0 0zM65 105.6c-.14-4.93 3.13 1.75-.13.32zm13.76.42c.3-.45.16.42 0 0zm-17.7-.1c-.34-.5.56.4 0 0zm-7.72-.35c-.31-.73.39.41 0 0zm4.27-.35c-.12-.5.32.39 0 0zm-2.94-.4c-1.22-.9.22-.65 0 0zm22.75-.05c.18-.25 0 .45 0 0zm-25.33-.4c.17-.24 0 .46 0 0zm28.36.06c.22-.39.14.38 0 0zm-27.67-.5c-.37-1.93.53 1.68 0 0zm29.72.07.24-.07zm-28.18-.49c-.44-2.84.75 1.38 0 0zm18.01.27c.18-.25 0 .45 0 0zm10.87.12.3-.06zm-31-.4c.13-.46.03.62 0 0zm25.32-.03c.24-1.14.13.77 0 0zm2.44.04c.34-.52-.08.43 0 0zm3.78-.24.83-.46zm20.44-.25c-.7-.76.89.75 0 0zm-51.6-.03c.18-.25 0 .45 0 0zm27.52.05c1.4-2.18 1.17-.64 0 0zm-30.81-.09c.1-.56.2.35 0 0zm3-.06c.17-.25 0 .45 0 0zm3.69 0c.17-.25 0 .45 0 0zm.85 0c-.18-.7.4.43 0 0zm11.79-.01.18.01zm35.64-.1c-.5-.79.82.43 0 0zm-51.82-.1c-.54-1.3.56-.12 0 0zm13.12-.13c.08-.45.08.45 0 0zm-15.86-.3c1.19-1.93-.6 1.35 0 0zm15.75-.16c.18-.24 0 .46 0 0zm5.28-.03.3.05zm-20-.55c.57-1.61-.27 1.36 0 0zm1.66.15c.09-.46.09.45 0 0zm.41-.4c.04-2.62.3.66 0 0zm1.1.18c-2.12-1.61 1.02.24 0 0zm-3.62-.02.3-.25zm2.13-.75c.07-1.33.07 1.32 0 0zm-1.33.24.17-.25zm14.16 0c-1.27-2.69.93-.7 0 0zm-13.42-.5c.11-1.54.8-.64 0 0zm-.76-.1c2.76-3.07-1.4-2.85 1.5-4.37-3.39.9 5.13-3.9.87-2.95 1.43-.28 4.04-1.65 1-1.46 2.35-.64 4.07-1.3 2.8.24.26-1.26-4.53 5.01-5.36 7.8zm1.61-3.31c.85-1.14-1.42 1.1 0 0zm-.9 0c-.27-.26-.31.56 0 0zm1.5-1.43c1.21-.55-1.08.03 0 0zm-.34-.25c.37-.78-1.07.84 0 0zm9.42 4.75c.29-.23.2.38 0 0zm-8.08-.26c.16-.97.23.44 0 0zm25.26-.18c.12-.63.04.8 0 0zm-4-.01c.17-.25 0 .45 0 0zm-21.5-.3c.21-1.47.12 1.12 0 0zm-1.55.05c.07-1.57.23.58 0 0zm7.5-.07c0-.67.27.69 0 0zm5.08.03-.04-.47zm-14.08.01c.13-.93.4.4 0 0zm30.88-.03c-.09-.44.33.53 0 0zm-35.5-.04c.55-.39-.15.31 0 0zm22.28-.05c.18-.24 0 .46 0 0zm6.78.1-.04-.36zM53 98.91c.3-2.61.54-.48 0 0zm-5.8-.02c2.04-1.1-.72.66 0 0zm1.9-.21c1.71-1.9 1.96-1 0 0zm11.68-.1c.09-.45.09.46 0 0zm7.57.05c.18-.25 0 .45 0 0zm6.88.09-.04-.36zm6.18-.13c-.21-.7.47.76 0 0zm19 .02c-.08-.44.34.53 0 0zm-48.62.04c.91-2.3.67-.4 0 0zm8.3-.51c.11-.8.05.98 0 0zm-6.5.09c.18-.25 0 .45 0 0zm.83 0c.2-.53.2.55 0 0zm3.5-.07c-.3-1.96.45.66 0 0zm23.14-.13c-.17-.8.57 1 0 0zm-31.65.1c.44-.95.61.22 0 0zm28.03-.6c-.53-2.01.8 2.25 0 0zm1.23.3c-.18-1.42.4 1.11 0 0zm-24.14.06c.22-.39.14.38 0 0zm1.75-.36c.32-1.65 1.27-1.74 0 0zm24.32-.1c-.26-.46.58.7 0 0zm-18.18-.82c-.04-3.97.27 1.2 0 0zm2.99.56c.33-.52-.09.43 0 0zm-10.6-.26c.34-.54.05.63 0 0zm-7.11 0c.7-.59-.1.4 0 0zm9.18-.02c.28-.22.19.39 0 0zm12.97-.06-.05-.35zm9.6-.05c-1.25-1.7.63.33 0 0zm-31.27-.1.22-.04zm31.7.06c-.22-.69.7.48 0 0zm-29.31-.38c.08-1.28.65-.38 0 0zm.57-.55-.25.06zm.5.67c.34-.52-.08.42 0 0zm8.63-.07c.21-.72.08.69 0 0zm5.1.04c.17-.25-.01.45 0 0zm-11.54-.4c.46-1.69.03 1.13 0 0zm.8.23c.34-.52-.08.42 0 0zm8.89-.03c-.46-1.2.41.32 0 0zm15.64-.49c-2.35-2.08-6.28-7.34-6.2-6.1 2.95.97 3.69.44 3.4 2.56 1.21-.16 1.57 2.3 2.8 3.54zM75.32 91c-1.31-.97-.47.16 0 0zm2.7 5.07c-.46-1.06.54.76 0 0zm-1.18.03c-.96-1.07.48 0 0 0zM60.27 96c.14-2.08.97-.73 0 0zm12.75-.08c-.3-.84.48.74 0 0zm-18.28-.03c1.07-3.29 7.3-4.83 3.29-5.91 4 .65-2.15-4.27 2.61-1.17-.68-.67.88-14.08 1.72-5.59-1.4 4.05 2.86 7.77.1 11.22 1.21-4.85-2.3 1.47-.97-1.87-3.16-.84-5.91 5.63-2.28.26 2.02-3.3-4.76 2.47-4.47 3.06zm7.7-3.98c2.12-2.39-1.9-1.04 0 0zm-.59-.94c.76-1.3-2.6 1.72 0 0zm-2.3-.2c2.32-.23-.44-.39 0 0zm.72-.7c3.17-.68-1.4-.13 0 0zm2.17-.97c-.14-1.38-.12 2.38 0 0zm-.84.39c-.23-.44-.47.62 0 0zm.05-.45c-.71-.67.23.53 0 0zm-1.42-.07c-.4-.85-.34.53 0 0zm.66-1.32c-.31-.4.1.5 0 0zm-.07-.61v.29zm.53-2.61c-.3-1.21-.15 1.41 0 0zm.4-.79c-.33-.76.25 1.8 0 0zm-.43-.61-.02.18zm.4 0-.02.18zm-.07-2.83c-.44-.75 0 1.55 0 0zm5.71 15.32c-.9-1.96.54.1 0 0zm12.83.14c-.26-.46.59.7 0 0zm-24.62-.08c.46-.52-.14.5 0 0zm5.58-.01.23-.35zm2.88-.21c-.25-.45.59.7 0 0zm17.02-.3c-.75-.94 1.89 1.72 0 0zm-4.97-.34c-1.17-2.08 1.76 2.54 0 0zm23.92.32c-1.4-1.03 2.14 1.21 0 0zm-33.16.08-.25-.76Zm-3.5-.34c-.34-1.43.46.94 0 0zm.36-.04c.22-.39.13.38 0 0zm9.41-.07c-.28-.43.7.62 0 0zm14.54-.23c2.46-2.8-4.66-4.84.9-3.04 3.9 1.03.94 2.32-.9 3.04zm1.13-.84c.67-.88-.96.96 0 0zm1.7-.7c-.24-.7-.24.72 0 0zM96 94.64c.26-.41.35.42 0 0zm-44.03-.06c.8-1.74.98-.44 0 0zm12.33-.02c-.1-.6.49.16 0 0zm12.72-.2c-.28-.67.56.8 0 0zm2.87-.07c-.91-.86 1.36 1.01 0 0zm-.95.01c-.5-.52.9.57 0 0zm-12.46-.14c-.07-.59.93.36 0 0zm13.5-.09c-.26-.45.59.7 0 0zm8.93.03c.96-.67-.33.4 0 0zm-24.62-.2c-.19-1.07.36.8 0 0zm.6.1c.46-.68.2.4 0 0zm13.66-.25c-.7-1.35 1.02 1.05 0 0zm-12.3-.16c-.35-1.05.5.78 0 0zm11.45.01c-.7-1 .87.88 0 0zm-10.01-.54c-1.27-1.7 1.32 1.4 0 0zm-4.34-.2c2.05-2.07-2.38-10.56.6-4.43.77 3.94 3.04 2.61.14 0-1-1.48 5.13 4.8 1.25.16-3.1-.64 1.3-6.6-1.36-3.07 2.44-4.03 4.02 1.3 1.51 3.06 1.16 1.47 6.75 1.09 5.82 1.34-3.64-.66 4.2 2.48-.08.9-1.38-1.04-5.09-.8-1.99.61-2-1.64-4.27 1.53-3.5 1.14-1.44.19-2.1-.87-2.39.3zm1.34-1.57-.24.15zm-1.07-3.14c-.43-.8.19.85 0 0zm1.61-.63c-.37-.24-.18.97 0 0zm.3-1.02c1.95.36-1.6-3.7-.37.17.31-4.62.08 3.43.36-.17zm-.63-.1-.02.18zm1.13-1.8c-.93-.36.55.44 0 0zm8.69 8.32c-.84-1.03.97.97 0 0zm3.63.14c-.32-.73.67.81 0 0zm-26.6-.02.22-.05zm15.27-.75c-.28-.43.69.62 0 0zm27.23.02c-.15-1.05.87.9 0 0zm-17.22-.12c-1.09-1 .62-.4 0 0zm-22.99-.1.19.02zm10.84-.02c.14-.39.23.38 0 0zm9.75-.5c-1.21-.75 1.12.43 0 0zm-15.99-.3c1.18-.26-.46.36 0 0zm-3.13-.49c-3.62.05 1.22-.32 0 0zm31.65.03.18.02zm5.8-.13c-1-.67 1.39.67 0 0zm-39.77.03h.5zm1.47-.44c-.6-.51.87.51 0 0zm18.2.02c-.91-.74 1.72.86 0 0zm2.29.04c-.37-.51.78.53 0 0zm2.95-.05c-.11-.44.72.6 0 0zm.97.03h.25zm-3.46-.23c-1-.31 3.72.42 0 0zm-20.82-.39c-.93-2.01 1.07 1.33 0 0zm32.27.33.18.01zm.5-.1.18.01zm-21.73-.15c-3.17-2.1 1.45.5 0 0zm10.62-.06c.59-1.2.26.65 0 0zm-7.63-.48c.45-.93.98.65 0 0zm5.81-.11c-.95-.9 1.97.3 0 0zm-22.62-.18c-.38-.43 1 .7 0 0zm18.8.05c2.57-2.64 1.81.17 0 0zm-12.66-.12c1-.47.31.44 0 0zm12.12-.04c.2-1.53 4.27-2.18 0 0zm-11.57-.23c.22-.4.14.38 0 0zm7.73-.06c.35-5.48.93 1.96 2.32-2.12-.13 2.17.55 2.35-2.32 2.12zm9.43-.18c1.66-.26-1.66.42 0 0zm-6.74-.13c.15-1.14.54.4 0 0zm-10.11-.43c-2.38-2.82.55-.09 0 0zm10.57.15c.5-2.19 1.97.29 0 0zm.34-.2c-.1-.53-.22.55 0 0zm-12.17.05c-.16-.31.44.22 0 0zm.85 0c-.07-.56.44.5 0 0zm10.3-.4c.6-.27.12.77 0 0zm-12.54.08c-2.67-.66 2.12.04 0 0zm11.6-.18.21-.97zm-8.74.03c-.4-.58.41-.54 0 0zm10.53-.16c-.94-3.12 1.29-1.44 0 0zm1.07.09.16-.26zm-13.97-.36c-.3-.84.49.74 0 0zm11.93.08c.34-.52-.08.43 0 0zm.77-.17c.07-.62.07.63 0 0zm.77.06.3-.25zm1.45-.06c.22-.39.13.38 0 0zm-12.62-.2c.29-.23.2.38 0 0zm4.61-.34c.12-.63.04.8 0 0zm-.28 0c.23-2.5 1.67-3.71 0 0zm3.91.1c.22-.55.1.53 0 0zm5.67.05c.22-.4.14.38 0 0zm-16-.22.45-.53zm14.3-.07c.92-.74-.37.63 0 0zm-13.38-.04c-.84-1.89.23-.59 0 0zm16.6-.12c.43-.78.38.41 0 0zm-5.15-.35c-.06-1.41.27 1.19 0 0zm-8.9-.02c-.17-2.78.38.93 0 0zm1.61.22.13.45zm11.34-.17c-.18-1.42.47-.14 0 0zm-5.34-.3c-.55-.56.67-.66 0 0zm-5.8-.17c.13-.72.17.51 0 0zm5-.05c.09-.45.09.45 0 0zm3 0c.08-.45.08.45 0 0zm-1.02-.25c-.7-1.76.44.79 0 0zm.6-.18c.23-1.65.09 1.41 0 0zm3.7.14c.08-1.17.47.26 0 0zm-6.3-.1c.23-.4.14.37 0 0zm-3.08-.3c.11-.56.2.35 0 0zm-1.7-.03c-.3-2.87 1.23-1.05 0 0zm7.7-.82c.11-.8.05.99 0 0zm-6.5.31.3-.25zm1.28-.11c1.01-.46-.82.57 0 0zm3.08-.18c-.25-2 .52.67 0 0zm-.35-.27c.08-.8.08.8 0 0zm-3.5.15c1.87-.98 1.32.45 0 0zm1.78.05c-.16-.31.44.22 0 0zm-5.67-.74c-.4-3.48.6 2.48 0 0zm3.03-.08c-1.1-6.01 2.27-1.89 0 0zm.44-1.73c-.18-1.77 0 2.42 0 0zm5.5 2.2c-.38-.76.27-.6 0 0zm-2.98-.15-.48-1.1zm-1.97-.08c.9-.86-.38.6 0 0zm3.26-.37c.17-.24 0 .46 0 0zm-3.3.03.41-.19zm.74-.04c-.42-2.77.12-4.43 0 0zm-4.55-.94c-.7-1.58.52.2 0 0zm1.67.3c-.48-3.42.56.98 0 0zm4-.35c-.47-3.98 1.44-2.67 0 0zm3.94.37c.08-.46.08.45 0 0zm-1.47-1.34c.8-4.46.6 1.36 0 0zm-5.8.4c.11-.63.03.8 0 0zm4.33-.25c0-.87.3.68 0 0zm-6.3-.1c.13-.38.22.39 0 0zm1.27.03c-.96-1.22.79-.58 0 0zm2.5-.87c.09-1.33.05 1.51 0 0zm2.57.15c.09-.46.09.45 0 0zm2.33-.1c-.07-1.68.41.89 0 0zm-3.87-.23c-.03-1.82.3 1.42 0 0zm2.36-.17c.07-.97.07.97 0 0zm-5.92-.36c.45-.55.51.43 0 0zm5.1-.18c.14-.46.04.63 0 0zm-2.7-.08c-.89-.04.14-.44 0 0zm3.73-.24c-1.07-.82.84.9 0 0zm-1.86-.18c.26-1.04.07.88 0 0zm.77-.15c-1.13.19.2-.72 0 0zm.17 20.94c-.9-1.96.54.09 0 0zm-.52-.41-.25-.75zm-.35-.95c-.07-.6.93.36 0 0zm-.24-.58c-.34-1.05.51.79 0 0zm-2.85 2.2c-.91-1.96.53.1 0 0zm-.53-.4-.25-.76zm-.35-.96c-.07-.59.93.36 0 0zm-.24-.57c-.34-1.05.51.78 0 0zm9.05-2.57c-.9-1.95.53.1 0 0zm-.52-.4-.25-.76zm-.35-.96c-.07-.59.93.36 0 0zm-.24-.57c-.34-1.05.51.78 0 0z" style="fill:#000;stroke:#000;stroke-width:.179841;stroke-dasharray:none;stroke-opacity:1"/></svg>