<svg xmlns="http://www.w3.org/2000/svg" xmlns:xlink="http://www.w3.org/1999/xlink" xml:space="preserve" width="578.37" height="230mm" viewBox="0 0 153.03 230"><defs><linearGradient id="a"><stop offset="0" style="stop-color:#000;stop-opacity:1"/></linearGradient><linearGradient xlink:href="#a" id="b" x1="-37.73" x2="76.34" y1="235.74" y2="235.74" gradientUnits="userSpaceOnUse"/></defs><path d="M-15.35 304.12c-4.68-.97-10.54.55-15.63-.8.08-2.62 5.97-2.01 8.22-3.92 4.71-2.17 4.5-5.88 6.69-10.2 1.15-2.54 1.61-13.94.61-6.05-1.9-.87.72-5.97-.28-7.43 2.64-3.3 1.56-7.14 3.34-10.64 2.97-2.72 6.57-5.47 7.95-9.45-1.7.13-4 2.06-1.14-.94 1.2-2.24.27-2.23 3.59-4.14 2.51-2.22-3.44-.99.85-2.59 2.55-.74 3.12-1.88 1.79-2.21 3.57-1.38 3.65-3.94 1.86-3.54 2.1-1.68 4.14-2.63 2.72-3.65 4.3-.24.23-5.23 3.8-6.38.75-1.93 2.6-2.75 2.58-4.8 2.32.62 6.55.32 4.66-2.13 3.4-2.74-.9-.99-1.87-3.09-2.14 3.28-2.07 1.5-4.81 4.11-1.53 3.63-3.03 1.43-5.83 5.38-1.82 1.48-4.44 3.37-5.78 5.64-2.6-.5-4.75 3.6-4.87 5.98a23 23 0 0 1-4.87 3.72c-4-2.45-4.46 6.59-5.4 3.84-1.38-1.13-5.77 4.9-5.13 7.88-1.13 2.27-.1-5.14-2.63-1.47-1.86 2.26-5.7 6.25-7.15 6.92.69-3.63-3.72.6-5.54 1.16-.3-1.63 4.4-5.35.5-4.3 3.66-2.12 4.32-5.01 6.03-6.09 3.1-2.32 5.16-5 8.5-6.95 1.66-1.68 4.59-2.88 4.26-6.15.96-1.88 2.67-2.82 2.7-5.55 3.87-.8 4.57-4.82 6.64-7.82.14-3.98 1.8-6.05 5.17-7.91 1.53-3.2 3.17-8.56 2.79-10.98-2.9 1.96-1.5-.4-.47-2.82-.35-2.37-3.34-.83-.43-3.53-.22-1.84.34-3.47 2.74-5 1.21-1.05 1.71-2.47-.72-3.56-2.2-2.76-4.73-6.4-3.53-10.7 3.08-7.46 16.52-8.74 18.76 0 .88 3.76-3.03 5.37 1.37 4.63 3.58-1.08.25 2.34 2.95 2.73.48 2.38 5.86-2.22 5.93.69-.22 3.92 6.51.48 4.45 3.66 1.97.41 1.42 2.2 4.42 3.39.54 1.5-1.72-.28-.87 1.63-2.8-1.88-3.4-3.2-5.14-5.76-.74.33.63 2.39-1.78.02.62 2.18 5.52 7.6 3.78 7.92-.84-2.2-6.28-11.53-3.64-3.99.33 2.15-1.9 4.66.98 4.3.98-4.03 1.96 6.66.85 8.72-2.15-.6 1.64-6.45-1.63-1.93-4.73-1.93.5-.35.1-4.03 0 2.95-5.75 1.02-1.54.86.76-2.06 1.2-4.67-2.9-4.07-2.86-.36-5.63-2.93-.84-1.05 3.66.92 3.21-.38 1.98-2.77-2.1-.3-7.07-.36-2.15-1.67 1.42-.57-.46-3.14 1.02-3.53-2.29-.94-1.82 2.68-5.22 1.33-2.36.33-11.77-.65-10.04.64-3.1.96 2.49.35 2.47 1.5 2.73.5 6.39 5.17 1.7 1.67-1.45-1.42-9.4-3.07-5.46-.64-2.75-.68-5.24.22-1.38.57 1.24.85 3.34 2.4 3.93 3.55 1.13 1.26 2.3 4.36 3.01 6.26 1.46 2.79 1.05 3.23 1.26-.4 2.9.3 2.06 2.86 2.62 2.58 1.49-.17 1.08 3.96 2.96 5.13 1.1 2.09 4.67 10 3.86 3.65a14 14 0 0 0-2.56-6.1c1.69 1.3 2.72 1 4.82 2.83 1.04 2.01 1.74 1.03 3.07 4.85 2.1 2.5 5.67 7.28 7.2 8.82 0-2.63-3.43-6.2-1.4-8.26-.44-7.38 1.17 2.53 3.49 3.86 1.4 4.53.14-3.64 1.61.21 4.02 1.37 2.66 6.54 6.18 8.26.95 4 1.34 4.94 2.8 2.24 1.55 1.92 8.88 7.68 4.03 2.12-2.18-3.37-.36-3.22-.4-6.04 3.4 2.48 5.08 2.95 6.8 2.04 6.32 3.47-3.56-2.74-1.82-3.56-4.5-1.02-9.4-3.14-12.02-6.96-.75-1.87-3.83-5.07-3.7-2.4a23 23 0 0 1-5.5-9.91c-.3-1.69-3.32-5.75-2.66-7.77 1.3 3.45 3.4 4.86 5.04 1.96-1.48-1.4-7.05-4.96-3.72-4.59 1.9 3.02 3.51.42 3.9-2.22-.03-3.92 4.56-2.38 6.07-5.41.5-2.19 4.65-3.55 2.39-6.54-1.21-4.2-2.55-.91-2.04 1.86-1.27-1.2-.53-7.28-3.72-7.39.12 4.03-.87 3.11-1.03-.07-.94-1.97-3.39-3.6-4.86-5.72 2.5.74 2.94-.65 4.77-.25 2.58-.44-1.49-2.44-1.59-4.3 3.44 2.46.1-2.94 3.46.37 1.9-.01-.62-5.51 2.92-1.46 2.9.98 4.12 4.27 6.34 7.16 2.43 3.83 6.12 3.62 8.25-.53 1.61-2.16 3.09-6.7 4.47-6.88 1.7-2.93 1.65-1.39 2.32-.9 2.8-2.38 1.68.19 3.02-.47 2.83-1.96 3.48-.94 1.62.95 1.35 1.06-3.38 3.26-.72 4.43 3.29-2.05 1.19 1.28 4.97-.87 2.57-.34-3.16 3.18-.2 3.22-4.47 1.39-3.5 8-4.5 9.8-.38-2.34.14-8.54-2.93-3.97-2.9 1.11-3.6 5.38-3.57 6.77 2.8 2.84 3.38 3.6 6.87 6.6 3.6 1 .98 2.71 5.22 4.54 3.9 2.71-3.45.45.12 4.01.4 1.8-5.31-2.64-3.32 1.37-2.3-1.24 1.7 4.72-2.03 1.28-.94 1.82.52 9.82-.79 9.03-.16-4.7-1.36-6.93-1.81-10.17-1.42-3.56-4.82-3.74-3.35 1.2-.77 6.46-.58-4.94-2.04-6.48-1.35.4-4.37-6.61-4.31-.97.14 5.68-1.43-1.94-1.5-3.68-2.55-3.35-3 3.35-3.92-.2-3.27.97-2.1 9.43-3.47 3.02-3.23 1.88-.52 5.77.23 7.67.49 2.47.99 5.2 2.87 7.51.98 3 1.92 9-.26 3.4-1.38-4.13-.84 10.22-1.91 5.8-.04-2.32-2.77-3.36-3.24-1.2-1.98-2.91-4.54-3.97-5.73-7.6.06 2.81-5.44-7.94-3.27-1.57-2.69-.38 1.85 7.51 5.02 7.42 2.36 1.02 2.75 1.89 1.36 2.2 1.13 2.44 4.9 2.95 3.29 3.95 4.05 2.15 5.84 3.28 11 5.16 2.33 2-2.69 0 .65 2.38 4.3.96 4.33 5.12 5.97 8.21 1.33 2.93-.82 5.18-.36.57-3.25.6-.67-5.74-4.76-6.17-3.91-2.37-.67 3.98-3.9.17-2.18-2.89-3.72-1.26-3.14.87-1.97 1.02 4.72 5.1 4.3 8-.35 6-.38-2.92-3.5-2.45-1.26-2.14-3.9-3.86-5.55-4.47-1.98.7 1.61 6.94-1.62 2.12-1.26-2.79-2-6.61-3.47-6.32-.25-3.36-3.3-4.4-3.75-4.27-1.53-3.23-6.69-7.2-3.44-1.5 1.15.79 2.3 4.37.16 1.61 1.91 4.65 3.86 6.64 6.49 9.89 4.78.74 1.09 2.66 4.44 5.44 2.53-.75 4.92 7.48 2.2 3.93-1.73-2.97-4.7-3.47-7.5-6.1-3.56.95 6.71 6.92 3.63 6.57 2.02 3.5 5.74 3.67 8.84 5.71-2.57 1.2 6.07 1.82 5.26 5.53 2.62 4.62-2.15-3.18-4.44-2.5-.6 1.6-5.21-3.08-3.79.62-3.56-.62 6.58 5.06 2.25 3.38 2.13 3.3 5.7 5.19 9.54 5.43 2.44 1.18 4.9 2.69 3.12 3.33 3.72 3-.9 1.4 2 5.03.65 2.28 2.96 8.08.33 2.79-1.7-.08-2.7-5.93-4.82-4.26-1.09-1.42-5.72-5.12-5.84-1.62-1.08.32 2.67 7.95-.25 2.71-3.08-1.52-3.31-2.64-5.9-5.43-.87.59-3.94-4.98-5.5-2.41 2.53 2.98-1.63.87.9 4.05 2 1 4.55 6.15 4.1 6.23-2.13-1.94-3.27-3.7-5.51-5.03-3.09-.33 1.85 3.55 2.03 4.83.94 1.3 3.05 5.97.55 2.59 2.29 4.1 4.63 8.1 7.9 11.2 2.28 3.35 2.52 6.55 3.16 10.23-2.43 4.49-6.82-1.3-9.36 1.44-2.8.83-13.4-.8-5.81-2.24 2.9-.66 4.43-3.07 5.9-5.43-1.93-1.9-1.36-6.63-4.26-8.76-1.35-2.98-6.83-8.99-4.49-2.64 1 3.3-2-2.81-2.5-3.57-1.9-2.25-3.3-3.75-5.06-5.88-1.27-2.51-3.3-2.22-.53-3.16-.72-3.9-1.22-.78-3.18-2.94-.45 3.31 1.37 6.9 2.35 6.2 1.58 1.57 3.4 7.57 2.67 7.1a18 18 0 0 0-5.29-6.3c.65-2.22-4.27-5.74-2.1-1.84-.36 2.68 3.37 5.54 2.49 7.4-2.37-2.11-.71 4.78 1.27 5.31.61 2.1-2.9-1.48-.83 2.31 1.54 3.17 1.67 4.12-.97.87-.5.54-3.24-3.84-4.45-3.53-1.08 1.53 1.05 5.63-1.63 1.6-.5-3.57-1.51-4.8-3.31-6.5.69-3.7-.21-5.84-1.67-8.08-3.28-2.85.07 5.4-.3 6.3-.73 2.2 1.75 6.76-1.25 2.69.02-2.62-2.48-5.88-3.6-4.8-.77-4.5-4.2-5.64-3.69-.86.51 6.42-1.86-1.78-1.23-3.75-1.04.82 2.12-7.95-.62-5.24-.57-3.22-.53-4.92-1.64-6.86-1.3-.59.12 3.4-.2 4.07.04 2.93-1.39 7.61-1.13 1.73-1.73-1.38.44-7.34-1.64-6.9-1.2 2.3-3.16 7.85-2.06 1.62 1.32-6.14-6.08 3.47-3.5 6.73-1.88 2.55-1 4.75-1.4 8.14-.7 2.34 1.67 11.52-.16 10.6-.26-1.98-.63-7.5-1.86-4.52.89-5.04-1.68-3.07-1.1.33-1.5 3.2.77 9.6.2 10.44-.35.7.22 6.7-1.17 1.78-1.17-1.94-.47-11.87-2.13-5.19.33 5.07-.86 8.56-.22 13.19-.37 2.08-3.28 1-4.67 1.35zm1.56-.76c1.55-1.67.87-2.39 2.43-1-1.13-2.2-.22-5.7-1.94-3.77.97-3.02-1.18-2.3-2.96.45 1.58-.48 2.8-2.88 1.08.67.1 1.37-3.45 4.08 1.39 3.65zm.78-3c-.5-3.1 1.41.25 0 0zm-7.9 2.7c1.05-.73-1.93.8 0 0zm8.75.21c.9-1.01-1.81.57 0 0zm-13.94-.7c-.98-1-.93 1.77 0 0zm1.98.65c1.3-1.9-2.53-.69 0 0zm-3.77-.3c.91-.99-1.7.84 0 0zm8.56-.13c1.76.5.37-1.02 1.2-2.92-2.5 1.27-3.43 2.01-1.2 2.92zm74.56.1c5.35-.3-.19-3.26 2.48-5.52-2.82-4.58.38 4.13-1.92-.6.18-4.32-4.5.3-1.9 2.66.6.98-3.02 3.8 1.34 3.46zm-1.4-3.9c.58-.85.66.7 0 0zm-75.51 3.62c1.52-2.18-3.56.29 0 0zm67.5-.2c-.92-2.35-.24 1.83 0 0zm2.44.27c-.93-.96 2-.07 2.98-1.16 1.4-.46-3.28-1.13.62-1.29 2.95-.1-4.1-3-2.8-.42-1.44 1.23-4.82 2.32-.8 2.87zm-5.1-.3c-.1-1.09-.88 1.33 0 0zm1.24-.15c-.56-1.2-.55 1.21 0 0zm-61.52-.45c3.82-4.88-3.54.49 0 0zm-4.93-1.36c-.45-.78-1.09 1.58 0 0zm69.52-.3c-.4-.45-.06-.2 0 0zm-67.93-.15c3.3.43 1-4.95.4-.4-.9-.96-1.47.9-.4.4zm69.06-.91c-.52-.66-.55 1.25 0 0zm-65.5-.21c-.76-4.27-1.5 1.04 0 0zm69.47-.08c-.26-2.47-3.24.97 0 0zm-68.13-1.54c1.68-3.5 3.69-5.7 3.68-10.41 1.26-2.75.03 6.27 1.38.17 1.2-3.25-.1-1.54-.84-1.25.92-5.26-2.76-2.57-2.3 1.71.65 4.03-5.02 7.13-2.64 9.27.25.27-.53 1.64.72.51zm67.22-.01c-2-2.41-.74 1.06 0 0zm1.19-.63c-.47-1.26-.54 1.85 0 0zm-64.06-.39c1.3-2.7-1.64.55 0 0zm-1.69-.21c-1.15-1.08-1.16.53 0 0zm64.57-.58c-.16-3.43 5.43-2.27.44-5.36-3.07-3.74-5.53-6.87-7.67-10.97-2.63-3.52-2.32-3.25.73-2.75-2.3-2.48-5.58-.58-4.43-2.5 1.28-1.04-.45-1.22-2.25-.8 1.8-.89-1.66-2.4 1.77-1 1.2-2.2-5.51-5.14-1.46-1.78-2.12 1.58-2.76-4.32-2.5.58-.52 3.14 2.26-.56.53 3 1.27-.4-.17 3.27-.7 2.57-.99 4.56 4-2.86 1.94.72-1.03 2.85 4.02-1.28 1.4 1.23 1.46 4.07 6 5.13 2.7 2.54.77 2.58-3.89-4.78.65-.3 3 3.66 6.4 8 8.34 11.93.68 2.58-2.86-.8-.65 2.73l.64.3zm-2.83-7.69c-.47-1.92 1.82.55 0 0zM38.8 275.77c.8-2.78 1.36.3 0 0zm-50.85 19.1c-1.9-2.35-2.5 1.82 0 0zm65.11.02c.4-1.57-.8 1.52 0 0zm-70.92-.22c3.86-3.35 4.17-9.18 4.61-13.83-2.3 2.44-.81 9.36-3.93 12.57-.1-.24-1.32 2.23-.68 1.26zm71.58-1.31c.64-.7-2.13 1.07 0 0zm2.2-.17c-1.23-3.32-.72 2.3 0 0zM-7.94 292c.23-3.7-1.05.82 0 0zm-3.49-.3c.6-5.3-1.25 3.08 0 0zm61.92.75c-.05-1.72-.67.53 0 0zm-1-.6c-2-7.52-2.57-1.87 0 0zm2.97-2.43c-3.3-3.8 1.9 2.6 0 0zm-23.16-.8c-1.31-2.65-2.77-10.02-.83-9.64-1.4-2.83-5.03-9.42-3.15-10.71 0 1.84 1.95 2.05 2.58 2.85 2.01.2-.56-4.95 1.26-5.77-.06-1.98 2.37 3.78 4.36 3.4 1.81 3.86 2.19 2 1.6-.07 1.75-2.1-.28-3.54 1.05-6.2-.35-2.31-.92-5.58 1.93-2.03 1.98 1.55 3.07 5.5 5.42 5.19 1.02 3.22 2.6-1.06 2.45-1.29 3.35 1.78 5.39 5.07 7.8 7.76 3.94 4.62.22-3.96 4.7-1.7 2.56-.02 3.42 2.75 1.43-.76-2.8-2.7 8.31 1.66 2.74-.97-5.26-.12-10.77-5.73-11.59-7.62-2.4-1.68-4.91-3.77-1.77-4.02 1.4-1.1 8.13 2.17 2.96-1.14-.85-1.86-8.5-4.3-6.38-1.79-.6.45.82 3.3-1.62-.4-1.83-1.54-4.66-5.26-2.97-.24-1.56-.1-2.77-5.13-1.63-.1.72 4.43 3.95 1.53 3.51 5.37-3.04-1.85-4.54-4.46-5.05-7.81-.8-1.06-3.67-8.9-3.6-7.04-.52 2.02-3.18-10-3.67-4.75-.88 2.84 1.06 3.16.81 4.5.4 3.7-.64 9.96 1.74 12.2 3 1.67-3 1.67-.23 4.93-2.05 5.54-1.42-4.44-4.17-3.24.6-1.9 2.5-1.78 1.51-4.94.15-4-.89-1.43-2.19-4.12-2.43-1.25.7 13.42-1.46 7.43-.45-2.94-.25-7.12-3.22-2.8-2.62-.83-3.71-3-2.36 1.22 2.51 3 .48 2.7-1.36 4.9.06 1.8.08 8.75-1.49 3.38-1.11-2.04-1.75-3.6-.03-2.15.63-2.04-4.44-3.04-.21-3.43-.25-3.8.34-3.28-1.66-.97-2.16-.8-4.24-6.27-2.95-.55.6 4.46-1.9-5.14-.94.39.06 3.17 1.94 3.32.26 5.25.44 3.85.4 6.66 2 3.3 2.33.89.75 7.17 3.05 6.58.78 1.78 3.53 5 2.77 6.24 1.68 3.2.05 1.85-.35 3.73 3.2-.41 2.2 6.24 3.34 4.95-.08-4.76 3.5 1.68 4.76 2.17-.06.14.75 1.01.85.51zM54 270.84c-.25-1.95 1.4 1.24 0 0zm-25.17-7.38c-.35-2.08 1.1 1.1 0 0zm16.3-1.02c-3.4-2.29-3.24-4.86-.25-.75 1.59.85.55.73.24.75zm-30.37-1.36c-2.29-5.09.9-2.1 0 0zm29-1c-.24-1.33.88.22 0 0zm-16.06-.47c.63-.91.39 1.06 0 0zm7.1-3.62c-1.66-1.67-2-7.56-.33-2.36-.1.22 1.43 3.17.33 2.36zm16.25 31.47c-1.31-2.29-1.5-.77.07.22zm-59.63-.94c-1.04-2.6-.66-3.26.28-2.83-1.2-1.4-4.38-2.91-5.34-5.29.86 3.3 4.73 5.16 5.06 8.12zm38.09-.62c-.47-2.15-1.3 1.1 0 0zm19.64-1.52c-.8-2.07-6.73-11.44-3.6-4.9 1.07.73 3.53 6.2 3.6 4.9zm-58.42-3.1c2.72-1.18 0-5.06-.34.32l.07.07zm-.27-1.73c1.59-1.85 1.12-5.63-.49-3.39-.28-5-1.96 2.57-2.22-.72-2.15 1.09 1.96 8.7 2.71 4.1zm4.73.82c-.53-3.03-1-3.03-.74-.63-.03-.04.96 1.8.74.63zm21.76-.85c-.68-2.65-2.02-7.62-.8-10.09-1.52-5.43-1.48-.3-1.37 1.8-2.1-3.86-2.4-8.83-4.57-12.07 2.28-2.2-.05-9.1-.3-12-.25-2.05.2-4.25.87-6.9 2.36-2.02.44-3.12-1.47-.23-.85 1.39-8.07 5.64-3.53 3.86.4 1.15-7.6 4.4-3.63 4.45-1.25.45-7.13 5.27-4.23 4.32 2.86-.94 3.59-1.6 2.55 2.16C4.02 252-.57 264 3.64 257.85c.01.1 2.42-3.41 1.06-6.06-1.35-3.2-2.81 7.71-2.07.86-.06-4.48 3.77-3.66 2.8-.05 0 3.22.84 6.27 2 8.15-.44 3.68 2.35 4.12 1.95 7.78-1.16 4.62-.58 5.84 1.33 1.69 1.07 4.13 2.09 5.14 4.54 7.35.62-.07 1.41 2.93 1.7 1.95zM6.88 250.94c-.82-2.44 2.1-10.35 1.77-3.88-1.3-2-.9 4-1.77 3.88zm-14.16 27.05c.28-2.68-1.03 2.14 0 0zm40.03-.55c-2.23-2.95.14 1.9 0 0zm-38.75-.5c1.58-1.45.01-4.72-1.5-4.02-2.34-3.25-6.05.15-6.9 2.98.07 1.54 1.8-2.93 3.05-2 1.9-2.2 2.52 1.18 4.43 2.68.47-.42 1.13 1.5.92.36zm-1.95-2.24c-.68-2.14 2.16.68 0 0zm39.44 1.61c-1.18-1.7-1.82-.55 0 0zm3.91-.56c.8-1.53-.77-4.74-2.25-5.8-.38 1.8 1.13 4.25.8 5.24.36.29.93.83 1.45.56zm30.91-.87c-2.14-2.58 1.65 2.8 0 0zM42.6 273.5c2.3 1.15-2.7-3.25-.25-.07l.1.37zm5.2.12c-3.15-2.15-3.18-7.21-6.83-7.99-1.16-1.6-2.52-3.4-3.93-2.66.41 1.21 1.48 3.71-.23 2.28 1.62 3.12 4.23 6.2 6.45 6.91.88-1.95 3.5 2.11 4.53 1.46zm17.59-.48c.93-2.39-2.45-3.66-4.61-2.86.65 1.47 3.77 4.63 4.6 2.86zm-77.6-.98c1.1-1.08-1.8 1.12 0 0zm7.2-.1c.78-3.6-4.82-4.3-7.28-2.8-2.4 3.4 1.23.04 3.81.19-.64 1.21-5.15 1.63-.8 1.34 1.94 1 3.54.2 4.28 1.27zm-1.69-1.61c-.14-1.47 1.57.7 0 0zm2.2-1.84c2.36-5.5-2.05-.85 0 0zm-2.38-.23c1.89-.8-2.5-.33 0 0zm-4.97-.81c1.6.76.33-5.34-.65-.64-.07.17.41 1.87.65.64zm6.52-.03c-.02-4-5.16 1.13-.23.42zm-3.56.17c-.41-.55-1.16.59 0 0zm.95-1.52c1.26-1.36 2.6-4.45 1.91-.92 1.96-.23 2.77-3.75 3.24-4.07 1.55-.9 6.16-7.6 2.14-3.68-5.78 6.52 4.44-6.16-.99-4.15-1.48 2-4.77 7.3-5 8.4 4.86-5.89-1.04 3.3-3.75 3.84.3.9 2.36 2.5 2.45.58zm2.56-4.43c-.23-.8.88.25 0 0zm-3.66 1.91c2.47-2.3-3.37 1.45 0 0zm-25.57-1.34c3.34-2.53 1.73-4.3.76-1.15.04.28-2.06 2.13-.76 1.15zm54.03-1.28c-.5-1.49.06 2.08 0 0zm-48.6-1.15c1.15-2.45 2.6-.31 4.92-4.36 1.65-2.65-5.25.18-1.3-1.99-.9-2.73-4.38 2.13-5.3 3.27-4.5 3.8 5.95-3.82.68.93-1.72.78-3.11 3.85-.16 2.82-1.11 2.02.64-.12 1.15-.67zm61.43.98c-.25-1.47-.5.74 0 0zm-12.83-1.21c-.6-1.23-.35 1.06 0 0zm-52.59-.6c-1.12.26-.87 1.09 0 0zm65.2.06c-.18-2.06-.35 1.01 0 0zm-12.73-.67c-.56-.77-.16 1.15 0 0zm-.76-.7c-1.84-.7-1.49.57 0 0zm1.72-.1c2.6-.32-2.09.04 0 0zm10.84-.76c-1.7-.73-1.99.97 0 0zm-10.37-.13c2.2-.64-2.9-9.84-1.7-2.75 1.86.17-.35 3.53 1.7 2.75zm12.67.05c1.02-.65-1.9.2 0 0zm-14.35-.47c.41-1.86-1.01.9 0 0zm12.75-.93c-.58-1.52 0-.32 0 0zm-15.33-.68c.78-1.08-1.84-.14 0 0zm-39-1.01c2.53-2.66-5.95-2.24-1.2-2.16-.34 1.08-.45 2.38 1.2 2.16zM16 253.1c2.26-.5.04-3.07.17-.33-1.65-.99-4.4-2.09-1.1.35zm29.9-.98c-1.47-2.28-3.6-4.67-5.02-6.8-.48-1.3-2.66-3.16-2.1-.65-2.2-2.26-2.6-4.13-.16-2.08-.16-3.48-4.69-4.46-4.8-4.02-3-4.12 1.02 2.25.33 3.24 1.56 3.37 3.75 4.73 5.66 7.47 2.8-.02 2.7 3.82 6.1 2.84zm-67.15-.07c1.7-1.41 5.77-5.2 2.86-4.18 1.65-2.3 4.99-1.24 4.3-2.58 2.58-3-4.18 2.27-.8-1.03 2.09-3.96-6.6 3.73-7.66 5.5-2.25 2.01 2.04-.65.28 1.69 1.45-.46.1.95 1.02.6zm44.46-.37c-.06-3.22 2.08-6.49.75-1.58.36 4.09 3.18-8.48-.32-4-1.05 1.4-1.7 4.48-3.42 1.28.74 1.33 1.38 3.82 2.99 4.3zm1.04-5.15c-.56-1.81 1.3.41 0 0zm-5.9 5.05c1.13-2.06-2.2.65 0 0zm1.48-1.24c-.41-.88-.33 1.35 0 0zm-4.28-.59c1.28 1.04 3.62-3.1 1.03-4.04-1.58.85-1.02 1.71-2.7.15-2.95 2.18-.7 4.82 1.67 3.9zm-2.7-.97c-.95-2.62 2.13-1 0 0zm3.74-2.2c-.44-1.23 1.31.47 0 0zm2.02 2.38c-.25-3.84-1.44.05 0 0zm11.59-1.44c-.64-.97-.28 2.46 0 0zm-18.23-.07c3.24-2.07 2.32-7.38.19-7.7-.8 1.99-1.7 8.3-.19 7.7zm17.2-.07c1.25-4.48.1-2.84-.73-2.5 1.5-3.18-.07-6.63-1.05-2.04-2.94.2-7.45-7.11-9.86-6.47.9 1.7-2.9-1.69-.61 1.73 2.87 3.03-1.04-2.87 2.7.69 1.67 3.04 1.9-.56 3.72 3.24-.2 2.09 3.54 2.85 4.06 4.97.86-.37 1.73 1.98 1.77.38zm-6.58-1.24c2.72-3.4-6.17-7.47-3.4-2.08.55 3.6.57.67 2.58 3.49l.45-.58zm-34.55.08c1.16-2.82-2.7-6.3-.5-1.6.5 1.1-1.44 2.13.5 1.6zm30.11-.49c-.06-2.3-1.76-6.04-1.62-2.65-2.28-4.46.06 4.56 1.62 2.65zm27.83-.31c-3.41-3.84-2.6-4.93-5.66-6.2-1.75-.14-1.9 3.23 1.04 2.47.7.86 2.84 2.36 4.71 3.9zm-56.43-.34c.76-1.52-2.2-6.36-.46-1.06.48-.04-.67 1.85.46 1.06zm1.79-1.52c.34-3.46-1.59 2.22 0 0zm1.27-.93c.58-2.38-1.52 1.08 0 0zm-8.68-.2c-.08-1.46 3.23-.65.47-1.54-.42.26-2.69 2.77-.47 1.54zm6.93-.1c-.21-3.63-2.24-1.04 0 0zm36.5-.86c-.04-.96 2.18-7.32-.68-2.41.04-1.67-4.44-.25-.57.91-2.94-.96-4.35-2.24-1.31.9 1.02-.29 2.44 1.06 2.55.6zm-35.16-.24c-.3-3.2-2.08-.73 0 0zm-4.2-.38c1.28-.89.45-2.65 2.86-5.97-2.06 5.17-4.17 1.28-.9-.05.23-.75 2.26-2.08 2.46-3.13 1.5-.41 3.73-4.02.98-1.99.44-2.14-3.49-.05-2.77 2.26.65 1.08-7.23 7.88-3.58 5.73 2.2-2.14.52 4.54-2.73 1.97.8 1.16 2.35 1.46 3.68 1.18zm17.9-.06c1.83.1 7.18-4.06 5.08-4.07-1.54 1.34-4.84 3.12-5.09 4.07zm11.27-.43c-2.49-4.05-1.4 1.31 0 0zm2.82-.2c-2.55-2.57.7 1.37 0 0zm13.42-.17c-1-1.7-.22.8 0 0zm-40.58-.62c.32-1.38-2.14-.38 0 0zm-6.19.02c-1.26-2.21-2.6.06 0 0zm3.85-.15c-.2-.94-1.43.97 0 0zm23.3-.55c-.64-1.55.17 1.6 0 0zm-18.48-1.48c3.98-2.14-1.16-2.95 4.13-5.13-2.54 2.04-.9 3.47.27 1.67a82 82 0 0 0 8.52-8.46c3.71-2.7 4.7-2.67 6.02-5.5-1.14-1.2-3.43 4.3-5.85 3.47-3.52 3.66-8.93 6.02-11.63 10.01-3.04 2.24-4.5 2.87-5.3 4.77 2.31-1.36 4.32-3.06 1.62.23.92.37 1.43-.41 2.22-1.06zm12.7-12.11c1.44-2.54 3.66-1.69 0 0zm31.42 13.32c-.45-1.47-1.95-4.57-1.74-1.7-3.34-4.47.1 1.55 1.74 1.7zm-7.57-1.38c-2.9-4.48 2.22 4.49 0 0zm-41.6 1.05c1.64-2.03.28-1.46-.2.26zm36-.44c1-1.16.83-4.55-1.3-.75-4.5.36 5.82-5.17-.34-1.97-2.74-.31-6-1.38-2.38 1.52.56 1.76 3.26.3 4.01 1.2zm-4.88-1.35c-4.75-3.52-2.3-.4 0 0zm8.64-.92c-.9-3.36-.22 2.15 0 0zm-18.79.37c3.46-1.13-1.04-6.67-1.87-1.38-.4.98 1.23 2.1 1.87 1.38zm-1.06-.58c-1.89-4.36 4.73-.93 0 0zm.74-.77c1.02-2.48-1.66.73 0 0zm23.01 1.48c-2.2-1.8-.78.48 0 0zm-41.84-1.53c1.4-2.06 1.59-2.75-.08-.28l-.41.8zm22.67-.05c2.2.55 3.29-3.19 1.02-3.15-1.49-.4-3.76 3.33-1.02 3.15zm-.26-.9c.59-2.18 3.49-.22 0 0zm17.15.8c-1.2-1.23.98 1.54 0 0zm-37.63-.15c-.16-.78-1.1 1.28 0 0zm30.64.36c.08-1.88-5.84.25 0 0zm11.26-.23c-.8-2.8-5.53-10.5-5.2-6.01-2.55 1.31 4.22 2.3 3.56 5.54.24.09 2.17 1.74 1.64.47zm.66-.58c-1.28-1.19 1.2 2.14 0 0zm-41.53-.56c2.48-2.08 5.1-4.5 7.64-6.32 2.87-2.58 6.94-5.05 2.9-8.5-.32-2.78-1.66-8.46-.99-1.9 1.57 2.74.62 6.86-.06 1.58-1.47 1.01-.24-4.89-.94-5.96-1.68 1.08-3.76 8.2-2.15 12.02-.72 3.74-4.38 5.61-6.9 9.32-.67 1.02.65-.21.5-.24zm24.41.5c3.52-3.1-4.63-4.2-.88.17zm-.94-.6c-1.13-5.22 3.53 1.76 0 0zm14.26.28c-.27-2.9-1.85.43 0 0zm-9.94-.36c.72-1.1 5.34.53 2.2-1.6 2.04-1.75-1.89-.66-3.35-.99-1.9-1.1-.56 4.24 1.15 2.6zm-.74-.9c-.99-2.65 2.98.24 0 0zm1.92-.32c.4-.61.21-.34 0 0zm6.87 1.39c.94-1.51-2.74-.7 0 0zm-1.79-.38c.3-.98-3.65-.52-.87-1.9 2.1 1.56-2.45-3.6-1.33.65-.39 1.3 1.84 2.27 2.2 1.25zm2.8-1.51c-1.73-1.7.64 1.78 0 0zm-17.6-.32c1.94-1.2 4.86-1.07 6.24-1.45-1.49-2.5 5.13 1.45 3.65-.77-.39-.79-2.92-2.04-4.5-.55-1.72 1.5-3.2-.66-4.24 1.54-1.98-.16-5.53 1.53-2.4 1.28.17.83.8-.19 1.26-.05zm16.03-.03c-2.07-1.85-.58 1.58 0 0zm-1.74-1.88c-1-2.1-3.76 1.26 0 0zm-15.16-.18c2.55-1.6-4.05.52 0 0zm12.35.34c2.34-2.36-2.28-1.37 0 0zm14.65-.5c-2.5-2.27.56 1.1 0 0zm-43.44-.19c.38-3.29-5.6-2.83-2.9-.01.98-1.16 1.91 1.1 2.9.01zm1.37.02c2.3-3.3-2.36.91 0 0zm29.45-.93c3.47.05.65-5.44-.81-4.62-2.65.2 0 2.72-.74 4.12.54.02.93.91 1.55.5zm-8.3-.49c4.7 0 .26-2.95-.88-.43-.97.87.53 1.13.88.43zm4.25-.01c-1.37-1.1.43 1.08 0 0zm-25.39-.91c4.27-5.93-5.75-1.1 0 0zm1.58-.54c1.38-2.3-1.42-7.64 1.24-11 .7-3.35 2.5-7.43 4.08-9.58 4.51-.74 1.76-2.19.75-3.8-2.8 1.16-.92-3.17-4.11-1.43-.8.46-5.1 4.46-1.25 6.1-.11 4.49-1.28 9.34-3 13.91-1.17 1.62-5.78 6.5-1.35 4.45-.1-1.72 2-1.65 2.39-4.02-1.39 4.17 2.7 1.01.9 5.6zm-1.43-5.71c.55-.93.5.9 0 0zm.68-1.55c.59-.73.59.72 0 0zm.6-2.53c-.52-1.65 1.51.34 0 0zm.6-1.64c0-.98.96.67 0 0zm0-1.94c.13-1.54.95.57 0 0zm.32-1.66c.03-1.36 1.3.59 0 0zm1.32-2.27c.03-3.9 3.34-1.9 0 0zm1.52-3.13c2.1-3.12 2.9-.43 0 0zm-2.85-.9c-.6-4.22 1.45 1.3 0 0zm21.84 21.08c1.75-.47-1.76.59 0 0zm2.1.06c-.95-1.19-.9.72 0 0zm-31.1-.6c-.2-3.85-1.85 1.88 0 0zm32.25.13c-2.07-1.12.56 1.13 0 0zm-6.3.09c4.19.4 3.3-2 .2-1.09-.88.25-2.9 1.22-.2 1.09zm4.89-.96c-1.12-.9-.94.65 0 0zm-3.58-1.18c-3.13-1.24-.68 2.12 0 0zm3.27.2c-1.06-1.67-.83 1.1 0 0zm10.66-.14c-2.21-2.39.96 1.62 0 0zm-12.85.27c-.13-1.1-1.16.7 0 0zm-4.89-.74c1.72-1.58-2.5 1.41 0 0zm8.55-.3c-1.82-1.48-.3.78 0 0zm-15.05.07c2.45-1.29 5.98-9.21 1.9-3.3.2 1.33-5 3.7-1.9 3.3zm6.09-.92c.63-1.1-3.73 2.08 0 0zm3.52.76c1.86-1.95-2.51-.34-1.56-.2.46.27 1.03.45 1.56.2zm3.88-.44c-1.8-1.03.46 1.37 0 0zm-15.73-.81c-.33-2-.51 1.95 0 0zm1.17-.62c-.83-.47-.61 1.47 0 0zm14.53.28c-.71-1.93-.57.83 0 0zm1.48-.27c-1.33-2.54-1.07.64 0 0zm-6.54-.75c-.24-1.8-1.98 1.48 0 0zm-10.68.15c3.07.56 7.95-7.98 3.03-2.47-.32 1.76-7.36 1.84-3.03 2.47zm8.2-.34c-.93-1.27-.51 1.2 0 0zm30.26.1c1.45-3.76-3.25.35 0 0zm-23.07-.37c-1.2-1.48.2 1.21 0 0zm-16.82-.78c-.21-1.7-.44 1.88 0 0zm7.81.18c4.17-2.91-1.69.2 0 0zm34.06.18c.31-1.2-2.41.34 0 0zm-3.57-.42c-1.83-1.38-2.15-4.9-5.85-7.2-7.13-4.93 5.25 3.26 3.93 6.7.38.65 1.28.79 1.92.5zm-37.2-.25c1.1-1.15-1.61.94 0 0zm41.92 0c1-1.6-1.79.28 0 0zm-25.76-.3c-.68-1.41-2.27.48 0 0zm24.31-.26c1.05-2.17-1.6.83 0 0zm-2.49-.44c5.57 0-4.9-4.13-3.17-4.75 2.77 2.59 5.8 1.8.98.13-1.57-1.59-7.37-6.12-3.77-1.47 1.1-1 4.18 6.62 5.96 6.09zm-37.35.07c-.1-2.05-4.69.65 0 0zm1.81-.85c3.27-2.27 2.78-3.7-.31-.7-1.77.22-.52 1.88.31.7zm6.58.34c.1-1.32-.96.85 0 0zm32.5-.26c.77-4.06-.63-.88-.89-1.66-2.77-4.63-1.34 2.37.9 1.66zm-33.95-.35c2.11-3.85-1.24.39 0 0zm-9.33.21c.05-2.65-1.46-.2 0 0zm1.17-.98c.93-1.3-1.97 2.08 0 0zm2.46-.1c1.13-1.65-1.89 1.2 0 0zm-.45-1.26c2.99-1.28 3.26-3.53.23-.93-2.17.82-5.72 1-1.17 1.3zm5.52-1.35c1.2-2.78-3.41 3.32 0 0zm34.8-.32c-1.28-2.19 1 2.46 0 0zm-41.41.4c1.02-1.34-1.63 1.21 0 0zm39.23.15c1.7.75-1.76-7.07.34-2.54 3.32 7.62-1.91-7.93-1.86-.78.3.99.3 3.93 1.52 3.32zm-42.18-.09c.15-2.23-.72.32 0 0zm-1.04-2.36c-1.72-1.54 1.22 3.24 0 0zm3.52.99c1.57.92 5.31-4.65 1.67-.78-1.4.14-4.88.83-1.67.78zm36.22-.8c-2.03-1.64-.6-4.03-2.63-5.5-4.93.46 1.85 8.53 2.63 5.5zm1-.81c-.58-3.88-.1 4.1 0 0zm-39.02 1.15c-.31-1.59-.64 1.07 0 0zm29.3-1.26c-.94-.48.6 1.54 0 0zm-29.8.37c-.23-1.42-.87.67 0 0zm1.16-.33c.05-1.02-1.79.13 0 0zm29.2-.44c-.72-2.5-.1 1.15 0 0zm-36.35-.5c-.21-4.88-1.19 2.39 0 0zm69.53-1.17c-.67-6.03-.49 4.46 0 0zM8 208.57c5.97-2.98-4.52.62 0 0zm29.39-.25c-2-2.56-.21.47 0 0zm-9.58-.54c-.53-.69-1.1 2.29 0 0zm10.93.22c-1.38-3.6-2.22.54-.44.18zm-32.76-.6c-.91-.84.5 1.94 0 0zm40.34-.56c.32-3.8-4.49 1.88 0 0zm-37.89-.18c1.17-1.12-2.05.97 0 0zm1.1-1.42c-1.23-2.52-.5 1.46 0 0zm60.37-.2c-1.16-1.25-4.65-6.42-.4-2.43 1.07-1.47-9.14-9.9-3.13-5.18.88 1.76 8.48 6.75 5.34 3.8 3.91 1.08-5.26-5.5-2.58-5-3.52-2.45-6.57-5.13-8-6.02-.9-1.68-2.26-2.18-3.5-.4-2.17 2.26 1.16 4.22 3.06 5.4 1.53 2.76 4.93 4.24 6.06 7.05.42.92 2.47 2.85 3.15 2.78zm-9.47-11.33c-1.3-2.37 2.6 1.04 0 0zm-15.7 11.15c5.02-.06-2-1.37 0 0zm-17.11-.35c-1.33-.09-.1-.06 0 0zm10.43-.3c2.35-2.31 3.3-2.92 1.44-.09 3.83-1.17-1.4-5.28-3.03-.6-.26-.3 1 1.89 1.59.68zm6.46-.93c.8.45 3.88-1.42-.26-.78-1.01.75-.74 1.4.26.78zm-1.07-1c-5.18-4.74-2.38.9 0 0zm22.7.23c-1.06-3.1-4.34-2.92-.34-.04l.48.36zm-21.49-.97c-2.04-4.26-3.21-1.62-.2.41l.2-.18zm18.74-.08c-.22-1.98-.56 1.3 0 0zm-17.82.06c-.25-3.4-2.13-4.98-.55-.49.2.09.2 1.16.55.5zm.78-1.36c.04-3.76-.53 2.74 0 0zm-4.46-.1c-1.8-2.75-3.73-1.95 0 0zm-2.34-.06c-.28-1.3-2.14.1 0 0zm33.77.1c-2.29-1.77 0 .55 0 0zm-47.1-1.06c-.8-4.1-1.4 1.4-.08.77l.16-.34zm36.46.74c-.92-3-2-2.18-4.45-5.59-3.38-2.35-.2 1.62 1.32 1.86.74 1.37-1.82-.63 1.16 1.97.78.36 1.07 1.58 1.97 1.76zm9.6-1.04c-2.45-1.47 1.88 1.67 0 0zm-25.86-.16c3.47-1.67 1.1-2.15 1.88-2.76-.35-1.06 2.9-2.22 4.07-4.12.54-1-2.79 1.47-.04-1.03-1.48-2.22-8.4 6.67-4.13 1.27 2.24-1.92 1.61-5.05-.85-1.02-1.91 1.78-3.7 2.88-3.7 5.28 1.29-.44 1.68 2.47 2.77 2.38zm-.31-1.3c0-1.56 1.48.35 0 0zM44 195.42c.4-2.6 2.67-.08 0 0zm-19.16 2.1c.84-1.8-.03-3.38.03-4.99-2.36 1.27-2 6.3-.03 5zm14.39.32c-1.67-.19.51 1.31 0 0zm2.52.38c-.8-2.52-1.8-.35 0 0zm2.04-.55c-2.3-3.6-1.34.74 0 0zm27.14-.07c-.93-1.4-1.7-.21 0 0zm-30.35-.86c.03-1-1.58.56 0 0zM4 196.38c2.61-2.72-1.73 1.07 0 0zm37.88-.05c-.01-.86-.82.56 0 0zm15.35-.56c-.94-2.5-.43 1.31 0 0zm-7.11-.12c1.7-.73 4.45-4.4 1.3-2.05-.25.42-3.87 3.26-1.3 2.05zm-43.37-1.16c.86-1.81 3.23-3.53 1.4-4.8-2.22 1.24-1.4 4.38-2.25 5.41l.29-.1zm61.6.6c-1.62-1.56-1.66-1.12 0 0zm-51.5-.48c2.73-.24 1.52-.85 3.17-1.43-1.05-1.4-3.05.88-5.11-.96-2.35-1.52 5.21-.8 1.62-2.55.64-.85-4.78.31-6.74 2.25-2.87 3.31-.15.9.6 1.23-.51.35 5.57-1 .65.76-1.46 1.07 5.07-.97 4.88.8zm-6.12-2.06c.8-2.46 4-.8 0 0zm2.94-2.23c.07-.82.9.32 0 0zm41.4 3.38c-1.2-.47-1.2.46 0 0zm-54-.15c1.47-.69 2.83-.31 2.93-2.53 2.1.03 4.38-4.07 1.66-2.26-2.95-3.54.15 1.86-2.54 2.38-2.06.88-2.42-2.2-3.37-1.51-2.2 1.06 3.7 2.79 1.31 3.92zm64.23-1.3c-3.5-2.6 2.6 3.08 0 0zm-10.37.5c1.7-3.27-3.45.88 0 0zm-55.52-.26c-.88-1.96-.37.74 0 0zm5.17-.17c.67-1.22-1.46.47 0 0zm12.48-.5c-.3-.64-2.58.2 0 0zm37.03-.65c.3-3.3 2.12 2.94 1.56-2.04-1.59-3.96-3.08 2.9-1.56 2.04zm8.7-.7c-.98-2.54-3.26-1.97.25.3zm-51.8-.52c-.57-1.24-.3 1.37 0 0zm40.03-.33c-.89-1.58-1.36 1.65 0 0zm1.59.38c.46-2.53-3.16-2-.08.05l.12.06zm4.37-.51c.67-3.26-1.93.9 0 0zm-58.52-.26c-1.54-1.75 2.6-3.27.94-.44.54-2.6 5.6-.1 3.58-3.8-1.57.24 2.06-4.48 2.72-3.93-3.28 1.69-.19 9.08.8 5.5.16 1.64 4.2-3.68 5.17-1.96.2.34-.2 2.23-.25 3.11 1.64 3.19 3.38-3.86 3.24-2.66.99-3.25-6.6-7.59-4.14-5.05-2.96-1.8-6.68-1.14-9.93.35-1.22.82-2.49 4.12-3.07 5.17-.57-1.95-.46 5 .94 3.71zm1.02-.48c-.42-1.42 1.4.35 0 0zm13.04-.75c1.84-2.9 1.8.38 0 0zm-10.95-1.37c.83-1.58 1.12.7 0 0zm4.12-5.72c.43-.25 1.14-1.05 2.13-1.15.47-.04.93.37 1.41.43 1.36.15 2.6.2 2.53.37-.09.22-1.96.46-3.12.65-1.69.28-2.84.4-2.95-.3zm-.7-.73c-.36-1.32 1.53.51 0 0zm5.26 8.9c.98-3.57-.76-2.25-.5.03l.12.2zm48.05-1.06c-.75-.34-.94 1.08 0 0zm-10.23-.27c.4-2.36-.4-.05 0 0zm3-.23c2.19.38 1.71-2.37.17-1.88-1.05-.14-1.93 3.6-2.08.55-.37-1.68-1.47 3.4 1.9 1.33zm4.2-.17c2.02-3.73-5.15-.15 0 0zm-1.19-.16c-1.93-2.97 3.9-.49 0 0zm.87-.72c-.81-1.24-.52.5 0 0zm5.28.64c.95-3.98-1.85 2.32-1.28-1.49 1.12-1.59-6.16 1.67-.53 1.65l1.18-.06zm-3.79-.72c1.39-1.01-.07.95 0 0zm-9.41-.73c1.92-.96-4.73-2.67.03.25zm2.24-.55c1.43.03-1.01-3.54 1.58-1.25.08-1.09 3.32-2.23.44-3.36-1.23-1.77-2.38-2.13-1.15-.2-1.84-.91-6.3-7.59-1.83-2.65 2.61 1.1.81-.29.4-1.27-.45-.94-5.38-6.67-1.6-1.4-2.36-.4-2.66-4.77-3.94-3.54 3.14 3.65-3.65-1.65-.06 2.61 2.31 3.98-3.16-1.51 0 2.06 2.53 1.8 6.28 7.24 1.77 2.62-1.5-1.17-7-4.74-3.15-.48-3.83-2.09-2.83-2.2-1.48.12-1.89-1.2-5.06-2.01-1.46.14-.03.88 2.93 1.32 2.02 2 2.64 2.64.96-2.07 4.17 1.92 1.7.34 2.4 3.03 4.29 2.68zm-.7-3.08c-1.43-2.1 1.54.3 0 0zm-3.43-.65c-.55-1.71 1.7.48 0 0zm6.1 3.67c3.39-3.23-1.2-.4 0 0zm10.27-.21c2.23-.51.49-3.44-.3.25zm-6.53-.16c2.43-2.44-3.57-3.81-.97.03l.43.2zm-.79-.42c-.13-1.29 1.6.78 0 0zm3.64.36c-1.39-2.6-3.03-.77 0 0zm2.37.02c2.09-2.77 3.51-3.44 4.08-5.03 1.85.27 6.88-4.98 6.5-4.6-1.65.53-2.52 1.67-1.2-.57-1.38 1.11-4.9 3.45-2.01-.47-2.23.6-8.92 7.7-4.26 2.15 1.9-1.77 6.09-5 3.64-4.64 5.6-6.2-5 4.36-4.05 2.28 2.86-2.63 2.88-5.27-.16-1.82-2.5 2.72-3.93 6.95-5.97 9.9-.13 1.2 2.06 2.86 3.43 2.8zm-.37-4.7c2.06-3.13 1.7-.07 0 0zm-16.2 4c-.42-2.79-.19 2.59 0 0zm1.9-.28c-1.82-2.49-3.31-1.5 0 0zm19.49-1.46c2.81-2.14 4.45-5.56-.05-1.63-1.42.49-2.86 4.22.05 1.63zm-.19-.76c.8-1.74 2.23-.85 0 0zm-7.84-.7c.33-1.79-1.06.58 0 0zm-4.72-.19c-.77-1.65-.42.57 0 0zm17.44-.82c.82-2.88 1.5-2.8 2.2-4.54-2.8 1.19-3.3 3.9-2.2 4.54zm-11.02-1.91c1.57-2.81-2.94 3.34 0 0zm8-7.28c1.42-1.78-1.87 1.96 0 0zM47.74 233.2c-3.03-1.72-1.95-5.02.15-.92.1.23.82 1.58-.15.92zm-18.43-9.93c-.38-1.32.98.58 0 0zm-.61-5.33c-.7-2.13 2.54.96 0 0zm.4-.9c1.2-3.14-2.03-2.13.65-3.6.25.75.6 3.83-.65 3.6zm-3.1-1.27c-3.73-2.8 3.8 1.54 0 0zm-2.45-2.51c-2.33-.6-3.62-4.47-.21-.81 1.51-.4.83 1.73.21.8zm-4.9-1.57c-.82-1.94 1.74.64 0 0zm-.48-.9c-.27-1.09.97.38 0 0zm2.02-.32c-1.45-2.67-4.48-3.57-3.92-5.83 1.09 1.93 5.63 5.67 3.92 5.83zm2.52-3.4c-2.12-1.6 2.12.4 0 0zm-1.5-.59c-2.24-2.46 2.53 1.06 0 0zm3.35-.2c-.55-1.06 1.54-.13 0 0zm11.6-.8c.22-1.3 1.3.6 0 0zm-21.38-.51c-3.2-2.77 3.04-1.14.69.24.17.54-1-.15-.69-.24zm1.92-2.15c-4.11-3.73 1.34-.88 1.72.88 2.21 2.32-1.39-.43-1.72-.88zm-4.75.8c-.63-1.57 1.33.42 0 0zm.9-.4c-1.26-1.8-1.19.87-2.47-2.65.8-.34 5.04 2.68 2.47 2.64zm-3.2-.58c-.3-1.74 1.48.76 0 0zm-.52-1.13c-3.88-3.09-.65-2.36 1.62-1.42-1.67-.15-.62 2.3-1.62 1.42zm7.73-2.03c-2.12-1.61-10.58-5.61-3.08-2.86 2.2 1.04 6.6 2.48 3.07 2.3.8-.03.4.96.01.56zm3.55-3.72c.2-1.2 1.7-.1 0 0z" style="fill:#000;fill-opacity:1;stroke:url(#b);stroke-width:.203;stroke-dasharray:none;stroke-opacity:1" transform="translate(56.5 -80.04)"/></svg>