<svg xmlns="http://www.w3.org/2000/svg" xml:space="preserve" width="392.78" height="517.66" viewBox="0 0 103.92 136.97"><path d="M61.77 38.61c-.18 0-.02.55.63 1.96-.9-.28-6.08-1.06-7.36 1.76-5.26 3.53.05-.59 1.56-2.43-3.2-.26-6.38 4.13-5.33 7.42-5.65 4.1 3.04.19 3.05 4.37-7.2.39-9.64 10.56-3.78 14.4-1.58 4.46-2.25.48-3.27-2.87-.53-1.74-2.26-2.38-1.91-3.56-6.17-.3 2.67-6.43.78-6.57 4.35-5.13-5.53-.05-5.52-3.26 2.41.87 10.75-1.61 4.75-2.69-5.17 2.99-7.17-5.75-11.63-.09-3.06-3.77-8.39-7.33-9.56.1-5.53.81 3.45 9.04-2.94 6.65-1.7-5.94-3.28-.64-.33 2.15 4.68 3.78-3.6 12.23-3.22 3.67-2.43 1.15-8.4-12-10.97-6.78.27 6.6-2.13.38-2.5-2.2.04-2.23-5.21 4.73-2 7.83 4.2 4.1-.2-1.17.18-4.03 2.5.81 4.9 7.85 3.05 11.69 2 2.15-.1 4.56-1.67 6.85.12 0 .27.23.48.81-.54 2.31-.83.22-.65-.55-1.38 2.06-2.18 4 .97 5.53 7.9-.69-1.18 4.68 2.87 5.3-.46-.26.42-2.74 1.46-1.45-.66 1.03-1.1 1.42-1.33 1.46l.19.02c8.32.03-5.59 2.67-.24 7.4 2.41 5.17-4.7 1.65-3.16 6.9-2.72 4.63 1.02 7.29 1.35 10.92-6.79 5.3 3.29 2.9 4.27-1.42-4.82-.1 0-1.77-1.02-3.77-3.14-.05-.63-.27-2.4-1.65-3.43 3.7-1.81-1.15.21-3.51 1.02-4.4 5.57-.28 2.34 2.77 6.34-2.6 2.09 4.35 6.13 7.37 3.54-1.75 2.71 2.76 4.7-.47-1.84-4.36 2.03-2.73 5.46-2.59 5.4-.92 5.24 2.63 1.53 5.37-1.67 5.89 3.83.31 5.9.12.64 2.73-1.19 6.26 3.26 3.84 4.08 3.99-5 1.34-1.38 4.92 2.83-.93 1.98 1 4.22.5 6.14-3.2-3.3-4.67-.5-6.96 2.5-6.7 8.25-1.07 11.76 2.37-4.4-2.65-11.9 4.44-3.62 7.24 5.08-.04 2.07-.65 1.66 2.57 1.93 2.18 2.78-3.53 4.13-2.35-3.34 6.53 6.79-1.93-.13-2.28-8.58.46 5.08-5.45-.4-8.15 2.16-1.08 12.73.36 6.4 4.33 1.04 4.98-1.79-2.34-2.1-2.68-6.04 5.09 6.91 11.98 5.97 2.5 2.69-2.58-4.45-6.51 1.42-9.37 4.95-4.53 10.27-8.9 13.95-14.1 3.17-2.62.62 1.55.04 4.07 3.9-3.8 2.63 1.02-.32 2.78-1.9-.63-8.55 4.44-10.6 8.08-.59 1.02-3.23 9.64-2.78 10.28.48.69 4.1-6.64 4.7-6.78 2.6-4.85 16-5.55 20.06-8.58 1.44-1.07-2.79-1.73-2.86-3.98-.65-1.88 3.7-3.46 4.5-5.22 1.32-2.83 5.9-9.58 4.43-12.12-.61-1.05-5.65 1.92-6.02.96-.83-3.95-.74-11.6.45-15.35 2.29-2.9 1.54 11.84 5.66 10.7 4.1 2.93 1.28 11.36.23 15.37-7.33 1.11-1.6 7.95-3.45 13.06.8 5.32 7.23-1.8 3.62-.55-5.36-4.3 3.96-9.38 2.86-14.85.38-2.34-.64-16.24 2.07-8.7 1.93-.28-2.16-7.13-4.46-8.79-5.34-4.33 4.13-2.76 1.03-4.97 2.32-.83 2.77-7.3-.8-3.8-2.27 4.75-.6-1.37-3.32-.69-1.78-1.75-5.76 2.8-8.65 4.8-2.99-3.43 7.69-3.53 2.28-8.22-4.1-1.72 1.02-6.82.15-4.3.82 1.35 1.46 1.72 1.9 1.5q.27.67.82 1.24c1.33-.03 2.33-.98 3.47-1.5 4.03 2.34 2.39-1.37 3.29-4.56 6.36.05-4.81-4.92-1.1-1.8-2.52.68-.77 1.88-.84 3.9-5.58 1.48 1.87-10.1-4.65-9.37 1.41 1.51 0 4.45-.81 7.37-.6-1.3-1.68-2.15-3.33-1.38 1.4-6.87-4.27-5.22-8.83-6.52-2.79-3.82 1.18-.64.35-3.12-2.84-6.23-2.02 0-6.17.44-2.92 2-7.97-4.73-8.63-4.7M7.57 84.07l-.12-.01a.2.2 0 0 0 .13.01M3.6 73.24l.17-.26q-.12.01-.17.26m23.14-33.31c-.29 0-.72.21-1.32.78 1.22 3.29 2.58-.77 1.32-.78m33.37 1.47c.5.02.82.63.65 2.44 3.1-2.68-.56.61.27 1.75l-.25.72c-2.62-1.66-10.56.35-3.92-2.93.35.4 2.21-2.02 3.25-1.98m6.06 2.17c-.03 3.22-2.45.7 0 0m4.91.37q1.11-.08 2.18.68c4.99 5.08-3.43-1.53-3.86 2.65 5.46-.14 6.55 6.72-.06 5.4 3.36 4.31-4.62-.19-3.66 3l.22 1.04c-4.2-.52 1.13-6.2 4.34-6.74-6.54 1.05-3.1-5.85.84-6.03m-47.42.42c-.11 0-.4.25-.92.94-.44 2.65 1.36-.92.92-.94m19.86.09c-.17 0-.3.34-.25 1.24 1.92 2.1.8-1.27.25-1.24m-15.99.6c.29-.01.84.41 1.77 1.54l.47.52c.34 6.16-3.47-2.02-2.24-2.06m-8.95.5c-.2 0-.53.08-1.02.34.86.97 1.74-.3 1.02-.34m36.4 1.6c.21-.01.54.09 1.01.4-1.12 1.12-1.79-.36-1.01-.4m6.96.18c1.05.04 2 2.9-.48 4.02-.21-.44-1.65.32-.78-1.14.13-2.16.71-2.9 1.26-2.88m-45.01.3c-.46-.01-1.01.14-1.65.57 3.6 2.53 3.6-.54 1.65-.57m63.86.92c2.07 1.67 3.42 7.3 1.18 10.59-4.23 3.71 6.8 4.6 1.06 5.92-4.57-2.24-5.6 1.12-7.78 3.66-.3.4-.55.82-.9 1.16-1.42-6.05 6-8.74 5.59-13.4 1.17-5.33-1.61-2.73-3.66.3-6.9 2.8.14-1.66 1.48-4.44-1.22-4.68 4.97-.33 3.03-3.79m-44.07.29c4.76 3.7-3.36.89-3.61 4.22-5.06 1.13.26 8.42-4.44 7.24-1.9 1.33-3.77.6-.94-.57-1.22-4.38 3.02-9.8 9-10.9m49.13.05c-.13 0-.3.24-.5.84.9 2.11.97-.89.5-.84m-28.08 2.19c1.07.01-1.34 9.64 3.98 10.02-.68-7.62 8.72 2.53 3.54 5.71-7.8-.97 3.03 4.47-1.67 5.5-2.16.92-4.38-.66-4.7-2.9-.41-2.87 1.53-12.93-2.17-6-1.09 8.82-3.98-1.5-1.51-4.81 3.07.42 1.2-4.67-1.19-.93-4-1.7-.7-4.63 2.11-4.53.87-1.48 1.35-2.07 1.61-2.06m-19.8 2c.64 0 1.1.3 1.23 1.02-5.5 2.03.22 2.12.07 5.37-4.71 4.9 8.28 6.05 1.15 6.32-2.53-.02-5.02 1.44-7.54.6-4.82-3.04.19-.78 2.26-1.82 5.7-3.74-4.46-.87-.77-3.3-5.01-2.42.87-8.18 3.6-8.19m3.5.11c.13 0 .31.26.54 1.03-.88 3.03-1.04-.99-.54-1.03m31.95.18c.12-.01.28.2.5.81-.65 2.76-.94-.77-.5-.81m-12.94.83c-.02 3.22-2.44.71 0 0m-10.2.22q.27 0 .64.12c-.44 3.1-2.28-.14-.63-.12m12.51.37c.33 0 .63.48.76 1.82l.25.82c-3.24 2.04-2.02-2.65-1-2.64m-52.85.45q.51-.03 1.26.13c-1.3 5.46-4.61.05-1.26-.13m31.37 1.2c.15-.02.37.16.68.64-.74 2.26-1.26-.6-.68-.65m28.59.71q.41-.02.94.1c-2.56 3.2 6.58 1.7 3.14 6.47-2.95-1.32-2.03 4.26-3.64 7.9-5.62 6.68.24-3.82-2.98-3.3 1.74-1.26-1.66-11 2.54-11.17m-45.5.2c.37.02 1.06.45 2.2 1.63-1.55 1.95-3.33-1.68-2.2-1.63m53.67.5q.36-.01.97.38c-1.54 1.45-2-.42-.97-.39m-44.13.81a2 2 0 0 0-1.02.34c.86.97 1.74-.3 1.02-.34m-23.35.34c.3 0 .7.19 1.2.65-1.46 4.6-2.79-.68-1.2-.65m-3.26.34q.25 0 .63.12c-.44 3.1-2.28-.13-.63-.12m11.9.06c-.2 0-.46.38-.74 1.43 1.44 1.84 1.34-1.45.74-1.43m-4.49.18c.1 0 .06.31-.3 1.2-2.07 2.35-.04-1.2.3-1.2M42.2 61.1c.33-.02.81.36 1.46 1.46-1.96 2.18-2.43-1.4-1.46-1.46m28.46.37c-.87.03-2.22 1.64-1.88 3.98.72.47 1.74 0 2.02-.78.92-2.3.53-3.23-.14-3.2m-60.82.22c.32 0 .78.32 1.41 1.24-1.9 2.36-2.46-1.21-1.42-1.24m17.27.4c1.19.05 4.78 4.42.41 5.72-3.64 3.3-1.91-2.42-.08-3.33-.9-1.75-.8-2.4-.33-2.38m24.49.33c.15 0 .37.33.63 1.32-1.03 2.18-1.12-1.28-.63-1.32m47.1.27c-.17 0-.2.34.07 1.34 2.37 2.18.48-1.31-.07-1.34m-37.01.18c-.25 0-.66.3-1.29 1.1 1.03 2.31 2.13-1.1 1.29-1.1m-46.3.43c1.44.05 2.83.96 2.57 3.37 1.87 4.88-.3 7.25-4.63 5.42h-.82c-3.63 5.08-.72-2.05 1.8-2.72 4.8 3.05 2.54-5.23-.69-2.76-2.6-1.62-.35-3.39 1.77-3.31m-7.54 1.01c1.17 3.54-3.06.94 0 0m14.57.08c1.92.06.62 7 4.2 5.03 1.38-4.7 9.5.4 10.17-1.56 4.89-2.33 1.21.03.38 3.58-2.11 4.45 9.9 7.9 4.84 8.2-2.28-3.55-10.85-5.45-9.25 1.52.65 7.57-3.35-.87-4.81-2.15-.8 9.39-5.05-5.8.43-1.97 5.04 6.94.84-1.94 2.82-4.75 5.1.6 3.93-4.69-.51-3.2.53 3.26-2.06 1.35-3.8 1.66-1.67.3-2.46 2.86-3.16 4.58-2.77-3.04 1.32-10.36-3.87-9.02 1.23-1.41 2.02-1.93 2.56-1.92m56.73 1.92c.42 0 1.07.31 2 1.17-2.07 2.79-3.5-1.18-2-1.17m-68.67 1.64c.77-.03 1.53.63.78 2.26l-.62.65c-2.16-1.72-1.15-2.88-.16-2.91m40.8.09c7.51-.2-4.33 5.4-4.25 9.54.29 2.13-2.24 2.42-2.94.67.72-1.55 3.24-4.42 2.37-5.58-1.13-1.5-5.74-1.35-4.32-4.1.43-.37 2.98 1.58 5.3 2.54-.7-.59-1.39-3.3.65-1.02-.05.79-.2 1.1-.4 1.12 2.14.82 3.99.67 3.6-3.17m-3.6 3.17-.26-.1q.15.11.26.1m-27.24-.97c3.5 5.12-.66 5.43 0 0m59.68.3q.32-.01.8.04c4.1 1.04 3.3 1.5 2.94 4.84 2.59.17-11.67 7.64-3.44 7.57 4.9-3.26 4.78 6.75.86 1.84.7 2.7-1.2 5.06-5.28 4.67.8 3.37-3.58-.62-3.66 3.47 5.43.77 1.05 2.71-1.87 3.18l-.76.59-.7.67c-5.84 2.07 3.85-2.96-1.47-1.79 2.23-1.4 1.24-7.69-1.9-3.04-2.73-3.26 4.4-5.26 6.6-6.04-3.58-1.86.32-5.68-3.8-6.03 5.53.47 5.36-5.47 9.14-7.22 5.48.05-.74-2.79 2.54-2.76m-41.31.13c.12 0 .29.2.53.75l-.08.8c-.62.4-.82-1.55-.45-1.55m-30.76.07c.16 0 .45.34.91 1.28l.04.24.08.41c-.23 4.56-1.74-1.88-1.03-1.93m67.27.02q.64-.03 1.46.47c-4.03 3.69-3.75-.43-1.46-.47m14.68.32c-.37 0-.91.49-1.64 1.82 2.18 3.2 2.85-1.83 1.64-1.82m-31.62.88c.15-.01.37.16.67.65-.73 2.25-1.25-.6-.67-.65m-44.24 1c.32-.01.81.3 1.53 1.23l-.03.17c-1.58 2.18-2.52-1.37-1.5-1.4m19.73.25c-.85.02-1.67.96-2.37 3.63 8.07-1.42 6.97-3.65 4.47-3.63m35.8.03c.13 0 .1.34-.23 1.3-2.34 2.77-.19-1.28.23-1.3m-16.7.31c.96-.06 1.89 1.47 4.07 2.15 3.16-2.25 3.39 1.2 2.63 4.66-2.37 3.22-4.96-2.33-6.28-3.98-.5 6.35-5.87-4.78-1.43-2.15.37-.46.7-.66 1-.68m-36.57.5c-.16 3.7 3.99 4.75 4.87 7.63-5.48 5.28-10.17-5.6-4.87-7.64m61.32.22c-.1.01-.05.33.3 1.2 2.09 2.37.02-1.23-.3-1.2m-75.38.9c.9-.01 2.31 1.78 1.1 1.88.27-1.92-1.1.23-1.58.49-.37-1.78-.03-2.36.48-2.37m84.98.36c-.24 0-.28.38.16 1.45 2.61 1.35.49-1.45-.16-1.45m-21.55.39c.33 0 1 .26 2.13 1.01l1 .25c-2.05 1.13-4.12-1.26-3.13-1.26m-55.63 1.15c.48-.03 1.09.4 1.45 1.78-2.78-.03-2.36-1.74-1.45-1.78m23.77.38q.35-.01.96.4c-1.54 1.44-2-.43-.96-.4m29.81.95c.48 0 1.09.6 1.33 2.19l-.21.76c-2.31-1.35-1.9-2.97-1.11-2.95m9.29.12c-2.4-.13-5.02 7.84-.46 9.09 6.27-.32-2.27-2.66-.2-5.66-4.33 1.73.02-1.23 2.05-2.16-.41-.86-.9-1.24-1.4-1.27m-23.59.3c.17 0 .12.32-.3 1.08 7.55.88-4.15 3.26-.08 5.54 2.12.51.62 1.07-.6 1.44-5.68-.72.17-8.06.98-8.06m-49.45.91c-.09.01-.03.3.28 1.06 2.39 3.02.04-1.07-.28-1.06m38.8.17q.35 0 .96.4c-1.54 1.44-2-.43-.96-.4m46.61.12c-.48.02-.55.54.75 1.95l.04.67c2.6-.89.14-2.67-.79-2.62m-66.38.08c-.42.01-.9.43-1.25 1.63 2.97.96 2.31-1.67 1.25-1.63m17.04.86c.14-.01.36.16.67.65-.73 2.25-1.25-.6-.67-.65m-25.7.29c.43-.03.83.55.88 2.17l.13 1.5-.3.92c-3.25-.54-1.84-4.53-.72-4.6m44.32.02c.74-.03 1.62.2 2.65.82 1.2 2.36 4.84 2.27 1.22 3.52-.38 3.46-2.7 1.33-2.82-2.28-3.28-.98-2.24 4.15-.42 2.99l-.46 1.2c-3.96 1.73-4.17-6.1-.17-6.25m-15.93.98c1.84-.07 3.56 1.54-.35 2.77 4.03.92.29 1.38.64 3.88-1.85 2.77-2.67-2.21-2.44-3.47-.4-2.29.9-3.12 2.15-3.18m-25.31.7c.35 0 .98.15 2.04.5 5.74.7-1.57 6.06 2.96 6.64-.18 1.65-6.45 1.32-4.97-.76 4.67-1.72-1.91-6.36-.03-6.38m30.2.12c.63-.02 1.75 2.85 2.7 5.27 4.73 1.22-.06.2-2.34.43-1.8 3.94-1.18-.95-.8-2.08-.11-2.62.09-3.6.45-3.62m20.26.12q.36-.02.96.39c-1.53 1.44-2-.43-.96-.4m-62.46.59c-.06 0-.16.18-.3.64.15 2.6.55-.65.3-.64m65.53.66c.3 0 .76.35 1.46 1.36-1.33 2.93-2.45-1.33-1.46-1.36m-31.7.63c.14 0 .35.18.65.65-.74 2.27-1.26-.67-.66-.65m-4.8.96c.44-.01 1.18.22 2.32.88l1.16.54c-2.58 1.8-5.02-1.38-3.48-1.42m31.97.14c.23 0 .56.33 1.03 1.2l-.06.42c-1.1 2.8-1.81-1.66-.97-1.62m21.19.15c.67-.03-1.07 4.81-1.71 6.66-.35 7.87-4.11-2.7-.14-4.36 1.05-1.65 1.6-2.3 1.85-2.3m-57.48.07c.25 0-4.83 2.2-3.03 3.32l1 .39c-3.32 2.78-5.66-2.9-.45-2.86 1.72-.61 2.4-.85 2.48-.85m14.97.95c.23.02.5.28.8.97-1.76 2.09-1.6-1.01-.8-.97m-33.08.14c2.66 3.34-6.05-.06 0 0m22.12 2.72c.2 0 .36.44.38 1.68-2.07 3-1.02-1.68-.38-1.68m2.72.24c.35-.03.82.1 1.43.5-2.15 2.72-2.94-.38-1.43-.5m-25 .29c.16-.01.23.4.06 1.59-1.71 1.91-.51-1.56-.05-1.59m43.07.34c1.79 2.46-3.52 5.17 1.86 3.92 5.38 4.36-.92-2.7 3.64-.37 1.9-.93 3.24-.85 4.04-.24q-.12.24-.27.74c.59 2.04.85.87.81-.11 1.23 2.08-.42 6.42-4.17 6.67-.75-3.2-6.24-2.73-2.62-.57-.97 1.08 2.64 3.52 5.55 1.75 4.89-4.79 2.13-.2 1.24 3.3-.68 1.94-1.93-.03-2.46-.8-3.91-.53-12.4-6.8-3.64-6.8.75-4.24-5.81 1.87-6.59-1.29-4.92.71-2.5-1.35-.87-3.72-5.37-4.53.9-1 3.48-2.48m40.14.1c-1.7-.06-3.9.97-1.21 1.77l1.1.9.63.08c1.82-1.98.8-2.7-.52-2.74m-79.53.02c.18 0 .04.26-.76 1-3.51 1.66.19-.98.76-1m15.42.04c-.46 4.17 2.46 9.5 7.3 10.62-1.7 3.8-6.6-.21-7.21-2.68-6.08-2.08-1.73-4.3-.1-7.94m32.8.29c-.26 1.1-1.42 1.62-2.44 1.68-5.85-1.8.39-.24 2.44-1.68m-20.12.8c1.23-.02 3.42 1.11 3.56 3.15-.05 2.15-2.15.95-2.49-.3-2.49-1.95-2.15-2.85-1.07-2.86m-3.32.21c3.8 4.01 8.41 6.98 11.96 10.94 6.18-3.46 4.1 5.78 8.37 6.08-4 1.93-4.97.46-4.26-3.8-2.66-.83-15.16-4.76-14.5 1.57-3.98 2.3-9.38-3.6-1.68-3.5 7.99-2.06-5.6-10.32.1-11.29m-16.28.02q.3 0 .6.02c-4.21 1.1.05 5.24-2.74 3.92-8.11 1.1 5.73 7.1-2 8.84l-.37 1.01c-5.46.63-1.56-13.48 4.5-13.79m-7.16.25q.29-.01.76.29c-1 2-1.77-.3-.76-.3m11 .26c.31 0 .72.16 1.22.6-2.26 2.5-2.6-.59-1.23-.6m7.35.2c.15 0 .36.17.66.64-.74 2.28-1.27-.66-.66-.65m-22.1 1.54c.16 0 .44.2.88.7-.17 2.9-1.6-.7-.88-.7m2.68 1.41c2.48 5.76-4.49.56 0 0m58.83.29c.41 0 .17.48-1.44 1.75-1.12.72-1.56 2.78-3.28 2.3-.3-1.66 3.8-4.05 4.72-4.05m21.5.12c.5 0 .98.42 1.18 1.65-5 3.08-2.86-1.63-1.18-1.65m-59.91.02c1.6-.07 4.67 1.5 4.16 4.45 1.8 2.69-2.85-.26-2.91-1.19-2.88-2.17-2.5-3.21-1.25-3.26M21.6 97.94q.42 0 1.08.18c-1.35 2.85-3.06-.12-1.08-.18m20.91 1.26c-.24 0-.6.28-1.12 1.05 1.29 2.93 2.04-1.05 1.12-1.05m-11.05.15c-.17 0-.22.28.02 1.05 2.47 1.8.55-1.08-.02-1.05m52.03.05c.19 0 .52.37 1.06 1.33l.5.49c-.61 4.3-2.34-1.82-1.56-1.82m-57.68.32c.91.04 1.9.62 2.29 2.11.7 1.29-.68 2.2-1.68 1.1-3.76-1.34-2.34-3.27-.6-3.2m54.94.42c.23-.01.55.27.96 1.07-1.48 2.73-1.78-1.04-.96-1.07m-78.4.1c-.19 0-.44.77-.71 3.01 1.22 1.93 1.18-3.03.7-3.01m93.4.28c-.56.04-.93.7-.53 2.6 4.26.8 1.86-2.68.53-2.6m-28.87 1.35c1.58 2-1.86.78 0 0m9.78.95q.51-.02 1.22.3c-2.7 1.32-2.68-.3-1.22-.3m-31.46 1.4c.18 0 .46.28.87 1.08-.98 1.63-1.43-1.1-.87-1.08m-2.97.9c.32 0 .78.48 1.4 1.81-1.84 4.42-2.55-1.8-1.4-1.81m24.25.59c-.19-.01-.6.3-1.37 1.22-.02 2.72 2.01-1.18 1.37-1.22m-14.7.36c1.18.07 1.67 1.12-.04 3.94-.31.72-.8 1.47-1.55 1.78-6.92-1.22-1-5.87 1.6-5.72m46.87.41c-1.65.03.28 3.57-.27 5.39-4.59 2.72 1.96 4.04 1.39-.77q.3.3.73.53c-.46 8.58 1.84-2.36-.05-4.54a4 4 0 0 0-1.8-.6m-20.47 1.09c-1.71.07-3.54 2.08-2.92 5.14.3.76.97 1.44 1.81 1.52-1.37-3.73 4.81.65 3.72-2.9 0-2.7-1.27-3.82-2.6-3.76m-73.78.26c-.28 0-.77.3-1.59 1.14.34 3.68 2.67-1.12 1.6-1.14m30.33.7c1.2-.02 2.6.29 3.42 1.05-.71 3.24-2.96 7.51-3.55 1.29-3.18-1.33-1.84-2.3.13-2.34m30.86.2c-.2.02-.58.3-1.21 1.06.13 3.1 2.02-1.1 1.21-1.05m16.49.16c-.58-.03-.88.44-.4 1.83l.08.44.3.33c5.25 1.35 1.6-2.52.02-2.6m7.05.9c-.91 0-1.76.33-2.4 1.11-.06 2.26-4.64 2.02-6.08 3.07-1.58 1.15-.11 3.54-2.27 4.6l-.33.54c-.88-2.6-4.07-1.3-2.31 1.86-4.37.58-4.75-6.88-2.3-7.92-5.07-1.66-2.42 6.78-6.17 8.91-.98 5.7-3.34 2.72-2.7-1.35-3.92-2.1-.56 3.9-2.44 5.44-.48 7.45-7.5 7.78-11.45 2.46-5.83 2.85 4.17 4.94 6.45 6.96-.29 1.43 1.68 1.53 2.55 1.11 4.88-1.76-4.06-1.47 1.97-2.76.4-4.74 4.2-7.81 6.01-1.77q.31-1.09.75-1.68c-1.03.34-1.59-1.97 1.13-1.57q-.15.47-.41.9c1.83-1.07 4.52 1.39 6.85.68-2.38-.37-1.64-3.2-1.17-5.9-6.74-1.47 1.61-4.04 2.92-.9-4.77 5.97 3.56 1.08 4.9 4.16 2.17-3.3 12.74-.1 8.04-4.95-1.47-4.75 3.58 3.42 1.93-2.2 4.14-2.6 2.65-2.24-.16-5.39-1.26.04-2.94-.91-4.17-.04-3.02 2.12-5.7 6.98-10.04 4.45.7-.27 2.28-1.38 2.7-.57 4.94 2.16 9.4-10.82 11.77-5.23 5.5 1.57 5.52-4.91 1.57-4.85m-25.14 20.73q-.39.22-.72.69.35-.1.72-.69M56.6 111.46q.49.02 1.2.47c-2.6 2.67-2.95-.58-1.2-.47m6.6.37c-.12 0-.3.22-.5.84.89 2.1.97-.82.51-.84m-41.65.56c1.65-4.44-6.63.64-7.23 1.74 2.02 3.58 8.4-1.74 7.23-1.74m-12.98.2a5.46 5.46 0 0 0-5.4 4.77c2.15 2.98 4.3-.69 4.23-2.73.96 2.44 6.75 6.36 1.49 7.24-5.04-1.65-2.15 5.33-5.04 3.9-.39 4.73 2.77 5.74 5.26 2.27.52 4.5 5.5 2.59 7.8 5.26 2.73 1.85-1.08-8.46-3.99-9.7 2.98.33 1.05-2.75-.3-4.81 1.25-4.3-1.29-6.28-4.05-6.2m2.27 1.15c.3-.01.7.67 1.21 2.66-1.87 3.71-2.08-2.62-1.2-2.66m13.7 1.84c-7.6 3.42 5.9 7.02-.36 11.8-5.35 2.46-3.26-2.48-.22-3.99-3.75 1.04-2.05-.74-3.62-3.16-5.56-2.02-4.81 8.51.5 8.96-4.13.24 1.28.88 1.23 3.55 2.01.3 4.93-1.62 5.74-1.16 4.05-5.95 12.84 6.63 15.96-2.33-1.3-.6-11.9 3.94-8.52-3.23-3.26-.35-6.5 3.09-4.2-2.43-5.39 2.51-1.77-8.13-6.51-8.01m67.05 1.18c.45-.01.71.51.42 2.03-4.86 2.8-1.77-2-.42-2.03m-84.53 1.77c-.26 0-.53.52-.69 2 1.99 1.55 1.39-2.02.7-2m63.08 1.13c.3-.02.74.26 1.36 1.05-1.6 2.72-2.42-1.01-1.36-1.05m-65.84.68c-.14 0-.28.47-.37 1.78 1.1 2.14.76-1.8.36-1.78m31.26 1.69c-.67-.03-1.02.62.57 2.4 1.64-1.23.28-2.37-.57-2.4m52.03.17c.63-.03 1.2.48 1.41 2.02-5.62 3.1-3.28-1.92-1.4-2.02m-6.55.12c1.62-.02 3.1.72.15 1.73l-1.16 1.12c-2.37-2.03-.6-2.82 1.01-2.84m-36.65 1.3c-.44 0 2.21 6.07 1.48 8.2 1.64-1.46 1.33-3.86.36-5.59-1.17-1.88-1.69-2.62-1.84-2.62m26.45.67c1.99.12 3.8 3.63-.88 2.28l-.86-.06-.3-.31c.45-1.48 1.26-1.96 2.04-1.9m-62.48 1.02c2.44-.13 5.3 1.69.7 2.01-1.04-.45-2.5-.22-2.93 1.08-.55-2.23.76-3.01 2.23-3.09m31.53 1.37c-1.27-.04-2.67.7-.92 2.56 3.64-1.5 2.36-2.52.92-2.56m50.73.12c-.45.04-2 3.6-4.71 2.05-5.1 3.42.9.33 1.87 2.62 1.5.96 2.42-1.4 2.85-2.37.17-1.74.17-2.31-.01-2.3m-63.61.1c.15-.01.08.34-.4 1.3-4.27 4.51-.19-1.28.4-1.3m27.85.22c-.22 0-.52.35-.9 1.35 1.42 2.52 1.6-1.32.9-1.35m-40.74.4c.25 0 .41.3.36 1.06-4.06 3.8-1.41-1.07-.36-1.06m22.58.37c-.06 0-.16.18-.3.64.15 2.6.55-.66.3-.64m-4.74 3.22c-.3 0-.63.3-.94 1.09 2.6 2.58 2-1.1.94-1.09m50.4.3c-.66.02-1.2.33-1.26 1.15l1.17.34c5.2.91 2.08-1.57.1-1.5m8.25.76c-.21 0-.55.1-1.01.4 1.12 1.12 1.79-.36 1.01-.4m-50.74.76c-.3 0-.79.26-1.52 1 1.39 1.82 2.48-1 1.51-1m12.77 1.32c-.12.01.06.35.8 1.26 3.88 2.83-.37-1.3-.8-1.26" style="display:inline;fill:#000;stroke:#000;stroke-width:.135202;stroke-dasharray:none;stroke-opacity:1"/></svg>