<?xml version="1.0" encoding="UTF-8" standalone="no"?>
<svg
   xml:space="preserve"
   width="392.782"
   height="517.663"
   viewBox="0 0 103.923 136.965"
   version="1.1"
   id="svg1"
   sodipodi:docname="smoke_cloud.svg"
   inkscape:version="1.4.4 (dcaf3e7, 2026-05-05)"
   xmlns:inkscape="http://www.inkscape.org/namespaces/inkscape"
   xmlns:sodipodi="http://sodipodi.sourceforge.net/DTD/sodipodi-0.dtd"
   xmlns="http://www.w3.org/2000/svg"
   xmlns:svg="http://www.w3.org/2000/svg"><defs
     id="defs1" /><sodipodi:namedview
     id="namedview1"
     pagecolor="#ffffff"
     bordercolor="#000000"
     borderopacity="0.25"
     inkscape:showpageshadow="2"
     inkscape:pageopacity="0.0"
     inkscape:pagecheckerboard="0"
     inkscape:deskcolor="#d1d1d1"
     inkscape:zoom="2.264761"
     inkscape:cx="220.11152"
     inkscape:cy="365.38071"
     inkscape:window-width="1920"
     inkscape:window-height="1009"
     inkscape:window-x="2552"
     inkscape:window-y="143"
     inkscape:window-maximized="1"
     inkscape:current-layer="svg1" /><path
     d="m 61.774,38.612 c -0.183,0.007 -0.02,0.545 0.63,1.953 -0.912,-0.28 -6.082,-1.052 -7.36,1.765 -5.26,3.533 0.049,-0.587 1.552,-2.431 -3.197,-0.262 -6.373,4.133 -5.327,7.417 -5.645,4.103 3.036,0.19 3.052,4.374 -7.205,0.388 -9.64,10.557 -3.783,14.405 -1.582742,4.451421 -2.250922,0.472438 -3.269438,-2.878146 C 46.739427,61.476177 45.006899,60.84335 45.357,59.658 c -6.164,-0.295 2.675,-6.429 0.787,-6.568 4.344,-5.13 -5.534,-0.053 -5.528,-3.258 2.416,0.863 10.758,-1.612 4.75,-2.69 -5.163,2.986 -7.164,-5.749 -11.626,-0.089 -3.06,-3.778 -8.388,-7.333 -9.557,0.099 -5.532,0.81 3.448,9.04 -2.941,6.646 -1.709,-5.942 -3.287,-0.635 -0.336,2.15 4.68,3.78 -3.589,12.234 -3.22,3.67 -2.425,1.155 -8.4,-11.989 -10.97,-6.775 0.272,6.597 -2.123,0.374 -2.495,-2.211 0.043,-2.218 -5.215,4.738 -2.007,7.84 4.197,4.106 -0.195,-1.175 0.185,-4.037 2.509,0.818 4.898,7.85 3.046,11.69 1.997,2.15 -0.095,4.566 -1.663,6.855 0.113,0.008 0.27,0.231 0.475,0.813 -0.538,2.31 -0.829,0.217 -0.65,-0.555 -1.374,2.057 -2.179,3.997 0.976,5.533 7.898,-0.689 -1.187,4.674 2.87,5.295 -0.459,-0.254 0.416,-2.737 1.46,-1.443 -0.668,1.028 -1.095,1.42 -1.335,1.46 0.060667,0.0073 0.1243333,0.014 0.191,0.02 8.325,0.03 -5.588,2.666 -0.244,7.406 2.417,5.164 -4.687,1.638 -3.154,6.884 -2.724,4.636 1.019,7.292 1.348,10.927 -6.788,5.292 3.29,2.907 4.275,-1.425 -4.82,-0.097 0.005,-1.766 -1.02,-3.768 -3.145,-0.046 -0.636,-0.27 -2.395,-1.65 -3.437,3.704 -1.821,-1.144 0.203,-3.51 1.014,-4.395 5.571,-0.275 2.34,2.776 6.34,-2.594 2.084,4.342 6.129,7.37 3.537,-1.754 2.712,2.754 4.694,-0.473 -1.831,-4.362 2.037,-2.728 5.46,-2.586 5.403,-0.925 5.24,2.629 1.537,5.363 -1.67,5.89 3.824,0.314 5.9,0.12 0.638,2.732 -1.19,6.259 3.259,3.846 4.082,3.985 -5.008,1.337 -1.386,4.918 2.837,-0.93 1.982,1.008 4.228,0.494 6.141,-3.203 -3.299,-4.667 -0.507,-6.959 2.5,-6.694 8.257,-1.066 11.765,2.37 -4.407,-2.649 -11.904,4.445 -3.625,7.24 5.08,-0.033 2.076,-0.646 1.662,2.57 1.932,2.185 2.78,-3.53 4.134,-2.351 -3.343,6.537 6.787,-1.922 -0.136,-2.276 -8.578,0.459 5.082,-5.454 -0.402,-8.15 2.164,-1.075 12.738,0.36 6.398,4.333 1.046,4.979 -1.782,-2.34 -2.09,-2.678 -6.043,5.083 6.91,11.972 5.972,2.499 2.685,-2.583 -4.456,-6.515 1.413,-9.37 4.951,-4.537 10.272,-8.904 13.954,-14.099 3.17,-2.624 0.622,1.545 0.043,4.063 3.891,-3.798 2.625,1.022 -0.329,2.786 -1.89123,-0.6302 -8.545254,4.43403 -10.602784,8.07432 -0.577609,1.02193 -3.222515,9.64218 -2.774626,10.28219 0.483255,0.69055 4.10674,-6.64341 4.700625,-6.77864 2.60432,-4.85112 16.004884,-5.55513 20.059333,-8.57758 1.445786,-1.07778 -2.783576,-1.73658 -2.854548,-3.97929 -0.648614,-1.87949 3.688725,-3.465667 4.501589,-5.2198 1.313896,-2.835346 5.886227,-9.588012 4.421448,-12.123022 -0.606331,-1.049343 -5.644469,1.915479 -6.017602,0.963822 -0.824486,-3.954 -0.741736,-11.61 0.452565,-15.359 2.286896,-2.902 1.536,11.845 5.663,10.698 4.092,2.94 1.277,11.365 0.226,15.377 -7.332,1.11 -1.593,7.946 -3.45,13.061 0.804,5.32 7.234,-1.803 3.618,-0.552 -5.356,-4.294 3.964,-9.376 2.865,-14.845 0.38,-2.344 -0.646,-16.24 2.063,-8.703 1.933,-0.282 -2.153,-7.128 -4.458,-8.787 -5.34,-4.331 4.133,-2.767 1.033,-4.978 2.323,-0.826 2.768,-7.288 -0.8,-3.793 -2.272,4.742 -0.597,-1.373 -3.319,-0.692 -1.785,-1.75 -5.766,2.8 -8.648,4.791 -2.99,-3.427 7.685,-3.52 2.272,-8.215 -4.093,-1.718 1.026,-6.819 0.152,-4.297 0.822,1.353 1.466,1.717 1.91,1.504 0.18,0.442 0.442,0.857 0.809,1.236 1.333,-0.034 2.33,-0.977 3.473,-1.503 4.033,2.338 2.39,-1.37 3.287,-4.554 6.362,0.044 -4.81,-4.927 -1.09,-1.808 -2.527,0.689 -0.78,1.885 -0.852,3.896 -5.574,1.486 1.875,-10.095 -4.65,-9.358 1.416,1.51 0.006,4.445 -0.806,7.367 -0.591,-1.297 -1.68,-2.154 -3.334,-1.38 1.399,-6.868 -4.261,-5.217 -8.83,-6.52 -2.785,-3.821 1.187,-0.642 0.351,-3.118 -2.833,-6.23 -2.014,-0.006 -6.169,0.44 -2.916,2.002 -7.969,-4.737 -8.623,-4.71 M 7.578,84.083 7.452,84.066 c 0.039033,0.01922 0.083269,0.02519 0.126,0.017 M 3.607,73.238 C 3.6643333,73.152 3.7226667,73.066 3.782,72.98 3.702,72.974 3.644,73.077 3.607,73.238 M 26.75,39.93 c -0.29,-0.002 -0.72,0.213 -1.324,0.784 1.22,3.286 2.583,-0.778 1.324,-0.784 m 33.369,1.469 c 0.507,0.02 0.816,0.629 0.654,2.441 3.105,-2.684 -0.567,0.61 0.264,1.745 l -0.244,0.727 c -2.623,-1.657 -10.565,0.35 -3.922,-2.936 0.345,0.4 2.21,-2.02 3.248,-1.977 m 6.057,2.168 c -0.022,3.219 -2.441,0.711 0,0 m 4.917,0.37 c 0.73,-0.034 1.476,0.162 2.18,0.682 4.982,5.082 -3.432,-1.526 -3.86,2.654 5.453,-0.138 6.55,6.713 -0.061,5.398 3.36,4.314 -4.624,-0.19 -3.666,3.001 l 0.219,1.037 c -4.188,-0.516 1.136,-6.19 4.343,-6.74 -6.542,1.05 -3.096,-5.85 0.845,-6.033 m -47.42,0.429 c -0.117,-0.003 -0.396,0.248 -0.92,0.94 -0.446,2.644 1.36,-0.929 0.92,-0.94 m 19.853,0.084 c -0.17,0.01 -0.288,0.338 -0.25,1.24 1.922,2.094 0.805,-1.272 0.25,-1.24 m -15.984,0.597 c 0.284,-0.01 0.837,0.414 1.772,1.548 l 0.463,0.512 c 0.344,6.163 -3.468,-2.018 -2.235,-2.06 m -8.957,0.51 c -0.201,-0.011 -0.528,0.075 -1.016,0.335 0.859,0.974 1.736,-0.298 1.016,-0.336 m 36.402,1.592 c 0.217,-0.011 0.548,0.09 1.015,0.394 -1.118,1.128 -1.791,-0.354 -1.015,-0.394 m 6.966,0.18 c 1.05,0.047 1.991,2.902 -0.482,4.026 -0.214,-0.441 -1.648,0.319 -0.781,-1.138 0.133,-2.168 0.713,-2.914 1.263,-2.889 m -45.017,0.3 c -0.452,-0.007 -1.007,0.148 -1.645,0.57 3.607,2.532 3.6,-0.537 1.645,-0.57 m 63.859,0.925 c 2.073,1.666 3.42,7.304 1.18,10.585 -4.224,3.717 6.81,4.612 1.065,5.927 -4.574,-2.24 -5.6,1.122 -7.783,3.66 -0.296,0.391 -0.544,0.82 -0.901,1.161 -1.418,-6.055 6.01,-8.744 5.593,-13.412 1.171,-5.322 -1.612,-2.72 -3.657,0.301 -6.898,2.81 0.138,-1.654 1.473,-4.437 -1.212,-4.68 4.97,-0.322 3.03,-3.785 m -44.062,0.287 c 4.754,3.694 -3.359,0.888 -3.613,4.22 -5.063,1.128 0.264,8.421 -4.437,7.246 -1.903,1.329 -3.777,0.593 -0.944,-0.573 -1.22,-4.384 3.017,-9.8 8.994,-10.893 m 49.133,0.039 c -0.127,0.01 -0.294,0.24 -0.495,0.84 0.898,2.114 0.972,-0.882 0.495,-0.84 m -28.074,2.19 c 1.063,0.018 -1.344,9.644 3.977,10.021 -0.68,-7.622 8.716,2.53 3.545,5.716 -7.802,-0.971 3.022,4.467 -1.671,5.49 -2.159,0.923 -4.383,-0.655 -4.703,-2.903 -0.41,-2.856 1.53,-12.92 -2.173,-5.99 -1.083,8.82 -3.974,-1.496 -1.51,-4.814 3.069,0.428 1.212,-4.67 -1.187,-0.923 -4.006,-1.703 -0.706,-4.637 2.11,-4.537 0.868,-1.475 1.347,-2.065 1.612,-2.06 M 37.996,53.07 c 0.632,-0.004 1.096,0.3 1.22,1.02 -5.504,2.033 0.226,2.123 0.07,5.373 -4.707,4.894 8.286,6.046 1.149,6.32 -2.525,-0.024 -5.016,1.438 -7.533,0.606 -4.826,-3.05 0.184,-0.793 2.262,-1.83 5.696,-3.743 -4.468,-0.87 -0.775,-3.298 -5.009,-2.42 0.872,-8.177 3.607,-8.191 m 3.492,0.111 c 0.133,-0.01 0.313,0.263 0.539,1.032 -0.873,3.026 -1.035,-0.992 -0.539,-1.032 m 31.955,0.176 c 0.114,-0.01 0.275,0.207 0.49,0.813 -0.645,2.763 -0.934,-0.773 -0.49,-0.813 m -12.939,0.834 c -0.022,3.219 -2.44,0.71 0,0 m -10.195,0.215 c 0.17,0.002 0.379,0.038 0.63,0.12 -0.438,3.102 -2.281,-0.134 -0.63,-0.12 m 12.514,0.371 c 0.325,0.003 0.629,0.486 0.76,1.822 l 0.246,0.817 C 60.59,59.459 61.808,54.769 62.823,54.777 M 9.977,55.23 c 0.347,-0.019 0.764,0.018 1.263,0.13 -1.297,5.463 -4.61,0.05 -1.263,-0.13 m 31.378,1.195 c 0.147,-0.01 0.366,0.162 0.672,0.65 -0.732,2.252 -1.252,-0.608 -0.672,-0.65 m 28.581,0.707 c 0.278667,-0.012 0.593,0.02133 0.943,0.1 -2.554,3.207 6.579,1.692 3.139,6.466 -2.946,-1.316 -2.024,4.259 -3.638,7.898 -5.62,6.685 0.237,-3.82 -2.976,-3.302 1.732,-1.25 -1.66,-10.992 2.532,-11.162 m -45.503,0.199 c 0.373,0.018 1.068,0.446 2.2,1.628 -1.542,1.955 -3.32,-1.682 -2.2,-1.628 m 53.681,0.491 c 0.24,0.009 0.558,0.118 0.962,0.393 -1.536,1.442 -1.997,-0.428 -0.962,-0.393 m -44.135,0.81 c -0.202,-0.01 -0.529,0.077 -1.016,0.336 0.858,0.974 1.736,-0.298 1.016,-0.335 m -23.346,0.335 c 0.294,0.005 0.69,0.192 1.202,0.657 -1.467,4.59 -2.794,-0.685 -1.202,-0.657 m -3.264,0.344 c 0.171,0.001 0.38,0.037 0.63,0.12 -0.437,3.101 -2.28,-0.134 -0.63,-0.12 m 11.9,0.057 c -0.202,0.006 -0.46,0.38 -0.738,1.433 1.44,1.836 1.344,-1.452 0.738,-1.433 m -4.484,0.178 c 0.102,0 0.053,0.317 -0.305,1.206 -2.072,2.345 -0.037,-1.204 0.305,-1.206 m 27.407,1.557 c 0.325,-0.02 0.81,0.353 1.455,1.459 -1.958,2.172 -2.429,-1.402 -1.455,-1.46 m 28.455,0.365 c -0.871,0.032 -2.217,1.646 -1.872,3.985 0.718,0.464 1.732,10e-4 2.02,-0.783 0.918,-2.294 0.529,-3.226 -0.148,-3.202 M 9.825,61.691 c 0.32,-0.008 0.789,0.315 1.415,1.242 C 9.337,65.29 8.782,61.72 9.825,61.691 m 17.264,0.406 c 1.189,0.039 4.782,4.411 0.412,5.718 -3.64,3.297 -1.914,-2.42 -0.082,-3.332 -0.892,-1.754 -0.795,-2.402 -0.33,-2.386 m 24.489,0.336 c 0.156,-0.01 0.371,0.33 0.634,1.317 -1.034,2.183 -1.123,-1.284 -0.634,-1.317 m 47.106,0.27 c -0.175,-0.007 -0.212,0.34 0.071,1.34 2.369,2.173 0.475,-1.318 -0.071,-1.34 m -37.016,0.18 c -0.245,-0.001 -0.658,0.29 -1.286,1.103 1.026,2.306 2.125,-1.1 1.286,-1.103 m -46.303,0.424 c 1.448,0.05 2.837,0.962 2.575,3.368 1.87,4.884 -0.295,7.254 -4.627,5.428 l -0.819,-0.007 c -3.637,5.088 -0.728,-2.044 1.795,-2.712 4.802,3.044 2.54,-5.232 -0.689,-2.765 -2.595,-1.623 -0.351,-3.386 1.765,-3.312 M 7.827,64.32 c 1.172,3.536 -3.057,0.938 0,0 m 14.57,0.082 c 1.928,0.058 0.625,6.996 4.206,5.028 1.374,-4.693 9.49,0.399 10.17,-1.559 4.884,-2.33 1.207,0.034 0.376,3.577 -2.112,4.448 9.9,7.91 4.84,8.195 -2.278,-3.544 -10.853,-5.44 -9.246,1.53 0.652,7.565 -3.353,-0.869 -4.814,-2.15 -0.795,9.384 -5.053,-5.807 0.436,-1.974 5.037,6.939 0.837,-1.938 2.815,-4.748 5.094,0.594 3.927,-4.689 -0.512,-3.195 0.536242,3.253035 -2.057611,1.343307 -3.788695,1.657138 -1.674639,0.303597 -2.467663,2.85239 -3.171305,4.574862 -2.77,-3.042 1.323,-10.358 -3.867,-9.018 1.225,-1.41 2.017,-1.934 2.557,-1.918 m 56.73,1.915 c 0.421,0.002 1.072,0.316 2.005,1.177 -2.068,2.782 -3.506,-1.185 -2.004,-1.177 m -68.669,1.64 c 0.77,-0.025 1.53,0.637 0.78,2.26 L 10.623,70.87 C 8.463,69.153 9.47,67.988 10.46,67.957 m 40.802,0.093 c 7.511,-0.207 -4.332,5.396 -4.257,9.536 0.29,2.137 -2.238,2.424 -2.934,0.676 0.718752,-1.55621 3.23884,-4.421075 2.367129,-5.581831 C 45.305064,71.171397 40.697,71.333441 42.119,68.581 c 0.426,-0.374 2.983,1.576 5.292,2.536 -0.683,-0.587 -1.378,-3.299 0.659,-1.017 -0.048,0.785 -0.205,1.093 -0.397,1.121 2.14,0.823 3.984,0.669 3.589,-3.171 m -3.589,3.171 -0.262,-0.104 c 0.09,0.076 0.18,0.117 0.262,0.104 m -27.248,-0.97 c 3.506,5.118 -0.66,5.427 0,0 m 59.688,0.29 c 0.218,0.002 0.481333,0.01733 0.79,0.046 4.105,1.043 3.308,1.499 2.945,4.847 2.592,0.166 -11.672,7.638 -3.44,7.565 4.894,-3.261 4.785,6.755 0.859,1.845 0.702,2.7 -1.203,5.056 -5.275,4.664 0.792,3.373 -3.579,-0.619 -3.662,3.47 5.426,0.775 1.046,2.715 -1.866,3.186 l -0.767,0.585 -0.698,0.67 c -5.84,2.068 3.853,-2.964 -1.464,-1.787 2.225,-1.403 1.233,-7.69 -1.9,-3.042 -2.733,-3.258 4.398,-5.264 6.597,-6.036 -3.58,-1.867 0.317,-5.687 -3.793,-6.03 5.52,0.464 5.355,-5.47 9.133,-7.221 5.479,0.05 -0.742,-2.79 2.541,-2.762 m -41.314,0.132 c 0.117,0.002 0.291,0.205 0.528,0.746 l -0.074,0.804 c -0.621,0.39 -0.82,-1.557 -0.454,-1.55 M 8.036,70.742 c 0.166,-0.01 0.456,0.337 0.915,1.275 l 0.042,0.239 0.073,0.415 c -0.23,4.56 -1.732,-1.884 -1.03,-1.93 m 67.272,0.017 c 0.424,-0.008 0.918,0.124 1.466,0.47 -4.03,3.688 -3.756,-0.427 -1.466,-0.47 m 14.683,0.326 c -0.37,0.004 -0.914,0.481 -1.645,1.812 2.185,3.2 2.85,-1.828 1.645,-1.812 M 58.37,71.959 c 0.147,-0.01 0.366,0.162 0.672,0.649 -0.732,2.253 -1.252,-0.607 -0.672,-0.65 m -44.237,0.998 c 0.313,-0.009 0.81,0.312 1.53,1.23 l -0.029,0.172 c -1.584,2.18 -2.525,-1.372 -1.501,-1.402 m 19.727,0.255 c -0.846,0.014 -1.66601,0.954 -2.365,3.626 8.062948,-1.42 6.961566,-3.649 4.467871,-3.626 M 71.763,73.24 c 0.124,-0.005 0.1,0.335 -0.231,1.293 -2.347,2.774 -0.191,-1.274 0.231,-1.293 m -16.704,0.31 c 0.956,-0.06 1.886,1.472 4.071,2.154 3.16,-2.255 3.39,1.189 2.63,4.659 -2.371,3.214 -4.957,-2.338 -6.28,-3.985 -0.503,6.352 -5.867,-4.778 -1.431,-2.147 0.37,-0.464 0.692,-0.66 1.01,-0.68 M 18.48,74.044 c -0.16,3.702 3.99,4.76 4.87,7.638 -5.483,5.275 -10.174,-5.602 -4.87,-7.638 m 61.316,0.22 c -0.095,0.01 -0.041,0.331 0.31,1.205 2.083,2.356 0.016,-1.24 -0.31,-1.206 m -75.378,0.9 c 0.901,-0.018 2.315,1.78 1.095,1.872 C 5.788,75.12 4.425,77.273 3.942,77.53 3.569,75.755 3.912,75.173 4.418,75.163 m 84.979,0.361 c -0.236,0.003 -0.28,0.374 0.161,1.443 2.613,1.354 0.492,-1.45 -0.161,-1.443 m -21.544,0.382 c 0.33,0 1.001,0.265 2.126,1.014 l 0.996,0.254 c -2.045,1.122 -4.113,-1.268 -3.122,-1.268 m -55.634,1.15 c 0.477,-0.024 1.09,0.41 1.452,1.782 -2.777,-0.027 -2.363,-1.738 -1.452,-1.783 m 23.767,0.386 c 0.239,0.008 0.558,0.118 0.961,0.393 -1.535,1.442 -1.997,-0.428 -0.961,-0.393 m 29.818,0.946 c 0.474,0.007 1.084,0.6 1.327,2.19 l -0.216,0.764 c -2.307,-1.349 -1.9,-2.966 -1.11,-2.954 m 9.292,0.128 c -2.388,-0.135 -5.013,7.84 -0.459,9.081 6.269,-0.313 -2.271,-2.655 -0.191,-5.652 -4.333,1.723 0.009,-1.23 2.04,-2.165 -0.409,-0.859 -0.894,-1.236 -1.39,-1.264 m -23.595,0.298 c 0.169,10e-4 0.12,0.318 -0.293,1.077 7.539,0.88 -4.161,3.257 -0.086,5.54 2.117,0.51 0.619,1.066 -0.596,1.437 -5.692,-0.716 0.16,-8.057 0.975,-8.054 M 2.048,79.725 c -0.084,0.006 -0.03,0.29 0.282,1.056 2.389,3.016 0.04,-1.075 -0.282,-1.056 m 38.8,0.169 c 0.239,0.008 0.557,0.117 0.961,0.393 -1.535,1.442 -1.997,-0.428 -0.961,-0.393 m 46.615,0.112 c -0.487,0.021 -0.555,0.542 0.746,1.952 l 0.04,0.676 c 2.606,-0.891 0.145,-2.67 -0.786,-2.628 m -66.387,0.08 c -0.418,0.014 -0.9,0.435 -1.25,1.637 2.976,0.954 2.318,-1.671 1.25,-1.636 m 17.04,0.863 c 0.148,-0.01 0.367,0.162 0.672,0.65 -0.732,2.252 -1.251,-0.608 -0.672,-0.65 m -25.705,0.287 c 0.44,-0.024 0.837,0.553 0.893,2.172 l 0.125,1.496 -0.292,0.924 c -3.259,-0.543 -1.85,-4.53 -0.726,-4.592 m 44.317,0.012 c 0.74,-0.027 1.625,0.21 2.657,0.82 1.186,2.363 4.84,2.27 1.212,3.522 -0.38,3.462 -2.697,1.327 -2.816,-2.277 -3.28,-0.986 -2.24,4.147 -0.416,2.986 l -0.461,1.2 c -3.96,1.732 -4.172,-6.105 -0.176,-6.25 m -15.924,0.983 c 1.833,-0.075 3.552,1.533 -0.355,2.765 4.03,0.923 0.288,1.381 0.642,3.88 -1.846,2.772 -2.666,-2.209 -2.442,-3.467 -0.405,-2.287 0.901,-3.126 2.155,-3.178 m -25.317,0.693 c 0.348,-0.004 0.987,0.15 2.04,0.51 5.745,0.699 -1.562,6.05 2.964,6.632 -0.182,1.656 -6.448,1.323 -4.975,-0.762 4.676,-1.718 -1.91,-6.358 -0.029,-6.38 m 30.21,0.125 c 0.624,-0.023 1.745,2.849 2.697,5.266 4.73,1.224 -0.066,0.199 -2.34,0.436 -1.803,3.936 -1.189,-0.95 -0.812,-2.082 -0.102,-2.618 0.093,-3.606 0.455,-3.62 m 20.267,0.114 c 0.239,0.009 0.557,0.119 0.96,0.394 -1.534,1.442 -1.996,-0.429 -0.96,-0.394 M 3.497,83.748 c -0.06,0.004 -0.153,0.181 -0.293,0.645 0.147,2.603 0.548,-0.658 0.293,-0.645 m 65.534,0.664 c 0.29,-0.006 0.761,0.35 1.461,1.36 -1.333,2.929 -2.452,-1.336 -1.461,-1.36 m -31.708,0.626 c 0.148,0.004 0.361,0.181 0.655,0.65 -0.74,2.274 -1.261,-0.664 -0.655,-0.65 M 32.524,86 c 0.433,-0.01 1.178,0.224 2.32,0.883 l 1.161,0.536 C 33.416,89.211 30.977,86.039 32.524,86 m 31.967,0.137 c 0.225,0.009 0.562,0.338 1.03,1.212 l -0.063,0.411 c -1.099,2.793 -1.809,-1.657 -0.967,-1.623 m 21.189,0.151 c 0.674,-0.024 -1.07,4.816 -1.71,6.66 -0.35,7.876 -4.114,-2.689 -0.138,-4.353 1.044,-1.653 1.604,-2.298 1.848,-2.307 m -57.481,0.068 c 0.248,0.002 -4.827,2.196 -3.025,3.32 l 0.992,0.392 c -3.315,2.778 -5.66,-2.895 -0.443,-2.862 1.718,-0.607 2.393,-0.85 2.476,-0.85 m 14.973,0.959 c 0.224,0.013 0.5,0.273 0.797,0.962 -1.76,2.092 -1.6,-1.01 -0.797,-0.962 m -33.085,0.14 c 2.661,3.334 -6.052,-0.068 0,0 m 22.126,2.718 c 0.197,0 0.356,0.44 0.374,1.673 -2.072,3 -1.017,-1.676 -0.374,-1.673 m 2.717,0.239 c 0.35,-0.028 0.82,0.104 1.426,0.502 -2.148,2.715 -2.937,-0.385 -1.426,-0.502 M 9.935,90.7 c 0.158,-0.01 0.228,0.394 0.055,1.585 C 8.28,94.202 9.477,90.73 9.935,90.7 m 43.073,0.336 c 1.79,2.46 -3.522,5.172 1.864,3.926 5.379,4.355 -0.919,-2.704 3.637,-0.375 1.91,-0.93 3.236,-0.848 4.038,-0.232 -0.08,0.164 -0.169,0.404 -0.266,0.734 0.589,2.043 0.854,0.876 0.812,-0.11 1.223,2.077 -0.42,6.42 -4.17,6.671 -0.757,-3.207 -6.247,-2.733 -2.623,-0.566 -0.968,1.08 2.638,3.515 5.545,1.742 4.892,-4.786 2.134,-0.195 1.246,3.3 -0.685,1.939 -1.926,-0.026 -2.458,-0.799 -3.913,-0.531 -12.398,-6.803 -3.64,-6.803 0.751,-4.235 -5.818,1.872 -6.592,-1.281 -4.926,0.711 -2.493,-1.357 -0.873,-3.722 -5.368,-4.528 0.91,-0.993 3.48,-2.485 m 40.142,0.111 c -1.699,-0.065 -3.898,0.96 -1.212,1.76 l 1.102,0.911 0.631,0.075 c 1.818,-1.986 0.8,-2.695 -0.52,-2.746 m -79.536,0.022 c 0.181,-0.006 0.043,0.256 -0.754,1.01 -3.511,1.647 0.187,-0.992 0.754,-1.01 m 15.422,0.04 c -0.459,4.172 2.464,9.51 7.307,10.625 -1.701,3.79 -6.606,-0.218 -7.218,-2.682 -6.08,-2.087 -1.723,-4.311 -0.089,-7.943 m 32.79,0.287 c -0.256,1.097 -1.421,1.624 -2.435,1.684 -5.853,-1.8 0.384,-0.24 2.435,-1.684 M 41.71,92.292 c 1.228,-0.01 3.42,1.12 3.558,3.158 -0.05,2.154 -2.143,0.946 -2.483,-0.308 -2.491,-1.943 -2.159,-2.84 -1.075,-2.85 m -3.32,0.213 c 3.808,4.01 8.415,6.976 11.96,10.933 6.18,-3.46 4.099,5.78 8.366,6.08 -4.002,1.937 -4.97,0.458 -4.26,-3.802 -2.658,-0.821 -15.154,-4.759 -14.492,1.574 -3.98,2.293 -9.388,-3.601 -1.686,-3.494 7.99,-2.062 -5.598,-10.326 0.111,-11.291 m -16.292,0.019 c 0.196,-0.01067 0.394,-0.006 0.594,0.014 -4.204,1.094 0.062,5.242 -2.728,3.918 -8.117,1.101 5.725,7.104 -2.006,8.848 l -0.369,1.01 c -5.46,0.622 -1.557,-13.481 4.51,-13.79 m -7.165,0.242 c 0.188,0.003 0.438,0.085 0.758,0.289 -1.008,2 -1.775,-0.303 -0.758,-0.289 m 10.991,0.258 c 0.318,-0.002 0.728,0.16 1.227,0.59 -2.258,2.497 -2.604,-0.581 -1.227,-0.59 m 7.348,0.19 c 0.147,0.003 0.36,0.18 0.654,0.649 -0.74,2.275 -1.261,-0.663 -0.654,-0.65 M 11.168,94.75 c 0.166,0 0.446,0.192 0.882,0.699 -0.172,2.903 -1.6,-0.697 -0.882,-0.699 m 2.678,1.414 c 2.486,5.756 -4.484,0.553 0,0 m 58.831,0.282 c 0.416,-0.002 0.173,0.487 -1.44,1.758 -1.117,0.72 -1.56,2.778 -3.278,2.3 -0.294,-1.667 3.805,-4.052 4.718,-4.058 m 21.498,0.123 c 0.513,-0.007 0.982,0.424 1.188,1.653 -5.01,3.08 -2.863,-1.63 -1.188,-1.653 m -59.91,0.017 c 1.61,-0.066 4.674,1.511 4.162,4.451 1.8,2.69 -2.852,-0.257 -2.909,-1.185 -2.876,-2.17 -2.504,-3.215 -1.252,-3.266 M 21.61,97.945 c 0.282,-0.008 0.64,0.043 1.084,0.179 -1.352,2.845 -3.06,-0.122 -1.084,-0.18 m 20.912,1.252 c -0.246,-0.002 -0.611,0.28 -1.119,1.053 1.282,2.933 2.038,-1.045 1.119,-1.053 m -11.05,0.15 c -0.174,0.008 -0.22,0.288 0.023,1.056 2.466,1.795 0.545,-1.08 -0.023,-1.055 m 52.026,0.058 c 0.189,0.002 0.525,0.365 1.061,1.326 l 0.5,0.485 c -0.61,4.303 -2.34,-1.819 -1.561,-1.811 m -57.674,0.32 c 0.91,0.034 1.904,0.614 2.285,2.109 0.702,1.283 -0.68,2.192 -1.683,1.099 -3.758,-1.346 -2.336,-3.271 -0.602,-3.207 m 54.945,0.422 c 0.231,-0.01 0.55,0.273 0.957,1.073 -1.474,2.725 -1.78,-1.04 -0.957,-1.073 m -78.403,0.1 c -0.186,0.007 -0.439,0.775 -0.71,3.017 1.224,1.927 1.186,-3.034 0.71,-3.017 m 93.396,0.286 c -0.562,0.033 -0.933,0.701 -0.532,2.595 4.264,0.808 1.864,-2.674 0.532,-2.595 m -28.875,1.351 c 1.585,1.999 -1.854,0.779 0,0 m 9.782,0.941 c 0.337,0 0.75,0.084 1.225,0.311 -2.7,1.317 -2.684,-0.306 -1.225,-0.31 m -31.46,1.4 c 0.18,0.004 0.465,0.288 0.87,1.083 -0.975,1.632 -1.432,-1.095 -0.87,-1.083 m -2.972,0.903 c 0.32,-0.004 0.786,0.478 1.411,1.814 -1.85,4.414 -2.554,-1.798 -1.41,-1.814 m 24.254,0.589 c -0.189,-0.012 -0.607,0.31 -1.373,1.226 -0.017,2.718 2.016,-1.188 1.373,-1.226 m -14.699,0.36 c 1.18,0.067 1.672,1.125 -0.042,3.946 -0.315,0.72 -0.793,1.461 -1.553,1.774 -6.92,-1.217 -0.999,-5.866 1.595,-5.72 m 46.882,0.413 c -1.657,0.028 0.274,3.568 -0.27,5.387 -4.592,2.726 1.958,4.037 1.385,-0.77 0.2,0.203 0.44,0.386 0.728,0.536 -0.46,8.575 1.844,-2.367 -0.049,-4.547 -0.838,-0.432 -1.412,-0.612 -1.794,-0.606 m -20.47,1.095 c -1.719,0.072 -3.549,2.08 -2.924,5.146 0.29,0.761 0.968,1.439 1.814,1.518 -1.372,-3.73 4.81,0.646 3.712,-2.904 0.004,-2.7 -1.266,-3.815 -2.602,-3.76 m -73.774,0.265 c -0.276,-0.004 -0.775,0.303 -1.586,1.14 0.335,3.678 2.67,-1.125 1.586,-1.14 m 30.343,0.702 c 1.187,-0.024 2.604,0.284 3.418,1.045 -0.715,3.241 -2.962,7.514 -3.549,1.288 -3.18,-1.328 -1.846,-2.292 0.131,-2.333 m 30.86,0.205 c -0.205,0.012 -0.585,0.298 -1.215,1.051 0.134,3.096 2.022,-1.096 1.216,-1.05 m 16.481,0.161 c -0.573,-0.028 -0.875,0.44 -0.388,1.828 l 0.072,0.445 0.306,0.327 c 5.244,1.345 1.593,-2.521 0.01,-2.6 m 7.05,0.89 c -0.91,0.016 -1.76,0.337 -2.403,1.122 -0.05295,2.26049 -4.636471,2.01308 -6.076273,3.06568 -1.57867,1.15413 -0.110247,3.54042 -2.269727,4.59532 -0.139333,0.22 -0.247,0.403 -0.323,0.549 -0.884,-2.602 -4.073,-1.311 -2.317,1.86 -4.364,0.573 -4.743,-6.888 -2.295,-7.92 -5.075,-1.665 -2.423,6.78 -6.175,8.908 -0.977,5.693 -3.34,2.714 -2.704,-1.35 -3.908,-2.092 -0.555,3.904 -2.437,5.434 -0.472,7.453 -7.504,7.786 -11.442,2.463 -5.829,2.855 4.165,4.941 6.449,6.96 -0.29,1.436 1.679,1.528 2.548,1.113 4.884,-1.765 -4.058,-1.472 1.967,-2.757 0.401,-4.745 4.196,-7.815 6.015,-1.776 0.21,-0.732 0.46,-1.276 0.744,-1.674 -1.024,0.337 -1.585,-1.976 1.129,-1.574 -0.103879,0.31067 -0.239952,0.60963 -0.406,0.892 1.834,-1.065 4.523,1.398 6.85,0.686 -2.382,-0.368 -1.642,-3.205 -1.168,-5.9 -6.74,-1.464 1.613,-4.037 2.916,-0.897 -4.768,5.971 3.563,1.075 4.903,4.16 2.166,-3.295 12.737,-0.107 8.035,-4.952 -1.469,-4.747 3.585,3.425 1.93,-2.203 4.145,-2.589 2.65,-2.236 -0.155,-5.386 -1.264177,0.0394 -2.943198,-0.90995 -4.175681,-0.042 -3.018208,2.12561 -5.693646,6.97706 -10.036319,4.45496 0.704,-0.276 2.281,-1.387 2.702,-0.573 4.935,2.16 9.396,-10.822 11.772,-5.225 5.492,1.568 5.514351,-4.91778 1.564351,-4.85078 M 69.171,129.722 c -0.26,0.151 -0.502,0.372 -0.723,0.683 0.228,-0.075 0.48,-0.283 0.723,-0.682 M 56.595,111.46 c 0.324,0.021 0.72,0.157 1.188,0.468 -2.596,2.671 -2.94,-0.581 -1.188,-0.468 m 6.604,0.37 c -0.129,-0.006 -0.3,0.217 -0.509,0.84 0.89,2.093 0.97,-0.823 0.51,-0.84 m -41.654,0.56 c 1.658045,-4.43739 -6.630308,0.63665 -7.230308,1.73965 2.02,3.584 8.399308,-1.74365 7.230308,-1.73865 m -12.974,0.192 c -2.438,0.059 -5.055,1.711 -5.411,4.775 2.157,2.979 4.307,-0.687 4.24,-2.729 0.961,2.446 6.746,6.363 1.485,7.245 -5.036,-1.649 -2.143,5.322 -5.04,3.903 -0.385,4.723 2.771,5.731 5.266,2.264 0.52,4.495 5.5,2.584 7.804,5.263 2.722,1.85 -1.087,-8.459 -3.993,-9.696 2.976,0.32 1.049,-2.762 -0.3,-4.823 1.246,-4.29 -1.288,-6.27 -4.051,-6.202 m 2.273,1.156 c 0.291,-0.014 0.702,0.67 1.21,2.659 -1.877,3.713 -2.082,-2.617 -1.21,-2.66 m 13.705,1.842 c -7.593,3.417 5.896,7.017 -0.362,11.793 -5.346,2.464 -3.254,-2.477 -0.22,-3.982 -3.746,1.036 -2.05,-0.74 -3.616,-3.16 -5.566,-2.018 -4.812,8.513 0.495,8.954 -4.126,0.24 1.285,0.884 1.235,3.555 2.013,0.293 4.933,-1.625 5.743,-1.156 4.044,-5.956 12.835,6.624 15.96,-2.338 -1.298,-0.594 -11.913,3.947 -8.52,-3.23 -3.266,-0.348 -6.5,3.093 -4.197,-2.428 -5.395,2.513 -1.778,-8.132 -6.518,-8.008 m 67.054,1.178 c 0.45,-0.008 0.707,0.515 0.411,2.028 -4.86,2.803 -1.764,-2.003 -0.411,-2.028 m -84.53,1.77 c -0.262,0.006 -0.536,0.52 -0.69,2.004 1.984,1.55 1.383,-2.018 0.69,-2.003 m 63.085,1.127 c 0.297,-0.012 0.743,0.265 1.36,1.053 -1.6,2.719 -2.423,-1.01 -1.36,-1.053 M 4.315,120.34 c -0.134,0.005 -0.273,0.467 -0.362,1.78 1.102,2.139 0.754,-1.793 0.362,-1.78 m 31.252,1.687 c -0.663,-0.025 -1.02,0.621 0.574,2.412 1.635,-1.24 0.278,-2.38 -0.574,-2.412 m 52.038,0.172 c 0.624,-0.032 1.196,0.482 1.405,2.025 -5.617,3.087 -3.278,-1.928 -1.405,-2.025 m -6.54,0.126 c 1.617,-0.026 3.09,0.71 0.148,1.72 l -1.161,1.125 c -2.367,-2.034 -0.605,-2.82 1.012,-2.845 m -36.655,1.296 c -0.434,0 2.212,6.083 1.485,8.217 1.637,-1.467 1.324,-3.868 0.353,-5.594 -1.164,-1.889 -1.687,-2.623 -1.838,-2.623 m 26.45,0.671 c 1.99,0.122 3.792,3.63 -0.877,2.276 l -0.86,-0.059 -0.311,-0.31 c 0.46,-1.484 1.268,-1.955 2.047,-1.907 M 8.375,125.32 c 2.443,-0.131 5.313,1.688 0.708,2.014 -1.048,-0.45 -2.494,-0.226 -2.936,1.073 -0.549,-2.227 0.763,-3.008 2.228,-3.087 m 31.534,1.368 c -1.27,-0.036 -2.665,0.698 -0.917,2.56 3.636,-1.492 2.356,-2.52 0.917,-2.56 m 50.728,0.124 c -0.45,0.035 -2,3.607 -4.71,2.051 -5.106,3.417 0.894,0.325 1.872,2.62 1.502,0.957 2.42,-1.399 2.847,-2.377 0.176,-1.738 0.175,-2.308 -0.009,-2.294 m -63.607,0.091 c 0.146,-0.006 0.075,0.345 -0.394,1.3 -4.272,4.52 -0.192,-1.274 0.394,-1.3 m 27.845,0.232 c -0.216,-0.008 -0.516,0.342 -0.89,1.342 1.414,2.528 1.598,-1.317 0.89,-1.342 m -40.737,0.397 c 0.254,0.002 0.415,0.29 0.362,1.06 -4.058,3.79 -1.41,-1.07 -0.362,-1.06 m 22.577,0.366 c -0.06,0.004 -0.153,0.181 -0.293,0.645 0.147,2.603 0.548,-0.658 0.293,-0.645 m -4.734,3.222 c -0.296,0.002 -0.629,0.293 -0.938,1.09 2.59,2.58 1.996,-1.096 0.938,-1.09 m 50.405,0.296 c -0.663,0.025 -1.2,0.335 -1.265,1.15 l 1.173,0.341 c 5.191,0.917 2.08,-1.567 0.092,-1.49 m 8.257,0.756 c -0.218,-0.012 -0.549,0.09 -1.015,0.394 1.118,1.127 1.791,-0.354 1.015,-0.394 m -50.748,0.753 c -0.294,-10e-4 -0.782,0.26 -1.511,1 1.386,1.82 2.474,-0.995 1.511,-1 m 12.768,1.326 c -0.121,0.012 0.057,0.351 0.797,1.261 3.878,2.825 -0.367,-1.304 -0.797,-1.261"
     style="display:inline;fill:#000000;stroke:#000000;stroke-width:0.135202;stroke-dasharray:none;stroke-opacity:1"
     id="path1"
     sodipodi:nodetypes="cccccccsccccccccccccccccccccccccccccccccccccccccccccccccccccsscscsscccccccccccccccccccccccccccccccccccccccccccccccccccccccccccccccccccccccccccccccccccccccccccccccccccccccccccccccccccccccccccccccccccccccccccccccccccccccccccccccccccccccccccccccccccccccccccccccccccccccccscccccccccccccscccccccccccccccccccccccccccccccccccccccccccccccccccccccccccccccccccccccccccccccccccccccccccccccccccccccccccccccccccccccccccccccccccccccccccccccccccccccccccccccccccccccccccccccccccccccccccccccccccccccccccccccccccccccccccccccccccccccccccccccccccccccccccccccccccccccccccccccccccccccccccccccccccccccccccccccccccccccccccccccccccccccsccccccccccccccccccccccsccccccccccccccccccccccccccccccccccccccccccccccccccccccccccccccccccccccccccccccccccccccccccccccccccccccccccccccc" /></svg>
