<svg xmlns="http://www.w3.org/2000/svg" xml:space="preserve" width="578.37" height="230mm" viewBox="0 0 153.03 230"><path d="M35.25 228.3c1.17-6.05-6.08 3.17-3.22-3.92-5.32 2.75 2.57-7.34 5.92-6.7 5.71-4.08 5.76-13.51 10.59-16.74 3.35-5.8 3.06-5.07.16.22-5.99 5.65-3.9 11.28-9.51 15.78-.61 2.72-1.96.9-5.98 3.54-1.63 3.43 6.42-4.4.05 1.92.96-.34-2.91 8.22.66 1.32-.52 2.34 1.85 2.84 3.1-2.2-.87-.55 3.59-.86 4.54-5.26 2.75-4.52 1.64-3.62.5.13 2.38-5.13 3.71-7.25.74-.82-1.76 3.68-1.97 2.87-5.62 6.84-.86.38 1.63 3.87 1.18 3.91 1.13.42 2.3-1.54 3.25-4.67-.08.86 6-2.56 1.08.19-.22 1.38-2.75 4.2.46 1.48-.26 3.68 1.4 3.63 2.67 1.33 1.84 1.52-.21-5.08 1.2-4.96.66.1 1.58-8.4 4.36-10.06-.57-7.54 7.38-13.16 10.09-18.92 1.23-1.9-1.36-4.4-1.4-2.7-1.8-3.11-3.22-8.37-6.05-13.38 1.97 3.98-.45-3.37 1.15-2.38-.99-5.02 2.78-11.72.74-11.48-2.47-1.1-.5 3.58-1.14 4.18-1.07 7.22-.5-13.57 2.53-1.85 2.63 4.65-3.48 16-.1 13.9 6.84-6.7-.08-15.8 2.1-23.13 6.54 2.21-2.51-3.54 1.81-2.15-.7.68 2.81 4.04 3.77 6.86-1.3-5.58 4.47 9.33 1.38 12.5-3.8 3.02-1.51 3.82-2.27 4.99.56 4.4 6.97-7.16 5.17-11.47.94-2.82-4.54-14.22-5.38-8.87-.24-3.66 3.61-.13 2.27-2.01.07 2.96 4.64.05 3.2.32-2.9-5.41 2.66 6.01 2.78 1.83 1.1 3.84 1.83 13 .94 16.13.87-1.04-4.17 2.76-.8-3.12 1.48-3.9-1.1-15.57-4.62-13.8 1.51 2.77 3.37 8.58 1.95 10.7 1.11 4.27-1.56 6.37-.14 9.19-1.61-2.04-5.8 6.66-2.52 3.54.53 3.45 5.85-9.33 4.08-3.2.19 2.44 5.46-6.13 4.54-10.73 1.65-2.46-5.2-11.39-1.3-7.26-3.1-7.51 5.14 9.97 1.44 11.03 0 .74-2.69 5.82 1.08 2.95 1.26 5.51 2.24-.67 2.06-4.12 3.26-2.47 3.78 3 4.68 6.8.22 4.28-.7 6.27 2 4.29 7.13 2.65 3.91 8.56 7.13 15.48-1.37-2.02 2.48-2.1.41-.78-1.57 5.28 6.78 3.16 6.5 4.92-1.01-3.16-.84-5.72.51.46.3 2-4.73-2.2-5.22-1.2 1.92 4.07-.36.72-2.55-3.12-.74-4.18-3.62-18.79-7.04-10.83-4.14-.94-2.79 14.95-4.12 3.94-2.58-2.62-3.45 8.03-4.13 4.57-.16 3.79 7.37 3.84 8.13 7.94-2.62 2.42-2.3 6.46-4.24 5.6-1.63 4.58-3.65 9.99-9.36 9.62-2.73 1.29-4.25-1.32-6.97.18.41-5.99 6.6-4.36 9.86-6.72 6.58-2 3.48-15.21-1.19-10.6.62 4.08-5.51-6.29-2.07-9.4 1.52-4.35 7.65-12.24 4.2-15.03-3.22 2.03-2.5 3.23-5.43 4.35-.86 3.14-1 6.8-1.6 7.88-.02-3.04-.9-9.45-4.5-3.59-1.03 7.1.63-2.14-2.96.14-1.25 5.12-1.94.67-2.08 2.6 5.6 2.03 2.41 10.57 1.25 11.4-.49-6.1-2.72 7.16-2.86 2-2.1 3.43-.43 7.16-2.66 3.47-2.8 1.62-3.38 13.43-4.34 11.84.35-3.26-2.62 2.62-2.08 6.41.92 4.14-6.16 10.52-6.92 6.13-1.89 1.61-4.85-.24-5.84 2.37zm.33-.46c2.85-2.03 1.95-7.78-.16-.8l.06.97zm6.2-.8c3.86-5-.6-3.55 0 0zm-11.31-1.86c5-3.11.84-6.34 0 0zm36.43-10.03c3.17-3.01-.27-3.96 0 0zm3.74-.87c2.75-5.1-3.47 2.96 0 0zm2.3.35c1.63-1.61.96-1.17 2.3-1.17 1.53 1.14 1.67-.96 1.5-1.78 3.57-2.04 3.68-9.86 7.02-10.94 3.53-5.36-9.64-4.16-6.9-10.37 2.99-4.24 8.05-8.64 6.63-8.97.74-3.93-2.23-1.79-.61-4.08-1.54-4.63-4.97 5.75-2.02-2.13-1.18 1.1-.63-3.32-1.9 2.42-.62-8.33 4.45 1.47 4.26-2.47-1.67-1.8-5.36-3.94-.61-1.17.78-1.83-5.17-3.8-4.3-.85 1.46-.32-1.65 3.16-.84 2.46-.15-4.6-1.6 8.55-.72 1.24-1.6 5.73-8.38 13.25-5.75 17.92 2.66 3.3 1.2 3.81 2.51 1.15 2.81.03 8.76 6.08 5.37 3.4.33 4.15.17 3.5-.22.59-.15 4.13-3.47 8.98-6.05 10.11-4.22-.83-5.22 1.81-6.94 2.26-3.26 6.03 5.72-5.04 5.16-1.22-4.33-1.73-2.73 4.87-1.38 3.17 1.1-3.65 7.27-5.5 4.19-2.9-2.77-1.66-3.63 3.49-1.63 2.96 1.68-.27-1.75 1.25.93.37zm4.42-18.98c-.7 1.18-2.01-1.42-1.18-2.63 1.87 1.9-1.34 1 2.39 3.4zm-5.32-1.8c-1.65.42 3.48-4.56 1.76-1.84 1.34-1.65-.68 2.5-1.76 1.83zm-16.36 8.34c1.68-6.94-2.2.57 0 0zm26.35-14.12c2.1-5-1.33-3.65-.69-.36.34 1.39.43 2.89.69.36zM68.6 183c.6-3.82 1.31-6.58-.38-3.6-1.63-1.66.91 9.08.38 3.6zm-5.2-.7c2.27-2.91-1.66-1.57.71-3.05 4.9-3.44-.95-2.5-2.42-1.18-1.05 3.21-1.6 2.2-1.56 3.85 3.61-3.23 2.9 3.5 3.27.38zm-5.16.27c-.06-2.28 6.13-5.18.55-4.37-2.92-3.34-.82 5.49-1.37 3.81 1.06-.1-.25 1.17.82.56zm26.87-1.1c3.72-3.9-3.36 1.72 1.33-2.69-2.18-2.72-3.9 6.38-1.33 2.68zm-25.06-3.2c3.32-3.74-1.14 2.62 2.87-3.09 3.7-6.46 2.77-15.74-2.17-21.1-4.84.6 4.57 8.91 2 13.4 1.65 3.52-6.1 10.53-2.7 10.8zm-.41-2.66c5.35-4.45-4.56 1.46 0 0zm-4.41-1.3c5.34-3.8-.6-6.37 0 0zm5.22-.4c3.4-3.77.3-7.18 1.77-9.77-2.1.82-.4 4.05-2.07 7.36-.34 2.89 2.38-1.44-.23 2.55zm22.42-1.68c-.93-2.32-2.32-5.81-4.03-2.77-1.02 1.95 3.68 2.86 4.03 2.77zM56 169.91c3.18-6.03-.27-4.7-.41.52zm10.16.34c1.83-7.75-2.58-1.54-.4-.36l.04.5zm-10.56-2.12c2.55-7.77-1.28-2.25 0 0zm5.24-3.14c2-5.68-2.35-1.74 0 0zm4.76.37c1.14-3.71-1.08-8.78-.32-1.75.7-4.03-.23 3.96.32 1.75zm-5.44-3.13c2.6-4.65-1.79-1.52 0 0zm-.23-2.56c2.8-1.46-3.8-3.83 0 0zm47.6 62.68c-.35-5.14-4.45 2.06-4.41-2.56-4.66.8 4.35-6.07 3.8-9.48 1.44-2.93-3.83-14.13-5.28-9.28-.04 11.34-2.17-8.41-.92-.2.72 5.93.18-6.92 4.96.54-.42 1.66.7 2.14 1.26 2.5 1.29 3.76-1.35-1.39.24 4.84.63 4.56-1.61 6.4-3.75 7.77.02 1.93.94 1.3 2.34 3.65 2.4-1.64-.53-5.26 1.58-4.83 1.26-2.97.03-7.1 1.22-2.93-.46 3.36-1.27 3.68-1.36 7.43.78-4.25 1.89 2.36 2.52.68 1.32-1.85-.53-6.33 1.03-2.32-1.11-4.81 4.52-1.66 1.66-5.88-1.81-3.34-1.73-10.06-2.16-12.29-1.46-2.9-7.34-2.7-7.36-6.24-1.68-1.01-5.6-7.16-5.09-9.53.05-8.87-.35-14.35-4.73-19.23 1.02-.12 3.61 5.47 5.34 7.72 1.3.04.6-2.95-1.1-3.31-3.15-1.55 1.81-5.86-3.61-4.8-2.2-2.32-3.32-1.6-3.61-3.38 1.2-.94-10.83-2.37-4.18-1.85.32-2.03-4.1-.3-4.17-1.1.14-1.7-4.7-2.71-2.11-4.7-1.15-2.54-2.1 4.29-4.06.25 2.67 2.67-3.82-3.53-1.87-2.17 2.29-5.03-1.3.36-3.22-.62-.85 1.75-1.06-1.24-3.16-1.54 2.05-3.35-1.25.05-2.9-.7.91 2.41-.22-1.04-2.73-1.13 4.12-4.3-2.13-3.33-1.15-.55-2.8-.04-1.12 1.18-2.72 1.36 3.14 2.32-1.74-2.27-2.47-1.18-4.85.86 4-.73.76-5.32-2.41 3.43-4.9 6.85-4.62 6.68-1.02.97.31 2.74-1.61-.22-3.26 4.28 1.61-9.4-2.68-1.57.63 4.97-3.33 1.2-1.53 4.63-1.09 1.86-4.97-1.3-3.6-.34-.22-8.4-2.33 2.3-3.1 1.2-1.16 2.35.95 2.94-3.32 1.63.06 1.8-4.82-4.85-.4 1.08-.7 2.1 2.9 2.44 2.43 1.57-1.96-1.72 2.92 1.64 1.47-.54 1.77 3.92 1.06 6.97.35 9.62-.33 2.21-.59 1.71-2.23 4.1-2.2 4.24 2.02 1.21.32 4.07-3.25-5.03-3.74 2.52-3.56 2.08 3.4 3.17.02 1.18 3.08 6.43.58 3.61 2.6-2.7 3.74 1.87-.19 3.25 4.11-1.03 2.6-.09-.2-.84-2.6-3.22-2.95-1.19-1.46-5.65 2.99 1.1 2.96-2.54-2.96-1.25-1.72-5.5-2.9-5.86-1.43-3.88-.41-4.02-.54-6.93.13-1.81 1.3 4.18 1.1-1.04-.68-3.1 1.74-4.34.6.6.08-.63 3.77-9.2 2.86-7.14 1.78-1.44 2.23-4.22 1.3-3.65 2.92-3.37 6.38-3.73 2.57-1.63-4.7 6.81-5.84 12.17-8.22 17.21.3 6.83 3.65-5.78 1.2 2.07-.72 3.94 8.26 6.84 9.09 13.61.78 6.1.7-3.36.67 4.08.95-1.58-.42 4.57-.82 3.07-1.95 3.98-5.36 7.44-9.38 7.18-2.2 3.88-5.2-6.23-7.04-1.05-2.04 1-.42 3.95-2.7 2.04-2.22 4.6-5.36 10.82-5.44 10.35-1.93-2.34-4.05 5.6-8.03 5.07-4.58-.68-7.15.75-8.83-.68-4.63.75 1.47-7.37 6.02-5.9 6.8-1.6 9.18-9.35 14.58-13.77 4.8-4.56-5.87 5.75-6.63 8.65-2.94 3.26-4.37 4.93-.16.93-2.14 3-9.03 6.3-7.88 5.73-4.47-2.19-4.32 4.7-3.01 4.42 2.46-4.8 8.1-4.5 10.4-8.17-1.31 3.1 5.52-7.49 1.54-1.17-2.86 3.09-4.58 4.53-5.6 5.57-.72-.9-5.53.95-2.38 2.94-3.6 2.86 5.6-1.07 3.41.11 1.56-.51 3.69-1.08 2.68-2.47 1.34 0 2.35-3.97 5.33-5.52 3.63-1.42.01-4.28 3.04-7.62 4.48-4.72 1.5-4.5 2.04-8-1.8-3.7-3.02-8.32-2.47-12.92-2.16-4.65-.43-7.35-2.38-9 .47-5.67-5.64.66-4.44 3.94-.67 2.66.88-5.54-.85-3.2.27-1.48 4.6-2.38 3.33-7.34.64-2.38 3.54-6.84 2.26-7.97 2-.43 1.19-4.92-1.56-.66-1.12-.8 1.46-1.43 2.16-2.68 2.8-.79 2.2-5.16 3.33-6.43-.38-1.25 4.7-8.03-.63-3.2-1.6 2.97-3.25 2.06-3.31 4.51-3.43 1.09.91 2.74-1.55 4.77-2.43 3.63-.74-2.98-1.16-2.97 1.66-2.8 10.85-14.35 8.54-5.47-.24-.03-2.99.42-1.21 3.7-4.75.39.24 5.62 2.72 3.37 1.8 1.65.77 3.22 2.11.6 2.08 2.3 4.69-11.23 5.26-2.15 5.01.27 6.87-11.74 7.45-2.3 3.98-.49 7.4-11.89 6.02-1.66 3.25 3.52 8.8-7.44 7.05.73 2.92 2.94 5.76-2.27 6.03 2.96 3.23 2.14 7.43-4.75 5.45 1.63 2.89 4.12 6-1.75 6 3.96 3.64 2.76 4.73 1.24 7.54 4.29 3.33.5 5.85 4.91 9.35 5.79-4.53 3.52 6.28 4.1 3.95 5.35 1.49 3.2 5.65 2.48 6.62.7 1.84 4.68 3.5-4.15 4.32-1.27 3.03-1.18.56-5.02 3.22-4.1.01-4.49 2.55-3.61.65-8.77 2.2-1.87-.46-6.2-.37-9.65-2.36-6.56 4.1 5 3.3 6.67 1.44 2.15.1 5.96.72 10.14-2.1-2.47-.1 10.89-1.9 3.22-1.92 5.3-.73 8.33-1.64 3.25-1.15-.47-1.66 3.16-.63 3.22-.46.12 1.21 6.39.83-.2-.37 11.16.4-2.08-2.98-.32-2.42 2.58-1.39 6.32-2.6 4.07-.55 6.99-.58 5.34-1.72 2.24-.66-6.47-3.93.62-5.42-3.47-2.96 1.41-1.02 8.57-2.56 2.4-.16-4.49-3.72-4.2-3.42-2.73a21.2 21.2 0 0 0 5.78 17.65c3.64 4.07 9.7 4.34 7.62 11.63-.37 5.22 5.7 10.37 2.2 14.72-1.4 1.5-4.01-1.9-5.81 1.83zm.31-.67c2.38-6.25-1.76-2.9 0 0zm-3.52-.55c2.06-5.84-1.7-.38 0 0zm8.15-.6c.49-7.07-2.01 3.06 0 0zm-10-.52c3.55-5.03-1.65-1.85 0 0zm9.07-.13c-.88-4.24 1.86-.38 2.1.18 0-1.9 2.08-2.54-1.76-4.73-.82-.55-1.45 4.94-.34 4.55zm-98.8-1.28c3.88-2.08 1.88-5.78-.2.27zm-3.52-.02c5-3.59 0-5.29 0 0zm-1.88-1.4c4.79-1.43 2.71-7.03 0 0zm3.23-2.57c2.16-1.44 12.58-5.7 5.64-2.53-2.31-1.05-8.38 1.71-5.64 2.53zm15.7-1.66c2.95-6.1-2.96-.91-.5-.99.2.04.38 2.81.5 1zm3.86-8.8c3.2-2.96 6.55-9.95.88-2.9-1.07.13-3.1 6.23-.88 2.9zm1.81-4.28c4.66-5.99-3.05 2.15 0 0zm9.55.74c4.36-.93 7.94-5.07 9.27-9.66.36-4.38-2.31-5.52-2.63-2.7-2.68-7.54-2.93 10.84-3.59-.26-1.54-6.63-4.23.04-2.39 3.4-.44 2.96-1.12 7.37-1.11 1.95 1.18 2.98.18-5.95-.24-3.84 1.32-3.39-2.38-7.57-1.3-4.63-1.95-5.23-1.8 4.75-2.69-2.64.13 3.84-2.78-8.27-2.23-2.66-1.76-3.96 1.74 7.6-.59.41-3.09-2.22-2.06 7.8-1.48 9.3-.25.52 2.04 4.63 3-.77 1.58-5.22.86-2.06 1.23-.27-2.95 5.25 0 .36-1.46 1.06-3.91 5.4 1.8 5.4.5 3.95 7.14-5.09-.78-.61-.5 2.61-.55 2.1 5.08-2.94 2.4-1.44 3.74-4.65 3.87-1.92 1.11.59.58 3.1-3.65-.21-1.2 4.08 1.27.43 2.99 1.4 3.9 1.52zm-6.11-3.06c-3.95-6.16-3.4-.62 0 0zm-1.78-2.94c-1.4-5.25-2.6-2.7 0 0zm11.84-6.26c.28-4.77 4.42-.49 3.12-3.25-1.25-1.92-3.52-.45-3.06 1.23-.97.29-1.52-1.38-.33 3.94l.1-.8zm-.62-3.7c.47-1.43 5.42-.55 2.07-2.33-1.34-.3-2.65.85-2.22-3.06-1.99-2.08-1.68 5.07-.5 4.27-.71-6.37.65 4.61.65 1.11zm65.55-3.78c-.17-1.66 1.7-5.73-.85-4.69-2.82 1.8 2.08 2.9.64 6.47l.09-.64zm-79.52 1.78c.31-2.85-.88-6.87-.21-1.03l.06 1.1zm71.12-2.83c-.6-2.24 3.28-5.28 2.55-3.62 2.07.08 3.18 1.94 3.53-1.46 1.5 1.76-1.48-5.91-1.09-.8-3.5-.63-1.16 1.97-3.2 1.1 1.27-1.09-.56-3.04-.75-1.43-3.77 1.01-.07-6.1-3.16-2.47-.2.12-2.6 3.54-1.3 4.26 2.25-.62 5.3.56 3.57 1.48-1.52-3.51-.84 3.54-.15 2.94zm-69.85-.87c4.55-3.96-3.9-8.86.52-1.64-.42.9-3.3 2.79-.52 1.64zm-2.35-.2c.66-5.48-2.71-7.15 0 0zm2.57-1.21c1.25-8.35-4.05 2.87 0 0zm-1.66-.31c-.7-7.36-1.81 4.08 0 0zm80.99-.2c1.46-3.38-1-4.7-2.78-3.6.03.87-.5 4.1 2.25 1.76-.87.02.78 4.3.53 1.84zm-80.94-2.44c1.34-3.13-1.45-2.75 0 0zm82.43-.44c2.58-.74 1.46-5.16-.29-2.7-1.16-3.92-2.08.96-1.1 1.03 2.12-.16-.12 2.34 1.4 1.67zm-79.45-1.44c4.33-2.81-1.75 1.24 1-1.3-2.65-1.86-5.7.98-1.96.9.02.44.57.75.96.4zm-4.4-.9c5.03-2.94 4.36-2.16-1.2-.9-.4.7.53 1.2 1.2.9zm-1.47-1.5c.7-2.35-.12-3.06.62-4.5 4.08 2.13-.99-.19.46 2.32 1.2-.36 1.98.74 3-1.08.07 4.63 2.76-3.6 2.7-3.31-2.64-3.4 1.92.83.34-4.16 1.36-1.39-1.78-4.04-.33-4.32-2.55-2.12-.23-1.74-4.13-2.98-1.73 2.24.86 3.45-1.16 4.07 2.14 2.97-2.74-1.89.1 3.42-2.23.57.62 1.5-.94 3 1.89 2.3 3.19-.6 1.36 1.41-2.75 1.02-1.35-5.2-2.74-2.61-.06-.12-2.53 4.63-.4 4.02-.56.48-1.6 1.8-.2 2.89 1.47-.13.83 5.32 1.32 1.84zm6.3.88c-.12-1.45 1.09-.27.5-1.8 2.74.05-3.38-.36-.5 1.8zm81.43.02c2.13-1.2 1.67-4.06-.38-3.42-2.55-3.08-.91 3.91.38 3.42zm-78.78-1.67c4.2-2.1-1.84-4.92-2.57-1.64-1.7 2.16 3.87 1.49 2.57 1.64zm-3-1.23c.92-6.56 5.19-.15 5.73-5.08 1.68-4.5-1.25-6.15-3.5-6.49-.57 4.04.36 3.02-1.13 7.64 3.62-4.96-4.51 7.2-1.1 3.92zm3.83-6.18c-.15-.2-.27-3.49.9-1.6-2.33-.34 2.73 1.15-.9 1.6zm81.07 5.8c-1.42-2.73.97-2.72-1.77-4.58-1.8-.8-.91 3.73.53 4.97.7-3.28 1.3 3.36 1.24-.39zm.93-4.98c-.65-2.14-2.33-3.73-1.84-4.22 1.07.27 2.91-1.33.9-2.6.04-2.64-1-6.68-3.47-10.26 2.45 4.8.75 6.25 2.2 9.12.57 3.19-1 2.76-.51 7.53.3.02 3.94 2.5 2.72.43zm-70 47.75c.82-5.15 2.5-11.57 7.18-15-3.49 4.83-1.08 1.66-2.87 3.63-3.64 5.38 2.15-2.76-1.63 2.88-2.57 3.71-.8 5.12-2.69 8.49zm57.56-9.95c-4.6-2.7.49-.2-3.7-3.69 1.5.74 3.4 2.18 3.7 3.7zm-52.31-6.1c4.17-2.22 1.58-9.88 3.48-6.46-.48 2.75-1.47 5.46-3.48 6.46zm39.66-1.47c-4.35-5.38 1.9-8.66 1.53-1.41.18.73-.78 1.92-1.53 1.41zm.88-.25c-2.77-3.95 1.1.16.16-2.66-.21-2.3-3.03-3.9-1.86.19-.45.46.7 2.7 1.7 2.47zm4.9-.37c-2.56.47-2.82-4.38-2.18-4.1-.29.25 2.92 4.27 2.17 4.1zm-47.36-.62c.26-1.93-1.79-10.92 1.3-3.7-1.16 1.1-.95 2.32-1.3 3.7zm.43-2.95c.2-.67.08-2.98-.86-2.67-.03-.15.04 2.54.86 2.67zm-36.87.04c.19-5.4-3.13-5.17-2.99-2.51-2.94-5.04-2.5-6.64-1.6-6.76 1.41-1.43 2.21-3.54 2.5-6.13 1.21-.82 1.16-1.67 1.4-3.05-1.64-2.34-1.17-.18-2.82-.28.68 3.14-2.95-1.1-1.34 3.66-4.91-5.1 2.95 7.46-3.28.96-.32-1.08.06 2.62-1.93 1.74 1.7 4.9-5.6-2.44-4.76-5.74 1.75-3.33 3.85-7.4 3.28-11.28 2.28-4.7 6.9-14.87 10.24-14.02-2.5 4.38 3.52 1.19 5.8 1.43 4.62-2.86 10.58-5.72 14.48-10.08 2.34.5-2.6 6.01-.45 4.63 1.87-7.77-1.19-1.55-5.09.82-.73-.6-10.34 6.6-9.62 5.77-2.32 4.43-.1-1.6-.01-1.01-6.24 3.46-.71-1.29-7.53 3.22-4.16 1.54-5.33 5.01-8 9.85-1.25 3.77 2.81 1 1.12 3.48-1.9 4.5-2.86 4.28-4.24 6.85.77-.92 4.38-1.5 3.53-2.31.64 1.44-1.6 4.29-2 2.23.3 2.35-1.98-1.78-.46 3.45-.3.92 4.14.74 2.92-1.17.43 1.46 1.71-.04 3.62-.83-1.32-2.47 2.29.6 1.83-3.49-.99 2.76 1.93 1 1.4-.85-1.3-.74 4.03-3.1.68-2.76 3.91-1.06 3.23 1.29 5.97-.64 3.2-6.12 1.6 1.17 5.45-3.71-1.49 4.09-4.8.35-2.51 6.57-3.9 5.36-.57-8.5-3.38-1.8-.79.35-3.1.63-1.3 1.7 2.61-.77 2.24 8.44.4 10.63-.75 2.04-2.75 5.24-4.24 4.63-2.22-.56.05 6.18 1.02 1.6 2.04.74 2.85-3.72 3.65-1.3.1-5.06 3-10.28 4.22-8.08-1.79-1.8-3.83 6.83-4.3 8.74-.97-4.14-1.28 8.8-1.66 5.84zm.22-1.63c1.62-8.09-2.3-1.1 0 0zm-4.45-5.53c.63.54 1.69-.32 1.48-2.06-.02 2.23-5.68.25-1.48 2.06zm3.57-1.06c1.83-1.5-6.11-3.88 0 0zm-.92-2.14c1.82-1.09 1.34-2.78 2.69-3.95-.02-1.68 2.96-7.34-.23-3.13-1.11 4.84.75-7.5-1.07.81.13 1.5-3.02 5.83-1.39 6.27zm-8.17-.63c-3.43-6.05-4.8-1.78 0 0zm3.96-1.7c-2.78-9.2-4.52-1.44 0 0zm-2.7-.63c-1.46-5.04-1.83.76 0 0zm3.53-2.57c-1.16-6-2.41 1.74 0 0zm1.29-4.52c1.62-2.87.85-.09 2.47-2.28 2.73-.24-1.57-1.89-2.25.61-.1.23-.78 2.15-.22 1.67zm8.24-.38c-.13-.94 1.3-.24.42-4.01-1.17-.33-1.64 3.6-.42 4.01zm-9.72-15.78c1.2-.44 3.99-.18 4.54-.97 1.99-2.86-1.8-7.64-4.87-2.66-.58.75-1.95 6.09.33 3.63zm85.17 34.77c-2.51-5.43-.6-6.88-.46-1.57-.37-6.47.9 2.39.46 1.57zm-38.84-1.1c0-.33-3.86-10.9-.17-2.09-3.36-4.88 2.62 3.58.17 2.09zm-1.63-1.08c-4.55-2.54-1.57-7.13-1.81-5.2-2.47-1.25 2.38 5.3 1.54 4.62.15.31 1.76 1.65.27.58zM40.5 181.7c-.72-1.55-3.67-8.33-2.02-6.18 1.6-4.72.16 4.46 1.54 2.93.57.63.53 2.35.48 3.25zm49.16-1.44c-4.53-2.77-3.6-9.67-3.4-4.31 1.87 1.12 2.67 3.47 1.65.43-3-3.04 2.64.96 1.95 4.38zm6.7-1.76c.53-6.51 1.04-4.88.6.45-.08-3.32-.68-.36-.6-.45zm-.85-1.92c-1.45-3.84 2.08-4.3 0 0zm-8.3-2.21c.48-3.05-3.34-2.85.28-2.15 1.34-.19-.61 3.73-.29 2.15zm-35.07-.89c1.96-3.9-3.32-5.53-1.62-13.65.6-6.53-4.6 5.29.09 10.68-.64 1.44 2.46-5.4 2.11 1.03-.03-.15 1.22 2.73-.58 1.94zm-.7-1.57c1.96 2.26-4.1-4.73-1.4-1.6zm41.02-.56c-1.93-3.24 2.53 1.29-.1-4.07-3.62-4.81 3.53 3.17.1 4.07zm-10.72-5c-4.43-8.21.95-1.3.57.7zm0-1.12c.45-2-3.58-4.61-.73-.24l.33.23zm-70.6-.83c1.65-4.11-2.94-.6-2.75-2.34-.46-2.78 1.58 1.42 2.34-.15.7-3.93 6.62-4 6.15-1.57 1.1 2.84-4.51 2.92-5.73 4.06zm1.92-1.03c4.84-1.56 3.33-3.74.58-.89 1.93 1.11-3.88-.69-.58.9zm1.51-1.47c2.62-5.27-5.66.25 0 0zm3.58-2.86c-.4-5.18 6.6-4.72 1.67-3 1 .63-.48 3.07-1.67 3zm22.4-1.92c.43.3-.9-3.34.82-1.33-.5.17-.02 2.14-.82 1.33zm2.77 15.74c.86-3.42-.33 4.8.7 2.94m.82 1.4c2.58-1.66-1.42-3.8 0 0zm.57-19.93c.87-3.43-.32 4.8.7 2.93m.83 1.4c2.57-1.66-1.43-3.79 0 0z" style="fill:#000;stroke:#110b0b;stroke-width:.995567;stroke-dasharray:none;stroke-opacity:1"/></svg>