<?xml version="1.0" encoding="UTF-8" standalone="no"?>
<svg
   xml:space="preserve"
   width="578.37"
   height="230mm"
   viewBox="0 0 153.027 230"
   version="1.1"
   id="svg1"
   sodipodi:docname="undead_hound.svg"
   inkscape:version="1.4.4 (dcaf3e7, 2026-05-05)"
   xmlns:inkscape="http://www.inkscape.org/namespaces/inkscape"
   xmlns:sodipodi="http://sodipodi.sourceforge.net/DTD/sodipodi-0.dtd"
   xmlns="http://www.w3.org/2000/svg"
   xmlns:svg="http://www.w3.org/2000/svg"><defs
     id="defs1" /><sodipodi:namedview
     id="namedview1"
     pagecolor="#ffffff"
     bordercolor="#000000"
     borderopacity="0.25"
     inkscape:showpageshadow="2"
     inkscape:pageopacity="0.0"
     inkscape:pagecheckerboard="0"
     inkscape:deskcolor="#d1d1d1"
     inkscape:document-units="mm"
     inkscape:zoom="0.16858316"
     inkscape:cx="-619.87212"
     inkscape:cy="471.57735"
     inkscape:window-width="1920"
     inkscape:window-height="1009"
     inkscape:window-x="2552"
     inkscape:window-y="143"
     inkscape:window-maximized="1"
     inkscape:current-layer="svg1" /><path
     style="fill:#000000;stroke:#110b0b;stroke-width:0.995567;stroke-dasharray:none;stroke-opacity:1"
     d="m 35.246352,228.3037 c 1.170451,-6.0575 -6.073219,3.16131 -3.219355,-3.92089 -5.313458,2.74861 2.572724,-7.34547 5.925303,-6.70298 5.709947,-4.07777 5.758656,-13.51029 10.583334,-16.74196 3.356547,-5.79048 3.068757,-5.06594 0.162483,0.21827 -5.986809,5.65803 -3.905517,11.28369 -9.512433,15.78104 -0.607596,2.72543 -1.958741,0.9017 -5.974258,3.5429 -1.630012,3.42881 6.41802,-4.39347 0.04384,1.91575 0.962478,-0.33562 -2.908072,8.2275 0.662496,1.32574 -0.522527,2.34083 1.851696,2.84064 3.110581,-2.19794 -0.881832,-0.55296 3.57836,-0.86512 4.527563,-5.26657 2.75836,-4.51369 1.645146,-3.61984 0.496943,0.13373 2.38321,-5.13509 3.72104,-7.24764 0.751099,-0.82204 -1.766896,3.68488 -1.970038,2.87273 -5.623052,6.84328 -0.862838,0.38107 1.634055,3.8685 1.178074,3.90804 1.126329,0.42167 2.300042,-1.54311 3.250369,-4.66608 -0.07934,0.85213 6.00326,-2.56031 1.083228,0.18646 -0.226753,1.37558 -2.747812,4.19588 0.46071,1.47589 -0.263852,3.68413 1.404383,3.63022 2.669893,1.33515 1.835884,1.5213 -0.21438,-5.08477 1.197769,-4.9637 0.659342,0.0983 1.582767,-8.38929 4.357211,-10.05566 -0.565072,-7.53775 7.381514,-13.16383 10.08947,-18.92516 1.232454,-1.90092 -1.356104,-4.40497 -1.395956,-2.7001 -1.795613,-3.1098 -3.225206,-8.37069 -6.049291,-13.37473 1.965462,3.98234 -0.447946,-3.3752 1.143354,-2.38135 -0.984172,-5.01912 2.781875,-11.71957 0.744491,-11.48468 -2.469141,-1.10147 -0.496309,3.58183 -1.136136,4.18585 -1.074186,7.21483 -0.509422,-13.56873 2.524762,-1.8482 2.634833,4.64418 -3.47401,15.99001 -0.10496,13.89439 6.847306,-6.69374 -0.07493,-15.79561 2.107391,-23.1325 6.536963,2.21546 -2.512818,-3.53119 1.80839,-2.14187 -0.707926,0.68084 2.814669,4.03365 3.769255,6.85183 -1.291623,-5.573 4.472498,9.33029 1.378723,12.50081 -3.799556,3.02517 -1.509409,3.8207 -2.26617,4.98905 0.55928,4.40197 6.972646,-7.15817 5.166183,-11.46419 0.939008,-2.82606 -4.534675,-14.22264 -5.382512,-8.87004 -0.234816,-3.66191 3.61497,-0.12625 2.275554,-2.01582 0.07001,2.96502 4.641162,0.0566 3.208223,0.32459 -2.899749,-5.41388 2.648771,6.01071 2.774394,1.82985 1.09386,3.84387 1.821994,13.00208 0.936725,16.13402 0.871461,-1.04095 -4.16746,2.7573 -0.798372,-3.12502 1.476515,-3.89598 -1.110872,-15.56543 -4.624853,-13.79039 1.515558,2.7567 3.377154,8.56769 1.957675,10.69053 1.108884,4.26866 -1.56056,6.37055 -0.146267,9.18682 -1.612785,-2.0326 -5.791774,6.66041 -2.515844,3.54419 0.524095,3.4453 5.850793,-9.33214 4.079462,-3.19878 0.184986,2.44236 5.460922,-6.13187 4.538343,-10.72856 1.654245,-2.46403 -5.204697,-11.39194 -1.305361,-7.2577 -3.102595,-7.51721 5.147853,9.96165 1.449878,11.02138 -0.0066,0.74073 -2.691007,5.82473 1.080064,2.95672 1.252107,5.50654 2.232251,-0.67802 2.05517,-4.12461 3.259965,-2.47291 3.776365,2.99537 4.675265,6.79419 0.22549,4.29019 -0.69921,6.27999 2.01287,4.29529 7.11761,2.64922 3.90642,8.56455 7.12374,15.48063 -1.37585,-2.02107 2.47579,-2.09994 0.41031,-0.7763 -1.56752,5.27864 6.77717,3.15648 6.50339,4.91894 -1.01615,-3.15768 -0.84814,-5.72032 0.50857,0.46329 0.29476,1.99897 -4.73736,-2.20282 -5.22385,-1.20586 1.92406,4.07469 -0.36426,0.71914 -2.55255,-3.11539 -0.73302,-4.18146 -3.61998,-18.79346 -7.03289,-10.82868 -4.1414,-0.94518 -2.79224,14.94401 -4.12681,3.93377 -2.57885,-2.61768 -3.446323,8.03198 -4.127337,4.57591 -0.157258,3.78526 7.370687,3.83979 8.133117,7.93756 -2.62258,2.41343 -2.29728,6.46281 -4.2445,5.5899 -1.63386,4.59133 -3.649754,9.99429 -9.3564,9.62554 -2.730244,1.29105 -4.257586,-1.3222 -6.971811,0.18138 0.409761,-5.98509 6.607245,-4.3602 9.858274,-6.71621 6.578777,-2.01139 3.478861,-15.21612 -1.189633,-10.60149 0.618954,4.07843 -5.512941,-6.28702 -2.066976,-9.40248 1.512948,-4.35073 7.647748,-12.23632 4.20197,-15.033 -3.223127,2.03632 -2.496715,3.23026 -5.438851,4.35426 -0.85497,3.13989 -0.995518,6.80027 -1.599985,7.87981 -0.01441,-3.0355 -0.887861,-9.4515 -4.498738,-3.58701 -1.031745,7.10391 0.627945,-2.14554 -2.958968,0.14193 -1.243782,5.11312 -1.941681,0.66291 -2.081269,2.58736 5.61114,2.03876 2.414104,10.57708 1.249639,11.39939 -0.483822,-6.10019 -2.720353,7.16803 -2.857526,2.01483 -2.100097,3.42039 -0.432546,7.15241 -2.656758,3.46216 -2.799677,1.6175 -3.379684,13.42754 -4.339437,11.84127 0.343265,-3.26383 -2.620611,2.62206 -2.085842,6.41148 0.923358,4.13691 -6.156181,10.51478 -6.916092,6.12758 -1.89085,1.6153 -4.850836,-0.24003 -5.844512,2.37519 z m 0.335286,-0.46653 c 2.853301,-2.03193 1.944405,-7.77811 -0.156743,-0.79751 l 0.0543,0.97059 0.102458,-0.17308 z m 6.192097,-0.80046 c 3.863317,-4.99609 -0.600827,-3.55084 0,0 z m -11.307529,-1.85903 c 5.004284,-3.10752 0.840515,-6.33703 0,0 z M 66.90245,215.15014 c 3.17061,-3.01091 -0.270241,-3.96058 0,0 z m 3.737436,-0.8653 c 2.753767,-5.10168 -3.465666,2.95634 0,0 z m 2.303775,0.34799 c 1.630972,-1.61444 0.961255,-1.17533 2.305019,-1.17187 1.51777,1.13493 1.656967,-0.95866 1.488286,-1.7763 3.572024,-2.04671 3.683104,-9.86586 7.027714,-10.94151 3.52236,-5.36011 -9.6438,-4.16382 -6.907538,-10.37048 2.991078,-4.23853 8.052568,-8.6429 6.634598,-8.97562 0.74103,-3.92679 -2.23022,-1.78729 -0.61481,-4.07291 -1.53627,-4.62986 -4.967117,5.74668 -2.01343,-2.1326 -1.18316,1.09456 -0.63187,-3.31742 -1.899067,2.41408 -0.626115,-8.32417 4.447137,1.46994 4.257607,-2.46784 -1.67649,-1.78927 -5.366336,-3.93934 -0.61351,-1.16414 0.78471,-1.83251 -5.170125,-3.81125 -4.305195,-0.85543 1.465095,-0.3158 -1.645375,3.16624 -0.829411,2.4598 -0.153501,-4.59273 -1.604535,8.55448 -0.722042,1.23872 -1.603961,5.73367 -8.378056,13.25523 -5.750822,17.92521 2.663119,3.29776 1.200341,3.81072 2.508867,1.15018 2.81408,0.0251 8.762923,6.07472 5.367694,3.39791 0.336325,4.1541 0.169396,3.49894 -0.218693,0.59022 -0.153577,4.13425 -3.471466,8.9769 -6.048075,10.10998 -4.221856,-0.82537 -5.220022,1.81092 -6.937903,2.26317 -3.261156,6.02766 5.720091,-5.03953 5.158398,-1.22049 -4.333467,-1.7335 -2.732777,4.86701 -1.379356,3.16317 1.100193,-3.6504 7.263353,-5.49497 4.184848,-2.88738 -2.771222,-1.66946 -3.628169,3.4804 -1.623236,2.95511 1.676411,-0.27266 -1.757487,1.24429 0.930057,0.36902 z m 4.414014,-18.98259 c -0.70431,1.18426 -2.009019,-1.41764 -1.178138,-2.62946 1.870443,1.89918 -1.344367,0.99 2.389688,3.39916 z m -5.320249,-1.80703 c -1.644808,0.42995 3.481644,-4.55798 1.764576,-1.8327 1.338113,-1.65383 -0.679794,2.50737 -1.76459,1.83273 z m -16.353181,8.34458 c 1.677142,-6.93516 -2.203694,0.57507 0,0 z M 82.02534,188.07231 c 2.11137,-4.99332 -1.32619,-3.65245 -0.68298,-0.36289 0.33667,1.3871 0.43056,2.88807 0.68298,0.36289 z M 68.61148,183.0015 c 0.591406,-3.821 1.309828,-6.57775 -0.381541,-3.59876 -1.631643,-1.65776 0.913918,9.07398 0.381541,3.59876 z m -5.202015,-0.69972 c 2.272681,-2.91365 -1.661767,-1.56839 0.711424,-3.04755 4.895938,-3.44233 -0.950791,-2.50808 -2.422161,-1.17937 -1.05034,3.2101 -1.601513,2.18837 -1.554026,3.84677 3.606342,-3.22937 2.887806,3.50205 3.264763,0.38015 z m -5.157619,0.27086 c -0.06086,-2.2854 6.130189,-5.17797 0.551211,-4.3691 -2.921573,-3.34213 -0.825979,5.48167 -1.373414,3.80731 1.061863,-0.0934 -0.253074,1.17168 0.822203,0.56179 z m 26.868544,-1.11062 c 3.71486,-3.89698 -3.35699,1.72306 1.3295,-2.68191 -2.17587,-2.71609 -3.8923,6.38203 -1.3295,2.68191 z m -25.056765,-3.19128 c 3.31786,-3.73845 -1.146243,2.61577 2.862797,-3.0909 3.707378,-6.46319 2.770917,-15.73604 -2.162034,-21.10039 -4.845687,0.59494 4.565382,8.91248 1.99352,13.40554 1.649237,3.51614 -6.089261,10.52899 -2.694283,10.78575 z m -0.415628,-2.65869 c 5.34862,-4.4498 -4.560271,1.45971 0,0 z m -4.412326,-1.30664 c 5.342112,-3.78787 -0.586652,-6.36458 0,0 z m 5.229071,-0.39987 c 3.387368,-3.77022 0.29504,-7.17911 1.764054,-9.76204 -2.105284,0.81991 -0.392061,4.04719 -2.068362,7.3537 -0.344721,2.89146 2.378848,-1.43628 -0.229599,2.54892 l 0.534013,-0.14058 z m 22.410988,-1.67091 c -0.92264,-2.32737 -2.31891,-5.81953 -4.029279,-2.77638 -1.017829,1.9468 3.683479,2.86328 4.029279,2.77638 z M 56.008417,169.9097 c 3.185983,-6.0324 -0.27269,-4.69572 -0.411472,0.51807 z m 10.163431,0.33858 c 1.830586,-7.75078 -2.581937,-1.54231 -0.40526,-0.36116 l 0.04369,0.51111 z m -10.559491,-2.12209 c 2.545643,-7.76999 -1.283346,-2.24157 0,0 z m 5.23553,-3.13721 c 2.002112,-5.68342 -2.34977,-1.73759 0,0 z m 4.763616,0.37539 c 1.134858,-3.71578 -1.084829,-8.78574 -0.322331,-1.75624 0.698721,-4.02791 -0.23164,3.96127 0.322331,1.75624 z m -5.439886,-3.13068 c 2.59975,-4.65526 -1.788656,-1.52586 0,0 z m -0.235444,-2.56693 c 2.801845,-1.45835 -3.801899,-3.82656 7e-6,0 z m 47.611577,62.68523 c -0.35481,-5.14477 -4.4581,2.0565 -4.41802,-2.55796 -4.66038,0.80103 4.34553,-6.07265 3.79361,-9.48028 1.44264,-2.93052 -3.82629,-14.13166 -5.27472,-9.27994 -0.0387,11.33365 -2.1646,-8.41391 -0.91754,-0.20205 0.71479,5.92561 0.17396,-6.91872 4.96021,0.54287 -0.42115,1.65907 0.70348,2.1379 1.25963,2.50393 1.28653,3.75409 -1.34811,-1.39821 0.24196,4.82914 0.63165,4.56194 -1.61459,6.40051 -3.75211,7.77655 0.0209,1.92181 0.93989,1.2993 2.34265,3.64851 2.3987,-1.64498 -0.5381,-5.26087 1.57692,-4.82931 1.25511,-2.97644 0.03,-7.11216 1.21802,-2.9297 -0.46271,3.35915 -1.26446,3.67983 -1.35666,7.43123 0.77613,-4.25332 1.88855,2.35015 2.52063,0.67098 1.31484,-1.8499 -0.53472,-6.32735 1.03113,-2.31515 -1.11809,-4.81175 4.5212,-1.66076 1.66085,-5.87674 -1.8148,-3.34834 -1.73911,-10.06614 -2.16891,-12.2898 -1.45332,-2.90586 -7.33561,-2.71134 -7.35356,-6.24829 -1.68356,-1.00618 -5.59635,-7.15195 -5.09205,-9.52252 0.0455,-8.87808 -0.35466,-14.35313 -4.73445,-19.23371 1.02072,-0.12244 3.61698,5.46676 5.33979,7.72072 1.31388,0.0387 0.59773,-2.95254 -1.09936,-3.31074 -3.14151,-1.55145 1.81515,-5.86097 -3.60942,-4.79332 -2.19536,-2.32511 -3.31355,-1.60831 -3.61079,-3.38683 1.20087,-0.93461 -10.823785,-2.37234 -4.17734,-1.84836 0.32222,-2.0297 -4.10101,-0.30983 -4.16333,-1.10128 0.13405,-1.70585 -4.708134,-2.71198 -2.11679,-4.70229 -1.147608,-2.53682 -2.09855,4.29033 -4.062445,0.24866 2.676737,2.6701 -3.816879,-3.52825 -1.861077,-2.16728 2.282417,-5.02954 -1.304645,0.36081 -3.2198,-0.61506 -0.853795,1.74821 -1.063396,-1.24709 -3.168832,-1.54064 2.051767,-3.35589 -1.244446,0.0427 -2.900369,-0.7048 0.918639,2.41116 -0.218776,-1.04101 -2.724294,-1.12841 4.118056,-4.30124 -2.133536,-3.32601 -1.152238,-0.55414 -2.808177,-0.0394 -1.116907,1.18067 -2.720656,1.36039 3.142322,2.32199 -1.740711,-2.27087 -2.468761,-1.17375 -4.848817,0.85746 3.993377,-0.73544 0.762279,-5.32701 -2.413161,3.43875 -4.903222,6.85286 -4.62578,6.68134 -1.012128,0.97476 0.314404,2.73899 -1.608554,-0.2141 -3.258586,4.27511 1.617255,-9.39722 -2.679546,-1.57669 0.633572,4.97235 -3.33198,1.19621 -1.528258,4.63303 -1.087933,1.86422 -4.972348,-1.29308 -3.594548,-0.33618 -0.22402,-8.40527 -2.33023,2.30357 -3.107231,1.20348 -1.156309,2.34609 0.953044,2.93401 -3.313314,1.62207 0.05202,1.80167 -4.829381,-4.85126 -0.40465,1.08612 -0.705581,2.08693 2.907665,2.43348 2.425322,1.56458 -1.958885,-1.72154 2.928664,1.64323 1.474381,-0.53738 1.774988,3.9195 1.061057,6.97059 0.349222,9.61956 -0.327076,2.21317 -0.586651,1.71 -2.224392,4.09704 -2.205664,4.2423 2.01467,1.21246 0.318048,4.07314 -3.25308,-5.03418 -3.740672,2.51875 -3.56117,2.08043 3.392845,3.16444 0.0186,1.18118 3.078458,6.42667 0.584919,3.61105 2.60419,-2.69531 3.742768,1.87199 -0.190504,3.24957 4.111951,-1.02706 2.606666,-0.0899 -0.199899,-0.84486 -2.609869,-3.22049 -2.963123,-1.18849 -1.458404,-5.65638 2.991395,1.10232 2.96414,-2.54675 -2.960928,-1.24479 -1.718187,-5.49468 -2.903139,-5.85326 -1.425973,-3.88073 -0.412112,-4.02401 -0.533428,-6.92963 0.128897,-1.81498 1.287097,4.17944 1.092835,-1.03832 -0.676273,-3.09857 1.73894,-4.34899 0.604908,0.58686 0.07975,-0.62426 3.771084,-9.1825 2.855358,-7.1297 1.787801,-1.4385 2.236948,-4.2182 1.294535,-3.65187 2.928001,-3.37097 6.386791,-3.72869 2.580889,-1.63171 -4.693744,6.81514 -5.841507,12.16851 -8.224307,17.21239 0.306734,6.82634 3.65622,-5.78038 1.196443,2.07369 -0.712597,3.93771 8.262296,6.83944 9.093682,13.60592 0.782684,6.10888 0.693375,-3.36422 0.673448,4.07972 0.948199,-1.5817 -0.420808,4.57368 -0.818769,3.0698 -1.948844,3.9853 -5.361271,7.43951 -9.380772,7.17663 -2.200575,3.88745 -5.209486,-6.2223 -7.041896,-1.04706 -2.041501,1.00031 -0.424618,3.94967 -2.704052,2.04145 -2.214271,4.60741 -5.353457,10.81913 -5.433812,10.34577 -1.934414,-2.3341 -4.054398,5.59956 -8.027623,5.07317 -4.584116,-0.67829 -7.151732,0.75215 -8.839131,-0.68186 -4.629111,0.7477 1.474815,-7.36888 6.027112,-5.90373 6.794832,-1.58695 9.175648,-9.34747 14.574878,-13.76806 4.799908,-4.55724 -5.862601,5.74969 -6.625606,8.65624 -2.946821,3.2594 -4.370164,4.93226 -0.16661,0.92828 -2.138002,3.00605 -9.027382,6.30271 -7.875119,5.73331 -4.470285,-2.19012 -4.317124,4.69266 -3.010855,4.4208 2.461981,-4.8001 8.102848,-4.51111 10.405624,-8.16978 -1.317451,3.10272 5.516562,-7.49447 1.531766,-1.17184 -2.853553,3.08293 -4.57671,4.53047 -5.594463,5.56732 -0.723767,-0.89664 -5.531165,0.95332 -2.385697,2.94237 -3.597607,2.85673 5.608269,-1.07612 3.417039,0.10957 1.557386,-0.51521 3.681484,-1.08534 2.67645,-2.47672 1.343271,-0.004 2.34964,-3.96503 5.328046,-5.51052 3.632065,-1.42253 0.01411,-4.28507 3.04669,-7.62124 4.473998,-4.72074 1.500323,-4.50956 2.036276,-7.99916 -1.798851,-3.71256 -3.02288,-8.32787 -2.467428,-12.92297 -2.168024,-4.65498 -0.435665,-7.35399 -2.382725,-8.99965 0.468057,-5.67411 -5.643571,0.65918 -4.436027,3.9416 -0.676074,2.65511 0.872857,-5.54835 -0.854972,-3.20523 0.27358,-1.48151 4.598475,-2.37801 3.327106,-7.34029 0.64357,-2.3816 3.545182,-6.83675 2.261214,-7.97202 2.005427,-0.4262 1.191381,-4.91479 -1.555901,-0.65129 -1.122544,-0.7991 1.461691,-1.43364 2.15995,-2.68224 2.790203,-0.79274 2.194597,-5.15861 3.324647,-6.4366 -0.379489,-1.24309 4.701373,-8.02192 -0.628281,-3.19739 -1.594099,2.9685 -3.251488,2.0581 -3.313013,4.51123 -3.425933,1.08612 0.918865,2.74077 -1.550601,4.7744 -2.422964,3.62721 -0.736887,-2.98117 -1.154271,-2.97719 1.655204,-2.79971 10.852303,-14.35132 8.535629,-5.46214 -0.23421,-0.0314 -2.985442,0.41449 -1.207942,3.69135 -4.748318,0.39434 0.244626,5.61975 2.718305,3.37717 1.802233,1.65049 0.773015,3.21198 2.115351,0.60599 2.07306,2.29955 4.682999,-11.2437 5.2619,-2.15754 5.006223,0.26436 6.869463,-11.73681 7.447866,-2.30179 3.977099,-0.48974 7.401707,-11.88614 6.017767,-1.66089 3.25382,3.52089 8.805067,-7.44127 7.051206,0.72664 2.9186,2.9451 5.762816,-2.26338 6.026502,2.9679 3.23263,2.13996 7.435021,-4.75319 5.453272,1.62888 2.885504,4.12043 5.99902,-1.75364 6.00228,3.95296 3.63644,2.76259 4.72901,1.24446 7.53457,4.29474 3.33352,0.49162 5.8545,4.90974 9.35223,5.78752 -4.53302,3.52399 6.27637,4.0963 3.95517,5.35057 1.4856,3.20177 5.64351,2.48675 6.61117,0.70431 1.84592,4.674 3.50923,-4.15334 4.32417,-1.27021 3.02541,-1.18298 0.56426,-5.02464 3.21906,-4.10256 0.0118,-4.48925 2.55339,-3.61072 0.65065,-8.77301 2.20108,-1.86549 -0.45912,-6.20198 -0.36547,-9.64527 -2.36522,-6.55784 4.10306,4.99221 3.29708,6.66466 1.43686,2.15231 0.10732,5.9608 0.71943,10.14238 -2.09431,-2.47028 -0.10188,10.88967 -1.90104,3.221 -1.91633,5.29304 -0.73144,8.33203 -1.64204,3.24968 -1.14337,-0.46533 -1.65904,3.16566 -0.62835,3.21897 -0.46026,0.12191 1.21093,6.38755 0.83542,-0.2029 -0.37786,11.16593 0.40434,-2.07311 -2.98373,-0.31192 -2.41761,2.57646 -1.39066,6.31322 -2.60323,4.06734 -0.54612,6.98811 -0.57547,5.33711 -1.71605,2.23535 -0.66138,-6.46696 -3.93544,0.62556 -5.42318,-3.46829 -2.95424,1.41415 -1.02196,8.56932 -2.55812,2.40667 -0.16027,-4.49018 -3.71904,-4.20953 -3.42467,-2.73122 -0.98656,6.72198 1.59805,13.51489 5.77986,17.64819 3.64294,4.06396 9.69647,4.34236 7.62456,11.62781 -0.36935,5.21912 5.70564,10.36862 2.2087,14.72453 -1.40873,1.48719 -4.02123,-1.90421 -5.8211,1.82815 z m 0.30441,-0.67493 c 2.37571,-6.25173 -1.76708,-2.88762 0,0 z m -3.52684,-0.55129 c 2.06868,-5.83945 -1.70033,-0.37754 0,0 z m 8.15597,-0.5897 c 0.48558,-7.07572 -2.01589,3.05201 0,0 z m -10.01034,-0.52794 c 3.56238,-5.02924 -1.64297,-1.84504 0,0 z m 9.07852,-0.12617 c -0.87979,-4.24237 1.85943,-0.38183 2.10343,0.18291 9.5e-4,-1.90338 2.08166,-2.54224 -1.76533,-4.73603 -0.81374,-0.55086 -1.44349,4.94032 -0.3381,4.55312 z M 12.747056,218.5977 c 3.878371,-2.07293 1.885099,-5.77572 -0.191668,0.27307 l 0.191683,-0.27308 z M 9.2335,218.5756 c 5.005597,-3.58262 0.0044,-5.28602 0,0 z m -1.879054,-1.39532 c 4.78111,-1.43315 2.705653,-7.02946 0,0 z m 3.227774,-2.57222 c 2.162261,-1.44163 12.577316,-5.70552 5.638718,-2.52594 -2.31057,-1.05348 -8.385076,1.71179 -5.638718,2.52594 z m 15.691366,-1.65343 c 2.958644,-6.1038 -2.950282,-0.91772 -0.500397,-0.99062 0.201112,0.0315 0.382715,2.80549 0.500397,0.99062 z m 3.866124,-8.79915 c 3.19832,-2.96426 6.549935,-9.95589 0.882909,-2.90071 -1.076047,0.12621 -3.102486,6.2286 -0.882909,2.90071 z m 1.814767,-4.28331 c 4.657545,-5.9914 -3.059253,2.14521 0,0 z m 9.550479,0.73504 c 4.357152,-0.93137 7.938389,-5.06612 9.261221,-9.65721 0.365191,-4.38217 -2.310582,-5.52042 -2.630237,-2.7031 -2.675041,-7.54021 -2.921466,10.84759 -3.583568,-0.25702 -1.544754,-6.62984 -4.233596,0.0437 -2.389075,3.4084 -0.44811,2.95436 -1.124719,7.36376 -1.113848,1.94242 1.178982,2.97659 0.177217,-5.94799 -0.240196,-3.84564 1.324781,-3.38112 -2.377447,-7.56584 -1.304274,-4.6247 -1.940233,-5.22989 -1.78618,4.74623 -2.684963,-2.63635 0.130742,3.83676 -2.776372,-8.27112 -2.225577,-2.65956 -1.762672,-3.96608 1.736648,7.59704 -0.593739,0.40752 -3.09102,-2.22168 -2.061701,7.79136 -1.485664,9.30464 -0.244618,0.51822 2.040096,4.62335 3.005223,-0.77714 1.58093,-5.21888 0.86272,-2.06339 1.230923,-0.27444 -2.947471,5.25727 0.0069,0.36689 -1.463879,1.06706 -3.911453,5.39087 1.793313,5.40733 0.494581,3.94648 7.14557,-5.0869 -0.770717,-0.61049 -0.499508,2.61336 -0.545461,2.10231 5.085284,-2.93749 2.408705,-1.43898 3.739924,-4.65748 3.864682,-1.92329 1.113902,0.58687 0.573975,3.09364 -3.653182,-0.21236 -1.195914,4.08199 1.260071,0.431 2.979493,1.40322 3.895887,1.5154 z m -6.118179,-3.0578 c -3.94594,-6.15826 -3.392694,-0.61586 0,0 z m -1.779515,-2.93974 c -1.38973,-5.24525 -2.595263,-2.69113 0,0 z m 11.838065,-6.26391 c 0.282551,-4.76932 4.423485,-0.48124 3.122048,-3.24783 -1.242514,-1.91697 -3.516561,-0.44612 -3.055821,1.23455 -0.974065,0.28436 -1.523482,-1.38654 -0.333577,3.93474 l 0.108921,-0.79739 0.15843,-1.12409 z m -0.613889,-3.70361 c 0.466395,-1.41787 5.421764,-0.54343 2.064934,-2.31782 -1.334254,-0.29853 -2.641757,0.84252 -2.211689,-3.0647 -1.990969,-2.08351 -1.683319,5.06905 -0.498455,4.27177 -0.717902,-6.37351 0.648571,4.60885 0.64521,1.11075 z m 65.545082,-3.76917 c -0.16494,-1.66391 1.69864,-5.73651 -0.84547,-4.69035 -2.81773,1.79832 2.08311,2.90173 0.64235,6.46441 l 0.0827,-0.63873 0.12046,-1.13531 z m -79.515397,1.77646 c 0.310232,-2.85346 -0.879652,-6.86603 -0.215427,-1.02841 l 0.05982,1.09451 0.155598,-0.0661 z m 71.114177,-2.82493 c -0.59012,-2.24809 3.28354,-5.28137 2.55048,-3.62881 2.07545,0.0842 3.18572,1.94551 3.53664,-1.45567 1.50094,1.75824 -1.47792,-5.91492 -1.0891,-0.79838 -3.50439,-0.63516 -1.16748,1.96666 -3.1952,1.09373 1.26426,-1.08047 -0.57047,-3.04036 -0.75997,-1.42596 -3.77195,1.01018 -0.0697,-6.0925 -3.15803,-2.46635 -0.19855,0.1187 -2.60933,3.53464 -1.30365,4.25466 2.25052,-0.61599 5.29746,0.55805 3.57472,1.48659 -1.52021,-3.51841 -0.84058,3.5322 -0.15589,2.94019 z m -69.841303,-0.87919 c 4.548163,-3.95753 -3.912625,-8.85735 0.517746,-1.63405 -0.422001,0.8978 -3.307248,2.78794 -0.517746,1.63405 z m -2.350475,-0.19479 c 0.656763,-5.47685 -2.717623,-7.14729 0,0 z m 2.565665,-1.21152 c 1.25105,-8.35129 -4.054066,2.87457 0,0 z m -1.657734,-0.30898 c -0.693087,-7.36151 -1.81484,4.08399 0,0 z m 80.987157,-0.1978 c 1.46497,-3.37969 -0.99206,-4.6949 -2.77577,-3.60131 0.0321,0.86777 -0.50746,4.09909 2.24288,1.76121 -0.86497,0.014 0.78087,4.2929 0.53289,1.8401 z m -80.936655,-2.43971 c 1.340547,-3.13251 -1.451927,-2.75317 7e-6,-2e-5 z m 82.429135,-0.43835 c 2.57541,-0.73969 1.46201,-5.16255 -0.28624,-2.70674 -1.16713,-3.91398 -2.08315,0.95978 -1.10469,1.03156 2.11949,-0.15816 -0.11701,2.34305 1.39093,1.67518 z m -79.454089,-1.44424 c 4.329193,-2.81132 -1.744077,1.24429 1.005438,-1.30827 -2.648922,-1.84943 -5.703754,0.98335 -1.959154,0.90784 0.01415,0.43812 0.569596,0.75452 0.953716,0.40043 z m -4.405993,-0.89336 c 5.035834,-2.94922 4.369508,-2.16668 -1.191674,-0.90088 -0.404483,0.68933 0.527413,1.19012 1.191674,0.90088 z m -1.456631,-1.50058 c 0.694124,-2.35866 -0.119894,-3.06185 0.615019,-4.51154 4.083139,2.13577 -0.989333,-0.18407 0.464425,2.32732 1.200591,-0.36173 1.974563,0.74181 2.989983,-1.08049 0.07976,4.62805 2.769376,-3.60747 2.704205,-3.31619 -2.635835,-3.38707 1.91816,0.83908 0.343668,-4.1505 1.360924,-1.39292 -1.776868,-4.0442 -0.328127,-4.32422 -2.556855,-2.12426 -0.236976,-1.74271 -4.131041,-2.97676 -1.727974,2.23256 0.859893,3.44303 -1.163871,4.06876 2.140298,2.96947 -2.743264,-1.88894 0.10848,3.42242 -2.241762,0.567 0.611765,1.48938 -0.949285,2.98778 1.890826,2.30656 3.191884,-0.59445 1.358723,1.41777 -2.744524,1.01528 -1.341672,-5.19169 -2.733938,-2.60994 -0.06139,-0.12224 -2.53169,4.62467 -0.397822,4.02056 -0.566922,0.48381 -1.601504,1.80611 -0.195797,2.88524 1.463379,-0.13041 0.820866,5.32033 1.31538,1.83979 z m 6.291351,0.87782 c -0.119211,-1.45357 1.092738,-0.27861 0.509331,-1.81161 2.731594,0.0544 -3.380088,-0.35692 -0.509331,1.81161 z m 81.432932,0.0167 c 2.12864,-1.2083 1.6692,-4.06178 -0.38261,-3.42249 -2.54974,-3.08101 -0.90622,3.91178 0.38261,3.42249 z m -78.777841,-1.66769 c 4.207544,-2.10845 -1.841363,-4.92164 -2.57087,-1.64371 -1.693206,2.16321 3.867332,1.48935 2.57087,1.64371 z M 33.801555,168.305 c 0.917943,-6.55052 5.185599,-0.14939 5.730396,-5.07436 1.67901,-4.49689 -1.251672,-6.14703 -3.496705,-6.48899 -0.571074,4.04114 0.359226,3.01506 -1.134917,7.63799 3.624175,-4.95876 -4.510521,7.20542 -1.098774,3.92536 z m 3.832141,-6.17619 c -0.155084,-0.20211 -0.277967,-3.48862 0.900781,-1.60254 -2.334949,-0.33393 2.725622,1.15653 -0.900781,1.60254 z m 81.066174,5.80307 c -1.41737,-2.73171 0.97326,-2.72022 -1.77308,-4.58131 -1.79206,-0.80549 -0.90831,3.72524 0.53741,4.97259 0.69528,-3.27843 1.28829,3.3588 1.23568,-0.39128 z m 0.93244,-4.98309 c -0.65566,-2.14339 -2.33574,-3.72596 -1.84477,-4.22349 1.07374,0.2701 2.91657,-1.32421 0.89744,-2.59182 0.0442,-2.64012 -0.98964,-6.68806 -3.46522,-10.26039 2.44779,4.80424 0.74946,6.24335 2.19665,9.11746 0.57333,3.18667 -1.00308,2.76023 -0.50784,7.52666 0.29632,0.0219 3.94116,2.4961 2.72374,0.43158 z m -70.008451,47.74734 c 0.823241,-5.14236 2.509715,-11.56127 7.187424,-14.98884 -3.4914,4.82165 -1.078866,1.6482 -2.872786,3.62716 -3.641279,5.37483 2.153639,-2.76479 -1.627743,2.87272 -2.572151,3.71487 -0.80315,5.12326 -2.686895,8.48896 z m 57.566541,-9.94364 c -4.60031,-2.7052 0.48982,-0.20621 -3.70565,-3.69072 1.50331,0.73624 3.41281,2.17681 3.70565,3.69072 z m -52.312939,-6.10375 c 4.171829,-2.21954 1.583584,-9.87827 3.483555,-6.46215 -0.479343,2.75116 -1.47296,5.46397 -3.483555,6.46215 z m 39.663809,-1.46442 c -4.35561,-5.38452 1.90524,-8.6658 1.52381,-1.41711 0.18326,0.73212 -0.7723,1.92534 -1.52381,1.41711 z m 0.8833,-0.25856 c -2.77319,-3.9458 1.09783,0.16428 0.15676,-2.65601 -0.21293,-2.30023 -3.02663,-3.90035 -1.86456,0.18897 -0.44817,0.45858 0.70112,2.70384 1.7078,2.46704 z m 4.88943,-0.36225 c -2.55218,0.46188 -2.80928,-4.38129 -2.16914,-4.10658 -0.29375,0.24856 2.91884,4.2776 2.16914,4.10658 z m -47.357683,-0.62348 c 0.265984,-1.93307 -1.78139,-10.91701 1.306145,-3.70308 -1.162992,1.10098 -0.952337,2.32431 -1.306145,3.70308 z m 0.435373,-2.94885 c 0.203223,-0.6747 0.07869,-2.98377 -0.864596,-2.67442 -0.02229,-0.15138 0.04205,2.54115 0.864596,2.67442 z m -36.867912,0.037 c 0.18167,-5.38966 -3.138048,-5.16379 -2.989159,-2.51087 -2.947496,-5.03529 -2.499746,-6.64115 -1.599336,-6.76096 1.405565,-1.42886 2.204844,-3.53823 2.50074,-6.1242 1.204898,-0.82634 1.158972,-1.67119 1.401828,-3.05197 -1.646037,-2.3439 -1.17316,-0.17659 -2.825985,-0.28316 0.674484,3.1458 -2.948533,-1.10395 -1.338033,3.65898 -4.913623,-5.10315 2.944036,7.46 -3.282885,0.96466 -0.316641,-1.08477 0.05964,2.61956 -1.935919,1.7432 1.703662,4.90358 -5.58638295,-2.44112 -4.751554,-5.74832 1.751497,-3.32926 3.843498,-7.39867 3.274457,-11.27191 2.285472,-4.71019 6.894483,-14.87424 10.237862,-14.02321 -2.492208,4.38032 3.524788,1.18546 5.809625,1.42565 4.614171,-2.85837 10.574147,-5.72065 14.47897,-10.08011 2.336838,0.51259 -2.597121,6.0148 -0.452795,4.63832 1.864938,-7.77587 -1.187032,-1.5496 -5.09101,0.8126 -0.732844,-0.59007 -10.342266,6.59425 -9.621074,5.77348 -2.319383,4.42957 -0.100805,-1.60881 -0.01053,-1.01351 -6.23607,3.45844 -0.70944,-1.28288 -7.533812,3.21825 -4.158873,1.54346 -5.320359,5.01704 -7.993222,9.85045 -1.25405,3.776 2.811567,1.01016 1.121385,3.48329 -1.898381,4.49287 -2.864066,4.28368 -4.244465,6.85522 0.776128,-0.92041 4.378875,-1.50248 3.530276,-2.3186 0.644315,1.44319 -1.601552,4.29165 -1.996847,2.23606 0.306376,2.35223 -1.978359,-1.78056 -0.458091,3.45346 -0.308123,0.91915 4.133356,0.73614 2.919764,-1.17466 0.427198,1.46084 1.707012,-0.0452 3.612213,-0.82837 -1.319875,-2.47424 2.289015,0.5957 1.829124,-3.49145 -0.981282,2.76008 1.938089,0.99158 1.401785,-0.85305 -1.297178,-0.7359 4.030396,-3.09544 0.685203,-2.75427 3.909983,-1.06041 3.227829,1.2856 5.966543,-0.64304 3.20332,-6.11625 1.593309,1.17226 5.446707,-3.71202 -1.484824,4.08798 -4.802316,0.35414 -2.506447,6.5702 -3.897563,5.3636 -0.568119,-8.49872 -3.378584,-1.80693 -0.790951,0.36201 -3.091653,0.64239 -1.297961,1.71183 2.608728,-0.77514 2.234494,8.43247 0.406335,10.63115 -0.763049,2.03575 -2.75597,5.23936 -4.247431,4.62986 -2.2236,-0.55992 0.05139,6.17241 1.021781,1.59175 2.040184,0.74656 2.848643,-3.71994 3.644222,-1.30033 0.106998,-5.05341 2.996734,-10.27333 4.226985,-8.07314 -1.790117,-1.79754 -3.832216,6.83217 -4.313543,8.73568 -0.959655,-4.13852 -1.266084,8.80467 -1.647137,5.83999 z m 0.212171,-1.63052 c 1.621547,-8.08503 -2.294045,-1.10177 0,0 z m -4.443352,-5.5252 c 0.62444,0.54221 1.68256,-0.32066 1.475796,-2.06617 -0.01727,2.22968 -5.677948,0.25118 -1.475792,2.06619 z m 3.567706,-1.06052 c 1.828039,-1.50559 -6.112352,-3.87752 0,0 z m -0.919881,-2.14435 c 1.814608,-1.08538 1.340105,-2.77768 2.68541,-3.95011 -0.01619,-1.67503 2.96761,-7.33993 -0.222616,-3.13171 -1.11625,4.84444 0.748562,-7.49456 -1.073478,0.81751 0.129999,1.49672 -3.01683,5.82704 -1.389316,6.26431 z m -8.171806,-0.62555 c -3.423867,-6.04867 -4.806811,-1.77806 0,0 z m 3.961434,-1.69936 c -2.778981,-9.19631 -4.516648,-1.44437 0,0 z m -2.703872,-0.63541 c -1.454079,-5.03305 -1.82782,0.76628 0,0 z m 3.53254,-2.56984 c -1.160103,-6.00203 -2.408222,1.73905 0,0 z m 1.288899,-4.51441 c 1.627168,-2.87653 0.850418,-0.0913 2.469497,-2.28482 2.732566,-0.23779 -1.570683,-1.88785 -2.251061,0.61323 -0.09392,0.22408 -0.773223,2.14524 -0.218436,1.67159 z m 8.240167,-0.38313 c -0.12712,-0.94014 1.293757,-0.2388 0.419838,-4.01094 -1.165553,-0.3245 -1.635277,3.59983 -0.419838,4.01094 z m -9.715845,-15.77881 c 1.195056,-0.44116 3.983199,-0.17892 4.533954,-0.9696 1.990719,-2.85794 -1.805389,-7.63678 -4.861873,-2.66414 -0.581022,0.74856 -1.952933,6.08868 0.327919,3.63374 z M 96.53543,187.2259 c -2.5072,-5.42777 -0.59143,-6.87253 -0.45428,-1.56092 -0.36851,-6.47126 0.89815,2.3807 0.45428,1.56092 z m -38.832086,-1.09753 c 0.0055,-0.33135 -3.860522,-10.89619 -0.174603,-2.08857 -3.359268,-4.88129 2.618847,3.58211 0.174603,2.08857 z m -1.62888,-1.07511 c -4.557751,-2.54123 -1.569588,-7.12861 -1.818192,-5.19816 -2.465502,-1.25613 2.388702,5.29561 1.541117,4.61358 0.15595,0.31605 1.764935,1.65228 0.277075,0.58458 z m -15.571436,-3.36093 c -0.72441,-1.55567 -3.676551,-8.33649 -2.02589,-6.18409 1.603955,-4.72315 0.167409,4.45745 1.544426,2.93561 0.570373,0.6308 0.532852,2.34393 0.481464,3.24848 z m 49.156462,-1.44618 c -4.52534,-2.76669 -3.60241,-9.66215 -3.40526,-4.31041 1.87796,1.12684 2.68066,3.47289 1.65383,0.42959 -2.99269,-3.03563 2.63954,0.96665 1.94949,4.38364 l -0.19795,-0.50282 z m 6.69601,-1.75905 c 0.52965,-6.51045 1.04332,-4.87449 0.60177,0.45144 -0.0766,-3.31496 -0.67644,-0.35762 -0.60177,-0.45144 z m -0.84982,-1.91938 c -1.44206,-3.84011 2.08462,-4.30643 0,0 z m -8.30123,-2.21107 c 0.48881,-3.04195 -3.33734,-2.84548 0.2851,-2.14887 1.33767,-0.18627 -0.61385,3.73566 -0.2851,2.14887 z m -35.068576,-0.88458 c 1.967305,-3.90369 -3.315717,-5.52885 -1.620286,-13.65435 0.608655,-6.53186 -4.59086,5.29125 0.09297,10.67885 -0.642575,1.43861 2.462527,-5.39557 2.115269,1.03535 -0.03719,-0.15617 1.212736,2.72723 -0.587953,1.94015 z m -0.701924,-1.57603 c 1.963984,2.26468 -4.098814,-4.72638 -1.388,-1.60052 z m 41.02875,-0.56071 c -1.92926,-3.23925 2.52553,1.29301 -0.10573,-4.06656 -3.61226,-4.8087 3.52857,3.16743 0.10573,4.06656 z m -10.72106,-4.99728 c -4.430765,-8.20797 0.95284,-1.29229 0.56808,0.69633 l -0.56807,-0.69633 z m -0.003,-1.11374 c 0.44807,-2.00628 -3.574719,-4.61603 -0.72764,-0.24519 l 0.33212,0.22618 0.39552,0.019 z m -70.590348,-0.83685 c 1.640109,-4.1104 -2.950842,-0.59203 -2.75964,-2.33302 -0.458385,-2.78639 1.579831,1.41974 2.343092,-0.15237 0.690039,-3.93312 6.622897,-4.00453 6.145503,-1.573 1.100079,2.84255 -4.507296,2.92155 -5.728979,4.05823 z m 1.912969,-1.02684 c 4.8406,-1.56193 3.326931,-3.74254 0.577439,-0.8887 1.931447,1.11118 -3.8826,-0.68961 -0.577439,0.8887 z m 1.510525,-1.46972 c 2.613467,-5.27169 -5.658793,0.25197 0,0 z m 3.580313,-2.85636 c -0.396982,-5.18115 6.590132,-4.72592 1.665929,-3.00929 1.004608,0.6387 -0.474126,3.07852 -1.665929,3.00929 z m 22.39436,-1.92321 c 0.428763,0.30701 -0.902645,-3.34607 0.822058,-1.32811 -0.495691,0.16302 -0.01733,2.13844 -0.822058,1.32811 z m 2.768916,15.74286 c 0.865858,-3.42378 -0.323012,4.79553 0.703688,2.93438 m 0.825391,1.39946 c 2.572429,-1.65586 -1.427217,-3.79002 -7e-6,1e-5 z m 0.567493,-19.93127 c 0.865857,-3.42378 -0.323013,4.79553 0.703687,2.93438 m 0.825392,1.39946 c 2.572429,-1.65586 -1.427216,-3.79003 -7e-6,1e-5 z"
     id="path1"
     sodipodi:nodetypes="sccccccccccccccccccccccccccccccccccccccccccccccccccccccccccccccccccccccccccccccccssscccscccccccccccccccccccccccccccccccccccccscssccccccccccccccccccccccccccccccccccccccccccccccccccccccsssccccccccccccccccccccccccccccccccccccccccccccccccccccccccccccccccccccccccccccccccccccccccccccccccccccccccccccccccccccccccccccccccccccccccccccccccccccccsccsccccccccccccccccccccccccccccccccccccccccscccccscccccsccccsscccscccccccccccccccccccccccssscccccccccccsccccccccccccccsscccccccccccccccccsccssccccccccccccccccccccccccccccccccccsccccccccccccccccccccccccccccccccccccccccssccscsscccccccccccccccccccccccscccccccccccccccccccccccccccccccccccssscccsccsscccscccccccccccccccccccsssccsss" /></svg>
