<svg xmlns="http://www.w3.org/2000/svg" xml:space="preserve" width="578.37" height="230mm" viewBox="0 0 153.03 230"><path d="M-2.06 392.06c-4.85.66-9.52 3.84-10.53 8.84-2.06 3.84 0 7.17.3 11.04 2.45 1.15 2.34 4.34 2.62 4.41-.05.24-.21.93.15 2.45-.13-1.74.96 2.07.76-2.07.07-.15 1.08 1.21 1.5.35 1.47 1.3-.18 2.46.74 3.62.31.1 1.11 3.68.43.44.59 2.73.53 2.11.55 5.05.12-2.41-.4 1.22.26 1.2 1.23.16-.38-7.63 1.88-2.59.82 1.54 2.19-1.38 2.32 1.42.06-2.57.17 2.88.33 1.66.44 1.68 1.45-6.01 2.77-5.58.89 1.24 1.2-4.55 2.6-6.1 3.04 4.03 3.78 9.4 3.39 14.6-1.1 4.54-7.49 3.86-11.24 4.85-3.59.39-7.18-1.85-10.56-.63-4.44.48-4.78 7.24-8.22 9.3-3.24 2.25-5.07 5.98-3.36 9.91 1.14 2.76 3.75 3.22 1.98-.1.44-1.47.01-5.5 1.56-5.27-.27 3.35 1.15 7.8 5.08 8.9 1.2-.45-4.37-9.24.37-4.8 2.04 2.23 6.22.42 1.76-1.26-2.68-2.57 1.03-8.6 2.73-3.3.87 1.86-.27 7.83 2.55 3.25 2.6-3.97-2.8-8.03-.8-11.45 3.4-1.91 8.48 2.1 9.63 1.7 1.38 2.7 4.43 6.03 2.99.83 1.02-2 5.44-.1 5.54 2.44.24-.1 2.38-6.9 4.13-4.5 2.85-1.84.16-9.15 1.84-13.16.16-5.8 2.62 1.17 4.43 2.6 1.09 1.85 1.03-4.04 2.7-.46 2.6 1.3 4.4 4.53.83 6.13-2.63 3.7-2.57 8.76-7.31 11.81-2.07.98-4.7 4.03-2.76 3.6-3.9 4.57-5.41 10.97-10.47 14.55-.44 4.72 2.3 9.19 1.24 14.1.06 5.3 1.8-4.2 2.8 1.7 1.45 4.67 4.33 10.4 1.56 15.05.53 3.98-5.29 6.2-8.27 7.76-2.42 1.52-2.37 2.9-.8 3.82 3.45 1.06 6.93.33 10.9-1.48 1.72-3.61 9.7-.69 8.5-5.9-2.11-4.88-4.3-9.91-4.57-15.55-.15-1.47 1.3.6.66-2.5 1.42-5.14-3.14-9.35-2.38-14.06.8-3.24 6.17-8.48 7.9-7.37-.17 3.29.76 11.18 1.88 3.87 1.42-4.16 1.51 3.6 1.58 5.85.02 4.73 1.19 1.96 1.9-.27 1.37-1.3 1.3 5.5 2.06 7.34.08 2.53 1.04 4.95 1.2 7.5 1.41 1.43 1.06-8.87 2.52-5 1.64.02.65-10.34 2.5-6.9 1.22.05.77-7.06 1.89-1.47.64 2.93 2.15 5.75 2.07 1.1.03-2.49.58-4.8.98-.97-.3 5.06 5.33 6.98 5.57 12.14 1.12 2.15 3.21 5.27 2.06.71-.03-4.17 5.81 3.8 7.42 5 2.83 2.68 2.3 6.9 3.54 9.66.03 4.53-3.5 7.15-5.34 10.66-.5 2.87 3.83.71 4.98 2.06 2.12-.42 4.14-.16 5.97-.82 4.04-1.27 2.43-6.91 3.27-10.32-1.54-2.62.94-5.89-3.03-7.57-1.51-2.52-5.31-6.88-3.25-6.93-1.21-2.8-3.42-6.13-2.64-7.24-2.5-4.26-7.57-5.09-10.26-8.85-1.06-3.18-.32-1.79-.15-1.16 1.4 1.22-.6-6.45 1.44-1.69 3.07 6.51 1.33-2.09.42-4.78-.62-3.94-2.84-12.87-1.4-13.68 2.03-.03-2.35-6.77-2.41-9.47 1.08-.95-1-5.25-2.13-7.4-3.38-1.3-4.78-6.27-3.53-9.54-1.29-2.77-1.3-5.53 1.98-2.83 3.15.94 4.4 3.13 5.13 5.76.07 4.21 3.6 6.98 4.57 11.03 1.53 4.3 3.11 9.15 1.68 13.26-1.94 3.82-5.18 9.3-.5 12.81 1.12-.38-.96-8.2 3.54-7.23 3.49 2.35 2.33 6.81 1.31 10.18-3.38 4.17 5.78-1.3 4.14-4.25 1-2.04-1.1-4.65 1.69-1.34.93 2.88-.12 7.08-.8 9.08 2.73.25 5.01-7.25 4.48-1.14 2.99-1.51 4.14-8.25 1.8-11.7-4.82-.63-6.61-6.37-7.95-10.42-.86-2.76-5.06-9.38-3.87-10.35 3.13 5.14-.57-6.15-1.2-8.31-1.63-3.94-.2-9.52-6.2-9.09-4.8-3.16-10.3-6-13.5-10.92-.57-2.45-3.98-3.33-4.9-5.66-5.17-.72-5.78-4.39-10.77-2.1-3.5-1.67-7.26 2.48-10.6.09-1.12-4.17-4.55-7.76-9.03-7.96zm-.03.77c2.66.16 4.18 1.31 5.47 2.26 1.32-.42 1.52 4.52 1.39 2.41-.1 1.67-1.15.46.46 2.73 1.26-2.42-4.18-8.16-.2-3.87 2.6 2.32 1.4 5.73-.49 5.47-.76 2.19-.3-2.01-.94 1.7.86 1.86-2.1 2.16-2.68.3-1.85-1.73-.07-6 .18-1.64.78.7.28.88.9.35.48-1.92.96 2.1 1.75-1.3.5-4.43-.04.1-1.07 1.13.57-2.67-2.45 1.78-1.41-1.7-2.74-2.22 1.88-2.88 1.24-4.25-2.1-3.56.12-.25-1.24.65-1.14 2.08-2.45 4.72-.63 6.88.51 2.52 4.7.99 1.17 4.16-1.8 3.01-3.21-1.26-1.41-2.93 0-.22-3.84-2.81-3.3-2.57 4.26 1.66-1.72-5.66 1.73-4.4-.1 2.18 1.01 6.46.39 1.84-.13-4.31-2.69-2.03-1.52.7 3.44 4.23-4.66-.76-2.73 2.13-.74 1.56-3.06-.59-1.62.94-3.74 1.63 2.86-4.75-.26-2.38-1.04 1.64-2.04 4.65-.72.58.04 1.91-4.38-.44-2.54.73 2.3 1.27-2.39.52-.7 1.41.17-1.93 1.79 2.42-.58.5-2.02 1.8.16-1.94.3-3.27-.82-3.38 3.06-6.5 5.97-7.7 1-.35 2.05-.6 3.09-.86zm4.14.31c1.71 1.1 1.93 2 0 0zm-8.87.85c-1.06.84-1 .45 0 0zm6.92.44c-1.57.55 1.61 1.24 1.02 1.7.48-.7-.31-1.62-1.02-1.7zm3.84.13c1.41.71 2.76 2.03 2.74 3.65-.35-1.62-1.5-2.63-2.74-3.65zm-11.07.39c-.23.14-.14.67 0 0zm7.44.2c1.29.81-.08.64 0 0zm-8.72.1c-.3.46-.56.34 0 0zm.76.23c-.6.41-.18.71 0 0zm3.19-1.17c-1.38 1.15-.3.8 0 0zm-4.16 1.97c-.53.48.01-.06 0 0zm1.4.11c-1.14.98-.25.55 0 0zm-2.46.07c-1.2 1.62-2.3 2.63-.34.28l.24-.2zm11.8.1c1.07.97-.9 1.33 0 0zm1.7.06c-.1.76.46.36 0 0zm-4 .14c0 1 .36.64 0 0zm-7.91 0c-1.9 2.69-.45 2.55 0 0zm7.67.21c-.18.55.5.48 0 0zm4.98.45c.4.29.05.45 0 0zm-4.54.25c-.87.28.33.9 0 0zm6.73.65c2 2.59 1.6 4.81 0 0zm-10.3.13c-.94.43.37.7 0 0zm-5.7.34c.03.44.4.3 0 0zm.15.5c-.46 1.3-.27 1.83 0 0zm5.34.19c-1.84.6.97.56 0 0zm20.1.18c.49.63-.66.35 0 0zm5.96.04c-.07.7-1.59.37.1.97-1.68-.2-2.26-.61-.1-.97zm-19.46.1c-1.14 1.44 1.56 1.09 0 0zm-9.06.01c-2.86 1.6-.74.84-.11.13zm28.92.05c1.72.88 1.95 1.1 0 0zm-28.68.18c-.42.07.32.11 0 0zm26.25.04-.12.06zm-5.1.09c-.06.07-.32.05 0 0zm4.86.04c-.1.3-.92.5 0 0zm-24.21.05-1.03.53c-.52.49 1.5-.16 1.03-.53zm-7.72.02c-.16 2.18-.73 4.3-.17.52zm3.9.02c-.26.12-.15.7 0 0zm-.26 0c-.8.03.24.42 0 0zm23.97.01c.33.28 2.86.37 1.52.6-.61.68 1.95 1.78 3.37-.42 1.76.05.89.84.72 1.33-2.08 1.58-1.92 2.48.49.26 3.05-2.82 8.89 3.1 8.1 4.22-2.1-.42-.91-2.73-2.61-3.46-4.63-3.08 2.97 2.45 1.59 4.82-.5 2.06 3.37 1.52 1.63 3.05-1.28-1.85-2.42-.76-1.85-.67 1.87.64-1.91 1.48-3.44-.29 2.6.84-2.77-1.4.77.73 1.65.92 4.53.72 5.4.04 1.48.04-2.72-2.66-1.5-3.99.58.75.73 2.04 2.37 3.14-1.1-2.47.46.68.68.5-.26.64 1.92 2.5 2.09 3.23-3.48-1.91-7.08-.43-10.76-1.84 6.16-.75-4.34.87-3.9-3.29-1.17-3.61 3.13 5.67 4.43 1.5-4.24 3.68-4.54-9.75-5.23-3.1 3.32 3.04-3.97 6.51-3.09 7.2 1.97-1.56 4.07-5.88 1.86-1.07 1.9-.36 2.87.92 2.12 2.76-2.87 3.26 1.52-.84-1.1 2.25-1.6.44-2.6 2.72-2.2 2.1 1.08-.81 8.52-7.1 4.75-2.48-1.3 3-5.46 4.4-6.38 1.79-2.36-1.45-2.09-2.7-1.25.3-2.82-3.48-1.26-1.61-.38.26.33 1.34 2.3-.6 1.76 1.12-1.41 1 .25 2.08.36 3.16-1.85 1.43-.5-1.57-2.62-1.9.12-.48-.13 1.07-.89-.2-1.8-1.27 2-.71-1.3-2-.8-.44-2.47-3.23-.9-1.72 1.35-.62-1.16-2.3-3.02-3.98-1.47.47 1.68 7.36-1.33 2.98-2.12-4.95 3.68-1.75 4.14-2.19.5.18.78 1.81.75.74 3.98 2.9-.66-5.58.74-3.59 2.68.01.9 7.39 2.84 3.43 1.9-.78 4.85-2.61 1.4.24-4.04 1.38 2.84 4.3 1.82 1.9-.84 2.35-5.3-1.64-.84-2.1 2.94-4.34-3 .55-3.65.75-.51-1.91 2.9-2.62 2.43-2.54 1.54-2.12 4.24-4.8 3.47-7.67-1.45-3.21-1.01-2.31-2.03-3 .78.48-.61-.8-.3 1.15-2.04-1.2-2.58-.79 0 .23 1.92-1.16 1.44 2.79-1.01.33-2.6-.51-5.66 1.13-6.62-2.1.9-1.69 1.71 2 1.8-.51.64 1.13 3.61-.76 1.6-.82 1.12-.25 2.12-.84 3.2-1.18zm-10.5.06c-1.56.48-.87 1.7 0 0zm9.39.01c-.62.34-1.02.36 0 0zm-7.36.1c1.05 1.87 0 3.26 0 0zm8.41.04c-2.71 1.53-.56.84 0 0zm3.88.07c-.33.52-1.31 1.1 0 0zm3.33.13c.11.53-1.3.27 0 0zm-30.9 0c.04.45.4.3 0 0zm16.95.1c.24 0 1.16.76 0 0zm6.97.04c-.59.47.05.78 0 0zm8.96 0c2.39.96.44.2 0 0zm-13.2.01c.4.13-.28-.01 0 0zm-3.87.03c2.05.45 4.17 2.96 1.18.9.23 1.44.88 3.8 3.25 3.61-1.78-.17-2.68.78-1.88.93 1.3.63 1.25.15 2.64-.03 1.1.27 2.17.02 3.11 1.32.63 2.79-3.12-.2-3.98.26.03.23-1.12-.1-1.59-.26-3.02-3.21-1.14 2.42 1.24 1.58-3.32 0 1.03 1.54 1.74 2.18 3 1.17.22 2.71.98 1.1-2.07.95-3.15-3.7-4.35-1.87-1.36-2.33-2.3-3-1.7-4.57.45-1.74-.68-3.41-.64-5.15zm8.76.1c-1.27.66-.23.43 0 0zm-21.82.07c-1.17.42.34.18 0 0zm18.14 0c.1 0-.2.06 0 0zm-21.13.03c-3.15.9-.08 1.43 0 0zm-3.4.01c-.26 1.6.08-.05 0 0zm18.17.18c.36.04-.23.2 0 0zm11.92.01-.1.04zm-26.83.02c-.62.58-1.04.38 0 0zm30.68.08c.16.43-.5.21 0 0zm-11.14.1c-.07.1-.42.03 0 0zm7.49.07c.5.33-.88.12 0 0zm-6.26.03c1.5 1.48-3.57.5 0 0zm12.5.04c-.12.64.55.2 0 0zm-29.83.02c-.52.07-.96 1.8 0 0zm21.8.08c-1.38.53.81.82 0 0zm-11.1.03c-1.44 1.88-2.72 2.57 0 0zm.76.08c-.76 1.26-3.28 4.48-1.07.77l.6-.55zm7.99.02c-.55.2 2.49.47 0 0zm-24.75.05c-1.15.12.26.36 0 0zm-1.21.07c.43.87-1 1.52 0 0zm3.8.03c-1.01 1.48-1.78.97 0 0zm34.76.06c.25-.17.66.69 0 0zm-4.75 0c-.21.33.38.27 0 0zm-6.16.02c-2.6.1.45.96 0 0zm12.9.1c.96.28.04.8 0 0zm-8.15 0c-.02.28-.53.2 0 0zm7.17.11c1.07.35.84.86 0 0zm-21.55.14c1.44 1.89.11 1.72 0 0zm14.14.08c-.28.46-.58.36 0 0zm-25.03.06c1.36-.02-1.97 1.34 0 0zm32.49.16c1 .46 1.46 1.06 0 0zm-15.36.13c-.38.27.21.32 0 0zm-13.2.12c.03.56.34.34 0 0zm25.14.02c1.21 1.15 1.7.75 0 0zm-33.79.17c.58 3-.22-1.75.11 1.73 2.1 1.59-1.82.05-.49-1.11l.16-.4zm21.68.03c.31.48.55.33 0 0zm-16.23.12c.4.64-.89-.1 0 0zm27.55.03c-1.11-.22-.69 1.84-.38 1.13 1.22 2.16 2.1-.87.38-1.13zm5.84.07c1.25.87 1.64 1.88 0 0zm-31.94.07c2.87 1.28 1.18 1.56-.6.08.2-.02.4-.08.6-.08zm28.77.06c-1.88 1.24 3.12 3.3.6.23zm-20.47.02c1.03 1.13-1.08 5.47.34 2 .38-.97-1.69-1.33-.34-2zm-9.56.08c1.48.37 4.15 2.7 1.06.53zm11.43.04c.21.22-.13.51 0 0zm15.95 0c1.2 1.11.25 1.73 0 0zm-.16.05c.3.3-.64.49 0 0zm-17.38.02c2.63-.4-.76 5.08.53 1.21.06-.5-1.1-.68-.53-1.21zm16.99 0c.34.9-.71.06 0 0zm-8.48.02c-.41.07.33.1 0 0zm11.78.17c1.5.2.3 1.5 0 0zm-12.42.01c-3.7.47 2.58.21 0 0zm-6.15.24c.11.79-.12.52 0 0zm-15 .03c.46 1.01-2.2.42 0 0zm36.8.01c3.14 1.7 3.28 5.18.62.86zm-25.68.02c2.9 2.95-1.88 2.18 0 0zm16.57 0c-.36.27.08.5 0 0zm-25.13.1c-.41 2.36-.85 2.72-.4.17zm-5.49.14c.65 1.54.54 2.05 0 0zm40.87.06c.64.45.2.43 0 0zm-34.78 0c3.23 1.77-2.87 2.48 0 0zm25.68.04c-.54.88.05.97 0 0zm-35.06 0c-.23 1.02-.76.7 0 0zm4.94.15c1.78.5.2.53 0 0zm35.64.04c.2.45-.37.46 0 0zm-12.58.13c4.7 1.19 1.4 2.1 0 0zm-25.88.03c.7.6-.52.5 0 0zm30.75.01c1.22 2.16-.3 1.88 0 0zm-11.54 0c.2 2.6-.98 2.05 0 0zm18.6.02c.04-.01.04.08 0 0zm4.95.18c2.69 2.18 2.15 2.33 0 0zm-18.3.03c3.87.38-3.08.52 0 0zm16.8 0c.83 1.87 5.83 5.78 1.76 2.57a8 8 0 0 1-1.77-2.57zm-43.13.06c1.2-.5-.42 2.33 0 0zm15.5 0c.37.27-.22.33 0 0zm7.09.03c-.5.56.63.54 0 0zm11.2.03c-.2 1.88 1.44.2 0 0zm-24.48.05c-.38.27.22.33 0 0zm18.03.04c.32.34.09.1 0 0zm-15.68.02c.49.73-.42 1.29 0 0zm1.64.06c.02.86.37.59 0 0zm-13.8.01c.49.53-.14.53 0 0zm20.78 0c.3.07-.1.43 0 0zm-18.73.07c1.47.55 1.26 1.2 0 0zm10.8.01c.1.77-.12.52 0 0zm-10.06 0c.6.15.56.63 0 0zm29.1.2c2.07 4.6-2.3.4 0 0zm-11.11.01c-.95 2.06-1.3 1.7 0 0zm-15.73.01c2.39.07 1.36 2.15 0 0zm35.58.03c-.03.5.58.28 0 0zm-15.52 0c.27.09-.2.14 0 0zm-13.71.06c-.07 1.4-2.59 1.83 0 0zm-7.98.04c.2-.02 0 .32 0 0zm1.2.01c1.56.54-.58 4.3.93 1.24 1.14-.68.65 1.02 1.8.99 3.07.33 6.11 5.92 5.79 6.64-1.28-3.8-4.27-2.59-6.65-1.68-1.93-.3 2-3.33.7-3.52-.15 2.35-4-3.43-2.8-2.7-.6 3.72-.86.58.24-.97zm12.92 0c1.26 1.6 2.7 1.68 1.1 2.4-1.09-1.36-1.76 5.66-2.22 2.55.28-1.44.07-4.44 1.12-4.95zm11.26.04c.4.12 1.45.75 0 0zm9.49.05c-.7 3.38 2.41 1 0 0zm-11.13.03c.45.1-.6.38 0 0zm-2.72.05-.2.04zm-20.68.13c.44 2.59-.83 1.34 0 0zm10.26.01c-.4 2.94.85 1.98 0 0zm-1.47.07c.45 1.77-2.19 3.12-.56.65-1.15 1.13-.05-1.55.47-.26zm18.19.04c2.25 1.3-.1 5.96.77 1.6.23-.33-1.49-1.4-.77-1.6zm12.01.04c.4 1.36-.56.97 0 0zm-31.29.06-.07.1zm28.32.08c.3 1.08.48.57 0 0zm-37.48.04c.64 2.58-.84 2.3 0 0zm14.27 0c-1.14 1.17-1.47 1.46 0 0zm-9.8.03v.01zm36.44.02c-.06.4 1.26.8 0 0zm-20.8.07c.86 2.42 10.38 2.52 6.34 3.11-1.99-1.1-5.78-.24-6.34-3.11zm-1.35.02c-.04 1.67 1.67 2.6 2.37 4.28-1.15-.85-1.46-2.42-2.65-3.3zm-4.1.05c-.8 3.78-1.97 3.54 0 0zm-14.27.01c.03.37-.38.37 0 0zm8.35.16c-.07 1.23-2.38.27 0 0zm27.43.06c.52.42.25.95 0 0zm-31.35.02c-.06.42-.4-.02 0 0zm-6.46.09c.38.29-.11.33 0 0zm43.46.01c1.53 2.51 1.32 3.07 0 0zm-41.24 0c.51.41-.49 1.1 0 0zm43.4 0c2.02 2.27-.3 1.25.07.31zm-38.74.08c2.04 1.66-.48.76 0 0zm28.96 0c.43.62.9.44 0 0zm-7.65.02c-1.03.62 0 1.44 0 0zm-26.41.01c.22.4-.15.34 0 0zm6.75.08c.38.27-.21.32 0 0zm2 .05c.12.23-.32.09 0 0zm31.6.16c.87.79-.13 1.09 0 0zm-29.35.02c-1.5.35 1.49.82 0 0zm25.8.11c-.51.09.84.33 0 0zm-36.71.02c.97-.04.44 1.17 0 0zm8.72.13c.14.63-.91.01 0 0zm.74.01c-.36.27.08.49 0 0zm-2.97 0c.95.57-.7.26 0 0zm10.65.07c.05 1.22-1.37.38 0 0zm16.53 0c2.5.72.92 1.37-.28.73 1.45-1.12-1.38.93 1.02 1.16 1.6-1.51 2.04-.7-.74-1.89zm-26.17 0c.52 1-1.17 0 0 0zm18.93 0c-.53.22-.02.3 0 0zm-20.23.07c.16.16-.11.1 0 0zm20.87.02c.13 1.16-.8 1.55 0 0zm17.83.02c-.28 1 3.9 4 3.39 3.83-1.37-1.1-2.9-2-3.39-3.83zm-17.19.03c2.26 2.3-1.39 1.2 0 0zm-29.05.1c.4 1.03.1.7 0 0zm6.33.13c.37.98-.53 1.86.4.54l-.32-.51zm-4.03.02c.53 2.14-.86 1.5 0 0zm5.12.07c.79 0 .88 1.4 0 0zm3.75.04c.85 1.61-.87.85 0 0zm17.28.05c.17.63-.12.5 0 0zm-18.93.03c.92.06-1 .25 0 0zm32.45.03c.96.75.24.9 0 0zm-36.9.1c-.61.35.46.44 0 0zm5.4.16c-.6 1.5-3.5-.47 0 0zm34.16.07c-.35-1.52 1.7 3.15 0 0zm-1.32 0c.12.52.81.9 0 0zm-26 0c.28.04 1.07.45 0 0zm-14.34.08c.28.02-.27.16 0 0zm.73.03c2.77 2.31 1.97 2.78-.06.02zm-3.4.06c.27.77-.37.97 0 0zm35.35.03c.58.1-.58.27 0 0zm-24.11.04c.54.13-.26.34 0 0zm7.63.08c.95.72-.57 1.73 0 0zm20.99.01c-3.48 1.3.78 1.27 0 0zm3.87.1c.39.28.05.47 0 0zm-37.03.04c.49 2.73 2.7 1.53 2.45 2.16-.88-.7-1.29-1.78-2.45-2.16zm12.66.02c2.86 1.1.48 2.2 0 0zm-6.28.02c-.28.59-.3.37 0 0zm-2.5.03c.42 2.32-3.12-.05 0 0zm3.02 0c.29 2.05 1.75 5.52-.15 1.28v-1.06zm11.07.01c.33.11-.41.07 0 0zm-13 .06c.99.8-.06 3.71.47 5.25-1.64-2.47-2.69-4.05-.47-5.25zm-11.15.07c1.4.4 1.2 1.75 0 0zm44.65.11c3.56 1.95 6.77 4.7 9.7 7.5.3-1.06 3.59 1.72 1 .96 4.38 2.1 8.63 5.34 7.7 10.96-.62 1.37-.34 2.83-.69 4.07.53 4.05 4.73 8.3 4.02 11.87-1.79 3.66-.06.75.8 1.35.18 1.54 1.2 5.71 1.5 7.66-1.37 2.7-3.1-1.08-3.95-.9 2.1 1.23-1.44 1.12 1.36 1.94-2 .05-3.35 0-4.08 2.19 1.55-2.6-1.3-3.36 1.43-3.06 1.3-.11 1.16-1.33.21-.2-2.43-.91 1.54-3.74-.03-2.63.44-3.55 2.52-2.27.89-5.61-.96 2.37 1.12-5.64-.49-2.96-.86-3.74-.94-6.32-2.83-10.24-1.11-5.27-.25 1.48.68 3.2-.6-3.15.53.01.17.9-1.6-2.9-1.8-6.46-1.85-9.53.6 3.45-1.85-1.17-.29.84-1.36-2.11-.59-8.5-1.65-5.15-.44-2.72-1.62-2.02-1.94-1.51-1.41-2.56-7.74-3.83-7.45-4.18-2.81-.49-4.06-1.5-2.1-2.03-1.94.27-3.94-2.5-2.43-.11-4.5-3.08 1.16-1.25 2.67-1.4-3.71-3.43.64-2.01.65-1.79-1.5-1.55-2.76 0-3-2.14zm-34.04.01c.26.46-.48.16 0 0zm20.97.08c2.36 1.4.1.54 0 0zm-2.83 0c-.53 2-1.95.5 0 0zm-15.34.03c1 0 .67 4.36-.03.2zm-13.68.08c2.16 1.24-.23 2.3 0 0zm25.3 0 .47.18zm15.4.07c1.47.76.49 1.26 0 0zm-29.65.05c.07-.05-.52.54 0 0zm29.63 0c.3.48.56.33 0 0zm-24.66.05c.32 2.18.23 2.16.02 2.67-1.54.23-.19 3.75-2.17 5.73.75-3.33.62-5.78 2.15-8.4zm-13.1.06c.6.73.5 2.5 0 0zm16.05.11c.65 0 .75.72 0 0zm3.23 0c4.18 2.64-.37 2.03 0 0zm14.3.03c.39.69.7.38 0 0zm-10.83 0c.84.32-.71 1.8 0 0zm.42.11c4.3.94-.32 3.46 0 0zm17.15.03c.8.1-.37.22 0 0zm-11.28 0c1.4.63 1 .6 0 0zm-15.6.02c2.3 2.25-2.9 7.93-.23 3.33 1.08-.98-.03-2.14.23-3.33zm-14.66.1.04.3zm-.16.12c.38 1.48-.01.47-.03 1.42-.06.18-2.58-.62-.2-1.33.04.07.1.1.23-.09zm17.44.1c-.46.95-1.48.99 0 0zm.4.15c3.93.15 2.2 2.06 0 0zm-11.75.03c.21.33-.38.27 0 0zm-4.04.06c.8.32.06 1.7 0 0zm30.03.1c.4.06 1.92 1.12 0 0zm-4.66.1c-.68 2.15-1.83.66 0 0zm-29.38.03c2.08 1.34.46 1.6 0 0zm37.44.07c1.1.07-1.22.07 0 0zm-5.14.03c-.14.51-1.98.8 0 0zm3.7.08c.33.1-.4.07 0 0zm-3.2.1c1.67.47 7.98.96 2.61 1.44-3.28-1.57-1.18 2.94-3.18-.35-1-.27.22-1 .57-1.08zm-30.15.02c4.02-.09-1.32 4.5 0 0zm36.61.15c1.13.82 1.51.45 0 0zm-7.9.27c.47.6-.92.5 0 0zm-18.15.07c.37 1.17-1.11 1.78 0 0zm9.32.12c2.12.89 2.06 6.75 1.2 1.9-.2-.75-.8-1.26-1.2-1.9zm4.52.15c1.66.2-.09 1 0 0zm23.03.02c1.33 1.04 2.14 1.85 0 0zm-36.5.1c1.9 1.85 1.38 1.63.44 1.91 1-1.56.08 6.69-.37 1.35.06-1.12-.76-2.18-.08-3.26zm-12.21.01c1.1.52.33.4 0 0zm47.5.04c.67.73.67.28 0 0zm-29 .02c-1.34 1.5-2.1 1.25 0 0zm-11.96.02c1.02.2 1.52 3.27 1.43.6 3.5.41 3.01 7.86 1.66 5.43 1.72.13-.2-4.05-1.77-.91-.97.24-.36 4.36-2.67 1.75.37-2.82-3.73-3.64.09-3.76-.48-4.13 2.46 2.71 1.8-1.9.89-.82-1.5-.87-.54-1.2zm23.7.08c-.67.88-1.6.23 0 0zm-11.18.02c5.88.15-3.4 1.6-.32.05zm-16.55.05c.43.52 1.06-.22.74 1.01-.37-.16-1.35-.44-.74-1zm37.88.01c1.06.08-1.06.08 0 0zm-16.3.03c1.57 1.11.75 1.9 0 0zm-15.54.04c1.27 1.08.56.6.36.8-.34.02-1.01-.87-.36-.8zm30.06.04c1.43 1.38 7.62 4.69 2.6 1.87-.33-.35-3.34-1.6-2.6-1.87zm4.54 0c.31.17-.46.06 0 0zm-2.56.1c2.48.96 3.24 3.98-.12.94-.74-.33-1.9-1.3.12-.93zm-39.74.04c.86.89-.45 1.81 0 0zm5.64.22c1.18.71-1.68.24 0 0zm8.15.2c.66.35-.03.94 0 0zm-9.15 0c.64.34-.42.08 0 0zm13.75.02c.47.11-.7.03 0 0zm-11.6.1c.99.33-.56 1.07 0 0zm-3 0c1.5.4.25.76 0 0zm43.34.03c-.59.22-.13.52 0 0zm-45.66.16c.5 0 .5.67 0 0zm4.04.04c1.27.9-.54 1.99 0 0zm26.9.04c.1 1.89-1.13.58 0 0zm-22.37.01c1.08 2.84.7.84 1.4 3.38.77 1.6-2.44 9.16-1.25 3.4.84-3.44.29-2.93-.15-6.78zm14.69.06c-.28.46-.58.36 0 0zm8.94 0c1.5-.1-2.05 3.3.2.85-1.99 2.01-1.96-1.32-.2-.85zm-23.13.07.14.36c-.07-.06-.17-.27-.14-.36zm38.01.13c.83.78 1.2.7 0 0zm-45.76 0c.34 1.53-.65.06 0 0zm44 .08c.3.47.97.8 0 0zM-8.2 414c.2.41.33 1.05-.2.1zm.46.05c-.13.3.07.01 0 0zm22.1 0c.39.2-1.08.6 0 0zm-20.05.06c.33 1.37-.63 1.67 0 0zm11.71.16c-.97 3.56-1.77.92 0 0zm3.39.1c1.16.85-.1 1.92 0 0zm12.21.1c-.42.28-.82.29 0 0zm-30.4.03c.68.73-.44 1.62 0 0zm1.19.03c1.1 1.15.05 1.5 0 0zm14.92.08c2.94 2.59 1.8 2.68 0 0zm14.75.03c.63 2.7-3.17.94-.12.2.07.02.09-.16.12-.2zm-29.71.08c.56 1.46-.06.46 0 0zm23.71.01c-.38.27.21.33 0 0zm-24.3.16c.32.46.27 1.38 0 0zm41.18.35c-.05.6-.63.05 0 0zM19 415.3c-2.18 1.2 2.15.7 0 0zm6.12.1c-1.89 2.21-2.5 2 0 0zm8.54.12c.56.22-.4.35 0 0zm-42.7 0c.12 1.6-.61.67 0 0zm36.86.05c-.83 1.08-3.38 6.07-1.5 1.89.52-.58.74-1.53 1.5-1.89zm-23.36.06c-.33.5-.08.14 0 0zm14.7.01c.28.37-.54.16 0 0zm6.07.11c-.08 3-3.62 2.43 0 0zm-24.52.03c-.34.26.62.7 0 0zm27.55 0c-1.23 1.74-.26 3.45-1.9 5.37-.97-1.74.32-3.76 1.9-5.36zm5 .18c2.12 1.41 5.72 3.34 1.42 1l-.89-.6zm-11.83.01c-.89 1-.2.25 0 0zm1.93.03c-.65 1.89-.5.4 0 0zm-30.16.12c1.5 2.53 1.49 4.73.28.68l-.3-.67zm10.46 0c-.76 1.36-.4.65 0 0zm38.86.12c.66.53.54 1.11 0 0zm-50.4.01c.63.35-.54.67 0 0zm28.75.08c.04.24-.56.22 0 0zm-20.42.1c.57.35.29.47 0 0zm-1.3.03c.08 1.7-4.1 4.86-2.2.85.34 2.01 1.17-1.18 2.2-.85zm38.5.08c-1.27.4.37.68 0 0zm-18.48 0c-1.33.18-.92.81 0 0zm-15.18.02c.8.7-1.25 1.23 0 0zm31.1.11c2.6.06 8.15 3.94 3.19 1.67-.45-.42-2.74-.8-3.2-1.67zm8.94.02c.26-.08.25.46 0 0zm-34.03.04c1.52.76.15.7 0 0zm1.42.07c.52.88.78.44 0 0zm33.04.18c3.15 1.66 4.05 2.55 0 0zM8.8 417c.25 1.97 5.93 5.8 1.26 2.45-.29-.63-1.62-1.8-1.26-2.45zm-3.37.1c2.48 2.56 2.66 4.06 0 0zm13.05.12c-.6.43.05.49 0 0zm9.36.1c.42.12-.63.6 0 0zm14.84.02c.48 2.14 2.83 1.44 0 0zm-20.4.1c.66.3-2.23 1.13 0 0zm-21.22.09c-.56.46.5.5 0 0zm41.66.01c1.32.75 1.8 2 .15.12zm-43.89 0c.12.12-.11.1 0 0zm31.44.1c-1.47 2.76-1.87 2.15 0 0zm-30.9.22c.68.52.05.73 0 0zm23.4.02c-.53 1.1-1.52.88 0 0zm7.82.01c.65 1.75-2.14 7.76-1.1 3.1-3.97 3.61-.17-1.76 1.1-3.1zm-28.55.03c.66.57-.2 2.14 0 0zm21.79.1c-.74 2.9-3.68 1.36 0 0zm-20.53.2c-.93 3.37-1.47 1.78 0 0zm41.37.06c1.99.97 6 .84 5.26 3.03a54 54 0 0 1-5.26-3.03zm-44.25.14c-.85 2.66-.45 3.55-.98 6.84.2-1.84-1.16-5.13.28-5.15.1.76.46-1.81.7-1.69zm38.42.07c.27.8 1.1-.1 0 0zm-1.04.12.98.5zm-1.22.01c.71 1.72 1.67 8.23.27 2.34-.13-.77-.4-1.58-.27-2.34zm4.26 0c1.2.49 1.4 1.35 0 0zm-45.5.01c-1.79.99 1.94 1.52 0 0zm28.75.01c-.5 1.67.25.63-1.36 2.11-.93 3.05-9.8-.58-3.7-.03 1.94-2.6 2.11-.24 4.42-1.18l.34-.4zm-28.74.29c.42.42-.4.62 0 0zm-1.28.05c.19.18-.1.12 0 0zm46.43 0c1.28.63 2.3-.09 3.55 1.65-1.06-.6-2.82-.7-3.55-1.65zm-42.7.16c2.68 1.83-2.34 2.76.36 1.16.38-.57-1.18-.77-.35-1.16zm25.64.01c.15.48-.66.24 0 0zm15.6.06c.3.17-.21 0 0 0zm-19.09.07c-2.88.6.79 1.11 0 0zm4.96.01c-.26 1.89-1.93 1.34 0 0zm14.38.02c.28.24-.26.01 0 0zm-40.17.07c.47.47-.88.73 0 0zm2.44 0c1.24.77-1.72 3.56 0 0zm13.8.06c.86-.08.03.6 0 0zm24.12 0c2.75 1.31 1.69 1.05 0 0zm-7.1.01c-.61 2.42-1.86 4.3-.3.36zm-3.73.24c-1.43 1.32-1.9 5.1-1.42 1.35.47-.45.86-1 1.42-1.35zm4.06.04c2.23 2.39-5.23 9.45.2 6.55.03-2.98 2.97-5.96 1.07-1.41-1.45 3.17-.08 3.54.71 1.07 1.32-1.72 1.91-3.84 1.27-.39-.7 2.95-.44 2.13-.07 3.28.8-4.76 4.33 7.8 1.81 5.32 1 2.87-1.06-2 .3 1.64-2.17-.7-1.55-3.9-2.28-.49-3.13 6.67 2.22-8.06-.38-1.74-.54 1.61-1.52 5.68.3 2.75.14 2.7-3.67 4.47-1.55.54-.75-.13-.3 1.03-.74-.93-.3 1.8-.9 1.33-1.28 2.53-1.41 3.32-4.25 2.1-3.65-.9 2.69-2.6.21-2.89-.78-5.64 2.37-1.24 5.46 1.85 3.13 3.8.8-.3 2.03-1.83 2.61-.6-.24-2.44 1.16-5.63-.77-5.63-.81-1.73-5.26-1.5-7.8-3.26.7-.62 1.77-1.64 2.82-1.54-1.92 2.38 1.45.29 1.44 2.33 3.16-.83 2.65-4.48.67-3.22 1.14-1.71 2.52-1.38 2.97-4.06zm-35.36.03c.6.07.23 1.1 0 0zm43.85.08c.5.16.09.38 0 0zm-28.05 0c-.53.12 1.45.34 0 0zm38.3.01c1.42.94.59 2.26 0 0zm-9.82.1c3.16.32 6.56 5.76 2 1.46-.25-.55-2.07-.92-2-1.45zm-23.4.02c-.81.08.83.08 0 0zm-24.5 0c1.2 1.45-.37.34 0 0zm1.25.14c1.02.26.5 1.62 0 0zm1.36.07c1 .89-.34.91 0 0zm29.54 0c1.39 1.64-1.43.7 0 0zm25.02.03c1.24 2.17.75 1.92 0 0zm-25.81.08c-.29.47-.57.36 0 0zm25.23.11c1.59.13 1.07 4-.18.6l-.1-.53zm-9 .01c.57-.04 1.65 1.32 0 0zm-41.68.04c-.13.23.2.47 0 0zm23.95.02c1 .44-.15.2 0 0zm-28.83.1c.48.37.8.92 0 0zm7.15.12c.44.11-.1.5 0 0zm-10.9.06c-1.15 2.04 1 2.82 0 0zm3.37.09c.67.37-.02 2.15 0 0zm29.88 0c-.35.41-.94.59 0 0zm-12.95.06c2.77 2.79 1.07 2.05 0 0zm-9.06 0c.65.7-.28 1.44 0 0zm40.03.04c1.34.4 1.5 1.39 0 0zm-30.01.01c.51.22-.12.18 0 0zm33.56.02c1.25 1.65-.96.91 0 0zm-49.72.03c.74.28-.43.16 0 0zm29.42.16c1.31.73 0 .72 0 0zm3.93.04c-.05 1.23-2.08 1.69 0 0zm15.13.08c1.5.4 1.25 1.75 0 0zm-54 0c-.08 1.12.09 1.82 0 0zm7.87.04c-.2 1.06-1.66.15 0 0zm26.32 0c1.07.56-3.01 1.5-.02 1.16-2.61 1.71 2.04 1.03 1.04 2.44-1.45 3.02-4.81-1.5-7.57-1.8-1.47-2.65 7.06 3.16 1.98.15-1.82-1.68 4-1.25 4.57-1.95zm-23.19.02c.17.31-1.3 1.67 0 0zm19.76.03c-.77.17.43.27 0 0zm-3.93.12c.15.03.39.13 0 0zm32.64.08c2.67 1.5 1.95 7.05.78 1.43-.05-.54-.72-.93-.78-1.43zm-15.8.05c-.38 1.61-2.3 2.8 0 0zm-37.97.08c3.83-.54.47 4.37.53 1.18 2.5-.33-3.3-1.23-.53-1.18zm55.9.06c.1 1.4 1.97 7.72.3 2.5-.16-.79-.69-1.72-.3-2.5zm-43.48 0c.81.24-.19 1.47 0 0zm16.54.02c.68.27-.56.99 0 0zm23.45.05c-1.35.44.27.33 0 0zm-5.13 0c2.33 1.59 3.85 3.36.61.57l-.57-.48-.05-.08zm-26.28.02c2.27 1.71-2.06 1.5-.33 1.29-.38-.66-.32-1.1.33-1.29zm1.52.04c.95.41-.46.04 0 0zm4.2.05c-.78.17.42.27 0 0zm-8.15.1c-.58.24.35.4 0 0zm-19.65.03c.8.33-.27.29 0 0zm26.6.06c.79.64 3.43.3 0 0zm-22.88.04c.8 2.74-2.31 1.07 0 0zm48.7 0c.02 1.19-.68 1.61 0 0zm-30.7.06c.05.78.63.33 0 0zm-7.63.07c1.46 1.85 1.52 4.37 1.7 6.59 1.1-1.14-1.28 5.23-.02 1.83-.36 3.07.82-.65.5-.86.44.4.64-1.55 1.16-1.68.15 2.25-.44 9.34-.71 3.5-.49.01-.24 3.34-.5.48-.72 1.68 1.32 4.81-.93 5.36 1.38-.45-1.74 1.2-1.72 1.52 2.59.86 4.67-4.9 3.4.25-2.28-.05-4.97 1.22-3.43 1.55-.76.24-2.15.54-.44 1.13-.5 1.73-6.04-4.15-6.63-.02-2.08-1.36 1.76 3.84-1.15.1-1.73-3.15-5.9-2.37-8.88-3.04-2.73-.07 5.06-1.31-.6-.83-4.15 1.46 1.82-.68.01-1.14 2.96-.22 5.64 1.7 8.15 1.67 1.62.83 1.93-2.97 4.15-1.69-2.11.34-.9 2.53-.8 1.67-1.83-1.3 1.79-.26 1.57-.63 1.07.95-2.02 1 .59.57-2.12 1.93 4.58-.64 2.52-1.71 1.44 2.53 1.3-.56 1.49-.42 2.58.9-1.97-3.75 1.3-.62 2.34-.15-4.78-4.67-.4-1.5 2.24.1 1.32-4.1.42-.3-1.9-2.58-1.29-8.67-1.05-10.54.38-.21 1.06.82.3-1.24zm-12.6.04c.77.29-.38.15 0 0zm18.92 0c.53.2-.38.27 0 0zm-19.95.03c.66-.22.9 2.11.59.67.18-.12-.97-.6-.59-.67zm-.9.16c.06.46-.15.07 0 0zm13.6.04c.52 1.36-.5 1.78 0 0zm21.43 0c.19.22-1.09 1.54 0 0zm-1.64 0c.04.14-.14.06 0 0zm18.31.03c.4.5-.04.84 0 0zm-10.83.12c.13 1.63-1 1.92 0 0zm-7.05.04c1.06.14.19 1.7 0 0zm-14.7.03c.5.13 1.25 1 0 0zm14.13.04c.5 1.93-.52 2.37 0 0zm-26.94.14c-.02.78-.92.65 0 0zm26.12.17-.68.4zm-13.56.1c2.38 1.97 1.2 2 0 0zm36.45.13c-1.93.57-.66 4.03-.86 3.13 1.3 3 1.3 3.8 2.11.3-.04-1.13-.24-2.72-1.25-3.43zm-22.45 0c-.12 2.63-3.85.3 0 0zm5.55.06c.01 2.57-2.25 4.74-.39 1.17-.21-.54.14-.83.39-1.17zm-10.15.06c-1.68.47 1.59.77.89.33.42-.3-1.65-.17-.9-.33zm2.19.06-.23.1zm-6.9.07c1.93.75 1.15 1.12 0 0zm-17.97.02c.4-.04-1.18.96 0 0zm-2.02.07c1.64.61-.46.25 0 0zm38.72 0c-.06 1.75 1.87 8.7.03 3.22a9 9 0 0 1-.03-3.21zm-13.64.01c.33.11-.41.07 0 0zm26.68 0c1.1.92-.32.48 0 0zm-53.74.01c.6.66 0 .56 0 0zm20 .03c.57.26-.29 1.6 0 0zm28.58.06c1.45 1.98.67 3.34.12.2zm-15.59.03c1.04.72.16.7 0 0zm1.6.09c-.3.46-.57.35 0 0zm16.2.11c.74 1.1-.67.24 0 0zm-12.16.11c.14 1.81-1.4 2.8 0 0zm-26.5 0c.18 1.92-.28 2 0 0zm11.74.04c2.86 1.37 3.11 1.76 0 0zm-23.53.03c.64.2-.28.03 0 0zm17.03.16c.36 2.2-.9 9.54-.35 3.22.15-1.06.07-2.22.35-3.22zm-14 0c.28 2.8-.77 1.83 0 0zm-.9 0c.72.53-.47.1 0 0zm17.34.02c.52 1.31-.38 1.6 0 0zm34.11.09c.84 1.02.48.84.14 1.14-1.43-2.24.83.68-.14-1.14zm-52.54.01c-.18.64-.95.43 0 0zm48.17.08c1.95.06 1.62 2.31 2.08 4.33.13.88-1.3-4.04-1.7-1.48-1.55-3.84 3.13 1.63-.13-1.76-.4-.16-.08-.82-.25-1.09zm-15.67.03c1.23-.05-2.95 2.22 0 0zm15.94.08.06.05zm-36.01.15c-.75.75.77 1.47 0 0zm14.68 0c-.34.44.34.45 0 0zm24.87 0c-.07 1.73.09-.42 0 0zm-39.93.11c-.34.48.35.43 0 0zm21.13.02c-.02 2.35-3.9 1.53 0 0zm-13.78.38c.37 2.62-1.13.57 0 0zm6 .21c.96.45 1.12 1.76.16.23zm26.78.12c1.95.56-.96 2.55 0 0zm-41.49.22c.22.23-.13.5 0 0zm28.07.07c.13 2.02-1.17 2.3 0 0zm-15.14.07c2.3 1.56-.14 1.17 0 0zm12.43.08c-.07.81-.12.71 0 0zm-11.9.08c2.79.87.13 1.01 0 0zm28.86.02c-.27 2.02-.3 1.5 0 0zm-38.79.03c-.18 2.52-1.15 2.23 0 0zm40.03.02c.47.71-.26.2 0 0zm-31.43 0c.44 1.42-.66 2.02-.06.16zm-21.57.1c-.14.29.19.55 0 0zm54.34.23c1.28 2.99.82 4 .12.8l-.12-.8zm-58.78.1c.2.33-.12.37 0 0zm26.34.05c.5.6-.54.95 0 0zm31.77.07c.34 1.66-.85 1.47 0 0zm-5.97.1c2.2 3 .13 3.67 0 0zm-20.64.04c1.4.6 1.5 1.33 0 0zm7.82.1c.8.48-.96.91 0 0zm12.05.17c1.65 3.57.44 3.1 0 0zm6.94.01c0 .8-.15.5 0 0zm-35.27.38c2.45 2.86-.62.32 0 0zm32.88.18c.5.6-.04.6 0 0zm-38.35.03c0 .1-.14.6 0 0zm16.2.12c.88.34.75.34 0 0zm-9.23.07c.46 2.19-1.07 2.84 0 0zm11.03.17c2.04 1.82-.77.26 0 0zm-18.3.05c.2.45-.33.08 0 0zm9.87.01c1.74.18.29 2.7 0 0zm13.32.17c-.67 1.92 0 .19-.04.52-.22.94.47-.46.04-.52zm-17.54.18.09.14zm-17.89.12c-.63 1.25-.21 3.96-.46 1.05-.95 4.07 1.62 1.73.46-1.05zm49.1.08c.14.66-.12.46 0 0zm-16.47.02c.71-.17 0 .48 0 0zm20.36.06c.36 1.74-.1.74 0 0zm-2.11.04c.12.78-.12.51 0 0zm-38.92.07c.19.55-.13.29 0 0zm10.22.05c.88.96.23 1.24 0 0zm30.63.03c.11.87-.11.61 0 0zm-5.48.01c.64.31.03.5 0 0zm-47.71.01c-.15.34.22.38 0 0zm32.95.02c-.32.61 1.07 2.09-.12.83-.38-.45-.28-.53.12-.83zm16.04.05c.33 1.18 1.99 6.5-.1 2.25-1.26-2.04-.7-1.07.1-2.25zm5.17.03c.52.42.25.96 0 0zm-4.9.01c.2.22-.14.51 0 0zm4.34.14c.56.97.34 2.32 0 0zm-16.59.34c-.47-.24-.06 2.6 0 0zm-8.82.05c2.44 1.79-2.57 1.19 0 0zm-18.72 0c.87 1.01-1.77 5.78-.66 2.98.67-.87.4-2 .66-2.98zm-9.06.27c.1 1.58-.1 1 0 0zm29.06.02c.19.47-.3.56 0 0zm25.74.07c.56 2.1.48 2.91-.2.07.08.54.2.06.2-.07zm-16.1.12c1.59 2.28.53 2.06 0 0zm13.74.03c.46 2.17-.96 2.75 0 0zm-18.55.07c-.32 2.44-1.31 4.56-.42.79 0-.09.05-.83.42-.8zm18.83.03c1.44 1.16 1.54 5.38 1.77 8.11-.51-1.61.15-1.57-.68-3.8.03 1.4-1.32-4.4-1.1-4.31zm-41.02 0c.21.23-.14.5 0 0zm24.8 0c.03.69-.44.58 0 0zm-9.5.32c1.88.69.22.44 0 0zm26.57.11c.61.32.19 1.36 0 0zm-23.87.06c.25.1-.88.2 0 0zm-16.1.1c.16 1.6-.49 1.54 0 0zm15.6.16c.16.23-.45.13 0 0zm.68.16c-1.18.85-1.03.38 0 0zm1.18.42c.52.15-.18 1.03 0 0zm-3.63.05c1.05 2.03 1.74 4.13-.02.49zm20.9.03c2.3 3.98 4.09 8.55 4.58 13.11a51 51 0 0 0-4.58-13.11zm-22.8.06c2.57 1.52 1.37 4.21-.15.28l.01-.21zm-.38.02c1.07 2.43 1.92 3.47-.13.75l-.15-.51zm27.6.1c.4.68-.35 1.85-.03.96a.8.8 0 0 1 .04-.95zm-11.85.16c1.53-.45 2.73 5.47 1.66 4 .05-2.16-.09-2.53-1.66-4zm-5.62.04c-.83.36.53.8 0 0zm-3.98.06-.06.03zm3.27.05c-1.74.23.44 1.18 0 0zm20.8.04c.4.43-.09.36 0 0zm-24.77.09c-.35-.38-.96 1.3-.31.48-.24 1.15 1.2-.4.31-.48zm24.63.1c1.16 1.97 1.7 6.26.53 1.72-.15-.58-.43-1.13-.53-1.73zm-15.03 0c.48.14.06.4 0 0zm-29.3.04c-.77 1.98-.2 1.94 0 0zm2.47.05c.13.66-.12.45 0 0zm-4.3.05c.37.97-.1.86 0 0zm21.56.02c.02.4-.36.34 0 0zm21.46.4c.92 1.55-.01 2.2 0 0zm-38.8.06c0 2.66.6 8.87-.17 3.17-.2-1.04.11-2.12.17-3.17zm41.72.02c.1.09.21.48 0 0zm-.1.07c.5.53-.22.54 0 0zm-13.75.02c1.35.78.47 2.27 0 0zm-5.94.4c-1.73.63.08 2.94 0 0zm-2.32.02c.35.57-.43.41 0 0zm-24.54.16c.73.34.7.72 0 0zm24.94.05c.38.63-.3.17 0 0zm-8.4 0c-.22 1.76-.48 7.2-.64 2.27.23-.74.32-1.55.64-2.27zm6.85.01c.3.67-.12.04 0 0zm-19.48.09c.11.77-.12.52 0 0zm40.88.01c1.1 2.61 1.12 6.82 0 1.7-.15-.54.18-1 0-1.7zm-18.83.18c-.18.5.14 1.46 0 0zm-26.95.06c2.69 1.68 1.5 1.84-.96 2.73-.89-.51 2.23-2.25.96-2.74zm25.37.02c-.59 1.02-.97.93 0 0zm-23.77 0c.3 0 .07.15 0 0zm-2.96.12c2.32 1.08.15.94-.25.7 2.73 3-8.65.9-1.66-.16l.95-.35zm2.67.08c.43.26-.5.23 0 0zm-4.45.07c-.83.33-.1.04 0 0zm25.13.16c.44 0 1.36.44 0 0zm25.44 0c.79 2.17-.3 2.8 0 0zm-66.1.2c.07.02.1.07 0 0zm47.98.02c-.64.85-.7.75 0 0zm-6.51 0c.85.15-1.38.27 0 0zm-5.1.01c.71 2.51-1.1 3.1 0 0zm-14.83.04c1.42 1.03.25.97 0 0zm27 .05c.22 1.13-.72.33 0 0zm-7.76.12c.97 1.15-.72-.1 0 0zm-17.43.04c.16 3.48-.04 1.93 0 0zm-6.52.1c-1 .29.05.31 0 0zm35.12 0c.58 1.03-1.27.5 0 0zM26 435.3c-.75 1.38.35 4.32.41 4.72a4.3 4.3 0 0 1-.41-4.72zm-25.41.01c.35.18-.6 0 0 0zm-12.2 0c2.9.65 7.58 1.51 6.98.95 1.34-.23 2.53 1 2.03 1.42 1.78-.45 2.64-.42 1.19-1.22 6.2-.6.37 2.76-2.24 1.16-.84-.3-7.34-1.79-8.53.06-.17.65-1.23 3.16.05 5.22-.24 3.7-4.41-2.45-1.74 1.26-1.72-.41-3.98 1.1-.84-.5-2.3 1.53-3.34 1.71-1.87-.88-.73-.76-.8-.17-1.44.6.94-1.85 2.97-5.62.23-1.16-.74.97-1.55 1.57-.45-.04 1.19-1.66 2.77-4.63.6-1.33-.1 2.43-5.66 4.7-1.51 1.67 2.67-2.84 2.57-7.61 7.53-7.2zm50.98.33c-1.23 1.89-.58-.04 0 0zm-54.48.03c-1.07 1.16-1.73 1 0 0zm52.21 0c1.82.67-1.2 1.88-.44.83-.76 2.45-.02-1.2.44-.83zm-7.82 0c-.28.65-.68.12 0 0zm-2.4.06c1.38.72.14 4.28-.43 3.52-.32-.85-1.17-3.78.43-3.52zm-26.5.1c-.05.22-.73.2 0 0zm52.1 0c.4.37-.07.45 0 0zm-40.37.05c.11.82-.12.46 0 0zm41.16.05c-.13.23.2.48 0 0zm-22.2.02c-1.3.66.78.83 0 0zm-40.4.06c-.68.69 1.81.3 0 0zm37.81 0c.53 1.14-1.35 1.51 0 0zm3.62.01c-1.55 2 1.22.65 0 0zm7.92 0c.5 1.69-1.9.58 0 0zm-35.03.02c-.75.46.75.6 0 0zm27.19.03c-.07.95-.72 1.18 0 0zm-41.35.07c.5.09-.5.09 0 0zm9.92 0c.07.05-.1 0 0 0zm0 .06c1.6.02-.79.66 0 0zm-.86.05c.5.1-.5.09 0 0zm41.88.02c.35.37-.18 1.37 0 0zm-.14.03c.38.68-.51 2 0 0zm-8.3.03c.14.66-.12.46 0 0zm-35.98.04c1.5.08-1.46.2 0 0zm41.27.05c-1.64 1.76-3.51 3.1-.68.47zm.33.12c.88.38 2.43 2.5.71 1.87-.05 1.48.23.14.24.82-.41.26 1.55.08.92.22-1.07 1.57-2.29 5.56-3.22 7.85-.68.46-1.43 7.4-2.23 4.31 1.04 3.14-.68 2.92-.56 5.98-.5 1.95-1.2 9.12-1.18 3.09-.25 1.2.23 5.97-.39 1.9.03-3.04.3-6.5 1.63-8.72 1.04 1.5-.02-4.7-.31-.54-.7 2.77-2.61 5.55-2.39 8.83.13-4.08-1.68 3.2-1.97 4.76-.68 5.22-.92-.97-1.34-1.6-.52.56-.66 2.1-1.92 1.18-.74 4.07-1.2-2.93-2.44-2.57-.86.92-1.06-1.07-.94-2.77-1.22-1.43.74 4.08-.4 2.7-.38-3.96-.56-8.07-1.05-12.16.07-2.35-.87-7.4.23-5 1.33 2.05-1.62-5.4-.1-3.42 1.18 2.31 2.48 4.5 3.67 7.07.49.64 3.3 3.5 4.03.35 2.36-2.05 3.77-7.42 5.27-8.16-1.4-2.93 6.13-7.22 3.26-3.79-1.42 1.58-2.98 3.08-1.13 2.06-2.82.37 2.52-1.49 1.75-2.2 1.94-1.22-1.46-1.45-.14-2.06zm-41.3.04c1.73.28.11.99 0 0zm45 .17c.98.6 2.26 4.37.57.98q-.26-.5-.57-.98zm-30.66.03c.17.63-.13.5 0 0zm-28.14.03c.2.86-.52.52 0 0zm20.37 0c1.67-.46.43 1.53 0 0zm3.9 0c2.6.55-1.84 1.8 0 0zm42.68.02c.66.92.28 1.3 0 0zm.76.02c.21.22-.14.5 0 0zm-46.08.18c.27.2-.35.1 0 0zm6.21.08c.04.04-.04.04 0 0zm-5.73.05c.36.12-.48.1 0 0zm-1.98.02c.21 1.2-.06.14 0 0zm38.35.08c1.5 1.61-1.23 1.4 0 0zm-35.56 0c1.7 2.34-4.99.44 0 0zm-22 .04c-1.92 1.23.2.65-.55.85.05.23.63.36.56-.85zm.93.04c-1.01 1.15.24-.3-.18.6.11-.14.43-.43.18-.6zm2.6.1c1.34.55-.94 1.52 0 0zm36.05 0c.46.8-.15.34 0 0zm7.18.04c-1.43.87.43 1.45 0 0zm-19.9 0c.05.97-3.99 2.05-.45.57.22.23.44-.82.44-.57zm-20.42 0c.48.02-.72.28 0 0zm14.31.02c.33.1-.4.06 0 0zm27.23.04c.52.63-.31.74 0 0zm-35.95.07c-.5.09.5.1 0 0zm24.07.06c.1.99-.85.95 0 0zm10.22.08c-.85.45-.1.9 0 0zm9.28 0c-.32.64.28.43 0 0zm-56.99.07c-.11.57-1.32 2.33-.4.64l.4-.63zm44.73 0c.9 1.67-.3 1.13 0 0zm-38.3.02c-1.41 2.25-1.78 2.13 0 0zm43.77.11c-.32 3-1.33 1.42 0 0zm-38.78.12c-.41.06.33.1 0 0zm56.88.03c.19.56-.13.29 0 0zm-56.37.07c3.54.9-4.45.01.6.77 3.01.77.28-.89-.6-.77zm56.07 0c.29.04-.05 1.64 0 0zm-58.46.01c.63.09-.68.08 0 0zm7.03.03c.08.77-.64.25 0 0zm3.84.08c-.6.18 0 .29 0 0zm-5.72.14c.36.24-.35.24 0 0zm54.98.08c-.34.47.35.43 0 0zm-23.5.01c-.65.77.8.3 0 0zm-38.83.1c-.06.17-.7.13 0 0zm63.44 0c.54 2.72 1.78 3.52 2 4.29-1.15-.57 2.01 1.61 1 2.33 1.92 2.04-.8.7-1.8-2.06.8-.28-.52-2.54-.83-1.84.4-.86-.73-1.83-.37-2.72zm-58.92.02c.88.08-1 .07 0 0zm1.16.08c1.65.1-1.69.17 0 0zm39.97.02c-.7 2.96-3.3 1.41-1.05 1.18.44-.33.45-1.06 1.05-1.18zm-37.58.03c-.61 1.27 6.68 1.31 1.19.59-.6.11-.6-.67-1.19-.59zm-8.56.07c.44.43-.44.14 0 0zm65.06.06c.8 3.2 4.14 6.27 3.67 9.03.2-3.47-3.26-5.55-3.67-9.02zm-3.7.08c.4.42-.09.63 0 0zm-8.47.02c.68 1.77 1.78 7.56.43 2.59.05-.82-.95-1.82-.43-2.6zm-35.88.08c-2.06.55 1.72.67 0 0zm46.12.01c.02.55.34.35 0 0zm-25.25.05c1.33 1.77-.02 2.37 0 0zm-30.12.05c.19.55 1.56 1.37 0 0zm56.66.04c.23.38-.14.34 0 0zm-65.5.01c-.07.43-.16-.05 0 0zm-2.92 0c-1.08.55.26.95 0 0zm1.62.02c.26 1.3.97 2.6-.1 2.17 1.7 3.18-2-1.86-.08-2.15zm47.26 0c-.51 1.15-1.08.24 0 0zm19.77.03c1.06 2.71.64 2.48 0 0zm-42.08.02c.03 1.23-.99 1.2 0 0zm-27.78.04c-1.76.75-2.4 4.38.15 1.35-.08-.14.35-1.27-.15-1.35zm-1.56 0c.08.49-.37.27 0 0zm22.27.07c-.7.22.3.76.47.77.01-.86-.18-.28-.47-.77zm23.68 0c-.39.05.91.99.34.37.71.32-.44-.28-.34-.36zm-39.16.08c-.1.49-2.72 1.58-.5.28l.27-.15zm49.24.17c-.67.33 0 .76 0 0zm14.09.14c.17.84.72 1.05 0 0zm1.2 0c.18.55-.14.3 0 0zm-69.99.22c1.02.54-2.05 2.41-.38.96-.85-.03.44-.2.3-.95zm25.77.01c-.64.33-.14 0 0 0zm22.74.01c-.64.67-2.25 1.13 0 0zm.16.2c1.23.42.13 2.43-1.32 1.79-2.69 1.13-1.9 1.37-3.82 1.01-3.96-1.52.33-1.68 1.28-.54-.42 1.11 1.94-1.59 3.86-2.25zM7 440.3c-2.84.36.35 1.4 0 0zm2.86.04c-.42.37-.38.01 0 0zm-11.35.12c.79-.02.7.93 0 0zm56.37.09c.34.28.62 1.62 0 0zm-20.41.04c.4.28.05.45 0 0zm-31.7.12c.55.3 1.58.75 0 0zm-21.12.2c-.26.51-.51.4 0 0zm16.44.02c.58.03-.53.52 0 0zm41.55.02c-1.15 1.8-.85 1.64-.72.65-1.67 2.78.79.3.72-.65zm-50.65.03c.44 3.42-.53 2.21 0 0zm48.58.18c-.73.3-2.44 2.44-.56 1.05-1.73.68.8-.73.56-1.05zm-32.08.13c.65-.03.91 1.31 0 0zm29.45.07c-.92 2.5-1.36.93 0 0zm19.23.01c.68 1.93.93 1.44 0 0zm-15.8.01c-.5.21.03.3 0 0zm-35.84 0c-.1.53-.65-.08 0 0zm-18.97.05c.42.24-.8.7 0 0zm-2.35.06c-.3.53-.5.36 0 0zm2.58.02c.07-.01-.07.08 0 0zm54.3.06c-1.35 1.13-.96 2.02 0 0zm-4.91.03c-.78.39.68.42 0 0zm-47.48.02c-1.5 1 .94.84 0 0zm43.34.1c.22.06-.54.19 0 0zm-3.51.04c.55.13-.27.34 0 0zm-24.31.08c.68.45-.38.61 0 0zm4.6.2c.38.03-.47.2 0 0zm-3.88.17c.06 1.26-.11 3 0 0zm-21.4.19c-.27.52-.5.38 0 0zm56.64 0c-.63.24 0 .51 0 0zm15.83.32c1 2.65-.92 3.15 0 0zm-70.09.09c-.47 1.41-.58.4 0 0zm50.77 0c.06.62-1.54.9 0 0zm-48.44.1c.46.34.82.93 0 0zm15.53.06c.55.34.3.49 0 0zm33.24.05c.13.2-.93 1.79-.77 2.04a48 48 0 0 1-4.64 6.97c-1.08-.87 1.92-1.84 1.92-2.7.55-1.26 2.73-3.58 2.25-4.54-2.13.57-3.59 4.12-5.87 2.02 3.92 3.7-4.22-3.26-1.66-1.94l.42.72c-1.24-2 1.44-.32 2.74 0 1.09 1.26 5.86-2.54 2.21-.62 2.24-1.52 1.86-1.06 2.39-1.22 1.8-2.07-1.37 3.17 1.01-.73zm2.17.06c-2.55 2.87 2-1.4-.7 1.08l.7-.98zm19.62.03c-.23.67.8.42 0 0zm-76.33 0c-1.02 1.37-1.56 1.28 0 0zm8.95.22c-1.16 1.08.28 4.28-1.33 1.44.6-.3.24-1.68 1.33-1.44zm.25.05c1.55 3.35.06 2.28 0 0zm19.52.27c.4 3.05.13-.25 0 0zm-26.05.08c1.12 2.57.02 3.3-1.68 2.28-.59-4.3 2.41 1.85 1.73-.82.1-1.38-.93-1.02-.05-1.46zm36.57.07c.34.76-.86.66 0 0zm-29.17.02c.7 1.54.02 2.2 0 0zm11.88.04c.33.1.26.7 0 0zm-12.98.02c-.06 1 3.1 5.14.66 3.19-.23-1.03-2.08-2.28-.66-3.19zm66.84.04c.06.37.8 1.02 0 0zm-68.86.14c.48.51-.24 1.3-.55.4.3.14.5-.16.55-.4zm58.1.19c1.03.74-.64.14 0 0zm-42.37.04c.85 1.34-.1 1.58 0 0zm-20.71.07c1.16.78-.98 1.07 0 0zm-1.3.1c.63 2.5-3.1 7.29-.69 2.88.58-.9.54-1.85.68-2.88zm-1.67.02c-.38 1.85-1.48 1.76 0 0zm42.77 0c.7 4.3.59 9.1 1.18 13.56.53 1.89-.15 5.6-.14.94-.57-4.81-.86-9.66-1.04-14.5zm-41.67 0c1.18 1.44-3.64 5.24-2.69 3.45 1.92-.4 1.74-2.17 2.03-3.24.34.72.48.32.66-.2zm5.75.1c1.35.26-1.76.15 0 0zm71.89.15c1 .38.25 1 0 0zm-16.87.02c3.15 1.53-.58 1.36 0 0zm-10.86.09c1.1.34-1.11.29 0 0zm26.25.07c1.23.11-2.07 1.05 0 0zm-1.6 0c.1.38.5.16 0 0zm-68.07.09c.7.7-.41.28 0 0zm-5.4.02c.2.48.68.34 0 0zm3.34.04c.3.38-.31.35 0 0zm-.32.01c-.19.8-1.84 1.37 0 0zm46.66.04c.08.11-.3.05 0 0zm22.01.02c.2.45-.36.46 0 0zm-7.53.13c1.22 1.7 2.46 6.44.48 1.72l-.1-.67zm-14.76 0c-.47.39-1.3.62-.24.13zm-44.92.04.36.11zm71.16.1c1.03.96 0 .95 0 0zm-69.45.2c.82.44.3.62 0 0zm65.38.03c2.51 1.64-1.93 7.63.5 2.83.71-1.09-1.15-1.78-.5-2.83zm-11.56.06c1.36.81.6.73 0 0zm14.39.01c-.28 1.45-.55.64 0 0zm-9.92 0c-.19.62.35.6 0 0zm-66.74.2c.4 1.94-4.92 2.84-1.03.61zm6.61.05c-1.73 1.11.57 7.46-1.02 4.3.3-1.35-.38-3.48 1.02-4.3zm56.61.03c.67.19-.45.22 0 0zm-24.39.07c-1.05 1.14-1.54.93 0 0zm-29.7.07c1.06.42.48 1.15 0 0zm-6.62 0c2.22 2.02-4.18 5.38-.91 1.32 0-.68.55-.91.91-1.32zm36.82.02c-.52 1.88 1.32-.72 1.5 1.56-1.8-.07 1.55 4.06-1.18 3.96.8-1.37.75-4.47-1.16-3.14.63-.3-.66.69-.73-.03-2.18-.35 1.1-1.9 1.57-2.35zm35.58.06c.56.73-.16 1.1 0 0zm-13.1.08c2.47 1.48 2.43 6.45 2.3 6.87-.85-3.16-3.92-4.53-4.43-1.7-1.73 1.18.93-3.64.73-3.38-.29-1.14 1.98-2.57.43-.62.5-.17.5-1 .98-1.17zm-51.82.19c1.92 1.49-.08 3.75 2.01 1.18-1.28 4.6-1.02.75-2-1.18zm68.49.05c1.11 1.37 2.92 7.6 2.52 7.18-2-1.12.46-.9-1.17-3.4 1.66 3.66-.5-1.38-.86-1.9.02-.45-.92-1.8-.5-1.88zm-17.71.04c.5.97-1.89.87 0 0zm18.57.03c2.28 3.8 1.53 4.68 4.05 7.93-1.45-.12-3.58-5.04-2.59-4.6a4.8 4.8 0 0 1-1.46-3.33zm-1.62.02c.61.3.35.6 0 0zm-66.3.05c.68.99.15.2 0 0zm63.23.07c.38.26-.2.32 0 0zm-36.85.2c.4-.38.24-.23 0 0zm25.22.04c.52.22.38 1.12 0 0zm15.2.14c.86.67-.3 1.57 0 0zm-80.92.03c-1.08 1.1-.45 3.89-.7.46.16-.23.43-.4.7-.46zm69.4.19c.08.25-.22.7 0 0zm-54.12.12c.1 2.15-.89 3.17-.05.2zm47.44.19c.19 1.17-2.38 6.57-.79 2.2.56-.62.17-1.58.8-2.2zm-49.8 0c.43 1.13 0 .71 0 0zm66.25.03c-.42.62-.28 4.8.92 4.5.14-2.23 1.88 4.54.69-.1-.62-1.37-.06-3.68-1.61-4.4zm2.62.13c-.06.46.4.36 0 0zm-82.06.07c2.05 1.2.32 4.98 0 0zm79.4.03c.93.6 1.46 2.8.6 3.4-.72-1.19.39-2.72-.6-3.4zm-39.81.2c.68 1.4-2.9.53 0 0zm4 .05c.96.07.22.95 0 0zm26.05.06c-.05 2.43 1.05 7.08.69 8.54-.3-2.82-1.1-5.78-.69-8.54zm14.11 0c1.63 1.94-.05.74 0 0zm-80.86 0c-2.01 1.49-1.72.92 0 0zm54.47.23c-1.48.5-1.53 4.67-1.85 3.8-.5 1.03-3.94 3.65-.67.95 2.57-.84-1.73 7.15-1.69 9.31-.08 1.89-2.04-2.5-.17.82 1.4-2.29 2.59-10.78 3.42-10.84.25-1.37 1.46-2.67.96-4.04zm23.8 0c1.77 2.07 1.92 6.25.45 1.36-.08-2.17-.82.4-.45-1.36zm-38.33.03c.05 3.53-.93 2.6 0 0zm14.5.12c.2.22-.14.5 0 0zm6.3 0c.62.76 1.75 1.02 0 0zm-50.4.02c1.01 2.83-.49 1.73 0 0zm69.14.09c-.05.84.4.5 0 0zm-41.78 0c.73.3-.3 0 0 0zm22.77.13c-.4.57 1.63.73.27.11zm-23.27.2c.16.34-.84.46 0 0zm17.13.2c-.66 3.12-1.52 3.49-.27.23l.26-.2v-.03zm-15.17.03c.36 1.12-5.72 2.6-3.93 2.18-.75 1.58 1.02-.54 1.29-.3 4.94-3.18-1.1 5.4.03 5.2-.55.61-1.2 2.28-1.6 1.88-.26-.4-1.48 3.07-2.44 3.86-.4 2.29-4.24 3.08-3.17 2.17 1.78 0 3.73-4.66 1.47-1.01-2 1.72-1.68-1.91-2.23 2.25-.18 1.73.31 2.53-1.35 2.7-2.02-1.13-.62-2.52-2.57-1.09-2.22-1.9 5.27-4.66 4.14-5.32-1.48.86-1.88 1.27-.32-.74.88-.96 2.17-4.28 2.64-4.16 1.6-2.61 2.53-3.45.93-1.95.96-2.12 3.34-2.81 1.62-2.38 1.57-1.72 3.07-3.48 5.5-3.29zm39.65 0c-.07.74 1.04 2.1 0 0zm-76.82.02c-1.14 1.73 3.18 7.04-.17 4.95-.81-2.77-2.05-4.4.17-4.95zm-4.78.07c1 2.17-.25 5.49-.47 1.36l.17-.66zm84.26 0c.76.92-.27.45 0 0zm-44.93.11c-1.92 1.1-6.12 6.75-2.5 1.99.71-.79 1.44-1.68 2.5-1.99zm-24.72.23c.15 1.6-.7 2.1 0 0zm-.6.01c-.06.4-.27 1.1 0 0zm27.48 0c-.5.1.5.1 0 0zm39.7.05c.64 1.21 1.84 3.73.2 1.08a2 2 0 0 1-.2-1.08zm-78.3.05c.82 1.21.35 1.59 0 0zm61.3 0c2.32 1.59 3.05 4.62.99.91l-.56-.5zm-58.03.09c-.13 3.6-1.06 2.33 0 0zm33.89.25c-2.79 1.14.83.2 0 0zm-3.58.1c.4.02-.05.15 0 0zm27.56.06c2.31 1.84 1.97 5.48.22 1.44-1.4 1.02-1.66 1.04-.47-1.13zm-27.65.07c-.44.74-.64.48 0 0zm11.59.03c.9 3.31 1.2 5.68 2.08 8.51.9 2.52 2.37 5.13.5.66.26-3.45.9.13 1.5 1.14 1.42-.51.81-.14 1.12-1.2-.57 2.11-.85-1.84-2.03-2.4-.5-.86-.68-3.03-1.55-3.45-.6.1 0-.67-.14-1.04-.35-1.82-.39 1.5-.75-.19a4 4 0 0 0-.73-2.03zm-34.12.05c.6.39-.13 1.27 0 0zm35.4.14c.9 2.79 2.46 4.93.53.9zm13.95.03c.27.21-.58 1.61 0 0zm-10.18.22c.38.15-.63.31 0 0zm15.86.03c.22.22-.14.5 0 0zm-60.87.17c1.91 2.76.97.86 0 .6-.24.42-1.14-.96 0-.6zm70.33.13c-3.16 2.19 1.37 1.01 0 0zm2.7.04c-.13.23.2.48 0 0zm-80.31.06c.5 1.06 0 4.56.31 4.85-1.3-1.78.5-3-.31-4.85zm14.18.01c-.1.59-.54.64 0 0zm49.49.01c-.45.16-.1.33 0 0zm-22.43.04c.08.49-.37.26 0 0zm-34.64.05c1.22 1.03-.84.18 0 0zm-7.58.02c-.6.35.75.2 0 0zm76.5.02c-.18 1.14-.7 1.1 0 0zm-77.28.03c.84 2.27.34 2.8-.05.03zm79.42.01c.4.88-.8-.01 0 0zm-64.45.1c.15.62-.35.8 0 0zm48.8.05c-.02 2.35-1.21 2 0 0zm-22.68.02c-2.21 4.38.1-.4-.28 1.15.56-.08 1.11-1 .28-1.15zm-30.84.02.2.37zm71.91.09c.13 1.02.72 1.32 0 0zm-41.87.11c-.9.3-.68.89 0 0zm2.63.04c-.94 2.53-3.82 6.21-1.07 1.5.71-.73-.24-1.55 1.07-1.5zm1.33.02c.6.49-.52.84 0 0zm38.75.07c1.61 2.36 1.09 2.19 2.85 2.4.96.74-1.45 1.83-1.65.21a4.6 4.6 0 0 1-1.2-2.6zm-17.68 0c1.34 2.73 3.01 4.58 2.53 8.44-.64-5.43 0 3.52.31 2.62-.53.89-.05 4.02-.6 3.41 1.33 2.05-.16 6.23-.22 3.84-1.24-.63-.53 1.52.25 1.18-.84.8 3.4 4.2 1.8.37-1.17-6.43 1.42 1.04 1.42 3.14-1.9-2.8-1.45 1.36-3.4.03-1.67 1.56-3.5 1.58-2.72-1.93.24-2.26-.01-2.88-.68-2.19-.76-1.36-1.18-6.52-.34-5.8.52.87-.27-2.5.14-2.66-.67 2.42-1.15-4.85-.83-4.64.58 2.37-.32-2.36-.47.84-.63-1.34-.43-5.23.47-1.9.52-3.53.51.25 1.54-3.66.27-.36.51-.74.8-1.09zm12.37.23c-.57.63.76.14 0 0zm-38.42.02c-2.74 1.73-1.54 1.73 0 0zm-28.32.04.5.22c.14.22-.77-.19-.5-.22zm4.12.14c.21.65-.97.78 0 0zm-5.62.02c.87.93.24 1.04 0 0zm77.22.01c.57.68.2.77 0 0zm-1.89.03c.73.95 1.07 2.27 0 0zm-79.92 0c.63 2.44 2.49 4.35-.02 1.12zm44.85.02c.3.4.1.35 0 0zm-39.01.06c1.45.47.6 2.3 0 0zm58.1.06c.65.8.18 1.3 0 0zm7.82.03c-.84.84-1.32.65 0 0zm-13.94.01c-1.53 1.55.05 10.14-1.06 4.03a5.7 5.7 0 0 1 1.06-4.03zm18.47 0c-.6.58.74.44 0 0zm-69.64.06c.27.06 1.11 1.25 0 0zm74.32.08c.19.64 1.35 2 0 0zm-21.74.09c.42.82-.82 1.07 0 0zm3.66.1c.51 1.44-.58.65 0 0zm-28.4.13c-.81.57.8.52 0 0zm-32.45.13c1.36 1.21.6 1.38 0 0zm55.92.06c.9.84-.16 4.85-.44.93l.39-.86zm-62.09.05c.36.77-.06.24 0 0zm66.14.04c1.2.97.16 2.46 0 0zm9.58.03c3.05-.18-1.98 1.42 0 0zm-16.2.02-.05.2zm-47.6.01c.8-.09-.2.48 0 0zm62.86.08c.33 1.78-.3 1.74 0 0zm-15.56.2c-.16 1.4-.3.22 0 0zm-4.27.09c-.48.66-1.36 1.38-.06 1.78.83-.72.43-1.39.06-1.78zm-54.77.13.14.55zm43.53.01c-1.46 1.27-3.21 2.03 0 0zm43.21.02c2.1 2.37 1.33 1.92 0 0zm-42.77.18c-.69 2.62-3.23 6.1-.11 4.03-3.13 3.6-8.06 5.84-9.6 10.76-1.1 1.44-1.33 4.8-.83 3.71 1.2-3.65 3.49 4.37 3.47 6.3-.8 2.63-1.08 5.62-.09 9.64-.61 5.13 6.33 11.03 2.6 14.74-3.88.14-2.36-1.3-5.57 1.49.4-1.92-2.37 1.58-2.54 1.06 1.62.39 3.1-2.52.99.49-4.29 1-.9-.72-1.35-.95.05-1.31-7.17-1.14-2.24-2.7 1.5-1.5 2-.44 3.6-3.1 1.05-1.3 4.48-1.66 1.3-1.7-4.1 4.43 1.4-4.05 2.6 1 1.25 1.68-3.34 2.64-1.23.12-1.56 2.2-1.65 3.33-.67 1.68 1.34.98 3.01-1.3 2.63-1.88-1.4-2.53 1.66-.7 1.2-.65-.66.97-.6 3.22.7 2.18-1.97.58 2.77-3.84-.46-5.26-.7-1.6-3.3-7.52-1.56-2.33-.57 1.97 2.54 3.5.78 4.73-2.04-1.44-.64-5.38-2.02-7.8 1.53 2.55-1.29-2.66.2 1.87.71 1.53.46 5.12.4 5.72.42 1.93-.77-.1-.95.16-2.54-1.6.05-3-.5-5.63.8 2.6 1.15 2.55.06-.25-.56.83-.88 6.63-.91 1.82-.2-6.27-3.1-12.35-4.48-18.19 1.34.03-1.8-4.37-1.4-4.81-2.68-3.05.54-3.95 2.06-1.7-1.09 2.17.4 3.11 1.83 3.04-.72-.98.1-3.97 1.21-2.37.6-.61.34-1.65.37.55 1.32-1.69.43-3.48 1.14-4.63 1.17-.45 2.49-3.43 2.77-3.8 1.97-.38 8.12-7.8 3.51-4.43-1.72 1.89-3.98 5.3-2.64 1.73 1.58-3.38.04.64 2.3-2.17.94-1.07 2.25-1.71 3.43-2.47zm21.56.01c.2.23-.14.5 0 0zm-2.92 0c-.13.17-.2.16 0 0zm4.36.12c0 2.55.22 4.38-.47.58.62.37.2-.34.47-.58zm-29.3.03c-3.8 2.17 2.45 1.4 0 0zm44.42 0c1.94 1.36-1.2.82.72 2.06-.1 1.4.75-1.52.1.55-1.89.18-2.4-1.39-.82-2.6zm-47.21.04c-.2.21-3.18 5.94-2.33 3.88.76-1.3 1.33-2.75 2.33-3.88zm-28.05.05c.2.55-.13.29 0 0zm74.77 0c-.2.56-.5.47 0 0zm1.14.06c.55.35.3.49 0 0zm3.89.01c.91.74-.61.35 0 0zm-7.3.05c2.47 2.07 1.62 2.72 0 0zm-40.18.05c-1.33 1.23-4.25 3.89-1 1.22.1-.47.97-.68 1-1.22zm-1.54 0c.61.64-.86 1.23 0 0zm37.88.29c.99 2.67-3.02 4.1-.72.83.1-.4.46-.56.72-.83zm-21 .08c.46.22.39 1.41 0 0zm31.67.04c1.23 2.72.54 2.97 0 0zm-35.14.03c.33.66.42 2.74.45 1.5 1.77.15-.62-.36-.45-1.5zm-45.34.1c1.9 1.57.91 2.57 0 0zm75.23.04c.1.6-.42.2 0 0zm4.43.02c1.2 2.67-1.67 1.05 0 0zm-20.82.04c.87 1.77.2.42 0 0zm17.95.05c1.48.56-1.21.62 0 0zm-32.92.07c.84.1-.09 2.75 0 0zm-42.79 0c1.42 2.12-.23 1.17 0 0zm34.7.03c-1.56 1.67-2.29 1.68 0 0zm45.43.05c1.54 2.02.18 2.54 0 0zm-7.38.01c1.09.28.64 1.27 0 0zm-11.4.23c.32.33-.44.52 0 0zm9.58.02c-1.93.96-.71.26 0 0zm-13.68.09c-1.14 1.94.47-.95 0 0zm-21.37.07c-.67 2.5-1 .16 0 0zm11.1.05c-1.04.55-1.5 2.39-.63 1.94-.95 1.84 1.18.85.23-.48q.2-.74.4-1.46zm-48.22 0c.75.65 1.07 1.18 0 0zm78.75.06c3.25 2.02-.59 3.34 0 0zm-50.03.16c.07.5-.37.24 0 0zm31.07.07c-.91 1.03 1.59 1.19 0 0zm23.14 0c1.26.54 1.42.68 0 0zm-4.65.1c-.92 1.5 2.4 2.1 1.6 2.6-.34-1.42-2.62-.7-1.6-2.6zm-21.28.03c.13.85.32.28 0 0zm-27.15.01c-1.47.97.92-.04 0 0zm16.13.01c.15.01-.05.14 0 0zm28.92.02c.93 1.2.48 2.22 0 0zM28 456.5c-.38.42.53.36 0 0zm-10.73.04c.72 1.6-5.7 5.68-2.09 2.05.66-.72 1.27-1.5 2.09-2.05zm21.7 0c-.32.36-.03.4 0 0zm-6.69.07c-1.58 3.37.94-.97-.12 1.2-.32-.12.48-1.13.12-1.2zm24.02.05c1.72.61.42.83-.03.01zm7.55.02c3.98-1.45 4.1 9.2 2.92 2.8.26-1.93-2.29-1.4-2.92-2.8zm-50.57.06c-.53.2-.01.28 0 0zm53.13.04c1.2.56.98 3.39.32.33zm-5.1.1c.3 0-.63.1 0 0zm-1.45.02c.33.48.9.85 0 0zm-16.62.02c1.67 5-1.01 11.34 2.63 15.6 1.1 2.85 6.68 3.09 8.64 6.42-2.44-.8.86 2.26 1.75 4.89 1.45 1.02-2.59-.52-.17 1.85.7 3.1 6.03 9.93 6.03 9.65-3.26-3.23-1.13 2.12.64 1.8 1.13-1-1.02 4.4.32 4.17.46.87.76-1.6 1.13 1.3-.5 1.58-.8 2.32-1.2 3.81.97 2.44.39 3.43-.96 2.33 1.22-.29 1.92-.72.87-2.32-1.57-3.8.04-3.16-2.28-6.32-2.13-1.27-3.36 2.05-3.65 2.63-1.54 4.22-.35-6.24 2.35-5.16-2.72.51-2.14-3.11-3.9-5.05-2.2-3.64-5.2-8-8.5-11.3-1.02-1.82-2.97-1.86-3.56-3.04-4 .6-4.51-3.16-.34-2.29.95.5 2.32 2.34 3.15 3.22.24-1 .66.95.48-.52-.17-.85-1.46-.73-1.1-1.7-.28-.6.15.67-.71-1.7 2.1-.37-2.25-8.3-1.4-11.65-.8-2.04-.11-4.46-.22-6.62zm-30.87.05c-.42.06.33.1 0 0zm-29.28 0c.62.22.18.73 0 0zm42.77.02c.33.76-.9 1.26 0 0zm20.16 0c.22.4-.14.34 0 0zm11.38.01c1.09 1.24 3.13 3.27.68 3 .11-.58-.7-2.09-.68-3zm1.14.1c.28.48-.83.33 0 0zm-20.56.03c-.39 1.68.03 2.15 0 0zm-13.86 0c.24 1.42-.89 5.65 1.04 5.8.57-1.67-.4-4.19-1.04-5.8zm24.72.04c.87 2.2.15 3.22 0 0zm13.81.02c3.13.53 3.47 3.58.6.7zm-1.04.09c.28.41 1.27 1.13 1.35 1.99-.3 1.65-2.97-2.74-1.35-2zm-48.88.01c-.05 1.6-2.62 2.72-2.97 4.56.43-1.49 3.59-3.36 2.97-4.56zm38.5.06c.04 1.75-.7.55 0 0zm-12.71.1c-.58.23.35.4 0 0zm25.6 0c1.67.85 1.92 1.22 0 0zm-18.03.07c.55.96-.47.5 0 0zm12.54.03c.58 1.38-.32.3 0 0zm-34.89.01c-.15.33.22.4 0 0zm25.42.07c2.8.1 1.25 4.77 0 0zm-29.72 0c-2.13 1.49-2.18 1.03 0 0zm37.18 0c.81.42.15.92 0 0zm-32.49.04c1.21 2.61 1.07 7.93.31 2.04.33-.6-.6-1.43-.3-2.04zm14.68.1c-3.08 2.54 1.41 5.64.6.66l-.28-.27zm3.9.02c.72 1.68-.73.33 0 0zm20.08.07c.55.35.3.5 0 0zm-35.36.25c.3.27.04.6 0 0zm18.53 0c.82.43-.26 2.38 0 0zm-17.72.1c-.38.27.21.32 0 0zm-12.02 0c-.6.43-.16.71 0 0zm19.44.06c-.31 2.87 2.16 9.5 1.57 10.3-.47-3.4-2.15-6.84-1.57-10.3zm25.47 0c.51 3.05 3.96 1 2.69 3.1 1.27 2.01-.9 5.17-.52.9 0 3.52 1.07 1.3-.13-.46.1 3.69-.48.21-.43-1.12-.58-.78-1.22-1.52-1.6-2.41zm4.66.05c1.59.83.9 4.83.54 1.25.06-.48-.14-1-.54-1.25zm-26.97.08c1.35 1.3-.38.8 0 0zm-4.95.01c-.12.46.13.66 0 0zm29.32 0c2.83 1.16 2.15 5.1 2.32 7.22-.32-2.38-.18-5.7-2.32-7.21zm-3.84.16c.25-.1.03.46 0 0zm-31.71.11c.3.18.5 1.14 0 0zm29.86.04c.33.28.44 1.22 0 0zm-14.55.01c.1 1.24-.1.79 0 0zm-13.91.07c-.18.4.56.32 0 0zm-16.14.03c.62.22.15 1.24-.63 2.52-1.13 1.08-2.37 3.05-3.6 4.52 2.4-.49-2.22 1.67-1.2-.61 2.37-.41 4.56-4.19 5.43-6.43zm-5.28.16c-.75 1.8-1.15 1.45 0 0zm28.43 0c.26 2.25 1.03.35.79 1.8 1.18.17.3 4.29.57 6.24-.25-.75-.4-6.2-.5-2.9-.53-1.56-1.07-3.42-.86-5.14zm15.32.02c.03.84-.44 1.42 0 0zm-4.99.28c.65 3.43 1.5 6.87 2.26 10.3-1.04-3.2-2.13-6.92-2.26-10.3zm-18.63 0c.14.1-.14.22 0 0zm10.83.01c-.13.17-.65.47 0 0zm10.71.05c.34-.24 0-.14 0 0zm-16.36.02c.15.7-.14.8 0 0zm6.17.04c.11 2.62-1.21.57-.26.52-.1.57.49-.55.26-.52zm-29.46.05c-1.55 1.18.58-.2-.24.64.05.14.68-.65.24-.64zm55.9 0c.64 2.06 1.97 4.29.58 5.97.03-1.57-1.43-4.27-.57-5.97zm-6.74.11c.74.52-1.42.73 0 0zm4.87.02c1.22.35-1.6.93 0 0zm-6.14 0c.39.87-.42 1.31 0 0zm-7.7.03c.5 1.95.15.38 0 0zm15.6.01c-.45.48.43.83 0 0zm-3.84.06c.52.5 1.46 1.93 0 0zm-11.93.01c.69 2.37.23 2.17 0 0zm-15.72.11c-.78.44.32.2 0 0zm26.02.03c.3 1.4-.15.95 0 0zm-41.24.02c.15.06-.14.02 0 0zm-.31.2c-2.17 1.9-2.27 1.48 0 0zm32.74.05c-.74 1.45.06 3.6-.53.47.05-.3.38-.29.53-.47zm8.1.03c-.42 1.06-.2 4.19-1.54 3.3.76.86-1.18-3.55 1.55-3.3zm8.91.36c.71 1.12-1.03 2.6.12.6-.2-.15-.05-.4-.12-.6zm-55.68.1c-.6.83-.27.93 0 0zm44.84.05c.71 1.17-.15.76 0 0zm-50.68.04c-.08.41-2.33 2.96-.6.73l.57-.7zm1.51.02c-.67.54-.36.64 0 0zm.22.12c-.67.53-.36.63 0 0zm54 0c.74 2.7-.4 1.8 0 0zm-3.59.01c-.68.21.29.57 0 0zm-18.3.03c.21 1.6.22.07 0 0zm-16.6.03c-.86 1.8.79 1.98 0 0zm35.95.16c-.28 1.45-.84 1.02 0 0zm-35.92.03c.21.22-.14.51 0 0zm7.12.03c-.69.82.27.35 0 0zm11.76.16c.34.6-.2.6 0 0zm-26.38.25c-3.72 2.7-7.93 7.42-5.07 12.13-1.01-1.76-1.9-3.8-.8-5.63a17.4 17.4 0 0 1 5.87-6.5zm50.45.16c.66.2.27 1.53 0 0zm-8.39.05c-.18.48.37.42 0 0zm-51.64.23c-.34.61-.7.55 0 0zm17.08.03c.21.23-.14.5 0 0zm-12.2.08-.1.12zm19.52.03c-1.18.28.25 1.73 0 0zm33.29.06c.04.77-.08.74 0 0zm3.34.15c-.4 2.7-1.15 1.85 0 0zm-35.93 0c.75 1.05-.1 1.48 0 0zm25.51.03c-.23 1.33-.54.94 0 0zm.96 0c-.13.22.2.48 0 0zm.89 0c.22.39-.15.33 0 0zm-36.32 0c-.13.23.2.48 0 0zm7.06.1c-.57.8.73.72 0 0zm-18.3 0c-1.02 2.05-1.25 1.74 0 0zm39.28.01c.64.39-.62.68 0 0zm-45.88.3c-.67 1.65-2.73 2.44-.23.46-.46.4.05-.52.23-.46zm16.13 0c-.1.9-1.56 2.68 0 0zm5.96.23c.2 1.58 1.69 1.52 0 0zm13.47.01c.14.86.32.29 0 0zm-13.26.06c.42 1.1.63.45 0 0zm37.46 0c.13 1.5-.03.38 0 0zm-2.28.1c.2.54-.13.28 0 0zm-32.57 0c-.81.63.03.79 0 0zm13.11.18c.53 1.21.67 4.75.18 5.34a39 39 0 0 1-.18-5.34zm13.7.01c-.42 1.8-.78 2.08 0 0zm-19.35.04c.53 1.37-.15 2.43 0 0zm19.82.09c1.8.73.46.84-.1 1.28-.45 1.27-.61-1.03.1-1.28zm1.92.02c.25.73-.96 1.9 0 0zm-33.3.3c-.5.31.28 1.92 0 0zm36.8.06c-.5 1.7-1.22 4.88-.45.95l.42-.82.03-.12zm3.54.1c-.76.18.47.53 0 0zm-23.68.21c.3.6-.49.33 0 0zm-17.8.02c1.19 2.84-.16 3.13 0 0zm39.9 0c-.1.78-.04.3 0 0zm-44.14.08c.73.57-1.06 1.48 0 0zm3.26.18c.32-.08.1.27 0 0zm34.97.04c-.9 1.2-1.01.7 0 0zm-28.46.01c-.64 1.38.47.78 0 0zm3.26 0c.31.87-.34.5 0 0zm-23.32.08c-.3.47-.56.35 0 0zm52.67.06c3.5.17-3.08 3.24 0 0zm-21.77.1c-.08.4.37.4 0 0zm1.42.15c.39 1.4-.12 1.44 0 0zm24.02.02c-.14 2.5-.31.8 0 0zm-2.05.02c-.04.92-1.19 1.35 0 0zm-6.95.05c-1.13 2.53-1.68 1.58 0 0zm-37.33.17c.24 2.7-.92 2.67 0 0zm3.2 0c.4.45-.4.45 0 0zm33.1.18c.5.06-.18.61 0 0zm-54.08.02c-1.3 2.5 1.35 8.03-.62 2.5-.46-.93-.02-1.88.62-2.5zm23.61.15c.44 2.82.34.25 0 0zm19.58.12c.6 3.7-.57 4.09 0 0zm-19.78.16c-.13.28.19.54 0 0zm40.12.02c.38 2.66-.46.55 0 0zm-56.18.04c-.25 1.4-.7 2.04-1.34 2.2.99-.42-2.85 2.64-.5-.8.49-.63 1.26-.89 1.84-1.4zm15.7.1c.81 2.4 1.43 3.64 0 2.39.02-.68-.44-1.82 0-2.39zm30.77.32c-.49 1.02-1.27 1.08 0 0zm-48.52.08c.02 1.1-1.12.66 0 0zm20.98.01c.13.76.9 5.5.06 1.74 0-.64-1.02-.9-.06-1.74zm34.44.08c-.83 2.64-1.36 1.98 0 0zm-59 .05c-.18.73-1.01.37 0 0zm-1.9.15c.45.62-.5.85 0 0zm25.15.07c.6 1.85-.4 1.43 0 0zm12.14.16c.25 1.49.6 1.19 0 0zm22.66.13c.6.48-.71 1.54 0 0zm-22.31.01c-.12.64.46.93 0 0zm2.83.18c.12.87 1.55 6.76 0 4.43.6-1.04-.48-3.1 0-4.43zm-3.37.14c-.93.89.62 1.14 0 0zm2.39 0c-.3.77.31.74 0 0zm24.4.1c.33.5-1.6 1.54 0 0zm-21.66.17c-.31 2.97 4 6.98 4.5 6.77-2.6-1.1-4.59-3.87-4.5-6.77zm-19.45.01c.94 1.5-.21 2.44 0 0zm-18.23.23c1.12.6-1.18.73 0 0zm34.98.44c-.31.19-.08.62 0 0zm1.74.11c.21.23-.14.5 0 0zm-37.22.12c.69 3.43 0 2.67 0 0zm35.44.18c-.18 1.04.29 1.02 0 0zm-5.2.07c.24 1.73-1.2 5.46-.25.9l.16-.65zm-12.34.17c.58.67-.44 1.7-.21.81l.15-.48zm9.05.1c-.06 1.91-.98 6.43-.37 1.32-.03-.47.23-.88.37-1.31zm28.6.03c.18.36-1.8.7 0 0zm-35.73.2c.46.48-.46.47 0 0zm11.23.05c1.49 2.67.69 6.65 2.73 8.38-2.56-1.94-1.31-5.68-2.73-8.38zm-10.68 0c.18.56-.14.29 0 0zm-4.24.05c.1 1.26-.02.4 0 0zm.5.3c.13.07-.1 1.04 0 0zm6.08.33c.34.44-.37.81 0 0zm-5.08.03c0 .06-.06.28 0 0zm-15.82.14c-1.26.21-.45 1.9 0 0zm-.14.13c-.34.62-.69.55 0 0zm15.5.12c.39 2.1-1.17 3.82-.03.7-.38.74-.35-.5.03-.7zm16.05 0c.22.64.54.42 0 0zm-.52.27c.19.55-.14.3 0 0zm-29.69 0c.31.28-.3.75 0 0zm-3.93.02c.22.12.13.18 0 0zm20.57.07c.5.1-.38.78 0 0zm-23.29.02c1.25 1.9 2.26 4.2.15.7l-.16-.7zm33.58.18c-.38.3.23.31 0 0zm2.05.31c.74.62.1 1.83 0 0zm-12.56.09c.19.54-.13.28 0 0zm-18.74 0c1.08.14-.5.28 0 0zm19 .12.02.25zm5.58.4c-.52 2.84-1.76 5.76-.7 1.59.15-.57.28-1.17.7-1.6zm4.41.05c.07.89.13 2.48 0 3.18-.4-1-.01-2.14 0-3.18zm-29.59.11c-1.25 2.23 1.03 2.3 0 0zm-.4.12c-.36 2.27.49 1.19 0 0zm32.9.03c.13.66-.12.45 0 0zm-11.3.14c.74.49-.5.85 0 0zm-21.21.04c.2.23-.15.49 0 0zm36.58.07c.82.34 0 .5 0 0zm-38.83.02c-.14.74 1.2.48 0 0zm3.83.21c-1.35 2.07.81 2.27 0 0zm-.5.5c-.49.88.22.95 0 0zm36.25.18c.56.36.28.48 0 0zm-39.6.39c.7.16.17 1.4 0 0zm7.25.1c.39.44-.1.37 0 0zm-8.18.08c.4.56-.58 1.42 0 0zm22.92.16c.21.22-.14.5 0 0zm17.54.02c1.64.26-1.48 1.84 0 0zm-16.1.2c.47.67-.39.9 0 0zm12.16.04c-.33.4-.46 1.53 0 0zm6.47 0c-1.97 1.3 4.55 6.34 1.15 1.57-.46-.46-.52-1.26-1.15-1.57zm-42.03.37c1.53 3.52.38 3.18 0 0zm45.97.08c1.16.46 5.92 5.07 2.1 1.85-.96-.39-.95-1.74-2.1-1.85zm-5.94.25c1.6 2.03.57 3.02 0 0zm-40.6.14c-.02 2.37 1.9 2.6 2.3 4.52.4 1.32-2.47-2.77-2.49-2.03.14-.77-.16-1.82.2-2.5zm38.5 0c1.31.3-1.98.25 0 0zm-2.56.02c-.4-.24.74.46 0 0zm7.02.12c-.19.73 2.23 2 1.42 2.11-.31-.81-1.45-1.13-1.42-2.11zm-18.7.1c.62 1.52-.56 3.52 0 0zm-15.71.02c1.62.76.57 6.92.65 3.45.2-1.26-.23-2.3-.65-3.45zm29.01.02c-.12.73-1.34.03 0 0zm4.6.76c-.8 1.3 1.2 1.53 0 0zm-37.03.02c-.14.23.2.48 0 0zm-5.52.06c.12.78-.11.51 0 0zm27.34.18c-.14 4.8-.18 3.47-.16.16l.02-.03zm18.18.06c-.24 2.49 5.06 1.18 0 0zm-2.86.16c.23.37-.14.34 0 0zm2.93.01c2.68 1.07 1.92 1.89 0 0zm-39.86.06c-2.24.23 1.11 8.74-.17 3.72.38 1.32 1.77 6.88.64 3.06.38 4.28 2.1 2.46.43-.6-1.12-5.79.54 2.15 1.53-1.9-1.28-2.79-1.26-3.02-1.61-2.82-.24-.49-.38-1.09-.82-1.46zm-.1.17c1.4 1.92.17 2.32 0 0zm42.65.88c-.43.63.59.16 0 0zm-10.91.02c2 1.1.66.86 0 0zm-36.4.08c1.21 1.2-.6.45 0 0zm41.85.17c.87.74-.75.56 0 0zm6.55.05c.3.48.55.33 0 0zm.5.15c-.3.32.52.16 0 0zm-4.45.08c-.52 1.3 3.81 6.94 4.95 6.21-1.56-2.9 3.42 2.36.67-1.9-2.45-3.61-1.64-1.38-1.02.38-.2 1.85-1.29-2.48-3.17-3.18-.08-.8-.66-1.31-1.43-1.51zm-5.06.22c-.27.57-.23-.07 0 0zm-39.65.01c.22.22-.38.77 0 0zm5.8.02c2.9 3.1-1.2 2.52-.05.6 1.7 1.7-.65-.13.05-.6zm-.5.08c.39 2.27-.88 2.15 0 0zm19.85 0c-.5 2.27-1.5 6.44-.56 1.35.14.17.2-1.12.56-1.34zm-24.4.02c.9.79-.12.59 0 0zm44.23.04c1.5 1.76 3.46 3.63 4.15 5.54-1.05-2.04-2.98-3.68-4.15-5.54zm5.81.05.12.14zM27 478.9c.36.83-.38 1.13 0 0zm16.12.05c1.95 1.24-1.25.09 0 0zm-37.55.04c-.1.37.39.43 0 0zm48.67.02c.8.43.08.56 0 0zm-50.58.03c-.02 1.1-.24.78 0 0zm51.61.14c.55.52-.5.36 0 0zm-52.02.38c.09.69-.28.08 0 0zm52.29 0c.37.4-.08.4 0 0zm-11.42.1c.94.37.4.22 0 0zm10.7.13c.65.26.4 1.57 0 0zm-51.48.1c0 1.6.13.02 0 0zm47.47.22c-.34.1.4.06 0 0zm-5.3.06c3.29 3.27 1.13 1.78 0 0zm-17.45.27c.27 3.91-1.22 3.14 0 0zm27.28.24c1 1.34 1.66 4.28.24.84l-.26-.84zm-10.94.15c.71 2.15 6.3 6.18 5.89 6.1-2.22-1.86-4.79-3.18-5.9-6.1zm-17 .02c0 .1-.16-.04 0 0zm-16.35.04c0 1.5-.51 1.05 0 0zm-5.33.05c.42.4.22.76 0 0zm39.38.23c2.37 1.12 7.94 7.71 2.46 3.34-.93-1.02-1.69-2.2-2.46-3.34zm-39.03.16c1.32 2.36 2.04 6.8.45 1.52l-.18-.54zm44.18.08c.33.29-.07.13 0 0zm-37.54.02c.38.18-.3 1.17 0 0zm-.51.03c1.17 1.44-.2 1.08 0 0zm40.95 0c2.5 1.17.6 2.38 0 0zm-25.58.5c.27.3-.26.58 0 0zm-14.56.42c.92 1.76-.88.57 0 0zm-3.35.27c.19.54-.13.29 0 0zm38.15 0c.92.81 1.18 1.3 0 0zm5.83.21v.06zm-45.4.08c-.8.29.5.64 0 0zm4.08.11c.7 1.3-.67 2.54 0 0zm32.38 0c.44 1.08-.38 2.63.5 3.75-1.12-.7-.52-2.67-.5-3.75zm-16.54.02c.25 2.66-.7 2.04 0 0zm-19.59.14c-.44.5.56.27 0 0zm45.55 0c1.58 1.64-.25.5 0 0zm2.41.07c.53.61.1.6 0 0zm-43.34.27c.21.22-.14.5 0 0zm35.61.24c.47.34.82.93 0 0zm4.37.63c.57.35.28.46 0 0zm2.85.17c.96.16 1.33 1.67 0 0zm-6.44.11c.75.64 1.07 1.18 0 0zm7.4.04c1.24.75 1.06 2.8 0 0zm-44.61.57c.29.62-.13 1.4 0 0zm37.96.25c2.2 2.4 3.62 5.54 5.46 8.1-1.78-1.6-3.5-5.74-5.46-8.1zm3.65.11c.67 2.96 2.06 1.75 0 0zm-.35.16c1.08 2.26 1.2 1.28 0 0zm-46.03.07c.94 1.79 1.85 8.9 1.1 8 .27-2.74-.74-5.36-1.1-8zm1.1.02c-.94.7 1.11.26 0 0zm48.2.19c.83 2.52 5.09 8.29 5.38 8.78a28 28 0 0 1-5.38-8.78zm-47.71.13c.22.73.76.44 0 0zm3.33.2c.27.8.11 2.49 0 0zm-1.32.37c-.2 1.44 1.18 1.5 0 0zm-.38.2c.04.7.54.58 0 0zm-1.16.12c-.12.45.13.66 0 0zm45.74.37c.14.2 1.15 1.76.3.79.85 1.58.41-.55-.3-.79zm-42.67.45c.37.88-.24.96 0 0zm-3.73.32c-.1.26.1.86 0 0zm3.87.64c.18.55-.14.28 0 0zm-1.54.1c-.58.23.58.23 0 0zm45.2.34c-.41.37 1 .94.01 0zM13 490c.78 2.31 2.12 7.94.45 2.15-.2-.67-.47-1.46-.45-2.15zm44.3.9c.46.95.77.82 0 0zm-1.43 1.47c-.91.22 1.22 1.67 0 0zm-.49 1.43c.3.65 1.36 5.41.66 4.2-.72-1.23.11-2.85-.66-4.2zm-44.47.65c.3 3.14.9 1.94 0 0zm-.28.39c-.17 1.55.9 4.7.33 1.48-.22-.47-.26-.98-.33-1.48zm45.58 0c2.02 5.36-.45-1.1.21.85.67 3.6-.61 1.43-.21-.85zm4.8.06c3.44.6 1.62 4.59 0 0zm-3.46.27c-.26 1.47 1.69 1.22 0 0zm-.35.13c.02.65 1.28 1.48 0 0zm-48.82.1c-1 1.67-.42.34 0 0zm.34.07c.66 1.51-1.64 1.78-.07.13.04-.02-.02-.12.07-.13zm54.38.1c1.88.43.66 4.45.72 4.6-1.22-1.54 1.38-3.11-.72-4.6zm-49.66.03c.1.14.48.87 0 0zm1.36.05c1.57 2.12 3.04 7.26 1.28 7.95 2.45-2.1-1.3-4.74-.47-6.73.3-.13-1.16-.97-.8-1.22zm43.97.73c-1.41.35 1.6 1.04 0 0zm-51.11.05c.88.82-.08 1.1 0 0zm53.23 0c-.44 1.42 1.33 1.72 0 0zm-51.54.07c3.56 1.37-1.9-.23 0 0zm47.84.03c.2.23-.14.5 0 0zm3.35.09c-.1.79 1.13 2.06 0 0zm-47.44.08c-.52.3.51.3 0 0zm1.4.37c-.49 4.07-.67 2.05 0 0zm-5.78.1c-.84 1.48-1.38 1.1 0 0zm49.7.07c.95.25.28.53 0 0zm-1.33.2c-.18 4.48-.9 4.16-.05.21zm3.03.07c-1.3.35 1.5 1.08 0 0zm-50.73.23c.4.3-.4.3 0 0zm2.31.52c.53.66-.22.24 0 0zm47.22.05c-1.47.37.5.14 0 0zm1.85.23c.86 2.21 1.55 2.13 0 0zm-53.5.14c-.35.88-1.4 1.33 0 0zm51.38.37c-1.3-.18.14 1.9 0 0zm-44.97.22c.41.61-.52.26 0 0zm-6.3.29c-1.4 1.77-1.43.72 0 0zm.3.06c-.62.75-1.2 1.07 0 0zm51.61.2c1.24 1.48.45 4.12 1.46 6.09 1.62 4.15 1.14-5.01 2 .78 1.52 2.81-2.79.46-4.27 1.02-.38 1-2.59-1.6-2.95.1-1.93-1.42-2.04-.1.28-2.27-.22-.51 2.22-3.89.9-1.43-.6 2.1.71.4.78-.44-.32 3.7 1.52-1.7.32-2.1-.9.62 1.42-1.01 1.48-1.75zm.9.12c.54.13-.28.35 0 0zm3.04.2c.42.37-.22 1.9 0 0zm-2.91.42c1.38 1.56 1.62 9.6.49 3.74.6-2.03-1.2-1.82-.5-3.74zm-52.47.06c-1.8 1.37.53 1.21 0 0zm-2.16 0c.07.79-.79.46 0 0zm55.25.08c1.42 1.93.78 5.7.25 1.5.22-.43-.78-1.15-.25-1.5zm-54.95.03c.84.43-.9 1.23 0 0zm5.71.09c-1.75 2.45-.08 1.72 0 0zm52.65.18c1.57 2.15-1.76 9.34-.17 3.48.79-1.13.55-2.3.17-3.48zm-49.1.04c-.57.36-.28.47 0 0zm-6.66.25c-2.24.72-.8 4.51-.83 1.75 1.1.3 1.4-1.2.83-1.75zm-3.51 0c-1.47 1.45-1.14.8 0 0zm3.03.35c-.05.52-.33.01 0 0zm50.87.2c-1.08 1.57-.59 7.9.53 2.96.05-1 .09-2.1-.53-2.97zm-50.63.12c.56.9-1.22.73 0 0zm50.72.15c.2.23-.14.5 0 0zm-51.39.18c-.02.32-.17-.1 0 0zm-3.86 0c-.54.2-.19.01 0 0zm6.64.15c-.14 1.24-3.22 2.24-.26.88-.42.38.49-.73.26-.88zm47.24.08c.26.65-.45.26 0 0zm-1.6.6c-.6 2.3-1.9 3.96-.4.72zm-44.5.31c.4.3-.4.3 0 0zm-10.03.07c-.11.4-1.02.23 0 0zm9.65.24c.1.03-.17.04 0 0zm48.04.06c.1 5.56-1.38.64 0 0zm-57.32.12c-1.08.67-1.58-.06 0 0zm55.42.18c-.11.5.12.79 0 0zm-55.5.02c.35.22-1.13.4 0 0zm1.15.09c1.34.75-.64.9 0 0zm-.39.03c.42.38-1.3.15 0 0zm53.86.03c-.47 1.5.11-.67 0 0zm-56 .2c.69.49-3.14 2.2-.32.06zm10.91.06c-2.62 1.44-4.47 2.86-.77.3zm-11.84.04c-.27.53-.39.18 0 0zm5.19.02c-.37.74-.94.35 0 0zm-2.12.1c-.47 1.56-4.5 1.95-1.19.16l.86-.1zm2.65.02c-.08 1.2-1.08.2.1.12zm55.17.47c-.14.34.23.38 0 0zm-56.85.09c3.55.2 1.3 1.6-1.41 2.46 3.03-.9-.4-1.4 1.4-2.46zm-5.14.2c.49.65-.72.05 0 0zm3.24.15c.15.02-.16.14 0 0zm.8.1c-.97 1.46-2.23 1.67 0 0zm-4.7.25c.72-.02-.58.27 0 0zm11.05.08c-.57.36-.29.48 0 0zm-9.66.02c.23.2-.45.07 0 0zm-.72.02c-.62.88-.5.11 0 0zm2.66.12c-2.3 2.33-2.54.88 0 0zm59.55.1c-.08.4.38.41 0 0zm-2.02.02c.84.17-.25.94 0 0zm-59.6.12c-.32.7-1.69 1.2 0 0zm54.78.17c-.5 2.38-1.11.62 0 0zm-54.31 0c.44.12-.96.35 0 0zm8.45.1c-.15.12-.58.2 0 0zm52.91.03c.03.43.41.3 0 0zm-58.04.04c.47.15-.66.6 0 0zm-.4 0c.4.5-1.04.15 0 0zm3.33.01.09.02zm1.16.26c-.18.1-.72.16 0 0zm-5.95.15c.02.33-.94.65 0 0zm53.8.01c2.7 1.39-1.26 1.67-.19.02zm-49.7.11c-.16.28-.52.14 0 0zm-.79.04c-2.03 1.5-3.54.65 0 0zm-2.65.05c.8.72-1.75.76 0 0zm55.8.12c1.03.27.33 1.19-.02 1.13-1.78-.96.84.21.02-1.13zm-58.64.08c.84.24-.44 0 0 0zm55.66.08c.8.02-.25.42 0 0zm7.13.05c.19 1.6-1.27.99 0 0zm-56.95.01c-.3.73-.96.54 0 0zm55 .23c1.35 1.72-2.83.28 0 0zm4.52.09c.2 2.15-2.2 3.07-.04.46zm-7.93.17c.22.28-.32.13 0 0zm-2.4.08c1.96.7-1.35 3.99-.2 1.04-1.47-.25-.69-.9.2-1.04zm6.97 0c.4.3-.4.3 0 0zm-60.22.04c.07 0-.13.13 0 0zm55.61.2c-.8 2.58-1.94 2.04 0 0zm2.1.12c-.36 3.36-1.34 3.15-.06.1.2-.04-.08-.1.06-.1zm4.3.11c.7 1.34-1.94.93 0 0zm-5.88 0c.44-.41 1.2 2.13-.92 1.24.05-.23.39-1.24.92-1.24zm5 .04c-.16 1.6-.82 1.34 0 0zm-2.76.1c1.66 1.27-2.11 1.02 0 0zm1.11.13c.12 1.3-.84.49 0 0zm.64.1c.96.82-1.46.84 0 0zm-8.71 0c.41.4-.58.22 0 0zm.05.47c.03.31-.83.28 0 0zm.88.08c.7.95-1.95.48 0 0zm9.06.1c1.2.45-.69 0 0 0zm-7.38.04c-1.33 2.4-3.93.65-.24.38zm-2.98.1c.03.61-.35 0 0 0zm6.98.03c2.36.06-1.58.8 0 0zm2.04.07c1.01.43-1.7.67 0 0zm.79.19c.82 1.52-.94.97 0 0zm-9.43.18c0 .97-1.26.67 0 0zm9.96.07c.58.28-.58.28 0 0zm-6.46.07c-.23.84-1.04.5 0 0zm4.23.1c.45.3-.1.67 0 0zm-3.72.05c.3.55-.98.41 0 0zm.88.02c-.73 1.58-1.85 1.13 0 0zm5.76.1c-.08.82-1.04.82 0 0zm-4.26.17c.35.47-.42.45 0 0zm1.68.1c.77.65-.17.61 0 0zm-8.95.06c.12.14-.1.33 0 0zm3.3.02c-.3.6-1.18.52 0 0zm-2.39.05c.83.28.39.25 0 0zm3.4.08c.44.3-.29.57 0 0zm5.6.11.07.01zm-1.49.03c.07.04-.05.02 0 0zm-.65.03c-.61.68-1.31.13 0 0zm-1.84.09c-.08.26-.7.42 0 0zm3.77.13c.73.1-.95.7 0 0zm-4.39.3c.16.06-.45.12 0 0zm-.7.2c-.23.16-.98.28 0 0zm2.48.1c-.03.26-.57.04 0 0zm-64-116.93c-1.37 1.15-.3.8 0 0zm4.25-2.49c-.2.05 1.02.03 1.37.38.32.31-.24 1-.39 1.03-2.63.55-5.25-1.14-.98-1.4zm-1.07 2.5c-1.37 1.14-.3.78 0 0zm1.06-1.07c-1.37 1.15-.3.8 0 0zm-3.97 0c-1.37 1.15-.3.8 0 0zm2.01.08c-.3.25-1 .88-1.1 1-.36.42.87-.38 1.1-1zm-.42 1.78c-1.38 1.14-.3.79 0 0zm-1.33 0c-1.37 1.14-.3.79 0 0z" style="display:inline;fill:#000;stroke:#000;stroke-width:.1;stroke-dasharray:none;stroke-opacity:1" transform="translate(54.2 -289.88)"/></svg>