<svg xmlns="http://www.w3.org/2000/svg" xmlns:xlink="http://www.w3.org/1999/xlink" xml:space="preserve" width="230mm" height="578.37" viewBox="0 0 230 153.03"><defs><radialGradient xlink:href="#a" id="d" cx="117.592" cy="66.419" r="110.405" fx="117.592" fy="66.419" gradientTransform="matrix(1.05788 .02843 -.01292 .4806 -19.284 31.557)" gradientUnits="userSpaceOnUse"/><radialGradient xlink:href="#b" id="e" cx="108.407" cy="70.463" r="122.577" fx="108.407" fy="70.463" gradientTransform="matrix(.95284 .0256 -.01163 .43288 1.78 33.543)" gradientUnits="userSpaceOnUse"/><radialGradient xlink:href="#c" id="f" cx="115.326" cy="69.774" r="109.312" fx="115.326" fy="69.774" gradientTransform="matrix(1 0 0 .23298 0 53.518)" gradientUnits="userSpaceOnUse"/><linearGradient id="c"><stop offset="0" style="stop-color:#adabab;stop-opacity:.21587609"/><stop offset="1" style="stop-color:#848181;stop-opacity:0"/></linearGradient><linearGradient id="b"><stop offset="0" style="stop-color:#5da4f5;stop-opacity:.67398119"/><stop offset="1" style="stop-color:#5da4f5;stop-opacity:0"/></linearGradient><linearGradient id="a"><stop offset="0" style="stop-color:#5da4f5;stop-opacity:.70428425"/><stop offset="1" style="stop-color:#5da4f5;stop-opacity:0"/></linearGradient></defs><ellipse cx="105.843" cy="67.35" rx="102.027" ry="55.102" style="display:inline;fill:url(#e);fill-rule:evenodd;stroke:url(#d);stroke-width:1.07394;stroke-linecap:round;stroke-linejoin:round;stroke-dasharray:none;stroke-opacity:0"/><path d="M138.995 44.141c-1.057 6.113 10.535 12.19-.09 13.692 4.119 8.387 15.37 9.06 23.685 9.03 4.408-.997 14.898 4.906 5.562 5.863-10.14.966-20.212 2.562-30.306 3.519-3.975-1.818-18.953 3.44-8.214 2.15 3.67-1.32 19.482-2.735 8.809.976.471 8.816-12.27 3.964-18.642 8.162 5.824 2.072 19.479-6.453 19.907.917-3.218 2.545-6.301 9.815.875 6.553 10.732.61 20.676-8.577 30.959-5.565 8.5-.892 16.304-5.123 24.596-7.193 9.295-3.217 18.538-6.586 27.697-10.174-6.425-6.998-17.006-7.273-25.053-11.72-10.133-2.039-21.04-12.35-31.192-6.79-6.574-5.3-15.723-7.905-24.56-8.78-1.333-.285-2.687-.436-4.033-.64m-41.175 2.96c-7.776 8.569 19.123 12.547 10.458 3.917-6.691 1.578-5.665-3.473-10.458-3.917m48.592 1.233c8.68.143 22.666 9.287 24.82 12.005-3.157-1.784-16.09-6.035-6.826-1.475 2.392 4.572-7.99-2.776-10.89-2.41-3.916-.768-7.771-3.66-7.104-8.12m-69.74 2.908c-4.394-2.013-8.899 5.096-2.131 2.7 4.24-.039 17.88 1.855 7.392-1.56-1.705-.567-3.467-.99-5.26-1.14m-29.18 6.123c-7.972-1.557 2.467 6.427.223 2.138-1.167-1.52 14.304 2.297 4.318-1.722-1.49-.329-3.021-.398-4.542-.416m75.68.216c-6.416 1.435 3.17 5.152 0 0m26.721 1.07c4.043.677 10.723 2.192 9.625 5.027 1.049 2.105-14.803-2.394-7.646-3.241-1.625-.951-7.245-1.83-1.979-1.786m-90.317 1.703c3.152 4.735 19.917.439 7.93.775-2.656-.077-5.319-.264-7.93-.775m-21.41 1.824c-8.2 5.798-18.07 1.03-26.892 5.042-8.596 2.23 1.363 6.357 3.839 3.026-4.594-.139-6.886-1.04-.605-1.474 6.697-3.753 17.498 3.525 21.512-3.188-.152-4.903 16.344 2.193 12.15-1.978-3.298-.683-6.622-1.374-10.003-1.428m130.421 1.335c.486 1.416-1.721-.549 0 0m.862 2.147c4.967.016 17.736 6.156 10.604 6.418 1.433-4.532-9.055-3.485-10.604-6.418m-150.178.833c4.523.383-5.972.463 0 0m58.356.675c-7.11-2.984-10.28 10.113-1.035 6.91 6.54.399 10.844-7.97 1.035-6.91m-1.188 2.34c7.26 1.852-8.462 2.075-.385.016zm141.563 1.186c3.572-.698-1.096 2.08 0 0m-200.718.354c.791 8.181 14.856 1.651 20.557 2.93 8.001.22-5.998 5.488 2.115 5.686 3.557.5 12.533-2.84 3.972-1.459-7.373 2.536 2.396-6.704-6.05-5.195-6.365-1.231-16.18 4.295-20.594-1.962m76.964 2.205c-9.52 2.192 10.646 3.713.227 1.493 8.974-1.383 17.985 1.239 26.733 1.528 4.793-3.643-10.404-1.455-13.22-2.607a371 371 0 0 0-13.74-.414M54.834 76.73c-5.884 1.413 10.724 2.557 1.867 5.305 2.462 3.49 10.224-6.305 1.66-4.863-1.165-.217-2.346-.337-3.527-.442m104.889.006c4.3-1.454 1.037 7.327 6.119 3.723-.788 8.805-14.368 8.73-21.172 10.769-5.486-4.7 8.307-7.606 12.335-5.724 5.627 2.372 12.579-6.54 3.182-2.437-6.965 2.314 4.37-4.409-3.38-2.817-3.964-.413-13.998-.455-5.071-2.555 2.592-.722 5.295-1.088 7.987-.96m-80.891 2.11c-2.626 2.576-16.589 11.113-5.29 8.76 5.23-.955 5.206-2.887.208-1.36-9.645 2.37 13.785-3.232 5.082-7.4m28.986.345c-13.175 1.695 9.315 1.7 0 0m44.992.98c-2.414 3.22-10.209.872-2.834.558l1.416-.287zm-26.578.87c-4.19-1.267-7.404 3.735-1.011 1.18 2.11 5.717 6.098-2.566 1.011-1.18m45.687.095c-.895.26-.647.189 0 0m-53.064 1.68c-2.54.625 1.226 1.694 0 0m21.218.793c3.424-.66 1.597 3.477 0 0m-24.161.53c-3.285-.347-.168 2.452 0 0m-23.324.383c-5.86-2.485-17.17 10.037-5.251 7.466 3.53-.467 14.482-5.264 5.25-7.466m20.17.965c-2.946 1.4-15.582 1.452-5.888 2.353 2.1-.037 4.875-.11 5.888-2.353m-21.213 1.433c-4.676 6.587-9.157.63 0 0" style="display:inline;fill:#5da4f5;fill-opacity:1;fill-rule:evenodd;stroke:#5da4f5;stroke-width:3.10705958;stroke-linecap:round;stroke-linejoin:round;stroke-dasharray:none;stroke-opacity:1"/><path d="M133.89 94.776c4.855-3.322 9.251-12.487.131-10.24-4.063 1.329-14.026 4.007-15.312 1.745 1.579 1.79 13.177-2.61 19.165-1.893 10.539.836-7.95-2.729 1.004-5.096 6.947-1.54 4.473-4.353-1.335-3.116-5.409 1.79-16.271 1.623-11.259.724-1.832 1.414 8.792-.936 11.874-.567 10.228-.693 20.31-2.362 30.51-3.162 11.142-4.333-6.413-7.926-11.083-7.357-7.643.202-18.545-4.398-23.94-3.597 8.73 4.386-6.168 3.463-5.047 2.161 3.087 2.277 10.753.377 4.669-2.724 3.745-.273 16.856 3.682 7.169-.9-8.937-5.711 8.88-2.21 2.34-8.785-3.7-2.752-7.913-9.165.413-6.59 8.868.15 21.354 7.128 25.416 10.241-2.666-8.961 10.787-.264 14.936.014a439 439 0 0 1 39.869 15.502c-18.124 6.756-36.221 13.947-55.244 17.794-4.06-1.11 3.439-7.233-2.677-2.66-9.547 5.668-20.808 7.03-31.6 8.506zm10.36-3.29c7.342-1.13 15.423-2.872 21.153-7.812-6.413 3.07-2.642 2.651.78-.679 4.714-9.768-19.846 2.768-7.692.693 3.875-1.593 8.6-2.105 1.794.078.26.41-8.117 3.812-9.541-.636-3.91-1.284-17.57 10.695-6.494 8.356zm28.11-5.07c4.308 2.87 14.634-9.35 9.52-2.621 9.213-2.343 18.118-6.197 27.23-9.092 3.98-1.784 14.738-3.452 5.408-5.618-11.143-4.596-22.482-8.691-33.818-12.78-.404 1.46-14.816-4.893-6.483 2.351 4.005 1.87 9.018 7.243 1.097 3.675-4.608-2.678-15.088 3.128-5.292 5.011 3.666.222 12.98 5.484 3.81 4.87-5.197-1.898-12.643 7.693-3.46 6.492 3.618-.138 15.023-2.575 6.2 1.604-.736.902-9.173 6.14-4.212 6.108zm20.52-6.68c7.564-2.55 14.967-5.621 22.653-7.785-7.533 2.647-15.025 5.419-22.653 7.785zm-17.8-5.14c5.481.61 12.57-6.796 3.068-6.953-3.477-1.325-15.764-4.416-6.11-2.063 5.69-.676 16.923 6.837 6.003 8.223q-1.475.418-2.961.793zm-27.95 8.31c3.574-1.644 18.607-1.4 12.875-7.053-4.825-1.094-19.663 1.755-16.726 6.51 1.29.107 2.603.153 3.85.543zm1.06-.7c8.446-3.456-1.985-2.043-4.594-1.616 2.66-1.014 13.5-1.508 5.737 1.136zm22.36-.46c8.072-2.802-7.176-.25 0 0zm-6.92-16.66c-3.541-2.815-10.198-2.251-2.678-3.226-3.278-2.512-17.157-6.66-16.142-2.088 4.413-.22 11.54 3.222 3.283.51-10.638-1.041 6.622 4.658 10.033 4.636 1.824.223 3.67.29 5.504.168zm11.48-3.93c-10.322-4.369-18.877-13.597-30.677-13.895-2.52 1.985 12.47 5.056 6.978 6.841 5.811-.287-11.542-8.82-6.797-2.911-5.713-6.497 4.455 9.886 8.698 5.81 2.3 1.91 14.422 6.736 11.14 1.918-6.233-2.797-6.603-3.043-.318-.596 3.439 1.265 7.015 4.088 10.976 2.833zm-95.71 30.5c-.073-6.51 19.075-10.014 12.092-2.287-3.673 1.986-7.961 2.644-12.092 2.287Zm7.36-1.62c1.45.498 5.376-3.182 1.49-1.04 9.411-8.351-13.766 4-1.49 1.04zm40.13.47c3.366-4.439 5.692 1.245 0 0zm-61.76-3.06c3.793 1.588 13.616-9.759 11.496-5.162-2.609 2.1-13.98 5.956-4.58 4.445 11.782-3.824-2.532 2.198-6.916.717zm35.16-.2c.535-1.784 6.32-.912 1.73-.31 7.48 3.029 20.64-10.37 23.701-3.198-2.058-6.339-14.39 3.752-20.467 3.613-1.659.296-3.313.03-4.964-.105zm6.94-2.2c6.283-3.205-3.235-8.26-7.869-4.057-5.417 1.341-6.783.266-.62-.08 3.802-2.83 19.198-.43 8.489 4.137zm-52.25-2.28c3.437-2.503 7.973-3.89 1.153-5.12-5.35-2.418-18.12 3.803-19.199-.24 7.541-1.864 1.065-5.965-3.322-3.67-8.375 1.505-15.974.367-22.078-3.513-4.072.417-8.02-1.157-1.868-2.535 7.185-5.346 20.5 2.083 24.837-4.819 3.478-1.702 13.955 1.927 13.001 1.355-8.532-3.75-15.772 2.816-23.666 1.603-4.806-.455-15.751 1.361-16.01 3.72 8.33 1.08 12.258 6.925 21.547 4 5.53-.611 14.367-.924 8.717 4.688 7.33 1.503 16.078-4.167 22.517 1.168-1.705 1.812-6.723 3.585-5.63 3.363zm42.11-7.13c-3.686 1.08-9.992-2.139-2.845-2.165 9.352-.72 18.58 1.917 27.864 1.745-1.6.477-9.902.791-4.48-.99-8.565 2.002-19.966-2.692-26.82.659 1.97.801 4.452-.125 6.28.75zm-24.59-2.4c-12.605-4.589 15.176-9.795 8.372-1.587-2.554 1.372-5.543 1.471-8.372 1.587zm4.89-1.83c5.074-1.142-3.28.154 2.059-1.869-5.6-3.305-12.685 3.697-4.834 2.656.827-.121 2.386.36 2.775-.787zM9.1 68.826c7.455-3.493 23.774-1.056 26.591-2.852-8.38 3.508-17.724-1.165-26.591 2.852Zm93.18-1.27c-4.335-.001 2.32-5.278-1.041-.954 2 2.58 10.058-3.647 4.468.99-1.12.238-2.322.364-3.427-.036zm.86-.53c-3.874-3.586 7.071.884 0 0zm2.08-.42c-2.247-3.786-4.277 2.69 0 0zm-41.64-5.04c-5.972-.316-17.587-4.967-19.898-2.858 6.983 2.494-5.762-1.619 2.37-1.04 8.1 1.298 19.854 5.149 25.808 3.91-2.754.193-5.527.21-8.28-.012zm53.33-1.98c-12.086-2.007-24.468-2.509-36.124-6.51-3.46-2.098-15.885.407-5.671-.072 5.075.08 17.518 5.178 17.794 4.604-8.022-1.735-15.992-5.629-24.38-4.04 8.321-5.403 17.963 2.679 26.756 2.743 8.25.082 18.32 5.631 25.347.934.09-2.861-10.468-5.189-2.248-4.508 4.658.751 6.794 1.581.497.022-10.434-.99 11.581 5.612.08 7.332l-.971-.173zm-11.59-5.22c-5.703 4.274-16.126-9.995-5.231-6.614 2.407.355 13.88 7.557 5.23 6.614zm.76-1.14c-2.871-1.115-13.998-4.91-5.265-.866 1.689.47 3.468 1.71 5.265.866zm.07-.4c-1.267-4.729-12.288-3.268-3.499-1.228l1.726.683zm28.17 1.16c-5.84-.638 3.282-2.158 0 0z" style="display:inline;fill:#000;stroke:url(#f);stroke-width:1.03001978;stroke-dasharray:none;stroke-opacity:.21587609;fill-opacity:.83137256"/></svg>