<svg xmlns="http://www.w3.org/2000/svg" xmlns:xlink="http://www.w3.org/1999/xlink" xml:space="preserve" width="96mm" height="96mm" viewBox="0 0 96 96.002"><defs><radialGradient xlink:href="#a" id="c" cx="56.621" cy="44.98" r="37.013" fx="56.621" fy="44.98" gradientTransform="matrix(1 0 0 .9857 -6.35 5.935)" gradientUnits="userSpaceOnUse"/><radialGradient xlink:href="#b" id="d" cx="56.621" cy="44.98" r="37.013" fx="56.621" fy="44.98" gradientTransform="matrix(1 0 0 .9857 -6.35 5.935)" gradientUnits="userSpaceOnUse"/><linearGradient id="b"><stop offset="0" style="stop-color:#5da4f5;stop-opacity:1"/><stop offset="1" style="stop-color:#5da4f5;stop-opacity:0"/></linearGradient><linearGradient id="a"><stop offset="0" style="stop-color:#5da4f5;stop-opacity:1"/><stop offset="1" style="stop-color:#5da4f5;stop-opacity:0"/></linearGradient></defs><ellipse cx="50.271" cy="50.272" rx="36.513" ry="35.984" style="fill:url(#c);fill-rule:evenodd;stroke:url(#d);stroke-width:1.00002;stroke-linecap:round;stroke-linejoin:round"/><path d="M55.65 82.085c-4.601-1.343.165-9.496.993-2.773.165.991-.031 2.22-.993 2.773m-.161-2.1c1.194-4.971-3.148-.824.101.806l.116-.323zm-15.372 2.06c-.336-2.186 2.542-3.177 0 0m-5.063-2.558c1.603-5.851 3.404-12.62 4.621-16.527-6.459 5.024 2.272-6.577-3.732-2.553-.414-4.311-11.826 4.253-9.778-1.071 2.755-1.733 9.77-6.349 11.123-4.72-2.546 1.02-11.106 3.66-9.29 5.713 4.235-1.66 13.683-6.83 11.094-4.575-3.358.37-8.09 3.986-1.91 2.087 4.112-3.022-1.78 2.794 2.106.412 7.758-6.716-6.173 7.766.668 3.85 2.326-2.644 5.457-4.496 1.554-.472-3.424 3.161 2.556 2.4.906 2.135-3.365 2.499-6.174 10.062-4.971 12.341 3.114-2.912 4.595-10.432 6.803-8.735.5 6.458-6.06 6.257-8.323 11.527zm1.147-1.145c5.049-6.223 2.475-4.141 0 0m6.324-6.733c3.695-8.356-3.162.719 0 0m-1.875-.018c2.056-3.01-2.193 2.292 0 0m-2.871-2.013c2.897-3.822 1.936-4.72 0 0m-10.593-8.875c2.624.037 9.43-2.477 3.285-.832a49 49 0 0 0-3.285.832M44.18 79.419c-.544-5.94 2.338-.232 0 0m18.935-.738c-4.643-5.234 5.259-1.588 0 0m-32.8-.347c-.45-3.088 3.38-.586 0 0m18.11-.898c-1.485-2.702-2.56-11.748-1.558-11.07-.148 2.875 2.02 12.738 2.99 4.429-1.362-1.242-1.431 3.27-.351-.545.12-2.944.864-7.996 1.414-2.29-.024 3.168-.89 6.965-2.496 9.476m1.022-2.7c1.616-2.779 1.273-11.506.829-3.97.138 3.403-2.58 5.322-2.805 2.599-.013 1.442 2.23 5.392 1.976 1.371m-2.96-4.533c1.038-4.886-.658-3.574 0 0m-24.206 7.42c2.407-4.829 6.34-11.545 10.59-13.136-.027 1.525 3.932-2.478 1.817 1.453-1.558 6.327-7.358 8.699-12.407 11.682m1.192-.749c3.945-1.957 11.209-7.763 10.323-9.779-.633 4.987-9.815 8.258-10.323 9.78m2.518-3.146c1.684-2.26 4.409-6.39 5.016-2.445-3.584 3.154 1.974-2.304-2.26-.082-4.707 2.693-2.286 4.53 1.008 1.073 2.58-.177 4.591-8.472 2.609-3.697-.523-2.585 2.776-4.693-1.566-1.939-2.817 1.077-6.494 7.455-5.795 8.21zm10.444 3.563c1.88-3.849 5.898-12.558 6.794-13.183-2.01 4.523-4.678 8.713-6.794 13.183m38-.54c-3.298-1.07-9.736-7.675-10.515-5.372-1.6-.208-3.624-3.402-4.64-2.599-.75-2.542-4.373-10.453-.104-7.03-2.902-3.691 11.746.765 7.715 3.47 2.804 3.279 6.79 7.834 7.543 11.532m.516-.067c-2.242-1.647-10.815-6.874-9.09-5.566 2.874 2.097 5.99 3.831 9.09 5.566m-1.208-1.196c-3.66-4.567-6.44-11.245-12.588-12.547-7.402-3.24 4.622 11.093.239 2.632 3.795 2.89 7.245 8.01 12.349 9.915m-2.118-1.684c-2.9-2.27-6.308-6.068-1.662-1.72.29.277 4.427 4.162 1.662 1.72m.73-.851c-1.964-3.249-5.683-8.385-6.085-9.102-3.252-.16 6.287 7.271 6.084 9.102m-8.138-1.088c-2.251-3.112-3.964-2.536 0 0m-1.582-2.462c-2.137-4.203-.978 1.413.237.42l-.188-.332zm3.426.746c-1.218-3.93-5.104-.675 0 0m-6.233-2.283c.558-2.811-3.08-3.074-.336-.174zm7.287-3.981c-1.378-3.202-9.165-1.741-2.946-.611.994.126 2.008.23 2.946.611m-8.663 9.475c-4.382-5.092 4.398-.923 0 0m-4.844-.196c-2.704-2.216 2.52-1.75 0 0m1.563-1.59c-2.01-2.166-1.634-6.115.09-1.197l.106.607zm.073-.41c-1.29-4.598-1.157-.201 0 0m-6.79-2.786c-.688-7.445.94-2.126 0 0m3.964.585c-2.47-4.048.818-3.509 0 0m-31.067-.166c.975-2.69 3.308.2 0 0m33.23-2.179c-3.348-.75-4.729-9.178-1.95-2.478 5.134 4.774-.736-7.594 2.779-1.765 1.303.43.793 7.344-.828 4.243m1.362.522c-3.482-3.96-2.927-1.006 0 0m-30.3-.971c.505-2.982 3.193.944 0 0m47.435-.803c-5.742-3.974 5.038-1.479 0 0M45.3 64.891c-1.438-2.745 1.312-5.826.62-1.646 3.067-1.675.533 1.218-.62 1.646m-13.637-.995c-3.26-1.493 4.276-2.883.29-.527.252-.358-.176 1.28-.29.527m-14.691-.016c-.466-5.093 9.274-.858 2.396.093-.8.015-1.597-.08-2.396-.093m3.96-.317c2.626-.801-1.71-4.498.458-.789-2.258 2.807-5.015-2.022-3.437 1.107 1-.032 1.975-.305 2.979-.318m-1.71-.774c2.78-2.461-3.423 1.012 0 0m48.91-.903c-2.746-.809 1.801-1.128 0 0m-7.92-1.513c-3.852-2.926 4.922-.17 0 0m.833-.313c-.654-2.2-2.483.607 0 0m4.28.263c-3.581-.9-2.11-2.5 0 0m-8.86-1.538c-2.677.07-6.071-4.049-1.346-1.202.24-4.077 7.738 2.731 6.792-1.623-2.301-1.153-6.669-2.555-1.216-1.525 3.065.672 7.585 3.19 1.765 1.263 7.093 3.36-6.78.3-5.995 3.087m12.714-1.164c-6.099-5.099 14.808-2.84 3.987-3.2-3.23-.473-5.938 2.093-1.417 1.75 2.688.44 10.495-1.955 3.855-2.706-2.948-.832-6.838-.807-5.383-.651-6.423-.998-10.027-2.894-16.22-.593-4.015-1.736 6.21.829 5.146-3.51-2.01.672-6.584 1.63-2.783-.799-3.039 2.066 7.387-1.25 4.307 2.207 3.229-.382 7.005-.17 3.364.654 3.668 1.393 11.786 1.264 16.858 3.566 1.626 1.894-10 2.027-11.714 3.282m4.966-.804c-2.692-.743-8.547-.451-2.678-.071.89.069 1.785.135 2.678.071m2.144-.931c5.514-.93-3.493.146 0 0m-.719-2.83c-2.677-.876-6.247-.637-1.19-.105zm-12.065-1.034c4.774-.476 2.902-.736-.661-.106l-.474.117zm-5.555-1.06c2.232-.811 4.16-4.977 1.202-1.112-.346.375-1.107.517-1.202 1.113m-38.51 6.32c-1.31-2.545 3.097.822 0 0m4.892-.114c.526-3.142 4.32.906 0 0m1.634-.008c.714-1.352 4.259-.476 1.358-.03zm2.988-1.381c.197-2.297 3.048 1.097 0 0m3.766-1.097c-3.613-2.595 3.496-.663 0 0m37.022-.448c-4.37.233-14.223-1.913-5.558-.671 1.276.283 5.481-.2 5.558.671m-47.88-.79c-2.895-.645-10.923-3.398-3.87-4.723 5.7-1.664 11.251 1.019 15.965-.386 2.803 1.05 4.143 1.036 2.85-1.271 2.571 1.044 5.923 3.648 1.782 2.44 2.758 3.246-8.657-4.09-5.533.887 1.85 1.274 8.594 3.365 2.447 2.012-5.668-2.644-12.98-5.675-18.86-2.152 1.754 4.66 12.92.475 13.241 2.531-2.653.42-5.332.713-8.022.663m2.844-.26c9.019-1.228-4.539.962-7.206-1.667-9.024-3.347 6.374 3.296 7.206 1.666m-2.36-.415c-1.06-.488-3.13-2.541.153-3.642-1.611 2.677 6.344 1.305-.205 1.893-.493.462-.443 1.321.052 1.75m21.828-1.058c-2.19-2.064 2.802-.117 0 0m28.81-.803c-.68-2.646 3.17 1.386 0 0m-5.724-1.405c3.573-1.299 5.99.305.49.003l-.38-.003zm.31-.395c-4.814-1.053 6.487-2.663 0 0m-13.303-.95c.896-5.005 5.032-9.072 5.567-14.599.959-5.533-4.868 3.724-5.93 5.903-.768 2.749-4.49 10.284-5.157 3.332.94-3.224 3.596-.602 3.92-1.63 1.176-3.38-1.493-2.831-2.43-1.154 1.74.198 2.655-9.412.258-2.485-4.272.21 1.035-9.455-1.361-13.06-.637-2.995-1.94-10.854-3.054-3.6-1.882 5.604-.524 11.535-.633 17.289-1.85-5.983-1.325-12.083.266-18.019.369-3.82 2.306-7.065 2.777-1.494 2.62 5.056.885 13.387 2.07 16.742 2.532-6.258 1.926 1.097 2.837-.191 1.039-1.766 1.794-5.85 1.292-2.075 3.763-7.311-1.48.941-.406 3.725 1.637-2.126 9.09-11.182 6.344-3.277-.823 2.702-3.26 9.503-3.173 9.859 4.12-1.894.576 2.953 1.421 3.438-1.5.584-3.458-.152-4.608 1.297m2.247-1.661c3.08-2.582.643-2.124 0 0m.653.019c2.227-1.883 2.067-5.127 1.282-1.736-.448.553-.985 1.076-1.282 1.736m-.92-.51c3.487-1.957.343-2.25 0 0m-5.996-1.021c3.031-7.579-3.817 1.026 0 0m6.158-1.576c2.82-3.843 4.121-9.838 4.6-13.86-2.741 2.682 1.211-.978-.581 2.638-.69 3.568-2.95 10.102-4.019 11.222m-6.98-6.272c.278-5.68 1.624-11.348-.75-16.806-.817-3.442-2.096-7.188-.579-1.245 2.378 6.003 1.383 12.574 1.067 18.503zm.898-.388c3.911-6.174.548-2.146 0 0m-5.013-.865c-.181-2.838-1.309-11.552-.656-3.894.135 1.31.326 2.618.656 3.894m-4.748 12.019c-1.886-2.648-3.849-4.461-4.252-1.64-4.036 1.15-14.16-5.532-8.744-6.102-1.186-3.407-9.15-7.389-6.931-9.995 3.744 2.1 9.451 6.755 10.996 4.557 4.13 3.412 7.97 8.72 5.304 8.709 2.859 5.024 5.291 1.508 2.1-1.973-3-4.929 5.38 2.149 2.07-3.405.495-3.002 1.487 3.73 2.327 4.71 4.406 8.51-3.588-6.493-3.185-.219 1.488 2.105 1.667 5.257.315 5.358m-3.9-2.7c-1.504-3.024-10.793-2.8-3.373-1.08.946.197 2.587 1.821 3.373 1.08m-3 .462c-3.373-.268-8.339-4.39-4.484-4.35-1.332-2.545-8.328-9.167-7.067-7.603 3.704 3.27 7.66 8.218 4.429 8.27 2.308 1.3 4.178 3.947 7.122 3.683m.225-.464c-2.619-3.115-6.785-2.07-1.514-.033l.75.141zm2.52-2.185c.67-3.315-6.751-9.74-2.958-3.875 2.422 3.26-1.855 1.743.684 2.232-.528-2.46-8.256-8.675-4.107-2.632-1.992-.799-10.63-9.025-5.54-3.244 1.46 1.248 5.464 3.767 1.609 1.613.857 2.523 6.438 4.28 4.545 5.276a8.84 8.84 0 0 0 5.767.63m-6.536-4.336c-.374-4.009-13.282-10.353-5.575-4.52 1.807 1.569 3.638 3.114 5.575 4.52m4.469-.929c-2.01-2.375-5.465-4.552-1.135-.851zm-2.259-.204c-5.138-4.082-1.97.213 0 0m-4.094 10.246c-2.523-.81-4.55-4.987-.667-1.411 1.044 1.809-2.27.265 1.007 1.379zm47.18-.175c-4.65-3.89 9.306-2.367 1.249-.023zm1.428-.187c5.768-3.272-4.298 2.365-1.876-2.005-2.787 1.26.449 2.477 1.876 2.005m-1.821-1.051c4.16-.032-2.085-1.21 0 0M62.49 47.562c-4.902.012 4.063-5.192-2.002-4.023 1.944-1.416 13.236-7.056 6.265-2.744-2.864 2.695 4.141-2.384-.612 1.203-2.545 3.257 13.332-6.485 6.842-.913-2.129 2.31-10.042 6.312-3.67 1.913 6.63-5.02-14.061 4.87-3.865 3.757-.875.564-1.975.6-2.958.807m5.655-3.244c2.33-1.288 8.15-6.217 2.717-2.156-.49.503-3.096 1.886-2.717 2.156m-15.706 1.04c1.358-3.398 6.35-10.874 2.344-3.652a36 36 0 0 1-2.344 3.651m1.437.083c.442-2.973 5.164-6.232 1.108-2.117-.413.682-.75 1.406-1.108 2.117m-33.066-1.6c-5.014-1.924 3.453-2.17.164.049zm38.268-1.839c2.416-4.34 2.698-2.187 0 0m-13.47-.108c-.575-3.719-4.692-3.29-5.277-8.014C36.026 32.143 35.558 23.6 36 22.044c4.47 3.921 4.166 10.622 6.567 14.697 3.097-.596 2.315 3.35 3.043 5.153m-1.485-2.501c.683-3.077-2.54-1.43 0 0m-3.859-6.147c.919-3.755-6.438-14.035-2.791-5.32 1.202 1.69 1.587 2.461 2.791 5.32m.724-.81c-1.127-7.784-.488 1.911 0 0m-3.192-2.614c.065-3.421-2.912-1.902 0 0m-1.212 7.776c-5.363-1.567 2.388-6.31 0 0m-.004-.737c-.542-3.715-2.976-.585 0 0m39.934.245c.328-3.499 4.16.524 0 0m-13.023-.512c-.487-4.825 8.151-11.917 9.383-10.4-1.849 4.196-4.331 9.586-9.383 10.4m.6-.221c-1.446-3.283 7.433-10.35 1.728-5.168-1.249 1.365-2.311 3.261-1.728 5.168m.686-.719c3.295-.371 1.09-2.8 1.464-2.68.121-2.336-3.082 2.716-1.464 2.68m2.407-.736c2.734-1.952 7.976-14.064 3.97-6.286.284 1.735-6.58 7.91-3.97 6.286m1.39-2.14c1.311-2.181-2.286 1.877 0 0m-.644-.7c3.44-1.419 5.087-8.447.79-3.084-.674.626-2.25 2.343-.79 3.085m-20.9 3.82c-.502-4.006-.961-12.9-.2-13.798-.506 4.6.762 9.199.2 13.798m-8.885-.292c-2.393-2.061 1.73-.871 0 0m10.174-1.54c-.45-2.695-.514-5.126.935-5.086-.252 1.683-1.077 3.38-.935 5.087m1.9.56c-1.308-2.246 2.075-2.204 0 0m-13.116-.395c-1.33-1.815-2.615-4.794-.504-1.506-2.217-4.307.869-.007.504 1.506m-4.927-1.86c-3.114-1.436 1.741-1.71 0 0m24.384-1.17c-1.073-2.484 3.49-1.456.121-.093zM31.29 28.16c-4.393-2.358 2.72-3.048 0 0m26.976-1.133c-1.59-3.778 5.726-8.826 2.352-2.418-.568.98-1.36 1.852-2.352 2.418m1.243-1.254c1.888-2.396 2.543-6.618.832-1.624-.134.242-2.605 3.388-.832 1.624m1.108-2.95c.443-1.852.221-2.518-.51.618zm-30.943-.03c-6.026-2.765 3.15-5.499.429.034zm-.013-.797c-.874-3.96-3.428-1.26 0 0" style="fill:#5da5f6;fill-opacity:.98431373;stroke:#fffefe;stroke-opacity:0;stroke-width:1.00002081;stroke-dasharray:none"/></svg>