<?xml version="1.0" encoding="UTF-8" standalone="no"?>
<!-- Created with Inkscape (http://www.inkscape.org/) -->

<svg
   version="1.1"
   id="svg1"
   width="616.25513"
   height="696.41626"
   viewBox="0 0 616.25513 696.41626"
   xmlns="http://www.w3.org/2000/svg"
   xmlns:svg="http://www.w3.org/2000/svg">
  <defs
     id="defs1" />
  <g
     id="g1"
     transform="translate(-2233.8528,-61.138157)">
    <path
       d="m 2386.7877,433.04312 c 1.5772,-1.51104 14.2228,-17.7318 14.2403,-18.5914 0.017,-0.8596 0.6925,-2.43642 1.5,-3.50404 0.8075,-1.06762 1.4682,-2.8831 1.4682,-4.03439 0,-4.46802 12.9587,-7.75999 18.6179,-4.72961 8.074,4.32351 1.6964,30.65575 -6.727,27.77477 -0.866,-0.29619 -10.5771,10.32634 -15.3381,16.36737 -7.602,9.6458 -52.4148,64.817 -57.7462,71.26423 -9.1385,11.05131 -9.6599,11.92804 -9.1098,15.31811 0.545,3.35849 0.2041,3.96346 -5.1649,9.16374 -6.6869,6.47679 -7.8276,10.50986 -3.8561,13.63383 2.7572,2.16885 2.8828,3.54761 0.6739,7.39642 -1.5956,2.78022 -1.5581,3.01468 1.1335,7.082 4.0783,6.1626 7.9653,8.20366 15.6348,8.20963 10.2141,0.008 12.2476,2.28739 10.4129,11.67227 -4.6057,23.55894 -25.3696,49.17754 -46.3046,57.13095 -7.0824,2.69066 -16.2263,4.82327 -16.2263,3.78439 0,-0.23707 0.7551,-3.27989 1.678,-6.76181 1.0693,-4.03407 1.6972,-10.38703 1.7308,-17.51169 0.042,-8.91746 0.3097,-10.96768 1.3219,-10.12756 0.6981,0.57935 1.3048,2.46077 1.3482,4.18092 0.043,1.72016 0.3175,2.53032 0.6091,1.80037 0.5989,-1.49953 -2.5132,-18.86758 -3.7939,-21.17281 -0.5397,-0.97148 -0.8643,0.26173 -0.9213,3.5 l -0.088,5 -2.4424,-5.37824 c -1.3433,-2.95804 -2.4424,-6.09567 -2.4424,-6.97251 0,-1.18997 -0.3948,-1.03065 -1.5567,0.62824 -1.1517,1.64422 -2.5615,2.22251 -5.4182,2.22251 -4.1149,0 -7.0251,0.78281 -7.0251,1.88968 0,0.37163 3.118,0.49951 6.9289,0.28418 l 6.929,-0.39152 1.6978,5.35883 c 1.7105,5.39899 3.2677,24.85883 1.9892,24.85883 -1.3331,0 -3.2005,-2.53322 -2.7854,-3.77842 0.3319,-0.99588 -0.1196,-1.01463 -2.1505,-0.0893 -2.7832,1.26812 -2.9136,1.55426 -4.6111,10.11773 -0.6268,3.1625 -1.3816,5.75 -1.6772,5.75 -0.2957,0 -0.2413,-1.18049 0.1209,-2.62331 1.1961,-4.76563 0.6848,-19.01998 -0.9324,-25.99297 -1.8744,-8.08261 -3.7883,-11.38372 -6.5998,-11.38372 -1.7865,0 -2.0043,-0.53255 -1.7269,-4.22252 0.3553,-4.72546 -0.8373,-5.40565 -9.9226,-5.65917 l -4.2401,-0.11831 7.6051,-7.05161 c 4.1829,-3.87838 7.8466,-6.8102 8.1417,-6.51513 0.7278,0.7278 3.3468,-4.44078 2.7442,-5.41574 -1.0997,-1.77932 -7.5738,-4.03982 -9.8988,-3.45628 -3.4479,0.86537 -5.2505,3.21108 -6.485,8.43876 l -1.0627,4.5 0.5231,-4.71011 c 0.3514,-3.16388 -0.069,-6.37784 -1.2812,-9.79033 -1.7916,-5.04457 -1.7885,-5.10762 0.4447,-8.988 2.9592,-5.14168 2.8364,-8.26681 -0.6114,-15.55456 -4.9543,-10.47252 -11.2125,-14.11421 -18.2615,-10.62663 l -4.1324,2.04455 2.8772,-3.1108 c 9.8777,-10.67975 15.488,-11.37915 23.6762,-2.95156 3.4527,3.55368 8.9996,15.43073 10.3426,22.14552 0.98,4.90001 2.7129,3.64508 2.0134,-1.45808 -0.3692,-2.69404 -0.2231,-4.5 0.3641,-4.5 0.5395,0 0.9946,0.5625 1.0113,1.25 0.017,0.70763 0.4652,0.50405 1.0324,-0.4692 1.2576,-2.15755 -3.4922,-12.2515 -5.2529,-11.16331 -0.6701,0.41416 -0.84,0.24023 -0.4236,-0.43361 1.601,-2.59048 -9.0683,-15.18388 -12.864,-15.18388 -1.9034,0 -1.8977,-0.75651 0.063,-8.35566 3.7163,-14.40337 15.4859,-33.04422 23.4709,-37.17343 3.8917,-2.01247 4.2563,-1.88468 3.6493,1.27909 -1.4992,7.81323 4.2793,29.72286 10.7522,40.76806 2.9388,5.01477 4.2586,5.49613 2.5182,0.91849 -1.0719,-2.81913 -1.0645,-2.82665 0.972,-0.9837 1.1286,1.02142 2.0521,2.46238 2.0521,3.20214 0,0.73975 0.675,1.34501 1.5,1.34501 2.5006,0 1.6942,-2.41945 -2,-6 -2.0056,-1.94385 -3.5,-4.37604 -3.5,-5.69617 0,-1.62341 -0.5803,-2.30383 -1.9648,-2.30383 -3.9519,0 -8.2894,-15.55075 -8.4372,-30.24855 -0.054,-5.3617 -0.3474,-9.7492 -0.6522,-9.75 -2.1881,-0.006 -10.7168,6.98652 -15.302,12.54546 -9.4161,11.41558 -16.6438,28.40071 -16.6438,39.11305 0,2.92629 -0.3206,3.34004 -2.5879,3.34004 -2.4841,0 -2.5608,-0.17058 -1.9115,-4.25 3.571,-22.43515 18.1819,-45.48339 34.8275,-54.93921 5.2214,-2.9661 6.075,-3.92493 8.1989,-9.20966 2.9266,-7.28199 5.1362,-9.85229 2.4957,-2.90308 -5.6371,14.83574 -4.9926,36.33349 1.6106,53.71875 1.8651,4.91037 4.3667,7.2437 4.3667,4.07291 0,-0.92232 0.8949,-1.91098 1.9887,-2.19702 1.0938,-0.28604 1.7423,-0.91891 1.441,-1.40638 -0.3013,-0.48747 -0.019,-0.88631 0.6265,-0.88631 0.8443,0 0.9768,1.61557 0.4715,5.75 l -0.7027,5.75 3.3923,-3.25697 c 1.8657,-1.79133 5.2875,-3.81633 7.6039,-4.5 3.5959,-1.0613 5.8042,-3.12235 15.1047,-14.09745 m -16.4313,143.51908 c 14.32,-7.50281 34.069,-32.82955 31.9981,-41.03551 -0.6129,-2.42883 -0.8537,-2.17888 -3.1596,3.28042 -1.3728,3.25027 -3.2219,7.07527 -4.1091,8.5 -3.5417,5.68769 -10.657,15.09042 -11.4194,15.09042 -0.4453,0 -2.4535,1.81941 -4.4625,4.04313 -3.9155,4.33408 -12.6786,9.92275 -18.6479,11.89279 -2.0164,0.66549 -3.9626,1.68944 -4.3248,2.27544 -1.2682,2.05211 7.013,-0.32039 14.1252,-4.04669 z m 5.8512,-34.40609 c -0.7213,-4.53278 -2.022,-10.50059 -2.8905,-13.26179 -0.8686,-2.7612 -2.1345,-8.84006 -2.8133,-13.50858 -1.1248,-7.7364 -1.3473,-8.28252 -2.5119,-6.16591 -0.9833,1.78713 -1.0272,3.40029 -0.1903,7 0.5981,2.57274 1.9699,8.5027 3.0486,13.1777 1.0787,4.675 2.231,9.43976 2.5608,10.58836 0.4874,1.69763 0.1835,2.05771 -1.6242,1.92452 -2.7062,-0.19936 -6.5419,-4.51354 -4.9098,-5.52223 1.4236,-0.8798 -5.1704,-6.74053 -8.5335,-7.58461 -1.3649,-0.34257 -2.4953,-1.36157 -2.512,-2.26445 -0.027,-1.443 -0.1551,-1.42744 -1.061,0.12859 -1.5745,2.7045 -0.1707,5.72982 2.6588,5.72982 2.9584,0 5.896,2.77991 7.8307,7.41053 0.7944,1.90115 2.7183,4.11545 4.2755,4.92067 1.5571,0.80522 3.6873,2.41011 4.7337,3.56642 3.0645,3.38625 3.3235,2.566 1.9384,-6.13904 z m -6.767,-3.53239 c -1.7219,-1.64929 -1.7432,-1.62798 -0.4783,0.47833 0.7281,1.21249 1.5391,1.98927 1.8022,1.72619 0.2631,-0.26308 -0.3327,-1.25512 -1.3239,-2.20452 z m -37.7787,-8.42619 c 0.66,-0.66 1.1695,-1.8975 1.1323,-2.75 -0.045,-1.04162 -0.4166,-0.82777 -1.1314,0.65198 -0.585,1.21109 -1.7921,2.39639 -2.6823,2.634 -1.3821,0.36888 -1.3921,0.44897 -0.069,0.54802 0.8525,0.0638 2.09,-0.424 2.75,-1.084 z m 15.9762,-3.41498 c 1.8019,-2.47015 2.9699,-4.98682 2.5955,-5.59261 -0.4258,-0.68892 -0.2184,-0.8157 0.5537,-0.33851 0.7367,0.45529 1.7596,0.0136 2.537,-1.09549 0.7164,-1.02213 6.1082,-7.9024 11.9818,-15.2895 14.9885,-18.85082 14.3595,-15.61054 6.2524,-32.20736 -6.3814,-13.06385 -7.9392,-13.88416 -13.5037,-7.1105 -6.824,8.30701 -17.4862,20.6992 -23.2297,26.99895 -5.6982,6.25 -5.6982,6.25 -12.1757,6.25 -5.3433,0 -6.8111,0.37253 -8.3825,2.12748 -1.905,2.12748 -1.905,2.12748 7.7715,1.41218 l 9.6766,-0.7153 3.5201,4.83782 c 3.5995,4.94698 8.0073,18.1825 6.9623,20.90591 -0.3022,0.78755 -1.8248,1.43191 -3.3835,1.43191 -3.7809,0 -4.7174,1.75331 -1.219,2.28211 5.9963,0.90634 6.7535,0.61253 10.0432,-3.89709 z m -3.9197,-7.12359 c -0.9039,-3.16879 -1.5039,-6.88643 -1.3333,-8.26143 0.1705,-1.375 0.3476,-3.08906 0.3934,-3.80902 0.046,-0.71996 0.5334,-1.0309 1.0834,-0.69098 1.5746,0.97318 1.1621,-0.73413 -0.9526,-3.94207 -1.0667,-1.61814 -3.6512,-4.0052 -5.7434,-5.30459 -3.6007,-2.23623 -3.6567,-2.34624 -1.0478,-2.05793 2.8714,0.31731 2.9383,0.2477 21.4866,-22.34001 4.6168,-5.62225 4.6418,-5.63611 6.3087,-3.5 2.8235,3.61819 5.6132,9.87457 6.9758,15.6446 0.7144,3.025 1.4669,5.00064 1.6723,4.39031 0.2054,-0.61033 -0.035,-2.92761 -0.5342,-5.14951 -1.2838,-5.71406 0.2917,-7.7844 2.288,-3.00655 2.3983,5.7399 1.768,9.76575 -1.5289,9.76575 -1.1161,0 -3.5307,2.30238 -6.0304,5.75 -9.6869,13.36054 -16.4296,22.2104 -16.9367,22.22953 -0.2984,0.0113 -1.1004,-2.06507 -1.7822,-4.61406 -0.6817,-2.54898 -1.4626,-4.41139 -1.7353,-4.13868 -0.2728,0.27271 -0.033,1.71254 0.5321,3.19962 1.3888,3.65273 1.2951,7.82752 -0.222,9.89389 -1.0873,1.48095 -1.4639,0.95265 -2.8935,-4.05887 z m 11.819,-19.61226 c -0.5342,-3.89726 -0.2888,-4.64546 2.3536,-7.17709 3.512,-3.36466 4.828,-2.61913 3.2058,1.81608 -1.0639,2.90875 -1.036,3.02866 0.2952,1.27071 2.0736,-2.73839 1.8246,-6.83817 -0.6027,-9.92401 -2.3365,-2.97036 -4.9274,-3.47975 -4.9274,-0.96875 0,0.91636 -0.6727,2.37886 -1.4948,3.25 -5.2177,5.5289 -6.8215,8.27153 -5.4194,9.26772 1.1471,0.81506 1.1014,0.90532 -0.2419,0.47794 -1.7522,-0.5575 -5.5543,2.78114 -4.1533,3.64703 0.4515,0.27904 2.5862,-0.35129 4.7437,-1.40073 2.1575,-1.04944 4.0317,-1.90807 4.1648,-1.90807 0.1331,0 0.5385,1.35 0.9009,3 1.0013,4.55886 1.8516,3.58175 1.1755,-1.35083 z m 8.706,-20.20111 c 0.3415,-0.88992 0.1739,-1.29132 -0.393,-0.94098 -0.5437,0.33602 -0.9885,1.0344 -0.9885,1.55194 0,1.43843 0.7167,1.12146 1.3815,-0.61096 z m 2.1442,-8.3984 c -1.6941,-3.27597 -1.9438,-5.04966 -0.7109,-5.04966 0.708,0 4.1852,6.25929 4.1852,7.53393 0,1.56874 -2.1872,0.005 -3.4743,-2.48427 z m 39.5239,51.42466 c 4.1292,-2.13526 3.7902,-2.31143 -3.3451,-1.73868 -9.6267,0.77274 -20.3816,-5.61667 -22.2965,-13.24614 -0.3409,-1.35821 -1.1304,-2.14954 -1.8638,-1.86811 -0.7952,0.30514 -1.5675,-0.75112 -2.0595,-2.81658 -0.6474,-2.71797 -0.8595,-2.92068 -1.1941,-1.14156 -0.5217,2.7729 4.668,13.02917 8.3649,16.53159 5.8441,5.53664 16.1533,7.50672 22.3941,4.27948 z m -83.5496,-30.37969 c -3.411,-0.76034 -3.7764,-4.02675 -0.8164,-7.29752 0.9006,-0.99515 1.4061,-2.04076 1.1233,-2.32357 -0.2829,-0.28281 -1.6705,1.23308 -3.0838,3.36864 -2.954,4.46388 -1.6628,7.26832 3.2412,7.0395 2.3494,-0.10962 2.3153,-0.16744 -0.4643,-0.78705 z m 15.9312,-10.79622 c 1.4193,-0.79425 -1.5686,-18.36322 -5.0252,-29.54841 -0.9582,-3.10057 1.0511,-1.86446 3.5551,2.18713 1.3383,2.16542 2.8641,3.6709 3.3906,3.34549 0.5265,-0.3254 0.6378,-0.0748 0.2474,0.55699 -0.7409,1.19879 4.2833,8.6113 5.2092,7.68543 0.2911,-0.29117 1.3534,0.21632 2.3605,1.12776 1.7031,1.54122 1.8312,1.54138 1.8312,0.002 0,-0.98832 0.8056,-1.65499 2,-1.65499 1.1,0 2,-0.48576 2,-1.07946 0,-0.66135 -1.0817,-0.84187 -2.7928,-0.46606 -2.5748,0.56554 -3.2031,0.0255 -8.0541,-6.92232 -2.8938,-4.14463 -7.0371,-9.58727 -9.2073,-12.09475 -2.1702,-2.50748 -3.9458,-4.98168 -3.9458,-5.49823 0,-0.51655 -0.4803,-0.93918 -1.0674,-0.93918 -0.6068,0 -0.7977,0.84983 -0.4424,1.96927 0.3438,1.08309 0.9958,5.02059 1.4488,8.75 0.4531,3.7294 1.9938,11.05573 3.4237,16.28073 2.8369,10.3665 3.2522,14.98508 1.5045,16.73278 -0.6347,0.63466 -0.8105,1.93188 -0.3998,2.95 0.6757,1.67544 0.7981,1.64834 1.5689,-0.34738 0.4598,-1.19052 1.5375,-2.55717 2.3949,-3.03699 z m 49.592,-14.35854 c -1.3745,-7.49958 -4.7031,-14.3282 -7.8699,-16.1455 -4.3098,-2.47313 -7.6364,-2.90256 -9.7416,-1.2575 -1.8099,1.41421 -1.771,1.46203 0.7292,0.89744 1.5113,-0.34127 2.9383,-0.11522 3.3361,0.52847 0.8933,1.44542 -1.2487,4.06208 -2.8288,3.45571 -0.6631,-0.25444 -2.0512,0.1557 -3.0847,0.91143 -1.7777,1.29987 -1.7266,1.41234 0.9472,2.08342 1.5545,0.39015 3.7507,1.35676 4.8803,2.14802 2.002,1.40219 1.985,1.43864 -0.6685,1.43864 -3.2671,0 -3.8397,3.68677 -0.9725,6.26153 2.9042,2.60802 7.2072,1.78628 6.6059,-1.26153 -0.3782,-1.91661 0.048,-2.7419 1.8254,-3.5366 1.2753,-0.57013 2.2062,-1.58263 2.0687,-2.25 -0.5112,-2.48095 0.9002,-1.09812 2.301,2.25448 0.7969,1.90734 1.449,5.37234 1.449,7.7 0,2.84969 0.3299,3.90216 1.0101,3.22199 0.6775,-0.67745 0.6818,-2.80167 0.013,-6.45 z m -10.0232,-5.78488 c 0,-0.46476 0.9376,-1.69358 2.0837,-2.73072 2.0784,-1.88097 2.0805,-1.87885 0.8394,0.84501 -1.1788,2.5872 -2.9231,3.71247 -2.9231,1.88571 z m -33,9.84501 c 0.8543,-1.5963 0.7605,-2 -0.4648,-2 -0.8444,0 -1.5352,0.18819 -1.5352,0.41821 0,0.23002 -0.2732,1.13002 -0.607,2 -0.8823,2.2992 1.3438,1.94209 2.607,-0.41821 z m 51.5627,-15.67115 c 1.5401,-2.01913 2.2895,-3.35552 1.6653,-2.96976 -1.2802,0.79122 -5.6095,6.64091 -4.9148,6.64091 0.2472,0 1.7095,-1.65202 3.2495,-3.67115 z m -4.6709,-7.55191 c 4.3971,-5.76635 4.2226,-6.94433 -1.3914,-9.39103 -2.396,-1.04421 -2.5823,-1.31551 -0.9247,-1.34677 1.1416,-0.0215 3.137,1.09062 4.4342,2.47143 l 2.3586,2.51057 2.8157,-2.69766 c 3.4572,-3.31218 3.4824,-3.97632 0.2643,-6.95881 -3.0822,-2.85645 -1.7274,-3.15848 1.7827,-0.39743 1.3755,1.08199 2.8107,1.65752 3.1892,1.27896 1.108,-1.10791 2.5477,1.98226 2.5643,5.5038 0.01,1.7875 0.4049,3.25 0.881,3.25 0.8719,0 -7e-4,-6.03455 -1.3315,-9.20857 -0.4989,-1.1897 -13.1397,-1.79143 -13.9512,-1.79143 -1.4348,0 -14.583,14.45725 -14.583,16.03492 0,0.50984 1.0919,1.20102 2.4264,1.53596 1.3345,0.33495 3.2042,1.46852 4.155,2.51906 2.4495,2.70665 2.863,2.51922 7.3104,-3.313 z m -68.8918,162.33969 c 0,-1.21263 3.6371,-2.06859 4.6657,-1.09802 0.4588,0.43299 1.7343,1.00374 2.8343,1.26832 1.1,0.26459 -0.1375,0.53327 -2.75,0.59707 -2.6125,0.0638 -4.75,-0.28152 -4.75,-0.76737 z m 14.75,0.22109 c 0.6875,-0.27741 1.8125,-0.27741 2.5,0 0.6875,0.27741 0.125,0.50438 -1.25,0.50438 -1.375,0 -1.9375,-0.22697 -1.25,-0.50438 z m 0.8977,-9.09875 c -0.2587,-0.41856 0.1647,-1.62957 0.941,-2.69113 1.3436,-1.8375 1.4113,-1.80099 1.4113,0.76103 0,2.53418 -1.3131,3.61159 -2.3523,1.9301 z m 10.4312,-50.8223 c 0.048,-1.16495 0.285,-1.4019 0.6042,-0.60417 0.2889,0.72187 0.2533,1.58437 -0.079,1.91667 -0.3322,0.33229 -0.5686,-0.25834 -0.5252,-1.3125 z m 70,-19 c 0.048,-1.16495 0.285,-1.4019 0.6042,-0.60417 0.2889,0.72187 0.2533,1.58437 -0.079,1.91667 -0.3322,0.33229 -0.5686,-0.25834 -0.5252,-1.3125 z m 0.6715,-4.94208 c -0.3122,-1.63322 -0.2263,-3.19564 0.191,-3.47204 0.4173,-0.2764 1.0156,-1.17755 1.3297,-2.00255 0.314,-0.825 0.5749,-0.15 0.5796,1.5 0.014,4.95784 -1.4005,7.6353 -2.1003,3.97459 z m -106.5925,-0.47459 c 0,-1.375 0.2269,-1.9375 0.5044,-1.25 0.2774,0.6875 0.2774,1.8125 0,2.5 -0.2775,0.6875 -0.5044,0.125 -0.5044,-1.25 z m 104.5733,0.0802 c -0.435,-1.66335 -0.3048,-2.05378 0.4372,-1.31171 0.5811,0.5811 0.8598,1.64682 0.6193,2.36826 -0.2496,0.74894 -0.7029,0.29565 -1.0565,-1.05655 z m -2.6523,-2.66349 c 0.048,-1.16495 0.285,-1.4019 0.6042,-0.60417 0.2889,0.72187 0.2533,1.58437 -0.079,1.91667 -0.3322,0.33229 -0.5686,-0.25834 -0.5252,-1.3125 z m -1.0789,-5.91667 c 1.2917,-1.375 2.5736,-2.5 2.8486,-2.5 0.275,0 -0.5569,1.125 -1.8486,2.5 -1.2918,1.375 -2.5736,2.5 -2.8486,2.5 -0.275,0 0.5568,-1.125 1.8486,-2.5 z m 8.1579,-0.5 c 0,-1.375 0.2269,-1.9375 0.5044,-1.25 0.2774,0.6875 0.2774,1.8125 0,2.5 -0.2775,0.6875 -0.5044,0.125 -0.5044,-1.25 z m -2.7662,-6.18646 c 1.4372,-2.02755 3.0168,-5.40255 3.5103,-7.5 0.8378,-3.56157 0.9017,-3.38406 0.9671,2.68646 0.055,5.13626 -0.1579,6.10768 -1.0163,4.63007 -1.0222,-1.75944 -1.2338,-1.70036 -3.5803,1 -2.4069,2.76976 -2.4027,2.74127 0.1192,-0.81653 z m -96.6562,-38.41131 c -0.3287,-0.32877 -0.3273,-1.30259 0,-2.16404 0.367,-0.95622 0.1895,-1.31193 -0.4556,-0.91325 -0.5811,0.35917 -1.6701,-0.12951 -2.4199,-1.08595 -1.2597,-1.60677 -1.216,-1.62494 0.5739,-0.23899 1.7611,1.36362 1.8776,1.34088 1.2814,-0.25 -1.0568,-2.81975 -0.076,-2.02118 2.1489,1.75 1.8412,3.12059 1.0682,5.10241 -1.132,2.90223 z"
       style="display:none;fill:#050201"
       id="path1" />
    <path
       d="m 2747.4709,482.95907 c 0.6388,1.66475 18.5463,23.85185 20.4946,25.39249 0.8694,0.6875 3.0633,1.25 4.8754,1.25 2.736,0 3.7436,0.67834 5.9418,4 1.4559,2.2 3.0107,4 3.4551,4 1.7587,0 1.8519,-1.96743 0.2272,-4.79829 -1.2658,-2.20542 -1.4552,-3.54109 -0.7321,-5.16162 0.9755,-2.18627 0.9755,-2.18627 3.611,-0.11318 3.4611,2.72249 3.2461,2.83492 5.7614,-3.01225 4.8764,-11.33542 6.3944,-29.94483 3.5413,-43.41429 -1.8362,-8.66875 -1.7934,-9.01612 0.4808,-3.90636 1.3772,3.09434 3.1458,4.84106 7.2431,7.15345 15.8695,8.9562 28.3658,27.15594 34.3067,49.96478 2.0886,8.01853 1.9774,10.22881 -0.4824,9.58557 -1.083,-0.28322 -3.4455,-0.0223 -5.25,0.57988 -2.816,0.93972 -3.0329,0.90406 -1.5308,-0.25167 2.3573,-1.81384 2.2023,-2.62695 -0.5,-2.62139 -4.2841,0.009 -12.2571,9.51248 -15.361,18.30998 -0.7929,2.24735 -2.1454,4.86369 -3.0055,5.81408 -1.5987,1.76655 -1.1206,5.87131 0.6839,5.87131 0.5129,0 0.9326,1.125 0.9326,2.5 0,4.41043 1.6223,2.67911 3.3658,-3.59201 5.116,-18.4014 15.7219,-28.51406 24.9499,-23.78976 2.8597,1.464 9.6843,8.00705 9.6843,9.28472 0,0.54998 -0.5381,0.45899 -1.2,-0.20295 -4.6392,-4.63918 -15.6132,1.27419 -19.5941,10.55836 -3.5974,8.38984 -3.7865,11.76289 -0.8549,15.24695 2.8332,3.3671 2.6206,6.06154 -0.4156,5.26755 -1.586,-0.41475 -1.9297,0.0114 -1.9036,2.36051 0.031,2.796 0.071,2.81735 1.6345,0.86663 1.6027,-2 1.6027,-2 0.7779,0 -0.9946,2.41147 -1.0357,5.88511 -0.1716,14.5 l 0.652,6.5 -1.5078,-6.5 c -3.1045,-13.38281 -5.7071,-15.55926 -13.1668,-11.01096 -4.7294,2.88353 -4.5316,3.26384 7.4604,14.347 l 7.2104,6.66396 h -5.8054 c -7.0432,0 -9.6947,2.0862 -8.6569,6.81119 0.5575,2.53833 0.3116,3.0297 -1.7792,3.55445 -3.5038,0.87938 -5.5191,6.87651 -7.2703,21.63436 -0.4242,3.575 -0.9556,5.67182 -1.1809,4.65961 -0.3444,-1.5475 -1.2093,-1.78622 -5.4342,-1.5 l -5.0247,0.34039 0.6371,-7 c 0.7338,-8.06229 2.9005,-16.9598 4.6405,-19.05641 0.7673,-0.92452 3.4013,-1.51158 7.3256,-1.63268 l 6.1276,-0.18908 -5.8575,-0.36403 c -4.7895,-0.29765 -5.9504,-0.719 -6.3667,-2.31091 -0.6386,-2.44211 -2.2758,-2.55601 -2.2758,-0.15833 0,0.9837 -0.9301,3.5712 -2.0668,5.75 -1.2028,2.30558 -1.9907,3.12545 -1.8848,1.96144 0.3468,-3.81363 -0.035,-5.91489 -0.8997,-4.95 -2.2607,2.52272 -4.4844,14.7968 -4.9326,27.22571 -0.5575,15.45915 0.5155,14.81821 -12.774,7.63012 -10.989,-5.94372 -17.2394,-11.70468 -15.3336,-14.13286 1.2405,-1.58064 1.2159,-1.63595 -0.2268,-0.50985 -2.1339,1.66558 -8.309,-6.17725 -15.053,-19.11848 -5.0339,-9.65942 -6.1328,-9.74816 -2.8584,-0.2308 6.051,17.58746 24.2303,36.15797 39.3324,40.1787 8.3466,2.22219 8.4261,2.18293 7.9208,-3.91035 -0.2425,-2.92479 0.1494,-7.98729 0.8709,-11.25 l 1.3118,-5.93219 0.6667,7.62324 c 0.6993,7.99547 2.5638,17.16053 4.0944,20.12676 1.2544,2.43083 -2.0627,2.32699 -10.812,-0.33844 -23.4724,-7.15074 -42.0686,-27.92108 -50.9544,-56.91156 -2.9662,-9.67761 0.055,-14.7479 8.0836,-13.56523 2.2085,0.32534 5.5607,0.14331 7.4492,-0.40452 4.8306,-1.40121 4.7999,-0.7484 -0.1375,2.92598 -4.3734,3.25463 -8.373,3.64612 -14.3414,1.40374 -1.6834,-0.63246 -1.7771,-0.51558 -0.6746,0.8417 0.7041,0.86687 3.3425,2.0954 5.863,2.73007 9.5993,2.41715 19.826,-4.14449 25.3961,-16.29468 2.7658,-6.03311 2.7813,-6.17 0.9149,-8.08151 -2.2705,-2.32525 -3.5824,-1.53433 -1.9065,1.14932 1.3587,2.17564 -2.1352,10.26224 -5.9062,13.6699 -2.0422,1.84532 -2.068,1.83979 -1.6459,-0.35203 0.2359,-1.22474 0.8305,-2.74338 1.3215,-3.37477 2.1978,-2.82638 3.042,-7.56096 1.8915,-10.60889 -0.9414,-2.49425 -0.8532,-3.65348 0.4796,-6.298 3.2831,-6.51453 3.0869,-7.32933 -3.3735,-14.01422 -5.5093,-5.70071 -5.9717,-6.51999 -5.5315,-9.80205 0.5462,-4.07181 0.491,-4.15612 -15.8524,-24.23322 -8.7537,-10.75346 -10.3465,-12.26692 -12.1919,-11.58429 -1.1674,0.43187 -48.984,-66.02293 -52.4163,-66.07033 -8.0431,-0.11106 -12.118,-21.18851 -5.1712,-26.74756 3.6579,-2.92714 10.5419,-3.07869 15.0478,-0.33128 2.9485,1.79785 6.1545,8.55128 5.4291,11.43674 m 83.2121,194.05738 c 2.2874,-1.95126 5.5381,-5.88876 7.2238,-8.75 2.1384,-3.62981 3.8008,-5.3083 5.5,-5.55308 1.3393,-0.19294 2.7658,-0.86794 3.1699,-1.5 0.9733,-1.52245 0.9719,-5.64918 0,-5.64918 -1.827,0 -11.3356,9.44584 -14.2082,14.11435 -3.5422,5.75688 -5.1666,5.8437 -2.7287,0.14584 2.0439,-4.77705 3.4312,-12.40523 4.2754,-23.51019 0.808,-10.62848 -0.9773,-12.15614 -2.006,-1.71648 -0.3812,3.86844 -1.3661,9.29989 -2.1887,12.06989 -1.2329,4.15178 -4.2955,20.41384 -4.3592,23.14659 -0.032,1.3863 1.1424,0.76901 5.3236,-2.79774 z m 11.659,-16.84527 c 0,-0.21616 0.675,-0.65204 1.5,-0.96862 0.825,-0.31658 1.5,-0.13972 1.5,0.39301 0,0.53274 -0.675,0.96862 -1.5,0.96862 -0.825,0 -1.5,-0.17686 -1.5,-0.39301 z m 23,0.39367 c 1.082,-0.6988 0.3854,-0.9035 -2.5,-0.73469 -3.8889,0.22753 -3.9916,0.15071 -3.6954,-2.76597 0.8985,-8.84647 8.055,-23.71661 11.989,-24.91096 0.9385,-0.28493 5.222,-0.17254 9.5189,0.24976 4.2969,0.4223 8.017,0.43712 8.2668,0.0329 0.8459,-1.36875 -4.0042,-3.87173 -7.5023,-3.87173 -4.1679,0 -15.077,-3.09731 -15.077,-4.28065 0,-0.46056 0.45,-0.55927 1,-0.21935 2.5169,1.55556 0.3843,-1.64538 -5.9962,-9 -3.8173,-4.4 -9.7672,-11.50025 -13.2222,-15.77833 -7.9792,-9.88035 -9.7833,-10.03256 -14.4799,-1.22167 -3.0233,5.67182 -8.3017,19.19682 -8.3017,21.27162 0,0.52628 2.8125,4.48492 6.25,8.79696 11.6341,14.59406 19.7501,24.91411 22.949,29.18142 3.2984,4.40002 7.2021,5.57486 10.801,3.25066 z m -12.5049,-10.00839 c -1.3915,-2.20425 -6.9805,-9.56158 -12.42,-16.34961 l -9.89,-12.34189 1.788,-6.44783 c 1.7625,-6.35617 6.2365,-16.2464 7.7811,-17.20104 0.7259,-0.44864 11.1091,11.37753 21.0676,23.99548 3.9175,4.96372 3.9965,5.2071 2.2128,6.8213 -2.6024,2.35513 -6.2321,11.22086 -6.3964,15.62378 -0.076,2.03605 -0.5321,3.46176 -1.0136,3.16824 -0.4814,-0.29351 -0.6843,1.10275 -0.4508,3.10282 0.5308,4.54601 0.4153,4.53001 -2.6787,-0.37125 z m 4.993,-19.57377 c -0.7752,-0.59482 -1.866,-2.28232 -2.4241,-3.75 -0.7518,-1.97748 -1.7331,-2.68492 -3.7893,-2.73189 -2.6959,-0.0616 -2.7095,-0.0895 -0.481,-0.98396 2.6472,-1.06241 1.7318,-4.06587 -1.8183,-5.9658 -1.0883,-0.58244 -2.63,-2.61775 -3.426,-4.52292 -1.6805,-4.02185 -3.0052,-4.36696 -4.6597,-1.21393 -1.1542,2.19944 -1.1353,2.2097 0.8412,0.45683 1.8347,-1.62708 2.0797,-1.64266 2.6455,-0.16821 1.3107,3.41559 0.6416,5.41874 -2.0342,6.09034 -2.5363,0.63656 -2.5706,0.72912 -0.75,2.02325 4.4686,3.17652 13.4034,12.91684 12.9448,14.11185 -0.312,0.8131 0.4118,0.63253 1.9307,-0.48168 2.0156,-1.47856 2.1896,-1.96673 1.0204,-2.86388 z m -13.4199,-4.75028 c -1.2993,-1.29932 -1.4075,0.55518 -0.3182,5.45678 l 0.75,3.375 0.3182,-3.88178 c 0.175,-2.13498 -0.1625,-4.36248 -0.75,-4.95 z m -16.4106,-7.41313 c -0.8888,-1.43824 2.1961,-11.25509 3.5369,-11.25509 1.0748,0 0.2524,4.80182 -1.6209,9.46414 -0.758,1.88663 -1.4545,2.53767 -1.916,1.79095 z m 43.4404,36.94425 c -0.6039,-0.2013 -1.098,-1.07851 -1.098,-1.94934 0,-0.87083 -0.2699,-1.31349 -0.5997,-0.98367 -0.3298,0.32982 -0.01,2.31732 0.7199,4.41667 1.1889,3.43914 1.3569,3.57275 1.6977,1.34968 0.208,-1.35703 -0.116,-2.63203 -0.7199,-2.83334 z m -1.4149,-6.38684 c -0.3192,-0.79773 -0.5562,-0.56078 -0.6042,0.60417 -0.043,1.05416 0.193,1.64479 0.5252,1.3125 0.3323,-0.3323 0.3679,-1.1948 0.079,-1.91667 z m 14.7099,-27.39429 c 1.0941,-2.85121 0.6364,-3.83938 -0.8612,-1.85934 -0.8075,1.06762 -1.4825,2.27863 -1.5,2.69113 -0.059,1.39742 1.7504,0.75992 2.3612,-0.83179 z m -16.852,-14.16746 c 0.029,-4.84781 0.7987,-8.72395 2.7289,-13.75075 1.4784,-3.85 2.717,-9.025 2.7525,-11.5 0.036,-2.475 0.456,-6.525 0.9344,-9 0.4783,-2.475 0.7332,-4.63795 0.5665,-4.80656 -0.6221,-0.62923 -10.7174,10.76215 -12.3814,13.97109 -5.6338,10.8643 -8.6007,13.03481 -13.1847,9.64571 -2.9181,-2.15743 -3.0255,-4.66094 -0.1905,-4.43905 4.71,0.36864 14.2773,-31.41633 12.9639,-43.06917 -0.5889,-5.22465 -0.4391,-5.23845 5.5289,-0.50893 9.3864,7.43844 19.4298,23.95088 21.8702,35.95691 0.6987,3.4375 1.6304,6.25 2.0704,6.25 0.4399,0 0.7999,0.975 0.7999,2.16667 0,1.19166 0.2224,1.94426 0.4942,1.67243 0.2718,-0.27183 0.091,-3.70149 -0.4007,-7.62147 -1.5432,-12.29035 -9.3943,-27.28988 -19.8202,-37.8666 -9.7888,-9.93034 -12.2136,-9.60479 -12.2825,1.64897 -0.022,3.575 -0.4913,8.525 -1.0432,11 -2.047,9.17991 -5.2491,18.9317 -6.0533,18.43471 -0.4564,-0.28208 -2.4484,2.70117 -4.4266,6.62945 l -3.5968,7.14232 2.5787,3.89676 c 2.84,4.2915 3.6834,4.64636 5.5881,2.35125 0.7055,-0.85003 1.8285,-1.33606 2.4956,-1.08008 2.2293,0.85548 12.1873,-12.39072 10.8935,-14.49076 -0.2088,-0.339 0.5695,-1.464 1.7297,-2.5 2.072,-1.85035 2.0996,-1.8483 1.5637,0.11635 -0.8006,2.93479 -2.3898,10.75998 -4.3156,21.25 -0.934,5.0875 -2.1127,9.25 -2.6195,9.25 -0.5067,0 0.04,1.35 1.2149,3 3.0551,4.29051 3.495,3.82477 3.541,-3.74925 z m -46.8579,-4.43825 c -0.3192,-0.79773 -0.5562,-0.56078 -0.6042,0.60417 -0.043,1.05416 0.193,1.64479 0.5252,1.3125 0.3323,-0.3323 0.3679,-1.1948 0.079,-1.91667 z m -4.8127,-6.68385 c 0.7023,-2.74038 2.3161,-5.79963 3.689,-6.99338 1.3423,-1.16713 2.4406,-2.53488 2.4406,-3.03945 0,-1.28333 8.1542,-5.09582 10.899,-5.09582 4.2757,0 1.5198,-2.49505 -3.0919,-2.79927 -7.5703,-0.49939 -13.9786,6.79536 -15.736,17.9127 -0.9974,6.3094 0.1836,6.31939 1.7993,0.0152 z m 13.6925,-1.28331 c 2.8493,-3.06035 1.7335,-3.08388 -1.8129,-0.0382 -1.519,1.30452 -2.369,3.19291 -1.4371,3.19291 0.1721,0 1.6346,-1.4196 3.25,-3.15466 z m 5.8845,-5.84534 c 1.6348,0 1.3777,-0.51227 -1.4852,-2.95936 -4.1948,-3.58555 -6.0418,-3.73646 -9.4847,-0.77497 -2.634,2.26568 -2.634,2.26568 -0.5036,4.97401 2.1303,2.70832 2.1303,2.70832 5.8134,0.73432 2.0257,-1.0857 4.5727,-1.974 5.6601,-1.974 z m -25.3348,-0.75 c -2.3122,-4.22483 -8.9764,-12.27936 -9.4824,-11.46068 -0.3061,0.4952 1.06,2.65768 3.0356,4.80552 1.9757,2.14784 4.2609,4.91766 5.0782,6.15516 1.7545,2.65654 2.7474,3.01927 1.3686,0.5 z m 7.2104,-7.64934 c 0.2953,-0.76964 2.1435,-1.92954 4.107,-2.57756 1.9635,-0.64801 3.57,-1.49078 3.57,-1.87281 0,-1.59698 -6.2794,-8.15151 -7.8228,-8.1656 -1.2154,-0.0111 -1.3324,-0.23429 -0.4248,-0.81055 0.9143,-0.58048 0.4417,-1.57203 -1.75,-3.67178 -1.6513,-1.5821 -3.0024,-3.46735 -3.0024,-4.18945 0,-0.7221 -0.3637,-1.31291 -0.8082,-1.31291 -0.4445,0 -2.132,-1.8234 -3.75,-4.052 -15.4161,-21.23377 -18.1432,-23.43966 -23.5575,-19.05541 -2.45,1.98388 -1.8085,5.04542 1.8722,8.93539 2.603,2.75097 3.3789,5.42098 2.7597,9.49688 -0.4628,3.04631 -0.3521,3.76958 0.4094,2.67514 0.5741,-0.825 1.0506,-2.3426 1.0591,-3.37245 0.012,-1.43566 0.3228,-1.61725 1.3334,-0.77847 0.9656,0.80132 1.835,0.73635 3.25,-0.24286 2.6852,-1.85809 6.4319,-2.92521 6.4319,-1.8319 0,0.50001 -1.8,1.4484 -4,2.10753 -2.2,0.65914 -3.9816,1.51787 -3.959,1.90829 0.094,1.63101 7.8434,9.20581 8.4364,8.24647 0.3523,-0.57014 1.1766,-1.0266 1.8316,-1.01437 0.655,0.0122 0.1582,0.81695 -1.1041,1.78828 -2.7313,2.10176 -5.1821,8.61671 -4.3563,11.5804 0.448,1.60797 0.7248,1.15869 1.165,-1.89092 0.9765,-6.76463 2.3706,-8.36943 4.4774,-5.15409 0.9564,1.45975 2.3201,2.65409 3.0304,2.65409 0.7772,0 1.0932,0.75787 0.7935,1.9036 -0.3435,1.31361 0.1508,2.10942 1.5947,2.56772 1.1509,0.36527 2.6029,1.61781 3.2267,2.78342 2.428,4.53674 4.273,5.72694 5.1867,3.34592 z m -3.888,-5.49552 c 0.372,-0.60191 1.6056,-1.5917 2.7413,-2.19953 1.4796,-0.79183 1.8733,-0.79488 1.3887,-0.0108 -0.372,0.60192 -1.6057,1.59171 -2.7414,2.19954 -1.4795,0.79183 -1.8732,0.79488 -1.3886,0.0108 z m -0.6225,-8.78825 c 0.7219,-0.28888 1.5844,-0.25335 1.9166,0.0789 0.3323,0.33229 -0.2583,0.56864 -1.3125,0.52522 -1.1649,-0.048 -1.4019,-0.28494 -0.6041,-0.60416 z m -26.8125,-24.14251 c 0,-1.20863 2.4529,-2.17438 5.5227,-2.17438 2.9713,0 1.3679,0.95483 1.1318,1.54916 -0.5513,1.38772 -3.167,0.39486 -4.4045,0.81738 -1.3048,0.44549 -2.25,0.36476 -2.25,-0.19216 z m 4.0989,21.07562 c -2.7078,-3.7125 -6.5566,-8.55 -8.5528,-10.75 -3.5618,-3.92531 -3.6008,-3.94016 -2.0856,-0.79521 0.8493,1.76264 4.243,6.24526 7.5418,9.96138 3.2987,3.71613 5.9977,7.11147 5.9977,7.54521 0,0.43374 0.455,0.78862 1.0111,0.78862 0.5561,0 -1.2043,-3.0375 -3.9122,-6.75 z m -29.2267,-58.99954 c -2.0862,4.08932 -0.087,24.44729 -1.8901,27.49667 m -5.9968,-16.74713 m 6.5147,-20.32025 c 1.1,-0.32578 5.15,-1.47143 9,-2.54589 z m 104.905,236.07025 c -1.905,-2.25 -1.905,-2.25 0.345,-0.34501 2.1144,1.79021 2.7052,2.59501 1.905,2.59501 -0.1898,0 -1.2023,-1.0125 -2.25,-2.25 z m -15.405,-5.25 c -0.7068,-0.85158 -1.06,-1.77333 -0.785,-2.04833 0.275,-0.275 1.0782,0.19675 1.785,1.04833 0.7067,0.85158 1.06,1.77333 0.785,2.04833 -0.275,0.275 -1.0783,-0.19675 -1.785,-1.04833 z m -0.1875,-5.18311 c 0.7219,-0.28888 1.5844,-0.25335 1.9166,0.0789 0.3323,0.33229 -0.2583,0.56864 -1.3125,0.52522 -1.1649,-0.048 -1.4019,-0.28494 -0.6041,-0.60416 z m 16.3824,-13.81689 c 0.02,-1.65 0.2445,-2.20394 0.4981,-1.23097 0.2535,0.97297 0.2368,2.32297 -0.037,3 -0.2739,0.67703 -0.4814,-0.11903 -0.461,-1.76903 z m -12.116,-28.08333 c 0.048,-1.16495 0.285,-1.4019 0.6042,-0.60417 0.2889,0.72187 0.2533,1.58437 -0.079,1.91667 -0.3322,0.33229 -0.5686,-0.25834 -0.5252,-1.3125 z m -67.988,-10.50758 c -0.6763,-2.25709 -1.0455,-4.28789 -0.8205,-4.51289 0.225,-0.225 0.9624,1.43762 1.6387,3.69471 0.6762,2.25709 1.0454,4.28789 0.8204,4.51289 -0.225,0.225 -0.9624,-1.43762 -1.6386,-3.69471 z m 98.244,-16.15482 c -0.5445,-1.23983 -0.6928,-3.37923 -0.3295,-4.75423 0.581,-2.19918 0.7527,-1.98049 1.4268,1.81738 0.8718,4.91134 0.3652,6.26707 -1.0973,2.93685 z m -8.0213,-9.00423 c 1.0494,-0.9625 3.0956,-1.70394 4.5472,-1.64764 2.4198,0.0938 2.3695,0.16638 -0.6047,0.87244 -1.7841,0.42354 -3.8303,1.16498 -4.5471,1.64764 -0.7168,0.48266 -0.4447,0.0901 0.6046,-0.87244 z m -89.8136,-5.51531 c -0.55,-0.40408 -1.6614,-1.63469 -2.4698,-2.73469 -1.0853,-1.47691 -0.7584,-1.36594 1.25,0.42431 2.4476,2.18174 3.1924,3.10464 2.4698,3.06038 -0.1375,-0.008 -0.7,-0.34593 -1.25,-0.75 z"
       style="display:inline;fill:#050201"
       id="path1-5-4" />
  </g>
</svg>
