<?xml version="1.0" encoding="UTF-8" standalone="no"?>
<!-- Created with Inkscape (http://www.inkscape.org/) -->

<svg
   version="1.1"
   id="svg1"
   width="616.25513"
   height="696.41626"
   viewBox="0 0 616.25513 696.41626"
   sodipodi:docname="offhand.svg"
   inkscape:version="1.4.4 (dcaf3e7, 2026-05-05)"
   xmlns:inkscape="http://www.inkscape.org/namespaces/inkscape"
   xmlns:sodipodi="http://sodipodi.sourceforge.net/DTD/sodipodi-0.dtd"
   xmlns="http://www.w3.org/2000/svg"
   xmlns:svg="http://www.w3.org/2000/svg">
  <sodipodi:namedview
     id="namedview1"
     pagecolor="#ffffff"
     bordercolor="#000000"
     borderopacity="0.25"
     inkscape:showpageshadow="2"
     inkscape:pageopacity="0.0"
     inkscape:pagecheckerboard="0"
     inkscape:deskcolor="#d1d1d1"
     inkscape:zoom="4.7615202"
     inkscape:cx="55.864512"
     inkscape:cy="599.2834"
     inkscape:window-width="1920"
     inkscape:window-height="1009"
     inkscape:window-x="2552"
     inkscape:window-y="143"
     inkscape:window-maximized="1"
     inkscape:current-layer="g1" />
  <defs
     id="defs1" />
  <g
     id="g1"
     transform="matrix(1.057976,0,0,0.8649819,-2348.3041,23.812978)"
     style="display:inline;stroke:#000000;stroke-opacity:1;stroke-width:0.58225574;stroke-dasharray:none">
    <path
       d="m 2317.3666,469.33744 c 1.7264,-39.9313 36.4238,-1.08046 26.2907,-10.78829 -0.6353,-0.60865 -8.838,21.60527 -13.3241,30.62886 -7.1628,14.40806 -1.63,9.99086 -6.6533,19.62117 -8.6108,16.50752 -9.1021,17.8171 -8.5838,22.88089 0.5136,5.01661 0.1924,5.92027 -4.8666,13.68801 -6.3007,9.67448 -11.5754,0.8871 -6.3901,6.17122 3.5998,3.6686 4.0019,6.27593 2.1564,13.9873 -1.3332,5.57037 -1.246,6.01103 2.6307,13.31015 5.8742,11.05921 10.7603,14.29306 19.6535,13.00722 11.8436,-1.71328 14.625,2.28939 14.2427,20.492 -0.9601,45.69417 -33.1876,88.61927 -52.9137,100.4994 -6.6732,4.01908 -15.2889,7.2046 -15.2889,5.65281 0,-0.35412 0.7116,-4.89921 1.5811,-10.10022 1.0076,-6.02574 1.2023,-25.95563 1.2339,-36.59785 0.039,-13.32012 -3.7362,-33.15644 -3.7362,-33.15644 -1.2656,-4.41853 -2.3015,-9.10519 -2.3015,-10.41495 0,-1.77746 -0.3719,-1.53949 -1.4668,0.9384 -1.085,2.45601 -2.4134,3.31979 -5.1051,3.31979 -3.8772,0 -6.6194,1.1693 -6.6194,2.82264 0,0.55513 2.9377,0.74612 6.5286,0.42448 l 6.5289,-0.58481 1.5998,8.00459 c 2.4397,12.20714 2.684,73.04379 -1.3211,69.85719 -1.7743,-1.41163 0.1525,-35.09837 -8.1452,-57.54517 -1.0248,-15.69977 -3.5696,-17.00404 -6.2187,-17.00404 -1.6832,0 -1.8884,-0.79547 -1.6272,-6.30723 0.335,-7.0585 -0.7887,-8.07457 -9.3493,-8.4532 l -3.9953,-0.17671 7.1659,-10.53308 c 3.9412,-5.79321 7.3933,-10.17253 7.6714,-9.73177 0.6857,1.08713 3.1535,-6.63324 2.5857,-8.08956 -1.0362,-2.65779 -7.1364,-6.03433 -9.3272,-5.16269 -3.2487,1.29262 -4.9473,4.79641 -6.1104,12.60507 l -1.0012,6.72174 0.4928,-7.03557 c 0.331,-4.72595 -0.065,-9.52666 -1.2072,-14.62396 -1.6881,-7.53514 -1.6852,-7.62931 0.4189,-13.42551 2.7885,-7.6802 2.6728,-12.34825 -0.576,-23.23408 -4.1815,-14.01227 -9.3488,-19.83762 -15.1544,-17.15565 -0.6756,0.31212 -1.3431,3.2826 -2.1516,3.4677 l -3.2485,6.93875 2.1652,-10.71661 c 3.8439,-19.02536 14.5933,-16.99721 22.3087,-4.40878 3.2532,5.30816 8.4798,23.04909 9.7452,33.07907 0.9233,7.31922 2.5562,5.44471 1.8972,-2.17795 -0.348,-4.02413 -0.2103,-6.72171 0.343,-6.72171 0.5083,0 0.9371,0.8402 0.9529,1.86714 0.015,1.05698 0.4383,0.7529 0.9726,-0.70085 1.1851,-3.22276 -3.2903,-18.30026 -4.9493,-16.6748 -0.6314,0.61863 -0.7916,0.35883 -0.3993,-0.6477 1.5086,-3.86944 -16.7057,-30.35949 -20.2821,-30.35949 -1.7934,0 -1.7874,-1.12987 0.06,-12.48098 1.2479,-7.667 3.4594,-16.13781 6.1298,-24.145 4.823,-14.462 13.7506,-30.04198 17.9505,-34.9869 2.5951,-3.05536 5.1788,-6.26777 6.3203,-6.32059 0.8895,-0.0412 0.9032,1.83613 -0.6358,7.20108 3.5902,6.66712 8.6774,56.48452 14.0813,73.21047 2.4701,7.64545 4.0126,8.20964 2.3728,1.37197 -1.01,-4.21099 -1.0031,-4.22222 0.9159,-1.46936 1.0633,1.52568 1.9335,3.67807 1.9335,4.78308 0,1.10497 0.636,2.00904 1.4133,2.00904 2.3562,0 1.5965,-3.61395 -1.8843,-8.96229 -1.8898,-2.90354 -3.298,-6.53654 -3.298,-8.50845 0,-2.42491 1.4183,-7.04607 0.114,-7.04664 -3.7162,-0.002 -5.4382,-29.56769 -11.8802,-50.16158 -0.05,-8.00885 0.8207,-19.31079 0.5143,-19.31198 -2.2018,-0.009 -20.5383,13.09687 -21.7124,25.60672 -10.2637,16.66511 -18.5187,41.55507 -16.7456,58.42376 0.4557,4.33536 -6.4696,27.69081 -8.751,27.69081 -2.4992,0 1.5856,-30.24052 2.2388,-36.334 -2.0778,-44.92134 16.807,-68.15914 37.8198,-79.87832 5.8004,-3.23495 5.3183,-0.76396 7.4553,-8.65784 2.9444,-10.87721 12.3471,-16.30296 6.9935,-6.39659 -3.776,6.98728 -4.4867,15.70535 -2.4357,25.03665 6.5236,29.68036 10.3213,44.81913 13.6145,62.69908 1.4054,7.63075 -1.5659,11.85013 -1.5659,7.11387 0,-1.37769 0.8432,-2.85445 1.8741,-3.28172 1.0304,-0.42725 1.6416,-1.37258 1.3574,-2.10073 -0.2837,-0.72814 -0.017,-1.3239 0.5904,-1.3239 0.7956,0 2.177,2.75905 0.4444,8.58887 l -2.5526,8.58886 3.1964,-4.86497 c 1.758,-2.67568 4.9821,-5.70053 7.1647,-6.72173 3.3882,-1.58528 5.469,-4.6639 14.2323,-21.05758 m -13.5333,209.58415 c 13.4931,-11.20707 43.4671,-48.13071 39.5405,-63.42511 -1.1623,-4.5269 -1.3949,-4.00965 -3.0533,6.78848 -0.9876,6.42889 -12.3501,10.80972 -13.186,12.93788 -3.3371,8.49577 -10.0416,22.54077 -10.7598,22.54077 -0.4197,0 -2.3119,2.71768 -4.2048,6.0393 -3.6893,6.47386 -11.9464,14.82173 -17.5709,17.76443 -1.8999,0.99404 -3.7338,2.52354 -4.0751,3.39884 -1.1949,3.06529 6.608,-0.47855 13.3094,-6.04459 z m 5.5134,-51.39289 c -0.6796,-6.77067 -1.9053,-15.68487 -2.7235,-19.80933 -0.8186,-4.12444 -2.0113,-13.20453 -2.6509,-20.17796 -1.0599,-11.55599 -1.2696,-12.37172 -2.3671,-9.21013 -0.9263,2.66947 -0.9676,5.07907 -0.179,10.45602 0.5634,3.84294 1.8561,12.70059 2.8725,19.68372 1.0163,6.98313 2.1021,14.10032 2.4129,15.81601 0.4592,2.53576 0.1728,3.07362 -1.5305,2.87466 -2.5499,-0.29778 -6.164,-6.74193 -4.6263,-8.24861 1.3415,-1.3142 -4.8715,-10.06843 -8.0406,-11.32926 -1.2859,-0.51169 -2.3511,-2.03379 -2.3668,-3.38245 -0.026,-2.15544 -0.1463,-2.13218 -0.9998,0.19209 -1.4835,4.03974 -0.1608,8.55871 2.5052,8.55871 2.7877,0 5.5554,4.15237 7.3785,11.06921 0.7487,2.83977 2.5612,6.14731 4.0286,7.35009 1.4672,1.20278 3.4743,3.60001 4.4603,5.3272 2.8874,5.0581 3.1315,3.83288 1.8265,-9.16997 z m -6.3764,-5.27638 c -1.6222,-2.46358 -1.6424,-2.43175 -0.4506,0.71448 0.6861,1.81112 1.4502,2.9714 1.6982,2.57845 0.2477,-0.39297 -0.3136,-1.8748 -1.2476,-3.29293 z m -35.5966,-12.58633 c 0.6218,-0.98584 1.1021,-2.83433 1.0669,-4.10772 -0.042,-1.55588 -0.3925,-1.23644 -1.0661,0.97388 -0.5511,1.80903 -1.6884,3.57952 -2.5273,3.93447 -1.3023,0.55096 -1.3117,0.6706 -0.065,0.81856 0.8032,0.0952 1.9692,-0.63333 2.5911,-1.61919 z m 15.0535,-5.10101 c 1.6978,-3.6897 2.7984,-7.44886 2.4455,-8.35376 -0.4011,-1.02904 -0.2058,-1.21841 0.5218,-0.50563 0.6943,0.68007 1.6581,0.0203 2.3907,-1.63634 0.6747,-1.5268 5.7552,-11.80394 11.2896,-22.83817 14.1228,-28.15775 13.5302,-23.3177 5.8912,-48.10861 -6.0128,-19.51366 -7.4805,-20.73897 -12.7238,-10.62106 -6.4299,12.40831 -16.476,30.91871 -21.888,40.32874 -5.369,9.33571 -5.369,9.33571 -11.4725,9.33571 -5.0346,0 -6.4176,0.55647 -7.8984,3.17785 -1.7949,3.17783 -1.7949,3.17785 7.3228,2.10939 l 9.1176,-1.06845 3.3169,7.22631 c 3.3917,7.38924 7.5447,27.15949 6.5601,31.22749 -0.2846,1.17636 -1.7194,2.13884 -3.1881,2.13884 -3.5624,0 -4.445,2.61897 -1.1484,3.40885 5.6498,1.3538 6.3633,0.91493 9.463,-5.82116 z m -3.6934,-10.6406 c -0.8516,-4.73328 -1.417,-10.28636 -1.2563,-12.34024 0.1608,-2.05383 0.3276,-4.61416 0.3707,-5.68957 0.043,-1.07542 0.5026,-1.53988 1.0208,-1.03213 1.4838,1.45366 1.095,-1.09659 -0.8974,-5.88833 -1.0051,-2.41704 -3.4405,-5.98263 -5.4117,-7.92354 -3.3928,-3.3403 -3.4455,-3.50461 -0.9874,-3.07396 2.7056,0.47397 2.7685,0.36999 20.2457,-33.3696 4.35,-8.39806 4.3738,-8.41875 5.9442,-5.22802 2.6605,5.40456 5.2891,14.74982 6.5732,23.36858 0.673,4.51849 1.382,7.46954 1.5756,6.55788 0.1934,-0.91168 -0.033,-4.37302 -0.5034,-7.69191 -1.2095,-8.53517 0.2748,-11.62767 2.1558,-4.49092 2.2598,8.57375 1.6658,14.58725 -1.4406,14.58725 -1.0517,0 -3.3269,3.43909 -5.6821,8.58885 -9.1275,19.95683 -15.4807,33.17601 -15.9587,33.20459 -0.281,0.0169 -1.0366,-3.08464 -1.6792,-6.8921 -0.642,-3.80745 -1.378,-6.58936 -1.635,-6.18202 -0.257,0.40735 -0.032,2.55806 0.5014,4.77933 1.3087,5.45615 1.2204,11.6921 -0.2092,14.77864 -1.0244,2.21214 -1.3793,1.423 -2.7264,-6.06278 z m 11.1365,-29.29514 c -0.5033,-5.82139 -0.2722,-6.93898 2.2176,-10.72053 3.309,-5.02583 4.5491,-3.91222 3.0206,2.71271 -1.0024,4.34486 -0.976,4.52398 0.2782,1.89809 1.9539,-4.09037 1.7193,-10.21428 -0.5679,-14.82363 -2.2016,-4.43689 -4.6428,-5.19775 -4.6428,-1.44703 0,1.36875 -0.6339,3.55332 -1.4085,4.85455 -4.9161,8.2586 -6.4275,12.35533 -5.1063,13.84335 1.0807,1.21745 1.0378,1.35228 -0.228,0.71387 -1.6511,-0.83272 -5.2334,4.15425 -3.9133,5.44764 0.4253,0.4168 2.4367,-0.52472 4.4696,-2.09228 2.033,-1.56758 3.799,-2.85012 3.9242,-2.85012 0.1255,0 0.5073,2.01652 0.849,4.48114 0.9435,6.80963 1.7446,5.35013 1.1076,-2.01776 z m 8.2032,-30.17469 c 0.3217,-1.3293 0.1637,-1.92887 -0.3704,-1.40554 -0.5122,0.50191 -0.9315,1.54509 -0.9315,2.31813 0,2.14862 0.6755,1.67515 1.3019,-0.91259 z m 2.0203,-12.54481 c -1.5963,-4.89337 -1.8316,-7.54275 -0.6699,-7.54275 0.6671,0 3.9434,9.34959 3.9434,11.25355 0,2.34322 -2.0608,0.007 -3.2735,-3.7108 z m 45.0512,68.85864 c 4.3905,-4.76927 3.9646,-5.04778 -4.2015,-2.74902 -11.0176,3.10147 -24.6747,-7.2609 -28.3133,-21.48262 -0.6477,-2.53177 -1.7102,-3.90691 -2.5081,-3.24631 -0.8654,0.71626 -1.9572,-1.16688 -2.9114,-5.02149 -1.256,-5.0723 -1.5397,-5.4229 -1.5969,-1.97443 -0.089,5.37479 7.8343,24.05065 12.7718,30.10271 7.8051,9.56712 20.1236,11.57946 26.7594,4.37116 z m -86.5343,-37.42345 c -3.2138,-1.13573 -3.5581,-6.01481 -0.7691,-10.90041 0.8487,-1.48648 1.325,-3.04832 1.0584,-3.47075 -0.2666,-0.42245 -1.574,1.84186 -2.9057,5.03178 -2.7834,6.66777 -1.5667,10.85679 3.0541,10.51501 2.2135,-0.16376 2.1816,-0.25012 -0.4377,-1.17563 z m 15.0113,-16.12648 c 1.3372,-1.18639 -1.4781,-27.42941 -4.7351,-44.13688 -0.9028,-4.63138 0.9904,-2.78499 3.3498,3.26693 1.2611,3.23451 2.6987,5.48328 3.1948,4.99721 0.4962,-0.48606 0.601,-0.11179 0.2331,0.83198 -0.6981,1.79066 4.036,12.86285 4.9083,11.47985 0.2743,-0.43493 1.2752,0.32312 2.2241,1.68455 1.6049,2.30214 1.7254,2.30238 1.7254,0.002 0,-1.47627 0.7593,-2.47208 1.8846,-2.47208 1.0364,0 1.8845,-0.72559 1.8845,-1.61238 0,-0.98789 -1.0192,-1.25755 -2.6315,-0.69618 -2.426,0.84476 -3.0181,0.0381 -7.589,-10.33997 -2.7266,-6.19091 -6.6307,-14.32065 -8.6755,-18.06612 -2.0448,-3.74544 -3.7177,-7.4412 -3.7177,-8.21277 0,-0.77159 -0.4528,-1.40289 -1.0059,-1.40289 -0.5717,0 -0.7516,1.26942 -0.4168,2.94155 0.3239,1.61783 0.9382,7.49931 1.3652,13.06999 0.4269,5.57067 1.8786,16.51411 3.2258,24.31877 2.6731,15.4846 3.0645,22.38343 1.4176,24.994 -0.5979,0.948 -0.7636,2.88568 -0.3767,4.40646 0.6367,2.50263 0.7521,2.46215 1.4785,-0.51888 0.4331,-1.77831 1.4487,-3.8197 2.2565,-4.5364 z m 46.7276,-21.44758 c 9.2498,0 -4.4314,-21.40223 -7.4154,-24.11675 -4.0606,-3.69417 -7.1954,-4.33561 -9.1788,-1.87836 -1.7053,2.11243 -1.6688,2.18386 0.6869,1.34051 1.4241,-0.50975 2.7688,-0.17209 3.1436,0.78941 0.8415,2.15902 -1.1767,6.06758 -2.6654,5.16182 -0.6249,-0.38004 -1.9328,0.23259 -2.9066,1.36143 -1.6751,1.94163 -1.6269,2.10966 0.8924,3.11204 1.4648,0.58276 3.5342,2.0266 4.5984,3.20852 1.8865,2.09448 1.8704,2.14893 -0.6299,2.14893 -3.0783,0 -3.6177,5.50697 -0.9162,9.35292 2.7364,3.89566 6.791,2.66821 6.2244,-1.88435 -0.3566,-2.86287 0.044,-4.09562 1.7199,-5.28268 1.2016,-0.85162 2.0788,-2.364 1.9493,-3.36086 -0.4819,-3.70582 0.8482,-1.64027 2.168,3.36756 0.7509,2.84903 1.3653,8.02473 1.3653,11.50161 0,4.25661 0.311,5.8287 0.9517,4.81272 0.6384,-1.01189 0.6426,-4.18491 0.012,-9.63447 z m -9.4442,-8.64095 c 0,-0.69422 0.8833,-2.52972 1.9632,-4.07892 1.9585,-2.80962 1.9603,-2.80647 0.7911,1.2622 -1.1107,3.86455 -2.7543,5.54536 -2.7543,2.81672 z m -31.094,14.70565 c 0.805,-2.38444 0.7166,-2.98743 -0.4381,-2.98743 -0.7956,0 -1.4464,0.28108 -1.4464,0.62469 0,0.34357 -0.2575,1.68792 -0.572,2.98742 -0.8313,3.43435 1.2662,2.90093 2.4565,-0.62468 z m 48.5845,-23.40824 c 1.4512,-3.01599 2.1573,-5.0122 1.5691,-4.43597 -1.2062,1.18187 -5.2855,9.91963 -4.6309,9.91963 0.2328,0 1.6108,-2.46762 3.0618,-5.48366 z m -4.4012,-11.2804 c 4.1432,-8.61328 3.9787,-10.37284 -1.3111,-14.02751 -2.2576,-1.55976 -2.433,-1.96498 -0.8711,-2.0117 1.0757,-0.032 2.9558,1.62906 4.1781,3.69161 l 2.2223,3.75007 2.6532,-4.02953 c 3.2575,-4.94738 3.2812,-5.93948 0.2489,-10.39447 -2.904,-4.26672 -1.6276,-4.71787 1.6798,-0.59365 1.2959,1.61619 2.6483,2.47586 3.005,1.91039 1.044,-1.6549 2.4005,2.96095 2.4162,8.22112 0.01,2.67002 0.3814,4.85457 0.8301,4.85457 0.8215,0 -5e-4,-9.0139 -1.2545,-13.75497 -0.4702,-1.77707 -12.3809,-2.67588 -13.1457,-2.67588 -1.3518,0 -13.7405,21.595 -13.7405,23.95157 0,0.76158 1.0288,1.79399 2.2862,2.29431 1.2574,0.50032 3.0192,2.19354 3.915,3.76275 2.3081,4.04295 2.6976,3.763 6.8881,-4.94868 z m 37.919,118.46633 c -1.7515,0.25551 0.07,-2.72096 0.5881,-1.25406 0.4692,1.3274 0.5886,2.97773 0.2653,3.66743 -0.3233,0.68971 0.7319,-2.64464 -0.853,-2.41344 z m -0.1401,-9.53569 c -0.6657,-3.06089 -0.8566,-6.0542 -0.4242,-6.65172 0.4325,-0.59757 0.9586,-2.41681 1.1694,-4.04278 0.2107,-1.62599 0.6385,-0.38319 0.9508,2.76173 0.9377,9.4498 -0.204,14.79357 -1.696,7.93277 z m -111.9652,7.91229 c 0,-2.05384 0.2138,-2.89405 0.4753,-1.86711 0.2612,1.02691 0.2612,2.70734 0,3.73426 -0.2615,1.02695 -0.4753,0.18672 -0.4753,-1.86715 z m 109.5507,-8.32274 c -0.8135,-3.0976 -0.7352,-3.86399 0.2631,-2.5747 0.7817,1.00958 1.3028,2.99426 1.158,4.41036 -0.1498,1.47003 -0.7597,0.68253 -1.4211,-1.83566 z m -3.5703,-4.62934 c -1.7514,0.25551 0.07,-2.72089 0.5884,-1.25405 0.469,1.32739 0.588,2.9778 0.2652,3.66741 -0.3232,0.68969 0.732,-2.64467 -0.8528,-2.41347 z m -2.351,-11.09763 c 1.2419,-2.8399 2.519,-5.20154 2.8381,-5.24808 0.3188,-0.0465 -0.4365,2.239 -1.6785,5.07892 -1.2419,2.83991 -2.5192,5.20157 -2.8381,5.2481 -0.3185,0.0465 0.4366,-2.23902 1.6785,-5.07894 z m 9.3656,-2.33308 c -0.2556,-2.62143 -0.097,-3.73222 0.3522,-2.46841 0.4495,1.26377 0.6586,3.40862 0.4648,4.76625 -0.1937,1.35763 -0.5614,0.32358 -0.817,-2.29784 z m -4.3573,-11.32663 c 1.2893,-4.10861 2.4932,-10.81021 2.6755,-14.8925 0.3091,-6.93181 0.4165,-6.60425 1.6206,4.95822 1.0188,9.78293 0.9524,11.67102 -0.3175,8.99911 -1.5121,-3.18151 -1.7465,-3.03308 -3.9651,2.51208 -2.2755,5.68762 -2.2761,5.6326 -0.014,-1.57691 z m -99.614,-42.35034 c 0.507,0 -0.3085,-1.94571 0,-3.23246 0.3459,-1.42832 0.1787,-1.95965 -0.4294,-1.36412 -0.5474,0.53649 -1.5735,-0.19348 -2.28,-1.62211 -1.1869,-2.40006 -1.1458,-2.4272 0.5408,-0.357 1.6594,2.03686 1.7692,2.00291 1.2073,-0.37341 -0.9958,-4.2119 -0.07,-3.01907 2.0248,2.614 1.7349,4.66128 -4.4602,4.3351 -1.0665,4.3351 z"
       style="display:inline;fill:#050201;stroke:#000000;stroke-width:0.676962;stroke-dasharray:none;stroke-opacity:1"
       id="path1"
       sodipodi:nodetypes="csscsssscsssssssssssscsscsssccsssscscccsscsssssccscssssscsssssssscccsscsssssssssscsscssssssscsscsssssssscssssssssssccsssccsssssscsssscssssssccssssssssssscscscsssssssssssssssssssscsscssssscssssscsscssscssssssssssscsscsccsssssssscsssssssscsccscssscscsscsssscsssccssssscssssssscsssssssssssssssscsssccsccsssccssssccccsss" />
  </g>
</svg>
