<?xml version="1.0" encoding="UTF-8" standalone="no"?>
<!-- Created with Inkscape (http://www.inkscape.org/) -->

<svg
   version="1.1"
   id="svg1"
   width="616.25513"
   height="696.41626"
   viewBox="0 0 616.25513 696.41626"
   xmlns="http://www.w3.org/2000/svg"
   xmlns:svg="http://www.w3.org/2000/svg">
  <defs
     id="defs1">
    <clipPath
       clipPathUnits="userSpaceOnUse"
       id="clipPath132">
      <path
         id="path133"
         style="fill:#ff0000;fill-opacity:1;fill-rule:nonzero;stroke:none"
         d="m 2233.7415,401.0112 v 272.26954 h 192.5918 V 401.0112 Z m 135.7636,36.41602 c 0.9141,0.006 2.0044,0.36619 3.1661,1.2207 2.7471,2.02079 5.7118,3.71452 8.5488,5.60742 0.6068,0.14992 1.1964,0.62587 1.8848,1.4668 4.4892,3.83461 7.5549,8.98874 10.4824,14.08203 2.6861,4.98312 5.3549,10.05007 7.1289,15.44727 0.2845,0.86571 0.5011,1.75089 0.7519,2.62695 0.9755,3.85457 0.927,7.7865 -0.5449,11.50977 -0.2857,0.72282 -0.6587,1.40741 -0.9883,2.11133 -2.0687,3.72922 -5.304,6.27234 -9.2402,7.82617 -0.8586,0.33895 -1.7501,0.58847 -2.625,0.88281 -4.8571,1.39456 -9.8896,1.95307 -14.9102,2.35156 -3.7988,0.28738 -7.6045,0.42396 -11.4082,0.1836 -3.0602,-0.179 -6.0534,-0.86418 -8.9882,-1.71485 -2.5031,-0.77867 -4.9881,-1.60497 -7.4336,-2.54883 -2.7153,-1.10585 -3.9885,-2.32556 -5.4844,-4.84375 -1.4232,-2.70435 -2.2836,-5.60551 -2.7402,-8.61328 -0.3625,-4.47122 0.1237,-8.96219 0.7578,-13.38672 0.5187,-3.66764 1.5339,-7.22046 2.8652,-10.66796 1.1733,-2.70885 2.5487,-5.34694 4.2148,-7.78516 1.7912,-2.3629 3.9746,-4.38635 6.1954,-6.33594 1.8036,-1.67314 3.7539,-3.15126 5.8867,-4.375 1.9676,-1.16565 4.064,-2.05567 6.2383,-2.75 1.2487,-0.3798 2.5294,-0.61901 3.8105,-0.85351 0.3718,-0.86981 1.2564,-1.44897 2.4316,-1.44141 z m 0.834,6.85937 c -0.091,0.0217 -0.1831,0.0414 -0.2773,0.0605 -1.6728,0.3409 -3.3694,0.57125 -5.0137,1.04102 -1.7815,0.55057 -3.4842,1.30102 -5.0918,2.25 -1.7944,1.00311 -3.3893,2.28566 -4.9023,3.67383 -1.8607,1.63115 -3.6973,3.31417 -5.2324,5.26367 -0.2198,0.30776 -0.4308,0.62071 -0.6348,0.93945 0.7018,-0.26541 1.6555,0.45756 2.4043,0.77148 0.3301,0.13841 0.6207,0.35174 0.8984,0.58399 0.6723,-0.46583 1.4086,-0.84415 2.1738,-1.10352 0.011,-0.0213 0.021,-0.0433 0.031,-0.0644 1.0947,-2.18406 2.7151,-2.93957 4.0156,-2.7168 -0.1545,-0.68571 -0.2452,-1.38565 -0.2539,-2.09961 -0.01,-0.50902 0.1261,-1.01052 0.1895,-1.51562 0.6051,-4.82217 0.1496,0.52492 3.205,1.76953 1.5678,-1.64779 3.4303,-2.97419 5.2969,-4.25977 1.2642,-0.84017 1.9764,-2.18005 2.6758,-3.48632 0.093,-0.16462 0.3017,-0.57525 0.5664,-1.07227 -0.017,-0.0118 -0.034,-0.0233 -0.051,-0.0352 z m -19.1523,17.91407 c -0.019,0.0157 -0.038,0.0309 -0.057,0.0469 0.01,-0.002 0.013,-0.002 0.02,-0.004 0.014,-0.0149 0.027,-0.0296 0.037,-0.043 z m 1.1504,0.0605 v 0.002 0.002 0.002 0.002 c -0.01,0.0778 0.1342,0.49912 0.2754,0.47656 0.033,-0.005 0.065,-0.0119 0.098,-0.0176 -0.111,-0.14723 -0.2253,-0.29587 -0.3437,-0.44726 -0,-7.5e-4 -0.01,-0.003 -0.01,-0.004 l -0,-0.002 v -0.002 l -0,-0.002 v -0.002 l -0,-0.002 v -0.002 -0.002 -0.002 z m -4.2891,0.81055 v 0.002 0.002 0.002 0.002 0.002 0.002 0.002 c 0,0.087 0.3005,0.51715 0.4727,0.47657 0.063,-0.0148 0.1256,-0.0325 0.1875,-0.0527 -0.1974,-0.15252 -0.399,-0.29896 -0.6133,-0.42578 -0.012,-0.007 -0.02,-0.0104 -0.027,-0.0117 -8e-4,-8e-5 -0.01,1e-5 -0.01,0 z m -1.9316,0.43555 c -0.4615,1.21452 -0.8764,2.4441 -1.2344,3.68945 0.6001,-0.53033 1.26,-0.99356 1.9648,-1.31055 -0.2654,-0.91955 -0.5406,-1.68839 -0.7304,-2.3789 z m 6.998,2.01562 v 0.002 h 0 l 0,-0.002 z m 0,0.002 c -0,10e-4 -0.01,0.003 -0.012,0.004 v 0.002 0.002 c 0,0.009 0.01,0.0184 0.012,0.0273 8e-4,-0.0111 10e-5,-0.0239 0,-0.0351 z m 37.8418,1.99023 c -3e-4,0.0769 -10e-4,0.15335 0,0.23047 -0.019,0.61854 -0.1533,1.2278 -0.2305,1.8418 -0.3001,0.69604 -0.5269,1.42827 -0.9003,2.08789 -1.1823,2.08811 -3.1681,3.75644 -4.8575,5.40625 -2.6607,2.59844 -1.471,1.44656 -4.2109,4.05859 -3.2557,3.11156 -6.3444,6.41089 -9.9531,9.12109 -0.9429,0.68662 -1.8787,1.24723 -2.8438,1.70118 -0.026,0.15326 -0.05,0.30702 -0.072,0.46093 -0.079,0.55178 -0.2484,1.44978 0.041,1.98828 1.032,1.16817 -0.4237,1.93826 -2.1035,2.51954 2.2906,-0.003 4.5813,-0.12883 6.8691,-0.29297 4.5468,-0.35804 9.107,-0.84476 13.5156,-2.06836 3.5085,-1.13339 6.4223,-2.31949 8.3731,-5.63867 1.6761,-3.37815 2.0662,-5.69857 1.1738,-9.43555 -1.1594,-4.16011 -2.8584,-8.12823 -4.7969,-11.98047 z m -46.9336,3.27539 c -0.1066,0.56139 -0.2007,1.12568 -0.2812,1.69336 -0.1922,1.32661 -0.3693,2.65925 -0.5098,3.99609 0.2534,-0.29777 0.5454,-0.54758 0.9004,-0.7207 0.3636,-0.66018 0.6381,-1.1389 0.873,-1.45898 -0.3144,-1.17372 -0.6459,-2.34136 -0.9824,-3.50977 z m 17.5742,24.48828 c -0.1855,0.53008 -0.47,0.99189 -0.8613,1.41211 0.4669,0.0544 0.9358,0.0969 1.4063,0.125 0.097,0.007 0.1924,0.0136 0.289,0.0195 -0.1499,-0.25958 -0.2917,-0.52437 -0.4394,-0.78515 -0.1339,-0.25584 -0.2651,-0.51352 -0.3946,-0.77149 z" />
    </clipPath>
    <clipPath
       clipPathUnits="userSpaceOnUse"
       id="clipPath195">
      <path
         id="path196"
         style="fill:#ff0000;fill-opacity:1;fill-rule:nonzero;stroke:none"
         d="m 2665.1907,401.13425 v 264.4668 h 184.9726 v -264.4668 z m 10.8242,14.42578 h 0 c 0.8349,-0.0206 1.8285,0.22927 2.918,0.85547 0.202,-0.0573 0.4169,-0.0922 0.6445,-0.10351 0.9891,-0.049 2.1996,0.36001 3.461,1.42968 0.6284,0.53283 1.2374,1.08765 1.8769,1.60742 1.192,1.05094 2.3805,2.1004 3.4981,3.22461 0.7382,0.60707 1.4656,1.22731 2.1718,1.87305 1.21,1.13045 2.4597,2.22109 3.6016,3.42188 1.3291,1.32861 2.7152,2.60081 4.0176,3.95703 1.57,1.43186 3.1793,2.82007 4.705,4.29883 1.4189,1.4535 2.756,2.98428 4.252,4.36132 0.9101,0.99374 1.8969,1.91947 2.8438,2.87696 1.3316,1.20791 2.7421,2.35393 3.7011,3.90429 0.8613,1.34659 1.5442,2.77981 2.1895,4.23633 0.3961,0.4346 0.7668,0.89088 1.082,1.39063 0.5683,0.82178 1.1444,1.6419 1.7637,2.42578 0.503,0.60479 1.018,1.20052 1.5215,1.80469 0.1649,0.19784 0.2946,0.39521 0.3925,0.58593 0.7747,-0.8224 1.5577,-1.63592 2.3907,-2.40039 1.4363,-1.33734 2.8814,-2.66265 4.3515,-3.96289 1.2388,-1.09571 2.4599,-1.55356 3.4766,-1.55859 1.8741,-0.009 3.0563,1.52123 2.3906,3.43554 0.041,-0.004 0.082,-0.006 0.1211,-0.006 0.8973,0.003 1.3278,1.08155 0.2285,2.09375 -0.6394,0.58869 -1.2785,1.17885 -1.916,1.76953 0.066,0.0328 0.128,0.0731 0.1817,0.12109 0.01,-0.012 0.018,-0.0232 0.027,-0.0352 0.5961,-0.77095 1.2536,-1.17003 1.707,-1.17578 0.3456,-0.005 0.5727,0.21948 0.5625,0.67969 0,-4e-5 0.01,0 0.01,0 v -0.002 -0.002 -0.002 c 0.381,-0.24823 0.7321,-0.35702 1.0293,-0.36328 0.4841,-0.0102 0.8265,0.25118 0.9258,0.62305 0.2912,-0.22287 0.5894,-0.31523 0.8515,-0.30274 0.7129,0.034 1.1536,0.8474 0.4375,1.93164 -0.2122,0.32123 -0.4129,0.64969 -0.6367,0.96289 -0.095,0.13238 -0.1925,0.26848 -0.2949,0.40821 0.2875,0.41834 0.1957,1.13567 -0.5664,1.78515 -0.4351,0.37082 -0.8696,0.74245 -1.3047,1.11328 0.1365,-0.043 0.2672,-0.065 0.3906,-0.0684 0.1441,-0.004 0.2765,0.0177 0.3946,0.0605 0.2011,-0.15732 0.4034,-0.31453 0.6054,-0.4707 0.4113,-0.31787 0.7929,-0.44762 1.1074,-0.44336 0.2509,0.003 0.4597,0.0916 0.6075,0.23828 0.1739,-0.13678 0.3471,-0.27349 0.5195,-0.41211 0.2437,-0.196 0.4571,-0.42696 0.6855,-0.64062 0.427,-0.39944 0.8465,-0.56518 1.1954,-0.56446 0.8914,0.002 1.3217,1.08656 0.2304,2.10742 -0.225,0.2105 -0.4361,0.4375 -0.6758,0.63086 -0.3233,0.26056 -0.6483,0.51891 -0.9765,0.77344 0.6586,0.33496 0.7029,1.26245 -0.4512,1.91211 -0.2043,0.11497 -0.3074,0.17324 -0.3926,0.2207 0.3443,0.42788 0.2364,1.19952 -0.6582,1.81641 -0.1393,0.0961 -0.2786,0.19296 -0.4179,0.28906 0.7224,0.81289 1.4331,1.63611 2.1328,2.47071 0.7477,0.8724 1.487,1.7529 2.2343,2.62695 0.1551,0.10146 0.2948,0.25736 0.4024,0.46875 0.075,0.0867 0.1497,0.1733 0.2246,0.25976 0.3175,0.19052 0.5006,0.42199 0.5703,0.6543 0.5468,0.62179 1.1019,1.23626 1.6699,1.83789 1.4272,1.5118 0.5086,3.14385 -1.08,1.80274 -0.1562,-0.13191 -0.3202,-0.25646 -0.4727,-0.39258 -0.013,0.6857 -0.8204,1.17208 -1.9609,0.57422 -1.0576,-0.55444 -0.5067,-0.26167 -1.6504,-0.88086 -2.4547,-1.4323 -4.7028,-2.91123 -6.4922,-5.15821 -0.2816,-0.0672 -0.5665,-0.11938 -0.8555,-0.15429 -0.2241,-0.0271 -0.4131,-0.0443 -0.582,-0.0527 -4.4705,3.10414 -8.9348,6.21948 -13.4024,9.32813 -0.3208,0.49888 -0.6511,0.99129 -0.9941,1.47656 -1.137,1.63113 -2.4612,2.54253 -4.2051,3.41797 -1.1071,0.44409 -2.1718,1.08977 -3.3515,1.32617 -0.392,-0.43825 -1.0028,-0.75249 -1.1758,-1.31445 -0.092,-0.29868 0.3341,-0.52863 0.5332,-0.76953 0.117,-0.14165 0.2751,-0.24443 0.4082,-0.3711 0.1773,-0.1687 0.3504,-0.34256 0.5234,-0.51562 0.8683,-0.86847 0.5275,-0.51316 1.3965,-1.52344 0.3953,-0.48091 0.7875,-0.96595 1.1777,-1.45117 -0.7829,0.4901 -1.5688,0.97752 -2.3574,1.45898 -0.6583,0.40192 -1.223,0.40794 -1.582,0.20118 -0.2161,0.1298 -0.432,0.25944 -0.6484,0.38867 -1.7849,1.06604 -2.8614,-0.73713 -1.0762,-1.80274 1.3562,-0.80951 2.7058,-1.63083 4.0469,-2.46679 -0.3983,-0.38241 -0.6031,-0.66401 -0.627,-0.92383 -0.2872,0.30451 -0.5734,0.61026 -0.8574,0.91797 -3.9879,4.32157 -8.3558,0.2899 -4.3653,-4.0293 1.1792,-1.27629 2.4127,-2.50682 3.502,-3.86328 0.8475,-1.03411 1.6904,-2.07111 2.5508,-3.09375 -0.1024,-0.14849 -0.1947,-0.32808 -0.2715,-0.53906 -0.061,-0.16637 -0.027,-0.0842 -0.1035,-0.24805 -0.2994,-0.50164 -0.7799,-0.84727 -1.1797,-1.26367 -0.7347,-0.70499 -1.4961,-1.38376 -2.2207,-2.09961 -0.9793,-0.95282 -1.9659,-1.89515 -2.9531,-2.83985 -1.2814,-1.28118 -2.5723,-2.55329 -3.8164,-3.87109 -1.898,-1.99822 -3.7454,-4.04715 -5.4707,-6.19727 -2.3769,-3.04752 -4.6395,-6.18291 -7.0215,-9.22656 -2.6754,-3.36275 -5.3909,-6.69234 -8.1856,-9.95703 -1.7428,-2.10245 -3.5143,-4.18973 -5.1113,-6.40625 -0.3171,-0.44024 -0.4324,-0.84243 -0.4063,-1.16601 -0.4514,-0.41139 -0.8941,-0.83056 -1.3222,-1.26758 -2.9577,-3.01932 -1.9118,-6.22461 0.4668,-6.25782 0.1902,-0.003 0.3878,0.0151 0.5937,0.0547 0.2457,-1.05836 1.1987,-1.84091 2.584,-1.875 z m 8.1113,11.14258 c 0.06,0.063 0.1197,0.12629 0.1797,0.18945 0.01,-0.01 0.012,-0.0197 0.018,-0.0293 -0.066,-0.0535 -0.1312,-0.10684 -0.1973,-0.16016 z m 50.6758,32.13086 c -0.1537,0.0986 -0.3071,0.19825 -0.457,0.30273 -1.5301,1.06664 -2.7438,1.97272 -4.125,3.0293 0.1064,0.16557 0.2141,0.33216 0.3203,0.49805 0.055,-0.0123 0.1118,-0.0186 0.1699,-0.0195 0.2199,-0.004 0.4582,0.0752 0.6836,0.25 0.1879,-0.16 0.3766,-0.31851 0.5645,-0.47852 0.09,-0.10569 0.1781,-0.2123 0.2675,-0.31836 0.7792,-0.92428 1.7729,-2.17812 2.5762,-3.26367 z m 6.3906,17.66406 v 0.002 0.002 c 0.01,0.003 0.015,0.006 0.022,0.01 v -0.002 c 10e-5,-10e-4 0,-0.003 0,-0.004 v -0.002 -0.002 -0.002 -0.002 z m -26.1191,4.95703 v 0.006 h 0 v -0.002 l 0,-0.002 h 0 c 9e-4,-4.7e-4 0,-0.001 0,-0.002 z m 0,0.01 c -0.036,0.0731 -0.05,0.12363 -0.051,0.14258 v 0.002 0.002 0.002 0.002 c 0.01,1.7e-4 0.013,-10e-4 0.016,-0.002 h 0 c 9e-4,-2.7e-4 0.01,-0.002 0.01,-0.002 h 0 v -0.002 c 0.01,-0.0135 0.016,-0.0271 0.025,-0.041 z m -0.9746,1.02734 c -0.2974,0.37124 -0.5958,0.74309 -0.8945,1.11328 0.4191,-0.31039 0.8081,-0.65805 1.1582,-1.06445 -0.088,-0.0114 -0.176,-0.0299 -0.2637,-0.0488 z" />
    </clipPath>
  </defs>
  <g
     id="g1"
     transform="translate(-2233.8528,-61.138157)">
    <path
       d="m 2386.7877,433.04312 c 1.5772,-1.51104 14.2228,-17.7318 14.2403,-18.5914 0.017,-0.8596 0.6925,-2.43642 1.5,-3.50404 0.8075,-1.06762 1.4682,-2.8831 1.4682,-4.03439 0,-4.46802 12.9587,-7.75999 18.6179,-4.72961 8.074,4.32351 1.6964,30.65575 -6.727,27.77477 -0.866,-0.29619 -10.5771,10.32634 -15.3381,16.36737 -7.602,9.6458 -52.4148,64.817 -57.7462,71.26423 -9.1385,11.05131 -9.6599,11.92804 -9.1098,15.31811 0.545,3.35849 0.2041,3.96346 -5.1649,9.16374 -6.6869,6.47679 -7.8276,10.50986 -3.8561,13.63383 2.7572,2.16885 2.8828,3.54761 0.6739,7.39642 -1.5956,2.78022 -1.5581,3.01468 1.1335,7.082 4.0783,6.1626 7.9653,8.20366 15.6348,8.20963 10.2141,0.008 12.2476,2.28739 10.4129,11.67227 -4.6057,23.55894 -25.3696,49.17754 -46.3046,57.13095 -7.0824,2.69066 -16.2263,4.82327 -16.2263,3.78439 0,-0.23707 0.7551,-3.27989 1.678,-6.76181 1.0693,-4.03407 1.6972,-10.38703 1.7308,-17.51169 0.042,-8.91746 0.3097,-10.96768 1.3219,-10.12756 0.6981,0.57935 1.3048,2.46077 1.3482,4.18092 0.043,1.72016 0.3175,2.53032 0.6091,1.80037 0.5989,-1.49953 -2.5132,-18.86758 -3.7939,-21.17281 -0.5397,-0.97148 -0.8643,0.26173 -0.9213,3.5 l -0.088,5 -2.4424,-5.37824 c -1.3433,-2.95804 -2.4424,-6.09567 -2.4424,-6.97251 0,-1.18997 -0.3948,-1.03065 -1.5567,0.62824 -1.1517,1.64422 -2.5615,2.22251 -5.4182,2.22251 -4.1149,0 -7.0251,0.78281 -7.0251,1.88968 0,0.37163 3.118,0.49951 6.9289,0.28418 l 6.929,-0.39152 1.6978,5.35883 c 1.7105,5.39899 3.2677,24.85883 1.9892,24.85883 -1.3331,0 -3.2005,-2.53322 -2.7854,-3.77842 0.3319,-0.99588 -0.1196,-1.01463 -2.1505,-0.0893 -2.7832,1.26812 -2.9136,1.55426 -4.6111,10.11773 -0.6268,3.1625 -1.3816,5.75 -1.6772,5.75 -0.2957,0 -0.2413,-1.18049 0.1209,-2.62331 1.1961,-4.76563 0.6848,-19.01998 -0.9324,-25.99297 -1.8744,-8.08261 -3.7883,-11.38372 -6.5998,-11.38372 -1.7865,0 -2.0043,-0.53255 -1.7269,-4.22252 0.3553,-4.72546 -0.8373,-5.40565 -9.9226,-5.65917 l -4.2401,-0.11831 7.6051,-7.05161 c 4.1829,-3.87838 7.8466,-6.8102 8.1417,-6.51513 0.7278,0.7278 3.3468,-4.44078 2.7442,-5.41574 -1.0997,-1.77932 -7.5738,-4.03982 -9.8988,-3.45628 -3.4479,0.86537 -5.2505,3.21108 -6.485,8.43876 l -1.0627,4.5 0.5231,-4.71011 c 0.3514,-3.16388 -0.069,-6.37784 -1.2812,-9.79033 -1.7916,-5.04457 -1.7885,-5.10762 0.4447,-8.988 2.9592,-5.14168 2.8364,-8.26681 -0.6114,-15.55456 -4.9543,-10.47252 -11.2125,-14.11421 -18.2615,-10.62663 l -4.1324,2.04455 2.8772,-3.1108 c 9.8777,-10.67975 15.488,-11.37915 23.6762,-2.95156 3.4527,3.55368 8.9996,15.43073 10.3426,22.14552 0.98,4.90001 2.7129,3.64508 2.0134,-1.45808 -0.3692,-2.69404 -0.2231,-4.5 0.3641,-4.5 0.5395,0 0.9946,0.5625 1.0113,1.25 0.017,0.70763 0.4652,0.50405 1.0324,-0.4692 1.2576,-2.15755 -3.4922,-12.2515 -5.2529,-11.16331 -0.6701,0.41416 -0.84,0.24023 -0.4236,-0.43361 1.601,-2.59048 -9.0683,-15.18388 -12.864,-15.18388 -1.9034,0 -1.8977,-0.75651 0.063,-8.35566 3.7163,-14.40337 15.4859,-33.04422 23.4709,-37.17343 3.8917,-2.01247 4.2563,-1.88468 3.6493,1.27909 -1.4992,7.81323 4.2793,29.72286 10.7522,40.76806 2.9388,5.01477 4.2586,5.49613 2.5182,0.91849 -1.0719,-2.81913 -1.0645,-2.82665 0.972,-0.9837 1.1286,1.02142 2.0521,2.46238 2.0521,3.20214 0,0.73975 0.675,1.34501 1.5,1.34501 2.5006,0 1.6942,-2.41945 -2,-6 -2.0056,-1.94385 -3.5,-4.37604 -3.5,-5.69617 0,-1.62341 -0.5803,-2.30383 -1.9648,-2.30383 -3.9519,0 -8.2894,-15.55075 -8.4372,-30.24855 -0.054,-5.3617 -0.3474,-9.7492 -0.6522,-9.75 -2.1881,-0.006 -10.7168,6.98652 -15.302,12.54546 -9.4161,11.41558 -16.6438,28.40071 -16.6438,39.11305 0,2.92629 -0.3206,3.34004 -2.5879,3.34004 -2.4841,0 -2.5608,-0.17058 -1.9115,-4.25 3.571,-22.43515 18.1819,-45.48339 34.8275,-54.93921 5.2214,-2.9661 6.075,-3.92493 8.1989,-9.20966 2.9266,-7.28199 5.1362,-9.85229 2.4957,-2.90308 -5.6371,14.83574 -4.9926,36.33349 1.6106,53.71875 1.8651,4.91037 4.3667,7.2437 4.3667,4.07291 0,-0.92232 0.8949,-1.91098 1.9887,-2.19702 1.0938,-0.28604 1.7423,-0.91891 1.441,-1.40638 -0.3013,-0.48747 -0.019,-0.88631 0.6265,-0.88631 0.8443,0 0.9768,1.61557 0.4715,5.75 l -0.7027,5.75 3.3923,-3.25697 c 1.8657,-1.79133 5.2875,-3.81633 7.6039,-4.5 3.5959,-1.0613 5.8042,-3.12235 15.1047,-14.09745 m -16.4313,143.51908 c 14.32,-7.50281 34.069,-32.82955 31.9981,-41.03551 -0.6129,-2.42883 -0.8537,-2.17888 -3.1596,3.28042 -1.3728,3.25027 -3.2219,7.07527 -4.1091,8.5 -3.5417,5.68769 -10.657,15.09042 -11.4194,15.09042 -0.4453,0 -2.4535,1.81941 -4.4625,4.04313 -3.9155,4.33408 -12.6786,9.92275 -18.6479,11.89279 -2.0164,0.66549 -3.9626,1.68944 -4.3248,2.27544 -1.2682,2.05211 7.013,-0.32039 14.1252,-4.04669 z m 5.8512,-34.40609 c -0.7213,-4.53278 -2.022,-10.50059 -2.8905,-13.26179 -0.8686,-2.7612 -2.1345,-8.84006 -2.8133,-13.50858 -1.1248,-7.7364 -1.3473,-8.28252 -2.5119,-6.16591 -0.9833,1.78713 -1.0272,3.40029 -0.1903,7 0.5981,2.57274 1.9699,8.5027 3.0486,13.1777 1.0787,4.675 2.231,9.43976 2.5608,10.58836 0.4874,1.69763 0.1835,2.05771 -1.6242,1.92452 -2.7062,-0.19936 -6.5419,-4.51354 -4.9098,-5.52223 1.4236,-0.8798 -5.1704,-6.74053 -8.5335,-7.58461 -1.3649,-0.34257 -2.4953,-1.36157 -2.512,-2.26445 -0.027,-1.443 -0.1551,-1.42744 -1.061,0.12859 -1.5745,2.7045 -0.1707,5.72982 2.6588,5.72982 2.9584,0 5.896,2.77991 7.8307,7.41053 0.7944,1.90115 2.7183,4.11545 4.2755,4.92067 1.5571,0.80522 3.6873,2.41011 4.7337,3.56642 3.0645,3.38625 3.3235,2.566 1.9384,-6.13904 z m -6.767,-3.53239 c -1.7219,-1.64929 -1.7432,-1.62798 -0.4783,0.47833 0.7281,1.21249 1.5391,1.98927 1.8022,1.72619 0.2631,-0.26308 -0.3327,-1.25512 -1.3239,-2.20452 z m -37.7787,-8.42619 c 0.66,-0.66 1.1695,-1.8975 1.1323,-2.75 -0.045,-1.04162 -0.4166,-0.82777 -1.1314,0.65198 -0.585,1.21109 -1.7921,2.39639 -2.6823,2.634 -1.3821,0.36888 -1.3921,0.44897 -0.069,0.54802 0.8525,0.0638 2.09,-0.424 2.75,-1.084 z m 15.9762,-3.41498 c 1.8019,-2.47015 2.9699,-4.98682 2.5955,-5.59261 -0.4258,-0.68892 -0.2184,-0.8157 0.5537,-0.33851 0.7367,0.45529 1.7596,0.0136 2.537,-1.09549 0.7164,-1.02213 6.1082,-7.9024 11.9818,-15.2895 14.9885,-18.85082 14.3595,-15.61054 6.2524,-32.20736 -6.3814,-13.06385 -7.9392,-13.88416 -13.5037,-7.1105 -6.824,8.30701 -17.4862,20.6992 -23.2297,26.99895 -5.6982,6.25 -5.6982,6.25 -12.1757,6.25 -5.3433,0 -6.8111,0.37253 -8.3825,2.12748 -1.905,2.12748 -1.905,2.12748 7.7715,1.41218 l 9.6766,-0.7153 3.5201,4.83782 c 3.5995,4.94698 8.0073,18.1825 6.9623,20.90591 -0.3022,0.78755 -1.8248,1.43191 -3.3835,1.43191 -3.7809,0 -4.7174,1.75331 -1.219,2.28211 5.9963,0.90634 6.7535,0.61253 10.0432,-3.89709 z m -3.9197,-7.12359 c -0.9039,-3.16879 -1.5039,-6.88643 -1.3333,-8.26143 0.1705,-1.375 0.3476,-3.08906 0.3934,-3.80902 0.046,-0.71996 0.5334,-1.0309 1.0834,-0.69098 1.5746,0.97318 1.1621,-0.73413 -0.9526,-3.94207 -1.0667,-1.61814 -3.6512,-4.0052 -5.7434,-5.30459 -3.6007,-2.23623 -3.6567,-2.34624 -1.0478,-2.05793 2.8714,0.31731 2.9383,0.2477 21.4866,-22.34001 4.6168,-5.62225 4.6418,-5.63611 6.3087,-3.5 2.8235,3.61819 5.6132,9.87457 6.9758,15.6446 0.7144,3.025 1.4669,5.00064 1.6723,4.39031 0.2054,-0.61033 -0.035,-2.92761 -0.5342,-5.14951 -1.2838,-5.71406 0.2917,-7.7844 2.288,-3.00655 2.3983,5.7399 1.768,9.76575 -1.5289,9.76575 -1.1161,0 -3.5307,2.30238 -6.0304,5.75 -9.6869,13.36054 -16.4296,22.2104 -16.9367,22.22953 -0.2984,0.0113 -1.1004,-2.06507 -1.7822,-4.61406 -0.6817,-2.54898 -1.4626,-4.41139 -1.7353,-4.13868 -0.2728,0.27271 -0.033,1.71254 0.5321,3.19962 1.3888,3.65273 1.2951,7.82752 -0.222,9.89389 -1.0873,1.48095 -1.4639,0.95265 -2.8935,-4.05887 z m 11.819,-19.61226 c -0.5342,-3.89726 -0.2888,-4.64546 2.3536,-7.17709 3.512,-3.36466 4.828,-2.61913 3.2058,1.81608 -1.0639,2.90875 -1.036,3.02866 0.2952,1.27071 2.0736,-2.73839 1.8246,-6.83817 -0.6027,-9.92401 -2.3365,-2.97036 -4.9274,-3.47975 -4.9274,-0.96875 0,0.91636 -0.6727,2.37886 -1.4948,3.25 -5.2177,5.5289 -6.8215,8.27153 -5.4194,9.26772 1.1471,0.81506 1.1014,0.90532 -0.2419,0.47794 -1.7522,-0.5575 -5.5543,2.78114 -4.1533,3.64703 0.4515,0.27904 2.5862,-0.35129 4.7437,-1.40073 2.1575,-1.04944 4.0317,-1.90807 4.1648,-1.90807 0.1331,0 0.5385,1.35 0.9009,3 1.0013,4.55886 1.8516,3.58175 1.1755,-1.35083 z m 8.706,-20.20111 c 0.3415,-0.88992 0.1739,-1.29132 -0.393,-0.94098 -0.5437,0.33602 -0.9885,1.0344 -0.9885,1.55194 0,1.43843 0.7167,1.12146 1.3815,-0.61096 z m 2.1442,-8.3984 c -1.6941,-3.27597 -1.9438,-5.04966 -0.7109,-5.04966 0.708,0 4.1852,6.25929 4.1852,7.53393 0,1.56874 -2.1872,0.005 -3.4743,-2.48427 z m 39.5239,51.42466 c 4.1292,-2.13526 3.7902,-2.31143 -3.3451,-1.73868 -9.6267,0.77274 -20.3816,-5.61667 -22.2965,-13.24614 -0.3409,-1.35821 -1.1304,-2.14954 -1.8638,-1.86811 -0.7952,0.30514 -1.5675,-0.75112 -2.0595,-2.81658 -0.6474,-2.71797 -0.8595,-2.92068 -1.1941,-1.14156 -0.5217,2.7729 4.668,13.02917 8.3649,16.53159 5.8441,5.53664 16.1533,7.50672 22.3941,4.27948 z m -83.5496,-30.37969 c -3.411,-0.76034 -3.7764,-4.02675 -0.8164,-7.29752 0.9006,-0.99515 1.4061,-2.04076 1.1233,-2.32357 -0.2829,-0.28281 -1.6705,1.23308 -3.0838,3.36864 -2.954,4.46388 -1.6628,7.26832 3.2412,7.0395 2.3494,-0.10962 2.3153,-0.16744 -0.4643,-0.78705 z m 15.9312,-10.79622 c 1.4193,-0.79425 -1.5686,-18.36322 -5.0252,-29.54841 -0.9582,-3.10057 1.0511,-1.86446 3.5551,2.18713 1.3383,2.16542 2.8641,3.6709 3.3906,3.34549 0.5265,-0.3254 0.6378,-0.0748 0.2474,0.55699 -0.7409,1.19879 4.2833,8.6113 5.2092,7.68543 0.2911,-0.29117 1.3534,0.21632 2.3605,1.12776 1.7031,1.54122 1.8312,1.54138 1.8312,0.002 0,-0.98832 0.8056,-1.65499 2,-1.65499 1.1,0 2,-0.48576 2,-1.07946 0,-0.66135 -1.0817,-0.84187 -2.7928,-0.46606 -2.5748,0.56554 -3.2031,0.0255 -8.0541,-6.92232 -2.8938,-4.14463 -7.0371,-9.58727 -9.2073,-12.09475 -2.1702,-2.50748 -3.9458,-4.98168 -3.9458,-5.49823 0,-0.51655 -0.4803,-0.93918 -1.0674,-0.93918 -0.6068,0 -0.7977,0.84983 -0.4424,1.96927 0.3438,1.08309 0.9958,5.02059 1.4488,8.75 0.4531,3.7294 1.9938,11.05573 3.4237,16.28073 2.8369,10.3665 3.2522,14.98508 1.5045,16.73278 -0.6347,0.63466 -0.8105,1.93188 -0.3998,2.95 0.6757,1.67544 0.7981,1.64834 1.5689,-0.34738 0.4598,-1.19052 1.5375,-2.55717 2.3949,-3.03699 z m 49.592,-14.35854 c -1.3745,-7.49958 -4.7031,-14.3282 -7.8699,-16.1455 -4.3098,-2.47313 -7.6364,-2.90256 -9.7416,-1.2575 -1.8099,1.41421 -1.771,1.46203 0.7292,0.89744 1.5113,-0.34127 2.9383,-0.11522 3.3361,0.52847 0.8933,1.44542 -1.2487,4.06208 -2.8288,3.45571 -0.6631,-0.25444 -2.0512,0.1557 -3.0847,0.91143 -1.7777,1.29987 -1.7266,1.41234 0.9472,2.08342 1.5545,0.39015 3.7507,1.35676 4.8803,2.14802 2.002,1.40219 1.985,1.43864 -0.6685,1.43864 -3.2671,0 -3.8397,3.68677 -0.9725,6.26153 2.9042,2.60802 7.2072,1.78628 6.6059,-1.26153 -0.3782,-1.91661 0.048,-2.7419 1.8254,-3.5366 1.2753,-0.57013 2.2062,-1.58263 2.0687,-2.25 -0.5112,-2.48095 0.9002,-1.09812 2.301,2.25448 0.7969,1.90734 1.449,5.37234 1.449,7.7 0,2.84969 0.3299,3.90216 1.0101,3.22199 0.6775,-0.67745 0.6818,-2.80167 0.013,-6.45 z m -10.0232,-5.78488 c 0,-0.46476 0.9376,-1.69358 2.0837,-2.73072 2.0784,-1.88097 2.0805,-1.87885 0.8394,0.84501 -1.1788,2.5872 -2.9231,3.71247 -2.9231,1.88571 z m -33,9.84501 c 0.8543,-1.5963 0.7605,-2 -0.4648,-2 -0.8444,0 -1.5352,0.18819 -1.5352,0.41821 0,0.23002 -0.2732,1.13002 -0.607,2 -0.8823,2.2992 1.3438,1.94209 2.607,-0.41821 z m 51.5627,-15.67115 c 1.5401,-2.01913 2.2895,-3.35552 1.6653,-2.96976 -1.2802,0.79122 -5.6095,6.64091 -4.9148,6.64091 0.2472,0 1.7095,-1.65202 3.2495,-3.67115 z m -4.6709,-7.55191 c 4.3971,-5.76635 4.2226,-6.94433 -1.3914,-9.39103 -2.396,-1.04421 -2.5823,-1.31551 -0.9247,-1.34677 1.1416,-0.0215 3.137,1.09062 4.4342,2.47143 l 2.3586,2.51057 2.8157,-2.69766 c 3.4572,-3.31218 3.4824,-3.97632 0.2643,-6.95881 -3.0822,-2.85645 -1.7274,-3.15848 1.7827,-0.39743 1.3755,1.08199 2.8107,1.65752 3.1892,1.27896 1.108,-1.10791 2.5477,1.98226 2.5643,5.5038 0.01,1.7875 0.4049,3.25 0.881,3.25 0.8719,0 -7e-4,-6.03455 -1.3315,-9.20857 -0.4989,-1.1897 -13.1397,-1.79143 -13.9512,-1.79143 -1.4348,0 -14.583,14.45725 -14.583,16.03492 0,0.50984 1.0919,1.20102 2.4264,1.53596 1.3345,0.33495 3.2042,1.46852 4.155,2.51906 2.4495,2.70665 2.863,2.51922 7.3104,-3.313 z m -68.8918,162.33969 c 0,-1.21263 3.6371,-2.06859 4.6657,-1.09802 0.4588,0.43299 1.7343,1.00374 2.8343,1.26832 1.1,0.26459 -0.1375,0.53327 -2.75,0.59707 -2.6125,0.0638 -4.75,-0.28152 -4.75,-0.76737 z m 14.75,0.22109 c 0.6875,-0.27741 1.8125,-0.27741 2.5,0 0.6875,0.27741 0.125,0.50438 -1.25,0.50438 -1.375,0 -1.9375,-0.22697 -1.25,-0.50438 z m 0.8977,-9.09875 c -0.2587,-0.41856 0.1647,-1.62957 0.941,-2.69113 1.3436,-1.8375 1.4113,-1.80099 1.4113,0.76103 0,2.53418 -1.3131,3.61159 -2.3523,1.9301 z m 10.4312,-50.8223 c 0.048,-1.16495 0.285,-1.4019 0.6042,-0.60417 0.2889,0.72187 0.2533,1.58437 -0.079,1.91667 -0.3322,0.33229 -0.5686,-0.25834 -0.5252,-1.3125 z m 70,-19 c 0.048,-1.16495 0.285,-1.4019 0.6042,-0.60417 0.2889,0.72187 0.2533,1.58437 -0.079,1.91667 -0.3322,0.33229 -0.5686,-0.25834 -0.5252,-1.3125 z m 0.6715,-4.94208 c -0.3122,-1.63322 -0.2263,-3.19564 0.191,-3.47204 0.4173,-0.2764 1.0156,-1.17755 1.3297,-2.00255 0.314,-0.825 0.5749,-0.15 0.5796,1.5 0.014,4.95784 -1.4005,7.6353 -2.1003,3.97459 z m -106.5925,-0.47459 c 0,-1.375 0.2269,-1.9375 0.5044,-1.25 0.2774,0.6875 0.2774,1.8125 0,2.5 -0.2775,0.6875 -0.5044,0.125 -0.5044,-1.25 z m 104.5733,0.0802 c -0.435,-1.66335 -0.3048,-2.05378 0.4372,-1.31171 0.5811,0.5811 0.8598,1.64682 0.6193,2.36826 -0.2496,0.74894 -0.7029,0.29565 -1.0565,-1.05655 z m -2.6523,-2.66349 c 0.048,-1.16495 0.285,-1.4019 0.6042,-0.60417 0.2889,0.72187 0.2533,1.58437 -0.079,1.91667 -0.3322,0.33229 -0.5686,-0.25834 -0.5252,-1.3125 z m -1.0789,-5.91667 c 1.2917,-1.375 2.5736,-2.5 2.8486,-2.5 0.275,0 -0.5569,1.125 -1.8486,2.5 -1.2918,1.375 -2.5736,2.5 -2.8486,2.5 -0.275,0 0.5568,-1.125 1.8486,-2.5 z m 8.1579,-0.5 c 0,-1.375 0.2269,-1.9375 0.5044,-1.25 0.2774,0.6875 0.2774,1.8125 0,2.5 -0.2775,0.6875 -0.5044,0.125 -0.5044,-1.25 z m -2.7662,-6.18646 c 1.4372,-2.02755 3.0168,-5.40255 3.5103,-7.5 0.8378,-3.56157 0.9017,-3.38406 0.9671,2.68646 0.055,5.13626 -0.1579,6.10768 -1.0163,4.63007 -1.0222,-1.75944 -1.2338,-1.70036 -3.5803,1 -2.4069,2.76976 -2.4027,2.74127 0.1192,-0.81653 z m -96.6562,-38.41131 c -0.3287,-0.32877 -0.3273,-1.30259 0,-2.16404 0.367,-0.95622 0.1895,-1.31193 -0.4556,-0.91325 -0.5811,0.35917 -1.6701,-0.12951 -2.4199,-1.08595 -1.2597,-1.60677 -1.216,-1.62494 0.5739,-0.23899 1.7611,1.36362 1.8776,1.34088 1.2814,-0.25 -1.0568,-2.81975 -0.076,-2.02118 2.1489,1.75 1.8412,3.12059 1.0682,5.10241 -1.132,2.90223 z"
       style="display:inline;fill:#050201"
       id="path1"
       clip-path="url(#clipPath132)" />
    <path
       id="path1-5-4"
       clip-path="url(#clipPath195)"
       style="display:inline;fill:#050201"
       d="m 2673.468,401.14011 c -2.9257,-0.0918 -5.5604,0.67761 -6.6523,2.75 -8.5399,16.20817 40.3366,67.57127 40.3366,67.57127 0,0 11.9739,-17.52867 16.3027,-13.12964 39.5679,40.2101 -36.1569,-43.33616 -36.1569,-43.33616 0.7254,-2.88546 -2.4812,-9.6377 -5.4297,-11.43555 -2.253,-1.3737 -5.4687,-2.32807 -8.3945,-2.41992 z m 26.6075,26.01953 c -0.1375,0.0407 -0.5495,0.16177 -0.4122,0.1211 0.55,-0.16289 0.5497,-0.16182 0.4122,-0.1211 z m 0.9609,9.69141 -1.0645,15.49023 c -0.014,-6.41341 1.2346,-17.96548 1.0645,-15.49023 z m 92.3789,17.00586 c -0.2519,0.0325 0.1819,2.26638 1.2363,7.24414 2.8531,13.46946 1.3354,32.08059 -3.541,43.41601 -2.5153,5.84717 -2.3006,5.73421 -5.7617,3.01172 -2.6355,-2.07309 -2.6339,-2.07299 -3.6094,0.11328 -0.7231,1.62053 -0.5353,2.95669 0.7305,5.16211 1.6247,2.83086 1.5321,4.79688 -0.2266,4.79688 -0.4444,0 -1.9992,-1.8 -3.4551,-4 -2.1982,-3.32166 -3.2054,-4 -5.9414,-4 -1.8121,0 -4.0056,-0.5625 -4.875,-1.25 -1.9483,-1.54064 -19.8573,-23.72783 -20.4961,-25.39258 l -13.0664,-14.75586 c -4.3192,3.60361 -8.7629,7.05072 -13.2519,10.43945 -2.1644,1.50607 -4.2789,4.57147 -6.6781,2.1186 -24.0988,-26.88113 19.2532,21.41527 22.1156,27.53179 16.3434,20.0771 16.3978,20.16257 15.8516,24.23438 -0.4402,3.28206 0.022,4.10007 5.5312,9.80078 6.4604,6.68489 6.6581,7.5011 3.375,14.01563 -1.3328,2.64452 -1.4219,3.80262 -0.4805,6.29687 1.1505,3.04793 0.3072,7.783 -1.8906,10.60938 -0.491,0.63139 -1.0864,2.15026 -1.3223,3.375 -0.4221,2.19182 -0.3957,2.19688 1.6465,0.35156 3.771,-3.40766 7.265,-11.49428 5.9063,-13.66992 -1.6759,-2.68365 -0.3643,-3.47369 1.9062,-1.14844 1.8664,1.91151 1.8498,2.04697 -0.916,8.08008 -5.5701,12.15019 -15.7952,18.71207 -25.3945,16.29492 -2.5205,-0.63467 -5.1592,-1.86165 -5.8633,-2.72852 -1.1025,-1.35728 -1.0096,-1.47425 0.6738,-0.84179 5.9684,2.24238 9.9684,1.85033 14.3418,-1.4043 4.9374,-3.67438 4.9673,-4.32699 0.1367,-2.92578 -1.8885,0.54783 -5.2407,0.72963 -7.4492,0.40429 -8.0286,-1.18267 -11.0482,3.88685 -8.082,13.56446 8.8858,28.99048 27.4807,49.76137 50.9531,56.91211 8.7493,2.66543 12.0669,2.76872 10.8125,0.33789 -1.5306,-2.96623 -3.3944,-12.13149 -4.0937,-20.12696 l -0.668,-7.62304 -1.3105,5.93359 c -0.7215,3.26271 -1.1136,8.32521 -0.8711,11.25 0.5053,6.09328 0.4247,6.13235 -7.9219,3.91016 -15.1021,-4.02073 -33.281,-22.59223 -39.332,-40.17969 -3.2744,-9.51736 -2.1746,-9.42895 2.8593,0.23047 6.744,12.94123 12.9189,20.78472 15.0528,19.11914 0.6762,-0.52786 1.0405,-0.79627 1.1093,-0.76953 v 0.002 0.002 0.002 0.002 0.002 0.002 c 0.021,0.08 -0.2819,0.4896 -0.8925,1.26758 -1.9058,2.42818 4.3449,8.18909 15.3339,14.13281 13.2895,7.18809 12.216,7.82829 12.7735,-7.63086 0.4482,-12.42891 2.6709,-24.70189 4.9316,-27.22461 0.8647,-0.96489 1.2472,1.13559 0.9004,4.94922 -0.1059,1.16401 0.682,0.34464 1.8848,-1.96094 1.1367,-2.1788 2.0664,-4.7663 2.0664,-5.75 0,-2.39768 1.6387,-2.28391 2.2773,0.1582 0.4163,1.59191 1.5758,2.0129 6.3653,2.31055 l 5.8574,0.36523 -6.127,0.1875 c -3.9243,0.1211 -6.5588,0.7083 -7.3261,1.63282 -1.74,2.09661 -3.9069,10.99435 -4.6407,19.05664 l -0.6367,7 5.0254,-0.33985 c 4.2249,-0.28622 5.0892,-0.0475 5.4336,1.5 0.2253,1.01221 0.7574,-1.08515 1.1816,-4.66015 1.7512,-14.75785 3.7658,-20.75539 7.2696,-21.63477 2.0908,-0.52475 2.3368,-1.0144 1.7793,-3.55273 -1.0378,-4.72499 1.613,-6.8125 8.6562,-6.8125 h 5.8067 l -7.211,-6.66406 c -11.992,-11.08316 -12.1903,-11.46218 -7.4609,-14.34571 7.4597,-4.5483 10.0635,-2.37304 13.168,11.00977 l 1.5078,6.5 -0.6524,-6.5 c -0.8641,-8.61489 -0.8227,-12.08853 0.1719,-14.5 0.3801,-0.92188 0.5856,-1.41822 0.5391,-1.49024 v -0.002 -0.002 -0.002 -0.002 -0.002 c -0.097,0 -0.5015,0.5 -1.3028,1.5 -1.5635,1.95072 -1.6018,1.93076 -1.6328,-0.86524 -0.026,-2.34911 0.3164,-2.77607 1.9024,-2.36132 3.0362,0.79399 3.2492,-1.90048 0.416,-5.26758 -2.9316,-3.48406 -2.742,-6.85626 0.8554,-15.2461 3.9809,-9.28417 14.9546,-15.19777 19.5938,-10.55859 0.6619,0.66194 1.1992,0.7531 1.1992,0.20312 0,-1.27767 -6.8239,-7.82115 -9.6836,-9.28515 -9.228,-4.7243 -19.8332,5.38766 -24.9492,23.78906 -1.7435,6.27112 -3.3672,8.00223 -3.3672,3.5918 0,-1.375 -0.4187,-2.5 -0.9316,-2.5 -1.8045,0 -2.2823,-4.10455 -0.6836,-5.8711 0.8601,-0.95039 2.2129,-3.5671 3.0058,-5.81445 3.1039,-8.7975 11.0753,-18.29959 15.3594,-18.30859 2.7023,-0.006 2.8573,0.80725 0.5,2.62109 -1.5021,1.15573 -1.2847,1.19167 1.5313,0.25195 1.8045,-0.60218 4.167,-0.86329 5.25,-0.58007 2.4598,0.64324 2.571,-1.56741 0.4824,-9.58594 -5.9409,-22.80884 -18.4372,-41.00865 -34.3067,-49.96485 -4.0973,-2.31239 -5.8649,-4.05995 -7.2421,-7.15429 -0.9685,-2.17564 -1.532,-3.36196 -1.7188,-3.33789 z m -59.1115,14.27509 c -500.451,-406.993843 -500.451,-406.993843 0,0 z m 68.5217,1.68584 c 1.8551,-0.0788 4.8698,2.32476 9.6113,7.13477 10.4259,10.57672 18.2771,25.57684 19.8203,37.86719 0.4917,3.91998 0.6722,7.34926 0.4004,7.62109 -0.2718,0.27183 -0.4942,-0.48021 -0.4942,-1.67187 0,-1.19167 -0.3608,-2.16797 -0.8007,-2.16797 -0.44,0 -1.3716,-2.8125 -2.0703,-6.25 -2.4404,-12.00603 -12.4828,-28.51859 -21.8692,-35.95703 -5.968,-4.72952 -6.1182,-4.71489 -5.5293,0.50976 1.3134,11.65284 -8.2529,43.437 -12.9629,43.06836 -2.835,-0.22189 -2.7286,2.28202 0.1895,4.43945 4.584,3.3891 7.5517,1.21782 13.1855,-9.64648 1.664,-3.20894 11.7588,-14.59993 12.3809,-13.9707 0.1667,0.16861 -0.088,2.33164 -0.5664,4.80664 -0.4784,2.475 -0.8996,6.525 -0.9356,9 -0.035,2.475 -1.2735,7.65 -2.7519,11.5 -1.9302,5.0268 -2.6995,8.90414 -2.7285,13.75195 -0.046,7.57402 -0.486,8.03856 -3.5411,3.74805 -1.1749,-1.65 -1.7215,-3 -1.2148,-3 0.5068,0 1.6851,-4.1625 2.6191,-9.25 1.9258,-10.49002 3.5159,-18.31521 4.3165,-21.25 0.5358,-1.96465 0.5075,-1.96559 -1.5645,-0.11524 -1.1602,1.036 -1.9373,2.161 -1.7285,2.5 1.2938,2.10004 -8.6652,15.34572 -10.8945,14.49024 -0.6672,-0.25598 -1.7906,0.23005 -2.4961,1.08008 -1.9047,2.29511 -2.7479,1.93993 -5.5879,-2.35157 l -2.5782,-3.89648 3.5957,-7.14258 c 1.9782,-3.92828 3.9714,-6.91099 4.4278,-6.62891 0.8042,0.49699 4.0057,-9.25563 6.0527,-18.43554 0.5519,-2.475 1.021,-7.425 1.043,-11 0.035,-5.80272 0.6971,-8.69927 2.6719,-8.78321 z m -69.9141,4.26563 c 0.5875,-0.0521 3.319,2.97266 0.5566,2.97266 -1.8005,0 -4.001,-1.20043 -5.5136,-1.94922 0.1471,-0.0387 0.3001,-0.0844 0.4589,-0.13867 1.2375,-0.42252 3.853,0.56936 4.4043,-0.81836 0.017,-0.0418 0.049,-0.0625 0.094,-0.0664 z m -1.9863,4.94727 c 2.1271,0.0716 4.9278,0.91036 8.9121,2.95507 -1.3336,0.20866 -3.4267,1.06096 -5.1055,2.22266 -1.415,0.97921 -2.2844,1.04351 -3.25,0.24219 -1.0106,-0.83878 -1.322,-0.65637 -1.334,0.77929 -0.01,1.02985 -0.4845,2.5461 -1.0586,3.3711 -0.7615,1.09444 -0.8729,0.37248 -0.4101,-2.67383 0.3929,-2.58614 0.2255,-4.60745 -0.6153,-6.44141 0.5952,-0.23251 1.2491,-0.38669 1.9903,-0.43945 0.2779,-0.0198 0.5672,-0.0258 0.8711,-0.0156 z m 10.125,3.59375 c 1.9153,1.03729 4.0839,2.33275 6.5547,3.92578 2.3146,1.49235 3.3055,4.05078 3.75,4.05078 0.4445,0 0.8085,0.5904 0.8085,1.3125 0,0.7221 1.3507,2.60735 3.002,4.18945 2.1917,2.09975 2.6643,3.0914 1.75,3.67188 -0.9076,0.57626 -0.7896,0.79944 0.4258,0.81054 1.5434,0.0141 7.8222,6.56904 7.8222,8.16602 0,0.38203 -1.6068,1.22504 -3.5703,1.87305 -1.9635,0.64802 -3.8121,1.80848 -4.1074,2.57812 -0.9137,2.38102 -2.7575,1.19104 -5.1855,-3.3457 -0.6238,-1.16561 -2.0757,-2.41794 -3.2266,-2.78321 -1.4439,-0.4583 -1.9392,-1.25475 -1.5957,-2.56836 0.2997,-1.14573 -0.016,-1.90429 -0.793,-1.90429 -0.7103,0 -2.0748,-1.19455 -3.0312,-2.6543 -2.1068,-3.21534 -3.5001,-1.61033 -4.4766,5.1543 -0.4402,3.04961 -0.716,3.49859 -1.164,1.89062 -0.8258,-2.96369 1.6241,-9.47832 4.3554,-11.58008 1.2623,-0.97133 1.7585,-1.7749 1.1035,-1.7871 -0.655,-0.0122 -1.4797,0.44353 -1.832,1.01367 -0.593,0.95934 -8.3415,-6.61509 -8.4355,-8.2461 -0.023,-0.39042 1.7589,-1.24906 3.9589,-1.9082 1.8748,-0.56169 3.4593,-1.33405 3.8868,-1.85937 z m -20.0098,0.31445 c -0.04,0.82962 0.06,1.44454 0.3262,1.625 0.08,0.19132 0.1935,0.37153 0.3437,0.53711 1.9962,2.2 5.845,7.0375 8.5528,10.75 2.7079,3.7125 4.4682,6.75 3.9121,6.75 -0.5561,0 -1.0118,-0.35532 -1.0118,-0.78906 0,-0.43374 -2.6993,-3.8288 -5.998,-7.54493 -3.2988,-3.71612 -8.955,-8.60863 -7.541,-9.96093 0.5056,-0.48359 0.9767,-0.93822 1.416,-1.36719 z m 33.0391,15.78515 c -0.3474,-0.0143 -0.7426,0.0509 -1.1036,0.19532 v -0.002 c -0.7978,0.31922 -0.5613,0.55747 0.6036,0.60547 1.0542,0.0434 1.6448,-0.1931 1.3125,-0.52539 -0.1661,-0.16612 -0.4651,-0.25913 -0.8125,-0.27344 z m 3.6914,6.1875 c -0.2228,0.002 -0.6919,0.19979 -1.4317,0.59571 -1.1357,0.60783 -2.3682,1.59731 -2.7402,2.19922 -0.4846,0.78408 -0.091,0.78344 1.3887,-0.01 1.1357,-0.60783 2.3682,-1.59925 2.7402,-2.20117 0.2423,-0.39204 0.2658,-0.58572 0.043,-0.58399 z m -16.8672,4.42188 c 1.0105,-0.014 7.1692,7.49079 9.373,11.51758 1.3788,2.51927 0.3854,2.15654 -1.3691,-0.5 -0.8173,-1.2375 -3.1024,-4.00646 -5.0781,-6.1543 -1.9756,-2.14784 -3.3413,-4.31144 -3.0352,-4.80664 0.024,-0.0384 0.06,-0.0559 0.1094,-0.0566 z m 27.6621,1.46484 c 0.4632,-0.0287 0.9311,-0.0279 1.4043,0.004 4.6117,0.30422 7.3675,2.79883 3.0918,2.79883 -2.7448,0 -10.8985,3.81237 -10.8985,5.0957 0,0.50457 -1.0991,1.87389 -2.4414,3.04102 -1.3729,1.19375 -2.9852,4.2518 -3.6875,6.99218 -1.6157,6.30419 -2.7981,6.29366 -1.8007,-0.0156 1.6475,-10.42251 7.3838,-17.48536 14.332,-17.91602 z m 0.3066,4.99024 c 1.4848,0.0277 3.0439,0.9627 5.2559,2.85351 2.8629,2.44709 3.1192,2.95899 1.4844,2.95899 -1.0874,0 -3.6345,0.88891 -5.6602,1.97461 -3.6831,1.974 -3.6822,1.97394 -5.8125,-0.73438 -2.1304,-2.70833 -2.1301,-2.70893 0.5039,-4.97461 1.5062,-1.29565 2.7061,-1.99506 3.9317,-2.07226 0.098,-0.006 0.1978,-0.008 0.2968,-0.006 z m 10.2266,7.91015 c 2.113,-0.12743 4.6087,2.37607 8.8477,7.625 3.455,4.27808 9.4053,11.37735 13.2226,15.77735 6.3805,7.35462 8.513,10.55556 5.9961,9 -0.55,-0.33992 -1,-0.23986 -1,0.2207 0,1.18334 10.9083,4.2793 15.0762,4.2793 3.4981,0 8.3498,2.50429 7.5039,3.87304 -0.2498,0.40422 -3.9707,0.3891 -8.2676,-0.0332 -4.2969,-0.4223 -8.581,-0.53493 -9.5195,-0.25 -3.934,1.19435 -11.0898,16.06369 -11.9883,24.91016 -0.2962,2.91668 -0.1936,2.99315 3.6953,2.76562 2.8854,-0.16881 3.582,0.0375 2.5,0.73633 -3.5989,2.3242 -7.5024,1.14807 -10.8008,-3.25195 -3.1989,-4.26731 -11.3151,-14.58758 -22.9492,-29.18164 -3.4375,-4.31204 -6.25,-8.2706 -6.25,-8.79688 0,-2.0748 5.2775,-15.59966 8.3008,-21.27148 2.2016,-4.13011 3.7685,-6.2899 5.6328,-6.40235 z m -7.8789,1.43946 c 0.3661,0.008 -0.067,0.77842 -1.4922,2.30859 -1.6154,1.73506 -3.0779,3.1543 -3.25,3.1543 -0.9319,0 -0.082,-1.88689 1.4375,-3.19141 1.7732,-1.52284 2.9386,-2.2792 3.3047,-2.27148 z m 8.6992,5.11523 c -1.5446,0.95464 -6.0187,10.845 -7.7812,17.20117 l -1.7872,6.44727 9.8887,12.3418 c 5.4395,6.78803 11.0304,14.14536 12.4219,16.34961 3.094,4.90126 3.2085,4.9171 2.6777,0.37109 -0.2335,-2.00007 -0.03,-3.39507 0.4512,-3.10156 0.4815,0.29352 0.9377,-1.13192 1.0137,-3.16797 0.1643,-4.40292 3.7941,-13.26987 6.3965,-15.625 1.7837,-1.6142 1.7046,-1.85659 -2.2129,-6.82031 -9.9585,-12.61795 -20.3425,-24.44474 -21.0684,-23.9961 z m -19.4121,4.69336 c 0.095,-0.0103 0.2122,0.14272 0.3418,0.4668 0.2889,0.72187 0.2517,1.58567 -0.08,1.91797 -0.3322,0.33229 -0.5684,-0.25834 -0.5254,-1.3125 0.028,-0.69169 0.1243,-1.05722 0.2637,-1.07227 z m 10.8535,4.6543 c -1.3408,0 -4.426,9.81762 -3.5371,11.25586 0.4615,0.74672 1.158,0.0956 1.916,-1.79102 1.8733,-4.66232 2.6959,-9.46484 1.6211,-9.46484 z m 11.7227,2.13672 v 0 c 0.8422,-0.0326 1.6739,1.06583 2.6192,3.32812 0.796,1.90517 2.3374,3.941 3.4257,4.52344 3.5501,1.89993 4.4656,4.90243 1.8184,5.96484 -2.2285,0.89446 -2.2135,0.92278 0.4824,0.98438 2.0562,0.047 3.0373,0.75494 3.7891,2.73242 0.5581,1.46768 1.6486,3.15518 2.4238,3.75 1.1692,0.89715 0.9941,1.38472 -1.0215,2.86328 -1.5189,1.11421 -2.2417,1.29357 -1.9297,0.48047 0.4586,-1.19501 -8.4767,-10.93481 -12.9453,-14.11133 -1.8206,-1.29413 -1.7863,-1.38688 0.75,-2.02344 2.6758,-0.6716 3.3459,-2.67425 2.0352,-6.08984 -0.5658,-1.47445 -0.8118,-1.45911 -2.6465,0.16797 -0.9882,0.87643 -1.4862,1.31229 -1.5937,1.25391 0,-1e-5 -0.01,-0.003 -0.01,-0.004 v 0 c -0.081,-0.0865 0.2026,-0.64168 0.7617,-1.70703 0.7238,-1.37945 1.3841,-2.08792 2.0391,-2.11328 z m 41.8027,9.38672 c 0.4382,0.007 0.3728,1.06797 -0.3281,2.89453 -0.6108,1.59171 -2.4204,2.22945 -2.3613,0.83203 0.018,-0.4125 0.6925,-1.62379 1.5,-2.69141 0.5382,-0.71158 0.9435,-1.03897 1.1894,-1.03515 z m -41.3262,6.74218 c 0.01,-6.9e-4 0.019,-2.8e-4 0.029,0 0.1656,0.005 0.3807,0.13842 0.6446,0.40235 0.5875,0.58752 0.925,2.81619 0.75,4.95117 l -0.3184,3.88086 -0.75,-3.375 c -0.8544,-3.84493 -0.9716,-5.81583 -0.3555,-5.85938 z m -60.9511,8.21289 v 0.002 0.002 0.002 0.002 0.002 0.002 c -0.043,0.0697 0.1626,0.40977 0.6035,1.00977 0.8084,1.1 1.9207,2.33029 2.4707,2.73437 0.55,0.40407 1.1125,0.742 1.25,0.75 0.7226,0.0443 -0.023,-0.87685 -2.4707,-3.05859 -1.0983,-0.97904 -1.6935,-1.45773 -1.8301,-1.44727 h -0.01 c 0,6e-5 3e-4,-1.4e-4 -0.01,0 z m 50.6894,3.4668 c 0.5541,-0.054 0.8801,3.03376 0.4414,8.80469 -0.8442,11.10496 -2.2315,18.73271 -4.2754,23.50976 -2.4379,5.69786 -0.8137,5.61235 2.7285,-0.14453 2.8726,-4.66851 12.3801,-14.11523 14.2071,-14.11523 0.9719,0 0.9733,4.12794 0,5.65039 -0.4041,0.63206 -1.8306,1.30706 -3.1699,1.5 -1.6992,0.24478 -3.3616,1.92292 -5.5,5.55273 -1.6855,2.86085 -4.9353,6.79847 -7.2227,8.75 -4.18,3.56569 -5.3543,4.18302 -5.3223,2.79688 0.064,-2.73275 3.1265,-18.99471 4.3594,-23.14649 0.8226,-2.77 1.8063,-8.20187 2.1875,-12.07031 0.4701,-4.77125 1.0999,-7.0424 1.5664,-7.08789 z m 46.7246,4.1582 c -1.4514,-0.0549 -3.4944,0.68481 -4.5429,1.64649 -0.6476,0.59407 -1.0001,0.97247 -1.0059,1.06054 1e-4,10e-4 -10e-5,0.005 0,0.006 v 0.002 0.002 0.002 0.002 0.002 0.002 c 0,-4e-5 -3e-4,-7e-5 0.01,0 0.044,0.003 0.1719,-0.0618 0.3847,-0.20508 0.7168,-0.48266 2.7628,-1.22489 4.5469,-1.64843 1.5336,-0.36407 2.291,-0.55882 2.332,-0.67578 v -0.002 -0.004 -0.002 c 0,-8.5e-4 1e-4,-0.005 0,-0.006 v -0.002 -0.002 c 1e-4,-10e-4 0,-0.003 0,-0.004 v -0.002 c -0.058,-0.0911 -0.6464,-0.13018 -1.7207,-0.17188 z m 3.7149,4.49219 c -0.162,0.0175 -0.3304,0.51088 -0.5664,1.4043 -0.3633,1.375 -0.2164,3.51407 0.3281,4.7539 1.4625,3.33022 1.9694,1.9758 1.0976,-2.93554 -0.4003,-2.25499 -0.6224,-3.24819 -0.8593,-3.22266 z m -14.2305,2.75 c 0.095,-0.0103 0.2122,0.14272 0.3418,0.4668 0.2889,0.72187 0.2517,1.58567 -0.08,1.91797 -0.3322,0.33229 -0.5684,-0.25834 -0.5254,-1.3125 0.028,-0.69169 0.1243,-1.05722 0.2637,-1.07227 z m 0.2637,3.8125 c 0.2293,-0.007 0.3945,0.41146 0.3945,1.0918 0,0.87083 0.4938,1.74792 1.0977,1.94922 0.6039,0.20131 0.9287,1.47695 0.7207,2.83398 -0.3408,2.22307 -0.5084,2.08953 -1.6973,-1.34961 -0.7299,-2.09935 -1.0505,-4.08619 -0.7207,-4.41601 0.072,-0.0722 0.1409,-0.10756 0.2051,-0.10938 z m -25.3926,6.32422 c -0.2125,0.007 -0.455,0.0573 -0.7129,0.15625 -0.825,0.31658 -1.5,0.75259 -1.5,0.96875 0,0.21615 0.675,0.39258 1.5,0.39258 0.825,0 1.5,-0.43601 1.5,-0.96875 0,-0.36625 -0.3196,-0.56369 -0.7871,-0.54883 z m -59.9063,4.89258 v 0.002 c -0.013,0.002 -0.025,0.009 -0.035,0.0195 -0.225,0.225 0.146,2.25658 0.8223,4.51367 0.6761,2.25709 1.4136,3.91836 1.6386,3.69336 0.225,-0.225 -0.1462,-2.25463 -0.8222,-4.51172 -0.6346,-2.11766 -1.3214,-3.71371 -1.5899,-3.71679 z m 69.0352,13.9707 c -0.1394,0.0151 -0.2352,0.38058 -0.2637,1.07227 -0.043,1.05416 0.1932,1.64479 0.5254,1.3125 0.3323,-0.3323 0.3695,-1.1961 0.08,-1.91797 -0.1296,-0.32408 -0.2464,-0.47709 -0.3418,-0.4668 z m 12.1074,27.44336 c -0.1397,0.017 -0.2408,0.62813 -0.2539,1.71094 -0.02,1.65 0.187,2.44656 0.461,1.76953 0.2738,-0.67703 0.2912,-2.02703 0.037,-3 -0.087,-0.33446 -0.1711,-0.48936 -0.2442,-0.48047 z m -15.5332,15.33398 c -0.3474,-0.0143 -0.7425,0.0509 -1.1035,0.19532 v -0.002 c -0.7978,0.31922 -0.5614,0.55747 0.6035,0.60547 1.0542,0.0434 1.6448,-0.1931 1.3125,-0.52539 -0.1661,-0.16612 -0.4651,-0.25913 -0.8125,-0.27344 z m -1.4941,3.25 c -0.085,10e-4 -0.1555,0.0285 -0.2071,0.0801 -0.275,0.275 0.078,1.1953 0.7852,2.04688 0.7067,0.85158 1.5102,1.32383 1.7852,1.04883 0.275,-0.275 -0.079,-1.19725 -0.7852,-2.04883 -0.5742,-0.69191 -1.2115,-1.13335 -1.5781,-1.12696 z m 14.5996,5.64454 v 0.002 0.002 0.002 0.002 0.002 c 0.01,0.0876 0.4789,0.65039 1.3867,1.72266 1.0477,1.2375 2.0602,2.25 2.25,2.25 0.8002,0 0.2101,-0.80354 -1.9043,-2.59375 -1.0722,-0.90785 -1.6331,-1.38346 -1.7207,-1.38867 z" />
    <g
       id="path204"
       style="opacity:1">
      <path
         style="baseline-shift:baseline;display:inline;overflow:visible;vector-effect:none;fill:#800000;fill-rule:evenodd;enable-background:accumulate;stop-color:#000000;stop-opacity:1"
         d="m 2746.6932,481.51788 c -512.8404,-420.379723 -512.8404,-420.379723 0,0 z"
         id="path206" />
      <path
         style="baseline-shift:baseline;display:inline;overflow:visible;vector-effect:none;fill:#800000;fill-opacity:0;fill-rule:evenodd;enable-background:accumulate;stop-color:#000000;stop-opacity:1"
         d="m 2724.9805,457.16797 -0.3555,0.32226 c 11.341,12.60118 16.8131,18.6494 19.4512,21.54688 1.319,1.44874 1.9287,2.10936 2.2109,2.41016 0.1411,0.15039 0.1967,0.20624 0.2305,0.23828 0.01,0.008 0.013,0.0136 0.031,0.0273 0,0.003 0.019,0.0135 0.02,0.0137 3e-4,2.1e-4 0.054,0.0253 0.055,0.0254 10e-5,3e-5 0.082,0.0117 0.082,0.0117 0,0 0.1542,-0.0625 0.1543,-0.0625 0,-3e-5 0.074,-0.14643 0.074,-0.14648 0,-6e-5 -0,-0.0781 -0,-0.0781 0,-1.6e-4 -0.017,-0.0564 -0.017,-0.0566 -10e-5,-2.3e-4 -0.01,-0.0149 -0.012,-0.0195 -0.01,-0.009 -0.01,-0.014 -0.012,-0.0176 -0.01,-0.007 -0.01,-0.0117 -0.01,-0.0117 l -0.01,-0.008 -21.8965,-24.19336 z"
         id="path207" />
    </g>
  </g>
</svg>
