<?xml version="1.0" encoding="UTF-8" standalone="no"?>
<!-- Created with Inkscape (http://www.inkscape.org/) -->

<svg
   version="1.1"
   id="svg1"
   width="275.02728"
   height="399.37244"
   viewBox="0 0 275.02728 399.37244"
   sodipodi:docname="weapon.svg"
   xml:space="preserve"
   inkscape:version="1.4.4 (dcaf3e7, 2026-05-05)"
   inkscape:export-filename="unique_weapon.svg"
   inkscape:export-xdpi="96"
   inkscape:export-ydpi="96"
   xmlns:inkscape="http://www.inkscape.org/namespaces/inkscape"
   xmlns:sodipodi="http://sodipodi.sourceforge.net/DTD/sodipodi-0.dtd"
   xmlns="http://www.w3.org/2000/svg"
   xmlns:svg="http://www.w3.org/2000/svg"><sodipodi:namedview
     id="namedview1"
     pagecolor="#ffffff"
     bordercolor="#000000"
     borderopacity="0.25"
     inkscape:showpageshadow="2"
     inkscape:pageopacity="0.0"
     inkscape:pagecheckerboard="0"
     inkscape:deskcolor="#d1d1d1"
     inkscape:zoom="2.0000001"
     inkscape:cx="151.49999"
     inkscape:cy="246.24999"
     inkscape:window-width="1920"
     inkscape:window-height="1009"
     inkscape:window-x="2552"
     inkscape:window-y="143"
     inkscape:window-maximized="1"
     inkscape:current-layer="svg1" /><defs
     id="defs1" /><path
     d="m 212.78361,221.71255 c 6.4212,7.81345 13.59592,14.99837 20.48761,22.40053 5.59522,-0.27091 1.87566,7.79996 6.38898,8.64308 -0.68681,-3.36411 -2.045,-10.3142 2.84854,-5.39593 2.28291,-3.56113 0.79484,-2.67063 -2.20518,-2.37818 -1.69358,-1.49214 -0.27303,-4.38925 -0.54422,-6.48969 0.58183,-9.60543 0.87569,-19.23256 1.64913,-28.82355 2.55711,3.78958 9.35524,9.12061 13.15264,13.83951 7.50607,9.35883 13.34531,20.59176 14.40801,32.68504 -0.31353,1.64193 -7.65082,2.7907 -3.78003,-0.0809 -6.21818,-0.20096 -8.13811,9.30151 -10.1362,14.19016 -2.45036,2.00446 -0.17375,8.51852 0.86659,8.25171 2.11002,-6.87477 3.13603,-15.25988 9.57552,-19.61186 3.92825,-3.13071 10.24011,5.31651 9.25196,6.30492 -6.09682,-3.58415 -10.66133,5.73349 -11.56256,10.76651 -2.68637,3.85548 4.67761,9.83509 -0.55909,10.79005 -0.48982,2.4788 0.46508,3.04699 1.53243,0.5283 -1.45865,4.93427 -0.24563,10.11331 -0.022,15.14967 -0.95893,-4.236 -1.03721,-8.89034 -3.44779,-12.61103 -4.39955,-2.19065 -8.18092,4.38282 -3.36508,6.98445 2.23892,2.68763 4.53936,5.32317 6.81085,7.98319 -3.73313,-0.42384 -9.607,0.3267 -7.58703,5.63139 -4.14404,3.36127 -4.28921,9.73896 -4.87739,15.00044 -0.36207,3.14562 0.20124,4.7575 -2.85503,2.98712 -2.67206,0.68893 -4.23545,0.29816 -3.23049,-2.7205 0.40895,-4.89675 0.71153,-9.95736 2.60079,-14.53991 0.57696,-1.71296 8.95755,-0.88574 5.84776,-1.33117 -2.72947,0.3556 -5.26783,-1.26309 -6.26473,-2.69875 -0.003,2.63366 -2.96118,9.85128 -2.2492,3.21487 -2.54298,1.56484 -2.38164,9.71142 -2.93808,13.98116 -1.16796,3.23855 2.1103,14.4314 -3.75933,11.2431 -4.58547,-2.6201 -12.14672,-8.59756 -11.5459,-12.0743 -4.71554,-2.45 -6.06638,-9.3345 -8.51572,-14.01678 -0.6606,-2.34362 -2.93444,-5.5363 -1.59338,-1.11139 2.8207,11.15088 9.28676,22.02183 19.24109,28.14191 3.81346,2.77911 8.37392,2.27498 6.49689,-3.32726 -0.0193,-3.3299 0.62202,-6.60068 1.20143,-9.86364 0.36692,6.58174 1.02051,13.25967 2.57934,19.59185 -5.77323,0.22232 -11.33072,-3.66968 -15.70801,-7.29285 -10.5528,-9.78824 -16.21677,-23.97564 -18.27942,-37.98411 -1.74105,-6.63662 5.16725,-6.38242 9.41787,-6.70882 -1.35852,5.00082 -8.94311,3.68219 -10.00904,3.77852 4.9528,4.9721 12.38133,0.41028 14.77227,-4.94344 1.53965,-2.66156 5.03097,-9.97965 0.99806,-9.96083 2.05869,3.05706 -2.47484,11.59616 -3.64303,10.07056 3.80012,-5.45248 -0.75925,-12.48832 4.19991,-17.3265 2.86479,-5.31911 -5.56542,-9.08983 -3.69623,-14.9918 -2.94471,-6.81368 -8.75401,-12.20016 -10.78125,-19.39642 -0.68572,-0.2456 0.79692,-2.68287 0.12386,-2.2706 m 18.77904,78.64914 c 3.11562,-3.88376 4.95868,-8.92115 8.77752,-11.6673 0.19475,-6.46223 -5.69818,3.42114 -7.15141,5.4157 -0.76774,2.16868 -4.10375,6.57175 -2.18304,1.40895 1.92078,-6.85604 2.45457,-14.10084 2.27807,-21.19382 -1.66738,2.61117 -1.34995,11.0026 -2.87153,15.69086 -0.19702,3.87724 -2.40208,9.65775 -1.11318,12.53802 0.84332,-0.63537 1.54128,-1.43403 2.26357,-2.19241 z m 6.22451,-11.34224 c 1.87038,-2.29751 2.25577,1.2212 0,0 z m 12.27926,0.26508 c -5.98826,0.37249 -2.10092,-8.00782 -0.95202,-12.04077 0.79389,-6.78816 6.43141,-8.26823 12.14404,-6.70137 3.93466,-2.01033 -5.47346,-3.25644 -7.46792,-3.94682 -3.20565,-1.17161 -2.88304,-1.34316 -2.47566,-2.66776 -4.56697,-7.52997 -10.11084,-14.46964 -14.07958,-22.36009 -3.46096,2.51111 -4.36689,9.34732 -6.5237,13.70584 -4.43386,6.07547 0.97892,11.44279 4.10746,16.56468 3.82919,5.6609 6.91717,11.8749 11.12484,17.23964 0.8852,0.92447 4.04153,2.8091 4.12254,0.20665 z m -6.67613,-6.73884 c -3.67285,-6.61739 -7.88704,-12.91293 -11.91086,-19.31852 1.1991,-5.43956 2.31908,-11.05703 5.10874,-15.92322 4.987,5.88626 9.14772,12.59396 12.97968,19.29878 -2.50147,4.16397 -3.70208,9.45125 -4.50678,14.10375 -0.65582,1.98446 0.59746,6.82177 -1.67078,1.83921 z m 2.66566,-13.17939 c -1.27776,-1.19959 -1.31993,-5.26536 -4.4315,-4.48531 4.07248,-2.52267 -2.69787,-7.01094 -3.49131,-9.80955 -1.97025,2.90616 -1.21591,2.01034 0.71236,1.02748 2.75506,3.92489 -4.75341,4.95562 0.26862,7.62033 2.87959,1.27134 5.96394,12.87529 6.94183,5.64705 z m -7.16462,-3.19844 c -1.37349,-0.0618 0.65733,9.27298 0.38249,3.60873 0.0674,-1.20847 0.11762,-2.46882 -0.38249,-3.60873 z m -8.76129,-4.9914 c 0.0576,-2.53443 2.77378,-10.4507 3.62734,-9.26137 -1.13882,2.82798 -1.71208,7.6085 -3.62734,9.26137 z m 23.19197,24.87525 c -1.45292,-4.98423 -0.90345,2.09654 0.25523,2.72286 0.13637,-0.88766 0.41657,-1.96795 -0.25523,-2.72286 z m -0.75538,-4.30038 c -1.26511,0.65336 0.79613,2.20222 0,0 z m 7.85333,-18.44509 c 1.74935,-5.0196 -3.05578,2.04298 -0.33897,0.67196 z m -8.99696,-9.5392 c -0.27034,-2.71764 1.98272,-10.84657 2.79981,-15.45344 -0.10601,-3.40811 1.14508,-8.22809 0.58496,-10.65063 -4.08974,4.36485 -6.44331,9.87492 -9.17093,15.08433 -2.23984,4.44734 -7.93588,-2.1176 -3.38643,-3.33248 2.21821,-9.76042 1.79832,-19.95328 1.53651,-29.90218 -1.232,-7.99631 6.20853,2.91815 7.98915,4.85908 5.2648,7.14193 10.54865,14.85551 11.77719,23.85061 1.03652,1.64826 1.29948,6.25963 1.19913,1.42477 -0.71302,-10.86874 -6.16368,-21.14504 -13.39025,-29.11026 -2.64997,-2.46271 -5.65418,-4.5054 -8.47784,-6.76152 -3.08316,7.57594 -0.63076,15.96865 0.10788,23.78348 1.77892,4.2789 -1.31817,7.50087 -2.6208,11.42538 -1.68403,2.17354 -0.41602,4.20735 0.84703,6.2181 3.53176,3.63587 8.09553,-4.84882 9.43153,-8.38717 -0.14753,-2.97737 3.27416,-5.60473 1.54077,-1.00384 -1.19549,6.3068 -1.69285,12.96148 -3.31912,19.05355 1.79675,6.63048 3.33481,-5.21094 2.55141,-1.09778 z M 229.4705,262.3348 c -1.26512,0.65333 0.7961,2.20225 0,0 z m -2.56942,-4.50036 c 1.15162,-5.00316 4.71667,-9.88085 10.14257,-10.4521 -4.31906,-5.03211 -10.48592,2.94575 -10.63858,7.76064 -0.96288,2.72954 -0.61171,8.52958 0.49601,2.6912 z m 7.31016,-0.86408 c 1.1624,1.03373 -1.28548,-1.96302 -1.84217,1.37851 -0.42745,2.88287 1.64726,-3.23 1.84217,-1.37851 z m 3.14162,-3.93578 c 1.12388,-3.30667 -7.31941,-5.92414 -6.76106,-0.24338 1.61542,5.04619 3.81648,0.50901 6.76106,0.24338 z M 223.8271,252.5296 c -0.59112,-2.61313 -7.5834,-11.6049 -3.44181,-4.48104 0.76571,0.53826 4.55972,7.92955 3.44181,4.48104 z m 3.8495,-5.15044 c 3.1601,-1.86848 5.62797,-3.93871 1.60572,-7.03431 -3.13273,-2.71401 -3.66737,-8.91406 -9.34729,-10.57511 -7.95325,-1.85187 -6.71324,-10.66164 -11.93089,-15.27465 -2.02413,-3.36195 -11.42453,-5.6593 -7.96301,0.83106 3.04256,2.41962 2.68578,8.17947 2.92871,10.18563 -0.17458,-4.14908 3.46518,-2.51586 6.35754,-4.40154 -2.62814,1.94695 -5.75373,3.49299 -0.69962,5.52739 4.83963,2.45501 10.05728,7.12497 15.08337,7.39991 1.59479,1.3482 -9.90198,7.74393 -4.90513,9.66297 4.90539,1.06583 2.55438,-10.96857 6.41003,-4.33747 4.38181,2.57504 -5.60396,3.14499 -0.3085,5.76324 0.40375,0.77014 1.83941,4.70046 2.76907,2.25288 z m -2.07573,-3.70024 c 3.99985,-4.84308 1.91963,0.61599 0,0 z m -0.33234,-5.91729 c 2.97606,0.61452 1.00294,0.23438 0,0 z m -23.86061,-21.5589 c 1.80828,-3.51861 6.2161,0.34569 1.20123,0.12938 -0.11034,0.0963 -1.19026,0.44659 -1.20123,-0.12938 z m 15.80013,19.14035 c -5.29356,-5.06985 -12.43415,-7.68949 -18.17798,-12.18793 -2.21766,-4.15901 1.36651,-7.79695 4.82888,-4.01213 5.71375,2.30464 12.09487,3.4261 17.17597,7.00191 1.99649,4.04503 -2.74583,11.21069 -1.73602,13.38444 -0.535,-1.46993 -1.32675,-2.8277 -2.09085,-4.18629 z M 251.045,351.12914 c -2.38707,-3.94096 3.74475,4.55693 0,0 z m -8.22443,-3.53491 c -1.73827,-4.47966 2.73278,2.76428 0,0 z m -0.10011,-3.48989 c 2.9729,0.61367 1.00186,0.2341 0,0 z m 8.74624,-9.30317 c 0.01,-4.26379 0.53488,4.54806 0,0 z m -6.46849,-18.90903 c 0.17368,-2.20211 0.80109,2.41627 0,0 z m -36.29745,-7.07494 c -1.31358,-5.61961 1.09693,-0.17728 0.87481,2.48771 -0.54665,-0.72037 -0.60726,-1.65761 -0.87481,-2.48771 z m 52.45053,-10.87735 c -0.97162,-3.23361 0.74148,-5.58661 0.72631,-0.85106 0.26893,0.93292 -0.0465,3.59325 -0.72631,0.85106 z m -4.28241,-6.06271 c 2.32531,-1.89459 4.4312,-0.81937 0.67734,0.0178 0.21065,-0.0574 -2.48686,1.5085 -0.67734,-0.0178 z m -49.71749,-6.542 c -3.2357,-3.62221 0.0193,-1.92322 0.66735,0.50499 z m 35.80993,-81.26252 c 6.62391,3.87231 12.82282,8.71139 16.74836,15.42719 6.079,9.04802 12.86695,18.34597 14.86996,29.27012 0.10836,2.82318 -0.0251,10.82153 -1.43206,4.15143 -6.4045,-18.2198 -18.20099,-33.95081 -30.18626,-48.84874 z"
     style="display:inline;fill:#050201;stroke-width:0.478569"
     id="path1-5-4" /></svg>
