<?xml version="1.0" encoding="UTF-8" standalone="no"?>
<!-- Created with Inkscape (http://www.inkscape.org/) -->

<svg
   width="24mm"
   height="24mm"
   viewBox="0 0 24 24"
   version="1.1"
   id="svg1"
   sodipodi:docname="rysunek.svg"
   inkscape:version="1.4.4 (dcaf3e7, 2026-05-05)"
   xmlns:inkscape="http://www.inkscape.org/namespaces/inkscape"
   xmlns:sodipodi="http://sodipodi.sourceforge.net/DTD/sodipodi-0.dtd"
   xmlns="http://www.w3.org/2000/svg"
   xmlns:svg="http://www.w3.org/2000/svg">
  <sodipodi:namedview
     id="namedview1"
     pagecolor="#ffffff"
     bordercolor="#000000"
     borderopacity="0.25"
     inkscape:showpageshadow="2"
     inkscape:pageopacity="0.0"
     inkscape:pagecheckerboard="0"
     inkscape:deskcolor="#d1d1d1"
     inkscape:document-units="mm"
     inkscape:zoom="16.710735"
     inkscape:cx="20.675333"
     inkscape:cy="17.802928"
     inkscape:window-width="1920"
     inkscape:window-height="1009"
     inkscape:window-x="2552"
     inkscape:window-y="143"
     inkscape:window-maximized="1"
     inkscape:current-layer="layer1" />
  <defs
     id="defs1">
    <inkscape:path-effect
       effect="fillet_chamfer"
       id="path-effect85"
       is_visible="true"
       lpeversion="1"
       nodesatellites_param="F,0,0,1,0,0,0,1 @ F,0,0,1,0,0,0,1 | F,0,0,1,0,0,0,1 @ F,0,0,1,0,0,0,1 | F,0,0,1,0,0,0,1 @ F,0,0,1,0,0,0,1 | F,0,0,1,0,0,0,1 | F,0,0,1,0,0,0,1 | F,0,0,1,0,0,0,1 @ F,0,0,1,0,0,0,1 | F,0,0,1,0,0,0,1 @ F,0,0,1,0,0,0,1 @ F,0,0,1,0,0,0,1 @ F,0,0,1,0,0,0,1 | F,0,0,1,0,0,0,1 | F,0,0,1,0,0,0,1 @ F,0,0,1,0,0,0,1 @ F,0,0,1,0,0,0,1 @ F,0,0,1,0,0,0,1 @ F,0,0,1,0,0,0,1 @ F,0,0,1,0,0,0,1 @ F,0,0,1,0,0,0,1 @ F,0,0,1,0,0,0,1 @ F,0,0,1,0,0,0,1 @ F,0,0,1,0,0,0,1 @ F,0,0,1,0,0,0,1 @ F,0,0,1,0,0,0,1 @ F,0,0,1,0,0,0,1 @ F,0,0,1,0,0,0,1 @ F,0,0,1,0,0,0,1 @ F,0,0,1,0,0,0,1 @ F,0,0,1,0,0,0,1 @ F,0,0,1,0,0,0,1 @ F,0,0,1,0,0,0,1 @ F,0,0,1,0,0,0,1 @ F,0,0,1,0,0,0,1 @ F,0,0,1,0,0,0,1 @ F,0,0,1,0,0,0,1 | F,0,0,1,0,0,0,1 | F,0,0,1,0,0,0,1 @ F,0,0,1,0,0,0,1 | F,0,0,1,0,0,0,1 | F,0,0,1,0,0,0,1 | F,0,0,1,0,0,0,1 | F,0,0,1,0,0,0,1 | F,0,0,1,0,0,0,1 @ F,0,0,1,0,0,0,1 @ F,0,0,1,0,0,0,1 @ F,0,0,1,0,0,0,1 | F,0,0,1,0,0,0,1 @ F,0,0,1,0,0,0,1"
       radius="0"
       unit="px"
       method="auto"
       mode="F"
       chamfer_steps="1"
       flexible="false"
       use_knot_distance="true"
       apply_no_radius="true"
       apply_with_radius="true"
       only_selected="false"
       hide_knots="false" />
  </defs>
  <g
     inkscape:label="Warstwa 1"
     inkscape:groupmode="layer"
     id="layer1">
    <path
       id="path7"
       style="display:inline;fill:#000000;fill-rule:evenodd;stroke:#000000;stroke-width:1.46045;stroke-linecap:round;stroke-linejoin:round;stroke-miterlimit:3.5;stroke-dasharray:none;stroke-opacity:1;paint-order:stroke markers fill"
       d="m 8.0930657,2.4307056 c 2.0565263,1.0490369 3.1890713,1.0261484 5.3133873,1.9076337 0.443465,0.1612463 2.145105,1.0759084 1.01525,0.498292 C 11.977758,3.7467053 10.579852,3.417392 8.0930657,2.4307056 Z M 14.931048,5.108416 c 0.385691,0.3838626 2.411765,2.9604064 2.476795,2.994347 C 16.783114,7.1782579 15.374111,5.4942988 14.931048,5.108416 Z M 3.6510243,3.5671956 C 3.6162894,3.3458232 2.6803173,6.4128077 2.2895357,8.0017603 2.111338,8.8980112 2.5670599,6.6962293 2.7136718,6.2580147 3.7856966,2.5333801 4.2690948,1.6546267 7.747737,2.3783616 7.3690929,2.403178 7.0144044,2.2212268 6.6447689,2.1826876 6.1639199,2.1325528 5.7195821,2.1068057 5.2526574,2.2848444 4.834864,2.3618014 4.454265,2.5037972 4.1950053,2.8579688 Z M 17.407555,8.2023074 c 1.223268,2.2956136 0.385174,4.9892286 -0.578021,7.2146996 -0.560142,1.823922 -0.135205,4.030317 1.26307,5.372759 -1.596257,-1.545875 -1.843996,-4.146431 -0.940125,-6.117571 0.751481,-2.03286 1.490172,-4.463679 0.255076,-6.4698876 z M 1.987703,10.271695 c -0.0047,0.309765 -0.019179,0.458125 0,0 z m -0.2173156,0.962838 c 0.014003,0.872563 0.1030432,1.759772 0.07018,2.623187 -0.2412256,0.335577 0.1525259,0.671346 0.014164,1.060635 C 1.5111099,15.658063 1.6643981,16.485505 1.2290272,17.25959 0.86671551,17.962459 0.71395395,18.912981 0.56453923,19.755863 1.069063,20.297395 2.9101371,20.033332 2.4857338,18.787054 2.6362643,17.85405 2.7957579,17.070451 2.874526,16.108978 3.1057196,15.462217 2.878806,14.592488 3.216362,13.998448 3.053372,13.403778 2.9961542,12.777618 2.8743012,12.170701 3.25142,11.446206 2.1357695,11.487569 1.7703874,11.234533 Z m 16.4439756,9.64814 0.14431,0.113954 z m 0.170156,0.134128 c 0.108555,0.07473 0.442471,0.304611 0,0 z m 0.287416,0.195202 0.14564,0.08188 z m 0.401493,0.221549 0.19078,0.08736 z m 0.256828,0.116163 0.114476,0.04519 z m 0.462034,0.160473 0.206268,0.04974 z m 2.393022,0.01676 c -0.588606,0.142571 -2.455215,0.178147 -0.908413,0.07662 0.291837,-0.02995 0.659344,-0.06185 0.908413,-0.07662 z m -2.111977,0.0497 0.05671,0.009 z"
       inkscape:label="path7"
       sodipodi:nodetypes="cccccccccccsccccccccccccccccccccccccccccccccccccccccccc" />
    <path
       style="display:inline;fill:#000000;fill-rule:evenodd;stroke:#000000;stroke-width:0.278909;stroke-linecap:round;stroke-linejoin:miter;stroke-miterlimit:3.5;stroke-dasharray:none;stroke-opacity:1;paint-order:stroke markers fill"
       id="path70"
       d="M 3.8680726,11.781398 C 2.8775788,11.206757 3.8956422,10.624979 3.108241,9.947631 3.023071,9.5930145 3.0280088,8.9638896 2.8252045,8.6667607 2.4046085,8.050545 1.6314943,7.622648 1.2358889,7.0111508 1.0129105,6.6664877 1.0367076,6.1924398 0.99961242,5.7679898 0.93161801,5.3704338 0.78226766,4.9782681 0.98332084,4.8308279 1.4684493,4.4750645 2.7712415,4.8984733 3.3274566,5.4334735 3.7184852,5.7100385 4.7091925,6.1634115 3.7880524,5.6349321 3.1177191,5.1928674 3.1073802,5.342207 3.8149859,5.6678125 4.7716111,6.3969153 6.776237,7.1652705 6.6313584,5.3272481 6.6750779,4.3899008 7.0510655,2.4090271 8.1697332,2.3201546 8.9633222,1.4405103 8.4978135,1.3756951 8.470537,0.47136701 8.9338002,-0.155293 9.7663197,0.92675115 10.664002,1.8213113 c 0.22635,0.2255632 0.380119,0.357272 0.471598,0.451699 0.146819,0.1515505 0.133188,0.2070682 0.0017,0.400432 -0.186283,0.4108209 0.739154,0.5676682 0.926528,1.2998081 0.898285,0.8712003 -0.278947,2.41779 1.191341,2.9889404 1.354403,0.3678507 1.152019,-1.3087436 2.417884,-1.3475724 0.992228,-0.4907439 -0.104331,0.3909253 1.490663,0.1186492 1.433933,-0.4462513 2.62419,1.1671479 2.845218,2.0150751 0.212099,0.9361903 -0.144769,1.7747275 -0.699966,2.3932943 -0.32742,0.364791 -1.51066,-0.0094 -1.358767,0.562353 -0.758932,0.746854 -2.089645,1.065289 -2.339588,2.198976 -0.404296,1.062216 -0.01634,2.448785 1.186254,2.95966 0.2631,0.285579 0.891154,-0.06446 1.190883,0.363355 l 0.655699,0.935894 0.566497,0.700698 0.267292,0.840311 0.195101,1.734919 -0.267806,2.630472 c -0.121076,1.189253 2.656019,1.084184 3.011674,-0.133622 0.257662,-0.41294 0.35162,-2.000121 0.115469,-0.797515 0.011,1.303295 -2.170066,2.270669 -2.783212,0.799603 l 0.1661,-1.829098 c -0.02513,-1.202744 -0.133222,-2.534472 -0.435105,-3.290833 -0.220199,-0.551705 -1.228204,-1.764893 -2.285673,-2.101564 -0.587713,-0.396018 -0.630595,0.05235 -0.651364,0.02662 -1.584606,-1.01292 -1.282594,-3.37076 0.313255,-4.25286 0.371641,-0.491121 1.627007,-0.210971 2.4556,-1.7718826 0.715396,-1.3477694 1.134427,-1.9085366 0.137586,-3.7473783 -1.077585,-1.1415872 -1.9638,0.3032697 -3.070117,-0.011152 -1.42321,0.2140334 -0.175646,0.9528554 -1.522851,1.06824 C 13.456946,7.4264416 12.046237,6.4348831 12.147275,5.141213 12.039508,4.3128573 12.201619,3.7943499 11.472021,2.8752078 11.24886,2.2558661 11.461165,2.0565853 10.960717,1.5475147 10.821092,1.4054832 10.703434,1.2539962 10.592843,1.1024211 10.297393,0.69748017 10.052385,0.29190994 9.5737064,0.06431903 8.5490353,-0.24777083 8.8235654,1.8670865 7.7984007,1.8387404 7.498596,2.4485578 7.0911483,1.8452436 7.0503275,1.9846032 7.0095068,2.1239628 7.4396319,1.8976817 7.6635348,2.1464916 7.0900925,2.928305 6.7674419,6.4101399 5.2498613,6.0792449 4.7536119,5.965511 3.9084829,5.1749215 3.6949454,5.0999752 L 2.0152885,4.510458 C 0.89580455,4.1175475 0.17187343,4.704524 0.71410642,5.877701 c 0.0576423,0.5306706 0.19947832,3.4939993 0.33988678,5.076251 0.0615,0.693042 0.5597848,0.84459 0.3151361,0.87603 0.5627269,1.271871 0.4009003,-0.993802 1.6444206,-0.138269 0.691113,0.561356 0.5113086,1.057296 0.2883901,1.420887 0.2155794,-0.391409 0.6449312,-0.943547 0.5661326,-1.331202 z"
       sodipodi:nodetypes="ccsscsccccccssccccccacccsccccsccccscccscccccsscccccsscscccc" />
  </g>
</svg>
