<?xml version="1.0" encoding="UTF-8" standalone="no"?>
<!-- Created with Inkscape (http://www.inkscape.org/) -->

<svg
   width="148.91188mm"
   height="202.02888mm"
   viewBox="0 0 148.91188 202.02888"
   version="1.1"
   id="svg1"
   xml:space="preserve"
   sodipodi:docname="weapon.svg"
   inkscape:export-filename="unique_weapon.svg"
   inkscape:export-xdpi="96"
   inkscape:export-ydpi="96"
   inkscape:version="1.4.4 (dcaf3e7, 2026-05-05)"
   xmlns:inkscape="http://www.inkscape.org/namespaces/inkscape"
   xmlns:sodipodi="http://sodipodi.sourceforge.net/DTD/sodipodi-0.dtd"
   xmlns="http://www.w3.org/2000/svg"
   xmlns:svg="http://www.w3.org/2000/svg"><sodipodi:namedview
     id="namedview1"
     pagecolor="#ffffff"
     bordercolor="#000000"
     borderopacity="0.25"
     inkscape:showpageshadow="2"
     inkscape:pageopacity="0.0"
     inkscape:pagecheckerboard="0"
     inkscape:deskcolor="#d1d1d1"
     inkscape:document-units="mm"
     inkscape:zoom="0.76769471"
     inkscape:cx="63.827456"
     inkscape:cy="431.81228"
     inkscape:window-width="1920"
     inkscape:window-height="1009"
     inkscape:window-x="2552"
     inkscape:window-y="143"
     inkscape:window-maximized="1"
     inkscape:current-layer="layer1"
     showguides="false" /><defs
     id="defs1" /><g
     inkscape:groupmode="layer"
     id="layer1"
     inkscape:label="Layer 1"><path
       d="m 62.543727,87.411974 c -0.96657,1.449056 -5.271902,1.944834 -2.835068,4.790533 -0.763083,1.656183 -0.523669,3.995191 0.305028,0.947117 -0.40094,-1.442288 3.036655,1.203486 1.387876,1.535224 0.508104,1.723659 4.864967,3.764127 3.416607,6.964652 -1.889257,3.69489 -5.482962,-0.54299 -5.405682,-3.32306 -2.691962,-1.292078 -1.807002,-5.633313 -5.565051,-5.795106 -1.912802,-1.184939 -3.086362,-2.392308 -3.817545,-4.479753 -0.764451,-1.835041 1.449907,-3.354761 -0.450725,-4.651507 -0.40601,-2.050794 -3.182783,-2.463037 -2.669633,-3.932909 -3.42504,-2.56081 -0.166969,7.441955 -2.321108,1.659862 0.831994,-2.733428 -2.433189,-0.779048 -0.133426,-2.802804 -3.673291,0.643535 0.01602,-4.347638 -1.863423,-4.742394 -1.271597,-2.012122 0.687476,0.204726 0.0038,-1.697948 2.231711,3.064396 -0.589026,-3.188322 -1.731304,-3.750489 -2.408147,-3.108302 -1.796007,1.372306 -1.975957,0.648504 0.150512,-4.202152 -5.346256,0.0463 -4.255233,-0.845942 -1.657896,-3.160431 -0.206771,9.587869 -1.185899,3.161441 0.154197,-2.114767 -0.757613,-4.767982 -1.502161,-4.531516 -1.914799,-2.711431 -4.842574,3.269016 -5.47574,3.615036 0.103994,-0.913876 -1.017219,0.0789 0.03428,-1.49991 -3.731251,0.0025 -3.151116,4.466523 -0.510156,2.653391 -1.745841,1.127967 -1.36424,2.060884 -1.995739,1.55584 -0.05405,2.59914 -0.886786,2.549048 -0.244135,0.668406 -1.265401,-0.829141 -1.574041,5.008386 -1.97392,5.379242 -1.873915,-0.718065 -3.880236,4.169351 -3.29834,6.50425 0.274514,-1.929597 -0.730883,-4.094297 -1.299205,-0.93004 -1.25456,1.88647 0.880534,6.194618 -0.223134,5.72989 -2.114604,-0.551307 -0.58853,-5.42435 -1.269456,-5.087444 -2.530327,1.611064 1.411455,4.740108 -1.468248,1.865138 -3.758331,-2.069963 0.64276,-5.793904 -0.611835,-7.610486 -2.466248,0.715984 -1.062881,6.919029 -1.769581,2.159462 1.096395,-3.042164 4.244126,-4.470066 5.425904,-6.092347 -0.04782,3.128718 0.991263,4.877107 0.549926,0.921907 1.349853,-2.40056 -0.187743,-0.507678 0.574769,-2.96974 -0.930123,-0.620103 -0.845412,-1.12269 -2.200129,0.743757 1.156749,-3.43687 -4.189767,3.977062 -1.98957,0.172174 1.67315,-0.505711 1.530173,-1.223144 0.969138,-1.651776 1.817576,0.02581 1.48025,-1.12292 2.702421,-2.907559 0.223389,0.02005 -1.621902,2.713909 0.11793,0.66501 0.906495,1.826598 0.957922,6.466211 1.69572,5.887087 -0.892406,1.684266 -1.732083,5.030125 0.49204,1.815946 2.693802,-3.424927 -0.0216,-3.451599 -0.41736,-3.038194 -0.407892,-2.391551 0.771913,-1.446228 0.63676,-2.648671 1.382543,-1.398228 1.789754,-3.639577 0.121125,-0.69175 -3.420858,3.687782 3.341696,-5.198257 -0.811987,-0.970297 -1.015291,1.029269 3.95881,-4.018136 1.793859,-3.041953 -0.024,-2.142863 -3.560554,5.85211 -2.429018,0.554197 1.660745,-1.191712 3.020233,-4.298545 3.343083,-0.288897 0.267691,1.689016 0.485771,6.123153 1.174496,1.912429 -0.296902,-2.669576 1.850914,-4.810637 3.548752,-5.811333 -1.38142,2.60876 3.812047,-1.267175 0.977216,-0.55403 2.532447,-1.203163 -0.424145,-0.586285 -0.439236,-1.027132 4.165974,-3.090971 -0.274825,4.824599 0.682119,4.224792 1.762121,-1.291439 3.553928,-7.236522 8.142521,-5.5223 1.321185,0.723145 0.994261,0.586253 1.70308,0.537047 0.957553,2.192729 1.946715,3.779943 -1.06402,4.643698 2.111524,0.04291 5.058197,-2.976556 6.57414,-0.890452 1.535533,1.35122 -0.128455,7.286942 0.52511,6.682348 1.044313,-0.731243 0.253516,-3.901376 1.54096,-2.39146 -0.959234,-1.171063 -1.192179,-5.066061 0.28391,-2.13902 0.155204,0.131103 -1.048374,6.491681 0.39294,4.601466 0.459583,0.968526 -0.116602,-4.497456 0.297238,-0.721323 0.08469,-0.103424 0.517912,-2.318037 1.722478,-0.637409 0.115324,2.172589 -5.531528,6.142169 -2.005966,4.181742 0.39908,1.15526 3.329528,-2.985148 2.366621,-1.562599 -1.843289,2.238367 1.372525,-0.768731 1.098522,2.074584 2.708226,-0.717308 1.684631,2.470847 0.73651,4.1367 -1.256256,-1.528391 -0.143353,2.355809 1.130217,1.278568 -1.337362,1.942835 1.441872,-0.624802 -0.4195,1.64048 0.474364,0.01425 1.420949,0.05395 -0.324736,1.192196 4.005008,-0.183491 0.514439,-4.590046 2.981216,-1.805276 1.09684,-1.384414 3.605423,0.399553 0.850779,-0.32346 -2.045746,1.351633 0.533408,0.823606 0.357581,1.10405 0.860921,-1.425807 2.102729,-0.749505 0.180158,-0.01889 0.8117,0.67662 -2.884023,6.077709 0.0186,5.734599 0.703464,-1.416672 3.078136,-7.38511 1.838346,-2.795338 1.424832,1.528753 2.437431,-1.874338 2.56014,-1.99556 -0.661505,-1.549974 -0.26986,-1.503281 -1.839201,-1.886016 1.834265,1.417843 0.724757,1.409252 -0.725909,0.407647 2.330186,0.373549 -1.653226,-0.354747 0.58396,-1.567831 -0.07929,-2.055039 0.753214,-0.318387 1.43583,-0.20768 m 4.77704,21.527326 c 1.1799,-0.68197 0.661711,-3.593575 -0.773481,-3.254104 0.790198,2.184804 0.492717,3.710174 -1.348559,1.392954 -1.520851,-0.006 0.921087,3.55799 2.12204,1.86115 z m -2.42588,-0.32962 c -0.758937,-3.025906 -1.207175,0.14388 0,0 z m 1.71762,-2.229417 c -0.577723,-0.160251 0.478753,1.281177 0,0 z m -1.52287,-1.023834 c 0.358958,-0.714822 -0.791335,0.783298 0,0 z m 0.82244,-0.0676 c -0.340042,-0.504814 -0.164604,0.517405 0,0 z m 1.51259,-0.14188 c -1.152366,-1.114837 0.149267,1.149647 0,0 z m -2.42811,-0.34756 c -0.04014,-0.701226 -0.589648,0.929885 0,0 z m -0.45956,-0.220037 c -0.164789,-0.517396 -0.340097,0.504723 0,0 z m 0.0814,-0.535607 c 0.09289,-0.785164 -1.157198,0.641816 0,0 z m 0.56254,-0.0586 c -0.236818,-0.242901 0.120231,0.7941 0,0 z m -0.64197,-1.043794 c 0.244096,-1.396262 -2.145552,2.735212 0,0 z m -3.16469,0.502821 c -0.340039,-0.504808 -0.164574,0.517413 0,0 z m 2.51426,-0.695871 c 1.18605,-3.120976 -1.375741,1.378156 0,0 z m -0.42046,-1.07944 c 1.537596,-3.211434 -2.660743,2.802898 0,0 z m -1.40622,0.0705 c -0.09699,-0.680676 -0.05039,-0.25959 0,0 z m 0.0441,-1.45203 c 1.480249,-3.159409 -1.803195,1.0352 0,0 z m 0.34187,-0.0392 c -0.385979,0.268209 -0.169013,0.62684 0,0 z m 1.95166,0.29588 c -0.316077,-0.485052 -0.399655,0.268899 0,0 z m -4.46902,-1.1908 c 2.410219,-2.559263 -0.205621,-1.418055 -1.67884,-0.03492 -2.390818,-0.499822 1.14621,1.288284 1.67883,0.0349 z m -1.00806,-0.87395 c 1.838983,-0.629417 2.705919,-4.650047 0.33265,-1.71616 -1.203734,2.295461 -1.497649,1.369536 -3.38111,1.4036 0.502735,0.915089 2.294094,0.641585 3.04846,0.31256 z m -1.26082,-0.86013 c 1.959265,-0.996031 3.77684,-3.683841 1.583709,-2.503512 -0.144946,1.968973 -7.476751,0.645248 -2.874579,2.466592 0.919796,-0.258124 0.69815,0.09991 1.29087,0.03692 z m 3.63377,-0.65417 c -0.06509,-1.247697 -1.084362,0.905751 0,-1e-5 z m -4.9106,-1.13031 c 3.344496,-2.247352 -2.007962,-2.028003 -2.72257,-2.44192 0.259415,-1.455565 -1.626887,2.700483 1.19694,2.228397 0.518397,0.159252 0.946706,1.180075 1.52563,0.213523 z m -2.84842,-1.47076 c 0.319119,-1.475933 0.319141,1.475908 0,0 z m 9.35057,1.41881 c 1.829046,-3.142221 -0.554427,-2.177681 -1.3878,-1.21409 -0.459149,-0.143935 1.026824,1.887058 1.3878,1.21409 z m -43.127139,-1.0476 c -0.04975,-1.5982 -0.211468,-4.335144 -0.3034,-0.99556 0.08949,0.04457 0.161227,2.557512 0.3034,0.99556 z m -1.98094,-1.49589 c 0.150935,-2.073636 3.560007,-3.659351 2.13599,-4.50121 0.250145,-1.527171 0.830332,-4.25119 -0.21831,-1.138151 1.320013,1.616425 -3.741941,4.44377 -1.91768,5.639361 z m 44.035519,-5.43017 c -0.962399,-0.03605 2.612785,1.510808 -0.193224,0.470359 1.125251,1.325764 3.454863,2.511956 2.778374,4.268451 m -1.12508,-0.0993 c 0.240323,-1.264268 -0.760883,1.271696 0,0 z m -5.68416,-0.77233 c 0.68979,-3.411932 -1.812715,1.347525 0.0016,-0.5046 -0.07642,0.423213 -0.891062,2.160267 -0.0016,0.5046 z m -0.46116,0.31121 c 0.445638,-0.652735 -0.767463,0.747045 0,0 z m -39.345378,-2.02176 c 1.057361,-4.127817 -0.154371,2.932663 0.75387,-0.369965 0.487886,-1.114726 2.393158,-5.410905 1.654709,-5.732722 -1.124746,1.605993 -1.478611,2.880121 -0.882255,0.493527 -1.00445,-0.479724 -3.274407,6.085002 -1.935895,7.251659 0.173653,-0.53785 0.282044,-1.093153 0.409571,-1.642499 z m 39.135878,0.91389 c -0.27134,-1.334814 -2.155069,2.315681 -0.213349,0.345173 z m -40.510518,0.36308 c -0.443743,-1.294623 -0.427508,1.26931 0,0 z m 47.423458,-0.0526 c -0.565685,-0.987908 -0.379324,0.307639 0.10486,0.43482 z m -7.52921,-0.9498 c 1.008188,-0.634964 0.816108,-1.240379 -0.42281,0.123461 l 0.42312,-0.123381 z m -37.186778,-1.09032 c -0.221021,0.21158 0.214273,1.099166 0,0 z m 3.999608,-2.32059 c 2.343376,-3.122734 -0.491087,-1.608004 -1.011815,0.802312 0.486419,0.120013 0.662369,-0.70508 1.011815,-0.802312 z m 29.33977,-0.49218 c 1.407184,-1.204353 -1.844704,0.871703 0,0 z m 1.97877,-1.814825 c -0.675373,-2.913633 -0.03269,1.601309 -1.48568,-1.508883 0.22323,0.502078 -2.576238,3.178346 -1.36567,0.917276 -2.712887,1.901986 0.741067,0.733684 1.503223,2.405566 0.351068,0.02891 1.248042,-1.294934 1.348127,-1.813959 z m -1.17334,1.065175 c 0.866467,-2.332637 1.599281,-0.364924 0,0 z m 0.59976,-0.658657 c -0.116816,-0.7481 -0.32743,0.743832 0,0 z m -32.18597,0.01121 c 0.510803,-2.953458 -0.835943,-0.740032 -0.0337,0.81817 l 0.03379,-0.81817 z m -3.659498,0.45881 c -0.236818,-0.242823 0.120244,0.793998 0,0 z m 31.803668,-0.390609 c -2.007197,-1.1027 -0.503658,0.746962 0,0 z m -2.10062,-0.566111 c 1.169945,-3.16279 -3.205951,-0.719553 -0.102233,0.189074 l 0.102233,-0.189092 z m -23.20042,-0.07603 c 0.523072,-1.098641 -0.918091,0.7744 0,0 z m -4.316008,-1.428916 c 0.374855,-1.802408 -2.11036,2.711101 0,5e-6 z m 31.966078,-0.0167 c 0.308816,-1.999933 -1.200104,2.13084 0,0 z m 0.54298,0.181671 c 0.536506,-2.993893 -0.957463,1.174024 0,0 z m -2.15674,-0.50486 c -2.093759,-0.166312 -0.09963,1.368762 0,0 z m -24.95669,-1.308398 c 0.263595,-2.863144 -0.815215,2.164335 0,0 z m 22.16312,0.172282 c -0.372989,-1.254842 -0.478372,0.940151 0,0 z m -23.2703,-0.691187 c -0.500265,-0.721631 -0.556842,0.874831 0,0 z m -2.887679,-1.471983 c -0.717349,-0.86556 -0.275251,0.746544 0,0 z m -0.45504,-0.30657 c 0.605969,-1.146517 -1.245694,0.658659 0,0 z m 6.124389,0.128721 c -0.316115,-0.485068 -0.399583,0.269033 0,0 z m 21.72633,-1.124305 c -1.472075,-3.592553 -0.318184,1.187108 0,0 z M 21.937677,69.56942 c 0.683845,-1.298392 -1.073234,0.669473 0,-4e-5 z m -1.71288,-1.201404 c 2.060274,-3.121547 -3.273633,2.72683 0,0 z m 22.91667,0.236595 c -0.340049,-0.50479 -0.16485,0.517406 0,0 z m 0.82914,-0.417685 c 0.484982,-1.856113 -4.192881,-3.351932 -1.981153,-1.290016 -0.292879,-0.649769 2.206973,2.502267 1.981153,1.290016 z m -19.30043,-0.506969 c 1.49972,-1.746046 -1.475887,1.193748 -0.54339,-0.07923 -1.033453,1.188728 0.298716,0.605379 0.54339,0.07923 z m 17.37618,-0.0086 c -1.003407,-1.498433 0.769996,2.055171 0,0 z m -15.81839,-0.853544 c 3.300322,-2.22362 -1.342909,-0.04448 -1.03812,0.941092 l 0.421155,-0.362031 0.616905,-0.579061 z m 2.3196,0.887231 c -0.57215,-0.353121 -0.170804,-0.17123 0,0 z m -1.63207,-0.09337 c -0.350644,-0.508151 -0.350655,0.508148 0,0 z m 6.18788,-0.709413 c -0.350667,-0.508161 -0.350667,0.508161 0,0 z m 3.02519,-0.354713 c 1.69885,-1.230821 -4.783042,-2.005995 -1.165177,0.155196 0.38068,0.08279 0.842882,0.1119 1.165177,-0.155196 z m -9.78693,-0.642971 c 2.235928,-1.819038 -3.136286,1.584613 0,0 z m 2.86793,0.26167 c -0.236796,-0.242852 0.120258,0.793836 0,0 z m 2.93125,-1.675931 c 0.245688,-0.481388 -1.212101,0.500734 0,0 z m 6.8107,-0.135135 c -3.01937,-2.246807 -0.66509,0.629499 0,0 z m -4.8512,0.04411 c 1.859788,-0.859945 -3.061467,0.397724 0,0 z m -2.15452,-0.1927 c 0.694812,-0.715822 -1.539371,0.491174 0,0 z m 5.28283,-0.290572 c -2.634632,-2.649739 3.830116,1.355658 0.191985,-1.473409 -2.472122,-1.521908 -2.852001,-0.300371 -5.142305,0.07308 1.442249,0.100997 4.352513,1.660269 4.95032,1.40033 z m -1.85079,-0.125796 c -1.350412,-1.517593 -5.663642,-0.05646 -1.87794,-0.129918 0.317643,-0.435493 1.838006,0.38456 1.87794,0.129918 z m 2.2116,100.508607 c -0.362331,-1.03937 0.507823,0.66446 0,0 z m -0.33486,-0.88127 c -0.74373,-0.75826 -0.657188,-1.35549 -1.07203,-1.7735 -1.513372,0.6281 -7.561529,-0.48284 -7.12852,-2.78152 0.308079,-3.38617 -2.454788,-5.65469 -2.91743,-1.42481 0.263375,-2.48467 2.21898,-5.10474 -0.18888,-6.75065 0.650421,-1.2355 0.148925,-5.84535 0.566201,-4.73219 -0.216105,1.88498 1.4116,4.37651 1.65958,2.38659 -1.663277,-0.99569 -0.978088,-2.33366 -0.423151,-0.99207 0.619921,0.0488 0.791586,-4.92938 2.55365,-6.34139 -0.983301,2.89926 0.509878,-0.99644 1.344533,-1.13271 1.80152,-1.34246 4.670898,-4.00184 1.977877,-2.59152 2.565861,-2.09947 -4.246658,0.5118 -0.52923,-1.34739 0.964371,0.29721 3.755998,0.93204 2.62836,-0.16125 1.388167,1.92121 1.258266,-0.0935 0.78108,-1.04078 2.154595,2.85111 1.393161,-0.17877 4.71056,-0.281 0.35973,-0.75755 3.695053,0.0878 3.081098,-2.44936 0.04872,-2.36013 0.219338,-4.48264 -1.452198,-5.93025 -0.842714,-1.06662 -2.900857,-5.25192 -3.76205,-3.89026 0.233765,-0.1677 -2.587263,-2.68574 -3.74587,-2.7405 -1.951079,-1.59285 -2.877369,-1.02556 -3.45811,-0.61158 -0.548948,2.21982 -4.531779,4.61914 -5.939569,1.97155 2.297281,2.88116 6.681083,-2.45446 4.609565,-2.8269 -1.55968,1.21869 -5.742795,1.80806 -5.506636,1.70654 -1.191253,-0.84032 -2.916736,-2.98657 -3.57023,-1.80894 -0.710734,-3.19478 -1.484549,-7.26863 -3.849378,-10.07452 -0.345412,2.25347 -0.332996,4.57118 1.280766,6.19407 1.405234,1.69183 -1.397196,1.26266 -0.385233,3.91162 -0.130605,1.699 -1.274853,-2.64643 -1.064208,1.1476 -0.157904,1.20883 0.372606,5.7894 -0.196636,2.04808 -0.216291,-2.2217 0.72262,-6.76839 -0.0083,-7.66276 -0.01421,1.83365 -1.006635,-2.95021 -1.644111,-3.61583 -0.123817,-2.23381 -0.804811,-4.83239 -1.733814,-1.31155 -0.216958,2.27055 1.197924,6.73618 -0.08064,2.03475 -0.937044,-2.94569 0.302994,-4.86204 1.017355,-6.28751 -1.067835,-3.22895 1.267902,-1.79973 3.259022,-1.29358 -0.598202,2.99174 -2.793903,6.45086 -0.803846,9.44998 -0.356237,-2.92476 0.422334,-6.43967 1.810217,-9.23169 2.828598,0.53801 0.447208,2.0135 3.867415,3.12424 0.634881,2.17143 1.058422,7.62589 1.443959,8.14475 -0.341272,-2.5822 1.078772,2.64701 0.386499,-1.29634 -0.318927,-2.25728 -0.469124,-3.78008 0.459248,-1.7547 0.905336,1.43749 1.955917,0.14321 0.650865,-1.14626 2.528387,1.78388 3.986787,-0.22809 6.346215,-0.92647 1.544342,-3.15968 -0.58576,1.80707 2.833692,0.86958 1.917536,-0.45898 -0.81099,0.74875 2.141375,0.94917 2.430979,0.95406 1.69246,0.69564 1.298133,-0.28299 0.511277,-0.86349 -1.22612,0.024 0.6868,-1.11147 -0.616119,3.06515 2.071755,-1.41437 3.536905,-0.20582 -0.956181,1.73021 5.114453,-4.44568 2.001876,-2.27252 -1.245502,-0.62688 2.471755,-1.36009 2.679689,0.86801 2.379714,2.83064 -0.751908,-1.15906 1.87482,0.0827 1.68902,-0.65051 5.706247,3.29001 3.052439,-0.35429 2.208146,1.58221 1.462737,0.16386 0.866438,-1.93009 -0.02321,-0.24435 1.219294,2.0248 1.584835,0.24143 -2.245797,3.0856 4.97139,0.40329 1.347158,2.1723 -2.107961,-0.0731 -2.171483,-0.0258 -0.82126,1.6762 -1.978069,-0.50684 2.487245,1.90376 0.213951,0.34076 0.641286,1.91946 1.707698,3.62549 1.401839,1.85151 0.862519,1.07205 3.916785,1.45545 2.124381,2.00208 1.624499,1.79966 -1.184032,-1.15327 -0.899391,0.19237 -0.788149,-0.19045 0.857196,3.57674 -0.355604,2.55885 1.326809,2.30175 1.131948,1.0343 1.069104,-0.83611 -0.0668,2.19707 2.22412,5.6776 0.87813,6.87115 0.113803,-1.70779 -0.815535,-5.03022 -1.096396,-1.24037 -0.782412,1.98038 -1.371917,3.98203 0.572372,1.04217 -0.330242,1.4078 -3.350497,3.5702 -3.972274,6.00189 0.773455,1.45001 -2.065116,3.09005 -0.658322,0.58921 2.187718,-3.00018 -6.269383,2.51746 -2.061901,2.00879 -3.925599,-0.59258 -3.089543,2.94531 -2.022374,5.38796 -0.977905,-2.79109 -1.81284,-3.36465 -1.82349,0.24117 -0.236193,1.9447 -0.872,1.92378 0.196392,1.12903 -0.234242,2.33701 0.0072,0.64743 0.162563,3.40978 0.292674,1.0219 -1.398618,-1.67597 -1.64727,-0.47313 -1.450453,-4.5204 -1.549867,2.90691 -1.745925,2.00213 0.257948,-1.87749 0.124749,-7.03 -1.279565,-6.76245 0.210411,-1.76313 0.53207,-3.077 -1.72331,-1.66438 1.795566,0.38553 -4.604121,0.0232 -3.61962,2.63275 -2.245676,0.10841 -1.716946,-0.10834 -3.701283,1.47439 -2.466923,0.73735 -4.637967,2.33409 -5.453037,5.10663 0.679382,-2.84043 -2.81155,4.71032 -0.79409,4.02681 0.349442,3.12156 -0.863918,1.11036 -2.707166,1.13955 1.622216,-0.55387 -1.290297,2.02076 1.408276,0.90488 1.927265,-0.46886 1.876698,5.95174 1.62147,5.1424 -0.568673,-0.73186 -0.11086,2.31047 0.42119,1.06815 -0.747222,-0.71444 3.832954,2.64991 3.19809,2.56934 -1.465666,0.58234 4.423411,1.78603 2.292067,0.17284 3.448838,-0.40583 0.182835,1.22312 1.166213,1.76276 1.925653,-1.62891 1.496125,-5.06681 4.25871,-4.57129 2.355384,-0.0271 3.185188,1.00763 2.679066,-1.01259 -0.914408,1.28189 0.677822,-4.11005 0.435564,-0.74198 1.014316,-0.42194 -0.02328,-2.62484 2.17905,-1.49911 1.506622,-2.04676 0.576411,-1.56752 -0.50756,-1.39774 0.362576,-0.78682 2.228973,-5.52042 1.32142,-2.02593 -0.287649,3.10944 2.082827,-4.81533 0.913455,-0.0138 0.390404,-1.02823 1.444699,-4.22854 0.20158,-2.066 1.296542,-1.4566 0.86583,-4.50174 -0.198135,-1.13946 -0.02391,-1.84919 -0.559116,-6.70586 2.028087,-3.16103 -0.134176,-0.42592 0.01738,-5.38826 0.06366,-3.04217 -0.267494,2.48267 1.315274,4.16481 1.659115,6.09674 -2.721161,-5.09713 -1.376976,2.82316 -2.18132,3.89459 -2.372184,0.0318 -1.719078,6.39604 -2.7501,6.04886 -0.702589,-1.39717 -0.05242,-2.24945 -1.849595,0.0999 -1.27817,1.34496 -2.022787,7.54847 -1.485178,2.46313 -1.007242,0.32772 -6.308602,1.31764 -5.822047,3.40321 -0.257529,0.11208 0.339125,2.72579 -0.16768,1.3996 z m -1.98539,-1.9984 c 2.528329,-1.8071 -5.121586,-0.0364 -1.01664,0.25911 l 0.590378,-0.11073 z m -3.40334,-1.08751 c 3.036781,0.26618 -2.226587,-2.02748 -2.79273,-3.03977 -0.235658,1.57053 0.996697,4.01924 2.79273,3.03977 z m 8.38462,-1.61971 c 1.846918,-1.09198 0.448782,-1.09865 0.96603,-2.25207 -2.397444,-0.43623 -4.493734,4.29209 -1.663299,2.64606 l 0.697349,-0.39386 z m -9.28482,-1.29555 c -1.599634,-1.54864 -0.181661,1.40925 -0.5102,-0.15133 0.424883,0.63475 1.677895,1.34232 0.5102,0.15133 z m 11.76337,0.7161 c -0.350691,-0.50817 -0.350641,0.50818 0,0 z m -0.6188,-0.99317 c -0.587287,-0.6009 -0.962213,0.63083 0,0 z m 2.80728,-2.31055 c -1.165014,0.26577 -1.746076,2.13738 0,0 z m -15.91975,-0.37581 c -1.713426,-1.51163 -0.117724,-2.90888 -1.65747,-2.80449 0.199675,0.51776 1.550356,6.21132 1.65747,2.80449 z m 16.26624,-0.56241 c 1.114114,-2.85015 -2.945543,3.21707 0,0 z M 29.253167,153.426 c -0.88143,-2.37277 -0.244595,1.10568 -0.789309,-0.37832 0.03518,0.63371 0.530358,1.42248 0.789309,0.37832 z m 17.42633,-0.34506 c -0.506635,-0.15999 -0.252179,0.24647 0,0 z m -17.97635,-1.82967 c -0.391119,-1.22219 -0.339775,1.21929 0,0 z m -0.75634,-0.40386 c -2.261639,-2.05848 0.647768,2.16393 0,0 z m -1.03128,-0.0302 c -0.616985,-0.74104 -0.285259,0.96549 0,0 z m 20.75403,-1.12666 c -0.60578,0.56162 -0.263543,1.0337 0,0 z m -18.8289,-0.5237 c -0.899318,-0.52245 -0.251135,1.33117 0,0 z m 19.99966,0.27931 c 0.982603,-1.89135 0.477312,-3.78305 -0.14823,-0.70997 -0.627221,0.14257 -0.362659,1.71613 0.14823,0.70997 z m -0.88601,-9.39171 c -0.157522,-1.38225 -0.270756,-8.91133 -2.47447,-5.7202 -0.832494,1.50222 1.380375,5.93535 2.47447,5.7202 z m -14.10585,-0.7364 c 0.930667,-1.33258 -1.679011,0.52682 0,0 z m 1.12379,-1.01242 c -0.490662,-0.12233 -0.418687,0.92997 0,0 z m 1.01884,-0.32028 c 0.07945,-0.99316 -0.93352,0.92345 0,0 z m 9.8943,-0.0121 c -0.713012,-0.80095 0.393375,0.95844 0,0 z m -7.00664,-1.31835 c -0.929722,-1.11762 -0.203809,0.15096 0,0 z m 9.58202,-0.82431 c -0.236905,-0.24288 0.120462,0.79402 0,0 z m 0.25652,-1.31528 c -0.732697,-2.7719 -0.569185,1.12276 -0.118709,0.95514 0.639497,0.41093 0.04688,0.74543 0.118669,-0.95512 z m -8.32594,0.4906 c -0.313903,-0.49221 -0.503514,0.54456 0,0 z m 8.98889,-2.16369 c -0.66853,-1.0497 -2.082904,-4.79766 -3.46774,-4.92387 1.31956,2.38173 1.227765,5.49133 2.59192,4.53369 -1.080252,-3.52207 0.166403,1.12064 0.87589,0.39015 z m -1.93845,-2.12479 c -1.578079,-3.59771 0.783806,0.36173 0,0 z m -1.56141,1.86359 c 1.202122,-1.32631 -1.653448,-4.91133 -0.786351,-0.75561 0.264848,0.39681 -0.167111,1.67853 0.786351,0.75561 z m 3.86963,-1.97342 c 0.338099,1.59092 2.645802,-2.15121 4.33821,-2.64929 3.234097,-2.2488 -6.348863,0.70863 -1.225856,-0.97595 1.398095,-0.3767 4.960419,-1.34941 3.664736,-1.7657 1.340628,-0.17671 1.871087,-2.78825 -0.03226,-0.7037 0.837755,-0.79723 3.353108,-5.42716 1.73784,-5.57509 -0.476623,2.65125 -0.702474,2.84467 -0.72284,0.21198 0.373324,-2.57592 -1.870926,-7.49684 -1.29548,-2.65907 0.07745,0.74592 -0.879369,-6.33158 -2.25912,-4.58945 0.356973,1.62377 -1.543129,-2.87282 -3.119989,-0.60128 -1.660766,-1.40538 -2.992556,-1.65744 -2.949671,-1.26529 -0.100312,-0.96877 -1.591313,-0.27921 -1.191964,1.60703 0.534559,-2.42912 -3.385571,-2.77404 -5.029146,-0.4885 0.851806,2.1173 -4.60028,0.71294 -6.085665,3.19929 -0.0456,1.41046 2.228551,3.42916 -0.789399,1.93851 -0.342774,1.32567 5.115945,1.95786 5.462694,3.81715 0.240522,-0.0162 0.321816,1.70785 1.51921,2.76669 -0.609954,-2.32179 1.12616,1.65246 0.02466,-1.31628 -0.101195,-2.64415 -6.264018,-4.79524 -1.411258,-3.18847 0.685836,1.03187 2.996486,6.60289 3.203808,4.71408 -2.635352,-2.51204 0.957313,-2.33038 0.86631,0.30563 -1.892525,-3.49712 0.600483,3.59162 0.04617,5.16026 0.276782,3.42653 -0.115796,2.60302 0.697257,-0.0354 0.198338,-2.07258 -0.58208,-3.0996 0.352718,-1.90111 1.929134,0.24667 2.347186,0.5922 1.900195,-0.31009 0.361833,1.13098 3.119212,3.50523 1.282134,4.7674 1.028451,-0.51503 0.373844,1.39581 1.016706,-0.46334 z m 1.19252,-1.28831 c 0.595297,-2.17531 -0.155417,1.19441 0,0 z m -6.33814,-2.0459 c 0.327417,-0.74386 0.116831,0.74811 0,0 z m 1.24282,-1.17358 c -1.685108,-2.60832 0.544012,-0.91357 0,0 z m 9.47139,-0.49353 c 1.78707,-2.05442 -0.972011,1.94296 0,0 z m -10.58782,-1.13505 c -0.493288,-1.81611 0.522021,0.58507 0,0 z m 11.88656,-1.73804 c 0.314026,-0.72712 0.656181,0.75279 0,0 z m -9.22208,-8.83209 c -0.271988,-2.04824 0.220444,-3.49471 0.135999,-0.48395 0.01577,0.175 -0.04061,1.89096 -0.135999,0.48395 z m -0.24424,-2.73226 c 0.120408,-0.63891 0.120392,0.63896 0,0 z m 1.81646,19.40631 c 0.370866,-2.10507 -3.503406,-5.22374 -1.285597,-1.3689 0.136639,0.30485 0.724855,2.2814 1.285597,1.3689 z m -6.30238,-5.63423 c -1.268356,-1.55139 0.665832,1.96785 0,0 z m -3.98447,-5.33468 c -0.879972,-0.30872 2.199418,0.43715 -0.440981,-1.24105 -2.904689,-0.79286 -3.324072,-0.22931 -0.585219,0.84797 -0.749552,-0.23438 1.772877,1.09514 1.0262,0.39308 z m -1.58944,-1.05958 c -0.392226,-0.51821 0.764538,0.46825 0,0 z m -8.80053,-0.64826 c 3.863785,-0.83244 -5.108321,-4.55262 -3.313443,-0.31163 -0.135968,-1.31446 -3.387328,-4.89466 -3.773747,-4.5735 0.619489,3.46009 3.378111,6.24249 7.08719,4.88513 z m 29.42679,-0.0612 c -0.350699,-0.50819 -0.350648,0.5082 0,0 z m -23.49061,-2.11024 c 1.942428,-2.03926 -5.137043,1.45396 -2.966,-1.45088 3.096241,0.99503 -1.509548,-0.92696 1.462662,-0.97267 1.762273,-0.0761 5.861922,-2.64917 1.687133,-1.48392 1.19222,-0.57577 -1.573747,-0.20112 0.188384,-1.15144 -1.416377,-2.42374 -7.658728,1.1287 -3.025043,1.43481 -1.474174,1.88494 -6.182671,-2.62421 -3.026072,0.74004 1.665289,3.89549 0.708208,-0.7117 0.869366,0.36937 1.42101,2.35164 0.520145,5.99616 4.80957,2.51469 z m -2.70474,0.9752 c 0.623817,-1.1731 1.813008,0.0673 0,0 z m -0.83314,-3.05826 c -0.675556,-0.62475 1.001796,0.65068 0,0 z m -0.43619,-0.58708 c 1.131407,-0.17472 -0.162926,0.24219 0,0 z m -12.042159,3.39646 c -0.541692,-0.97313 0.236435,1.96382 0,0 z m 16.050189,0.19825 c -0.817153,-0.94295 0.196518,1.01692 0,0 z m -16.145759,-1.51006 c -0.45682,-1.65484 -0.400927,1.47942 0,0 z m 5.886779,-0.74706 c -0.640437,-1.47549 -1.552677,0.87983 0,0 z m 2.50399,-0.17174 c -0.933591,-0.84258 0.436372,0.98569 0,0 z m 31.14288,-0.18294 c 1.068627,-1.85644 -0.935361,-0.73836 0,0 z m -29.42678,-0.17519 c -0.576757,-0.48935 -0.13482,0.49775 0,0 z m 0.23299,-0.46111 c -1.218095,-0.91551 0.924338,1.45966 0,0 z m 6.64242,0.0354 c -0.164529,-0.51743 -0.340077,0.50478 0,0 z m -1.30632,-0.14189 c 0.426306,-0.50496 -1.336298,0.50695 0,0 z m -6.60252,-0.39018 c -0.4074,-1.64731 -1.656319,0.91956 0,0 z m 0.64377,-0.0709 c 1.7103,0.1382 -1.677024,-1.31066 0,0 z m 8.98133,-0.55876 c 0.845341,-2.50729 -1.517662,2.5787 0,0 z m -1.30009,0.33787 c -0.590284,0.16336 -0.270686,0.40461 0,0 z m -12.86067,-0.0274 c -0.340063,-0.50478 -0.164578,0.5174 0,0 z m 3.3002,-0.0672 c -1.447534,-1.1294 -0.986958,-7.6e-4 0,0 z m 3.4377,-0.79235 c -0.366657,-0.50166 -0.270554,0.75956 0,0 z m -2.06262,0.10407 c -0.85982,-1.16972 -0.818006,-0.39173 0,0 z m 13.2008,-0.0912 c 2.679451,-1.33769 -1.032055,-0.52698 0,0 z m 14.74815,-1.00752 c -1.408651,-1.2348 0.919857,1.6753 0,0 z m -27.46767,0.29365 c -0.182176,-0.57169 -0.746282,0.60071 0,0 z m -7.56938,-0.8158 c -0.68679,-1.36779 -0.828689,-7.82108 -1.62088,-4.13185 0.05896,-0.11693 1.870145,5.42199 1.62088,4.13185 z m 31.62439,0.39367 c 0.294684,-1.71656 -5.693664,-1.61833 -1.333223,0.0498 l 0.681967,0.0818 0.651326,-0.1316 z m -28.81421,-0.83858 c -1.26963,-1.51076 -1.302212,-1.89265 0.166032,-0.16841 0.09769,-1.74017 -2.20592,-4.28557 -1.339632,-2.4817 -1.504823,-3.03322 -3.326788,-1.42733 -1.13845,1.15071 -2.170449,-2.28836 3.312373,3.57798 0.60063,0.0741 -1.566025,-2.57009 2.123523,2.94677 1.71142,1.42527 z m -2.27805,-3.03119 c -1.366173,-1.82944 1.195242,1.12933 0,0 z m 21.00117,3.22415 c 1.334357,-0.91214 -2.158609,0.77059 0,0 z m 12.6506,-0.32808 c 1.373004,-1.25125 -2.177798,0.29247 0,0 z m -33.07291,-0.43963 c -1.333706,-2.07605 0.370577,1.68246 0,0 z m 28.52848,-0.57651 c -0.350648,-0.5082 -0.350699,0.50819 0,0 z m -33.719858,-1.35672 c -0.06985,-3.18579 -0.469522,3.47329 0,0 z m 29.694578,0.98126 c 3.273942,-1.62723 -3.694935,0.89058 0,0 z m 9.91538,0.10922 c 0.171329,-0.63259 -0.849531,0.34337 0,0 z m -36.82949,-1.15255 c -0.665206,-1.02513 0.354131,1.00811 0,0 z m -1.650088,-2.7215 c -0.893605,-1.75811 -0.645753,1.16334 0,0 z m 25.191748,57.41974 c 1.166009,-2.09333 -0.910094,2.21245 0,0 z m -8.3126,-2.72188 c 0.756904,-0.22876 0.136538,0.24776 0,0 z m -7.93025,-1.26573 c 0.08794,-0.54552 0.139834,0.64531 0,0 z m 18.08976,-0.27412 c -0.421005,-1.79297 0.790311,0.78604 0,0 z m -1.97783,-1.80692 c 1.453728,-1.20673 -0.20597,0.7764 0,0 z m 1.53054,-3.71759 c 0.512327,-3.15877 1.831057,-0.14489 0,0 z m 0.78456,-2.06407 c 0.268267,-1.17 0.259937,0.203 0,0 z m -18.09977,-2.70518 c -0.170762,-0.71103 0.449834,0.53991 0,0 z m 24.77233,-0.34526 c 0.443268,-1.54215 -0.106233,1.13987 0,0 z m -3.7858,-0.2956 c 0.0879,-0.54547 0.139854,0.64573 0,0 z m -19.93779,-0.27192 c 0.03369,-0.9478 0.541997,-0.34044 0,-5e-5 z m 0.12784,-1.94251 c 0.401446,-1.08011 0.09295,0.64957 0,0 z m 0.85161,-2.13666 c 1.068299,-2.60342 0.798481,-2.07093 0.6648,-0.60853 0.991647,-0.91766 -1.253393,2.12176 -0.6648,0.60853 z m 2.79102,-3.5125 c 0.964441,-0.84681 -0.49338,0.97604 0,0 z m 18.2054,-0.99241 c -0.02143,-2.33381 0.251389,2.10124 0,0 z m -0.055,-1.56069 c -0.219714,-2.74224 0.494878,2.42237 0,0 z m -9.96936,0.27656 c 1.878064,-1.48369 -0.656097,1.15744 0,0 z m -3.71272,-1.56441 c 1.925955,-2.03743 0.772987,0.0425 0,0 z m 1.92511,-0.13661 c 1.064014,-2.71685 0.203603,-0.90673 0.991757,-0.8372 1.917549,0.68679 -0.280228,0.21805 -0.991757,0.8372 z m -0.82504,-0.1445 c 0.399672,-0.26891 0.316071,0.48507 0,0 z m 0.41252,-0.0452 c 0.929704,-1.11762 0.203896,0.1509 0,0 z m -18.39845,-1.48099 c -0.231125,-1.19443 -0.127803,-4.38293 -1.121659,-2.84184 2.212042,-3.06543 -1.277882,-5.77029 -0.699584,-6.83163 -1.67984,-0.21825 0.679988,-5.94116 -1.316745,-3.61512 -0.636652,-1.10437 1.994881,-2.97748 1.08229,-0.19173 -0.27055,1.88568 0.829242,4.8095 0.935949,3.97863 0.767868,1.64049 1.423471,2.90594 -0.110517,0.48584 0.797485,1.50337 1.343906,5.73136 1.100767,1.77768 1.319085,0.68435 1.699713,1.67131 0.142275,0.66338 0.364186,2.33731 -0.03478,1.80329 -0.208748,3.17814 0.197785,0.70875 0.325743,6.56487 0.195972,3.39665 z m -0.21161,-5.02743 c -0.241134,0.14268 0.224553,0.78164 0,0 z m 23.46563,4.9546 c 1.556464,-1.55965 -0.918885,1.67474 0,0 z m 1.1948,-1.51399 c 0.423939,-0.42605 0.720747,0.55829 0,0 z m 9.62558,-0.42564 c 1.212642,-0.5007 -0.245993,0.48135 0,0 z m -38.893188,-9.36347 c 0.120567,-0.63896 0.120567,0.63896 0,0 z m -0.003,-0.82514 c 1.302813,-1.93233 1.051414,-1.24692 0.02409,0.232 l -0.02412,-0.23204 z m 2.31891,-3.27422 c 0.520112,-0.81386 0.274929,0.43931 0,0 z m 45.062908,-2.56904 c -0.142562,-1.00634 0.552387,1.01125 0,0 z m -5.08464,-3.99026 c 0.737352,-0.42026 -0.335549,0.43468 0,0 z m -18.72317,-0.10943 c -0.575308,-0.60604 0.978514,0.32738 0,0 z m -0.8871,-0.4268 c -0.332622,-1.41268 1.84822,0.009 0,0 z m 0.80829,-0.76748 c 1.724586,-2.30866 0.420552,0.35552 0,0 z m -13.47582,-0.46186 c 0.219259,-1.01312 0.953123,1.01637 0,0 z m 6.04358,0.0181 c 1.410669,-0.48365 -0.391669,0.67807 0,0 z m 9.08234,-0.2066 c -0.46071,-1.51315 3.633639,-1.28668 0,0 z m 2.31186,-0.39534 c 0.768187,-0.12087 -0.237948,0.24232 0,0 z m -2.6202,-0.22014 c 0.48536,-1.19328 0.618007,0.22881 0,0 z m 8.58646,-1.13009 c -2.395512,-1.54192 0.428001,-0.48935 1.20153,-1.16017 2.499431,1.26465 -1.350247,0.79063 -1.20153,1.16017 z m 1.34759,-0.60053 c -0.804105,-1.01519 -1.187531,0.84052 0,0 z m -25.42566,0.18192 c -0.314647,-1.7415 0.834865,1.29545 0,0 z m 31.34997,0.11148 c 1.849743,-1.1853 -0.0013,0.29168 0,0 z m -21.73778,-0.22361 c 0.297866,-0.75588 0.195647,0.48793 0,0 z m 22.12796,-1.01175 c 1.436999,-2.54118 -0.709427,2.06368 0,0 z m 0.42341,0.38228 c 0.929763,-1.11766 0.203819,0.15097 0,0 z m -2.17096,-0.51847 c -0.672813,-1.45404 0.755997,0.87102 0,0 z m 2.46769,-0.84677 c 0.120405,-0.63894 0.120397,0.63897 0,0 z m 0.19339,-0.60911 c 0.477334,-0.66047 -0.171967,0.61878 0,0 z m -36.27958,-1.25385 c -1.713141,0.0271 1.499288,-5.721508 -0.635025,-2.38772 -0.145787,2.74688 -2.31628,0.40811 -1.151214,1.02723 -0.467145,-2.607878 -0.60981,-2.832541 0.41413,-0.25256 0.301562,-0.45266 -0.951704,-3.025865 0.543413,-0.51632 1.275966,-2.178639 0.325856,-5.933057 -1.265831,-6.981036 0.08625,1.729177 -0.416576,3.191603 -0.848875,2.056683 -0.381875,2.849003 -0.664518,-4.761349 -0.922409,-0.508733 -0.231564,1.80655 -0.970114,8.275306 0.569045,3.319359 -0.218248,-4.141504 2.268383,5.834497 -1.088565,2.337337 -1.599547,-1.06942 -3.37529,-0.68765 -1.336557,-0.11238 1.771263,1.29619 -2.296073,0.43391 -2.617089,-1.216544 C 9.5082256,96.679439 11.392775,105.80943 9.5496725,101.39985 9.307276,99.876102 10.81352,98.096662 8.5875149,99.292956 11.789172,99.128788 8.0373477,95.352785 9.2134186,94.996698 c 0.2359238,2.978668 1.9807124,1.145239 1.8265304,1.961847 -0.281755,2.674773 1.878287,3.885165 2.58687,2.364651 0.205097,-0.710462 -1.092973,-9.700488 -2.48086,-3.808998 0.520066,-2.643297 1.270308,-6.181554 1.786844,-8.27057 0.332463,0.200603 -3.1903709,-3.928373 -2.015933,-4.397323 0.48174,-2.179363 1.127619,4.719501 1.376959,1.949509 0.761786,2.245488 2.576202,5.630157 4.77842,7.149644 -1.962718,-3.534165 1.621887,1.919726 2.059569,3.135015 0.720407,0.821298 1.148329,4.240165 1.31166,2.823846 0.196207,1.29785 1.708704,0.355828 1.13451,1.325067 -1.316811,-0.673497 -1.971308,3.757674 -1.712511,3.834284 z m -9.9227377,-2.91148 c 0.4181337,-1.869375 -0.9190745,2.70293 0,0 z m 6.6855497,-0.13891 c -0.663918,-0.05829 0.208956,1.84047 0,0 z m -1.29989,-2.749795 c 0.596566,-0.632322 0.174786,-5.090993 -0.78844,-5.827047 -1.130377,1.636103 -1.242589,5.444005 -0.27921,6.156334 0.09065,-1.790458 0.133688,-3.538824 0.736794,-0.09866 l 0.330936,0.622433 -3e-5,-0.852864 z m -4.63869,0.206047 c -0.333435,-0.822679 -0.378742,1.079239 0,0 z m 5.0878,-3.901734 c -0.316127,-3.000032 -0.333044,3.194582 0,0 z m 1.38584,-0.6048 c -0.582468,0.401023 0.484264,1.379358 0,0 z m -3.84451,-0.87661 c -0.425586,-2.634241 0.235193,3.486223 0,0 z m 0.75123,-1.87995 c -0.771994,1.492613 -0.147324,3.24312 -0.01388,0.374329 l 0.01394,-0.374329 z m -0.53913,-0.21278 c -0.240801,0.142718 0.224286,0.781655 0,0 z m 2.53517,12.158532 c -1.35092,-0.98251 1.740079,0.69681 0,0 z m 5.383628,-1.34398 c -1.71739,-2.116603 2.172558,1.28219 0,0 z m -14.7477739,0.2698 c 0.4616137,-0.66094 0.9707797,0.0126 0,0 z m 1.7990658,-0.44799 c 1.6354411,-1.478127 0.053853,0.29386 0,0 z M 23.730257,99.718423 c -1.79865,-1.288075 1.944561,0.348547 0,0 z M 12.054379,99.144886 c -1.079293,-1.214266 1.295148,1.232514 0,0 z m 5.5795,-0.886747 c -0.977557,-3.596445 1.236317,3.408851 0,0 z m 4.443278,-0.0969 c 0.768183,-0.120888 -0.237905,0.242636 0,0 z m -2.05982,-2.102231 c -0.364239,-3.641911 0.803122,1.014745 0,0 z m -0.40713,-1.3124 c -0.471788,-0.694305 0.840105,0.842221 0,0 z M 9.1406186,93.210498 c -6.638e-4,-3.063823 0.4989514,0.228436 2e-5,0 z m 8.5438594,-1.60397 c -0.359906,-1.36557 0.890897,1.232203 0,0 z m -2.227049,-1.56593 c -1.758608,-3.641341 1.540456,2.191148 0,0 z m 0.32008,-0.29524 c -0.338088,-1.00557 0.654305,1.016431 0,0 z m 41.940058,-3.9018 c -0.467739,-0.915357 0.789341,0.584505 0,0 z m -32.9608,-0.63845 c 0.101326,-1.389826 0.101336,1.389755 0,0 z m -0.157,-1.27687 c 0.120405,-0.638942 0.120397,0.638966 0,0 z m 0.005,-0.78034 c 0.06159,-0.80871 0.133498,0.876215 0,0 z m 29.74962,-0.48679 c 0.175726,-0.918797 0.355771,0.607084 0,0 z m -29.96749,-0.87272 c -0.226857,-2.783354 0.02009,-1.431091 0.283025,0.372512 l -0.283095,-0.372492 z m -13.410488,-0.35142 c 0.568558,-1.661094 0.06204,0.566212 0,0 z m 40.152298,-0.70103 c 0.0336,-0.947811 0.542052,-0.340404 0,-4e-5 z m -39.717688,-1.13523 c 0.180615,-1.836129 1.496582,-3.896593 0.356,-0.99298 -0.07964,0.150408 -0.464006,3.119055 -0.356,0.99298 z m 40.889758,0.27317 c -0.09219,-0.881558 0.628587,0.50914 0,0 z m -27.94614,-0.81665 c -0.133847,-1.995929 0.673743,-0.238081 0,0 z m -0.15002,-1.868316 c 0.1213,-1.176499 0.0855,1.354181 0,0 z m -9.508378,0.118238 c 0.814857,-0.627661 -0.211263,0.651309 0,0 z m 10.573308,-0.531402 c -1.31426,-3.641705 0.65936,-0.645545 10e-6,0 z m -1.32634,-1.280793 c 0.06298,-1.458728 0.384106,0.723155 0,0 z m 9.82411,-0.505203 c 0.08894,-1.997677 0.269737,1.999634 0,0 z m 13.49939,-0.483669 c 0.354703,-0.622142 0.585101,-0.0327 0,0 z M 12.230009,73.76139 c 2.218956,-1.294577 -1.345996,1.267371 0,0 z m 28.573798,0.134545 c 0.360739,-1.415379 1.880733,-0.526264 0,0 z m 7.01167,-0.536244 c 0.91689,-0.460877 -0.299799,0.665911 -4e-5,0 z m 1.11218,-1.148442 c 0.08789,-0.545495 0.139874,0.645575 0,0 z m 0.002,-0.822064 c -0.307486,-1.177616 0.710358,0.292866 0,0 z m -0.34236,-0.868653 c -1.723681,-0.931267 1.256637,0.524754 0,0 z m -25.36267,-0.780376 c 0.120406,-0.638923 0.120395,0.638954 0,0 z m -4.972249,-1.330499 c 0.929719,-1.117686 0.203886,0.151027 0,0 z m 5.173759,-1.382977 c -1.592289,-1.986717 2.390224,-4.511743 1.19671,-2.510059 -2.087305,1.317001 3.920412,-1.265375 0.572557,0.316632 -3.04149,1.364514 0.291216,0.311753 -1.627027,2.217465 l 0.0126,0.419293 -0.1547,-0.443386 z m -0.6959,-1.501366 c -0.17221,-0.61884 0.477543,0.660592 0,0 z m 21.68311,-0.350163 c -0.942159,-1.654298 0.976507,-0.719744 0.01367,-0.238773 0.856424,0.462006 1.476294,0.74813 -0.01367,0.238773 z m -21.89821,-0.39586 c -2.06907,-0.43986 -3.385259,-1.042382 -0.27477,-1.02962 -1.831669,-2.860883 2.12526,0.341239 0.342394,1.103139 l -0.06758,-0.07314 z m 17.38293,-0.208056 c -0.585795,-1.426348 1.567829,0.768954 0,0 z m 7.12794,0.10043 c -1.576133,-0.79113 1.713723,0.288566 0,0 z m -4.67528,-0.37087 c -2.058774,-0.968394 1.969728,0.273338 0.30583,-0.856172 0.648696,-0.466954 1.461618,-2.607957 0.75158,0.538793 0.354508,0.932574 -0.60599,0.246459 -1.05741,0.317379 z m 1.49202,-0.903382 c 0.779952,-0.893611 -0.466095,0.819927 0,0 z m -13.95173,0.0015 c 0.297956,-1.957948 2.02278,-2.480226 0.204519,0.01194 l -0.204509,-0.01195 z m 14.35466,-0.681917 c 0.106974,-0.789234 0.487219,-0.197206 0,0 z m -22.96811,-1.190722 c -2.973459,-3.541804 0.01417,-1.143801 0,0 z m 10.96883,-0.606699 c 0.972921,-0.45811 -0.200241,0.434314 0,0 z m -1.37773,-0.37238 c 0.684497,-1.061807 1.068061,1.102823 0,0 z"
       style="fill:#000000;stroke:#000000;stroke-width:0.228;stroke-dasharray:none;stroke-opacity:1"
       id="path1-4" /><path
       id="path25"
       style="fill:#ac9393;fill-rule:evenodd;stroke:#000000;stroke-width:0.0994764;stroke-linecap:round;stroke-linejoin:round;stroke-miterlimit:3.5;paint-order:stroke markers fill"
       d="m 55.670504,81.574866 c -0.59648,-0.0014 -1.302613,0.198708 -1.569002,0.782747 -0.04449,0.261564 0.361299,0.268749 0.363909,0.558773 0.244101,-0.109901 0.610054,-1.154523 0.637251,-0.418825 -0.01,0.24338 0.267646,0.734345 0.236262,0.185054 0.02893,-0.497736 0.536835,-0.809472 0.98997,-0.80753 -0.210758,-0.115775 -0.439576,-0.199795 -0.65839,-0.300219 z m 1.645894,0.427364 c -0.544883,0.04292 -1.081617,0.218826 -1.574397,0.447347 -0.253392,0.25822 -0.176299,0.872321 0.107247,0.885586 -0.247305,0.785843 -0.978672,1.336183 -1.138339,2.165453 -0.164584,0.831607 -0.24104,1.686104 -0.238335,2.533382 0.0309,0.676029 1.021915,0.666353 1.280168,0.143021 0.530968,-0.752342 0.480991,-1.735201 0.877906,-2.540902 0.511774,-0.305096 0.910385,-0.776069 0.889768,-1.403759 0.01363,-0.216294 0.12286,-0.576404 0.199393,-0.149584 0.444515,0.430071 -0.386423,1.129916 0.204902,1.52236 0.375771,0.248803 1.062535,0.09325 1.325058,-0.256461 0.289642,-0.47151 0.178826,-1.047407 0.309745,-1.551856 0.447921,0.105002 0.391297,-1.029098 -0.105783,-0.788968 -0.653789,-0.03349 -1.283044,-0.328719 -1.823575,-0.68546 -0.200515,-0.09926 -0.0014,-0.362339 -0.313758,-0.320159 z m -2.763655,0.334346 c 0.312945,0.226671 -0.181323,0.571877 -0.114695,0.08837 0.02091,-0.04404 0.06369,-0.08557 0.114695,-0.08837 z m 3.041674,3.197738 c -0.320343,0.05807 -0.434281,0.520251 0.0113,0.373813 0.568742,0.206726 0.182684,-0.21811 -0.0113,-0.373813 z m -6.825423,0.451652 c -0.594547,0.02867 -0.810597,0.738022 -0.826732,1.235922 -0.03784,0.693411 0.676376,0.820079 1.157242,1.074689 0.515002,0.246763 0.955031,0.623926 1.453361,0.891777 0.531816,-0.2467 1.063423,-0.526723 1.522204,-0.894945 0.236476,-0.280301 0.04934,-0.695525 0.132124,-1.00787 0.442266,-0.532997 -0.634965,-0.508008 -0.954935,-0.403478 -0.527049,0.214168 -0.993469,0.0076 -1.525738,-0.121493 -0.400179,-0.300615 -0.796458,-0.638513 -1.229025,-0.16038 -0.327137,0.08524 0.456972,-0.62955 0.271499,-0.614222 z m 9.369454,0.192236 c -0.640715,0.03202 -0.526528,1.0124 -1.110526,0.958081 -0.408645,-0.113754 -0.432183,0.298592 -0.04548,0.285769 -0.263302,0.244759 -0.982128,0.09668 -0.498681,0.598926 0.308846,0.381664 0.76239,1.241011 1.323835,0.705178 0.117847,-0.500038 0.390523,-0.98061 0.495386,-1.479022 0.579787,-0.284004 -0.01783,-0.754499 -0.164534,-1.068932 z m -9.618017,0.787549 c 0.354073,0.19077 -0.03295,1.323029 -0.14505,0.522789 -7.83e-4,-0.162797 -0.02089,-0.430923 0.14505,-0.522789 z m 6.188769,0.432532 c -0.474995,0.300342 -0.693464,0.888803 -0.886772,1.395401 0.04581,0.655327 -0.83051,0.153188 -1.210721,0.250619 -0.469504,-0.07761 -0.894976,0.120302 -1.079912,0.534047 -0.620262,0.205197 -1.195511,-0.20266 -1.792216,-0.267363 -0.595245,0.322605 0.170548,1.128023 0.675377,1.147875 0.51658,0.100968 1.151276,0.252993 1.624443,0.114117 -0.125134,-0.350856 0.280147,0.350826 0.431524,0.141947 0.25141,-0.461081 0.869896,-0.520182 1.233982,-0.873639 0.604463,-0.432201 0.758314,-1.224218 1.316106,-1.692492 0.402798,0.0049 -0.09105,-0.743937 -0.311811,-0.750512 z m 0.841809,1.163753 c -0.50025,0.172196 -0.827421,0.645597 -1.214071,0.989956 -0.460038,0.490426 -0.963773,0.957717 -1.315926,1.534674 0.02253,0.346413 -0.145215,0.395147 -0.364398,0.424544 -0.263888,0.481899 0.476689,0.305459 0.674991,0.146698 0.345599,-0.285952 0.771935,-0.111227 1.041567,-0.576643 0.362634,-0.412626 0.813751,-0.826315 0.902094,-1.394927 0.326744,-0.197191 0.80468,-0.861599 0.275743,-1.124302 z m 0.07131,1.930632 c -0.510844,0.193534 -0.833702,0.693257 -1.244248,1.036996 -0.407901,0.297573 -0.745987,0.975034 -1.336565,0.804981 -0.190529,-0.0129 -0.93639,-0.306258 -0.777429,0.08921 0.493572,0.254665 1.067179,0.447979 1.62838,0.390752 0.733179,-0.226328 1.406181,-0.757259 1.670163,-1.494122 0.396469,-0.07791 0.466389,-0.482299 0.181151,-0.784664 l -0.05765,-0.03398 -0.06379,-0.0092 z m -4.715475,0.466638 c -0.548737,0.347434 0.304032,0.785166 0.698498,0.727147 0.30304,0.0051 1.350628,0.349534 0.814695,-0.238689 -0.358747,-0.437589 -0.994579,-0.451308 -1.513193,-0.488458 z" /></g></svg>
