<?xml version="1.0" encoding="UTF-8" standalone="no"?>
<svg
   xml:space="preserve"
   width="214.422"
   height="390.328"
   version="1.1"
   id="svg3"
   sodipodi:docname="body.svg"
   inkscape:version="1.4.4 (dcaf3e7, 2026-05-05)"
   xmlns:inkscape="http://www.inkscape.org/namespaces/inkscape"
   xmlns:sodipodi="http://sodipodi.sourceforge.net/DTD/sodipodi-0.dtd"
   xmlns="http://www.w3.org/2000/svg"
   xmlns:svg="http://www.w3.org/2000/svg"><defs
     id="defs3" /><sodipodi:namedview
     id="namedview3"
     pagecolor="#ffffff"
     bordercolor="#000000"
     borderopacity="0.25"
     inkscape:showpageshadow="2"
     inkscape:pageopacity="0.0"
     inkscape:pagecheckerboard="0"
     inkscape:deskcolor="#d1d1d1"
     inkscape:zoom="4.2477096"
     inkscape:cx="4.0021568"
     inkscape:cy="59.208379"
     inkscape:window-width="1920"
     inkscape:window-height="1009"
     inkscape:window-x="2552"
     inkscape:window-y="143"
     inkscape:window-maximized="1"
     inkscape:current-layer="svg3" /><path
     d="m 132.16,13.104 c 0.35781,7.145562 -0.88837,11.436762 -7.1683,17.344303 C 116.37847,40.908869 107.76523,51.369434 99.152,61.83 c 0.163225,-6.540812 -2.40934,8.573159 -4.506,2.639 0.746692,-7.297038 -7.565634,-15.26097 0.610172,-6.569391 4.20665,8.039022 1.077265,-1.49785 5.942828,-3.007609 -7.108353,2.995248 -5.498353,-19.369549 -17.505,-18.875 -5.566258,-15.300372 -15.342583,1.495557 -18.47225,4.771625 6.016093,1.270393 0.265689,27.767023 -3.403609,18.468531 -0.584329,-4.419689 0.340943,10.050681 -2.995385,12.540945 3.142814,5.153804 0.268055,14.43469 4.62776,17.118321 C 61.202992,84.252899 64.205142,73.820185 65.317,86.329 63.21263,94.525977 56.618668,84.887521 51.936,91.446 43.907034,79.76899 19.96445,88.386725 32.408156,102.24664 c 9.533259,5.59211 24.761577,15.15298 13.023321,26.00058 0.552802,10.69295 0.474236,6.03089 3.008617,-0.81041 6.321487,-4.9816 0.533941,13.45923 8.529906,15.18719 -1.110962,8.30415 5.686495,31.17882 -2.279,31.525 -3.435615,-5.40806 -7.283748,-20.28897 -11.841125,-19.21613 2.585234,8.64233 -7.348128,-2.35991 -3.633875,7.35913 -5.863986,-9.03495 1.055949,8.04621 -5.881393,0.31038 1.827398,5.2014 -1.303119,-0.42398 -0.09504,5.72887 -6.222614,5.19815 13.62926,16.0305 9.707856,24.65277 12.21049,13.98499 -0.870465,27.90596 -3.188998,42.97026 -5.686069,14.34751 -16.622481,27.99291 -14.43067,44.51717 2.930971,12.60598 0.863649,1.25134 4.342767,-3.33144 1.282421,1.01707 3.270264,-8.41669 2.55736,2.14101 -2.067708,16.06162 -2.335602,32.28676 -5.59332,48.20294 -2.846238,16.53603 -8.738237,33.25969 -16.8363559,46.62602 7.1508909,7.01925 19.1173479,-1.14996 18.9089079,-8.20423 5.313235,13.08215 8.079644,-12.45818 7.165808,-17.66121 -3.042645,-15.16231 3.590472,-29.73969 11.102173,-42.66568 8.849337,-12.61662 1.923381,-24.18075 8.129844,-38.01439 0.824581,-10.94352 10.627243,-10.7292 10.233039,0.0163 1.384243,7.20789 0.912969,10.87155 4.077273,8.91846 1.72057,7.8126 4.18037,9.61041 1.463813,0.42281 -3.628048,-6.19224 -4.300082,-14.41677 -1.801344,-16.91385 -0.351067,-9.87106 -5.376575,-12.0032 -3.168719,-21.34121 -2.548891,13.07717 -4.557367,-13.00344 -4.854,-3.237 1.545191,-5.89076 -1.364648,-27.13068 3.484,-14.455 1.972244,0.95694 -1.422535,-22.26637 2.071654,-5.28781 3.993873,7.95952 -9.460008,3.82965 -3.089379,14.75648 1.934002,9.5187 3.158107,8.10195 4.499631,-0.71001 -0.513192,-6.89319 4.971603,7.40462 1.86728,-3.56258 -2.975493,-11.8591 -5.440231,-23.98459 -5.887284,-36.21894 2.044103,7.61904 5.45627,21.14921 2.701244,6.22131 -0.383388,-3.30026 -4.353693,-16.60024 -0.303447,-8.98753 -0.35399,-5.73351 5.065912,4.03483 1.716879,5.1093 3.40734,10.00739 2.819657,-15.98891 6.031908,-2.97836 -1.464699,4.60862 3.807636,-9.28467 1.565514,2.71802 -1.727066,14.83402 2.568555,-12.43143 1.73975,1.7515 -1.064642,6.02282 -3.470049,18.61293 -2.479377,20.16593 1.91727,-13.05848 0.448867,23.51298 1.726707,5.57098 0.0386,-3.19057 0.255904,-20.38832 0.91492,-8.85629 0.593029,-11.46324 0.881511,7.17435 2.187359,-1.83472 -0.88281,-7.00652 1.993332,-21.58839 2.257391,-6.11189 2.376634,6.06085 -1.260934,29.87856 -2.148875,14.02149 -0.287856,-1.47957 -0.940139,15.76883 0.498418,21.8542 1.359873,10.26804 1.771512,28.92051 3.612766,30.63612 2.989439,12.39276 -4.257843,-6.32593 -3.054602,5.2335 -4.545582,9.5206 -3.926428,-21.25532 -4.793645,-4.58132 1.816773,6.85128 2.116716,26.46483 -2.403812,8.92762 -5.870875,6.38714 14.6453,31.38959 6.182531,12.34592 -2.167558,-6.50926 1.633996,-20.78692 6.702844,-13.40554 -2.583313,-6.97653 -2.772259,-21.96795 5.314314,-8.89526 -0.127247,3.24676 4.103246,-3.31846 6.993545,3.97553 5.143706,3.85828 12.974216,30.32024 12.319886,11.4908 0.10008,-16.07261 12.0115,9.32931 13.26988,14.77655 9.59209,15.35352 20.91985,30.53636 23.52609,48.93276 7.30517,12.54604 -8.81255,33.59641 6.06636,39.31573 15.91818,-4.01331 7.23918,-27.4977 5.30105,-39.72662 -5.28756,-14.84858 -7.77864,-30.44811 -11.13431,-45.77001 -0.26132,-13.28656 -8.57786,-23.16743 -13.97181,-33.91931 -0.56093,-5.80452 10.06625,2.28879 5.39336,-6.46181 -1.44104,-15.48223 15.69559,11.69536 13.34664,-3.30674 5.45339,-15.48981 25.44937,20.19696 16.88875,-0.45134 -5.2932,-3.68895 -19.71678,-18.69459 -10.47276,-20.36415 10.56979,4.66813 -5.70952,-9.9426 -10.29395,-9.10595 -16.29828,-10.5305 -27.18028,-27.72948 -35.95939,-44.63114 -3.72074,-5.64003 -5.91507,-31.2072 1.13026,-15.38976 7.79647,12.0904 15.46996,27.62184 19.91305,38.81734 4.30044,-17.37782 23.70718,-26.0917 29.40583,-43.3508 3.98371,-13.03414 10.27894,-26.52709 6.99861,-40.41754 1.55514,-8.3022 4.30442,-23.389826 4.29797,-26.490346 5.61047,3.602636 24.97527,-1.844657 10.15368,-3.567036 C 163.12602,102.10334 177.18114,73.71 170.91239,62.9954 167.61835,44.229449 156.47505,26.839552 138.53338,19.822625 136.23202,17.757296 134.20088,15.419002 132.16,13.104 Z m -62.256,259.964 -0.035,-2.539 0.035,2.54 z M 70.293,34.242 c 2.911895,-1.66673 -2.428507,-2.674559 0,0 z M 133.57,21.273 c 20.92453,7.488858 30.60224,31.052713 31.082,51.852 6.11368,14.564208 -4.27881,27.90877 -19.95403,22.40759 -10.97816,-2.738955 -25.2378,7.07891 -31.61597,-5.64559 -2.53323,-4.957695 -10.49026,-8.720429 -9.59745,-10.001172 -10.285137,-1.778483 5.82871,-23.927878 -3.3883,-14.807406 -2.170279,-2.904818 0.38782,17.475148 -2.684375,4.601203 -3.335717,3.4616 -0.552059,18.871654 -2.863375,9.775375 -0.261677,3.697603 -1.229781,-0.221499 -3.5105,6.518 1.581496,-6.202672 4.040053,-12.978541 4.897763,-18.891373 C 97.755203,62.720455 99.429736,67.804931 99.165,63.154 110.62724,49.190306 122.1027,35.23387 133.57,21.273 Z M 91.71,84.688 c 0.965329,-0.287522 -0.340684,-0.963278 0,0 z m 2.083,-4.973 c 3.139121,-4.871358 -0.787479,-2.055152 0,0 z m 47.652,-56.313 c 15.31963,6.488955 22.40755,23.049535 25.46245,38.302922 -0.50861,-8.156347 -4.1581,-16.990823 1.18455,-4.724922 2.74822,6.449821 1.71354,18.986849 -0.391,10.473 C 164.99518,54.736384 161.53148,47.838949 154.94919,36.337584 151.25169,31.296755 146.8422,26.635899 141.445,23.402 Z m -61.607,9.041 c 3.782057,4.559998 9.387703,7.874172 12.04775,12.388 2.130918,6.52196 -4.887178,1.779346 -4.689893,-2.905898 0.281416,0.904025 -7.902159,-6.319455 -2.138857,-1.521102 5.912539,5.518746 0.177874,11.86604 -1.338,5.989 6.167851,-2.238491 -3.294529,-8.245222 -1.371,-3.572 -3.558438,1.028447 -1.772883,9.280614 7.950125,7.19175 8.445225,2.323664 -6.267159,0.577257 -5.311643,7.125393 C 82.745094,56.82819 85.126469,52.08061 82.476,55.553 83.605809,49.726437 81.368047,56.686388 81.81625,50.759125 78.710748,48.599891 78.640645,55.164643 78.14,58.291 c -3.162425,4.560962 -4.316177,7.927495 0.752594,6.570141 -3.474468,1.750773 1.275731,10.597205 -3.082594,1.202859 -4.302185,-2.420058 -0.908044,7.659331 -4.705141,5.776875 -2.079156,5.118146 -0.932093,12.569636 -2.536093,1.808156 0.455726,-3.629695 2.624135,-9.147267 0.705484,-9.919406 -0.913998,2.396267 1.820689,-1.924368 -0.446828,4.362656 1.056148,-7.610692 -3.996665,5.532807 -1.363547,-2.155531 5.318861,-6.170624 1.09993,-16.820741 4.271125,-14.44775 1.164111,-9.090505 -0.104334,15.553418 3.208625,7.21025 -0.455338,-0.761352 1.920779,-8.206955 -1.310156,-6.4425 C 70.776343,64.210408 78.104812,40.077381 71.866,47.556 72.827153,40.547815 70.753699,39.925465 76.332109,35.93925 72.136951,44.278001 84.128531,38.981799 80.935,34.421 80.091618,34.300331 79.230436,33.292506 79.838,32.443 Z m 8.068,19.65 c 1.825047,-5.027706 -10.520975,0.0842 0,10e-4 z m -6.103,-2.404 -0.287,0.18 z M 73.037,33.902 c 0.401608,2.516514 -4.480735,19.709933 -3.447,16.16 -3.602649,6.102342 2.731901,-11.601326 0.506625,-14.211875 C 72.393069,31.056046 68.672026,39.52332 73.037,33.902 Z m 83.225,0.643 c 2.83894,0.457352 9.28199,12.236559 2.37275,2.84625 2.4896,-0.452374 -3.15535,-2.049813 -2.37275,-2.84625 z m -93.256,4.123 c -3.091589,5.655873 -0.844302,15.786637 -0.51675,3.541125 l 0.444656,-2.227266 z m 12.787,10.463 c -0.19106,6.655684 2.834518,1.269374 2.012322,-2.787709 C 77.476773,40.64327 75.173863,47.882277 75.793,49.131 Z m -6.73,3.133 c -0.240071,1.819226 -0.280082,0.453836 0,0 z m 19.15,1.113 c 3.571329,2.687448 -6.062228,2.967368 0,0 z m 7.217,1.404 c 3.112436,3.500602 1.877751,9.952075 0,0 z m 67.75,0.239 c 3.33434,2.782146 -0.0582,4.054347 0,0 z m -72.057,1.193 c 6.595525,6.143448 -1.355265,16.418339 -6.047462,22.71175 -6.437691,-6.051179 9.125604,-9.107098 0.18415,-14.508125 C 86.245174,60.148196 84.934438,55.004742 91.123,56.213 Z M 81.039,57.31 c -0.180297,7.581207 -5.496391,5.392942 0,0 z m -12.852,0.877 c -1.826069,6.9487 -6.723706,9.251076 0,0 z m 14.288,2.457 c -0.03088,6.768134 -4.166041,5.705526 0,0 z m 2.183,0.695 c 0.627253,4.442191 -2.412986,5.638557 0,0 z m -19.666,4.219 c 2.913468,8.839633 -9.310987,15.144531 -3.05425,2.946203 L 63.951,66.395 Z m 14.487,0.41 c 0.344417,6.155161 -2.500602,5.746863 0,0 z m 14.123,0.006 c 3.855842,2.014369 -6.50047,6.854855 -1.551,0.463 -0.834747,3.183271 0.399529,-0.478731 1.551,-0.463 z m -27.534,0.08 c 0.26335,5.256105 -1.988775,7.442134 0,0 z m 19.434,1.748 c 5.684466,1.994633 -3.190205,0.851358 -2.457,3.574 -3.731767,-2.298826 -4.015633,8.769571 -3.522094,0.407203 C 80.718277,67.265095 83.837692,70.705209 85.502,67.802 Z M 83.74,69.51 c -0.180908,0.507452 1.151997,0.328444 0,0 z m 10.862,-0.803 c 1.994687,5.613941 -1.848941,0.578534 0,0 z M 68.08,70.785 c 0.323647,3.033025 -2.045904,5.622245 -2.098,8.573 -0.981377,0.96207 0.147288,-5.154066 1.55825,-6.902875 L 68.07,70.791 c 0.003,-0.0026 0.005,-0.0066 0.01,-0.006 z m 25.639,0.348 c 0.932924,6.067919 -4.174034,14.996019 -3.420391,4.615594 -3.568177,4.20851 1.130705,3.871003 -4.513515,8.204625 C 88.630282,85.372443 93.942946,90.323296 83.652,87.264 78.291757,83.901385 87.575781,79.309014 89.408523,75.027365 90.797546,73.363507 91.829956,71.56415 93.719,71.133 Z m -4.803,15.822 c 0.261699,1.050541 0.992808,-0.244368 0,0 z M 66.809,71.56 c -2.475685,7.904937 -4.962941,7.690144 0,0 z m 24.187,0.173 c -0.43746,0.531941 -2.26654,2.756059 0,0 z m -17.51,0.247 c 4.079141,3.600364 2.624752,23.145704 -1.30875,15.7235 1.121229,-4.755087 3.53445,3.837113 1.523828,-5.3095 C 75.074905,76.067971 70.822287,78.501214 71.757,84.591 70.671778,80.547035 70.229896,74.437647 73.486,71.98 Z m 8.082,0.832 c 1.489876,2.842688 -2.174886,4.222565 0,0 z m 15.58,3.044 c 2.793211,2.417554 -1.549598,6.43617 0,0 z m -29.335,0.186 c 0.231289,2.010666 0.788251,4.997148 -0.746375,5.04575 C 65.464859,87.877937 67.0621,77.443133 67.813,76.042 Z m 14.503,0.586 c 6.141113,5.149482 -8.37067,11.463539 -1.236,2.611 0.518827,8.287154 0.347106,0.178404 1.236,-2.611 z m -3.255,0.553 c 4.226318,1.5584 -3.222809,7.149448 0,0 z m 19.521,1.982 c 2.28416,3.342609 -2.644296,5.686975 0,0 z m -22.135,0.04 c 2.868935,6.739931 -2.72159,7.553292 0,0 z M 70.3,82.395 c 1.16872,9.734898 -3.8386,3.759002 -3.6615,4.228125 0.862735,-7.467483 2.551636,3.166603 3.1925,-1.442125 -0.544239,-5.571699 1.076012,3.565985 0.469,-2.786 z m 30.293,0.303 c 6.01228,3.340498 -13.525461,9.156498 -1.514029,1.471044 L 100.592,82.699 Z m -22.336,1.864 c 1.849016,2.840552 -0.16864,2.052274 -0.004,0.015 z m 28.482,0.585 1.338,0.364 z M 80.96,85.31 c 7.953397,2.669065 0.550469,16.92208 0.497375,3.72675 L 80.522,85.843 Z m -1.563,1.904 c 2.828627,3.58692 1.95714,13.27317 -1.816,8.652 5.629846,-1.848299 -0.199403,-5.279616 1.816,-8.652 z m 0,2.933 c -0.04955,0.286875 0.154694,-0.07325 0,0 z m -41.51,-2.818 c 2.896365,3.140231 -5.965648,5.805982 -2.16125,11.6585 8.198648,13.30887 -17.804691,-9.499952 2.16125,-11.6585 z m 70.495,1.102 c 1.04478,0.0876 -6.75921,4.108593 0.025,3.084 -6.33455,0.10996 -16.84379,5.911725 -19.954016,6.863156 C 93.221747,92.23503 102.83853,93.210479 108.382,88.431 Z m -42.61,0.318 c 1.120637,1.369519 -2.114491,1.220038 0,0 z m 1.536,1.314 c 1.442634,-0.608958 1.799373,1.215267 0,0 z m 5.027,0.036 c 3.975066,-0.78429 -0.311609,7.118649 -0.424,1.55 h 0.002 z m 2.168,0.015 c 2.539509,-0.767904 -1.103842,3.663686 0,0 z m 2.75,0.266 c 7.089164,4.344878 -3.646242,7.506566 0,0 z m -15.291,0.209 c -0.07758,2.447071 -3.455329,-0.191123 0,0 z m 105.121,0.023 c 9.12719,3.541168 -2.18056,2.598153 0,0 z m -121.36,0.242 c 1.415245,5.766638 -1.840925,15.94847 -4.036547,5.342984 C 42.118818,93.91325 43.697976,91.91958 45.723,90.854 Z m 20.132,0.582 c 6.017429,0.423929 11.915347,8.84807 2.227506,2.812588 -2.942096,-0.517276 8.790017,10.847052 -2.013412,3.987146 0.749658,2.596326 3.911802,6.070196 -1.673344,3.510266 6.276888,8.21949 -16.840648,-1.69027 -3.97025,-8.31325 l 2.557063,-1.442469 z m 9.787,0.35 c 3.255681,8.116867 -3.34899,3.231312 0,0 z m 45.724,0.346 c -0.007,0.0054 0.0109,6.4e-4 0,0 z m -81.627,0.894 c 0.288719,6.361179 0.532082,10.9246 -1.782648,1.237746 L 38.304,93.349 Z m 10.381,0.123 c -3.623674,4.555797 -0.499308,12.90475 -3.49,2.016 l 2.739125,-1.537875 z m 62.143,0.776 c 1.37275,3.294115 -16.007582,3.961785 -3.658,0.992 l 2.0345,-0.56575 z m -57.229,0.49 c -0.136249,4.871468 -3.160714,7.5449 0,0 z m -2.5,0.195 c 2.239237,2.570253 -2.546866,3.078405 0,0 z m 116.084,1.807 c 2.35853,0.427279 -9.24873,1.044624 0,0 z m -9.926,0.484 c -7.19732,10.08001 -20.66939,-1.958625 -30.673,3.289 -8.13604,-0.454217 -16.17846,-1.771076 -24.375,-0.394 -6.680472,1.96946 -12.330006,-0.256605 -1.446,-1.473 4.83463,1.230068 11.28904,-0.978682 16.578,0.299 13.28809,-0.670423 26.70787,-0.299124 39.916,-1.721 z m 6.873,1.159 c 5.30227,2.11804 3.1566,8.55519 -1.45278,2.60874 -0.35498,4.65397 -4.24339,17.93633 -3.41422,8.14126 -2.83511,-3.89077 0.004,-10.443592 4.867,-10.75 z m 8.063,1.45 c 1.68747,6.18937 -8.91557,1.42564 0,0 z m -85.793,1.063 c 2.033716,1.99315 -5.124326,0.79522 0,0 z m -15.074,0.121 c 1.634511,2.44024 -1.638511,4.64595 0,0 z m 65.068,0.407 c -1.17149,3.42987 -6.55912,5.63763 0,0 z m -53.504,0.37 c 1.13255,0.60013 -2.59223,1.12258 0,0 z m 7.565,1.165 c 8.006375,-2.798547 19.33511,-0.40358 8.798,8.051 -5.724807,4.66953 -5.74205,27.10039 -11.256,12.486 -5.056129,-8.02781 7.434697,4.72009 -0.478,-4.973 -9.366371,-4.29501 -3.533509,-13.17509 0.852,-13.535 1.98824,4.7311 -4.326819,19.29683 1.817,5.974 0.554415,-2.63212 0.388473,-5.34048 0.267,-8.003 z m -2.084,2.03 c -4.199776,1.85507 -0.167178,1.2106 0,0 z M 40.94,101.614 c 3.83845,1.60952 2.247522,3.51856 0,0 z m 104.891,0.235 c 5.58125,2.20658 -2.43655,14.46234 -2.074,9.119 2.12047,-6.60967 -5.8291,-2.20726 -0.0784,-8.64769 L 145.613,101.857 Z m -13.322,0.088 c -1.13923,6.83808 1.59848,21.51727 -6.66212,11.84225 -5.09258,-5.83031 9.01295,11.60973 -1.2906,4.99962 -3.64755,-9.30785 -6.46707,4.46192 -9.83659,-5.35893 -1.34978,-7.0584 8.60246,-15.227029 2.10079,-3.84188 -0.93226,11.42287 10.11038,-17.626864 7.82177,-2.82769 4.41965,4.85954 2.39356,-1.99073 7.86675,-4.81337 z m -5.35,7.283 -0.13,1.49 z m -0.72,-0.635 -0.823,2.846 0.822,-2.846 z m -16.583,-6.572 c -2.6299,4.80504 10.02791,-4.082833 2.22808,4.25425 0.97934,8.80139 -1.70123,11.12943 -8.66908,11.29475 3.98216,3.64434 1.16645,11.47666 -0.59585,3.00992 -0.13096,5.05606 -2.5634,9.61862 -2.98265,3.78845 -0.693677,4.67362 -10.190567,10.81112 -3.828547,-0.0514 4.184017,-7.54207 7.001547,-16.70851 13.848047,-22.29595 z m -57.154,0.047 c 4.635877,9.66757 -2.622385,2.51152 -4.705,0.809 1.590788,0.73788 3.392797,0.16304 4.705,-0.809 z m 36.473,0.23 c -1.512582,4.83189 -6.754303,2.11624 0,0 z m -33.662,0.068 c 6.245593,5.72791 0.05327,14.20165 0,0 z m -10.317,0.12 c 2.382666,2.84978 -2.358443,4.87023 0,0 z m 105.735,0.072 c -0.50749,7.32163 -2.78674,12.7842 -1.53508,1.80847 l 0.69123,-1.17676 z m -66.172,0.133 c -1.700037,8.4789 -9.591672,2.11358 0,0 z m 30.87,1.004 c -0.21955,5.88915 -5.36085,5.4075 0,0 z m -75.57,0.607 c 3.392082,2.08606 -5.525583,0.36809 0,0 z m 131.567,0.316 c 5.36465,4.99362 -12.4015,0.55149 0,0 z m -129.043,0.211 c 4.841685,0.70152 -5.381595,1.05005 0,0 z m 121.768,1.86 c 1.69377,6.42493 -1.92917,11.87754 -0.71622,1.53252 L 163.167,107.919 Z m -27.69,0.015 c 2.66131,3.92663 -2.20198,4.30716 0,0 z m -49.531,0.67 c -2.760071,0.93738 4.183351,0.18534 0,0 z m -37.879,0.674 c 5.244537,5.65206 -1.466558,4.54108 0,0 z m 6.334,0.273 c 1.455944,6.05145 -0.944103,4.31388 0,0 z m 20.844,0.698 c 5.646005,3.89075 -0.585969,3.24983 0,0 z m 57.629,0.039 c 0.96127,4.77196 -2.58874,4.66867 0,0 z m -20.856,0.08 c 0.73987,5.68277 -1.70779,3.88036 0,0 z m -39.236,1.785 c -0.839128,3.43705 -5.468972,2.13924 0,0 z m 35.168,0.076 c -6.69199,2.60102 -2.5674,6.58913 0,0 z m 29.027,0.04 c 6.57743,9.66956 -9.35722,1.55251 0,0 z m 30.483,1.261 c 8.19601,2.13448 -5.45638,1.14953 0,0 z M 58.95,112.941 c 1.469705,5.71438 -2.808931,8.11101 0,0 z m 20.947,0.244 c 3.131035,2.3128 0.300111,3.69223 0,0 z m 71.417,0.152 c 7.22037,1.38041 -7.70844,2.10949 0,0 z m 8.382,0.123 c 4.12047,2.98266 -4.19074,0.47106 0,0 z m -41.556,0.207 0.095,0.133 z m -64.047,0.15 c 2.063023,6.48324 -2.748416,7.03573 0,0 z m 89.744,0.708 c 10.34401,0.42773 -5.29285,4.32035 0,0 z m -61.336,0.837 c 5.42158,4.80903 13.815868,22.94006 4.04975,8.714 -1.615769,-2.70088 -3.896616,-5.42328 -4.04975,-8.714 z m -30.363,0.08 c 1.999569,7.54297 -5.533264,5.57008 0,0 z m 107.875,0.204 c 9.46372,5.1721 1.72351,23.64764 1.47755,33.97263 -3.6446,18.34071 -14.57044,34.46102 -28.02461,46.8711 -8.73418,-7.23775 -11.49164,-20.64523 -18.98542,-29.71529 -11.34006,-13.61442 5.9227,-24.53578 -0.036,-37.14596 -6.24317,-18.78655 18.89313,-1.4869 27.14223,-10.60198 5.78974,-3.42296 11.9363,-3.24207 18.42627,-3.3805 z m -95.219,0.171 c -1.027347,9.78654 -4.048702,20.67967 1.483381,29.87293 -4.813512,-2.48628 2.022789,13.03265 -5.230381,11.34707 4.370032,-12.75183 -8.247329,-22.26143 -2.775637,-34.24471 1.68351,-2.58705 3.418399,-5.90248 6.522637,-6.97529 z m 3.701,0.131 c 2.994467,5.38205 -3.438209,6.42027 0,0 z m -12.55,0.156 c 3.220295,6.22857 -3.95864,12.98447 -1.13925,1.387 L 55.305594,116.46919 55.944,116.104 Z m 20.92,0.116 c 4.450999,4.44416 18.878852,21.22949 10.287297,25.46984 -2.327825,-7.2677 2.153839,13.46957 -3.151438,4.11921 -6.602588,-2.04706 -6.075632,-9.05906 -7.450859,-15.41005 -0.698392,4.20359 0.169794,0.80377 -0.14,4.592 1.389626,0.21146 -3.42476,9.05466 -6.204375,0.21787 -2.473757,-6.18488 0.22459,-16.24563 6.659375,-18.98887 z m 34.857,2.043 c -0.0548,4.8063 -0.51687,3.99397 -10e-4,0 z m -3.649,0.562 c 4.79768,2.01677 2.59757,8.30281 -0.44738,1.65581 -2.26014,3.30116 -2.46674,-2.51202 0.44738,-1.65581 z m 14.076,0.207 c 5.76275,1.11824 -4.26593,1.04176 0,0 z m 10.024,0.063 c -4.32301,3.77078 -5.6579,1.69709 0,0 z m -74.576,2.947 c -2.875043,5.48304 -2.057828,19.42352 -2.600437,5.27774 0.343835,-1.85435 0.563024,-4.39169 2.600437,-5.27774 z m 20.119,1.861 c -3.075037,5.45989 1.196251,4.62504 0,0 z m -12.299,1.973 c 1.753315,5.76853 -2.460312,3.66518 0,0 z m 46.947,0.895 c 2.07457,5.19938 0.45835,5.55679 -0.004,0.001 z m -5.168,1.013 c 9.51231,5.1712 2.63741,28.142 0.46113,27.33676 -2.56379,-7.82266 -2.81487,-20.59999 -0.46113,-27.33676 z m -3.29,0.89 c 1.98363,4.92596 -1.83347,2.67474 0,0 z m 2.64,2.708 c -1.73007,2.7604 1.37021,6.17791 0,0 z m -20.51,0.488 0.8475,2.2755 z m -0.984,0.473 c -1.586546,6.19202 2.146303,5.43765 0,0 z m 19.398,0.209 c 1.56608,2.74927 -1.85275,5.30963 0,0 z m -36.213,0.049 c 3.229007,4.89907 -3.1013,6.26846 0,0 z m -14.392,0.832 c 4.130107,5.34562 0.01002,8.77013 0,0 z m 40.828,1.158 c 2.780928,5.4002 -1.43998,5.66775 0,0 z m 6.578,0.81 c 5.65393,4.27562 3.65272,20.88384 -0.54154,6.53438 -0.22726,-1.72584 -1.475499,-5.44712 0.54154,-6.53438 z m 66.865,0.153 c 1.86464,10.65496 -2.44391,14.37017 -3.97315,23.46367 -0.51966,-5.74437 1.48247,-16.66838 3.97315,-23.46367 z m -75.344,3.226 c 4.412896,4.47276 -1.829395,6.25831 0,0 z m -20.033,2.483 c 6.161226,2.32334 -0.270589,4.72779 0,0 z m 26.198,1.716 c 3.2549,8.043 -1.972802,10.62582 0,0 z m -7.75,1.176 c 4.612062,5.90306 0.526857,7.93913 0,0 z m -20.098,0.037 c 3.00092,5.60312 22.883774,11.72935 10.572266,12.13854 -3.093789,-4.73836 -13.014482,8.18509 -6.01625,-0.98185 C 70.221287,161.23486 71.1574,147.87029 71.089,144.192 Z m 0.38,8.366 c 1.202748,0.2321 0.966543,-3.3665 0,0 z m 92.79,-7.79 c -0.27365,14.81471 -7.07694,29.0658 -17.322,39.688 8.79361,-11.80382 14.0087,-25.59749 17.322,-39.688 z m -95.137,0.03 c 2.4786,3.32454 -2.147808,1.98368 0,0 z m 26.283,0.615 c 3.538171,5.92686 0.365438,5.86081 0,0 z m 5.522,0.518 c 8.47483,5.44919 1.48846,24.4574 0.299,6.611 0.12914,-1.75225 -2.015953,-5.07588 -0.299,-6.611 z m -21.172,0.556 c 10.261512,3.33425 -2.997881,3.21241 0,0 z m -12.281,0.188 c 2.502319,5.3217 -1.043416,4.08621 0,0 z m 31.074,3.607 c 7.09339,21.25515 16.34023,42.02709 29.898,59.992 -0.62759,-0.42913 -10.46538,-12.16735 -6.688,-6.321 -7.61521,-10.35738 -15.52543,-21.12146 -20.08362,-33.62387 -2.88613,-4.26489 -4.376505,-15.78893 -1.22838,-8.89413 2.84789,2.97526 -3.451296,-10.15819 -1.898,-11.153 z m -21.479,1.602 c -0.973642,3.10601 3.068936,0.64425 0,0 z m 14.055,2.215 c 1.011847,5.03306 -3.289152,3.4296 0,0 z m 7.361,1.52 c 2.82805,3.83512 1.404379,7.60179 0,0 z m 8.24,0.237 c 5.19217,4.45425 2.68727,24.05072 -0.0399,8.53811 0.29145,-2.76978 -1.292,-5.9007 0.0399,-8.53811 z M 94.2,156.503 c 3.822161,3.29172 0.643927,5.4179 0,0 z m -6.363,2.373 c 2.7524,2.06764 -3.291969,4.17138 -1.681312,1.28037 -1.323886,-1.00139 1.336384,-1.33813 1.681312,-1.28037 z m 17.418,0.6 c 2.51817,7.25699 -0.34046,11.82203 -0.28463,1.46138 L 105.251,159.478 h 0.002 z m -22.723,1.125 c -2.072488,2.5474 -6.238433,-0.15274 0,0 z m -0.543,3.197 c 3.749821,4.86746 -7.909768,1.22382 0,0 z m 14.582,0.336 c 3.65441,2.46379 10.77591,20.95327 3.343922,6.72333 -1.011626,-2.28936 -2.704231,-4.27499 -3.343922,-6.72333 z m -20.082,0.293 c 2.373862,1.8583 -3.428946,1.46891 0,0 z m 12.313,0.054 c 5.93533,2.76486 -3.668277,1.11197 0,0 z m -1.725,6.6 c 6.973613,3.1559 14.12716,14.42647 0.897,9.602 -11.339658,-1.98689 -5.55063,-7.17252 -3.277109,-7.94363 1.033913,-0.73365 4.641394,1.01282 2.380109,-1.65837 z m 6.217,0.943 c 5.549268,5.04768 -0.32769,6.4944 0,0 z m -19.273,0.99 c 5.032046,3.24984 -6.744822,3.70895 0,10e-4 z m 25.67,0.26 c 0.73514,3.43932 6.29075,5.36031 8.3126,12.47569 5.67496,9.88143 15.00402,21.56248 18.1939,23.67706 4.36634,5.66381 20.05552,17.71036 17.32081,18.33761 C 130.28592,225.95033 120.84039,214.64321 112.554,205.101 111.66868,193.0733 101.33403,184.02061 99.691,173.274 Z m -52.32,0.194 c 6.294284,9.14185 3.754725,8.12817 0,0 z m 108.157,1.322 c -3.21463,5.88489 -7.80833,9.73525 -1.50525,2.04483 l 1.19675,-1.69171 z m -88.673,1.66 c 7.319119,3.47746 -3.822771,6.40021 0,0 z m -23.211,0.16 c 5.262439,6.80718 5.09585,9.61805 0,0 z m -3.23,0.914 c 3.792853,5.22644 5.003859,11.12847 0,0 z m 62.812,1.971 c 2.82739,6.31192 1.64549,0.93314 0,0 z m 1.68,2.729 c -0.0257,0.33715 0.1337,0.0324 0,0 z m 0.054,0.074 c -0.1662,1.00669 3.08363,1.56165 0,0 z m -0.018,0.072 0.028,0.098 z M 73.43,179.5 c 8.547055,5.52578 -1.753153,3.48784 0,0 z m -17.58,1.527 c 5.446002,4.28336 -8.197161,8.21737 0,0 z m 3.277,0.428 c -0.119426,5.14142 -4.747967,4.40878 0,0 z m 40.42,0.504 c 7.7866,4.59033 -3.054714,5.40007 0,0 z m -15.37,0.48 c 3.857597,4.03925 -3.578879,2.8695 10e-4,0.001 z m -32.712,0.434 c 2.740978,3.19865 -4.0537,2.17572 0,0 z m 44.887,0.26 c 4.03593,2.40965 1.851889,6.51862 0,0 z m 50.209,1.592 c -2.7752,5.11118 -2.95999,1.0755 0,0 z m -55.04,0.004 c 5.236638,2.25883 -2.722544,4.62625 0,0 z m -42.416,0.066 c 5.797051,3.9514 -1.973972,4.69072 0,0 z m 56.842,0.022 c -1.81821,1.99276 3.86379,1.51734 0,0 z m -57.941,2.15 c 3.087666,4.95208 -0.497818,3.81165 0,0 z m 30.926,0.246 c 2.153311,4.99756 -1.824383,5.62105 0,0 z m -19.377,1.352 c -1.877754,10.96157 -4.198381,9.7241 0,0 z m 21.384,0.05 c 2.436126,3.25781 0.644158,6.25337 0,0 z m 3.188,0.368 c 6.421519,2.95709 11.060848,-1.98469 14.537406,8.98183 2.724424,4.88006 2.463124,5.81269 1.760324,0.42667 5.35501,5.24267 13.22041,27.85461 8.3007,10.17613 7.64105,8.22017 7.4335,16.85729 13.43251,19.77951 0.21256,1.70419 -1.65066,-0.76597 2.81718,4.3014 4.08653,4.72297 5.6405,5.87681 0.0343,1.26938 4.50109,6.46359 8.96373,11.4743 10.77118,12.76883 9.13585,6.90841 -1.18699,8.77993 2.97152,17.29638 -3.64142,2.86073 -10.98714,-9.164 -7.33409,0.54587 -7.55895,-2.39442 -14.46499,-32.07028 -4.804,-13.44 -0.52208,-8.44638 -6.14633,-21.64012 -14.35586,-24.17252 1.8579,5.46333 0.69182,-9.02111 -0.53114,-4.40323 0.55585,7.15667 -11.54074,-22.83123 -4.94825,-5.17208 6.72197,12.64794 -11.305628,-6.97241 -13.799641,-11.54613 C 90.187771,200.87828 83.65736,194.21001 84.127,188.983 Z m 34.213,36.933 c -2.34172,-3.89018 1.5275,8.53921 0,0 z M 46.322,189.918 c 3.269163,3.65548 -2.944992,4.11945 0,0 z m 55.809,2.613 c 5.82809,3.71 2.40763,7.38562 0,0 z m -48.326,0.166 c 0.708237,3.90926 -2.434675,2.20183 0,0 z m 47.49,0.7 c 5.91384,5.37828 -1.8153,4.58801 0,0 z m -16.906,2.265 c 4.961403,9.7206 20.49692,24.06331 21.3483,28.51737 C 98.667273,218.38468 88.431853,207.2361 84.389,195.662 Z m 21.625,0.725 c 4.93722,5.33229 -1.94983,3.13749 0,0 z m -45.735,0.203 c 1.022406,3.47932 -5.486474,7.41913 0,0 z m 23.377,2.039 c 4.143536,3.64454 -3.160703,1.55952 0,0 z m -12.894,0.797 c -1.728502,3.61456 1.32169,7.52646 0,0 z m -13.149,0.771 c 0.08236,0.29473 -0.79301,0.6871 0,0 z m -4.7,1.508 c -0.0846,6.21738 -3.728718,1.56781 0,0 z m 3.169,0.02 c 0.05831,4.15096 -5.587114,6.19405 0,0 z m 76.924,0.295 c 1.65125,3.93814 -2.17964,5.64092 0,0 z m -23.447,1.597 c 5.83268,4.58018 12.57985,17.35155 3.75238,5.41773 -1.08106,1.85031 -1.61102,-2.99715 -1.64038,3.18927 -0.36188,-2.84201 -2.79201,-5.77028 -2.112,-8.607 z m -50.29,0.133 c 1.476228,11.74621 -0.794353,24.66308 1.367,36.943 -3.450142,5.06225 -27.627809,16.76499 -11.504014,8.73114 8.119709,-5.3458 13.147443,-6.17836 8.490311,4.67111 9.020227,-10.12799 -13.500679,18.65131 -2.703875,7.48705 -0.150235,2.17879 -2.868267,13.87826 -8.245397,16.58516 3.753171,4.85766 3.797162,11.71904 -3.515025,11.05154 -1.651197,1.92137 -2.510944,-13.2384 -6.943504,-14.73012 -1.106622,-11.23109 6.487878,-21.55013 6.91666,-33.02046 2.866964,-7.54309 4.169538,-15.72747 6.995844,-22.85942 1.068834,0.88181 5.336194,-12.71369 9.142,-14.859 z m -9.316,16.285 c -2.252411,3.81012 -1.382787,4.63775 0,0 z m 34.945,-16.14 c 10.042784,11.7992 20.23514,23.54635 30.72784,34.82108 1.38653,5.42925 5.99479,7.71738 5.86605,13.04275 -7.37734,-5.27695 14.30024,17.86656 -1.21489,9.77917 2.24856,4.97015 16.96245,12.66236 13.93266,13.25342 -7.00757,-6.05871 2.45715,8.14258 4.25684,6.14295 -2.65716,3.22573 -5.24548,3.75644 -1.0715,7.07363 -9.21428,0.6023 -23.29519,-5.57574 -23.69413,-13.747 9.95207,3.81224 -9.93225,-10.41406 -10.34762,-16.91513 -7.177599,-8.78052 -2.24618,-7.69918 5.34075,-5.02187 -12.118395,-4.01484 -18.709363,-17.18225 -21.376182,-27.29699 4.55728,5.69122 13.125002,15.88353 4.933389,4.34303 C 83.517119,221.87411 84.254275,212.90744 84.898,203.895 Z m -30.537,3.738 c -2.878296,6.52946 -9.010374,18.32997 -3.469125,4.83363 1.011466,-1.70183 1.976362,-3.48756 3.469125,-4.83363 z m -1.795,0.115 c -3.656449,7.25849 -5.976761,6.44383 0,0 z m 66.844,7.098 c 4.21491,3.93322 2.74738,4.62739 0,0 z m -71.596,1.533 c -0.794622,7.1637 -9.647474,28.38503 -4.359203,9.49394 0.731772,-3.40428 2.397228,-6.64427 4.359203,-9.49394 z m 70.125,3.619 c 4.02115,4.36598 14.70749,22.01008 4.8143,7.80978 -1.70156,-2.52399 -3.51668,-5.0715 -4.8143,-7.80978 z m -35.763,1.543 c 1.25368,7.12691 4.670326,1.87478 7.463721,11.90817 2.912429,9.90063 -9.086717,-10.00181 -3.986471,2.34058 0.357083,5.56169 -9.239069,-4.52105 -4.36425,-9.85775 0.304905,-1.43396 -0.02094,-3.11252 0.887,-4.391 z m -14.89,0.373 c 2.804724,5.4261 0.630335,7.5785 0,0 z m 60.59,1.06 c 4.14575,3.58224 2.67788,6.19089 0,0 z m -3.517,0.159 c 4.20182,2.97801 12.46691,9.38983 5.143,1.101 5.6788,0.28144 23.04459,22.38373 15.599,8.54987 5.33031,-0.4017 15.52629,-2.53566 8.78873,6.22118 -3.23213,6.35807 16.44069,14.72452 0.43661,13.85701 -3.08414,-5.07918 -1.29091,15.57366 -8.00232,2.70256 C 138.56611,248.29617 129.09573,235.6128 124.332,223.433 l 0.028,-0.3 z m 28.684,19.232 c -7.33515,-7.10928 -4.89656,-2.86356 0,0 z m -29.76,-16.99 c 4.63898,6.5196 3.70075,7.39476 0,0 z m -10.172,3.85 c 4.14492,2.8601 -0.97334,4.02512 0,0 z m -68.605,2.67 c -0.379489,4.77286 -2.195364,4.6345 0,-0.001 z m 68.098,0.667 c 3.76287,0.80339 1.80471,4.86277 0,0 z m 5.826,2.618 c 4.89697,5.59098 4.10295,6.3129 0,0 z m -1.873,0.369 c 5.88604,7.93631 0.49553,6.15734 0,0 z m 11.125,2.543 c 0.70375,5.91454 5.36891,5.38278 0.009,0 z m -51.737,5.683 c -0.03208,0.12129 0.03288,0.0134 0,0 z m 0,0.051 c -0.216159,6.43965 -0.19037,8.34284 -0.406,1.028 -0.716686,13.93104 0.921455,12.65921 0.406,-1.028 z m 10.61,0.776 c 4.665503,3.9237 15.25432,29.86297 9.062881,11.55837 -2.052288,-6.78323 -6.556429,-14.3792 1.373556,-5.31489 6.036983,7.56391 12.407293,18.94937 11.658643,21.35456 1.77686,8.07114 2.88653,21.82112 -4.1005,7.85887 -4.952296,-11.76536 -21.347327,-19.78308 -18.924205,-34.34566 l 0.272766,-0.76263 z m 21.365,25.431 -0.436,-0.978 z M 38.7,244.98 c 3.143455,-1.12741 -0.16627,17.7647 -2.516154,14.87961 -2.370701,-6.34651 -4.901626,14.7981 -5.944096,12.21039 -2.699321,6.10026 -4.883042,13.22389 -3.600977,1.73719 C 26.192854,264.17059 32.793798,252.09798 38.7,244.98 Z m 92.683,0.13 c 2.65237,7.4107 3.86465,3.80176 0,0 z m -67.06,1.565 c 1.931289,3.23802 -3.459859,5.42753 0,0 z m 18.294,2.57 c 5.757151,4.7858 2.438347,18.87515 0.24225,5.85525 -0.196856,-1.92865 -0.939427,-3.93334 -0.24225,-5.85525 z m -19.008,2.309 c 2.333558,5.11618 1.76875,16.65988 -0.705,5.34 0.24148,-1.74901 -0.23854,-3.71944 0.705,-5.34 z m -3.484,3.158 c 0.462378,1.38623 -5.199059,7.78013 -1.487625,2.10925 L 60.125,254.711 Z m 106.727,1.969 c 11.05333,4.78591 -2.35683,4.87152 0,0 z m -100.14,0.908 c 3.623865,7.19621 -3.033685,3.35954 0,0 z m -17.134,2.392 c -5.282208,3.51887 1.429834,3.38738 0,0 z m -14.3,2.245 c -0.757985,3.24699 -2.29698,3.03258 0,0 z m 97.773,0.656 c 0.89967,1.64014 0.38958,5.05957 -0.19488,1.59688 z m -97.324,2.117 c 0.123251,5.68433 -5.570946,2.62313 0,0 z m 95.931,0.684 c 6.65047,5.94998 -1.73441,5.55438 0,0 z m -83.797,0.49 c -10.130961,5.44551 -4.294011,6.56947 0,0 z m 2.284,5.3 c -2.439084,5.2007 2.130903,2.45573 0,0 z m 72.37,1.178 c 5.48809,5.7639 11.54672,4.31768 0,0 z m -11.476,0.14 c 4.07866,6.16939 -4.41042,1.97257 0,0 z m -76.498,2.417 c 4.480321,3.84904 5.970705,17.98546 0.409797,15.40058 -0.466485,-6.32265 -2.23688,-8.64814 -0.409797,-15.40058 z m 16.389,2.441 c -2.181418,4.43589 -3.950764,2.14391 0,0 z m 89.814,3.71 c 1.96995,4.23018 -1.70176,2.68431 0,0 z M 122.34,287.5 c 5.94944,1.84496 -0.88793,4.35568 0,0 z m 8.87,0.844 c 7.755,5.31418 1.74735,15.82438 -3.44009,3.02983 -2.29382,-2.25707 2.22904,-2.77717 3.44009,-3.02983 z m -8.706,2.26 c 6.00495,5.54255 -0.99555,3.5891 0,0 z M 39.6,291.361 c 6.075247,4.17436 -1.491513,3.31984 0,0 z m 5.298,0.766 c 2.993925,3.66558 -1.755836,4.21637 0,0 z m 81.924,1.037 c 6.31273,3.1365 1.68848,8.13188 0,0 z m -47.435,0.006 c 3.399003,4.39844 -1.99882,3.97651 0,0 z m 45.55,2.164 c 3.72519,2.22762 -1.58531,3.25172 0,0 z m 11.391,0.803 c 0.48075,0.55976 -0.21776,0.20179 0,0 z m 6.697,0.135 c 9.08402,8.07646 -7.06771,8.68269 0,0 z m -97.564,0.015 c 4.054055,3.50795 -8.482361,2.863 -1.495125,0.228 L 45.46,296.288 Z m -5.008,3.752 c 12.660435,4.54893 -11.793386,17.44975 -6.073625,3.03666 1.488082,-1.79927 3.771931,-2.83895 6.073625,-3.03666 z m 94.041,0.865 c 2.92902,4.09358 -2.11312,2.48046 0,0 z m 9.14,4.03 c 11.41306,3.08752 1.41793,24.20799 -4.917,7.461 -0.0647,-3.07798 1.19702,-7.32336 4.917,-7.461 z m -12.28,1.13 c 9.54616,4.29121 5.02957,6.03042 0,0 z m -98.637,2.499 c 1.430453,5.72009 10.653863,11.04269 0.132516,15.8637 -5.102422,-1.33235 4.864095,12.32166 -3.738719,10.56028 -0.370069,-9.41967 0.909428,-19.76446 3.606203,-26.42398 z m 101.506,0.918 c 5.93168,3.47561 0.42452,4.77035 0,0 z m -93.832,1.125 c 1.620429,5.14323 -8.274427,5.92932 0,0 z m 100.453,7.92 c 11.63765,2.69922 2.64874,19.71517 0.63233,3.72253 0.38305,-1.15096 -3.56622,-3.68973 -0.63233,-3.72253 z m 8.965,4.962 c 6.33393,4.96298 0.88364,15.42878 -2.33831,6.92705 -0.15053,-2.15755 -0.181,-5.99352 2.33831,-6.92705 z m -114.223,1.29 c 0.793275,2.44013 -3.956444,3.23671 0,0 z m 112.08,10.423 c 10.73501,1.57903 -3.33602,9.8698 0,0 z M 26.482,338.75 c 8.286324,-0.003 1.168598,13.79499 0.181656,3.56816 0.85886,-1.15462 -2.166808,-3.57718 -0.181656,-3.56816 z m 125.668,5.834 c 2.95149,6.32669 2.51074,0.51538 4.563,6.266 1.00932,-2.87624 -11.68918,0.73767 -4.563,-6.266 z m -126.642,3.07 c 9.497647,6.81823 -8.047948,3.77806 0,0 z m 129.351,0.537 0.004,0.063 z m -123.048,0.106 c 9.203337,11.07201 -4.245341,8.37984 -2.043,1.801 3.607859,3.39288 -0.153341,-1.44048 2.043,-1.801 z m -7.438,3.357 c 6.362888,7.45327 1.171786,20.80436 -4.129859,20.69375 -10.8396543,4.35603 -8.753863,-8.94719 0.289859,-3.56875 -0.27888,-4.74736 -4.252515,-4.03974 -0.06438,-9.96713 0.128358,-3.46301 0.175096,-3.27941 3.904375,-7.15787 z m 130.025,0.856 c 11.04483,6.6123 -9.86165,4.41475 0,0 z m 5.563,3.44 c 4.56894,9.07218 -3.57705,6.37004 0,0 z m -132.184,1.128 c 4.615946,5.0164 -3.657919,2.43191 0,0 z m 126.02,1.46 c 10.30545,4.57031 5.63735,18.84504 -3.39641,10.15796 0.68183,-3.06484 0.63184,-8.56161 3.39641,-10.15796 z m -120.815,1.251 c 1.653048,5.88278 -2.591744,12.89739 -0.959875,2.2075 l 0.478766,-1.61759 z m -1.377,0.6 c 0.103299,3.4794 -6.111417,7.52606 0,0 z m -10.267,3.746 c -0.30434,4.54115 5.412713,2.19184 0,0 z m 133.75,7.549 c 5.14244,-0.2864 8.0971,10.7053 1.469,3.005 12.35618,11.21626 -15.88034,10.32011 -4.03613,1.13762 5.6875,-0.48776 -10.02438,-1.37717 2.56713,-4.14262 z m -142.129,2.609 c 10.454563,0.19515 -1.990297,1.44262 0,0 z m 140.77,10.72 c 7.49006,0.36428 -5.19258,1.77988 0,0 z"
     style="display:inline;fill:#000000;fill-opacity:1;stroke:#000000;stroke-width:0.102;stroke-dasharray:none;stroke-opacity:1"
     id="path1" /><path
     d="m 91.172,56.326 c -10.07799,-1.332209 -3.661103,12.325965 -3.353,13.721 -9.491545,0.701013 0.790595,18.062761 -5.635,6.797 1.872563,9.305078 -4.876573,-1.213992 -1.641,7.998 4.32401,6.167847 14.016175,2.562343 6.52,1.219 -1.716031,-2.525064 3.064602,-4.584223 1.115,-7.831 3.852303,-1.111981 2.249966,-3.572802 2.599,3.389 6.502406,-9.474967 1.609923,-8.643315 -1.209,-10.002 1.127889,-4.80927 8.919179,-11.305058 1.604,-15.291 z m -8.695,4.334 c -2.88276,3.091085 -0.93483,6.928383 0.166,0.455 z m 2.175,0.791 c -0.798127,-1.151415 -1.397421,14.300352 0,0 z m -5.183,4.535 c -2.579391,6.389312 0.423881,6.044714 0,0 z m 1.98,3.266 c -3.278531,2.00545 -2.225028,10.056346 -1.017,2.918 -0.621998,-2.040267 7.965504,-1.391809 1.017,-2.918 z m 0.12,3.602 c -2.044712,5.924453 1.430286,1.868169 0,0 z m -1.745,4.396 c -4.001633,1.716594 1.655875,6.827862 0,0 z m 0.643,7.957 c 1.843314,6.302678 2.925671,14.487963 4.22,4.047 -1.466379,-1.260482 -2.620294,-3.02233 -4.22,-4.047 z m -1.819,0.445 c -0.138128,3.138909 1.98583,5.792973 0,0 z m 0.272,4.543 c 4.500758,3.508096 -4.657217,10.84457 2.301,4.758 1.706692,0.07568 -1.303134,-4.5735 -2.301,-4.758 z m -1.668,0.248 c -3.452573,6.471689 6.848091,4.996594 0,0 z m -11.078,1.02 c -11.923732,0.629061 -10.633098,15.33102 0.492,13.455 -7.352458,-7.723267 7.271311,2.50927 -0.943,-6.358 4.488304,2.31555 7.557506,1.365414 1.142,-4.648 9.491909,5.27985 7.041628,-0.177873 -0.691,-2.449 z m 99.287,6.642 c -7.3938,0.940354 -6.52973,13.69258 -2.59,14.676 -1.584,-4.46967 -0.5982,-16.988498 5.755,-9.672 -0.56538,-1.78997 -0.10351,-5.393557 -3.165,-5.004 z m 8.312,1.461 c -9.51352,1.55866 1.46171,5.42451 0,0 z m -2.418,5.08 c -13.93019,2.13982 7.17681,4.37858 0,0 z m -6.99,2.067 c -2.44751,4.96778 0.98341,12.34908 0.432,1.318 z m 3.645,5.623 c -2.79247,3.02638 8.20962,0.18226 0,0 z m -8.422,1.164 c -3.23421,0.89311 3.67939,2.19115 0,0 z"
     style="display:inline;fill:#dea9a9;fill-opacity:0.701681;fill-rule:evenodd;stroke:#000000;stroke-width:0.006375;stroke-dasharray:none;stroke-opacity:1"
     id="path2" /><path
     d="m 93.611,66.037 c -3.302363,2.027914 -2.849755,3.946649 0.969,3.658 -1.209684,-1.176528 1.140854,-3.382908 -0.969,-3.658 z m -8.07,1.844 c -3.72791,0.550136 0.751629,3.822445 0.627,1.102 1.708347,-0.29958 0.186916,-0.678113 -0.627,-1.102 z"
     style="fill:#3f31fe;fill-opacity:1;fill-rule:evenodd;stroke:#000000;stroke-width:0.0031875;stroke-dasharray:none;stroke-opacity:1"
     id="path3" /></svg>
