<?xml version="1.0" encoding="UTF-8" standalone="no"?>
<!-- Created with Inkscape (http://www.inkscape.org/) -->

<svg
   version="1.1"
   id="svg1"
   width="214.4223"
   height="390.32809"
   viewBox="0 0 214.4223 390.32809"
   xmlns="http://www.w3.org/2000/svg"
   xmlns:svg="http://www.w3.org/2000/svg">
  <defs
     id="defs1" />
  <g
     id="g1"
     transform="translate(-81.767117,-88.01076)">
    <path
       id="path2"
       style="display:none;fill:#000000"
       d="m 178.46289,88.011719 0.002,0.002 0.002,0.002 0.002,0.002 0.002,0.002 0.002,0.002 0.002,0.002 c -1.28941,-0.0072 -2.15234,0.490756 -2.15234,1.498046 0,0.491156 -0.6043,0.892578 -1.34375,0.892578 -1.63469,0 -6.65625,4.181953 -6.65625,5.542969 0,0.537689 -0.9,1.539602 -2,2.226563 -1.1,0.686962 -2.00763,2.032395 -2.01563,2.990235 -0.0131,1.49005 -0.15497,1.52363 -0.98437,0.24023 -0.53316,-0.825 -1.02771,-1.05 -1.09961,-0.5 -0.31289,2.39468 -0.48517,3.12682 -1.24219,5.26563 -0.44083,1.24548 -1.21465,2.00881 -1.71875,1.69726 -0.50411,-0.31155 -0.66067,0.0976 -0.34961,0.90821 0.31105,0.81059 -0.006,2.5203 -0.70508,3.80078 -0.69884,1.28047 -1.60948,4.80312 -2.02148,7.82812 -0.41201,3.025 -1.06974,6.58471 -1.46289,7.90821 -0.47491,1.59871 -0.35745,2.18503 0.34961,1.74804 2.52618,-1.56127 -0.2173,3.39613 -3.83399,6.92774 -4.5026,4.39668 -5.02636,7.73523 -1.84375,11.78125 1.13992,1.44917 1.618,2.63476 1.06055,2.63476 -0.55746,0 -1.30966,-0.47568 -1.66992,-1.05859 -0.86917,-1.40636 -3.38312,1.92005 -3.44532,4.55859 -0.0355,1.50774 -0.26011,1.66735 -0.9082,0.64453 -0.5993,-0.94581 -1.06614,-1.02153 -1.54297,-0.25 -0.37623,0.60872 -0.40632,1.55547 -0.0664,2.10547 0.33992,0.55 -0.0979,1 -0.97266,1 -0.87472,0 -1.82306,-0.60932 -2.10938,-1.35547 -0.43453,-1.13233 -1.38005,-1.14281 -5.71875,-0.0605 -9.78947,2.44077 -10.24884,2.47826 -6.19921,0.50976 2.2,-1.0694 5.2375,-1.97873 6.75,-2.01953 1.74481,-0.0471 2.75,-0.6225 2.75,-1.57422 0,-0.83333 0.88889,-1.5 2,-1.5 1.45377,0 2,-0.66514 2,-2.43945 0,-3.23113 1.79788,-4.21852 3.48437,-1.91211 1.78481,2.44087 3.00104,1.12957 1.51953,-1.63867 -0.80361,-1.5016 -1.66858,-1.94265 -2.83008,-1.44141 -0.92032,0.39716 -2.41053,0.75262 -3.31054,0.79102 -0.99032,0.0422 -1.45336,0.67607 -1.17383,1.60547 0.11096,0.36893 0.13602,0.57638 0.082,0.62304 -0.0874,0.062 -0.36376,-0.253 -0.80078,-0.9375 -0.78732,-1.23316 -0.96007,-3.9261 -0.51563,-8.07617 0.52744,-4.92519 0.35135,-6.48829 -0.84179,-7.47851 -0.82964,-0.68854 -2.26147,-3.22804 -3.1836,-5.64258 -1.51063,-3.95555 -1.88033,-4.28195 -3.72461,-3.29492 -1.65407,0.88523 -2.3241,0.73523 -3.49414,-0.78125 -1.347,-1.74584 -1.40388,-1.68533 -0.81054,0.87304 0.54226,2.33811 0.31857,2.75 -1.49024,2.75 -1.78526,0 -2.0396,0.44234 -1.58594,2.75 l 0.54102,2.75 -1.125,-2.75 c -0.61889,-1.5125 -1.5159,-2.75 -1.99219,-2.75 -0.47629,0 -0.54385,0.52158 -0.15039,1.15821 0.49022,0.79319 0.0372,0.98041 -1.4414,0.59375 -1.18676,-0.31034 -1.90587,-0.15692 -1.59766,0.34179 0.30822,0.49871 1.09496,0.90778 1.75,0.90821 0.65505,4.4e-4 2.12907,2.02544 3.27539,4.5 2.56842,5.54446 1.58924,5.93046 -1.42773,0.5625 -1.70152,-3.02745 -2.70533,-3.84288 -4.34375,-3.52735 -1.23934,0.23868 -2.65211,-0.30168 -3.37696,-1.29297 -1.08256,-1.48049 -1.17712,-1.34615 -0.72265,1.03125 0.28774,1.5052 0.0396,3.31985 -0.55078,4.03125 -1.67106,2.0135 4.31675,13.52582 7.44335,14.31055 3.47278,0.87161 6.95876,5.99989 5.375,7.9082 -0.66357,0.79956 -1.60607,1.20766 -2.09375,0.90625 -1.32743,-0.82039 -1.06837,0.97322 0.36329,2.51563 0.53125,0.57235 0.78125,0.87809 0.74804,0.95312 -3e-4,5e-4 -0.003,0.003 -0.004,0.004 v 0.002 l -0.002,0.002 h -0.002 l -0.002,0.002 -0.002,0.002 -0.002,0.002 h -0.002 c -0.0699,0.0237 -0.31617,-0.0912 -0.73242,-0.32617 -1.68912,-0.95364 -1.57191,-0.009 0.36523,2.94727 1.57285,2.40052 1.54744,2.46484 -0.96875,2.46484 -1.79141,0 -2.4196,0.42559 -2.05078,1.38672 0.60521,1.57716 -4.02264,1.71165 -6.5957,0.19141 -1.3792,-0.81487 2.9793,4.48991 5.6582,6.88672 1.83571,1.6424 -0.25832,5.55848 -3.6582,6.84179 -1.65005,0.62283 -2.45508,2.47332 -2.45508,2.83399 0,0.7737 4.64714,0.85937 8.19531,0.85937 2.42616,0 2.44762,0.0641 0.85156,2.5 -1.59803,2.4389 -2.99655,3.6836 -0.53515,3.6836 0.2046,0 0.35201,-0.005 0.45507,-0.0117 -0.13958,0.0471 -0.29882,0.1516 -0.29882,0.36133 0,0.46824 -0.031,2.85208 -0.29883,3.60937 0.89496,0.15023 2.08457,0.26504 3.09179,-0.64648 2.67732,-2.42292 3.62016,-1.23131 1.60743,1.97265 -0.32925,0.52411 -0.6465,1.01828 -0.94922,1.48047 0.0971,0.31679 0.1893,0.66627 0.27734,1.05078 0.0649,0.28329 0.33438,1.38578 0.66406,2.17383 -0.27287,0.16244 -0.35353,0.42285 -0.17187,0.7168 0.65453,1.05905 -3.09994,3.62447 -5.1582,3.82422 -0.10948,-0.65016 -0.35035,-1.28042 -0.6211,-1.74024 -0.61054,0.32997 -0.96078,0.15533 -1.10742,-0.33008 -0.0303,0.11613 -0.0517,0.26104 -0.0625,0.43555 -0.0367,0.59404 0.57972,-4.35515 0.5474,-3.83719 -0.66688,0.2523 -3.08975,7.80158 -2.68802,6.97391 1.29073,-2.65927 -4.49488,3.85178 -0.82692,3.28499 -0.43709,5.62398 -3.0306,4.30157 -5.12283,13.88224 -0.83231,3.81127 2.59225,7.01369 2.57475,7.40503 -0.0175,0.39144 -0.68417,1.57273 -1.48047,2.625 -1.38065,1.82455 -1.51523,1.75492 -2.92774,-1.5 -1.21047,-2.78934 -1.48948,-3.00277 -1.52148,-1.16406 -0.0215,1.2375 -0.39838,2.25 -0.83789,2.25 -1.22414,0 -3.20117,6.22691 -3.20117,10.08203 0,2.35545 0.62994,3.83188 2,4.6875 3.81089,2.37994 6.88333,-1.45971 6.0625,-7.57617 -0.10366,-0.77242 0.64245,-0.48645 1.82617,0.69727 1.55717,1.55718 1.8722,2.8096 1.41406,5.63281 -0.36548,2.25214 -0.87949,3.16153 -1.35352,2.39453 -0.60448,-0.97806 -1.42065,-0.96366 -3.90429,0.0644 -2.93711,1.21659 -3.3397,1.11428 -6.22852,-1.58984 l -3.08984,-2.89258 0.62695,4 c 0.34407,2.2 0.63072,6.16559 0.63672,8.81055 0.007,2.94893 0.39656,4.56843 1.00977,4.18945 1.31053,-0.80993 1.29219,0.80885 -0.0234,2.125 -0.56306,0.56306 -1.48841,3.68978 -2.05664,6.94922 -1.458014,8.36318 -1.369611,8.05926 -2.855471,9.84961 -0.74182,0.89378 -1.067467,1.90712 -0.722657,2.25195 0.344831,0.34483 -0.153461,1.22093 -1.107421,1.94532 -1.59403,1.21042 -1.597554,1.31845 -0.05664,1.34765 2.27846,0.0432 2.700994,2.69668 1.240234,7.78125 -0.67127,2.3365 -0.814239,3.99593 -0.318359,3.68946 0.49587,-0.30647 0.900391,0.3555 0.900391,1.4707 0,1.38636 -0.470365,1.84644 -1.490235,1.45508 -0.83456,-0.32025 -1.750565,0.0995 -2.078125,0.95312 -0.78092,2.03504 1.368623,5.92477 2.789063,5.04688 0.74034,-0.45755 0.892139,-0.10154 0.449219,1.05273 -0.368471,0.96021 -0.677547,2.27154 -0.685547,2.91406 -0.0088,0.67024 -0.428215,0.52856 -0.984375,-0.33203 -0.79476,-1.22976 -0.971775,-1.24445 -0.984375,-0.0859 -0.0084,0.77686 1.433538,3.67094 3.205078,6.43165 2.8124,4.38273 3.2881,4.74614 3.75,2.86718 0.40055,-1.62937 0.89356,-1.92013 2.0293,-1.19726 2.163,1.37668 3.29612,1.20054 2.67578,-0.41602 -0.31976,-0.8333 0.24649,-1.60603 1.39453,-1.90625 2.38266,-0.62308 2.5597,-2.69336 0.23047,-2.69336 -1.32222,0 -1.43334,-0.26589 -0.5,-1.19922 1.71516,-1.71516 1.48308,-2.80078 -0.59961,-2.80078 -4.14576,0 -5.51484,-4.49914 -2.26367,-7.4414 2.63366,-2.38343 4.0625,-1.19516 4.0625,3.3789 0,2.1002 0.63413,4.34391 1.4082,4.98633 1.14497,0.95024 1.6236,0.51114 2.57031,-2.35742 0.64004,-1.93932 0.88755,-3.97537 0.54883,-4.52344 -0.33872,-0.54806 -0.14444,-2.74537 0.43164,-4.88476 0.80386,-2.9853 0.71493,-4.83399 -0.38281,-7.94532 -1.24264,-3.52068 -1.24374,-4.12665 0.006,-4.60547 0.9877,-0.37902 1.38438,-1.93235 1.26953,-4.96875 -0.18206,-4.81308 4.48444,-16.01492 8.59765,-20.63867 3.90554,-4.39031 7.8973,-12.1679 6.64258,-12.94336 -0.80783,-0.49926 -0.54719,-2.03116 0.9043,-5.3125 1.3352,-3.01844 1.87897,-5.90047 1.57617,-8.34179 -0.51752,-4.17249 1.08377,-8.43569 4.83203,-12.86329 2.72751,-3.22182 2.98923,-3.19851 4.07813,0.3379 0.5351,1.73783 0.406,2.17211 -0.48242,1.62304 -1.50294,-0.92887 -0.60888,2.2878 2.16601,7.78711 2.13421,4.22959 3.29074,4.17521 4.16406,-0.1914 0.38329,-1.91647 1.29167,-3.05826 2.59961,-3.26954 2.0104,-0.32477 2.01228,-0.32531 -0.0215,-3.51953 -2.46602,-3.87362 -5.35588,-3.50337 -4.52735,0.58008 0.31998,1.5767 -0.29196,0.85393 -1.54296,-1.82031 l -2.07422,-4.43359 2.29492,-7.31641 c 1.26186,-4.0236 2.62757,-7.31641 3.03516,-7.31641 0.4076,0 1.22934,2.27762 1.82617,5.06055 0.59683,2.78294 1.97413,7.01166 3.06054,9.39648 3.03696,6.66652 3.17322,10.54304 0.5293,14.92383 -1.27281,2.10897 -2.47436,3.22924 -2.70898,2.52539 -0.7035,-2.11052 -3.80078,-0.15757 -3.80078,2.39649 0,1.30059 -0.3375,2.70273 -0.75,3.11523 -0.4125,0.4125 -0.8062,1.16186 -0.875,1.66602 -0.0687,0.50417 -0.1812,1.33499 -0.25,1.8457 -0.0687,0.51072 -0.89157,1.6943 -1.82813,2.63086 -1.13374,1.13374 -1.61151,2.96806 -1.42969,5.48633 0.29342,4.06386 -2.33512,10.40115 -3.91015,9.42773 -0.85176,-0.52642 -1.35496,0.85825 -0.70703,1.94531 0.1375,0.23069 -0.76724,1.50161 -2.00977,2.82422 -1.24253,1.32262 -1.97579,2.68828 -1.63086,3.03321 0.34493,0.34493 -0.55229,0.92181 -1.99219,1.2832 -2.80275,0.70345 -3.53169,3.15213 -1.20507,4.04492 1.16881,0.44852 1.06272,1.34582 -0.61719,5.21875 -1.11577,2.57234 -2.49238,5.12578 -3.0586,5.67578 -0.32088,0.31169 -0.51953,0.46253 -0.58984,0.45117 h -0.002 l -0.002,-0.002 h -0.002 -0.002 l -0.002,-0.002 -0.002,-0.002 -0.002,-0.002 -0.002,-0.002 c -0.001,-0.002 -0.005,-0.008 -0.006,-0.01 -0.0237,-0.0698 0.0712,-0.29924 0.28711,-0.68164 0.38814,-0.6875 0.49112,-1.25 0.22851,-1.25 -0.7002,0 -4.34163,6.08309 -5.56055,9.28906 -0.96513,2.5385 -0.89641,2.6839 0.83399,1.75782 1.3699,-0.73316 2.02049,-0.65939 2.37695,0.26953 0.571,1.48801 -4.05998,13.01864 -5.43359,13.5293 -1.30604,0.48554 -7.85742,13.73012 -7.85742,15.88476 0,0.97869 -2.25933,4.02784 -5.02149,6.77539 -4.943154,4.91702 -8.390173,9.48557 -6.078123,8.05664 2.008823,-1.24152 1.145465,0.35542 -3.478515,6.43555 -5.12265,6.73584 -11.421875,16.867 -11.421875,18.36914 0,0.54072 1.041503,0.004 2.314453,-1.19141 3.19959,-3.00586 4.018067,-2.71921 2.210937,0.77539 -3.65476,7.0675 -5.778687,24.98529 -3.617187,30.51368 0.68715,1.75752 0.842405,1.66531 1.478515,-0.86914 0.39087,-1.55735 0.46387,-3.07714 0.16211,-3.37891 -0.30177,-0.30176 -0.548828,0.27487 -0.548828,1.2832 0,1.00833 -0.266577,1.56741 -0.591797,1.24219 -0.87487,-0.87488 0.595032,-4.85667 1.570312,-4.25391 0.45911,0.28374 0.600553,-0.38053 0.314453,-1.47461 -0.32959,-1.26033 0.06928,-2.21458 1.087891,-2.60546 0.88424,-0.33932 1.358992,-1.01936 1.054687,-1.51172 -0.304299,-0.49237 -0.09059,-0.89649 0.47461,-0.89649 0.56519,0 0.739882,-0.74689 0.388672,-1.66211 -0.42645,-1.11132 -0.254149,-1.42738 0.519531,-0.94922 0.70754,0.43729 0.968982,0.20923 0.669922,-0.58593 -0.2693,-0.71607 0.521657,-2.44864 1.759765,-3.84961 0.812455,-0.91934 1.337911,-1.42827 1.445313,-1.42969 h 0.002 0.002 0.002 v 0.002 h 0.002 l 0.002,0.002 0.002,0.002 0.002,0.002 v 0.002 l 0.002,0.002 c 0.01101,0.042 -0.05497,0.17966 -0.208984,0.41797 -0.86978,1.34574 -0.774259,1.36937 0.738281,0.18359 0.95644,-0.74982 1.512415,-1.72982 1.234375,-2.17969 -0.27803,-0.44986 0.513168,-2.36912 1.759766,-4.26367 1.246577,-1.89455 2.777616,-4.28759 3.402346,-5.31836 0.91394,-1.50796 1.03962,-0.89812 0.63867,3.125 -0.4633,4.64865 -0.39098,4.85946 1.03321,3 0.8425,-1.1 2.08816,-2 2.76757,-2 0.6794,0 1.34775,-0.76047 1.48438,-1.6914 0.31783,-2.1655 3.25323,-6.38657 4.21094,-6.05469 0.4019,0.13927 2.01683,-0.69835 3.58984,-1.86133 2.53784,-1.8763 2.79126,-2.54626 2.24805,-5.94336 -0.34792,-2.17575 -0.17893,-4.09526 0.39062,-4.44726 0.55119,-0.34066 1.00196,-0.0631 1.00196,0.61523 0,0.68036 1.12088,0.17842 2.5,-1.11719 2.3854,-2.24097 2.5,-2.8743 2.5,-13.83984 0,-6.32079 0.21368,-11.27847 0.47461,-11.01758 0.26088,0.26088 0.55178,5.08787 0.64648,10.72656 l 0.17187,10.25196 3.77149,-3.68164 3.76953,-3.6836 2.17187,4.25781 c 1.69812,3.32849 1.89277,4.43143 0.89063,5.05079 -1.59647,0.98667 -3.86493,-1.87179 -3.19141,-4.02149 0.16695,-0.53284 0.21276,-0.82404 0.13868,-0.87109 h -0.002 l -0.002,-0.002 h -0.002 c -1.1e-4,-10e-6 -0.005,-5e-5 -0.006,0 v -0.002 h -0.002 c -0.0769,-0.0106 -0.24136,0.14901 -0.48632,0.48242 -0.46438,0.63205 -1.95071,1.30705 -3.30274,1.5 -2.96082,0.42253 -8.68467,7.99872 -7.49609,9.92188 0.57161,0.92489 0.99453,0.70252 1.55859,-0.82227 0.53644,-1.45013 1.3748,-1.93603 2.72852,-1.58203 1.54701,0.40456 2.20502,-0.25046 3.16015,-3.14453 1.93266,-5.85602 2.31963,-3.28693 0.54688,3.63281 -1.89121,7.3821 -4.1298,10.53042 -3.22071,4.5293 0.41349,-2.72925 0.23562,-3.69544 -0.62109,-3.39063 -0.65881,0.2344 -1.09,1.38954 -0.95898,2.56641 0.27745,2.49226 -0.96077,2.78045 -2.73828,0.63867 -0.68469,-0.825 -1.64039,-1.5 -2.12305,-1.5 -1.22528,0 -1.09991,5.37665 0.1543,6.63086 1.2067,1.2067 -0.14314,5.68691 -1.56446,5.19336 -0.51344,-0.17829 -1.20173,1.32481 -1.52929,3.33984 -0.32755,2.01516 -1.36338,4.83784 -2.30274,6.27149 -1.1912,1.818 -1.8176,5.28396 -2.06836,11.45703 -0.19774,4.86803 -0.79314,9.69732 -1.32422,10.73047 -1.51357,2.94447 -2.44424,7.62038 -1.38672,6.9668 1.19233,-0.73689 2.14454,1.7299 2.14454,5.55273 0,1.91024 0.39398,2.73298 1.09961,2.29688 0.74325,-0.45935 0.71937,0.0335 -0.0762,1.51953 -0.64721,1.20935 -0.95405,2.78303 -0.67968,3.49804 0.27437,0.715 0.11024,1.69235 -0.36524,2.17188 -0.47548,0.47952 -1.28676,2.67109 -1.80469,4.87109 -0.51792,2.2 -1.26184,4.9 -1.65234,6 -0.28058,0.79036 -0.4041,1.21989 -0.35547,1.30469 8.8e-4,10e-4 0.003,0.003 0.004,0.004 l 0.002,0.002 0.002,0.002 0.002,0.002 c 0.0767,0.02 0.31438,-0.25773 0.71484,-0.81446 0.59346,-0.825 1.08575,-1.12077 1.09375,-0.6582 0.008,0.46257 -1.49176,2.60169 -3.33398,4.75391 -3.11646,3.64087 -3.27392,4.15753 -2.25586,7.41015 0.6018,1.92271 1.51879,3.49414 2.03711,3.49414 0.51832,0 -0.35084,1.35 -1.93164,3 -1.5808,1.65 -2.49635,3 -2.03321,3 0.46315,0 0.0259,0.90441 -0.97265,2.00782 -0.998599,1.10336 -1.544488,2.27583 -1.212898,2.60742 0.620118,0.62012 -5.178025,6.38476 -6.421875,6.38476 -0.91105,0 -3.747147,8.00705 -3.623047,10.22852 0.07172,1.28384 0.680937,1.58094 2.373047,1.15625 1.25207,-0.31425 2.780071,-0.26061 3.394531,0.11914 0.61447,0.37976 3.452375,0.79063 6.306642,0.91406 2.10727,0.0912 3.44349,0.0493 3.55469,-0.084 v -0.002 l 0.002,-0.002 v -0.002 l 0.002,-0.002 v -0.002 -0.002 c 3e-5,-7.5e-4 3e-5,-0.005 0,-0.006 v -0.002 -0.002 -0.002 c -0.0169,-0.0417 -0.13711,-0.0926 -0.36914,-0.14844 -2.62079,-0.63047 9.49165,-3.01831 15.72461,-3.09961 4.22041,-0.0551 4.89156,-0.38554 6.29101,-3.09179 0.86161,-1.66615 1.29489,-3.46868 0.96289,-4.00586 -0.332,-0.53718 -0.61555,-2.88655 -0.6289,-5.22071 -0.0134,-2.33417 -0.42181,-6.04414 -0.90821,-8.24414 -0.73808,-3.33837 -0.54791,-4.46255 1.1543,-6.80078 1.52328,-2.09244 1.86807,-3.58908 1.35742,-5.91406 -1.10967,-5.05228 -0.67908,-9.9287 1.39453,-15.78516 2.34321,-6.61789 3.09451,-8.70362 3,-8.89062 l -0.002,-0.002 -0.002,-0.002 v -0.002 l -0.002,-0.002 -0.002,-0.002 -0.002,-0.002 h -0.002 -0.002 l -0.002,-0.002 h -0.002 -0.002 -0.002 c -0.0861,0.004 -0.35328,0.39624 -0.71875,0.90429 -0.59346,0.825 -1.08575,1.08785 -1.09375,0.58399 -0.008,-0.50386 0.6564,-1.62886 1.47851,-2.5 0.8221,-0.87114 2.66377,-3.04697 4.0918,-4.83594 1.46168,-1.83114 3.10347,-2.96309 3.75586,-2.58984 0.63737,0.36464 0.87376,0.3441 0.52539,-0.0469 -0.34837,-0.39071 -0.27899,-2.28194 0.1543,-4.20312 0.62412,-2.76725 0.5236,-3.27471 -0.48047,-2.44141 -2.12522,1.76377 -0.62094,-3.5828 1.56445,-5.56055 1.14039,-1.03205 1.89453,-3.04738 1.89453,-5.06054 0,-1.83975 0.40512,-3.34571 0.90039,-3.34571 0.49562,0 0.72218,-1.6875 0.50391,-3.75 -0.21827,-2.0625 -0.13008,-5.45659 0.19531,-7.54297 0.45581,-2.92278 0.88315,-3.54976 1.86328,-2.73632 0.92391,0.76677 1.65008,0.58937 2.6543,-0.64844 0.567,-0.69889 0.8039,-1.08972 0.71875,-1.17578 -0.0608,-0.0508 -0.25888,0.0253 -0.59375,0.22656 -1.00943,0.60677 -1.0092,0.2121 -0.002,-2 0.94084,-2.06493 1.33597,-2.33013 1.58007,-1.0625 0.50945,2.64525 1.82329,2.01036 4.27149,-2.06055 1.24037,-2.0625 2.42732,-3.96163 2.63672,-4.2207 0.90931,-1.12505 2.24176,2.81688 2.25586,6.67187 0.008,2.31043 0.52252,6.55933 1.14062,9.44141 1.02396,4.77456 1.24377,5.07501 2.48828,3.37305 0.75122,-1.02735 1.50355,-1.67626 1.67188,-1.44141 0.86198,1.20261 7.71484,17.96508 7.71484,18.8711 0,0.58057 0.45,1.05468 1,1.05468 0.55,0 1,0.7513 1,1.66797 0,0.91666 0.25226,1.41376 0.56055,1.10547 0.3083,-0.3083 0.72982,-3.32062 0.93555,-6.69336 0.23848,-3.90982 1.12258,-7.34192 2.43945,-9.47266 1.13598,-1.83806 2.06733,-3.96454 2.07031,-4.7246 0.003,-0.76009 0.48336,-3.10616 1.06836,-5.2129 0.81896,-2.94931 1.44414,-3.68486 2.71485,-3.19726 0.90763,0.34827 1.33042,0.31519 0.93945,-0.0762 -0.39096,-0.39096 -0.15914,-1.37643 0.51562,-2.18946 0.83611,-1.00748 1.12377,-4.53966 0.9043,-11.09179 -0.17712,-5.28757 0.0298,-9.26536 0.45898,-8.83789 0.42923,0.42748 0.73399,2.67748 0.67579,5 -0.0582,2.32257 0.12242,3.32265 0.40234,2.22265 0.27992,-1.1 0.9155,-2.42672 1.41211,-2.94922 0.49662,-0.5225 0.90618,-7.7225 0.91015,-16 l 0.01,-15.05078 4.54492,8 c 2.5005,4.4 5.36554,8.675 6.36719,9.5 1.00165,0.825 2.57506,2.69281 3.49609,4.15039 1.3112,2.07504 1.39256,2.75422 0.375,3.12696 -1.01663,0.37239 -0.9178,1.17456 0.45118,3.68164 1.95109,3.57311 2.26585,5.47786 0.75,4.54101 -2.54934,-1.57558 -0.60713,3.53051 2.68359,7.05469 3.71466,3.97819 4.22878,5.52683 2.87305,8.6582 -0.42725,0.98685 -0.0845,3.03005 0.81054,4.82422 0.89787,1.79991 1.31663,4.29385 0.99219,5.91602 -0.31404,1.57024 -0.0772,3.10547 0.53906,3.48633 0.60541,0.37416 1.10157,1.71795 1.10157,2.98632 0,1.26837 0.92735,3.48321 2.06054,4.92383 1.1332,1.44062 2.28122,4.31371 2.55274,6.38477 1.29318,9.86389 1.36955,10.0839 3.28125,9.58398 2.4373,-0.63737 5.04549,3.71127 8.88672,14.8125 2.34772,6.78494 2.90115,9.86422 2.58593,14.40235 -0.27122,3.9048 0.0366,6.29068 0.95117,7.37109 2.63135,3.10855 3.9281,7.76734 2.76563,9.93945 -0.59606,1.11374 -1.08398,4.09417 -1.08398,6.62305 0,3.72654 -0.39017,4.7429 -2.05665,5.35937 -1.95455,0.72305 -1.86812,0.99195 1.75,5.46289 3.98098,4.91929 5.12797,5.41343 8.45508,3.63282 1.53563,-0.82185 2.41486,-0.73397 3.6836,0.36914 0.91674,0.79707 2.34297,1.69665 3.16797,2 0.825,0.30334 4.92114,0.58746 9.10156,0.63086 7.6608,0.0796 13.89844,-1.30213 13.89844,-3.07813 0,-0.52864 -0.38492,-0.72245 -0.85547,-0.43164 -0.47051,0.29082 -0.66692,-0.47055 -0.4375,-1.6914 0.62053,-3.30209 -2.41356,-9.6592 -5.09766,-10.67969 -2.18562,-0.83097 -3.54136,-2.73494 -4.18359,-5.87696 -0.15022,-0.73491 -1.35588,-2.98489 -2.67969,-5 -2.93316,-4.46478 -3.75843,-7.39087 -2.64258,-9.38476 0.91287,-1.63121 -1.87535,-10.03679 -3.08203,-9.29102 -0.82577,0.51036 -4.01501,-13.71613 -4.03711,-18.00976 -0.0123,-2.39203 -0.22679,-2.68372 -1.09375,-1.47852 -0.43467,0.60427 -0.67868,0.90294 -0.75781,0.87696 h -0.002 v -0.002 l -0.002,-0.002 -0.002,-0.002 h -0.002 -0.002 -0.008 c -0.0581,-0.0679 0.0438,-0.46325 0.2832,-1.20118 0.32688,-1.00748 0.59375,-3.806 0.59375,-6.21875 0,-3.48856 0.30715,-4.27024 1.5,-3.8125 1.79985,0.69067 1.84028,0.33167 0.36328,-3.32226 -0.62586,-1.5483 -1.08638,-3.77973 -1.02148,-4.95899 0.0649,-1.17927 -0.54732,-2.69746 -1.36133,-3.37304 -0.81402,-0.67557 -1.51208,-2.41032 -1.55078,-3.85547 -0.0386,-1.44516 -0.43358,-3.52891 -0.87695,-4.62891 -0.44564,-1.10561 -0.38446,-2.52643 0.13476,-3.17773 0.60633,-0.76057 0.39424,-2.23033 -0.59765,-4.14844 -1.36424,-2.63814 -1.36422,-3.11033 -0.0332,-4.21484 1.33088,-1.10451 1.32493,-1.43329 -0.0293,-2.92969 -0.83888,-0.92695 -1.52539,-2.29091 -1.52539,-3.0293 0,-2.04133 -3.01331,-4.93089 -4.53321,-4.34765 -3.28506,1.2606 -4.72597,-1.19781 -4.84765,-8.26563 -0.0848,-4.92744 -0.47477,-6.8156 -1.36914,-6.63672 -0.6875,0.1375 -1.25,-0.4153 -1.25,-1.22851 0,-2.2326 4.23396,-0.008 6.28906,3.30468 1.16329,1.87515 1.66685,2.17569 1.68555,1.00586 0.0146,-0.91752 0.29421,-2.49252 0.62109,-3.5 0.2374,-0.73169 0.3402,-1.13482 0.2832,-1.2207 -0.0744,-0.072 -0.3517,0.23011 -0.86914,0.88867 -0.94773,1.20625 -1.06705,0.85469 -0.60937,-1.79883 0.31759,-1.84132 0.17407,-3.05521 -0.32618,-2.74609 -0.49297,0.30468 -1.21194,-1.35938 -1.59765,-3.69922 -0.38571,-2.33984 -2.25263,-8.86694 -4.14844,-14.5039 -1.89582,-5.63695 -3.12519,-10.76878 -2.73242,-11.4043 0.39278,-0.63557 0.28918,-0.89344 -0.23047,-0.57227 -0.52574,0.32493 -1.01866,-1.22791 -1.10937,-3.50195 l -0.16211,-4.08789 3.86328,3.77344 c 2.32499,2.27029 4.33987,3.47664 5.06054,3.03125 0.86186,-0.53266 0.99654,-0.11007 0.48243,1.50976 -0.51149,1.61154 -0.37625,2.04342 0.47461,1.51758 0.72746,-0.4496 0.93423,-1.75809 0.53515,-3.375 -0.84361,-3.41821 -2.55082,-5.21701 -1.93164,-2.03516 0.048,0.24689 0.056,0.38208 0.0234,0.41602 h -0.0117 -0.01 -0.002 v 0.002 0.002 l -0.004,0.002 h -0.004 -0.002 -0.002 v 0.002 h -0.002 -0.002 c -9.4e-4,10e-6 -0.005,8e-5 -0.006,0 -0.19864,-0.0332 -1.02648,-1.76343 -2.13282,-4.52734 -1.43042,-3.57354 -2.69549,-7.39854 -2.81054,-8.5 -0.11505,-1.10146 -1.16346,-3.91641 -2.33008,-6.25391 -1.74241,-3.49114 -1.85454,-4.25 -0.62695,-4.25 1.0405,0 0.40636,-1.48229 -2.08985,-4.88281 -3.9555,-5.38845 -4.31596,-6.33426 -2.08593,-5.47852 2.89368,1.11042 1.46098,-1.28243 -2.51172,-4.19531 -2.89796,-2.12486 -3.88072,-3.48363 -3.54102,-4.89062 0.55431,-2.29576 -1.05203,-4.55274 -3.24023,-4.55274 -0.85184,0 -2.37115,-0.74404 -3.37696,-1.65429 -2.01572,-1.8242 -2.55816,-4.91372 -0.65625,-3.73829 0.64508,0.39869 0.42007,-0.35046 -0.5,-1.66406 -0.92009,-1.31361 -1.68146,-3.52393 -1.68945,-4.91406 -0.0112,-1.8524 -0.25076,-2.15566 -0.89844,-1.13281 -1.14324,1.80552 -3.62089,-2.74836 -4.49804,-8.26758 -0.81508,-5.12879 -1.21636,-5.62891 -4.53125,-5.62891 -4.83067,0 -8.16819,-7.94759 -5.50196,-13.10351 0.75121,-1.45264 1.083,-2.92479 0.73828,-3.26953 -0.34473,-0.34473 -0.16947,-0.62696 0.38868,-0.62696 0.55813,0 1.80876,-1.9125 2.77929,-4.25 0.97053,-2.3375 2.46967,-5.96489 3.33203,-8.0625 1.55686,-3.78691 1.57741,-3.7975 2.85157,-1.5 0.70578,1.27261 1.99391,4.69523 2.86132,7.60742 0.86742,2.91218 2.49446,6.06218 3.61524,7 2.60199,2.17723 5.14136,6.97225 4.36133,8.23438 -0.32994,0.53385 -0.23598,1.5332 0.20898,2.2207 0.44496,0.6875 1.30931,3.725 1.91992,6.75 0.61061,3.025 1.87065,7.22939 2.80078,9.3418 0.93012,2.11241 1.21886,3.54878 0.64063,3.19141 -2.37121,-1.46549 -0.83422,2.33223 1.94727,4.81054 1.65,1.47015 2.99999,3.353 3,4.18555 0,0.83255 1.2375,2.04099 2.75,2.68555 3.96018,1.68765 6.25,3.834 6.25,5.85742 0,0.96893 0.35603,1.91236 0.79101,2.0957 2.00126,0.84349 7.51877,10.72374 7.99805,14.32227 0.29384,2.20631 1.18264,4.48887 1.97461,5.07226 0.79197,0.5834 1.55948,2.3834 1.70703,4 0.66062,7.23765 1.88473,10.23793 6.09961,14.96094 2.43658,2.73033 4.42968,5.28462 4.42969,5.67578 0,0.39115 1.17598,1.88692 2.61328,3.32422 2.7773,2.77731 7.38671,5.00358 7.38672,3.56836 0,-0.47224 0.94622,-1.10412 2.10156,-1.40625 1.25594,-0.32844 1.81454,-1.01135 1.39062,-1.69727 -0.39666,-0.64179 0.22088,-1.79884 1.40039,-2.625 1.15963,-0.81223 2.10742,-2.35111 2.10743,-3.41992 0,-1.06882 0.45,-1.94336 1,-1.94336 1.36637,0 1.26471,-3.33488 -0.14454,-4.74414 -0.85918,-0.85916 -0.83387,-1.88991 0.0977,-4.13867 1.33471,-3.22227 0.7836,-5.11719 -1.48828,-5.11719 -0.77985,0 -2.13128,-1.08719 -3.00195,-2.41601 -1.8217,-2.78026 -4.6769,-4.30422 -3.80469,-2.03125 0.86405,2.25165 -1.06459,1.70809 -3.62891,-1.02149 -1.27578,-1.35802 -2.41849,-3.7231 -2.53906,-5.25586 -0.12059,-1.53277 -1.38492,-4.50467 -2.81055,-6.60547 -1.42564,-2.1008 -2.86719,-4.68572 -3.20312,-5.74414 -0.33594,-1.05841 -1.05812,-1.92578 -1.60352,-1.92578 -0.54539,0 -0.71296,-0.45 -0.37304,-1 0.33992,-0.55 0.25355,-1.00095 -0.19141,-1.00195 -0.44496,-10e-4 -0.85842,-1.39865 -0.91992,-3.10547 -0.0615,-1.70681 -0.5115,-3.39363 -1,-3.74805 -0.48849,-0.35443 -0.89777,-2.89453 -0.91016,-5.64453 -0.0124,-2.75 -0.38849,-5.9 -0.83398,-7 -0.71593,-1.7678 -1.09381,-1.47754 -3.25782,2.5 -1.34654,2.475 -2.19499,3.54151 -1.88671,2.36914 0.63263,-2.40583 -1.1579,-3.53188 -4.30469,-2.70898 -3.17384,0.82998 -3.87392,-4.4986 -1.22657,-9.33399 1.15206,-2.10421 1.82569,-2.81367 1.4961,-1.57617 -0.32964,1.23776 -0.14635,2.25 0.40625,2.25 0.58953,0 0.76888,1.4459 0.43555,3.5 -0.34675,2.13672 -0.15999,3.5 0.48046,3.5 0.57697,0 1.6811,0.24282 2.45313,0.53906 1.46396,0.56178 4.13621,-3.82863 3.01367,-4.95117 -0.33648,-0.33648 -1.3474,-2.74372 -2.24805,-5.34961 -1.35894,-3.93192 -2.80001,-3.10943 -4.11132,-4.73828 -5.19237,-6.44976 -9.41409,-4.83253 -14.85352,-19.91015 -1.85947,-5.15428 -1.91279,-5.73017 -0.41992,-4.5 1.91963,1.58182 4.23157,7.43811 1.29275,-2.10448 0,0 15.00244,33.81224 24.20706,34.38435 1.0936,0.068 -4.42165,-11.39764 -9.04152,-21.37394 l -9.13815,-19.73322 c -3.87487,-4.12867 -1.54123,-2.58301 -0.44123,-2.07506 0.89775,0.41457 1.37684,0.62917 1.44921,0.59375 h 0.002 l 0.002,-0.002 0.002,-0.002 v -0.002 h 0.002 v -0.002 -0.006 l 0.002,-0.004 v -0.008 -0.002 c -0.009,-0.0889 -0.45041,-0.45209 -1.30859,-1.14258 -1.01758,-0.81875 -1.54151,-1.98892 -1.16407,-2.59961 0.37743,-0.61069 0.24772,-1.65302 -0.28906,-2.3164 -0.53676,-0.66341 -0.96895,-2.44454 -0.96094,-3.95704 0.013,-2.40361 0.40729,-2.75269 3.13868,-2.77929 2.81981,-0.0274 2.92967,-0.13792 1.125,-1.125 -1.1,-0.60166 -2.56251,-1.79842 -3.25,-2.66016 -1.46346,-1.83437 -1.69298,-5.57665 -0.28907,-4.70898 1.47192,0.9097 -0.88865,-5.1713 -2.53906,-6.54102 -0.78234,-0.64928 -1.42188,-2.0103 -1.42187,-3.02539 0,-1.01509 -1.2375,-2.51735 -2.75,-3.33789 -1.5125,-0.82055 -2.1875,-1.50925 -1.5,-1.53125 2.10885,-0.0676 1.38369,-2.04102 -0.75,-2.04102 -1.1,0 -2,-0.45 -2,-1 0,-0.55 -0.70114,-1 -1.5586,-1 -0.85748,0 -1.28132,-0.45 -0.9414,-1 0.33992,-0.55 0.0285,-1.01259 -0.69141,-1.02929 -0.71996,-0.0167 -0.40859,-0.57131 0.69141,-1.23243 1.85075,-1.11232 1.73882,-1.24416 -1.5,-1.77148 -1.92501,-0.31342 -4.14095,-0.0963 -4.92383,0.48242 -1.14405,0.84576 -1.31515,0.6307 -0.8711,-1.09375 0.50987,-1.98005 0.31331,-2.07643 -2.56836,-1.25 -1.71734,0.49253 -3.23777,0.89453 -3.3789,0.89453 -0.73933,0 -0.0591,-2.85508 1.30273,-5.46679 1.5572,-2.98636 1.22384,-7.53321 -0.55273,-7.53321 -1.46306,0 -4.28951,-6.08796 -4.59375,-9.89648 -0.14925,-1.86829 -0.64004,-3.66828 -1.0918,-4 -0.45174,-0.33172 -0.90074,-2.27708 -0.99805,-4.32422 -0.0973,-2.04714 -0.86238,-4.97214 -1.69921,-6.5 -0.83683,-1.52786 -2.4335,-4.94856 -3.54883,-7.60156 -1.12984,-2.68753 -2.48239,-4.54389 -3.05274,-4.19141 -0.58788,0.36334 -1.02343,-0.37348 -1.02343,-1.73047 0,-2.602048 -4.35858,-7.163821 -10.13672,-10.609371 -1.69935,-1.013334 -3.40934,-1.526546 -4.69727,-1.537109 z M 118.86914,203.05859 c 0.18178,-0.69555 0.68184,-0.39269 1.10742,0.33008 0.13933,-0.0753 0.29185,-0.17641 0.45899,-0.30664 -0.0704,-0.17735 -0.11328,-0.41209 -0.11328,-0.66797 0,-0.55 0.47614,-1 1.05859,-1 0.23932,0 0.41472,0.0774 0.51367,0.20508 0.8303,-0.97439 1.85156,-2.36247 3.0918,-4.25586 -2.27638,-7.42906 -6.86869,3.20776 -6.11719,5.69531 z m 3.02539,-1.43945 c -0.57437,0.67406 -1.05793,1.1504 -1.45898,1.46289 0.0809,0.20385 0.19842,0.33203 0.32812,0.33203 0.24254,0 0.71868,-0.45 1.0586,-1 0.20025,-0.32401 0.21362,-0.61188 0.0723,-0.79492 z m -0.6582,-7.0625 c -0.88362,-0.1484 -1.4796,-0.33213 -1.32617,0.4043 0.075,0.35995 0.59356,-0.49766 1.08593,-0.19336 0.0957,0.059 0.17521,-0.0296 0.24024,-0.21094 z m 58.1582,-97.943359 c 0.59916,-0.01235 1.1536,0.931856 1.92774,2.800781 0.68345,1.650008 1.66394,2.999998 2.17968,2.999998 0.51573,0 0.66024,0.45 0.32032,1 -0.33992,0.55 -0.14106,1 0.4414,1 0.58246,0 1.0586,1.08168 1.0586,2.40235 0,1.64254 1.02686,3.01617 3.25,4.34961 1.7875,1.07214 4.10286,3.43447 5.14453,5.24804 1.04167,1.81358 1.37917,2.9787 0.75,2.58985 -0.67175,-0.41517 -1.14453,-0.0639 -1.14453,0.85156 0,1.0052 -1.42096,0.13763 -4,-2.44141 -2.2,-2.2 -4.34851,-4 -4.77344,-4 -0.42493,0 -1.61957,1.575 -2.65625,3.5 -1.03668,1.925 -2.15263,3.49528 -2.47852,3.48828 -0.32589,-0.007 -1.67026,-1.69431 -2.98828,-3.75 -1.22108,-1.90449 -1.77878,-2.80482 -1.70703,-2.93945 v -0.002 -0.002 h 0.002 v -0.002 h 0.002 l 0.002,-0.002 v -0.002 h 0.002 l 0.002,-0.002 0.002,-0.002 h 0.002 0.002 c 0.1108,-0.0369 0.59769,0.37228 1.4414,1.12109 2.11601,1.87802 2.14649,1.87682 2.14649,-0.12695 0,-1.1179 -0.67029,-2.58871 -1.48829,-3.26758 -1.77204,-1.47067 -4.64172,-0.62837 -4.09179,1.20117 0.21291,0.70832 -1.5419,2.9854 -3.90039,5.06055 -3.56642,3.13797 -4.39442,3.49794 -4.91602,2.13867 -0.43982,-1.14613 -0.19912,-1.47039 0.80274,-1.08594 1.6095,0.61762 2.8061,-1.60712 1.99804,-3.71289 -0.30946,-0.80642 0.74967,-2.29781 2.53125,-3.5664 1.91404,-1.36292 3.06446,-3.05523 3.06446,-4.50782 0,-1.2787 0.67614,-2.58349 1.50195,-2.90039 0.82582,-0.31689 2.25754,-2.16547 3.18359,-4.107418 1.05926,-2.221271 1.74891,-3.31888 2.38672,-3.332031 z m 15.42774,2.800781 c -0.275,0 -0.5,0.22501 -0.5,0.5 0,0.275008 0.225,0.499998 0.5,0.499998 0.275,0 0.5,-0.22499 0.5,-0.499998 0,-0.275 -0.225,-0.5 -0.5,-0.5 z m -16.57813,2.499998 -1.52734,2.81836 c -1.19393,2.20049 -1.269,3.13044 -0.33985,4.25 1.61978,1.95171 1.60066,1.98147 1.74219,-2.81836 z m 2.4043,1.91016 c -0.29005,0.0259 -0.32617,0.90143 -0.32617,2.90039 0,4.08999 0.46117,4.56389 1.87304,1.92578 0.65126,-1.21689 0.50704,-2.36228 -0.46484,-3.69141 -0.53037,-0.72532 -0.86111,-1.13375 -1.06836,-1.13476 -0.005,-2e-5 -0.009,-4.1e-4 -0.0137,0 z m -16.97656,2.76758 c 0.0944,-0.009 0.20182,0.0417 0.3164,0.15625 0.36667,0.36666 0.36667,0.96731 0,1.33398 -0.36666,0.36667 -0.66601,0.0654 -0.66601,-0.66797 0,-0.50418 0.14184,-0.80356 0.34961,-0.82226 z m 29.11718,0.1582 c 0.0187,-9.9e-4 0.0372,-8e-4 0.0566,0 0.14167,0.006 0.30469,0.0578 0.47657,0.16406 0.55,0.33992 1,0.81801 1,1.06055 0,0.24254 -0.45,0.43945 -1,0.43945 -0.55,0 -1,-0.47613 -1,-1.05859 0,-0.37541 0.18673,-0.59057 0.46679,-0.60547 z m -7.8457,3.05469 c -0.36444,0.0123 -0.62109,0.40768 -0.62109,1.05078 0,1.75653 0.59979,2.01582 1.45703,0.62891 0.31643,-0.51203 0.11756,-1.21314 -0.44141,-1.5586 -0.13974,-0.0864 -0.27305,-0.12518 -0.39453,-0.12109 z m -1.99219,0.97656 c -0.24169,0.0125 -0.61823,0.20899 -1.1289,0.63281 -0.825,0.68469 -1.48625,1.9779 -1.46875,2.87305 0.0267,1.36732 0.26656,1.31826 1.5,-0.3125 1.40337,-1.85545 1.76586,-3.22798 1.09765,-3.19336 z m 21.8711,8.63281 c -0.275,0 -0.5,0.225 -0.5,0.5 0,0.275 0.225,0.5 0.5,0.5 0.275,0 0.5,-0.225 0.5,-0.5 0,-0.275 -0.225,-0.5 -0.5,-0.5 z m -34.74024,2.62305 c 2.32816,0.0787 5.62818,2.93942 4.7168,4.41406 -0.83569,1.35217 -4.83955,1.20148 -6.27735,-0.23633 -1.80728,-1.80728 -1.44589,-3.50244 0.875,-4.10937 0.21429,-0.056 0.44471,-0.0765 0.68555,-0.0684 z m 18.9043,0.37695 c 1.91485,0 2.62669,1.94495 1.29883,3.54492 -1.34978,1.62638 -3.77166,1.86285 -5.81446,0.56836 -1.0592,-0.67121 -0.84853,-1.20876 0.97266,-2.48437 1.27839,-0.89542 2.8728,-1.62891 3.54297,-1.62891 z m 0.89453,7 c 0.24255,0 0.44141,0.45 0.44141,1 0,0.55 -0.47614,1 -1.0586,1 -0.58246,0 -0.78132,-0.45 -0.4414,-1 0.33992,-0.55 0.81605,-1 1.05859,-1 z m -21.86719,0.0156 c 0.65504,-0.008 1.46868,0.43437 1.8086,0.98437 0.7673,1.24153 0.42112,1.24153 -1.5,0 -0.90129,-0.58246 -1.02421,-0.97537 -0.3086,-0.98437 z m -14.6914,0.92187 c -0.46608,0.0309 -0.85317,0.91557 -1.46875,3.0625 l -0.7168,2.5 1.69531,-2.31445 c 0.93202,-1.27306 1.4229,-2.58492 1.0918,-2.91602 -0.22521,-0.22521 -0.41919,-0.34411 -0.60156,-0.33203 z m -41.72461,4.22461 c 0.11095,-0.002 0.30207,0.0784 0.57031,0.24414 0.63498,0.39244 1.1543,0.91176 1.1543,1.1543 0,0.83414 -0.88327,0.43791 -1.59571,-0.71484 -0.2763,-0.44707 -0.31383,-0.67951 -0.1289,-0.6836 z m 79.22461,0.83789 c 0.275,0 0.5,0.225 0.5,0.5 0,0.275 -0.225,0.5 -0.5,0.5 -0.275,0 -0.5,-0.225 -0.5,-0.5 0,-0.275 0.225,-0.5 0.5,-0.5 z m -37.89063,3.38867 c 0.0725,-9e-5 0.13954,0.0282 0.19727,0.0859 0.30789,0.30789 -1.9e-4,1.11463 -0.6836,1.79297 -0.98762,0.98026 -1.10127,0.86465 -0.55859,-0.56055 0.30512,-0.8013 0.73062,-1.31793 1.04492,-1.31836 z m 41.17188,2.43165 c 0.19302,-0.0178 0.38029,0.45703 0.625,1.31445 0.41337,1.44842 0.28021,4.34355 -0.29688,6.43359 -0.57708,2.09004 -0.6921,4.27871 -0.25586,4.86524 0.43624,0.58652 0.84315,2.0789 0.90625,3.3164 0.0631,1.2375 -0.0814,2.25 -0.32226,2.25 -0.47395,0 -0.77225,-1.96195 -0.51368,-3.375 0.0881,-0.48134 -0.45874,-1.60634 -1.21484,-2.5 -1.12406,-1.32856 -1.1638,-2.71908 -0.21484,-7.625 0.62977,-3.25578 0.9654,-4.65013 1.28711,-4.67968 z m -31.76954,1.25976 c 0.17605,-0.0185 0.62977,0.4218 1.4668,1.25781 2.01408,2.01163 2.28136,8.53264 0.53906,13.11524 -1.22964,3.23421 -2.01757,3.25102 -2.01757,0.0469 0,-1.375 0.50665,-2.5 1.12695,-2.5 1.11158,0 0.77344,-4.20236 -0.80664,-10 -0.35135,-1.28916 -0.50812,-1.89892 -0.3086,-1.91992 z m -26.51171,0.91992 c 0.275,0 0.5,0.225 0.5,0.5 0,0.275 -0.225,0.5 -0.5,0.5 -0.275,0 -0.5,-0.225 -0.5,-0.5 0,-0.275 0.225,-0.5 0.5,-0.5 z m 71.95312,14 c 1.9164,0 1.93766,2.69197 0.0469,6 -1.99012,3.48135 -1.83825,5 0.5,5 2.10908,0 2.69104,1.45488 1,2.5 -0.55,0.33992 -1,1.32176 -1,2.18164 0,1.33859 0.25167,1.3693 1.75,0.20899 0.61215,-0.47406 0.95538,-0.71383 1.02539,-0.68946 h 0.002 l 0.002,0.002 h 0.002 l 0.002,0.002 0.002,0.002 v 0.002 l 0.002,0.002 v 0.002 c 0.025,0.0899 -0.36754,0.58906 -1.19141,1.55469 -2.26087,2.64989 -2.4801,2.69654 -3.24805,0.69531 -0.32444,-0.84549 0.20861,-2.42049 1.18555,-3.5 1.60863,-1.77751 1.61987,-1.96289 0.12109,-1.96289 -0.91025,0 -1.65429,0.64887 -1.65429,1.44141 0,2.64256 -1.53479,2.43443 -3.17969,-0.43164 -1.54095,-2.68494 -1.50312,-3.10092 0.73047,-7.92188 1.34663,-2.90656 3.01912,-5.08789 3.90234,-5.08789 z m -58.50781,2.14063 c 1.15829,-0.008 2.97019,1.42652 3.36328,2.92969 0.27766,1.06191 0.32065,1.92968 0.0977,1.92968 -0.81221,0 -4.56095,-4.17734 -4.13282,-4.60547 0.17237,-0.17237 0.40458,-0.25201 0.67188,-0.2539 z m -12.08594,0.0488 c 1.36908,0.0152 2.60722,0.45502 2.41016,1.30468 -0.12666,0.54614 -1.57251,1.10136 -3.21289,1.23438 -2.32726,0.18874 -2.85338,-0.096 -2.39258,-1.29688 0.3255,-0.84825 1.82623,-1.25738 3.19531,-1.24218 z m 82.64063,0.81054 c 0.275,0 0.5,0.225 0.5,0.5 0,0.275 -0.225,0.5 -0.5,0.5 -0.275,0 -0.5,-0.225 -0.5,-0.5 0,-0.275 0.225,-0.5 0.5,-0.5 z m -88,1 c 0.275,0 0.5,0.225 0.5,0.5 0,0.275 -0.225,0.5 -0.5,0.5 -0.275,0 -0.5,-0.225 -0.5,-0.5 0,-0.275 0.225,-0.5 0.5,-0.5 z m 91,0 c 0.275,0 0.5,0.225 0.5,0.5 0,0.275 -0.225,0.5 -0.5,0.5 -0.275,0 -0.5,-0.225 -0.5,-0.5 0,-0.275 0.225,-0.5 0.5,-0.5 z m -4.35938,1 c 2.12695,0 3.19656,0.75069 4.4082,3.09375 0.87968,1.70111 1.38058,3.31083 1.11524,3.57617 -0.26534,0.26534 -0.79251,-0.4961 -1.17188,-1.6914 -0.56629,-1.78451 -1.29342,-2.10257 -4.0625,-1.7793 -2.02762,0.23672 -3.55565,-0.0845 -3.83203,-0.80469 -0.65976,-1.7193 0.33802,-2.39453 3.54297,-2.39453 z m 14.35938,0 c -0.275,0 -0.5,0.225 -0.5,0.5 0,0.275 0.225,0.5 0.5,0.5 0.275,0 0.5,-0.225 0.5,-0.5 0,-0.275 -0.225,-0.5 -0.5,-0.5 z m -39.5918,0.875 c 0.1844,-0.006 0.40826,0.10944 0.66601,0.36719 0.31639,0.31639 0.42389,1.85519 0.23829,3.41797 l -0.33789,2.83984 -0.78516,-2.86718 c -0.59449,-2.16795 -0.43983,-3.73704 0.21875,-3.75782 z m -55.4082,0.125 c 0.275,0 0.5,0.225 0.5,0.5 0,0.275 -0.225,0.5 -0.5,0.5 -0.275,0 -0.5,-0.225 -0.5,-0.5 0,-0.275 0.225,-0.5 0.5,-0.5 z m 24.84179,0.34571 c 0.0954,-0.0103 0.21212,0.14271 0.3418,0.46679 0.28892,0.72188 0.25248,1.58568 -0.0801,1.91797 -0.33229,0.33229 -0.56879,-0.25834 -0.52539,-1.3125 0.0285,-0.69169 0.12428,-1.05722 0.26367,-1.07226 z m -28.00976,0.0976 c 0.30407,0.0156 0.37912,0.21407 0.16015,0.56836 -0.33603,0.5437 -1.03324,0.98828 -1.55078,0.98828 -1.43843,0 -1.12304,-0.71607 0.60938,-1.38086 0.3337,-0.12806 0.5988,-0.18512 0.78125,-0.17578 z m 42.04882,0.36133 c 1.34471,-0.016 2.34826,0.95092 3.5293,3.07813 0.0568,-0.0184 0.11682,-0.0292 0.17774,-0.0313 0.37286,-0.0123 0.80012,0.28836 1.01562,0.98047 0.12406,0.39843 0.26212,0.79247 0.39649,1.1875 0.10763,0.3164 0.12905,0.59068 0.0898,0.81446 0.74565,0.0102 1.02704,0.94698 0.0703,1.72461 -0.52397,0.42592 -0.99653,0.91332 -1.49219,1.37109 -0.57733,0.51574 -1.17523,1.00187 -1.8164,1.43555 -0.49946,0.34561 -1.03452,0.63494 -1.57422,0.91211 -0.0546,0.0312 -0.10946,0.0628 -0.16406,0.0937 -0.70532,0.40347 -1.26421,0.25594 -1.48047,-0.0937 -1.43438,-0.0587 -5.13281,-4.73551 -5.13281,-6.69922 0,-0.88359 1.43889,-2.48146 3.19726,-3.55078 1.29753,-0.78908 2.31194,-1.21228 3.18359,-1.22266 z m -36.88085,0.19531 c 0.275,0 0.5,0.225 0.5,0.5 0,0.275 -0.225,0.5 -0.5,0.5 -0.275,0 -0.5,-0.225 -0.5,-0.5 0,-0.275 0.225,-0.5 0.5,-0.5 z m 42.5,0.0586 c 0.24166,0 0.48268,0.0921 0.66601,0.27539 0.36667,0.36667 0.0673,0.66601 -0.66601,0.66601 -0.73337,0 -1.03269,-0.29934 -0.66602,-0.66601 0.18334,-0.18333 0.42435,-0.27539 0.66602,-0.27539 z m 46.25,0.14453 c 0.2062,-0.0179 0.52996,0.1784 0.93359,0.58203 0.65087,0.65084 0.95015,1.41506 0.66602,1.69922 -0.28417,0.28417 -0.81693,0.21628 -1.1836,-0.15039 -0.36666,-0.36666 -0.66601,-1.13088 -0.66601,-1.69922 0,-0.27414 0.0896,-0.41771 0.25,-0.43164 z m -98.70118,0.27929 c 0.7016,-0.003 1.45118,0.41845 1.45118,1.07813 0,0.24254 -0.70114,0.43945 -1.5586,0.43945 -0.8575,0 -1.2771,-0.45665 -0.93164,-1.01562 0.21405,-0.34634 0.61811,-0.50027 1.03906,-0.50196 z m 23.45118,0.51758 c 0.55,0 1,0.45 1,1 0,0.55 -0.45,1 -1,1 -0.55,0 -1,-0.45 -1,-1 0,-0.55 0.45,-1 1,-1 z m -3.78907,0.0742 c 0.12955,0.004 0.23748,0.0422 0.31446,0.11914 0.30789,0.30789 -0.24621,0.86861 -1.23243,1.24414 -1.4252,0.54268 -1.54081,0.42708 -0.56054,-0.56054 0.50874,-0.51257 1.08988,-0.81418 1.47851,-0.80274 z m 37.28907,0.92578 c 0.275,0 0.5,0.225 0.5,0.5 0,0.275 -0.225,0.5 -0.5,0.5 -0.275,0 -0.5,-0.225 -0.5,-0.5 0,-0.275 0.225,-0.5 0.5,-0.5 z m -13.17969,0.21094 c -0.0791,0.0713 -0.16192,0.14667 -0.24805,0.22461 -2.75149,2.49006 -2.61344,4.00518 0.57813,6.33008 0.74943,0.54592 1.32086,1.10324 1.63281,1.55469 0.12013,-0.14271 0.28735,-0.28128 0.50586,-0.4043 0.0753,-0.0424 0.14931,-0.0846 0.22461,-0.12696 0.48035,-0.24527 0.95841,-0.50332 1.40234,-0.81054 0.46001,-0.31023 0.88069,-0.66867 1.30078,-1.0293 -0.0658,0.032 -0.139,0.0508 -0.21679,0.0508 -0.275,0 -0.5,-0.225 -0.5,-0.5 0,-0.275 0.225,-0.5 0.5,-0.5 0.275,0 0.5,0.225 0.5,0.5 0,0.11839 -0.0419,0.22856 -0.11133,0.31446 0.0465,-0.0407 0.0983,-0.0742 0.14453,-0.11524 0.37325,-0.344 0.73354,-0.70543 1.11133,-1.04492 -0.0846,-0.0668 -0.17012,-0.14464 -0.25391,-0.23633 -0.39617,-0.43352 -0.73935,-0.9133 -1.11719,-1.36328 -0.18456,-0.28181 -0.41559,-0.47987 -0.69922,-0.64648 -0.37678,-0.18183 -0.74705,-0.37923 -1.11718,-0.57422 -0.24285,-0.11371 -0.49065,-0.21768 -0.73828,-0.32032 0.01,0.13183 0.0245,0.27358 0.043,0.42383 0.13101,1.0654 -0.21171,1.8529 -0.76171,1.75 -0.54855,-0.10263 -0.85401,-1.29216 -0.67969,-2.64648 -0.0184,-0.003 -0.0363,-0.005 -0.0547,-0.008 -0.19405,-0.0233 -0.0963,-0.0129 -0.29297,-0.0312 -0.71959,-0.0673 -1.09468,-0.42409 -1.15234,-0.79102 z m -11.78906,1.11523 c 0.28027,0.005 0.46875,0.20213 0.46875,0.55665 0,0.54999 -0.45,1.27726 -1,1.61718 -0.55,0.33992 -1,0.16914 -1,-0.38086 0,-0.55 0.45,-1.27922 1,-1.61914 0.17187,-0.10622 0.3329,-0.16153 0.47461,-0.17187 0.0195,-0.001 0.038,-0.002 0.0566,-0.002 z m 33.96875,0.67383 c 0.275,0 0.5,0.225 0.5,0.5 0,0.275 -0.225,0.5 -0.5,0.5 -0.275,0 -0.5,-0.225 -0.5,-0.5 0,-0.275 0.225,-0.5 0.5,-0.5 z m -46.5,0.0586 c 0.24166,0 0.48268,0.0921 0.66601,0.27539 0.36667,0.36667 0.0673,0.66601 -0.66601,0.66601 -0.73337,0 -1.03269,-0.29934 -0.66602,-0.66601 0.18333,-0.18333 0.42435,-0.27539 0.66602,-0.27539 z m 86,0 c -0.24167,0 -0.48269,0.0921 -0.66602,0.27539 -0.36667,0.36667 -0.0673,0.66601 0.66602,0.66601 0.73336,0 1.03268,-0.29934 0.66601,-0.66601 -0.18333,-0.18333 -0.42435,-0.27539 -0.66601,-0.27539 z m -69.5,4.12304 -2.5,1.28516 c -1.375,0.70662 -3.57896,1.61742 -4.89649,2.02344 -2.09974,0.64706 -2.22321,0.55085 -1,-0.77149 0.76753,-0.82973 1.73399,-1.30437 2.14649,-1.05469 0.4125,0.24978 0.74962,0.0914 0.75,-0.35351 3.9e-4,-0.44496 1.23789,-0.88105 2.75,-0.96875 z m -38,1.81836 c 0.275,0 0.5,0.225 0.5,0.5 0,0.275 -0.225,0.5 -0.5,0.5 -0.275,0 -0.5,-0.225 -0.5,-0.5 0,-0.275 0.225,-0.5 0.5,-0.5 z m 62.5664,4.63477 c 0.15234,1.9e-4 0.26195,0.0276 0.32227,0.0879 0.345,0.34499 -0.53805,1.39149 -1.96289,2.32617 -1.42484,0.93468 -2.58608,2.09445 -2.58008,2.57617 0.006,0.48172 -0.70122,1.6625 -1.57227,2.625 -0.87105,0.9625 -2.03398,1.75 -2.58398,1.75 -0.55,0 -0.18494,-0.9 0.81055,-2 2.2504,-2.48667 0.1051,-2.81231 -3.21289,-0.48828 -1.30961,0.91728 -2.39454,1.12535 -2.76172,0.53125 -0.6442,-1.04233 11.25593,-7.41115 13.54101,-7.4082 z m 28.48438,0.39844 c 0.0138,-10e-4 0.0294,-5.5e-4 0.0449,0 1.16249,0.0409 4.4043,2.49059 4.4043,3.32812 0,1.26995 -1.7272,0.5976 -3.5,-1.36133 -0.96439,-1.06562 -1.37691,-1.92971 -0.94922,-1.96679 z m -58.94922,0.0371 c 0.73323,0.0185 2.80319,1.08829 5.85742,3.11132 4.39102,2.90849 4.90736,3.03701 6.03125,1.5 1.5672,-2.14279 2.50977,-2.14336 2.50977,0.004 0,0.92705 0.94783,2.6955 2.10546,3.92773 1.24931,1.32982 1.79071,2.7454 1.33399,3.48438 -0.5394,0.87277 -1.06351,0.52137 -1.75586,-1.17578 -0.86148,-2.11171 -1.0439,-2.18501 -1.42774,-0.57227 -0.31755,1.33434 -1.1021,1.72383 -2.81445,1.39649 v -0.002 c -1.30501,-0.24947 -2.52916,0.0211 -2.72265,0.60157 -0.22117,0.66352 -0.64374,0.58747 -1.13477,-0.20704 -0.45862,-0.74206 -0.0566,-2.0638 0.97266,-3.20117 1.68097,-1.85749 1.66615,-1.9375 -0.34375,-1.9375 -1.15278,0 -2.37297,-0.45 -2.71289,-1 -0.99042,-1.60253 -2.22421,-1.16002 -2.78907,1 -0.57242,2.18894 -3.16812,2.68804 -4.3164,0.83008 -0.47705,-0.77188 -0.19108,-0.9647 0.84179,-0.56836 2.28835,0.87813 3.09343,-3.23911 1.07032,-5.47461 -1.01288,-1.11922 -1.2282,-1.67995 -0.77149,-1.71484 0.0209,-0.002 0.0428,-0.003 0.0664,-0.002 z m -46.10156,4.92968 c -0.275,0 -0.5,0.225 -0.5,0.5 0,0.275 0.225,0.5 0.5,0.5 0.275,0 0.5,-0.225 0.5,-0.5 0,-0.275 -0.225,-0.5 -0.5,-0.5 z m 128,1 c -0.275,0 -0.5,0.225 -0.5,0.5 0,0.275 0.225,0.5 0.5,0.5 0.275,0 0.5,-0.225 0.5,-0.5 0,-0.275 -0.225,-0.5 -0.5,-0.5 z m -123.58399,0.125 c -0.34739,-0.0143 -0.74258,0.0489 -1.10351,0.19336 -0.79773,0.31922 -0.56143,0.55552 0.60351,0.60352 1.05417,0.0434 1.6448,-0.19309 1.3125,-0.52539 -0.16614,-0.16613 -0.4651,-0.25718 -0.8125,-0.27149 z m 75.70313,0.17774 c 0.29381,-0.0195 0.38086,0.32872 0.38086,1.07617 0,0.89234 -0.675,1.62109 -1.5,1.62109 -0.825,0 -1.5,-0.16929 -1.5,-0.37695 0,-0.20765 0.675,-0.93836 1.5,-1.62305 0.53747,-0.44606 0.89062,-0.68211 1.11914,-0.69726 z m -7.11914,0.69726 c 0.275,0 0.5,0.225 0.5,0.5 0,0.275 -0.225,0.5 -0.5,0.5 -0.275,0 -0.5,-0.225 -0.5,-0.5 0,-0.275 0.225,-0.5 0.5,-0.5 z m 50,0 c -0.275,0 -0.5,0.225 -0.5,0.5 0,0.275 0.225,0.5 0.5,0.5 0.275,0 0.5,-0.225 0.5,-0.5 0,-0.275 -0.225,-0.5 -0.5,-0.5 z m -96.19922,2.41602 c 0.43719,-0.0108 0.30809,0.44782 -0.3125,1.60742 -1.24059,2.31806 -1.98828,2.53729 -1.98828,0.58398 0,-0.76616 0.6857,-1.65509 1.52343,-1.97656 0.3495,-0.13411 0.60627,-0.21062 0.77735,-0.21484 z m -7.52539,2.58984 c 0.29032,0.824 0.92602,1.75803 1.41406,2.07813 0.50455,0.33093 0.40889,1.84409 -0.2207,3.5 -1.00556,2.64477 -1.20406,2.74508 -2.13477,1.08203 -0.97996,-1.75105 -1.09268,-1.73971 -2.48633,0.25 -0.65869,0.94042 -1.67487,1.74092 -2.47461,1.99804 0.82137,-2.16318 2.34541,-6.97868 2.9668,-6.74023 0.82454,0.3164 0.15856,-0.21099 1.69141,-0.99023 0.84624,-0.4302 1.15498,-0.8704 1.24414,-1.17774 z m 61.0664,0.56641 c 0.96286,-0.006 1.90083,0.17144 2.80469,0.49219 0.83901,0.3716 1.61144,0.87877 2.33203,1.44336 0.50265,0.38292 0.97049,0.80999 1.44336,1.22851 0.17449,0.14386 0.35283,0.28005 0.53906,0.4082 1.93026,1.32838 0.55256,3.29408 -1.35937,1.93946 -0.25738,-0.18236 -0.51046,-0.37048 -0.75,-0.57617 -0.44035,-0.38991 -0.87314,-0.78658 -1.3418,-1.14258 -0.51686,-0.41524 -1.0816,-0.77443 -1.67187,-1.07618 -0.62551,-0.23571 -1.28201,-0.34656 -1.95118,-0.35156 -0.85102,0.0161 -1.70372,0.0378 -2.55273,0.10156 -0.82898,0.073 -1.65188,0.18914 -2.46875,0.34961 -0.97869,0.15734 -1.93991,0.39527 -2.91016,0.59571 -0.66335,0.14761 -1.38902,0.22108 -1.97265,0.58984 -0.36881,0.29821 -0.71783,0.60287 -0.98047,1.00391 -1.28376,1.96023 -3.27201,0.63612 -1.9707,-1.3125 0.39708,-0.59459 0.90784,-1.07837 1.45898,-1.52735 0.8521,-0.66643 1.92451,-0.83594 2.95117,-1.06445 1.0148,-0.21305 2.02295,-0.45629 3.04688,-0.62305 0.87253,-0.17165 1.75138,-0.28994 2.63672,-0.36914 0.90358,-0.0696 1.81096,-0.0921 2.71679,-0.10937 z m 24.65821,0.42773 c 0.275,0 0.5,0.225 0.5,0.5 0,0.275 -0.225,0.5 -0.5,0.5 -0.275,0 -0.5,-0.225 -0.5,-0.5 0,-0.275 0.225,-0.5 0.5,-0.5 z m -49,1 c 0.275,0 0.5,0.225 0.5,0.5 0,0.275 -0.225,0.5 -0.5,0.5 -0.275,0 -0.5,-0.225 -0.5,-0.5 0,-0.275 0.225,-0.5 0.5,-0.5 z m -10.32813,0.67383 c 0.96261,0.06 1.91284,0.2282 2.86133,0.39453 1.01855,0.19097 2.02684,0.43354 3.03125,0.6875 1.04552,0.25321 2.04962,0.62663 3.0332,1.05664 0.33823,0.13671 0.64687,0.32332 0.95117,0.52149 1.38841,0.9042 0.44007,2.33245 -0.92578,1.39453 -0.21956,-0.15076 -0.44733,-0.28248 -0.69531,-0.38281 -0.89936,-0.39349 -1.81667,-0.73866 -2.77344,-0.96875 -0.96427,-0.24401 -1.93247,-0.47575 -2.91015,-0.66016 -0.87204,-0.15293 -1.74634,-0.31019 -2.63086,-0.37109 -0.83525,-0.0313 -1.66852,0.025 -2.49219,0.17187 -0.70031,0.16359 -1.34432,0.47161 -1.98242,0.79883 -0.70281,0.37012 -1.39202,0.77272 -2.02149,1.25976 -0.48319,0.3701 -0.9625,0.74259 -1.3164,1.2461 -0.23845,0.38536 -0.37611,0.82337 -0.48047,1.26172 -0.38376,1.61183 -1.94416,1.42338 -1.66016,-0.20899 0.11622,-0.66803 0.36229,-1.29621 0.68946,-1.88672 0.45373,-0.70592 1.09228,-1.23534 1.75,-1.74023 0.70357,-0.54513 1.47272,-0.99661 2.25781,-1.41211 0.75786,-0.40094 1.53679,-0.73818 2.36914,-0.94531 0.97115,-0.18838 1.95829,-0.2482 2.94531,-0.2168 z m 60.32813,0.32617 c 0.275,0 0.5,0.225 0.5,0.5 0,0.275 -0.225,0.5 -0.5,0.5 -0.275,0 -0.5,-0.225 -0.5,-0.5 0,-0.275 0.225,-0.5 0.5,-0.5 z m -87.15039,1.17774 c -0.20779,0.0187 -0.34961,0.3181 -0.34961,0.82226 0,0.73337 0.29935,1.03463 0.66601,0.66797 0.36667,-0.36667 0.36667,-0.96731 0,-1.33398 -0.11458,-0.11458 -0.22202,-0.16476 -0.3164,-0.15625 z m 91.02148,0.12109 c 0.009,-4.9e-4 0.0192,-2.1e-4 0.0293,0 0.16985,0.004 0.48524,0.10411 0.95703,0.28516 0.9028,0.34643 1.64258,1.03227 1.64258,1.52343 0,1.28596 -0.57942,1.10634 -2.01954,-0.6289 -0.67183,-0.80953 -0.89115,-1.16448 -0.60937,-1.17969 z m -20.87109,4.70117 c 0.275,0 0.5,0.225 0.5,0.5 0,0.275 -0.225,0.5 -0.5,0.5 -0.275,0 -0.5,-0.225 -0.5,-0.5 0,-0.275 0.225,-0.5 0.5,-0.5 z m -28.13086,1.42188 c 0.47624,0.0171 0.8777,0.1713 1.04101,0.43554 0.26129,0.42279 -0.28558,1.92766 -1.2168,3.34375 l -1.69335,2.57422 -1.80469,-2.39843 c -1.92794,-2.56146 -2.10403,-2.31585 2.77344,-3.83204 0.30277,-0.0941 0.61464,-0.13328 0.90039,-0.12304 z m 48.98047,1.75586 c 0.0944,-0.008 0.20182,0.0417 0.3164,0.15625 0.36667,0.36667 0.36667,0.96731 0,1.33398 -0.36666,0.36666 -0.66601,0.0654 -0.66601,-0.66797 0,-0.50419 0.14184,-0.80356 0.34961,-0.82226 z m -89.84961,1.90234 c 0.34223,8.8e-4 0.15069,0.72782 -0.59961,2.16992 -1.55934,2.99709 -1.60729,3.03633 -2.31055,1.89844 -0.33513,-0.54225 0.10331,-1.69707 0.97266,-2.56641 1.00369,-1.0037 1.65393,-1.50268 1.9375,-1.50195 z m 88.76953,1.12109 c 0.006,-5e-4 0.0126,-5e-4 0.0195,0 0.20695,0.008 0.51613,0.20559 0.89453,0.58399 0.65087,0.65084 0.95016,1.41506 0.66602,1.69922 -0.28417,0.28417 -0.81693,0.21628 -1.1836,-0.15039 -0.36666,-0.36666 -0.66601,-1.13088 -0.66601,-1.69922 0,-0.27414 0.0896,-0.41771 0.25,-0.43164 0.006,-5e-4 0.0131,-6e-4 0.0195,-0.002 z m -55.35938,1.64454 c 0.52975,0.0136 0.89366,0.72055 0.44141,1.67187 -0.1941,0.4083 -0.38918,0.81583 -0.57813,1.22656 -0.23091,0.49315 -0.44699,0.99294 -0.70898,1.47071 -0.32299,0.60897 -0.84053,1.04765 -1.38867,1.44531 -0.61902,0.45314 -1.29944,0.79946 -2.02344,1.04687 -0.63572,0.22285 -1.29243,0.36951 -1.95703,0.47266 -0.55789,0.0842 -1.12248,0.10399 -1.68555,0.12109 -0.64831,0.0361 -1.29287,-0.006 -1.93164,-0.11718 -0.62861,-0.10856 -1.23583,-0.31014 -1.82812,-0.54297 -0.56509,-0.19832 -1.08847,-0.48237 -1.58204,-0.81836 -0.43468,-0.28947 -0.83293,-0.61921 -1.16601,-1.02149 -0.21903,-0.2829 -0.43383,-0.5661 -0.66406,-0.83984 -0.19078,-0.2056 -0.38571,-0.40699 -0.58789,-0.60156 -0.21992,-0.20728 -0.47571,-0.37358 -0.72266,-0.54688 -0.28483,-0.17911 -0.55898,-0.37562 -0.81836,-0.58984 -0.13687,-0.11272 -0.24799,-0.2504 -0.36914,-0.37891 -1.13654,-1.2056 0.0896,-2.35526 1.2207,-1.14453 0.0768,0.0822 0.14582,0.16834 0.22852,0.24414 0.214,0.19059 0.46233,0.34044 0.69922,0.5 0.3204,0.22484 0.65032,0.44296 0.93164,0.7168 0.23941,0.23551 0.47496,0.47441 0.69922,0.72461 0.23734,0.28302 0.46225,0.57471 0.6875,0.86719 0.21697,0.28776 0.52349,0.48418 0.8125,0.69336 0.38357,0.27177 0.80096,0.48118 1.24414,0.63867 0.48809,0.19399 0.99111,0.36117 1.50976,0.45117 0.52375,0.0975 1.05392,0.1216 1.58594,0.0937 0.49482,-0.0149 0.99193,-0.0308 1.48242,-0.10352 0.57063,-0.0869 1.13431,-0.21437 1.67969,-0.40625 0.56763,-0.18524 1.09211,-0.46785 1.57617,-0.81836 0.34929,-0.24919 0.69639,-0.5071 0.90235,-0.89453 0.24517,-0.44063 0.43713,-0.90673 0.65429,-1.36133 0.22559,-0.4894 0.44716,-0.98195 0.70508,-1.45507 0.27261,-0.50008 0.60662,-0.72514 0.89844,-0.74219 0.0174,-0.001 0.0356,-0.002 0.0527,-0.002 z m 32.96875,0.36132 c 0.54039,0.0112 0.93415,0.68333 0.47461,1.61133 -0.26693,0.53904 -0.57037,1.05823 -0.85156,1.58985 -0.28184,0.59946 -0.64366,1.15 -1.04883,1.67187 -0.3291,0.40118 -0.70425,0.74923 -1.11914,1.05274 -0.25622,0.26705 -0.52269,0.52457 -0.80469,0.76562 -0.62551,0.53383 -1.27763,1.04557 -2.03515,1.38086 -0.73889,0.3436 -1.50248,0.62548 -2.31446,0.73828 -0.9569,0.12627 -1.91905,0.1234 -2.8789,0.0156 -0.87916,-0.0957 -1.75586,-0.21699 -2.62305,-0.39258 -0.6435,-0.13955 -1.28774,-0.27955 -1.91797,-0.47266 -0.65144,-0.20226 -1.30828,-0.39038 -1.93164,-0.67187 -0.69146,-0.33705 -1.33827,-0.74912 -1.91797,-1.25782 -0.55035,-0.47749 -1.05908,-0.99883 -1.57422,-1.51367 -0.49982,-0.50695 -0.97206,-1.04261 -1.34179,-1.65429 -0.26268,-0.45107 -0.51192,-0.91513 -0.63672,-1.42579 -0.15646,-0.64017 0.13572,-1.01242 0.47265,-1.01171 0.26207,4.9e-4 0.55192,0.22722 0.67578,0.7246 0.0997,0.40028 0.3018,0.76233 0.50977,1.11524 0.32141,0.5252 0.73035,0.98432 1.16211,1.41992 0.49472,0.49182 0.97767,0.99492 1.50586,1.45117 0.50227,0.43818 1.05995,0.80074 1.66016,1.08789 0.5716,0.25236 1.17229,0.4227 1.76757,0.60742 0.24318,0.0743 0.4896,0.14048 0.73633,0.20118 0.18017,-0.31724 0.63822,-0.52437 1.32031,-0.36524 0.41038,0.0957 0.8265,0.10422 1.2461,0.0684 0.46618,-0.0274 0.93216,-0.0694 1.39062,-0.16211 0.48439,-0.10007 0.9662,-0.21833 1.45899,-0.26953 0.103,-0.0107 0.2011,-0.0145 0.29297,-0.0117 0.17397,0.005 0.32814,0.0328 0.46093,0.0781 0.0105,-0.003 0.0206,-0.005 0.0312,-0.008 0.49951,-0.13233 1.00874,-0.24249 1.47657,-0.46876 0.51415,-0.24493 1.03621,-0.47936 1.5664,-0.6875 0.10549,-0.0414 0.20657,-0.0717 0.30274,-0.0937 0.24946,-0.11988 0.50028,-0.2379 0.73437,-0.38672 0.38104,-0.24174 0.71143,-0.53764 1.00391,-0.88282 0.3471,-0.44368 0.65083,-0.91336 0.88867,-1.42578 0.28983,-0.54757 0.60215,-1.08428 0.87891,-1.63867 0.27752,-0.55591 0.65428,-0.78599 0.97851,-0.7793 z m 46.8402,25.74817 c 8.27526,-4.75924 -8.27526,4.75924 0,0 z m -74.24254,-22.11535 h 0.002 0.002 c 0.0624,-0.007 0.13432,0.12441 0.20899,0.41015 0.25153,0.9625 0.25153,2.5375 0,3.5 -0.25152,0.9625 -0.45703,0.175 -0.45703,-1.75 0,-1.34293 0.0982,-2.13241 0.24414,-2.16015 z m 27.94922,8.61718 c -0.15894,0.0281 -0.26758,0.59129 -0.26758,1.54297 0,1.375 0.2264,1.9375 0.50391,1.25 0.27741,-0.6875 0.27737,-1.8125 0,-2.5 -0.0824,-0.2041 -0.15967,-0.29775 -0.22852,-0.29297 h -0.002 -0.002 -0.002 z m -65.92578,3.54297 c -0.275,0 -0.5,0.225 -0.5,0.5 0,0.275 0.225,0.5 0.5,0.5 0.275,0 0.5,-0.225 0.5,-0.5 0,-0.275 -0.225,-0.5 -0.5,-0.5 z m -13.5586,2 c 0.58246,0 1.0586,0.45 1.0586,1 0,0.55 -0.19886,1 -0.44141,1 -0.24254,0 -0.71867,-0.45 -1.05859,-1 -0.33992,-0.55 -0.14106,-1 0.4414,-1 z m 12.5586,0 c -0.275,0 -0.5,0.225 -0.5,0.5 0,0.275 0.225,0.5 0.5,0.5 0.275,0 0.5,-0.225 0.5,-0.5 0,-0.275 -0.225,-0.5 -0.5,-0.5 z m 2,1 c -0.275,0 -0.5,0.225 -0.5,0.5 0,0.275 0.225,0.5 0.5,0.5 0.275,0 0.5,-0.225 0.5,-0.5 0,-0.275 -0.225,-0.5 -0.5,-0.5 z m 64,0 c -0.275,0 -0.5,0.225 -0.5,0.5 0,0.275 0.225,0.5 0.5,0.5 0.275,0 0.5,-0.225 0.5,-0.5 0,-0.275 -0.225,-0.5 -0.5,-0.5 z m -6.21485,2.39649 c 1.44103,-0.0595 2.20714,1.30675 0.75,3.0625 -0.70403,0.84831 -1.87441,1.54101 -2.59961,1.54101 -2.28316,0 -2.46529,-1.6617 -0.38867,-3.54101 0.78851,-0.7136 1.58327,-1.03546 2.23828,-1.0625 z m -65.58008,1.23437 c 0.69423,0.0218 0.64069,0.53864 -0.73437,1.4082 -0.80907,0.51169 -2.1457,0.92126 -2.9707,0.91016 -0.86963,-0.0117 -0.45046,-0.6007 0.99804,-1.40234 1.17468,-0.6501 2.16708,-0.93294 2.70703,-0.91602 z m 28.58204,0.86719 c 0.52529,0.0108 1.19512,0.38013 1.69335,0.98047 1.93572,2.3324 0.6944,3.92761 -1.32226,1.69922 -1.0026,-1.10786 -1.36921,-2.23684 -0.83594,-2.56641 0.13088,-0.0809 0.28973,-0.11687 0.46485,-0.11328 z m 32.65429,3.50195 c 0.58246,0 1.0586,0.45 1.0586,1 0,0.55 -0.19886,1 -0.44141,1 -0.24254,0 -0.71867,-0.45 -1.05859,-1 -0.33992,-0.55 -0.14106,-1 0.4414,-1 z m -15.74805,3 c 0.89681,0 8.81231,11.26521 8.78321,12.5 -0.013,0.55001 -2.15046,1.91912 -4.75,3.04102 l -4.72656,2.03906 -4.74219,-2.59766 c -2.93199,-1.6057 -4.39174,-2.95634 -3.82227,-3.53906 0.50663,-0.51841 1.0654,-1.53851 1.24219,-2.26758 0.37166,-1.53275 7.04837,-9.17578 8.01562,-9.17578 z m 28.67188,0.49805 c 0.0687,0.002 0.11313,0.0181 0.12891,0.043 0.001,0.002 0.003,0.008 0.004,0.01 4.7e-4,0.001 0.002,0.009 0.002,0.0117 0,0.2131 -1.35,1.08425 -3,1.9375 -1.65,0.85325 -3,1.18964 -3,0.7461 0,-0.44355 1.35,-1.31665 3,-1.93946 1.34062,-0.50602 2.48389,-0.82212 2.86523,-0.80859 z m -50.36523,1.50195 c 0.275,0 0.5,0.225 0.5,0.5 0,0.275 -0.225,0.5 -0.5,0.5 -0.275,0 -0.5,-0.225 -0.5,-0.5 0,-0.275 0.225,-0.5 0.5,-0.5 z m 21.98632,1 c -0.74353,0.006 -2.26936,1.56519 -4.42187,4.5625 -1.80144,2.50846 -3.11562,4.69625 -2.91992,4.86328 1.394,1.18981 5.13119,2.63248 5.60156,2.16211 0.31619,-0.31619 -0.2417,-1.47671 -1.24024,-2.58007 -1.63084,-1.80207 -1.64678,-2.00782 -0.16015,-2.00782 0.98832,0 1.6543,-0.80565 1.6543,-2 0,-1.1 0.45,-2 1,-2 0.55,0 1,1.15309 1,2.56055 0,1.60613 0.40926,2.30551 1.09961,1.87891 0.79965,-0.49424 0.79966,-0.11923 0,1.375 -0.6049,1.13022 -1.09961,2.54569 -1.09961,3.14453 0,0.88259 2.44685,-0.20771 5.88281,-2.6211 0.21069,-0.14799 -1.02681,-1.87528 -2.75,-3.83789 -1.7232,-1.96261 -3.13281,-4.00233 -3.13281,-4.5332 0,-0.64974 -0.17571,-0.96933 -0.51368,-0.9668 z m 20.1543,0 c 0.9191,0 1.1306,0.88996 0.71094,2.98828 -0.49931,2.49655 -0.2075,3.14181 1.77539,3.93555 1.63723,0.65539 1.84863,0.96997 0.68164,1.01367 -1.69547,0.0636 -2.30258,-0.56516 -4.45703,-4.61523 -1.23168,-2.31537 -0.84236,-3.32227 1.28906,-3.32227 z m -38.64062,1 c 1.1,0 2,0.45 2,1 0,0.55 -0.9,1 -2,1 -1.1,0 -2,-0.45 -2,-1 0,-0.55 0.9,-1 2,-1 z m 99.5,0 c -0.275,0 -0.5,0.225 -0.5,0.5 0,0.275 0.225,0.5 0.5,0.5 0.275,0 0.5,-0.225 0.5,-0.5 0,-0.275 -0.225,-0.5 -0.5,-0.5 z m -18.70704,1.0586 c 0.83147,0.002 2.1719,2.09635 2.19141,3.6914 0.0226,1.8479 -0.76933,1.52393 -2.03125,-0.83398 -0.61391,-1.1471 -0.82994,-2.37319 -0.48047,-2.72266 0.0927,-0.0927 0.20153,-0.13505 0.32031,-0.13476 z m -51.29296,0.9414 c 0.88992,0 1.33992,0.45 1,1 -0.33992,0.55 -0.78992,1 -1,1 -0.21008,0 -0.66008,-0.45 -1,-1 -0.33992,-0.55 0.11008,-1 1,-1 z m -23.5,0.0586 c 0.24166,0 0.48268,0.0921 0.66601,0.27539 0.36667,0.36667 0.0673,0.66601 -0.66601,0.66601 -0.73337,0 -1.03269,-0.29934 -0.66602,-0.66601 0.18333,-0.18333 0.42435,-0.27539 0.66602,-0.27539 z m -40.94141,0.9414 c 0.58246,0 0.78133,0.45 0.44141,1 -0.33992,0.55 -0.81606,1 -1.0586,1 -0.24254,0 -0.4414,-0.45 -0.4414,-1 0,-0.55 0.47614,-1 1.05859,-1 z m 123.44141,0 c -0.275,0 -0.5,0.225 -0.5,0.5 0,0.275 0.225,0.5 0.5,0.5 0.275,0 0.5,-0.225 0.5,-0.5 0,-0.275 -0.225,-0.5 -0.5,-0.5 z m -91,2 c 0.275,0 0.5,0.225 0.5,0.5 0,0.275 -0.225,0.5 -0.5,0.5 -0.275,0 -0.5,-0.225 -0.5,-0.5 0,-0.275 0.225,-0.5 0.5,-0.5 z m 103,0 c -0.275,0 -0.5,0.225 -0.5,0.5 0,0.275 0.225,0.5 0.5,0.5 0.275,0 0.5,-0.225 0.5,-0.5 0,-0.275 -0.225,-0.5 -0.5,-0.5 z m -65.24219,1.16211 c 0.005,-5.7e-4 0.0118,1.3e-4 0.0176,0 0.11095,-0.002 0.30207,0.0784 0.57031,0.24414 0.63498,0.39244 1.1543,0.91176 1.1543,1.1543 0,0.83414 -0.88327,0.43791 -1.59571,-0.71484 -0.26766,-0.4331 -0.31215,-0.66582 -0.14648,-0.6836 z m -78.75781,0.83789 c 0.275,0 0.5,0.225 0.5,0.5 0,0.275 -0.225,0.5 -0.5,0.5 -0.275,0 -0.5,-0.225 -0.5,-0.5 0,-0.275 0.225,-0.5 0.5,-0.5 z m 46,0 c 0.275,0 0.5,0.225 0.5,0.5 0,0.275 -0.225,0.5 -0.5,0.5 -0.275,0 -0.5,-0.225 -0.5,-0.5 0,-0.275 0.225,-0.5 0.5,-0.5 z m 88,0 c 0.275,0 0.5,0.225 0.5,0.5 0,0.275 -0.225,0.5 -0.5,0.5 -0.275,0 -0.5,-0.225 -0.5,-0.5 0,-0.275 0.225,-0.5 0.5,-0.5 z m -114.89063,1.38867 c -0.3143,4.3e-4 -0.7398,0.51706 -1.04492,1.31836 -0.54268,1.4252 -0.42903,1.54081 0.55859,0.56055 0.68341,-0.67834 0.99149,-1.48508 0.6836,-1.79297 -0.0577,-0.0577 -0.12474,-0.086 -0.19727,-0.0859 z m -18.10937,0.61133 c 0.275,0 0.5,0.225 0.5,0.5 0,0.275 -0.225,0.5 -0.5,0.5 -0.275,0 -0.5,-0.225 -0.5,-0.5 0,-0.275 0.225,-0.5 0.5,-0.5 z m -2,1 c 0.275,0 0.5,0.225 0.5,0.5 0,0.275 -0.225,0.5 -0.5,0.5 -0.275,0 -0.5,-0.225 -0.5,-0.5 0,-0.275 0.225,-0.5 0.5,-0.5 z m 7.5,0.0586 c 0.24166,0 0.48268,0.0921 0.66601,0.27539 0.36667,0.36667 0.0673,0.66601 -0.66601,0.66601 -0.73337,0 -1.03269,-0.29934 -0.66602,-0.66601 0.18333,-0.18333 0.42435,-0.27539 0.66602,-0.27539 z m 34.5,3.9414 c 0.275,0 0.5,0.225 0.5,0.5 0,0.275 -0.225,0.5 -0.5,0.5 -0.275,0 -0.5,-0.225 -0.5,-0.5 0,-0.275 0.225,-0.5 0.5,-0.5 z m 92.25585,2.10156 c 0.6195,-0.004 1.47724,1.16571 2.60157,3.52344 0.95044,1.99309 1.59661,3.75402 1.43554,3.91406 -0.84666,0.84166 -5.2719,-4.29797 -4.98437,-5.78906 0.21123,-1.09541 0.52342,-1.64592 0.94726,-1.64844 z m -120.25585,1.89844 c -0.275,0 -0.5,0.225 -0.5,0.5 0,0.275 0.225,0.5 0.5,0.5 0.275,0 0.5,-0.225 0.5,-0.5 0,-0.275 -0.225,-0.5 -0.5,-0.5 z m -11.59571,0.45313 c 0.16587,0.002 0.32389,0.1086 0.4668,0.33984 0.39427,0.63795 0.0403,2.40815 -0.78711,3.93359 -1.23501,2.27716 -1.49941,2.41539 -1.47461,0.77344 0.0398,-2.63022 0.99573,-5.05511 1.79492,-5.04687 z m 84.39063,0.56445 c 0.37606,0.005 0.75674,0.25688 1.08203,0.7832 0.27188,0.43992 -0.32769,1.31224 -1.33203,1.93946 -1.56475,0.9772 -1.75313,0.86376 -1.31836,-0.79883 0.32722,-1.25127 0.94159,-1.93177 1.56836,-1.92383 z m -44.77735,0.40039 c 0.22734,0.004 0.44583,0.0613 0.64063,0.18164 0.41474,0.25632 0.50123,1.12621 0.19141,1.9336 -0.6692,1.74389 -1.96271,1.9011 -2.91797,0.35546 -0.6239,-1.00948 0.85832,-2.49413 2.08593,-2.4707 z m -5.01757,0.58203 c 0.275,0 0.5,0.225 0.5,0.5 0,0.275 -0.225,0.5 -0.5,0.5 -0.275,0 -0.5,-0.225 -0.5,-0.5 0,-0.275 0.225,-0.5 0.5,-0.5 z m 63.4414,1 c 0.58246,0 1.0586,0.45 1.0586,1 0,0.55 -0.19886,1 -0.44141,1 -0.24254,0 -0.71867,-0.45 -1.05859,-1 -0.33992,-0.55 -0.14106,-1 0.4414,-1 z m -37.9414,0.0586 c 0.24166,0 0.48268,0.0921 0.66601,0.27539 0.36667,0.36667 0.0673,0.66601 -0.66601,0.66601 -0.73337,0 -1.03269,-0.29934 -0.66602,-0.66601 0.18333,-0.18333 0.42435,-0.27539 0.66602,-0.27539 z m 52.5039,0.53515 c -0.17615,0.003 -0.36741,0.18539 -0.58594,0.53907 -0.44323,0.71717 -0.31702,1.8885 0.28125,2.60937 1.44976,1.74684 1.85189,1.16794 1.12305,-1.61914 -0.27136,-1.03769 -0.52478,-1.53375 -0.81836,-1.5293 z m -119.0039,0.40625 c 0.275,0 0.5,0.225 0.5,0.5 0,0.275 -0.225,0.5 -0.5,0.5 -0.275,0 -0.5,-0.225 -0.5,-0.5 0,-0.275 0.225,-0.5 0.5,-0.5 z m 36,0 c 0.275,0 0.5,0.225 0.5,0.5 0,0.275 -0.225,0.5 -0.5,0.5 -0.275,0 -0.5,-0.225 -0.5,-0.5 0,-0.275 0.225,-0.5 0.5,-0.5 z m -39,2 c 0.275,0 0.5,0.225 0.5,0.5 0,0.275 -0.225,0.5 -0.5,0.5 -0.275,0 -0.5,-0.225 -0.5,-0.5 0,-0.275 0.225,-0.5 0.5,-0.5 z m 91.5,1.0586 c 0.24166,0 0.48268,0.0921 0.66601,0.27539 0.36667,0.36667 0.0673,0.66601 -0.66601,0.66601 -0.73337,0 -1.03269,-0.29934 -0.66602,-0.66601 0.18334,-0.18333 0.42435,-0.27539 0.66602,-0.27539 z m 2.5,1.9414 c 0.275,0 0.5,0.225 0.5,0.5 0,0.275 -0.225,0.5 -0.5,0.5 -0.275,0 -0.5,-0.225 -0.5,-0.5 0,-0.275 0.225,-0.5 0.5,-0.5 z m 59.61718,4.05664 c 0.10256,0.003 0.17562,0.0336 0.20899,0.0937 0.10676,0.19258 0.99599,1.30506 1.97461,2.47266 1.70845,2.03839 1.70525,2.14265 -0.0566,2.60351 -2.06693,0.54053 -4.81334,-3.75542 -3.08399,-4.82421 0.36759,-0.22721 0.7314,-0.35278 0.95703,-0.34571 z m -118.61718,0.94336 c 0.275,0 0.5,0.225 0.5,0.5 0,0.275 -0.225,0.5 -0.5,0.5 -0.275,0 -0.5,-0.225 -0.5,-0.5 0,-0.275 0.225,-0.5 0.5,-0.5 z m 76,0 c 0.275,0 0.5,0.225 0.5,0.5 0,0.275 -0.225,0.5 -0.5,0.5 -0.275,0 -0.5,-0.225 -0.5,-0.5 0,-0.275 0.225,-0.5 0.5,-0.5 z m -109.40625,1 c 0.49851,0 0.90625,0.9 0.90625,2 0,1.1 -0.17197,2 -0.38282,2 -0.21085,0 -0.61859,-0.9 -0.90625,-2 -0.28766,-1.1 -0.11569,-2 0.38282,-2 z m 45.84765,0 c 0.58246,0 1.0586,0.45 1.0586,1 0,0.55 -0.19886,1 -0.44141,1 -0.24254,0 -0.71867,-0.45 -1.05859,-1 -0.33992,-0.55 -0.14106,-1 0.4414,-1 z m 36.5586,1 c 0.275,0 0.5,0.225 0.5,0.5 0,0.275 -0.225,0.5 -0.5,0.5 -0.275,0 -0.5,-0.225 -0.5,-0.5 0,-0.275 0.225,-0.5 0.5,-0.5 z m 28,0 c 0.275,0 0.5,0.225 0.5,0.5 0,0.275 -0.225,0.5 -0.5,0.5 -0.275,0 -0.5,-0.225 -0.5,-0.5 0,-0.275 0.225,-0.5 0.5,-0.5 z m -100.15821,0.34571 c -0.13939,0.015 -0.23517,0.38057 -0.26367,1.07226 -0.0434,1.05416 0.1931,1.64479 0.52539,1.3125 0.33235,-0.33229 0.36869,-1.19609 0.0801,-1.91797 -0.12968,-0.32408 -0.24642,-0.47709 -0.3418,-0.46679 z m 56.23828,0.002 c 0.2548,-0.0158 0.68239,0.19725 1.31446,0.58789 0.94655,0.585 1.05363,1.33392 0.36718,2.56055 -0.86946,1.55364 -1.03222,1.49219 -1.57617,-0.58789 -0.46455,-1.77647 -0.55966,-2.53243 -0.10547,-2.56055 z m 4.75,0.0332 c 0.27709,-1.9e-4 0.30915,0.39484 0.0508,1.06836 -0.66479,1.73242 -1.38085,2.04976 -1.38085,0.61133 0,-0.51754 0.44458,-1.21673 0.98828,-1.55273 0.124,-0.0766 0.22981,-0.11758 0.31445,-0.125 0.009,-8.4e-4 0.0184,-0.002 0.0273,-0.002 z m -49.72851,0.004 c -0.3489,-0.01 -1.06837,0.68052 -1.96875,2.05469 -1.29842,1.98159 -1.34272,2.38668 -0.21289,1.95312 0.78431,-0.30096 1.69492,-1.25013 2.02539,-2.11133 0.48315,-1.25906 0.484,-1.88721 0.15625,-1.89648 z m 139.89844,1.61523 c -0.275,0 -0.5,0.225 -0.5,0.5 0,0.275 0.225,0.5 0.5,0.5 0.275,0 0.5,-0.225 0.5,-0.5 0,-0.275 -0.225,-0.5 -0.5,-0.5 z m -163.6543,0.67578 c 0.30763,0.005 0.61165,0.18393 0.95312,0.52539 0.84054,0.84054 0.6914,1.46473 -0.58398,2.4336 -3.17796,2.41422 -4.261837,1.32835 -1.84766,-1.84961 0.57527,-0.75726 1.0289,-1.11739 1.47852,-1.10938 z m 19.50391,3.50196 c -0.20777,0.0187 -0.34961,0.3181 -0.34961,0.82226 0,0.73337 0.29935,1.03463 0.66601,0.66797 0.36667,-0.36667 0.36667,-0.96731 0,-1.33398 -0.11458,-0.11458 -0.22196,-0.16476 -0.3164,-0.15625 z m -6.65821,1.26367 c -0.15307,0.027 -0.49836,0.658 -1.08789,1.76562 -0.79216,1.48831 -1.19422,3.64306 -0.89453,4.78907 0.70777,2.70651 0.88124,2.39517 1.67383,-2.9961 0.35011,-2.38149 0.50078,-3.47636 0.33789,-3.55273 -0.005,-0.002 -0.0152,-0.005 -0.0215,-0.006 -10e-4,6e-5 -0.004,7e-5 -0.006,0 z m 87.65821,1.73633 c 0.0944,-0.008 0.20182,0.0417 0.3164,0.15625 0.36667,0.36667 0.36667,0.96731 0,1.33398 -0.36666,0.36666 -0.66601,0.0654 -0.66601,-0.66797 0,-0.50419 0.14179,-0.80356 0.34961,-0.82226 z m 31.51367,0.32617 c -0.39827,0.0192 -0.46588,0.36918 -0.20508,1.04883 0.64461,1.67981 1.01091,1.79283 1.77734,0.55273 0.3043,-0.49237 -0.0968,-1.1446 -0.89062,-1.44922 -0.2407,-0.0924 -0.44037,-0.14343 -0.59766,-0.15234 -0.0295,-0.002 -0.0574,-0.001 -0.084,0 z m 29.01757,3.49609 c 0.55001,0 1.27923,0.45 1.61915,1 0.33992,0.55 0.16718,1 -0.38282,1 -0.55,0 -1.27726,-0.45 -1.61718,-1 -0.33992,-0.55 -0.16913,-1 0.38085,-1 z m -163.25781,1.22266 c 0.39855,-0.0244 0.40106,0.55613 0.0488,1.87109 -0.35413,1.3235 -0.6502,2.96875 -0.6582,3.65625 -0.008,0.6875 -0.451894,1.25 -0.988284,1.25 -0.61596,0 -0.640082,-0.88256 -0.06445,-2.39648 0.50132,-1.31844 0.684683,-2.62391 0.408203,-2.90039 -0.27648,-0.27648 0.04747,-0.84177 0.720701,-1.25781 0.22296,-0.13782 0.40035,-0.21452 0.5332,-0.22266 z m 105.87696,1.77734 c 0.275,0 0.5,0.225 0.5,0.5 0,0.275 -0.225,0.5 -0.5,0.5 -0.275,0 -0.5,-0.225 -0.5,-0.5 0,-0.275 0.225,-0.5 0.5,-0.5 z m 68.55859,0 c 0.58246,0 0.78133,0.45 0.44141,1 -0.33992,0.55 -0.81606,1 -1.0586,1 -0.24254,0 -0.4414,-0.45 -0.4414,-1 0,-0.55 0.47614,-1 1.05859,-1 z m -125.45117,0.29102 c 0.17879,-0.006 0.21022,0.47094 0.13476,1.47265 -0.18287,2.42756 -0.36281,2.66007 -1.11718,1.43946 -0.27117,-0.43876 -0.0929,-1.44647 0.39648,-2.23828 0.27256,-0.44101 0.46361,-0.66993 0.58594,-0.67383 z m 57.89258,2.70898 c 0.275,0 0.5,0.225 0.5,0.5 0,0.275 -0.225,0.5 -0.5,0.5 -0.275,0 -0.5,-0.225 -0.5,-0.5 0,-0.275 0.225,-0.5 0.5,-0.5 z m 30.84961,0.17774 c -0.20779,0.0187 -0.34961,0.3181 -0.34961,0.82226 0,0.73337 0.29935,1.03463 0.66601,0.66797 0.36667,-0.36667 0.36667,-0.96731 0,-1.33398 -0.11458,-0.11458 -0.22208,-0.16476 -0.3164,-0.15625 z M 125.125,295.6133 c 0.10479,-0.002 0.16602,0.0945 0.16602,0.30078 0,0.55 -0.4356,1.675 -0.96875,2.5 -0.53316,0.825 -0.96875,1.05 -0.96875,0.5 0,-0.55 0.43559,-1.675 0.96875,-2.5 0.33321,-0.51562 0.62807,-0.79663 0.80273,-0.80078 z m 21.69727,0.80078 c 0.275,0 0.5,0.225 0.5,0.5 0,0.275 -0.225,0.5 -0.5,0.5 -0.275,0 -0.5,-0.225 -0.5,-0.5 0,-0.275 0.225,-0.5 0.5,-0.5 z m 5.94726,0.78906 h 0.002 0.002 0.002 c 0.0719,-9.9e-4 0.15506,0.15362 0.24023,0.48047 0.25354,0.97297 0.23683,2.32297 -0.0371,3 -0.27392,0.67703 -0.48134,-0.11953 -0.46094,-1.76953 0.0133,-1.07858 0.11324,-1.68934 0.25195,-1.71094 z m 56.05274,0.21094 c 0.275,0 0.5,0.225 0.5,0.5 0,0.275 -0.225,0.5 -0.5,0.5 -0.275,0 -0.5,-0.225 -0.5,-0.5 0,-0.275 0.225,-0.5 0.5,-0.5 z m -59.20508,1.46485 h 0.002 0.002 0.002 0.002 c 0.25559,-0.0106 0.77122,0.90484 1.83398,2.91992 1.49653,2.83755 1.79977,4.44286 1.125,5.95508 -0.85482,1.91572 -1.01183,1.82039 -2.09375,-1.28321 -0.64302,-1.84457 -1.14734,-4.52459 -1.12304,-5.95508 0.0175,-1.03264 0.0567,-1.60418 0.24609,-1.63476 h 0.002 z m 90.20508,0.53515 c -0.275,0 -0.5,0.225 -0.5,0.5 0,0.275 0.225,0.5 0.5,0.5 0.275,0 0.5,-0.225 0.5,-0.5 0,-0.275 -0.225,-0.5 -0.5,-0.5 z m 30.84961,1.17774 c 0.0944,-0.008 0.20182,0.0417 0.3164,0.15625 0.36667,0.36667 0.36667,0.96731 0,1.33398 -0.36666,0.36666 -0.66601,0.0654 -0.66601,-0.66797 0,-0.50419 0.14184,-0.80356 0.34961,-0.82226 z m -147.84961,0.82226 c 0.275,0 0.5,0.225 0.5,0.5 0,0.275 -0.225,0.5 -0.5,0.5 -0.275,0 -0.5,-0.225 -0.5,-0.5 0,-0.275 0.225,-0.5 0.5,-0.5 z m 80.92578,0.45703 h 0.002 0.002 0.002 0.002 c 0.0688,-0.005 0.14605,0.0889 0.22852,0.29297 0.27741,0.6875 0.27737,1.8125 0,2.5 -0.27745,0.6875 -0.50391,0.125 -0.50391,-1.25 0,-0.95168 0.10864,-1.51481 0.26758,-1.54297 z m -2.08399,0.88868 c 0.0954,-0.0103 0.21212,0.14271 0.3418,0.46679 0.28892,0.72188 0.25248,1.58568 -0.0801,1.91797 -0.33229,0.33229 -0.56879,-0.25834 -0.52539,-1.3125 0.0285,-0.69169 0.12428,-1.05722 0.26367,-1.07226 z m -79.84179,0.65429 c 0.275,0 0.5,0.225 0.5,0.5 0,0.275 -0.225,0.5 -0.5,0.5 -0.275,0 -0.5,-0.225 -0.5,-0.5 0,-0.275 0.225,-0.5 0.5,-0.5 z m 89.42968,0.0312 c 0.89468,-0.0543 1.63068,1.80386 1.99414,5.18164 0.0421,0.39107 1.01283,1.58331 2.15821,2.65039 1.20383,1.12155 1.94221,2.85862 1.75,4.11719 -0.31935,2.09104 -0.4462,2.05721 -3.23438,-0.86523 -1.59666,-1.67354 -3.26293,-2.82163 -3.70117,-2.55078 -0.86806,0.53648 -2.3372,-1.82905 -3.87891,-6.2461 -0.47916,-1.37281 -0.7197,-2.0723 -0.65234,-2.16211 v -0.002 l 0.002,-0.002 h 0.002 l 0.002,-0.002 h 0.002 l 0.002,-0.002 h 0.002 0.002 l 0.002,-0.002 c 0.1075,-0.003 0.50702,0.55065 1.25782,1.60351 0.88246,1.2375 2.2245,2.25 2.98242,2.25 0.75792,0 1.37891,0.5263 1.37891,1.16797 0,0.64168 0.25527,0.91076 0.56835,0.59766 0.3131,-0.31311 -0.006,-1.49256 -0.71093,-2.6211 -0.70479,-1.12855 -0.96202,-2.37394 -0.57031,-2.76562 0.22083,-0.22083 0.43611,-0.33512 0.64257,-0.34766 z m -40.58007,0.14649 c 0.0944,-0.008 0.20182,0.0417 0.3164,0.15625 0.36667,0.36667 0.36667,0.96731 0,1.33398 -0.36666,0.36666 -0.66601,0.0654 -0.66601,-0.66797 0,-0.50419 0.14184,-0.80356 0.34961,-0.82226 z m 48,0 c 0.0944,-0.008 0.20182,0.0417 0.3164,0.15625 0.36667,0.36667 0.36667,0.96731 0,1.33398 -0.36666,0.36666 -0.66601,0.0654 -0.66601,-0.66797 0,-0.50419 0.14184,-0.80356 0.34961,-0.82226 z m 43.99218,2.16797 c 0.0954,-0.0103 0.21212,0.14271 0.3418,0.46679 0.28892,0.72188 0.25248,1.58568 -0.0801,1.91797 -0.33229,0.33229 -0.56879,-0.25834 -0.52539,-1.3125 0.0285,-0.69169 0.12428,-1.05722 0.26367,-1.07226 z m -26.84179,1.65429 c -0.275,0 -0.5,0.225 -0.5,0.5 0,0.275 0.225,0.5 0.5,0.5 0.275,0 0.5,-0.225 0.5,-0.5 0,-0.275 -0.225,-0.5 -0.5,-0.5 z m 44.84961,0.17774 c -0.20777,0.0187 -0.34961,0.3181 -0.34961,0.82226 0,0.73337 0.29935,1.03463 0.66601,0.66797 0.36667,-0.36667 0.36667,-0.96731 0,-1.33398 -0.11458,-0.11458 -0.22197,-0.16476 -0.3164,-0.15625 z m -67.84961,2.82226 c -0.275,0 -0.5,0.225 -0.5,0.5 0,0.275 0.225,0.5 0.5,0.5 0.275,0 0.5,-0.225 0.5,-0.5 0,-0.275 -0.225,-0.5 -0.5,-0.5 z m 16.73046,0.15235 c 0.15712,-0.009 0.42762,0.3776 0.89063,1.17382 0.58366,1.00375 0.87047,2.01625 0.63672,2.25 -0.70873,0.70873 -1.76092,-0.8081 -1.72852,-2.49218 0.0117,-0.60952 0.0625,-0.92408 0.20117,-0.93164 z m 50.7461,0.84375 c -0.10716,0.0131 -0.50789,0.31332 -1.22656,0.87695 -0.9625,0.75485 -1.75,1.54235 -1.75,1.75 0,0.82304 0.82058,0.2927 2.12695,-1.37305 0.59278,-0.75585 0.89461,-1.15936 0.87695,-1.24023 v -0.002 -0.002 h -0.002 v -0.002 l -0.002,-0.002 v -0.002 h -0.002 v -0.002 h -0.002 -0.002 l -0.002,-0.002 c -0.004,-8.7e-4 -0.0101,-6.8e-4 -0.0156,0 z m -39.47656,0.004 c -0.275,0 -0.5,0.225 -0.5,0.5 0,0.275 0.225,0.5 0.5,0.5 0.275,0 0.5,-0.225 0.5,-0.5 0,-0.275 -0.225,-0.5 -0.5,-0.5 z m -104.5,8.0586 c 0.24166,0 0.48268,0.0921 0.66601,0.27539 0.36667,0.36667 0.0673,0.66601 -0.66601,0.66601 -0.73337,0 -1.03269,-0.29934 -0.66602,-0.66601 0.18333,-0.18333 0.42435,-0.27539 0.66602,-0.27539 z m 84.00781,14.9414 c 1.15257,0 9.86728,7.10016 13.82812,11.26563 2.08677,2.19458 2.92971,3.76156 2.25,4.18164 -0.60153,0.37177 -1.08593,-0.0112 -1.08593,-0.85742 0,-1.6686 -5.07843,-5.83579 -7.55469,-6.19922 -0.84927,-0.12465 -2.26651,-0.82645 -3.14844,-1.5586 -1.86477,-1.54807 -6.29687,-1.87248 -6.29687,-0.46093 0,0.52972 -0.22643,0.73646 -0.50391,0.45898 -0.71615,-0.71614 1.53208,-6.83008 2.51172,-6.83008 z m 11.33398,4.34571 c 0.0954,-0.0103 0.21212,0.14271 0.3418,0.46679 0.28892,0.72188 0.25248,1.58568 -0.0801,1.91797 -0.33229,0.33229 -0.56879,-0.25834 -0.52539,-1.3125 0.0285,-0.69169 0.12428,-1.05722 0.26367,-1.07226 z m -101.84179,0.65429 c -0.275,0 -0.5,0.225 -0.5,0.5 0,0.275 0.225,0.5 0.5,0.5 0.275,0 0.5,-0.225 0.5,-0.5 0,-0.275 -0.225,-0.5 -0.5,-0.5 z m 91.88085,1.37891 c 0.27673,-2.8e-4 0.82504,0.3562 1.63868,0.86328 1.11062,0.69216 1.95866,1.93281 1.88476,2.75781 -0.34921,3.89569 0.0928,5.40327 1.24805,4.24805 1.59139,-1.59138 4.84766,0.25659 4.84766,2.75195 0,1.0613 -0.86976,2.3955 -1.9336,2.96485 -2.50088,1.33843 -3.05258,1.30445 -3.48633,-0.21485 -0.19629,-0.6875 -1.30729,-3.87645 -2.46875,-7.08789 -1.72987,-4.78317 -2.29706,-6.28262 -1.73047,-6.2832 z m -15.88085,2.62109 c -0.275,0 -0.5,0.225 -0.5,0.5 0,0.275 0.225,0.5 0.5,0.5 0.275,0 0.5,-0.225 0.5,-0.5 0,-0.275 -0.225,-0.5 -0.5,-0.5 z m -29.09961,7.70899 c 0.1824,0.17487 0.40553,0.31594 0.54687,0.52539 0.0646,0.0957 0.10291,0.2064 0.13086,0.32031 0.44672,0.19613 0.56206,0.76661 0.0977,1.2793 0.39478,0.36482 0.65141,0.86428 0.70117,1.4082 0.0168,0.18289 -0.025,0.36557 -0.0371,0.54883 -0.28991,1.21942 -0.81143,2.33997 -1.375,3.45508 -0.23964,0.5151 -0.44567,1.03728 -0.66602,1.56054 -0.0859,0.20395 -0.36633,0.88983 -0.53906,1.03516 -0.23218,0.19535 -0.53807,0.28263 -0.80664,0.42383 -0.22963,-0.0744 -0.47607,-0.1098 -0.68945,-0.22266 -0.12494,-0.0661 -0.20923,-0.18948 -0.29883,-0.29883 -0.2692,-0.32871 -0.42005,-0.71837 -0.50391,-1.125 -0.59643,0.23747 -1.226,-0.34369 -0.88086,-1.41797 0.3065,-0.95398 0.61653,-1.90706 0.95704,-2.84961 -0.0162,-0.0383 -0.0309,-0.0772 -0.043,-0.11718 -0.22372,-0.74274 0.1734,-1.52541 0.42382,-2.20117 0.27735,-0.58596 0.8239,-1.75349 1.51172,-1.92969 0.0331,-0.008 0.0661,-0.0148 0.0996,-0.0195 0.0785,-0.0897 0.15586,-0.15819 0.22852,-0.19532 0.34339,-0.17557 0.76161,-0.12018 1.14258,-0.17968 z m 35.79101,3.30664 c 0.93004,-0.008 1.96868,0.43437 2.3086,0.98437 0.78218,1.2656 -0.54163,1.2656 -2.5,0 -1.29269,-0.8354 -1.26587,-0.97117 0.1914,-0.98437 z m -62.1914,0.043 c 0.24166,0 0.48268,0.0921 0.66601,0.27539 0.36667,0.36667 0.0673,0.66601 -0.66601,0.66601 -0.73337,0 -1.03269,-0.29934 -0.66602,-0.66601 0.18333,-0.18333 0.42435,-0.27539 0.66602,-0.27539 z m -8.78907,0.0156 c 0.12955,0.004 0.23748,0.0422 0.31446,0.11914 0.30789,0.30789 -0.24621,0.86861 -1.23243,1.24414 -1.4252,0.54268 -1.54081,0.42708 -0.56054,-0.56054 0.50874,-0.51257 1.08988,-0.81418 1.47851,-0.80274 z m 7.28907,3.92578 c 0.275,0 0.5,0.225 0.5,0.5 0,0.275 -0.225,0.5 -0.5,0.5 -0.275,0 -0.5,-0.225 -0.5,-0.5 0,-0.275 0.225,-0.5 0.5,-0.5 z m -34.88282,1 c -0.275,0 -0.77726,0.45 -1.11718,1 -0.33992,0.55 -0.39413,1 -0.11915,1 0.27501,0 0.77923,-0.45 1.11915,-1 0.33992,-0.55 0.39218,-1 0.11718,-1 z m 61.1875,0.75196 c 0.01,0.0114 0.0207,0.0211 0.0312,0.0312 l 0.002,0.002 c 0.0132,0.008 0.0428,0.0188 0.0508,0.0195 h 0.002 v -0.002 h -0.002 l -0.002,-0.002 c -0.0272,-0.017 -0.0544,-0.0324 -0.082,-0.0488 z m -28.30468,2.24804 c 0.275,0 0.5,0.225 0.5,0.5 0,0.275 -0.225,0.5 -0.5,0.5 -0.275,0 -0.5,-0.225 -0.5,-0.5 0,-0.275 0.225,-0.5 0.5,-0.5 z m 36.76953,1.47461 c 0.31473,0.006 0.94812,0.64477 1.52734,1.57227 0.61365,0.98261 0.97868,1.80198 0.875,1.93554 -9.5e-4,10e-4 -0.005,0.005 -0.006,0.006 -0.009,0.007 -0.0219,0.0117 -0.0352,0.0117 -0.73482,0 -2.91491,-3.04991 -2.48632,-3.47851 0.0259,-0.0259 0.0584,-0.0404 0.0957,-0.0449 0.009,-9.9e-4 0.0191,-0.002 0.0293,-0.002 z m -97.839847,1.52539 c -0.97763,0 -4.445424,6.16598 -3.933594,6.99414 1.16608,1.88675 2.089304,1.01048 3.158203,-2.99414 0.56442,-2.1146 0.90629,-3.86185 0.789063,-3.99414 h -0.002 l -0.002,-0.002 h -0.002 l -0.002,-0.002 h -0.002 l -0.002,-0.002 z m 20.070317,0 c 0.275,0 0.5,0.225 0.5,0.5 0,0.275 -0.225,0.5 -0.5,0.5 -0.275,0 -0.5,-0.225 -0.5,-0.5 0,-0.275 0.225,-0.5 0.5,-0.5 z m 14,0 c 0.275,0 0.5,0.225 0.5,0.5 0,0.275 -0.225,0.5 -0.5,0.5 -0.275,0 -0.5,-0.225 -0.5,-0.5 0,-0.275 0.225,-0.5 0.5,-0.5 z m -19.8086,1.53516 c -0.321388,0.0194 -0.863067,0.5106 -1.488279,1.51172 -0.77257,1.23707 -0.837848,1.95312 -0.179688,1.95312 0.57192,0 1.305181,-0.69425 1.630859,-1.54297 0.492188,-1.28262 0.425028,-1.94523 0.03711,-1.92187 z m 131.72852,3.78516 c 0.008,-6.4e-4 0.0157,-1e-4 0.0234,0 0.26897,0.002 0.63773,0.44713 0.90235,1.13671 0.67619,1.76211 0.0993,2.07203 -0.88672,0.47657 -0.36253,-0.58659 -0.44571,-1.28084 -0.18359,-1.54297 0.043,-0.043 0.0914,-0.0659 0.14453,-0.0703 z m -65.91992,3.67968 c 0.275,0 0.5,0.225 0.5,0.5 0,0.275 -0.225,0.5 -0.5,0.5 -0.275,0 -0.5,-0.225 -0.5,-0.5 0,-0.275 0.225,-0.5 0.5,-0.5 z m 70.33789,2.03321 c 0.005,-1.6e-4 0.0114,7e-4 0.0156,0.002 h 0.002 c 0.001,4.8e-4 0.006,0.003 0.008,0.004 l 0.002,0.002 0.002,0.002 c 8e-4,9.1e-4 0.005,0.005 0.006,0.006 0.0373,0.0661 -0.0717,0.31989 -0.32226,0.76172 -0.90811,1.60149 1.33101,7.38146 2.56445,6.61914 1.02444,-0.63313 1.14982,0.71659 0.27734,2.99023 -1.06519,2.77583 -2.01714,1.71998 -3.24414,-3.5957 -0.91206,-3.95144 -0.91824,-5.43083 -0.0254,-6.25 0.38778,-0.35572 0.6237,-0.5381 0.71485,-0.54101 z m -112.86914,2.35742 c 0.0605,-0.003 0.11527,0.036 0.1621,0.12109 0.29995,0.54448 -0.21036,3.41427 -1.13281,6.37891 -1.03077,3.31277 -1.90167,4.80623 -2.25976,3.87304 -0.32047,-0.83513 -0.18238,-1.91918 0.30664,-2.4082 0.48902,-0.48902 1.26087,-2.67635 1.71484,-4.86133 0.38304,-1.84357 0.88224,-3.08696 1.20899,-3.10351 z m -35.619145,6.78711 c -0.20777,0.0187 -0.349609,0.3181 -0.349609,0.82226 0,0.73337 0.299355,1.03463 0.666015,0.66797 0.36667,-0.36667 0.36667,-0.96731 0,-1.33398 -0.114581,-0.11458 -0.221965,-0.16476 -0.316406,-0.15625 z m 92.000005,0 c -0.20779,0.0187 -0.34961,0.3181 -0.34961,0.82226 0,0.73337 0.29935,1.03463 0.66601,0.66797 0.36667,-0.36667 0.36667,-0.96731 0,-1.33398 -0.11458,-0.11458 -0.22198,-0.16476 -0.3164,-0.15625 z m -1,4 c -0.20779,0.0187 -0.34961,0.3181 -0.34961,0.82226 0,0.73337 0.29935,1.03463 0.66601,0.66797 0.36667,-0.36667 0.36667,-0.96731 0,-1.33398 -0.11458,-0.11458 -0.22198,-0.16476 -0.3164,-0.15625 z m -2,4 c 0.0944,-0.008 0.20182,0.0417 0.3164,0.15625 0.36667,0.36667 0.36667,0.96731 0,1.33398 -0.36666,0.36666 -0.66601,0.0654 -0.66601,-0.66797 0,-0.50419 0.14184,-0.80356 0.34961,-0.82226 z m -56.4668,2.07031 c 0.8507,0.0123 1.13388,2.57548 0.18164,5.08008 -0.55883,1.46985 -1.25045,2.67187 -1.53906,2.67187 -0.88863,0 -0.55079,-5.41107 0.43554,-6.9707 0.34735,-0.54924 0.66146,-0.78501 0.92188,-0.78125 z m 119.71094,0.30859 c 0.26114,-0.007 0.58866,0.18091 1.02734,0.54492 0.75782,0.62895 1.37891,1.7377 1.37891,2.4629 0,0.72519 -0.3779,1.55239 -0.83985,1.83789 -1.38551,0.8563 -2.96477,-1.43177 -2.42187,-3.50782 0.23567,-0.90121 0.4738,-1.3276 0.85547,-1.33789 z m 14.75586,8.6211 c -0.20779,0.0187 -0.34961,0.3181 -0.34961,0.82226 0,0.73337 0.29935,1.03463 0.66601,0.66797 0.36667,-0.36667 0.36667,-0.96731 0,-1.33398 -0.11458,-0.11458 -0.22198,-0.16476 -0.3164,-0.15625 z m -2.90235,0.61132 h 0.002 0.002 0.002 c 0.0719,-9.9e-4 0.15506,0.15362 0.24023,0.48047 0.25354,0.97297 0.23683,2.32297 -0.0371,3 -0.27392,0.67703 -0.48134,-0.11953 -0.46094,-1.76953 0.0133,-1.07858 0.11324,-1.68936 0.25195,-1.71094 z m -136.09765,1.38868 c 0.0944,-0.008 0.20182,0.0417 0.3164,0.15625 0.36667,0.36667 0.36667,0.96731 0,1.33398 -0.36666,0.36666 -0.66601,0.0654 -0.66601,-0.66797 0,-0.50419 0.14183,-0.80356 0.34961,-0.82226 z m 127,0 c 0.0944,-0.008 0.20182,0.0417 0.3164,0.15625 0.36667,0.36667 0.36667,0.96731 0,1.33398 -0.36666,0.36666 -0.66601,0.0654 -0.66601,-0.66797 0,-0.50419 0.14184,-0.80356 0.34961,-0.82226 z m -125.3711,3.76367 c 0.1897,0.007 0.40264,0.10772 0.625,0.33008 0.3323,0.3323 0.41516,1.17239 0.1836,1.86718 -0.33873,1.01621 -0.57505,1.01682 -1.20508,-0.004 -0.65159,-1.05428 -0.28101,-2.21896 0.39648,-2.19336 z m 18.52149,0.0586 c -0.275,0 -0.5,0.225 -0.5,0.5 0,0.275 0.225,0.5 0.5,0.5 0.275,0 0.5,-0.225 0.5,-0.5 0,-0.275 -0.225,-0.5 -0.5,-0.5 z m 109,3 c 0.275,0 0.5,0.225 0.5,0.5 0,0.275 -0.225,0.5 -0.5,0.5 -0.275,0 -0.5,-0.225 -0.5,-0.5 0,-0.275 0.225,-0.5 0.5,-0.5 z m -131,1 c 0.275,0 0.5,0.225 0.5,0.5 0,0.275 -0.225,0.5 -0.5,0.5 -0.275,0 -0.5,-0.225 -0.5,-0.5 0,-0.275 0.225,-0.5 0.5,-0.5 z m -0.36133,14.73828 c 0.85791,-0.0145 1.71019,0.84056 1.65625,2.53711 -0.004,0.13615 -0.008,0.27206 -0.0117,0.40821 -0.0168,0.38847 -0.0704,2.24025 -0.31641,2.43359 -0.61401,0.48254 -1.37629,0.73825 -2.06445,1.10742 -0.3425,-0.23013 -0.70968,-0.42805 -1.02734,-0.6914 -0.37004,-0.30677 -0.73381,-1.48328 -1.00977,-1.93555 -1.20045,-1.96746 0.0536,-3.27582 1.41797,-2.88867 0.3246,-0.64101 0.84072,-0.96202 1.35547,-0.97071 z m 135.14648,0.42774 c 0.009,-6.7e-4 0.018,-1.9e-4 0.0274,0 0.0994,0.002 0.23154,0.0523 0.39648,0.1543 0.57708,0.35665 1.28627,1.55549 1.57617,2.66406 0.2899,1.10857 0.11961,2.01562 -0.3789,2.01562 -0.49851,0 -0.90625,-0.41296 -0.90625,-0.91797 0,-0.50502 -0.30146,-1.70385 -0.66993,-2.66406 -0.30608,-0.79764 -0.31595,-1.23115 -0.0449,-1.25195 z m -0.78515,4.83398 c 0.275,0 0.5,0.225 0.5,0.5 0,0.275 -0.225,0.5 -0.5,0.5 -0.275,0 -0.5,-0.225 -0.5,-0.5 0,-0.275 0.225,-0.5 0.5,-0.5 z m 15,8 c -0.275,0 -0.5,0.225 -0.5,0.5 0,0.275 0.225,0.5 0.5,0.5 0.275,0 0.5,-0.225 0.5,-0.5 0,-0.275 -0.225,-0.5 -0.5,-0.5 z m -156.5,7.0586 c 0.24166,0 0.48268,0.0921 0.66601,0.27539 0.36667,0.36667 0.0673,0.66601 -0.66601,0.66601 -0.73337,0 -1.03269,-0.29934 -0.66602,-0.66601 0.18333,-0.18333 0.42435,-0.27539 0.66602,-0.27539 z m 151,0.9414 c 0.55,0 1,0.675 1,1.5 0,0.825 -0.45,1.5 -1,1.5 -0.55,0 -1,-0.675 -1,-1.5 0,-0.825 0.45,-1.5 1,-1.5 z m -11.5,5 c 0.275,0 0.5,0.225 0.5,0.5 0,0.275 -0.225,0.5 -0.5,0.5 -0.275,0 -0.5,-0.225 -0.5,-0.5 0,-0.275 0.225,-0.5 0.5,-0.5 z m -143.5,0.0586 c 0.24166,0 0.48268,0.0921 0.66601,0.27539 0.36667,0.36667 0.0673,0.66601 -0.66601,0.66601 -0.73337,0 -1.03269,-0.29934 -0.66602,-0.66601 0.18333,-0.18333 0.42435,-0.27539 0.66602,-0.27539 z m -5.382817,5.9414 c 0.275,0 0.222733,0.45 -0.117187,1 -0.33992,0.55 -0.844141,1 -1.119141,1 -0.275,0 -0.220779,-0.45 0.119141,-1 0.33992,-0.55 0.842187,-1 1.117187,-1 z m 169.882817,4 c 0.275,0 0.5,0.225 0.5,0.5 0,0.275 -0.225,0.5 -0.5,0.5 -0.275,0 -0.5,-0.225 -0.5,-0.5 0,-0.275 0.225,-0.5 0.5,-0.5 z m -17.22461,2.16211 c 0.11095,-0.002 0.30207,0.0784 0.57031,0.24414 0.63498,0.39244 1.1543,0.91176 1.1543,1.1543 0,0.83414 -0.88327,0.43791 -1.59571,-0.71484 -0.2763,-0.44707 -0.31383,-0.67951 -0.1289,-0.6836 z m -148.27539,0.95508 c 0.81562,0 1.63125,0.0586 2.25,0.17773 1.2375,0.23835 0.225,0.4336 -2.25,0.4336 -2.475055,0 -3.487504,-0.19525 -2.250004,-0.4336 0.618749,-0.11918 1.434374,-0.17773 2.250004,-0.17773 z m 151.5,0.88281 c 0.275,0 0.5,0.225 0.5,0.5 0,0.275 -0.225,0.5 -0.5,0.5 -0.275,0 -0.5,-0.225 -0.5,-0.5 0,-0.275 0.225,-0.5 0.5,-0.5 z m 2.5,1.0586 c 0.24166,0 0.48268,0.0921 0.66601,0.27539 0.36667,0.36667 0.0673,0.66601 -0.66601,0.66601 -0.73337,0 -1.03269,-0.29934 -0.66602,-0.66601 0.18333,-0.18333 0.42435,-0.27539 0.66602,-0.27539 z m -161.500004,2.9414 c -0.275,0 -0.5,0.225 -0.5,0.5 0,0.275 0.225,0.5 0.5,0.5 0.275,0 0.5,-0.225 0.5,-0.5 0,-0.275 -0.225,-0.5 -0.5,-0.5 z" />
    <circle
       id="path23"
       style="fill:#000000;stroke:#800000"
       cx="181.41672"
       cy="414.88986"
       r="0.057197001" />
    <path
       id="path24"
       d="m 212.00788,352.87515 c 0,0.0316 -0.0256,0.0572 -0.0572,0.0572 -0.0316,0 -0.0572,-0.0256 -0.0572,-0.0572 0,-0.0316 0.0256,-0.0572 0.0572,-0.0572 0.0316,0 0.0572,0.0256 0.0572,0.0572 z"
       style="fill:#000000;stroke:#800000" />
    <circle
       id="path25"
       style="fill:#000000;stroke:#800000"
       cx="181.65341"
       cy="415.12656"
       r="0.057197001" />
    <path
       id="path26"
       style="fill:#000000;stroke:#000000;stroke-opacity:1"
       d="m 192.1253,388.37976 c 0,0.0316 -0.0572,0.0572 -0.0572,0.0572 0,0 82.31349,-250.68813 82.31349,-250.71973 0,-0.007 -4.89591,15.19771 -12.45853,38.46877 -25.10255,77.2435 -79.58615,243.3562 -81.92653,236.98979 0,0 12.12877,-24.82763 12.12877,-24.79603 z m -7.26727,25.47131 c 4.53744,-1.77369 11.53974,-6.509 14.2626,-9.64512 1.51823,-1.74866 1.03646,-1.57452 -2,0.7229 -2.2,1.66454 -6.025,3.76419 -8.5,4.66589 l -4.5,1.63945 3,-2.77754 c 3.39016,-3.13878 7.5,-10.08336 7.5,-12.67309 0,-1.14439 0.51987,-1.52134 1.55194,-1.1253 0.88992,0.34149 1.29132,0.17385 0.94098,-0.39301 -0.33602,-0.5437 0.34216,-0.98855 1.50708,-0.98855 1.34635,0 1.85807,0.42063 1.40451,1.15451 -0.44563,0.72104 -0.27393,0.88282 0.45729,0.4309 0.64395,-0.39798 0.92588,-1.11993 0.6265,-1.60434 -0.29937,-0.4844 0.48079,-1.40838 1.73369,-2.0533 1.88088,-0.96816 2.06009,-0.94204 1.02801,0.14982 -0.6875,0.72733 -1.25,2.38699 -1.25,3.68815 0,1.30116 -0.46583,3.23616 -1.03518,4.3 -0.56935,1.06384 -0.68185,1.93257 -0.25,1.93051 0.43185,-0.002 1.60625,-2.13956 2.60979,-4.75 1.00353,-2.61044 2.66906,-6.53073 3.70116,-8.71176 1.0321,-2.18103 1.69274,-4.14931 1.46809,-4.37396 -0.22466,-0.22466 -2.01395,0.53879 -3.9762,1.69655 -4.92956,2.90851 -3.54914,0.61995 4.92416,-8.16364 6.38644,-6.62031 8.55818,-7.55756 8.55818,-3.69344 0,1.03508 0.45,2.16008 1,2.5 0.55,0.33992 0.98632,1.82898 0.96959,3.30902 -0.0254,2.24715 -0.19276,2.41264 -1.01477,1.00337 -0.85624,-1.46795 -1.62741,-1.04456 -5.92481,3.25284 -4.95043,4.95042 -6.59729,8.89618 -5.86571,14.05378 0.27104,1.91085 0.88378,2.34337 3.10311,2.19048 3.61858,-0.24928 2.69683,1.45024 -3.61568,6.66659 -5.4737,4.52321 -13.96334,7.98358 -21.14087,8.61701 0,0 -4.62805,2.07473 -5.01086,0.44223 -0.30537,-1.30227 3.7374,-1.46095 3.7374,-1.46095 z M 196.8228,402.0267 c 3.40579,-4.53726 4.04894,-5.75 3.04935,-5.75 -0.47659,0 -2.29387,2.025 -4.03841,4.5 -3.60757,5.1181 -2.73871,6.21619 0.98906,1.25 z m -0.20217,12.85699 c 0,-0.21616 0.69837,-0.661 1.55194,-0.98855 0.88992,-0.34149 1.29132,-0.17385 0.94098,0.39301 -0.58726,0.95021 -2.49292,1.40545 -2.49292,0.59554 z m 46.5095,-59.86846 c 0.80674,-4.82896 -2.07841,-1.30309 -2.07841,-1.74203 0,-0.43893 -0.89172,-3.81767 -1.82003,-3.77513 l -0.73212,-0.88493 0.0579,-1.06974 c 0.0985,-1.81792 -0.17917,-1.16099 1.0591,-0.76797 5.37838,1.70703 12.5085,-10.30776 12.90668,-21.74873 0.18737,-5.38382 0.0535,-5.75212 -2.10127,-5.78327 l -2.30139,-0.0333 2.09,-1.74746 c 1.50147,-1.25539 1.87325,-2.302 1.32029,-3.71673 -0.66036,-1.68948 -0.77971,-1.72064 -0.84,-0.21927 -0.0704,1.75226 -1.6109,2.41066 -2.33978,1 -0.21313,-0.4125 0.15981,-3.225 0.82877,-6.25 0.66895,-3.025 1.27348,-4.825 1.34338,-4 0.182,2.14802 6.76228,9.6468 7.67478,8.74606 0.42008,-0.41467 -0.12185,-1.76467 -1.20428,-3 -4.38407,-5.00333 -4.58945,-5.51006 -2.03535,-5.02181 3.25483,0.6222 6.91344,-4.93321 5.57216,-8.46104 -1.48072,-3.89455 -1.13876,-9.26318 0.59003,-9.26318 1.04762,0 1.5,-1.05556 1.5,-3.5 0,-1.925 0.45,-3.5 1,-3.5 0.55,0 1,-2.10344 1,-4.67431 v -4.67432 l 2.31445,2.17432 c 3.09961,2.91193 3.57337,2.75354 3.21747,-1.07569 -0.45474,-4.89273 -1.51782,-6.74662 -3.88891,-6.7818 -2.09944,-0.0312 -2.10355,-0.0617 -0.20188,-1.5 2.55116,-1.9296 4.24161,-1.82239 9.05887,0.57451 2.2,1.09465 3.2125,1.77197 2.25,1.50516 -0.9625,-0.2668 -1.75,-0.0492 -1.75,0.48351 0,1.11163 1.14741,1.23302 3.41821,0.36163 2.1199,-0.81348 2.01322,-2.37568 -0.16821,-2.4633 -1.49644,-0.0601 -1.46022,-0.19481 0.25,-0.92971 2.9798,-1.28047 3.49376,-1.17229 3.56339,0.75 0.0502,1.38661 0.24462,1.30052 0.93618,-0.4146 0.48004,-1.19052 1.68901,-2.63934 2.68661,-3.21959 0.9976,-0.58024 1.27788,-1.06868 0.62284,-1.0854 -0.65504,-0.0167 -1.47364,0.42693 -1.8191,0.9859 -0.34546,0.55897 -1.08086,0.7365 -1.63422,0.39451 -0.59863,-0.36997 -0.18559,-1.49522 1.01981,-2.77831 2.17355,-2.31363 5.21201,-12.42046 4.98831,-16.59261 l -0.13618,-2.5399 -0.46502,2.49154 -0.46503,2.49153 -1.14879,-2.80543 c -1.08818,-2.6574 -1.15268,-2.53698 -1.22234,2.28196 -0.0477,3.29884 0.24559,4.63968 0.83419,3.8139 2.14581,-3.01046 -0.49974,5.98939 -2.76829,9.41742 -3.01443,4.5551 -5.26779,5.84635 -8.24236,4.72314 -2.49411,-0.94179 -3.05421,-2.91406 -0.82755,-2.91406 0.78234,0 1.94224,-1.575 2.57755,-3.5 0.63531,-1.925 1.49521,-3.5 1.91089,-3.5 0.41568,0 0.81848,-0.5625 0.89512,-1.25 0.0766,-0.6875 0.8093,-4.175 1.62812,-7.75 0.9096,-3.97131 1.11232,-6.63048 0.52109,-6.83541 -0.53222,-0.18448 -0.71545,-0.74353 -0.40717,-1.24234 1.13267,-1.83269 -1.6063,-16.10369 -3.99568,-20.8189 -1.35444,-2.67287 -2.14532,-5.17742 -1.7575,-5.56566 0.38782,-0.38824 0.77593,-6.85555 0.86247,-14.37179 0.31312,-27.19671 0.3567,-26.50416 -1.79386,-28.50772 -1.9088,-1.77831 -1.91546,-1.9056 -0.1741,-3.32777 0.99584,-0.8133 1.20322,-1.16605 0.46085,-0.78389 -1.10598,0.56934 -1.13076,0.28563 -0.13723,-1.57081 1.50062,-2.80393 -1.40198,-22.39667 -1.40198,-22.39667 0,0 -1.31563,-2.61372 1.98691,2.29028 1.71966,2.55356 3.53634,6.18395 5.10441,10.02666 1.71779,4.2096 3.13723,8.674 3.80395,12.25664 0.58047,3.11913 0.15497,4.47298 -2.91327,9.26942 -3.58168,5.59907 -4.26531,7.10064 -2.84302,6.24458 0.4125,-0.24828 0.85009,2.76267 0.97242,6.69098 0.12233,3.92832 0.52871,9.6174 0.90307,12.6424 0.5356,4.32795 0.81951,4.96725 1.33226,3 0.54757,-2.1008 1.16185,-1.09444 3.84693,6.30227 1.75743,4.84125 3.19532,9.39306 3.19532,10.11514 0,0.72208 0.90567,2.46424 2.0126,3.87148 1.7673,2.24675 1.96059,3.66556 1.58588,11.64079 -0.23469,4.99521 -0.0634,8.85763 0.38073,8.58317 1.37676,-0.85088 1.94637,3.66951 1.416,11.23715 -0.3422,4.8827 -0.15167,7.25 0.58352,7.25 0.75615,0 0.78432,0.57423 0.0916,1.86852 -0.55,1.02768 -0.67834,2.22483 -0.28519,2.66032 0.39315,0.4355 0.18341,0.48732 -0.46608,0.11517 -0.6495,-0.37215 -1.46356,-0.21929 -1.80902,0.33968 -0.34546,0.55897 0.0311,1.01631 0.83682,1.01631 1.20391,0 1.25897,0.44405 0.30901,2.4922 -0.63575,1.37071 -1.71841,2.49571 -2.40591,2.5 -0.86303,0.005 -1.25,1.90302 -1.25,6.12977 v 6.12197 l -2.25,-1.6361 c -4.16552,-3.02898 -4.86807,-2.98438 -7.84442,0.49804 -3.17191,3.71122 -3.45944,4.9907 -1.81294,8.06722 0.79019,1.47648 0.79019,2.34407 0,3.13426 -0.60095,0.60095 -1.09264,1.87712 -1.09264,2.83594 0,0.95881 -0.94878,2.40785 -2.10841,3.22008 -1.17951,0.82616 -1.79603,1.98222 -1.39938,2.62401 0.42273,0.684 -0.12579,1.36553 -1.35848,1.68789 -1.13712,0.29736 -2.3524,1.43831 -2.70061,2.53544 -1.18195,3.72399 -0.67561,9.1388 0.96688,10.33982 2.05479,1.5025 2.01925,2.17477 -0.15,2.83726 -0.9625,0.29395 0.05,0.29096 2.25,-0.007 l 4,-0.54109 -3.25,3.37757 c -2.49734,2.59537 -3.26828,4.2929 -3.32895,7.32997 -0.0434,2.17381 -0.32479,3.33328 -0.62526,2.5766 -0.32436,-0.81685 -2.06233,1.50523 -4.27786,5.71561 -4.96355,9.43269 -9.60926,15.35787 -14.75168,18.81441 -2.32856,1.56517 -4.01606,3.40827 -3.75,4.09577 0.26606,0.6875 0.75689,1.925 1.09074,2.75 1.20627,2.98094 -0.74275,-2.11221 -4.09327,-5.67357 z m 21.95699,-39.77555 c -1.01391,-1.12037 -2.45742,-1.90787 -3.2078,-1.75 -2.16091,0.4546 -1.59919,2.22436 0.93229,2.93734 3.87666,1.09183 4.19012,0.92827 2.27551,-1.18734 z m -2.35399,-6.25048 c -0.81667,-0.81667 -1.1125,-0.70476 -1.1125,0.42083 0,1.98786 1.3447,3.33256 1.84167,1.84167 0.21083,-0.6325 -0.1173,-1.65063 -0.72917,-2.2625 z m 0.8875,-4.7125 c 0,-0.55 -0.19844,-1 -0.44098,-1 -0.24254,0 -0.7191,0.45 -1.05902,1 -0.33992,0.55 -0.14148,1 0.44098,1 0.58246,0 1.05902,-0.45 1.05902,-1 z m -1.76103,-12.46974 c 0.25966,-1.35835 0.0871,-2.2318 -0.38343,-1.94098 -0.82856,0.51208 -1.24587,4.41072 -0.47212,4.41072 0.21089,0 0.59588,-1.11138 0.85555,-2.46974 z m 7.44414,-5.71776 c -0.31922,-0.79773 -0.55618,-0.56078 -0.60416,0.60417 -0.0434,1.05416 0.19293,1.64479 0.52522,1.3125 0.33229,-0.33229 0.36781,-1.1948 0.0789,-1.91667 z m 4.7099,-5.39429 c 0.85222,-2.22085 0.75539,-3.41821 -0.27643,-3.41821 -0.48589,0 -1.09848,1.125 -1.36133,2.5 -0.52646,2.75401 0.67485,3.42752 1.63776,0.91821 z M 279.59,254.7767 c 0,-0.55 -0.43621,-0.325 -0.96937,0.5 -0.53316,0.825 -0.96937,1.95 -0.96937,2.5 0,0.55 0.43621,0.325 0.96937,-0.5 0.53316,-0.825 0.96937,-1.95 0.96937,-2.5 z m 8.71374,-24.6875 c -0.31922,-0.79773 -0.55618,-0.56078 -0.60416,0.60417 -0.0434,1.05416 0.19293,1.64479 0.52522,1.3125 0.33229,-0.3323 0.36781,-1.1948 0.0789,-1.91667 z m -1,-5 c -0.31922,-0.79773 -0.55618,-0.56078 -0.60416,0.60417 -0.0434,1.05416 0.19293,1.64479 0.52522,1.3125 0.33229,-0.3323 0.36781,-1.1948 0.0789,-1.91667 z m -1.68311,-12.19006 c 0,-0.20765 -0.675,-0.93775 -1.5,-1.62244 -1.22851,-1.01957 -1.5,-0.95124 -1.5,0.37756 0,0.89234 0.675,1.62244 1.5,1.62244 0.825,0 1.5,-0.1699 1.5,-0.37756 z m -5.116,-50.87244 c -0.0638,-2.3375 -0.3218,-3.4625 -0.57333,-2.5 -0.25152,0.9625 -0.86467,1.75 -1.36256,1.75 -0.49788,0 -0.39265,1.125 0.23384,2.5 1.56778,3.4409 1.8362,3.16492 1.70205,-1.75 z m -17.884,104.75 c 0,-0.825 0.17686,-1.5 0.39301,-1.5 0.21616,0 0.65203,0.675 0.96862,1.5 0.31658,0.825 0.13972,1.5 -0.39301,1.5 -0.53274,0 -0.96862,-0.675 -0.96862,-1.5 z m 19.01531,-74.25 c -0.008,-1.2375 0.43469,-2.25 0.98469,-2.25 1.25292,0 1.25292,1.06124 0,3 -0.78387,1.21296 -0.9723,1.06944 -0.98469,-0.75 z m 0.94562,-13.25 c -0.65252,-5.66235 1.46722,-11.4596 4.63458,-12.67503 0.81344,-0.31214 2.36222,0.23179 3.44174,1.20874 2.48762,2.25126 2.55118,3.85158 0.10089,2.54022 -2.68781,-1.43847 -4.93922,0.58525 -6.6066,5.93851 -0.76876,2.46816 -1.47553,3.81256 -1.57061,2.98756 z m 5.78907,-13.68933 c -1.72274,-0.45019 -2.30948,-3.06402 -1.84372,-8.21346 0.11953,-1.32153 -0.30949,-2.72837 -0.95338,-3.12632 -0.64388,-0.39794 -1.39099,-2.91668 -1.66024,-5.59721 l -0.48954,-4.87368 2.37795,3.5 c 4.09956,6.03397 7.65625,19.28417 5.06893,18.884 -0.4125,-0.0638 -1.5375,-0.3218 -2.5,-0.57333 z" />
    <path
       id="path27"
       d="m 229.05009,324.47147 c 0,0.0197 -0.0101,0.0379 -0.0267,0.0484 -0.0166,0.0105 -0.0375,0.0117 -0.0552,0.003 l 0.0247,-0.0516 z"
       style="fill:#000000;stroke:#800000" />
    <path
       id="path28"
       d="m 242.06844,306.48245 c 0,0.0316 -0.0256,0.0572 -0.0572,0.0572 -0.0316,0 -0.0572,-0.0256 -0.0572,-0.0572 0,-0.0316 0.0256,-0.0572 0.0572,-0.0572 0.0316,0 0.0572,0.0256 0.0572,0.0572 z"
       style="fill:#000000;stroke:#800000" />
  </g>
</svg>
